<?xml version="1.0" encoding="UTF-8" standalone="no"?>
<!-- Created with Inkscape (http://www.inkscape.org/) -->

<svg
   width="1500"
   height="1500"
   viewBox="0 0 396.87499 396.875"
   version="1.1"
   id="svg5"
   xml:space="preserve"
   inkscape:version="1.2.2 (b0a8486541, 2022-12-01)"
   sodipodi:docname="kc.svg"
   inkscape:export-filename="ttp.png"
   inkscape:export-xdpi="96"
   inkscape:export-ydpi="96"
   xmlns:inkscape="http://www.inkscape.org/namespaces/inkscape"
   xmlns:sodipodi="http://sodipodi.sourceforge.net/DTD/sodipodi-0.dtd"
   xmlns="http://www.w3.org/2000/svg"
   xmlns:svg="http://www.w3.org/2000/svg"
   xmlns:rdf="http://www.w3.org/1999/02/22-rdf-syntax-ns#"
   xmlns:cc="http://creativecommons.org/ns#"
   xmlns:dc="http://purl.org/dc/elements/1.1/"><title
     id="title186">Election Symbols of Kerala</title><sodipodi:namedview
     id="namedview7"
     pagecolor="#ffffff"
     bordercolor="#000000"
     borderopacity="0.25"
     inkscape:showpageshadow="2"
     inkscape:pageopacity="0.0"
     inkscape:pagecheckerboard="0"
     inkscape:deskcolor="#d1d1d1"
     inkscape:document-units="mm"
     showgrid="false"
     inkscape:zoom="0.25"
     inkscape:cx="230"
     inkscape:cy="1086"
     inkscape:window-width="1854"
     inkscape:window-height="1011"
     inkscape:window-x="0"
     inkscape:window-y="0"
     inkscape:window-maximized="1"
     inkscape:current-layer="layer1" /><defs
     id="defs2"><inkscape:path-effect
       effect="bspline"
       id="path-effect3248"
       is_visible="true"
       lpeversion="1"
       weight="33.333333"
       steps="2"
       helper_size="0"
       apply_no_weight="true"
       apply_with_weight="true"
       only_selected="false" /><inkscape:path-effect
       effect="bspline"
       id="path-effect577"
       is_visible="true"
       lpeversion="1"
       weight="33.333333"
       steps="2"
       helper_size="0"
       apply_no_weight="true"
       apply_with_weight="true"
       only_selected="false" /></defs><g
     inkscape:label="Layer 1"
     inkscape:groupmode="layer"
     id="layer1"><path
       style="fill:#000000;stroke-width:0.3077"
       d="m 50.153271,342.00898 c -8.643353,-1.12029 -15.384656,-4.4626 -21.540314,-10.6796 -3.300944,-3.33382 -5.248151,-6.01953 -7.179601,-9.90257 -5.056344,-10.16542 -4.998033,-22.57681 0.154325,-32.84436 0.83923,-1.6724 1.291843,-2.93455 1.179396,-3.28883 -0.382289,-1.2045 -2.289409,-2.44403 -5.016221,-3.26029 -1.481499,-0.44348 -3.005435,-1.0588 -3.386503,-1.36736 l -0.692847,-0.56104 0.285845,-23.32815 c 0.157209,-12.83049 0.301289,-30.25142 0.320175,-38.71319 0.07594,-34.01488 1.726989,-61.41449 5.117551,-84.9254 2.225144,-15.42971 3.522999,-21.28549 6.015672,-27.14203 2.702669,-6.349939 5.518726,-9.918236 10.218087,-12.947616 6.288678,-4.053905 19.012195,-10.61653 26.126716,-13.475803 9.206332,-3.699968 18.557383,-5.125587 41.168388,-6.276374 22.96567,-1.168825 27.75995,-1.30688 50.5287,-1.45496 44.90623,-0.292055 77.36444,1.414803 101.16776,5.320022 28.68135,4.705513 42.22332,8.774477 48.3854,14.538391 1.92184,1.797651 1.93477,2.576918 0.0775,4.668135 -0.76156,0.857476 -1.38465,1.806222 -1.38465,2.108325 0,2.92063 3.92515,10.10444 21.29264,38.96971 3.97116,6.60019 7.98852,13.38499 8.92748,15.07735 8.33542,15.0237 8.01538,14.28098 8.18019,18.98378 0.2084,5.94735 -0.52552,27.18434 -1.1704,33.86577 -0.61669,6.38966 -1.78965,14.7143 -2.61186,18.5369 -0.93285,4.33689 -0.6002,6.03354 1.95636,9.9782 1.53602,2.37001 2.38776,4.97261 2.96383,9.05628 0.2354,1.66867 0.48719,3.09314 0.55953,3.16549 0.0723,0.0723 1.43022,-0.28079 3.01753,-0.78477 6.02647,-1.91346 9.20363,-2.50048 13.66708,-2.52514 4.5805,-0.0252 6.42491,1.41918 7.39821,5.79398 0.51887,2.33224 0.50123,5.88519 -0.0573,11.53813 -0.30087,3.04519 -0.007,3.51212 4.14876,6.59958 4.41271,3.27808 6.70305,5.19664 7.31063,6.12394 0.42275,0.64519 0.40697,0.84128 -0.17314,2.15274 -0.35105,0.79359 -0.63826,1.62088 -0.63826,1.83842 0,0.21753 0.67442,1.20381 1.49869,2.19171 6.62611,7.94154 9.88934,15.63281 9.885,23.29862 -0.005,8.82619 -4.48836,19.64419 -10.89857,26.29724 -3.94097,4.09029 -8.2082,6.73139 -14.02411,8.6799 -8.64245,2.89549 -21.04704,2.30328 -29.96687,-1.43064 -4.99642,-2.09154 -8.79111,-4.99743 -11.88127,-9.09838 -4.65686,-6.18011 -7.07612,-14.19157 -7.07612,-23.4328 0,-2.12605 -0.12681,-3.94391 -0.2818,-4.0397 -0.15499,-0.0958 -1.70261,0.0508 -3.43916,0.32592 -3.01407,0.47738 -3.17584,0.47481 -3.56446,-0.0566 -0.2239,-0.30621 -0.40709,-1.30665 -0.40709,-2.2232 0,-1.46102 -0.0664,-1.6409 -0.53849,-1.45899 -1.82575,0.7035 -10.66103,3.0875 -14.78667,3.98984 -9.38794,2.0533 -17.6828,3.19227 -28.5222,3.91637 -13.29374,0.88806 -64.25345,0.27852 -94.77183,-1.13359 -9.7264,-0.45004 -18.09834,-1.03261 -25.80436,-1.79562 -2.48429,-0.24598 -4.66074,-0.29779 -5.84631,-0.13919 -1.87268,0.25054 -9.55409,2.78907 -24.96626,8.25079 -4.40013,1.5593 -11.22275,3.90834 -15.161404,5.22011 -3.938643,1.31175 -7.244495,2.46832 -7.346324,2.57015 -0.101875,0.10187 -0.637839,1.29105 -1.19113,2.64272 -4.097818,10.01077 -13.306034,18.24277 -23.840912,21.3134 -4.056788,1.18245 -9.843426,1.73338 -13.384975,1.27433 z M 371.07885,331.47993 c 0.46562,-2.11994 3.30576,-5.01951 5.77567,-5.89654 1.38592,-0.49211 1.4585,-0.78569 0.25939,-1.04906 -2.11993,-0.46562 -5.01952,-3.30576 -5.89652,-5.77567 -0.48714,-1.37187 -0.76301,-1.4537 -1.03739,-0.3077 -0.31454,1.31367 -2.238,3.93727 -3.49672,4.76951 -0.62521,0.41339 -1.65601,0.93913 -2.29064,1.16834 -1.38601,0.50055 -1.4578,0.79283 -0.25939,1.05605 2.11993,0.46562 5.01951,3.30576 5.89653,5.77568 0.49211,1.3859 0.78569,1.4585 1.04907,0.25939 z M 59.302304,326.54907 c 4.707908,-1.20409 8.585623,-3.75893 11.342521,-7.47307 2.163333,-2.91446 3.205546,-5.07027 4.033808,-8.34391 1.08865,-4.30273 0.32977,-10.52685 -1.800918,-14.77056 -5.622847,-11.19911 -18.208041,-15.63351 -28.817069,-10.15372 -3.390841,1.75145 -7.034894,5.56084 -8.929663,9.33482 -2.517409,5.01412 -3.262799,10.60143 -2.073017,15.53888 1.10749,4.59598 3.07677,7.92405 6.548437,11.06685 4.968203,4.49758 13.116052,6.48355 19.695901,4.80071 z m -8.995184,-8.05133 c -9.798548,-1.91359 -12.835104,-14.64783 -5.272039,-22.10908 2.161286,-2.13219 4.30186,-3.29383 7.187276,-3.90034 5.736503,-1.2058 10.965198,1.36181 13.414387,6.58731 0.744611,1.58866 0.824658,2.10296 0.824658,5.29802 0,3.3487 -0.05326,3.65102 -0.992799,5.63465 -2.027766,4.28118 -6.576941,7.80385 -11.007529,8.52374 -2.090125,0.33961 -2.245939,0.33832 -4.153954,-0.0343 z m 5.712999,-3.69099 c 1.675167,-0.51741 2.438292,-0.98071 3.879204,-2.3551 2.604456,-2.48423 3.485506,-4.44951 3.483482,-7.77031 -0.0023,-3.01149 -0.456858,-4.21168 -2.327625,-6.13937 -2.046594,-2.10887 -3.383886,-2.62899 -6.747955,-2.62447 -3.581787,0.005 -5.144392,0.65538 -7.719402,3.21389 -4.715816,4.68562 -4.000373,12.3706 1.411535,15.16206 2.602143,1.34217 4.867746,1.48717 8.020761,0.5133 z m -5.097757,-4.97142 c -3.643634,-2.4871 -2.418778,-8.37116 1.941963,-9.32894 1.364877,-0.29978 3.414518,0.41904 4.557525,1.59832 0.916543,0.94562 1.030467,1.26238 1.122993,3.12224 0.118901,2.3903 -0.462604,3.65339 -2.157821,4.68697 -1.441109,0.87866 -4.118704,0.84015 -5.46466,-0.0786 z m 304.777728,16.06778 c 3.19581,-0.70587 6.52532,-2.1977 9.20371,-4.12382 10.06857,-7.24068 12.58834,-22.54342 5.06705,-30.77288 -3.69269,-4.04039 -10.02384,-6.52416 -12.1443,-4.76433 -0.78758,0.65365 -0.45708,1.47369 1.48903,3.69467 4.8473,5.53189 6.39116,9.31817 6.38023,15.64729 -0.012,6.96488 -3.55994,13.3868 -8.66436,15.68293 -2.33994,1.05256 -5.34821,1.82931 -8.06868,2.08334 -1.78184,0.1664 -2.20061,0.0917 -3.78703,-0.67575 -1.11904,-0.54133 -2.58695,-1.67528 -3.93946,-3.04324 -5.15466,-5.2135 -7.02047,-12.85789 -4.6457,-19.03404 1.26669,-3.29426 0.98899,-5.0807 -1.05743,-6.80266 -1.45653,-1.2256 -2.59615,-1.08363 -4.12707,0.51414 -2.62134,2.73579 -3.69198,9.89751 -2.34865,15.71078 1.89876,8.21692 7.35731,13.99363 14.99647,15.87058 3.29526,0.80966 8.01548,0.81492 11.64619,0.013 z m -0.93999,-7.77819 c 2.52536,-1.3425 5.40476,-4.10215 6.39919,-6.13302 1.22896,-2.50984 1.56552,-4.26121 1.39388,-7.25355 -0.17219,-3.00226 -1.3329,-6.38301 -3.06334,-8.92243 -1.93882,-2.84524 -6.60086,-6.82731 -7.99312,-6.82731 -0.79691,0 -1.24018,1.06039 -0.99869,2.38899 0.32486,1.7875 1.50185,3.86908 3.50102,6.19189 4.05186,4.70778 5.54731,7.75623 5.54731,11.30811 0,2.91026 -0.84215,4.10674 -6.30787,8.96192 -2.35671,2.09345 -2.00396,2.15961 1.52162,0.2854 z m -1.76411,-4.81038 c 1.57783,-1.16765 2.09116,-2.54391 2.07243,-5.55618 -0.0252,-4.05072 -1.39444,-5.84266 -4.46647,-5.84517 -3.30049,-0.002 -6.05536,1.51125 -7.11696,3.91115 -1.22431,2.76778 0.5902,6.4761 3.90718,7.98506 1.44032,0.65521 4.40332,0.39356 5.60382,-0.49486 z M 96.000997,304.79487 c 4.143643,-6.22714 6.211003,-13.51407 5.924783,-20.88332 -0.12483,-3.21422 -0.28962,-4.12699 -1.27246,-7.0481 -0.62099,-1.84563 -1.573215,-4.19955 -2.116075,-5.23091 -1.952476,-3.70952 -5.575595,-6.37785 -10.276677,-7.5685 -9.209681,-2.33254 -34.557607,-2.87265 -44.027245,-0.93813 -5.242337,1.07094 -9.638594,3.80157 -11.151284,6.92637 -0.713676,1.47426 -0.575911,2.243 0.448008,2.49998 0.80733,0.20264 2.920888,-0.31557 4.467315,-1.09529 6.940833,-3.49961 19.551298,-4.18002 28.169205,-1.51987 4.673485,1.44259 10.160904,4.77405 14.108106,8.56514 6.757899,6.49062 11.416777,15.90146 13.150499,26.56373 0.213265,1.31158 0.482456,2.38468 0.598194,2.38468 0.115715,0 1.005684,-1.19509 1.977631,-2.65578 z m 144.814193,-4.39846 c 1.44333,-0.43862 2.6927,-1.43055 3.08328,-2.44796 0.66094,-1.72169 1.21229,-6.27027 1.39373,-11.49837 0.18717,-5.39291 0.18147,-5.46169 -0.45259,-5.46169 -0.35317,0 -1.58553,0.64927 -2.73856,1.4428 -4.64966,3.2 -5.86317,3.93656 -8.53745,5.18197 -7.03995,3.27851 -15.85939,4.8528 -23.41578,4.17978 -7.10396,-0.63272 -15.99994,-2.94203 -18.37596,-4.77023 -1.60504,-1.23496 -2.90026,-3.56485 -3.46156,-6.22678 -0.51732,-2.45333 -0.94097,-9.16413 -1.38909,-22.00368 -0.31238,-8.95062 -0.77138,-16.32694 -1.68233,-27.03598 -1.54485,-18.16109 -1.85538,-27.19836 -0.99059,-28.82843 1.80688,-3.4059 11.57715,-8.72596 21.82123,-11.88202 l 5.31894,-1.63868 0.1847,-1.97991 c 0.31488,-3.37518 0.29925,-16.65096 -0.0219,-18.58124 -0.18191,-1.09343 -0.55206,-2.07902 -0.9184,-2.44535 -0.58618,-0.58617 -0.66157,-0.59081 -1.68326,-0.10362 -1.90751,0.90962 -2.17668,1.67785 -2.17668,6.21243 0,2.20798 0.10699,6.45226 0.23776,9.43173 l 0.23775,5.41722 -1.31471,0.47157 c -0.72309,0.25937 -4.43018,1.54346 -8.23797,2.85357 -10.05887,3.4608 -14.46545,5.8288 -17.79189,9.56099 -3.51802,3.94713 -4.09843,6.23046 -3.47976,13.68926 0.1884,2.27137 0.68624,8.35297 1.10633,13.51465 0.42007,5.16168 1.26889,15.47734 1.88625,22.9237 0.996,12.0133 1.10184,14.24959 0.93933,19.8467 -0.42258,14.55344 -1.8617,25.15323 -3.83428,28.24115 -0.24662,0.38606 -0.37371,0.7766 -0.28243,0.86789 0.29523,0.29524 9.58452,0.69466 24.22575,1.04165 7.86945,0.1865 15.8312,0.3816 17.69279,0.43355 6.9286,0.19337 21.54617,-0.069 22.65733,-0.4067 z m -69.5233,-1.57434 c 1.23067,-1.65498 1.28029,-6.56636 0.25325,-25.06464 -0.16913,-3.04625 -0.44921,-8.51563 -0.6224,-12.15419 -0.31622,-6.64368 -1.44579,-26.73135 -2.30991,-41.07804 -0.25483,-4.23089 -0.66992,-11.56956 -0.92242,-16.30814 -0.2525,-4.73859 -0.80252,-14.15423 -1.22226,-20.92366 -0.41974,-6.76941 -0.90811,-15.0081 -1.08528,-18.30819 -0.17715,-3.30008 -0.51713,-9.32333 -0.75551,-13.38498 -0.74155,-12.6353 -1.11684,-19.88261 -1.68099,-32.46242 -0.57392,-12.79749 -0.74228,-13.96528 -1.98719,-13.7837 -0.44982,0.0656 -0.70018,0.43455 -0.89697,1.32181 -0.31819,1.43455 -0.0921,12.7854 0.55477,27.84692 1.07555,25.04502 1.38646,32.00537 1.54622,34.61633 0.0932,1.52313 0.3709,7.33866 0.61712,12.92343 0.54269,12.30915 1.21463,26.67761 1.82746,39.07799 1.47912,29.92877 1.95317,40.60965 2.32171,52.30913 0.58798,18.66642 1.01226,24.08059 2.00594,25.59711 0.61222,0.93437 1.56185,0.8438 2.35646,-0.22476 z m 172.36314,-1.24645 c -0.0608,-1.8903 -2.40444,-7.84847 -3.32425,-8.45115 -0.77725,-0.50929 -1.5637,-0.34054 -1.84638,0.39617 -0.40624,1.05861 1.50095,6.03647 3.19301,8.33384 1.29705,1.76111 2.03983,1.65638 1.97762,-0.27886 z m -82.4494,0.65948 c 0.6472,-0.32996 2.78808,-0.96911 4.75749,-1.42034 8.76423,-2.00801 16.37685,-4.34586 24.19672,-7.43084 4.67736,-1.84525 9.14447,-3.98844 10.21056,-4.89873 0.39353,-0.336 1.06736,-1.77378 1.6266,-3.47073 2.02316,-6.13899 4.73419,-10.42144 7.80913,-12.33558 2.80895,-1.74856 3.23205,-2.09526 3.72844,-3.05517 0.24892,-0.48135 0.8766,-4.1791 1.39487,-8.21722 2.95535,-23.02721 7.02557,-44.70168 9.2501,-49.2582 1.12059,-2.29527 2.28972,-3.30205 6.90449,-5.94567 4.37819,-2.50808 4.61942,-2.73905 5.03799,-4.82322 0.5967,-2.97117 0.47516,-3.0885 -1.6702,-1.61246 -3.94035,2.71103 -12.59148,6.7312 -20.13748,9.35786 -7.88384,2.74425 -13.27606,3.84654 -45.80518,9.36356 -2.93841,0.49837 -5.46335,1.0269 -5.61097,1.17454 -0.14763,0.14762 -0.40897,1.00951 -0.58075,1.9153 -0.29471,1.55402 -1.27196,15.40841 -1.70546,24.17835 -0.18396,3.72166 -0.76507,12.54197 -2.33129,35.38558 -0.73798,10.7636 -0.69362,18.67619 0.11513,20.53902 0.57773,1.33068 1.08869,1.43141 2.80979,0.55395 z m 2.47823,-7.47721 c 0.1742,-1.03687 0.85864,-9.98717 2.15888,-28.23155 1.46821,-20.60121 1.77467,-23.7308 2.30364,-23.52546 1.40881,0.5469 4.21893,1.12546 7.01305,1.44388 2.62514,0.29917 3.15393,0.44732 3.15393,0.88361 0,0.28829 -0.27187,3.13341 -0.60416,6.32248 -2.52275,24.21166 -2.86084,29.24778 -2.01082,29.95322 1.13031,0.93808 6.31383,-0.58326 9.34756,-2.74347 1.45236,-1.03416 2.46111,-3.3449 2.93529,-6.72375 0.23639,-1.68452 0.70801,-3.6014 1.04803,-4.25971 0.831,-1.60886 2.77401,-3.44125 5.74609,-5.41894 2.54894,-1.69612 4.21722,-3.67205 4.7118,-5.58071 0.23105,-0.89162 0.59956,-1.11606 4.99448,-3.04172 2.60977,-1.14348 4.82346,-2.07906 4.91933,-2.07906 0.44558,0 -0.85424,9.73423 -1.49133,11.16845 -0.316,0.71139 -2.10036,2.91291 -3.96523,4.89226 -3.78355,4.01581 -5.29517,6.51364 -6.66718,11.01696 -1.3907,4.5647 -1.93148,5.0693 -9.43684,8.80535 -8.27804,4.12068 -19.70258,8.11818 -23.20113,8.11818 -1.09677,0 -1.11942,-0.0237 -0.95539,-1.00002 z m 36.57954,-42.7704 c 0.0935,-0.38078 0.2645,-1.41685 0.38,-2.30239 0.11548,-0.88553 0.36554,-1.72668 0.55567,-1.86921 0.57448,-0.43065 9.18186,-4.09526 9.31237,-3.96476 0.18759,0.18758 -0.49399,4.63614 -0.74456,4.85961 -0.33046,0.29474 -8.99512,3.96907 -9.35971,3.96907 -0.17257,0 -0.23727,-0.31155 -0.14377,-0.69232 z m 1.26465,-9.22257 c 0.11913,-1.05306 0.32093,-2.10106 0.44842,-2.32887 0.35498,-0.6343 9.4298,-4.61341 9.76256,-4.28066 0.147,0.147 -0.28936,2.85374 -0.68662,4.25917 -0.0884,0.31256 -1.88649,1.21933 -4.72881,2.38468 -2.52244,1.0342 -4.68209,1.88036 -4.79921,1.88036 -0.11714,0 -0.11549,-0.86161 0.003,-1.91468 z m -26.56034,-1.49468 c -4.53531,-0.43741 -7.05196,-1.81792 -7.72385,-4.23688 -0.47434,-1.70773 -0.38281,-6.4771 0.15933,-8.30269 0.58668,-1.97559 1.86673,-3.47505 3.70365,-4.3385 1.83402,-0.8621 6.69384,-2.00172 13.30392,-3.11973 6.31443,-1.06802 8.60789,-1.14727 9.61443,-0.33222 0.69599,0.56358 0.7024,0.63524 0.6733,7.5319 -0.0376,8.88939 -0.4518,10.52312 -3.00014,11.83086 -0.6066,0.31131 -0.61541,0.21595 -0.61541,-6.66757 0,-6.16722 -0.0637,-7.08069 -0.54557,-7.81602 -0.6254,-0.95449 -0.80309,-0.99779 -1.62645,-0.39631 -0.55909,0.40842 -0.60315,0.92699 -0.68898,8.11094 l -0.0918,7.67463 -2.0622,0.19479 c -2.62966,0.24837 -7.78552,0.1865 -11.10031,-0.1332 z m 22.16199,-11.36028 c 0.0259,-3.97703 0.12994,-7.91376 0.23108,-8.7483 0.16519,-1.36313 0.27768,-1.54257 1.10698,-1.76591 1.1656,-0.31388 15.0676,-3.52481 16.30814,-3.76667 1.78886,-0.34875 1.93053,0.0677 1.11181,3.26836 -0.40216,1.57215 -0.92064,3.48154 -1.15219,4.2431 l -0.42099,1.38466 -5.15408,2.25633 c -6.60969,2.89358 -6.23103,2.7925 -6.23103,1.6635 0,-1.13877 -0.61673,-1.68741 -1.75068,-1.55739 -0.8201,0.0941 -0.88542,0.21841 -1.26436,2.40692 -0.68222,3.94016 -1.29968,6.00017 -2.08047,6.94096 l -0.75141,0.9054 z m 5.33285,5.61553 c 0.46127,-3.61995 -0.0448,-3.098 5.14999,-5.31211 2.57537,-1.09767 4.9448,-2.10096 5.26539,-2.2295 0.52963,-0.21237 0.56347,-0.128 0.37019,0.9231 -0.73314,3.98676 -0.73766,3.9965 -2.10776,4.54036 -0.70822,0.28113 -2.90135,1.19258 -4.87363,2.02545 -1.97227,0.83286 -3.67695,1.51428 -3.78819,1.51428 -0.11118,0 -0.11842,-0.6577 -0.0161,-1.46158 z m 45.94759,65.06579 c 0.17269,-2.03788 -2.68527,-10.2249 -3.67955,-10.54047 -0.80827,-0.25653 -1.49237,0.37194 -1.49237,1.371 0,0.98263 3.23482,9.18259 3.92882,9.95913 0.6966,0.77948 1.13362,0.50186 1.2431,-0.78966 z m -31.66683,-2.54151 c 1.33734,-0.61226 2.53094,-1.63777 5.41273,-4.65047 5.37313,-5.6172 8.47706,-7.81698 13.38541,-9.48642 4.60797,-1.56727 6.51582,-1.77317 17.08164,-1.84349 6.27537,-0.0417 10.40441,-0.19749 11.38492,-0.4294 4.08255,-0.96556 8.76948,-2.92501 8.76948,-3.66624 0,-0.70913 -4.47896,-4.93772 -7.23276,-6.82842 -2.34628,-1.61095 -2.57342,-1.69788 -4.92143,-1.88357 -1.89482,-0.14986 -3.41805,-0.55554 -6.61556,-1.76192 -6.00573,-2.2659 -9.70894,-3.34375 -13.34141,-3.88312 -8.57516,-1.27328 -12.80582,0.005 -17.89022,5.40574 -2.65048,2.81537 -4.49169,5.55677 -6.69326,9.96577 -2.07749,4.16049 -3.09246,6.94053 -4.22474,11.57174 -1.49509,6.11514 -1.54786,8.06566 -0.2314,8.55265 0.88667,0.32799 3.06859,-0.12525 5.1166,-1.06285 z m -2.4223,-3.75343 c 0.0208,-7.47289 4.40349,-17.09538 10.61397,-23.30408 2.37117,-2.37048 5.46704,-4.45616 5.80437,-3.91037 0.089,0.144 -0.52768,1.08178 -1.37038,2.08396 -5.08497,6.04733 -7.61989,9.97019 -9.57189,14.81263 -1.43096,3.54991 -1.74327,5.01002 -1.07162,5.01002 0.52526,0 3.10528,-1.88635 6.61602,-4.8372 4.03223,-3.38921 9.81981,-5.86418 15.33922,-6.55964 3.61499,-0.45549 8.09613,0.0265 8.09613,0.87081 0,0.1423 -1.62697,0.51094 -3.61549,0.8192 -4.74111,0.73495 -10.72847,2.38204 -13.49344,3.71193 -3.00714,1.44637 -6.62006,4.18424 -10.70708,8.1138 -3.39445,3.26367 -6.06652,5.57362 -6.44739,5.57362 -0.10955,0 -0.19609,-1.0731 -0.19242,-2.38468 z m -92.31688,-3.01802 c 8.60405,-1.509 14.47759,-4.41282 20.2008,-9.98704 3.82524,-3.72566 4.37216,-5.56811 5.20486,-17.53424 0.50608,-7.27225 0.44105,-10.48975 -0.22833,-11.29629 -0.55355,-0.66699 -1.56634,-0.2812 -5.63834,2.14772 -4.95506,2.95567 -12.80681,6.91619 -16.76969,8.45886 -7.87685,3.0663 -10.97557,3.30376 -19.84669,1.52086 -6.57332,-1.32108 -11.00831,-2.05901 -12.38495,-2.06072 -0.61455,-6.2e-4 -1.25526,0.25399 -1.66212,0.66085 -0.6454,0.6454 -0.65696,0.80403 -0.45865,6.29366 0.11188,3.09737 0.41431,7.7343 0.67203,10.3043 0.51995,5.18478 1.18004,7.26616 2.63234,8.30029 1.73597,1.23612 6.73583,2.57209 13.20141,3.52742 3.65613,0.54023 11.01763,0.37633 15.07733,-0.33567 z m -60.04678,-7.71841 1.89134,-0.19768 v -1.62101 -1.621 l -10.23105,0.16112 c -23.2872,0.36674 -27.61751,-0.98132 -33.94997,-10.56893 -4.43408,-6.71337 -7.02233,-12.96516 -14.44005,-34.87924 -3.43062,-10.13503 -4.62867,-13.0264 -6.804671,-16.4224 -2.740058,-4.27631 -4.454219,-5.5702 -9.437936,-7.12393 -3.025275,-0.94317 -4.501971,-1.80139 -5.037038,-2.92742 -1.395045,-2.93581 -4.992602,-28.68209 -7.479599,-53.52844 -1.519016,-15.17581 -2.862018,-23.69296 -3.73595,-23.69296 -1.643395,0 -1.326162,19.28568 0.668111,40.6165 1.363714,14.58634 3.040149,26.96701 4.447334,32.84422 1.305217,5.45129 2.478775,7.04152 6.302331,8.53997 9.037575,3.54179 14.160231,12.23263 19.498048,33.07938 2.08249,8.13318 3.91548,12.82163 8.5411,21.84676 3.02881,5.90954 5.36339,9.26724 7.29809,10.49645 3.58466,2.27753 13.59133,4.17536 25.59151,4.85363 5.73149,0.32394 14.44962,0.39883 16.8784,0.14498 z m -0.0434,-6.39263 c 0.71288,-0.29939 1.37951,-0.80705 1.48142,-1.12813 0.16151,-0.50887 0.0584,-3.70107 -0.60302,-18.6595 -0.20965,-4.74154 -1.52112,-6.95602 -4.62755,-7.81374 -2.12402,-0.58648 -2.64724,-0.26597 -15.76194,9.65518 -10.98961,8.31355 -13.63205,10.8662 -13.63205,13.1688 0,1.04129 2.08797,2.84495 4.02226,3.47456 3.9262,1.27797 12.12945,2.02069 21.2092,1.92032 5.51968,-0.0611 6.83028,-0.16332 7.91168,-0.61749 z m -34.94817,-9.35763 c 2.92033,-2.44118 14.35386,-11.55475 20.26708,-16.15473 1.77697,-1.38233 3.90826,-3.16465 4.73622,-3.96072 1.48637,-1.42912 1.50288,-1.46601 1.30728,-2.92332 -0.16732,-1.24664 -2.23254,-6.01853 -3.22147,-7.44351 -0.23514,-0.33882 -1.48431,0.46785 -5.9446,3.83875 -10.16245,7.68039 -20.70081,15.86603 -21.8975,17.00883 -2.68648,2.56552 -3.06028,4.52861 -1.49798,7.86717 0.84779,1.81169 2.61949,4.17663 3.12891,4.17663 0.13203,0 1.53696,-1.08409 3.12206,-2.4091 z m 193.7618,-3.42072 c 3.44409,-2.35891 5.48205,-4.38745 6.40912,-6.3795 0.70523,-1.51538 2.06553,-7.50835 1.88063,-8.28521 -0.0557,-0.23374 -1.56526,0.28315 -4.17216,1.42856 l -4.08501,1.79482 0.20003,-1.59546 c 0.11002,-0.87752 0.28667,-1.68746 0.39257,-1.79989 0.10595,-0.11246 2.05981,-0.96099 4.342,-1.88571 4.00352,-1.62219 4.15685,-1.71772 4.36116,-2.71667 0.11647,-0.56944 0.16646,-1.08064 0.11118,-1.13597 -0.0554,-0.0554 -1.85045,0.61885 -3.98913,1.49819 -2.1387,0.87935 -3.95817,1.52918 -4.04328,1.44407 -0.0851,-0.0851 -0.0433,-0.81951 0.0929,-1.63201 l 0.24766,-1.47727 4.10369,-1.72949 c 4.05567,-1.70928 4.79194,-2.24802 4.60228,-3.3677 -0.0879,-0.51907 -0.44479,-0.43047 -3.75355,0.93195 -2.01101,0.82805 -3.81743,1.50555 -4.01427,1.50555 -0.24536,0 -0.30506,-0.45942 -0.18988,-1.46158 l 0.16801,-1.46159 3.38471,-1.42712 c 5.21574,-2.19915 5.18229,-2.17963 5.43823,-3.17292 0.12863,-0.49919 0.16877,-0.97271 0.0892,-1.05227 -0.0795,-0.0796 -1.87501,0.56238 -3.98993,1.42651 -4.17939,1.70766 -4.0365,1.73056 -3.65348,-0.58545 0.18312,-1.10728 0.22361,-1.1343 3.91823,-2.61545 2.05326,-0.82314 3.97623,-1.73893 4.27323,-2.03509 0.45577,-0.45446 0.78651,-2.07698 0.42337,-2.07698 -0.0642,0 -0.92957,0.35721 -1.92314,0.79378 -0.99353,0.43658 -2.08338,0.915 -2.42185,1.06316 -1.43905,0.62991 -3.01715,1.22007 -3.26255,1.22007 -0.22246,0 -0.0431,-2.72604 0.19875,-3.02122 0.0442,-0.054 1.85935,-0.83588 4.03368,-1.73768 3.61346,-1.49864 3.97713,-1.72214 4.23014,-2.59958 0.15222,-0.52799 0.20644,-1.03032 0.12047,-1.11629 -0.0861,-0.0859 -1.76482,0.4968 -3.73069,1.29508 -1.9659,0.79828 -3.65745,1.36832 -3.75903,1.26675 -0.10152,-0.10153 -0.0907,-0.8112 0.024,-1.57697 l 0.20878,-1.3923 3.9337,-1.57852 c 3.68694,-1.47952 3.94565,-1.63832 4.12424,-2.53132 0.10478,-0.52403 0.12597,-1.01737 0.047,-1.09633 -0.11234,-0.11222 -3.04851,1.00021 -7.00019,2.65217 -0.28995,0.1212 -0.32041,-1.03501 -0.0614,-2.32991 0.16938,-0.84696 0.47047,-1.03347 3.81069,-2.3607 4.01475,-1.59523 4.00562,-1.58455 4.00562,-4.68662 v -1.35138 l -1.61544,0.81084 c -2.92709,1.46922 -5.78862,3.55003 -6.55796,4.76873 -2.25471,3.5717 -5.37697,18.23828 -8.27977,38.89355 -0.78395,5.57835 -1.67464,14.30808 -1.45984,14.30808 0.0636,0 1.31788,-0.82337 2.78718,-1.82971 z m 41.78104,-0.93959 c 0.82295,-2.41671 0.82691,-9.35063 0.007,-11.47708 -0.31336,-0.81223 -0.72876,-1.42681 -0.92311,-1.36574 -0.19434,0.0611 -0.68226,1.0718 -1.08427,2.24605 -0.56706,1.65649 -0.72387,2.7379 -0.69959,4.82499 0.0436,3.74793 1.19609,8.47842 1.88273,7.72794 0.13277,-0.14509 0.50072,-1.02537 0.81768,-1.95616 z M 218.5465,257.55657 c 4.904,-1.32371 11.64098,-4.55018 20.53505,-9.8346 5.47317,-3.25191 7.45999,-4.70304 8.21919,-6.0031 0.5653,-0.96799 0.47626,-1.96494 -0.17498,-1.95937 -0.87957,0.007 -3.7639,1.69388 -7.55855,4.41919 -7.37336,5.29555 -11.47342,7.31513 -17.29407,8.51861 -5.36211,1.10868 -16.54122,0.83456 -26.23765,-0.64337 -6.19967,-0.94496 -6.93484,-0.80272 -5.24888,1.01552 1.09936,1.18562 2.35043,1.645 8.13999,2.98897 11.04972,2.56503 14.64915,2.83987 19.6199,1.49815 z m 115.27012,-5.85692 c 1.65033,-1.13004 2.68587,-2.20642 3.33225,-3.46366 0.54946,-1.06873 0.60552,-1.61793 0.47125,-4.61551 -0.16589,-3.70312 -0.70649,-5.75913 -2.02077,-7.68559 -1.09656,-1.60726 -1.46752,-1.6652 -1.7098,-0.26702 -0.28933,1.6696 -2.32274,14.45363 -2.54825,16.02077 l -0.18942,1.31646 0.85245,-0.3241 c 0.46885,-0.17826 1.28438,-0.61986 1.81229,-0.98135 z m 15.26793,0.81152 c 3.46933,-0.26447 6.46744,-0.53286 6.66246,-0.59642 0.19503,-0.0636 0.50553,-0.81937 0.68999,-1.67958 0.1845,-0.86021 0.54417,-2.06361 0.79931,-2.67422 0.78587,-1.88087 0.7255,-1.93661 -1.61311,-1.49006 -4.1916,0.80036 -6.1563,1.44534 -9.76951,3.20719 -3.67293,1.79097 -5.38475,2.87952 -5.38475,3.42418 0,0.39357 1.33449,0.36397 8.61561,-0.19109 z m -228.91124,-0.84305 c 1.48878,-0.89971 4.80738,-3.38664 8.90522,-6.67347 0.76157,-0.61084 2.76931,-2.13894 4.46166,-3.39578 1.69236,-1.25682 5.03778,-3.84716 7.43429,-5.7563 6.05442,-4.82316 6.58601,-5.96515 5.44727,-11.70189 -0.27714,-1.3962 -0.63029,-2.53853 -0.78477,-2.53853 -0.56489,0 -2.3454,1.08921 -9.79673,5.99308 -12.26806,8.07386 -20.33471,14.20073 -21.0962,16.02323 -0.61258,1.46611 -0.54072,3.73507 0.18509,5.84469 1.16981,3.40008 2.4063,3.91999 5.24417,2.20497 z m 99.56155,-2.52307 c 4.64899,-0.75403 9.89067,-2.8453 15.03887,-6.0001 6.61221,-4.05191 11.39768,-7.66671 12.4905,-9.43493 0.5384,-0.87116 0.63358,-1.40621 0.52274,-2.93866 -0.12108,-1.67375 -0.25225,-1.98055 -1.22993,-2.87652 -1.09749,-1.00579 -2.14533,-1.33773 -6.38736,-2.0235 -0.93695,-0.15146 -5.30364,-0.35724 -9.70376,-0.45726 -9.21357,-0.20945 -10.36197,-0.0576 -15.75458,2.08347 -7.11518,2.82496 -19.59834,9.47807 -22.50666,11.99528 -2.15284,1.86333 -2.85273,4.58355 -1.59176,6.18662 1.33265,1.69419 4.76044,2.39611 18.1601,3.71869 2.87402,0.28367 8.44552,0.15503 10.96184,-0.25309 z m -60.90577,-9.89459 c -3.31144,-6.61304 -4.61409,-9.89145 -9.94673,-25.03313 -4.65523,-13.21825 -10.44483,-21.30127 -17.95763,-25.07119 -2.60909,-1.30925 -4.76598,-1.91294 -8.24115,-2.30662 -2.47832,-0.28074 -6.46337,-0.14759 -6.11157,0.20422 0.0688,0.0688 1.63916,0.52238 3.48961,1.00787 10.13889,2.66005 16.03603,6.76202 21.15783,14.71706 2.53045,3.93024 4.60874,9.18849 6.92049,17.50948 2.31244,8.32342 6.73998,16.97386 10.87186,21.24117 0.69298,0.71571 1.3117,1.24954 1.37493,1.18632 0.0633,-0.0633 -0.63771,-1.61806 -1.55764,-3.45518 z m -72.520963,2.34413 c 4.823775,-0.20403 8.853896,-0.53309 10.461821,-0.8542 l 2.615458,-0.52235 -0.08141,-1.53851 c -0.111063,-2.09747 -3.147595,-10.99424 -5.040993,-14.76963 -3.456234,-6.89166 -8.945944,-12.27725 -12.514602,-12.27725 -1.961187,0 -2.513013,1.5467 -2.26643,6.35253 l 0.0749,1.46009 -30.702221,0.0784 -30.702209,0.0784 -0.08083,10.81744 -0.08083,10.81745 2.850144,0.18753 c 11.013577,0.72473 49.96122,0.82589 65.467231,0.17008 z m 27.445293,-2.33064 c 0.52388,-0.2709 2.58422,-1.69017 4.57855,-3.15394 5.24716,-3.8512 10.02183,-7.10896 16.21832,-11.06573 7.8219,-4.99467 8.42443,-5.47721 8.90165,-7.12891 0.33669,-1.16532 0.32626,-1.62731 -0.0673,-2.98122 -0.80857,-2.78136 -1.49789,-3.01702 -4.04408,-1.38256 -7.44536,4.77935 -27.97778,18.78755 -28.57092,19.49246 -1.65818,1.97064 -0.4491,6.50251 1.78529,6.69162 0.13532,0.0116 0.67467,-0.20082 1.19852,-0.47172 z m 83.51991,-6.98369 c 2.68627,-1.44919 7.16881,-3.74702 9.96119,-5.10628 6.05677,-2.94829 7.09922,-3.74012 8.0524,-6.11635 0.64504,-1.60808 0.70533,-2.22354 0.6851,-6.99415 -0.0286,-6.75406 -1.04075,-15.44159 -2.1592,-18.53363 -0.39176,-1.083 -0.66498,-1.36048 -1.62202,-1.64721 -3.13536,-0.93937 -15.82628,3.57675 -21.21219,7.54847 -2.44341,1.80184 -3.36622,3.65802 -3.69759,7.43745 -0.46328,5.2838 0.84598,23.24927 1.82881,25.09455 1.02394,1.92249 1.7629,1.77015 8.1635,-1.68285 z m -35.26045,2.22594 c 0.35353,-0.66057 0.17736,-5.80949 -0.78369,-22.90433 -0.24737,-4.40011 -0.65931,-12.70803 -0.91543,-18.46204 -0.25611,-5.754 -0.60431,-12.88497 -0.77378,-15.84658 -0.16947,-2.96163 -0.44773,-8.43101 -0.61836,-12.15418 -0.17064,-3.72318 -0.51241,-10.78492 -0.75949,-15.69275 -0.2471,-4.90782 -0.66534,-13.3542 -0.92942,-18.76974 -0.74212,-15.21856 -1.40113,-25.20545 -1.68219,-25.49288 -0.35129,-0.35924 -18.11593,-0.26915 -21.08199,0.10688 -1.31928,0.16726 -2.57261,0.44847 -2.7852,0.62491 -0.70312,0.58354 -0.87823,2.52782 -0.9137,10.14527 -0.0359,7.71789 -0.23897,9.48433 -1.40194,12.19745 -0.86404,2.01569 -2.56166,3.69072 -4.33873,4.28097 -1.86195,0.61844 -2.12356,1.11619 -2.85337,5.42912 -0.59341,3.50673 -1.13449,14.46157 -0.93167,18.8628 0.078,1.69236 0.28291,7.43868 0.45537,12.76958 0.17247,5.33092 0.39168,10.45414 0.48715,11.38494 l 0.17357,1.69236 3.28233,1.02943 c 13.86177,4.34747 19.60254,11.18191 26.68198,31.76516 0.73221,2.12888 2.31642,6.33691 3.52048,9.35116 3.7343,9.34851 5.15405,11.57717 6.16808,9.68244 z m -50.01646,-6.37859 c 3.47173,-2.1856 14.51148,-9.5894 16.77441,-11.24975 2.2563,-1.65551 5.23092,-4.50124 5.23092,-5.00429 0,-1.09395 -1.86813,-1.37096 -17.49497,-2.59433 -14.90535,-1.16688 -18.198324,-1.3644 -18.198324,-1.09155 0,0.1194 0.535184,1.00568 1.189304,1.96949 2.2677,3.34136 4.96721,9.31029 7.58353,16.76804 0.93147,2.6551 1.2638,3.28541 1.65343,3.13588 0.26823,-0.10292 1.73598,-0.97299 3.2617,-1.93349 z m 135.89384,-5.49648 c 0.56932,-0.68692 0.45099,-7.85595 -0.20363,-12.3366 -0.41218,-2.82122 -0.70193,-3.73844 -1.96851,-6.23132 -1.5999,-3.14892 -1.9998,-4.66237 -2.45402,-9.28736 -0.32621,-3.3217 -0.64376,-4.16246 -1.6693,-4.41985 -1.18545,-0.29753 -11.19731,1.92067 -12.1181,2.68485 -0.31111,0.25821 -0.39543,3.20824 -0.39543,13.83594 v 13.50775 l 0.69232,0.27999 c 0.38078,0.154 2.35391,0.51335 4.38474,0.79854 2.03082,0.28521 5.28476,0.76677 7.23097,1.07015 4.6251,0.72095 5.9678,0.74118 6.50096,0.0979 z m -23.79386,-1.9767 c 0.69404,-0.24193 1.05282,-0.63392 1.3193,-1.44137 0.73839,-2.23734 0.0972,-22.13645 -0.78096,-24.23827 -0.24775,-0.59294 -0.85986,-1.25145 -1.45247,-1.56257 -1.19339,-0.62652 -4.05056,-0.75244 -4.60108,-0.20277 -0.73123,0.73008 -0.75336,3.31288 -0.0771,9.00755 0.37176,3.13085 0.82808,8.17657 1.01405,11.2127 0.35595,5.81132 0.59552,6.69454 1.96554,7.24639 0.92395,0.37217 1.49667,0.36743 2.61279,-0.0216 z M 69.528462,215.77098 c 6.095788,-0.60544 6.514269,-0.89557 6.180499,-4.28498 -1.164848,-11.82899 -3.405506,-26.62938 -4.440369,-29.33038 -0.850347,-2.21942 -3.562564,-2.8269 -16.19209,-3.62668 -32.37262,-2.05004 -34.300057,-2.14952 -35.047901,-1.80878 -1.532809,0.69839 -2.153157,3.75913 -2.641916,13.03496 -0.36924,7.00738 -0.386522,20.70325 -0.02849,22.55536 0.498958,2.58101 1.793673,3.20987 7.717448,3.74852 3.996779,0.36342 40.259396,0.12846 44.452786,-0.28802 z m 68.550308,-8.64504 c 0.60598,-0.28087 0.84534,-0.6184 0.84317,-1.189 -0.008,-2.21176 -3.94759,-7.69845 -7.18673,-10.00985 -3.89017,-2.77597 -8.27247,-3.77364 -22.96493,-5.22817 -13.583707,-1.34478 -17.690433,-1.72029 -20.896374,-1.91072 l -3.511277,-0.20858 0.190447,2.89551 c 0.236791,3.60014 1.271898,9.04362 1.902794,10.00649 1.37617,2.1003 3.823963,2.44684 42.93037,6.07774 2.50346,0.23243 7.82885,-0.0332 8.69253,-0.43342 z m 35.77842,-5.09946 c 0.97084,-0.44802 3.98269,-3.18299 5.55065,-5.04039 2.61411,-3.09666 5.80443,-4.92371 15.02339,-8.6037 3.0277,-1.20857 6.0195,-2.45994 6.64844,-2.78081 1.6878,-0.86104 2.00089,-1.89829 2.00089,-6.62886 0,-5.38882 -0.062,-5.48234 -4.25739,-6.43049 -1.21826,-0.27532 -2.35842,-1.50539 -2.35703,-2.54289 0.001,-1.18427 0.95441,-2.63992 2.2536,-3.44286 0.59803,-0.3696 3.07006,-1.49709 5.49339,-2.5055 2.42332,-1.00842 4.7522,-2.08917 5.17529,-2.40169 1.87831,-1.38739 2.75586,-4.46196 2.17583,-7.62318 -0.37044,-2.01897 -0.9927,-2.70995 -2.17583,-2.41613 -0.42309,0.10513 -6.1694,2.27345 -12.76958,4.81863 -6.60018,2.54518 -15.18503,5.84235 -19.07744,7.32703 -4.18979,1.5981 -7.42235,3.01281 -7.92329,3.46756 -0.78687,0.7143 -0.84599,0.93781 -0.84343,3.18827 0.007,6.2935 1.14846,26.44678 1.72738,30.50246 0.27874,1.95271 1.00947,2.19501 3.35513,1.11255 z m 99.84068,-1.82545 c 13.40661,-1.69715 17.73583,-2.31379 25.94756,-3.6958 18.99759,-3.19729 30.78502,-6.97004 34.72435,-11.11408 1.03849,-1.09246 2.27947,-3.5558 2.691,-5.34161 0.73181,-3.17553 0.11164,-8.85362 -1.11499,-10.20904 -0.96485,-1.06618 -2.28692,-0.6813 -8.63042,2.51257 -6.35706,3.20067 -10.57176,4.94294 -17.00429,7.02921 -7.30081,2.36786 -12.13521,3.24489 -20.76662,3.76735 -19.3063,1.16861 -34.94601,4.55214 -37.30713,8.07111 -1.43508,2.13879 -1.18175,7.51677 0.43349,9.20271 1.76495,1.84221 4.98688,1.80813 21.02705,-0.22242 z m -45.34185,-10.79026 c 2.98963,-0.61608 4.81823,-1.4486 5.3454,-2.43363 1.52911,-2.85717 -4.96684,-8.78067 -10.62032,-9.68442 -2.13557,-0.34139 -4.67557,-0.0256 -5.81865,0.72337 -1.25353,0.82133 -1.8162,2.25782 -1.94661,4.96962 -0.19342,4.02208 1.05954,5.42084 5.77053,6.44196 2.67939,0.58078 4.38862,0.5768 7.26965,-0.0169 z m -123.09528,-3.73269 c -0.11466,-0.80386 -0.74998,-5.68476 -1.41181,-10.84644 -1.36068,-10.612 -1.63256,-12.09854 -2.46227,-13.46291 -1.21874,-2.00404 -1.620418,-2.07598 -11.591387,-2.07598 -4.936093,0 -9.050239,0.0756 -9.142532,0.16793 -0.491433,0.49179 1.858881,22.84897 2.611144,24.83827 0.145149,0.38382 0.592878,0.82292 0.994985,0.97581 0.402094,0.15287 3.554655,0.56272 7.005703,0.91077 3.451047,0.34804 6.759259,0.68295 7.351579,0.74423 0.592321,0.0613 2.376588,0.13358 3.965008,0.16066 l 2.88806,0.0492 z m 5.94641,-4.71111 c 0.76011,-3.5443 0.25114,-15.08629 -1.07789,-24.44353 -0.74185,-5.22303 -0.95725,-5.88636 -2.08277,-6.41371 -1.87282,-0.87749 -5.78368,-1.22191 -14.199697,-1.25054 -8.973076,-0.0306 -12.347589,0.31899 -13.418422,1.38983 -0.71656,0.71655 -0.775662,2.69954 -0.118355,3.97064 0.763357,1.47618 2.534946,1.80401 10.88136,2.01359 7.806949,0.19604 10.096414,0.4735 11.633834,1.40994 1.97695,1.20415 2.93695,4.87292 3.49078,13.34065 0.42722,6.5318 1.14478,9.57684 2.80676,11.91089 l 0.67666,0.95028 0.53765,-0.66396 c 0.2957,-0.36518 0.68725,-1.36152 0.87009,-2.21408 z m 143.39492,2.02521 c 1.91681,-0.67629 3.09861,-1.64105 3.73987,-3.05304 0.90698,-1.99715 0.98493,-1.26984 -2.01472,-18.80019 -0.43438,-2.53853 -1.13483,-6.48479 -1.55657,-8.76946 -0.42174,-2.28469 -1.39606,-7.68483 -2.16517,-12.00033 -0.7691,-4.31551 -1.80732,-9.95426 -2.30716,-12.53056 -1.0489,-5.40631 -1.1906,-9.48638 -0.41962,-12.08256 0.26905,-0.906 1.09985,-3.13823 1.8462,-4.96053 1.75205,-4.27777 1.75421,-4.58114 0.0326,-4.58114 -0.94296,0 -1.74363,0.26586 -2.77999,0.9231 -0.80056,0.50771 -1.62385,0.91876 -1.82952,0.91345 -0.20567,-0.006 -1.20026,-0.42024 -2.21019,-0.92207 -1.65009,-0.8199 -1.88405,-0.86456 -2.30776,-0.44045 -0.88239,0.88325 -0.33658,6.80899 2.60634,28.29599 2.42379,17.69665 3.65188,29.11456 4.0046,37.23179 0.34299,7.89376 0.86695,9.98043 2.70697,10.7807 1.23208,0.53587 1.12142,0.53607 2.65412,-0.005 z m -10.35497,-1.08699 c 0.95369,-0.75017 1.75771,-3.88165 1.75771,-6.84586 0,-2.87934 -0.77435,-10.64181 -2.30949,-23.1514 -0.74764,-6.09247 -1.71451,-14.05423 -2.14858,-17.69279 -1.6623,-13.93407 -3.24475,-23.52586 -4.16493,-25.24526 -0.78186,-1.4609 -4.45007,-2.21696 -10.97991,-2.26308 -3.82036,-0.027 -4.44128,0.0387 -4.92321,0.52126 -0.50996,0.51057 -0.54695,1.29834 -0.49117,10.46182 0.0332,5.45034 0.34757,16.62526 0.69863,24.83318 1.27742,29.8667 1.09926,27.92636 2.72225,29.64567 1.30937,1.38707 6.80573,5.29071 9.98231,7.08968 5.57356,3.15643 8.28338,3.88411 9.85639,2.64678 z m 51.41392,-4.48531 c 1.55645,-0.82856 4.99014,-3.1968 7.11458,-4.90697 1.55845,-1.25456 5.31743,-3.74095 7.60858,-5.03274 2.01546,-1.13635 12.33183,-4.95656 13.38507,-4.95656 0.39775,0 0.69924,0.18773 0.69924,0.43539 0,1.01795 -3.76134,3.68655 -11.62555,8.24809 -1.66906,0.96812 -3.40544,2.10384 -3.85862,2.52384 -0.9804,0.90861 -1.10111,2.20208 -0.23126,2.47815 1.97443,0.62667 19.39129,-7.953 22.87806,-11.26988 1.13588,-1.08054 1.21607,-1.26553 1.07692,-2.48387 -0.33071,-2.89503 -6.80763,-14.66438 -15.81952,-28.74595 -4.03958,-6.31207 -11.70371,-19.38517 -15.4876,-26.41805 -2.13154,-3.96175 -2.42803,-4.36342 -3.69067,-5.00014 -2.83602,-1.43013 -5.79759,-0.72082 -14.35019,3.43688 -3.15661,1.53455 -5.78735,3.03297 -6.57632,3.74577 l -1.31505,1.18806 0.19193,2.06511 c 0.10559,1.13579 0.73587,4.18521 1.40069,6.77648 1.22096,4.75894 4.19729,16.19875 5.909,22.71187 0.51148,1.94621 1.82583,7.06942 2.92078,11.38493 1.7816,7.02183 5.48829,20.722 6.30105,23.28914 0.27754,0.87663 0.6633,1.17622 1.66259,1.29123 0.17057,0.0197 0.98341,-0.32273 1.80629,-0.76078 z m -24.18108,-1.65206 c 3.90454,-0.67227 7.69006,-1.64998 8.98884,-2.32161 1.18646,-0.61353 2.15439,-1.91766 2.14274,-2.88695 -0.0123,-1.02414 -4.13388,-16.6805 -10.12905,-38.47661 -3.18215,-11.56902 -6.22554,-19.15498 -8.66239,-21.59183 -2.88179,-2.8818 -6.97223,-1.34459 -9.3389,3.50962 -2.12697,4.36254 -2.08274,6.53276 0.42139,20.67625 0.83897,4.73859 2.28649,12.90805 3.21672,18.15434 0.93023,5.2463 2.11686,12.14588 2.63695,15.33238 0.98805,6.05362 1.20718,6.7883 2.28505,7.66141 0.89719,0.72676 4.0087,0.70574 8.43865,-0.057 z M 70.183396,175.36669 c 0.239222,-0.23973 -0.04338,-5.23324 -1.109816,-19.6125 -0.332631,-4.48474 -0.610695,-9.53872 -0.617929,-11.23108 -0.01896,-4.42327 -0.469465,-7.39996 -1.345804,-8.89156 -1.024048,-1.74304 -3.809519,-4.31418 -11.868379,-10.95513 C 41.196441,113.10252 33.320656,107.21 31.010929,106.54758 c -0.800409,-0.22956 -1.059669,-0.16526 -1.565093,0.38816 -2.417486,2.64706 -4.994881,12.68779 -6.647021,25.89474 -1.648082,13.17459 -3.347707,31.67134 -3.392178,36.9166 -0.02256,2.6539 0.007,2.77606 0.745831,3.12658 0.423086,0.20061 4.023191,0.59045 8.000223,0.8663 3.977032,0.27585 10.207969,0.7172 13.846532,0.9808 3.638564,0.26358 8.207917,0.58877 10.154124,0.72264 4.366032,0.30031 17.710467,0.24354 18.030049,-0.0768 z M 219.1906,171.90848 c 0.70775,-2.08736 0.20155,-18.65029 -1.49994,-49.07826 -0.34854,-6.233 -0.80418,-11.72223 -1.11933,-13.4849 -0.638,-3.5684 -1.19117,3.68613 -1.60311,21.02356 -0.27318,11.49763 -0.35781,12.08348 -1.8444,12.76805 -1.40595,0.64745 -27.4209,11.11208 -30.96691,12.45659 -1.86159,0.70585 -5.32322,1.95603 -7.69253,2.77817 -3.25791,1.13051 -4.55153,1.73612 -5.30783,2.48489 -1.54165,1.52632 -1.35288,1.77153 1.23081,1.59887 1.7464,-0.1167 3.06605,-0.48724 6.07709,-1.70628 11.48718,-4.65068 26.45253,-10.31294 32.39853,-12.25821 3.36728,-1.10164 3.68691,-1.15429 4.43974,-0.73127 0.44618,0.25071 0.91751,0.85355 1.04739,1.33965 0.12987,0.48609 0.37947,5.55892 0.55467,11.27295 0.37465,12.21913 0.55224,13.04498 2.76523,12.85948 0.9832,-0.0825 1.1487,-0.22645 1.52059,-1.32329 z m -45.95702,-16.66055 c 4.31726,-1.32231 5.29282,-1.67974 10.15413,-3.72041 2.20006,-0.92354 8.50024,-3.5242 14.00038,-5.77927 13.56291,-5.56079 14.09729,-5.81432 14.34629,-6.80641 0.31828,-1.26816 -0.10932,-24.24904 -0.50882,-27.34271 -0.54368,-4.21058 -1.00923,-5.73608 -1.96933,-6.45305 -0.80306,-0.5997 -1.34388,-0.62824 -13.85676,-0.73113 l -13.02109,-0.10711 -0.34302,1.03936 c -0.67762,2.05322 -0.93815,6.8454 -0.48889,8.99265 0.22974,1.09804 0.56041,2.26306 0.73481,2.58893 1.79619,3.35622 0.36427,8.08475 -2.72891,9.01149 -2.14792,0.64353 -4.44758,-0.73159 -5.20107,-3.11009 -0.40567,-1.28055 -0.95666,-8.49972 -0.96288,-12.61573 -0.007,-4.79313 -0.72178,-6.24209 -3.06229,-6.20979 -1.6089,0.0222 -2.94652,0.8323 -3.62621,2.19616 -0.47947,0.96207 -0.53985,2.01432 -0.51289,8.93684 0.0276,7.08694 1.42952,38.09552 1.83294,40.54183 0.19265,1.16823 -0.0848,1.1912 5.21361,-0.4316 z M 67.779376,129.5227 c 0.174003,-0.21154 0.858023,-1.64313 1.520063,-3.18129 4.178353,-9.70794 12.745951,-14.29733 37.778481,-20.23675 12.94697,-3.0719 19.9671,-3.92437 37.07795,-4.50247 5.16168,-0.17439 10.12562,-0.39663 11.03098,-0.49387 l 1.64611,-0.1768 1.65086,-3.435665 c 2.3942,-4.982647 8.17753,-20.457177 8.06889,-21.589996 l -0.0885,-0.923102 -9.23102,-0.09757 c -20.72048,-0.218939 -70.340022,2.212236 -80.771455,3.957518 -4.519752,0.756194 -6.834759,1.397777 -11.846479,3.28315 -7.416916,2.790182 -18.969922,8.456512 -25.371151,12.443604 -3.816485,2.377155 -6.783577,5.293053 -6.783577,6.666531 0,1.03959 1.363389,2.40709 5.47993,5.49648 3.237167,2.42944 8.875225,7.00035 17.03953,13.81437 7.736637,6.4571 11.48296,9.36046 12.078142,9.36046 0.222707,0 0.54729,-0.17308 0.721281,-0.38462 z m 111.814764,-8.43253 c 0.64281,-0.58173 0.73724,-1.65476 0.19348,-2.19853 -0.58509,-0.58508 -2.02825,-0.44861 -2.38925,0.22593 -0.4525,0.84552 -0.40116,1.16841 0.29688,1.86644 0.74855,0.74854 1.16344,0.77175 1.89889,0.10618 z m 92.61046,-16.70833 c 3.22911,-0.71412 6.45671,-2.01788 13.33975,-5.38846 7.57991,-3.71183 10.61568,-5.825249 10.61568,-7.39033 0,-2.374015 -8.18789,-2.146923 -16.00044,0.443775 -2.98707,0.990531 -10.11709,4.192681 -21.63454,9.716245 -1.32179,0.63391 -2.29104,1.26122 -2.1539,1.39406 0.2168,0.20998 5.91053,1.28693 8.55726,1.61857 2.28631,0.28647 4.81999,0.14932 7.27619,-0.39386 z m -23.42863,-4.91796 c 4.65295,-2.434862 9.42917,-4.936547 10.61382,-5.559302 1.18465,-0.622756 4.64628,-2.424872 7.69252,-4.004699 7.30456,-3.788272 7.84636,-4.136917 7.84636,-5.048924 0,-0.677101 -0.22806,-0.792851 -2.69238,-1.366482 -8.787,-2.045409 -29.41022,-5.09107 -42.84732,-6.327754 -21.76864,-2.003472 -51.46196,-2.998503 -54.86615,-1.838575 -1.76435,0.60117 -3.58304,2.537132 -5.57437,5.933799 -3.28105,5.596564 -6.75373,15.541913 -6.19884,17.752741 0.10222,0.407107 0.55808,0.984262 1.01313,1.282566 0.7586,0.49729 2.4012,0.55924 19.76488,0.74541 28.16915,0.30203 42.93543,1.07001 49.09221,2.55324 1.0987,0.26469 3.03049,0.41648 4.77121,0.37488 l 2.92502,-0.0699 z"
       id="path6735" /></g><metadata
     id="metadata182"><rdf:RDF><cc:Work
         rdf:about=""><cc:license
           rdf:resource="http://creativecommons.org/licenses/by-sa/4.0/" /><dc:creator><cc:Agent><dc:title>Jameela P</dc:title></cc:Agent></dc:creator><dc:publisher><cc:Agent><dc:title>OpenDataKerala.org</dc:title></cc:Agent></dc:publisher><dc:date>April 2026</dc:date><dc:title>Election Symbols of Kerala</dc:title></cc:Work><cc:License
         rdf:about="http://creativecommons.org/licenses/by-sa/4.0/"><cc:permits
           rdf:resource="http://creativecommons.org/ns#Reproduction" /><cc:permits
           rdf:resource="http://creativecommons.org/ns#Distribution" /><cc:requires
           rdf:resource="http://creativecommons.org/ns#Notice" /><cc:requires
           rdf:resource="http://creativecommons.org/ns#Attribution" /><cc:permits
           rdf:resource="http://creativecommons.org/ns#DerivativeWorks" /><cc:requires
           rdf:resource="http://creativecommons.org/ns#ShareAlike" /></cc:License></rdf:RDF></metadata></svg>
