<?xml version="1.0" encoding="UTF-8" standalone="no"?>
<!-- Created with Inkscape (http://www.inkscape.org/) -->

<svg
   width="1500"
   height="1500"
   viewBox="0 0 396.87499 396.875"
   version="1.1"
   id="svg5"
   xml:space="preserve"
   inkscape:version="1.3 (0e150ed6c4, 2023-07-21)"
   sodipodi:docname="Bat.svg"
   inkscape:export-filename="Bat.png"
   inkscape:export-xdpi="96"
   inkscape:export-ydpi="96"
   xmlns:inkscape="http://www.inkscape.org/namespaces/inkscape"
   xmlns:sodipodi="http://sodipodi.sourceforge.net/DTD/sodipodi-0.dtd"
   xmlns="http://www.w3.org/2000/svg"
   xmlns:svg="http://www.w3.org/2000/svg"
   xmlns:rdf="http://www.w3.org/1999/02/22-rdf-syntax-ns#"
   xmlns:cc="http://creativecommons.org/ns#"
   xmlns:dc="http://purl.org/dc/elements/1.1/"><title
     id="title186">Election Symbols of Kerala</title><sodipodi:namedview
     id="namedview7"
     pagecolor="#ffffff"
     bordercolor="#000000"
     borderopacity="0.25"
     inkscape:showpageshadow="2"
     inkscape:pageopacity="0.0"
     inkscape:pagecheckerboard="0"
     inkscape:deskcolor="#d1d1d1"
     inkscape:document-units="mm"
     showgrid="false"
     inkscape:zoom="0.25"
     inkscape:cx="230"
     inkscape:cy="1082"
     inkscape:window-width="1920"
     inkscape:window-height="991"
     inkscape:window-x="-9"
     inkscape:window-y="-9"
     inkscape:window-maximized="1"
     inkscape:current-layer="layer1" /><defs
     id="defs2"><inkscape:path-effect
       effect="bspline"
       id="path-effect3248"
       is_visible="true"
       lpeversion="1"
       weight="33.333333"
       steps="2"
       helper_size="0"
       apply_no_weight="true"
       apply_with_weight="true"
       only_selected="false" /><inkscape:path-effect
       effect="bspline"
       id="path-effect577"
       is_visible="true"
       lpeversion="1"
       weight="33.333333"
       steps="2"
       helper_size="0"
       apply_no_weight="true"
       apply_with_weight="true"
       only_selected="false" /></defs><g
     inkscape:label="Layer 1"
     inkscape:groupmode="layer"
     id="layer1"><path
       style="fill:#000000;stroke-width:1.4838"
       d="M 84.482005,389.64233 C 65.762118,387.72351 48.983901,380.75455 35.015824,369.09614 30.072856,364.97052 27.201318,362.00867 22.92146,356.6214 14.060029,345.46712 8.3616137,331.10365 8.7931621,321.00951 9.0485538,315.0361 8.6024938,315.60202 32.411726,291.04404 c 29.531402,-30.46012 58.3887,-60.16018 67.582027,-69.55577 4.331157,-4.42644 19.786097,-20.32628 34.344327,-35.33298 14.55825,-15.00671 30.45518,-31.34822 35.32653,-36.31446 7.46239,-7.60774 21.09636,-21.62283 39.84776,-40.96164 2.16427,-2.23206 4.4121,-4.30787 4.99516,-4.61292 1.57604,-0.82454 3.08256,-0.68457 6.89054,0.64017 7.60448,2.64548 13.7124,4.01835 20.63476,4.63807 5.56743,0.49843 9.47501,0.0119 12.7294,-1.58539 3.07267,-1.50797 5.08973,-3.44233 23.87445,-22.895435 6.67216,-6.909552 18.23955,-18.834437 25.70533,-26.499732 7.46577,-7.665296 17.73948,-18.235175 22.83046,-23.488613 l 9.25635,-9.551695 0.16927,-3.225247 c 0.58714,-11.186501 12.00415,-18.7681994 23.69317,-15.7339472 9.28893,2.4112194 18.03605,10.6654052 20.84305,19.6684362 0.88015,2.822944 0.99982,3.805679 0.86522,7.105502 -0.13458,3.299111 -0.33025,4.200578 -1.41299,6.509 -1.52189,3.244715 -5.23951,7.135935 -8.29854,8.686061 -2.94493,1.492317 -7.09795,2.293851 -10.25559,1.97933 l -2.56165,-0.255139 -11.78082,12.103074 c -10.85318,11.150074 -54.9352,56.649745 -61.93306,63.924785 -5.87417,6.10685 -6.89222,10.46422 -4.78985,20.50131 1.08773,5.19297 4.82318,16.93416 7.62532,23.96766 1.95868,4.91637 2.06554,6.74957 0.52653,9.03205 -0.59379,0.88065 -9.13154,10.2263 -18.97279,20.76814 -16.22471,17.37973 -22.8025,24.49709 -50.18619,54.30291 -4.66149,5.07381 -9.89031,10.72708 -11.61961,12.56284 -1.72929,1.83576 -6.14591,6.5949 -9.81471,10.57588 -3.6688,3.98097 -9.14386,9.90322 -12.16679,13.16054 -5.70898,6.15166 -13.38566,14.47152 -25.73363,27.88973 -8.47385,9.2083 -28.49448,30.81804 -40.19096,43.38106 -4.52318,4.85829 -10.17869,10.95179 -12.5678,13.54111 -7.895497,8.55716 -9.173509,9.80544 -11.448174,11.18192 -3.562233,2.15562 -7.399666,2.95668 -11.936221,2.49168 z m 1.788157,-7.68342 c -0.142,-1.9973 -0.607171,-7.95974 -1.033778,-13.24988 -1.075177,-13.33264 -1.051006,-12.31813 -0.297191,-12.47312 0.367908,-0.0757 0.751753,0.17564 0.878321,0.57499 0.327385,1.03289 1.72971,17.07931 2.043341,23.38136 0.296967,5.96718 0.177551,5.7689 3.001935,4.98452 l 1.473428,-0.40919 -0.188665,-2.0423 c -0.103718,-1.12325 -0.381189,-5.48726 -0.616475,-9.69778 -0.235286,-4.21052 -0.680322,-10.39378 -0.988967,-13.74061 -0.742123,-8.04745 -0.737404,-8.24436 0.197256,-8.24436 0.599114,0 0.808078,0.35516 0.981727,1.6685 0.590938,4.46962 2.18304,26.64332 2.18304,30.40403 v 0.97091 l 1.629584,-1.29067 1.629598,-1.29065 -0.253685,-7.28114 c -0.139478,-4.00462 -0.524791,-11.2561 -0.856153,-16.11438 -0.902699,-13.23471 -0.903397,-12.36654 0.01039,-12.36654 0.719094,0 0.82336,0.41299 1.238958,4.90736 0.249575,2.69904 0.655261,9.14731 0.901527,14.32948 0.246266,5.18217 0.545979,10.56386 0.666018,11.9593 l 0.218282,2.53715 1.726457,-1.82727 c 1.71612,-1.81632 1.72646,-1.84447 1.72624,-4.69639 -3.1e-4,-3.95924 -0.67155,-15.89161 -1.40345,-24.94836 -0.33573,-4.15441 -0.50013,-7.73188 -0.36537,-7.94992 0.51453,-0.83255 1.3469,-0.35883 1.54525,0.87943 0.47622,2.973 1.44435,17.18229 1.6718,24.5368 0.13518,4.37246 0.34217,7.94992 0.45986,7.94992 0.11767,0 0.79656,-0.56465 1.5086,-1.25478 l 1.2946,-1.25477 -0.004,-5.90996 c -0.003,-3.25049 -0.35375,-10.94493 -0.7809,-17.09875 -0.98063,-14.12724 -0.98014,-13.74061 -0.0178,-13.74061 0.56368,0 0.81961,0.33868 0.96411,1.27592 0.27422,1.7786 1.33256,18.79826 1.65196,26.56632 l 0.26505,6.44615 1.51275,-1.62173 c 1.4753,-1.5816 1.51275,-1.69428 1.51275,-4.55201 0,-3.73126 -1.12669,-24.94932 -1.545,-29.09613 -0.24747,-2.4531 -0.19961,-3.26594 0.21868,-3.71276 0.33933,-0.36246 0.66968,-0.43438 0.9017,-0.19629 0.59207,0.60757 1.90593,19.37576 2.0257,28.93659 0.0317,2.53711 0.19398,4.61291 0.36043,4.61291 0.16647,0 0.94153,-0.70716 1.7224,-1.57148 1.07823,-1.19348 1.41974,-1.91201 1.41974,-2.98712 0,-3.87581 -0.89345,-21.5343 -1.37735,-27.2226 -0.55892,-6.57006 -0.39376,-8.06625 0.78261,-7.08994 0.70994,0.58921 2.13923,20.16253 2.1576,29.54717 0.004,2.10526 0.16771,3.82774 0.36353,3.82774 0.19582,0 1.08347,-0.86885 1.97258,-1.9308 l 1.61654,-1.93078 -0.4136,-8.96354 c -0.22748,-4.92996 -0.67348,-12.47422 -0.9911,-16.76501 -0.31764,-4.29081 -0.57751,-8.13327 -0.57751,-8.53881 0,-1.0928 1.50801,-0.96616 1.73833,0.14601 0.23949,1.15644 1.31612,18.3933 1.64712,26.37044 l 0.25936,6.25027 1.73883,-1.84037 1.73885,-1.84037 -0.22836,-4.4099 c -0.12553,-2.42545 -0.4128,-8.03153 -0.63824,-12.45797 -0.22545,-4.42644 -0.57387,-9.63805 -0.77427,-11.58137 -0.58624,-5.68492 -0.51727,-6.8703 0.39973,-6.8703 0.49314,0 0.84146,0.32321 0.95198,0.88332 0.26952,1.36604 1.37275,18.56514 1.66328,25.93017 l 0.26017,6.59518 1.70837,-1.88411 1.70837,-1.88412 -0.21466,-5.10364 c -0.37334,-8.87562 -1.35527,-26.23651 -1.58228,-27.97487 -0.17206,-1.31757 -0.0828,-1.72341 0.42151,-1.91692 0.35186,-0.13503 0.79065,-0.0895 0.97508,0.10104 0.37246,0.38496 1.41174,15.33052 1.82483,26.24225 l 0.26695,7.05141 1.73394,-1.94776 1.73394,-1.94775 -0.24851,-6.67402 c -0.13665,-3.6707 -0.41764,-9.58898 -0.62437,-13.15172 -0.97596,-16.81964 -0.96896,-15.31096 -0.0711,-15.31096 0.70866,0 0.83448,0.31826 1.04759,2.64998 0.48311,5.28586 1.40878,21.16139 1.44698,24.81621 0.0215,2.05955 0.1582,4.17022 0.30371,4.69041 0.25489,0.91113 0.32543,0.87315 1.92381,-1.03594 1.65144,-1.97246 1.65923,-1.99674 1.65923,-5.1673 0,-3.66769 -1.05417,-23.27991 -1.49819,-27.87308 -0.16442,-1.70084 -0.23321,-3.28969 -0.15285,-3.53078 0.17233,-0.51698 1.12158,-0.58482 1.42029,-0.10149 0.36,0.58249 1.40046,15.22337 1.664,23.41478 0.13888,4.31848 0.36176,8.15757 0.49519,8.53131 0.1979,0.55437 0.55187,0.32049 1.9215,-1.26955 l 1.67891,-1.94909 -0.41195,-9.13405 c -0.48516,-10.75722 -1.10393,-21.04508 -1.40169,-23.30489 -0.23629,-1.79328 0.52108,-2.9704 1.30411,-2.0269 0.42557,0.51277 1.46825,14.68208 1.91617,26.03932 0.13992,3.54798 0.35917,6.4364 0.4872,6.41874 0.12806,-0.0176 1.08166,-1.00211 2.11918,-2.18767 l 1.8864,-2.15554 -0.22045,-3.60302 c -1.80722,-29.53782 -1.83994,-30.6275 -0.92475,-30.80673 0.4869,-0.0954 0.7215,0.21761 0.87724,1.17023 0.23633,1.4456 1.23084,17.04702 1.64309,25.77555 l 0.26594,5.63091 1.98515,-1.98514 1.98514,-1.98515 -0.49174,-10.71237 c -0.27047,-5.89178 -0.7365,-13.53899 -1.03564,-16.99377 -0.47018,-5.43024 -0.46784,-6.35894 0.0172,-6.85348 0.36205,-0.36913 0.69601,-0.43712 0.94146,-0.19167 0.4149,0.41488 1.93476,20.73586 2.02444,27.06718 0.0798,5.63942 0.18255,5.78265 2.42586,3.38437 1.10486,-1.18118 1.84606,-2.33893 1.84178,-2.87682 -0.0134,-1.65902 -1.52277,-27.55638 -1.79738,-30.83503 -0.25999,-3.10396 -0.23734,-3.23886 0.54387,-3.23886 0.44835,0 0.9034,0.30916 1.01122,0.68702 0.19014,0.66632 1.16719,15.84344 1.73614,26.96856 l 0.27996,5.47433 2.28532,-2.60527 2.28532,-2.60527 -0.44272,-9.34677 c -0.24349,-5.14071 -0.69773,-12.34198 -1.00941,-16.0028 -0.7442,-8.74121 -0.74179,-8.85122 0.19445,-8.85122 0.59962,0 0.80723,0.35404 0.97843,1.6685 0.50973,3.91372 1.44668,17.11575 1.67172,23.55533 0.13399,3.83264 0.30498,6.96844 0.38009,6.96844 0.0751,0 0.77456,-0.70618 1.55434,-1.56931 l 1.41777,-1.56931 -0.0635,-4.81026 c -0.0554,-4.19259 -0.48776,-11.91396 -1.45134,-25.91189 -0.25462,-3.69892 -0.23601,-3.82775 0.55266,-3.82775 0.69388,0 0.85029,0.30878 1.04412,2.06111 0.36267,3.27887 1.34253,18.00683 1.62064,24.35929 0.13992,3.19521 0.37882,5.75686 0.53099,5.69254 0.15216,-0.0643 0.95613,-0.87576 1.7866,-1.80318 l 1.50993,-1.68623 -0.46454,-9.10996 c -0.25549,-5.01048 -0.74611,-12.50479 -1.09026,-16.65403 -0.34416,-4.14923 -0.52175,-7.81503 -0.39466,-8.14621 0.41273,-1.07558 1.38632,-0.66974 1.61634,0.67376 0.31951,1.86613 1.35587,17.53059 1.65069,24.94983 l 0.2543,6.4 1.70419,-1.67254 1.70419,-1.67252 v -3.80847 c 0,-4.03115 -0.94533,-20.77247 -1.52638,-27.03135 -0.18987,-2.04509 -0.25852,-3.94424 -0.15258,-4.22033 0.22617,-0.58941 1.13821,-0.66673 1.4731,-0.12493 0.22386,0.36222 1.51579,18.3562 2.01309,28.0385 l 0.23956,4.66399 1.71803,-1.71958 1.71803,-1.71956 -0.38021,-8.63695 c -0.20912,-4.75032 -0.67516,-12.57569 -1.03565,-17.38969 -0.49561,-6.6185 -0.54486,-8.86331 -0.20197,-9.2062 0.32108,-0.32108 0.57567,-0.33128 0.87204,-0.0349 0.58849,0.5885 2.32954,23.33006 2.32954,30.42859 v 2.84669 l 1.96295,-1.93342 1.96295,-1.93344 -8.8e-4,-2.95917 c -0.001,-4.21641 -0.69194,-16.65025 -1.39195,-25.05736 -0.3288,-3.94891 -0.49283,-7.34971 -0.36451,-7.55733 0.38135,-0.61704 1.29668,-0.42962 1.51168,0.30952 0.10995,0.37786 0.39521,3.42533 0.634,6.77215 0.23878,3.34681 0.60242,8.37292 0.80807,11.16911 0.20567,2.79619 0.39484,6.77114 0.42038,8.83324 0.0255,2.06209 0.15826,4.27045 0.29491,4.90743 l 0.24846,1.15816 1.6927,-1.94333 1.69271,-1.94335 -0.2447,-6.08512 c -0.13458,-3.34683 -0.58733,-10.64162 -1.00613,-16.21066 -0.96067,-12.77479 -0.96418,-13.33012 -0.0829,-13.16039 0.46814,0.0902 0.76511,0.67736 0.95765,1.89358 0.44954,2.83963 1.51226,17.69341 1.77628,24.82749 0.13384,3.61672 0.3648,6.57586 0.51322,6.57586 0.14843,0 1.03419,-0.90645 1.96838,-2.01434 l 1.69852,-2.01435 -0.48255,-10.45035 c -0.26539,-5.74769 -0.73636,-13.27698 -1.04658,-16.73175 -0.74644,-8.31262 -0.74325,-8.44067 0.21046,-8.44067 0.48811,0 0.8489,0.32891 0.96892,0.88333 0.29124,1.34533 1.78874,22.85692 1.82425,26.20529 0.0172,1.61943 0.14823,3.79743 0.29127,4.83999 l 0.26005,1.89557 1.8317,-2.12547 1.83171,-2.12548 -0.37174,-8.58821 c -0.20443,-4.72353 -0.71315,-12.56755 -1.13046,-17.43116 -0.44751,-5.21554 -0.61437,-8.98733 -0.40675,-9.19494 0.87811,-0.87812 1.47396,0.14229 1.7265,2.95681 0.54892,6.1173 1.80997,25.37819 1.81436,27.7118 0.003,1.34953 0.13711,2.43704 0.29906,2.4167 0.16195,-0.0203 0.93575,-0.77116 1.71956,-1.66849 l 1.42511,-1.63153 -0.34923,-7.65549 c -0.19208,-4.2105 -0.70087,-11.75374 -1.13067,-16.76275 -0.98768,-11.51091 -0.98768,-11.50364 -0.003,-11.50364 0.48954,0 0.84677,0.32732 0.96414,0.88334 0.24912,1.1803 1.72586,21.13213 2.04854,27.6775 0.14111,2.86099 0.36173,5.18517 0.49042,5.16482 0.12865,-0.0203 0.91635,-0.81201 1.75037,-1.75925 l 1.51638,-1.72226 -0.45414,-8.54621 c -0.24977,-4.70041 -0.80246,-12.666 -1.22818,-17.70131 -0.42571,-5.0353 -0.67247,-9.31943 -0.54833,-9.52028 0.42131,-0.68169 1.34132,-0.36915 1.52528,0.51816 0.48973,2.36224 2.18736,25.7976 2.18736,30.196 0,1.47581 0.15417,2.6833 0.3426,2.6833 0.18841,0 1.02981,-0.75083 1.86978,-1.6685 l 1.5272,-1.66851 -0.30669,-7.06659 c -0.16866,-3.88663 -0.7124,-11.83656 -1.2083,-17.6665 -0.4959,-5.82994 -0.82375,-10.82939 -0.72853,-11.10991 0.0953,-0.28049 0.45788,-0.45515 0.80597,-0.38811 0.43383,0.0835 0.71854,0.73779 0.90532,2.08036 0.33058,2.37617 1.42306,15.92929 2.03686,25.26892 l 0.44833,6.82172 1.91787,-2.05242 1.91787,-2.05243 -0.26814,-5.55448 c -0.26376,-5.46372 -0.92946,-13.75926 -1.94221,-24.20242 -0.42652,-4.39795 -0.42531,-5.39731 0.007,-5.872 0.33159,-0.36401 0.65722,-0.43541 0.89536,-0.1963 0.41435,0.41602 1.24823,8.30922 2.17566,20.59408 0.33417,4.42644 0.70812,9.15835 0.83101,10.51538 l 0.22341,2.46732 1.55749,-1.68214 1.5575,-1.68214 -0.19221,-5.29994 c -0.1058,-2.91497 -0.67387,-10.82684 -1.26257,-17.58193 -0.81484,-9.35018 -0.96111,-12.39118 -0.61281,-12.73949 0.29455,-0.29455 0.59275,-0.32233 0.83709,-0.0781 0.48931,0.48931 1.36684,8.58217 2.16822,19.99581 0.34869,4.96625 0.75724,10.03854 0.9079,11.27177 l 0.27391,2.24225 1.33164,-1.59516 1.33162,-1.59518 -0.46888,-7.71366 c -0.25787,-4.24253 -0.90128,-11.67879 -1.42976,-16.52502 -0.5285,-4.84624 -0.96091,-9.22425 -0.96091,-9.7289 0,-0.88852 0.9581,-1.63602 1.45721,-1.13691 0.56536,0.56536 2.84744,24.05999 2.86461,29.49187 0.0119,3.72363 0.34326,4.13647 1.8988,2.36481 0.68122,-0.77587 1.23858,-1.62835 1.23858,-1.89443 0,-3.84004 -1.69177,-22.3621 -2.99231,-32.7608 -0.24005,-1.91939 -0.20055,-2.06109 0.5746,-2.06109 0.54585,0 0.89702,0.30406 1.02016,0.88332 0.69287,3.2594 2.32832,19.45547 2.81787,27.90587 l 0.26909,4.64499 1.38266,-1.38266 c 1.29315,-1.29315 1.37746,-1.53032 1.30221,-3.66352 -0.16336,-4.63152 -1.28632,-17.3604 -2.03626,-23.08115 -1.41249,-10.77502 -1.37872,-10.01791 -0.44692,-10.01791 0.90852,0 0.88127,-0.0969 1.8201,6.4777 0.47231,3.30764 1.52385,13.74275 2.43299,24.14422 l 0.22304,2.55182 1.24172,-1.43415 1.24172,-1.43417 -0.29213,-4.84726 c -0.46422,-7.703 -1.07436,-13.76978 -2.1043,-20.92381 -1.19051,-8.26935 -1.20189,-8.85284 -0.17283,-8.85284 0.43185,0 0.78521,0.13251 0.78526,0.29445 4e-5,0.16194 0.34108,2.41442 0.75785,5.00551 1.05854,6.58086 2.75191,22.76468 2.77055,26.4786 0.004,0.94687 0.0246,0.94137 1.42084,-0.3926 l 1.41601,-1.35291 -0.25799,-4.47913 c -0.33699,-5.85049 -1.54775,-16.25025 -2.78282,-23.90286 -0.78342,-4.85402 -0.8834,-6.1724 -0.48673,-6.41766 0.27803,-0.1719 0.70197,-0.0975 0.95682,0.16789 0.93155,0.97008 4.0564,24.00234 4.05692,29.90222 l 2.5e-4,2.72964 1.57035,-1.5334 c 1.42093,-1.3875 1.57035,-1.72141 1.57035,-3.50916 0,-3.89663 -1.29209,-15.01982 -2.72225,-23.43497 -0.80097,-4.7129 -1.32895,-8.77498 -1.17329,-9.02683 0.15566,-0.25186 0.53686,-0.3605 0.84712,-0.24144 0.87139,0.33439 3.14135,13.37185 4.22017,24.23843 0.24651,2.48313 0.53937,5.28671 0.65079,6.23017 l 0.20258,1.71539 1.38368,-1.32281 1.38365,-1.32279 -0.263,-4.71107 c -0.39969,-7.1595 -2.01559,-17.98141 -3.92622,-26.29449 -0.29663,-1.29061 -0.45494,-2.48309 -0.35181,-2.64996 0.22205,-0.35929 1.71153,-0.41228 1.71153,-0.0608 0,0.13339 0.52758,2.77949 1.17241,5.88024 1.07877,5.1874 2.69403,16.14659 3.34417,22.68959 l 0.26881,2.70519 1.58093,-1.58093 1.58093,-1.58095 -0.66298,-6.0316 c -0.66257,-6.02776 -2.62037,-16.75093 -4.15756,-22.77146 -0.44812,-1.75514 -0.72218,-3.43249 -0.609,-3.72741 0.40526,-1.05611 1.37684,-0.54037 1.76325,0.93597 2.24809,8.58928 3.69049,16.01417 4.61485,23.75553 l 0.69193,5.79461 2.28824,-2.26131 c 1.25854,-1.24371 2.38089,-2.62746 2.4941,-3.07498 0.11589,-0.45783 -0.51394,-2.68978 -1.44005,-5.10365 -5.48331,-14.29191 -8.58199,-25.74608 -9.10266,-33.64769 l -0.0978,-1.48392 -6.8703,4.77954 c -40.43769,28.13174 -37.08614,25.54582 -47.51663,36.66199 -1.82345,1.94331 -4.99864,5.29994 -7.05599,7.45918 -4.11394,4.31769 -12.54366,13.24177 -23.38144,24.75261 -8.64534,9.18228 -29.27558,31.02199 -43.73476,46.2988 -11.70038,12.36202 -14.22757,15.04262 -41.82439,44.36337 -35.662375,37.89012 -39.196579,41.62321 -39.682642,41.91577 -0.839,0.505 -1.787712,-0.12523 -1.658562,-1.10185 0.07167,-0.54193 3.581656,-4.56255 8.781499,-10.05901 8.263668,-8.73504 14.273191,-15.1185 40.577175,-43.10197 16.55704,-17.61419 30.39968,-32.29757 42.40926,-44.98504 5.73349,-6.05713 14.57614,-15.4199 19.65035,-20.80619 5.07421,-5.38628 12.6708,-13.42195 16.88132,-17.85704 8.6671,-9.12936 16.96053,-17.91098 28.63985,-30.32568 l 8.02893,-8.53449 4.85115,-10.89054 c 2.66814,-5.98981 6.27725,-14.15885 8.02025,-18.15345 1.74299,-3.99458 3.82806,-8.76454 4.63346,-10.5999 2.3035,-5.24915 5.49986,-12.65334 5.49986,-12.74014 0,-0.0433 -2.42915,-0.0939 -5.3981,-0.11232 -8.24369,-0.0511 -15.94229,-1.45571 -25.49423,-4.65152 -2.29262,-0.76705 -4.28738,-1.22973 -4.55926,-1.05752 -0.44729,0.28331 -16.12705,16.31408 -37.16276,37.99468 -4.81853,4.96625 -14.78254,15.21281 -22.14225,22.77015 -7.35972,7.55733 -19.21581,19.74562 -26.34688,27.08509 -7.13107,7.33945 -19.59052,20.14844 -27.68766,28.4644 -8.097141,8.31597 -23.122901,23.77574 -33.390559,34.35506 -10.267658,10.57931 -26.697493,27.50551 -36.510752,37.61376 -10.714089,11.03618 -18.288413,19.15227 -18.959002,20.31506 -1.467196,2.54414 -1.716118,5.41483 -0.866035,9.9873 0.959589,5.16136 4.664771,15.97157 3.969507,11.58137 -0.586858,-3.70562 -1.391938,-11.00064 -1.394728,-12.63782 -0.003,-1.8637 0.522758,-2.69689 1.245888,-1.97376 0.217495,0.2175 0.559273,2.48991 0.759527,5.04982 0.431459,5.51536 0.814755,7.83895 2.296359,13.92073 0.888291,3.64631 1.450815,5.07434 2.819027,7.15658 0.94012,1.4307 1.814168,2.60497 1.942338,2.60946 0.128201,0.004 -0.182685,-1.53764 -0.690783,-3.42698 -1.237623,-4.60196 -2.958415,-14.00225 -2.805658,-15.32666 0.07152,-0.62073 0.364021,-1.06391 0.702016,-1.06391 0.425197,0 0.766278,1.04431 1.282181,3.92588 1.191966,6.65769 2.660958,12.7678 4.123524,17.1513 1.26175,3.78166 1.607905,4.40125 3.506338,6.27609 l 2.106373,2.08021 -1.01023,-2.93908 c -1.309676,-3.81025 -4.502369,-16.19499 -4.502369,-17.46509 0,-0.69804 0.212644,-0.98124 0.736781,-0.98124 0.610213,0 0.887669,0.65756 1.615161,3.82773 1.345821,5.86473 3.804018,14.21093 5.213227,17.70029 0.964648,2.38856 1.634777,3.43068 2.800643,4.3553 0.842917,0.66849 1.604893,1.14312 1.693283,1.05471 0.08843,-0.0884 -0.548902,-2.43147 -1.416228,-5.20686 -1.380008,-4.41597 -3.576269,-12.57816 -3.576269,-13.29083 0,-0.13784 0.390387,-0.19414 0.867548,-0.12508 0.763489,0.11039 1.061317,0.83183 2.482902,6.01428 1.706918,6.22271 2.821964,9.81872 4.121877,13.29306 0.639829,1.71006 1.181031,2.3892 2.816163,3.53384 2.172758,1.52103 2.59441,1.58231 1.894976,0.27543 -0.24364,-0.45525 -1.391003,-4.13618 -2.549688,-8.17985 -2.060879,-7.19214 -2.207048,-8.6227 -0.826951,-8.09312 0.277767,0.10654 1.068366,2.26186 1.756879,4.78948 0.688498,2.52763 1.919577,6.71218 2.735726,9.29902 1.3226,4.19209 1.621274,4.78358 2.747671,5.44142 0.695086,0.40596 1.367262,0.63462 1.493727,0.50814 0.126419,-0.12641 -0.596251,-3.53182 -1.606021,-7.56746 -1.194548,-4.77407 -1.702022,-7.47147 -1.452596,-7.7209 0.656612,-0.65661 1.528255,0.003 1.801912,1.36286 0.469549,2.33379 3.348477,13.62622 3.729264,14.62777 0.2272,0.59759 1.158566,1.37471 2.403786,2.00571 l 2.03288,1.03013 -0.256148,-0.91768 c -2.207539,-7.90912 -3.699885,-14.30588 -3.406063,-14.5997 0.69973,-0.69972 1.485684,0.0953 1.946597,1.96904 0.256831,1.04403 1.183998,4.6614 2.060405,8.03862 l 1.593452,6.14038 1.527928,0.6002 c 0.840351,0.3301 1.527929,0.43674 1.527929,0.23696 0,-0.19976 -0.713738,-3.57297 -1.586064,-7.49602 -1.295046,-5.82407 -1.493133,-7.22569 -1.079613,-7.63906 0.278539,-0.27845 0.701986,-0.38017 0.940997,-0.22603 0.23901,0.15414 1.210662,3.88807 2.15924,8.29765 l 1.72468,8.0174 1.693031,0.5623 c 0.931173,0.30927 1.770781,0.48455 1.865804,0.38954 0.09496,-0.095 -0.543412,-3.4957 -1.41875,-7.55705 -0.875323,-4.06137 -1.499632,-7.62366 -1.387383,-7.91621 0.291715,-0.76019 1.317867,-0.65746 1.54931,0.15512 0.107575,0.37786 0.585122,2.54201 1.061095,4.8092 0.475958,2.2672 1.238958,5.71217 1.695553,7.65549 l 0.830171,3.5333 1.46914,0.36293 c 0.808033,0.19961 1.56992,0.26216 1.69309,0.13904 0.123155,-0.12316 -0.532996,-4.03673 -1.458145,-8.69679 -1.325152,-6.67479 -1.580306,-8.57467 -1.202368,-8.95261 0.315115,-0.3151 0.612513,-0.34697 0.866629,-0.0929 0.212777,0.21278 1.197767,4.35558 2.188872,9.20621 0.991089,4.85063 1.92115,8.9304 2.066799,9.06615 0.14571,0.13577 0.949514,0.36875 1.786362,0.51779 1.505656,0.26812 1.518729,0.25969 1.251036,-0.80691 -0.708218,-2.82177 -3.36146,-19.46585 -3.156042,-19.79822 0.42723,-0.69128 1.34729,-0.38998 1.543671,0.50553 0.106537,0.48582 0.908724,5.03495 1.782622,10.10916 0.873899,5.07421 1.685315,9.535 1.803173,9.91286 0.162773,0.52193 0.642456,0.68703 1.996127,0.68703 h 1.78188 z M 242.17802,156.65108 c 4.71092,-3.27188 12.18696,-8.45282 16.61338,-11.5132 6.78825,-4.69332 11.17687,-7.75407 15.05318,-10.49854 0.68068,-0.48194 0.61305,-0.6637 -1.13829,-3.05905 -3.76365,-5.14761 -13.54413,-14.26841 -17.4866,-16.30714 -1.03629,-0.53589 -1.07625,-0.51376 -1.64881,0.9131 -0.32273,0.80427 -2.53135,5.87892 -4.90806,11.27702 -13.10629,29.76774 -15.42885,35.13669 -15.19987,35.13669 0.0823,0 4.00414,-2.677 8.71507,-5.94888 z m 36.39496,-28.13647 c 0.77175,-1.14915 1.60446,-2.82748 1.85047,-3.7296 0.63623,-2.33299 0.55489,-7.2318 -0.15173,-9.13826 -0.65711,-1.77288 -0.38521,-2.66421 0.74799,-2.45198 1.08781,0.20371 2.0745,3.49442 2.09502,6.98714 l 0.0172,2.92595 1.55573,-1.51915 c 0.86751,-0.8471 1.8227,-2.30266 2.15923,-3.29031 0.79371,-2.32943 0.78816,-7.73403 -0.0104,-10.08606 -0.63477,-1.86964 -0.34135,-2.93034 0.81062,-2.93034 1.01748,0 2.15364,4.28986 2.15661,8.14281 l 10e-4,2.84286 2.1164,-2.30211 c 1.86264,-2.02609 2.19574,-2.64936 2.77816,-5.19839 0.70614,-3.09046 0.5914,-5.62337 -0.40469,-8.933117 -0.47749,-1.586583 -0.47013,-1.879367 0.0602,-2.399869 1.4972,-1.469184 3.06946,3.227176 2.84143,8.487346 l -0.12864,2.96882 2.23968,-2.38467 c 1.6233,-1.72839 2.40662,-2.94681 2.84627,-4.42726 0.7815,-2.63158 0.77541,-7.077831 -0.0134,-9.733729 -0.56476,-1.901786 -0.56476,-2.142429 0,-2.707208 0.54424,-0.544243 0.68978,-0.549733 1.19278,-0.04496 0.96955,0.972853 1.87735,5.373952 1.71203,8.299932 l -0.15141,2.679555 2.09013,-2.061612 c 1.58539,-1.563747 2.23767,-2.567998 2.70113,-4.158631 0.7978,-2.738056 0.76441,-7.411462 -0.0709,-9.926355 -0.70516,-2.123006 -0.45669,-2.88516 0.85804,-2.631994 1.06667,0.205403 1.7779,2.686554 2.05662,7.174544 l 0.24246,3.904234 1.71594,-1.941285 c 2.38124,-2.693943 2.77784,-3.361653 3.41211,-5.744458 0.72645,-2.729123 0.70989,-5.729663 -0.0478,-8.653476 -0.65534,-2.528989 -0.55085,-3.443203 0.39353,-3.443203 1.41029,0 2.81637,5.398257 2.39604,9.199011 l -0.26346,2.382359 2.38628,-2.349404 c 1.70476,-1.678415 2.61797,-2.967807 3.19751,-4.514758 1.07734,-2.875693 1.15284,-7.277979 0.17715,-10.330438 -0.7669,-2.399275 -0.51163,-3.37195 0.75717,-2.885071 1.25053,0.479876 1.92654,2.983774 1.94965,7.221462 0.0119,2.212716 0.11025,4.003574 0.21825,3.9797 0.70574,-0.156081 4.48871,-4.893305 4.92966,-6.173216 1.38313,-4.01454 1.4299,-7.886546 0.14705,-12.168481 -0.52518,-1.752887 -0.30155,-2.812839 0.59347,-2.812839 1.45509,0 2.78434,5.401521 2.48336,10.091338 l -0.19384,3.020512 2.86507,-2.988299 c 3.3702,-3.515136 4.09829,-5.349558 4.08536,-10.292942 -0.006,-2.403503 -0.25032,-3.830518 -1.01167,-5.915732 -1.46268,-4.006022 -1.49715,-4.172282 -0.93674,-4.518631 0.87994,-0.543827 1.4469,-0.0184 2.49138,2.309015 1.38943,3.096053 1.93241,5.925585 1.75151,9.127151 l -0.15304,2.708469 2.87183,-2.850054 c 2.24916,-2.232109 2.9968,-3.269835 3.44819,-4.786115 1.19614,-4.017878 0.32302,-9.907629 -1.9651,-13.255927 -1.1337,-1.658993 -1.25767,-2.59343 -0.38833,-2.927033 0.89753,-0.344405 2.11811,0.949736 3.36495,3.567723 1.38225,2.902312 2.02907,5.930511 1.85671,8.692574 l -0.13265,2.125351 3.13691,-3.137999 3.13692,-3.138 -0.0307,-2.265169 c -0.091,-6.697205 -8.29988,-15.135486 -15.28776,-15.714984 -1.62598,-0.134878 -2.36924,-0.0059 -3.20965,0.559006 -1.17639,0.790035 -5.46113,5.148504 -35.45559,36.065687 -39.36737,40.57844 -46.22631,47.5343 -48.19796,48.87907 -1.10802,0.75575 -2.01156,1.4624 -2.00788,1.57037 0.003,0.10802 1.60857,1.3446 3.56643,2.74811 4.82548,3.45919 9.79801,8.20954 13.29942,12.70525 1.59965,2.05389 2.93981,3.70125 2.97812,3.66077 0.0383,-0.0405 0.70109,-1.01381 1.47285,-2.16295 z m 89.41924,-82.550285 c 2.16169,-0.551484 6.0118,-3.302568 7.53096,-5.381223 3.41569,-4.673688 3.47482,-10.790015 0.16553,-17.123868 -1.7882,-3.422533 -7.53609,-9.076419 -11.09464,-10.913185 -5.97971,-3.0864523 -11.6908,-3.4840513 -16.44267,-1.144707 -3.66465,1.804093 -6.61837,5.428245 -7.4661,9.160758 l -0.24092,1.060739 1.36419,-0.570002 c 3.15913,-1.319959 8.78252,-0.238343 12.9991,2.500277 3.26767,2.122324 7.31452,6.557476 8.72536,9.562586 2.34644,4.997913 2.55204,8.643343 0.67672,11.998645 l -0.9713,1.737841 1.65928,-0.260852 c 0.91261,-0.143483 2.30513,-0.425628 3.09449,-0.627009 z"
       id="path4" /></g><metadata
     id="metadata182"><rdf:RDF><cc:Work
         rdf:about=""><cc:license
           rdf:resource="http://creativecommons.org/licenses/by-sa/4.0/" /><dc:publisher><cc:Agent><dc:title>OpenDataKerala.org</dc:title></cc:Agent></dc:publisher><dc:date>April 2026</dc:date><dc:title>Election Symbols of Kerala</dc:title><dc:creator><cc:Agent><dc:title>Manoj Karingamadathil</dc:title></cc:Agent></dc:creator></cc:Work><cc:License
         rdf:about="http://creativecommons.org/licenses/by-sa/4.0/"><cc:permits
           rdf:resource="http://creativecommons.org/ns#Reproduction" /><cc:permits
           rdf:resource="http://creativecommons.org/ns#Distribution" /><cc:requires
           rdf:resource="http://creativecommons.org/ns#Notice" /><cc:requires
           rdf:resource="http://creativecommons.org/ns#Attribution" /><cc:permits
           rdf:resource="http://creativecommons.org/ns#DerivativeWorks" /><cc:requires
           rdf:resource="http://creativecommons.org/ns#ShareAlike" /></cc:License></rdf:RDF></metadata></svg>
