<?xml version="1.0" encoding="UTF-8" standalone="no"?>
<!-- Created with Inkscape (http://www.inkscape.org/) -->

<svg
   width="1500"
   height="1500"
   viewBox="0 0 396.87499 396.875"
   version="1.1"
   id="svg5"
   xml:space="preserve"
   inkscape:version="1.2.2 (b0a8486541, 2022-12-01)"
   sodipodi:docname="indi04.svg"
   inkscape:export-filename="indi03.png"
   inkscape:export-xdpi="96"
   inkscape:export-ydpi="96"
   xmlns:inkscape="http://www.inkscape.org/namespaces/inkscape"
   xmlns:sodipodi="http://sodipodi.sourceforge.net/DTD/sodipodi-0.dtd"
   xmlns="http://www.w3.org/2000/svg"
   xmlns:svg="http://www.w3.org/2000/svg"
   xmlns:rdf="http://www.w3.org/1999/02/22-rdf-syntax-ns#"
   xmlns:cc="http://creativecommons.org/ns#"
   xmlns:dc="http://purl.org/dc/elements/1.1/"><title
     id="title186">Election Symbols of Kerala</title><sodipodi:namedview
     id="namedview7"
     pagecolor="#ffffff"
     bordercolor="#000000"
     borderopacity="0.25"
     inkscape:showpageshadow="2"
     inkscape:pageopacity="0.0"
     inkscape:pagecheckerboard="0"
     inkscape:deskcolor="#d1d1d1"
     inkscape:document-units="mm"
     showgrid="false"
     inkscape:zoom="0.35355339"
     inkscape:cx="-134.35029"
     inkscape:cy="974.39314"
     inkscape:window-width="1854"
     inkscape:window-height="1011"
     inkscape:window-x="0"
     inkscape:window-y="0"
     inkscape:window-maximized="1"
     inkscape:current-layer="layer1" /><defs
     id="defs2"><inkscape:path-effect
       effect="bspline"
       id="path-effect3248"
       is_visible="true"
       lpeversion="1"
       weight="33.333333"
       steps="2"
       helper_size="0"
       apply_no_weight="true"
       apply_with_weight="true"
       only_selected="false" /><inkscape:path-effect
       effect="bspline"
       id="path-effect577"
       is_visible="true"
       lpeversion="1"
       weight="33.333333"
       steps="2"
       helper_size="0"
       apply_no_weight="true"
       apply_with_weight="true"
       only_selected="false" /></defs><g
     inkscape:label="Layer 1"
     inkscape:groupmode="layer"
     id="layer1"><path
       style="fill:#000000;stroke-width:0.366982"
       d="m 62.230846,368.76934 c -5.313878,-0.89936 -10.594371,-2.96682 -15.291913,-5.98724 -2.685949,-1.727 -3.271839,-2.32796 -1.926653,-1.97618 1.274352,0.33326 0.78386,-0.24022 -1.571298,-1.83715 -5.478476,-3.71469 -13.157763,-11.38973 -17.261786,-17.25226 -1.02122,-1.45879 -1.905278,-2.60385 -1.964559,-2.54455 -0.05923,0.0592 0.05173,0.66391 0.246639,1.3436 0.194932,0.67971 0.30219,1.28807 0.238346,1.35193 -0.223851,0.22384 -4.083842,-5.9753 -5.985889,-9.61332 -1.056507,-2.02076 -2.539688,-5.48874 -3.295946,-7.70662 -1.251285,-3.66967 -1.376811,-4.39574 -1.395036,-8.0693 -0.02885,-5.80558 1.537178,-10.50483 5.051842,-15.15998 1.31391,-1.74025 5.312658,-5.41321 5.583044,-5.12815 0.05437,0.0573 -0.372152,1.50794 -0.947681,3.22374 -0.575544,1.71579 -1.230203,4.35806 -1.454817,5.87171 -0.224614,1.51364 -0.490769,3.3026 -0.591439,3.97545 -0.134957,0.90192 -0.328792,1.16744 -0.737727,1.01051 -0.305061,-0.11706 -0.889357,-0.0337 -1.298417,0.18519 -0.612369,0.32774 -0.704924,0.63543 -0.523904,1.74185 0.616557,3.76859 0.684216,4.93363 0.27173,4.67869 -0.23037,-0.14236 -0.441321,-0.70324 -0.468812,-1.24639 -0.04355,-0.86117 -0.07032,-0.88221 -0.208677,-0.16439 -0.256945,1.33267 1.912949,9.26886 2.534264,9.26886 0.161297,0 0.29488,0.45413 0.29685,1.00921 0.0042,1.28185 1.10379,3.61278 4.15354,8.80757 1.333091,2.2707 2.256721,4.12854 2.05251,4.12854 -1.166885,0 -4.2612,-4.88124 -6.862804,-10.82597 -2.422234,-5.53487 -3.728654,-10.85433 -4.004559,-16.30577 -0.175999,-3.47755 -0.315159,-4.35014 -0.585267,-3.66982 -0.626766,1.5786 -0.407312,6.22203 0.449769,9.5166 2.512377,9.65732 6.455173,18.00151 12.109522,25.62754 2.702912,3.64542 8.358954,9.56875 11.211123,11.74094 1.213891,0.92449 2.289636,1.79097 2.390555,1.92554 0.620885,0.82784 6.920324,4.69753 10.390202,6.38259 6.636497,3.22286 12.321278,4.70403 15.501047,4.0388 1.405384,-0.29402 1.367643,-0.31203 -1.256195,-0.59947 -9.34776,-1.02405 -19.663048,-5.97246 -26.928684,-12.91812 -0.958749,-0.91653 -1.743164,-1.75289 -1.743164,-1.85858 0,-0.10569 0.701845,0.30935 1.559661,0.92231 15.127773,10.8098 23.199392,13.94345 31.652219,12.28837 1.614712,-0.31617 3.755576,-0.98024 4.757476,-1.47569 1.001885,-0.49548 1.89256,-0.8299 1.979276,-0.74318 0.349127,0.34911 -3.573946,3.52921 -5.635805,4.56848 -3.35488,1.69101 -6.552084,2.14035 -10.488583,1.47411 z m -8.615524,-0.8836 c -1.066771,-0.78004 -0.396494,-1.08733 0.904378,-0.41463 0.624283,0.32283 1.135053,0.6653 1.135053,0.76103 0,0.37736 -1.367227,0.14513 -2.039431,-0.3464 z m -5.85096,-2.70028 c -2.637431,-1.40285 -8.420884,-5.32858 -8.833342,-5.99596 -0.579497,-0.93764 0.301996,-0.54766 2.811682,1.24392 1.495498,1.06759 4.040234,2.7147 5.65496,3.66026 4.165121,2.43902 4.154982,2.4319 3.486328,2.44638 -0.302759,0.007 -1.706589,-0.603 -3.119628,-1.3546 z m 19.729084,-5.23068 c -9.402907,-2.12345 -24.552665,-13.58701 -33.222463,-25.13885 -4.292311,-5.71917 -7.065822,-11.34138 -8.795768,-17.82997 -1.067727,-4.00474 -1.14651,-12.7135 -0.149021,-16.47144 1.745036,-6.57427 5.342423,-12.75624 9.370423,-16.10268 2.663326,-2.21269 4.414188,-3.18081 9.082243,-5.02196 6.676541,-2.63331 7.887908,-3.53999 20.316486,-15.20633 3.128519,-2.93665 8.9082,-8.3079 12.843728,-11.9361 6.699399,-6.17626 16.564974,-15.38933 22.019566,-20.56321 1.31197,-1.24445 7.42222,-6.93955 13.57835,-12.65579 6.15611,-5.71624 14.08293,-13.13314 17.61514,-16.48202 9.56556,-9.06909 22.92371,-21.6064 29.38443,-27.57882 28.16148,-26.03303 58.82223,-54.73786 64.4192,-60.30974 4.66844,-4.64752 4.66694,-4.64524 8.20651,-12.49718 1.30653,-2.898333 2.0512,-3.813163 4.41467,-5.423353 0.90828,-0.6188 2.96134,-2.19973 4.56235,-3.5132 1.60101,-1.31346 3.58271,-2.74241 4.40379,-3.17544 1.63622,-0.86293 3.84304,-3.72404 5.65996,-7.33807 1.09507,-2.17816 1.10167,-2.2267 0.61254,-4.50558 -2.03237,-9.469008 -2.47885,-21.109913 -1.03095,-26.878886 1.78665,-7.118584 5.25722,-14.227306 8.70029,-17.820698 2.78276,-2.904252 3.29079,-2.239384 4.0886,5.350814 0.91135,8.670395 1.96998,13.195309 5.4949,23.486852 2.3679,6.913472 3.69177,9.973236 7.14524,16.514198 2.67574,5.06792 9.93665,16.57912 16.3194,25.872233 4.24452,6.17991 3.64582,5.67152 -2.80911,-2.38538 C 278.4179,88.232197 270.8421,75.894667 265.80554,63.391937 264.0234,58.967971 263.24252,56.532254 260.9985,48.397803 l -0.5568,-2.018404 0.19407,1.834916 c 1.14044,10.782755 8.99571,27.641752 21.77872,46.741572 2.07594,3.10178 3.60409,5.534303 3.39589,5.405633 -0.60379,-0.373153 -7.08445,-8.219713 -9.1983,-11.136953 -1.06033,-1.46334 -2.01068,-2.66062 -2.11186,-2.66062 -0.4894,0 7.77966,12.54732 11.72981,17.798633 10.71715,14.24732 25.06242,27.96571 40.25752,38.49824 l 2.01841,1.39906 -2.38484,-2.15002 c -4.50107,-4.05787 -7.89096,-7.26555 -8.19493,-7.75443 -0.16734,-0.26914 1.62158,0.93564 3.97536,2.67729 8.26599,6.11628 18.97605,12.67369 25.09058,15.36208 4.12582,1.81403 4.58731,1.65726 0.78038,-0.26511 -9.71905,-4.90779 -20.35488,-11.97999 -29.54205,-19.64375 -3.79347,-3.16443 -12.4532,-11.76528 -13.7373,-13.64392 -0.47673,-0.69745 1.01542,0.57047 3.31591,2.81761 7.33953,7.16932 15.96202,14.07871 22.71529,18.20231 1.69429,1.03453 1.44181,0.78448 -1.83491,-1.8173 -3.08607,-2.45041 -9.12946,-7.82863 -15.3372,-13.64913 -3.61451,-3.38902 -14.45321,-15.04977 -15.21044,-16.36403 -0.14938,-0.25928 3.64888,3.44535 8.44059,8.23252 9.21899,9.21025 12.62554,12.19674 21.66371,18.99244 13.21982,9.93981 23.8531,15.54284 33.29044,17.54185 3.1277,0.66249 7.55551,0.67003 9.53934,0.0162 l 1.46792,-0.4838 -1.39165,-0.0384 c -2.07577,-0.0574 -6.69712,-1.08237 -9.30369,-2.06348 -9.77957,-3.68102 -25.94695,-14.20418 -38.11328,-24.80746 -6.9114,-6.02348 -20.70324,-20.48763 -26.07715,-27.348353 -17.25954,-22.03474 -24.72539,-33.373014 -29.85673,-45.342919 -2.89837,-6.761038 -3.47843,-9.395265 -3.49943,-15.892145 l -0.0178,-5.504732 1.50094,-3.119351 c 4.1827,-8.692837 11.82819,-12.271498 23.62051,-11.056178 19.06627,1.964976 36.63023,12.809523 59.26055,36.589341 19.77799,20.782622 30.22327,36.477324 36.12854,54.285447 3.05398,9.20971 3.48211,11.76306 3.23055,19.26657 -0.11165,3.33036 -0.2999,6.46806 -0.41832,6.97265 -0.1896,0.80772 -0.17069,0.82966 0.15794,0.18349 0.27994,-0.55038 0.34846,-0.0821 0.27388,1.87197 -0.20305,5.32182 -4.55238,11.4519 -10.0232,14.12698 -1.3947,0.68197 -3.77437,2.27794 -5.28818,3.54662 -3.01938,2.53048 -4.9119,3.54246 -10.22962,5.47006 -7.8458,2.84398 -20.12311,5.18621 -24.93274,4.7566 -4.10673,-0.36683 -11.51413,-2.71934 -16.87503,-5.35932 l -1.57734,-0.77677 -2.71731,1.30697 c -1.56764,0.754 -4.08323,2.46732 -5.94578,4.04953 -1.77566,1.50843 -4.07589,3.18959 -5.11161,3.73594 -1.60571,0.84701 -2.02776,1.30846 -2.86491,3.13227 -1.18964,2.59175 -2.80105,3.78107 -5.91006,4.362 -1.20245,0.22468 -3.30606,0.30636 -4.67467,0.18149 l -2.48841,-0.22701 -2.83284,2.4339 c -1.55806,1.33864 -3.90626,3.37324 -5.21823,4.52133 -17.60937,15.40995 -37.16596,32.54611 -44.19689,38.72684 -13.26933,11.66477 -15.89934,13.93595 -53.23686,45.97349 -4.44048,3.81017 -16.66098,14.09249 -27.15666,22.84962 -26.93044,22.4695 -29.29809,24.48418 -41.88384,35.63985 -9.3269,8.26712 -10.77831,9.8573 -12.64104,13.84945 -2.329369,4.99228 -2.919939,6.01451 -4.334931,7.50355 -7.413146,7.80098 -23.444104,4.59106 -38.206967,-7.65027 -12.362223,-10.25073 -21.288939,-25.12222 -24.613291,-41.00453 -0.546749,-2.61215 -0.667503,-2.92327 -0.5298,-1.36494 0.293993,3.32689 2.250383,10.65637 4.034312,15.11422 3.194915,7.98381 7.872512,15.16815 14.125166,21.69489 9.273083,9.67959 18.76616,15.37365 31.020945,18.60674 3.989095,1.05242 4.012952,1.06513 2.01839,1.07583 C 75.080385,352.65962 59.157545,343.4718 48.831881,331.30132 40.78362,321.81511 35.515985,310.95699 33.09504,298.86317 l -0.808091,-4.0368 -0.292453,5.32124 c -0.315048,5.73223 -0.62151,5.86516 -1.269053,0.55046 l -0.357699,-2.93584 0.150617,2.93584 c 0.481157,9.37814 4.198687,20.11435 9.975122,28.80811 4.589452,6.90729 8.704363,11.36361 14.610845,15.8231 3.29037,2.48429 3.334963,2.43265 0.446065,-0.51655 -2.711719,-2.76834 -4.49537,-4.95739 -4.24407,-5.20869 0.07767,-0.0777 1.796398,1.06222 3.819337,2.53314 7.464285,5.42744 13.957088,8.87045 19.979192,10.59461 2.192641,0.62776 3.722551,0.78616 7.523136,0.77891 2.796466,-0.006 5.188408,-0.18651 5.779958,-0.4378 1.477578,-0.62764 1.271342,0.0383 -0.646989,2.08916 -4.391108,4.69446 -12.359172,6.57871 -20.267469,4.79278 z m -0.829229,-2.16259 c 0,-0.18618 -0.619277,-0.53929 -1.376187,-0.78465 -2.525304,-0.81866 -6.140084,-2.81962 -9.222623,-5.10519 -1.678334,-1.2444 -2.969177,-2.34491 -2.868521,-2.44556 0.100697,-0.1007 1.066409,0.26513 2.146148,0.81283 3.376407,1.71271 10.689701,4.92524 11.212288,4.92524 0.274519,0 -1.059988,-0.79872 -2.965572,-1.77491 -7.444547,-3.81377 -15.176138,-9.82174 -19.896608,-15.46101 -1.34957,-1.61224 -2.750667,-3.02559 -3.113581,-3.14078 -0.716506,-0.2274 -2.119836,-1.78806 -3.772067,-4.19493 -0.576737,-0.84017 -1.131739,-1.44448 -1.23331,-1.34289 -0.38057,0.38057 1.172461,4.41919 2.466217,6.41329 3.528396,5.43844 9.833854,11.80383 15.719503,15.86892 3.469407,2.39624 10.754946,6.12019 12.812575,6.54904 0.05049,0.0111 0.09168,-0.13315 0.09168,-0.3194 z m -21.212973,-14.083 c -0.645116,-0.66559 -1.172933,-1.34083 -1.172933,-1.50055 0,-0.36043 2.277056,1.51454 2.678861,2.20581 0.535528,0.92137 -0.315741,0.5227 -1.505928,-0.70526 z m 8.166616,1.5227 c -3.563155,-3.08331 -9.730327,-9.49311 -12.091922,-12.56763 -1.211034,-1.57665 -2.579314,-3.3038 -3.040609,-3.8381 l -0.83873,-0.97147 0.543073,1.37212 c 0.298681,0.75468 1.088963,2.13389 1.756174,3.06491 0.667212,0.93102 1.376131,2.00627 1.575377,2.38943 0.199245,0.38318 0.494569,0.69667 0.656281,0.69667 0.161713,0 2.310691,2.04287 4.775493,4.53973 3.679914,3.72777 7.867408,7.20369 8.678371,7.20369 0.09349,0 -0.812627,-0.8502 -2.013508,-1.88935 z m 19.652035,-0.4766 c 0,-0.0903 -1.236916,-1.02768 -2.748711,-2.08322 -1.511795,-1.05553 -2.688848,-1.97901 -2.615682,-2.05217 0.07323,-0.0732 1.389612,0.20371 2.925459,0.61528 1.535832,0.41158 2.914543,0.74832 3.063814,0.74832 0.149257,0 -1.210133,-0.96897 -3.020858,-2.15326 -1.81074,-1.18429 -4.056254,-2.95957 -4.990037,-3.94506 -1.954366,-2.06259 -5.098363,-6.34273 -5.076684,-6.91122 0.0083,-0.21193 0.259983,0.0667 0.559773,0.61929 1.076063,1.98316 3.986043,2.67245 6.625846,1.56948 2.003216,-0.837 3.502958,-2.0925 17.93797,-15.01668 3.716449,-3.32747 40.124135,-35.62288 45.133735,-40.03584 2.06216,-1.81657 6.29232,-5.55679 9.40035,-8.3116 11.56542,-10.25109 16.6407,-14.71153 28.9589,-25.45075 21.2346,-18.51271 39.12278,-34.69078 39.22902,-35.47875 0.0184,-0.13663 -0.91605,0.32334 -2.07664,1.02221 -3.73949,2.25182 -7.28489,3.15653 -12.85971,3.2815 l -4.87784,0.10929 -7.96109,7.09226 c -4.37859,3.90074 -8.87181,7.93464 -9.98492,8.96424 -1.11313,1.02958 -5.25471,4.74528 -9.20356,8.25709 -3.94884,3.51182 -10.88479,9.68335 -15.41325,13.71451 -4.52845,4.03118 -11.2061,9.96694 -14.83922,13.19058 -3.63313,3.22365 -7.92681,7.0446 -9.54154,8.491 -1.61472,1.44639 -8.30297,7.39198 -14.86277,13.21242 -6.5598,5.82043 -13.585042,12.07776 -15.611643,13.90516 -2.026601,1.8274 -5.818434,5.22168 -8.42628,7.54285 -20.533388,18.27604 -21.144426,18.89272 -19.92654,20.11062 0.303522,0.30351 0.313633,0.44038 0.03246,0.44038 -0.224322,0 -1.421542,-1.10625 -2.660455,-2.45831 l -2.252588,-2.4583 1.07942,-0.5693 c 0.593686,-0.31312 3.445646,-2.71614 6.337692,-5.34007 2.89206,-2.62392 8.896313,-8.07752 13.342819,-12.11912 4.446491,-4.04158 13.203922,-11.96365 19.460973,-17.60458 6.257032,-5.64094 17.982112,-16.27886 26.055712,-23.63982 19.4273,-17.71248 20.27058,-18.47877 29.7193,-27.00556 4.47327,-4.03681 12.39324,-11.22047 17.59997,-15.96372 5.20672,-4.74324 10.38317,-9.45775 11.50323,-10.47668 l 2.03648,-1.85261 -0.47382,-1.26674 c -0.26061,-0.69671 -0.57738,-2.86463 -0.70393,-4.81758 l -0.23012,-3.55081 -4.77076,4.23622 c -2.62392,2.32993 -5.91863,5.24894 -7.32157,6.48668 -1.40295,1.23776 -5.12329,4.56244 -8.26743,7.3882 -9.08323,8.16343 -18.16773,16.31278 -28.48446,25.55224 -36.049165,32.28492 -62.321845,56.17817 -80.141239,72.88315 l -3.110599,2.91605 1.000457,1.92833 c 1.203406,2.31952 1.25012,2.75401 0.237888,2.21228 -1.351928,-0.72352 -6.272905,-5.61724 -7.544704,-7.50292 -0.678849,-1.00651 -1.230231,-1.66707 -1.225293,-1.46793 0.0097,0.39672 0.629082,3.23161 0.960899,4.39888 0.114707,0.40369 -0.319652,-0.0502 -0.965351,-1.00871 -1.142904,-1.69652 -1.839437,-2.41581 -1.839437,-1.89951 0,0.78604 3.507563,7.46105 5.396697,10.2701 5.676958,8.44134 13.520634,15.43249 22.409568,19.97384 3.079556,1.57335 3.020234,1.54765 3.020234,1.30832 z M 52.489547,327.02081 c -1.113498,-0.90535 -2.082498,-2.54118 -1.65997,-2.80232 0.19385,-0.11984 1.043912,0.60804 1.889023,1.61745 1.489742,1.77932 1.355575,2.4733 -0.229053,1.18487 z m 2.446217,15.69662 c -0.900051,-0.79017 -1.725757,-1.34463 -1.834916,-1.23213 -0.253727,0.26149 2.544473,2.70528 3.073773,2.68445 0.218678,-0.008 -0.338821,-0.66215 -1.238857,-1.45232 z m 33.521643,-3.62983 c 1.536179,-0.74192 4.212266,-2.83589 8.482842,-6.63761 6.052941,-5.3884 22.935111,-20.28829 29.739191,-26.24725 1.84373,-1.61471 6.1343,-5.33041 9.53459,-8.25709 3.4003,-2.92668 8.2578,-7.1387 10.79445,-9.36004 7.15903,-6.26912 17.30191,-15.05339 27.54848,-23.85843 10.46777,-8.9951 12.13479,-10.43395 21.49013,-18.54866 3.6212,-3.14099 8.318,-7.21071 10.43732,-9.04385 2.11932,-1.83314 5.33958,-4.62459 7.15614,-6.20323 1.81657,-1.57863 6.93597,-6.00673 11.37645,-9.8402 4.44048,-3.83347 12.44987,-10.84574 17.79864,-15.58284 5.34876,-4.73709 10.94805,-9.69495 12.44287,-11.01746 1.49481,-1.32252 4.63252,-4.0421 6.97267,-6.04354 6.05017,-5.17449 8.47852,-7.57343 9.0821,-8.97217 1.16342,-2.69608 -0.59509,-3.70583 -3.53511,-2.0299 -1.91414,1.09114 -7.9975,6.30079 -50.43856,43.19452 -3.44735,2.99678 -8.49735,7.37199 -11.22219,9.72271 -5.20522,4.49053 -20.80165,18.13229 -33.21188,29.04948 -12.17883,10.71364 -16.85808,14.82337 -25.68875,22.56222 -14.85887,13.02171 -24.03004,21.08175 -31.74396,27.89802 -12.02119,10.62234 -31.253626,27.43282 -32.753132,28.6285 -1.543877,1.23106 -1.659264,1.51119 -0.733969,1.78188 1.34796,0.39434 4.315321,-0.1536 6.471678,-1.19506 z m 8.990117,0.2871 c 0.832489,-0.29022 1.908547,-1.4062 3.751926,-3.89119 1.42157,-1.91636 3.27421,-4.23889 4.11699,-5.1612 2.50704,-2.74365 20.57742,-18.68386 37.68006,-33.23829 4.94508,-4.2083 15.51417,-13.22641 23.48685,-20.04027 7.9727,-6.81384 16.64265,-14.18037 19.26657,-16.37004 2.62392,-2.18967 9.30045,-7.9519 14.83673,-12.80496 11.19218,-9.81095 15.95705,-13.9455 25.37133,-22.01504 3.51927,-3.01659 8.2978,-7.15518 10.61896,-9.19688 2.32116,-2.04171 8.84427,-7.74133 14.49579,-12.66582 19.79615,-17.24949 24.43241,-21.37198 24.24562,-21.55877 -0.28404,-0.28405 -2.1318,1.20843 -11.92688,9.63352 -12.81333,11.02121 -14.4954,12.48304 -22.59776,19.63909 -9.28767,8.20293 -22.41041,19.48873 -30.08792,25.87616 -1.21044,1.00704 -5.66928,4.80398 -9.90852,8.43764 -4.23924,3.63365 -8.69856,7.42918 -9.9096,8.43447 -6.83415,5.67316 -31.49597,26.90917 -40.00106,34.44445 -17.14224,15.18755 -21.52786,19.05998 -26.05572,23.00677 -12.51222,10.90644 -23.7885,21.09045 -25.331699,22.87794 -1.598126,1.85109 -3.71935,4.99933 -3.368475,4.99933 0.08225,0 0.674798,-0.18312 1.316808,-0.40691 z m -18.489408,-1.70878 c 1.575085,-0.79369 3.028029,-2.02854 20.175715,-17.14713 8.472719,-7.47014 17.485329,-15.39865 20.028029,-17.61889 2.54271,-2.22023 9.38952,-8.24792 15.21515,-13.39485 5.82561,-5.14692 12.93491,-11.42231 15.79841,-13.94531 22.34399,-19.68702 32.18203,-28.36088 44.74556,-39.45058 3.20131,-2.82576 7.50447,-6.62403 9.5626,-8.44059 2.05811,-1.81656 9.66694,-8.51738 16.9085,-14.89072 11.81145,-10.39534 18.89314,-16.65695 39.60516,-35.01885 3.41511,-3.0276 7.18,-6.42276 8.36642,-7.54479 l 2.15715,-2.04005 -3.06181,-2.26556 -3.06179,-2.26557 -1.65751,1.61077 c -0.91163,0.88592 -3.57804,3.23631 -5.92536,5.22307 -9.32382,7.89168 -29.92018,25.83192 -44.17209,38.47561 -6.87333,6.09774 -32.00919,28.16718 -49.54428,43.50023 -9.0828,7.94218 -18.41333,16.12184 -20.73448,18.17701 -2.32116,2.05517 -10.16541,8.93247 -17.43166,15.2829 -12.40727,10.84348 -43.31043,37.99447 -51.145146,44.93525 -1.944351,1.72252 -3.897427,3.58434 -4.340163,4.13739 l -0.804971,1.00556 2.020526,0.63692 c 1.688599,0.53228 2.121099,0.55729 2.632729,0.15222 0.567998,-0.44968 21.146784,-18.25703 47.233245,-40.87211 6.05519,-5.24942 16.04628,-13.89848 22.20242,-19.22013 18.09477,-15.642 20.84026,-18.02136 24.73837,-21.43924 2.0365,-1.7856 7.66615,-6.65457 12.51031,-10.8199 4.84417,-4.16533 11.45033,-9.88804 14.68038,-12.71714 3.23005,-2.82909 7.60632,-6.62674 9.72503,-8.43921 2.11871,-1.81246 5.83391,-5.04037 8.25599,-7.17312 2.42209,-2.13275 7.37635,-6.41649 11.00947,-9.51941 3.63313,-3.10292 7.76167,-6.65693 9.17455,-7.89778 3.05786,-2.68557 28.8769,-25.20412 30.45952,-26.56583 l 1.10095,-0.94727 -0.91746,0.95722 c -1.07099,1.11741 -12.56443,11.33311 -30.4433,27.05891 -6.9724,6.13275 -13.42024,11.81886 -14.32851,12.63581 -0.90829,0.81694 -4.77858,4.22149 -8.60064,7.56564 -3.82207,3.34416 -11.42668,10.04368 -16.89913,14.88784 -16.2687,14.40091 -18.58292,16.44331 -30.09433,26.55971 -19.12563,16.80789 -25.62777,22.55622 -27.89415,24.66029 -1.21114,1.12443 -6.08292,5.42994 -10.82617,9.56784 -16.6946,14.56397 -46.640192,41.07179 -48.7915,43.19022 -0.464235,0.45713 -0.416661,0.48911 0.366978,0.2468 0.495193,-0.15313 1.395771,-0.52805 2.001288,-0.83318 z m -45.19764,-8.73016 c -1.072179,-2.11748 -2.63302,-3.99788 -2.098754,-2.52843 0.517636,1.42368 2.884833,5.32084 3.007834,4.95184 0.06949,-0.2083 -0.339653,-1.29883 -0.90908,-2.42341 z m 3.543806,0.66209 c -0.0028,-0.51603 -1.505373,-2.74413 -1.711692,-2.53781 -0.113042,0.11304 0.157024,0.79225 0.600177,1.50931 0.789699,1.27773 1.114248,1.57805 1.111515,1.0285 z m -3.81028,-6.93458 c -0.910758,-1.78705 -1.664298,-2.95486 -1.674506,-2.59517 -0.02455,0.86603 0.760253,2.70362 1.979942,4.63575 1.63671,2.5927 1.462389,1.42812 -0.305436,-2.04058 z m 44.730159,2.80604 c 0.365327,-0.40368 0.58166,-0.73397 0.480727,-0.73397 -0.100975,0 -0.482392,0.33029 -0.847719,0.73397 -0.365327,0.40367 -0.58166,0.73396 -0.48074,0.73396 0.100975,0 0.482405,-0.33029 0.847732,-0.73396 z m 2.752359,-2.38539 c 0.474055,-0.50461 0.779338,-0.91745 0.678419,-0.91745 -0.100975,0 -0.571355,0.41284 -1.045397,0.91745 -0.474055,0.5046 -0.779338,0.91746 -0.678419,0.91746 0.100975,0 0.571355,-0.41286 1.045397,-0.91746 z m -17.023052,-2.47713 c 0.581938,-0.45414 4.536787,-3.96341 8.788569,-7.79837 4.251782,-3.83496 15.234019,-13.73009 24.404948,-21.98918 9.170945,-8.25909 17.751635,-16.02075 19.068235,-17.24815 11.43155,-10.65716 37.9358,-34.34014 51.57605,-46.08601 15.98865,-13.76811 19.55705,-17.05909 19.057,-17.57542 -0.41927,-0.4329 -1.73975,0.60178 -8.66447,6.78917 -4.49342,4.01496 -10.32665,9.19356 -12.96274,11.50801 -2.63609,2.31445 -8.00059,7.10356 -11.92106,10.64249 -3.92048,3.53891 -8.06297,7.2601 -9.20552,8.26929 -1.14255,1.0092 -9.56293,8.60574 -18.71196,16.88118 -9.14903,8.27545 -19.3739,17.51344 -22.72193,20.52888 -3.348029,3.01545 -12.197581,11.01529 -19.665666,17.77744 -12.083988,10.9417 -19.87271,17.95937 -20.899631,18.8306 -0.841727,0.71412 0.900882,0.21715 1.858175,-0.52993 z m 24.98934,-4.81448 c 0.136899,-0.22825 -1.106453,0.80193 -2.76308,2.28932 -1.656614,1.48737 -3.124053,2.89108 -3.260979,3.11935 -0.136899,0.22824 1.106466,-0.80194 2.76308,-2.28932 1.656614,-1.48737 3.124053,-2.89107 3.260979,-3.11935 z m -39.558505,-0.29086 c -0.289929,-0.54174 -0.515749,-0.68352 -0.614907,-0.38608 -0.16113,0.48341 0.624075,1.69127 0.912187,1.40317 0.08849,-0.0885 -0.04522,-0.5462 -0.29728,-1.01709 z m 58.966747,-16.4854 c 43.22089,-37.7715 58.63072,-51.17333 67.67452,-58.85606 4.74287,-4.02908 14.37997,-12.28619 21.41579,-18.3491 7.03581,-6.06292 14.13692,-12.15675 15.78023,-13.54184 3.71719,-3.13307 6.52546,-5.73905 6.18321,-5.73781 -0.14273,3.7e-4 -1.21776,0.57877 -2.38898,1.28501 -3.09556,1.86661 -4.41604,2.5133 -4.10534,2.01058 0.97344,-1.57504 -3.56581,2.23273 -14.86666,12.47095 -7.84453,7.10691 -19.85001,17.85187 -22.77113,20.38025 -0.93275,0.80737 -4.48922,3.95952 -7.90326,7.00481 -3.41402,3.04528 -10.09465,8.99039 -14.84583,13.21135 -8.27381,7.35048 -24.43369,21.77642 -32.64579,29.14294 -2.13757,1.91748 -9.08058,8.1103 -15.42888,13.76182 -6.3483,5.65154 -12.368782,11.08156 -13.378837,12.06673 -2.265598,2.20978 -0.714633,0.87703 17.280957,-14.84963 z m -53.553877,8.47114 c 2.586915,-2.32117 10.980544,-9.92152 18.652507,-16.88967 7.671964,-6.96814 15.683025,-14.22431 17.802335,-16.12483 2.119323,-1.90051 4.927871,-4.45638 6.241211,-5.67973 1.313341,-1.22336 5.520944,-5.0317 9.350254,-8.46298 3.82931,-3.43128 8.12621,-7.31211 9.54868,-8.62408 1.42248,-1.31196 4.89396,-4.47061 7.71441,-7.01923 2.82046,-2.54861 10.74564,-9.73229 17.61151,-15.96372 12.75321,-11.57473 17.41174,-15.79204 31.40743,-28.43274 4.38102,-3.95689 8.4997,-7.80275 9.1526,-8.54635 0.65289,-0.74361 1.51976,-1.53007 1.92636,-1.74768 0.63945,-0.34221 0.70633,-0.30314 0.49532,0.28927 -0.39556,1.1105 0.97958,-0.78382 3.32989,-4.58708 1.16821,-1.89039 3.1304,-4.61523 4.36042,-6.0552 3.25487,-3.81041 5.08723,-5.47224 31.52595,-28.59182 8.07362,-7.06004 15.09214,-13.2332 15.59675,-13.71814 l 0.91745,-0.88172 -1.26538,-2.37438 c -0.69597,-1.30589 -1.32341,-2.37436 -1.39433,-2.37436 -0.19844,0 -7.28856,6.21306 -18.80715,16.48068 -5.75332,5.12849 -15.49741,13.81066 -21.65354,19.29371 -6.15612,5.48307 -16.07302,14.33325 -22.03752,19.66707 -5.96452,5.33382 -14.63448,13.07297 -19.26656,17.19811 -4.63209,4.12512 -10.07341,9.00443 -12.09182,10.84288 -2.0184,1.83845 -6.72494,6.04916 -10.45898,9.35714 -3.73405,3.30797 -8.6883,7.76117 -11.00947,9.89603 -2.32116,2.13484 -5.86642,5.36582 -7.87836,7.17995 -2.01193,1.81412 -6.53727,6.02325 -10.05632,9.35361 -3.51905,3.33037 -8.98644,8.44977 -12.149772,11.37645 -3.163333,2.92668 -10.448179,9.78007 -16.188552,15.22976 -5.740387,5.44969 -14.208415,13.45854 -18.817854,17.79746 -4.687251,4.41219 -8.788666,8.58495 -9.306288,9.46819 -0.73132,1.24792 -0.887581,1.91556 -0.744802,3.18228 0.223741,1.98509 1.597985,4.35141 2.298444,3.95775 0.270441,-0.15199 2.608261,-2.17547 5.195177,-4.49663 z m 19.270508,-14.31417 c 6.519003,-5.95326 13.016064,-11.89754 14.437897,-13.20949 1.421847,-1.31197 7.279187,-6.67908 13.016332,-11.92693 5.73714,-5.24784 12.67344,-11.60581 15.41402,-14.12881 2.74058,-2.523 8.27055,-7.55984 12.28881,-11.19295 4.01827,-3.63312 10.37112,-9.41309 14.11746,-12.84438 3.74634,-3.43128 11.02028,-10.03696 16.16435,-14.67928 5.14405,-4.64233 10.26322,-9.32282 11.37591,-10.40109 2.23923,-2.16998 -14.59269,12.54489 -29.72086,25.98269 -10.14444,9.01091 -57.504666,52.35798 -75.430722,69.03892 -3.452859,3.21303 -5.18404,5.11895 -4.097116,4.51067 0.319652,-0.17887 5.914915,-5.19609 12.433919,-11.14935 z m -31.006604,9.84157 c -0.117203,-0.29276 -0.204113,-0.20581 -0.221729,0.22172 -0.01595,0.38685 0.07088,0.6036 0.192754,0.48167 0.121919,-0.12192 0.134957,-0.43848 0.02899,-0.70339 z m 8.563442,-7.63781 c 2.73007,-2.52301 10.905257,-10.10705 18.167079,-16.85341 7.261835,-6.74636 17.579593,-16.32322 22.928355,-21.28188 5.348761,-4.95866 11.211297,-10.43029 13.027867,-12.15916 1.81655,-1.72888 6.68524,-6.27167 10.81928,-10.0951 4.13405,-3.82342 10.33279,-9.59394 13.77498,-12.8234 3.4422,-3.22943 11.78488,-10.98942 18.53929,-17.24442 6.75441,-6.25498 19.38184,-17.98109 28.06098,-26.05802 8.67912,-8.07693 20.15451,-18.73026 25.50084,-23.67409 5.34635,-4.94382 11.12894,-10.30989 12.85022,-11.92462 1.72126,-1.61472 6.39407,-5.97715 10.38403,-9.69429 3.98994,-3.71714 7.12502,-6.86395 6.96683,-6.9929 -0.1582,-0.129 -0.89871,-0.68165 -1.64559,-1.22821 l -1.35797,-0.99374 -1.3944,1.18998 c -2.4393,2.08168 -8.27181,7.32863 -11.11943,10.00305 -1.51379,1.42174 -7.53229,6.95976 -13.37441,12.3067 -10.79531,9.88028 -21.64407,19.83859 -29.92947,27.47289 -14.17827,13.06408 -40.52905,37.21144 -47.70757,43.71834 -4.5648,4.13771 -11.241,10.24796 -14.836,13.57833 -3.59499,3.33036 -7.73952,7.12863 -9.21007,8.44058 -3.89992,3.47937 -18.840807,17.23044 -23.12664,21.28497 -2.026879,1.91749 -6.733423,6.29079 -10.458998,9.71844 -3.725575,3.42766 -10.201095,9.53003 -14.390045,13.56082 -6.71173,6.45832 -7.703282,7.56125 -8.348843,9.28665 -0.725563,1.93923 -0.943062,4.2577 -0.506206,5.3961 0.283631,0.73913 0.0638,0.90897 6.385891,-4.93361 z m -0.0069,2.75235 c 0.684702,-0.70643 1.16235,-1.28443 1.06143,-1.28443 -0.100975,0 -0.743705,0.578 -1.428421,1.28443 -0.684702,0.70644 -1.16235,1.28444 -1.061431,1.28444 0.100975,0 0.743706,-0.578 1.428422,-1.28444 z M 65.929908,285.2939 c 18.403177,-16.42976 33.354513,-30.06167 43.866372,-39.99525 3.6397,-3.43951 10.74081,-10.06671 15.78022,-14.72715 23.36201,-21.60512 37.49896,-34.73347 56.51496,-52.48283 6.46533,-6.03469 13.6438,-12.70614 15.95215,-14.82546 2.30836,-2.11932 8.09137,-7.48644 12.85115,-11.92692 4.75976,-4.44049 11.54767,-10.7461 15.08423,-14.01247 3.53657,-3.26639 6.66595,-6.23635 6.95418,-6.5999 0.28824,-0.36356 -2.1182,1.7376 -5.34763,4.66926 -3.22946,2.93166 -8.08397,7.30532 -10.78782,9.71925 -2.70386,2.41392 -5.84092,5.21466 -6.97124,6.22386 -9.62562,8.59418 -28.22401,25.33082 -31.79051,28.60821 -2.42592,2.22926 -7.03911,6.44775 -10.25154,9.37444 -16.14271,14.70685 -50.36791,46.32557 -62.75274,57.97371 -14.612434,13.74323 -16.41137,15.44088 -29.916428,28.23203 -7.15939,6.78093 -14.859732,14.06294 -17.111876,16.18227 -2.252145,2.11932 -4.20676,4.10102 -4.343617,4.40378 -0.136899,0.30276 0.46239,-0.12733 1.331635,-0.95589 0.869259,-0.82851 5.791582,-5.26593 10.938504,-9.86094 z m -31.684398,7.42225 c -0.101807,-0.25229 -0.185097,-0.0459 -0.185097,0.45873 0,0.5046 0.08336,0.71103 0.185097,0.45873 0.101807,-0.25231 0.101807,-0.66516 0,-0.91746 z m 20.66965,-9.28741 c 14.508733,-12.84856 31.979556,-29.1462 79.44402,-74.10927 4.47446,-4.23865 14.15206,-13.39748 21.50579,-20.35298 7.35372,-6.95549 18.40725,-17.45938 24.56336,-23.34199 6.15613,-5.88261 12.27566,-11.66913 13.59892,-12.85892 3.45309,-3.10474 20.53042,-19.29661 20.53042,-19.46591 0,-0.0782 -5.73868,5.17731 -12.75263,11.6789 -7.01395,6.50158 -17.04633,15.78065 -22.29417,20.62017 -5.24784,4.8395 -13.57733,12.52792 -18.50999,17.08536 -4.93266,4.55744 -11.0429,10.198 -13.57833,12.53456 -5.35078,4.93107 -16.97795,15.70508 -34.02483,31.52819 -19.459749,18.06276 -41.889887,38.85501 -51.15025,47.41515 -8.368677,7.73589 -10.047872,9.46152 -12.923495,13.28083 -1.635476,2.1722 -1.736784,2.52665 -0.366978,1.28406 0.555058,-0.50351 3.236235,-2.88767 5.958163,-5.29815 z m 18.560978,-23.74098 1.077853,-1.1927 -1.192684,1.07787 c -0.655991,0.59283 -1.192698,1.12953 -1.192698,1.19268 0,0.28353 0.302814,0.034 1.307529,-1.07785 z m 13.181883,-12.01867 c 3.41774,-3.12852 9.523897,-8.7278 13.569229,-12.44285 4.04532,-3.71505 10.07443,-9.2473 13.39803,-12.2939 9.65722,-8.85236 20.76124,-19.12575 31.7856,-29.40784 5.63539,-5.25596 20.07211,-18.61778 32.0816,-29.69295 37.75472,-34.81743 42.45054,-39.23671 45.63805,-42.95029 1.87245,-2.18148 1.87549,-2.18905 0.41821,-1.04416 -3.82969,3.00872 -16.49667,14.60485 -39.63407,36.28345 -3.02761,2.83671 -13.10126,12.24112 -22.38591,20.8987 -9.28465,8.65756 -19.52344,18.24034 -22.75289,21.29505 -3.22945,3.05472 -10.33055,9.74214 -15.78023,14.86092 -5.44969,5.11879 -12.64017,11.87755 -15.97887,15.01947 -3.33869,3.14192 -8.46624,7.94199 -11.394556,10.66684 -14.76755,13.74144 -19.783788,18.46363 -19.783788,18.62408 0,0.0969 1.036242,-0.79234 2.302757,-1.97606 1.266501,-1.18373 5.099084,-4.71193 8.516838,-7.84046 z m 114.949759,-38.9585 c 2.19186,-0.81771 5.02095,-2.48813 4.72139,-2.7877 -0.0933,-0.0933 -0.63348,0.15797 -1.20017,0.55861 -0.99776,0.70543 -3.53988,1.84332 -5.80108,2.59671 -0.60553,0.20174 -0.81815,0.37984 -0.47249,0.39577 0.34564,0.0159 1.58421,-0.32758 2.75235,-0.76339 z m -5.38458,-1.18913 c 1.10207,-0.28245 2.91796,-0.69968 4.03531,-0.92715 1.3452,-0.27387 3.07822,-1.08278 5.12962,-2.39432 3.00811,-1.92319 3.06635,-1.98702 2.00527,-2.19803 -0.60105,-0.11956 -1.79705,-0.37984 -2.65777,-0.57846 -2.39399,-0.55245 -3.42644,-0.43595 -5.21963,0.58897 -1.87528,1.07183 -7.30707,5.33112 -7.32944,5.74732 -0.0233,0.43322 1.84741,0.32278 4.03664,-0.23833 z m -2.21851,-3.73749 c 2.28406,-1.73256 4.55079,-3.30142 5.03716,-3.48634 1.15975,-0.44093 3.98719,-0.42536 5.62999,0.0311 2.10906,0.58589 4.83791,1.04043 4.50483,0.75035 -0.76175,-0.66341 -5.673,-1.65628 -8.14717,-1.64707 l -2.70219,0.01 0.22937,-1.95148 c 0.12621,-1.07331 0.04,-3.88771 -0.19164,-6.25421 -0.23153,-2.36652 -0.41497,-4.83946 -0.4076,-5.49544 0.0141,-1.2547 -0.503,-1.64872 -0.72242,-0.55047 -0.0706,0.35322 0.0829,1.96336 0.34114,3.57807 0.48075,3.00652 0.3434,6.3428 -0.35505,8.62408 -0.65539,2.14069 -2.08975,3.9513 -5.10896,6.44916 -2.62621,2.17269 -3.39,3.09235 -2.56827,3.09235 0.16938,0 2.17675,-1.41756 4.46082,-3.15011 z m -2.07373,-3.1996 c 2.74418,-2.6886 3.56711,-3.74326 4.04484,-5.18386 0.68436,-2.06369 0.77587,-5.24908 0.20941,-7.28895 l -0.38624,-1.39088 -1.1078,0.93215 c -0.60929,0.51268 -1.30375,0.93215 -1.54326,0.93215 -0.23952,0 -1.31409,0.5917 -2.38795,1.31488 -1.07387,0.72317 -2.02025,1.24711 -2.10308,1.16427 -0.0828,-0.0828 1.23953,-1.49834 2.93859,-3.14556 3.08843,-2.99427 4.93736,-5.2053 4.35278,-5.2053 -0.17065,0 -1.9664,1.55232 -3.99055,3.44961 -3.07156,2.87909 -3.87438,3.8708 -4.85397,5.99603 -1.91722,4.15946 -2.41621,9.24631 -1.20881,12.3228 l 0.40579,1.03396 1.09258,-0.778 c 0.60091,-0.42789 2.64287,-2.29687 4.53767,-4.1533 z m 25.8029,-4.18924 c 0.68225,-1.63214 0.61927,-3.55825 -0.25901,-7.92307 -1.14005,-5.6656 -1.05356,-5.5344 -4.28052,-6.49239 -8.23396,-2.44438 -10.94816,-2.40954 -13.31594,0.17094 l -0.91746,0.99987 1.76039,-0.93267 c 2.5712,-1.36225 4.70965,-1.58097 7.78114,-0.79584 3.54107,0.90516 6.26008,2.16136 6.89219,3.18424 1.79512,2.90492 2.50675,10.40126 1.21382,12.78634 -0.65044,1.19987 -0.65258,1.24819 -0.0323,0.73397 0.36521,-0.30276 0.88615,-1.08189 1.15764,-1.73139 z m -2.95217,-1.47497 c 0.3669,-1.95574 -0.0653,-4.02463 -1.38794,-6.64359 -1.09824,-2.17465 -1.45355,-2.54397 -3.52193,-3.6607 -1.86483,-1.00684 -2.70613,-1.24204 -4.44279,-1.24204 -2.06623,0 -4.10764,0.69096 -4.65421,1.57532 -0.18323,0.29648 -0.0473,0.29717 0.50308,0.003 0.97193,-0.52016 4.03147,-0.51907 5.52612,0.001 0.6399,0.22307 1.34287,0.7408 1.56215,1.15051 0.28269,0.52824 0.47856,0.61569 0.67327,0.30065 0.18847,-0.30495 0.85454,0.12054 2.12364,1.35672 1.57397,1.5331 1.91537,2.12058 2.29497,3.94912 0.24529,1.18146 0.36665,2.9735 0.26971,3.98234 -0.15492,1.61219 -0.11596,1.75171 0.32216,1.1526 0.27414,-0.37489 0.60342,-1.24139 0.73178,-1.92553 z m -11.37567,1.67158 c 0.25349,-0.41016 -2.17684,-2.86901 -2.83573,-2.86901 -0.32778,0 0.3341,2.15333 0.87421,2.84411 0.45368,0.58025 1.60923,0.59491 1.96152,0.025 z m 23.07857,-4.91083 c 1.21103,-1.02825 3.0276,-2.48903 4.03679,-3.2462 3.01678,-2.26337 11.05491,-9.70308 12.07683,-11.17771 1.60979,-2.32294 1.04224,-5.79683 -1.62003,-9.91589 -0.81403,-1.25945 -1.37903,-2.45336 -1.25558,-2.65311 0.33446,-0.54116 -1.16304,-2.49686 -3.32501,-4.34236 -3.13906,-2.67957 -3.05925,-2.14979 0.13606,0.90295 1.63836,1.56528 2.97885,3.0163 2.97885,3.22447 0,0.20817 -1.11472,-0.68914 -2.47713,-1.99402 -2.84887,-2.72855 -4.26014,-3.64113 -7.01283,-4.53473 -2.30049,-0.7468 -4.724,-0.61783 -6.78349,0.36101 -1.5619,0.74234 -2.66978,1.71588 -18.95684,16.65813 l -1.28444,1.17838 2.0184,-1.23923 c 2.75957,-1.69428 3.13362,-1.79217 3.84501,-1.0061 1.07262,1.18525 4.24752,2.32248 6.49971,2.32815 2.48435,0.007 5.55265,-1.35661 5.72707,-2.54383 0.23431,-1.59495 -2.06944,-3.46559 -5.10904,-4.14855 -1.35203,-0.30378 -1.91482,-0.22714 -3.73717,0.50894 -2.0299,0.81991 -2.1093,0.82662 -1.4744,0.12455 1.26904,-1.40327 3.25321,-2.13182 5.80593,-2.13182 2.61652,0 4.26348,0.53456 6.20164,2.01287 0.68466,0.52222 1.38659,0.92397 1.55982,0.89279 1.06623,-0.19195 1.83221,0.37219 4.55536,3.35504 2.39059,2.61858 2.84147,3.27618 2.12262,3.09576 -1.59368,-0.39999 -1.87117,0.49528 -0.842,2.71664 1.67597,3.6174 1.39925,4.23987 -5.48195,12.33123 -1.98969,2.33958 -1.7155,2.22396 1.79586,-0.75738 z m 5.32124,-10.80256 c -1.28352,-1.08043 -1.28375,-1.08121 -0.33212,-1.09107 0.96187,-0.01 2.16702,0.97004 2.16702,1.76218 0,0.66447 -0.43903,0.50389 -1.8349,-0.67111 z m -1.96158,-8.4313 c -1.58346,-1.33496 -3.04873,-2.75017 -3.25616,-3.1449 -0.20743,-0.39473 -0.97614,-1.25081 -1.70825,-1.90241 -1.30327,-1.15992 -1.31344,-1.1897 -0.48632,-1.42397 l 0.84478,-0.23927 -0.81701,-0.86966 -0.81701,-0.86966 1.25667,0.006 c 0.69116,0.003 1.49085,0.15384 1.77707,0.33502 0.33727,0.21346 0.82252,0.13149 1.3788,-0.23304 1.3404,-0.87826 4.97641,-0.49767 6.20423,0.64941 1.36793,1.27798 2.07634,2.82154 2.05354,4.47441 -0.0234,1.69851 -0.74182,2.91714 -2.24206,3.80336 -0.6011,0.35507 -1.14158,0.91485 -1.20108,1.24395 -0.08,0.44266 -0.85725,-0.0331 -2.9872,-1.82886 z m -5.6533,-3.18819 c -0.71915,-0.29018 -0.537,-0.8579 0.27524,-0.8579 0.40775,0 0.73396,0.24466 0.73396,0.55047 0,0.5655 -0.21061,0.62966 -1.0092,0.30743 z m -4.23978,-2.83708 c -0.15017,-0.38211 -0.18656,-0.78121 -0.0809,-0.88687 0.33472,-0.33472 0.62921,0.21378 0.48897,0.91068 -0.12858,0.63866 -0.14816,0.63751 -0.40806,-0.0239 z m 7.38207,-3.77624 c 0.2649,-0.10597 0.58144,-0.0929 0.70338,0.029 0.12192,0.12192 -0.0949,0.20869 -0.48167,0.19275 -0.42752,-0.0176 -0.51447,-0.10458 -0.22171,-0.22171 z m -15.09148,28.96703 c -0.0924,-0.35321 -0.16783,-0.0642 -0.16783,0.64222 0,0.70645 0.0755,0.99545 0.16783,0.64222 0.0924,-0.35322 0.0924,-0.93122 0,-1.28444 z m 7.69101,-5.8717 c -0.038,-3.8235 0.0846,-5.65545 0.41777,-6.23871 0.60581,-1.06057 0.32477,-1.03957 -1.66089,0.12414 -1.69376,0.99261 -1.92673,1.51191 -0.42132,0.93906 l 0.87661,-0.33357 -0.13024,3.31378 c -0.10527,2.6788 0.46257,7.60832 0.87651,7.60832 0.0524,0 0.0713,-2.43584 0.0416,-5.41298 z m 9.53326,-0.91743 c 0.15321,-0.45416 0.23414,-1.15603 0.17985,-1.55971 -0.14529,-1.08024 -1.77867,-3.32432 -3.21963,-4.42338 -1.51435,-1.15506 -1.89926,-0.94556 -3.36488,1.83146 -0.89906,1.70352 -0.98057,2.21058 -0.98057,6.09989 v 4.24192 l 3.55334,-2.68222 c 1.95434,-1.47522 3.67868,-3.0538 3.83189,-3.50796 z m -5.67731,2.67177 c 0.0698,-0.47913 0.33342,-0.93912 0.58571,-1.02222 0.66028,-0.21744 0.56552,0.83254 -0.12691,1.40727 -0.51138,0.42441 -0.56961,0.37553 -0.45873,-0.38505 z m 2.87936,-4.32378 c -1.51761,-0.75815 -1.77514,-2.03996 -0.44768,-2.22831 0.56492,-0.0802 1.19086,0.26033 1.92666,1.04802 0.59944,0.64169 1.08989,1.3144 1.08989,1.4949 0,0.52439 -1.1782,0.3801 -2.56887,-0.31461 z m -16.27179,5.47864 c -0.80385,-0.88823 -0.78189,-1.3912 0.0329,-0.75225 0.58397,0.45798 0.59587,0.44461 0.13122,-0.14743 -0.28107,-0.3581 -0.5835,-0.57861 -0.67207,-0.49003 -0.0886,0.0886 -0.84947,-0.15152 -1.69088,-0.53355 -1.65092,-0.74957 -4.09843,-0.93795 -4.46569,-0.34373 -0.12788,0.20682 0.1688,0.36698 0.67966,0.36698 1.2225,0 4.81494,1.40221 5.6331,2.19872 0.85446,0.83186 1.14882,0.58196 0.35184,-0.29871 z m 3.68847,-9.24078 c -2.84481,-0.36409 -3.1797,-0.80695 -0.42574,-0.56301 2.67355,0.23682 1.45297,-0.1537 -3.32165,-1.06277 -2.15869,-0.411 -3.60094,-0.5169 -4.16339,-0.30569 -0.72005,0.2704 -0.27069,0.47744 2.75236,1.2681 1.98712,0.5197 4.43863,0.94274 5.44785,0.94009 l 1.8349,-0.004 -2.12433,-0.27188 z m 2.9424,-0.95455 c -0.12192,-0.12192 -0.43848,-0.13495 -0.70339,-0.029 -0.29275,0.11721 -0.2058,0.20412 0.22172,0.22172 0.38685,0.016 0.6036,-0.0707 0.48167,-0.19274 z m 65.97267,-6.48982 c -3.95046,-2.08882 -7.6665,-4.5329 -12.2939,-8.08582 -16.56541,-12.71896 -29.53266,-29.05619 -37.9186,-47.7731 -1.23466,-2.75567 -0.89577,-1.28195 0.54854,2.3854 2.34027,5.94235 8.14529,16.21155 13.04892,23.08384 9.12308,12.78571 24.27443,25.63859 36.42949,30.90312 3.47448,1.50486 3.55921,1.27041 0.18555,-0.51344 z m -34.38496,-1.93379 c -0.19378,-1.65995 0.13107,-1.59695 1.00904,0.19566 0.5604,1.14421 0.83324,1.3825 1.26499,1.10481 0.44835,-0.28838 0.13121,-0.76042 -1.70943,-2.54475 -2.51758,-2.44049 -2.38744,-2.63742 -1.20012,1.81601 0.48009,1.80068 0.87139,1.44864 0.63552,-0.57173 z m 45.39443,0.59451 c -0.40368,-0.16199 -2.22025,-0.74494 -4.03681,-1.29544 -9.21187,-2.79164 -20.48502,-10.92283 -29.52596,-21.29675 -7.18016,-8.23878 -16.44811,-21.81371 -22.29879,-32.6614 -3.24252,-6.01194 -1.36211,-0.84704 2.48787,6.83337 6.90045,13.76587 16.57457,26.38046 26.74969,34.88027 9.08973,7.59314 21.03278,13.79709 26.624,13.83013 l 0.73395,0.004 -0.73395,-0.29452 z m -51.53015,-2.53121 c -0.41487,-0.81322 -0.93005,-1.58719 -1.14484,-1.71994 -0.2148,-0.13274 0.0713,0.58592 0.63588,1.59702 1.21018,2.16755 1.6001,2.26172 0.50896,0.12289 z m 2.01266,-0.90196 c -0.51841,-0.8846 -0.94256,-2.02494 -0.94256,-2.53411 0,-1.61083 -2.88357,-5.35852 -4.95425,-6.43887 -0.92047,-0.48024 -0.77007,-0.21686 0.91746,1.60669 1.4297,1.54494 2.43863,3.14023 3.4592,5.46968 1.56863,3.58039 2.12681,4.51268 2.33245,3.89575 0.0716,-0.21494 -0.2939,-1.11456 -0.8123,-1.99914 z m 13.32629,-1.32983 c 1.94138,-1.3961 3.86822,-2.92366 4.28185,-3.3946 l 0.75206,-0.85624 -4.56532,-4.40379 c -4.40447,-4.24862 -4.55815,-4.35853 -4.36137,-3.11935 0.11221,0.70644 0.33349,1.61471 0.49179,2.0184 0.24225,0.61773 0.0974,0.57413 -0.91439,-0.27524 -0.66122,-0.55505 -1.31339,-1.00578 -1.44929,-1.00159 -0.13593,0.004 -1.71322,1.32532 -3.50517,2.93586 -1.79194,1.61054 -3.3845,2.92825 -3.53903,2.92825 -0.15453,0 -1.07261,-1.15863 -2.04018,-2.57473 l -1.75923,-2.57472 1.44496,-1.48519 c 2.4486,-2.5168 3.64313,-3.07 6.62899,-3.07 h 2.63162 l -0.78848,-0.9842 c -5.83029,-7.27747 -8.52728,-10.56011 -8.6786,-10.5631 -0.10098,-0.001 -1.83491,1.56889 -3.85331,3.49084 -2.91026,2.77117 -3.32801,3.28377 -2.0184,2.47655 0.90827,-0.55983 2.68354,-1.82289 3.94505,-2.80679 1.2615,-0.98389 2.29365,-1.60424 2.29365,-1.37853 0,1.73182 -3.0201,5.68652 -5.22951,6.84784 -0.55506,0.29176 -1.00919,0.70805 -1.00919,0.92509 0,1.06692 6.59805,10.24893 9.24997,12.87251 2.92074,2.8895 7.43777,6.53105 8.1012,6.53105 0.19831,0 1.94895,-1.14225 3.89033,-2.53832 z m 37.84261,1.30078 c -4.26166,-1.64475 -6.85004,-3.00991 -11.37644,-6.00014 -10.95842,-7.23936 -22.38109,-18.35089 -30.66272,-29.82752 -8.25841,-11.44444 -12.14145,-19.24521 -13.76078,-27.64451 -0.22685,-1.17658 -0.49334,-2.05833 -0.59222,-1.95945 -0.36852,0.36851 1.0558,6.66299 2.26123,9.99303 2.44667,6.75906 7.82053,16.6311 12.41009,22.79801 7.89659,10.61048 16.38793,18.76454 26.4332,25.38323 7.16086,4.71819 14.87678,8.49539 17.30604,8.4719 0.827,-0.008 0.32475,-0.31022 -2.0184,-1.21455 z m -2.03001,-4.73937 c -5.43132,-2.80483 -8.50243,-4.84299 -13.01625,-8.63834 -4.97801,-4.18565 -14.55142,-13.7302 -19.54379,-19.48485 -9.07805,-10.46417 -16.04031,-22.50145 -17.95283,-31.03922 -0.65685,-2.93227 -0.65742,-2.93317 -0.46695,-0.74117 0.7001,8.05725 9.13231,23.45639 19.99855,36.52192 3.66338,4.40484 9.85619,10.51894 14.0222,13.844 5.62376,4.48856 13.53882,9.3021 18.06065,10.98361 3.85663,1.43415 3.45522,0.90725 -1.10158,-1.44595 z m -22.36441,-0.37391 c -2.173,-1.60394 -12.91856,-11.94625 -15.54635,-14.96296 -1.48065,-1.69979 -4.1032,-4.87176 -5.82789,-7.04883 -1.72469,-2.17706 -3.20898,-3.88512 -3.29843,-3.79567 -0.93033,0.93034 10.5515,14.57227 17.08461,20.29878 3.03177,2.65745 8.00099,6.3775 8.46144,6.33438 0.1197,-0.0111 -0.2733,-0.38279 -0.87338,-0.8257 z m 35.7272,0.51387 c 0.35391,-0.22415 0.0218,-0.39989 -1.10095,-0.58255 -2.69839,-0.43899 -8.03371,-2.84671 -11.51627,-5.19705 -15.30631,-10.33007 -43.46763,-42.4813 -47.14333,-53.8226 -0.24971,-0.77042 -0.53708,-1.31769 -0.63863,-1.21613 -0.50572,0.50572 3.03663,9.51427 6.15186,15.64477 7.03198,13.83836 18.32319,26.58218 31.19645,35.20987 4.84946,3.25012 9.06062,5.60351 13.553,7.57405 5.98216,2.62402 8.23348,3.19045 9.49787,2.38964 z m 31.05366,-4.18351 c -3.98096,-2.16272 -6.19868,-3.76244 -9.17456,-6.61795 l -2.93585,-2.81711 1.8349,0.69731 c 1.00921,0.38353 4.28446,1.79561 7.27836,3.13798 6.59723,2.95798 10.35086,4.48215 13.27265,5.38939 3.57516,1.11011 3.57199,0.75004 -0.006,-0.56659 -12.24849,-4.50846 -28.7399,-16.11584 -43.7878,-30.8198 -14.73843,-14.40154 -31.06952,-36.026793 -39.93477,-52.880671 -1.27403,-2.422082 -2.31941,-4.282629 -2.32309,-4.134551 -0.004,0.148078 0.82911,2.364105 1.85059,4.924514 1.0215,2.560405 2.2598,6.358925 2.75181,8.441145 0.49199,2.08224 1.22498,4.65533 1.62888,5.71798 0.98638,2.59518 0.93155,2.80698 -0.39922,1.54203 -1.71039,-1.6258 -4.75218,-6.09447 -7.29099,-10.71115 -1.24871,-2.2707 -2.3256,-4.128541 -2.3931,-4.128541 -0.0675,0 -0.0279,0.371571 0.0881,0.825711 0.46558,1.82358 -1.78476,-1.554881 -3.76501,-5.652454 -1.10688,-2.290371 -2.01346,-3.83404 -2.01463,-3.430362 -0.006,1.832571 0.80578,9.457976 1.28958,12.124436 1.07891,5.94622 4.1717,12.68524 10.33768,22.525233 6.99736,11.16672 13.68226,19.37154 26.33659,32.32458 6.87174,7.03394 10.24888,10.10393 14.32648,13.02345 6.94111,4.96977 17.63105,10.6001 22.35869,11.77618 l 1.07372,0.2671 -0.82843,-1.34041 c -0.45562,-0.73723 -0.69109,-1.33966 -0.52325,-1.33873 0.16784,0.001 1.57758,0.49664 3.13275,1.10159 2.98251,1.16016 5.63087,1.7241 8.36538,1.78135 l 1.65142,0.0345 -2.20189,-1.19622 z m -26.48151,-18.56299 c -2.7441,-2.20436 -5.87902,-5.54588 -5.20298,-5.54588 1.03545,0 3.17977,1.06751 4.53569,2.25802 1.20464,1.0577 3.47845,4.00288 3.47845,4.50552 0,0.5866 -1.22643,0.0554 -2.81116,-1.21766 z m 41.24489,19.18718 c -0.12192,-0.12192 -0.43847,-0.13496 -0.70337,-0.029 -0.29276,0.1172 -0.20581,0.2041 0.22171,0.22171 0.38686,0.016 0.6036,-0.0709 0.48166,-0.19275 z m -116.41228,-1.39032 c -1.06164,-1.39189 -3.65772,-2.6585 -6.0983,-2.97533 l -1.61347,-0.20945 1.86373,0.74916 c 1.02504,0.41204 2.92417,1.40098 4.22028,2.19766 1.29613,0.79667 2.40627,1.45626 2.46699,1.46576 0.0608,0.01 -0.31692,-0.54302 -0.83923,-1.2278 z m 128.80557,-1.14173 c 0.20184,-0.0682 -1.20186,-0.11373 -3.11935,-0.10111 -2.37098,0.0157 -3.01671,0.0982 -2.01839,0.25791 1.36391,0.21817 4.29348,0.12872 5.13774,-0.15687 z m -50.60227,-0.6624 c -6.19806,-3.91139 -20.49728,-16.06871 -29.40761,-25.0026 -8.37386,-8.396 -11.49969,-12.17158 -23.17391,-27.99094 -2.48963,-3.373613 -3.12365,-3.742613 -4.34024,-2.526 -0.50097,0.50096 -1.10949,1.65355 -1.35228,2.56132 -0.2428,0.90777 -0.57495,1.56797 -0.73813,1.46712 -1.52652,-0.94343 2.41229,6.7753 6.85745,13.43829 5.92576,8.88233 13.36019,17.31133 21.28697,24.13476 3.88112,3.34088 10.50946,7.99567 13.57834,9.53546 4.6248,2.32047 13.14788,4.80577 16.51419,4.81549 1.27799,0.004 1.3783,-0.0523 0.77522,-0.4329 z m -68.91733,-0.80412 c 1.27552,-1.07328 1.53486,-1.12865 1.53486,-0.32773 0,0.6986 0.45797,0.55933 2.59335,-0.78868 1.77009,-1.11741 1.49257,-1.62092 -0.89862,-1.63035 -1.54616,-0.006 -3.55767,1.03781 -4.44738,2.30803 -1.11375,1.59011 -0.43931,1.83308 1.21779,0.43873 z m -9.56286,-0.64222 c -0.29679,-0.45415 -0.90988,-1.55255 -1.36241,-2.4409 -0.55736,-1.09413 -0.91513,-1.46579 -1.10901,-1.15208 -0.45839,0.74169 0.006,1.83997 1.3411,3.17564 1.43293,1.43293 1.90893,1.60868 1.13032,0.41734 z m -2.68706,-1.91016 c -0.50562,-0.7717 -0.69287,-0.83751 -1.30511,-0.45873 -0.68179,0.42179 -0.66762,0.46265 0.30663,0.88441 1.49298,0.6463 1.65549,0.57702 0.99848,-0.42568 z m 53.23703,-5.06251 c -1.36943,-1.26149 -2.70726,-2.42167 -2.97295,-2.57816 -0.2657,-0.15649 -2.01784,-2.06335 -3.89366,-4.23747 -3.86257,-4.47684 -12.25733,-13.77622 -15.44479,-17.10913 l -2.1257,-2.22271 2.75888,4.03681 c 6.21771,9.09777 14.82788,18.19477 21.61251,22.83453 1.24626,0.85227 2.3311,1.55412 2.41074,1.55968 0.0796,0.006 -0.97561,-1.02204 -2.34503,-2.28355 z m 66.18491,-9.35804 c -0.50874,-0.55505 -1.40663,-1.79853 -1.99532,-2.76326 -0.80168,-1.31377 -2.95868,-3.24816 -8.59348,-7.70662 -10.11913,-8.00661 -14.99915,-12.32779 -23.50564,-20.81382 -10.61914,-10.593613 -17.93392,-19.117343 -25.67862,-29.922653 -3.98478,-5.559502 -4.7621,-6.486031 -4.7621,-5.676137 0,0.77816 -0.76782,-0.06977 -2.76618,-3.054535 -1.10253,-1.64678 -2.0033,-2.830462 -2.00172,-2.630426 0.0139,1.712136 2.44193,9.632126 3.80654,12.414858 2.55621,5.21266 8.54198,15.00116 10.55341,17.25793 0.99732,1.11897 4.32521,3.92726 7.39532,6.240663 6.63636,5.00066 13.87762,11.28377 15.06931,13.0754 0.46988,0.70644 1.66518,2.67831 2.65619,4.38193 3.27962,5.63788 9.01759,10.61943 17.55044,15.23684 3.00938,1.62848 3.36395,1.73664 4.42984,1.3512 1.73805,-0.62849 2.08995,-0.54459 4.3468,1.03634 1.93737,1.35712 3.88845,2.53279 4.25977,2.5668 0.0882,0.008 -0.25582,-0.43945 -0.76456,-0.99451 z m 24.8419,-3.89647 c 2.50626,-0.66744 3.38287,-1.15878 5.2161,-2.92367 1.89168,-1.82119 3.00448,-4.56432 3.21561,-7.92667 l 0.15127,-2.4096 -0.3482,1.90102 c -0.835,4.55908 -3.61419,8.51921 -7.06743,10.07055 -1.65419,0.74314 -2.47392,0.85825 -5.95504,0.83622 -3.64678,-0.023 -4.42611,-0.15669 -8.06624,-1.38301 -5.45151,-1.83655 -15.91227,-7.38819 -23.40248,-12.41997 -3.41655,-2.29515 -2.41512,-1.27421 1.47307,1.5018 7.13587,5.09471 15.31381,9.69598 20.27062,11.40515 5.29744,1.82662 10.79761,2.33756 14.51272,1.34818 z M 354.543,132.86381 c -0.19176,-0.16877 -2.24778,-1.60202 -4.56894,-3.18499 -10.49792,-7.15935 -18.196,-13.53207 -26.9944,-22.34684 -14.59232,-14.619473 -24.52458,-27.998343 -31.84461,-42.89509 -5.01542,-10.206699 -8.63866,-19.693285 -9.93941,-26.023876 -1.13819,-5.539533 -0.59453,-12.763475 1.10164,-14.637712 0.36068,-0.39856 0.45278,-0.699266 0.21417,-0.699266 -0.72088,0 -2.217,2.665171 -2.6599,4.738293 -0.25817,1.208371 -0.34938,3.650981 -0.23296,6.238687 0.30255,6.725129 1.76846,11.485018 6.9216,22.474661 3.48348,7.42893 2.06051,6.35098 -1.80986,-1.371041 -2.15305,-4.295695 -4.40688,-9.598546 -5.60219,-13.181022 -1.13171,-3.391817 -1.49108,-3.742108 -0.88416,-0.861866 0.69369,3.292104 2.7247,8.955649 5.07362,14.147927 12.23435,27.044152 43.76188,62.179305 68.49138,76.328735 2.70153,1.54573 3.42764,1.88393 2.73402,1.2734 z m -27.73579,-6.26103 c -2.91679,-4.03309 -20.62209,-22.6745 -22.33893,-23.52003 -0.5046,-0.24851 0.90898,1.42406 3.14131,3.71684 2.23231,2.29277 5.36281,5.65495 6.95668,7.47151 2.88709,3.29051 12.29749,13.02787 12.59041,13.02787 0.0847,0 -0.0725,-0.31329 -0.34947,-0.69619 z m 55.99451,-12.88216 c -0.91991,-5.19924 -2.80154,-10.47113 -6.2216,-17.431643 -13.32917,-27.127581 -43.15895,-59.009116 -65.28955,-69.780318 -3.66113,-1.781903 -11.2333,-4.344948 -13.79495,-4.66933 l -1.65142,-0.209135 1.46794,0.604948 c 8.391,3.458005 23.29466,13.310543 33.78143,22.332297 5.71859,4.919702 17.7959,17.369349 22.22813,22.913431 15.34174,19.190287 25.87316,37.41236 29.07953,50.31501 l 0.78472,3.15778 0.11624,-1.87335 c 0.0639,-1.03034 -0.16129,-3.4422 -0.50052,-5.35969 z m -30.67473,4.39207 c 2.3481,-1.2175 5.75555,-3.31706 7.5721,-4.6657 3.17195,-2.35489 12.09058,-10.6945 11.77476,-11.01031 -0.0841,-0.0841 -1.59934,1.09307 -3.36723,2.6159 -1.7679,1.52284 -5.49315,4.42709 -8.27834,6.45391 -4.44252,3.23288 -6.90053,4.86839 -12.05611,8.02182 -0.91201,0.55783 -1.08582,0.78742 -0.59943,0.7918 0.37674,0.003 2.60617,-0.98994 4.95425,-2.20742 z m -13.16238,0.24014 c 0,-0.0761 -0.289,-0.3652 -0.64223,-0.64221 -0.58205,-0.45648 -0.59503,-0.4435 -0.13856,0.13856 0.4794,0.61129 0.78078,0.80569 0.78078,0.50365 z m 7.80462,-2.15508 c 6.20207,-3.72115 9.98006,-6.69167 15.67817,-12.32724 l 5.69228,-5.629833 -4.58727,3.799153 c -8.01459,6.63758 -12.84362,10.21683 -18.46672,13.68745 -2.02546,1.25013 -2.72738,1.86179 -2.38538,2.07864 0.69684,0.44182 0.566,0.49353 4.06892,-1.60817 z m -3.83992,-3.48632 c 4.45974,-2.99015 10.81477,-8.37367 15.30186,-12.962673 l 3.30283,-3.37783 -4.0368,3.29565 c -5.08629,4.152463 -10.16497,7.922323 -15.70977,11.661243 -3.85708,2.60087 -4.26277,2.97359 -3.69143,3.39137 0.35306,0.25815 0.75368,0.46937 0.8903,0.46937 0.13662,0 1.91098,-1.11472 3.94301,-2.47713 z m -4.57681,-3.31978 c 4.71335,-3.39101 9.56345,-7.59011 15.26541,-13.216463 5.55576,-5.48208 5.49587,-5.54421 -0.56396,-0.58511 -3.62077,2.96309 -16.00694,12.359183 -18.5699,14.087063 -1.26757,0.85456 -1.31399,0.95162 -0.752,1.57262 0.75106,0.82989 1.0531,0.70843 4.62045,-1.85811 z m -4.05945,-4.22355 c 3.07395,-2.48366 8.49779,-6.771223 12.05298,-9.527943 8.24693,-6.39471 9.86673,-8.23495 9.86673,-11.20944 0,-0.60141 0.32669,-1.3515 0.75905,-1.74278 0.68724,-0.62194 0.84963,-0.636 1.71666,-0.14862 0.86978,0.48893 3.82793,3.69427 6.43005,6.96739 0.55861,0.70263 0.23952,0.039 -0.70906,-1.47483 -11.84769,-18.907098 -30.11357,-38.425786 -46.66273,-49.863201 -4.94477,-3.41742 -4.95516,-3.420028 -2.25169,-0.565182 3.732,3.940979 4.74591,5.688054 3.56078,6.135618 -0.25229,0.09529 -1.4587,0.08821 -2.68087,-0.01581 -2.60356,-0.221507 -3.71229,0.234614 -5.71398,2.350608 -1.92118,2.030915 -14.55557,17.930454 -15.44179,19.432512 -0.7224,1.224377 -0.72677,1.3252 -0.12566,2.899134 1.19647,3.132943 9.18977,15.103161 14.82118,22.195191 2.50452,3.15411 17.99302,19.083063 18.5554,19.083063 0.12872,0 2.74901,-2.03208 5.82296,-4.51571 z M 300.8803,49.342252 c 1.91543,-2.528272 4.70931,-5.968759 9.60746,-11.830939 l 1.06526,-1.274921 -0.79722,-0.797203 -0.7972,-0.797217 -0.91141,1.097951 c -2.80448,3.378487 -8.50828,11.158554 -10.50205,14.324966 -2.24331,3.562712 -6.16366,10.714542 -6.17942,11.272998 -0.004,0.153571 1.40463,-1.815996 3.13101,-4.376794 1.7264,-2.560784 4.14901,-5.989273 5.38357,-7.618841 z m -4.69798,-5.309439 c 1.78153,-2.703495 4.62097,-6.620561 6.30986,-8.704585 2.81996,-3.479712 3.01285,-3.820114 2.36205,-4.168422 -0.6255,-0.334744 -1.07204,0.105552 -3.80402,3.750347 -4.15872,5.548284 -6.24589,8.833161 -8.77361,13.808204 -2.41123,4.745797 -2.80418,6.156132 -0.72703,2.609483 0.76649,-1.308764 2.85122,-4.591519 4.63275,-7.295027 z m -1.48112,-6.234845 c 1.15738,-1.894016 2.92898,-4.70144 3.93688,-6.238687 l 1.83256,-2.795024 -1.6958,1.834915 c -2.1099,2.282992 -5.19369,6.886217 -6.89301,10.289338 -1.27989,2.563156 -3.20103,7.074172 -3.18593,7.480818 0.004,0.116648 0.88382,-1.439448 1.95442,-3.457852 1.0706,-2.018404 2.89351,-5.219478 4.05088,-7.113508 z M 36.93829,357.37509 c 0,-0.21376 0.165138,-0.28658 0.366991,-0.16183 0.201839,0.1247 0.366977,0.29963 0.366977,0.38863 0,0.089 -0.165138,0.16184 -0.366977,0.16184 -0.201853,0 -0.366991,-0.17489 -0.366991,-0.38864 z m -6.126561,-5.39133 c -6.46889,-6.43162 -11.699214,-14.23884 -14.994286,-22.38175 -1.733996,-4.28514 -3.473623,-10.49614 -3.455786,-12.33824 0.01706,-1.76114 0.50045,-0.60101 1.608332,3.85989 2.591104,10.43318 8.111468,20.16936 16.222797,28.61191 4.017958,4.18204 5.309661,5.82627 4.577093,5.82627 -0.197636,0 -1.978804,-1.61014 -3.95815,-3.57808 z m -8.55272,-35.48386 c 0,-0.31468 0.165138,-0.57213 0.366977,-0.57213 0.201839,0 0.366992,0.1554 0.366992,0.34532 0,0.18993 -0.165153,0.44739 -0.366992,0.57213 -0.201839,0.1247 -0.366977,-0.0306 -0.366977,-0.34532 z m -2.425924,-3.29781 c -0.306531,-0.7988 -0.01553,-2.15261 0.499077,-2.3221 0.611759,-0.20147 0.95997,0.7938 0.674993,1.92926 -0.253159,1.00867 -0.859855,1.21167 -1.17407,0.39284 z m 14.009461,-2.15266 c 0.13787,-0.36193 0.34301,-0.5656 0.455997,-0.45262 0.113042,0.11305 2.35e-4,0.40912 -0.250565,0.65806 -0.362442,0.35974 -0.404594,0.31759 -0.205432,-0.20544 z M 344.01805,144.08402 c -1.15647,-0.65358 -4.51589,-3.06695 -7.46538,-5.36305 -2.94949,-2.29609 -6.54468,-4.98232 -7.98933,-5.96939 -3.22298,-2.20213 -6.00524,-4.58173 -5.70641,-4.88055 0.1222,-0.1222 1.03036,0.35713 2.01802,1.06532 0.98764,0.70817 3.44714,2.39428 5.46555,3.74689 2.0184,1.35262 5.56328,3.93471 7.87752,5.73797 2.31424,1.80328 5.24551,3.93411 6.51392,4.73519 2.19991,1.38936 2.8451,2.12983 1.84751,2.12031 -0.2523,-0.003 -1.40494,-0.53911 -2.5614,-1.19269 z M 305.3984,123.25195 c -1.57683,-1.62034 -2.75677,-3.05625 -2.6221,-3.19092 0.26164,-0.26166 5.17476,4.41903 5.76762,5.49476 0.751,1.36268 -0.39248,0.52517 -3.14552,-2.30384 z m -9.25457,-21.73348 c -1.97169,-2.083353 -4.99055,-6.223943 -7.56681,-10.378393 -1.373,-2.21412 -3.80556,-5.5945 -5.40567,-7.51199 -1.60012,-1.91748 -3.50597,-4.61318 -4.23524,-5.99044 -2.57882,-4.870279 -0.46674,-3.108792 4.10257,3.42157 1.76536,2.523 4.61477,6.56898 6.33202,8.99106 6.76329,9.53921 8.49187,12.053353 8.49187,12.351033 0,0.6048 -0.60489,0.29409 -1.71874,-0.88284 z"
       id="path6168" /></g><metadata
     id="metadata182"><rdf:RDF><cc:Work
         rdf:about=""><cc:license
           rdf:resource="http://creativecommons.org/licenses/by-sa/4.0/" /><dc:creator><cc:Agent><dc:title>Jameela P</dc:title></cc:Agent></dc:creator><dc:publisher><cc:Agent><dc:title>OpenDataKerala.org</dc:title></cc:Agent></dc:publisher><dc:date>April 2026</dc:date><dc:title>Election Symbols of Kerala</dc:title></cc:Work><cc:License
         rdf:about="http://creativecommons.org/licenses/by-sa/4.0/"><cc:permits
           rdf:resource="http://creativecommons.org/ns#Reproduction" /><cc:permits
           rdf:resource="http://creativecommons.org/ns#Distribution" /><cc:requires
           rdf:resource="http://creativecommons.org/ns#Notice" /><cc:requires
           rdf:resource="http://creativecommons.org/ns#Attribution" /><cc:permits
           rdf:resource="http://creativecommons.org/ns#DerivativeWorks" /><cc:requires
           rdf:resource="http://creativecommons.org/ns#ShareAlike" /></cc:License></rdf:RDF></metadata></svg>
