<?xml version="1.0" encoding="UTF-8" standalone="no"?>
<!-- Created with Inkscape (http://www.inkscape.org/) -->

<svg
   width="1500"
   height="1500"
   viewBox="0 0 396.87499 396.875"
   version="1.1"
   id="svg5"
   xml:space="preserve"
   inkscape:version="1.3 (0e150ed6c4, 2023-07-21)"
   sodipodi:docname="Belt.svg"
   inkscape:export-filename="Electric Pole.png"
   inkscape:export-xdpi="96"
   inkscape:export-ydpi="96"
   xmlns:inkscape="http://www.inkscape.org/namespaces/inkscape"
   xmlns:sodipodi="http://sodipodi.sourceforge.net/DTD/sodipodi-0.dtd"
   xmlns="http://www.w3.org/2000/svg"
   xmlns:svg="http://www.w3.org/2000/svg"
   xmlns:rdf="http://www.w3.org/1999/02/22-rdf-syntax-ns#"
   xmlns:cc="http://creativecommons.org/ns#"
   xmlns:dc="http://purl.org/dc/elements/1.1/"><title
     id="title186">Election Symbols of Kerala</title><sodipodi:namedview
     id="namedview7"
     pagecolor="#ffffff"
     bordercolor="#000000"
     borderopacity="0.25"
     inkscape:showpageshadow="2"
     inkscape:pageopacity="0.0"
     inkscape:pagecheckerboard="0"
     inkscape:deskcolor="#d1d1d1"
     inkscape:document-units="mm"
     showgrid="false"
     inkscape:zoom="0.25"
     inkscape:cx="230"
     inkscape:cy="1082"
     inkscape:window-width="1920"
     inkscape:window-height="991"
     inkscape:window-x="-9"
     inkscape:window-y="-9"
     inkscape:window-maximized="1"
     inkscape:current-layer="layer1" /><defs
     id="defs2"><inkscape:path-effect
       effect="bspline"
       id="path-effect3248"
       is_visible="true"
       lpeversion="1"
       weight="33.333333"
       steps="2"
       helper_size="0"
       apply_no_weight="true"
       apply_with_weight="true"
       only_selected="false" /><inkscape:path-effect
       effect="bspline"
       id="path-effect577"
       is_visible="true"
       lpeversion="1"
       weight="33.333333"
       steps="2"
       helper_size="0"
       apply_no_weight="true"
       apply_with_weight="true"
       only_selected="false" /></defs><g
     inkscape:label="Layer 1"
     inkscape:groupmode="layer"
     id="layer1"><path
       style="fill:#000000;stroke-width:1.65495"
       d="m 160.28897,287.93166 c -4.10471,-1.53399 -5.90046,-4.687 -5.91471,-10.38515 -0.007,-2.69267 -0.17365,-3.89265 -0.55695,-4.00375 -0.30104,-0.0872 -3.99558,-0.47932 -8.21009,-0.87127 C 105.29295,268.92237 63.91391,258.48526 43.430461,246.89928 35.896076,242.63762 23.969705,234.19593 19.055435,229.64616 16.139862,226.94685 13.131265,222.61145 11.684294,219.02432 9.1134633,212.65111 8.4533539,205.85091 8.3872884,185.05984 L 8.33433,168.42072 9.7622031,165.40567 c 3.8205979,-8.0674 12.0891849,-14.75731 28.1284669,-22.75809 9.230377,-4.60432 14.505807,-6.75929 25.411322,-10.38032 52.488578,-17.4281 133.844848,-25.35503 199.435838,-19.43201 24.03004,2.16997 41.99681,4.99414 59.65132,9.37647 25.92561,6.43547 46.33768,15.64783 57.12212,25.78028 3.92195,3.68484 6.13857,6.79817 7.35269,10.32703 0.68692,1.9966 0.83494,4.52549 1.09364,18.68475 0.52664,28.82462 -0.2941,31.98481 -11.14557,42.91545 -8.22142,8.2814 -18.69246,15.65085 -32.75469,23.05256 -4.14838,2.18352 -4.83607,2.68815 -4.28579,3.14483 0.3605,0.2992 1.09181,1.65904 1.6251,3.02187 2.07792,5.31003 1.04766,12.0782 -3.03294,19.92472 -5.17074,9.94272 -14.39687,12.20508 -38.84464,9.52514 -21.06925,-2.30958 -39.87359,-3.53479 -54.35684,-3.54167 l -8.81816,-0.005 -0.30423,1.62167 c -0.6919,3.68815 -3.21151,6.67029 -6.41101,7.58789 -2.24906,0.64503 -45.48194,3.53502 -61.4713,4.10917 -4.77194,0.17135 -6.5154,0.0761 -7.86865,-0.42956 z m 19.91012,-2.39709 c 5.17784,-0.25341 13.35509,-0.74121 18.17168,-1.08401 4.81658,-0.34281 13.28941,-0.93485 18.82849,-1.31565 11.41879,-0.78503 12.7196,-1.03193 14.33793,-2.7215 2.42799,-2.53488 2.58883,-3.57835 2.25271,-14.61472 -0.16842,-5.53012 -0.42345,-10.10511 -0.56674,-10.16665 -0.14331,-0.0616 -2.92058,0.0935 -6.1718,0.34453 l -5.91126,0.45637 -0.10989,6.34914 c -0.12048,6.96565 -0.37388,7.87058 -2.58625,9.23789 -1.69031,1.04467 -3.85226,1.23503 -29.36658,2.58556 -15.62442,0.82703 -17.29405,0.8476 -18.49268,0.22776 -2.43489,-1.25914 -2.49172,-1.63441 -3.09734,-20.45422 -0.51684,-16.06113 -0.50386,-17.46393 0.17106,-18.49399 1.58006,-2.41147 0.99295,-2.34415 25.45788,-2.91895 21.09091,-0.49552 22.87392,-0.48079 24.18828,0.19984 2.36427,1.22433 2.72393,2.21328 3.03468,8.34463 l 0.28256,5.57517 3.76211,-0.26474 c 2.06915,-0.14563 4.82008,-0.37486 6.11314,-0.50944 l 2.35103,-0.24469 -0.30719,-9.48568 c -0.24275,-7.49583 -0.46037,-9.80125 -1.03742,-10.98999 -0.8807,-1.81428 -2.46473,-3.03997 -4.48602,-3.47123 -0.82426,-0.17586 -9.18331,-0.18064 -18.57567,-0.01 -9.39235,0.17001 -21.80602,0.34467 -27.58593,0.38815 -5.77991,0.0435 -12.997,0.21653 -16.038,0.38458 -5.17035,0.28572 -5.63504,0.38636 -7.16188,1.55093 -3.03214,2.31274 -3.01596,2.15461 -2.24204,21.89677 0.37834,9.65084 0.80232,21.19225 0.9422,25.64759 0.34495,10.98723 1.13554,12.91029 5.73515,13.95039 1.74,0.39346 2.26737,0.38201 18.10777,-0.39322 z m 143.58607,-8.78902 c 3.77825,-0.63754 7.91503,-2.61838 9.68998,-4.63995 0.78269,-0.89144 1.93205,-2.71352 2.55413,-4.04908 0.96358,-2.06875 1.1322,-3.04414 1.13895,-6.58805 0.007,-3.59925 -0.14911,-4.49464 -1.15701,-6.64477 -3.02917,-6.46178 -10.48542,-11.48241 -23.19236,-15.61642 -17.95542,-5.84153 -39.99109,-9.02004 -66.37,-9.57349 l -11.91035,-0.24989 0.2334,7.83219 c 0.12842,4.3077 0.30947,8.07848 0.40247,8.37954 0.093,0.30103 0.74888,0.54734 1.45751,0.54734 0.91227,0 1.63309,0.40958 2.46892,1.40291 1.63643,1.94478 1.36401,4.79361 -0.62862,6.57404 -0.74997,0.67009 -1.65602,1.21834 -2.01348,1.21834 -0.75409,0 -0.80546,1.56621 -0.36615,11.16574 l 0.28053,6.13021 12.08774,0.0665 c 13.08087,0.072 24.03103,0.777 43.17664,2.78001 16.21431,1.69636 14.83843,1.59383 22.51453,1.67753 3.71312,0.0405 8.04806,-0.14514 9.63317,-0.4127 z m -31.3312,-18.76043 c -5.17681,-1.23057 -6.35934,-6.95799 -1.91801,-9.28968 3.19785,-1.67886 7.99792,-0.4542 9.34482,2.3842 0.90726,1.9119 0.90857,2.22388 0.0172,4.10227 -1.09018,2.29739 -4.37234,3.53335 -7.44402,2.80321 z m 3.54104,-2.39084 c 2.14988,-0.89829 2.75294,-2.2392 1.66591,-3.70421 -1.27638,-1.72018 -3.73355,-2.20316 -5.74082,-1.12839 -2.59819,1.39115 -2.33144,3.57096 0.59295,4.84547 1.66989,0.72778 1.70966,0.72764 3.48196,-0.0132 z m -38.10938,-0.68025 c -1.36852,-0.55363 -3.24833,-3.00079 -3.24833,-4.22876 0,-2.82556 3.06548,-5.38567 6.47606,-5.40844 3.06104,-0.0203 6.22223,2.6442 6.22223,5.24485 0,1.48345 -1.22917,3.43681 -2.6129,4.15236 -1.3725,0.70975 -5.33226,0.84874 -6.83706,0.23999 z m 5.26706,-2.1942 c 0.6207,-0.23599 1.35214,-0.9198 1.62542,-1.51959 0.60624,-1.33056 -0.0311,-2.27504 -2.12661,-3.15094 -1.90277,-0.79537 -4.43632,0.0214 -5.37141,1.73167 -0.64515,1.17995 -0.62264,1.27297 0.55621,2.29883 1.31765,1.14663 3.34268,1.39042 5.31639,0.64003 z m -70.03637,19.2645 c 23.88031,-1.26131 23.35455,-1.20916 24.584,-2.4386 0.95143,-0.95143 1.0315,-1.38567 1.0315,-5.59432 0,-2.50955 -0.12313,-5.17859 -0.27367,-5.93118 -0.26146,-1.30727 -0.36864,-1.36836 -2.40139,-1.36836 -1.70854,0 -2.39635,-0.24001 -3.49128,-1.21834 -1.8437,-1.64733 -2.24262,-4.57087 -0.8624,-6.31985 1.07536,-1.36267 3.13669,-2.06468 5.18138,-1.76457 1.38493,0.20326 1.40949,0.17665 1.40949,-1.52705 0,-0.95367 -0.12876,-3.54817 -0.28617,-5.76556 -0.41538,-5.85189 0.95152,-5.50961 -19.60046,-4.90789 -9.17162,0.26853 -19.05228,0.4876 -21.95704,0.48682 -4.77087,-0.001 -5.37733,0.088 -6.27419,0.92356 -1.09952,1.02437 -1.09982,1.23337 -0.0372,25.78523 l 0.38852,8.97637 1.18936,1.0291 c 0.94089,0.81412 1.51666,0.97766 2.75593,0.78286 0.86162,-0.13538 9.25122,-0.65215 18.64358,-1.14822 z m -4.85373,-13.32762 c -3.43915,-1.4974 -4.35511,-5.52875 -1.8933,-8.33263 2.585,-2.94414 7.00275,-3.01333 9.67606,-0.1516 2.29803,2.46005 1.38129,6.59036 -1.82594,8.22656 -1.98382,1.01208 -4.02166,1.10021 -5.95682,0.25764 z m 5.79225,-2.93955 c 2.26171,-2.12476 0.49574,-5.19548 -2.98791,-5.19548 -2.16411,0 -3.86189,1.53405 -3.86189,3.48951 0,2.8309 4.4679,3.94364 6.8498,1.70597 z m -40.12805,14.10014 c 0,-3.58713 -1.38595,-37.46666 -1.53895,-37.61966 -0.098,-0.098 -3.88031,-0.53387 -8.40537,-0.96882 C 104.97643,227.4795 69.193146,219.27431 43.760111,208.24759 27.587059,201.23564 16.379648,193.15088 11.851427,185.22944 l -1.098174,-1.92108 -0.005,8.97905 c -0.01159,18.96078 2.393552,28.27798 8.955721,34.69969 2.367288,2.31661 8.386022,7.04249 14.465145,11.35793 3.769708,2.67605 13.411091,8.31663 17.295934,10.11879 20.367436,9.44838 57.124697,18.10796 92.262507,21.73598 10.87928,1.12328 10.1995,1.14878 10.1995,-0.3825 z m 186.00623,-15.46425 c -0.38944,-7.06607 -3.86675,-11.2446 -13.19355,-15.85404 -14.70071,-7.26534 -34.90528,-11.62365 -65.09621,-14.04186 -8.25685,-0.66135 -28.46849,-1.40098 -28.45509,-1.0413 0.003,0.0971 0.2807,0.96487 0.61569,1.9282 l 0.60911,1.75148 8.68909,0.0902 c 43.39745,0.45059 82.19653,9.77649 92.13632,22.14624 2.06096,2.56482 3.89745,6.16276 3.90391,7.64829 0.002,0.54187 0.22603,0.98521 0.49706,0.98521 0.34138,0 0.43161,-1.10976 0.29367,-3.61244 z m -112.6627,-0.76412 c 3.85327,-0.24715 7.6554,-0.55643 8.44918,-0.68725 1.67067,-0.27537 2.5438,-1.70192 2.10696,-3.4424 -0.35,-1.39459 -0.5669,-1.40189 -13.18337,-0.44394 -11.81689,0.89724 -11.16574,0.7469 -11.16574,2.57808 0,2.36337 0.9754,3.00187 4.12465,2.70005 1.4643,-0.14034 5.81504,-0.45738 9.66832,-0.70454 z m 114.50027,-12.04202 c 7.54607,-3.78987 17.8002,-10.20241 24.08616,-15.06258 11.12354,-8.60051 16.8295,-15.32761 18.79459,-22.15813 0.76728,-2.66701 1.39716,-16.71635 1.07462,-23.96984 l -0.28702,-6.45498 -1.581,2.71817 c -1.84595,3.17368 -6.92033,8.67609 -11.04427,11.97584 -16.5494,13.2419 -49.61393,26.32475 -85.11705,33.67878 -4.69622,0.97276 -6.64505,1.53419 -5.91126,1.70294 0.60207,0.13852 4.03256,0.76034 7.62332,1.38192 15.82258,2.73896 28.63013,6.36935 37.6964,10.68534 4.29168,2.04305 9.70899,5.71311 10.15723,6.88123 0.12462,0.32457 0.30784,0.59014 0.4073,0.59014 0.0995,0 1.9449,-0.88598 4.10098,-1.96883 z m -188.95482,-13.6851 c 0.165,-0.90311 0.56287,-2.05068 0.88408,-2.55018 0.57661,-0.89662 0.50251,-0.91505 -5.83419,-1.45099 -30.96386,-2.61884 -64.150628,-9.1964 -87.424501,-17.32741 -17.999536,-6.28834 -30.103847,-13.40295 -37.45071,-22.01257 -2.839412,-3.32744 -4.339275,-6.41818 -4.912864,-10.1239 -0.426199,-2.75347 -0.375789,-3.36246 0.498934,-6.02705 2.306717,-7.02673 8.934985,-12.67819 22.937042,-19.55682 32.866916,-16.14616 77.459059,-25.87602 136.934059,-29.87855 10.68665,-0.7192 43.96791,-1.55744 51.23099,-1.29037 2.28788,0.0841 7.50951,0.26772 11.6036,0.40798 9.99619,0.34244 22.97863,1.35657 34.20064,2.67161 35.69244,4.18255 64.45661,11.70496 83.23751,21.76829 9.32461,4.99638 15.70876,10.79341 17.687,16.06041 1.27694,3.3998 1.03858,8.03092 -0.59447,11.55035 -5.96148,12.8477 -28.96674,26.68542 -61.40608,36.93594 -17.76273,5.61284 -39.10602,10.50619 -56.8967,13.04464 -4.32029,0.61643 -7.94915,1.21488 -8.06415,1.32986 -0.11502,0.11502 1.35085,0.20682 3.25742,0.20406 1.90656,-0.003 7.50585,0.30785 12.44284,0.69026 l 8.97638,0.69529 10.28999,-2.19931 c 28.46608,-6.08412 53.32357,-14.44444 71.3731,-24.00491 10.20461,-5.40518 19.97886,-12.88381 24.13471,-18.46636 3.60585,-4.84373 5.26787,-8.72953 5.52172,-12.90976 0.26744,-4.40419 -0.6447,-7.32846 -3.56039,-11.41445 -3.75609,-5.26366 -9.92373,-9.87249 -20.62264,-15.41047 -24.61707,-12.74226 -62.86723,-21.29397 -108.37327,-24.22938 -66.10501,-4.26418 -141.44123,3.93381 -190.816357,20.76438 -20.815299,7.09533 -38.99956,17.03378 -46.270113,25.28848 -1.117819,1.26913 -2.762109,3.7751 -3.653978,5.56884 -1.535064,3.0873 -1.62079,3.48449 -1.606359,7.44381 0.01688,4.61419 0.742939,6.89882 3.575136,11.24845 2.160469,3.31797 8.042322,8.97151 12.390335,11.90937 13.769421,9.30368 40.001913,18.95329 67.421946,24.80113 17.21223,3.67083 46.2322,7.88494 55.46343,8.05407 l 3.12586,0.0573 z m 5.3268,-6.54357 c 1.50308,-0.65758 5.42246,-0.80518 34.53587,-1.30054 31.98852,-0.5443 36.22088,-0.46316 37.64861,0.72174 1.24121,1.03012 31.22011,-3.22392 49.30494,-6.99643 30.94712,-6.45559 58.43983,-16.24021 75.21238,-26.76798 4.89713,-3.07382 9.20183,-6.16477 9.23609,-6.63186 0.0404,-0.55011 -4.99399,-3.63323 -10.44144,-6.39454 -14.20867,-7.20235 -35.66048,-14.11248 -56.51732,-18.20553 -30.28056,-5.94241 -69.68184,-8.39504 -109.25984,-6.80117 -32.29879,1.30072 -63.90781,5.49643 -89.298016,11.85318 -16.476305,4.12506 -31.083179,9.48273 -43.510139,15.95912 -8.122272,4.23296 -13.572498,7.91519 -19.233482,12.99428 l -1.851622,1.66128 1.632673,1.02064 c 7.267276,4.543 13.49119,7.53457 22.861973,10.98873 23.077117,8.50645 56.365263,15.28176 89.114403,18.13794 6.90931,0.60258 8.73597,0.56129 10.56492,-0.23886 z M 35.225789,187.1228 c 7.92161,-6.96242 15.298345,-11.33307 30.417376,-18.02208 18.859332,-8.34379 51.537985,-16.02536 82.810225,-19.46572 23.77057,-2.61507 33.71671,-3.09939 63.71034,-3.10232 30.26975,-0.003 39.97637,0.5324 63.92929,3.52594 33.65452,4.206 67.75725,14.48821 85.9254,25.90711 l 4.24353,2.66713 2.75303,-2.92375 c 1.51416,-1.60808 3.44267,-4.20136 4.28557,-5.76289 1.39044,-2.57583 1.53185,-3.16397 1.52497,-6.3421 -0.01,-4.28012 -0.76657,-5.91404 -4.68043,-10.09795 -13.33708,-14.25739 -52.04436,-26.2782 -100.68222,-31.26754 -20.27922,-2.08025 -58.46439,-2.81412 -82.0389,-1.57665 -54.64202,2.86824 -97.73124,10.79048 -131.580467,24.19192 -7.11244,2.81593 -20.160766,9.26838 -24.289201,12.01112 -10.367658,6.88779 -13.6265,14.03872 -9.877909,21.6752 1.096536,2.23378 2.530152,4.06776 5.524252,7.06696 2.223887,2.22768 4.290438,4.05032 4.592334,4.05032 0.301895,0 1.846657,-1.14062 3.43281,-2.5347 z"
       id="path7" /></g><metadata
     id="metadata182"><rdf:RDF><cc:Work
         rdf:about=""><cc:license
           rdf:resource="http://creativecommons.org/licenses/by-sa/4.0/" /><dc:publisher><cc:Agent><dc:title>OpenDataKerala.org</dc:title></cc:Agent></dc:publisher><dc:date>April 2026</dc:date><dc:title>Election Symbols of Kerala</dc:title><dc:creator><cc:Agent><dc:title>Manoj Karingamadathil</dc:title></cc:Agent></dc:creator></cc:Work><cc:License
         rdf:about="http://creativecommons.org/licenses/by-sa/4.0/"><cc:permits
           rdf:resource="http://creativecommons.org/ns#Reproduction" /><cc:permits
           rdf:resource="http://creativecommons.org/ns#Distribution" /><cc:requires
           rdf:resource="http://creativecommons.org/ns#Notice" /><cc:requires
           rdf:resource="http://creativecommons.org/ns#Attribution" /><cc:permits
           rdf:resource="http://creativecommons.org/ns#DerivativeWorks" /><cc:requires
           rdf:resource="http://creativecommons.org/ns#ShareAlike" /></cc:License></rdf:RDF></metadata></svg>
