<?xml version="1.0" encoding="UTF-8" standalone="no"?>
<!-- Created with Inkscape (http://www.inkscape.org/) -->

<svg
   width="1500"
   height="1500"
   viewBox="0 0 396.87499 396.875"
   version="1.1"
   id="svg5"
   xml:space="preserve"
   inkscape:version="1.3 (0e150ed6c4, 2023-07-21)"
   sodipodi:docname="Black Board.svg"
   inkscape:export-filename="Water melon.png"
   inkscape:export-xdpi="96"
   inkscape:export-ydpi="96"
   xmlns:inkscape="http://www.inkscape.org/namespaces/inkscape"
   xmlns:sodipodi="http://sodipodi.sourceforge.net/DTD/sodipodi-0.dtd"
   xmlns="http://www.w3.org/2000/svg"
   xmlns:svg="http://www.w3.org/2000/svg"
   xmlns:rdf="http://www.w3.org/1999/02/22-rdf-syntax-ns#"
   xmlns:cc="http://creativecommons.org/ns#"
   xmlns:dc="http://purl.org/dc/elements/1.1/"><title
     id="title186">Election Symbols of Kerala</title><sodipodi:namedview
     id="namedview7"
     pagecolor="#ffffff"
     bordercolor="#000000"
     borderopacity="0.25"
     inkscape:showpageshadow="2"
     inkscape:pageopacity="0.0"
     inkscape:pagecheckerboard="0"
     inkscape:deskcolor="#d1d1d1"
     inkscape:document-units="mm"
     showgrid="false"
     inkscape:zoom="0.25"
     inkscape:cx="230"
     inkscape:cy="1078"
     inkscape:window-width="1920"
     inkscape:window-height="991"
     inkscape:window-x="-9"
     inkscape:window-y="-9"
     inkscape:window-maximized="1"
     inkscape:current-layer="layer1" /><defs
     id="defs2"><inkscape:path-effect
       effect="bspline"
       id="path-effect3248"
       is_visible="true"
       lpeversion="1"
       weight="33.333333"
       steps="2"
       helper_size="0"
       apply_no_weight="true"
       apply_with_weight="true"
       only_selected="false" /><inkscape:path-effect
       effect="bspline"
       id="path-effect577"
       is_visible="true"
       lpeversion="1"
       weight="33.333333"
       steps="2"
       helper_size="0"
       apply_no_weight="true"
       apply_with_weight="true"
       only_selected="false" /></defs><g
     inkscape:label="Layer 1"
     inkscape:groupmode="layer"
     id="layer1"><path
       style="fill:#000000;stroke-width:1.64396"
       d="m 295.6473,383.55931 c -2.61116,-0.37042 -5.77049,-1.70832 -6.81375,-2.88546 -0.52294,-0.59007 -2.26396,-8.36968 -5.78164,-25.83477 -2.76836,-13.74477 -5.22825,-26.067 -5.46644,-27.38277 -0.23819,-1.31576 -1.10555,-5.71978 -1.92744,-9.78669 -0.8219,-4.06692 -3.85806,-19.43202 -6.74703,-34.14469 -2.88896,-14.71266 -6.31199,-32.13299 -7.60674,-38.71181 -5.38624,-27.36821 -8.05527,-41.22527 -8.32191,-43.20562 -0.20135,-1.49556 -0.71744,-2.62156 -1.78981,-3.90511 -1.70774,-2.04403 -2.15411,-3.04233 -2.8085,-6.28112 -0.46084,-2.28093 -0.46332,-2.28356 -2.14118,-2.28356 -1.98224,0 -1.9388,-0.30667 -0.83656,5.90467 0.46379,2.61357 1.24512,7.49221 1.73627,10.84145 0.49115,3.34922 1.18796,7.75323 1.54844,9.78669 1.21469,6.85168 0.6203,9.40647 -2.74745,11.80907 -4.31334,3.07721 -12.53879,2.87295 -15.42686,-0.38309 -0.80112,-0.90316 -1.2018,-3.14483 -4.92997,-27.58092 l -1.63522,-10.71788 -12.20363,-0.27524 c -6.71199,-0.15141 -20.52231,-0.46411 -30.68961,-0.69495 -10.16728,-0.23083 -21.81344,-0.44257 -25.88035,-0.47051 l -7.3944,-0.0508 -0.56416,1.67693 c -0.31028,0.92231 -1.1235,2.37625 -1.80714,3.23096 -0.96199,1.20272 -1.35738,2.33353 -1.749,5.00209 -0.27831,1.89644 -1.47713,9.41795 -2.66404,16.71448 -2.61468,16.07369 -5.44859,33.57242 -11.6934,72.20405 -1.21816,7.53574 -2.79041,17.22458 -3.49389,21.53072 -0.70348,4.30615 -1.66092,10.27603 -2.12768,13.26641 -0.46673,2.99037 -1.264,7.9816 -1.77171,11.09159 -0.5077,3.10999 -1.49996,9.27561 -2.20504,13.70136 -0.70506,4.42577 -2.1759,13.52739 -3.2685,20.22585 l -1.98656,12.17899 -1.54807,1.59589 c -0.85146,0.87776 -2.72621,2.12462 -4.16616,2.77083 -2.29876,1.03162 -3.02361,1.15143 -5.94353,0.98239 -2.60012,-0.15058 -3.826466,-0.46517 -5.62231,-1.4426 -3.054558,-1.66249 -4.846737,-3.73453 -4.846737,-5.60355 0,-0.79713 1.164531,-8.47287 2.587838,-17.05721 1.423324,-8.58436 4.159529,-25.19887 6.080479,-36.92117 1.92093,-11.72229 4.48576,-27.28312 5.69961,-34.57965 1.21385,-7.29651 2.87023,-17.37681 3.68084,-22.40065 0.81062,-5.02384 3.73325,-22.76917 6.49474,-39.43405 l 5.02088,-30.29981 -1.36246,-1.45258 c -1.57839,-1.68279 -2.53622,-3.73791 -2.54571,-5.46203 -0.0131,-2.42285 0.54744,-2.33504 -17.65602,-2.76451 -9.304333,-0.21952 -17.759594,-0.51145 -18.789485,-0.64876 -2.535051,-0.33796 -5.518721,-3.13792 -5.995338,-5.6262 -0.29468,-1.53843 0.428235,-15.73925 1.561071,-30.66498 0.208799,-2.75115 0.888971,-11.95063 1.511505,-20.44331 0.622518,-8.49267 1.423126,-18.96445 1.779142,-23.27058 0.356016,-4.30616 0.929067,-11.74404 1.273444,-16.528648 3.32157,-46.147715 3.235262,-45.22833 4.440744,-47.297779 0.454374,-0.780009 1.619366,-1.857477 2.588875,-2.394377 l 1.762751,-0.976167 28.879991,-0.256293 c 15.884,-0.140887 29.09471,-0.320194 29.35715,-0.398282 0.26242,-0.07809 0.60098,-1.382948 0.75234,-2.899698 0.15141,-1.516733 0.84615,-7.136903 1.54399,-12.489223 1.37162,-10.520057 1.55543,-11.058947 4.44342,-13.026766 1.38903,-0.94646 1.82473,-1.001237 6.91943,-0.869934 6.13792,0.158149 7.15887,0.57897 9.60789,3.959756 1.14674,1.583034 1.26621,2.075777 1.26621,5.222348 v 3.474393 l 23.81429,-0.325866 c 13.09786,-0.179224 24.30362,-0.376943 24.9017,-0.439381 0.59808,-0.06247 2.58426,-0.138585 4.41374,-0.169048 l 3.32634,-0.05557 0.15338,-3.588467 c 0.18258,-4.271499 1.04935,-5.824317 4.06641,-7.284843 1.73147,-0.838189 2.52598,-0.927538 7.10071,-0.798521 4.90044,0.138257 5.23096,0.206268 6.79277,1.398763 0.90295,0.689427 1.94112,1.961687 2.30707,2.827265 0.51449,1.216875 2.6422,19.961889 2.71194,23.891807 0.008,0.467262 5.44693,0.513737 30.21692,0.258282 27.97886,-0.288564 30.3514,-0.256326 32.16707,0.437079 2.33191,0.890566 4.39855,3.096052 5.0233,5.36082 0.24857,0.90107 1.04074,15.535431 1.76037,32.520789 0.71964,16.985337 1.50047,35.384331 1.73521,40.886631 0.23473,5.5023 0.72732,17.05059 1.09463,25.66288 0.36731,8.61229 0.85993,19.7782 1.0947,24.81314 0.68155,14.617 0.589,19.18815 -0.42159,20.82333 -0.97421,1.57631 -3.55405,3.16006 -5.45854,3.35098 -1.93455,0.19393 -39.28104,-0.47473 -41.40734,-0.74138 l -1.82558,-0.22892 -0.49301,1.87179 c -0.27115,1.02948 -0.86872,2.51913 -1.32791,3.3103 -0.45919,0.79117 -0.83488,1.79643 -0.83488,2.23392 0,1.02385 8.15228,41.38732 16.69659,82.66797 5.50646,26.60362 12.84876,62.24296 18.61897,90.3759 1.08119,5.27144 0.83757,6.69338 -1.64335,9.5918 -2.2613,2.64181 -3.94451,3.41267 -9.09675,4.16607 -0.47846,0.0699 -1.8594,-0.0131 -3.06878,-0.18472 z m -190.39003,-3.29665 1.29639,-0.25927 1.173,-7.24386 c 1.31647,-8.12989 2.26645,-14.09922 5.4445,-34.21163 1.20966,-7.65537 3.08604,-19.39941 4.16972,-26.09785 1.0837,-6.69844 2.3628,-14.72354 2.84244,-17.83354 0.47964,-3.10999 1.54466,-9.76493 2.36673,-14.78877 0.82204,-5.02384 2.48334,-15.39774 3.69175,-23.05311 1.20841,-7.65536 2.97144,-18.71432 3.91784,-24.57547 2.01575,-12.48366 4.69968,-29.48292 5.04758,-31.96987 0.13381,-0.95692 0.33653,-2.07106 0.45041,-2.47587 0.18517,-0.65834 -0.36805,-0.75016 -5.2415,-0.86993 l -5.44854,-0.13399 -0.2128,1.0874 c -0.27234,1.39171 -10.68969,64.52813 -12.45176,75.46629 -0.73223,4.54538 -1.90051,11.5918 -2.59617,15.65871 -0.69567,4.06691 -2.15735,12.87495 -3.24818,19.57339 -3.71017,22.78297 -6.32989,38.68573 -8.711293,52.88132 -1.307375,7.79324 -2.37705,14.37603 -2.37705,14.62844 0,0.85691 2.740036,3.14268 4.527414,3.77678 1.988159,0.70536 3.439669,0.82473 5.359519,0.44075 z m 197.28223,-0.63069 c 0.9858,-0.4634 1.17065,-0.78042 0.9847,-1.68885 -0.90375,-4.41523 -6.42854,-30.89585 -8.71836,-41.78752 -3.26181,-15.51506 -4.53995,-21.69467 -9.58135,-46.32368 -10.64165,-51.98824 -16.56135,-81.05304 -17.5141,-85.99136 l -0.72989,-3.78312 -5.55495,-0.13151 c -3.05523,-0.0723 -5.55461,0.0378 -5.5542,0.2449 4.3e-4,0.20705 0.7936,4.41533 1.76262,9.35173 3.24942,16.55333 6.4251,32.77331 9.76234,49.8619 4.37461,22.40048 8.85611,45.04033 16.95362,85.64725 5.51358,27.64918 6.80994,33.53406 7.47366,33.92721 2.74492,1.62596 7.98821,1.95529 10.71591,0.6731 z m -191.67191,-2.39673 c 0.40858,-0.62355 1.23513,-4.34556 1.95263,-8.79271 0.68428,-4.2413 2.02327,-12.50693 2.97552,-18.36807 0.95223,-5.86114 2.5292,-15.64785 3.50435,-21.74822 0.97514,-6.10037 2.82318,-17.55081 4.10675,-25.4454 11.35021,-69.8096 17.21998,-106.47351 17.0701,-106.62341 -0.0516,-0.0516 -0.76547,0.0437 -1.58653,0.21161 l -1.49282,0.30532 -2.4952,15.86379 c -2.21073,14.05516 -5.76714,36.42882 -7.56883,47.6162 -1.92896,11.97754 -3.78251,23.55405 -4.3527,27.18526 -0.94646,6.02738 -3.8698,24.27017 -5.85489,36.537 -0.9485,5.86114 -2.61834,16.33289 -3.71075,23.27057 -1.09241,6.93769 -2.66341,16.78645 -3.49108,21.88616 -0.82768,5.09969 -1.50488,9.46166 -1.50488,9.69324 0,0.68431 1.66736,-0.39942 2.44833,-1.59134 z m 195.94542,-2.30728 c 0.10488,-1.49314 -0.4176,-4.14642 -8.74859,-44.42689 -1.16276,-5.62191 -4.28534,-20.7913 -6.93907,-33.70973 -2.65373,-12.91844 -5.51669,-26.81554 -6.36214,-30.88246 -0.84547,-4.06691 -3.5864,-17.47468 -6.09095,-29.79504 -6.0368,-29.69607 -7.58058,-37.12114 -7.75411,-37.29466 -0.0797,-0.0797 -0.65573,0.0879 -1.28017,0.37246 -0.84131,0.38334 -1.0788,0.75362 -0.91707,1.42991 0.12001,0.50195 2.55347,12.46093 5.40763,26.57552 4.61143,22.80494 10.19355,50.18518 12.63657,61.98239 0.47063,2.2727 2.04974,10.00419 3.50909,17.18109 1.45938,7.17691 5.3749,25.96252 8.70113,41.74581 3.32626,15.78327 6.05425,28.89745 6.0622,29.1426 0.0227,0.69695 1.71929,-1.521 1.77548,-2.321 z M 242.6129,226.03021 c 0.16325,-0.16325 -0.21214,-3.39292 -0.83401,-7.1769 -0.6219,-3.78399 -1.9078,-11.94695 -2.85758,-18.13991 -0.94977,-6.19296 -1.81046,-11.34352 -1.91263,-11.44569 -0.40601,-0.40601 -9.84419,-0.67933 -9.84419,-0.28508 0,0.81787 4.94021,32.68055 5.4681,35.26743 0.33926,1.66246 2.17292,2.31769 6.13118,2.19089 1.95384,-0.0626 3.68597,-0.24743 3.84913,-0.41074 z m 3.49226,-3.46246 c 0.1427,-0.44956 -0.86727,-8.15524 -2.24433,-17.12371 l -2.50375,-16.30633 h -1.25094 c -1.43256,0 -1.43889,-0.63207 0.0916,9.13425 0.43113,2.75115 1.52954,9.84271 2.44094,15.75902 1.57774,10.24198 1.69418,10.72337 2.4321,10.05556 0.42626,-0.38577 0.89177,-1.06922 1.03445,-1.51879 z m 19.88967,-27.11194 c 1.35002,-1.23994 3.69908,-5.31905 3.26336,-5.66681 -0.35294,-0.28171 -18.1703,-0.60159 -18.16826,-0.32618 0.005,0.70554 0.93628,3.86264 1.43172,4.85481 0.87799,1.75826 3.49261,2.62934 7.91759,2.63779 3.86491,0.007 3.93554,-0.0115 5.55559,-1.49961 z m 3.80056,0.0976 c 1.8493,-1.25862 2.95942,-2.79168 3.30715,-4.56712 0.26234,-1.33943 0.20915,-1.41364 -1.01353,-1.41364 -1.14371,0 -1.35162,0.21016 -1.82879,1.8486 -0.29611,1.01672 -1.01495,2.58259 -1.5974,3.47972 -1.21432,1.87031 -0.9124,2.04423 1.13257,0.65244 z m -133.57384,-3.17319 c 0.98862,-0.89316 1.97595,-2.33154 2.34612,-3.41795 l 0.63915,-1.87583 -3.93404,-0.27924 c -2.16373,-0.15355 -6.32438,-0.27924 -9.24589,-0.27924 h -5.31182 l 0.3149,1.72211 c 0.40223,2.19955 1.42619,3.75189 3.18038,4.82148 1.1384,0.69413 2.19672,0.84783 5.84713,0.84916 l 4.45712,0.002 z m 6.06561,-1.22394 c 0.75831,-0.78238 1.55753,-2.04594 1.77606,-2.80793 l 0.39735,-1.38544 h -1.89243 c -1.78246,0 -1.91013,0.0822 -2.19753,1.41365 -0.16781,0.77749 -0.67271,2.13982 -1.12197,3.02741 -0.44927,0.88759 -0.81685,1.70928 -0.81685,1.82596 0,0.59436 2.65192,-0.83202 3.85537,-2.07365 z m 178.38,-4.08462 c -0.008,-0.17942 -1.42712,-1.81866 -3.15349,-3.64275 l -3.13888,-3.31652 -24.79296,-0.49355 c -13.63611,-0.27147 -29.00123,-0.58701 -34.14468,-0.7012 -5.14346,-0.11425 -16.30029,-0.3127 -24.79296,-0.44112 -15.16265,-0.2293 -36.83098,-0.66345 -75.24879,-1.50773 -10.64576,-0.23395 -24.54287,-0.52577 -30.88247,-0.64847 -6.3396,-0.12264 -17.39856,-0.33958 -24.575461,-0.48195 l -13.048926,-0.25882 -3.26224,3.04037 c -3.209107,2.99086 -3.244517,3.04721 -2.174826,3.45938 1.553706,0.59868 8.961123,0.80719 88.080263,2.47939 125.96716,2.66234 151.16089,3.08124 151.13542,2.51297 z m -73.27685,-3.447 c -16.18229,-0.15881 -69.32294,-1.24126 -102.43405,-2.08658 -30.54293,-0.77975 -43.38382,-1.16216 -44.14887,-1.31484 -1.845808,-0.36833 69.48943,0.23371 101.34666,0.85532 35.92698,0.70102 79.61186,1.8267 91.99492,2.37056 7.35103,0.32284 -20.92834,0.429 -46.75866,0.17554 z m 75.72902,-7.70856 c -0.15799,-4.57001 -0.38433,-10.26643 -0.5032,-12.65873 -0.22043,-4.43662 -0.70613,-16.32622 -1.49257,-36.53699 -0.24204,-6.21998 -0.63689,-15.51735 -0.87746,-20.6608 -0.24057,-5.14344 -0.72649,-16.398149 -1.07982,-25.010441 -1.36347,-33.233429 -1.63527,-37.659312 -2.36786,-38.558541 -0.65862,-0.808401 -0.78323,-0.73868 -3.38824,1.896027 l -2.70446,2.735302 0.41093,9.569223 c 0.47218,10.995511 1.52291,37.32173 2.16138,54.15304 0.52319,13.79209 0.76508,19.73857 1.31821,32.40484 0.22982,5.26307 0.63307,15.3391 0.8961,22.39121 l 0.47823,12.82199 3.2977,3.63236 c 2.82026,3.10646 3.35854,3.52363 3.71791,2.88147 0.25812,-0.46121 0.30948,-3.95619 0.13316,-9.05996 z m -3.4618,-8.41783 c -0.5171,-6.23894 -2.07534,-36.45005 -3.11283,-60.35128 -0.37745,-8.69544 -1.51347,-44.857989 -1.51558,-48.244781 -10e-4,-1.654677 0.0796,-2.926937 0.17919,-2.827264 0.21669,0.216904 1.40556,19.149581 2.00524,31.933633 0.23566,5.023824 0.6238,13.146792 0.86252,18.051002 0.67139,13.7928 2.23672,64.80966 1.98853,64.80966 -0.0702,0 -0.2534,-1.51694 -0.40707,-3.37097 z m -236.389807,8.7338 2.033742,-2.1006 0.686846,-10.43914 c 0.377782,-5.74153 0.984452,-14.64742 1.348162,-19.79087 0.363709,-5.14345 1.1451,-16.39814 1.736399,-25.01044 1.555267,-22.65204 3.477664,-49.891131 4.557844,-64.581457 l 0.43098,-5.86129 -2.485551,-2.511772 c -1.367051,-1.381469 -2.634757,-2.511756 -2.817105,-2.511756 -0.67279,0 -0.957031,2.974382 -2.743324,28.707626 -0.357035,5.143455 -0.842529,11.504804 -1.078865,14.136339 -0.236335,2.631535 -0.827684,10.26516 -1.314099,16.9636 -0.486414,6.69845 -1.187727,16.09367 -1.558473,20.87829 -2.258668,29.14939 -3.868121,54.28939 -3.531504,55.1626 0.292,0.7575 0.357627,0.75426 1.503286,-0.0743 0.658866,-0.47647 2.113112,-1.81158 3.231662,-2.9669 z M 210.85332,46.250069 c 9.32998,-0.114912 35.26472,-0.320473 57.63275,-0.456987 l 40.66915,-0.248189 2.72071,-2.680804 c 2.59247,-2.55445 2.67447,-2.698608 1.73986,-3.05852 -1.5478,-0.596051 -221.696551,1.106466 -222.692807,1.722195 -0.23308,0.144011 0.721156,1.434354 2.120527,2.867361 l 2.544306,2.605461 49.150964,-0.270859 c 27.03301,-0.148942 56.78457,-0.364827 66.11454,-0.479658 z m -48.08511,-9.531231 c 0.18512,-0.498301 0.47602,-2.374009 0.64644,-4.168242 0.17043,-1.794217 0.66924,-6.198236 1.10848,-9.786686 0.43925,-3.588451 0.92809,-7.649934 1.08632,-9.025517 l 0.28767,-2.501038 h -4.19691 c -4.05874,0 -4.23877,0.04192 -5.46835,1.271438 -0.69929,0.699291 -1.27142,1.55124 -1.27142,1.893217 0,0.341993 -0.58721,5.344922 -1.3049,11.117635 -0.7177,5.77273 -1.30489,10.90328 -1.30489,11.401252 0,0.87092 0.19189,0.901564 5.04048,0.804669 4.66215,-0.09321 5.06575,-0.16872 5.37708,-1.006728 z m 4.52335,-4.368723 c 0.34974,-6.123386 0.94622,-9.04697 2.04948,-10.045413 0.69745,-0.631181 0.84313,-1.351498 0.84313,-4.168472 0,-3.130871 -0.10011,-3.517497 -1.24183,-4.795297 l -1.24183,-1.389853 -0.25742,1.491745 c -0.14155,0.820451 -0.47402,3.44906 -0.73877,5.841365 -0.7186,6.493458 -1.74157,15.03478 -1.99264,16.637377 -0.20681,1.320132 -0.13826,1.413641 1.03686,1.413641 h 1.2583 z m 53.67467,4.697137 c 8.58412,-0.242714 10.11293,-0.384835 10.11293,-0.940082 0,-0.577967 -2.92457,-0.620611 -25.11918,-0.366159 -13.81555,0.158478 -27.51692,0.288285 -30.44749,0.288646 -4.446,5.43e-4 -5.32832,0.108666 -5.32832,0.653096 0,0.570668 2.54893,0.652323 20.33458,0.651452 11.18402,-5.43e-4 24.88538,-0.129709 30.44748,-0.286953 z m 24.22928,-2.648057 c -0.15437,-1.375566 -0.60448,-7.100786 -1.00027,-12.722699 l -0.71961,-10.221661 -3.12978,-0.127243 c -3.95672,-0.160943 -5.71039,0.294154 -6.81035,1.767421 -0.8479,1.135663 -0.85691,1.407295 -0.33887,10.202443 0.29273,4.969656 0.64807,10.063332 0.78964,11.319284 l 0.25742,2.283575 h 5.61624 5.61624 z m 4.41086,0 c -0.14385,-1.375566 -0.57598,-6.31785 -0.96016,-10.982847 -0.41952,-5.09435 -0.94187,-8.954367 -1.30791,-9.66505 -0.59069,-1.146875 -2.33263,-2.458689 -2.34777,-1.768062 -0.0171,0.778349 1.81509,22.203362 2.0099,23.503372 0.18578,1.239907 0.375,1.413641 1.53972,1.413641 h 1.32789 z m -45.86432,-1.413624 h 26.90214 V 31.31133 c 0,-0.920831 -0.1284,-3.193736 -0.28543,-5.0509 l -0.28544,-3.376692 -5.69531,0.259745 c -3.13244,0.14286 -15.97136,0.374872 -28.53094,0.515579 -12.5596,0.140723 -23.15711,0.345889 -23.55003,0.455985 -1.01523,0.284454 -1.57544,2.045332 -1.90946,6.002012 l -0.29027,3.438456 3.37128,-0.28498 c 1.85422,-0.156669 15.47727,-0.284964 30.27346,-0.284964 z"
       id="path3" /></g><metadata
     id="metadata182"><rdf:RDF><cc:Work
         rdf:about=""><cc:license
           rdf:resource="http://creativecommons.org/licenses/by-sa/4.0/" /><dc:publisher><cc:Agent><dc:title>OpenDataKerala.org</dc:title></cc:Agent></dc:publisher><dc:date>April 2026</dc:date><dc:title>Election Symbols of Kerala</dc:title><dc:creator><cc:Agent><dc:title>Manoj Karingamadathil</dc:title></cc:Agent></dc:creator></cc:Work><cc:License
         rdf:about="http://creativecommons.org/licenses/by-sa/4.0/"><cc:permits
           rdf:resource="http://creativecommons.org/ns#Reproduction" /><cc:permits
           rdf:resource="http://creativecommons.org/ns#Distribution" /><cc:requires
           rdf:resource="http://creativecommons.org/ns#Notice" /><cc:requires
           rdf:resource="http://creativecommons.org/ns#Attribution" /><cc:permits
           rdf:resource="http://creativecommons.org/ns#DerivativeWorks" /><cc:requires
           rdf:resource="http://creativecommons.org/ns#ShareAlike" /></cc:License></rdf:RDF></metadata></svg>
