<?xml version="1.0" encoding="UTF-8" standalone="no"?>
<!-- Created with Inkscape (http://www.inkscape.org/) -->

<svg
   width="1500"
   height="1500"
   viewBox="0 0 396.87499 396.875"
   version="1.1"
   id="svg5"
   xml:space="preserve"
   inkscape:version="1.3 (0e150ed6c4, 2023-07-21)"
   sodipodi:docname="Boat with man and Sail.svg"
   inkscape:export-filename="Air Conditioner.png"
   inkscape:export-xdpi="96"
   inkscape:export-ydpi="96"
   xmlns:inkscape="http://www.inkscape.org/namespaces/inkscape"
   xmlns:sodipodi="http://sodipodi.sourceforge.net/DTD/sodipodi-0.dtd"
   xmlns="http://www.w3.org/2000/svg"
   xmlns:svg="http://www.w3.org/2000/svg"
   xmlns:rdf="http://www.w3.org/1999/02/22-rdf-syntax-ns#"
   xmlns:cc="http://creativecommons.org/ns#"
   xmlns:dc="http://purl.org/dc/elements/1.1/"><title
     id="title186">Election Symbols of Kerala</title><sodipodi:namedview
     id="namedview7"
     pagecolor="#ffffff"
     bordercolor="#000000"
     borderopacity="0.25"
     inkscape:showpageshadow="2"
     inkscape:pageopacity="0.0"
     inkscape:pagecheckerboard="0"
     inkscape:deskcolor="#d1d1d1"
     inkscape:document-units="mm"
     showgrid="false"
     inkscape:zoom="0.25"
     inkscape:cx="230"
     inkscape:cy="1082"
     inkscape:window-width="1920"
     inkscape:window-height="991"
     inkscape:window-x="-9"
     inkscape:window-y="-9"
     inkscape:window-maximized="1"
     inkscape:current-layer="layer1" /><defs
     id="defs2"><inkscape:path-effect
       effect="bspline"
       id="path-effect3248"
       is_visible="true"
       lpeversion="1"
       weight="33.333333"
       steps="2"
       helper_size="0"
       apply_no_weight="true"
       apply_with_weight="true"
       only_selected="false" /><inkscape:path-effect
       effect="bspline"
       id="path-effect577"
       is_visible="true"
       lpeversion="1"
       weight="33.333333"
       steps="2"
       helper_size="0"
       apply_no_weight="true"
       apply_with_weight="true"
       only_selected="false" /></defs><g
     inkscape:label="Layer 1"
     inkscape:groupmode="layer"
     id="layer1"><path
       style="fill:#000000"
       d="m 155.7114,380.13511 c -3.31099,-0.49291 -10.13651,-3.8739 -12.54677,-6.21498 -4.7606,-4.62396 -2.69315,-8.47284 12.97336,-24.15196 12.58424,-12.59436 16.38077,-15.72672 23.13546,-19.08811 5.62224,-2.79783 5.91632,-3.10924 18.07406,-19.1394 3.21423,-4.23801 7.62643,-10.02396 9.80488,-12.85766 4.68628,-6.09587 23.39349,-31.22967 29.2111,-39.24616 7.39339,-10.18785 9.97362,-13.25613 11.29797,-13.43496 0.67838,-0.0916 1.86498,-0.76272 2.63688,-1.49138 1.09744,-1.03595 1.35329,-1.65003 1.17334,-2.81622 -0.3138,-2.03359 1.37734,-5.83718 3.03614,-6.8287 0.74076,-0.44277 2.80094,-2.161 4.57817,-3.81827 1.77723,-1.65727 3.39911,-3.01566 3.60417,-3.01863 0.20507,-0.003 0.37285,-0.47841 0.37285,-1.05653 0,-1.51726 5.1665,-9.84414 11.00276,-17.73321 2.77403,-3.74974 6.41072,-8.67385 8.08154,-10.94247 12.69572,-17.23804 15.50397,-20.7316 16.66481,-20.7316 0.64818,0 1.4266,0.39341 1.72982,0.87426 0.71822,1.13896 0.70122,1.16567 -8.54001,13.41291 -13.29923,17.62526 -21.67007,28.85422 -24.33076,32.6382 l -2.58427,3.67529 1.96979,0.97457 c 2.29518,1.13557 4.22539,3.42488 6.63977,7.87503 l 1.72949,3.18777 2.8911,0.3684 c 23.85717,3.03999 48.36267,7.44124 61.55212,11.05494 6.53409,1.79023 14.77607,3.73791 15.82024,3.73852 0.56424,3.2e-4 0.84575,0.29882 0.74569,0.79068 -0.40395,1.98583 -28.96075,9.73897 -46.39357,12.59581 -1.64052,0.26885 -5.66725,0.94694 -8.94829,1.50689 -3.28104,0.55994 -8.14667,1.16291 -10.81251,1.33994 -4.65752,0.30928 -4.847,0.28208 -4.847,-0.69578 0,-0.89559 0.49188,-1.08829 4.1013,-1.60675 2.25572,-0.32402 4.68128,-0.85047 5.39014,-1.16989 1.56814,-0.70661 15.86206,-16.05839 15.86206,-17.03596 0,-0.38263 0.39148,-0.69422 0.86997,-0.69243 1.191,0.004 19.0357,3.61903 25.59796,5.18505 5.78986,1.38169 7.33672,1.54556 7.33672,0.77722 0,-0.27342 -0.079,-0.49713 -0.17553,-0.49713 -0.0966,0 -2.72511,-0.6633 -5.84125,-1.47401 -9.73161,-2.53181 -20.71131,-4.85073 -30.52207,-6.4463 -5.19498,-0.84489 -13.13659,-2.19895 -17.64802,-3.00904 -9.3619,-1.68105 -14.91728,-2.30755 -14.90621,-1.68103 0.02,1.13251 1.02953,1.54654 4.46654,1.83185 5.17851,0.42989 7.20312,0.87288 6.37847,1.39566 -0.36383,0.23065 -1.10893,0.42296 -1.65577,0.42736 -1.34456,0.0108 -7.04304,2.74264 -7.29447,3.49692 -0.11065,0.33197 0.002,2.41863 0.25098,4.63703 0.53755,4.7951 -0.11057,10.35675 -1.5447,13.25537 l -0.98105,1.98288 h 3.43313 c 2.68926,0 3.49929,0.17244 3.73852,0.79586 0.16797,0.43773 0.0334,0.96398 -0.29905,1.16944 -2.88828,1.78505 -50.74454,5.14617 -50.74454,3.56397 0,-0.90856 1.4774,-1.5969 4.04867,-1.88633 2.98454,-0.33594 3.90537,-0.85352 3.90537,-2.19513 0,-1.40066 2.71364,-4.18116 4.66516,-4.7801 0.95805,-0.29403 1.84081,-0.4357 1.9617,-0.31481 0.12088,0.12088 -0.0948,1.26523 -0.47939,2.54298 -0.82495,2.74111 -0.61309,3.58976 0.89613,3.58976 0.86278,0 0.97672,-0.13257 0.51273,-0.59655 -0.86379,-0.8638 -0.73066,-2.40875 0.36199,-4.20068 0.7192,-1.17947 2.64869,-2.43694 7.81868,-5.09555 5.68166,-2.92172 7.27216,-3.52966 9.23443,-3.52966 1.30381,0 2.37057,-0.22371 2.37057,-0.49713 0,-0.27342 -0.89483,-0.49712 -1.98851,-0.49712 -1.09368,0 -1.98581,-0.16778 -1.98252,-0.37285 0.003,-0.20506 0.56256,-1.34643 1.24282,-2.53638 1.88497,-3.29729 1.39944,-5.78118 -0.54883,-2.80774 -0.44788,0.68355 -0.95638,1.24199 -1.13,1.24098 -0.17362,-0.001 -1.04423,-1.39918 -1.9347,-3.10704 -2.4934,-4.78219 -2.25361,-4.60924 -4.0648,-2.93184 -0.88265,0.81745 -1.78237,1.67212 -1.99937,1.89927 -6.7026,7.0161 -10.97644,11.10123 -11.61401,11.10123 -0.5485,0 -0.70349,-0.26514 -0.48612,-0.8316 0.4606,-1.20031 8.97772,-9.50382 10.12027,-9.86645 0.79926,-0.25367 0.96333,-0.77162 0.96333,-3.04102 0,-2.51594 -0.0856,-2.72254 -1.06776,-2.57642 -0.58727,0.0874 -1.31432,0.60258 -1.61567,1.14491 -1.40825,2.53444 -3.66599,5.72369 -5.88966,8.31964 -1.33943,1.56367 -2.64845,3.61492 -2.90894,4.55834 -0.26049,0.94341 -1.44511,2.79595 -2.63249,4.11674 -1.18737,1.3208 -3.47484,4.21454 -5.08325,6.43054 -1.60842,2.216 -5.21739,7.08394 -8.01994,10.81764 -2.80256,3.7337 -5.09556,6.9338 -5.09556,7.11134 0,0.5713 22.82308,-0.299 34.83486,-1.32834 16.99767,-1.45662 27.84163,-2.86751 42.46843,-5.52552 19.48738,-3.54129 42.96437,-10.81287 52.76409,-16.34274 1.40483,-0.79273 2.68764,-1.30792 2.85069,-1.14487 0.16305,0.16305 -0.62296,1.99147 -1.7467,4.06316 -5.75896,10.61699 -13.35871,20.98054 -22.92683,31.26459 -6.28972,6.76033 -9.94749,9.89445 -13.66608,11.7096 -1.16203,0.56722 -2.11279,1.15944 -2.11279,1.31605 0,0.15661 1.84559,0.6833 4.1013,1.17043 2.25572,0.48712 6.11467,1.31815 8.57545,1.84674 6.46931,1.38962 13.63154,1.29399 21.09421,-0.28166 3.27121,-0.69067 6.88221,-1.5855 8.02445,-1.98851 3.50527,-1.23673 5.25657,-0.6226 3.07033,1.07667 -4.61354,3.58591 -10.95395,5.46657 -20.07347,5.9541 -7.96774,0.42595 -12.01434,-0.17244 -23.74674,-3.51152 -11.12628,-3.16658 -16.102,-3.95641 -22.16264,-3.51804 -6.27198,0.45365 -9.51806,1.04171 -16.68004,3.02176 -3.42626,0.94725 -9.24265,2.16288 -12.92531,2.7014 -11.44568,1.6737 -18.26456,1.25735 -29.31503,-1.78997 -5.51916,-1.52198 -7.1453,-1.74846 -14.54097,-2.02515 -4.57979,-0.17135 -8.32688,-0.49186 -8.32688,-0.71226 0,-0.22039 0.95075,-0.83775 2.11279,-1.3719 l 2.11279,-0.97117 -2.54905,-0.0419 c -3.11122,-0.0511 -4.30192,0.91602 -2.95717,2.40196 0.81647,0.90218 0.71354,0.95825 -3.03843,1.655 -2.13594,0.39665 -4.07968,0.54788 -4.31941,0.33606 -0.24037,-0.21237 0.0638,-1.19363 0.67811,-2.1876 0.6127,-0.99136 1.00846,-1.90802 0.87947,-2.03701 -0.34219,-0.34219 -3.86369,3.95826 -10.47555,12.79268 -5.19922,6.94693 -5.88178,8.09527 -6.35299,10.68824 -0.61313,3.37393 -4.82105,16.06227 -7.1944,21.69363 -1.87707,4.45382 -7.22541,13.83479 -10.00367,17.54641 -2.46602,3.29448 -6.38786,6.66475 -7.76548,6.67335 -0.59857,0.004 -1.53572,0.0923 -2.08256,0.19689 -0.54684,0.10455 -2.21209,0.009 -3.70057,-0.2128 z m 5.90541,-4.1998 c 4.3052,-2.2263 11.79086,-14.10481 16.7711,-26.61297 1.91332,-4.8054 4.77521,-15.28324 4.35857,-15.95738 -0.59709,-0.96611 -2.19842,-0.32626 -6.46326,2.58252 -5.44943,3.71671 -7.87245,5.78224 -14.8969,12.69903 -13.274,13.07055 -18.46646,20.08893 -16.56757,22.39354 1.06684,1.29478 5.91649,4.24111 8.11421,4.92965 2.75006,0.86159 6.98364,0.84483 8.68385,-0.0344 z m -3.94478,-10.83485 c 0,-0.8813 3.89278,-6.57407 9.50946,-13.90655 4.81982,-6.29219 6.62975,-8.17253 7.11335,-7.39005 0.35895,0.58078 -10.13839,14.90881 -14.09288,19.23565 -1.39146,1.52248 -2.52993,2.44991 -2.52993,2.06095 z M 261.0745,314.25418 c 2.32407,-0.43272 4.8967,-0.89925 5.71696,-1.03672 2.47348,-0.41455 5.33405,-1.23116 5.10724,-1.45798 -0.24013,-0.24012 -12.26908,1.18515 -12.80672,1.51743 -0.19057,0.11778 -3.62511,0.24346 -7.6323,0.27929 -6.66289,0.0596 -9.54746,0.56944 -6.68643,1.18186 0.62638,0.13408 1.58628,0.35362 2.13312,0.48785 1.67256,0.41058 9.70164,-0.1401 14.16813,-0.97173 z m -10.19111,-7.30402 c 0.33983,-0.35017 -0.0337,-0.4128 -1.18068,-0.19794 -0.92279,0.17286 -2.32096,0.3143 -3.10704,0.3143 -0.78609,0 -1.42924,0.2447 -1.42924,0.54378 0,0.6742 4.98008,0.0992 5.71696,-0.66014 z m -14.92692,-0.38786 c 6.00676,-0.60196 7.29746,-0.98716 3.30769,-0.98716 -4.03675,0 -12.18862,1.00969 -12.74001,1.57798 -0.34013,0.35056 0.20933,0.42449 1.73995,0.23412 1.23039,-0.15304 4.69196,-0.52426 7.69237,-0.82494 z m 23.52436,-0.0328 c 2.10691,-0.2789 5.50855,-0.69426 7.5592,-0.92303 2.05065,-0.22876 4.35821,-0.66495 5.12791,-0.9693 0.76971,-0.30435 2.0001,-0.57056 2.7342,-0.59157 0.73411,-0.021 2.22957,-0.35245 3.32325,-0.73653 l 1.98851,-0.69832 -1.98851,0.26586 c -3.60933,0.48257 -7.87456,1.15048 -13.91956,2.17974 -3.28104,0.55865 -7.25185,1.01578 -8.82401,1.01585 -1.57217,6e-5 -2.85848,0.18654 -2.85848,0.41439 0,0.80068 0.72723,1.12714 1.87125,0.84001 0.63552,-0.15951 2.87933,-0.5182 4.98624,-0.7971 z m 24.21296,-3.93708 c 0.95858,-0.41191 0.95517,-0.4285 -0.0949,-0.46218 -0.59906,-0.0192 -1.22746,0.18876 -1.39644,0.46218 -0.3634,0.588 0.12304,0.588 1.49138,0 z m 7.45339,-1.48568 c 0.17416,-0.28181 -0.0254,-0.36515 -0.46779,-0.19538 -0.86123,0.33049 -1.01881,0.68681 -0.30372,0.68681 0.25728,0 0.60446,-0.22115 0.77151,-0.49143 z m -53.1891,-1.00059 c 5.4684,-0.26394 12.51518,-0.59042 15.65951,-0.7255 5.82117,-0.25009 19.01171,-1.58329 29.33395,-2.96484 6.76727,-0.90575 24.53231,-4.51773 29.32707,-5.96276 1.23039,-0.37081 4.02673,-1.16437 6.21409,-1.76347 6.10678,-1.67258 13.10479,-3.96992 16.4052,-5.38557 3.43026,-1.47136 3.48458,-1.50339 3.13778,-1.85018 -0.14259,-0.14259 -1.46619,0.18277 -2.94133,0.72303 -9.11203,3.33717 -22.69011,7.19097 -33.25542,9.43872 -12.01064,2.55525 -35.01019,5.60671 -50.70698,6.72754 -3.63,0.2592 -37.39781,1.32941 -38.15021,1.2091 -0.82772,-0.13234 -1.16614,0.0823 -0.87428,0.55457 0.39142,0.63332 12.72218,0.63302 25.85062,-6.4e-4 z m 3.97702,-44.24369 c 0.16898,-0.27342 -0.0283,-0.49713 -0.43845,-0.49713 -0.41013,0 -0.88395,0.22371 -1.05293,0.49713 -0.16899,0.27342 0.0283,0.49713 0.43845,0.49713 0.41013,0 0.88395,-0.22371 1.05293,-0.49713 z m 23.45601,-7.05299 c -0.15869,-0.39658 -0.27649,-0.27878 -0.30035,0.30035 -0.0216,0.52405 0.0959,0.81767 0.2611,0.65247 0.1652,-0.16519 0.18286,-0.59396 0.0393,-0.95282 z m 10.10008,116.56646 c -5.02184,-0.23613 -10.13461,-1.19014 -16.65376,-3.1075 -9.28332,-2.73033 -12.51259,-3.2353 -20.13366,-3.14837 -4.91925,0.0561 -8.50319,0.42188 -13.42243,1.36987 -21.35124,4.11463 -28.74433,4.43375 -39.39734,1.7006 -1.18839,-0.30489 -1.86423,-0.76969 -1.86423,-1.2821 0,-0.71869 0.8003,-0.77097 7.55676,-0.49362 9.10205,0.37363 14.68395,-0.1298 26.49646,-2.38971 12.66587,-2.42318 14.87333,-2.72987 19.63653,-2.72817 4.93182,0.002 15.14793,1.50756 20.13365,2.96759 6.37626,1.86724 9.56178,2.45488 16.39023,3.02358 5.91949,0.49299 7.41415,0.45421 11.84577,-0.30738 6.49466,-1.11612 6.99656,-1.12935 7.18803,-0.18959 0.10252,0.50321 -0.68674,1.23601 -2.22156,2.06263 -3.45534,1.86099 -9.33607,2.81455 -15.55445,2.52217 z M 127.59583,350.00185 c -6.76369,-1.67042 -14.34098,-2.02375 -21.37647,-0.99678 -11.96289,1.74622 -15.444933,1.58481 -21.162375,-0.98103 -4.975014,-2.23265 -5.415404,-3.9784 -0.622478,-2.46757 4.491756,1.41591 11.299812,1.53491 18.998873,0.33211 11.50443,-1.79731 18.87335,-1.2914 28.13947,1.93192 1.64052,0.57067 4.66056,1.16088 6.71121,1.31158 4.93756,0.36285 5.61578,0.63029 3.72846,1.47021 -2.37282,1.05598 -8.79231,0.78861 -14.41669,-0.60044 z m 140.68701,0.0455 c -2.18736,-0.40942 -6.78764,-1.50899 -10.22285,-2.44348 -11.60414,-3.15673 -14.20475,-3.5405 -19.44611,-2.86964 -2.54805,0.32613 -7.76472,1.28565 -11.5926,2.13228 -13.92643,3.08016 -21.12743,3.5572 -29.75873,1.97141 -9.26066,-1.70143 -8.40389,-2.32843 3.32619,-2.43416 4.69478,-0.0423 10.43747,-0.3938 12.76154,-0.78107 2.32407,-0.38727 5.45597,-0.85223 6.95978,-1.03325 1.50381,-0.18102 4.74757,-0.7918 7.20835,-1.35728 6.73267,-1.54715 19.51357,-1.51805 26.34774,0.06 13.15641,3.03786 14.14413,3.1761 23.11642,3.23542 8.36698,0.0553 8.83513,0.005 12.23976,-1.30803 3.77952,-1.45792 6.88082,-1.81138 6.52919,-0.74413 -0.42259,1.28264 -4.51128,3.86265 -7.7288,4.87696 -4.45184,1.40342 -14.13383,1.7443 -19.73988,0.69499 z m 50.70699,-3.52521 c -2.29927,-0.38935 -6.6847,-0.62233 -10.39541,-0.55227 -4.28493,0.0809 -6.47928,-0.0587 -6.60161,-0.41996 -0.23706,-0.70016 4.10958,-2.09627 8.54472,-2.74451 3.14871,-0.46021 4.14282,-0.36325 10.41337,1.01559 3.8128,0.83841 7.65854,1.52438 8.54611,1.52438 0.88757,0 1.74508,0.21248 1.90558,0.47218 0.95952,1.55254 -5.30518,1.90814 -12.41276,0.70459 z m -176.2453,-7.61172 c -1.23792,-0.22592 -4.63942,-1.09552 -7.55889,-1.93243 -9.69535,-2.77932 -15.28328,-3.04258 -27.22634,-1.28269 -7.95029,1.17152 -15.076678,0.68987 -11.260436,-0.76106 0.76044,-0.28912 1.845851,-0.52567 2.412024,-0.52567 0.566174,0 4.410562,-0.69799 8.543082,-1.55109 6.99422,-1.44385 8.01202,-1.53268 14.72202,-1.28486 6.27716,0.23183 8.10743,0.50891 14.16813,2.14489 6.45857,1.74336 7.50876,1.88664 14.58276,1.98949 4.19264,0.0609 7.76548,0.25332 7.93964,0.42748 0.4531,0.4531 -0.78575,1.15126 -3.51128,1.97882 -2.98747,0.90709 -9.86373,1.33495 -12.81071,0.79712 z m 119.57279,-2.54984 c -3.00762,-0.81495 -7.14621,-1.93373 -9.19686,-2.48618 -5.86124,-1.57905 -13.53169,-1.37905 -24.6078,0.64163 -8.02443,1.46394 -9.89781,1.63248 -18.14514,1.63248 -8.85135,0 -13.42244,-0.58331 -13.42244,-1.71283 0,-0.23743 3.7471,-0.40013 8.32688,-0.36155 9.19295,0.0774 12.15065,-0.3174 22.49501,-3.00307 6.08422,-1.57963 7.38467,-1.74737 13.91957,-1.79542 7.87767,-0.0579 10.3221,0.32661 18.3937,2.89358 7.602,2.41762 12.24993,3.02139 17.69775,2.29895 2.43343,-0.32269 4.84775,-0.6359 5.36517,-0.69601 1.55531,-0.18068 1.46525,1.02065 -0.13871,1.85008 -5.0442,2.60846 -12.76793,2.88413 -20.68713,0.73834 z m 63.13516,-2.93777 c -1.64052,-0.23683 -5.89096,-1.16473 -9.44542,-2.06199 -5.60812,-1.41568 -7.25145,-1.62629 -12.42818,-1.59285 -3.28104,0.0212 -7.64333,0.3833 -9.69398,0.80467 -4.04205,0.83056 -5.35679,0.46016 -3.25495,-0.91702 2.80656,-1.83893 6.86941,-2.79903 12.94893,-3.05998 5.45796,-0.23428 6.57884,-0.11815 13.17387,1.36491 6.36659,1.43169 8.10816,1.62562 14.91382,1.66073 6.47036,0.0334 8.37382,-0.13756 11.87507,-1.06638 4.57925,-1.21479 6.02151,-1.3614 6.02151,-0.6121 0,0.95988 -4.18275,3.50673 -7.41459,4.51468 -3.74785,1.16889 -11.98648,1.64523 -16.69608,0.96533 z M 147.48092,326.5983 c -1.59409,-0.21841 -7.97239,-1.79951 -15.65951,-3.88178 -6.89111,-1.86666 -12.85339,-2.10879 -19.68234,-0.79931 -6.63146,1.27162 -9.5627,1.36142 -9.96795,0.30536 -0.15872,-0.41361 -0.0244,-1.07031 0.29843,-1.45933 0.86422,-1.04131 6.60353,-2.20149 13.92022,-2.81392 7.313,-0.61212 12.48386,3.7e-4 21.64573,2.56393 10.2546,2.86932 11.66865,3.09657 20.75021,3.33486 4.85053,0.12727 8.70003,0.42414 8.55444,0.65971 -0.14559,0.23557 -1.73292,0.88179 -3.5274,1.43605 -2.57351,0.79488 -4.48547,0.99201 -9.05157,0.93325 -3.18388,-0.041 -6.46,-0.16643 -7.28026,-0.27882 z m -73.812997,-0.66953 c -4.560445,-0.56938 -8.073738,-1.56601 -12.228426,-3.4689 -5.570072,-2.55114 -7.113529,-5.37398 -1.745783,-3.19287 7.41211,3.01181 10.374545,3.46658 21.917842,3.36464 6.769322,-0.0598 12.0553,-0.35362 14.416691,-0.80143 2.317795,-0.43953 3.916543,-0.53154 4.225583,-0.24317 2.62963,2.45372 -16.580517,5.59092 -26.585907,4.34173 z M 161.40048,315.2149 c -5.39418,-0.55644 -11.73711,-1.894 -19.63652,-4.14085 -12.22946,-3.47845 -16.69569,-4.1795 -24.6078,-3.86258 -6.80349,0.27251 -10.7485,1.03369 -20.986462,4.04931 -15.25205,4.49253 -26.688301,4.2596 -35.313205,-0.71925 -1.435455,-0.82864 -2.609918,-1.7258 -2.609918,-1.99369 0,-0.65749 -0.04829,-0.6668 4.339397,0.83678 3.331185,1.14153 4.903992,1.35515 11.420807,1.55119 4.156682,0.12505 8.136497,0.0821 8.844034,-0.0955 l 1.28643,-0.32287 -1.671541,-1.60117 c -1.924675,-1.84364 -7.919984,-10.79707 -11.999759,-17.92051 -5.37969,-9.39313 -15.170519,-31.49229 -14.460995,-32.64032 0.355734,-0.57559 0.792837,-0.41893 7.2129,2.58518 23.01322,10.76848 57.747082,19.64078 91.968542,23.49214 15.73977,1.77139 47.83601,3.4967 54.06259,2.9061 2.62398,-0.24889 3.10705,-0.17266 3.10705,0.49029 0,0.43175 -0.2056,0.91207 -0.4569,1.06738 -0.25129,0.1553 -3.7576,4.69858 -7.7918,10.09616 -9.95714,13.32222 -11.03137,14.535 -12.87921,14.54027 -0.82026,0.002 -3.95216,0.32794 -6.95978,0.72355 -5.65489,0.74383 -19.37407,1.31881 -22.86786,0.95841 z m -74.351108,-7.50471 c -2.890211,-2.43195 -7.386632,-10.10646 -15.377119,-26.24573 -4.331813,-8.74944 -8.242833,-16.35548 -8.691154,-16.90232 -0.790774,-0.96455 -0.808451,-0.9497 -0.591636,0.49713 0.701693,4.68244 12.726974,28.52731 18.908046,37.49267 1.398467,2.02841 3.417036,4.32141 4.485709,5.09556 2.473489,1.79178 3.374059,1.83637 1.266154,0.0627 z m 110.114158,-7.55473 c 0.35032,-0.56682 -3.11636,-0.94161 -14.38658,-1.55534 -18.55768,-1.01057 -30.34243,-1.98828 -41.51165,-3.44396 -12.03244,-1.56819 -20.38249,-2.90659 -23.36345,-3.74485 -1.50381,-0.42288 -5.08313,-1.19624 -7.95404,-1.71858 -2.87091,-0.52233 -8.35174,-1.76545 -12.179617,-2.76248 -3.82788,-0.99703 -7.942625,-2.01875 -9.143876,-2.27049 -1.201252,-0.25174 -2.456014,-0.68338 -2.78836,-0.9592 -0.598595,-0.49679 -5.023701,-1.97179 -5.946591,-1.98215 -1.376806,-0.0155 1.468495,1.53709 4.953518,2.70289 11.13607,3.72523 14.411926,4.55379 32.810396,8.29865 4.1013,0.83478 9.02279,1.83724 10.93664,2.22768 4.09438,0.83529 26.54165,3.34964 37.45963,4.19591 4.1975,0.32535 12.36282,0.75099 18.14514,0.94587 5.78233,0.19487 11.00346,0.39034 11.60252,0.43438 0.59906,0.044 1.2139,-0.12171 1.36632,-0.36833 z M 78.628793,281.17844 c -1.17224,-0.81644 -5.090468,-2.49469 -5.310552,-2.2746 -0.355067,0.35506 4.038833,2.77005 5.061988,2.78218 0.834806,0.01 0.874668,-0.0715 0.248564,-0.50758 z m 107.628057,-4.75329 c -10.69574,-0.33236 -28.40376,-2.12591 -43.99577,-4.4561 -12.68864,-1.89629 -14.91382,-2.40879 -14.91382,-3.43495 0,-0.77079 1.51325,-1.37756 2.53989,-1.01843 1.00731,0.35237 10.55822,1.68077 14.61101,2.03219 l 3.47989,0.30175 5.71696,-5.82691 c 3.14433,-3.20481 10.19111,-10.09902 15.65951,-15.32048 5.4684,-5.22147 10.02931,-9.69794 10.13535,-9.94771 0.25884,-0.60967 -24.50285,0.0417 -26.86049,0.70654 -0.99623,0.28094 -3.15013,1.68133 -4.78643,3.11197 -1.63631,1.43063 -4.40053,3.71633 -6.14271,5.07932 -5.18321,4.05506 -12.33379,10.11696 -16.79145,14.23494 l -4.17842,3.86002 1.44422,0.3178 c 2.94857,0.64883 4.17842,1.34047 4.17842,2.34985 0,0.91592 -0.21463,0.96987 -2.60992,0.6561 -11.86041,-1.55367 -34.970257,-7.07478 -53.587618,-12.80247 -7.562546,-2.32664 -12.393834,-3.56122 -13.747524,-3.51303 -1.578738,0.0562 -2.146671,-0.13155 -2.331354,-0.77077 -2.217329,-7.67448 -3.181758,-10.30959 -4.766946,-13.0247 -3.412745,-5.84535 -6.971146,-12.92321 -6.971146,-13.866 0,-1.57214 1.064547,-1.913 6.214091,-1.98971 2.7342,-0.0407 6.313517,-0.28379 7.954037,-0.54013 7.914382,-1.23664 18.980755,-1.62987 37.284544,-1.32486 16.410236,0.27347 22.557196,0.55022 34.798906,1.56675 1.3671,0.11352 3.2182,0.21529 4.11354,0.22614 1.40104,0.017 1.81672,0.34031 2.98277,2.32007 0.74517,1.26519 2.19376,3.62166 3.21908,5.23661 2.02116,3.18345 2.21874,3.97816 1.19936,4.82416 -0.83532,0.69326 -1.80786,-0.29718 -5.49917,-5.6004 l -2.70349,-3.88405 -3.64455,-0.15639 c -2.00451,-0.086 -6.55275,-0.38543 -10.10721,-0.66537 -3.55446,-0.27995 -12.50275,-0.66142 -19.88509,-0.84773 -12.595795,-0.31787 -13.606134,-0.27769 -16.4052,0.65248 -7.825485,2.60051 -18.015195,8.70293 -24.189556,14.48665 l -3.648084,3.41728 1.465673,4.31838 c 0.806119,2.37512 1.626344,4.41769 1.822721,4.53906 0.196377,0.12136 4.417237,-0.89465 9.379689,-2.25781 4.962452,-1.36316 11.636087,-3.03362 14.830299,-3.71214 3.194212,-0.67851 8.29522,-1.79856 11.335573,-2.489 10.135705,-2.30174 28.363685,-4.91758 41.947735,-6.0198 2.32407,-0.18858 4.78485,-0.41718 5.4684,-0.50801 10.75209,-1.42875 75.73971,-2.04754 88.48866,-0.84256 3.41775,0.32303 9.23414,0.84506 12.92531,1.16006 3.69117,0.31501 6.78527,0.64118 6.87577,0.72483 0.0905,0.0836 -0.061,0.57362 -0.33677,1.08884 -0.54326,1.01509 0.10021,0.98432 -12.21292,0.58384 -4.54385,-0.14778 -5.97286,-0.0426 -6.13891,0.45182 -0.15358,0.45727 0.33927,0.63436 1.69689,0.60971 2.06392,-0.0375 4.93853,0.3701 6.13892,0.8704 0.41013,0.17093 -1.24087,0.44104 -3.66889,0.60024 l -4.41459,0.28946 -2.86497,3.04806 c -4.4402,4.72397 -18.25967,20.91054 -20.90861,24.49 -1.30667,1.76567 -2.26622,3.38755 -2.13234,3.60417 0.13388,0.21662 4.25695,0.39386 9.16237,0.39386 9.28976,0 10.38625,0.28019 7.80042,1.99321 -0.92323,0.61161 -3.63582,0.74719 -15.53523,0.77649 -7.92918,0.0195 -16.43005,-0.0271 -18.89083,-0.10354 z m 6.86512,-7.63743 c 8.66485,-10.68247 13.93396,-16.96346 17.31157,-20.63611 2.01434,-2.1903 4.40828,-4.93071 5.31987,-6.08981 l 1.65744,-2.10746 h 4.43237 c 2.4378,0 4.43237,-0.20043 4.43237,-0.44539 0,-0.66901 -6.49425,-1.08885 -18.14514,-1.17303 -7.19478,-0.052 -10.40785,0.0902 -10.33727,0.45729 0.0563,0.293 -0.79584,0.93778 -1.89369,1.43284 -1.29059,0.58198 -4.87631,3.85772 -10.1451,9.26809 -8.01426,8.2296 -19.6312,21.13973 -19.6312,21.81653 0,0.69586 13.92773,1.88414 20.60965,1.75838 l 2.96164,-0.0557 z M 73.65752,251.38827 c 0.64263,-0.4153 0.629508,-0.48296 -0.09494,-0.48952 -0.462348,-0.004 -0.978892,0.2161 -1.147875,0.48952 -0.388844,0.62916 0.269258,0.62916 1.242818,0 z m 17.123701,-3.52366 c 6.850454,-1.39117 12.548579,-2.62156 12.662509,-2.7342 0.6243,-0.61726 -0.7838,-0.5338 -5.930045,0.35148 -7.97246,1.37145 -19.537234,3.94383 -20.102854,4.47152 -0.784613,0.732 0.362849,0.55273 13.37039,-2.0888 z m 19.722879,-3.65943 c 2.29153,-0.39623 5.84422,-0.85868 7.89487,-1.02766 2.05065,-0.16898 4.62329,-0.49583 5.71697,-0.72633 1.09368,-0.2305 3.89002,-0.5791 6.21409,-0.77467 4.40506,-0.37069 7.51716,-1.13115 4.88439,-1.19354 -1.88237,-0.0446 -18.63345,1.81462 -24.27235,2.69402 -2.59749,0.40509 -4.89049,0.74054 -5.09556,0.74544 -0.52569,0.0126 -0.46727,1.00317 0.0592,1.00317 0.23761,0 2.3069,-0.32419 4.59843,-0.72043 z m 31.50842,-3.75371 0.99425,-0.42725 -0.99425,0.0146 c -0.54684,0.008 -1.55352,0.19372 -2.23707,0.41264 l -1.24282,0.39802 1.24282,0.0146 c 0.68355,0.008 1.69023,-0.17765 2.23707,-0.41263 z m 50.88533,-1.30335 c 3.09049,-0.6181 0.87571,-1.18229 -4.64118,-1.18229 -6.00536,0 -8.1985,0.35643 -6.43762,1.04624 1.18042,0.46243 8.96871,0.55807 11.0788,0.13605 z m 116.30478,10.9063 c 0.35887,-0.14361 0.78764,-0.12595 0.95283,0.0392 0.16519,0.16519 -0.12842,0.28269 -0.65248,0.2611 -0.57912,-0.0239 -0.69692,-0.14165 -0.30035,-0.30034 z m -9.75115,-1.5117 c -2.54349,-0.41132 -4.52435,-0.84804 -4.4019,-0.97049 0.33401,-0.334 8.39453,0.84452 9.26522,1.35466 0.93044,0.54515 0.83839,0.53788 -4.86332,-0.38417 z M 247.8686,230.62215 c -1.51401,-1.26712 -2.70217,-3.38581 -2.70217,-4.81845 0,-1.87522 0.79237,-1.53327 2.26335,0.97677 1.44032,2.45772 3.00286,2.92013 5.04174,1.49205 0.81946,-0.57398 1.12118,-0.60251 1.31418,-0.12428 0.15298,0.37904 0.26581,0.2911 0.28977,-0.22585 0.0216,-0.46562 -0.22313,-1.42244 -0.54382,-2.12627 -0.44601,-0.97888 -0.44601,-1.41676 0,-1.86276 0.81496,-0.81496 0.72785,-1.54041 -0.14476,-1.20556 -0.4545,0.17441 -1.13688,-0.31902 -1.81703,-1.31391 -1.61869,-2.3677 -2.39964,-2.83602 -4.72916,-2.83602 -2.36714,0 -2.95783,-0.51906 -2.20068,-1.93381 1.70145,-3.17918 8.20019,-4.37231 11.39685,-2.09239 2.14919,1.53283 3.52148,4.57742 3.53533,7.84354 0.01,2.27404 -0.18501,2.76722 -1.66781,4.22558 -2.71419,2.66946 -6.19144,4.88322 -7.65161,4.87133 -0.74684,-0.006 -1.81972,-0.39757 -2.38418,-0.86997 z m -2.89755,-8.35649 c -0.16596,-0.43249 -0.30175,-0.87991 -0.30175,-0.99425 0,-0.38252 1.23432,-0.19826 1.98851,0.29683 0.66283,0.43513 0.66283,0.54391 0,0.97903 -1.03269,0.67792 -1.33812,0.62693 -1.68676,-0.28161 z m -124.13538,-2.79268 c -2.29715,-0.19124 -6.19001,-0.67924 -8.65079,-1.08445 -19.872956,-3.27241 -42.457743,-5.02748 -58.959123,-4.58174 -9.669973,0.26122 -12.338222,0.19681 -12.750309,-0.30777 -0.869385,-1.06452 -2.649937,-13.53209 -3.241285,-22.69574 -1.286277,-19.9324 1.698318,-43.57295 7.805158,-61.82353 7.313775,-21.85757 17.912899,-39.858788 36.069782,-61.259779 6.169833,-7.272204 25.436917,-25.25317 34.005747,-31.73579 4.43248,-3.353323 4.99769,-2.057032 1.449,3.323216 -3.88897,5.896137 -6.56114,10.62237 -9.85428,17.429146 -8.109766,16.762515 -12.864224,41.209761 -11.993508,61.670177 1.350431,31.73295 14.397128,68.44827 34.121948,96.02415 1.64087,2.29398 2.9834,4.37086 2.9834,4.61527 0,0.61418 -5.95578,0.84558 -10.98574,0.42684 z m 0.54607,-189.142922 c 0,-0.456955 -0.33368,-1.199535 -0.7415,-1.650177 -0.64471,-0.712388 -1.6025,-4.842138 -3.14041,-13.54063 -0.62467,-3.533118 0.0703,-4.014367 2.28184,-1.580191 3.8969,4.289139 7.04583,5.858044 13.77969,6.865516 2.50103,0.374187 3.97701,0.822666 3.97701,1.208418 0,0.337372 -1.93983,1.472861 -4.31075,2.523311 -4.41541,1.956278 -6.38758,3.151049 -9.25326,5.605791 -1.86632,1.598681 -2.59262,1.757792 -2.59262,0.567962 z"
       id="path7" /></g><metadata
     id="metadata182"><rdf:RDF><cc:Work
         rdf:about=""><cc:license
           rdf:resource="http://creativecommons.org/licenses/by-sa/4.0/" /><dc:publisher><cc:Agent><dc:title>OpenDataKerala.org</dc:title></cc:Agent></dc:publisher><dc:date>April 2026</dc:date><dc:title>Election Symbols of Kerala</dc:title><dc:creator><cc:Agent><dc:title>Manoj Karingamadathil</dc:title></cc:Agent></dc:creator></cc:Work><cc:License
         rdf:about="http://creativecommons.org/licenses/by-sa/4.0/"><cc:permits
           rdf:resource="http://creativecommons.org/ns#Reproduction" /><cc:permits
           rdf:resource="http://creativecommons.org/ns#Distribution" /><cc:requires
           rdf:resource="http://creativecommons.org/ns#Notice" /><cc:requires
           rdf:resource="http://creativecommons.org/ns#Attribution" /><cc:permits
           rdf:resource="http://creativecommons.org/ns#DerivativeWorks" /><cc:requires
           rdf:resource="http://creativecommons.org/ns#ShareAlike" /></cc:License></rdf:RDF></metadata></svg>
