<?xml version="1.0" encoding="UTF-8" standalone="no"?>
<!-- Created with Inkscape (http://www.inkscape.org/) -->

<svg
   width="1500"
   height="1500"
   viewBox="0 0 396.87499 396.875"
   version="1.1"
   id="svg5"
   xml:space="preserve"
   inkscape:version="1.2.2 (b0a8486541, 2022-12-01)"
   sodipodi:docname="aap.svg"
   inkscape:export-filename="bjp.png"
   inkscape:export-xdpi="96"
   inkscape:export-ydpi="96"
   xmlns:inkscape="http://www.inkscape.org/namespaces/inkscape"
   xmlns:sodipodi="http://sodipodi.sourceforge.net/DTD/sodipodi-0.dtd"
   xmlns="http://www.w3.org/2000/svg"
   xmlns:svg="http://www.w3.org/2000/svg"
   xmlns:rdf="http://www.w3.org/1999/02/22-rdf-syntax-ns#"
   xmlns:cc="http://creativecommons.org/ns#"
   xmlns:dc="http://purl.org/dc/elements/1.1/"><title
     id="title186">Election Symbols of Kerala</title><sodipodi:namedview
     id="namedview7"
     pagecolor="#ffffff"
     bordercolor="#000000"
     borderopacity="0.25"
     inkscape:showpageshadow="2"
     inkscape:pageopacity="0.0"
     inkscape:pagecheckerboard="0"
     inkscape:deskcolor="#d1d1d1"
     inkscape:document-units="mm"
     showgrid="false"
     inkscape:zoom="0.35355339"
     inkscape:cx="634.98189"
     inkscape:cy="920.65303"
     inkscape:window-width="1854"
     inkscape:window-height="1011"
     inkscape:window-x="0"
     inkscape:window-y="0"
     inkscape:window-maximized="1"
     inkscape:current-layer="layer1" /><defs
     id="defs2"><inkscape:path-effect
       effect="bspline"
       id="path-effect3248"
       is_visible="true"
       lpeversion="1"
       weight="33.333333"
       steps="2"
       helper_size="0"
       apply_no_weight="true"
       apply_with_weight="true"
       only_selected="false" /><inkscape:path-effect
       effect="bspline"
       id="path-effect577"
       is_visible="true"
       lpeversion="1"
       weight="33.333333"
       steps="2"
       helper_size="0"
       apply_no_weight="true"
       apply_with_weight="true"
       only_selected="false" /></defs><g
     inkscape:label="Layer 1"
     inkscape:groupmode="layer"
     id="layer1"><path
       style="fill:#000000;stroke-width:1.15763"
       d="m 37.509338,280.63152 c -0.376274,-0.37628 -0.154447,-1.32252 0.492877,-2.10264 0.832005,-1.00251 0.650999,-1.62025 -0.61731,-2.10692 -1.291016,-0.49541 -1.580092,-1.54246 -1.030512,-3.73234 0.507403,-2.02147 0.228828,-3.37452 -0.829642,-4.02863 -0.876458,-0.5417 -1.649046,-1.65788 -1.716819,-2.48044 -0.06782,-0.82251 -0.202576,-2.66761 -0.299708,-4.10017 -0.108069,-1.59383 -0.928523,-2.60465 -2.114533,-2.60465 -1.645852,0 -1.558522,-0.40428 0.578807,-2.6793 3.039819,-3.2357 3.237014,-4.76491 0.491214,-3.80869 -1.628308,0.56708 -1.57261,0.35528 0.283956,-1.07947 1.984412,-1.53367 2.065924,-1.94153 0.578807,-2.89692 -1.436014,-0.92257 -1.289354,-1.23296 0.860838,-1.82235 1.425381,-0.39072 2.335354,-1.12511 2.022083,-1.63199 -0.31327,-0.50683 -0.251579,-1.74994 0.136947,-2.76242 0.505258,-1.31666 2.237173,-1.84143 6.081301,-1.8427 2.956208,-0.001 11.017152,-1.07221 17.91322,-2.38046 6.896068,-1.30826 13.136284,-2.17938 13.867044,-1.93576 0.73084,0.2437 -5.054469,1.64572 -12.856134,3.11582 -7.801708,1.47009 -14.463304,3.12339 -14.803614,3.67397 -0.871383,1.40994 0.766594,1.26503 15.052656,-1.33175 6.952334,-1.26371 13.203532,-2.25288 13.891542,-2.19819 2.33872,0.18595 -5.657686,2.16441 -18.774933,4.64512 -7.193981,1.36049 -12.868118,2.6855 -12.609101,2.94452 0.560387,0.56039 19.327313,-2.57648 29.162044,-4.87438 8.75447,-2.04549 11.74971,-2.06798 12.50724,-0.0941 0.41434,1.07991 -0.43709,1.5927 -2.75477,1.65859 -1.84506,0.0525 -4.00356,0.49646 -4.79676,0.98667 -0.79315,0.49021 -2.23266,0.96961 -3.1989,1.06534 -0.96624,0.0958 -3.840542,0.73325 -6.38731,1.41667 -2.546812,0.68342 -7.199013,1.56881 -10.338282,1.96744 -3.139226,0.39859 -6.015366,0.915 -6.391422,1.14738 -0.375838,0.23232 -3.016849,0.76423 -5.868531,1.18189 -2.851682,0.41784 -5.679738,1.24202 -6.284621,1.83189 -1.519713,1.48204 0.380212,1.37113 9.553443,-0.55772 4.2642,-0.89662 12.441527,-2.52279 18.171755,-3.61368 5.730268,-1.09089 12.372178,-2.3711 14.759778,-2.84485 3.31782,-0.65835 4.34111,-0.48872 4.34111,0.7196 0,0.86954 -0.8856,1.58101 -1.96796,1.58101 -1.56731,0 -1.67534,0.29271 -0.53063,1.43733 1.14475,1.14475 1.63535,1.11705 2.40973,-0.13608 0.7806,-1.26305 1.69757,-1.0372 4.64918,1.14502 l 3.67678,2.71836 -3.25032,1.05554 c -1.7877,0.58056 -4.55266,1.93161 -6.14439,3.00233 -1.59177,1.07072 -5.1782,3.10838 -7.96994,4.52816 -2.7917,1.41973 -9.373398,5.41153 -14.625976,8.87063 -10.086616,6.64252 -14.222751,8.7641 -12.893626,6.61351 0.753512,-1.21921 -1.882774,-0.6198 -9.253079,2.10391 -1.369072,0.50591 -2.797079,0.61192 -3.173441,0.23582 z m 17.142425,-21.15444 c 0.58362,-7.4e-4 0.747387,-0.31502 0.364024,-0.6986 -0.864119,-0.86412 -16.964832,1.93322 -17.667109,3.06953 -0.280456,0.45385 3.259196,0.10632 7.866025,-0.77215 4.606829,-0.8786 8.853528,-1.59803 9.437192,-1.59878 z m 8.778667,-3.47424 c 0,-0.63669 -0.229702,-1.15761 -0.510465,-1.15761 -0.280893,0 -0.832486,0.52092 -1.225956,1.15761 -0.393338,0.63669 -0.163635,1.15762 0.510465,1.15762 0.674276,0 1.225956,-0.52093 1.225956,-1.15762 z m 4.630543,-1.15761 c 0,-0.63674 -0.229702,-1.15766 -0.510508,-1.15766 -0.280894,0 -0.832443,0.52092 -1.225956,1.15766 -0.393339,0.63669 -0.163636,1.15761 0.510508,1.15761 0.674276,0 1.225956,-0.52092 1.225956,-1.15761 z m 11.396535,-2.8799 c 1.26323,-1.19599 0.77224,-1.22828 -2.6047,-0.17152 -2.28871,0.71637 -4.16134,1.73104 -4.16134,2.25485 0,1.26096 4.79213,-0.21482 6.76604,-2.08351 z m 17.10436,0.89658 c -0.30715,-0.30715 -0.31021,-1.20531 -0.009,-1.99609 0.30364,-0.79079 -0.25333,-2.10601 -1.23738,-2.92265 -0.98365,-0.81665 -1.78875,-1.8606 -1.78875,-2.31978 0,-0.45923 4.55818,-1.7436 10.129232,-2.85413 5.5711,-1.11058 13.51532,-2.71325 17.65386,-3.56153 4.1385,-0.84828 12.73392,-2.41687 19.10085,-3.48575 15.31889,-2.57171 16.78548,-2.93674 16.78548,-4.17748 0,-1.09291 -0.36752,-1.05296 -12.55839,1.35664 -6.18263,1.22224 -7.51224,1.19568 -8.37517,-0.16713 -0.80948,-1.27846 -1.02951,-1.16519 -1.04351,0.53715 -0.0131,1.72723 -0.69782,2.05744 -3.42948,1.65648 -1.87643,-0.2752 -3.14802,-0.0739 -2.82574,0.44742 0.32246,0.52149 -0.87733,0.9511 -2.66582,0.95465 -1.78849,0.003 -5.07503,0.50162 -7.30349,1.10681 -8.77696,2.38362 -17.69704,3.88955 -23.731402,4.00641 -3.95329,0.0766 -4.68457,-0.29139 -5.00043,-2.515 -0.23714,-1.66983 0.23014,-2.6047 1.30235,-2.6047 0.91973,0 3.4304,-0.25858 5.57924,-0.57487 l 3.907002,-0.57491 -3.889242,1.2197 c -5.71806,1.79325 -3.65109,2.57415 2.62833,0.99297 5.301532,-1.33494 5.341962,-1.38032 2.530312,-2.83899 -1.66584,-0.86426 -5.181132,-1.27479 -8.430302,-0.98453 -3.71856,0.33208 -4.99518,0.14088 -3.83656,-0.5743 1.70299,-1.05152 8.73675,-2.57175 13.312732,-2.87737 1.27339,-0.0853 2.61389,-0.55741 2.97892,-1.04967 0.3649,-0.49222 2.69483,-1.15504 5.17732,-1.4729 2.4825,-0.31765 5.03268,-1.09693 5.66709,-1.73135 1.26092,-1.26091 -1.63014,-0.89089 -14.6307,1.87245 -9.650442,2.05131 -12.505362,2.07516 -12.505362,0.10457 0,-0.84893 0.77097,-1.54351 1.71327,-1.54351 1.95392,0 8.04612,-1.80441 19.613242,-5.80914 4.40758,-1.52597 8.79766,-2.4737 9.75571,-2.10605 1.6263,0.62405 12.7842,-2.6407 14.06529,-4.11544 0.31852,-0.36665 4.48581,-1.36356 9.26095,-2.21578 4.77519,-0.85217 9.46375,-2.01184 10.41888,-2.577 1.1192,-0.6625 0.39815,-0.77136 -2.0262,-0.30627 -2.06907,0.3964 -3.76187,0.46711 -3.76187,0.15664 0,-1.24534 13.96067,-5.18012 16.4419,-4.63413 2.20077,0.48421 2.35959,0.35221 0.92231,-0.76668 -1.41016,-1.09755 -1.15508,-1.22544 1.35502,-0.68027 3.5523,0.77153 7.03809,-0.23671 6.09478,-1.76307 -0.3544,-0.56997 0.0438,-1.06477 0.87462,-1.09955 8.64907,-0.36053 11.86885,-0.89926 12.25212,-2.04913 0.24939,-0.74835 2.20909,-1.36058 4.35429,-1.36058 4.35604,0 9.79802,-2.10189 9.79802,-3.78419 0,-0.60353 1.30253,-0.77044 2.89426,-0.37102 1.71117,0.42965 2.89381,0.22926 2.89381,-0.48964 0,-0.66881 0.65104,-1.42578 1.44735,-1.68217 0.79586,-0.25639 12.64679,-3.64838 26.33575,-7.53775 13.68897,-3.88941 29.83816,-8.55194 35.88656,-10.36125 6.04884,-1.80927 17.15988,-5.02909 24.6915,-7.15508 7.53163,-2.126 13.10356,-4.06215 12.38251,-4.30257 -0.72149,-0.24021 -5.76488,0.9514 -11.20774,2.64845 -5.4433,1.69708 -10.19049,2.79165 -10.5497,2.43239 -0.35877,-0.35921 -0.0437,-0.65318 0.73286,-0.65318 2.19377,0 31.41326,-11.77758 31.41326,-12.6617 0,-0.43752 -10.94566,3.53646 -24.32354,8.83078 -21.36847,8.45656 -53.17551,18.46599 -100.70035,31.68978 -4.77519,1.32869 -18.48166,5.55649 -30.45901,9.3951 -11.97692,3.83862 -22.07355,6.68247 -22.43635,6.31967 -0.36271,-0.36271 -1.74898,0.10326 -3.08038,1.03594 -1.33144,0.93254 -3.63792,1.69555 -5.12556,1.69555 -1.48769,0 -2.41936,0.4619 -2.07043,1.02649 0.90035,1.45684 -1.65937,3.29988 -5.71356,4.11386 -2.70524,0.54311 -2.958,0.45766 -1.15118,-0.38896 1.27343,-0.59675 3.30146,-1.40119 4.50681,-1.78774 1.20535,-0.38634 1.89244,-1.00181 1.52693,-1.36737 -0.36577,-0.36577 -3.58524,0.4279 -7.15491,1.76368 -3.56962,1.3356 -7.12188,2.41175 -7.89385,2.39153 -2.23411,-0.0586 2.86209,-3.43609 5.18458,-3.43609 1.15171,0 2.09402,-0.5046 2.09402,-1.1213 0,-0.61669 0.86683,-0.78864 1.92635,-0.38196 1.39869,0.53672 1.66677,0.3194 0.97875,-0.79398 -0.63551,-1.02828 -0.50079,-1.25711 0.40909,-0.6948 0.74616,0.46111 8.77088,-2.03984 17.83267,-5.55766 9.0621,-3.51782 17.89143,-6.73191 19.62098,-7.14231 1.72956,-0.41041 3.03208,-1.29605 2.89426,-1.96805 -0.21002,-1.03288 31.46882,-15.39463 47.50121,-21.53351 2.70612,-1.03611 4.92001,-2.44329 4.92001,-3.12698 0,-1.21217 10.11786,-5.92755 14.56053,-6.78576 1.22377,-0.23627 4.30878,-1.33783 6.85564,-2.44763 2.54685,-1.10974 5.67212,-2.42487 6.94577,-2.92247 7.30279,-2.85361 20.26459,-9.43023 21.00051,-10.65518 0.65761,-1.09514 0.46728,-1.12362 -0.80943,-0.1212 -1.65123,1.29675 -31.71778,14.31717 -33.06056,14.31717 -1.11657,0 -22.99739,9.67919 -37.715,16.68346 -7.52375,3.58073 -14.33914,6.13735 -15.33845,5.75385 -1.11526,-0.4279 -1.79825,-0.0542 -1.79825,0.98444 0,0.92096 -1.32702,2.279 -2.9485,3.0179 -3.67218,1.67307 -4.34641,1.68724 -3.3471,0.0704 0.43928,-0.71102 -0.38065,-0.58322 -1.86212,0.28921 -8.66526,5.11213 -16.71667,8.8751 -17.69542,8.2703 -0.62173,-0.38415 -0.82474,-0.20389 -0.45109,0.40078 0.3719,0.60449 -3.3226,2.71023 -8.21373,4.67937 -4.89136,1.96914 -10.84682,4.42714 -13.23442,5.46224 -2.38759,1.03511 -4.34112,1.68825 -4.34112,1.45146 0,-0.71685 23.13916,-14.07657 32.41346,-18.71455 9.22967,-4.61541 22.853,-12.62455 43.10184,-25.33914 7.09366,-4.45435 13.00644,-7.44184 13.78086,-6.96314 0.77662,0.47975 1.04876,0.33996 0.63661,-0.3264 -0.39815,-0.64067 4.86313,-4.97439 11.68683,-9.63053 6.8237,-4.6561 13.65834,-9.42901 15.18838,-10.60649 1.5296,-1.17743 3.09158,-1.83045 3.47092,-1.45115 0.38065,0.37934 -0.35003,1.49858 -1.62367,2.48722 -1.86256,1.44717 -1.91857,1.66143 -0.28877,1.09933 1.11395,-0.38415 2.02576,-0.16276 2.02576,0.49139 0,0.65428 0.57666,0.83328 1.28108,0.39772 0.91969,-0.56827 0.89169,-1.03262 -0.10063,-1.64472 -0.88556,-0.54726 0.83305,-2.25822 4.79663,-4.77506 10.6337,-6.75291 10.72733,-6.02849 0.28439,2.20869 -3.73912,2.94943 -1.62498,2.20887 3.17734,-1.11303 1.69148,-1.16977 6.21247,-3.90035 10.04741,-6.068 5.43411,-3.07158 7.11028,-3.58209 7.59725,-2.31387 0.34565,0.89501 1.29202,1.6193 2.10758,1.60954 1.10913,-0.0131 1.07588,-0.27565 -0.13126,-1.0408 -2.61905,-1.65854 -0.61167,-5.02423 2.47816,-4.15477 1.7755,0.49944 2.11808,0.39246 1.07107,-0.33471 -1.14895,-0.7984 -0.17501,-1.87026 3.85332,-4.22959 2.96601,-1.73812 5.61525,-2.93752 5.88739,-2.66534 0.27127,0.27215 -1.3314,1.47841 -3.56367,2.68057 -4.56824,2.46013 -5.10334,3.47831 -1.82844,3.47831 1.22683,0 2.02839,-0.3264 1.78206,-0.72547 -0.72849,-1.17818 6.43299,-5.96159 8.01596,-5.35421 0.79762,0.30627 2.06864,-0.43316 2.82425,-1.6431 0.75562,-1.20985 0.87944,-2.19972 0.27565,-2.19972 -0.60423,0 -1.37691,0.44991 -1.71687,0.99975 -0.34127,0.54989 -2.75993,0.99976 -5.37766,0.99976 h -4.75944 l 7.77795,-4.51215 c 4.27772,-2.48171 7.99278,-4.29723 8.25529,-4.0345 0.26252,0.26252 -1.93081,1.88925 -4.87451,3.61447 -5.20484,3.05015 -6.7025,5.61096 -1.72299,2.9461 1.81487,-0.97127 2.90388,-0.98689 4.02352,-0.0578 1.73086,1.4365 8.28942,-1.74889 13.36607,-6.49135 5.05433,-4.72194 9.72758,-8.084267 13.51833,-9.726487 2.02357,-0.876502 3.44773,-1.968005 3.16465,-2.425617 -0.2844,-0.457567 0.0962,-1.208936 0.84136,-1.669654 0.84618,-0.523153 1.04526,-0.336022 0.52941,0.498827 -1.25964,2.038141 0.70924,1.549158 3.94083,-0.978752 4.29128,-3.356503 5.77188,-2.715129 1.73655,0.752243 -2.55736,2.197752 -2.86275,2.796379 -1.1577,2.271388 2.18764,-0.67362 2.17889,-0.601078 -0.16189,1.315168 -5.53474,4.534814 -9.03672,6.648204 -10.70327,6.458974 -1.54097,-0.17501 -15.18312,8.50307 -15.18312,9.65828 0,0.89343 6.58481,-2.99813 8.04003,-4.75165 0.82736,-0.99704 2.04238,-1.81277 2.69999,-1.81277 0.65717,0 0.20126,1.15437 -1.01026,2.56527 l -2.20514,2.56528 2.89425,-1.98354 c 3.77062,-2.58422 10.91678,-6.42655 14.4542,-7.77143 2.24584,-0.85397 2.67112,-0.73094 2.15177,0.62243 -0.3544,0.92769 -0.9875,1.68672 -1.40315,1.68672 -0.41566,0 -2.18371,1.32343 -3.92814,2.94093 -1.74443,1.6175 -3.17164,2.6488 -3.17164,2.29174 0,-0.59798 -6.33323,2.54379 -10.41844,5.16813 -4.33198,2.78286 -24.68538,11.499 -25.57225,10.9509 -0.54473,-0.33646 -3.92595,0.77684 -7.51412,2.47432 -4.69294,2.21998 -6.08253,3.36613 -4.95152,4.08284 1.22246,0.77443 1.1157,1.00037 -0.47909,1.01415 -1.12839,0.009 -6.59794,2.61949 -12.15499,5.79945 -5.55706,3.18 -9.58276,5.78076 -8.94572,5.77953 0.63661,-0.001 5.25473,-2.34253 10.26224,-5.20292 5.00752,-2.86038 9.75121,-5.20073 10.54095,-5.20073 0.78974,0 10.49763,-4.33241 21.57236,-9.62756 11.07473,-5.29514 23.65237,-11.14136 27.95022,-12.99149 4.29785,-1.85018 7.81383,-3.97373 7.81383,-4.71893 0,-0.74528 0.8243,-1.67122 1.83106,-2.05769 3.00888,-1.15455 3.38078,-0.80414 0.99669,0.93915 -3.82401,2.79629 -0.872,3.39978 3.47835,0.71107 2.26203,-1.39794 4.11277,-1.97828 4.11277,-1.28966 0,0.68863 -0.45065,1.25204 -1.0015,1.25204 -0.55085,0 -2.43047,1.12379 -4.17621,2.49728 l -3.17471,2.49724 2.61554,1.4 c 1.43904,0.77001 3.70894,1.1378 5.04471,0.81731 1.54054,-0.36971 0.84137,0.5204 -1.91112,2.43384 -2.38716,1.65915 -5.02721,2.7528 -5.8677,2.43034 -0.84006,-0.32246 -6.44087,2.03927 -12.44595,5.24829 -6.00465,3.20901 -16.38764,8.4653 -23.07309,11.6807 -21.96919,10.56655 -24.35198,11.80055 -25.09053,12.99571 -0.40252,0.65047 2.34385,-0.42047 6.10222,-2.38021 3.75837,-1.95964 11.37444,-5.43445 16.92449,-7.7219 14.45814,-5.95884 14.13525,-5.85317 13.18275,-4.31224 -1.4526,2.35041 0.6331,1.5482 16.41695,-6.3142 8.46706,-4.21773 15.76242,-7.30074 16.21176,-6.85113 1.01463,1.01441 -2.72799,3.93653 -7.05209,5.50661 -1.78337,0.64754 -3.03645,1.38316 -2.78531,1.63469 0.24939,0.25158 2.74768,-0.3509 5.54699,-1.33836 8.71077,-3.07337 3.3156,0.0564 -7.04377,4.08622 -5.4118,2.10517 -10.33706,4.27129 -10.94523,4.8136 -1.28939,1.15005 17.06057,-5.42868 20.66362,-7.40819 1.34015,-0.73636 4.19984,-1.40946 6.35423,-1.49578 3.53567,-0.14176 3.71156,-0.009 1.80437,1.38793 -1.16164,0.84963 -2.86975,1.54482 -3.79556,1.54482 -1.43466,0 -7.62745,2.67514 -21.0272,9.0828 -2.86319,1.36924 -2.85707,1.37738 0.57885,0.76519 2.92575,-0.52123 3.13708,-0.41521 1.34058,0.672 -1.17301,0.70994 -4.68287,1.40539 -7.80026,1.54544 -3.11696,0.14001 -6.06328,0.65056 -6.54718,1.13447 -0.48391,0.48391 0.68211,0.56503 2.59061,0.18026 3.24515,-0.6541 3.28759,-0.61989 0.65191,0.52652 -1.55016,0.67432 -3.4696,0.97604 -4.2659,0.67043 -0.7963,-0.3054 -1.61186,-0.13913 -1.81225,0.37015 -0.20126,0.5092 -14.42926,5.47843 -31.62021,11.04275 -17.19051,5.56431 -36.72573,12.08258 -43.41118,14.48505 -6.685,2.40247 -16.06168,5.69382 -20.83731,7.31412 -7.57845,2.57158 -41.59851,15.47361 -48.04156,18.21958 -1.27321,0.54271 -1.85469,1.01979 -1.29159,1.06018 0.5631,0.0394 10.98154,-3.63998 23.15272,-8.17851 35.1209,-13.09655 85.49753,-30.09087 87.22927,-29.42636 0.87112,0.33428 1.29159,0.1352 0.93456,-0.44256 -0.35877,-0.57758 1.04832,-1.38854 3.12309,-1.80209 3.0312,-0.6041 49.25437,-15.42106 58.22634,-18.66441 1.33796,-0.48365 1.88006,-0.38853 1.32002,0.23189 -0.52241,0.57898 -3.38778,1.92394 -6.36692,2.9888 -2.97957,1.06486 -4.48948,1.97649 -3.35628,2.02585 1.13364,0.0494 5.3011,-1.28896 9.26117,-2.97402 3.96008,-1.68505 9.28393,-3.71952 11.83078,-4.52107 2.54686,-0.80151 5.54787,-1.82502 6.66926,-2.27445 1.55935,-0.62492 1.87087,-0.37846 1.32352,1.04814 -0.44059,1.14773 -0.10938,1.87219 0.85493,1.88308 1.21196,0.0131 1.17433,0.2739 -0.16626,1.1399 -2.42566,1.56744 -3.76275,1.42883 -2.79231,-0.28921 0.44978,-0.79586 -0.26689,-0.33602 -1.58692,1.02211 -1.32221,1.358 -7.13828,4.43125 -12.92372,6.82948 -5.78589,2.39818 -10.29156,4.58849 -10.01285,4.86742 0.52722,0.52722 19.75093,-6.82077 25.15353,-9.61461 2.6558,-1.37349 3.28453,-1.35818 4.50261,0.10982 1.17564,1.41645 0.97613,1.70597 -1.17607,1.70597 -1.98857,0 -2.45629,0.51891 -2.00914,2.22864 0.3894,1.48847 0.0919,2.04011 -0.89649,1.66099 -1.34059,-0.51445 -22.73532,5.70332 -38.77556,11.26908 -5.8257,2.0213 -5.97315,2.15369 -1.73655,1.55651 4.51267,-0.63608 4.5643,-0.60497 2.024,1.22294 -1.43378,1.0316 -3.12264,1.55681 -3.75312,1.1671 -0.63092,-0.38983 -2.06251,-0.17544 -3.18171,0.47656 -1.25002,0.72796 -1.45041,1.19865 -0.51978,1.22027 0.83349,0.0175 1.19008,0.56214 0.79192,1.20609 -0.39815,0.644 2.04545,0.0678 5.43017,-1.27999 3.38517,-1.34798 6.93571,-2.70353 7.89084,-3.0123 0.95512,-0.30889 2.77831,-0.99883 4.05152,-1.53341 1.27364,-0.53461 4.39891,-1.57409 6.94577,-2.31002 4.80581,-1.38858 13.31313,-4.47045 22.97551,-8.32328 3.08633,-1.23055 5.89658,-1.95186 6.24573,-1.60289 0.35002,0.34915 -0.61342,1.13359 -2.13821,1.7436 -1.52522,0.61 -1.99119,1.15358 -1.0365,1.20792 2.22614,0.12689 -6.7957,4.23712 -12.9176,5.88564 -2.57442,0.69314 -4.40242,1.5384 -4.06246,1.87836 0.34127,0.33996 2.51142,-0.009 4.82507,-0.77027 2.31365,-0.76362 4.44617,-1.14926 4.73844,-0.85703 0.29314,0.29227 -11.07298,3.7603 -25.25636,7.70672 -27.61157,7.68301 -39.57755,11.44462 -36.7848,11.56349 1.69586,0.0722 26.17954,-6.84724 30.57802,-8.64163 1.56066,-0.63669 1.968,-0.50355 1.37865,0.45039 -1.20495,1.94976 1.13451,1.66918 3.18565,-0.38196 0.95512,-0.95504 3.0452,-1.73646 4.64524,-1.73646 1.59961,0 3.23028,-0.52093 3.62362,-1.15762 0.39377,-0.63669 1.75055,-1.15761 3.01545,-1.15761 2.74068,0 19.1572,-5.20393 26.50418,-8.40169 5.57106,-2.42475 11.57614,-4.40155 11.57614,-3.81066 0,0.37583 -10.87084,5.78094 -13.89154,6.90709 -0.95513,0.35615 0.43315,0.51375 3.08633,0.35046 2.6523,-0.1632 4.54067,0.15882 4.1959,0.71646 -0.34565,0.55745 0.61123,0.67033 2.12333,0.2507 2.50923,-0.69611 2.57354,-0.62077 0.7368,0.86241 -1.8875,1.52378 -1.85163,1.71039 0.57885,2.98986 1.84199,0.96978 1.94875,1.17542 0.36752,0.71076 -1.22245,-0.35965 -2.52498,-0.22883 -2.89425,0.29096 -0.5736,0.80724 -5.82264,2.27979 -19.77237,5.5466 l -2.89382,0.67777 2.89382,-1.76797 c 1.59173,-0.9724 2.24321,-1.78643 1.44735,-1.809 -0.79587,-0.0219 -2.50048,1.0124 -3.78813,2.29991 -1.67836,1.67823 -7.00352,3.29228 -18.81155,5.70144 -34.78049,7.09637 -42.17997,8.88761 -41.11459,9.95286 0.31502,0.31677 8.56681,-1.25807 18.33246,-3.50014 9.76608,-2.24207 19.43547,-4.07646 21.48792,-4.07646 2.05244,0 3.90538,-0.4706 4.11758,-1.04573 0.21001,-0.57518 2.99051,-1.33294 6.17397,-1.68396 3.18346,-0.3509 8.12185,-1.21222 10.97366,-1.91384 2.85225,-0.70162 6.10791,-1.0345 7.23542,-0.73969 1.12707,0.29489 2.04938,0.17632 2.04938,-0.26383 0,-0.4398 1.43247,-1.62122 3.18346,-2.62539 3.69406,-2.11834 11.81941,-3.93553 10.09336,-2.25713 -0.61692,0.59964 -2.68424,1.26057 -4.59449,1.46874 -2.01614,0.21964 -3.35148,0.98549 -3.18346,1.82551 0.15751,0.79591 -0.46116,1.44704 -1.37866,1.44704 -0.9175,0 -2.00301,0.54183 -2.41253,1.20403 -0.80112,1.29622 4.87538,0.31633 6.97465,-1.20403 2.56698,-1.85898 7.52462,-2.382 7.52462,-0.79381 0,0.86105 -0.38503,1.94963 -0.85362,2.41901 -2.06033,2.06054 -0.75561,4.76469 2.59017,5.36659 2.42216,0.43578 -0.0437,1.07479 -8.10347,2.112 -6.36692,0.81796 -12.87867,1.74176 -14.4704,2.05289 -2.73324,0.53431 -2.76562,0.48412 -0.57885,-0.90263 1.27321,-0.80759 4.65925,-2.08977 7.52463,-2.84918 2.86493,-0.75947 5.08539,-1.93611 4.93357,-2.61476 -0.15313,-0.67861 0.44716,-0.95666 1.33009,-0.61784 0.88293,0.33865 1.94919,0.0595 2.36966,-0.62046 0.85711,-1.38666 -0.9385,-1.56053 -4.96902,-0.48132 -2.01832,0.54048 -2.31147,0.97149 -1.1577,1.7029 1.14326,0.72464 0.94594,0.98392 -0.75824,0.99704 -3.89313,0.0306 -12.15718,3.969 -12.18037,5.80588 0,1.25076 -0.27126,1.34566 -0.91006,0.33908 -0.68473,-1.07724 -1.94,-1.01283 -5.48136,0.2809 l -4.59274,1.67832 6.36692,-0.50448 c 3.50198,-0.27739 8.97153,-0.79258 12.15499,-1.1447 5.19084,-0.57417 5.39561,-0.51668 1.98463,0.55653 -2.09182,0.65827 -3.53042,1.63881 -3.19658,2.17907 0.71054,1.14965 -3.10996,2.32617 -8.04878,2.47865 -1.91026,0.0591 -2.78575,0.38196 -1.9457,0.71794 2.83738,1.13434 14.2,-0.85043 13.31532,-2.32582 -0.48916,-0.81559 -0.0525,-0.74305 1.08639,0.1807 1.16557,0.94489 2.93406,1.22561 4.56342,0.72442 1.4631,-0.45004 2.29834,-0.4349 1.856,0.035 -0.942,0.99713 -15.36733,4.21192 -19.16508,4.27098 -1.43247,0.0219 -2.60461,0.26252 -2.60461,0.53414 0,0.2717 1.17214,0.96479 2.60461,1.54063 2.19202,0.88113 1.84069,1.05855 -2.21871,1.12029 -2.65274,0.0394 -5.04208,-0.31721 -5.30897,-0.79482 -0.2669,-0.47752 -0.3369,-0.24808 -0.15751,0.50977 0.28439,1.20648 -2.41735,2.03324 -14.59728,4.46511 -0.95512,0.19076 -2.67899,0.38634 -3.83056,0.43534 -1.15202,0.0486 -1.77593,0.60353 -1.38697,1.23292 0.39815,0.64614 -0.0437,0.85602 -1.01857,0.48206 -0.94944,-0.36446 -4.75331,-0.0131 -8.45306,0.78147 -5.76006,1.23624 -6.31091,1.5664 -3.83275,2.29664 l 2.89382,0.85283 -3.08677,0.11551 c -1.69805,0.0634 -3.2609,-0.37365 -3.4731,-0.9711 -0.23627,-0.66299 -2.6418,-0.5953 -6.17397,0.1737 -3.18346,0.69305 -5.16809,1.47548 -4.41029,1.73874 0.75823,0.26339 3.23246,-0.035 5.49886,-0.65914 2.2664,-0.62579 4.12065,-0.73111 4.12065,-0.23408 0,0.49704 -5.86027,1.78363 -13.02305,2.85912 -27.29524,4.09821 -41.94502,6.65285 -42.52256,7.41516 -0.32814,0.4349 -3.17471,0.93303 -6.32273,1.10721 -3.14802,0.17413 -7.1851,1.04587 -8.97153,1.93711 -2.33946,1.16702 -3.25302,1.24035 -3.26615,0.26208 0,-0.86429 -0.38503,-0.77806 -1.02819,0.23714 -0.55566,0.87747 -1.58955,1.23742 -2.29747,0.79994 -0.70792,-0.43753 -1.28808,-0.37409 -1.28939,0.14088 -0.004,1.2341 -12.98236,4.16154 -56.14241,12.66299 -8.27718,1.63036 -16.091,3.20201 -17.36465,3.49253 -1.27321,0.29052 -5.18034,0.98693 -8.68232,1.54754 -7.20615,1.15367 -35.48714,10.22986 -42.63225,13.68201 -2.591532,1.25207 -4.963112,2.02527 -5.270172,1.71822 z m 2.44154,-5.66189 c -0.38459,-0.38458 -1.38316,-0.42571 -2.2188,-0.0914 -0.92349,0.36971 -0.64916,0.64382 0.69939,0.69939 1.22036,0.0503 1.90409,-0.22314 1.51941,-0.60803 z m 19.414382,-16.10504 c 7.64035,-1.60184 16.88363,-3.48006 20.54058,-4.17385 3.65696,-0.69379 6.36482,-1.72133 6.01743,-2.28342 -0.34565,-0.56205 0.19688,-0.70477 1.20495,-0.31721 1.01025,0.38765 4.0327,0.13782 6.71651,-0.55514 2.6838,-0.69291 12.95435,-3.18344 22.82325,-5.5345 9.8689,-2.35106 17.30252,-4.49136 16.5189,-4.75629 -0.78317,-0.2647 -4.31009,0.35746 -7.83745,1.38286 -3.5278,1.02552 -8.87746,2.0993 -11.88897,2.38628 -9.49,0.90433 -37.20247,6.73985 -36.60419,7.70793 0.31502,0.50945 -0.1282,0.65751 -0.98409,0.32902 -0.85616,-0.32859 -3.6181,-0.1142 -6.1377,0.47581 -2.5196,0.59018 -3.53922,1.16203 -2.26583,1.27072 l 2.31527,0.19776 -2.31527,0.9949 c -1.27339,0.54721 -3.35712,0.99489 -4.6305,0.99489 h -2.31527 l 2.31527,-0.99489 c 1.59781,-0.68662 1.76731,-1.0201 0.547,-1.07628 -0.97259,-0.0446 -2.95022,0.74651 -4.39481,1.75834 -1.44459,1.01183 -3.44978,1.52378 -4.45601,1.13766 -1.00623,-0.3859 -2.54484,-0.10851 -3.4192,0.61731 -0.87436,0.72564 -1.58972,0.93128 -1.58972,0.45704 0,-0.47428 -0.75858,-0.23276 -1.68571,0.53672 -0.92717,0.76948 -2.19351,1.08525 -2.8141,0.70167 -0.62059,-0.38372 -1.45557,-0.16802 -1.85547,0.47918 -1.04902,1.69739 0.72311,1.50737 16.19513,-1.73642 z m 22.26025,1.05589 c -0.38459,-0.38459 -1.38316,-0.42572 -2.2188,-0.0915 -0.92349,0.36972 -0.64916,0.64387 0.69939,0.69939 1.22036,0.0503 1.90408,-0.22314 1.51941,-0.60799 z m 4.63071,-1.15762 c -0.38502,-0.38458 -1.38346,-0.42571 -2.21914,-0.0914 -0.92319,0.36971 -0.64886,0.64387 0.69961,0.69939 1.22026,0.0503 1.90412,-0.22314 1.51953,-0.60799 z m 35.3624,-2.84512 c 7.49793,-1.41251 13.42951,-2.77152 13.181,-3.01995 -0.82693,-0.82702 -30.86548,4.77427 -30.86548,5.75552 0,0.53072 0.91137,0.71019 2.02576,0.39902 1.11395,-0.31152 8.16035,-1.72185 15.65872,-3.13437 z m -34.47027,0.0718 c 0.39377,-0.63669 0.16188,-1.15761 -0.5106,-1.15761 -0.67423,0 -1.22596,0.52092 -1.22596,1.15761 0,0.63669 0.23189,1.15761 0.5106,1.15761 0.28002,0 0.83262,-0.52092 1.22596,-1.15761 z m -37.07056,-4.74391 c 0.62217,-0.60891 -0.68014,-0.49471 -2.89403,0.25377 -5.18358,1.75257 -6.18981,2.73937 -1.71004,1.677 1.91008,-0.45297 3.98195,-1.32181 4.60407,-1.93077 z m 27.80951,-1.50304 c 7.64044,-1.63932 23.78919,-5.08888 35.88643,-7.66575 12.09723,-2.57683 23.8182,-5.17457 26.04653,-5.77271 16.29841,-4.37459 -37.82043,5.71544 -59.61768,11.11533 -6.36697,1.57729 -13.04943,3.04536 -14.84995,3.26233 -1.80048,0.21701 -3.88421,1.03764 -4.6305,1.82362 -1.05887,1.11526 -0.84842,1.29609 0.9584,0.82343 1.27339,-0.33296 8.56643,-1.94696 16.20677,-3.58625 z m 76.40337,-0.1597 c 0.63704,-0.28045 -1.70724,-0.20257 -5.20924,0.17239 -3.50198,0.37496 -6.79788,1.08594 -7.32511,1.57987 -0.91268,0.85563 10.11044,-0.6853 12.53435,-1.75217 z m 8.68232,-1.69685 2.89426,-0.92686 -2.89426,-0.035 c -1.59173,-0.0175 -3.93601,0.41346 -5.20922,0.96085 l -2.3154,0.9949 2.3154,-0.035 c 1.27321,-0.0175 3.61749,-0.45114 5.20922,-0.9609 z m -67.88656,-6.82068 c 20.25803,-5.20659 32.69304,-7.49461 34.53766,-6.35467 0.72979,0.45096 0.97219,0.27958 0.55653,-0.3929 -0.44015,-0.71169 1.2369,-1.48454 4.16222,-1.91826 18.16446,-2.69338 36.51049,-6.9004 35.99158,-8.25328 -0.45635,-1.18877 -1.17039,-1.17844 -3.67437,0.0534 -3.05133,1.50063 -7.01096,2.34143 -38.41593,8.15654 -15.01074,2.77945 -52.05937,11.63726 -53.12305,12.70094 -1.18312,1.18312 3.38332,0.27039 19.96536,-3.99171 z m 53.64936,-3.17178 c -0.74074,-0.741 -13.5459,2.16791 -13.5459,3.07723 0,0.47769 3.14365,0.0766 6.98603,-0.89125 3.84237,-0.9679 6.79438,-1.95159 6.55987,-2.18598 z m -45.63339,-1.58385 c 0.89737,0 0.86587,-0.42878 -0.10501,-1.39743 -1.09119,-1.09146 -1.83893,-0.92874 -3.41491,0.74319 -1.92163,2.03871 -1.91681,2.10521 0.10063,1.39742 1.16645,-0.40865 2.70305,-0.74318 3.41491,-0.74318 z m -12.48095,-3.02525 c 2.78881,-1.27006 2.903,-1.44162 0.57841,-0.87139 -1.59173,0.39028 -4.45667,1.42162 -6.36692,2.29139 -2.78907,1.2701 -2.903,1.44161 -0.57885,0.87138 1.59173,-0.39028 4.45711,-1.42162 6.36736,-2.29138 z m 29.5192,-1.5265 c 6.68544,-1.85547 11.11323,-3.40966 9.84002,-3.45376 -1.27364,-0.0442 -7.52462,1.44988 -13.89154,3.31997 -6.36692,1.87008 -10.79515,3.42427 -9.84002,3.45376 0.95512,0.0306 7.20653,-1.46449 13.89154,-3.31997 z m -12.2355,-4.13044 c 6.15603,-2.22843 12.00011,-4.0517 12.9863,-4.0517 0.98663,0 3.43504,-0.75815 5.44154,-1.6847 2.00607,-0.9266 5.7312,-2.43892 8.27805,-3.36071 13.73534,-4.97146 31.3179,-11.15182 31.73836,-11.15628 0.2669,-0.002 0.18377,-0.30233 -0.17938,-0.66583 -0.57754,-0.57776 -70.1464,23.3002 -71.40167,24.50721 -1.31084,1.26026 2.97957,0.0884 13.13549,-3.58799 z m 35.38821,-1.0338 c 0,-1.09815 -3.46522,-1.65158 -4.08302,-0.65209 -0.37627,0.60886 0.38941,1.10708 1.69937,1.10708 1.31083,0 2.38365,-0.20477 2.38365,-0.45499 z m 8.71297,-3.95198 c -0.35877,-0.35658 -1.29071,-7.4e-4 -2.07609,0.7904 -1.13451,1.1433 -1.0015,1.27627 0.64843,0.64807 1.14152,-0.43491 1.78381,-1.08206 1.42766,-1.43847 z m 31.44301,0.31327 c 9.33818,-2.10604 11.28431,-2.73311 10.6022,-3.41548 -0.28001,-0.28002 -3.34972,0.24721 -6.82195,1.17113 -7.67294,2.04191 -10.6757,2.24707 -8.04965,0.54993 2.27909,-1.47289 -0.13126,-1.49026 -3.97627,-0.0306 -3.18914,1.21248 -4.04232,3.50154 -1.30514,3.50154 0.91574,0 5.21359,-0.80033 9.55081,-1.77851 z m -9.11722,-0.16976 c 0.83568,-0.33427 1.83412,-0.29314 2.21914,0.0915 0.38503,0.38458 -0.29752,0.6583 -1.51953,0.60803 -1.34847,-0.0556 -1.6228,-0.3299 -0.69961,-0.69939 z m 104.40357,-0.36665 c 0,-0.63669 -0.23189,-1.15761 -0.51015,-1.15761 -0.28002,0 -0.83262,0.52092 -1.22596,1.15761 -0.39378,0.63669 -0.16189,1.15766 0.51016,1.15766 0.67467,0 1.22595,-0.52097 1.22595,-1.15766 z m -114.02615,-1.70303 c 2.54686,-0.9175 3.58862,-1.65146 2.31541,-1.63094 -2.82731,0.0455 -11.12024,3.1293 -8.68233,3.22848 0.95513,0.0394 3.82007,-0.68005 6.36692,-1.59754 z m -3.44247,-2.70389 c -0.35878,-0.35659 -1.29028,-7.4e-4 -2.07564,0.7904 -1.13495,1.1433 -1.00194,1.27627 0.64798,0.64802 1.14195,-0.4349 1.78424,-1.08201 1.42766,-1.43842 z m 28.23505,0.19251 c 1.16164,-1.00181 -4.12852,-0.26339 -5.69181,0.79456 -1.26796,0.85816 -0.79981,0.96558 1.73655,0.39815 1.91025,-0.42703 3.68968,-0.96401 3.95526,-1.19279 z m 17.27145,-0.48347 c 3.37554,-0.72393 5.88126,-1.57221 5.56843,-1.88509 -0.73199,-0.7319 -13.51614,1.99369 -15.79785,3.36805 -1.82756,1.101 -1.80175,1.0972 10.22942,-1.48296 z m -29.90904,0.0674 c 0,-0.63669 -0.52065,-1.15761 -1.1577,-1.15761 -0.6366,0 -1.1577,0.52092 -1.1577,1.15761 0,0.6367 0.5211,1.15762 1.1577,1.15762 0.63705,0 1.1577,-0.52092 1.1577,-1.15762 z m 106.79118,-0.76668 c -0.79587,-0.32114 -2.09795,-0.32114 -2.89382,0 -0.79586,0.32115 -0.14438,0.58388 1.44691,0.58388 1.59173,0 2.24277,-0.26251 1.44691,-0.58388 z m -100.69815,-1.83803 c 0.35878,-0.935 -0.62085,-1.49053 -2.76387,-1.56998 -2.9892,-0.1107 -3.11695,0.0263 -1.29683,1.41019 2.55254,1.93795 3.36941,1.97011 4.0607,0.1597 z m 61.53362,-2.04098 c 6.3153,-1.90387 11.78485,-3.7859 12.15543,-4.1823 0.3719,-0.3964 -0.36752,-0.42221 -1.64204,-0.0573 -1.27365,0.3649 -7.2643,2.05608 -13.31269,3.75825 -6.04884,1.70216 -11.21474,3.29161 -11.47989,3.53212 -1.31521,1.19209 3.9067,0.0766 14.27919,-3.05075 z M 252.968,185.8462 c -0.38502,-0.38459 -1.38303,-0.42572 -2.21871,-0.0914 -0.92362,0.36972 -0.64929,0.64387 0.69917,0.69939 1.22071,0.0503 1.90413,-0.22314 1.51954,-0.60799 z m 32.17894,-1.39231 c -0.35878,-0.35658 -1.29027,-7.4e-4 -2.07564,0.7904 -1.13495,1.14331 -1.00194,1.27627 0.64798,0.64807 1.14151,-0.43491 1.78424,-1.08206 1.42766,-1.43847 z m -22.60449,-0.80238 c 2.62911,-1.01249 3.23902,-1.57287 1.73655,-1.59615 -1.27321,-0.0219 -3.87782,0.67975 -5.78807,1.55437 -4.47986,2.05131 -1.25308,2.0846 4.05152,0.0438 z m -81.61272,-1.73642 c 0.39378,-0.63669 0.16189,-1.15766 -0.5106,-1.15766 -0.67423,0 -1.22595,0.52097 -1.22595,1.15766 0,0.63669 0.23189,1.15761 0.51059,1.15761 0.28002,0 0.83262,-0.52092 1.22596,-1.15761 z m 89.40292,-0.69944 c -0.38503,-0.38458 -1.38347,-0.42571 -2.21915,-0.0914 -0.92318,0.36971 -0.64885,0.64383 0.69961,0.69939 1.22027,0.0503 1.90413,-0.22358 1.51954,-0.60803 z m 7.25904,-1.61583 c 1.43816,-0.92923 1.3384,-1.12218 -0.57885,-1.12218 -1.27321,0 -3.09639,0.50495 -4.05152,1.12218 -1.43816,0.92922 -1.3384,1.12217 0.57885,1.12217 1.27321,0 3.09639,-0.50495 4.05152,-1.12217 z m -6.36692,-1.15762 c 1.4596,-0.62711 1.67355,-0.99489 0.57885,-0.99489 -0.95513,0 -2.77831,0.44768 -4.05152,0.99489 -1.45959,0.62711 -1.67355,0.9949 -0.57885,0.9949 0.95469,0 2.77831,-0.44772 4.05152,-0.9949 z m -60.17247,-7.59882 c 8.71251,-4.17932 15.58259,-7.85728 15.26669,-8.17317 -0.31502,-0.3159 -7.79239,3.07622 -16.61472,7.53814 -8.82235,4.46192 -15.69243,8.13983 -15.26715,8.17321 0.4244,0.035 7.90221,-3.35882 16.61518,-7.53818 z m 20.2344,6.44117 c 2.11589,-1.3675 0.28877,-1.3675 -2.89426,0 -1.52654,0.65603 -1.72386,1.01659 -0.57885,1.05855 0.95513,0.035 2.51798,-0.44133 3.47311,-1.05855 z m 50.93536,-2.43625 c 3.11739,-1.7345 -1.30209,-1.13683 -5.20922,0.70446 l -3.47267,1.63667 3.47267,-0.68745 c 1.91025,-0.37802 4.25453,-1.12226 5.20922,-1.65368 z m 72.73611,0.0394 c 1.54316,-0.0652 1.46616,-0.28133 -0.38502,-1.07627 -3.12046,-1.34094 -4.32235,-1.37459 -3.53393,-0.0989 0.35878,0.58235 0.25815,1.27837 -0.22314,1.5467 -0.48171,0.26865 -0.18376,0.31284 0.66636,0.0989 0.84793,-0.21396 2.41079,-0.42572 3.47267,-0.47044 z m -62.49531,-2.99217 c 3.59955,-1.05374 6.00552,-2.1018 5.34616,-2.32905 -0.65979,-0.22708 -4.04583,0.59683 -7.52462,1.83132 -7.84095,2.78207 -6.59662,3.06633 2.17846,0.49773 z m 14.85629,-5.36633 c 0.4721,-0.7638 4.4e-4,-0.92678 -1.27014,-0.43906 -1.11177,0.42659 -2.49961,0.77556 -3.08415,0.77556 -0.58453,0 -1.06275,0.47218 -1.06275,1.04928 0,1.3472 4.42823,0.21439 5.41704,-1.38574 z m -57.2139,-3.94402 c 4.30178,-1.67022 7.61563,-3.24248 7.36405,-3.49393 -0.59023,-0.5904 -19.23683,6.58595 -19.23683,7.40364 0,0.67581 0.41565,0.53957 11.87278,-3.90967 z m 59.58662,1.26582 c -0.38502,-0.38459 -1.38303,-0.42572 -2.21871,-0.0915 -0.92362,0.36971 -0.64929,0.64387 0.69917,0.69944 1.22027,0.0503 1.90413,-0.22314 1.51954,-0.60804 z m -35.57285,-2.77341 c 0.95469,-0.61722 1.21546,-1.12218 0.57885,-1.12218 -0.63704,0 -1.93912,0.50496 -2.89425,1.12218 -0.95513,0.61718 -1.21545,1.12217 -0.57885,1.12217 0.6366,0 1.93913,-0.50499 2.89425,-1.12217 z m -35.88655,-3.47289 c 0.95512,-0.61722 1.21545,-1.12217 0.57885,-1.12217 -0.63661,0 -1.93913,0.50495 -2.89426,1.12217 -0.95512,0.61718 -1.21545,1.12218 -0.57885,1.12218 0.63661,0 1.93913,-0.505 2.89426,-1.12218 z m 6.94577,-3.47288 c 0.95512,-0.61723 1.21545,-1.12218 0.57885,-1.12218 -0.63661,0 -1.93913,0.50495 -2.89425,1.12218 -0.95513,0.61717 -1.21546,1.12217 -0.57886,1.12217 0.63661,0 1.93913,-0.505 2.89426,-1.12217 z m 39.15621,-5.79214 c 5.93683,-2.56117 11.25499,-4.37179 11.81853,-4.02356 0.5631,0.34827 1.95706,0.11244 3.09726,-0.52416 1.1402,-0.63647 4.88939,-2.31619 8.33187,-3.73265 5.31466,-2.18685 5.91889,-2.72703 4.00601,-3.58052 -1.7033,-0.76003 -7.10853,1.1994 -22.1639,8.03452 -10.95135,4.97182 -19.91675,9.43479 -19.92375,9.91769 0,0.48294 0.89956,0.35746 2.01394,-0.27827 1.11395,-0.63599 6.88321,-3.25185 12.82004,-5.81301 z m 11.77915,-5.08151 c 0,-0.25026 0.80855,-0.76519 1.79693,-1.14435 1.02994,-0.39553 1.4946,-0.20127 1.08901,0.45494 -0.67948,1.09999 -2.88594,1.62699 -2.88594,0.68941 z m 8.10347,-4.07072 c 0.95513,-0.54031 3.03908,-1.3276 4.63081,-1.7495 l 2.89381,-0.76717 -2.89381,1.74373 c -1.59173,0.95902 -3.67568,1.74631 -4.63081,1.74955 -1.54316,0.004 -1.54316,-0.10326 0,-0.97661 z m -76.9902,13.79997 c 0.4069,-0.65621 -0.0569,-0.85025 -1.08945,-0.45495 -2.00563,0.76957 -2.37228,1.59935 -0.70749,1.59935 0.59942,0 1.40797,-0.51498 1.79694,-1.1444 z m 4.05983,-1.17088 c 0,-0.63669 -0.23189,-1.15761 -0.5106,-1.15761 -0.28002,0 -0.83262,0.52092 -1.22596,1.15761 -0.39377,0.6367 -0.16188,1.15762 0.5106,1.15762 0.67423,0 1.22596,-0.52092 1.22596,-1.15762 z m 19.13138,-0.93403 c -0.35877,-0.35659 -1.29027,-7.5e-4 -2.07563,0.79039 -1.13495,1.14331 -1.00194,1.27628 0.64798,0.64803 1.14151,-0.43491 1.78424,-1.08201 1.42765,-1.43842 z M 248.6509,148.841 c 0,-0.31852 -1.04175,-0.0219 -2.31496,0.66027 -1.27365,0.6815 -2.3154,1.49959 -2.3154,1.81794 0,0.31852 1.04175,0.0219 2.3154,-0.66028 1.27321,-0.68149 2.31496,-1.49959 2.31496,-1.81793 z m 23.99671,-0.0394 c -0.38502,-0.38459 -1.38303,-0.42571 -2.21871,-0.0914 -0.92362,0.36971 -0.64929,0.64386 0.69961,0.69943 1.22027,0.0503 1.90369,-0.22314 1.5191,-0.60803 z m 69.06481,-5.73627 3.60043,-1.67998 -3.34491,0.64755 c -1.83981,0.35615 -4.96552,1.4035 -6.94577,2.32752 l -3.60087,1.67994 3.34535,-0.64755 c 1.83981,-0.35615 4.96508,-1.4035 6.94577,-2.32748 z m 11.12505,-4.64327 c 0,-0.31852 -1.04176,-0.0219 -2.31497,0.66027 -1.27364,0.6815 -2.3154,1.49959 -2.3154,1.81794 0,0.31852 1.04176,0.0219 2.3154,-0.66028 1.27321,-0.68149 2.31497,-1.49958 2.31497,-1.81793 z m -54.96194,-2.73998 c 4.12458,-1.87017 7.49924,-3.67166 7.49924,-4.0033 0,-0.58489 -15.0593,5.87023 -16.08312,6.89396 -1.22683,1.22714 1.60748,0.27258 8.58388,-2.89066 z m 26.16029,-2.97607 c 4.69862,-2.23363 7.2411,-3.72884 5.64937,-3.32268 -3.01851,0.77013 -16.16407,7.23082 -14.91055,7.32808 0.39378,0.0306 4.56212,-1.77182 9.26118,-4.0054 z m -36.02526,0.58821 c 0.95469,-0.61722 1.21546,-1.12217 0.57886,-1.12217 -0.63705,0 -1.93913,0.50495 -2.89426,1.12217 -0.95512,0.61718 -1.21545,1.12218 -0.57885,1.12218 0.63661,0 1.93913,-0.505 2.89425,-1.12218 z m 8.61407,-4.08853 c 1.23558,-0.93478 1.72605,-1.69963 1.08945,-1.69963 -0.6366,0 -2.16883,0.76485 -3.40485,1.69963 -1.23602,0.93478 -1.72605,1.69962 -1.08945,1.69962 0.63661,0 2.16883,-0.76484 3.40485,-1.69962 z m 23.81601,-11.54774 c 8.26799,-4.14309 15.03262,-7.76448 15.03262,-8.04751 0,-0.78616 -29.60889,13.54711 -31.13237,15.07094 -1.55191,1.55187 2.6103,-0.26383 16.09975,-7.02343 z m -19.1082,1.72973 c 0.41128,-0.66273 -0.55566,-0.58034 -2.25064,0.19207 -1.63242,0.74371 -2.9682,1.80787 -2.9682,2.36475 0,1.18457 4.16877,-0.85782 5.21884,-2.55678 z m 26.68445,-1.7853 c 2.11852,-1.69752 2.08176,-1.72163 -0.6471,-0.42221 -3.54355,1.68763 -4.20028,2.22234 -2.72931,2.22234 0.62086,0 2.14039,-0.81013 3.37641,-1.8003 z m -15.12581,-3.9746 c 0.4069,-0.6562 -0.0612,-0.85029 -1.08901,-0.45494 -2.00563,0.76957 -2.37272,1.5993 -0.70748,1.5993 0.59898,0 1.40753,-0.51497 1.79649,-1.14436 z m 11.65271,-13.38982 c 2.11895,-1.69753 2.08176,-1.721637 -0.64711,-0.42222 -3.54311,1.68764 -4.20027,2.22234 -2.7293,2.22234 0.62129,0 2.14039,-0.81013 3.37641,-1.8003 z M 45.587128,238.7464 c 0.581738,-0.53103 3.662379,-1.26433 6.845839,-1.62954 3.319838,-0.38065 4.800829,-0.2717 3.472885,0.25596 -3.535145,1.40473 -11.516766,2.46718 -10.318724,1.37358 z m 31.73484,0.60576 c 0,-0.24415 1.30235,-0.69283 2.89408,-0.99713 1.59173,-0.30409 2.89408,-0.10457 2.89408,0.44387 0,0.5484 -1.30235,0.99708 -2.89408,0.99708 -1.59173,0 -2.89408,-0.19951 -2.89408,-0.44382 z M 61.115203,235.2435 c 0,-0.67962 0.65113,-1.24276 1.446995,-1.25147 0.795909,-0.009 2.749388,-0.30495 4.341118,-0.65843 2.11042,-0.46864 2.423866,-0.34565 1.157657,0.45459 -3.085847,1.94989 -6.94577,2.75866 -6.94577,1.45531 z m 15.545265,-3.49205 c 2.50131,-1.30576 5.09166,-2.37412 5.75631,-2.37412 2.20261,0 -3.48597,3.31804 -6.92551,4.03953 -2.96439,0.62181 -2.82106,0.41784 1.1692,-1.66541 z M 313.47825,203.46566 c 0,-0.24414 1.28677,-0.68981 2.85925,-0.99039 1.57204,-0.30058 2.58317,-0.10107 2.24671,0.44387 -0.59285,0.95915 -5.10596,1.44223 -5.10596,0.54652 z m -119.45284,-8.4503 c 0.83568,-0.33427 1.83412,-0.29315 2.21871,0.0914 0.38502,0.38459 -0.29752,0.65831 -1.5191,0.60804 -1.34891,-0.0556 -1.62324,-0.3299 -0.69961,-0.69939 z m 128.71401,-36.67201 c 0,-0.7641 12.85153,-4.47977 13.44439,-3.887 0.25376,0.2542 -1.75537,1.09946 -4.46542,1.87874 -2.71006,0.77933 -5.83926,1.67928 -6.95321,1.99995 -1.11439,0.32071 -2.02576,0.32421 -2.02576,0.009 z m 34.72885,-3.29831 c 0.3194,-0.31327 2.39022,-1.18225 4.60412,-1.93077 2.2139,-0.74848 3.51598,-0.86272 2.89382,-0.25377 -0.62217,0.60895 -2.69387,1.4778 -4.60412,1.93077 -1.90981,0.45298 -3.21234,0.56717 -2.89382,0.25377 z m -25.46811,-17.12033 c 0.95512,-0.61718 2.51797,-1.09356 3.4731,-1.05851 1.14501,0.0438 0.94769,0.40252 -0.57885,1.05851 -3.18259,1.36754 -5.01014,1.36754 -2.89425,0 z m -81.49807,-4.28284 c 5.42142,-4.89892 6.92958,-6.02468 21.04164,-15.70453 14.24856,-9.77365 18.33946,-11.82014 8.06322,-4.0334 -13.50389,10.23209 -33.86955,24.04348 -29.10486,19.73793 z m 92.45116,-0.92511 c 2.52279,-0.89842 4.80888,-1.41103 5.08059,-1.13919 0.68473,0.68464 -5.33042,2.88563 -7.71626,2.8235 -1.07282,-0.0262 0.11376,-0.78589 2.63567,-1.68431 z m -64.20386,-1.1048 c 0,-0.75824 10.69146,-5.37666 11.22087,-4.84712 0.24501,0.24457 -1.91419,1.55309 -4.79663,2.90812 -5.38992,2.53342 -6.42424,2.84564 -6.42424,1.939 z m 79.87615,-0.63298 c 0.95512,-0.61718 2.25765,-1.12217 2.89425,-1.12217 0.63661,0 0.37628,0.50499 -0.57885,1.12217 -0.95513,0.61723 -2.25721,1.12218 -2.89382,1.12218 -0.63704,0 -0.37627,-0.50495 0.57842,-1.12218 z m -42.83189,-1.18588 c 0,-0.42046 4.65443,-2.88471 10.34318,-5.47598 6.47368,-2.94863 10.10867,-4.09968 9.7162,-3.07644 -0.34564,0.89921 -1.48366,1.6578 -2.52935,1.68576 -1.04613,0.0262 -5.41836,1.75646 -9.7162,3.84107 -4.29785,2.0846 -7.81383,3.44615 -7.81383,3.02559 z m -52.0935,-1.43491 c 0,-0.90433 8.2321,-6.64025 9.52981,-6.64025 0.48872,0 0.88906,0.52097 0.88906,1.15766 0,0.63669 -0.56791,1.15761 -1.26183,1.15761 -0.69348,0 -2.29615,1.1721 -3.56105,2.60466 -1.26446,1.43255 -1.96844,1.95352 -1.56416,1.15765 0.93675,-1.84331 -0.81862,-1.88176 -2.64268,-0.0577 -0.76392,0.76401 -1.38915,1.04329 -1.38915,0.62055 z m 83.34925,-4.32498 c 0.95512,-0.61718 2.25765,-1.12217 2.89425,-1.12217 0.63661,0 0.37628,0.50499 -0.57885,1.12217 -0.95512,0.61722 -2.25765,1.12218 -2.89425,1.12218 -0.63661,0 -0.37628,-0.50496 0.57885,-1.12218 z m -70.03656,-4.63049 c 0.39378,-0.6367 1.23646,-1.15766 1.87306,-1.15766 0.6366,0 0.83568,0.52096 0.44234,1.15766 -0.39377,0.63669 -1.23645,1.15761 -1.87306,1.15761 -0.6366,0 -0.83568,-0.52092 -0.44234,-1.15761 z m 42.83233,-13.89155 c 0.39377,-0.63669 1.23645,-1.15765 1.87306,-1.15765 0.6366,0 0.83568,0.52096 0.44234,1.15765 -0.39378,0.6367 -1.23646,1.15762 -1.87306,1.15762 -0.63704,0 -0.83568,-0.52092 -0.44234,-1.15762 z m -17.94306,-0.45498 c 0,-0.25027 0.80811,-0.7652 1.79649,-1.14436 1.02994,-0.39552 1.4946,-0.20126 1.08901,0.45494 -0.67948,1.1 -2.8855,1.627 -2.8855,0.68942 z m 5.78807,-2.93039 c 0,-0.54858 0.78142,-1.29728 1.73655,-1.6638 0.95469,-0.36665 1.73611,-0.21745 1.73611,0.33121 0,0.54862 -0.78142,1.29728 -1.73611,1.66379 -0.95513,0.36665 -1.73655,0.21746 -1.73655,-0.3312 z"
       id="path4944"
       sodipodi:nodetypes="sssssssssssssssssssssssssssssssssssssssssscsssssssssssssssssssssssssssssccsssssssscsssssssscssssssssssssssssssssssccsssssssssssssssssssssssssssssssssscssssssssssssscscsssssscssscsssssssscscsssssscssscscssssssscssssscssssccsscssssssscssssssssssssscssssssssssssscsssssssssssssssssssscsscsssssssssssscsssssssssssscssssssssssscsssssssssssssssssssscsssscsscssssssscsssscscssscssssscsscssssssssscssssscsscssscsssscsscsscsssssssccssssssscsssssssssscsscssssssssssssssssssssssssssssssssssssssssssssssssscccsccccssssssssssssssscsssssssssssscsssssssssssssscssccssscsccsssssssssssssscsscsssssssssssssssssssscssssssssssssscsscccsccssssssssssssssssssssssscssssssscsssscssssssssssssssssssssssssssssssssssssssssssssscssssssssscsssccscssssscsscssssssssssscsscsssssssssssssssssssssssssssssssssssssssccscsssssssssssssssssssssssssssssssssssssssssssscsssssssscssssssssssssscsssssssssssssssssssssssssssssssssss" /></g><metadata
     id="metadata182"><rdf:RDF><cc:Work
         rdf:about=""><cc:license
           rdf:resource="http://creativecommons.org/licenses/by-sa/4.0/" /><dc:creator><cc:Agent><dc:title>Jameela P</dc:title></cc:Agent></dc:creator><dc:publisher><cc:Agent><dc:title>OpenDataKerala.org</dc:title></cc:Agent></dc:publisher><dc:date>April 2026</dc:date><dc:title>Election Symbols of Kerala</dc:title></cc:Work><cc:License
         rdf:about="http://creativecommons.org/licenses/by-sa/4.0/"><cc:permits
           rdf:resource="http://creativecommons.org/ns#Reproduction" /><cc:permits
           rdf:resource="http://creativecommons.org/ns#Distribution" /><cc:requires
           rdf:resource="http://creativecommons.org/ns#Notice" /><cc:requires
           rdf:resource="http://creativecommons.org/ns#Attribution" /><cc:permits
           rdf:resource="http://creativecommons.org/ns#DerivativeWorks" /><cc:requires
           rdf:resource="http://creativecommons.org/ns#ShareAlike" /></cc:License></rdf:RDF></metadata></svg>
