<?xml version="1.0" encoding="UTF-8" standalone="no"?>
<!-- Created with Inkscape (http://www.inkscape.org/) -->

<svg
   width="1500"
   height="1500"
   viewBox="0 0 396.87499 396.875"
   version="1.1"
   id="svg5"
   xml:space="preserve"
   inkscape:version="1.3 (0e150ed6c4, 2023-07-21)"
   sodipodi:docname="Calculator.svg"
   inkscape:export-filename="Calculator.png"
   inkscape:export-xdpi="96"
   inkscape:export-ydpi="96"
   xmlns:inkscape="http://www.inkscape.org/namespaces/inkscape"
   xmlns:sodipodi="http://sodipodi.sourceforge.net/DTD/sodipodi-0.dtd"
   xmlns="http://www.w3.org/2000/svg"
   xmlns:svg="http://www.w3.org/2000/svg"
   xmlns:rdf="http://www.w3.org/1999/02/22-rdf-syntax-ns#"
   xmlns:cc="http://creativecommons.org/ns#"
   xmlns:dc="http://purl.org/dc/elements/1.1/"><title
     id="title186">Election Symbols of Kerala</title><sodipodi:namedview
     id="namedview7"
     pagecolor="#ffffff"
     bordercolor="#000000"
     borderopacity="0.25"
     inkscape:showpageshadow="2"
     inkscape:pageopacity="0.0"
     inkscape:pagecheckerboard="0"
     inkscape:deskcolor="#d1d1d1"
     inkscape:document-units="mm"
     showgrid="false"
     inkscape:zoom="0.25"
     inkscape:cx="230"
     inkscape:cy="1078"
     inkscape:window-width="1920"
     inkscape:window-height="991"
     inkscape:window-x="-9"
     inkscape:window-y="-9"
     inkscape:window-maximized="1"
     inkscape:current-layer="layer1" /><defs
     id="defs2"><inkscape:path-effect
       effect="bspline"
       id="path-effect3248"
       is_visible="true"
       lpeversion="1"
       weight="33.333333"
       steps="2"
       helper_size="0"
       apply_no_weight="true"
       apply_with_weight="true"
       only_selected="false" /><inkscape:path-effect
       effect="bspline"
       id="path-effect577"
       is_visible="true"
       lpeversion="1"
       weight="33.333333"
       steps="2"
       helper_size="0"
       apply_no_weight="true"
       apply_with_weight="true"
       only_selected="false" /></defs><g
     inkscape:label="Layer 1"
     inkscape:groupmode="layer"
     id="layer1"><path
       style="fill:#000000;stroke-width:1.56349"
       d="m 257.27348,382.71703 c -21.70572,-0.3543 -55.55344,-1.1132 -63.70582,-1.42836 -3.07153,-0.11882 -14.61303,-0.49047 -25.64779,-0.82607 -22.72348,-0.69108 -40.76098,-1.32395 -47.15886,-1.6546 -2.38897,-0.12351 -11.60355,-0.49797 -20.47688,-0.83223 -27.150209,-1.02276 -35.337972,-1.67244 -38.476324,-3.05303 -2.169581,-0.95442 -4.274058,-3.09406 -5.280057,-5.36829 -2.007525,-4.53835 -1.970501,-9.13069 0.734248,-91.05431 0.736718,-22.31431 1.281267,-40.64795 1.861463,-62.67163 0.65426,-24.83519 1.606239,-58.17277 2.073145,-72.59983 0.231944,-7.1669 0.788688,-26.43377 1.237192,-42.81527 1.297918,-47.404683 2.055712,-71.152701 2.458139,-77.033445 0.427037,-6.240437 0.870772,-7.363375 3.502037,-8.862712 1.663713,-0.948016 1.974957,-0.970128 18.652596,-1.325279 10.790337,-0.22978 27.344801,-0.195385 45.504151,0.09454 15.69894,0.250649 54.60499,0.647477 86.45791,0.881845 72.54073,0.533737 118.26522,1.468032 121.93447,2.491504 2.29468,0.640057 4.29339,2.858967 5.11245,5.675695 0.73914,2.541879 0.70104,8.281069 -0.25607,38.571967 -0.57119,18.07758 -1.18292,46.976605 -1.86953,88.319435 -0.33627,20.24935 -0.79772,46.31082 -1.0254,57.91439 -0.91059,46.40583 -1.67825,89.0355 -2.05971,114.3809 -0.56208,37.34587 -0.83372,47.81863 -1.31437,50.67509 -0.82532,4.90474 -3.61608,8.2326 -7.99919,9.53877 -4.23994,1.26349 -33.37129,1.6483 -74.2578,0.98092 z m 43.43579,-4.06037 c 0,-0.41162 -14.14766,-0.74876 -45.29732,-1.07939 -11.60355,-0.12321 -24.72737,-0.40083 -29.16403,-0.61705 -9.69011,-0.47224 -46.6282,-1.03314 -46.32272,-0.70342 0.25585,0.27616 19.29622,0.92856 45.70221,1.56595 10.46596,0.25263 24.05516,0.5951 30.19821,0.76105 16.64242,0.44958 44.88365,0.49544 44.88365,0.0729 z m 8.80569,-0.35182 c -1.18618,-0.0833 -3.23387,-0.0841 -4.55043,-0.002 -1.31655,0.0824 -0.34604,0.1504 2.15669,0.15134 2.50273,9.4e-4 3.57991,-0.0664 2.39374,-0.14962 z m 9.92555,0.002 c -0.96009,-0.0868 -2.63547,-0.0879 -3.72307,-0.002 -1.08758,0.0855 -0.30205,0.15647 1.74564,0.15774 2.04768,10e-4 2.93752,-0.0686 1.97743,-0.15541 z m 11.79271,-1.35401 c 1.15353,-0.49624 2.43636,-1.2821 2.85075,-1.74636 0.58749,-0.65823 0.25236,-0.5656 -1.52178,0.42058 -2.20225,1.22413 -5.2424,1.99669 -9.10085,2.31267 -1.02383,0.0838 -0.1659,0.0991 1.90653,0.0339 2.75312,-0.0866 4.33294,-0.36158 5.86535,-1.02079 z m -1.33308,-1.69147 c 1.44329,-0.44578 3.19901,-1.29421 3.9016,-1.8854 1.59495,-1.34205 1.31443,-1.78774 -0.37019,-0.58818 -2.64526,1.88358 -4.98327,2.56971 -10.72533,3.14748 l -5.65682,0.56919 5.11329,-0.21628 c 3.36248,-0.14228 6.0118,-0.4938 7.73745,-1.02681 z m -178.01015,0.1601 c -0.51192,-0.0987 -1.34961,-0.0987 -1.86153,0 -0.51192,0.0987 -0.093,0.17929 0.93076,0.17929 1.02384,0 1.4427,-0.0807 0.93077,-0.17929 z m 162.33332,-0.11976 c 9.21299,-0.40157 13.99917,-0.76128 13.71987,-1.03112 -0.076,-0.0735 -3.48902,0.03 -7.58438,0.22991 -10.14807,0.49538 -65.13698,0.47714 -81.72591,-0.027 -7.4083,-0.22519 -19.04289,-0.69277 -25.85462,-1.0391 -6.81175,-0.34631 -22.71649,-0.80923 -35.34391,-1.0287 -12.62739,-0.21948 -24.82045,-0.4976 -27.09564,-0.61803 -2.27521,-0.12039 -13.72366,-0.40837 -25.44097,-0.63983 -11.71732,-0.23146 -25.7719,-0.59406 -31.232399,-0.80579 -16.7593,-0.64982 -25.461092,-0.82102 -20.890549,-0.41098 3.772302,0.33842 17.868942,0.96691 32.266588,1.43858 3.7541,0.12305 11.57253,0.40329 17.37431,0.62287 11.09502,0.41994 17.15524,0.576 48.39988,1.24646 24.7324,0.53073 46.89108,1.11127 63.29216,1.65821 7.16689,0.23901 14.7061,0.48217 16.75379,0.54036 11.02185,0.31323 55.23452,0.21851 63.36178,-0.13571 z m -169.05553,-0.44219 c -5.19951,-0.43194 -28.1134,-1.2348 -33.09393,-1.15953 l -3.9299,0.0594 3.9299,0.34952 c 5.87058,0.52213 20.70367,1.06268 29.37086,1.07035 6.7522,0.006 7.19041,-0.0316 3.72307,-0.31972 z m 161.33293,-0.78371 c 3.23498,-0.19566 -0.47141,-0.31056 -11.58287,-0.35909 -19.46034,-0.0849 -65.94774,-1.08408 -99.90232,-2.1471 -7.05314,-0.22081 -23.24849,-0.67982 -35.98964,-1.02001 -12.74117,-0.34018 -28.37806,-0.80454 -34.74864,-1.0319 -6.37059,-0.22736 -17.26055,-0.60781 -24.19994,-0.84541 -12.200141,-0.41775 -26.244388,-1.01449 -33.507611,-1.42374 -5.358481,-0.30192 -2.20959,0.45973 4.051573,0.97999 12.061051,1.00219 59.018658,2.54328 101.849008,3.34257 11.71734,0.21867 25.30653,0.58503 30.19823,0.81416 35.87851,1.68055 89.5495,2.55437 103.83221,1.69053 z m -199.08932,-0.26747 c -0.13743,-0.13743 -0.49425,-0.15213 -0.79286,-0.0327 -0.33001,0.13212 -0.23199,0.23007 0.24992,0.24992 0.43608,0.018 0.68041,-0.0799 0.54294,-0.21727 z m -8.575115,-0.59024 c -1.706396,-0.16099 -5.057165,-0.28418 -7.446135,-0.27373 -4.084531,0.0178 -4.170883,0.0349 -1.447857,0.28655 1.592652,0.14713 4.943405,0.27035 7.446135,0.27374 4.409362,0.006 4.454232,-0.003 1.447857,-0.28656 z m -15.418589,-0.70276 c -0.858279,-0.0896 -2.161341,-0.088 -2.895714,0.003 -0.734372,0.0913 -0.03221,0.16465 1.560507,0.16282 1.592636,-0.002 2.193487,-0.0766 1.335207,-0.16616 z m 247.377774,0.0519 c -0.13744,-0.13743 -0.49427,-0.15213 -0.79288,-0.0327 -0.33001,0.13211 -0.23198,0.23006 0.24992,0.24992 0.43609,0.018 0.68042,-0.0799 0.54296,-0.21728 z m 4.59365,-2.64624 c 0.0802,-0.24042 -0.70928,0.13993 -1.75429,0.84515 -1.04499,0.70526 -1.89999,1.37273 -1.89999,1.48327 0,0.35641 3.50345,-1.8759 3.65428,-2.32842 z m -270.370687,0.9675 c -0.284399,-0.11476 -0.749789,-0.11476 -1.034188,0 -0.2844,0.11476 -0.05175,0.20867 0.517094,0.20867 0.568799,0 0.801493,-0.094 0.517094,-0.20867 z m 254.513017,-1.32816 c 7.28898,-0.28135 8.98677,-0.4679 10.5487,-1.15912 2.62051,-1.15968 4.38279,-3.31375 4.91137,-6.00329 0.23757,-1.20879 0.72405,-16.25238 1.08108,-33.43021 0.35701,-17.17782 0.91993,-43.89083 1.25092,-59.36223 0.33099,-15.47142 0.7943,-38.74059 1.02959,-51.70928 0.23529,-12.96867 0.6074,-33.35248 0.82693,-45.29732 0.21953,-11.94485 0.59272,-34.19017 0.82932,-49.43406 0.23662,-15.2439 0.61588,-35.441534 0.84282,-44.883647 0.22694,-9.442113 0.58884,-25.913231 0.80423,-36.602487 l 0.39162,-19.435007 -1.06184,-1.108335 c -0.97717,-1.019934 -1.3967,-1.126852 -5.26002,-1.340461 -7.01631,-0.387943 -47.16048,-1.056802 -78.03899,-1.30024 -16.04022,-0.126455 -44.14939,-0.400973 -62.4648,-0.610039 -18.31543,-0.209065 -53.78008,-0.509722 -78.81035,-0.668126 l -45.509563,-0.288004 -1.20636,1.037666 -1.20636,1.037667 -0.331445,10.71309 c -0.182303,5.8922 -0.620566,20.393066 -0.973931,32.224147 -0.810327,27.130072 -1.71093,56.484386 -2.26547,73.840836 -0.70734,22.1391 -1.618137,54.87616 -2.071613,74.46135 -0.56564,24.42862 -1.88762,68.71508 -2.914225,97.6271 -0.456447,12.85493 -0.947915,29.73597 -1.092132,37.51343 -0.237307,12.7971 -0.196468,14.24118 0.429648,15.19678 1.729849,2.64008 3.26387,2.91169 19.91618,3.52628 21.461021,0.79205 34.572241,1.23028 44.056311,1.47256 5.11922,0.13071 16.84687,0.50614 26.06147,0.83413 9.21459,0.328 25.03762,0.78886 35.1623,1.02412 10.12469,0.23525 29.76386,0.72012 43.64263,1.07751 50.81948,1.30861 76.87892,1.60653 91.42198,1.04519 z m -31.43923,-2.82476 c -18.42037,-0.0977 -56.51081,-0.79021 -75.08186,-1.36512 -7.16691,-0.22187 -21.03532,-0.59111 -30.81873,-0.82052 -9.78339,-0.22941 -25.79258,-0.69416 -35.57597,-1.03278 -9.7834,-0.3386 -27.84027,-0.90223 -40.12641,-1.25248 -40.326528,-1.14964 -43.091659,-1.37486 -44.677494,-3.63894 -0.925057,-1.3207 -0.748304,-1.78943 0.310947,-0.82463 0.511919,0.46628 1.344057,1.06075 1.849159,1.32107 0.96516,0.4974 18.648812,1.46315 34.657589,1.89275 5.005459,0.13431 14.964659,0.42119 22.131569,0.63748 7.1669,0.2163 16.47457,0.49347 20.6837,0.61596 4.20914,0.12242 16.7745,0.49348 27.92302,0.82444 11.14851,0.33095 28.64693,0.79521 38.88537,1.03167 10.23844,0.23647 25.31686,0.61774 33.50761,0.84726 8.19075,0.22952 30.6643,0.44943 49.94125,0.48867 l 35.04897,0.0713 1.56118,-1.25636 c 3.10984,-2.50264 3.42272,-3.34674 3.42272,-9.23382 0,-2.88366 0.17934,-11.37265 0.39851,-18.86442 0.21918,-7.49177 0.59605,-24.13907 0.83748,-36.99399 0.24144,-12.85492 0.62182,-29.98103 0.8453,-38.05802 0.38605,-13.95269 0.70658,-29.40236 1.62636,-78.39125 0.77948,-41.5166 0.85483,-45.69258 1.24644,-69.08359 0.21712,-12.96869 0.49372,-28.047107 0.61467,-33.507606 0.12101,-5.460499 0.32349,-15.140474 0.45007,-21.511057 0.31329,-15.767107 0.97122,-32.070122 1.31679,-32.629262 0.64195,-1.038687 0.82227,2.723649 0.49914,10.414302 -0.40967,9.750281 -1.28441,52.776382 -2.87378,141.353123 -0.23679,13.19621 -0.60878,31.81154 -0.82663,41.36741 -0.21786,9.55588 -0.58523,26.12353 -0.81641,36.81701 -2.26549,104.79857 -2.19446,102.51026 -3.26881,105.31535 -1.01583,2.65225 -2.21442,3.94197 -4.22304,4.54409 -0.77589,0.23258 -5.31991,0.51146 -10.09784,0.61974 -4.77794,0.10835 -9.80408,0.2393 -11.1692,0.29118 -1.36513,0.0519 -9.55588,0.0568 -18.20167,0.0109 z M 60.152348,354.47639 c -0.17483,-0.41817 -0.101783,-5.25815 0.162181,-10.75553 0.264027,-5.49737 0.757841,-21.44365 1.097369,-35.43618 0.339528,-13.99252 0.894318,-34.44123 1.232861,-45.44156 0.338543,-11.00033 0.654807,-22.44876 0.70279,-25.44095 0.08412,-5.24691 0.09193,-5.29107 0.220844,-1.24146 0.07348,2.3094 -0.347518,22.04165 -0.935563,43.84945 -0.588046,21.80781 -1.17115,47.0967 -1.295792,56.19752 -0.219593,16.03358 -0.474661,19.96696 -1.18469,18.26871 z M 275.5239,345.46473 c -11.58752,-0.29792 -13.06954,-0.41301 -13.79703,-1.07137 -2.09811,-1.89878 -2.06445,-1.25173 -1.36891,-26.30495 0.35497,-12.78648 0.74564,-23.85454 0.86817,-24.59572 0.13587,-0.82233 0.63206,-1.61576 1.27289,-2.03563 0.96739,-0.63386 2.95112,-0.65567 25.17582,-0.27683 26.75012,0.45597 25.26387,0.2765 27.11684,3.27467 l 0.93844,1.51842 -0.48309,17.63513 c -0.2657,9.69934 -0.48077,20.29708 -0.47796,23.55054 0.005,6.13957 -0.3921,7.94406 -1.87494,8.51308 -0.86248,0.33096 -20.71805,0.22079 -37.37023,-0.20734 z m 36.15035,-4.39618 c 0.001,-1.30835 0.12305,-12.0588 0.27022,-23.88988 0.14712,-11.83107 0.12492,-18.71876 -0.0494,-15.30593 -0.17433,3.4128 -0.46387,13.52024 -0.64341,22.46095 -0.31889,15.87902 -0.34642,16.26653 -1.1877,16.71677 -0.95381,0.51047 -41.35751,0.0985 -45.13752,-0.4602 -1.97356,-0.2917 -2.01237,-0.32159 -0.84645,-0.65204 1.26728,-0.35918 31.79655,-0.009 40.61173,0.46466 l 5.01665,0.27006 0.28809,-15.05653 c 0.15844,-8.28109 0.44705,-18.77758 0.64134,-23.32555 0.1943,-4.54797 0.31377,-8.30853 0.2655,-8.35679 -0.1644,-0.16442 -47.21652,-0.80794 -47.52814,-0.65004 -0.17064,0.0865 -0.32888,7.45273 -0.35163,16.36951 -0.0228,8.91675 -0.17494,19.46997 -0.33821,23.45159 -0.2031,4.95296 -0.15737,7.38762 0.14478,7.70893 0.44508,0.4733 13.9388,1.0746 36.68672,1.63484 5.8285,0.14352 10.85464,0.42398 11.1692,0.6232 0.93195,0.59025 0.98547,0.48176 0.98819,-2.00355 z m -32.79766,-19.77659 c -1.10686,-0.77527 -1.16894,-1.50611 -0.19547,-2.30088 0.58333,-0.47624 2.15492,-0.56233 8.09127,-0.44325 7.29957,0.14649 7.37146,0.15688 7.8172,1.13519 0.33795,0.74172 0.31923,1.14482 -0.0752,1.62015 -0.78051,0.94044 -14.29289,0.93076 -15.63774,-0.011 z m 0.26404,-6.36257 c -0.79524,-0.65261 -0.89148,-0.94069 -0.51828,-1.55129 0.41192,-0.67389 1.23984,-0.76124 8.17477,-0.8624 l 7.71645,-0.11257 0.46978,1.03107 c 0.36082,0.79193 0.34799,1.17786 -0.0554,1.66386 -0.43421,0.52319 -1.76199,0.63276 -7.66796,0.63276 -6.45399,0 -7.237,-0.0772 -8.11941,-0.80143 z m -31.41612,30.43542 c -0.0948,-0.0829 -7.15312,-0.27048 -15.68515,-0.41708 -8.53203,-0.1465 -19.14277,-0.38868 -23.57943,-0.538 l -8.06664,-0.27148 -1.13761,-1.21673 -1.1376,-1.21674 -0.001,-6.88528 c -10e-4,-6.70915 0.59505,-27.37801 1.08626,-37.64481 0.21098,-4.40955 0.36123,-5.22837 1.09382,-5.96096 0.84315,-0.84316 1.02326,-0.84743 25.06666,-0.59469 26.73914,0.28107 25.00918,0.0957 27.10545,2.90347 0.82427,1.10403 0.82683,1.31251 0.31252,25.3827 -0.2889,13.52049 -0.69362,24.59662 -0.91383,25.00805 -0.43582,0.81436 -3.60238,1.92377 -4.14305,1.45155 z m 1.2755,-3.58551 c 0,-0.23467 -0.30907,-0.54525 -0.68681,-0.69021 -0.63244,-0.24268 -0.6646,-1.88222 -0.40617,-20.70438 0.15432,-11.24244 0.48716,-21.82913 0.73952,-23.52596 0.25238,-1.69684 0.3886,-3.15026 0.30274,-3.22984 -0.0858,-0.0796 -9.18457,-0.35446 -20.21933,-0.61085 -11.03476,-0.25638 -21.66738,-0.53149 -23.62805,-0.61135 l -3.56487,-0.14525 -0.26436,15.56113 c -0.1454,8.55864 -0.36614,19.19114 -0.49051,23.62779 -0.12446,4.43666 -0.0724,8.28831 0.11538,8.55923 0.24406,0.35198 4.82638,0.62502 16.05193,0.95653 14.41484,0.42569 30.27529,1.01657 31.53339,1.17475 0.2844,0.0358 0.51709,-0.12696 0.51709,-0.36164 z m -37.10207,-1.62133 c -5.73103,-0.13524 -10.5435,-0.3692 -10.69437,-0.52006 -0.15087,-0.15088 0.44279,-0.41145 1.31923,-0.57906 2.04197,-0.39048 41.2451,0.55548 43.16781,1.04163 1.64825,0.41677 -17.19974,0.44882 -33.79267,0.0575 z m 10.21543,-15.9442 c -0.36075,-0.43467 -0.42919,-1.39869 -0.23083,-3.25094 l 0.28197,-2.63306 -1.57794,-0.26075 c -0.86786,-0.14337 -2.36555,-0.26277 -3.32817,-0.26528 -1.53349,-0.005 -1.78332,-0.13633 -2.01741,-1.06903 -0.41082,-1.63687 0.35574,-2.03808 3.89396,-2.03808 h 3.18307 l 0.23735,-3.0548 c 0.1803,-2.32074 0.42296,-3.19051 1.00983,-3.61964 0.99039,-0.7242 1.23666,-0.7108 2.05949,0.1121 0.48056,0.48054 0.61255,1.11053 0.45506,2.17179 -0.12195,0.82219 -0.27371,2.14642 -0.33709,2.94276 l -0.11523,1.44785 3.16922,0.12008 c 3.64703,0.13821 4.49782,0.68037 3.7261,2.37413 -0.43797,0.96122 -0.65975,1.02195 -3.73219,1.02195 H 225.524 l -0.25853,1.29272 c -0.14213,0.711 -0.25856,1.97685 -0.25856,2.81299 0,2.28754 -1.6636,3.37715 -2.89352,1.89519 z m 27.46119,-0.51408 c 0.14197,-9.27458 0.36739,-19.42247 0.50085,-22.55088 0.14462,-3.38989 0.0879,-5.68804 -0.14056,-5.68804 -0.21079,0 -0.38742,0.2327 -0.3925,0.5171 -0.0502,2.80306 -1.00029,36.36489 -1.1292,39.88627 -0.16323,4.45883 -0.0613,5.29459 0.59594,4.88837 0.16903,-0.10445 0.4235,-7.77824 0.5655,-17.05282 z m -88.48032,20.05702 c -13.24435,-0.25782 -19.76052,-0.53237 -20.43967,-0.8612 -0.54833,-0.26548 -1.3718,-0.98922 -1.82991,-1.60831 -0.82457,-1.11428 -0.82797,-1.33426 -0.33827,-21.92472 0.27207,-11.43953 0.60966,-22.45404 0.7502,-24.47668 0.412,-5.92935 -2.23272,-5.39976 25.29227,-5.06453 25.54438,0.3111 24.801,0.23307 26.29386,2.76027 0.82955,1.40433 0.86555,6.06923 0.24601,31.8878 l -0.43055,17.94345 -1.04037,0.93077 c -0.94138,0.8422 -1.42195,0.92415 -5.05063,0.8612 -2.20564,-0.0383 -12.75946,-0.23989 -23.45294,-0.44805 z m 26.68199,-2.7573 c 0,-0.20857 -0.21285,-0.45014 -0.473,-0.53687 -0.33279,-0.11085 -0.34963,-0.39703 -0.0568,-0.96524 0.24103,-0.46772 0.61886,-9.25065 0.89785,-20.87077 0.26494,-11.03476 0.58562,-21.08703 0.71263,-22.3384 0.15322,-1.51003 0.0924,-2.13608 -0.18073,-1.86153 -0.37696,0.3788 -0.79137,9.76902 -1.56591,35.48211 -0.16172,5.36827 -0.44158,9.11223 -0.69279,9.26747 -0.48859,0.30197 -0.07,-30.18433 0.55148,-40.16931 0.21141,-3.39639 0.30258,-6.25707 0.20258,-6.35707 -0.0999,-0.10006 -8.80057,-0.34217 -19.33464,-0.53819 -10.53406,-0.19601 -20.78178,-0.40686 -22.77271,-0.46856 l -3.61985,-0.11226 -0.0186,1.24102 c -0.0109,0.68258 -0.17984,11.20024 -0.37701,23.3726 -0.19716,12.17237 -0.32835,22.15471 -0.29153,22.18299 0.0369,0.0283 1.09081,-0.0993 2.34218,-0.28336 1.25136,-0.18414 8.23212,-0.16215 15.51277,0.0488 22.5133,0.65246 26.68199,0.86001 26.68199,1.32843 0,0.44963 -26.11777,0.19166 -38.36829,-0.37896 -3.8258,-0.1782 -5.89485,-0.12977 -5.89485,0.1379 0,0.44344 8.13393,0.75946 31.55951,1.2261 7.68811,0.15322 14.07485,0.43455 14.19277,0.62535 0.2877,0.46551 0.99291,0.44256 0.99291,-0.0324 z m -25.98937,-21.26194 c -0.4947,-0.52658 -0.89946,-1.27965 -0.89946,-1.6735 0,-0.95634 1.83348,-2.74684 2.8128,-2.74684 2.0393,0 2.95679,3.52565 1.2319,4.73381 -1.26956,0.88923 -2.09241,0.80723 -3.14524,-0.31347 z m -58.40016,23.06579 c -11.034762,-0.28216 -20.686594,-0.53199 -21.448516,-0.55516 -0.982702,-0.0299 -1.734086,-0.41552 -2.585454,-1.32691 -1.174543,-1.25736 -1.200325,-1.38314 -1.207892,-5.89485 -0.0094,-5.84867 1.228342,-42.3652 1.477313,-43.56995 0.538733,-2.607 2.481732,-2.75638 28.921209,-2.22362 22.55029,0.4544 21.5952,0.315 23.01601,3.35899 0.60556,1.29736 0.6132,3.43919 0.0877,24.58691 -0.31656,12.74117 -0.6643,23.58122 -0.77276,24.08901 -0.29209,1.36762 -2.24624,2.18965 -5.02533,2.11396 -1.31954,-0.036 -11.4276,-0.29622 -22.46236,-0.57838 z m 24.30737,-4.01011 c 0.29017,-0.59481 0.61778,-8.24713 0.90764,-21.20081 0.24946,-11.14851 0.5367,-21.20079 0.6383,-22.3384 0.12992,-1.45427 0.075,-1.80759 -0.18451,-1.19001 -0.20308,0.48309 -0.6784,10.53537 -1.05627,22.33839 -0.37786,11.80305 -0.84805,21.627 -1.04488,21.83104 -0.67349,0.69815 -6.66989,0.77526 -23.07776,0.29675 -18.290792,-0.53342 -21.8602,-0.76711 -21.236913,-1.3904 0.409213,-0.40921 33.734623,0.22688 40.644873,0.77579 l 3.14405,0.24975 0.30105,-14.93232 c 0.30469,-15.11376 0.82868,-29.53199 1.1145,-30.66787 0.19126,-0.76002 -6.23239,-1.0323 -30.248897,-1.28216 l -15.926459,-0.1657 -0.26029,16.7538 c -0.143216,9.2146 -0.390326,19.68572 -0.549239,23.26918 -0.260541,5.87522 -0.222407,6.51536 0.388137,6.51536 0.372392,0 0.577491,0.16113 0.455774,0.35805 -0.405571,0.65623 17.877572,1.44319 38.057164,1.63808 7.37997,0.0713 7.4857,0.0599 7.93373,-0.85852 z m -27.25212,-15.82431 c -1.783475,-0.96921 -2.616786,-3.24561 -2.573883,-7.03119 0.08568,-7.5522 3.407913,-12.62023 8.270033,-12.61551 3.87731,0.003 5.80362,3.05968 5.41388,8.58864 -0.37077,5.25983 -2.44718,9.59982 -5.29829,11.07419 -1.47459,0.76253 -4.39379,0.75443 -5.81174,-0.0161 z m 5.01561,-3.45381 c 1.48871,-1.48871 2.55814,-5.08458 2.63093,-8.84633 0.0494,-2.55692 -0.0511,-2.95224 -0.93296,-3.66863 -1.04703,-0.85051 -2.19354,-0.74608 -3.39905,0.30959 -1.0224,0.89533 -2.0448,4.54868 -2.31167,8.26034 -0.21958,3.05373 -0.16173,3.43498 0.64347,4.24016 1.18306,1.18306 1.95905,1.1151 3.36928,-0.29513 z m 183.04832,-33.60726 c -6.5981,-0.14306 -14.74504,-0.28603 -18.10431,-0.31766 l -6.10777,-0.0575 -1.5452,-1.42087 -1.5452,-1.42086 0.0929,-7.78338 c 0.0511,-4.28088 0.31533,-14.65609 0.5872,-23.05603 0.46309,-14.30795 0.54607,-15.32438 1.31351,-16.09182 0.8031,-0.8031 1.29748,-0.8148 25.16748,-0.5957 26.91534,0.24704 25.43398,0.0855 27.21564,2.96829 l 0.89951,1.45542 -0.46023,21.4212 c -0.25313,11.78165 -0.55213,22.02572 -0.66442,22.7646 -0.14587,0.95972 -0.55474,1.52467 -1.43155,1.9781 -1.32292,0.6841 -1.12915,0.68292 -25.41753,0.15619 z m 23.74983,-5.64951 c 0.49172,-3.03521 1.25286,-39.8146 0.83506,-40.35128 -0.27287,-0.35052 -0.62541,9.27174 -1.06894,29.17559 l -0.2741,12.30032 -1.48364,0.27834 c -0.81602,0.15306 -11.39733,0.16682 -23.51406,0.0305 -12.11673,-0.13634 -22.02919,-0.11899 -22.02771,0.0385 0.002,0.15743 3.49187,0.34944 7.7564,0.42671 4.26453,0.0772 13.33828,0.2792 20.16391,0.44875 6.82562,0.16953 13.92908,0.33901 15.78546,0.3766 l 3.37524,0.0683 z m -1.62348,-1.44786 c -0.0178,-7.38563 0.92942,-38.01047 1.21469,-39.2741 0.26808,-1.18738 0.21046,-1.5778 -0.25943,-1.75811 -0.33221,-0.12743 -5.94071,-0.25349 -12.46332,-0.28001 -6.52263,-0.0266 -16.88544,-0.17163 -23.02852,-0.32246 -6.14305,-0.15087 -11.28624,-0.17565 -11.42932,-0.0552 -0.14306,0.12039 -0.35805,9.92426 -0.47775,21.78618 l -0.21764,21.56717 6.8897,-0.17985 c 3.78935,-0.099 12.56739,-0.0141 19.50678,0.18884 6.93938,0.20278 14.33898,0.3981 16.44355,0.43401 l 3.82648,0.0654 z M 293.5076,263.25508 c -0.26094,-0.42222 -7.2689,-1.02427 -12.40267,-1.06552 -3.08505,-0.0249 -3.75184,-0.15025 -4.13674,-0.77854 -0.37899,-0.61864 -0.25066,-0.92995 0.73742,-1.78874 1.09007,-0.94743 1.45738,-1.02418 4.13676,-0.86429 1.61724,0.0965 5.11912,0.42618 7.78194,0.73261 4.61621,0.53123 4.88219,0.52031 5.71628,-0.23452 0.80054,-0.72448 0.96898,-0.739 1.98414,-0.17108 0.61014,0.34134 1.16763,1.02415 1.23888,1.51735 0.10303,0.71371 -0.29514,1.11194 -1.95121,1.95113 -2.23623,1.13318 -2.76432,1.25252 -3.1048,0.7016 z m -66.43233,21.8418 c -6.25682,-0.15448 -14.41964,-0.30582 -18.13961,-0.33628 l -6.76356,-0.0554 -1.47042,-1.47041 -1.47042,-1.47042 0.2944,-12.07741 c 0.16194,-6.64257 0.44885,-16.90889 0.63761,-22.81402 l 0.34321,-10.7366 1.10407,-0.94969 c 1.05511,-0.90756 1.40122,-0.949 7.80322,-0.9338 3.68453,0.009 14.57384,0.17985 24.19848,0.38026 19.17865,0.39933 18.81767,0.34647 20.16562,2.95309 0.59316,1.14704 0.61448,3.13932 0.21543,20.1217 -0.24357,10.36676 -0.44289,20.41131 -0.44289,22.32126 0,3.13543 -0.0986,3.57122 -1.01538,4.488 -0.9998,0.99983 -1.11558,1.01421 -7.54954,0.93799 -3.5938,-0.0425 -11.6534,-0.20383 -17.91022,-0.35832 z m 22.67451,-3.23065 c 0.41231,-0.26148 0.6324,-3.17087 0.91485,-12.09363 0.38651,-12.21008 0.52936,-30.8371 0.23421,-30.53704 -0.0932,0.0948 -0.40562,9.33651 -0.69415,20.53713 -0.28852,11.20061 -0.67064,20.60134 -0.84916,20.89053 -0.38173,0.61841 -3.47608,0.64632 -29.51956,0.26614 -11.88666,-0.1735 -15.72938,-0.13931 -11.58287,0.10334 5.11465,0.29921 23.85083,0.85306 37.85118,1.11892 1.70641,0.0324 3.34687,-0.096 3.6455,-0.28539 z m -0.83442,-14.32846 c 0.13931,-14.11427 0.66414,-28.05758 1.10731,-29.41668 0.28415,-0.87141 0.25976,-0.87373 -12.05526,-1.13947 -6.787,-0.1465 -17.48409,-0.38298 -23.77132,-0.52559 l -11.43132,-0.2593 -0.24622,10.08592 c -0.1354,5.54726 -0.3241,15.29821 -0.41928,21.66879 l -0.17303,11.58289 15.57365,0.12711 c 8.56551,0.0699 18.45904,0.27829 21.98561,0.46311 3.52656,0.18483 7.06251,0.31381 7.85763,0.28662 l 1.4457,-0.0494 z m -27.67884,0.20746 c -0.90353,-0.4775 -1.78381,-1.3984 -2.22459,-2.32729 -0.70005,-1.47525 -0.69911,-1.55927 0.023,-2.08728 1.16176,-0.84949 1.885,-0.66615 3.09639,0.78491 0.92103,1.10323 1.40702,1.33503 2.79911,1.33503 2.17441,0 3.79957,-1.41088 3.79957,-3.29859 0,-1.61465 -1.05206,-2.63511 -3.05124,-2.95952 -1.56934,-0.25468 -1.83372,-0.80534 -1.07094,-2.23061 0.30776,-0.57503 0.86936,-0.80014 1.99627,-0.80014 2.64918,0 4.34236,-2.68856 2.71688,-4.31404 -1.15743,-1.15741 -3.35482,-0.81794 -4.99095,0.77105 -1.52557,1.48161 -2.35101,1.53246 -3.06994,0.18914 -0.85453,-1.59669 1.90504,-3.99535 5.35415,-4.65394 3.36065,-0.64171 6.66767,1.65408 6.66464,4.62672 -0.002,1.80496 -1.2452,4.02318 -2.47362,4.41306 -0.87318,0.27715 -0.87241,0.28365 0.15213,1.30813 2.62567,2.62569 1.47846,7.3522 -2.24567,9.25211 -2.07903,1.06065 -5.45905,1.05669 -7.4751,-0.009 z m -60.14228,16.45097 c -12.46095,-0.25628 -18.51611,-0.52859 -19.19865,-0.86341 -0.54833,-0.26898 -1.37382,-0.99829 -1.8344,-1.62067 -0.82981,-1.12132 -0.83286,-1.30575 -0.33551,-20.27005 0.27607,-10.52612 0.61364,-20.6982 0.75018,-22.6046 0.40596,-5.66807 -2.15939,-5.16791 25.25762,-4.92446 22.50894,0.19988 23.38343,0.23681 24.45139,1.03281 0.60917,0.45404 1.43316,1.38138 1.83107,2.06077 0.67932,1.15983 0.69668,2.54627 0.28428,22.70884 -0.24158,11.81047 -0.52534,21.89717 -0.63059,22.41488 -0.10522,0.51772 -0.55895,1.30886 -1.0082,1.75811 -0.94025,0.94024 0.47111,0.92556 -29.56719,0.30778 z m 27.03862,-3.17002 c 0.44333,-0.28088 0.63769,-3.12415 0.91152,-13.33465 0.37166,-13.8583 0.4935,-30.39496 0.22186,-30.11066 -0.0905,0.0948 -0.37859,7.89774 -0.64002,17.33984 -0.26141,9.44211 -0.57912,19.09866 -0.70596,21.45901 l -0.23065,4.29153 -12.05667,-0.26135 c -6.63117,-0.14368 -16.89664,-0.33617 -22.81218,-0.42761 -10.32427,-0.15959 -10.47355,-0.15104 -3.72306,0.21269 5.85168,0.31533 14.81208,0.59568 35.98963,1.12605 1.36514,0.0342 2.73562,-0.0985 3.04553,-0.29485 z m -0.85038,-12.97224 c 0.14149,-13.04328 0.74653,-29.41932 1.13675,-30.76824 l 0.25491,-0.88122 -19.78822,-0.25927 c -10.88352,-0.14259 -21.20439,-0.31875 -22.93525,-0.39142 l -3.14703,-0.13211 -0.21881,5.40935 c -0.12039,2.97516 -0.24055,9.87704 -0.26708,15.33754 -0.0266,5.4605 -0.16504,12.72049 -0.30774,16.13329 l -0.2595,6.20512 13.60177,0.13117 c 11.11135,0.1071 25.35559,0.49408 30.76924,0.83592 l 1.03419,0.0654 z m -28.71031,-1.3557 c -0.32588,-1.29845 0.16435,-1.87019 5.73003,-6.68249 4.34194,-3.75423 5.39317,-5.22998 5.19318,-7.29029 -0.26937,-2.77511 -3.99972,-2.80245 -6.00908,-0.0441 -0.77329,1.06156 -0.95581,1.12581 -1.93324,0.68045 -3.16873,-1.44376 1.33139,-5.85593 5.99537,-5.87819 3.20178,-0.0156 5.74097,2.27054 5.73402,5.16184 -0.006,2.78666 -1.86387,5.22068 -7.81567,10.24326 l -1.83259,1.54646 2.45309,0.005 c 1.3492,0.003 3.16103,0.12149 4.02628,0.26452 1.46595,0.24224 1.56465,0.34769 1.44786,1.54673 l -0.1254,1.28675 -6.29796,0.11414 -6.29796,0.11413 z m -55.39231,16.71716 c -6.143056,-0.14055 -13.282043,-0.28024 -15.864401,-0.31026 l -4.695201,-0.0546 -1.469511,-1.46951 -1.469496,-1.4695 0.259415,-7.5279 c 0.142746,-4.14037 0.484776,-14.31896 0.760201,-22.6191 0.491578,-14.81301 0.51811,-15.10849 1.439492,-16.02987 l 0.93869,-0.93871 13.980317,0.0125 c 7.689164,0.006 18.354904,0.18177 23.701644,0.38926 l 9.72135,0.37727 1.40464,1.5319 1.40464,1.53188 -0.30422,15.76342 c -0.16734,8.66988 -0.43115,18.90119 -0.58625,22.73623 -0.37371,9.24071 0.35459,8.6345 -10.16644,8.46224 -4.33711,-0.071 -12.91181,-0.24416 -19.05487,-0.38478 z m 25.02729,-3.26057 c 0,-0.22752 0.23269,-0.36714 0.51709,-0.31026 0.39491,0.079 0.57887,-2.04702 0.77854,-8.9974 0.6092,-21.20493 0.73347,-33.27621 0.34502,-33.51628 -0.24735,-0.15291 -0.39702,1.37804 -0.39278,4.01758 0.0141,8.73866 -0.95483,36.96735 -1.28931,37.56534 -0.79405,1.41959 0.0478,-39.41481 0.85639,-41.54166 0.21695,-0.57062 0.24416,-1.13036 0.0605,-1.24389 -0.35851,-0.22158 -45.57599,-1.1929 -45.749178,-0.98275 -0.05691,0.0691 -0.225175,8.31643 -0.373785,18.32735 -0.148688,10.0109 -0.387683,19.73742 -0.531275,21.61447 l -0.261087,3.41281 h 1.536085 c 0.844849,0 1.903584,-0.19667 2.352728,-0.43706 0.573755,-0.30705 6.1947,-0.3046 18.898392,0.008 18.85033,0.46426 22.33844,0.68114 21.67217,1.34739 -0.24617,0.24618 -7.51019,0.22509 -19.57208,-0.0568 -22.845952,-0.53395 -23.93788,-0.53989 -23.93788,-0.13024 0,0.17485 1.349607,0.33095 2.999139,0.3469 1.649517,0.0159 9.886811,0.21449 18.305081,0.44126 22.0566,0.59413 23.78626,0.60393 23.78626,0.13493 z m -25.64421,-13.20157 c -1.74233,-0.18626 -2.30453,-0.41615 -2.4128,-0.98664 -0.223344,-1.17687 0.72471,-1.94508 2.40051,-1.94508 h 1.5447 l 0.93411,-5.39929 c 0.51376,-2.9696 0.83564,-5.49776 0.7153,-5.61811 -0.12039,-0.12039 -0.59485,-0.0175 -1.05442,0.22836 -1.21815,0.65193 -2.8316,0.54679 -3.11944,-0.20328 -0.41373,-1.07819 0.42901,-2.07062 2.21192,-2.6048 0.92728,-0.27782 2.31246,-1.05519 3.07816,-1.72749 0.76571,-0.67228 1.65615,-1.22235 1.97877,-1.22235 0.77321,0 1.55651,0.80689 1.35407,1.39485 -0.0883,0.25668 -0.72601,3.77238 -1.41698,7.81268 -1.01604,5.94112 -1.16065,7.49919 -0.75612,8.14693 0.41257,0.66065 0.36537,0.94988 -0.2695,1.65141 -0.79118,0.87422 -1.13765,0.90581 -5.18828,0.47281 z M 63.843239,223.27465 c -4.69e-4,-3.86787 0.06176,-5.50584 0.138213,-3.63997 0.07646,1.86587 0.07692,5.03047 8.6e-4,7.03246 -0.07599,2.00198 -0.138526,0.47535 -0.138995,-3.39249 z m 219.284881,4.69875 c -9.32835,-0.18742 -17.37111,-0.43852 -17.8728,-0.55801 -0.5017,-0.11946 -1.41182,-0.87236 -2.02251,-1.673 l -1.11034,-1.45574 0.4776,-16.22562 c 0.82769,-28.1204 0.87533,-28.87993 1.87265,-29.85562 0.85955,-0.84092 1.08498,-0.84674 24.87891,-0.64176 26.64984,0.22955 25.20153,0.0675 27.02847,3.02359 l 0.87213,1.41115 -0.44116,21.25864 c -0.24262,11.69225 -0.5293,21.86316 -0.63704,22.60204 -0.13946,0.9567 -0.54191,1.52234 -1.39784,1.96495 -1.35996,0.70326 -3.56167,0.71366 -31.64807,0.14931 z m 29.66729,-3.56116 c 0.53581,-0.61425 0.67177,-3.41887 0.89745,-18.51191 0.14634,-9.7834 0.34613,-19.3703 0.44409,-21.30423 0.14431,-2.84805 0.11211,-3.12317 -0.16895,-1.44786 -0.19088,1.1376 -0.56845,10.44527 -0.83903,20.68371 -0.27058,10.23844 -0.63534,18.89457 -0.81059,19.23585 -0.5132,0.99943 -3.47724,1.09188 -25.45569,0.79397 -11.38237,-0.15432 -20.82485,-0.16335 -20.98327,-0.0202 -0.34454,0.3114 3.55442,0.4602 22.41962,0.85564 24.77374,0.5193 23.78473,0.5308 24.49637,-0.28501 z m -0.82649,-18.6327 c 0.16351,-9.6223 0.45093,-19.26846 0.6387,-21.43592 0.18776,-2.16743 0.21769,-4.01725 0.0664,-4.1107 -0.15119,-0.0935 -10.02552,-0.2731 -21.94292,-0.39921 -11.91738,-0.12617 -22.42901,-0.30846 -23.35915,-0.40524 l -1.69115,-0.17595 -0.2803,19.73584 c -0.15416,10.85472 -0.39639,20.71317 -0.53827,21.90765 -0.24987,2.10393 -0.22597,2.17179 0.76493,2.17179 0.56257,0 1.13198,-0.10914 1.26535,-0.24249 0.31367,-0.31366 21.67805,-0.16224 32.36882,0.22943 4.55042,0.1667 9.20425,0.28438 10.34185,0.2615 l 2.06838,-0.0416 z m -18.01919,5.60197 c -0.5118,-0.51193 -1.57066,-2.00116 -2.35306,-3.30939 -0.7824,-1.30826 -1.56282,-2.37864 -1.73429,-2.37864 -0.17145,0 -1.45763,1.39615 -2.85816,3.10256 -1.83771,2.23908 -2.81374,3.10255 -3.50696,3.10255 -0.81092,0 -1.817,-1.014 -1.817,-1.83133 0,-0.12711 1.39615,-1.74722 3.10255,-3.60035 1.70641,-1.85313 3.10257,-3.53828 3.10257,-3.74477 0,-0.20647 -0.93077,-1.75475 -2.06838,-3.44061 -2.16869,-3.21385 -2.38609,-3.86037 -1.57195,-4.67451 1.06829,-1.06831 1.98746,-0.48347 3.93353,2.50273 1.07498,1.64951 1.98513,3.05461 2.02259,3.12242 0.0375,0.0678 1.48002,-1.31637 3.20571,-3.07594 3.09065,-3.15136 3.15019,-3.18785 3.97898,-2.43781 0.46275,0.41879 0.84136,1.01125 0.84136,1.31658 0,0.30534 -1.30306,1.92696 -2.89571,3.60359 -1.59265,1.67664 -2.89571,3.28005 -2.89571,3.56312 0,0.28307 0.94081,1.80818 2.0907,3.38914 2.61061,3.58925 2.72983,3.90993 1.82525,4.90949 -0.93811,1.03658 -1.263,1.02051 -2.40202,-0.11883 z m -77.78859,15.78766 -12.77568,-0.32299 -1.39267,-1.34983 -1.39266,-1.34982 0.0233,-7.4684 c 0.0125,-4.10763 0.26114,-14.32002 0.55184,-22.69418 0.63553,-18.30838 0.1132,-16.90075 6.31553,-17.01807 2.23945,-0.0424 13.26126,0.0625 24.49293,0.23313 l 20.4212,0.31013 1.02573,0.95802 c 2.13396,1.99306 2.0965,1.37134 1.50352,24.95111 -0.50908,20.24282 -0.6105,22.00407 -1.32223,22.95892 l -0.77085,1.03419 -11.95214,0.0403 c -6.57367,0.0222 -17.70118,-0.10491 -24.7278,-0.2826 z m 34.07989,-2.9046 c 0,-0.25186 0.2515,-0.36142 0.55892,-0.24347 0.67394,0.25862 0.99113,-6.92292 1.25714,-28.46263 0.2246,-18.18705 -0.0283,-15.4563 -0.74474,8.04127 -0.53163,17.43636 -0.62857,18.83811 -1.3393,19.36718 -0.63705,0.47421 -4.56673,0.53657 -23.31145,0.37 -23.55502,-0.20934 -20.04418,0.11664 9.72135,0.90262 7.28065,0.19225 13.37718,0.37957 13.54782,0.41625 0.17064,0.0367 0.31026,-0.13931 0.31026,-0.39122 z m -0.0571,-21.36339 c 0.28059,-10.86412 0.61589,-20.52199 0.74513,-21.46196 l 0.23496,-1.70901 -14.62988,-0.26509 c -8.04646,-0.14572 -18.65877,-0.30751 -23.58295,-0.35935 l -8.95303,-0.0943 -0.24769,12.20339 c -0.13618,6.71186 -0.34959,16.39183 -0.47417,21.51105 l -0.22652,9.30768 7.97938,-0.11617 c 4.38865,-0.0638 13.65703,0.0464 20.59642,0.24495 6.93938,0.19858 13.83907,0.39044 15.33263,0.42635 l 2.71557,0.0654 z m -26.25513,7.81688 c -2.51029,-1.17349 -3.6652,-3.74272 -3.35353,-7.46031 0.614,-7.3238 4.32392,-11.74942 9.90027,-11.81022 1.9099,-0.0208 2.54249,0.15025 3.28037,0.88742 0.79999,0.79918 0.85176,1.05023 0.41438,2.01014 -0.40319,0.88492 -0.6774,1.03848 -1.41882,0.79459 -0.50548,-0.16627 -1.66576,-0.38796 -2.5784,-0.49265 -2.02634,-0.23245 -3.53458,0.79911 -4.80268,3.28479 -0.79811,1.56444 -0.80416,1.65198 -0.0919,1.33031 0.41934,-0.18937 1.80083,-0.41701 3.06993,-0.50587 2.01402,-0.14102 2.47087,-0.0241 3.59205,0.91934 2.37043,1.99458 2.64745,4.86091 0.79347,8.21012 -1.69381,3.05983 -5.61816,4.32218 -8.80517,2.83234 z m 4.1921,-2.62307 c 2.15753,-0.98303 2.99724,-4.56365 1.43631,-6.12458 -1.22669,-1.22668 -3.13251,-1.06786 -4.58224,0.38185 -1.76346,1.76348 -1.45289,4.76098 0.59611,5.75311 1.16954,0.56631 1.28518,0.56585 2.54982,-0.0109 z m -63.56983,18.50908 c -20.5358,-0.51107 -20.97521,-0.53943 -22.23399,-1.43577 -0.70629,-0.50293 -1.4013,-1.38109 -1.54447,-1.95149 -0.24091,-0.95992 0.33827,-25.72953 0.92007,-39.3486 0.23729,-5.55431 0.30893,-5.94358 1.22666,-6.66546 0.91667,-0.72107 1.89201,-0.75863 16.40033,-0.63155 8.48414,0.0743 19.02986,0.25604 23.43492,0.40385 l 8.00921,0.26875 1.29847,1.16293 1.29845,1.16294 -0.0333,9.02858 c -0.0183,4.96573 -0.17976,15.14013 -0.35879,22.60978 -0.31375,13.08989 -0.35793,13.61884 -1.22117,14.62241 -1.19692,1.39151 -1.7437,1.40707 -27.19643,0.77363 z m 24.05239,-3.12259 c 0,-0.22752 0.25682,-0.41368 0.57071,-0.41368 0.47133,0 0.61654,-2.899 0.83408,-16.65038 0.14478,-9.15772 0.34945,-18.69807 0.45466,-21.2008 0.12305,-2.92674 0.0616,-4.15183 -0.17228,-3.43337 -0.19997,0.61437 -0.57339,9.27051 -0.8298,19.23584 -0.2564,9.96534 -0.56561,18.90996 -0.68712,19.87692 l -0.22094,1.75812 -18.0729,0.081 c -19.95911,0.0894 -19.66722,0.20341 1.78346,0.69609 7.96323,0.1829 14.89745,0.36211 15.40937,0.39823 0.51191,0.0361 0.93076,-0.12039 0.93076,-0.34799 z m -38.58433,-1.12925 c -0.85828,-0.0896 -2.16136,-0.088 -2.89573,0.003 -0.73436,0.0915 -0.032,0.16465 1.5605,0.16282 1.59266,-0.002 2.19351,-0.0766 1.33523,-0.16615 z m 6.73143,-1.06514 c 6.25682,0.0435 15.89025,0.19664 21.40762,0.34037 l 10.03161,0.26134 0.0156,-8.40792 c 0.0175,-9.72343 0.67872,-29.94849 1.06104,-32.45566 l 0.26067,-1.70934 -13.18209,-0.25858 c -7.25014,-0.14228 -17.48811,-0.37046 -22.75104,-0.5072 l -9.56897,-0.24863 -0.25207,14.41994 c -0.13868,7.93096 -0.35131,17.74673 -0.47263,21.81279 l -0.22056,7.39286 1.14761,-0.35951 c 0.63118,-0.19772 6.2668,-0.32394 12.52364,-0.28046 z m 8.06664,-10.49151 c -0.45504,-0.0936 -1.23185,-0.25599 -1.72624,-0.36082 -0.49438,-0.10491 -1.47169,-0.6726 -2.17179,-1.26169 -1.60255,-1.34847 -1.70134,-2.88843 -0.22836,-3.55956 0.93028,-0.42387 1.19262,-0.3324 2.39832,0.83622 2.55415,2.47558 6.05275,1.3497 6.71112,-2.1597 0.54572,-2.90896 -1.73097,-4.56642 -4.61641,-3.36081 -1.82348,0.76189 -2.27844,0.77763 -3.19078,0.11038 -0.65667,-0.48022 -0.60304,-0.82599 0.75201,-4.84962 0.80251,-2.38291 1.6901,-4.54753 1.97245,-4.81029 0.35434,-0.32976 1.9549,-0.41281 5.16719,-0.26816 3.99989,0.18013 4.65383,0.30728 4.65383,0.90473 0,1.62579 -0.90901,2.06678 -4.50591,2.18603 l -3.47172,0.11508 -0.55532,1.86154 c -0.30543,1.02383 -0.55815,1.88074 -0.5616,1.90422 -0.003,0.0234 0.89366,-0.0438 1.99359,-0.14947 3.75143,-0.36046 5.97814,1.65402 5.97814,5.40839 0,4.23546 -2.24616,6.59386 -7.15067,7.508 -0.34128,0.0636 -0.99281,0.0391 -1.44785,-0.0546 z m -42.4016,15.29071 c -3.75409,-0.0613 -13.96705,-0.2856 -22.695434,-0.49827 l -15.869813,-0.38668 -1.194243,-1.14417 -1.194258,-1.14416 0.01094,-5.61063 c 0.0063,-3.08583 0.280319,-12.77752 0.609778,-21.53708 0.329459,-8.75955 0.603852,-16.43838 0.609762,-17.06406 0.0063,-0.62567 0.383056,-1.50991 0.838095,-1.96495 0.793238,-0.79323 1.378907,-0.82735 14.204771,-0.82735 7.357582,0 17.921792,0.12195 23.476002,0.27108 l 10.09859,0.27108 1.60047,1.59098 1.60047,1.59097 -0.30387,12.51312 c -0.80404,33.11089 -0.75148,32.06568 -1.65605,32.93834 -1.08047,1.04237 -2.01337,1.13458 -10.13501,1.00178 z m 7.67839,-3.33507 c 0.2415,-0.16717 0.44938,-0.67624 0.46195,-1.13128 0.31739,-11.48353 0.59996,-33.04031 0.4311,-32.88709 -0.12539,0.11382 -0.43923,7.37373 -0.69746,16.13329 -0.25823,8.75955 -0.55871,16.23004 -0.66775,16.60109 -0.18012,0.61295 -1.8519,0.66303 -18.28425,0.5476 -9.94731,-0.0699 -17.620633,-0.04 -17.051818,0.0661 0.568798,0.10631 7.642618,0.34215 15.719608,0.52416 8.07699,0.18202 15.80235,0.35771 17.16748,0.39043 1.36512,0.0327 2.67964,-0.0772 2.92114,-0.2444 z m -38.816592,-1.22634 c -0.85828,-0.0896 -2.161357,-0.088 -2.89573,0.003 -0.734357,0.0913 -0.03205,0.16465 1.560507,0.1628 1.592652,-0.002 2.193487,-0.0766 1.335223,-0.16615 z M 129.2002,204.34905 c 0.16173,-9.38524 0.47596,-18.99704 0.69827,-21.35955 0.22231,-2.36252 0.34777,-4.35194 0.27879,-4.42092 -0.069,-0.069 -10.28833,-0.25891 -22.70966,-0.42209 l -22.584233,-0.29668 -0.268577,15.47311 c -0.14775,8.51022 -0.383884,18.23913 -0.524849,21.61979 l -0.256287,6.14667 1.399576,-0.35522 c 2.100787,-0.53322 30.65828,-0.12242 42.59943,0.61286 l 1.07346,0.0661 z m -21.00653,5.1481 c -0.1132,-0.18321 -0.0357,-1.06743 0.17256,-1.96497 0.20812,-0.89752 0.38286,-1.77147 0.38828,-1.94211 0.005,-0.17064 -1.6695,-0.31026 -3.72207,-0.31026 -3.5654,0 -3.75268,-0.0455 -4.19665,-1.01994 -0.56556,-1.24128 -0.7674,-0.94357 5.37389,-7.92577 2.57652,-2.92933 5.11435,-5.49394 5.63961,-5.69914 1.4189,-0.5543 2.29286,-0.0435 2.29286,1.3401 0,1.09805 -0.94668,7.2578 -1.45669,9.47826 -0.18399,0.8011 -0.046,0.93076 0.99086,0.93076 1.36648,0 1.75559,0.61062 1.25214,1.96497 -0.24986,0.67218 -0.67977,0.93076 -1.54746,0.93076 -1.0914,0 -1.22694,0.15921 -1.47933,1.73759 -0.15276,0.95568 -0.47864,1.97952 -0.72404,2.27521 -0.48873,0.58889 -2.65466,0.73734 -2.98396,0.20454 z m 1.8086,-10.80862 0.69387,-3.48873 -1.06929,1.2601 c -4.72536,5.56853 -4.63579,5.43795 -3.87292,5.64633 0.40439,0.11054 1.36958,0.17163 2.14485,0.13587 l 1.40963,-0.0649 z m 20.97942,-14.19103 c -0.099,-0.51457 -0.18366,-0.19098 -0.18826,0.71912 -0.005,0.91007 0.0763,1.33109 0.17991,0.93558 0.1035,-0.39551 0.10726,-1.14012 0.008,-1.6547 z m -66.764229,25.95324 c -0.0094,-3.18529 0.109445,-8.7699 0.265122,-12.41023 0.279036,-6.5268 0.283289,-6.5498 0.306022,-1.65469 0.01251,2.73025 -0.10663,8.31484 -0.265121,12.41022 l -0.288168,7.44614 z m 0.763641,-24.19994 c -0.02861,-2.84402 0.125392,-9.35938 0.342452,-14.4786 0.216997,-5.11922 0.676993,-19.45302 1.022228,-31.85291 0.345234,-12.39988 0.816112,-29.06061 1.046414,-37.02383 0.230287,-7.96323 0.615422,-22.948576 0.85584,-33.300771 0.71053,-30.593982 1.416728,-46.289189 2.162343,-48.057446 1.160487,-2.752158 2.187483,-3.073834 8.983142,-2.813687 1.942703,0.07437 2.093846,0.133241 1.034173,0.402885 -0.682559,0.173683 -2.413721,0.337812 -3.847022,0.36473 -2.868931,0.05388 -4.762618,0.813064 -5.509593,2.208784 -0.755073,1.410879 -2.116031,36.070546 -3.261336,83.057035 -1.043288,42.80054 -2.729156,91.37113 -2.828641,81.49381 z M 285.27961,172.97967 c -20.56747,-0.33813 -20.07367,-0.27658 -21.66187,-2.70046 -0.65469,-0.99918 -0.65973,-2.47364 -0.0785,-22.94364 0.58266,-20.52029 0.67052,-21.93111 1.41782,-22.76811 l 0.79666,-0.89229 24.05292,0.21311 c 22.1851,0.19656 24.15074,0.27089 25.31246,0.95713 2.753,1.62625 2.69068,0.94727 2.29062,24.95695 l -0.36041,21.6291 -1.16065,0.99771 c -1.33096,1.1441 1.93036,1.08545 -30.60905,0.5505 z m 27.83981,-3.30025 c 0,-0.24095 0.17329,-0.33099 0.38509,-0.2001 0.2118,0.13087 0.46757,0.0954 0.56839,-0.0789 0.10084,-0.17435 0.28155,-9.62468 0.40163,-21.00071 0.14994,-14.21063 0.10131,-18.93598 -0.15541,-15.09911 -0.20552,3.07153 -0.51324,12.11819 -0.68384,20.10369 -0.24641,11.53398 -0.43003,14.6635 -0.89313,15.22151 -0.53855,0.6489 -2.0832,0.68459 -20.2695,0.46835 -10.8276,-0.12868 -21.12923,-0.32779 -22.89251,-0.44233 -1.76329,-0.11461 -3.20597,-0.0599 -3.20597,0.12164 0,0.34134 2.19417,0.42191 24.82045,0.9113 21.70206,0.46939 21.92472,0.46934 21.92472,-0.005 z m -0.36944,-19.41827 c 0.13806,-9.89716 0.38679,-19.31577 0.55268,-20.93025 l 0.30161,-2.93542 -21.02956,-0.2852 c -11.56625,-0.15686 -22.17091,-0.39513 -23.56589,-0.52949 l -2.53636,-0.24428 -0.25986,14.42727 c -0.14291,7.93499 -0.30828,17.4988 -0.36747,21.25289 l -0.10757,6.82563 10.5568,-0.11038 c 5.80623,-0.0607 15.39678,0.0541 21.31231,0.25489 5.91554,0.20088 11.6863,0.3436 12.8239,0.31716 l 2.06837,-0.048 z m -25.25019,9.14038 c -0.94063,-1.32099 -1.09309,-2.32594 -0.41633,-2.74421 0.24156,-0.14931 0.60926,-0.71874 0.81711,-1.26543 0.55601,-1.46243 1.82046,-1.24981 2.83959,0.47749 1.12821,1.9122 1.09771,2.29058 -0.29203,3.62204 -1.46906,1.40746 -1.89131,1.39457 -2.94834,-0.0899 z m -7.79771,-8.38823 c -0.73684,-0.73684 -0.61575,-1.8678 0.26628,-2.48681 0.59982,-0.42097 2.76351,-0.4948 9.78048,-0.33372 7.99487,0.18353 9.06163,0.28842 9.46609,0.93077 0.33207,0.52735 0.33193,0.9205 -4.8e-4,1.44785 -0.40891,0.6487 -1.42053,0.73547 -9.73237,0.83489 -6.86672,0.0821 -9.40695,-0.0199 -9.78,-0.39298 z m 12.59091,-7.3001 c -0.88514,-0.97806 -0.86304,-1.43586 0.11194,-2.31819 1.58643,-1.4357 3.4994,0.0404 2.60273,2.00839 -0.56898,1.24877 -1.7436,1.38282 -2.71467,0.3098 z m -6.04628,-0.56252 c -1.01227,-1.08654 -1.03061,-1.32018 -0.20279,-2.5836 0.7918,-1.20843 2.73368,-2.05524 3.87925,-1.69165 1.15722,0.36728 1.22731,3.47699 0.10131,4.49598 -1.05456,0.95437 -2.77678,0.85374 -3.7778,-0.22073 z m -61.02488,28.9538 c -22.27757,-0.39 -21.71751,-0.32666 -23.22406,-2.62595 -0.62706,-0.95702 -0.64285,-2.61912 -0.19549,-20.57452 0.26769,-10.74338 0.61861,-20.63198 0.77984,-21.97468 0.49269,-4.10316 -1.40158,-3.84725 26.1992,-3.53949 23.47407,0.26174 23.85665,0.27929 25.07971,1.15018 2.54085,1.80924 2.50772,1.38112 1.92632,24.89124 l -0.52677,21.30169 -1.08502,0.9333 c -0.96252,0.82791 -1.49113,0.92579 -4.68161,0.86673 -1.97812,-0.0366 -12.90057,-0.22942 -24.27212,-0.4285 z m 27.24205,-7.94055 c 0.13602,-2.75484 0.32672,-12.08262 0.42378,-20.72841 l 0.17648,-15.71962 -0.54222,12.41023 c -0.29822,6.82562 -0.56399,15.66791 -0.59058,19.64952 -0.0266,3.98162 -0.22572,7.51852 -0.44249,7.85982 -0.3419,0.53831 -2.711,0.60663 -17.88506,0.51582 -9.62003,-0.0575 -19.95749,-0.21626 -22.97215,-0.35264 -3.01465,-0.13634 -5.48111,-0.0893 -5.48103,0.10475 8e-5,0.19395 2.55969,0.42261 5.68802,0.50815 7.1547,0.19561 35.44295,0.74499 38.83885,0.75429 l 2.5391,0.006 z m -1.63546,1.81683 c -0.089,-3.89824 0.64985,-35.66653 0.87671,-37.69748 l 0.26007,-2.32834 -14.6168,-0.25523 c -8.03923,-0.14038 -18.66941,-0.30263 -23.62264,-0.36054 l -9.00586,-0.10531 -0.20485,18.61534 c -0.11273,10.23844 -0.28751,19.63918 -0.38854,20.89055 l -0.18368,2.2752 8.56705,-0.10773 c 4.71187,-0.0592 14.43087,0.055 21.59778,0.25416 7.16689,0.19907 13.86842,0.34064 14.89227,0.31463 1.84933,-0.0471 1.86131,-0.0568 1.82849,-1.49519 z m -26.56246,-9.50915 c -1.72723,-0.40785 -2.9822,-1.53382 -2.9822,-2.67562 0,-1.8637 1.81219,-2.47864 3.10255,-1.05279 1.64364,1.8162 5.06646,0.51379 6.27948,-2.38938 0.68989,-1.65114 0.53283,-1.99075 -0.63225,-1.36721 -1.31696,0.70482 -3.77079,0.52388 -5.2441,-0.38669 -3.00927,-1.85982 -3.43233,-6.08091 -0.89872,-8.96654 3.30014,-3.75864 9.22024,-3.43035 10.91401,0.60523 0.78464,1.86949 0.53315,7.15738 -0.47531,9.99413 -1.63757,4.6064 -5.8686,7.22944 -10.06346,6.23887 z m 6.67874,-10.94796 c 2.14683,-1.98963 1.09067,-5.60436 -1.63751,-5.60436 -2.80516,0 -4.62714,3.83049 -2.7884,5.86228 0.98818,1.09191 3.10235,0.96871 4.42591,-0.25792 z m -71.50523,25.83398 c -9.46253,-0.1778 -14.78076,-0.43393 -15.35078,-0.7393 -0.4797,-0.25698 -1.20641,-0.97731 -1.61489,-1.60074 -0.68536,-1.04599 -0.72214,-1.98158 -0.4763,-12.11677 0.1465,-6.04079 0.37316,-15.45093 0.50362,-20.91143 0.13039,-5.4605 0.3207,-10.34188 0.42272,-10.8475 0.10209,-0.50562 0.6021,-1.31413 1.11127,-1.79667 0.92072,-0.87258 1.01473,-0.876 17.26588,-0.62824 8.98709,0.13701 19.40877,0.36225 23.15932,0.50054 l 6.8192,0.25144 1.62271,1.62271 1.62272,1.62271 -0.27735,12.70415 c -0.61683,28.2536 -0.73518,30.6022 -1.58836,31.51799 -0.73922,0.79345 -1.23241,0.83209 -9.75986,0.76442 -4.93972,-0.0392 -15.49667,-0.19369 -23.4599,-0.34331 z m 31.38967,-17.30662 c 0.13837,-7.8862 0.32951,-16.5724 0.4246,-19.30265 0.10366,-2.97678 0.0377,-4.46726 -0.16473,-3.72306 -0.1857,0.68256 -0.55002,9.14538 -0.80961,18.80625 -0.2596,9.66089 -0.5347,17.62795 -0.61131,17.70456 -0.19302,0.19301 -28.66894,0.13883 -37.26109,-0.071 -3.86785,-0.0944 -6.38093,-0.0879 -5.58459,0.0141 2.75493,0.35427 21.76227,0.87136 32.73646,0.89059 l 11.01856,0.0194 z m -1.64528,-2.8591 c 0.14493,-8.81643 0.43165,-18.16938 0.6372,-20.78434 0.20557,-2.61495 0.33031,-4.79792 0.27718,-4.85105 -0.20608,-0.20608 -44.60319,-0.99473 -44.80208,-0.79584 -0.21881,0.21881 -1.03183,41.69562 -0.82143,41.90601 0.0655,0.0655 0.8231,-0.0754 1.68368,-0.31304 1.09177,-0.30145 7.52076,-0.29081 21.27049,0.0352 10.83818,0.25699 19.78807,0.54952 19.88863,0.65009 0.10053,0.10053 0.50234,0.18283 0.89285,0.18283 0.65417,0 0.73075,-1.26105 0.97348,-16.02988 z m -24.36663,4.90277 c -1.98161,-0.49836 -3.04888,-1.2204 -3.71879,-2.51586 -1.31902,-2.55073 -0.34048,-5.64716 2.27035,-7.18408 1.17135,-0.68955 1.23729,-0.83046 0.67787,-1.44862 -2.0393,-2.2534 -1.6248,-5.63827 0.89147,-7.27992 3.06845,-2.0019 6.96199,-1.72436 8.94973,0.63795 1.64,1.94901 1.45735,3.80156 -0.57518,5.83409 l -1.63957,1.63956 0.82823,0.88901 c 2.287,2.45479 1.10616,7.12482 -2.19478,8.67999 -1.77973,0.83849 -3.95217,1.13447 -5.48933,0.74788 z m 3.81539,-3.34021 c 2.40682,-1.4675 2.16686,-4.64021 -0.41583,-5.49818 -1.3363,-0.44392 -2.74873,0.28798 -3.87605,2.00849 -0.87392,1.33376 -0.37976,3.02311 1.10387,3.77378 1.36579,0.69103 1.62689,0.66776 3.18801,-0.28409 z m 1.73748,-9.35572 c 1.5148,-1.27463 1.6571,-2.74966 0.35336,-3.66284 -1.32243,-0.92627 -2.69075,-0.79449 -3.85667,0.37142 -1.31066,1.31066 -1.28675,2.43417 0.0746,3.505 1.41229,1.11091 1.89,1.08116 3.42871,-0.21358 z m 21.00212,-15.36472 c -0.10491,-0.40249 -0.19759,-0.17334 -0.20604,0.50922 -0.008,0.68256 0.0774,1.01188 0.1907,0.73181 0.11336,-0.28008 0.12024,-0.83854 0.0156,-1.24103 z m -83.22835,42.80824 c -23.607442,-0.40696 -23.875941,-0.435 -25.042494,-2.61471 -0.454789,-0.84979 -0.458744,-4.0845 -0.02314,-18.90688 0.689985,-23.47666 0.85842,-25.85851 1.881445,-26.60656 0.657996,-0.48115 3.760029,-0.57304 17.782039,-0.52679 9.34175,0.0308 19.94373,0.17042 23.55997,0.31025 l 6.57495,0.25423 1.25419,1.55181 1.2542,1.5518 -0.46234,21.41389 c -0.25428,11.77764 -0.58882,21.7435 -0.74341,22.14635 -0.33355,0.86922 -2.31381,1.97147 -3.36624,1.87372 -0.40945,-0.038 -10.6106,-0.23923 -22.6692,-0.44711 z m 22.10054,-3.31023 c 0.4385,-0.41367 0.58604,-0.41367 0.73772,0 0.59556,1.62427 0.75479,-0.87854 0.88168,-13.85946 0.0772,-7.90558 0.20504,-15.16495 0.2839,-16.13191 0.0788,-0.96697 -0.031,-1.75812 -0.24393,-1.75812 -0.21517,0 -0.40615,2.06841 -0.42971,4.65383 -0.13321,14.62197 -0.60124,25.52671 -1.11781,26.04112 -0.4304,0.42863 -4.36733,0.5136 -19.44267,0.41967 -10.39665,-0.0647 -20.019937,-0.19963 -21.385054,-0.29968 -2.080634,-0.15244 -2.268644,-0.11585 -1.16252,0.22657 0.725743,0.22466 9.940345,0.56244 20.476884,0.7506 10.53653,0.18818 19.53894,0.37193 20.00536,0.40831 0.46642,0.0364 1.09469,-0.16653 1.39615,-0.45093 z m -0.26798,-2.89571 c -0.23761,-2.11647 0.61099,-35.4426 0.96902,-38.05458 l 0.252,-1.83859 -22.05163,-0.29826 c -12.128387,-0.16405 -22.248518,-0.33287 -22.489155,-0.37517 -0.444454,-0.0781 -0.655072,5.06104 -1.21757,29.70764 l -0.26434,11.58289 14.173439,0.14696 c 11.676246,0.12117 23.989566,0.46036 29.738826,0.81931 1.04153,0.065 1.07857,-0.005 0.88941,-1.69027 z m -24.43721,-9.23318 c -0.50137,-0.35118 -0.91158,-0.88401 -0.91158,-1.18408 0,-1.70979 4.99655,-10.2026 7.69612,-13.08139 0.54507,-0.58125 0.99104,-1.18625 0.99104,-1.34444 0,-0.15819 -2.14077,-0.28762 -4.75726,-0.28762 -4.6883,0 -4.75725,-0.0138 -4.75725,-0.95145 0,-1.77142 0.63129,-1.94427 7.10065,-1.94427 5.49567,0 6.14843,0.0759 6.51302,0.75714 0.50751,0.94829 -0.0388,2.05567 -2.51272,5.09293 -2.52654,3.10191 -4.89034,7.08466 -5.96296,10.04695 -1.08525,2.9972 -2.06412,3.83125 -3.39906,2.89623 z m 26.68285,-27.9975 c -0.0987,-0.51192 -0.17927,-0.0931 -0.17927,0.93077 0,1.02384 0.0807,1.44268 0.17927,0.93076 0.0987,-0.51192 0.0987,-1.34961 0,-1.86153 z m 156.49058,-6.74591 c -10.80724,-0.2858 -20.35607,-0.537 -21.21962,-0.55822 -1.1044,-0.0271 -1.88854,-0.35706 -2.64385,-1.11236 l -1.07376,-1.07377 0.3019,-11.84584 c 0.28802,-11.30181 0.49595,-13.059356 1.63493,-13.819867 0.56883,-0.379829 28.3821,-0.408129 40.53183,-0.04125 l 9.05112,0.273317 1.45852,1.458525 1.45853,1.458525 -0.25443,11.6903 c -0.26783,12.30569 -0.36719,12.91382 -2.2501,13.77174 -1.09528,0.49904 -0.29383,0.50501 -26.99507,-0.2011 z m 25.34302,-2.83136 c 0.65287,-0.49547 0.75656,-1.72024 0.98819,-11.67314 0.14228,-6.11578 0.13931,-11.01037 -0.006,-10.876877 -0.14618,0.133491 -0.41648,4.912587 -0.6008,10.620197 -0.24308,7.52673 -0.48389,10.55672 -0.8766,11.02991 -0.4708,0.56728 -2.38372,0.66466 -14.65914,0.74627 l -14.1177,0.0939 11.99655,0.22596 c 6.5981,0.12429 13.0204,0.26228 14.27177,0.30667 1.37846,0.0489 2.56269,-0.13748 3.00461,-0.47285 z m -44.57888,-1.52249 c -1.3602,-0.27147 -1.21297,-0.29908 0.82736,-0.15513 1.36511,0.0963 11.53554,0.30145 22.60094,0.45587 l 20.11892,0.28075 0.25803,-8.23698 c 0.14196,-4.53034 0.35528,-9.564407 0.47416,-11.186813 l 0.21613,-2.949832 -20.59308,-0.264299 c -11.32617,-0.145358 -21.98921,-0.307168 -23.69562,-0.359563 l -3.10255,-0.09526 -0.20684,11.307827 c -0.11382,6.2193 -0.1293,11.38506 -0.0345,11.47945 0.0947,0.0944 1.21172,0.14522 2.48205,0.11294 2.30627,-0.0586 2.30724,-0.0592 0.65498,-0.38895 z m 18.89366,-6.70553 c -0.26289,-0.31675 -0.41237,-0.65187 -0.33218,-0.74469 0.0802,-0.0928 0.25941,-1.2857 0.3983,-2.65082 l 0.25252,-2.48205 -1.45522,2.81895 c -1.93598,3.75025 -2.63593,3.63915 -3.45096,-0.54777 -0.56564,-2.90575 -0.62125,-3.00845 -0.89388,-1.65067 -0.1599,0.79633 -0.41562,2.33209 -0.5683,3.41282 -0.2222,1.57302 -0.43754,1.96495 -1.07957,1.96495 -0.96648,0 -0.9879,-0.50618 -0.23373,-5.52238 0.31367,-2.08632 0.78952,-3.80863 1.10637,-4.00446 1.01287,-0.625977 1.9517,0.36418 2.45489,2.58916 0.90981,4.02283 0.79499,3.98904 2.58549,0.76074 0.91136,-1.64323 1.9266,-3.09112 2.25607,-3.21755 1.2921,-0.495827 1.49884,0.53015 0.94984,4.71385 -0.56205,4.28321 -1.13311,5.59198 -1.98964,4.55992 z m 3.91173,0.20697 c -0.11132,-0.18009 0.0602,-2.18124 0.38121,-4.447 0.32097,-2.26577 0.58721,-4.25919 0.59163,-4.42983 0.005,-0.17064 1.20749,-0.31025 2.67346,-0.31025 2.28544,0 2.75724,0.13107 3.3094,0.91939 0.94273,1.34594 0.78888,2.70888 -0.43366,3.8419 l -1.07764,0.99872 0.93054,1.50565 c 0.76822,1.24302 0.82992,1.5693 0.35371,1.87052 -0.88054,0.55697 -1.29343,0.26765 -2.45682,-1.72158 -1.30286,-2.2277 -2.15747,-2.35453 -2.48036,-0.36809 -0.3486,2.1446 -1.17714,3.13459 -1.79147,2.14057 z m 5.56008,-5.70553 c 0.82224,-0.99075 -0.0399,-2.00991 -1.8288,-2.16208 -1.47814,-0.12574 -1.50938,-0.0979 -1.50938,1.34444 0,1.39728 0.0716,1.47283 1.39721,1.47283 0.77017,0 1.64123,-0.29404 1.94097,-0.65519 z m -63.32093,15.93876 c -5.11922,-0.1565 -13.89528,-0.30856 -19.50236,-0.33792 l -10.19469,-0.0534 -1.33543,-1.24747 -1.33542,-1.24748 0.29515,-11.88668 c 0.2287,-9.209539 0.42859,-12.096304 0.88755,-12.817442 l 0.59238,-0.930766 h 18.54004 c 10.19701,0 21.38033,0.122938 24.85181,0.273194 l 6.31179,0.273196 1.40696,1.326928 1.40695,1.326929 v 4.952594 c 0,2.723927 -0.12382,8.093097 -0.27523,11.931487 -0.25762,6.53167 -0.33593,7.03959 -1.22223,7.92588 -1.07026,1.07026 -1.65385,1.08486 -20.42727,0.51094 z m 10.96237,-2.87335 c 0.48699,-0.20927 -3.25684,-0.33051 -9.10083,-0.29472 l -9.92818,0.0608 8.06664,0.23392 c 4.43666,0.12866 8.53203,0.26128 9.10082,0.29472 0.56882,0.0334 1.40651,-0.0992 1.86155,-0.29472 z m 7.05246,-0.16774 c 0.4587,-0.45871 0.61935,-2.79426 0.76111,-11.06579 0.13696,-7.988527 0.10162,-9.154928 -0.14838,-4.89976 -0.18047,3.07153 -0.35011,7.55017 -0.37699,9.95253 -0.0608,5.43869 -0.30528,5.85349 -3.53854,6.0044 -3.35774,0.15673 -3.40618,0.59004 -0.066,0.59004 1.84281,0 2.98441,-0.19703 3.3688,-0.58142 z m -0.8919,-5.75641 c 0.13212,-2.5435 0.29821,-7.43424 0.36905,-10.86832 l 0.12883,-6.243786 -13.8779,-0.275138 c -7.63285,-0.151331 -18.29905,-0.396211 -23.70267,-0.54419 l -9.82477,-0.269052 v 11.379756 11.37976 l 22.64102,0.0889 c 12.45255,0.0489 22.70919,0.15706 22.79252,0.24039 0.0833,0.0833 0.39501,0.0581 0.6926,-0.0561 0.37988,-0.14578 0.61267,-1.58541 0.78134,-4.83217 z m -31.85482,-2.52805 c -0.23396,-0.60971 0.43282,-6.52803 0.92365,-8.19818 0.1218,-0.41462 0.61433,-0.723927 1.15265,-0.723927 1.10161,0 1.70466,1.103377 2.12119,3.881077 0.15842,1.05629 0.43663,2.01238 0.61827,2.12465 0.18165,0.11226 1.05667,-1.14638 1.94449,-2.79698 1.53832,-2.85998 2.61592,-3.765847 3.46717,-2.9146 0.36568,0.36568 -0.57248,7.98528 -1.08536,8.81514 -0.13775,0.22287 -0.51868,0.40521 -0.84654,0.40521 -0.67587,0 -0.74719,-1.30786 -0.21995,-4.03332 0.18707,-0.96696 0.2255,-1.74593 0.0854,-1.73104 -0.14009,0.0148 -0.81797,1.17835 -1.50641,2.58547 -1.76773,3.61316 -2.64378,3.52953 -3.53394,-0.33734 l -0.6666,-2.89571 -0.29783,1.65469 c -0.66115,3.67333 -0.90681,4.49417 -1.39359,4.65643 -0.27988,0.0933 -0.62305,-0.12791 -0.76261,-0.49157 z m 15.35241,-2.71619 c -2.20592,-0.15818 -2.89573,-0.35546 -2.89573,-0.82816 0,-0.95579 6.5525,-0.90583 6.73685,0.0514 0.17341,0.90043 -0.42609,1.02167 -3.84112,0.77679 z m -75.66972,13.19527 -14.03226,-0.32276 -1.27368,-1.27635 c -1.44731,-1.45034 -1.35691,0.25215 -0.84452,-15.904 0.28113,-8.863799 0.3097,-9.0865 1.29173,-10.068527 l 1.00423,-1.004239 20.97583,0.257312 c 23.07097,0.283012 24.72751,0.371874 25.95266,1.392159 2.47264,2.059155 2.53894,2.656035 1.98722,17.887995 -0.37422,10.33103 0.63195,9.51325 -11.59906,9.42737 -5.18644,-0.0364 -15.74441,-0.21144 -23.46215,-0.38896 z m 32.23845,-13.00696 c 0.16763,-5.81152 0.20936,-10.661803 0.0927,-10.778413 -0.11663,-0.116605 -0.33111,3.474816 -0.47669,7.980933 -0.14556,4.50613 -0.39901,9.21681 -0.56316,10.46817 l -0.29845,2.27521 -14.47861,-0.013 c -7.96323,-0.007 -12.52398,0.096 -10.13501,0.22928 2.38897,0.13327 9.11601,0.27875 14.94898,0.32329 l 10.60541,0.081 z m -1.6648,-0.69957 c 0.16856,-5.513717 0.46417,-10.439714 0.65691,-10.946655 0.31044,-0.81651 0.19884,-0.944689 -0.9778,-1.12306 -0.73053,-0.110742 -10.96167,-0.293389 -22.73588,-0.405879 l -21.40763,-0.204527 v 10.491351 c 0,5.77025 -0.11225,10.78402 -0.24956,11.14171 -0.22444,0.58489 1.76378,0.66157 19.75294,0.76183 11.00137,0.0613 21.04921,0.15619 22.32854,0.21083 l 2.32602,0.0994 z m -30.74165,3.04505 c -0.42217,-0.26735 -0.45479,-0.7197 -0.14118,-1.95822 0.22428,-0.88581 0.52847,-2.54133 0.67597,-3.67893 0.38264,-2.950927 0.56349,-3.401107 1.46059,-3.635697 1.10745,-0.28961 1.49951,0.33706 2.08679,3.335507 0.2796,1.42755 0.63894,2.67624 0.79851,2.77486 0.15958,0.0986 0.81997,-0.92922 1.46756,-2.2841 0.64756,-1.35488 1.61265,-2.87231 2.14461,-3.372067 0.84242,-0.79141 1.04371,-0.83159 1.56,-0.31144 0.51464,0.51848 0.50171,1.162447 -0.098,4.884717 -0.44386,2.75465 -0.89561,4.36608 -1.26356,4.50728 -0.93106,0.35728 -1.21839,-0.64687 -0.81701,-2.85523 0.57806,-3.18036 0.19252,-3.2784 -1.35819,-0.34539 -0.78049,1.47625 -1.6952,2.67932 -2.03709,2.67932 -0.43745,0 -0.81617,-0.91529 -1.28375,-3.10256 l -0.66325,-3.10255 -0.30676,2.06837 c -0.65344,4.40611 -1.03112,5.15227 -2.22515,4.39613 z m 14.93888,-0.51358 c -0.30407,-0.30407 -0.34464,-0.8047 -0.11429,-1.4105 0.45411,-1.19443 0.19153,-1.43787 -1.55094,-1.43787 -1.11862,0 -1.38096,-0.1493 -1.27206,-0.72393 0.0958,-0.50593 0.60329,-0.76259 1.68503,-0.85232 1.40786,-0.11677 1.54784,-0.23836 1.54784,-1.34444 0,-0.94027 0.18763,-1.21605 0.82735,-1.21605 0.63952,0 0.82734,0.27578 0.82734,1.21481 0,1.06819 0.16227,1.23046 1.34445,1.34444 1.02545,0.0989 1.34443,0.32594 1.34443,0.95698 0,0.69913 -0.23642,0.80905 -1.52542,0.70925 -1.48546,-0.11501 -1.52882,-0.0779 -1.65469,1.41588 -0.13681,1.62342 -0.67951,2.12325 -1.45902,1.34375 z m -76.511827,10.40189 c -14.808342,-0.27894 -13.803657,0.29396 -13.750671,-7.84118 0.02017,-3.08876 0.160915,-8.56523 0.312871,-12.169957 0.266779,-6.327846 0.311901,-6.583189 1.307862,-7.398687 1.021023,-0.836018 1.268243,-0.841665 24.197325,-0.552765 23.03423,0.290225 23.17126,0.297001 24.13582,1.193579 2.13706,1.986428 2.17082,2.258617 1.77882,14.34423 -0.31958,9.85259 -0.45144,11.28819 -1.10295,12.0081 -0.70903,0.78346 -1.25225,0.81387 -12.98268,0.72694 -6.73348,-0.0499 -17.48686,-0.18952 -23.896397,-0.31026 z m 33.816587,-3.14769 c 0.99548,-1.05877 1.00326,-1.13432 1.05572,-10.23844 l 0.0529,-9.171793 -0.37935,8.893993 c -0.21226,4.97632 -0.5852,9.30398 -0.84667,9.82476 l -0.46732,0.93077 -12.65057,0.0934 -12.65058,0.0934 11.37604,0.22689 c 6.25681,0.1248 11.85551,0.26892 12.44152,0.32029 0.69411,0.0608 1.41506,-0.27839 2.06838,-0.97325 z m 1.09768,0.81671 c -0.13743,-0.13747 -0.49427,-0.15216 -0.79288,-0.0327 -0.33,0.13205 -0.23197,0.23007 0.24993,0.24992 0.43609,0.018 0.68041,-0.0798 0.54295,-0.21727 z m -1.39448,-11.21142 c 0.15401,-5.413577 0.38586,-10.325205 0.51524,-10.914726 l 0.23524,-1.071855 -22.47163,-0.24397 C 97.170436,92.51379 86.986343,92.475853 86.898522,92.563681 c -0.08787,0.08782 -0.256882,5.081454 -0.375692,11.096959 l -0.216028,10.9373 22.332088,0.0617 22.33209,0.0617 z m -17.89064,3.43792 c -3.2627,-1.80837 -2.59898,-7.6717 1.04057,-9.192397 1.73818,-0.72626 3.48038,-0.45616 4.52856,0.70208 0.56797,0.627587 0.62415,0.925887 0.24567,1.304367 -0.37847,0.37847 -0.76566,0.32827 -1.69301,-0.21954 -1.63402,-0.965237 -3.1798,-0.3614 -3.9805,1.55491 -0.79708,1.90771 -0.75715,2.84848 0.15604,3.67487 0.95639,0.86552 2.10254,0.87112 3.32305,0.0162 0.64145,-0.44929 1.09099,-0.53165 1.3714,-0.25125 0.65838,0.6584 -0.2946,2.01269 -1.78088,2.53082 -1.64151,0.57223 -1.98492,0.55939 -3.21087,-0.12009 z m -13.906741,-0.25512 c -0.227269,-0.36772 0.25657,-4.75911 0.872991,-7.92361 0.24475,-1.256437 1.24898,-1.816907 2.05578,-1.147327 0.30005,0.24903 0.7713,1.508777 1.04721,2.799437 0.27591,1.29066 0.63471,2.49988 0.79735,2.68714 0.16263,0.18727 0.96408,-0.85469 1.78099,-2.31546 1.70299,-3.045227 2.37821,-3.728807 3.32455,-3.365667 0.83328,0.31977 0.8332,0.60063 -0.002,5.281347 -0.7251,4.06494 -1.09598,4.86606 -1.88669,4.07535 -0.37161,-0.3716 -0.38504,-1.13044 -0.0546,-3.08187 0.24116,-1.42388 0.39763,-2.63874 0.34773,-2.69968 -0.0499,-0.0609 -0.69454,1.02206 -1.43252,2.40665 -2.01675,3.78381 -3.01615,3.77798 -3.53861,-0.0206 -0.42465,-3.08759 -0.92246,-3.31837 -1.25838,-0.58337 -0.4589,3.7364 -1.23724,5.20948 -2.054131,3.8877 z M 132.62639,94.751248 c -0.13211,-0.330001 -0.23007,-0.231978 -0.24992,0.249928 -0.018,0.436081 0.0797,0.680408 0.21726,0.542948 0.13743,-0.137463 0.15213,-0.494255 0.0327,-0.792876 z M 282.78371,89.27387 c -24.80925,-0.423158 -26.01832,-0.479212 -26.56789,-1.23174 -0.45772,-0.626766 -0.52398,-1.983777 -0.32317,-6.618787 0.13978,-3.224721 0.45651,-6.087508 0.70884,-6.405727 0.38107,-0.480557 2.77426,-0.531902 14.52559,-0.31165 7.73813,0.14503 19.56086,0.292231 26.27273,0.327105 6.71185,0.03487 12.52914,0.228202 12.9273,0.429621 0.64017,0.32384 0.72395,1.071917 0.72395,6.464731 0,4.850111 -0.13181,6.286717 -0.64398,7.017905 -0.35419,0.505667 -0.86611,0.886202 -1.13761,0.845634 -0.2715,-0.04057 -12.19008,-0.273259 -26.48576,-0.517092 z M 257.3672,80.905441 c 0.0622,-1.628553 -0.0266,-2.874102 -0.19721,-2.767888 -0.17064,0.106224 -0.27896,2.090206 -0.24071,4.408866 0.0708,4.294463 0.23477,3.680153 0.43792,-1.640978 z m -34.22191,7.697402 c -8.87331,-0.150767 -19.33114,-0.300822 -23.23962,-0.333466 -6.11082,-0.05103 -7.20575,-0.158768 -7.81601,-0.769024 -0.62859,-0.628582 -0.68217,-1.388284 -0.46903,-6.648713 0.13837,-3.417061 0.43762,-6.1764 0.70452,-6.497998 0.72839,-0.877648 48.71264,-0.371803 49.74033,0.524357 0.6455,0.562898 0.69231,1.261564 0.46063,6.875876 -0.1418,3.437122 -0.44142,6.482004 -0.66575,6.766405 -0.22433,0.284401 -0.897,0.480999 -1.49482,0.436885 -0.59783,-0.04411 -8.34694,-0.203559 -17.22025,-0.354322 z m -30.10315,-6.898959 c -0.0896,-0.858278 -0.16432,-0.257431 -0.16615,1.335213 -0.002,1.592646 0.0714,2.294874 0.16281,1.560506 0.0913,-0.734368 0.0929,-2.037441 0.003,-2.895719 z m 0.61369,-5.076735 c 0.10022,-0.682562 0.0283,-1.241023 -0.15989,-1.241023 -0.18811,0 -0.34203,0.558461 -0.34203,1.241023 0,0.682561 0.0719,1.241022 0.15989,1.241022 0.0879,0 0.24185,-0.558461 0.34203,-1.241022 z m -45.38557,11.184903 c -6.82563,-0.12239 -12.66856,-0.388987 -12.98429,-0.592424 -0.46878,-0.302039 -0.5208,-1.465705 -0.28363,-6.344086 0.31812,-6.543688 0.39692,-6.95815 1.39571,-7.341422 0.88164,-0.338318 35.2772,-0.289845 39.50304,0.05568 2.4192,0.197799 3.3176,0.438374 3.59873,0.963672 0.21401,0.399874 0.25059,3.433615 0.0854,7.074894 l -0.28932,6.37483 -9.30768,0.0157 c -5.11922,0.0086 -14.89227,-0.08444 -21.71788,-0.206838 z m 22.75208,-1.670398 c -0.14056,-0.22752 -0.61699,-0.413674 -1.0586,-0.413674 -0.4416,0 -0.80293,0.186154 -0.80293,0.413674 0,0.227521 0.47637,0.413675 1.0586,0.413675 0.60039,0 0.94793,-0.179056 0.80293,-0.413675 z m 6.1017,0.139714 c -0.28441,-0.114761 -0.74979,-0.114761 -1.03419,0 -0.2844,0.11476 -0.0517,0.208651 0.5171,0.208651 0.5688,0 0.80149,-0.09389 0.51709,-0.208651 z m -39.26952,-0.594864 c -0.72321,-0.209299 -1.39968,-0.704432 -1.50329,-1.100296 -0.14572,-0.556685 -0.19926,-0.516687 -0.23637,0.17654 -0.0529,0.986732 0.45538,1.315985 2.02039,1.308947 0.9037,-0.0041 0.86827,-0.05266 -0.28073,-0.385191 z m -1.49135,-8.128581 c -0.0948,-0.625682 -0.17233,-0.11376 -0.17233,1.137605 0,1.251363 0.0776,1.763285 0.17233,1.137604 0.0948,-0.625684 0.0948,-1.649526 0,-2.275209 z m 41.75876,-1.447859 c -0.11476,-0.284401 -0.20865,-0.0517 -0.20865,0.517093 0,0.568801 0.094,0.801493 0.20865,0.517092 0.11476,-0.284401 0.11476,-0.749784 0,-1.034185 z M 137.3079,75.20371 c 0,-0.100329 -0.18615,-0.297471 -0.41367,-0.438087 -0.22752,-0.140621 -0.41369,-0.05852 -0.41369,0.182423 0,0.240949 0.18617,0.438088 0.41369,0.438088 0.22752,0 0.41367,-0.08208 0.41367,-0.182424 z m -25.85464,12.145259 c -7.7357,-0.181087 -14.667662,-0.441746 -15.404333,-0.579243 -2.051318,-0.382865 -2.299742,-1.257964 -1.791294,-6.309921 0.242998,-2.414509 0.441828,-4.63965 0.441828,-4.944759 0,-0.305111 0.604993,-0.923621 1.344447,-1.374469 1.187473,-0.724024 2.092986,-0.819783 7.756382,-0.820253 3.52658,-2.93e-4 10.47623,0.122202 15.44367,0.272202 11.09846,0.335143 10.31647,-0.24708 9.82597,7.31571 -0.3639,5.610954 -0.61677,6.273372 -2.51757,6.594995 -0.5688,0.09625 -7.36339,0.02683 -15.0991,-0.15427 z m 15.0991,-4.040611 c 0,-1.103276 0.11961,-3.421778 0.26597,-5.152226 l 0.26595,-3.14627 -15.0548,0.229147 -15.054809,0.229147 -0.284212,4.405986 c -0.156349,2.423292 -0.154316,4.538323 0.0047,4.70007 0.359775,0.366462 5.529171,0.542367 19.205271,0.653524 l 10.65211,0.08657 z m -20.6837,1.191058 c -4.8917,-0.120608 -8.700663,-0.345562 -8.464372,-0.499899 0.619534,-0.404651 27.079712,0.134663 27.079712,0.551941 0,0.352737 -2.47903,0.345807 -18.61534,-0.05205 z m 11.45664,-2.405439 c -0.87071,-0.962117 -0.88549,-1.710108 -0.0572,-2.892731 0.92174,-1.315969 1.7473,-1.137841 2.55253,0.550753 0.52151,1.093637 0.58845,1.649838 0.26132,2.171789 -0.62476,0.996837 -1.93537,1.07775 -2.75671,0.170189 z m -9.28485,-0.384876 c -0.51192,-0.347843 -0.93076,-0.880506 -0.93076,-1.183694 0,-0.518391 1.86254,-2.657228 2.31398,-2.657228 0.11445,0 0.47096,0.604998 0.79235,1.344441 0.55437,1.275446 0.58518,1.290306 0.60054,0.289572 0.0363,-2.358961 1.8487,-2.71322 2.75718,-0.538906 0.59304,1.419326 0.58061,1.558593 -0.20974,2.348934 -1.06292,1.06292 -4.019,1.283302 -5.32355,0.396881 z m 22.8555,0.295819 c -0.30166,-0.488083 0.0896,-1.241022 0.64492,-1.241022 0.21409,0 0.38927,0.372307 0.38927,0.827349 0,0.872473 -0.60185,1.113211 -1.03419,0.413673 z m 0.76808,-9.72661 c -0.26894,-0.700829 0.52047,-1.856266 1.26821,-1.856266 0.26792,0 0.70797,0.220843 0.97789,0.490762 0.37855,0.378563 0.33552,0.662281 -0.18823,1.241022 -0.82684,0.913644 -1.73398,0.968518 -2.05787,0.124485 z m 174.00925,-3.362986 c -1.02384,-0.06412 -23.17609,-0.31083 -49.22722,-0.548259 C 196.74268,67.822931 150.3451,67.265009 114.34899,66.658375 L 86.219137,66.18431 85.08154,65.123225 c -1.11735,-1.042185 -1.137613,-1.148399 -1.137613,-5.963779 0,-8.230613 0.8269,-25.28156 1.281814,-26.431507 0.235837,-0.596169 0.908123,-1.302332 1.493949,-1.569253 1.344525,-0.612605 41.98727,-0.630904 86.57786,-0.03898 17.17782,0.228029 43.14622,0.503153 57.70754,0.611385 38.24289,0.284254 62.38122,0.620568 76.49488,1.065782 10.86775,0.342822 12.47297,0.478705 13.17651,1.115391 1.97716,1.789311 1.99174,1.958569 1.51165,17.566791 -0.24699,8.029675 -0.63261,15.087183 -0.85695,15.683353 -0.22433,0.596167 -0.86943,1.294243 -1.43357,1.551277 -0.93076,0.424085 -8.87391,0.536683 -14.22433,0.201637 z m 12.56296,-2.746144 c 0.77997,-0.570321 0.7105,0.57596 1.30052,-21.46205 0.15056,-5.621089 0.0902,-9.053675 -0.16192,-9.209455 -0.61042,-0.377265 -38.5527,-0.999706 -88.78341,-1.456488 -24.79977,-0.22552 -51.60586,-0.507521 -59.56909,-0.626667 -33.29138,-0.498107 -83.66376,-0.728093 -83.876724,-0.382959 -0.124454,0.201655 -0.363043,7.001278 -0.530243,15.110275 -0.301988,14.645892 -0.298314,14.746672 0.553461,15.202527 1.250763,0.669388 1.663275,0.536874 0.704995,-0.22647 -0.805731,-0.641839 -0.800321,-0.651561 0.20685,-0.372149 0.568799,0.157798 21.191271,0.435256 45.827711,0.616573 24.63645,0.181316 44.92716,0.467262 45.09048,0.635437 0.16333,0.168174 -14.50224,0.23975 -32.59015,0.159056 -18.08789,-0.08069 -30.4671,-0.03057 -27.50933,0.111383 2.95777,0.14195 20.8285,0.377984 39.71272,0.524509 44.47194,0.345061 67.77333,0.616061 74.46136,0.866004 2.95777,0.110539 22.31772,0.317486 43.02211,0.459886 20.70439,0.142403 37.72192,0.331243 37.81672,0.419646 0.41678,0.388656 3.66711,0.111227 4.32394,-0.369061 z m -29.52359,-0.732931 c -12.85493,-0.150048 -34.91411,-0.3127 -49.0204,-0.361462 -15.16514,-0.05242 -25.30963,-0.237165 -24.82045,-0.452009 0.45773,-0.201018 9.97577,-0.280253 21.30422,-0.177353 11.26229,0.102299 32.85607,0.280307 47.98621,0.395574 15.13012,0.115261 28.63212,0.322777 30.00441,0.461132 1.85073,0.186592 2.61587,0.105661 2.96279,-0.313402 0.31344,-0.378622 0.56481,-5.135702 0.76217,-14.423044 0.16197,-7.621947 0.45257,-14.137315 0.6458,-14.478597 0.19428,-0.343129 0.24197,5.759267 0.10663,13.651248 -0.19212,11.208503 -0.36937,14.471536 -0.82582,15.202525 -0.51223,0.82036 -0.88672,0.921126 -3.1571,0.84948 -1.41675,-0.0447 -13.09359,-0.204048 -25.94851,-0.354092 z M 87.253404,60.080182 c 0,-0.455042 0.16623,-0.827349 0.369422,-0.827349 0.464982,0 0.898711,1.076016 0.567313,1.407417 -0.497972,0.497965 -0.936735,0.22626 -0.936735,-0.580068 z m 209.445026,-1.22282 c -1.59062,-0.969865 -2.78693,-2.678143 -2.4643,-3.518912 0.12898,-0.336259 0.70759,-0.730088 1.28567,-0.875179 0.83792,-0.210305 1.30461,0.0077 2.30134,1.074618 1.10279,1.180542 1.43227,1.309282 2.79313,1.091405 1.79691,-0.287691 2.99073,-1.544927 2.99073,-3.149613 0,-1.279596 -1.12101,-2.497207 -2.30779,-2.506666 -1.26751,-0.01016 -1.91227,-0.630489 -1.76173,-1.695143 0.11648,-0.82365 0.44104,-1.027628 1.95718,-1.229952 1.93939,-0.258803 2.93968,-1.166689 2.93968,-2.668123 0,-1.039808 -1.20136,-2.260255 -2.2249,-2.260255 -0.95501,0 -3.15286,1.160893 -3.15286,1.66532 0,0.681875 -1.48749,0.446116 -2.20792,-0.349944 -0.63844,-0.705462 -0.60984,-0.821313 0.45298,-1.835217 1.42323,-1.357735 2.99796,-1.962204 5.1118,-1.962204 3.19666,0 5.3303,1.88015 5.3303,4.697033 0,1.28419 -0.27687,1.882847 -1.34445,2.907093 l -1.34443,1.289867 0.88562,0.9469 c 2.47589,2.647185 0.85836,7.204609 -3.02692,8.528457 -2.57872,0.878655 -4.60697,0.829857 -6.21313,-0.149485 z m -61.34967,-0.144967 c -1.70027,-0.57982 -2.08697,-1.835854 -0.8968,-2.912936 0.74197,-0.671474 0.88787,-0.674232 2.21398,-0.04185 1.28321,0.611917 1.56407,0.61666 2.92182,0.04936 0.92942,-0.388341 1.91741,-1.285463 2.59134,-2.353031 1.18792,-1.881794 1.1444,-2.372915 -0.14885,-1.680744 -2.32116,1.242246 -5.87057,-0.155912 -6.94918,-2.737373 -2.48415,-5.945426 5.68375,-12.100749 10.25095,-7.725099 1.60285,1.535618 2.16794,3.503055 1.8829,6.555478 -0.52239,5.594142 -3.16216,9.599057 -7.11023,10.787252 -2.3484,0.706766 -2.83838,0.712839 -4.75585,0.05894 z m 6.62707,-9.598857 c 1.4512,-0.750447 2.06009,-1.780411 2.06009,-3.484753 0,-2.65599 -2.86796,-3.815626 -4.75924,-1.924356 -2.26957,2.269576 -1.55989,5.38857 1.36696,6.007681 0.0682,0.01438 0.66766,-0.254935 1.33219,-0.598572 z m 10.10549,9.4975 c -2.66524,-1.315367 -3.61875,-5.051825 -2.50402,-9.812294 1.17504,-5.018092 3.10817,-7.621012 6.39027,-8.604352 2.03849,-0.610743 4.2641,0.276794 5.45744,2.17633 0.74954,1.193089 0.84089,1.875143 0.70984,5.299238 -0.11273,2.944914 -0.38348,4.448322 -1.08022,5.998275 -2.0703,4.605529 -5.65536,6.580301 -8.97331,4.942803 z m 4.06968,-3.085716 c 1.34159,-1.055294 2.28477,-3.544787 2.74102,-7.234851 0.44821,-3.625032 -0.0252,-4.908961 -1.87631,-5.089589 -1.84159,-0.179692 -3.21936,1.611003 -4.05026,5.264164 -0.90258,3.968336 -0.85232,6.04111 0.17129,7.064723 1.04251,1.04251 1.68446,1.041563 3.01426,-0.0044 z m 12.36928,3.41933 -3.43862,-0.139777 0.1293,-1.120457 c 0.11507,-0.99781 0.32147,-1.13437 1.88542,-1.247565 1.97447,-0.142904 1.75361,0.303839 2.80031,-5.664331 0.35911,-2.047686 0.75433,-4.062786 0.87824,-4.478 0.2025,-0.678529 0.038,-0.72685 -1.62505,-0.477456 -2.00083,0.300044 -2.59022,-0.08519 -2.16759,-1.416802 0.14962,-0.471493 0.78837,-0.881695 1.61408,-1.0366 0.75154,-0.140996 2.1244,-0.90513 3.0508,-1.698089 1.7531,-1.500589 2.77974,-1.806831 3.09977,-0.92465 0.10319,0.284401 -0.4258,3.681699 -1.1755,7.549554 -0.74969,3.867853 -1.37265,7.253356 -1.38435,7.523342 -0.0109,0.269987 0.5822,0.549216 1.31978,0.620511 0.84077,0.08127 1.38861,0.380961 1.46852,0.803348 0.17641,0.932416 -1.0286,2.032481 -2.11518,1.930962 -0.49568,-0.04631 -2.44862,-0.147109 -4.33987,-0.223984 z m 10.78136,0.03421 c -0.75187,-0.303385 -0.63304,-1.986262 0.20684,-2.929143 0.39816,-0.446997 2.45482,-2.256332 4.57037,-4.020745 4.02165,-3.354155 4.77781,-4.240801 5.21146,-6.110835 0.19186,-0.827322 0.0383,-1.355306 -0.57128,-1.964953 -1.27156,-1.271551 -2.80054,-1.056977 -4.37669,0.614211 -1.58111,1.676472 -1.85797,1.737583 -2.85933,0.631111 -0.69657,-0.769709 -0.69897,-0.87806 -0.0416,-1.881283 2.48654,-3.794934 8.92971,-3.847603 10.71395,-0.08759 1.46441,3.08603 0.38323,5.324872 -4.66628,9.662469 l -3.79289,3.25816 3.95615,0.118403 c 4.19812,0.125642 4.52216,0.326242 3.52791,2.184006 -0.39167,0.731837 -0.89497,0.797364 -5.89486,0.767494 -3.00665,-0.01796 -5.69931,-0.126549 -5.98371,-0.24131 z M 189.6292,58.194189 c -0.90537,-0.309193 -2.05305,-1.031687 -2.5504,-1.605545 -2.56861,-2.963794 -0.95113,-11.024716 2.97787,-14.840505 3.74792,-3.639935 11.49966,-2.618961 8.74264,1.151485 -0.52611,0.719497 -0.61877,0.724255 -1.5399,0.07907 -2.0531,-1.438045 -4.72157,-0.452214 -6.36454,2.35129 -1.31442,2.242888 -1.32083,2.612404 -0.0306,1.767042 1.25806,-0.824317 4.01716,-0.865656 5.53092,-0.08287 1.54803,0.800518 2.34911,2.473204 2.31376,4.83112 -0.0691,4.611704 -4.69503,7.84631 -9.07971,6.348915 z m 3.89012,-2.925325 c 1.24565,-0.872482 2.20277,-3.182098 1.8693,-4.510746 -0.53994,-2.151304 -3.30687,-2.493238 -5.16217,-0.637938 -1.54285,1.542852 -1.6171,3.384599 -0.19381,4.807878 1.18459,1.184596 2.14761,1.278727 3.48668,0.340806 z m 26.95124,2.845723 c -0.78858,-0.397809 -1.78779,-1.336454 -2.22047,-2.08588 -0.69995,-1.212355 -0.72943,-1.567056 -0.26747,-3.217047 0.47332,-1.690488 1.93748,-3.437438 3.38936,-4.043941 0.39875,-0.166576 0.35846,-0.333047 -0.16054,-0.663269 -1.20128,-0.764347 -1.71168,-3.05109 -1.03547,-4.639179 0.98215,-2.306609 2.46097,-3.355208 5.03251,-3.568459 3.83224,-0.3178 6.41721,1.43536 6.41721,4.352261 0,1.615007 -1.26074,3.653766 -2.50331,4.048141 -0.80099,0.254226 -0.79411,0.30172 0.21759,1.504065 1.50307,1.786286 1.46995,4.745936 -0.0736,6.580345 -2.04554,2.430995 -5.90482,3.191353 -8.79582,1.732963 z m 5.8547,-2.921158 c 1.28776,-1.287757 1.35974,-2.814616 0.18792,-3.986424 -1.26595,-1.265958 -2.67847,-1.346782 -4.09288,-0.234198 -1.9245,1.51381 -1.80064,4.136398 0.23502,4.976653 1.1508,0.475014 2.77309,0.140808 3.66994,-0.756031 z m 0.35088,-8.151507 c 1.33224,-0.68892 2.00546,-2.420436 1.34892,-3.469316 -0.22719,-0.362946 -1.11055,-0.718766 -1.96303,-0.790712 -2.79544,-0.235921 -4.05201,1.984853 -2.22403,3.930634 1.06189,1.130348 1.2476,1.151901 2.83814,0.329394 z m -52.84636,11.093594 c -1.45008,-0.280766 -3.50989,-2.434048 -3.35485,-3.507095 0.21965,-1.520429 1.97891,-1.659499 3.29892,-0.260781 1.95312,2.069567 5.08262,1.261095 6.1679,-1.59341 0.59291,-1.559475 0.47817,-2.156331 -0.62705,-3.261542 -1.17937,-1.179377 -2.24762,-1.272511 -4.16418,-0.363048 -1.61366,0.765735 -3.31263,0.196845 -2.98051,-0.998009 0.10522,-0.378681 0.61998,-2.270815 1.14383,-4.204742 0.52385,-1.933927 1.12959,-3.748922 1.34612,-4.033322 0.27257,-0.358017 1.78196,-0.517093 4.90641,-0.517093 3.79637,0 4.55398,0.107428 4.77244,0.676739 0.57363,1.494861 -0.41251,2.006504 -4.10722,2.130957 -3.46177,0.116605 -3.53186,0.139667 -3.77281,1.241022 -0.13509,0.617216 -0.35692,1.510979 -0.49308,1.986143 -0.23357,0.815093 -0.12102,0.853434 1.99195,0.678215 2.05449,-0.170374 2.36358,-0.0768 3.74102,1.132619 1.771,1.554955 2.2126,3.246076 1.52582,5.843102 -1.05395,3.985456 -4.71888,5.955584 -9.39471,5.050245 z m 31.18287,0.01423 c -0.9201,-0.9201 1.52239,-6.226808 5.26342,-11.435649 1.27633,-1.777112 2.32061,-3.306364 2.32061,-3.398341 0,-0.09198 -1.90808,-0.220279 -4.24016,-0.285119 -4.072,-0.113212 -4.24552,-0.155708 -4.37534,-1.071427 -0.27237,-1.921433 0.42097,-2.14902 6.54713,-2.14902 6.14337,0 6.8042,0.218359 6.32473,2.089896 -0.14274,0.556964 -1.05343,1.992005 -2.02386,3.188982 -2.3521,2.901185 -4.53647,6.548207 -5.81696,9.711982 -0.5766,1.424661 -1.23877,2.822984 -1.4715,3.107384 -0.44928,0.549084 -2.06598,0.7034 -2.52807,0.241312 z m -63.19048,-1.081117 c -1.75526,-1.18287 -2.63818,-2.777801 -1.91467,-3.458707 1.19576,-1.125332 2.26137,-1.041681 3.18091,0.249704 0.7623,1.070534 1.16155,1.256468 2.69803,1.256468 1.45547,0 1.96873,-0.210263 2.66072,-1.089974 1.67548,-2.13003 0.79658,-3.934189 -2.17635,-4.467462 -1.18837,-0.213166 -1.52535,-0.442146 -1.34443,-0.913578 0.13274,-0.346012 0.2414,-0.893118 0.2414,-1.215791 0,-0.378205 0.4483,-0.586678 1.26157,-0.586678 1.66218,0 3.57636,-1.019155 3.91436,-2.084089 0.16,-0.504181 -8.3e-4,-1.266163 -0.39391,-1.866071 -0.90801,-1.385825 -3.04648,-1.376623 -4.70657,0.02025 -1.46485,1.232582 -1.80338,1.268667 -2.69185,0.286933 -0.62269,-0.68807 -0.62342,-0.822671 -0.009,-1.699463 0.83928,-1.19824 3.65018,-2.496371 5.43129,-2.508289 1.8249,-0.0122 3.96881,0.930475 4.79333,2.107633 0.37605,0.536887 0.67457,1.770309 0.67457,2.787153 0,1.534863 -0.22072,2.03223 -1.39217,3.137041 l -1.39216,1.312978 0.97849,1.137561 c 1.21951,1.41776 1.28751,3.682103 0.16583,5.521737 -1.77433,2.910012 -7.09626,4.01537 -9.97909,2.072639 z m 20.42377,-1.316916 0.23327,-2.260101 -3.79505,-0.118528 c -5.69077,-0.177733 -5.61299,-0.486755 2.34189,-9.304686 3.96601,-4.396283 5.25315,-5.24886 6.31745,-4.184559 0.5906,0.5906 0.59224,0.956786 0.0175,3.908629 -1.28628,6.606674 -1.28655,6.635655 -0.0632,6.942697 0.88814,0.222908 1.06411,0.478904 0.95839,1.394252 -0.10163,0.879231 -0.39496,1.16674 -1.35944,1.332157 -1.07505,0.184377 -1.26784,0.432896 -1.5308,1.973271 -0.40063,2.346789 -0.58631,2.576966 -2.07881,2.576966 h -1.27448 z m 1.31307,-7.150987 c 0.15588,-1.080724 0.38946,-2.430335 0.51898,-2.999137 l 0.23548,-1.034187 -1.13405,1.034187 c -0.62372,0.568802 -1.87732,1.918413 -2.78574,2.999137 l -1.65169,1.964953 h 2.26676 2.26676 z m -52.98486,8.390973 c -0.47458,-1.236723 0.17006,-1.875605 1.89252,-1.875605 1.38428,0 1.69407,-0.154504 1.86635,-0.930766 0.54133,-2.439162 1.81306,-9.613496 1.7205,-9.706055 -0.0575,-0.0575 -0.73626,0.07661 -1.50835,0.298041 -1.61915,0.464368 -2.18771,0.09683 -1.98924,-1.285923 0.10491,-0.731408 0.51506,-1.053269 1.69634,-1.331396 0.90274,-0.212544 2.11531,-0.957746 2.88333,-1.771995 1.28333,-1.360575 2.51116,-1.790408 2.9742,-1.041191 0.12367,0.200205 -0.42339,3.690579 -1.21585,7.756391 -0.79244,4.065811 -1.44115,7.519634 -1.44157,7.675161 -4.2e-4,0.15552 0.51115,0.341682 1.13685,0.413675 0.90274,0.103878 1.13759,0.344394 1.13759,1.16508 0,1.031831 -0.009,1.034453 -4.45457,1.151677 -3.6957,0.09747 -4.49608,0.0094 -4.6981,-0.517094 z m 13.64462,-0.01726 c -0.34608,-0.901877 0.70765,-2.300797 3.44533,-4.573947 6.73695,-5.593826 8.3478,-8.03588 6.51178,-9.871905 -1.15316,-1.153147 -3.03159,-0.809713 -4.58601,0.838454 -1.36215,1.444289 -1.43427,1.468587 -2.42748,0.817813 -1.28949,-0.84491 -1.28033,-1.110411 0.0948,-2.744512 1.42791,-1.696971 3.26693,-2.457534 5.94226,-2.457534 1.87727,0 2.29167,0.168649 3.57999,1.456963 1.37723,1.377236 1.44681,1.579333 1.27151,3.693227 -0.23007,2.774218 -1.32695,4.303217 -5.60226,7.809192 l -3.1137,2.553398 3.46714,0.121781 c 1.90693,0.06698 3.6314,0.286042 3.83217,0.486806 0.20077,0.200762 0.2448,0.844036 0.0979,1.429495 l -0.26717,1.064473 h -6.00337 c -4.96839,0 -6.04464,-0.107521 -6.24272,-0.623705 z m 167.97228,-26.83525 c -0.33482,-0.872517 0.13508,-1.498243 1.12527,-1.498243 0.62495,0 0.79886,0.230333 0.69953,0.926542 -0.15432,1.081332 -1.47095,1.493838 -1.8248,0.571701 z M 109.17814,28.85732 c 0,-0.76043 1.87802,-2.037533 2.46385,-1.675477 0.74497,0.460418 0.47724,0.962197 -0.87271,1.635642 -1.59363,0.795002 -1.59114,0.794939 -1.59114,0.03984 z m 13.93061,-0.07489 c -0.37283,-0.372828 0.51753,-1.382503 1.21914,-1.382503 0.70191,0 0.73351,0.498236 0.0735,1.158288 -0.56102,0.561017 -0.89743,0.619373 -1.29259,0.224215 z m -18.48103,-2.003016 c 0,-0.466552 0.29032,-0.63682 0.93076,-0.545864 0.51192,0.0727 0.93076,0.318343 0.93076,0.545864 0,0.227521 -0.41884,0.47316 -0.93076,0.545864 -0.64044,0.09096 -0.93076,-0.07932 -0.93076,-0.545864 z M 337.3153,23.258869 c -1.14626,-1.196443 -1.30691,-1.236465 -4.93393,-1.229253 -6.12911,0.0122 -27.95729,-0.851873 -30.63791,-1.212792 -1.99544,-0.268664 -1.18443,-0.345902 4.13673,-0.39397 8.9197,-0.08057 29.56278,0.716378 30.69343,1.184959 0.92081,0.381612 2.46446,2.349828 2.11613,2.698151 -0.10428,0.104285 -0.72279,-0.366907 -1.37445,-1.047095 z m -43.99597,-1.883185 -0.87289,-0.906931 1.27638,-0.255274 c 1.94193,-0.388388 2.5991,0.172162 1.42642,1.216702 l -0.95702,0.852435 z m -38.32104,-1.008219 c -3.50697,-0.174684 -1.56414,-0.257426 6.61878,-0.28188 6.37057,-0.01904 13.44441,0.09898 15.71961,0.262277 5.19945,0.373164 -14.88641,0.390791 -22.33839,0.01961 z m -44.26315,-0.452104 c -1.13759,-0.134898 3.10837,-0.27451 9.43551,-0.310255 8.29256,-0.04684 11.42518,0.06234 11.22196,0.391149 -0.2941,0.475853 -16.49742,0.412402 -20.65747,-0.08089 z m 26.37174,0.145342 c 1.53575,-0.0796 4.04883,-0.0796 5.58459,0 1.53577,0.0796 0.27924,0.144717 -2.7923,0.144717 -3.07153,0 -4.32807,-0.06512 -2.79229,-0.144717 z M 125.20801,19.231014 c -3.30219,-0.08094 -5.27435,-0.290594 -5.27435,-0.560683 0,-0.536773 34.34619,-0.03959 34.93478,0.505711 0.36411,0.337309 -16.84185,0.369198 -29.66043,0.05497 z m 62.05854,0.0092 c 0.7435,-0.09207 1.86043,-0.09017 2.48204,0.0042 0.6216,0.09439 0.0125,0.169719 -1.35186,0.167397 -1.36511,-0.0023 -1.8737,-0.07955 -1.13018,-0.171618 z m 8.26606,-0.0052 c 1.1945,-0.08357 3.1491,-0.08357 4.34359,0 1.19448,0.08357 0.21717,0.15194 -2.17179,0.15194 -2.38897,0 -3.36627,-0.06837 -2.1718,-0.15194 z m -87.83077,-0.47968 c 0.74743,-0.292731 2.71732,-0.138729 2.71732,0.212436 0,0.08724 -0.79116,0.14553 -1.75811,0.129536 -1.24379,-0.02058 -1.52441,-0.120608 -0.95921,-0.341974 z m 6.34438,0.07125 c 0.74352,-0.09207 1.86043,-0.09017 2.48204,0.0042 0.6216,0.09439 0.0125,0.169717 -1.35186,0.167395 -1.36511,-0.0023 -1.8737,-0.07955 -1.13018,-0.171617 z"
       id="path3" /></g><metadata
     id="metadata182"><rdf:RDF><cc:Work
         rdf:about=""><cc:license
           rdf:resource="http://creativecommons.org/licenses/by-sa/4.0/" /><dc:publisher><cc:Agent><dc:title>OpenDataKerala.org</dc:title></cc:Agent></dc:publisher><dc:date>April 2026</dc:date><dc:title>Election Symbols of Kerala</dc:title><dc:creator><cc:Agent><dc:title>Manoj Karingamadathil</dc:title></cc:Agent></dc:creator></cc:Work><cc:License
         rdf:about="http://creativecommons.org/licenses/by-sa/4.0/"><cc:permits
           rdf:resource="http://creativecommons.org/ns#Reproduction" /><cc:permits
           rdf:resource="http://creativecommons.org/ns#Distribution" /><cc:requires
           rdf:resource="http://creativecommons.org/ns#Notice" /><cc:requires
           rdf:resource="http://creativecommons.org/ns#Attribution" /><cc:permits
           rdf:resource="http://creativecommons.org/ns#DerivativeWorks" /><cc:requires
           rdf:resource="http://creativecommons.org/ns#ShareAlike" /></cc:License></rdf:RDF></metadata></svg>
