<?xml version="1.0" encoding="UTF-8" standalone="no"?>
<!-- Created with Inkscape (http://www.inkscape.org/) -->

<svg
   width="1500"
   height="1500"
   viewBox="0 0 396.87499 396.875"
   version="1.1"
   id="svg5"
   xml:space="preserve"
   inkscape:version="1.3 (0e150ed6c4, 2023-07-21)"
   sodipodi:docname="Camera.svg"
   inkscape:export-filename="Brush.png"
   inkscape:export-xdpi="96"
   inkscape:export-ydpi="96"
   xmlns:inkscape="http://www.inkscape.org/namespaces/inkscape"
   xmlns:sodipodi="http://sodipodi.sourceforge.net/DTD/sodipodi-0.dtd"
   xmlns="http://www.w3.org/2000/svg"
   xmlns:svg="http://www.w3.org/2000/svg"
   xmlns:rdf="http://www.w3.org/1999/02/22-rdf-syntax-ns#"
   xmlns:cc="http://creativecommons.org/ns#"
   xmlns:dc="http://purl.org/dc/elements/1.1/"><title
     id="title186">Election Symbols of Kerala</title><sodipodi:namedview
     id="namedview7"
     pagecolor="#ffffff"
     bordercolor="#000000"
     borderopacity="0.25"
     inkscape:showpageshadow="2"
     inkscape:pageopacity="0.0"
     inkscape:pagecheckerboard="0"
     inkscape:deskcolor="#d1d1d1"
     inkscape:document-units="mm"
     showgrid="false"
     inkscape:zoom="0.25"
     inkscape:cx="230"
     inkscape:cy="1082"
     inkscape:window-width="1920"
     inkscape:window-height="991"
     inkscape:window-x="-9"
     inkscape:window-y="-9"
     inkscape:window-maximized="1"
     inkscape:current-layer="layer1" /><defs
     id="defs2"><inkscape:path-effect
       effect="bspline"
       id="path-effect3248"
       is_visible="true"
       lpeversion="1"
       weight="33.333333"
       steps="2"
       helper_size="0"
       apply_no_weight="true"
       apply_with_weight="true"
       only_selected="false" /><inkscape:path-effect
       effect="bspline"
       id="path-effect577"
       is_visible="true"
       lpeversion="1"
       weight="33.333333"
       steps="2"
       helper_size="0"
       apply_no_weight="true"
       apply_with_weight="true"
       only_selected="false" /></defs><g
     inkscape:label="Layer 1"
     inkscape:groupmode="layer"
     id="layer1"><path
       style="fill:#000000;stroke-width:1.55312"
       d="m 103.25612,318.45846 c -11.603686,-1.38402 -27.500286,-4.00969 -33.69624,-5.56567 -10.318167,-2.59118 -20.711987,-6.22383 -26.710418,-9.33532 -4.167801,-2.16193 -8.849506,-6.64175 -9.580115,-9.16701 -0.329336,-1.13831 -0.458414,-4.65697 -0.392138,-10.68975 0.09678,-8.80961 0.07949,-9.02002 -0.8488,-10.32368 -0.521177,-0.73193 -1.279884,-1.50861 -1.686014,-1.72595 -0.40613,-0.21736 -1.713966,-1.83301 -2.906302,-3.59035 -1.849023,-2.7252 -2.215393,-3.58867 -2.490898,-5.87065 -0.177658,-1.47152 -0.600668,-3.96993 -0.940018,-5.552 -1.572714,-7.33209 -2.507231,-19.73526 -3.560578,-47.25692 -0.54921,-14.34963 -1.208421,-18.71874 -4.032488,-26.7265 -1.119014,-3.17301 -2.262943,-7.18478 -2.542065,-8.91505 -0.58542,-3.629 -0.36022,-9.44935 0.429936,-11.11178 0.827212,-1.74038 3.066496,-2.92518 5.573441,-2.94891 1.812987,-0.0171 2.390143,0.18259 3.800477,1.31529 1.814654,1.45743 2.644324,1.5799 5.787802,0.8543 2.557659,-0.59039 3.120922,-1.36892 3.524258,-4.87119 0.610136,-5.29798 1.787248,-10.99378 2.602092,-12.59101 1.749869,-3.43002 5.818812,-5.95994 14.247206,-8.8584 2.034106,-0.69951 3.997032,-1.52594 4.362046,-1.8365 0.445885,-0.37938 0.757736,-1.60271 0.950323,-3.72797 0.517639,-5.71249 1.356355,-9.58221 2.292886,-10.57909 1.34042,-1.42682 9.150547,-4.56223 13.968558,-5.60774 3.773164,-0.81878 5.475306,-0.93635 13.560677,-0.93666 7.895284,-3.1e-4 9.825346,0.12673 13.212576,0.86984 6.850636,1.50289 11.090816,3.81317 11.591306,6.31558 0.35547,1.77734 1.65074,2.85356 3.44753,2.86449 0.84753,0.005 5.23935,-0.39847 9.75958,-0.89694 6.40275,-0.70608 8.4543,-1.07807 9.28542,-1.68363 0.60546,-0.44115 2.29377,-0.93841 3.90383,-1.1498 5.62714,-0.73885 7.07642,-1.08801 8.84604,-2.1312 2.51836,-1.48456 3.47188,-2.62929 7.44777,-8.94126 6.23796,-9.903143 11.8822,-18.642143 13.66841,-21.162873 0.96091,-1.35608 2.25139,-3.48264 2.86771,-4.7257 1.16712,-2.354 2.92556,-4.51732 3.67745,-4.52423 0.24023,-0.002 1.45382,-0.49138 2.69689,-1.08705 2.53288,-1.21373 4.77919,-1.50143 16.84811,-2.15792 12.72022,-0.69191 15.98949,-0.0109 21.43049,4.46401 1.52328,1.25282 3.54231,2.74017 4.48671,3.30519 1.26601,0.75745 3.41137,3.2943 8.16653,9.65685 12.10161,16.192323 16.70212,21.649443 19.44829,23.069533 3.07148,1.58833 4.80091,1.82354 9.6178,1.30801 3.54909,-0.37985 5.19352,-0.38073 7.23865,-0.005 1.45546,0.26818 4.57824,0.4876 6.93953,0.4876 4.22526,0 4.31176,-0.0194 5.46378,-1.22181 2.61032,-2.72457 11.59603,-4.03228 19.73515,-2.87212 5.18409,0.73896 6.8358,1.50083 8.75993,4.04055 0.67725,0.89395 1.158,1.0022 5.85128,1.31756 2.81238,0.18898 9.52018,0.98736 14.90621,1.77417 5.38603,0.78683 10.05522,1.32988 10.37597,1.20679 0.64713,-0.24832 0.68726,-0.43849 0.59559,-2.82268 -0.10312,-2.68126 0.63886,-3.05952 5.43935,-2.77313 4.51898,0.26961 5.40938,0.67951 5.25582,2.41948 -0.0578,0.65522 -0.13294,2.02344 -0.167,3.04048 l -0.0618,1.84918 2.87651,0.53943 c 13.61053,2.55232 22.80239,6.40284 25.11988,10.52285 0.48126,0.8556 1.09553,2.96972 1.36503,4.69806 0.73141,4.69055 1.19474,6.16438 2.0882,6.64256 1.25399,0.6711 4.94722,0.0494 6.15043,-1.03531 1.60282,-1.44496 2.66117,-1.84843 4.84874,-1.84843 3.87228,0 5.46398,2.28178 5.73301,8.21859 0.23472,5.1798 -0.74366,11.38521 -2.61775,16.60303 -3.27525,9.11898 -3.99444,13.94005 -4.66476,31.27028 -1.04195,26.93742 -2.7398,42.39371 -5.17399,47.10089 -0.37929,0.73347 -1.21252,3.01027 -1.85163,5.05955 -1.03264,3.31117 -1.37734,3.91403 -3.09622,5.41526 l -1.93423,1.6893 -0.0651,14.13149 c -0.0623,13.54631 -0.10127,14.20119 -0.93945,15.81413 -1.58535,3.05063 -5.89763,6.03095 -13.72048,9.48261 -15.67197,6.91489 -33.84674,11.05125 -56.44401,12.84602 -7.91184,0.62839 -31.02583,1.9517 -61.63944,3.52894 -22.07572,1.13736 -68.46152,3.25218 -85.47335,3.8969 -6.10231,0.23126 -14.51609,0.60399 -18.6973,0.82831 -11.40023,0.61157 -30.58593,0.82346 -34.31262,0.37898 z m 34.10715,-4.09295 c 5.42427,-0.21958 17.3515,-0.68026 26.50497,-1.02373 9.15345,-0.34347 21.54298,-0.89427 27.53228,-1.224 5.9893,-0.32971 15.51259,-0.80325 21.16287,-1.0523 5.65028,-0.24906 11.2903,-0.51855 12.53335,-0.5989 1.24306,-0.0803 11.78025,-0.62247 23.41596,-1.2047 30.7648,-1.53947 55.32835,-3.03651 61.44099,-3.74458 20.69376,-2.3971 34.12501,-5.70849 47.14068,-11.62226 6.1951,-2.81478 12.64959,-7.88936 12.64959,-9.94523 0,-0.95583 -0.23186,-0.87515 -2.46558,0.85802 -5.58697,4.33503 -19.79277,9.44055 -34.31262,12.33188 -9.79717,1.95091 -30.06947,4.6976 -29.38147,3.98088 0.11307,-0.11772 3.34907,-0.61957 7.19127,-1.11521 17.83558,-2.30083 35.46675,-6.81941 45.14607,-11.5702 7.20222,-3.53498 10.25657,-5.78677 12.59832,-9.28799 2.02537,-3.02819 2.66649,-5.43439 1.62021,-6.08103 -0.2341,-0.14476 -1.58538,0.81523 -3.00283,2.13313 -1.7029,1.58329 -3.89353,3.04313 -6.45742,4.30323 -6.38673,3.13888 -21.1858,7.81191 -26.68683,8.42674 -1.24307,0.13901 -3.647,0.69812 -5.34209,1.24262 -11.1254,3.57381 -33.09986,5.51039 -80.74766,7.11623 -6.55432,0.2209 -14.04351,0.49403 -16.64264,0.60696 -2.59913,0.11291 -7.96176,0.30882 -11.91697,0.43531 -3.95519,0.12642 -12.27651,0.49449 -18.49183,0.81779 -37.01886,1.9256 -51.36668,2.41144 -71.91268,2.43504 -32.130216,0.037 -42.894222,-0.85637 -59.476012,-4.93592 -9.526635,-2.34378 -14.545495,-4.08247 -21.443739,-7.42873 -4.40733,-2.13793 -6.036411,-3.17631 -8.115863,-5.17311 l -2.601684,-2.49827 v 1.83336 c 0,1.40203 0.298409,2.23915 1.268339,3.55804 0.697585,0.94857 1.355713,1.72468 1.462504,1.72468 0.106793,0 0.07988,-0.18493 -0.0598,-0.41094 -0.583867,-0.94472 1.183196,-0.28276 4.302162,1.61161 1.831484,1.11239 4.75635,2.59213 6.499712,3.28831 1.743346,0.69619 4.279248,1.81709 5.635308,2.49091 1.356076,0.67381 4.869512,1.89799 7.807658,2.72038 2.938161,0.8224 5.434552,1.59018 5.547557,1.70618 0.113068,0.11602 -0.719125,0.0921 -1.849191,-0.0531 -3.109967,-0.39959 -10.595274,-2.58846 -11.079242,-3.23983 -0.234738,-0.3159 -1.306872,-0.79445 -2.382548,-1.06342 -2.49153,-0.623 -5.914606,-2.13639 -8.874348,-3.9235 -1.275796,-0.77034 -3.013074,-1.68706 -3.860617,-2.03718 -1.411429,-0.58306 -1.540986,-0.58017 -1.540986,0.0345 0,0.36903 0.879103,1.51832 1.953561,2.55395 4.03106,3.88543 15.932462,8.80756 28.86616,11.93834 3.051151,0.73857 6.379688,1.58803 7.396733,1.88769 l 1.849176,0.54485 -2.67104,-0.22189 c -3.665518,-0.30451 -13.689866,-2.33919 -18.90678,-3.83757 -8.495363,-2.44002 -16.362109,-6.08288 -19.4124,-8.98932 l -1.540987,-1.46832 v 1.07302 c 0,1.25375 2.446994,3.94686 5.485198,6.03688 3.016704,2.07525 11.380114,5.93067 16.910463,7.79551 21.984364,7.41317 42.934656,9.65458 77.254776,8.26527 z m -34.72355,-5.35653 c -4.98805,-0.36369 -15.803635,-1.9471 -17.036299,-2.49414 -0.594038,-0.26362 -0.299007,-0.3119 1.01004,-0.16525 12.142663,1.36021 24.009339,2.21428 31.847049,2.29211 2.45461,0.0244 3.42197,0.1555 2.8765,0.3899 -0.99457,0.42738 -12.71994,0.4132 -18.69729,-0.0227 z m 29.17601,0.0227 -3.08198,-0.26287 3.90383,-0.0805 c 2.14711,-0.0443 8.98908,-0.25574 15.2044,-0.46991 6.21531,-0.21418 21.28615,-0.66913 33.49077,-1.01101 30.8284,-0.86356 34.07209,-0.97653 41.29842,-1.43834 5.56366,-0.35554 20.06449,-1.16479 33.69622,-1.88049 2.37312,-0.12456 6.90362,-0.39902 10.06777,-0.60984 3.16416,-0.21082 9.6363,-0.58056 14.38254,-0.82162 4.74623,-0.24106 9.23465,-0.51371 9.97425,-0.60589 0.73959,-0.0923 1.24787,-0.0109 1.12947,0.18068 -0.11835,0.19156 -2.01794,0.46447 -4.22122,0.60647 -2.2033,0.14196 -5.85519,0.42961 -8.11529,0.63911 -2.26011,0.20952 -6.51324,0.57098 -9.45138,0.80325 -2.93815,0.23228 -8.76308,0.70239 -12.94428,1.04472 -13.81315,1.13087 -26.3567,1.88794 -37.60005,2.26932 -6.10232,0.207 -13.96133,0.56403 -17.46452,0.7934 -14.40868,0.94338 -62.3505,1.51887 -70.26895,0.8435 z m 39.86017,-5.28974 c -3.0589,-0.27136 -3.06813,-0.27573 -1.23279,-0.58292 1.8848,-0.31547 12.67063,-0.79134 34.72355,-1.53201 6.78033,-0.22774 18.52265,-0.68856 26.09403,-1.02408 7.57138,-0.33552 16.81729,-0.58036 20.54648,-0.54409 l 6.78033,0.066 -5.34208,0.33735 c -14.38147,0.90817 -35.74115,2.00599 -39.03831,2.00646 -2.03411,2.8e-4 -7.30428,0.2735 -11.71149,0.60718 -9.22204,0.69817 -26.29795,1.06725 -30.81972,0.66614 z m 174.26838,-15.40757 c 0.0941,-0.0829 1.97701,-0.82208 4.18409,-1.64247 4.31107,-1.60248 14.49306,-6.22873 15.50628,-7.04537 0.54672,-0.44064 2.46558,-1.10132 2.46558,-0.84891 0,0.29331 -4.43858,2.87539 -8.01688,4.66368 -4.29072,2.14435 -15.38006,5.96631 -14.13907,4.87307 z m -224.88021,10.42915 c 4.44433,-0.22317 11.5016,-0.58882 15.68281,-0.81258 4.1812,-0.22376 12.595,-0.60603 18.6973,-0.84949 22.82931,-0.91083 36.98305,-1.67101 37.31624,-2.0042 0.64131,-0.64131 -4.84175,-1.32694 -11.6414,-1.45567 -7.54366,-0.14274 -11.59106,-0.5877 -9.85405,-1.08315 0.56503,-0.16117 3.24634,-0.32943 5.95847,-0.37391 l 4.93116,-0.0809 -1.64372,-0.64655 c -0.90404,-0.3556 -4.49241,-2.10808 -7.97416,-3.8944 -4.48879,-2.30297 -7.17863,-3.98614 -9.24593,-5.78565 -5.27832,-4.59463 -10.52363,-10.27917 -13.41887,-14.54262 -1.56762,-2.30844 -3.25164,-4.41198 -3.74225,-4.67455 -0.51948,-0.27801 -2.5365,-0.45876 -4.82923,-0.43275 -2.48513,0.0281 -4.39183,-0.15755 -5.16996,-0.5036 -1.15195,-0.51231 -0.92962,-0.5687 3.39017,-0.85983 2.54262,-0.17138 4.62296,-0.43065 4.62296,-0.57618 0,-0.14553 -0.66176,-1.1886 -1.47058,-2.31794 -0.80882,-1.12933 -2.20885,-3.31005 -3.11117,-4.84606 -0.90233,-1.536 -2.20136,-3.43142 -2.88675,-4.21203 -1.67657,-1.90951 -3.34021,-1.88643 -8.03929,0.11167 -3.20966,1.36473 -3.98457,1.53198 -7.13977,1.54097 -3.37395,0.009 -3.6386,-0.0572 -5.66373,-1.42815 -2.69808,-1.82664 -4.25561,-4.76263 -4.49145,-8.46652 -0.14444,-2.2676 -0.0109,-2.83204 1.2053,-5.11475 2.033,-3.81431 4.40598,-4.94055 11.99936,-5.69504 2.56449,-0.25481 4.50745,-0.67866 5.34208,-1.16537 l 1.31171,-0.7649 0.27261,-6.96395 c 0.23123,-5.90692 0.46747,-7.71242 1.55644,-11.8951 2.14068,-8.22233 6.98264,-17.16295 12.29566,-22.70386 1.35448,-1.41257 2.57233,-2.5683 2.70633,-2.5683 0.31637,0 -0.72759,2.00719 -2.42756,4.6674 -1.8372,2.87497 -4.78903,8.81571 -6.58111,13.24488 -3.10329,7.66985 -4.74723,17.17685 -4.03075,23.31009 l 0.37516,3.21142 -1.50647,1.5523 c -1.02315,1.05427 -2.13996,1.71183 -3.48097,2.04949 -1.08599,0.27346 -2.48872,0.7631 -3.11718,1.08809 -1.00634,0.5204 -1.45734,0.50837 -3.78021,-0.10095 -2.49672,-0.65485 -2.73974,-0.65276 -4.55162,0.0393 -1.47909,0.56487 -2.15634,1.14437 -2.98008,2.54997 -1.27198,2.17049 -1.07279,3.79036 0.25805,2.09847 1.65511,-2.10412 4.23265,-2.92367 9.63086,-3.06218 4.64298,-0.11912 5.01683,-0.19305 6.81632,-1.34778 2.38519,-1.53057 2.79575,-1.52662 3.3391,0.032 0.24039,0.68957 0.52084,1.16999 0.62323,1.06761 0.10235,-0.10235 0.24287,-3.4866 0.31217,-7.52045 0.17311,-10.07632 1.85032,-17.79306 5.43463,-25.00425 1.2996,-2.61467 4.34058,-6.36941 5.15859,-6.36941 0.18221,0 -0.20256,1.06328 -0.85504,2.36284 -1.78073,3.54673 -4.45397,10.95125 -5.39066,14.93135 -1.72079,7.31192 -1.88861,20.3576 -0.32942,25.60821 0.45771,1.54138 0.52297,1.1112 0.77322,-5.09687 0.2939,-7.29058 0.95704,-11.18049 2.88916,-16.94752 2.68136,-8.0033 5.60642,-13.1813 10.7969,-19.1128 6.53984,-7.47352 11.77699,-11.45387 20.96896,-15.93684 14.02928,-6.84216 30.3103,-8.23379 45.28952,-3.87115 2.29384,0.66805 4.32548,1.21466 4.51474,1.21466 0.9368,0 -4.54843,-3.1783 -7.62906,-4.42052 -4.57883,-1.84633 -8.26569,-2.76154 -13.69161,-3.39877 -2.64249,-0.31033 -4.60231,-0.74231 -4.87873,-1.07538 -0.58659,-0.70679 -6.01145,-0.75205 -9.07342,-0.0756 -1.82878,0.40397 -2.01361,0.52199 -1.15381,0.73682 0.7653,0.19123 0.091,0.4481 -2.67106,1.01748 -10.37312,2.13833 -20.37897,6.91882 -28.10403,13.42722 -2.77886,2.3412 -3.02276,2.46725 -2.83076,1.46283 0.25463,-1.33198 0.0471,-1.36814 -1.18881,-0.20714 -0.52219,0.49059 -1.07804,0.76339 -1.2352,0.60623 -0.15714,-0.15714 0.72048,-1.30603 1.9503,-2.55306 6.156,-6.24215 18.17098,-12.15071 29.76833,-14.63907 7.35372,-1.57785 21.64633,-1.10975 28.76507,0.94206 9.71706,2.80074 13.42071,4.37044 20.34102,8.62109 5.11869,3.14405 11.33252,9.23812 10.9547,10.74355 -0.19824,0.7898 0.0848,1.32047 1.37797,2.58318 0.8951,0.87405 1.92436,1.63274 2.28723,1.686 0.79832,0.11711 0.51763,-0.24053 2.6292,3.35062 0.96587,1.64268 1.89826,3.07451 2.07199,3.18188 0.17372,0.10732 0.43624,-0.28444 0.58337,-0.87065 0.28277,-1.12666 -0.358,-3.64649 -1.19045,-4.68147 -0.27269,-0.33902 -1.10617,-1.72591 -1.85218,-3.08198 -1.51011,-2.74505 -2.81467,-4.52822 -6.0945,-8.33044 -1.87625,-2.17507 -2.14174,-2.67573 -1.7007,-3.20715 0.72017,-0.86774 1.83775,-1.4216 3.22203,-1.59679 2.20404,-0.27894 5.79467,-2.33712 8.65238,-4.95964 4.66461,-4.28072 5.66959,-4.81351 8.72094,-4.62347 1.42778,0.089 2.96582,0.32153 3.41784,0.5169 l 0.82186,0.35521 -0.82186,-0.93526 c -1.0022,-1.14048 -3.563,-2.49153 -4.72251,-2.49153 -2.06118,0 -5.69071,2.56897 -9.20744,6.51696 -1.10865,1.24462 -5.82454,4.631 -6.27387,4.50513 -0.18846,-0.0528 -0.98987,0.24824 -1.7809,0.66893 -0.79105,0.42069 -2.34571,1.0044 -3.45482,1.29713 -2.33201,0.61551 -2.69533,0.48515 -5.79111,-2.07768 -3.60893,-2.98765 -8.09139,-5.41772 -14.56049,-7.89364 -4.52272,-1.73097 -14.49142,-3.50494 -22.83409,-4.06341 -7.10745,-0.47578 -18.47368,1.61922 -26.9159,4.9611 -5.31328,2.10328 -9.76797,4.54321 -16.99679,9.30951 -3.35893,2.2147 -6.28912,3.91426 -6.51154,3.7768 -1.09837,-0.67883 9.45229,-9.3384 14.4349,-11.84761 1.56658,-0.7889 2.95673,-1.60977 3.08922,-1.82414 0.13248,-0.21436 1.20952,-0.70221 2.39342,-1.0841 1.18389,-0.38192 2.52239,-0.91507 2.97441,-1.18482 1.80073,-1.07459 9.36284,-2.77406 16.64264,-3.74016 5.63992,-0.74848 16.84013,-0.87664 20.54648,-0.23509 1.24306,0.21515 3.89327,0.68011 5.88936,1.03322 2.50153,0.44254 3.86577,0.51544 4.39046,0.23462 0.41869,-0.22407 2.39144,-0.38896 4.3839,-0.36644 4.40934,0.0498 3.14171,0.67792 -1.49343,0.73993 -3.60266,0.0481 -3.49887,0.44808 0.49242,1.89683 2.4942,0.90534 2.93629,0.94204 6.87858,0.57111 4.50654,-0.42403 7.55648,-0.0519 4.11449,0.50197 -1.01706,0.16367 -2.86624,0.31539 -4.10931,0.33718 -2.22756,0.039 -2.24677,0.0499 -1.33378,0.74958 0.50947,0.39049 2.13861,1.33691 3.6203,2.10315 2.4525,1.26827 2.82991,1.35245 4.21029,0.93923 1.77317,-0.53079 6.68786,-0.87215 6.42464,-0.44624 -0.31119,0.5035 -4.26529,1.29302 -5.53933,1.10602 -0.67,-0.0983 -1.21817,-0.12922 -1.21817,-0.0685 0,0.23704 4.76143,3.74249 5.34209,3.93293 1.43206,0.4697 6.20402,-2.50156 14.0421,-8.7433 4.28517,-3.41242 5.91215,-4.1666 8.98865,-4.1666 3.0079,0 4.80801,1.10694 6.83677,4.20412 0.9623,1.46908 2.50393,3.64235 3.42584,4.82949 2.88641,3.7168 3.24803,5.80901 1.47238,8.519 -0.75861,1.15778 -4.39356,3.70662 -7.59624,5.3265 -1.21655,0.61533 -3.06575,1.90261 -4.10929,2.86063 -1.04354,0.95801 -2.5783,2.1518 -3.41059,2.65284 -3.15477,1.89922 -3.4225,5.82485 -0.80978,11.87419 3.17034,7.34042 4.2211,12.26707 4.53477,21.26203 0.53926,15.46354 -0.98446,24.75634 -5.75202,35.08014 -1.78309,3.86113 -6.43916,10.61469 -9.66985,14.02595 -1.17725,1.24307 -2.53705,2.76863 -3.02178,3.39016 l -0.88132,1.13007 2.39267,0.0124 c 3.21911,0.0168 1.99292,0.75146 -1.57099,0.94122 -2.34593,0.12487 -2.85785,0.3236 -5.03888,1.95552 -2.35341,1.7609 -2.39235,1.82063 -1.27288,1.95254 0.63515,0.0749 2.23646,0.0749 3.55848,0 1.32203,-0.0749 2.40334,-0.0172 2.40294,0.12813 -0.002,0.53479 -1.52979,0.82935 -5.20837,1.00391 -3.36364,0.15961 -4.03897,0.33124 -6.27398,1.59455 -4.93927,2.79183 -4.97831,2.68485 0.97994,2.68485 2.91311,0 5.18742,0.10918 5.05405,0.24249 -0.71594,0.71596 -8.70055,1.8149 -12.83876,1.76703 -3.81086,-0.0441 -5.06081,0.11571 -7.96483,1.01836 -1.89453,0.58885 -4.84786,1.36051 -6.56297,1.71477 -5.84844,1.20802 -4.29568,1.27241 9.39117,0.38945 5.08526,-0.32807 15.07085,-0.78337 22.1902,-1.01178 7.11936,-0.22842 16.82757,-0.60136 21.5738,-0.82876 4.74624,-0.22741 14.73183,-0.69074 22.1902,-1.02963 17.87609,-0.81223 22.86942,-1.21036 33.9017,-2.703 9.79636,-1.32542 14.83467,-2.63962 25.94943,-6.7687 13.18939,-4.8998 21.14267,-11.15239 22.34621,-17.56785 0.32968,-1.75731 -0.0323,-1.90313 -1.62137,-0.65316 -1.26222,0.99286 -1.68446,0.81875 -1.31296,-0.54138 0.39855,-1.45917 1.37582,-2.51142 2.40162,-2.58585 0.85907,-0.0623 0.95402,-0.32305 1.21016,-3.32206 0.15283,-1.78992 0.48827,-8.06229 0.74535,-13.93858 0.25705,-5.87629 0.73147,-16.13926 1.05424,-22.80659 1.51628,-31.32095 1.90021,-43.3207 1.67631,-52.39353 -0.24319,-9.8544 -0.90952,-19.00991 -1.49576,-20.55184 l -0.342,-0.89951 -2.95386,0.99069 c -1.62461,0.54488 -3.07279,0.86184 -3.21814,0.70437 -0.14538,-0.15747 -0.0775,-0.35409 0.15096,-0.43694 0.22837,-0.0828 1.61526,-0.85473 3.08198,-1.71529 2.23578,-1.31178 2.64822,-1.72521 2.55219,-2.55815 -0.19201,-1.6655 -0.66315,-1.75698 -4.45063,-0.86414 -1.98747,0.46852 -3.67597,0.78945 -3.75221,0.71321 -0.0763,-0.0763 1.21697,-0.98356 2.87383,-2.01623 4.84702,-3.021 5.17883,-3.7555 2.91306,-6.44821 -1.25161,-1.48745 -1.47846,-1.50454 -3.1472,-0.23687 -6.08498,4.62252 -39.93136,11.41882 -61.50929,12.35099 -2.82514,0.12207 -4.9517,0.13356 -4.72569,0.0255 0.22601,-0.1081 5.21881,-1.04423 11.0951,-2.08041 5.87629,-1.03616 15.21467,-2.78865 20.75195,-3.89441 5.53727,-1.10575 13.39631,-2.57977 17.4645,-3.27559 4.06821,-0.69583 8.96854,-1.63682 10.88964,-2.09108 3.65322,-0.86384 6.98581,-2.24407 6.98581,-2.89323 0,-1.16218 -7.02077,-3.9108 -14.66838,-5.74267 -5.25231,-1.25812 -7.70509,-1.49033 -8.14934,-0.7715 -0.40857,0.66105 0.50616,1.49871 1.9525,1.78798 1.41656,0.28331 3.19524,1.71255 3.19524,2.56751 0,0.30513 0.2641,0.43053 0.61949,0.29415 0.34072,-0.13078 1.31153,-0.0879 2.15738,0.0954 1.53668,0.33275 1.53594,0.33325 -0.92768,0.62909 -1.35608,0.16284 -3.76001,0.60452 -5.3421,0.98151 -4.76742,1.13604 -14.20406,0.0362 -14.88361,-1.7346 -0.47972,-1.25019 0.81611,-2.76053 2.77383,-3.23301 1.57365,-0.37978 1.85585,-0.60753 1.9714,-1.59105 0.0742,-0.63129 -0.0205,-1.30322 -0.21047,-1.49315 -0.18995,-0.18995 -1.91491,-0.53222 -3.83323,-0.76062 -1.91833,-0.22841 -7.74101,-0.95868 -12.93926,-1.62283 -10.76265,-1.3751 -14.7123,-1.71151 -15.36409,-1.30867 -0.24993,0.15453 -0.57447,1.97209 -0.7212,4.03918 l -0.26678,3.75833 3.03941,0.14305 3.03941,0.14304 -3.1847,0.0817 c -3.17259,0.0814 -3.86084,0.47392 -2.7603,1.57446 1.46737,1.46737 -2.29006,3.70334 -7.2554,4.31755 -5.56984,0.68898 -14.18034,0.25066 -17.13394,-0.87223 -2.63153,-1.00044 -3.08726,-1.60107 -2.38474,-3.14293 0.37317,-0.81902 0.34228,-1.20952 -0.15142,-1.91442 -0.34113,-0.48703 -0.63799,-1.81519 -0.65969,-2.95145 -0.0217,-1.13628 -0.25408,-2.99054 -0.51641,-4.1206 l -0.47698,-2.05465 -12.32513,-0.12239 c -13.4509,-0.13357 -15.80344,0.11524 -14.89157,1.57544 0.45453,0.72782 0.97856,0.80708 5.33633,0.80708 2.94759,0 4.83231,0.16028 4.83231,0.41094 0,0.22601 -0.97082,0.41252 -2.15737,0.41449 -1.18657,0.002 -3.10624,0.11757 -4.26597,0.25692 l -2.10858,0.25336 -0.24736,1.8048 c -0.13606,0.99265 -0.50906,2.31014 -0.82886,2.92779 l -0.58147,1.12297 5.60847,-0.13202 c 4.09329,-0.0965 5.48807,-0.009 5.1628,0.32238 -0.26022,0.26537 -2.73343,0.53647 -5.94369,0.65152 -3.02393,0.10841 -5.66175,0.36074 -5.86183,0.56083 -0.20009,0.20009 -0.24052,0.75226 -0.0898,1.22703 0.26625,0.83889 0.50779,0.86358 8.56759,0.87571 4.80329,0.008 8.03423,0.16033 7.67725,0.36376 -0.60055,0.34221 -12.81598,1.28528 -14.72193,1.13659 -0.7731,-0.0603 -1.06342,0.2396 -1.51894,1.56913 -0.33614,0.98109 -1.38134,2.40252 -2.59273,3.52595 l -2.02959,1.88224 -5.90285,0.48375 c -15.05981,1.23421 -27.56671,1.70955 -52.40591,1.99183 l -21.02542,0.23894 -2.64585,-1.47965 c -2.52489,-1.412 -5.05301,-3.74702 -6.0267,-5.56636 -0.37657,-0.70363 -0.62764,-0.77855 -1.49893,-0.44728 -1.41699,0.53874 -17.01933,0.5268 -17.01933,-0.0124 0,-0.22601 1.15574,-0.44256 2.56831,-0.48122 1.41257,-0.0387 2.84569,-0.1008 3.18471,-0.13792 0.33901,-0.0373 3.15233,-0.21243 6.25182,-0.38939 l 5.63541,-0.32176 -0.61747,-1.47781 c -0.3396,-0.81281 -0.81497,-1.59989 -1.05634,-1.74906 -0.311,-0.19222 -0.3107,-0.35043 0.001,-0.5431 0.27193,-0.16806 -0.23862,-1.16818 -1.33736,-2.61968 -0.97749,-1.29129 -2.09971,-2.97717 -2.49383,-3.7464 l -0.7166,-1.3986 -7.45629,0.26617 c -9.87322,0.35247 -26.49202,2.11608 -27.26987,2.89393 -0.086,0.086 -0.029,0.66405 0.12658,1.2844 l 0.28309,1.12788 3.94895,-0.28593 c 3.02049,-0.2187 3.83738,-0.17252 3.47444,0.19642 -0.26098,0.2653 -2.06393,0.58152 -4.00657,0.70272 l -3.53204,0.22036 0.006,1.2776 c 0.0109,2.11066 0.4436,2.40666 3.63438,2.48342 3.85804,0.0929 4.30664,0.64335 0.5242,0.64335 -2.30653,0 -3.0123,0.1418 -3.20501,0.64401 -0.1359,0.35421 -0.0376,0.85349 0.21835,1.10952 0.7854,0.78538 0.52439,1.84916 -0.83303,3.39518 -3.75669,4.27863 -14.310559,6.52387 -30.753982,6.5426 -11.654813,0.014 -18.965006,-0.96666 -23.119601,-3.0992 -1.825537,-0.93706 -3.590829,-2.96654 -3.590829,-4.12824 0,-0.62037 -0.179494,-1.23887 -0.398888,-1.37445 -0.552429,-0.34142 -8.462754,2.80257 -10.832467,4.3054 -2.213928,1.40402 -2.661531,2.17146 -1.86163,3.19185 0.5139,0.65555 0.497016,0.66461 -0.206589,0.11089 -0.690491,-0.54345 -0.843321,-0.50785 -1.5462,0.36015 -1.066797,1.31745 -1.373013,2.78093 -0.830852,3.97083 0.701228,1.53904 4.836813,4.00569 7.663506,4.57087 14.410374,2.8813 26.97985,4.23959 50.913674,5.50189 9.690938,0.51112 30.680098,0.33577 46.476628,-0.38828 5.19826,-0.23826 17.21797,-0.63423 26.71044,-0.8799 22.54605,-0.58356 33.50065,-0.97132 58.14654,-2.05826 17.67591,-0.77956 28.19069,-1.2044 35.33995,-1.42791 3.95519,-0.12362 8.76306,-0.31972 10.68416,-0.43574 1.9211,-0.11602 7.5611,-0.38878 12.53335,-0.60615 9.52624,-0.41647 23.35566,-1.633 30.09539,-2.64739 4.13372,-0.62216 14.31278,-2.54168 24.7637,-4.66981 3.27716,-0.66733 8.82472,-1.70821 12.32789,-2.31306 3.50319,-0.60486 6.87795,-1.19463 7.49947,-1.3106 2.14545,-0.4003 1.12148,0.58427 -1.69242,1.62728 -3.02779,1.1223 -22.80986,5.86252 -30.25736,7.25034 -13.44426,2.50527 -35.65061,4.68456 -54.65364,5.36357 -31.38822,1.12157 -72.00867,2.71273 -84.24055,3.29979 -4.74624,0.22781 -15.19412,0.59761 -23.21752,0.8218 -8.0234,0.2242 -23.1867,0.69478 -33.69623,1.04574 -23.99005,0.80114 -27.51114,0.68481 -56.091902,-1.85319 -11.0666,-0.98273 -14.587988,-1.18088 -14.587988,-0.82087 0,0.32229 0.728056,0.47861 8.424044,1.80877 9.981357,1.72514 21.646172,3.06849 27.062165,3.11655 5.883451,0.0522 1.234681,0.68805 -7.132081,0.9755 -7.161948,0.24606 -9.593808,0.16015 -16.231718,-0.57345 -14.877784,-1.64424 -22.454012,-3.58155 -27.616613,-7.06185 -2.484161,-1.67465 -5.886481,-3.26568 -9.25699,-4.32885 -1.046101,-0.32998 -1.425147,1.04464 -2.139961,7.76067 -1.579638,14.84146 -1.774158,28.12126 -0.829344,56.61879 0.348507,10.51171 0.798566,26.13911 1.000129,34.72754 0.201563,8.58842 0.564471,16.79602 0.806463,18.23912 0.700952,4.18005 2.268121,7.1734 5.094956,9.73154 1.356942,1.22796 2.604318,2.23265 2.771948,2.23265 0.167631,0 0.429747,-0.73967 0.58248,-1.64371 0.152672,-0.90405 0.446383,-1.64373 0.652528,-1.64373 0.660371,0 0.404029,-1.2966 -0.704138,-3.5616 -1.396419,-2.85418 -1.235491,-5.54925 0.464445,-7.77797 l 1.153192,-1.5119 -1.345313,-2.44713 c -1.140654,-2.07484 -1.316089,-2.7513 -1.153194,-4.44657 0.125958,-1.31094 0.567221,-2.49123 1.281435,-3.42761 1.274537,-1.671 1.324299,-2.01022 0.406126,-2.76818 -0.375747,-0.31019 -1.024469,-1.33375 -1.441608,-2.27456 -0.638883,-1.44093 -0.690638,-2.02669 -0.328337,-3.71605 0.236553,-1.10301 0.7624,-2.55227 1.168546,-3.22058 0.737856,-1.21412 0.737297,-1.2168 -0.67318,-3.26976 -1.266884,-1.84396 -1.393324,-2.27717 -1.233061,-4.22475 0.113378,-1.37784 0.512982,-2.62241 1.094541,-3.40902 l 0.915961,-1.23891 -1.259022,-1.90079 c -1.881464,-2.8405 -1.53831,-6.012 0.892827,-8.25169 l 1.024981,-0.94427 0.287824,2.58798 c 0.465455,4.18504 1.180076,4.80978 8.290818,7.24807 10.061234,3.45001 24.54945,6.01343 41.048972,7.26287 5.550729,0.42032 5.693049,0.71375 0.616402,1.27067 -16.040668,1.75967 -35.01535,-0.37351 -46.282628,-5.20323 -2.395936,-1.02702 -2.557476,-1.01181 -3.05143,0.28739 -0.520979,1.37028 0.09288,3.38142 1.409658,4.61849 3.033072,2.84944 22.557434,7.0632 43.320829,9.34955 6.911196,0.76102 10.093348,1.2564 9.494298,1.478 -1.47427,0.54538 -14.664898,0.95245 -21.418562,0.66101 -11.044685,-0.47661 -21.891394,-2.47951 -28.7546,-5.30967 -2.792587,-1.15156 -3.023008,-1.18579 -3.508979,-0.52118 -1.349428,1.84545 -0.07672,4.92988 2.636374,6.3891 2.726627,1.46653 10.039895,3.75457 15.951706,4.9907 9.014276,1.88484 30.20995,4.78372 35.007501,4.78791 3.329,0.003 2.94574,0.7156 -0.5897,1.09663 -5.109592,0.55067 -24.027477,0.41418 -28.664782,-0.2068 -8.372744,-1.12121 -17.056221,-3.3603 -21.305448,-5.49371 -2.245625,-1.12749 -2.733926,-0.78985 -2.733926,1.89027 0,3.28816 1.022279,4.30353 6.487505,6.4436 9.545102,3.73769 27.753692,7.23116 44.865641,8.60781 3.04396,0.2449 5.60355,0.5143 5.68795,0.5987 0.53574,0.53576 -5.55261,0.83006 -16.975467,0.82056 -11.795386,-0.009 -13.678792,-0.10593 -18.28637,-0.93287 -7.381916,-1.32492 -14.077276,-3.19359 -17.972143,-5.01599 -3.662164,-1.71352 -3.971623,-1.65385 -3.881309,0.74847 0.08542,2.2715 0.857617,4.10068 2.106652,4.99006 2.358894,1.67969 12.135426,5.08271 19.407723,6.75547 8.461148,1.94621 24.083064,4.2286 31.775204,4.64241 11.17668,0.60126 3.66008,1.56589 -12.12243,1.55572 -10.853916,-0.008 -14.070442,-0.32708 -23.012064,-2.28985 -6.382406,-1.40099 -10.474876,-2.73117 -14.668517,-4.76769 -4.435415,-2.15394 -4.891924,-1.39384 -1.921054,3.19864 1.765726,2.72954 2.121298,3.04178 4.954561,4.35083 9.396437,4.34142 23.447915,7.3997 48.413214,10.53705 2.52617,0.31747 9.56003,0.26583 17.39703,-0.12767 z m -41.436402,-5.98396 c -8.017064,-1.43124 -14.88555,-3.0752 -16.585347,-3.96966 -0.420491,-0.22128 -2.052618,-0.75926 -3.626938,-1.19553 -1.57432,-0.43626 -4.096509,-1.44259 -5.604868,-2.23626 -1.508359,-0.79368 -2.465081,-1.3571 -2.126066,-1.25205 6.113002,1.89412 10.230851,3.29897 10.889638,3.71509 0.45202,0.28551 2.578582,0.92663 4.725693,1.42467 2.147095,0.49804 5.290718,1.25732 6.985793,1.68731 1.69509,0.42996 4.746241,0.99688 6.780346,1.25982 2.03409,0.26293 3.975738,0.63562 4.314753,0.82821 0.92333,0.52447 -2.126749,0.38577 -5.753004,-0.2616 z m 48.489692,-1.44219 c 0,-0.23935 0.18491,-0.32089 0.41092,-0.18121 0.22601,0.13963 0.41093,0.33551 0.41093,0.43517 0,0.0997 -0.18492,0.18122 -0.41093,0.18122 -0.22601,0 -0.41092,-0.19583 -0.41092,-0.43518 z m 36.34307,-1.40093 c -0.72282,-0.54672 -0.48495,-0.60455 2.53516,-0.6164 1.83304,-0.008 4.23699,0.11399 5.34208,0.26934 1.70365,0.23946 1.85301,0.32698 0.98194,0.57543 -1.99785,0.56985 -8.00869,0.4149 -8.85918,-0.22837 z m -7.98892,-5.44591 c -0.56505,-0.10142 -1.20301,-0.35357 -1.41773,-0.56044 -0.23702,-0.22837 1.48512,-0.37614 4.38389,-0.37614 4.85642,0 6.24931,0.20623 5.8422,0.86492 -0.22685,0.36708 -6.86084,0.42104 -8.80836,0.0716 z m 146.36706,-1.1497 c 0.11726,-0.11726 4.63231,-0.94774 10.03353,-1.84563 16.87817,-2.80577 32.26499,-7.03538 41.08361,-11.29329 5.62504,-2.71594 6.9253,-3.76762 7.49066,-6.05865 0.45494,-1.84352 0.24328,-4.01229 -0.39156,-4.01229 -0.20611,0 -1.52249,0.57939 -2.9253,1.28752 -3.53872,1.78633 -12.49165,4.67062 -18.93858,6.10127 -8.15043,1.80866 -15.33041,2.55111 -26.36072,2.72582 -10.71833,0.16976 -11.5563,-0.15752 -3.28744,-1.28393 16.04603,-2.18585 34.53155,-6.82334 44.95233,-11.27725 4.56164,-1.94968 6.50122,-3.33432 7.27932,-5.1966 0.54616,-1.30711 0.79461,-4.73686 0.37364,-5.15783 -0.1095,-0.1095 -1.4502,0.41432 -2.97925,1.16414 -3.57275,1.75201 -11.72372,4.42038 -17.5388,5.74163 -8.19001,1.86087 -15.60005,2.62971 -27.36155,2.83893 -11.1612,0.19856 -12.85407,-0.13139 -5.45353,-1.06278 4.6305,-0.58279 16.99032,-2.69699 20.5664,-3.51796 13.2786,-3.0484 22.91344,-6.00299 28.44567,-8.72306 2.64797,-1.30195 3.21216,-1.77352 4.00656,-3.34885 0.54139,-1.07361 0.92459,-2.58371 0.92459,-3.64356 0,-2.11172 0.57397,-2.16463 -6.15481,0.56731 -5.45768,2.21585 -13.30446,4.34013 -20.35016,5.50921 -10.18466,1.68993 -25.85237,2.55295 -31.02518,1.70897 l -1.84917,-0.30171 1.64371,-0.27302 c 0.90405,-0.15019 5.06471,-0.74944 9.24592,-1.33175 9.47299,-1.31927 15.90693,-2.59134 24.86124,-4.91535 12.25036,-3.17948 21.24867,-6.6722 22.90495,-8.8906 0.80293,-1.07544 1.52063,-5.7042 0.88444,-5.7042 -0.20073,0 -2.03004,0.73023 -4.06512,1.62274 -4.3429,1.90466 -14.30528,4.55698 -21.57346,5.7436 -10.4235,1.70175 -26.85863,2.58159 -32.05251,1.7159 l -1.84917,-0.30822 1.84917,-0.2767 c 1.01706,-0.15221 5.17771,-0.73225 9.24593,-1.28903 14.57135,-1.99422 26.81257,-4.69385 37.56861,-8.28521 9.0372,-3.01746 11.10726,-4.45269 11.44165,-7.93279 0.33025,-3.43695 0.19521,-3.50544 -3.65848,-1.856 -9.7563,4.17588 -26.01083,7.21223 -42.06434,7.85764 -5.37684,0.21616 -14.48772,-0.10577 -14.09545,-0.49798 0.0758,-0.0758 4.11033,-0.71117 8.96576,-1.41209 21.97082,-3.17161 42.0266,-8.03965 48.32178,-11.72887 0.99007,-0.58021 2.07852,-1.59331 2.4188,-2.25134 0.55808,-1.0792 0.89723,-5.34651 0.42493,-5.34651 -0.10654,0 -1.22832,0.45754 -2.4928,1.01675 -7.48996,3.31242 -19.35522,5.89221 -33.88619,7.36768 -6.52761,0.66281 -19.79111,0.82624 -22.39566,0.27596 -0.90404,-0.19101 -1.34772,-0.36854 -0.98595,-0.39454 2.07947,-0.14941 24.02063,-3.54711 28.51823,-4.41622 8.01343,-1.54848 17.97056,-4.01409 22.6946,-5.61969 5.43636,-1.8477 7.82819,-3.25273 8.57341,-5.03628 0.57209,-1.36922 0.79153,-4.35021 0.35256,-4.78919 -0.12456,-0.12456 -1.81417,0.39683 -3.75467,1.15863 -8.72501,3.42528 -20.54316,5.77214 -35.04781,6.95976 -7.63395,0.62507 -17.61469,0.75069 -20.35037,0.25611 -1.48174,-0.26786 -1.23878,-0.34903 2.46558,-0.8236 26.54855,-3.40116 50.58744,-9.09616 55.25324,-13.0899 1.59313,-1.36367 1.66051,-1.5201 1.66051,-3.8549 0,-1.33845 -0.16768,-2.43355 -0.37263,-2.43355 -0.20493,0 -1.5889,0.54572 -3.07549,1.21269 -5.58848,2.50739 -16.31241,4.94193 -28.19345,6.40048 -6.32515,0.7765 -27.45419,1.33086 -28.4963,0.74766 -0.45401,-0.25406 2.3335,-0.74443 8.67429,-1.52594 9.74142,-1.20064 24.60338,-3.88358 33.34555,-6.01968 8.93486,-2.18319 16.78195,-5.2505 17.66807,-6.90624 0.46396,-0.8669 0.72259,-4.86841 0.33944,-5.25158 -0.14134,-0.14133 -2.43954,0.50442 -5.10711,1.43501 -12.20523,4.25778 -26.77753,6.51585 -44.60759,6.91222 -6.72746,0.14956 -10.58144,0.0899 -10.58144,-0.16359 0,-0.21933 2.54263,-0.72487 5.65028,-1.12342 22.40107,-2.87285 47.22648,-8.59416 52.89815,-12.19103 1.37042,-0.86911 2.1481,-1.74738 2.74798,-3.1035 0.81444,-1.84118 0.85656,-1.87097 1.58677,-1.12227 0.70906,0.727 1.01223,2.15167 0.87289,4.10193 -0.0342,0.47699 -0.53397,1.56276 -1.11083,2.41282 l -1.04886,1.54558 1.12863,1.69648 c 0.79129,1.18939 1.17739,2.37201 1.29173,3.95657 0.13947,1.93359 0.003,2.49445 -0.94419,3.88205 l -1.10728,1.62196 0.9208,1.87095 c 1.8491,3.75712 1.78314,6.19659 -0.23228,8.59179 l -1.00874,1.19881 1.11896,1.99866 c 1.56041,2.78714 1.56409,5.93134 0.009,8.28018 l -1.11214,1.68059 1.05884,2.31282 c 0.87487,1.91098 1.0087,2.64725 0.77025,4.23754 -0.32218,2.14864 -0.75949,3.15854 -1.92107,4.43647 -0.78024,0.85841 -0.77752,0.88966 0.2458,2.81423 0.56914,1.07041 1.15053,2.56315 1.29199,3.3172 0.32462,1.73032 -0.44598,4.18555 -1.75409,5.58886 l -1.00888,1.08229 1.12859,2.20514 c 1.52177,2.97334 1.51976,5.33538 -0.006,7.94013 l -1.15308,1.96759 0.95751,2.04434 c 1.34185,2.8649 1.25645,5.80452 -0.24298,8.3631 l -1.13723,1.94053 0.84751,1.74443 c 1.72415,3.5488 1.56236,6.2011 -0.56552,9.27165 l -1.09214,1.57595 1.15103,1.96407 c 1.58584,2.70605 1.51866,4.98188 -0.24472,8.29034 -0.73603,1.38091 -1.5469,2.51073 -1.80197,2.51073 -0.25506,0 -1.10765,0.43207 -1.89466,0.96015 -4.48126,3.00695 -15.68469,6.86502 -25.26516,8.70047 -8.16542,1.56433 -18.94092,2.66726 -26.0589,2.66726 -3.48464,0 -6.23981,-0.096 -6.1226,-0.21312 z m -152.65683,-5.39174 c -0.62779,-0.62779 0.35562,-0.97 2.78749,-0.97 2.82808,0 4.03972,0.28468 3.68112,0.86491 -0.25709,0.41599 -6.06338,0.51031 -6.46861,0.10515 z M 42.156278,276.25996 c -0.812005,-0.84754 -1.783786,-2.18821 -2.15951,-2.97924 -0.607202,-1.27837 -0.406678,-1.15155 1.803903,1.141 2.323873,2.41002 2.943249,3.37923 2.159511,3.37923 -0.180142,0 -0.9919,-0.69345 -1.803904,-1.54099 z m 209.199852,-3.00403 c -0.30387,-0.1878 -0.46538,-0.41616 -0.35892,-0.50747 0.47801,-0.40997 5.33018,-1.39314 5.33018,-1.08003 0,0.82015 -4.09631,2.12825 -4.97126,1.5875 z m 110.65892,-0.82789 c 0.0809,-0.24295 0.32292,-0.44175 0.53764,-0.44175 0.2147,0 0.45665,0.1988 0.53763,0.44175 0.0809,0.24297 -0.16095,0.44175 -0.53763,0.44175 -0.37669,0 -0.61862,-0.19878 -0.53764,-0.44175 z m -218.28237,-1.40744 -1.84918,-0.5357 1.84918,-0.0898 c 5.83903,-0.28329 6.75897,-0.21365 6.90422,0.52269 0.12378,0.62726 -0.1901,0.71397 -2.4566,0.67877 -1.42914,-0.0222 -3.43056,-0.28141 -4.44762,-0.57605 z M 41.014737,270.0203 c -0.233964,-0.43717 -0.421276,-1.13061 -0.41625,-1.54099 0.0076,-0.62768 0.136721,-0.58302 0.812721,0.28118 0.86702,1.10843 1.062923,2.05465 0.425387,2.05465 -0.21806,0 -0.587896,-0.35768 -0.821858,-0.79484 z m 216.750903,-6.19097 c 0.13962,-0.22601 0.80872,-0.41092 1.48677,-0.41092 0.71721,0 1.12657,0.17185 0.97881,0.41092 -0.13963,0.22603 -0.80871,0.41094 -1.48676,0.41094 -0.71721,0 -1.12657,-0.17185 -0.97882,-0.41094 z M 122.5698,254.48635 c -0.45202,-0.11399 -1.18661,-0.46233 -1.63242,-0.77418 -0.44581,-0.31185 -1.1166,-0.567 -1.49067,-0.567 -0.37405,0 -0.91031,-0.27738 -1.19166,-0.6164 -0.7779,-0.93729 0.22332,-0.79937 1.95177,0.26888 1.65656,1.0238 3.14077,1.11326 10.17066,0.61301 2.71213,-0.193 4.81109,-0.22705 4.66437,-0.0756 -0.85831,0.88555 -10.13097,1.74157 -12.47205,1.15137 z m -9.85054,-3.13095 c -1.08724,-0.79501 -0.5316,-1.90859 0.95235,-1.90859 1.53741,0 2.43479,0.97216 1.70692,1.84917 -0.63563,0.76591 -1.66174,0.78883 -2.65927,0.0595 z m 150.7994,-0.26488 c 0.13962,-0.22601 0.52043,-0.41092 0.84611,-0.41092 0.32567,0 0.59214,0.18491 0.59214,0.41092 0,0.22601 -0.38075,0.41092 -0.84611,0.41092 -0.46536,0 -0.73183,-0.18491 -0.59214,-0.41092 z m -132.11387,-1.64371 c 1.46358,-0.46872 4.20586,-0.46872 4.93115,0 0.42405,0.27403 -0.40948,0.38752 -2.67104,0.36368 -2.26816,-0.0239 -2.96891,-0.13668 -2.26011,-0.36368 z m 134.05204,-14.89172 c -0.68626,-0.82688 -0.0682,-1.41396 1.82075,-1.7296 1.1353,-0.18971 1.80319,-0.12472 2.00054,0.19457 0.70447,1.13984 -2.9357,2.60212 -3.82129,1.53503 z M 71.819995,227.47086 c -6.606319,-0.84747 -15.227361,-2.88469 -19.214748,-4.54061 -1.975521,-0.8204 -4.022922,-1.5939 -4.549786,-1.7189 -1.166875,-0.27681 -4.162672,-3.96058 -4.22031,-5.18948 -0.11243,-2.39729 0.168104,-3.93639 1.050172,-5.76143 l 0.965292,-1.99723 -1.248415,-1.77113 c -1.658765,-2.35332 -1.654382,-4.31826 0.01715,-7.69069 l 1.265569,-2.55338 -0.926538,-1.24108 c -2.245942,-3.00841 -2.271006,-4.48623 -0.144922,-8.54485 l 1.242876,-2.3726 -0.832959,-0.91484 c -1.264881,-1.38919 -1.757526,-2.56078 -1.757526,-4.17972 0,-1.56073 1.325751,-4.79464 2.295532,-5.59948 0.810232,-0.67244 0.763701,-0.84929 -0.85728,-3.25804 -0.791039,-1.17548 -1.437561,-2.53473 -1.436716,-3.02054 0.0017,-1.01091 1.440377,-3.55435 2.010414,-3.55435 0.209171,0 0.779602,0.82485 1.267639,1.83298 0.710646,1.46801 1.312619,2.03417 3.023288,2.84345 7.044935,3.33278 30.22441,7.22283 49.503457,8.30782 2.781096,0.15653 4.907656,0.42278 4.725696,0.59167 -0.41838,0.38835 -15.568414,1.22364 -22.130702,1.22017 -10.503237,-0.006 -23.105934,-1.75327 -29.566338,-4.10022 -3.973641,-1.44354 -4.648192,-1.49334 -4.927335,-0.36377 -0.131549,0.53266 -0.09226,1.97927 0.0876,3.21468 0.399913,2.74818 1.341119,3.50247 6.36001,5.09697 8.689209,2.76053 31.230987,6.29516 45.254882,7.09612 2.638103,0.15066 4.796543,0.4129 4.796543,0.58272 0,1.03012 -28.665975,1.3981 -34.929008,0.44838 -7.387368,-1.12022 -14.304544,-2.64465 -17.378603,-3.82994 -2.562865,-0.98821 -3.321129,-1.13519 -3.80109,-0.73687 -0.695564,0.57728 -0.803661,3.50504 -0.189092,5.12148 1.147057,3.01701 15.227439,6.63222 35.956789,9.23207 7.98726,1.00175 15.204282,1.65051 18.413354,1.65524 1.3129,0.002 2.28955,0.16133 2.17034,0.35423 -0.55269,0.89427 -20.247102,1.78065 -27.774965,1.25006 -9.630632,-0.67879 -17.876797,-2.28461 -25.039677,-4.87608 -2.689398,-0.973 -3.544996,-1.13783 -3.819075,-0.73576 -0.532378,0.781 -0.147701,5.07342 0.528325,5.89499 3.088596,3.75364 28.882499,8.92886 51.283674,10.2894 8.157298,0.49545 5.329588,1.14969 -7.821061,1.80953 -15.508258,0.77816 -30.425881,-1.17724 -41.110491,-5.38871 -2.062155,-0.81282 -2.160125,-0.8163 -2.700891,-0.0958 -0.642059,0.85541 -0.411079,3.7309 0.404604,5.03703 1.221559,1.95601 12.262331,5.56697 23.343437,7.63461 7.052639,1.31596 25.687576,3.47072 30.10059,3.48055 2.57685,0.006 3.15413,0.57178 1.02733,1.00734 -2.822405,0.57803 -26.273831,0.60401 -30.716996,0.034 z m 45.202265,-0.44068 c 0,-0.12456 0.62366,-0.48703 1.38591,-0.80551 1.56353,-0.65329 10.85493,-1.286 9.50373,-0.64717 -0.45204,0.21371 -1.654,0.40443 -2.67106,0.42386 -1.01704,0.0194 -2.95869,0.3032 -4.31475,0.63063 -2.63038,0.63513 -3.90383,0.76502 -3.90383,0.39819 z m 149.57836,-1.01925 c 0,-0.57158 1.07922,-0.95239 1.66791,-0.58856 0.34624,0.21399 0.3238,0.38873 -0.0831,0.64652 -0.76475,0.48457 -1.58486,0.45458 -1.58486,-0.0579 z M 122.77526,222.0273 c 0,-0.48659 2.30761,-0.92367 4.91061,-0.93012 2.85245,-0.008 1.47478,0.75283 -1.94033,1.07023 -1.9129,0.17778 -2.97028,0.12797 -2.97028,-0.14009 z m 142.48985,-3.0222 c -1.31006,-0.76303 -0.81615,-1.3211 0.95852,-1.08307 1.96231,0.26321 2.43839,0.60048 1.59789,1.13204 -0.7795,0.49296 -1.65475,0.4762 -2.55641,-0.0489 z m -140.43519,-5.19722 c 0,-0.42023 2.20133,-1.09705 5.03389,-1.54773 1.67344,-0.26625 2.08201,0.29545 0.73806,1.01471 -1.15928,0.62043 -5.77195,1.04639 -5.77195,0.53302 z m 4.62784,-4.91592 c 0.38207,-0.38205 0.81005,-0.57928 0.95107,-0.43826 0.40444,0.40443 -0.21642,1.13294 -0.96552,1.13294 -0.62728,0 -0.62616,-0.054 0.014,-0.69468 z m 131.66381,-5.74322 c -0.6296,-0.6296 -0.19067,-1.28368 1.02447,-1.52672 1.64496,-0.32899 1.90599,-0.0646 0.96398,0.97629 -0.75966,0.8394 -1.49572,1.04316 -1.98845,0.55043 z m -0.68488,-4.23182 c 0,-0.55472 1.16694,-1.09123 2.97923,-1.36971 1.84553,-0.2836 2.00578,0.27194 0.32861,1.13923 -1.35726,0.70187 -3.30784,0.83778 -3.30784,0.23048 z m -114.22365,-4.15604 c -0.0362,-1.58631 4.94089,-7.50026 5.52146,-6.56087 0.16072,0.26004 -0.58681,1.47324 -1.70012,2.75927 -1.09282,1.26236 -2.39635,2.78009 -2.89675,3.37274 -0.65651,0.77752 -0.91394,0.89694 -0.92459,0.42886 z m 113.24092,0.10453 c -0.26175,-0.42352 2.07629,-0.89629 4.27016,-0.86346 1.13999,0.0171 1.26781,0.0896 0.6164,0.34947 -1.43016,0.57066 -4.64269,0.90857 -4.88656,0.51399 z m 8.32225,-2.14048 c 0.53356,-0.4445 1.27323,-0.80697 1.64371,-0.80548 0.43843,0.002 0.24322,0.28775 -0.55918,0.81915 -1.58558,1.05008 -2.34986,1.04045 -1.08453,-0.014 z m -4.46301,-1.54329 c 0,-0.45054 0.98964,-0.71221 4.10929,-1.08648 l 1.84917,-0.22185 -1.43825,0.65911 c -1.83791,0.84226 -4.52021,1.22751 -4.52021,0.64922 z m 14.38252,-10.21046 c 0,-0.15966 0.30605,-0.62847 0.68008,-1.04178 0.63332,-0.69981 0.63149,-0.80519 -0.0267,-1.53254 -0.88444,-0.9773 -0.56691,-1.17362 2.12976,-1.31675 2.38143,-0.12643 3.53453,0.48744 2.58983,1.37869 -0.43559,0.41092 -0.58216,0.41092 -0.73283,0 -0.3218,-0.87764 -1.25821,-0.56769 -2.17509,0.71996 -0.8566,1.20297 -2.46499,2.37253 -2.46499,1.79242 z m -127.25411,-7.0198 c 0.58717,-0.95008 6.85175,-1.84733 6.85175,-0.98137 0,0.56248 -1.0332,0.84154 -4.2082,1.13662 -1.96296,0.18244 -2.8211,0.13201 -2.64355,-0.15531 z m 133.41806,-0.52648 c 0,-0.22601 0.18491,-0.41092 0.41092,-0.41092 0.22603,0 0.41094,0.18491 0.41094,0.41092 0,0.22603 -0.18491,0.41094 -0.41094,0.41094 -0.22601,0 -0.41092,-0.18491 -0.41092,-0.41094 z m -39.03831,-1.64371 c -0.52677,-0.34043 -0.51183,-0.39926 0.10267,-0.40464 0.39551,-0.003 0.71912,0.17863 0.71912,0.40464 0,0.50117 -0.0463,0.50117 -0.82186,0 z m -87.11706,-2.46558 c 0,-0.22601 0.78589,-0.39792 1.74643,-0.38205 1.3526,0.0224 1.56112,0.10856 0.92461,0.38205 -1.14599,0.49245 -2.67104,0.49245 -2.67104,0 z m 4.93115,-0.41092 c 0,-0.22601 0.72876,-0.41094 1.61946,-0.41094 0.89071,0 1.73376,0.18493 1.87343,0.41094 0.15516,0.251 -0.47515,0.41092 -1.61945,0.41092 -1.0304,0 -1.87344,-0.18491 -1.87344,-0.41092 z m 1.23279,-2.05466 c 0.81137,-0.52435 2.8765,-0.52435 2.8765,0 0,0.22601 -0.78591,0.4081 -1.74645,0.40464 -1.27899,-0.005 -1.58146,-0.11292 -1.13005,-0.40464 z m 142.38709,-5.76335 c -1.58207,-0.14055 -2.37061,-0.28811 -1.75229,-0.32803 1.02394,-0.0662 4.2927,-0.54786 16.13483,-2.37804 9.8663,-1.52483 31.40478,-6.28195 39.76084,-8.78182 5.191,-1.55298 5.68961,-1.57282 4.38299,-0.17431 -1.30116,1.39263 -7.41452,4.31416 -12.76867,6.10202 -10.98823,3.6692 -34.66068,6.54573 -45.7577,5.56018 z m -196.94995,-6.04732 c -3.52311,-0.19962 -2.85263,-0.92741 0.85806,-0.93139 1.62524,-0.002 6.65336,-0.27213 11.17357,-0.60087 9.96246,-0.72451 31.40657,-1.59325 81.56953,-3.30454 33.52768,-1.14378 41.63832,-1.40216 51.57167,-1.64291 5.42427,-0.13139 15.96461,-0.41274 23.42297,-0.62506 16.83646,-0.47933 19.0858,-0.4806 18.28364,-0.0109 -1.62127,0.95028 -23.87378,2.48253 -48.07601,3.31039 -6.89336,0.23579 -16.97139,0.60751 -22.39567,0.82604 -21.4082,0.86251 -43.2546,1.61127 -83.62418,2.86614 -12.27465,0.38156 -27.13668,0.43262 -32.78358,0.1126 z m -22.486457,-0.38345 c -17.669269,-1.10885 -29.897991,-2.56226 -36.367263,-4.32233 -3.667381,-0.99777 -7.563499,-2.87659 -6.45986,-3.11514 0.747157,-0.16151 7.507952,0.67827 22.486115,2.79301 11.833236,1.67072 19.998794,2.68072 28.465766,3.52094 4.139266,0.41077 7.076529,0.86838 6.780349,1.05637 -0.48882,0.31023 -10.325515,0.35456 -14.905107,0.0671 z m 4.989972,-5.7917 c -0.355664,-0.57548 6.791048,-1.40826 13.707325,-1.59726 7.46291,-0.20394 6.85424,0.40542 -1.02731,1.0285 -11.764047,0.93003 -12.438054,0.96025 -12.680015,0.56876 z m 89.729315,-1.84551 c -8.92744,-0.17167 -16.96698,-0.44904 -17.86563,-0.61641 -0.89865,-0.16734 9.08695,-0.33095 22.1902,-0.36355 17.11763,-0.0426 26.65818,-0.24861 33.89188,-0.73188 14.24991,-0.952 19.26299,-1.14635 18.28636,-0.70895 -1.42583,0.63857 -9.84914,1.28174 -22.60113,1.72572 -6.78033,0.23607 -13.52984,0.55926 -14.99892,0.71819 -1.46907,0.15895 -9.97532,0.14848 -18.90276,-0.0231 z m -120.813314,-0.71522 -1.849176,-0.28749 1.927655,-0.0617 c 1.060221,-0.034 2.041948,0.12316 2.181636,0.34922 0.139626,0.22601 0.10437,0.38315 -0.07843,0.3492 -0.182849,-0.034 -1.164576,-0.1911 -2.181637,-0.3492 z m -7.779236,-1.61746 c -0.435044,-0.27531 -0.19459,-0.44587 0.924604,-0.65582 1.784332,-0.33475 4.516301,0.0912 4.170763,0.65032 -0.306368,0.49571 -4.313899,0.50003 -5.095367,0.006 z m 53.39243,-0.0263 c 0,-0.47563 5.32209,-0.47563 7.19127,0 0.82666,0.21036 -0.15485,0.32971 -2.97924,0.36231 -2.56649,0.0297 -4.21203,-0.11198 -4.21203,-0.36231 z m 40.97681,-0.30568 c -4.46278,-0.19577 -3.61976,-0.9277 1.06499,-0.92464 5.23586,0.003 10.57475,0.45854 10.31469,0.87932 -0.20664,0.33434 -4.4095,0.35108 -11.37968,0.0454 z M 351.586,142.7353 c 0.29665,-0.11866 0.65107,-0.10406 0.78762,0.0325 0.13652,0.13652 -0.10608,0.23366 -0.53935,0.21582 -0.4787,-0.0197 -0.57608,-0.11711 -0.24827,-0.24827 z M 49.835258,142.19419 c 0.452036,-0.19423 1.376624,-0.35316 2.054654,-0.35316 1.051011,0 1.111598,0.052 0.410924,0.35316 -0.45202,0.19425 -1.376608,0.35317 -2.054638,0.35317 -1.051011,0 -1.111599,-0.052 -0.41094,-0.35317 z m 192.361672,0.0755 c -0.23714,-0.38372 3.00392,-0.67679 11.15122,-1.00837 2.95922,-0.12036 4.01306,0.26147 1.84919,0.67014 -2.48454,0.46922 -12.75433,0.7364 -13.00041,0.33823 z m 115.52733,-0.7585 c 0.28251,-0.114 0.74481,-0.114 1.02732,0 0.28252,0.114 0.0514,0.20726 -0.51366,0.20726 -0.56502,0 -0.79617,-0.0932 -0.51366,-0.20726 z m -208.12801,-0.83456 c 0.39982,-0.10421 0.95457,-0.0974 1.23278,0.0155 0.27821,0.1126 -0.0489,0.1978 -0.72695,0.18943 -0.67803,-0.008 -0.90565,-0.10049 -0.50583,-0.20465 z m 133.68432,-0.88767 c -0.16019,-0.2592 -1.02003,-0.47127 -1.91072,-0.47127 -0.89072,0 -1.61947,-0.18492 -1.61947,-0.41093 0,-0.2623 3.4929,-0.41094 9.65684,-0.41094 5.31127,0 9.65684,0.15917 9.65684,0.35369 0,0.80609 -15.30297,1.71695 -15.78349,0.93945 z m -168.64171,-1.37531 c -0.27121,-0.27123 -0.49312,-0.61572 -0.49312,-0.76557 0,-0.44135 7.45467,-0.79526 9.24593,-0.43896 l 1.64371,0.32697 -2.46558,0.28902 c -1.35606,0.15897 -3.13424,0.46736 -3.95151,0.68534 -1.99787,0.53285 -3.38348,0.49914 -3.97943,-0.0968 z m 186.47985,0.0822 c 0,-0.22601 0.78591,-0.39249 1.74645,-0.36997 1.48364,0.0348 1.59186,0.0905 0.71913,0.36997 -1.47882,0.4736 -2.46558,0.4736 -2.46558,0 z m -28.66234,-3.58176 c 0.62154,-0.0941 1.63858,-0.0941 2.26011,0 0.62153,0.0941 0.11307,0.17118 -1.13005,0.17118 -1.24307,0 -1.75159,-0.077 -1.13006,-0.17118 z m 56.60556,-0.11664 c 0.33901,-0.21908 2.18819,-0.39835 4.10929,-0.39835 2.40499,0 3.30092,0.1241 2.8765,0.39835 -0.33901,0.2191 -2.18819,0.39834 -4.10929,0.39834 -2.40499,0 -3.30092,-0.12409 -2.8765,-0.39834 z m -188.82216,-1.59975 -1.64371,-0.29504 2.26011,-0.26795 c 4.57115,-0.54191 8.59579,-0.68986 8.82172,-0.3243 0.12767,0.20658 0.0901,0.46337 -0.0834,0.57063 -0.59876,0.37004 -7.71526,0.61095 -9.3547,0.31666 z m 127.59364,-0.41864 c -0.93408,-0.26616 -0.87812,-0.31799 0.6164,-0.57091 3.5634,-0.60303 7.3856,-0.10095 5.30611,0.69705 -0.85011,0.32622 -4.61655,0.246 -5.92251,-0.12611 z m 36.57274,-0.4195 c 0,-0.65687 1.64288,-0.94341 3.63621,-0.63418 1.52351,0.23634 1.74458,0.36378 1.08949,0.62808 -1.15208,0.4648 -4.7257,0.46941 -4.7257,0.006 z m 19.10822,-0.84954 c 0.13963,-0.22602 1.81487,-0.41094 3.72263,-0.41094 2.03847,0 3.46864,0.16943 3.46864,0.41094 0,0.2437 -1.51482,0.41093 -3.72261,0.41093 -2.37711,0 -3.63083,-0.14848 -3.46866,-0.41093 z m 32.77164,0.12767 c 0.39551,-0.10344 1.04273,-0.10344 1.43825,0 0.39552,0.10344 0.0719,0.18793 -0.71913,0.18793 -0.79103,0 -1.11464,-0.0846 -0.71912,-0.18793 z m -86.60341,-2.18231 c 1.18027,-0.50717 5.24461,-0.50717 4.93116,0 -0.13963,0.22601 -1.49126,0.39793 -3.0035,0.38206 -1.91711,-0.0202 -2.50071,-0.13575 -1.92766,-0.38206 z m 57.62694,-0.65656 c -0.13512,-0.13512 -0.15422,-0.48405 -0.0424,-0.77541 0.14848,-0.38688 -0.77353,-0.66418 -3.41847,-1.02809 -4.20074,-0.57798 -5.23869,-0.86319 -4.11437,-1.13062 0.98,-0.2331 8.45591,1.12298 8.74189,1.58572 0.12285,0.19869 0.0275,0.36125 -0.21193,0.36125 -0.94335,0 -0.36765,0.77749 0.69488,0.93846 1.10719,0.16772 1.10443,0.17243 -0.13698,0.23275 -0.69687,0.0339 -1.37757,-0.0489 -1.51268,-0.18406 z M 215.64536,289.9224 c 15.59689,-3.43383 29.2116,-13.30746 37.24546,-27.01104 4.9245,-8.39986 7.13689,-16.82272 7.13338,-27.15773 -0.005,-13.97015 -5.37716,-25.91834 -16.71422,-37.17237 -7.55585,-7.50051 -17.3213,-12.52963 -28.69193,-14.77613 -3.06125,-0.60482 -4.77521,-0.68115 -9.94915,-0.44312 -11.5365,0.53072 -21.66276,3.89221 -30.49621,10.12347 -1.58222,1.11612 -2.53402,1.58646 -2.37574,1.17399 0.50141,-1.30664 -0.5093,-0.6772 -3.90481,2.43187 -4.36765,3.99921 -7.00735,6.77432 -8.92671,9.38465 -2.98833,4.06417 -3.07582,4.51074 -0.32738,1.67112 l 2.78292,-2.87527 -2.11979,3.4929 c -6.0905,10.03567 -8.64726,18.85379 -8.69741,29.99694 -0.03,6.65284 0.60913,10.57979 2.67517,16.4381 5.32468,15.09833 17.98133,27.47868 33.60135,32.8678 1.46908,0.50685 4.89006,1.35934 7.60219,1.89441 4.27116,0.84266 5.81116,0.95052 11.50604,0.80591 3.9734,-0.10095 7.79432,-0.43545 9.65684,-0.8455 z m -20.34101,-2.96637 c -2.60168,-0.36537 -9.44387,-2.20476 -9.84866,-2.64762 -0.30943,-0.33851 -0.20167,-0.38141 0.39727,-0.15815 0.45202,0.1685 3.50319,0.84987 6.78035,1.51417 3.27716,0.66428 6.1434,1.27871 6.36941,1.36539 0.53079,0.20357 -2.0967,0.15112 -3.69837,-0.0738 z m 5.75302,-6.53742 c -3.24907,-0.29826 -6.6419,-1.03835 -10.47871,-2.28576 -23.40005,-7.60771 -34.99094,-29.85393 -27.6636,-53.09435 5.34727,-16.96014 21.23371,-29.2347 39.44834,-30.47951 16.41991,-1.12216 31.0442,6.1628 40.26953,20.0599 5.50711,8.29594 7.9949,18.28966 6.73698,27.06311 -1.60209,11.17384 -5.24281,18.50719 -12.93336,26.05115 -6.4068,6.28466 -13.21863,9.87998 -22.1603,11.69628 -3.84267,0.78055 -10.26017,1.26077 -13.21888,0.98918 z m 13.14974,-2.36607 c 14.55125,-3.73591 26.80677,-15.75056 30.64633,-30.04402 1.20722,-4.49409 1.54684,-13.86802 0.67045,-18.50581 -0.75232,-3.98125 -2.60067,-8.89987 -4.70128,-12.51044 -1.8701,-3.21435 -8.72344,-10.25866 -12.37181,-12.71655 -15.65186,-10.54457 -36.77275,-8.83629 -51.20152,4.1412 -7.08873,6.37575 -11.90794,16.16119 -13.39826,27.20527 -1.01933,7.55382 1.17206,17.5836 5.42801,24.84357 1.8594,3.17182 10.1737,11.48159 13.28651,13.27925 3.60157,2.07991 8.52498,3.96875 12.73881,4.88717 5.22434,1.13865 13.15758,0.89539 18.90276,-0.57964 z m -17.25905,-4.14807 c -7.56944,-1.21505 -14.18419,-4.75586 -19.78676,-10.59163 -2.85137,-2.97004 -3.5937,-4.08615 -6.02329,-9.05611 -4.22932,-8.65144 -5.39697,-14.36246 -4.37792,-21.41253 1.86492,-12.90209 9.92111,-23.42505 22.39723,-29.25517 3.2549,-1.52103 4.81192,-1.97039 9.14424,-2.63913 5.34893,-0.82566 10.17713,-0.98808 12.00172,-0.40375 0.7324,0.23455 0.0836,0.35923 -2.26012,0.4343 -1.80808,0.0579 -3.74973,0.15775 -4.31475,0.22187 -0.56503,0.0642 -2.47013,0.17863 -4.23354,0.25444 -1.8475,0.0794 -3.3312,0.34004 -3.50115,0.61503 -0.16221,0.26246 -1.21582,0.87167 -2.34133,1.35381 -3.82493,1.63843 -10.50905,5.91311 -12.91331,8.25842 -7.32057,7.14104 -11.29183,15.62395 -11.8111,25.22941 -0.43113,7.97494 1.37968,13.86994 6.05895,19.72462 3.05912,3.82755 7.69365,8.15877 10.98367,10.26484 6.45729,4.13357 15.87524,6.03565 23.33262,4.71233 3.05106,-0.54142 8.43147,-2.23727 10.63157,-3.35098 7.08753,-3.58777 13.85444,-10.71737 16.75995,-17.65826 2.1874,-5.22543 2.84224,-8.70937 2.8111,-14.95599 -0.041,-8.21434 -1.34795,-12.47327 -5.60238,-18.25572 -5.35932,-7.2842 -12.05897,-12.29071 -19.04713,-14.2336 -3.70845,-1.03104 -2.71914,-1.15164 1.40745,-0.17157 5.59508,1.32883 13.4342,6.07246 16.73246,10.12519 3.65149,4.48677 7.06708,10.89714 8.42267,15.80763 1.02284,3.70511 0.99846,12.62833 -0.0454,16.62103 -1.67838,6.41963 -5.90069,13.6627 -10.48635,17.98859 -9.35297,8.82312 -21.14388,12.4268 -33.93909,10.37293 z m -1.64371,-5.376 c -1.58209,-0.34897 -4.61166,-1.4727 -6.73239,-2.49717 -3.38929,-1.63728 -4.38618,-2.39291 -8.23815,-6.24437 -5.00358,-5.00292 -6.71398,-7.82429 -8.48388,-13.99449 -0.9992,-3.48337 -1.07307,-4.24684 -0.89168,-9.21503 0.16308,-4.46648 0.38707,-5.95084 1.27657,-8.45938 3.17045,-8.94122 9.06747,-15.75163 17.38674,-20.0798 7.99501,-4.15946 19.42785,-4.68289 27.99036,-1.28151 4.44229,1.76467 8.10366,4.33045 11.89483,8.33556 4.75109,5.01918 7.23296,10.10481 8.52913,17.4771 0.53199,3.02583 0.53152,3.88499 -0.005,7.21278 -2.2754,14.14026 -11.05863,24.77587 -23.2084,28.10301 -4.31261,1.18099 -15.42164,1.5471 -19.51915,0.6433 z m 16.43718,-1.38087 c 4.0506,-1.17144 10.64041,-4.54716 13.61581,-6.97487 4.33316,-3.53554 8.36099,-9.64149 8.97296,-13.60246 0.27034,-1.74973 0.19383,-1.6618 -1.42242,1.63454 -2.11644,4.31649 -5.17709,8.49345 -7.95572,10.85738 -2.22695,1.89459 -8.23465,4.94215 -7.1958,3.65025 0.44183,-0.54945 0.25646,-0.51576 -0.87821,0.15961 -3.49002,2.07733 -9.53071,3.21075 -17.13205,3.21449 -6.05474,0.003 -6.1196,0.0842 -1.16877,1.46354 3.57525,0.99608 8.89018,0.83357 13.1642,-0.40248 z m -4.985,-4.75245 c 6.2928,-1.33323 11.09603,-4.05178 15.6063,-8.8329 4.68098,-4.96208 6.78111,-9.01439 7.93203,-15.30516 0.56902,-3.11018 0.59625,-4.19853 0.17954,-7.17723 -1.37957,-9.86161 -7.32356,-18.65283 -13.7107,-20.27826 -0.72809,-0.18529 -2.06348,-0.60668 -2.96752,-0.93644 -1.68689,-0.6153 -9.66127,-1.41138 -9.18807,-0.91724 0.14475,0.15127 1.90155,0.53266 3.90383,0.84763 6.39303,1.00564 8.80095,1.56862 8.65159,2.02272 -0.0795,0.24167 -1.1008,0.49528 -2.26959,0.56358 -1.19966,0.0702 -2.12509,0.32154 -2.12509,0.57736 0,0.24923 -0.36341,0.12425 -0.80759,-0.27773 -0.6242,-0.56489 -1.67398,-0.76087 -4.62295,-0.86302 -2.1477,-0.0744 -3.18672,-0.008 -2.37711,0.1536 1.31324,0.26083 1.15251,0.33568 -1.84919,0.86114 -6.3892,1.11844 -6.90081,2.09417 -0.93539,1.78392 5.09009,-0.26473 9.61354,1.06174 13.3772,3.92276 2.33747,1.77688 1.1033,1.47023 -2.23238,-0.55467 -3.07656,-1.86759 -3.36358,-1.95625 -6.93934,-2.14329 -2.72428,-0.14242 -4.35489,-0.014 -6.04746,0.4786 -3.34797,0.97327 -3.35687,1.50759 -0.0238,1.42787 3.82145,-0.0915 6.04766,0.3384 9.02288,1.74201 3.76251,1.77505 6.42852,4.38562 8.25702,8.08534 1.51075,3.05682 1.54723,3.23907 1.53582,7.67273 -0.014,5.64338 -0.88837,8.16148 -4.02389,11.5954 -4.01905,4.40156 -8.96551,6.71227 -14.3687,6.71227 -7.29443,0 -13.03897,-3.699 -16.68029,-10.74072 -2.6629,-5.14963 -2.6705,-10.12898 -0.023,-15.14784 0.9156,-1.73572 0.98934,-2.02174 0.31785,-1.23279 -0.48091,0.56502 -1.4985,2.33241 -2.26133,3.92751 -2.01312,4.20953 -2.22552,8.07335 -0.73284,13.33153 0.25798,0.90876 0.2217,0.95618 -0.31432,0.41094 -1.43699,-1.46176 -2.06134,-10.79343 -0.93564,-13.98404 0.97677,-2.76847 0.34336,-2.43852 -1.05491,0.54951 -1.44259,3.08271 -2.0133,7.65101 -1.28422,10.27943 0.35882,1.29358 0.33941,1.4907 -0.11011,1.11763 -1.37728,-1.14304 -1.82911,-6.19231 -0.87487,-9.77677 0.31587,-1.18655 0.41924,-2.15737 0.22973,-2.15737 -0.35366,0 -1.23515,2.73091 -2.05591,6.3694 -1.35242,5.99534 1.90653,15.02015 7.15667,19.81848 2.5402,2.3216 8.34575,5.09358 12.63228,6.03154 3.47703,0.76083 8.53895,0.7788 12.01356,0.0427 z m -11.4221,-1.8046 c -0.1987,-0.32151 0.55663,-0.46097 2.51398,-0.46413 1.5389,-0.003 3.53769,-0.10701 4.44175,-0.23232 1.43575,-0.19899 1.53973,-0.16247 0.82185,0.28855 -1.09947,0.69077 -7.39859,1.02113 -7.77758,0.4079 z m 12.91419,-0.7509 c 0.33903,-0.12456 1.26362,-0.47875 2.05466,-0.78719 l 1.43825,-0.5608 -0.97011,0.81965 c -0.53356,0.45079 -1.45816,0.80503 -2.05466,0.7872 -0.63261,-0.019 -0.82768,-0.12674 -0.46814,-0.25886 z m -16.27706,-0.93309 c -0.47698,-0.19272 -1.58304,-0.46416 -2.45791,-0.60321 -0.87487,-0.13901 -1.77327,-0.43539 -1.99644,-0.65856 -0.26708,-0.26707 0.0815,-0.32452 1.01964,-0.16809 2.68534,0.44778 4.91831,1.11738 4.91831,1.47486 0,0.42987 -0.33343,0.41976 -1.4836,-0.045 z m 26.53561,-4.05016 c 0.27072,-0.52789 0.60492,-0.84709 0.74267,-0.70934 0.13776,0.13776 -0.0837,0.56964 -0.49223,0.95978 -0.71,0.67812 -0.72101,0.6671 -0.25044,-0.25044 z m 2.8277,-2.83346 c -0.56566,-0.12953 -0.39884,-0.61796 0.99297,-2.90695 1.75875,-2.89245 3.38639,-6.30046 4.65032,-9.73699 1.12811,-3.06727 1.26985,-1.10549 0.15932,2.20514 -1.09383,3.2608 -3.0655,7.52275 -3.34902,7.23923 -0.11136,-0.11136 -0.45002,0.54732 -0.75249,1.46381 -0.6091,1.84561 -0.72139,1.96018 -1.7011,1.73576 z m -41.97403,-3.60346 c -0.82873,-1.73788 -0.16046,-1.94507 0.72856,-0.22587 0.71448,1.38166 0.76407,1.66412 0.29212,1.66412 -0.18415,0 -0.64345,-0.64721 -1.02068,-1.43825 z m 39.8906,-1.69292 c 1.40557,-3.03968 2.28021,-4.46869 2.44204,-3.98988 0.20499,0.60643 -1.6559,4.32005 -2.52703,5.04302 -0.55246,0.4585 -0.53945,0.29725 0.085,-1.05314 z m 5.89918,-20.84328 c -0.57187,-0.68909 -0.19624,-1.09225 1.01768,-1.09225 1.26084,0 1.60377,0.68069 0.61069,1.21216 -1.02329,0.54766 -1.07765,0.54366 -1.62837,-0.1199 z m -8.65656,-11.94955 c -0.39774,-0.47925 -0.33304,-0.5444 0.3606,-0.36301 0.46494,0.12161 0.84535,0.38441 0.84535,0.58406 0,0.55428 -0.66342,0.43267 -1.20595,-0.22105 z m 8.94254,43.57762 c 2.23618,-2.15143 3.52457,-4.07348 3.26085,-4.86462 -0.0812,-0.2435 -1.10519,0.76072 -2.27559,2.23159 -2.06909,2.60027 -4.16927,4.68139 -6.25997,6.20322 -0.56299,0.4098 -0.0991,0.24803 1.03102,-0.3595 1.13005,-0.60754 3.03972,-2.05234 4.24369,-3.21069 z m -13.71324,-13.76724 c -0.32169,-0.32168 -1.42001,0.87787 -1.41095,1.54099 0.006,0.49855 0.20886,0.40886 0.79375,-0.35239 0.43155,-0.56164 0.70928,-1.09652 0.6172,-1.1886 z m -21.31097,-0.56399 c -0.62092,-3.19512 -0.74757,-5.23934 -0.32463,-5.23934 0.23952,0 0.55675,0.38198 0.70493,0.84886 0.33075,1.04208 2.49597,3.55334 3.55018,4.11754 0.42626,0.22812 2.34304,0.59293 4.25953,0.8107 3.00055,0.34094 3.79705,0.29043 5.73458,-0.36368 l 2.25005,-0.7596 -0.24107,0.96052 c -0.13264,0.5283 -0.11649,0.96053 0.0359,0.96053 1.58231,0 4.33106,-3.8947 4.33458,-6.14167 0.001,-0.80329 0.19591,-2.15773 0.43256,-3.00987 0.47853,-1.7232 -0.3226,-5.78338 -1.4622,-7.41038 -1.02155,-1.45846 -0.77058,-1.92991 1.02736,-1.92991 0.90404,0 1.64371,-0.14382 1.64371,-0.31949 0,-1.47047 -4.26446,-4.20074 -6.56121,-4.20074 -1.86325,0 -1.55137,0.95145 0.80819,2.46558 1.41182,0.90595 2.05607,1.59434 2.05918,2.20022 0.003,0.48496 0.12549,1.62143 0.27345,2.52547 l 0.26894,1.64371 -2.16387,-2.36284 -2.16388,-2.36284 h -2.76963 c -2.26135,0 -3.22697,0.22853 -5.26157,1.24523 -2.57617,1.28732 -3.86736,2.63636 -5.39607,5.63784 -0.48923,0.96055 -0.9782,1.74646 -1.08662,1.74646 -0.10841,0 -0.19711,-0.99706 -0.19711,-2.21568 0,-2.04276 0.14227,-2.37398 1.82383,-4.24421 1.89479,-2.10746 4.12663,-3.42853 7.1139,-4.21084 0.96054,-0.25156 1.74645,-0.63487 1.74645,-0.85181 0,-0.73225 -2.83805,-0.40108 -5.08726,0.59364 -2.61336,1.15573 -4.80639,3.28884 -7.27203,7.07326 -1.46256,2.2448 -1.8031,3.14485 -1.94804,5.14858 -0.22015,3.04363 0.47552,5.58761 2.05053,7.49837 1.53376,1.86071 2.16026,1.91119 1.8173,0.14646 z m 7.38395,-0.7557 c -1.65155,-0.40154 -4.34118,-2.16685 -4.34118,-2.84927 0,-0.20815 0.85968,0.0786 1.9104,0.6373 2.21246,1.17638 4.55829,1.30674 7.13782,0.39662 0.96514,-0.34052 2.2064,-0.70101 2.75833,-0.8011 1.39369,-0.25272 2.05813,-0.8886 3.43283,-3.28526 l 1.19009,-2.07483 0.003,2.07677 c 0.003,1.80645 -0.16997,2.24502 -1.33166,3.36934 -0.73453,0.71091 -1.98274,1.55889 -2.77378,1.8844 -1.94168,0.799 -6.00557,1.12772 -7.9867,0.64603 z m -9.40931,-7.63411 c -0.47963,-0.47962 -0.29523,-2.00697 0.34194,-2.83221 0.56617,-0.73327 0.59472,-0.64841 0.35374,1.05153 -0.29746,2.09834 -0.32009,2.15627 -0.69568,1.78068 z m 25.20369,-1.80494 c 0,-1.11673 -0.18493,-2.0304 -0.41094,-2.0304 -0.22601,0 -0.41093,1.02797 -0.41093,2.28436 0,1.41828 0.1558,2.18809 0.41093,2.0304 0.22601,-0.13963 0.41094,-1.16764 0.41094,-2.28436 z m 24.75426,-14.05008 c -0.48791,-0.96056 -1.56236,-2.67104 -2.38764,-3.80111 -1.32332,-1.81202 -1.34775,-1.88482 -0.20696,-0.61639 1.93603,2.1526 3.1093,3.77368 3.64333,5.03388 0.76191,1.79797 -0.071,1.30843 -1.04873,-0.61638 z m 0.32726,54.52877 c 0.008,-0.21384 1.49896,-2.23799 3.31288,-4.49809 4.48935,-5.59363 5.58292,-7.4869 6.59756,-11.42213 0.80159,-3.109 1.58076,-4.90191 1.58076,-3.63739 0,1.35145 -1.43144,6.65228 -2.2912,8.48463 -1.42415,3.03523 -9.25279,12.45765 -9.2,11.07298 z m 18.1147,-38.68374 c 0.0342,-2.54578 0.14165,-3.25409 0.36231,-2.38709 0.4689,1.84279 0.4689,5.4632 0,5.75301 -0.26339,0.16279 -0.39346,-1.0457 -0.36231,-3.36592 z m -102.37009,0.51367 c 0,-1.86389 0.62929,-2.85339 1.07538,-1.69093 0.32973,0.85925 -0.18641,3.51586 -0.68308,3.51586 -0.21576,0 -0.3923,-0.82123 -0.3923,-1.82493 z m 101.08869,-7.78056 c 0,-0.31076 -0.10484,-1.18911 -0.23283,-1.95191 -0.15848,-0.94408 -0.11089,-1.19008 0.14895,-0.77049 0.59346,0.95818 0.93676,3.28744 0.48452,3.28744 -0.22035,0 -0.40066,-0.25427 -0.40066,-0.56504 z m -3.09888,-8.91368 c -0.14894,-0.24106 -0.18272,-0.5264 -0.075,-0.63412 0.10778,-0.10763 0.30534,0.0895 0.43919,0.43827 0.27785,0.7241 0.041,0.85147 -0.36418,0.19585 z m -93.46957,-0.45494 c 0,-0.94975 2.36083,-5.45951 3.30562,-6.31453 0.5481,-0.49602 0.16832,0.5154 -1.09493,2.91595 -2.23891,4.25468 -2.21069,4.21131 -2.21069,3.39858 z M 196.7426,189.0969 c 0,-0.36591 5.30376,-1.05391 5.62765,-0.73002 0.21405,0.21406 -3.65915,1.0842 -4.82602,1.0842 -0.44089,0 -0.80163,-0.15938 -0.80163,-0.35418 z m -25.10095,93.92194 c -0.0941,-0.0683 -1.74302,-1.392 -3.66412,-2.94153 -13.60429,-10.97307 -20.7583,-25.36052 -20.64544,-41.52014 0.1432,-20.49722 9.71924,-37.96494 26.33724,-48.04165 7.07334,-4.28908 11.55364,-6.24405 17.60155,-7.68044 4.60469,-1.09361 13.18224,-1.6847 16.36331,-1.12761 1.35499,0.2373 3.29576,0.41237 4.3128,0.38907 1.01706,-0.0233 3.20949,0.15822 4.87207,0.40338 12.36767,1.82378 25.02837,9.57888 34.49324,21.12824 3.66067,4.46688 4.00609,4.79376 3.0396,2.8765 -3.4991,-6.9412 -12.35849,-15.78787 -22.07308,-22.04136 -8.88588,-5.72004 -24.09352,-9.27466 -34.87621,-8.15196 -7.91091,0.8237 -12.32629,2.1136 -19.76823,5.77505 -15.06147,7.41024 -26.68753,20.45083 -30.7473,34.48831 -1.86485,6.4481 -2.50696,11.19215 -2.47473,18.2841 0.023,5.05533 0.2334,7.5425 0.91052,10.7616 2.08091,9.89306 6.49073,18.97437 12.69716,26.14775 4.14324,4.78875 12.90897,12.25874 13.58817,11.57957 0.1126,-0.11261 0.12766,-0.26057 0.0334,-0.32888 z M 32.914332,265.98672 c -0.136053,-1.52558 -0.284024,-2.82083 -0.328833,-2.87836 -0.09946,-0.12767 -2.68032,0.75477 -2.68032,0.91646 0,0.4777 1.440502,3.43903 1.953796,4.01654 1.095253,1.23229 1.311019,0.81222 1.055357,-2.05464 z m -1.537291,-5.85575 c 1.688136,0 1.201291,-1.16599 -0.547271,-1.31071 -1.388029,-0.11493 -1.553266,-0.25338 -1.664702,-1.39533 -0.173907,-1.78212 0.863673,-2.61256 1.990318,-1.59295 1.288795,1.16634 1.562552,0.33196 1.322911,-4.03209 -0.212028,-3.86121 -0.254072,-4.00529 -1.088635,-3.73065 -1.299143,0.42751 -2.365086,0.26337 -3.093078,-0.47628 -0.595195,-0.60474 -0.58256,-0.71307 0.146148,-1.25325 1.027572,-0.76169 2.050146,-0.75216 2.695235,0.0252 1.253125,1.50993 1.35858,0.60786 1.06888,-9.14318 -0.357749,-12.04153 -0.812665,-18.6318 -1.661264,-24.06639 -0.359415,-2.30177 -0.974146,-8.7585 -1.366069,-14.34832 -0.568927,-8.11431 -0.610036,-10.30349 -0.203913,-10.85864 0.382961,-0.52346 0.446143,-2.53106 0.25565,-8.12305 -0.139159,-4.08526 -0.391554,-7.58067 -0.560862,-7.76757 -0.443379,-0.48948 -3.73813,0.58691 -4.01643,1.31215 -0.128987,0.33613 -0.0087,2.17257 0.267174,4.081 0.275928,1.90841 0.413142,3.5584 0.304917,3.66662 -0.316765,0.31676 -2.142062,-3.58243 -2.885636,-6.16427 -0.376279,-1.30653 -0.76244,-4.45014 -0.858136,-6.98581 l -0.173993,-4.61031 -1.351835,0.13419 c -2.260661,0.22445 -2.5706,0.85718 -2.708762,5.52979 -0.138756,4.69248 0.261148,6.57095 3.149814,14.79598 2.766967,7.87848 3.161793,11.55482 4.179802,38.91933 0.583275,15.67868 1.722774,27.12693 3.427372,34.43388 0.699515,2.99855 0.976694,3.4987 1.770212,3.19419 0.33464,-0.12844 1.055609,-0.23348 1.602152,-0.23348 z m -2.190989,-6.02044 c -1.046122,-0.43175 -0.531911,-1.3763 0.749258,-1.3763 0.978409,0 1.231925,0.16095 1.125338,0.71442 -0.142111,0.73787 -0.976568,1.03252 -1.874596,0.66188 z m -0.322659,-13.72758 c -0.428128,-0.69272 -0.640746,-5.36953 -0.325866,-7.16786 0.275812,-1.57522 0.309024,-1.50671 0.796862,1.64371 0.27998,1.8081 0.522945,3.88842 0.539922,4.62296 0.03024,1.30856 -0.478727,1.76229 -1.010918,0.90119 z m -0.458347,-13.53727 c 0,-1.9211 0.07079,-2.70701 0.1573,-1.74645 0.08651,0.96054 0.08651,2.53235 0,3.49289 -0.08651,0.96056 -0.1573,0.17465 -0.1573,-1.74644 z m -0.697635,-15.92353 c -0.144083,-1.52557 -0.240732,-4.5305 -0.214778,-6.67761 0.04364,-3.61019 0.07109,-3.73384 0.364882,-1.64371 0.452735,3.22081 0.733734,11.0951 0.395937,11.0951 -0.156242,0 -0.40196,-1.2482 -0.546041,-2.77378 z m -7.239154,-33.36101 c -0.530718,-0.99165 -0.550988,-2.08166 -0.0387,-2.08166 0.480243,0 0.659989,0.31311 1.00259,1.74645 0.312035,1.30547 -0.325884,1.52732 -0.96388,0.33521 z m 355.634553,72.72792 c 0.34482,-0.6668 0.62694,-1.5276 0.62694,-1.91287 0,-0.6456 -0.0645,-0.64221 -0.82186,0.0433 -0.45499,0.41176 -0.82185,1.26565 -0.82185,1.91287 0,1.48406 0.23205,1.47419 1.01677,-0.0433 z m -234.01385,0.63007 c 0,-0.64905 -1.69531,-3.9379 -2.02988,-3.9379 -0.43104,0 -0.0587,1.35534 0.87501,3.1847 0.40423,0.79205 1.15487,1.28161 1.15487,0.7532 z m -22.13234,-3.94692 c -2.26804,-1.02915 -3.00989,-1.01958 -1.75879,0.0227 0.53358,0.4445 1.55062,0.80413 2.26012,0.79916 1.28081,-0.009 1.27724,-0.0155 -0.50133,-0.82185 z m 0.24545,-2.32937 c -0.38207,-0.38207 -0.81004,-0.57929 -0.95107,-0.43826 -0.40443,0.40443 0.21643,1.13294 0.96553,1.13294 0.62728,0 0.62616,-0.054 -0.014,-0.69468 z m 12.6875,0.0199 c 1.23018,-0.1446 2.34333,-0.43542 2.47365,-0.64629 0.13031,-0.21088 -0.17763,-0.82474 -0.68435,-1.36412 -0.7824,-0.83283 -0.95225,-1.57183 -1.12637,-4.90074 -0.22618,-4.3239 -0.29172,-4.39987 -2.77508,-3.21565 -0.9898,0.47201 -1.40935,0.9126 -1.27171,1.33553 0.11291,0.34712 0.51846,1.74065 0.9011,3.09671 0.73348,2.59941 0.74264,2.54259 -0.98834,6.1267 -0.0992,0.20552 0.13792,0.25151 0.52696,0.10219 0.38909,-0.14925 1.71394,-0.38975 2.94414,-0.53435 z m -17.00676,-3.40502 c -0.1752,-2.28301 -0.27468,-2.54314 -0.73285,-1.91655 -0.57284,0.78338 -0.36466,3.36005 0.34415,4.25984 0.58918,0.7479 0.61431,0.59641 0.3887,-2.34329 z m 262.31309,1.83481 c 2.08755,-3.18601 3.91072,-18.10723 4.69651,-38.43703 0.89078,-23.04587 1.29971,-26.41892 4.33429,-35.75087 2.45286,-7.54307 3.13471,-10.95004 3.20741,-16.02626 0.0736,-5.14109 -0.43298,-6.54298 -2.56246,-7.09108 -1.86224,-0.4793 -2.22366,-0.0221 -1.73672,2.19694 0.61673,2.81034 -0.0598,10.7837 -1.15618,13.62639 -0.50123,1.29957 -1.06541,2.36285 -1.25374,2.36285 -0.18835,0 -0.24367,-1.08922 -0.12301,-2.42047 0.12068,-1.33127 0.0899,-3.45782 -0.0685,-4.7257 -0.28315,-2.26623 -0.31053,-2.30521 -1.61981,-2.30521 -0.9249,0 -1.67147,0.35453 -2.44351,1.16036 -1.10253,1.15079 -1.11126,1.20612 -1.0587,6.70867 0.0306,3.19493 -0.16841,6.53767 -0.46898,7.88078 -0.42823,1.91354 -0.4234,2.63117 0.0269,3.99556 0.45045,1.36488 0.46172,3.07786 0.0629,9.55341 -0.87501,14.20718 -1.30091,22.91218 -1.71298,35.0117 -0.22322,6.55432 -0.51867,13.04998 -0.65657,14.43477 -0.26658,2.67724 0.16721,3.5361 1.3079,2.58941 0.88756,-0.73661 1.49053,0.0447 1.33003,1.72359 -0.12394,1.29648 -0.22227,1.38068 -1.4946,1.27989 -1.30824,-0.10359 -1.35685,-0.055 -1.23279,1.23279 0.11043,1.14718 0.26965,1.32093 1.10268,1.20383 0.89376,-0.12565 0.95944,-0.0162 0.80165,1.33551 -0.0946,0.80981 -0.12084,1.47239 -0.0584,1.47239 0.0624,0 0.41192,-0.4555 0.7767,-1.01222 z m -1.38395,-11.39786 c -0.7652,-0.76519 -0.59744,-1.0624 0.76905,-1.36252 1.50341,-0.33021 1.77977,-0.13481 1.4187,1.0028 -0.29887,0.94162 -1.42129,1.12618 -2.18775,0.35972 z m 0.744,-5.87106 c -0.67272,-0.81059 -0.23346,-1.85442 0.78038,-1.85442 1.07958,0 1.40694,0.61989 0.86355,1.63523 -0.5288,0.98808 -0.95827,1.04534 -1.64393,0.21919 z m 1.09122,-8.73749 c 0.31645,-3.61573 0.95909,-4.31283 0.95909,-1.04039 0,2.63786 -0.26225,3.81416 -0.85035,3.81416 -0.19333,0 -0.24227,-1.24819 -0.10872,-2.77377 z m -0.0789,-24.65578 c 0.16942,-10.70907 1.31748,-18.91542 3.23368,-23.11479 l 0.65629,-1.43825 -0.22871,2.05465 c -0.12581,1.13005 -0.48419,3.0717 -0.79644,4.31476 -0.31226,1.24307 -0.85155,6.88307 -1.19844,12.53335 -0.75276,12.26185 -0.98447,14.588 -1.45309,14.588 -0.19509,0 -0.29108,-4.02197 -0.21329,-8.93772 z m -242.89296,47.5866 c -0.15981,-0.99941 -0.40497,-1.5248 -0.57965,-1.24217 -0.27846,0.45056 -0.19422,1.36721 0.25917,2.82048 0.36695,1.17621 0.58737,0.0907 0.32048,-1.57831 z m -13.82242,-0.43242 c 0.24816,0 0.53759,0.3236 0.64322,0.71912 0.16263,0.60903 0.23751,0.57756 0.48899,-0.20546 0.16332,-0.50852 0.43204,-0.92459 0.59716,-0.92459 0.16511,0 0.49243,0.41607 0.72737,0.92459 0.42554,0.92106 0.4283,0.92025 0.72507,-0.21081 0.37707,-1.43707 -0.34265,-2.35751 -1.84341,-2.35751 -1.43421,0 -3.29254,1.44437 -3.29254,2.55909 0,0.80298 0.0463,0.81381 0.75148,0.17565 0.41332,-0.37404 0.95452,-0.68008 1.20266,-0.68008 z m -0.9074,-2.70565 c 0.85694,-0.35804 1.98902,-0.56861 2.51578,-0.46791 1.07827,0.20612 1.30656,-0.30303 0.3077,-0.68632 -1.27553,-0.48947 -2.90752,-0.23626 -3.79273,0.58845 -1.48357,1.38215 -1.27541,1.50367 0.96925,0.56578 z m 137.99982,-23.6966 c -0.30936,-2.01379 -2.1057,-7.30296 -2.68657,-7.9104 -0.83892,-0.87728 0.19942,4.20824 1.40536,6.88307 0.6878,1.52558 1.3178,2.77378 1.40002,2.77378 0.0822,0 0.0287,-0.78591 -0.11881,-1.74645 z m -4.21147,-11.68068 c -0.48442,-0.83304 -0.6014,-0.5664 -0.20487,0.46697 0.14087,0.36725 0.3428,0.58116 0.4486,0.47534 0.10577,-0.10576 -0.003,-0.52983 -0.24373,-0.94231 z M 32.102754,191.92116 c 0.265767,-1.32883 -0.01041,-2.47008 -0.597821,-2.47008 -0.201831,0 -0.366965,0.83213 -0.366965,1.84919 0,2.09345 0.593839,2.47563 0.964786,0.62089 z m 225.816176,-1.93207 c 1.49777,-1.06017 3.711,-2.72443 4.91827,-3.69836 1.20728,-0.97395 2.51927,-1.77081 2.91553,-1.77081 0.97859,0 5.51069,-2.9708 6.3414,-4.15683 0.85664,-1.22302 0.84558,-2.0437 -0.0488,-3.61492 -0.92469,-1.62467 -1.33514,-1.60415 -1.33705,0.0668 -0.003,2.89599 -4.09338,6.85319 -7.10364,6.87288 -1.64669,0.0109 -2.68864,0.60674 -6.35277,3.63363 -1.99915,1.65148 -2.9926,1.67894 -1.51097,0.0418 0.59317,-0.65546 0.57447,-0.73709 -0.2271,-0.99151 -0.64745,-0.20549 -0.76193,-0.41167 -0.44239,-0.79671 0.313,-0.37714 0.21394,-0.71598 -0.36158,-1.23684 -0.43599,-0.39455 -0.69932,-0.96068 -0.58522,-1.25807 0.11416,-0.29738 -0.0966,-1.12882 -0.46837,-1.84765 -0.55799,-1.07905 -0.84982,-1.26331 -1.67344,-1.05659 -0.55946,0.1404 -0.9976,0.0694 -0.9976,-0.16173 0,-0.38756 -2.4815,0.54541 -3.58699,1.34861 -0.61962,0.45017 -0.18872,1.35421 1.669,3.50169 0.71588,0.82755 1.5618,1.96692 1.87983,2.53196 0.79545,1.41323 3.45127,4.49027 3.8898,4.50675 0.19731,0.008 1.5842,-0.85394 3.08198,-1.9141 z m -5.08445,-4.6473 c -0.13962,-0.22601 0.0343,-0.41093 0.38668,-0.41093 0.35236,0 0.64065,0.18492 0.64065,0.41093 0,0.22601 -0.174,0.41092 -0.38668,0.41092 -0.21267,0 -0.50096,-0.18491 -0.64065,-0.41092 z m -1.74643,-0.27216 c -0.28253,-0.11399 -0.51367,-0.41605 -0.51367,-0.67124 0,-0.25519 -0.50853,-0.87041 -1.13006,-1.36718 -1.32119,-1.05597 -1.17958,-1.40366 0.44464,-1.09169 0.86473,0.16609 1.11458,0.41164 0.97233,0.95559 -0.12378,0.47355 0.082,0.80357 0.58269,0.93451 0.42577,0.11136 0.77412,0.49713 0.77412,0.85731 0,0.67009 -0.22718,0.74702 -1.13005,0.3827 z m -10.39315,1.27075 c -1.84185,-1.88797 -7.00933,-5.92975 -7.58133,-5.92975 -0.50636,0 1.89807,2.22905 4.31106,3.99663 1.24306,0.91058 2.70841,2.14057 3.25633,2.73332 0.54793,0.59273 1.18741,1.07771 1.42109,1.07771 0.23367,0 -0.39955,-0.84505 -1.40715,-1.87791 z m 24.98003,-8.94954 c 1.9544,-2.05068 1.97424,-3.20426 0.0721,-4.18793 -1.74403,-0.90188 -3.43631,-0.7406 -4.86779,0.46392 -1.42503,1.19909 -1.5131,1.50516 -0.67433,2.34392 0.45717,0.45719 0.4803,0.7086 0.10266,1.11696 -0.37125,0.40151 -0.37173,0.46211 -0.002,0.25454 0.26689,-0.14988 0.59642,-0.0926 0.73228,0.1272 0.1359,0.21983 0.47225,0.3456 0.74752,0.27952 0.27528,-0.0662 0.36182,-0.0426 0.19231,0.0522 -0.66617,0.37255 -0.26077,1.00919 0.51366,0.80666 0.45202,-0.11819 0.82187,-0.0474 0.82187,0.15755 0,0.74969 0.69685,0.33232 2.36173,-1.41455 z m -5.23824,-1.93513 c 0,-0.72091 1.7817,-1.70927 3.35827,-1.86292 0.97809,-0.0954 1.50096,-0.0671 1.16195,0.0627 -2.85209,1.09214 -3.68405,1.57885 -3.20491,1.87497 0.34103,0.21078 0.20304,0.29941 -0.39591,0.25429 -0.50566,-0.038 -0.9194,-0.18617 -0.9194,-0.32906 z m 4.59769,-0.23056 c 0.38162,-0.114 0.78707,-0.51938 0.901,-0.90099 0.15018,-0.50321 0.18409,-0.46934 0.12331,0.12332 -0.0491,0.47896 -0.42203,0.85185 -0.90099,0.90099 -0.59261,0.0609 -0.62648,0.027 -0.12332,-0.12332 z M 31.624234,173.74672 c -0.294867,-0.29486 -0.486266,-0.31913 -0.486266,-0.0617 0,0.5485 0.48597,1.03448 0.76022,0.76023 0.116779,-0.1168 -0.0065,-0.43114 -0.273954,-0.69858 z m 235.206046,-2.59507 c -0.78265,-0.59196 -1.87337,-0.8159 -1.87337,-0.38462 0,0.24867 1.63812,0.95533 2.26012,0.97497 0.22601,0.008 0.052,-0.25853 -0.38675,-0.59035 z M 26.257881,169.90951 c 1.652339,-0.58702 3.431217,-0.55555 5.114734,0.0905 0.469038,0.17998 0.587213,-0.27395 0.587213,-2.25562 0,-2.25704 -0.08345,-2.49372 -0.924592,-2.62223 -1.420044,-0.21697 -5.761975,0.92509 -6.627807,1.7433 -0.603727,0.57054 -0.711661,1.05156 -0.495042,2.20625 0.152361,0.81215 0.337851,1.47663 0.412198,1.47663 0.07435,0 0.944331,-0.28746 1.933296,-0.63881 z M 383.63337,153.20709 c 0.82253,-0.82252 0.55534,-2.36497 -0.59421,-3.43033 -0.88919,-0.82407 -1.51322,-1.0077 -3.42441,-1.0077 -1.28541,0 -2.41651,0.0794 -2.51357,0.17648 -0.0971,0.0971 -0.10934,1.02166 -0.0272,2.05466 0.15361,1.93045 0.90541,2.50922 1.61425,1.2426 0.30952,-0.5531 0.5921,-0.50041 2.1778,0.40597 2.11111,1.20673 2.11756,1.20802 2.76726,0.55832 z M 78.421888,143.00158 c 0.738074,-0.395 0.79484,-0.92524 0.79484,-7.42374 0,-4.03831 0.179929,-7.33456 0.425384,-7.79321 0.243949,-0.4558 0.857431,-0.79484 1.438267,-0.79484 h 1.012867 v 7.4671 c 0,8.76115 0.07936,8.97008 3.406473,8.97008 3.078936,0 7.196148,-0.8725 7.926751,-1.67981 0.573427,-0.63363 0.593322,-1.36707 0.173701,-6.40098 -0.260645,-3.12694 -0.635428,-6.41906 -0.832814,-7.3158 -0.197402,-0.89676 -0.289114,-1.70026 -0.203816,-1.78556 0.08527,-0.0853 0.704277,-0.0345 1.375489,0.11291 1.56921,0.34465 1.675257,0.75696 2.090888,8.12931 0.357342,6.33812 0.655696,7.29618 2.272152,7.29618 1.305956,0 4.6162,-1.19453 5.17451,-1.86727 0.36339,-0.43785 0.31749,-2.06863 -0.19286,-6.85312 -0.84779,-7.9477 -1.07837,-8.34645 -4.800339,-8.30147 -1.443205,0.0174 -3.733514,0.15096 -5.089573,0.2967 -6.936653,0.74549 -21.889997,0.41427 -25.741827,-0.57019 -0.82334,-0.21044 -1.806636,-0.26377 -2.1851,-0.11851 -0.654112,0.251 -1.366808,0.0179 -4.078508,-1.33425 -0.65214,-0.32516 -1.275407,-0.50152 -1.385026,-0.3919 -0.344125,0.34413 -0.915284,3.93247 -1.572704,9.88059 -0.59629,5.39506 -0.591661,5.7707 0.07703,6.25971 1.288127,0.94191 1.66962,-0.0921 2.191157,-5.93893 0.277154,-3.10712 0.71998,-6.09456 0.984072,-6.63875 0.486577,-1.00261 1.735037,-2.01686 2.05206,-1.66708 0.09521,0.10499 0.02268,1.48535 -0.161027,3.06742 -0.18375,1.58209 -0.537737,5.089 -0.786656,7.79314 -0.450171,4.89057 -0.447578,4.92044 0.488938,5.63484 1.359026,1.03669 3.177,1.36077 3.851256,0.68651 0.3146,-0.31461 0.667795,-1.90446 0.808259,-3.63826 0.215122,-2.65544 0.942635,-7.31574 1.659042,-10.62744 0.115708,-0.5352 0.30261,-0.88097 0.415196,-0.76839 0.452284,0.45229 0.578118,7.89659 0.186312,11.02136 -0.269295,2.14762 -0.277092,3.5951 -0.0219,4.07184 0.712494,1.33129 6.453679,2.18181 8.24747,1.22181 z m 11.302317,-3.22642 c -0.123784,-0.2004 0.05017,-0.59287 0.38668,-0.87217 0.388839,-0.3227 0.611867,-1.23841 0.611867,-2.51214 0,-1.10239 0.181498,-2.00433 0.40333,-2.00433 0.468063,0 0.358926,4.46687 -0.127977,5.23936 -0.378263,0.60004 -0.953585,0.66747 -1.273854,0.14925 z m 10.200502,-0.69656 c 0.137143,-0.35751 0.249433,-0.7017 0.249433,-0.76488 0,-0.0632 0.4623,-0.0266 1.02732,0.0815 1.27704,0.24412 1.32511,0.74677 0.10267,1.07436 -1.417552,0.37988 -1.650023,0.31399 -1.3795,-0.391 z m 0.123943,-2.48898 c -0.410788,-0.41078 -0.340044,-4.35709 0.0902,-5.0367 0.24169,-0.38171 0.42016,0.23672 0.53366,1.84917 0.17038,2.42034 -0.0853,3.72623 -0.62395,3.18753 z m 111.28195,4.12906 c 6.78033,-0.33625 15.7004,-0.72496 19.82236,-0.8638 6.1921,-0.20856 7.7061,-0.38113 8.71231,-0.99304 1.49481,-0.90905 2.42179,-2.62636 2.76354,-5.11974 0.22672,-1.65412 0.13559,-2.00297 -0.72602,-2.78086 -1.06698,-0.96326 -1.75191,-1.07221 -6.73827,-1.07196 -4.27608,2e-4 -15.59241,0.73703 -16.46556,1.07208 -1.61911,0.62131 0.95826,0.75181 10.71255,0.54235 5.65028,-0.1213 10.35029,-0.16954 10.44445,-0.10716 1.23612,0.81896 -7.82031,1.6527 -23.38874,2.15318 -34.78426,1.11822 -39.76476,1.24834 -47.77056,1.24803 -7.84702,-3.2e-4 -8.52672,-0.0576 -8.52592,-0.71947 8e-4,-0.63804 0.47571,-0.71913 4.21203,-0.71913 4.99978,0 16.00927,-0.56603 16.28024,-0.83702 0.61063,-0.61061 -1.18293,-0.76685 -7.87613,-0.68612 -4.11422,0.0495 -8.6134,0.2006 -9.99821,0.33549 -1.48545,0.14475 -2.62018,0.0797 -2.76749,-0.15873 -0.1373,-0.22221 0.23205,-1.30459 0.82082,-2.40532 1.23379,-2.30654 17.27781,-34.284123 18.7121,-37.295343 1.35592,-2.84672 2.82096,-3.53882 7.49101,-3.53882 2.01879,0 3.55883,0.11167 3.42233,0.24821 -0.13652,0.13652 -1.78536,0.41706 -3.66412,0.62347 -3.93654,0.43246 -4.99513,1.03981 -6.41589,3.68095 l -0.97731,1.81678 0.24951,15.964223 c 0.1387,8.87357 0.42466,16.29148 0.64385,16.70106 0.21689,0.40525 0.99872,1.2454 1.73741,1.86696 l 1.34308,1.13012 11.50773,-0.24868 c 12.38514,-0.26764 18.94155,-0.77748 20.6664,-1.60706 0.59615,-0.28672 1.50687,-1.14965 2.02384,-1.91761 0.93844,-1.39408 0.93993,-1.42109 0.9393,-17.05358 -7.3e-4,-17.696703 0.0329,-17.487033 -3.16403,-19.717153 -1.45904,-1.01778 -2.38184,-1.27722 -5.95849,-1.67524 -3.67612,-0.40909 -4.01613,-0.50809 -2.58835,-0.75358 3.16186,-0.54363 6.50055,-0.3339 7.85762,0.4936 1.83857,1.12112 3.82284,4.12271 12.79189,19.350293 3.08566,5.23881 7.31111,12.10512 11.56606,18.79472 2.02394,3.18202 2.77473,3.5636 4.43935,2.25628 0.49723,-0.39048 1.17939,-1.24798 1.51592,-1.90554 0.56072,-1.09558 0.54055,-1.3361 -0.24123,-2.8765 -1.4736,-2.90351 -7.50649,-11.70745 -12.41544,-18.11814 -2.59601,-3.39016 -6.71277,-9.006293 -9.14839,-12.480263 -4.68012,-6.6754 -5.90941,-7.91645 -8.5581,-8.63996 -3.40246,-0.9294 -28.54176,-0.27482 -32.99883,0.85922 -2.48117,0.63129 -5.35216,3.36996 -7.77554,7.41714 -1.11724,1.86587 -4.57757,8.015433 -7.68963,13.665713 -3.11205,5.6503 -6.53946,11.7526 -7.61646,13.56068 -3.89325,6.53604 -4.20885,7.49984 -3.13549,9.5755 0.77573,1.50006 1.89197,2.44315 3.09187,2.61219 1.55403,0.21894 1.57009,1.16753 0.0197,1.16753 h -1.31369 l 0.28414,1.95191 c 0.34972,2.40235 1.01832,3.48115 3.0856,4.97868 l 1.60308,1.16127 18.41493,-0.16323 c 10.1282,-0.0898 23.96246,-0.43836 30.74281,-0.77461 z m -17.87544,-2.59641 c 0.79105,-0.19377 3.74822,-0.4741 6.57151,-0.62296 3.95768,-0.20866 5.02169,-0.15907 4.64608,0.21652 -0.3182,0.31822 -2.59717,0.53426 -6.5715,0.62296 -3.95236,0.0882 -5.58037,0.0124 -4.64609,-0.21652 z m 33.07983,-0.41428 c 0.67803,-0.19125 1.78755,-0.36961 2.46558,-0.39635 0.67803,-0.0267 2.96311,-0.61437 5.07794,-1.30584 3.97649,-1.30014 4.99543,-1.35853 3.20202,-0.18345 -1.53942,1.00867 -4.98197,1.81556 -8.69088,2.03706 -2.17846,0.13015 -2.87157,0.0791 -2.05466,-0.15143 z m -64.82414,-0.98884 c -0.62153,-0.50889 -1.13005,-1.04839 -1.13005,-1.1989 0,-0.4336 2.43079,1.06981 2.6517,1.64005 0.2941,0.7591 -0.24747,0.6021 -1.52165,-0.44115 z m 20.77925,-8.57508 c -1.19933,-1.52969 -1.84484,-6.74328 -0.99994,-8.0764 0.40053,-0.63199 0.63073,0.0867 1.09841,3.42921 0.41493,2.96559 0.72644,3.35793 2.92831,3.68812 2.17238,0.32577 1.83787,0.76542 -0.92901,1.22098 -1.17029,0.1927 -1.8033,0.11369 -2.09777,-0.26191 z m 28.01864,-0.55871 c -1.58207,-0.2998 -3.80109,-0.57958 -4.93116,-0.62176 l -2.05463,-0.0767 1.84917,-0.32934 c 1.01705,-0.18114 2.99892,-0.22553 4.40415,-0.0986 3.21261,0.29006 4.82019,-0.31872 5.48265,-2.07626 0.26883,-0.71319 0.58413,-3.51574 0.70069,-6.22787 0.27109,-6.30826 0.85063,-5.09632 0.88966,1.86048 0.0298,5.30362 -0.22065,6.28706 -1.95896,7.69363 -0.72967,0.5904 -0.59345,0.59425 -4.38157,-0.12363 z m -53.62631,-0.16262 c 0,-0.59539 2.75471,-5.1624 3.47382,-5.75919 0.91311,-0.75783 0.80608,-0.33123 -0.77603,3.09305 -0.8764,1.89683 -1.65535,3.05505 -2.05466,3.05505 -0.35372,0 -0.64313,-0.17502 -0.64313,-0.38891 z m 83.85392,-3.15512 c -1.33641,-2.26506 -2.96092,-6.3201 -2.82036,-7.04014 0.075,-0.38421 0.94739,0.55405 2.17968,2.34423 3.03557,4.40987 3.57294,5.46919 2.96899,5.85287 -0.93367,0.59317 -1.44588,0.33866 -2.32831,-1.15696 z m 2.03036,0.74606 c 0,-0.18282 -0.28038,-0.69134 -0.62306,-1.13005 -0.57778,-0.73968 -0.58792,-0.71551 -0.13947,0.33238 0.48382,1.13067 0.76256,1.42224 0.76256,0.79767 z m -52.66705,-1.30859 c 0.7536,-0.17823 1.86312,-0.17519 2.46558,0.006 0.83146,0.25109 0.50133,0.32918 -1.37018,0.32406 -2.09555,-0.006 -2.25995,-0.0554 -1.0954,-0.3308 z m -0.31365,-2.77716 c -2.67614,-1.36459 -2.81219,-1.84588 -3.30969,-11.70872 -0.4796,-9.508473 -0.32019,-11.195843 1.24592,-13.186813 1.25352,-1.5936 3.08976,-1.93112 11.98638,-2.20321 l 8.10266,-0.24782 1.61229,1.6123 c 1.55457,1.55458 1.62289,1.73941 1.90804,5.162753 0.16268,1.95276 0.22797,6.29394 0.14506,9.6471 -0.1634,6.6123 -0.56294,7.97286 -2.83963,9.66963 -2.47477,1.84441 -15.93735,2.74053 -18.85107,1.25478 z m 13.25396,-1.5997 c 2.5553,-0.3909 4.78958,-0.96023 5.25042,-1.33789 0.54371,-0.44556 0.87976,-1.38572 1.04284,-2.91752 l 0.24061,-2.26011 -1.25703,1.93155 c -2.03475,3.12659 -3.60599,3.87876 -8.90317,4.26206 -2.48613,0.17989 -5.43893,0.30341 -6.56182,0.2745 -1.39949,-0.036 -1.85183,0.0674 -1.43825,0.32899 0.95291,0.60268 6.76652,0.46187 11.6264,-0.28158 z m -6.29737,-4.04994 c -0.28136,-0.33902 -0.82652,-0.61639 -1.21148,-0.61639 -0.38494,0 -1.14821,-0.48358 -1.69613,-1.07464 l -0.99622,-1.07463 1.43825,0.86763 c 3.22954,1.94824 7.88294,0.58278 9.78779,-2.87206 1.22896,-2.22892 1.58501,-2.4408 1.82444,-1.08566 0.14382,0.81426 0.2462,0.74027 0.8574,-0.61985 0.80514,-1.79166 0.62081,-3.01105 -0.84297,-5.57635 -1.14285,-2.00287 -1.68345,-2.01934 -0.98999,-0.0301 0.54943,1.57611 0.57333,2.0143 0.10996,2.0143 -0.19169,0 -0.66974,-0.7123 -1.06232,-1.58292 -1.34583,-2.98451 -3.48022,-4.625563 -5.90992,-4.543953 -1.00511,0.0337 -0.97542,0.0738 0.33374,0.44898 l 1.43704,0.41193 -1.23158,0.628303 c -0.67736,0.34557 -1.60141,0.9572 -2.05343,1.35918 -0.45203,0.40198 -1.19163,0.79807 -1.64359,0.88022 -0.45194,0.0822 -1.26501,0.8344 -1.80683,1.67167 -0.54182,0.83727 -1.14287,1.42483 -1.33567,1.30567 -0.62005,-0.38323 -0.37126,-2.38924 0.46682,-3.76378 0.99467,-1.63137 0.53398,-1.73645 -0.90073,-0.20546 -1.46695,1.5654 -2.79313,4.34418 -2.79313,5.85257 0,1.46762 0.95678,3.93993 1.96758,5.0842 1.23531,1.39843 4.31715,3.13757 5.55992,3.13757 1.02244,0 1.126,-0.0924 0.6911,-0.6164 z m 1.02733,-2.29093 c -0.74292,-0.29138 -0.72318,-0.32527 0.20546,-0.35276 1.97443,-0.0584 4.6013,-2.33285 5.48966,-4.75305 0.0829,-0.22601 0.27945,-0.29222 0.43664,-0.14708 0.43859,0.40482 -0.76673,2.91083 -1.90371,3.95807 -1.24684,1.14842 -3.13057,1.72533 -4.22805,1.29488 z m 10.606,-15.090243 c -0.69208,-1.41598 -0.88599,-1.53055 -2.79389,-1.65086 l -2.05019,-0.12922 1.63927,1.18991 c 0.90158,0.65447 1.89514,1.72968 2.2079,2.38938 0.31275,0.659713 0.77505,1.647713 1.02732,2.195573 0.43115,0.93633 0.46633,0.892 0.58599,-0.73852 0.0788,-1.07256 -0.15655,-2.315413 -0.6164,-3.256233 z m -17.7988,0.12378 c 0.52999,-0.56414 0.84537,-1.14395 0.70085,-1.28845 -0.39973,-0.39974 -2.34304,1.01622 -2.34304,1.70724 0,0.88529 0.54849,0.74542 1.64219,-0.41879 z m -9.18853,19.254713 c -0.41877,-3.05522 -0.32877,-6.13294 0.16489,-5.63928 0.58387,0.58388 1.05674,7.54583 0.51253,7.54583 -0.22885,0 -0.5337,-0.85794 -0.67742,-1.90655 z m 31.93511,-1.26731 c 0.58012,-2.57577 1.092,-3.19784 1.07973,-1.31212 -0.005,0.77219 -0.35646,1.8559 -0.78094,2.4082 -0.77173,1.00411 -0.77177,1.00399 -0.29879,-1.09608 z m 1.39706,-13.81061 c -0.16951,-0.414 -0.3082,-1.10217 -0.3082,-1.52926 0,-0.42709 -0.46229,-1.821873 -1.02731,-3.099503 -0.56504,-1.27763 -1.02733,-2.66537 -1.02733,-3.08386 0,-0.4607 -0.608,-1.08189 -1.54099,-1.57443 -1.49612,-0.78984 -1.50823,-0.81405 -0.41608,-0.83168 0.88492,-0.014 1.36109,0.35441 2.23207,1.7283 1.66885,2.63247 2.65822,5.56018 2.51951,7.455733 -0.0893,1.21951 -0.20894,1.47871 -0.43167,0.9347 z m -33.34539,-0.96447 c -0.33053,-1.436563 0.33742,-5.813023 0.98622,-6.461803 0.52417,-0.52419 0.50883,-0.10235 -0.15555,4.27518 -0.45533,3.000083 -0.57253,3.308603 -0.83067,2.186623 z m 2.22377,-1.07696 c -0.008,-1.760873 0.88019,-3.765343 1.82768,-4.128943 0.7898,-0.30306 0.79508,-0.34995 -0.19025,1.68947 -0.45202,0.93557 -0.8247,1.94112 -0.82816,2.23455 -0.003,0.293453 -0.18555,0.810903 -0.40463,1.149913 -0.29579,0.45771 -0.39998,0.21443 -0.40464,-0.94499 z m 1.50164,-6.447363 c 0.40059,-0.36188 3.63905,-0.9051 3.28495,-0.551 -0.13201,0.13201 -1.00196,0.37941 -1.93313,0.54968 -0.93119,0.17028 -1.5395,0.17087 -1.35182,0.001 z M 108.5348,135.31114 c -0.67897,-5.23547 -2.08286,-13.03555 -2.32974,-12.94428 -0.15283,0.0565 -0.78642,0.1241 -1.40797,0.15035 -0.62153,0.0262 -0.83317,0.12704 -0.47033,0.22416 0.82185,0.21986 1.79347,3.50766 2.65205,8.9741 0.76646,4.87993 0.93902,5.54754 1.43376,5.54754 0.20939,0 0.26344,-0.8631 0.12223,-1.95192 z m 188.57734,-2.9349 c 0.62155,-0.23923 1.13007,-0.57823 1.13007,-0.75333 0,-0.17509 -4.15407,-0.31837 -9.23125,-0.31837 -7.41027,0 -9.12939,0.10189 -8.71493,0.51632 1.19434,1.19433 14.05276,1.619 16.81611,0.55538 z m 47.38314,-0.91501 c 1.00412,-0.25284 1.82569,-0.60082 1.82569,-0.77328 0,-0.40106 -10.77885,-0.79198 -11.2207,-0.40695 -0.32333,0.28177 1.15453,1.00242 2.79664,1.36375 1.62034,0.35655 4.80536,0.26796 6.59837,-0.18352 z M 166.12965,125.5765 c 1.69282,-3.02705 3.62825,-7.62748 3.3331,-7.92264 -0.18533,-0.18533 -5.59451,10.24969 -5.59451,10.79257 0,0.67405 0.96284,-0.5479 2.26141,-2.86993 z m 175.87655,-0.10313 c 0,-2.84224 -0.29201,-3.87612 -0.918,-3.25014 -0.16589,0.16589 -0.37191,1.69368 -0.45781,3.39509 -0.14351,2.84146 -0.0938,3.08117 0.6098,2.94245 0.66185,-0.13046 0.76601,-0.55035 0.76601,-3.0874 z m -2.90615,-0.40321 c -0.27291,-2.49088 -0.34727,-2.66762 -0.66206,-1.57331 -0.46572,1.61907 0.13745,5.21143 0.76903,4.57989 0.11027,-0.11027 0.0621,-1.46323 -0.10701,-3.00658 z m -117.5582,1.6114 c 0.10934,-0.39552 0.0525,-1.55126 -0.12627,-2.56831 -0.26997,-1.53518 -0.33393,-1.63113 -0.37663,-0.56504 -0.0283,0.7063 -0.167,1.86204 -0.30826,2.56832 -0.27206,1.36028 0.45188,1.86452 0.81124,0.56503 z m -65.49127,-5.54755 c 6.15882,-11.98082 15.28029,-27.666053 19.37955,-33.324903 1.33293,-1.84006 1.44468,-2.52512 0.55675,-3.41304 -0.3411,-0.3411 -0.51489,-0.79054 -0.3862,-0.99875 0.12875,-0.20821 -0.28568,-0.57647 -0.92081,-0.81837 -0.96505,-0.36753 -1.24216,-0.31676 -1.68651,0.30898 -1.67577,2.35982 -12.52928,18.988523 -14.26175,21.850473 -1.13005,1.86678 -3.77132,6.11146 -5.86946,9.43259 -3.19246,5.05329 -3.77809,6.23607 -3.58964,7.24985 0.22182,1.19333 2.96954,5.56892 3.49709,5.56892 0.14894,0 1.62537,-2.63509 3.28098,-5.85575 z m -3.57272,-0.78608 c 0.26929,-1.74729 3.5333,-8.9735 4.05324,-8.9735 0.19322,0 0.35133,0.19004 0.35133,0.4223 0,0.45931 -4.06175,9.51524 -4.41832,9.85095 -0.12005,0.11306 -0.11384,-0.47189 0.014,-1.29975 z m 18.18087,-31.045933 c 0.35066,-0.83926 0.89337,-1.81008 1.20598,-2.15738 0.31263,-0.34729 1.04301,-1.46356 1.6231,-2.48061 0.67412,-1.18194 1.05648,-1.56567 1.05964,-1.06345 0.006,0.93571 -3.60588,7.2274 -4.14891,7.2274 -0.20756,0 -0.0905,-0.68669 0.26019,-1.52596 z m 65.53311,37.521733 c 0,-0.0913 -1.40809,-2.44902 -3.12907,-5.23934 -1.72099,-2.79034 -3.95994,-6.42489 -4.97543,-8.07679 -1.01551,-1.65189 -1.94361,-2.90621 -2.06245,-2.78735 -0.18389,0.18388 5.31331,9.83762 8.38698,14.72852 0.80432,1.27986 1.77997,2.03351 1.77997,1.37496 z m 49.31154,-2.50501 c 0,-1.24307 -0.18491,-2.26012 -0.41092,-2.26012 -0.22601,0 -0.41093,1.01705 -0.41093,2.26012 0,1.24305 0.18492,2.26011 0.41093,2.26011 0.22601,0 0.41092,-1.01706 0.41092,-2.26011 z m 5.67515,-0.42422 c -0.0721,-1.11724 -0.35099,-2.05066 -0.64126,-2.14621 -0.57142,-0.18812 -0.68405,1.41028 -0.25169,3.57206 0.38969,1.94844 1.04334,0.9047 0.89295,-1.42585 z m -2.79863,-0.0109 c 0,-1.41827 -0.15581,-2.18809 -0.41094,-2.0304 -0.72292,0.44679 -0.47734,4.31476 0.27395,4.31476 0.0753,0 0.13699,-1.02797 0.13699,-2.28436 z m -110.37856,1.22342 c 0.31905,-0.83145 0.31362,-4.61618 -0.008,-5.81751 -0.49649,-1.85242 -0.97499,-0.38063 -0.97499,2.99888 0,3.22684 0.39369,4.35529 0.98336,2.81863 z m 105.44111,-1.91831 c 0.003,-0.62152 -0.17862,-1.13005 -0.40465,-1.13005 -0.22601,0 -0.4081,0.7859 -0.40463,1.74646 0.005,1.27899 0.11291,1.58146 0.40463,1.13005 0.2191,-0.33902 0.40119,-1.12491 0.40465,-1.74646 z m 16.1244,-0.61638 c 0.0744,-0.96056 -0.008,-1.74645 -0.18374,-1.74645 -0.17547,0 -0.29759,1.06328 -0.27137,2.36283 0.0506,2.50797 0.23205,2.2622 0.45511,-0.61638 z m -209.112493,0.073 c 5.641304,-0.65095 13.458033,-2.5486 13.476703,-3.2717 0.006,-0.21454 -0.89834,-0.70403 -2.00862,-1.08781 -8.172828,-2.82486 -25.059154,-2.77701 -34.507263,0.0978 -1.532541,0.46631 -3.233627,0.97542 -3.780185,1.13138 -1.377835,0.39313 -1.482391,1.08052 -0.249773,1.64213 1.046756,0.47695 7.242508,1.59471 10.283967,1.85531 4.388558,0.37604 11.737998,0.21531 16.785171,-0.36709 z m -9.285715,-1.69855 c 0.508523,-0.098 1.340669,-0.098 1.849192,0 0.508522,0.098 0.09241,0.17808 -0.924588,0.17808 -1.017061,0 -1.433126,-0.0801 -0.924604,-0.17808 z m -0.493115,-1.31868 c 0.583833,-0.56213 5.11607,-1.03812 5.11607,-0.53728 0,0.62558 -1.071808,0.91317 -3.403227,0.91317 -1.281992,0 -1.950797,-0.14677 -1.712843,-0.37589 z m 197.944503,2.62621 c 0.10903,-0.57043 0.0382,-1.1361 -0.15755,-1.25705 -0.19571,-0.12099 -0.35583,0.34575 -0.35583,1.03712 0,1.52556 0.24384,1.63 0.51338,0.21993 z m -132.04584,-1.53119 c 0.53491,-1.41533 0.14117,-1.59945 -1.51849,-0.70997 -0.83398,0.44699 -1.79643,0.81553 -2.1388,0.81899 -0.34236,0.003 -0.89985,0.18556 -1.23886,0.40464 -0.43419,0.28059 0.14677,0.40021 1.96514,0.40463 2.3026,0.006 2.61933,-0.0936 2.93101,-0.91829 z m 145.98989,-0.0328 c 2.61576,-0.55305 3.51771,-1.09726 1.81853,-1.09726 -0.64207,0 -1.01168,-0.17536 -0.86609,-0.41092 0.13962,-0.22601 1.27226,-0.41094 2.51684,-0.41094 2.25855,0 3.85256,-0.51006 3.85256,-1.23279 0,-2.39552 -19.42709,-2.93922 -21.75739,-0.60892 -0.53458,0.53459 -0.53547,0.67915 -0.008,1.18418 0.79855,0.76342 8.78174,2.83949 11.69682,3.04181 0.22601,0.0157 1.46169,-0.19362 2.74593,-0.46516 z m -11.90376,-2.79358 c -2.79964,-0.80748 -0.73258,-1.18018 6.54528,-1.18018 5.74257,0 7.36833,0.1154 7.23584,0.51366 -0.094,0.28251 -0.71036,0.63046 -1.36975,0.77324 -1.86951,0.40477 -10.90736,0.32705 -12.41137,-0.1067 z m 61.15171,2.23379 c 1.61191,-1.10307 1.67475,-1.49795 0.32853,-2.064 -1.51446,-0.63678 -3.47962,-0.68851 -3.84263,-0.10111 -0.22426,0.36286 1.63397,2.6498 2.28131,2.80762 0.11928,0.029 0.67398,-0.26004 1.23279,-0.64246 z m -95.75788,-1.9318 c 0,-0.58394 -1.18351,-1.25756 -1.55562,-0.88543 -0.26232,0.26232 0.71767,1.45785 1.195,1.45785 0.19835,0 0.36062,-0.25758 0.36062,-0.57242 z m -50.7498,-36.021513 c 5.19826,-0.21707 10.9227,-0.38304 12.72097,-0.36878 3.2148,0.0255 3.25746,0.0124 2.54537,-0.77436 -0.39833,-0.44014 -1.77719,-1.3447 -3.06413,-2.01012 -2.2537,-1.16531 -2.567,-1.2131 -8.50384,-1.29717 -6.66801,-0.0944 -19.40798,0.84979 -21.331,1.58092 l -1.18823,0.45177 1.39729,1.0377 c 0.87188,0.6475 1.75671,0.97072 2.35306,0.85958 0.68208,-0.1272 0.82916,-0.0516 0.51366,0.26395 -0.90104,0.90104 -0.37362,1.0997 2.3317,0.87826 1.52557,-0.12487 7.02689,-0.40467 12.22515,-0.62175 z m -12.88697,-1.40914 c 0.49834,-0.52488 1.61102,-0.76807 4.27448,-0.93423 4.08696,-0.25498 4.63658,0.42431 0.71365,0.88201 -1.30593,0.15236 -3.11407,0.38611 -4.01813,0.51941 -1.54641,0.22805 -1.60382,0.20039 -0.97,-0.46719 z m 11.65418,-1.03523 c 0.13963,-0.22601 1.35257,-0.41094 2.6953,-0.41094 1.35359,0 2.44132,0.18309 2.44132,0.41094 0,0.23217 -1.17239,0.41092 -2.6953,0.41092 -1.69222,0 -2.60078,-0.15298 -2.44132,-0.41092 z"
       id="path10" /></g><metadata
     id="metadata182"><rdf:RDF><cc:Work
         rdf:about=""><cc:license
           rdf:resource="http://creativecommons.org/licenses/by-sa/4.0/" /><dc:publisher><cc:Agent><dc:title>OpenDataKerala.org</dc:title></cc:Agent></dc:publisher><dc:date>April 2026</dc:date><dc:title>Election Symbols of Kerala</dc:title><dc:creator><cc:Agent><dc:title>Manoj Karingamadathil</dc:title></cc:Agent></dc:creator></cc:Work><cc:License
         rdf:about="http://creativecommons.org/licenses/by-sa/4.0/"><cc:permits
           rdf:resource="http://creativecommons.org/ns#Reproduction" /><cc:permits
           rdf:resource="http://creativecommons.org/ns#Distribution" /><cc:requires
           rdf:resource="http://creativecommons.org/ns#Notice" /><cc:requires
           rdf:resource="http://creativecommons.org/ns#Attribution" /><cc:permits
           rdf:resource="http://creativecommons.org/ns#DerivativeWorks" /><cc:requires
           rdf:resource="http://creativecommons.org/ns#ShareAlike" /></cc:License></rdf:RDF></metadata></svg>
