<?xml version="1.0" encoding="UTF-8" standalone="no"?>
<!-- Created with Inkscape (http://www.inkscape.org/) -->

<svg
   width="1500"
   height="1500"
   viewBox="0 0 396.87499 396.875"
   version="1.1"
   id="svg5"
   xml:space="preserve"
   inkscape:version="1.3 (0e150ed6c4, 2023-07-21)"
   sodipodi:docname="CCTV Camera.svg"
   inkscape:export-filename="Cauli Flower.png"
   inkscape:export-xdpi="96"
   inkscape:export-ydpi="96"
   xmlns:inkscape="http://www.inkscape.org/namespaces/inkscape"
   xmlns:sodipodi="http://sodipodi.sourceforge.net/DTD/sodipodi-0.dtd"
   xmlns="http://www.w3.org/2000/svg"
   xmlns:svg="http://www.w3.org/2000/svg"
   xmlns:rdf="http://www.w3.org/1999/02/22-rdf-syntax-ns#"
   xmlns:cc="http://creativecommons.org/ns#"
   xmlns:dc="http://purl.org/dc/elements/1.1/"><title
     id="title186">Election Symbols of Kerala</title><sodipodi:namedview
     id="namedview7"
     pagecolor="#ffffff"
     bordercolor="#000000"
     borderopacity="0.25"
     inkscape:showpageshadow="2"
     inkscape:pageopacity="0.0"
     inkscape:pagecheckerboard="0"
     inkscape:deskcolor="#d1d1d1"
     inkscape:document-units="mm"
     showgrid="false"
     inkscape:zoom="0.25"
     inkscape:cx="230"
     inkscape:cy="1078"
     inkscape:window-width="1920"
     inkscape:window-height="991"
     inkscape:window-x="-9"
     inkscape:window-y="-9"
     inkscape:window-maximized="1"
     inkscape:current-layer="layer1" /><defs
     id="defs2"><inkscape:path-effect
       effect="bspline"
       id="path-effect3248"
       is_visible="true"
       lpeversion="1"
       weight="33.333333"
       steps="2"
       helper_size="0"
       apply_no_weight="true"
       apply_with_weight="true"
       only_selected="false" /><inkscape:path-effect
       effect="bspline"
       id="path-effect577"
       is_visible="true"
       lpeversion="1"
       weight="33.333333"
       steps="2"
       helper_size="0"
       apply_no_weight="true"
       apply_with_weight="true"
       only_selected="false" /></defs><g
     inkscape:label="Layer 1"
     inkscape:groupmode="layer"
     id="layer1"><path
       style="fill:#000000;stroke-width:1.50079"
       d="m 350.61878,328.08732 c -47.9877,-9.69073 -44.28199,-8.82532 -44.6843,-10.43544 -0.12127,-0.48508 -0.16799,-2.53134 -0.10401,-4.54723 l 0.11646,-3.66525 15.08916,-7.30276 c 34.41938,-16.6581 41.11209,-20.09226 44.16758,-22.6633 1.77675,-1.49502 3.54192,-5.18509 4.03928,-8.44404 0.56802,-3.72199 0.56734,-20.47965 -9.3e-4,-22.52637 -0.59601,-2.14668 -2.22378,-3.63417 -4.76591,-4.3552 -4.17642,-1.18454 -26.84667,-3.5405 -29.12471,-3.02672 -2.27783,0.51375 -1.62076,-0.22371 1.20852,-1.35635 3.66654,-1.46782 7.05323,-2.20008 10.20702,-2.20694 4.2957,-0.009 6.60641,-1.70902 6.93214,-5.0991 0.23701,-2.46654 -0.68511,-4.5158 -2.55084,-5.66889 -1.2603,-0.77891 -1.76347,-0.83113 -6.21177,-0.64477 -9.12996,0.38254 -14.77402,2.77422 -22.6201,9.58533 -2.43209,2.11128 -5.61561,5.99873 -10.2484,12.51452 -1.61941,2.2776 -3.6967,4.9579 -4.6162,5.95624 l -1.67184,1.81516 -0.0158,-19.54614 -0.0158,-19.54613 1.21886,-0.63032 c 1.12981,-0.58424 1.906,-0.55542 10.62198,0.39437 32.24813,3.51406 66.1571,6.95107 68.65858,6.9592 1.73399,0.006 2.15872,0.15377 2.58104,0.9002 0.40233,0.71108 0.50551,11.75396 0.50551,54.10255 v 53.20912 l -2.54339,1.29051 c -1.39885,0.7098 -3.09639,1.27747 -3.77228,1.2615 -0.6759,-0.0159 -15.25587,-2.86165 -32.39992,-6.32375 z m 35.63963,-49.12596 0.1007,-52.83154 -0.82697,-0.21625 c -0.62136,-0.16249 -0.76982,-0.0672 -0.59708,0.38287 0.12652,0.32951 0.22991,24.27547 0.22991,53.21324 0,41.91479 0.101,52.58046 0.49635,52.44866 0.3931,-0.13102 0.51731,-11.15661 0.59708,-52.99698 z m -12.42391,45.78148 c 2.44864,-1.0231 3.28406,-4.05773 1.79119,-6.50632 -1.50844,-2.47414 -4.44868,-2.8381 -6.60007,-0.81697 -2.08396,1.95779 -1.30758,5.8159 1.4473,7.19213 1.67722,0.83785 1.67082,0.83761 3.36158,0.13116 z m -52.64384,-9.98228 c 2.34946,-1.97694 1.8072,-5.80405 -1.05579,-7.45142 -1.60441,-0.92318 -2.94535,-0.65165 -4.51028,0.91328 -0.93067,0.93066 -1.14037,1.48187 -1.14037,2.99749 0,1.58257 0.19959,2.0567 1.35009,3.20721 1.71418,1.71418 3.57757,1.83017 5.35635,0.33344 z m 52.81203,-74.65161 c 3.09857,-2.60727 1.23126,-7.71917 -2.81971,-7.71917 -2.28536,0 -3.88672,1.68316 -3.88672,4.08528 0,3.86441 3.91281,5.98459 6.70643,3.63389 z m -54.27641,-6.82689 c 1.32796,-1.2428 1.71141,-2.84614 1.11377,-4.65699 -1.29872,-3.93521 -6.25055,-3.93611 -7.54912,-0.001 -1.01611,3.07885 1.69378,6.55174 4.56849,5.85481 0.43679,-0.10596 1.27689,-0.64429 1.86686,-1.19644 z m -87.04115,98.90612 c -11.06825,-1.11023 -19.49862,-3.03967 -25.64169,-5.86852 -4.91391,-2.26283 -4.53661,-0.73343 -4.53661,-18.38928 v -15.24164 l 1.01102,0.79528 c 2.26219,1.77944 9.39954,3.87336 17.94996,5.26609 6.47593,1.05483 22.36848,1.46453 29.79989,0.76824 9.88511,-0.92621 20.67412,-3.14652 24.35614,-5.01232 l 1.93166,-0.97886 0.0155,2.28991 c 0.009,1.25946 0.003,8.00793 -0.0135,14.99658 -0.0285,12.58871 -0.0369,12.71436 -0.90895,13.53598 -0.77201,0.72734 -4.40419,2.39438 -8.02772,3.68441 -1.99061,0.70869 -10.54532,2.73245 -13.50082,3.19386 -6.68388,1.04348 -17.14282,1.49113 -22.43519,0.96027 z m -15.72644,-18.8796 c 0.17267,-11.65727 0.16743,-11.75278 -0.65594,-11.96809 -0.45651,-0.11932 -0.97769,-0.12577 -1.15818,-0.0135 -0.1805,0.11151 -0.32817,5.37997 -0.32817,11.70759 v 11.50477 l 0.89343,0.338 c 0.49139,0.18591 0.93425,0.30313 0.98413,0.26051 0.0498,-0.0426 0.16901,-5.36547 0.26473,-11.82855 z m 65.83539,-2.16553 c -0.7223,-0.10145 -1.38674,-0.39583 -1.47652,-0.65406 -0.29706,-0.85441 -0.39262,-19.3317 -0.0999,-19.33131 0.34371,4.5e-4 25.37555,-11.4715 36.84038,-16.88374 4.47712,-2.11352 8.9443,-4.20497 9.92709,-4.64768 5.02215,-2.26228 24.88827,-11.55632 31.2519,-14.6207 l 7.26514,-3.4985 -0.007,7.21811 c -0.0135,14.38931 -0.69646,16.8108 -5.6418,20.00994 -2.4027,1.55428 -15.61763,8.18578 -33.06691,16.59356 -2.62075,1.26277 -7.89202,3.81055 -11.71394,5.66173 -19.64362,9.51447 -21.15083,10.07709 -27.39872,10.22737 -2.51155,0.0603 -5.15744,0.0267 -5.87975,-0.0747 z m -55.66812,-16.46864 c -2.07476,-0.18991 -5.20178,-0.56798 -6.94895,-0.84015 l -3.17665,-0.49488 -0.10161,-33.04062 -0.1016,-33.04063 2.88113,1.54869 c 3.33687,1.79366 7.033,2.89303 12.17186,3.62036 9.52246,1.34777 20.3459,-1.97924 27.66713,-8.50453 l 2.15481,-1.92056 v 35.73336 35.73335 l -2.68031,0.42987 c -7.64628,1.22636 -22.88929,1.59742 -31.86591,0.77574 z m 0.52708,-31.21285 c -0.0615,-25.23042 -0.13237,-28.10675 -0.69489,-28.22206 -0.77707,-0.15928 -0.77984,-0.0489 -0.80564,31.89504 -0.012,15.44662 0.12036,23.92756 0.37784,24.1167 0.21839,0.16045 0.57576,0.29449 0.79415,0.29786 0.26168,0.004 0.37371,-9.57408 0.32854,-28.08754 z m 37.19581,28.12033 c 0,-0.8883 0.13402,-1.61484 0.29782,-1.61454 0.68727,10e-4 6.9797,1.18838 7.13798,1.34665 0.095,0.095 -1.22647,0.47148 -2.93664,0.83659 -1.71016,0.36512 -3.42207,0.74993 -3.80426,0.85513 -0.57926,0.15943 -0.6949,-0.0774 -0.6949,-1.42383 z m -53.6062,0.48847 c -1.20117,-0.3074 -2.87677,-0.74076 -3.72353,-0.96304 -0.84677,-0.2223 -1.38282,-0.55255 -1.19124,-0.73392 0.35724,-0.3382 6.64036,-2.39201 7.31777,-2.39201 0.44225,0 0.51679,4.24412 0.0788,4.48445 -0.1638,0.0899 -1.28059,-0.0881 -2.48178,-0.39548 z m 58.96682,-3.84752 -4.765,-1.23416 -0.11136,-4.36796 -0.11136,-4.36795 4.72274,-2.41717 4.72273,-2.41715 1.03224,0.75194 c 1.72385,1.25574 7.15509,3.03238 10.58461,3.46242 8.37428,1.05004 18.08287,-2.46231 25.14072,-9.0954 3.63769,-3.41874 6.43987,-6.98527 11.13157,-14.16791 3.73849,-5.72337 3.96889,-5.96972 7.00805,-7.4934 5.46165,-2.73818 8.51832,-3.09066 17.0835,-1.96991 16.67052,2.18128 18.6629,2.54057 18.6629,3.36557 0,0.609 -10.38608,5.57953 -36.92871,17.6732 -5.40666,2.46343 -20.46699,9.49765 -27.20019,12.70435 -14.43785,6.87604 -23.93994,10.95242 -25.32437,10.86404 -0.48572,-0.0311 -3.02736,-0.61174 -5.6481,-1.29051 z m 12.94675,-14.37066 c -3.29641,-0.88646 -5.94859,-2.49026 -8.80178,-5.32254 -3.33203,-3.30763 -4.93067,-6.15642 -6.14827,-10.95632 -2.28356,-9.00212 -0.67309,-20.20028 4.36253,-30.334 5.68932,-11.44918 12.8069,-20.04708 29.58026,-35.73236 12.26157,-11.46617 14.17623,-13.42459 17.6938,-18.09836 2.79934,-3.71946 3.55435,-5.22595 4.21002,-8.40037 0.48649,-2.35536 0.35622,-3.5532 -0.68016,-6.25395 -0.14843,-0.38664 2.69845,-2.24779 5.08636,-3.32531 0.68999,-0.31135 2.0429,3.4365 2.22013,6.15022 0.378,5.78771 -1.95197,11.21292 -7.79625,18.15311 -1.52494,1.81089 -6.49542,6.84418 -11.04552,11.18509 -17.93983,17.11507 -23.49574,23.07667 -29.21355,31.34677 -10.95901,15.8508 -12.19904,35.78779 -2.70065,43.42089 5.11051,4.10692 12.4319,4.31514 19.5995,0.55744 4.71193,-2.4703 7.40758,-5.34286 15.55847,-16.57961 7.26895,-10.02093 11.94339,-14.60146 17.83561,-17.47731 3.94243,-1.9242 6.88993,-2.62759 12.00275,-2.86433 4.40839,-0.2041 4.42901,-0.20082 5.09165,0.8105 0.91831,1.4015 0.65105,3.11056 -0.58359,3.73204 -0.546,0.27484 -2.16131,0.50234 -3.5896,0.50555 -7.45592,0.0168 -14.74852,4.03032 -21.14447,11.63693 -1.26436,1.50372 -3.75198,4.90717 -5.52801,7.56323 -4.18705,6.26176 -5.08356,7.42187 -8.43842,10.91943 -4.60847,4.8045 -10.40303,8.225 -15.90981,9.39149 -3.47924,0.73699 -8.86389,0.72396 -11.661,-0.0282 z m 7.53611,-8.27104 c 0.56126,-0.55499 12.0555,-6.14551 12.24386,-5.95512 0.67983,0.68719 -5.63249,4.33857 -9.47083,5.47844 -2.12292,0.63043 -3.09803,0.79805 -2.77303,0.47668 z m -57.66302,-36.40417 c -8.53367,-0.88734 -16.39639,-4.69984 -21.75637,-10.54932 -2.37177,-2.58836 -4.63563,-5.61748 -4.35793,-5.83101 0.0871,-0.0669 1.8558,-0.85205 3.93056,-1.74472 4.78496,-2.05875 20.83034,-9.40796 33.05567,-15.14037 5.18607,-2.43172 9.50301,-4.42133 9.59321,-4.42133 0.0902,0 3.61992,-1.62928 7.84387,-3.62064 4.22395,-1.99137 8.88605,-4.12548 10.36021,-4.74249 l 2.68031,-1.12181 -0.009,1.86362 c -0.0257,5.13674 -3.44875,17.74618 -6.42422,23.66411 -3.8289,7.6153 -9.39079,14.03099 -15.00759,17.31137 -3.31536,1.93627 -8.6712,3.803 -11.94078,4.16183 -4.24718,0.46613 -4.97667,0.48176 -7.96766,0.17076 z m 14.26132,-13.12181 c 2.4297,-1.17619 3.34917,-2.75664 3.15234,-5.41842 -0.12816,-1.73332 -0.3881,-2.33782 -1.49723,-3.48215 -1.66308,-1.71585 -3.76388,-2.35146 -5.88461,-1.78041 -3.21075,0.86455 -4.65446,2.99081 -4.3292,6.3759 0.22063,2.29609 1.01797,3.36579 3.28465,4.40666 2.07059,0.95082 3.14275,0.93017 5.27405,-0.10161 z m -70.39566,3.4127 c -0.2184,-0.0839 -8.52735,-1.31355 -18.46435,-2.73254 -33.91289,-4.84272 -76.420459,-11.05976 -83.188883,-12.16695 -3.634377,-0.59453 -7.349272,-2.3612 -8.706374,-4.14046 -2.593824,-3.40067 -2.411949,0.53699 -2.411949,-52.21973 0,-37.94097 0.106105,-48.19852 0.512421,-49.538928 0.683341,-2.254286 2.700134,-4.204437 5.019775,-4.853887 1.656335,-0.463743 4.378369,-0.311774 24.176079,1.349747 12.270281,1.029779 26.866121,2.214049 32.435211,2.631718 5.56909,0.417654 11.40668,0.866359 12.97243,0.997107 l 2.84683,0.23771 2.07692,3.443603 c 3.31102,5.48972 8.70246,14.93229 8.70555,15.24689 0.002,0.15833 -0.48857,0.2043 -1.08915,0.1022 -1.43342,-0.24382 -11.53731,-1.21565 -20.74758,-1.99561 -6.64062,-0.56235 -13.89811,-1.23279 -34.943303,-3.22809 -7.421316,-0.70359 -9.241448,-0.58494 -10.887437,0.7098 -2.376001,1.86896 -2.265011,0.10055 -2.314947,36.8853 l -0.04573,33.69128 1.038164,1.56877 c 0.570991,0.86283 1.685078,1.96859 2.475749,2.45725 1.456769,0.90034 1.300264,0.8749 20.852524,3.38891 2.51155,0.32292 6.8894,0.85239 9.72854,1.17659 2.83914,0.3242 13.21722,1.65202 23.06238,2.95071 18.84341,2.48567 19.78066,2.52526 21.9758,0.92841 0.56289,-0.40947 1.42548,-1.53131 1.91687,-2.49298 l 0.89345,-1.74849 0.012,-25.627 0.012,-25.62698 5.43436,10.72124 c 4.9939,9.85228 5.64467,10.93264 8.02914,13.32957 2.94842,2.96383 4.78816,3.71777 8.50762,3.48648 l 2.22845,-0.13852 -5.4e-4,21.763 c -3.6e-4,14.55739 -0.14572,22.3394 -0.43892,23.50392 -0.61139,2.42808 -2.70324,4.74218 -4.99155,5.52189 -1.66413,0.56703 -5.64512,0.8162 -6.6811,0.41818 z m 14.49353,-3.13073 c 0,-0.0968 0.17128,-0.62658 0.38064,-1.1772 0.22479,-0.59126 0.40188,-10.51785 0.43254,-24.24638 0.0329,-14.72354 0.19483,-23.3336 0.44177,-23.48622 0.21442,-0.13251 5.78244,-2.07926 12.37338,-4.3261 22.01784,-7.50584 60.78796,-21.2654 72.73722,-25.81454 1.96555,-0.74829 11.07861,-4.15811 20.25123,-7.57737 13.97588,-5.20977 43.31535,-16.74115 48.24558,-18.96212 0.76438,-0.34434 5.05288,-2.16842 9.52999,-4.05352 4.47712,-1.8851 9.42977,-4.02513 11.0059,-4.75564 l 2.8657,-1.32818 0.29837,1.46323 c 0.1641,0.8048 0.27661,3.78619 0.25002,6.62533 -0.092,9.8273 -2.50612,17.52312 -6.89557,21.98234 -5.03724,5.11733 -21.14476,14.41191 -49.97959,28.83989 -20.79508,10.40518 -28.67202,14.1659 -53.83745,25.70385 -2.40236,1.10144 -6.86954,3.16123 -9.92707,4.57732 -3.05754,1.41609 -7.79276,3.60863 -10.52271,4.87231 -2.72994,1.26366 -7.64384,3.54148 -10.91978,5.0618 -10.11481,4.69418 -18.71495,8.6092 -27.20018,12.38233 -4.4771,1.99082 -8.4529,3.79412 -8.8351,4.00731 -0.38219,0.21318 -0.69489,0.30839 -0.69489,0.21156 z m -71.47492,-27.10735 c -10.59734,-1.7814 -19.65565,-8.37982 -24.813068,-18.07475 -2.371475,-4.4579 -3.283966,-7.21507 -4.017831,-12.1402 -0.690651,-4.63512 -0.379402,-8.79159 1.042018,-13.91526 2.888889,-10.41334 11.332481,-19.04357 22.254141,-22.74607 3.29731,-1.1178 4.39229,-1.29144 9.10848,-1.44438 6.25815,-0.20296 9.52476,0.34477 14.22249,2.38474 14.49352,6.29373 23.30902,20.96431 21.5516,35.86572 -0.90867,7.70476 -3.85192,14.06534 -9.1038,19.67402 -6.5823,7.02946 -15.17901,10.72663 -24.68488,10.61614 -2.51155,-0.0293 -5.01317,-0.12817 -5.55915,-0.21996 z m 10.6006,-10.64102 c 8.87847,-2.09355 15.97398,-9.28309 17.83467,-18.071 0.7963,-3.76089 0.53923,-9.59684 -0.55972,-12.70666 -2.11258,-5.97822 -6.6881,-11.22678 -12.10577,-13.8865 -9.84273,-4.83215 -20.37101,-3.08747 -27.65741,4.58322 -4.47015,4.70589 -6.46429,9.65268 -6.47154,16.0537 -0.009,8.15965 3.86717,15.64866 10.57911,20.4382 1.35731,0.96856 2.99301,1.97353 3.63489,2.23328 4.81401,1.94809 10.15227,2.43891 14.74577,1.35576 z m -3.25457,-9.73128 c -5.50191,-1.14998 -9.76623,-5.24682 -11.15417,-10.71612 -1.33031,-5.24227 0.09,-9.8318 4.22845,-13.66325 3.76058,-3.48163 8.41273,-4.57314 13.66285,-3.20565 4.32752,1.12717 7.9727,4.62719 9.19381,8.8277 0.84843,2.91847 0.57772,7.9484 -0.56707,10.53637 -2.4215,5.47424 -9.7483,9.39468 -15.36387,8.22095 z m 55.56786,-4.29918 c -2.51302,-1.18073 -3.96204,-3.26417 -8.33359,-11.9822 -15.9826,-31.87363 -26.58181,-51.30771 -31.93475,-58.553732 -3.10559,-4.203882 -7.83665,-7.095161 -13.95546,-8.528562 -8.71175,-2.040829 -42.094052,-4.410435 -78.576702,-5.577671 -7.097858,-0.227099 -15.406819,-0.584257 -18.464357,-0.793691 -3.05754,-0.20942 -8.328817,-0.504459 -11.713948,-0.655634 -5.75724,-0.257114 -6.068505,-0.310422 -4.818988,-0.825297 0.734689,-0.302723 5.469903,-1.07923 10.522699,-1.725574 5.052795,-0.646328 11.063116,-1.441805 13.356271,-1.767701 13.82587,-1.964934 53.404397,-5.881415 88.350965,-8.742769 4.14951,-0.339763 11.4757,-0.966626 16.28039,-1.39306 48.87505,-4.337722 70.01218,-6.29194 94.3072,-8.719102 19.48222,-1.946339 28.99108,-2.713496 51.81934,-4.180679 12.01175,-0.772005 25.41331,-1.673347 29.78123,-2.002979 4.3679,-0.329648 11.51539,-0.702218 15.88331,-0.827954 7.50315,-0.215993 8.22096,-0.171225 12.99996,0.810574 5.18394,1.065003 11.06391,3.16915 15.98709,5.720997 3.60383,1.867983 7.62485,5.830269 9.09966,8.966732 2.48665,5.288365 4.03998,14.67278 3.71893,22.467968 -0.1912,4.642637 -0.96169,7.489013 -2.33346,8.62041 -1.2263,1.01141 -33.19196,14.565094 -50.39196,21.366584 -12.36516,4.88961 -24.39387,9.51449 -33.55351,12.90088 -4.80471,1.77635 -9.45058,3.50681 -10.32416,3.84551 -0.87358,0.3387 -3.73258,1.38658 -6.35332,2.32865 -2.62075,0.94208 -8.78547,3.16827 -13.69937,4.94709 -8.1751,2.95938 -11.58439,4.1787 -27.82806,9.95252 -10.23922,3.63954 -27.19406,9.45889 -35.30137,12.11634 -9.23615,3.02746 -11.94543,3.44389 -14.52404,2.23235 z M 58.061276,151.11966 c -3.248847,-1.14974 -8.02423,-6.36485 -17.43453,-19.03993 -8.52636,-11.48447 -21.378196,-31.17704 -24.84758,-38.073375 -1.876608,-3.730264 -3.872163,-9.476504 -3.872163,-11.14997 0,-1.600604 -0.357234,-1.556691 7.94166,-0.976232 2.948341,0.206223 11.078614,0.564311 18.067275,0.795747 28.153081,0.932333 42.935737,1.572539 55.988698,2.424715 9.073874,0.592405 24.498204,1.8998 27.994344,2.372848 7.71993,1.044562 12.85231,3.020617 15.86673,6.10898 l 1.77028,1.8137 -1.77028,-0.0014 c -0.97365,-7.5e-4 -3.73584,-0.174782 -6.1382,-0.386753 -2.40234,-0.211907 -8.92444,-0.747192 -14.49352,-1.189474 -12.70919,-1.009308 -16.72728,-1.342183 -31.766639,-2.631628 -7.08032,-0.607053 -13.091544,-0.937301 -14.471539,-0.795071 -4.39744,0.453267 -7.467837,2.749875 -9.154833,6.847696 -0.76246,1.85206 -0.7986,2.977227 -0.906913,28.235667 -0.08726,20.34858 -0.222175,26.29965 -0.595688,26.27539 -0.265582,-0.0173 -1.245278,-0.30114 -2.177102,-0.63091 z"
       id="path3" /></g><metadata
     id="metadata182"><rdf:RDF><cc:Work
         rdf:about=""><cc:license
           rdf:resource="http://creativecommons.org/licenses/by-sa/4.0/" /><dc:publisher><cc:Agent><dc:title>OpenDataKerala.org</dc:title></cc:Agent></dc:publisher><dc:date>April 2026</dc:date><dc:title>Election Symbols of Kerala</dc:title><dc:creator><cc:Agent><dc:title>Manoj Karingamadathil</dc:title></cc:Agent></dc:creator></cc:Work><cc:License
         rdf:about="http://creativecommons.org/licenses/by-sa/4.0/"><cc:permits
           rdf:resource="http://creativecommons.org/ns#Reproduction" /><cc:permits
           rdf:resource="http://creativecommons.org/ns#Distribution" /><cc:requires
           rdf:resource="http://creativecommons.org/ns#Notice" /><cc:requires
           rdf:resource="http://creativecommons.org/ns#Attribution" /><cc:permits
           rdf:resource="http://creativecommons.org/ns#DerivativeWorks" /><cc:requires
           rdf:resource="http://creativecommons.org/ns#ShareAlike" /></cc:License></rdf:RDF></metadata></svg>
