<?xml version="1.0" encoding="UTF-8" standalone="no"?>
<!-- Created with Inkscape (http://www.inkscape.org/) -->

<svg
   width="1500"
   height="1500"
   viewBox="0 0 396.87499 396.875"
   version="1.1"
   id="svg5"
   xml:space="preserve"
   inkscape:version="1.3 (0e150ed6c4, 2023-07-21)"
   sodipodi:docname="Chain.svg"
   inkscape:export-filename="Chain.png"
   inkscape:export-xdpi="96"
   inkscape:export-ydpi="96"
   xmlns:inkscape="http://www.inkscape.org/namespaces/inkscape"
   xmlns:sodipodi="http://sodipodi.sourceforge.net/DTD/sodipodi-0.dtd"
   xmlns="http://www.w3.org/2000/svg"
   xmlns:svg="http://www.w3.org/2000/svg"
   xmlns:rdf="http://www.w3.org/1999/02/22-rdf-syntax-ns#"
   xmlns:cc="http://creativecommons.org/ns#"
   xmlns:dc="http://purl.org/dc/elements/1.1/"><title
     id="title186">Election Symbols of Kerala</title><sodipodi:namedview
     id="namedview7"
     pagecolor="#ffffff"
     bordercolor="#000000"
     borderopacity="0.25"
     inkscape:showpageshadow="2"
     inkscape:pageopacity="0.0"
     inkscape:pagecheckerboard="0"
     inkscape:deskcolor="#d1d1d1"
     inkscape:document-units="mm"
     showgrid="false"
     inkscape:zoom="0.25"
     inkscape:cx="230"
     inkscape:cy="1078"
     inkscape:window-width="1920"
     inkscape:window-height="991"
     inkscape:window-x="-9"
     inkscape:window-y="-9"
     inkscape:window-maximized="1"
     inkscape:current-layer="layer1" /><defs
     id="defs2"><inkscape:path-effect
       effect="bspline"
       id="path-effect3248"
       is_visible="true"
       lpeversion="1"
       weight="33.333333"
       steps="2"
       helper_size="0"
       apply_no_weight="true"
       apply_with_weight="true"
       only_selected="false" /><inkscape:path-effect
       effect="bspline"
       id="path-effect577"
       is_visible="true"
       lpeversion="1"
       weight="33.333333"
       steps="2"
       helper_size="0"
       apply_no_weight="true"
       apply_with_weight="true"
       only_selected="false" /></defs><g
     inkscape:label="Layer 1"
     inkscape:groupmode="layer"
     id="layer1"><path
       style="fill:#000000;stroke-width:1.62631"
       d="m 321.91754,387.34277 c -21.1774,-2.22529 -42.1467,-9.85947 -55.95608,-20.37166 -1.7946,-1.36612 -4.31591,-3.43276 -5.60288,-4.59255 l -2.33996,-2.1087 -2.36663,0.36764 c -4.28205,0.6652 -13.8763,0.97387 -20.20493,0.65006 -22.87654,-1.17057 -40.73878,-7.55362 -52.08475,-18.61243 l -3.22723,-3.14552 -9.4665,-0.22142 c -6.55348,-0.15336 -11.18784,-0.49699 -15.06036,-1.11695 -35.02905,-5.60799 -60.278139,-23.55916 -64.936685,-46.1676 -0.375874,-1.82416 -0.684711,-3.66368 -0.686289,-4.08781 -0.0016,-0.51388 -1.042711,-1.33368 -3.119646,-2.45723 -8.795598,-4.75815 -20.106879,-13.59847 -28.759947,-22.47733 -5.525015,-5.66921 -8.234862,-8.99502 -11.577411,-14.20905 -2.258789,-3.52349 -3.127355,-4.5154 -4.514341,-5.15547 -5.767157,-2.6614 -11.872847,-7.92137 -16.653578,-14.34686 -6.954952,-9.34772 -11.789743,-21.85608 -13.970826,-36.14485 -1.13764,-7.45291 -1.036922,-23.00592 0.192279,-29.69041 1.31647,-7.15906 2.838229,-12.04647 5.444821,-17.4871 3.709429,-7.74251 7.803238,-13.14075 13.259459,-17.48431 3.100456,-2.46821 9.682884,-6.14271 12.487236,-6.97075 1.658825,-0.4898 1.738824,-0.60595 3.288588,-4.77494 3.764496,-10.12688 7.884488,-18.18007 13.254304,-25.907586 3.83246,-5.515176 10.235717,-12.600412 14.040237,-15.535569 2.176903,-1.679479 2.429259,-2.053157 2.890351,-4.280054 2.309368,-11.153479 9.924977,-23.63582 21.949478,-35.976232 11.34953,-11.647684 22.15391,-19.064444 34.39116,-23.608108 16.72893,-6.2114004 33.87411,-2.9267972 44.7766,8.578112 4.49416,4.742497 7.10486,9.213139 8.80602,15.07968 3.57575,12.331175 -0.0346,27.517313 -9.90902,41.680141 -10.82931,15.532446 -25.90141,28.079806 -41.30699,34.387646 -2.60327,1.06592 -5.36256,2.06009 -6.13171,2.20929 -0.76915,0.14913 -1.39845,0.50215 -1.39845,0.78438 0,1.44124 -3.72955,11.59052 -6.40812,17.43854 -4.54339,9.9194 -9.50721,17.69998 -15.86721,24.8712 l -3.14539,3.5466 1.05782,5.05932 c 0.5818,2.78263 1.29406,6.97221 1.58278,9.31017 0.91913,7.44266 -0.0234,23.21935 -1.73828,29.09423 -0.24132,0.82676 -0.43877,1.73364 -0.43877,2.01527 0,0.28164 1.6943,1.33382 3.7651,2.33818 7.0881,3.43782 16.09816,9.14832 22.91325,14.5222 7.46002,5.88244 16.27606,14.7112 20.25486,20.28411 0.76035,1.06498 1.4479,2.01322 1.52792,2.1072 0.08,0.094 2.81172,0.32701 6.07045,0.51784 10.33108,0.60499 22.92977,3.10045 33.54782,6.64493 10.56725,3.52752 20.12413,8.70862 26.33538,14.27725 l 2.32272,2.08242 6.06805,-0.76035 c 22.05123,-2.76306 46.07441,-0.29331 60.79137,6.24983 7.02376,3.12273 11.70833,6.30093 16.98361,11.52229 l 1.99901,1.97859 5.10086,0.25057 c 13.241,0.65044 29.26942,4.98199 42.53661,11.49517 17.08016,8.38505 27.60352,19.9091 31.72703,34.74399 0.79009,2.84249 0.92747,4.46226 0.92189,10.87038 -0.007,6.93498 -0.0979,7.82885 -1.16189,11.30896 -5.22514,17.0898 -19.63068,28.02472 -40.95354,31.08691 -3.92465,0.56361 -17.15368,0.77338 -21.29965,0.33774 z m 16.1361,-3.60088 c 6.6664,-0.57529 15.08295,-2.50716 19.85578,-4.55755 7.94583,-3.41349 15.65057,-9.87479 19.42205,-16.28761 3.88581,-6.60721 5.72644,-15.4181 4.83919,-23.16454 -1.8822,-16.43309 -12.37621,-29.40326 -31.20814,-38.572 -12.93408,-6.29724 -25.03753,-9.53194 -42.49172,-11.35618 -1.50236,-0.1571 -1.48468,0.092 0.15222,2.14231 3.45675,4.32985 6.39234,12.50095 7.03573,19.58371 l 0.29802,3.28086 3.30313,0.51504 c 5.32231,0.82989 10.70354,2.17084 15.93795,3.97159 7.7483,2.6656 12.25791,5.17129 18.34649,10.19394 2.16956,1.78974 3.0806,2.3651 2.46393,1.55611 -0.53813,-0.70599 -1.57362,-2.15497 -2.3011,-3.21994 -0.72748,-1.065 -2.41716,-2.97278 -3.75484,-4.23953 -1.51528,-1.43495 -1.89862,-1.94659 -1.0169,-1.35723 1.87659,1.25436 5.48239,4.9395 7.02913,7.18375 0.6831,0.99119 1.86174,3.31478 2.61918,5.16355 1.20838,2.94946 1.37947,3.86236 1.39609,7.44922 0.0168,3.61557 -0.12376,4.39658 -1.21572,6.76062 -1.40297,3.03719 -4.99839,6.75989 -8.01519,8.29896 -12.4358,6.34427 -34.20602,4.85806 -56.49595,-3.85688 -14.19882,-5.55145 -23.11028,-14.70286 -23.11028,-23.73252 0,-3.01661 1.2025,-6.44097 3.04713,-8.67738 1.79797,-2.17983 7.30765,-5.35417 10.40292,-5.99354 l 2.47751,-0.51175 -0.26089,-2.17228 c -0.64892,-5.40296 -4.37523,-10.30656 -9.8234,-12.92705 -4.4086,-2.12043 -5.14213,-2.19498 -8.64803,-0.87874 -7.74293,2.90695 -13.32832,7.98472 -16.9977,15.45287 -2.56222,5.21478 -3.39962,8.22863 -3.72114,13.39247 -0.95971,15.41363 9.16944,30.4883 28.06055,41.76102 12.99019,7.75152 32.67299,13.64056 49.46518,14.79984 6.99429,0.48287 7.30057,0.48284 12.90887,-10e-4 z m -53.57183,-15.46646 c -0.355,-0.22943 -0.45181,-0.41712 -0.21515,-0.41712 0.23666,0 0.72075,0.18769 1.07574,0.41712 0.355,0.2294 0.45181,0.41711 0.21515,0.41711 -0.23666,0 -0.72073,-0.18771 -1.07574,-0.41711 z m -10.51894,-50.68664 c 0.89668,-1.53074 3.08284,-3.79869 3.37309,-3.49926 0.0981,0.10115 -0.80774,1.24876 -2.01273,2.5504 -1.64881,1.78109 -1.98539,2.01585 -1.36036,0.94886 z m 60.86355,-3.10035 c -1.00141,-0.32071 -1.01059,-0.34746 -0.13304,-0.3874 0.51854,-0.0236 1.06244,0.15076 1.20871,0.3874 0.14621,0.23667 0.20611,0.41101 0.13304,0.38741 -0.0732,-0.0236 -0.61706,-0.19792 -1.20871,-0.38741 z m 6.88474,42.80505 c 6.31599,-1.51833 11.79755,-5.41047 13.78453,-9.78762 1.88853,-4.16027 0.59728,-9.43233 -3.35604,-13.70238 -6.04526,-6.52961 -16.03718,-11.28048 -29.66348,-14.10412 -5.77724,-1.19716 -6.94087,-1.18742 -7.18993,0.0602 -1.72529,8.64312 -4.05677,13.87538 -8.79109,19.72888 -2.53084,3.12911 -6.7469,6.97977 -11.05923,10.10076 l -1.23285,0.89225 5.07859,1.80226 c 6.55368,2.32576 15.78555,4.64274 21.65622,5.4352 5.73686,0.77442 16.71758,0.54953 20.77328,-0.42543 z m -86.68826,0.13677 c 0.16641,-0.16658 -0.27267,-1.03793 -0.97571,-1.93632 -4.93923,-6.31178 -7.16917,-10.80447 -9.43158,-19.00201 -0.10295,-0.37288 -0.5551,-0.51186 -1.23966,-0.38099 -1.52291,0.29112 -12.53877,-0.45176 -17.45506,-1.17712 -10.18202,-1.50229 -17.14759,-4.03012 -22.58833,-8.19739 -8.54501,-6.54495 -11.20116,-17.24365 -6.116,-24.63468 1.21387,-1.76429 5.35149,-4.87431 7.31323,-5.49695 0.72721,-0.2308 0.81327,-0.50916 0.56563,-1.82926 -0.45842,-2.44359 -1.42657,-3.96304 -4.36392,-6.84893 -2.59804,-2.55252 -6.04275,-4.66203 -9.74699,-5.96897 -1.66631,-0.58791 -1.68888,-0.58089 -4.54084,1.41224 -7.1349,4.98632 -10.83581,10.22699 -13.01146,18.42482 -1.24398,4.68735 -1.25289,12.3712 -0.0198,17.08192 2.72553,10.41222 8.38076,18.91945 16.61222,24.98989 8.65723,6.38444 23.32102,11.72454 36.83966,13.41591 5.0924,0.63712 27.55212,0.75505 28.15864,0.14783 z m -58.33426,-59.26909 c 0.24628,-0.46013 0.66044,-0.96806 0.92037,-1.12871 0.25995,-0.16068 0.13986,0.21583 -0.26694,0.83662 -0.8613,1.31449 -1.30728,1.51388 -0.65343,0.29209 z m 98.10914,47.50858 c 6.55179,-4.80887 12.02136,-11.44809 14.68629,-17.82685 2.87812,-6.88909 3.32165,-17.35493 1.04006,-24.54214 -5.22292,-16.45272 -19.63807,-27.4439 -41.96326,-31.99589 -8.01048,-1.63331 -13.82604,-2.1614 -24.09656,-2.18819 -8.19749,-0.0213 -23.23597,0.87325 -23.23597,1.38227 0,0.10474 1.33737,1.62238 2.97191,3.37265 3.72099,3.98441 5.28279,6.33156 6.72582,10.10791 1.20292,3.14802 1.25327,3.33757 1.72217,6.48316 l 0.29919,2.0071 11.45986,-0.23284 c 18.0374,-0.36649 28.7064,0.76864 34.23105,3.64203 3.53833,1.84029 7.6982,5.77189 9.44619,8.92784 1.65984,2.99676 2.56501,7.14845 2.25157,10.3271 -0.60522,6.13792 -5.46783,12.53269 -12.21777,16.06748 -3.88182,2.03282 -3.86977,2.00696 -2.33739,5.01507 0.8785,1.72453 5.43362,6.44034 7.84029,8.11686 1.52317,1.06107 6.60713,3.95902 7.22257,4.11701 0.0675,0.0172 1.84678,-1.23393 3.95398,-2.78057 z m -25.37632,-54.50787 c -0.59165,-0.25648 -2.6248,-0.90751 -4.51811,-1.44672 -1.89329,-0.53922 -3.14803,-0.99481 -2.78827,-1.01243 0.97787,-0.0478 6.83483,1.63682 8.12118,2.33601 1.31369,0.71402 0.74611,0.79981 -0.8148,0.12311 z m -10.00437,-2.77615 c 0.29583,-0.11937 0.7799,-0.11937 1.07573,0 0.29584,0.11937 0.0538,0.21703 -0.53786,0.21703 -0.59167,0 -0.83371,-0.0977 -0.53787,-0.21703 z m -2.58177,-0.4303 c 0.29582,-0.11938 0.77989,-0.11938 1.07572,0 0.29584,0.11937 0.0538,0.21703 -0.53785,0.21703 -0.59167,0 -0.83372,-0.0976 -0.53787,-0.21703 z m -7.73764,-0.88747 c 0.7734,-0.0958 1.9352,-0.0938 2.58178,0.005 0.64659,0.0982 0.013,0.17654 -1.40616,0.17413 -1.41997,-0.002 -1.94899,-0.0828 -1.17562,-0.17852 z m -71.75952,48.73924 c 0,-0.10782 -0.49918,-0.93077 -1.10929,-1.82875 -2.38964,-3.51719 -4.94969,-9.47308 -6.10398,-14.20077 l -1.17749,-4.82271 -2.36663,-0.23279 c -1.30165,-0.12799 -5.93165,-0.91215 -10.28891,-1.74248 -20.26087,-3.86096 -34.79652,-11.66167 -39.51319,-21.20522 -1.51046,-3.05621 -1.61825,-3.53372 -1.61825,-7.16928 0,-3.39365 0.16133,-4.24434 1.25332,-6.60938 2.11164,-4.57332 6.88666,-7.94648 12.95711,-9.15309 l 2.77165,-0.55092 -0.26465,-1.75126 c -0.58227,-3.8531 -2.82514,-7.51396 -7.8429,-12.80137 l -3.34868,-3.52864 -3.40837,1.20761 c -10.41149,3.68882 -16.44861,9.02627 -20.805446,18.3942 -2.504688,5.3855 -3.20641,9.22484 -2.928424,16.02226 0.199646,4.88179 0.413116,6.14947 1.600684,9.50568 4.186265,11.83096 11.251986,19.70273 24.381896,27.16333 11.83923,6.72724 27.88167,11.68337 42.75121,13.20752 2.31007,0.23679 15.06034,0.31811 15.06034,0.0961 z m 66.74672,-6.04325 c -0.23925,-9.74429 3.70521,-19.76934 10.47106,-26.61269 2.51625,-2.54507 7.19927,-5.87464 8.26265,-5.87464 0.31831,0 0.57873,-0.16732 0.57873,-0.37181 0,-0.20449 -0.89838,-0.49494 -1.99639,-0.64544 -2.52101,-0.34554 -24.36745,-0.35178 -26.44851,-0.008 l -1.55142,0.25662 -0.25989,4.14918 c -0.74392,11.87716 -5.96758,21.29303 -15.26267,27.51162 -1.25078,0.83681 -2.12213,1.65842 -1.93634,1.82583 0.38968,0.35108 5.08508,1.46434 9.1589,2.17153 3.45213,0.59928 11.61243,1.15992 15.88106,1.09111 l 3.18734,-0.0514 z m 33.99486,-2.30826 c 3.37031,-2.22197 4.76744,-3.55041 6.57338,-6.25013 1.79175,-2.67847 1.53015,-2.97926 -1.60216,-1.8423 -3.2648,1.18506 -5.95179,3.24734 -7.34054,5.63388 -1.15419,1.98348 -1.83963,4.55166 -1.2148,4.55166 0.22509,0 1.83796,-0.94189 3.58412,-2.09311 z M 214.44046,326.128 c 9.8784,-6.32928 15.3938,-16.51219 15.3938,-28.42109 0,-10.4951 -3.57638,-18.28682 -12.44485,-27.11323 -6.68115,-6.64944 -12.73919,-10.45891 -23.15372,-14.55976 -11.88735,-4.68078 -22.93831,-7.02082 -39.59563,-8.38433 -1.63153,-0.13352 -1.72191,0.20137 -0.51263,1.89965 1.87096,2.62752 4.27168,8.52458 5.01642,12.32219 l 0.76339,3.89277 1.72316,0.6808 1.72315,0.68081 -1.72118,-0.0925 -1.72118,-0.0925 -0.12799,2.19775 -0.12799,2.19777 4.64604,0.51057 c 10.33923,1.13619 25.13144,4.8873 31.96982,8.10714 4.04426,1.90424 9.03091,6.75297 10.95608,10.65303 1.12053,2.27 1.27643,3.04944 1.29089,6.45444 0.0146,3.32246 -0.14751,4.22235 -1.1372,6.33409 -1.29915,2.77186 -4.2145,5.82624 -7.18199,7.52455 -1.09531,0.62685 -2.05677,1.18672 -2.13662,1.24417 -0.0798,0.0574 0.076,1.16941 0.34615,2.47105 0.61086,2.94252 3.78108,7.57028 6.74658,9.84841 3.09137,2.37481 5.04643,3.69583 5.53102,3.73727 0.23666,0.0202 1.92613,-0.92161 3.75436,-2.09302 z m -25.48431,-51.87221 c -1.5383,-0.80535 -2.64618,-1.47367 -2.46193,-1.48515 0.45742,-0.0285 5.474,2.52124 5.474,2.78223 0,0.28921 0.10083,0.33266 -3.01207,-1.29708 z m 25.38746,-3.65752 c 0.35499,-0.22941 0.83907,-0.41712 1.07573,-0.41712 0.23667,0 0.13986,0.18771 -0.21515,0.41712 -0.35499,0.22943 -0.83906,0.41713 -1.07572,0.41713 -0.23668,0 -0.13987,-0.1877 0.21514,-0.41713 z m -35.49941,-0.43029 c -0.56744,-0.24383 -0.64074,-0.37786 -0.21515,-0.39345 0.35499,-0.013 0.9359,0.16404 1.29089,0.39345 0.78657,0.50832 0.10717,0.50832 -1.07574,0 z m -2.01701,-0.72423 c 0.31061,-0.12425 0.68175,-0.10896 0.82474,0.034 0.14295,0.14295 -0.11124,0.24468 -0.56477,0.22599 -0.50126,-0.0206 -0.60323,-0.12262 -0.25997,-0.25996 z m -7.63034,37.91051 c 0.48937,-9.21869 3.29903,-15.63507 9.61079,-21.94799 1.91341,-1.91376 4.05948,-3.88272 4.76904,-4.37545 0.70954,-0.49274 1.19246,-0.99351 1.07314,-1.11285 -0.91167,-0.91167 -17.90043,-4.36612 -22.98401,-4.67351 l -2.11805,-0.12799 -0.73942,2.90604 c -3.27182,12.85893 -12.85041,20.31801 -27.31124,21.26791 -5.01379,0.32934 -4.98562,0.37873 2.16604,3.79861 8.8406,4.22753 21.788,7.91809 30.79606,8.77818 1.99519,0.19051 3.82124,0.31031 4.0579,0.26622 0.23715,-0.0442 0.54228,-2.18943 0.67975,-4.77909 z m 32.00944,-1.10416 c 3.738,-3.41632 4.90041,-6.17591 1.9722,-4.68204 -1.66327,0.84853 -3.90587,3.58496 -4.74346,5.78795 -0.62467,1.64304 0.0642,1.36809 2.77126,-1.10591 z m -63.88564,-11.37493 c 9.52205,-2.47398 16.61523,-9.8153 18.74862,-19.40448 0.91057,-4.09281 0.64155,-10.36338 -0.66045,-15.39398 -1.16973,-4.51957 -4.95522,-12.09162 -8.18484,-16.37191 -4.76733,-6.3183 -16.05041,-17.00256 -23.93337,-22.66319 -12.48172,-8.96291 -28.712228,-16.70687 -41.006192,-19.56499 -10.596092,-2.46341 -21.832204,-1.65879 -29.629409,2.12172 -2.6647,1.29201 -7.453287,5.21707 -8.303915,6.80649 -0.965364,1.80379 4.49507,7.54031 9.43988,9.91717 2.942199,1.41424 5.987896,2.05013 6.442712,1.34509 0.641532,-0.99446 3.375855,-1.93274 6.270289,-2.15166 5.977456,-0.45207 15.479509,2.35103 27.168144,8.01457 11.867091,5.75004 22.624841,13.44812 31.407511,22.47473 5.26841,5.41474 6.91229,7.60641 8.91449,11.88503 1.13412,2.42354 1.35627,3.41972 1.37175,6.15094 0.0163,2.77172 -0.13954,3.49003 -1.03762,4.80379 -0.58084,0.84962 -1.549,1.83583 -2.15147,2.1916 -1.58543,0.93619 -7.33852,2.03173 -9.13689,1.73988 -1.53053,-0.24837 -1.54626,-0.2348 -2.88841,2.49152 -1.9318,3.92405 -2.13359,6.42102 -0.78807,9.75216 1.60227,3.96685 3.62678,6.43497 5.47868,6.67921 2.76929,0.36526 9.65084,-0.089 12.47856,-0.82369 z m -16.79358,-53.02289 c -2.01826,-1.82107 -4.53549,-4.05166 -5.59384,-4.95686 -1.33858,-1.14488 -1.07859,-1.01391 0.85415,0.4303 2.57761,1.92605 9.11037,7.87046 8.6244,7.84767 -0.1184,-0.005 -1.86646,-1.50005 -3.88471,-3.32111 z m -9.23931,-7.6517 -1.29089,-1.10916 1.39847,0.92545 c 0.76915,0.509 1.39845,1.0091 1.39845,1.11131 0,0.32209 -0.18221,0.20986 -1.50603,-0.9276 z M 76.137972,218.23854 c 0.310626,-0.12425 0.681751,-0.10896 0.824737,0.034 0.142953,0.14296 -0.111078,0.24468 -0.564771,0.22601 -0.501262,-0.0206 -0.603232,-0.12262 -0.259966,-0.25998 z m -7.234353,-0.56664 -4.518098,-0.26183 4.518098,-0.0413 c 2.48496,-0.0228 5.002203,0.11368 5.593857,0.30317 l 1.075742,0.34451 -1.075742,-0.0413 c -0.591654,-0.0228 -3.108897,-0.15922 -5.593857,-0.30318 z m 21.084506,63.97795 c 0,-4.72373 3.09935,-14.46012 5.456579,-17.14145 0.554817,-0.63112 0.512972,-0.78822 -0.371775,-1.39549 -5.952134,-4.08532 -12.565235,-9.41426 -16.190144,-13.04631 l -4.435741,-4.44448 -2.664132,0.82214 c -4.571099,1.41063 -9.005572,1.9244 -14.197859,1.64495 -2.649641,-0.14263 -5.561802,-0.47544 -6.471481,-0.73961 -0.909679,-0.26418 -1.717356,-0.41693 -1.794834,-0.33945 -0.302137,0.30214 8.197343,10.65643 11.53755,14.05536 4.183093,4.25659 11.845915,10.79932 17.441316,14.89186 3.894146,2.84823 10.712927,7.11854 11.367795,7.11918 0.177496,1.6e-4 0.322726,-0.64185 0.322726,-1.4267 z m 39.983525,-8.58371 c 0.57296,-0.29235 1.11682,-0.75926 1.20858,-1.03761 0.15889,-0.48221 -4.79085,0.75167 -5.38041,1.34124 -0.479,0.479 3.15652,0.2144 4.17183,-0.30363 z M 98.990054,259.59677 c 2.585906,-3.79673 7.970926,-7.61358 14.520426,-10.2919 l 4.3742,-1.78879 -2.12825,-1.83323 c -5.24668,-4.51938 -12.80035,-9.58382 -19.188853,-12.86537 l -4.354604,-2.23682 -1.531127,2.08583 c -2.286192,3.11441 -7.469713,7.82737 -10.484007,9.53227 -1.46448,0.82832 -2.668457,1.66733 -2.675499,1.86449 -0.02846,0.79654 9.213724,9.34624 13.019155,12.04373 2.239045,1.58712 4.724786,3.3504 5.523892,3.91839 0.799106,0.56799 1.549732,1.04796 1.668063,1.06662 0.118395,0.0187 0.6838,-0.6542 1.256604,-1.49522 z M 66.110911,244.12232 c 8.357226,-1.45737 16.806127,-6.62016 21.479635,-13.12535 l 1.529501,-2.12896 -1.609873,-0.68262 c -3.425458,-1.45249 -10.382394,-3.66708 -13.954221,-4.44203 -3.001641,-0.65126 -3.892113,-0.7075 -4.518114,-0.28539 -2.957795,1.99448 -9.546582,2.22851 -14.076683,0.5 -3.950205,-1.50724 -5.551263,-2.52764 -8.752794,-5.5783 -3.549074,-3.38184 -4.838189,-5.49457 -7.126918,-11.68032 -3.717171,-10.04636 -5.254868,-19.35133 -4.906495,-29.69041 0.349154,-10.36278 1.594797,-16.07203 5.102319,-23.38594 4.160407,-8.67533 13.815724,-14.08122 22.561607,-12.63198 3.942951,0.65336 8.142503,2.71907 10.295646,5.06428 l 1.77283,1.93099 2.000595,-0.88496 c 3.466946,-1.5336 7.696763,-5.1459 10.939147,-9.34212 l 1.069172,-1.3837 -0.902198,-1.26701 c -1.644335,-2.30927 -6.761665,-6.69909 -9.719623,-8.33783 -13.34084,-7.39095 -29.572601,-6.77888 -42.1493,1.58937 -14.031211,9.33604 -21.711174,26.77082 -21.741277,49.35633 -0.0244,18.31876 4.501786,35.15564 12.823265,47.70086 9.490361,14.30737 24.563812,21.37667 39.883779,18.70509 z M 51.18082,239.75334 c 0.31061,-0.12425 0.681751,-0.10896 0.824737,0.034 0.142953,0.14295 -0.11124,0.24468 -0.564771,0.22599 -0.501262,-0.0206 -0.603232,-0.12262 -0.259966,-0.25997 z m -3.36169,-0.99695 c -0.354992,-0.22941 -0.451807,-0.41712 -0.215146,-0.41712 0.236662,0 0.720751,0.18771 1.075743,0.41712 0.354992,0.22941 0.451806,0.41712 0.215145,0.41712 -0.236662,0 -0.72075,-0.18771 -1.075742,-0.41712 z m -7.745325,-91.78765 c 0,-0.074 0.629302,-0.70336 1.398468,-1.39845 l 1.398452,-1.26383 -1.263809,1.39847 c -1.178054,1.30356 -1.533111,1.59624 -1.533111,1.26381 z m 31.155558,-4.70618 -0.819695,-0.96816 1.075726,0.85599 c 0.59167,0.47082 1.156424,0.90649 1.255043,0.96818 0.09856,0.0616 -0.01659,0.11222 -0.25603,0.11222 -0.239426,0 -0.804197,-0.43568 -1.255044,-0.96817 z m -2.756034,-1.64643 c -1.145154,-0.6519 -1.248262,-0.79117 -0.430291,-0.58123 0.591654,0.1519 1.359274,0.54579 1.705809,0.87538 0.845961,0.80458 0.524243,0.73039 -1.275518,-0.29415 z M 51.806724,200.5237 c 5.187424,-2.54927 11.573003,-3.68606 19.106354,-3.40146 l 5.666975,0.21411 0.488317,-2.80418 c 0.948776,-5.44827 1.259386,-11.41575 0.83147,-15.9748 -0.231034,-2.46164 -0.512809,-4.62574 -0.626131,-4.80913 -0.113354,-0.18336 -0.752171,-0.17679 -1.419627,0.0146 -6.742636,1.93375 -16.720859,-0.0515 -22.968786,-4.56986 -4.510715,-3.26205 -7.182734,-6.78312 -9.189574,-12.10958 l -1.346654,-3.57425 -1.098348,2.31975 c -5.74969,12.14353 -5.76875,33.48467 -0.04375,48.93004 l 1.114725,3.00738 2.971196,-2.75086 c 1.91014,-1.76851 4.23629,-3.37259 6.513766,-4.4918 z m 48.651486,0.68937 c 2.16331,-11.11278 2.11162,-28.00032 -0.10831,-35.39181 -0.21324,-0.71 -0.504599,-1.81942 -0.647487,-2.46541 l -0.259788,-1.17451 -3.541577,2.59421 c -3.237716,2.37164 -10.068662,6.05793 -13.573126,7.32467 -1.041411,0.37644 -1.347614,0.6983 -1.146471,1.20513 0.150922,0.38034 0.378996,3.30556 0.506776,6.50051 0.187303,4.68344 0.05513,6.91489 -0.682304,11.51655 -0.503036,3.13915 -0.914624,5.94981 -0.914624,6.2459 0,0.31895 1.62212,0.95221 3.980244,1.55384 4.360394,1.1125 14.027128,4.54311 14.701398,5.21738 0.794162,0.79415 0.994329,0.4228 1.685249,-3.12646 z M 84.478154,189.48752 c 0.0081,-0.70998 0.105222,-0.94835 0.214316,-0.52967 0.109125,0.41866 0.10197,0.99955 -0.01626,1.29089 -0.117907,0.29132 -0.207127,-0.0512 -0.198361,-0.76122 z m 0.507378,-7.31503 c 9.75e-4,-2.60329 0.07188,-3.61279 0.157427,-2.24334 0.08571,1.36945 0.08489,3.49942 -0.0016,4.73326 -0.08668,1.23384 -0.156777,0.11335 -0.155639,-2.48992 z m -10.67466,-11.85527 c 13.105317,-2.32229 25.788528,-11.15266 34.578428,-24.07442 9.82738,-14.44693 15.89047,-30.17832 17.20768,-44.64742 1.15888,-12.729797 -3.3357,-25.120333 -11.24787,-31.00782 -2.13984,-1.59226 -7.28425,-3.94949 -8.61935,-3.94949 -0.6577,0 -3.84056,6.410836 -4.59314,9.251358 -0.60063,2.267018 -0.58453,5.629912 0.0325,6.805444 0.27136,0.516941 1.07137,1.604946 1.77779,2.417794 2.36134,2.717117 2.87248,4.467601 2.8829,9.873114 0.0304,15.78215 -11.492776,41.03199 -23.092125,50.59967 -9.014517,7.43559 -18.458073,7.71426 -20.373416,0.60118 l -0.448343,-1.66502 h -3.347688 c -4.287616,0 -7.123714,0.85855 -10.490479,3.17567 l -2.695048,1.85484 0.0483,2.40898 c 0.09302,4.63899 4.184362,11.19876 9.091003,14.57601 4.897842,3.37122 12.827005,4.92514 19.288729,3.78011 z m -4.116365,-21.63485 c 0,-0.0782 -0.871347,-0.76796 -1.936323,-1.53278 -2.078024,-1.49231 -2.614253,-1.1153 -0.880146,0.61879 0.855783,0.8558 2.816469,1.49207 2.816469,0.91399 z m 21.624849,-17.82265 c 3.83002,-6.5367 8.147528,-15.90044 8.772634,-19.026 0.23665,-1.18321 0.15743,-1.30548 -0.84622,-1.30548 -1.834954,0 -7.678109,-2.03174 -9.97279,-3.46767 -1.183323,-0.74048 -3.046804,-2.21656 -4.14107,-3.28018 l -1.989601,-1.93387 -1.899763,2.5121 c -3.291466,4.35238 -6.898161,10.32432 -8.706087,14.41546 l -1.07688,2.43686 3.179933,1.51013 c 4.695513,2.22989 7.900768,4.56884 11.231493,8.19588 1.634431,1.7798 3.089283,3.24536 3.233033,3.25679 0.143766,0.0114 1.140632,-1.47988 2.215318,-3.31402 z M 70.400187,116.38989 c 1.804998,-4.15211 5.570974,-10.51974 8.420212,-14.23715 1.17233,-1.52953 2.131514,-2.894127 2.131514,-3.032396 0,-0.138237 -0.70774,-1.355517 -1.572744,-2.704952 C 76.739676,92.297709 75.29572,87.745345 74.984102,82.55901 l -0.271481,-4.518098 -3.795917,3.638831 c -5.705129,5.469053 -11.922612,14.27119 -16.432448,23.263557 -2.748651,5.48065 -6.397028,14.1721 -6.081442,14.48768 0.115631,0.11564 1.569264,-7.6e-4 3.230431,-0.2585 4.033797,-0.62587 10.385939,-0.56023 13.828018,0.14295 1.538299,0.31424 2.9482,0.54523 3.133096,0.51332 0.18488,-0.0319 0.997517,-1.57937 1.805828,-3.43878 z m 4.627435,-14.46757 c 0.295599,-0.47332 0.714521,-0.86058 0.930935,-0.86058 0.216414,0 0.04293,0.38726 -0.385339,0.86058 -0.428355,0.47334 -0.847278,0.8606 -0.930935,0.8606 -0.08359,0 0.08977,-0.38726 0.385339,-0.8606 z m 62.930648,4.12414 c 5.24333,-2.45024 14.04339,-8.277161 18.7257,-12.39917 14.91213,-13.127711 24.01506,-26.674215 26.9641,-40.126539 0.97428,-4.444296 0.96569,-12.591158 -0.0174,-16.573092 C 179.09925,18.594956 160.01994,7.7011178 140.00258,12.037036 123.54582,15.601707 104.53576,29.326829 90.803673,47.558274 85.08259,55.153896 80.952726,63.403428 79.192761,70.75146 c -1.200075,5.0104 -1.294824,12.57696 -0.204428,16.325664 1.912335,6.574573 7.18031,13.756556 12.395804,16.899596 2.178433,1.31279 9.514433,3.5299 10.016983,3.02735 0.61817,-0.61818 1.49594,-7.439222 1.49594,-11.624803 0,-4.709808 -0.01,-4.757996 -1.35494,-6.289367 -3.120837,-3.554441 -4.434655,-8.972704 -3.392692,-13.991772 1.933282,-9.312556 16.185782,-26.962561 28.629042,-35.453649 3.80898,-2.599176 9.98296,-6.028245 12.68861,-7.047326 11.18207,-4.211749 20.98075,-1.468481 24.0839,6.742571 1.31956,3.491585 1.07547,9.305368 -0.57958,13.805137 -1.35137,3.674122 -4.34971,9.21431 -7.06961,13.062919 -2.3604,3.339914 -11.72485,12.824908 -15.35384,15.55149 -2.51305,1.888135 -10.56201,7.045619 -11.46582,7.346894 -0.30757,0.102457 -0.28385,0.761456 0.0746,2.072705 0.96398,3.526323 0.67586,10.783521 -0.70384,17.728771 l -0.23366,1.17633 2.82503,-1.06335 c 1.55377,-0.58484 4.6651,-1.92322 6.91409,-2.97416 z M 86.915967,95.575465 c -1.237934,-1.494485 -1.762437,-2.259049 -1.549715,-2.259049 0.119209,0 0.733679,0.677718 1.36547,1.506033 1.172443,1.537144 1.31442,2.117381 0.184245,0.753016 z M 105.47877,55.718211 c 0,-0.08928 0.33886,-0.428208 0.75302,-0.753016 0.68247,-0.53522 0.69769,-0.520014 0.16247,0.162469 -0.56214,0.716766 -0.91549,0.944694 -0.91549,0.590547 z m 1.29089,-1.721177 c 0,-0.08928 0.33886,-0.428209 0.75302,-0.753017 0.68246,-0.535236 0.69769,-0.520014 0.16247,0.162469 -0.56214,0.716766 -0.91549,0.94471 -0.91549,0.590564 z m 1.93632,-2.419306 c 0.42836,-0.473339 0.87565,-0.860597 0.99398,-0.860597 0.11839,0 -0.13531,0.387258 -0.56367,0.860597 -0.42835,0.473322 -0.87566,0.86058 -0.99399,0.86058 -0.11839,0 0.13531,-0.387258 0.56368,-0.86058 z M 133.0177,83.72324 c 10.2568,-6.250969 22.02351,-19.037951 26.1933,-28.464462 2.27837,-5.150621 2.85348,-11.035442 1.39279,-14.25143 -2.4879,-5.477575 -7.82607,-7.822055 -14.74799,-6.47719 -8.5667,1.664436 -18.50854,7.783446 -27.88065,17.15998 -3.91106,3.912914 -10.04898,11.125995 -9.98395,11.732805 0.0184,0.17065 1.25605,0.721824 2.75059,1.224827 7.24738,2.439228 13.14048,8.980397 16.33049,18.126402 0.66035,1.89329 1.20325,3.497585 1.2064,3.565077 0.008,0.178163 1.55665,-0.676514 4.73902,-2.616009 z"
       id="path3" /></g><metadata
     id="metadata182"><rdf:RDF><cc:Work
         rdf:about=""><cc:license
           rdf:resource="http://creativecommons.org/licenses/by-sa/4.0/" /><dc:publisher><cc:Agent><dc:title>OpenDataKerala.org</dc:title></cc:Agent></dc:publisher><dc:date>April 2026</dc:date><dc:title>Election Symbols of Kerala</dc:title><dc:creator><cc:Agent><dc:title>Manoj Karingamadathil</dc:title></cc:Agent></dc:creator></cc:Work><cc:License
         rdf:about="http://creativecommons.org/licenses/by-sa/4.0/"><cc:permits
           rdf:resource="http://creativecommons.org/ns#Reproduction" /><cc:permits
           rdf:resource="http://creativecommons.org/ns#Distribution" /><cc:requires
           rdf:resource="http://creativecommons.org/ns#Notice" /><cc:requires
           rdf:resource="http://creativecommons.org/ns#Attribution" /><cc:permits
           rdf:resource="http://creativecommons.org/ns#DerivativeWorks" /><cc:requires
           rdf:resource="http://creativecommons.org/ns#ShareAlike" /></cc:License></rdf:RDF></metadata></svg>
