<?xml version="1.0" encoding="UTF-8" standalone="no"?>
<!-- Created with Inkscape (http://www.inkscape.org/) -->

<svg
   width="1500"
   height="1500"
   viewBox="0 0 396.87499 396.875"
   version="1.1"
   id="svg5"
   xml:space="preserve"
   inkscape:version="1.2.2 (b0a8486541, 2022-12-01)"
   sodipodi:docname="ncp.svg"
   inkscape:export-filename="ncp.png"
   inkscape:export-xdpi="96"
   inkscape:export-ydpi="96"
   xmlns:inkscape="http://www.inkscape.org/namespaces/inkscape"
   xmlns:sodipodi="http://sodipodi.sourceforge.net/DTD/sodipodi-0.dtd"
   xmlns="http://www.w3.org/2000/svg"
   xmlns:svg="http://www.w3.org/2000/svg"
   xmlns:rdf="http://www.w3.org/1999/02/22-rdf-syntax-ns#"
   xmlns:cc="http://creativecommons.org/ns#"
   xmlns:dc="http://purl.org/dc/elements/1.1/"><title
     id="title186">Election Symbols of Kerala</title><sodipodi:namedview
     id="namedview7"
     pagecolor="#ffffff"
     bordercolor="#000000"
     borderopacity="0.25"
     inkscape:showpageshadow="2"
     inkscape:pageopacity="0.0"
     inkscape:pagecheckerboard="0"
     inkscape:deskcolor="#d1d1d1"
     inkscape:document-units="mm"
     showgrid="false"
     inkscape:zoom="0.35355339"
     inkscape:cx="-162.63456"
     inkscape:cy="971.56472"
     inkscape:window-width="1854"
     inkscape:window-height="1011"
     inkscape:window-x="0"
     inkscape:window-y="0"
     inkscape:window-maximized="1"
     inkscape:current-layer="layer1" /><defs
     id="defs2"><inkscape:path-effect
       effect="bspline"
       id="path-effect3248"
       is_visible="true"
       lpeversion="1"
       weight="33.333333"
       steps="2"
       helper_size="0"
       apply_no_weight="true"
       apply_with_weight="true"
       only_selected="false" /><inkscape:path-effect
       effect="bspline"
       id="path-effect577"
       is_visible="true"
       lpeversion="1"
       weight="33.333333"
       steps="2"
       helper_size="0"
       apply_no_weight="true"
       apply_with_weight="true"
       only_selected="false" /></defs><g
     inkscape:label="Layer 1"
     inkscape:groupmode="layer"
     id="layer1"><path
       style="fill:#000000;stroke-width:0.408405"
       d="m 114.23433,376.29014 c -5.20369,-1.69013 -6.83258,-4.85668 -3.7889,-7.36556 0.83476,-0.68808 2.68977,-1.64107 4.12224,-2.11777 3.28665,-1.09372 4.81871,-2.44317 7.26801,-6.40174 1.96919,-3.18258 10.74541,-16.346 16.06569,-24.09684 1.58507,-2.3092 2.88194,-4.34755 2.88194,-4.52966 0,-0.18209 -0.96486,-0.85074 -2.14412,-1.48588 -41.442412,-22.32006 -69.081772,-63.39513 -74.8845,-111.28642 -0.80902,-6.67711 -0.920436,-23.87785 -0.203675,-31.44718 2.259613,-23.86291 10.439761,-46.60713 24.172653,-67.21015 15.459802,-23.193838 37.950012,-41.72192 63.246152,-52.103982 5.31959,-2.183283 5.76769,-2.510399 5.36176,-3.914314 -0.17985,-0.622 -1.24916,-2.917471 -2.37623,-5.101032 -2.90965,-5.637056 -3.96475,-9.663866 -3.93571,-15.020716 0.0191,-3.533219 0.20971,-4.815671 1.08222,-7.283744 1.36682,-3.866309 3.19235,-6.869742 6.13438,-10.092564 4.63771,-5.080348 9.47317,-8.286793 16.57456,-10.990741 8.87959,-3.381038 16.2375,-4.524166 26.93609,-4.18481 10.1585,0.322222 15.96171,1.624323 24.01374,5.388122 5.05953,2.364994 8.09517,4.505644 12.09286,8.527545 5.59791,5.631807 7.99575,10.736869 8.36099,17.800746 0.27309,5.28157 -0.53527,8.848717 -3.33598,14.721215 -3.14762,6.599893 -3.14866,6.583655 0.49558,7.785284 4.93071,1.625836 14.88679,6.027596 20.31815,8.983024 21.21857,11.545889 40.75187,30.183527 52.62306,50.210127 12.97871,21.89503 19.45092,42.1214 21.49769,67.18263 1.04162,12.75399 -0.14386,29.07057 -3.03961,41.83744 -6.63537,29.25376 -21.52383,55.34878 -42.92433,75.23352 -6.98722,6.49232 -16.83198,13.92832 -23.11716,17.46102 -1.27142,0.71461 -2.4053,1.5433 -2.51974,1.84153 -0.11438,0.29824 2.12149,3.82783 4.96873,7.84352 2.84725,4.0157 5.95965,8.40395 6.91645,9.7517 0.9568,1.34773 3.39098,4.86429 5.40927,7.81458 4.38963,6.41664 5.95429,7.92344 9.43222,9.08337 6.10726,2.03688 7.45014,4.43236 4.18163,7.45931 -2.24398,2.07815 -4.55757,2.9337 -8.46875,3.13163 -4.02208,0.20355 -7.39558,-0.37003 -9.70523,-1.65013 -2.06449,-1.14421 -2.55739,-2.24413 -2.2669,-5.05866 0.15939,-1.54438 0.0536,-2.77988 -0.31344,-3.65816 -0.51017,-1.22102 -4.22822,-5.82054 -10.04406,-12.42529 -9.61194,-10.91579 -12.45815,-13.98415 -13.4451,-14.49451 -1.05534,-0.54575 -1.59167,-0.42619 -8.2258,1.83364 -17.3927,5.92463 -28.72672,7.67444 -46.88272,7.23804 -11.84061,-0.2846 -18.86346,-1.26652 -30.07218,-4.20464 -2.93154,-0.76844 -6.88286,-1.96601 -8.78072,-2.66126 l -3.45066,-1.26409 -2.17979,2.38606 c -4.02939,4.41068 -19.75526,24.90386 -21.0876,27.48034 -0.51062,0.98743 -0.65899,1.96843 -0.51865,3.42914 0.24341,2.5331 -0.48494,3.39987 -4.01106,4.77333 -1.89933,0.73979 -3.39854,0.97062 -6.91733,1.06497 -2.47085,0.0662 -4.9531,-0.0292 -5.51612,-0.21199 z m 94.99963,-51.10712 c 31.42843,-2.48845 62.25647,-19.95724 82.14838,-46.5496 11.32261,-15.13656 19.49255,-33.20751 22.90867,-50.67128 2.00539,-10.25189 2.31153,-13.60459 2.29069,-25.08787 -0.0179,-9.89812 -0.13383,-11.76639 -1.13146,-18.25041 -1.75181,-11.38503 -4.99817,-23.0618 -8.90263,-32.02173 C 296.10519,128.639 278.65266,108.44207 257.50857,95.851722 226.97083,77.667871 191.93412,74.639432 159.56994,87.386286 127.82681,99.888532 101.73281,127.53866 90.282813,160.80545 c -3.501083,10.17199 -5.973757,22.45824 -6.712776,33.35439 -1.339007,19.74285 2.36345,40.83172 10.406096,59.27215 11.254617,25.80491 31.191877,47.2158 55.398767,59.49353 13.20592,6.69804 25.47685,10.50688 38.1708,11.84805 2.47085,0.26106 4.86002,0.52878 5.30926,0.59492 2.04209,0.30069 11.60678,0.19238 16.379,-0.18547 z m -8.61929,-5.50677 c -5.53497,-1.95594 -5.54366,-9.74644 -0.0139,-11.85854 4.19093,-1.60052 8.38554,1.43186 8.38554,6.06207 0,4.26884 -4.2901,7.23906 -8.37229,5.79647 z m -50.87786,-15.69031 c -0.88384,-0.88383 -1.19381,-1.58126 -1.19381,-2.68605 0,-1.72607 1.80752,-3.87984 3.25612,-3.87984 1.20816,0 3.17128,1.07882 3.67467,2.0194 1.27957,2.39091 -0.61976,5.74029 -3.25514,5.74029 -0.87908,0 -1.66708,-0.37903 -2.48184,-1.1938 z m 105.03648,-5.50221 c -2.32495,-1.28861 -2.72568,-4.16345 -0.84283,-6.04632 1.06586,-1.06584 1.45472,-1.21 2.71321,-1.00577 2.03608,0.33041 3.39393,1.70342 3.39393,3.43181 0,1.81324 -0.57137,2.81709 -2.03385,3.57338 -1.44,0.74466 -1.95801,0.75217 -3.23046,0.0469 z M 110.4695,264.51943 c -1.36832,-0.74257 -1.95019,-1.77252 -1.95019,-3.452 0,-1.75225 1.92122,-3.67109 3.67565,-3.67109 1.90618,0 3.67958,1.91279 3.66265,3.95054 -0.0258,3.0971 -2.6643,4.6507 -5.38811,3.17255 z m 179.47518,-6.98802 c -0.77111,-0.31025 -1.72713,-2.37753 -1.72713,-3.73474 0,-1.78225 1.75084,-3.3432 3.74989,-3.3432 2.22036,0 3.6014,1.4095 3.6014,3.67564 0,2.26545 -1.38848,3.68846 -3.55498,3.6434 -0.85255,-0.0177 -1.78368,-0.12626 -2.06918,-0.2411 z m -90.86012,-45.65479 c -3.58954,-1.37542 -6.20256,-4.54658 -6.69266,-8.12222 l -0.26215,-1.91258 -3.71375,-2.09351 c -2.04256,-1.15145 -9.96581,-5.53365 -17.60722,-9.73825 -7.6414,-4.2046 -15.79587,-8.69964 -18.12102,-9.98899 -2.32514,-1.28935 -4.3656,-2.18832 -4.53434,-1.99769 -0.16874,0.19062 -0.54533,1.26549 -0.83688,2.38861 -0.88578,3.41239 -0.88693,3.41244 -3.54484,0.14541 -2.62128,-3.22197 -10.33968,-13.61455 -10.33968,-13.92204 0,-0.33322 20.61438,0.17683 20.98257,0.51916 0.19849,0.18454 -0.30217,1.13876 -1.12311,2.14061 -0.81468,0.99422 -1.4789,2.06439 -1.47604,2.3782 0.003,0.32008 3.54388,2.47816 8.066,4.9159 16.7721,9.04135 30.30285,16.28336 32.68589,17.49434 l 2.47006,1.2552 2.51753,-1.27932 c 2.23852,-1.13753 2.81916,-1.26112 5.23906,-1.11511 2.05748,0.1241 3.13464,0.42852 4.41459,1.2475 l 1.69306,1.0833 7.51122,-4.98116 c 6.59154,-4.37124 15.39164,-10.12183 28.24694,-18.45851 2.07823,-1.34774 6.98571,-4.50944 10.90552,-7.026 3.91981,-2.51655 7.74245,-5.09219 8.49478,-5.7236 l 1.36786,-1.14805 -1.87837,-2.28164 c -1.0331,-1.25489 -1.87836,-2.38091 -1.87836,-2.50225 0,-0.12133 2.06754,-0.52162 4.59455,-0.88949 9.13747,-1.33019 15.99956,-2.24092 16.10326,-2.13722 0.15621,0.15621 -10.02877,16.70701 -10.70273,17.39213 -0.49674,0.50498 -0.74907,0.21321 -1.84987,-2.13914 -1.17786,-2.51705 -1.33987,-2.68897 -2.13361,-2.26418 -1.41691,0.75831 -17.02377,11.37971 -28.26968,19.23919 -1.57237,1.09889 -8.3722,5.80294 -15.11074,10.45348 l -12.2519,8.45549 -0.29947,2.39743 c -0.3106,2.4865 -0.89438,3.70841 -2.71483,5.68242 -2.37287,2.573 -6.86355,3.71582 -9.95164,2.53256 z M 91.873069,208.79835 c -2.812909,-1.71505 -3.80472,-5.58176 -2.199476,-8.5749 0.838873,-1.56418 3.62849,-3.27106 5.346045,-3.27106 0.590943,0 1.894464,0.41351 2.896694,0.91893 4.606918,2.32313 4.748468,8.93787 0.237063,11.07867 -1.913697,0.90811 -4.650585,0.84203 -6.280326,-0.15158 z M 303.94115,206.6699 c -4.91484,-1.71747 -5.75129,-8.2991 -1.42963,-11.24902 2.85374,-1.94793 7.59178,-0.74096 9.18489,2.33976 1.53619,2.97065 0.15359,7.12889 -2.85434,8.58504 -1.85156,0.89633 -3.03893,0.97488 -4.90092,0.32422 z M 103.99544,154.50968 c -3.43227,-3.43227 1.4275,-8.5916 5.08124,-5.39448 1.19802,1.04831 1.5678,2.44424 1.05725,3.99122 -0.92391,2.79949 -4.0318,3.50995 -6.13849,1.40326 z m 182.68749,-6.34335 c -3.0841,-1.37727 -2.43643,-5.8936 0.99414,-6.9323 1.14552,-0.34683 3.61435,0.68447 4.18325,1.74747 1.77601,3.31851 -1.65736,6.7568 -5.17739,5.18483 z M 139.7039,114.45801 c -2.2431,-0.9052 -2.8774,-4.05708 -1.20721,-5.99878 1.36202,-1.58346 4.0476,-1.56071 5.42961,0.046 2.59849,3.02092 -0.53628,7.44033 -4.2224,5.95279 z m 105.35687,-6.29038 c -0.90858,-0.78153 -1.13661,-1.32278 -1.13661,-2.69797 0,-2.17154 1.51682,-3.67565 3.70671,-3.67565 2.0408,0 2.91636,0.60567 3.40166,2.35314 0.59291,2.13486 0.56038,2.3284 -0.62876,3.74161 -1.36929,1.62731 -3.6377,1.74572 -5.343,0.27887 z M 197.10792,98.140662 c -2.79283,-0.85751 -4.86556,-3.516 -4.86556,-6.240567 0,-2.936889 2.53352,-5.700126 5.71982,-6.238449 3.37369,-0.569981 6.94073,2.683527 6.94073,6.330647 0,3.971749 -4.17045,7.261239 -7.79499,6.148369 z M 169.44843,62.400446 c 1.41784,-0.327301 5.70218,-1.166529 9.52076,-1.864936 3.81858,-0.698423 7.37174,-1.547623 7.89591,-1.887117 1.27136,-0.823438 2.11052,-2.949223 2.10773,-5.339361 -0.003,-1.955436 -0.52091,-4.351132 -1.15535,-5.336876 -0.18585,-0.288757 -2.11854,-0.883205 -4.29484,-1.320994 -4.79081,-0.963734 -6.11256,-1.600197 -6.80754,-3.278067 -0.6695,-1.616296 -0.20332,-3.059789 1.36529,-4.227537 1.12977,-0.841049 1.50866,-0.858538 18.60059,-0.858538 16.12164,0 17.53269,0.05588 18.57053,0.736071 1.58833,1.040881 2.03497,2.447081 1.32044,4.157196 -0.69304,1.658667 -2.03777,2.412566 -5.84998,3.279625 -4.18692,0.952295 -4.35207,1.139038 -4.53312,5.125961 -0.18591,4.093709 0.36367,6.198888 1.78763,6.8477 0.57148,0.260386 3.37737,0.746675 6.2353,1.080644 2.85792,0.333984 7.57921,1.055344 10.49172,1.603037 4.59699,0.86445 5.46486,0.925051 6.5794,0.459369 3.48158,-1.4547 6.70082,-9.303826 6.70082,-16.337913 0,-11.682341 -8.97635,-20.943641 -23.8917,-24.650066 -6.00809,-1.493011 -9.30977,-1.867359 -16.3362,-1.852263 -9.65417,0.02068 -16.01478,1.188432 -23.19826,4.258702 -5.32994,2.278059 -7.92778,3.943981 -11.10891,7.123845 -4.98925,4.987225 -7.24897,11.293082 -6.37477,17.788984 0.70628,5.248043 3.87415,12.229957 6.47856,14.278578 1.22612,0.964474 2.45206,1.00896 5.89599,0.213956 z"
       id="path5300" /></g><metadata
     id="metadata182"><rdf:RDF><cc:Work
         rdf:about=""><cc:license
           rdf:resource="http://creativecommons.org/licenses/by-sa/4.0/" /><dc:creator><cc:Agent><dc:title>Jameela P</dc:title></cc:Agent></dc:creator><dc:publisher><cc:Agent><dc:title>OpenDataKerala.org</dc:title></cc:Agent></dc:publisher><dc:date>April 2026</dc:date><dc:title>Election Symbols of Kerala</dc:title></cc:Work><cc:License
         rdf:about="http://creativecommons.org/licenses/by-sa/4.0/"><cc:permits
           rdf:resource="http://creativecommons.org/ns#Reproduction" /><cc:permits
           rdf:resource="http://creativecommons.org/ns#Distribution" /><cc:requires
           rdf:resource="http://creativecommons.org/ns#Notice" /><cc:requires
           rdf:resource="http://creativecommons.org/ns#Attribution" /><cc:permits
           rdf:resource="http://creativecommons.org/ns#DerivativeWorks" /><cc:requires
           rdf:resource="http://creativecommons.org/ns#ShareAlike" /></cc:License></rdf:RDF></metadata></svg>
