<?xml version="1.0" encoding="UTF-8" standalone="no"?>
<!-- Created with Inkscape (http://www.inkscape.org/) -->

<svg
   width="1500"
   height="1500"
   viewBox="0 0 396.87499 396.875"
   version="1.1"
   id="svg5"
   xml:space="preserve"
   inkscape:version="1.3 (0e150ed6c4, 2023-07-21)"
   sodipodi:docname="Coat.svg"
   inkscape:export-filename="Camera.png"
   inkscape:export-xdpi="96"
   inkscape:export-ydpi="96"
   xmlns:inkscape="http://www.inkscape.org/namespaces/inkscape"
   xmlns:sodipodi="http://sodipodi.sourceforge.net/DTD/sodipodi-0.dtd"
   xmlns="http://www.w3.org/2000/svg"
   xmlns:svg="http://www.w3.org/2000/svg"
   xmlns:rdf="http://www.w3.org/1999/02/22-rdf-syntax-ns#"
   xmlns:cc="http://creativecommons.org/ns#"
   xmlns:dc="http://purl.org/dc/elements/1.1/"><title
     id="title186">Election Symbols of Kerala</title><sodipodi:namedview
     id="namedview7"
     pagecolor="#ffffff"
     bordercolor="#000000"
     borderopacity="0.25"
     inkscape:showpageshadow="2"
     inkscape:pageopacity="0.0"
     inkscape:pagecheckerboard="0"
     inkscape:deskcolor="#d1d1d1"
     inkscape:document-units="mm"
     showgrid="false"
     inkscape:zoom="0.25"
     inkscape:cx="230"
     inkscape:cy="1082"
     inkscape:window-width="1920"
     inkscape:window-height="991"
     inkscape:window-x="-9"
     inkscape:window-y="-9"
     inkscape:window-maximized="1"
     inkscape:current-layer="layer1" /><defs
     id="defs2"><inkscape:path-effect
       effect="bspline"
       id="path-effect3248"
       is_visible="true"
       lpeversion="1"
       weight="33.333333"
       steps="2"
       helper_size="0"
       apply_no_weight="true"
       apply_with_weight="true"
       only_selected="false" /><inkscape:path-effect
       effect="bspline"
       id="path-effect577"
       is_visible="true"
       lpeversion="1"
       weight="33.333333"
       steps="2"
       helper_size="0"
       apply_no_weight="true"
       apply_with_weight="true"
       only_selected="false" /></defs><g
     inkscape:label="Layer 1"
     inkscape:groupmode="layer"
     id="layer1"><path
       style="fill:#000000;stroke-width:1.6276"
       d="m 179.61939,326.13563 c -24.15338,-1.95016 -44.2549,-6.87398 -72.48011,-17.75378 -2.87722,-1.10907 -5.0416,-2.74572 -5.97702,-4.51971 -0.9742,-1.84753 -0.89308,-5.20666 0.4597,-19.03342 0.60249,-6.1581 1.48957,-16.71948 1.97129,-23.46971 0.48171,-6.75025 1.06902,-14.98617 1.30514,-18.30207 1.27965,-17.97102 2.58015,-50.34563 2.586,-64.37584 l 0.003,-7.96237 -3.06822,5.59388 c -17.323275,31.58331 -44.527251,75.70177 -49.083284,79.60156 -2.627884,2.24936 -4.237139,2.57799 -8.620144,1.76028 C 32.494295,255.0212 17.846336,248.26288 8.0579185,239.83825 4.947355,237.16107 3.704178,235.18614 3.704178,232.92183 c 0,-1.79504 0.416776,-2.62187 14.752907,-29.26818 4.141405,-7.69763 11.89571,-22.23163 17.231742,-32.29778 11.878235,-22.40763 14.32399,-27.00596 22.790184,-42.84838 10.757824,-20.13061 13.024977,-24.5998 16.056529,-31.651806 4.257865,-9.904656 4.11454,-9.700424 11.634464,-16.579527 9.238538,-8.45127 15.529846,-13.253924 20.887006,-15.944712 5.65843,-2.842123 19.75392,-7.209685 26.44246,-8.193328 1.16132,-0.170784 3.00229,-0.862321 4.09106,-1.536751 2.57902,-1.597575 11.54306,-5.215138 15.11399,-6.099464 6.1837,-1.53138 13.39488,-1.802653 47.37008,-1.782015 34.55142,0.021 41.82083,0.305745 47.9301,1.877425 3.94072,1.013802 11.84236,4.270183 14.59035,6.012908 1.14718,0.727523 3.07985,1.421517 4.78631,1.718669 4.67539,0.814192 14.43363,3.452474 18.82062,5.088444 9.71068,3.621241 15.20928,7.322723 27.23825,18.335924 8.31008,7.608334 7.71394,6.750538 13.21973,19.021714 2.82746,6.301779 4.8341,10.221889 14.4481,28.225299 1.96045,3.67117 7.2916,13.74808 11.84701,22.39312 4.5554,8.64503 9.78297,18.52816 11.61683,21.96248 1.83384,3.43435 5.23175,9.8293 7.55091,14.21102 2.31914,4.38174 8.0391,15.04001 12.71099,23.68505 11.1571,20.64553 11.61125,21.57232 11.61125,23.69566 0,2.41945 -0.82144,3.79648 -3.96906,6.65367 -7.69444,6.98445 -19.74804,13.07947 -32.77328,16.57211 -9.86641,2.64561 -11.4758,2.56519 -15.02069,-0.75065 -3.25952,-3.0489 -13.67958,-18.93571 -26.04634,-39.71124 -7.6286,-12.81567 -17.86828,-30.3924 -20.82273,-35.74287 -1.50403,-2.72378 -3.22993,-5.84436 -3.83535,-6.93461 l -1.10075,-1.98229 0.10205,12.10225 c 0.15837,18.77175 1.22522,43.73728 2.9278,68.5157 0.71337,10.3818 0.92813,12.82124 2.80764,31.89074 1.50167,15.23588 1.60376,18.1083 0.70464,19.82562 -1.66211,3.1746 -2.93902,3.88026 -14.66963,8.10699 -26.1366,9.41741 -43.57537,13.1799 -69.04409,14.89655 -9.74185,0.65661 -11.30833,0.12597 -12.40745,-4.20284 l -0.51945,-2.04578 h -2.51724 -2.51722 l -0.55116,1.90365 c -1.39347,4.81292 -3.25765,5.2469 -17.57347,4.09103 z m 13.53076,-6.7912 c 0.66979,-3.71391 2.0334,-15.47226 2.82916,-24.39574 0.36963,-4.14489 0.88365,-9.6678 1.14226,-12.27316 0.25859,-2.60535 0.56634,-11.92407 0.68385,-20.70827 l 0.21366,-15.97127 -2.9051,-3.62271 c -1.59778,-1.9925 -3.20101,-4.07197 -3.56269,-4.62106 -0.44888,-0.68145 -0.94335,-0.9322 -1.55775,-0.78994 -1.43949,0.33331 -8.07739,-1.54362 -8.61384,-2.43565 -0.59723,-0.99306 0.63717,-2.02029 2.42772,-2.02029 h 1.22427 l -2.29356,-3.36791 c -2.68548,-3.94341 -6.65772,-11.78687 -7.0372,-13.89541 -0.18634,-1.03538 0.25658,-0.41331 1.4995,2.10602 3.53504,7.16532 8.80873,15.41291 10.06549,15.74157 0.51072,0.13347 0.9909,0.18054 1.06706,0.10433 0.0762,-0.0762 -1.35184,-2.53924 -3.17329,-5.47353 -1.82145,-2.93431 -4.21863,-6.88539 -5.32708,-8.7802 -1.10844,-1.8948 -2.61016,-4.41403 -3.33715,-5.59827 -3.33408,-5.43112 -18.36677,-35.12291 -22.29747,-44.04081 -5.83967,-13.24893 -7.70099,-17.71224 -12.3432,-29.59812 -5.43685,-13.92043 -5.62853,-14.73529 -3.70801,-15.76312 0.48774,-0.26103 4.15798,-1.60076 8.15609,-2.97718 l 7.2693,-2.50259 -1.83336,-0.6804 c -1.00835,-0.37422 -4.56012,-1.54985 -7.89283,-2.61252 -4.77624,-1.52295 -6.16254,-2.13903 -6.54624,-2.90918 -0.72369,-1.45254 -2.25127,-32.20145 -2.25127,-45.316002 0,-6.247983 -0.002,-6.26089 -0.99155,-6.26089 -1.58282,0 -12.64141,2.828532 -16.87989,4.317481 -10.30052,3.618523 -15.83437,7.28768 -27.760018,18.405976 l -3.644355,3.39764 2.648262,7.502361 c 1.456545,4.126303 3.147789,8.858884 3.758321,10.516834 0.724484,1.9674 0.874289,2.7153 0.431286,2.15319 -0.889888,-1.12917 -5.55406,-10.713806 -7.28544,-14.971212 l -1.359924,-3.344027 -0.893921,0.97552 c -1.164173,1.270427 -2.282045,3.530746 -4.452315,9.002492 -1.952089,4.921667 -5.775561,12.419227 -17.208596,33.744797 -8.55045,15.94881 -11.649722,21.78125 -25.629404,48.23135 -5.382856,10.18456 -10.130267,19.09875 -10.549803,19.8093 -2.032139,3.44175 -15.8871716,29.4315 -16.6072579,31.15248 -0.7502557,1.79306 -0.4709116,2.357 2.4831239,5.01294 6.597325,5.93156 20.085673,12.70456 30.855609,15.49372 l 2.730855,0.70724 2.272305,-1.75308 c 3.882502,-2.99533 7.560136,-8.21909 19.26121,-27.3589 2.344344,-3.83472 12.56755,-21.04901 15.216903,-25.62291 0.754554,-1.30268 5.57074,-9.60622 10.702633,-18.45231 5.131895,-8.8461 10.476666,-18.27352 11.877276,-20.94982 1.40061,-2.67631 2.62729,-4.78529 2.72595,-4.68663 0.0987,0.0986 0.71527,-0.59389 1.37024,-1.53901 l 1.19085,-1.71839 -0.70122,-6.14852 c -0.38567,-3.38169 -0.80853,-6.92368 -0.9397,-7.87108 -0.58525,-4.22718 1.35764,1.67528 4.32341,13.13442 0.76625,2.96063 2.10584,7.39905 2.97688,9.86316 2.2713,6.42539 3.20372,10.28481 3.68739,15.26256 0.62167,6.3981 1.03702,13.88109 0.75616,13.62333 -0.134,-0.12305 -0.5398,-2.06084 -0.90179,-4.30636 -0.92942,-5.76555 -5.05755,-21.69539 -5.83516,-22.51703 -0.18088,-0.19113 -0.361,3.20013 -0.40026,7.53615 -0.28304,31.25624 -2.41575,71.84862 -5.92577,112.78637 -0.86509,10.0896 -1.44838,18.84081 -1.2962,19.44712 0.18953,0.75518 0.89467,1.40157 2.23866,2.05219 1.07909,0.52237 2.05099,0.86077 2.15978,0.75198 0.10879,-0.10872 -0.0203,-1.72972 -0.28688,-3.60205 -0.55391,-3.89058 -0.33934,-12.13978 0.92865,-35.70202 1.15865,-21.53036 2.03635,-40.77906 2.55269,-55.98282 0.76544,-22.53879 0.99396,-26.9411 1.41192,-27.19942 1.11234,-0.68747 -0.95623,60.07149 -3.13986,92.22561 -0.22519,3.31591 -0.53807,10.59343 -0.69529,16.1723 -0.25484,9.04239 -0.20248,10.40849 0.48235,12.58575 l 0.76822,2.44235 4.35835,1.67767 c 10.72435,4.12814 26.23047,8.72194 37.08675,10.98724 10.40952,2.17205 28.45865,4.36499 33.57214,4.07895 2.54958,-0.14257 2.5683,-0.15332 2.87541,-1.65079 1.19028,-5.80372 3.20799,-23.4072 4.6645,-40.69519 1.30941,-15.54222 1.73685,-18.07344 1.49076,-8.82806 -0.3801,14.27923 -3.11175,41.44864 -4.91421,48.8773 -0.61468,2.53333 -0.56989,2.66925 0.81274,2.46632 1.16048,-0.17032 1.28591,-0.37576 1.72891,-2.83221 z m -34.63197,-43.37059 c -8.36061,-1.14038 -15.48192,-2.70433 -23.44028,-5.14787 -10.58189,-3.24906 -12.54669,-4.63359 -12.8674,-9.06724 -0.19851,-2.74438 0.49947,-8.39119 1.28766,-10.41751 0.66985,-1.72207 2.08967,-1.89048 6.57494,-0.77985 11.65322,2.88553 22.47653,5.1082 35.72611,7.33672 8.35479,1.40524 9.29855,1.81792 9.29842,4.06595 -6e-5,1.11816 -0.75936,5.47114 -1.59492,9.14351 -0.11518,0.50626 -0.78286,1.61614 -1.48371,2.4664 -2.13482,2.58991 -6.46479,3.3596 -13.50082,2.39989 z m 10.04828,-4.11991 c 0.5527,-0.36151 1.25461,-1.272 1.55981,-2.02334 0.60599,-1.49184 1.72894,-7.12218 1.4711,-7.37591 -0.088,-0.0866 -4.41664,-0.85879 -9.6191,-1.71587 -9.97349,-1.64312 -19.3068,-3.55897 -29.29608,-6.01364 -3.31468,-0.81452 -6.06489,-1.44274 -6.11159,-1.39605 -0.21741,0.2174 -0.99,5.83406 -0.99289,7.2182 -0.004,2.00461 1.31597,3.68387 3.69922,4.70544 4.92953,2.11305 21.34783,6.13175 29.67189,7.26281 3.77255,0.5126 8.29834,0.20125 9.61764,-0.66164 z m 26.62461,-17.187 c -0.15788,-2.83274 -0.57035,-6.41006 -0.91644,-7.94959 -0.80806,-3.59435 -0.84514,-4.66421 -0.13705,-3.9562 0.99922,0.99922 2.02557,6.63898 2.01306,11.06172 -0.0181,6.38726 -0.62089,6.91753 -0.95951,0.84407 z m 14.59743,66.67452 c -1.01678,-2.6497 -3.23653,-21.73664 -4.32142,-37.15869 -1.71566,-24.38843 -1.92352,-35.23363 -0.7167,-37.39464 0.30893,-0.5532 0.63862,-0.92889 0.73266,-0.83486 0.0941,0.0941 -0.0286,2.87209 -0.2727,6.17347 -0.24401,3.30137 -0.3258,8.42482 -0.18176,11.38545 0.67562,13.88635 4.15603,47.08321 5.88059,56.09047 l 0.4741,2.47617 2.42014,-3.7e-4 c 8.77701,-10e-4 29.39463,-3.01439 41.60809,-6.08066 9.35876,-2.34958 25.50778,-7.4744 31.26031,-9.92032 3.68131,-1.56525 4.28528,-4.73171 3.44883,-18.08151 -0.2724,-4.34733 -0.58667,-9.35765 -0.69841,-11.13402 -2.07819,-33.04003 -4.12375,-96.13331 -3.14839,-97.10867 0.12695,-0.12695 0.3619,3.79372 0.52207,8.71265 0.84538,25.96263 2.40744,60.55175 3.92398,86.88879 0.73414,12.7497 0.81583,21.98575 0.23027,26.03741 -0.22121,1.53066 -0.32043,2.86481 -0.22048,2.96476 0.30987,0.30987 2.95775,-0.88944 3.97745,-1.80148 1.177,-1.05277 1.21359,-2.18128 0.33937,-10.46751 -2.44901,-23.21259 -4.62774,-54.10499 -5.82696,-82.62064 -0.40709,-9.68047 -1.27683,-40.38851 -1.28979,-45.53986 -0.005,-2.12272 -0.59854,-2.76722 -0.99089,-1.0766 -0.12369,0.53291 -1.39314,5.52292 -2.82104,11.0889 -1.4279,5.56599 -2.73078,11.13736 -2.89528,12.38082 -0.1645,1.24347 -0.44948,2.26085 -0.63327,2.26085 -0.34552,0 -0.30055,-0.70369 0.44035,-6.8902 0.24111,-2.01322 0.54193,-4.82313 0.66847,-6.24422 0.40021,-4.49427 1.93436,-10.98182 3.91683,-16.56332 1.05474,-2.96955 2.49488,-7.82152 3.2003,-10.78215 1.99169,-8.35911 4.79547,-16.41971 3.79386,-10.90698 -0.20775,1.14341 -0.63299,4.57373 -0.94499,7.62294 -0.56471,5.5191 -0.56286,5.55004 0.41475,6.89018 0.5401,0.74041 1.69412,2.7027 2.56448,4.36066 1.92704,3.67076 5.30106,9.61068 12.23067,21.53184 2.89124,4.97386 7.88454,13.59506 11.09624,19.15821 8.87565,15.37404 19.72331,33.27936 25.703,42.42582 4.02438,6.15563 8.24468,11.13099 10.76089,12.68608 l 1.40501,0.86836 3.61581,-1.07542 c 12.96437,-3.85593 23.77635,-9.46857 30.54357,-15.85557 1.17712,-1.111 2.13889,-2.35672 2.13723,-2.76828 -0.003,-0.73701 -5.51744,-11.37886 -13.33054,-25.72525 -4.72409,-8.67438 -11.48926,-21.36419 -22.84318,-42.84837 -4.56872,-8.64504 -12.02553,-22.69457 -16.57071,-31.22118 -12.70137,-23.82743 -14.74048,-27.83656 -17.43394,-34.277091 -2.37394,-5.676514 -5.04104,-10.576433 -5.5046,-10.112875 -0.11752,0.117513 -0.85347,1.776611 -1.6354,3.686817 -1.42212,3.474203 -6.82408,14.052979 -7.59061,14.864929 -0.2236,0.23685 0.20703,-1.21656 0.95695,-3.22977 2.94381,-7.902851 6.00973,-16.595821 6.00973,-17.039734 0,-0.522005 -5.19185,-5.611768 -9.47401,-9.287712 -8.02331,-6.887469 -13.9251,-10.259458 -23.25439,-13.28646 -5.15717,-1.673292 -13.83487,-3.880437 -15.2565,-3.880437 -0.57547,0 -0.67725,0.726953 -0.67826,4.844662 -10e-4,5.276791 -0.51215,16.968752 -1.51919,34.768231 -0.55149,9.74787 -0.7552,11.51607 -1.40118,12.16205 -0.41574,0.41574 -4.0899,1.88288 -8.16478,3.2603 -4.07489,1.37741 -7.50956,2.60506 -7.63259,2.72811 -0.12305,0.12305 3.24375,1.33472 7.48177,2.69259 4.23802,1.35788 8.01564,2.81161 8.39473,3.23049 0.37909,0.41888 0.68924,1.21152 0.68924,1.76141 0,2.46999 -11.70579,31.32186 -19.93646,49.13837 -7.57795,16.40365 -22.81022,44.59133 -29.94517,55.41422 -0.8221,1.24703 -1.36584,2.39624 -1.2083,2.55377 0.15755,0.15755 1.95415,0.0633 3.99246,-0.20942 3.78547,-0.5065 5.57582,-0.1944 5.20837,0.90791 -0.3508,1.05242 -9.72104,3.63737 -11.16986,3.08141 -0.42213,-0.16195 -1.76938,1.21979 -4.13603,4.24211 l -3.50996,4.48234 -0.2682,7.27085 c -0.41537,11.261 0.50936,28.89406 2.39129,45.59751 1.02502,9.09778 2.65293,22.02014 2.86169,22.7161 0.13818,0.46057 0.65133,0.75363 1.31969,0.75363 0.85547,0 1.03202,-0.16064 0.8107,-0.73737 z m 23.66051,-45.16672 c -4.25957,-1.05076 -5.69939,-2.3582 -6.87602,-6.24378 -1.04422,-3.44839 -1.38234,-9.51641 -0.56792,-10.19232 0.35053,-0.29092 6.13957,-1.50602 12.8645,-2.70024 12.35453,-2.19392 22.31753,-4.25546 30.10136,-6.22857 7.40509,-1.87708 7.6809,-1.71826 8.81964,5.07853 1.13587,6.77977 0.23688,9.75168 -3.52318,11.64693 -7.88576,3.97479 -35.78774,9.8804 -40.81838,8.63945 z m 13.4251,-4.71868 c 9.82416,-1.81224 24.1758,-5.78747 26.01055,-7.20463 0.37307,-0.28815 1.01822,-1.04624 1.43366,-1.68461 0.68483,-1.05235 0.707,-1.54486 0.23745,-5.27531 -0.28484,-2.26303 -0.64059,-4.11461 -0.79056,-4.11461 -0.1499,0 -0.94962,0.19914 -1.77703,0.44252 -6.89864,2.02923 -23.3697,5.35277 -41.70738,8.41572 l -1.44567,0.24147 0.29027,2.448 c 0.63735,5.3751 1.60172,7.21232 4.11867,7.84642 2.0663,0.52057 6.91297,0.12419 13.63004,-1.11497 z M 52.262848,252.94242 c 0.522274,-0.36582 1.580066,-1.57698 2.350648,-2.69149 1.855767,-2.684 12.266897,-18.78833 13.872357,-21.45827 0.694488,-1.15496 2.802366,-4.61915 4.684172,-7.69821 13.973461,-22.86369 31.187985,-53.2322 33.809025,-59.64322 1.59993,-3.91339 2.83646,-8.15102 2.48191,-8.50558 -0.40754,-0.40754 -1.15641,0.80736 -6.30468,10.22813 -2.6534,4.85543 -7.823117,13.96339 -11.488264,20.23994 -3.665149,6.27653 -7.841713,13.44663 -9.281258,15.93356 -12.434003,21.48075 -24.271715,40.65595 -28.630757,46.37724 -2.710129,3.55706 -6.171203,7.00146 -7.086148,7.05202 -0.301354,0.0166 -0.160352,0.19681 0.313356,0.40035 1.409027,0.60549 4.261282,0.47881 5.279639,-0.23447 z m 301.451012,0.0225 c 0.17242,-0.18512 0.0316,-0.43632 -0.31306,-0.55825 -2.37645,-0.84075 -8.70952,-8.66287 -14.19569,-17.53343 -1.75727,-2.84134 -4.87861,-7.87907 -6.93632,-11.19497 -8.62341,-13.89625 -27.83186,-47.08901 -37.38103,-64.59555 -4.02077,-7.37129 -3.89269,-7.19294 -3.92339,-5.46288 -0.0714,4.02676 8.34857,20.92035 20.85949,41.8517 0.77861,1.30267 5.63047,9.44172 10.7819,18.08675 13.2341,22.20925 23.34883,37.69446 25.7628,39.44172 0.94736,0.68571 4.69683,0.6611 5.3453,-0.0352 z M 215.8712,219.80254 c 7.31976,-12.2484 17.53872,-31.67829 24.54354,-46.666 7.14422,-15.28594 19.36914,-45.21262 18.93322,-46.34861 -0.10254,-0.26715 -1.03016,-0.73556 -2.06143,-1.0409 -1.03126,-0.30534 -5.1492,-1.7209 -9.15097,-3.14567 -5.80378,-2.06636 -7.34441,-2.47155 -7.61433,-2.00261 -0.80701,1.40215 -1.63986,2.28809 -1.9033,2.02466 -0.15642,-0.15641 0.0454,-1.33083 0.44852,-2.6097 l 0.73296,-2.32524 -2.24369,-5.35642 c -1.23402,-2.94601 -2.38761,-5.50748 -2.56354,-5.69215 -0.17591,-0.18465 -0.65228,1.17186 -1.05858,3.01447 -3.71126,16.83122 -12.13981,53.85824 -16.20186,71.17553 -1.9167,8.17134 -4.23852,18.15133 -5.1596,22.1778 -0.92108,4.02645 -3.06807,13.03753 -4.77108,20.02461 -1.70301,6.9871 -3.18276,13.18827 -3.28835,13.78039 -0.23663,1.32705 5.82444,-7.74984 11.35849,-17.01016 z m -20.9852,12.59613 c -1.49106,-5.8251 -6.87526,-28.12121 -8.6054,-35.63521 -0.68171,-2.96063 -1.93066,-8.28976 -2.77545,-11.84251 -1.32899,-5.5891 -3.88189,-16.83238 -13.347,-58.78195 -1.04209,-4.61858 -2.42084,-10.86821 -3.06388,-13.88805 -0.64305,-3.01984 -1.30332,-5.49061 -1.46728,-5.49061 -0.29037,0 -2.44814,4.45046 -4.29961,8.86808 l -0.91921,2.19323 0.84389,2.22093 c 0.54001,1.42121 0.68636,2.31828 0.40643,2.4913 -0.2406,0.14876 -0.56113,0.0892 -0.71229,-0.13216 -0.15116,-0.22134 -0.59516,-0.8438 -0.98667,-1.38326 l -0.71184,-0.98081 -8.54685,3.01784 c -4.70077,1.65982 -8.87502,3.14601 -9.2761,3.30267 -0.66078,0.25809 -0.608,0.61498 0.56211,3.80086 12.61047,34.33517 32.75727,75.41264 49.39824,100.71849 2.29234,3.48592 4.29683,6.34429 4.45445,6.35191 0.15755,0.008 -0.27149,-2.16626 -0.95354,-4.83083 z m 6.2078,-11.73487 c 0.15641,-3.55275 0.69011,-10.04459 1.18584,-14.42633 1.11865,-9.88765 4.89605,-32.25445 5.55599,-32.8982 0.36245,-0.35355 0.42328,-0.088 0.23625,1.03107 -3.81153,22.80691 -6.20314,42.8171 -5.76462,48.23134 l 0.1569,1.93786 0.31623,-2.15318 c 0.17394,-1.18426 0.62212,-4.28484 0.99596,-6.8902 1.77603,-12.37726 8.68516,-46.17894 10.10808,-49.45194 0.57856,-1.33081 0.3973,-0.31957 -2.38015,13.27845 -1.30618,6.39496 -2.68201,13.14961 -3.0574,15.01035 -0.75617,3.74825 -4.00303,22.4502 -4.30965,24.82356 -0.4509,3.49017 0.71808,-1.1257 4.79863,-18.94802 0.84054,-3.67119 2.26616,-9.77547 3.16803,-13.56507 0.90188,-3.7896 2.24867,-9.60321 2.99288,-12.91911 0.7442,-3.3159 2.78989,-12.32699 4.54596,-20.02461 4.63278,-20.30754 7.50658,-33.06291 11.44871,-50.81516 1.91976,-8.64504 4.07391,-18.33438 4.78702,-21.531858 0.7131,-3.197477 1.37228,-6.491846 1.46484,-7.320834 0.0926,-0.828971 0.77004,-3.802539 1.50549,-6.607927 0.73543,-2.805372 1.24288,-5.194971 1.12767,-5.31019 -0.72234,-0.72233 -2.269,1.358285 -4.542,6.109995 -1.41478,2.957617 -2.77942,5.377491 -3.03253,5.377491 -0.67733,0 -0.66301,-0.04199 1.9083,-5.598276 1.30268,-2.814909 2.3685,-5.30197 2.3685,-5.526791 0,-0.675146 -1.51105,-0.855062 -11.41188,-1.358757 -5.21071,-0.265087 -9.76468,-0.545898 -10.11997,-0.623991 -0.35527,-0.07813 3.83522,-0.164501 9.31222,-0.191975 7.85028,-0.03939 10.34571,0.08675 11.789,0.595996 2.31094,0.815348 2.78954,0.809359 3.64452,-0.04557 1.22835,-1.228353 0.008,-1.987517 -4.15212,-2.582341 -6.44193,-0.921159 -11.12464,-1.11862 -31.45091,-1.326205 -23.88641,-0.243961 -34.45077,0.124349 -40.59773,1.415365 -3.37568,0.708968 -3.92769,1.059082 -3.44807,2.186882 0.18304,0.430404 0.39318,1.60179 0.46699,2.60306 0.0738,1.00127 0.62282,3.908074 1.22003,6.459555 0.59722,2.551481 2.85036,12.681203 5.00699,22.510485 2.15662,9.829296 5.18051,23.491246 6.71975,30.359916 1.53924,6.86865 3.27751,14.71701 3.86281,17.44079 0.5853,2.72378 1.32608,5.92125 1.64618,7.10551 0.63959,2.36628 1.09104,4.3447 3.68493,16.14888 0.96286,4.38174 2.50731,11.16426 3.43211,15.0723 0.92479,3.90803 2.47986,10.59367 3.4557,14.85697 0.97583,4.26332 2.42278,10.27069 3.21544,13.34974 0.79264,3.07906 1.87435,7.72994 2.40379,10.33529 0.52943,2.60536 1.14017,5.02769 1.3572,5.38298 0.92384,1.51229 -1.18752,-13.70375 -2.8981,-20.88591 -1.72199,-7.23001 -8.33879,-38.8341 -8.64868,-41.30901 -0.17525,-1.39967 -0.12513,-2.0305 0.13946,-1.75468 0.22719,0.23684 1.51943,5.75976 2.87164,12.27316 2.59863,12.5172 3.68382,17.44408 6.07054,27.56076 1.28283,5.43765 2.97282,14.82407 3.91546,21.74717 0.58928,4.32785 0.99971,3.30752 0.77953,-1.93787 -0.26537,-6.32151 -1.53786,-15.46246 -4.22635,-30.3599 -2.0635,-11.43425 -2.72491,-16.38106 -2.04401,-15.28762 0.22122,0.35527 0.60535,1.80868 0.85359,3.22979 0.24825,1.42109 1.5147,8.39741 2.81433,15.50291 3.22357,17.62434 3.45226,19.48075 3.55439,28.85269 0.10091,9.26763 0.10726,9.35834 0.57171,8.1821 0.18703,-0.4737 0.46807,-3.76807 0.62453,-7.32084 z m 14.94842,-65.27624 c -0.0459,-0.91839 2.35889,-12.68749 5.53637,-27.09538 1.43644,-6.51338 3.48533,-15.82875 4.5531,-20.70079 2.01296,-9.184811 4.62732,-18.922979 5.40949,-20.149753 0.70043,-1.098552 0.18576,1.535921 -2.59627,13.289783 -1.37347,5.80283 -3.41297,14.81391 -4.53223,20.02461 -1.79668,8.36447 -7.74285,33.73921 -8.17396,34.88159 -0.0893,0.23685 -0.17781,0.12435 -0.1965,-0.25006 z m -36.61784,-11.91543 c -0.24795,-0.88819 -2.78931,-13.24208 -5.64748,-27.4531 -2.85816,-14.21102 -5.76498,-28.443653 -6.45961,-31.628061 -0.69463,-3.184408 -1.2539,-5.99432 -1.24282,-6.244239 0.0301,-0.679525 1.43006,3.053972 2.2673,6.046697 1.14773,4.102523 7.00031,33.522583 9.37186,47.110923 1.17833,6.7515 2.24757,12.61457 2.37609,13.02906 0.12851,0.41448 0.13283,0.75361 0.01,0.75361 -0.12326,0 -0.42696,-0.72669 -0.67491,-1.61489 z m 48.22821,-56.327303 c 0.0409,-0.974952 6.35334,-13.174742 6.60564,-12.766522 0.15364,0.24873 -1.10469,3.130892 -2.79644,6.404818 -2.99718,5.800196 -3.84509,7.216261 -3.8092,6.361704 z M 167.38316,74.785532 c -0.20482,-0.532911 -1.1873,-2.809897 -2.1833,-5.059978 -0.996,-2.250082 -2.17268,-4.993995 -2.61484,-6.097592 -1.26802,-3.164893 -1.32096,-3.150456 11.82432,-3.223861 6.18144,-0.0345 10.8514,7.97e-4 10.3777,0.07845 -0.4737,0.07764 -5.5606,0.382601 -11.30422,0.677572 -6.98167,0.358577 -10.44295,0.693311 -10.44295,1.009961 0,0.260498 0.25815,0.855876 0.57365,1.323063 1.34042,1.984815 4.96335,12.261314 4.32267,12.261314 -0.0994,0 -0.34821,-0.436019 -0.55303,-0.968946 z m -6.31371,37.343888 c 1.00214,-2.36088 2.32829,-5.28047 2.94699,-6.48801 l 1.12492,-2.19552 -4.9316,-22.135472 c -5.25963,-23.607799 -5.75493,-26.391523 -4.96,-27.876859 0.42924,-0.802034 0.3868,-0.933479 -0.30141,-0.933479 -1.89734,0 -11.56194,3.812272 -14.72231,5.807325 l -1.84663,1.165739 0.23891,12.339373 c 0.27452,14.177882 1.095,33.825853 1.53132,36.670363 l 0.29725,1.93786 9.03565,3.04819 c 4.9696,1.67652 9.19971,3.02678 9.40023,3.00059 0.20053,-0.0262 1.18453,-1.97921 2.18668,-4.3401 z m 90.07808,1.11225 9.0858,-3.06437 0.26105,-6.12251 c 0.14355,-3.36738 0.56909,-12.905047 0.94557,-21.194811 0.3765,-8.289763 0.62751,-17.010158 0.55781,-19.378664 l -0.12679,-4.306365 -4.09105,-2.020622 c -4.10812,-2.029069 -12.30384,-4.982422 -12.70717,-4.579086 -0.11866,0.118653 -0.005,0.819206 0.25162,1.556706 0.56306,1.615153 0.85466,0.08122 -5.24222,27.577722 l -4.7102,21.24281 2.90911,6.85796 c 1.60002,3.77187 3.10521,6.77643 3.34488,6.67677 0.23966,-0.0996 4.52434,-1.56014 9.52153,-3.24554 z"
       id="path10" /></g><metadata
     id="metadata182"><rdf:RDF><cc:Work
         rdf:about=""><cc:license
           rdf:resource="http://creativecommons.org/licenses/by-sa/4.0/" /><dc:publisher><cc:Agent><dc:title>OpenDataKerala.org</dc:title></cc:Agent></dc:publisher><dc:date>April 2026</dc:date><dc:title>Election Symbols of Kerala</dc:title><dc:creator><cc:Agent><dc:title>Manoj Karingamadathil</dc:title></cc:Agent></dc:creator></cc:Work><cc:License
         rdf:about="http://creativecommons.org/licenses/by-sa/4.0/"><cc:permits
           rdf:resource="http://creativecommons.org/ns#Reproduction" /><cc:permits
           rdf:resource="http://creativecommons.org/ns#Distribution" /><cc:requires
           rdf:resource="http://creativecommons.org/ns#Notice" /><cc:requires
           rdf:resource="http://creativecommons.org/ns#Attribution" /><cc:permits
           rdf:resource="http://creativecommons.org/ns#DerivativeWorks" /><cc:requires
           rdf:resource="http://creativecommons.org/ns#ShareAlike" /></cc:License></rdf:RDF></metadata></svg>
