<?xml version="1.0" encoding="UTF-8" standalone="no"?>
<!-- Created with Inkscape (http://www.inkscape.org/) -->

<svg
   width="1500"
   height="1500"
   viewBox="0 0 396.87499 396.875"
   version="1.1"
   id="svg5"
   xml:space="preserve"
   inkscape:version="1.3 (0e150ed6c4, 2023-07-21)"
   sodipodi:docname="Diamond.svg"
   inkscape:export-filename="Dish Antenna.png"
   inkscape:export-xdpi="96"
   inkscape:export-ydpi="96"
   xmlns:inkscape="http://www.inkscape.org/namespaces/inkscape"
   xmlns:sodipodi="http://sodipodi.sourceforge.net/DTD/sodipodi-0.dtd"
   xmlns="http://www.w3.org/2000/svg"
   xmlns:svg="http://www.w3.org/2000/svg"
   xmlns:rdf="http://www.w3.org/1999/02/22-rdf-syntax-ns#"
   xmlns:cc="http://creativecommons.org/ns#"
   xmlns:dc="http://purl.org/dc/elements/1.1/"><title
     id="title186">Election Symbols of Kerala</title><sodipodi:namedview
     id="namedview7"
     pagecolor="#ffffff"
     bordercolor="#000000"
     borderopacity="0.25"
     inkscape:showpageshadow="2"
     inkscape:pageopacity="0.0"
     inkscape:pagecheckerboard="0"
     inkscape:deskcolor="#d1d1d1"
     inkscape:document-units="mm"
     showgrid="false"
     inkscape:zoom="0.25"
     inkscape:cx="230"
     inkscape:cy="1082"
     inkscape:window-width="1920"
     inkscape:window-height="991"
     inkscape:window-x="-9"
     inkscape:window-y="-9"
     inkscape:window-maximized="1"
     inkscape:current-layer="layer1" /><defs
     id="defs2"><inkscape:path-effect
       effect="bspline"
       id="path-effect3248"
       is_visible="true"
       lpeversion="1"
       weight="33.333333"
       steps="2"
       helper_size="0"
       apply_no_weight="true"
       apply_with_weight="true"
       only_selected="false" /><inkscape:path-effect
       effect="bspline"
       id="path-effect577"
       is_visible="true"
       lpeversion="1"
       weight="33.333333"
       steps="2"
       helper_size="0"
       apply_no_weight="true"
       apply_with_weight="true"
       only_selected="false" /></defs><g
     inkscape:label="Layer 1"
     inkscape:groupmode="layer"
     id="layer1"><path
       style="fill:#000000;stroke-width:1.4227"
       d="m 194.36935,327.86972 c -1.40278,-1.20844 -4.51299,-3.96103 -6.91157,-6.11688 -2.39859,-2.15584 -6.36624,-5.69832 -8.81702,-7.87215 -2.45077,-2.17384 -8.53433,-7.59859 -13.51902,-12.05496 -10.89104,-9.73677 -24.90483,-22.22437 -43.63485,-38.8828 C 113.84695,256.148 103.59384,246.98215 98.702185,242.57438 86.521766,231.59885 75.948727,222.1226 65.914125,213.18761 61.263901,209.04695 48.968513,198.03658 38.591039,188.72012 28.213565,179.40366 17.579095,169.86536 14.95888,167.52392 c -4.9631616,-4.43516 -5.5045699,-5.30013 -4.159365,-6.64533 0.332571,-0.33258 5.269782,-4.36769 10.97158,-8.96695 5.701813,-4.59923 12.671151,-10.23193 15.487415,-12.51708 7.913656,-6.42125 28.258197,-22.90281 33.916831,-27.4768 2.794936,-2.25919 8.272275,-6.69553 12.171868,-9.85853 l 7.090155,-5.750906 108.095206,0.0028 108.0952,0.0028 3.19959,2.573907 c 1.75978,1.415659 9.55173,7.630059 17.31545,13.809789 53.78779,42.81383 60.60407,48.37353 60.60407,49.43175 0,1.17244 -0.72952,1.92827 -7.99886,8.28737 -15.38215,13.45608 -50.94619,44.61677 -55.42838,48.56555 -2.89846,2.5535 -13.90883,12.21689 -24.46748,21.47418 -10.55866,9.25729 -24.2929,21.30728 -30.52055,26.77776 -6.22766,5.47048 -15.37472,13.50314 -20.32683,17.85037 -4.95211,4.34721 -13.22751,11.63099 -18.38976,16.18617 -30.35912,26.78888 -32.68579,28.79718 -33.3622,28.79718 -0.18312,0 -1.48068,-0.98871 -2.88347,-2.19714 z m -5.32883,-16.85426 c -1.02224,-2.87532 -3.15752,-8.86976 -4.74506,-13.32096 -2.82318,-7.91581 -4.3849,-12.32606 -10.86358,-30.67845 -1.75406,-4.96878 -6.60492,-18.68939 -10.7797,-30.49024 -7.84426,-22.17348 -23.05969,-65.66836 -24.35752,-69.62853 -0.67185,-2.0501 -0.85067,-2.27212 -2.02324,-2.51194 -0.70743,-0.14469 -14.81022,-0.28211 -31.33954,-0.3054 -24.399127,-0.0344 -29.997069,0.0486 -29.754355,0.44161 0.278165,0.45029 8.066254,10.7088 27.411095,36.10599 4.35759,5.72094 10.71785,14.07916 14.13387,18.57382 3.41604,4.49465 9.34471,12.29067 13.17481,17.32449 3.8301,5.03381 11.19418,14.71565 16.36463,21.51519 16.66677,21.91811 29.97508,39.39797 32.053,42.10021 1.11443,1.44923 4.35461,5.70586 7.20042,9.45919 2.84582,3.75331 5.22137,6.78342 5.279,6.73355 0.0576,-0.05 -0.73159,-2.44319 -1.75383,-5.31853 z m 6.35433,-70.73463 v -76.23485 l -26.91423,0.0284 c -15.91702,0.0168 -26.91423,0.16848 -26.91423,0.37128 0,0.31727 2.06966,6.31957 8.11048,23.52163 1.30868,3.72659 4.24031,12.11141 6.51474,18.63294 2.27444,6.52151 8.57019,24.39219 13.99055,39.71259 14.46814,40.89362 15.79068,44.62013 19.57129,55.14594 1.89618,5.27933 3.87183,10.82685 4.39032,12.32784 0.51847,1.50099 1.01208,2.72907 1.09688,2.72907 0.0848,0 0.1542,-34.30567 0.1542,-76.23482 z m 7.55232,66.41668 c 1.87667,-5.26221 4.40308,-12.36257 5.61429,-15.77861 13.20384,-37.23988 15.02362,-42.38728 16.56827,-46.86464 0.78568,-2.27735 2.56431,-7.27436 3.95252,-11.10447 1.38821,-3.83009 3.25834,-9.08119 4.15586,-11.6691 0.8975,-2.5879 3.60586,-10.29517 6.01854,-17.12723 2.41271,-6.83208 5.20228,-14.79342 6.19908,-17.69188 0.99678,-2.89845 3.09922,-8.89323 4.67207,-13.3217 1.57286,-4.4285 2.85974,-8.28325 2.85974,-8.56615 0,-0.4309 -4.34965,-0.49865 -26.82013,-0.41771 l -26.82013,0.0966 -0.095,76.19516 c -0.0522,41.90734 -0.009,76.11014 0.0939,76.00624 0.10385,-0.10385 1.72435,-4.49434 3.60102,-9.75652 z m 3.59233,6.24212 c 4.05996,-5.34385 26.73996,-35.0736 32.30577,-42.34757 2.77226,-3.62306 10.66261,-13.95586 17.53412,-22.96178 18.40863,-24.12664 33.93526,-44.41583 56.27115,-73.53145 3.93361,-5.1276 7.20092,-9.46029 7.26068,-9.62818 0.0598,-0.16791 -13.99964,-0.28564 -31.2431,-0.26164 l -31.35172,0.0437 -1.56621,4.51707 c -2.9448,8.49312 -16.23765,46.28313 -20.45716,58.15733 -2.31743,6.52151 -4.76985,13.46652 -5.44982,15.43332 -0.67997,1.96682 -1.58643,4.50767 -2.01436,5.64635 -0.42792,1.13869 -2.40747,6.72855 -4.39902,12.42194 -4.94954,14.14981 -15.11152,42.7914 -18.44376,51.98393 -1.20861,3.33411 -1.53407,4.47143 -1.16518,4.0717 0.0795,-0.0862 1.30298,-1.68135 2.71861,-3.54464 z m 14.45072,-8.2969 c 4.45196,-3.94221 14.95477,-13.17903 23.33959,-20.52628 22.3986,-19.62693 57.37065,-50.31009 69.63821,-61.09796 4.45119,-3.9143 20.96674,-18.37884 36.70121,-32.1434 15.73448,-13.76457 29.01873,-25.4189 29.52056,-25.8985 l 0.91242,-0.872 -27.84456,-0.026 -27.84457,-0.026 -0.96503,1.0412 c -0.53077,0.57263 -3.16222,3.9208 -5.84769,7.44036 -2.68546,3.51956 -11.2959,14.78401 -19.13433,25.03212 -19.30983,25.24611 -35.94538,47.01799 -41.36927,54.14235 -2.46927,3.24338 -7.54381,9.87775 -11.27679,14.74301 -3.73296,4.86527 -8.06966,10.53983 -9.63707,12.61016 -2.56328,3.38568 -11.8641,15.56407 -19.11741,25.03211 -4.71233,6.15118 -6.64507,8.86674 -5.89406,8.28129 0.39837,-0.31054 4.36683,-3.79005 8.81879,-7.73226 z m -42.26693,2.36824 c -3.5336,-4.61203 -8.07934,-10.57987 -24.72985,-32.46646 -4.88259,-6.41802 -10.8123,-14.20995 -13.17715,-17.31544 -36.69626,-48.18898 -54.755636,-71.94696 -61.518726,-80.9309 -4.519762,-6.00394 -8.564883,-11.22168 -8.98916,-11.59495 -0.729177,-0.64153 -2.200391,-0.67479 -26.866469,-0.60758 -14.352271,0.0392 -26.092905,0.17513 -26.090287,0.30226 0.0028,0.12719 0.974251,1.07811 2.159217,2.11327 1.184968,1.03516 9.017117,8.04857 17.404803,15.58534 8.387685,7.53677 17.283004,15.51835 19.767394,17.73684 2.48439,2.21848 10.530428,9.41455 17.880084,15.99127 17.285935,15.46804 44.153774,39.47638 49.687804,44.39962 2.38088,2.11809 7.88605,7.03516 12.23374,10.92684 19.40271,17.36765 45.42999,40.47107 45.59286,40.47107 0.0983,0 -1.41113,-2.07503 -3.35426,-4.61118 z M 73.846446,147.1254 c 11.388715,-36.70069 13.362811,-43.23915 12.985084,-43.00806 -0.226081,0.13829 -2.613144,2.04916 -5.304566,4.24634 -2.691421,2.19715 -14.802825,12.01989 -26.914215,21.82828 -12.111404,9.8084 -23.291167,18.86818 -24.843902,20.13287 -1.552749,1.26468 -4.686474,3.7933 -6.963833,5.61913 -2.277345,1.82582 -4.389855,3.55408 -4.694442,3.84057 -0.471852,0.44381 3.312204,0.50656 25.576095,0.42417 l 26.129867,-0.0967 z m 60.881604,12.89248 c -0.069,-0.15527 -3.76498,-5.14497 -8.21327,-11.0882 l -8.08778,-10.80588 -1.51099,0.88291 c -0.83104,0.48561 -5.06819,2.87615 -9.41588,5.31233 -4.34766,2.43617 -9.175302,5.14485 -10.728037,6.01928 -1.552749,0.87444 -6.204965,3.47358 -10.338264,5.77588 l -7.515087,4.186 h 27.967388 c 15.38207,0 27.91092,-0.12705 27.84192,-0.28232 z m 51.93824,-3.83039 C 170.80453,143.16883 164.01111,137.75733 163.74,137.92487 c -0.25544,0.15789 -4.43872,4.75206 -18.72658,20.56604 l -1.63468,1.80929 h 24.14923 24.1492 z m 63.81178,3.21413 c -0.37958,-0.49422 -4.6708,-5.26018 -9.53607,-10.59102 -4.86526,-5.33085 -9.18675,-10.10483 -9.6033,-10.60883 l -0.75738,-0.91638 -2.63043,2.20077 c -1.44673,1.21043 -7.03457,5.82158 -12.41742,10.24702 -5.38285,4.42544 -10.4527,8.61341 -11.26634,9.30664 l -1.47934,1.26038 h 24.1902 24.19023 z m 61.79604,-1.21632 c -4.07638,-2.27758 -11.20302,-6.30372 -23.90284,-13.50371 -10.77032,-6.10607 -11.26395,-6.3737 -11.41066,-6.18677 -0.0695,0.0886 -1.29306,1.68558 -2.71898,3.54888 -1.42591,1.86328 -4.70206,6.09805 -7.28033,9.41056 -2.57827,3.31252 -5.18213,6.65798 -5.78638,7.43436 l -1.09861,1.41158 27.98101,-0.005 27.98102,-0.005 z m 60.53194,-4.15936 c -4.30801,-3.45084 -9.86543,-7.91186 -12.34982,-9.91335 -7.86184,-6.33375 -38.14373,-30.4984 -44.52803,-35.53293 -3.37309,-2.65996 -6.21114,-4.75804 -6.30677,-4.66241 -0.0956,0.0957 -0.0161,0.66717 0.17691,1.27007 0.19295,0.60291 1.56548,5.50037 3.05008,10.88321 3.1428,11.39508 9.11014,32.77943 10.13651,36.32479 0.38957,1.3457 1.06816,3.67483 1.50798,5.17582 l 0.79965,2.72906 h 27.67312 27.67313 z M 88.867215,150.41638 c 22.302665,-12.43856 27.096745,-15.15204 27.099565,-15.3385 0.001,-0.10459 -4.42651,-6.11798 -9.84022,-13.36302 -5.4137,-7.24503 -10.79185,-14.47503 -11.951422,-16.06666 -1.159586,-1.59161 -2.222214,-2.90438 -2.361425,-2.91726 -0.258021,-0.0239 -0.855043,1.81131 -5.013055,15.40991 -1.297716,4.24416 -4.520687,14.66166 -7.162158,23.14999 -2.641456,8.48833 -4.887772,15.83555 -4.991828,16.32713 l -0.18919,0.89378 1.652622,-0.95111 c 0.908949,-0.52311 6.649644,-3.73802 12.757111,-7.14426 z m 231.771305,7.51791 c -0.27873,-0.72637 -7.68881,-27.07941 -12.14192,-43.18124 -1.17377,-4.24418 -2.41777,-8.71697 -2.76445,-9.93954 l -0.63033,-2.22287 -1.53219,1.84646 c -0.84271,1.01553 -4.15303,5.23424 -7.3563,9.37489 -3.20325,4.14064 -8.24554,10.63428 -11.20509,14.4303 -2.97002,3.80948 -5.23514,7.04302 -5.05552,7.2169 0.34395,0.33293 6.33082,3.73909 24.79295,14.10569 6.21096,3.48752 12.22431,6.89283 13.36299,7.56737 2.2926,1.35815 2.80567,1.5208 2.52986,0.80204 z M 195.39485,130.47593 v -27.56572 l -1.07374,1.12202 c -0.59056,0.61712 -3.58747,3.91697 -6.65979,7.33301 -3.07234,3.41603 -6.9717,7.73548 -8.66525,9.59877 -10.45554,11.50346 -12.21749,13.52677 -12.09627,13.89048 0.0741,0.22226 2.57746,2.41463 5.56304,4.87194 13.41275,11.03943 22.38984,18.29425 22.64969,18.30431 0.15528,0.005 0.28232,-12.39366 0.28232,-27.55481 z m 15.69419,18.06105 c 6.32376,-5.22756 12.621,-10.40753 13.99386,-11.51102 1.37285,-1.10349 2.55315,-2.16397 2.62289,-2.35662 0.0697,-0.19263 -2.31033,-3.01636 -5.28904,-6.27494 -7.74468,-8.47236 -19.0147,-20.969 -20.99914,-23.28467 -0.93164,-1.08717 -1.82094,-1.98771 -1.97621,-2.00122 -0.15528,-0.0142 -0.28233,12.34091 -0.28233,27.45429 0,15.11337 0.0973,27.47887 0.21611,27.47887 0.11879,0 5.39009,-4.27712 11.71386,-9.50469 z m 54.30321,-1.22337 c 4.17815,-5.38284 7.7412,-10.04732 7.91789,-10.3655 0.25872,-0.46591 -1.04665,-1.34019 -6.70698,-4.492 -3.86553,-2.15242 -8.77064,-4.92086 -10.90025,-6.15206 -2.12961,-1.2312 -3.95965,-2.1509 -4.06679,-2.04376 -0.10712,0.10712 0.40151,3.55935 1.13032,7.67161 0.72881,4.11226 1.92638,11.11873 2.66129,15.56993 1.66527,10.08636 1.7116,10.30807 2.07223,9.9183 0.16261,-0.17574 3.71413,-4.72366 7.89229,-10.10652 z m -124.44232,-6.58739 c 1.58485,-8.79889 2.88008,-16.13974 2.87827,-16.31299 -0.001,-0.17326 -1.23135,0.35199 -2.73234,1.16722 -5.37868,2.92134 -18.54452,10.33324 -18.83123,10.60133 -0.16083,0.15038 1.25987,2.37778 3.15715,4.94978 8.15927,11.061 12.14041,16.169 12.38497,15.89054 0.14391,-0.16385 1.55834,-7.49701 3.14318,-16.29588 z m 9.08598,6.56792 c 8.75989,-9.62307 10.76393,-11.92867 10.64069,-12.24176 -0.0554,-0.141 -2.7264,-2.41937 -5.9354,-5.06325 -7.20041,-5.93236 -6.75879,-5.5914 -6.96933,-5.38085 -0.0965,0.0965 -1.02708,4.99063 -2.06786,10.87579 -1.04081,5.88515 -2.31286,12.8611 -2.82679,15.50213 -1.10298,5.66812 -1.09809,5.58494 -0.2673,4.55639 0.35772,-0.44284 3.6994,-4.15466 7.42599,-8.24845 z m 100.23458,-7.4218 c -1.46751,-8.84683 -2.79791,-16.08514 -2.9565,-16.08514 -0.46478,0 -13.39043,10.69084 -13.42571,11.10445 -0.0321,0.37657 18.75236,21.36385 18.94717,21.16903 0.0568,-0.0568 -1.09748,-7.34152 -2.56496,-16.18834 z m -117.06288,-14.21095 9.89773,-5.45022 -2.08028,-1.95367 c -1.14414,-1.07452 -6.10629,-5.60244 -11.02698,-10.06205 l -8.94672,-8.10836 -13.1029,-0.007 c -10.386769,-0.006 -13.043092,0.0902 -12.814322,0.46327 0.158716,0.25878 3.520485,4.78997 7.470592,10.0693 3.95009,5.27933 9.35954,12.52042 12.021,16.09129 l 4.83899,6.49253 1.9226,-1.04231 c 1.05741,-0.57325 6.37655,-3.49489 11.82029,-6.49251 z m 146.5651,3.11339 c 6.38825,-8.06653 22.14977,-28.37534 22.14977,-28.54013 0,-0.0892 -6.1404,-0.15876 -13.64533,-0.15469 l -13.64532,0.007 -11.10446,9.62337 c -6.10746,5.29284 -11.22807,9.74103 -11.37912,9.88483 -0.15106,0.14383 2.3898,1.7418 5.64634,3.55108 3.25655,1.80927 8.63123,4.80821 11.94376,6.66432 3.31251,1.85608 6.13724,3.37743 6.27718,3.38076 0.13999,0.003 1.83066,-1.9843 3.75718,-4.41694 z M 176.5737,118.07497 c 6.93559,-7.66652 12.67133,-14.10519 12.74607,-14.30815 0.0747,-0.20295 -0.36736,-0.1087 -0.98248,0.20932 -0.87865,0.45436 -29.10751,12.89945 -36.95942,16.29405 l -1.66941,0.72175 6.70006,5.53828 c 3.68504,3.04604 6.89243,5.52604 7.12755,5.51107 0.23511,-0.0149 6.10205,-6.2998 13.03763,-13.96632 z m 61.50789,8.23287 c 3.54003,-2.89822 6.48406,-5.38679 6.5423,-5.53017 0.0582,-0.14338 -3.32957,-1.71696 -7.52846,-3.49682 -4.19888,-1.77989 -13.11082,-5.60911 -19.80433,-8.50939 -6.6935,-2.90027 -11.94461,-4.98531 -11.66912,-4.63342 0.27551,0.35189 2.19482,2.50334 4.26515,4.78101 2.07033,2.27766 7.63751,8.4159 12.37154,13.64054 4.73402,5.22462 8.78263,9.39097 8.99689,9.25853 0.21427,-0.13245 3.28598,-2.61205 6.82603,-5.51028 z m -84.98487,-10.83296 c 9.24073,-4.067 18.20004,-8.02551 26.39719,-11.66313 l 8.00189,-3.55098 -15.27611,-0.0983 c -8.40187,-0.0541 -22.05483,-0.0541 -30.33992,0 l -15.0638,0.0983 6.52825,5.87964 c 3.59055,3.23381 7.96809,7.25364 9.72787,8.93298 2.43518,2.32388 3.39126,3.01103 4.00185,2.87623 0.44126,-0.0974 3.1515,-1.21104 6.02278,-2.47474 z m 99.83418,-1.5187 c 2.41201,-2.09455 6.75696,-5.84692 9.65541,-8.33862 2.89845,-2.49169 5.51795,-4.75866 5.82111,-5.03769 0.46264,-0.42582 -4.43552,-0.50483 -30.49023,-0.49186 l -31.04145,0.0155 2.07032,0.91272 c 11.58759,5.10852 38.69588,16.70647 39.09133,16.72475 0.27941,0.0128 2.48147,-1.69023 4.89351,-3.78477 z"
       id="path3" /></g><metadata
     id="metadata182"><rdf:RDF><cc:Work
         rdf:about=""><cc:license
           rdf:resource="http://creativecommons.org/licenses/by-sa/4.0/" /><dc:publisher><cc:Agent><dc:title>OpenDataKerala.org</dc:title></cc:Agent></dc:publisher><dc:date>April 2026</dc:date><dc:title>Election Symbols of Kerala</dc:title><dc:creator><cc:Agent><dc:title>Manoj Karingamadathil</dc:title></cc:Agent></dc:creator></cc:Work><cc:License
         rdf:about="http://creativecommons.org/licenses/by-sa/4.0/"><cc:permits
           rdf:resource="http://creativecommons.org/ns#Reproduction" /><cc:permits
           rdf:resource="http://creativecommons.org/ns#Distribution" /><cc:requires
           rdf:resource="http://creativecommons.org/ns#Notice" /><cc:requires
           rdf:resource="http://creativecommons.org/ns#Attribution" /><cc:permits
           rdf:resource="http://creativecommons.org/ns#DerivativeWorks" /><cc:requires
           rdf:resource="http://creativecommons.org/ns#ShareAlike" /></cc:License></rdf:RDF></metadata></svg>
