<?xml version="1.0" encoding="UTF-8" standalone="no"?>
<!-- Created with Inkscape (http://www.inkscape.org/) -->

<svg
   width="1500"
   height="1500"
   viewBox="0 0 396.87499 396.875"
   version="1.1"
   id="svg5"
   xml:space="preserve"
   inkscape:version="1.3 (0e150ed6c4, 2023-07-21)"
   sodipodi:docname="Drilling Machine.svg"
   inkscape:export-filename="Colour Tray and Brush.png"
   inkscape:export-xdpi="96"
   inkscape:export-ydpi="96"
   xmlns:inkscape="http://www.inkscape.org/namespaces/inkscape"
   xmlns:sodipodi="http://sodipodi.sourceforge.net/DTD/sodipodi-0.dtd"
   xmlns="http://www.w3.org/2000/svg"
   xmlns:svg="http://www.w3.org/2000/svg"
   xmlns:rdf="http://www.w3.org/1999/02/22-rdf-syntax-ns#"
   xmlns:cc="http://creativecommons.org/ns#"
   xmlns:dc="http://purl.org/dc/elements/1.1/"><title
     id="title186">Election Symbols of Kerala</title><sodipodi:namedview
     id="namedview7"
     pagecolor="#ffffff"
     bordercolor="#000000"
     borderopacity="0.25"
     inkscape:showpageshadow="2"
     inkscape:pageopacity="0.0"
     inkscape:pagecheckerboard="0"
     inkscape:deskcolor="#d1d1d1"
     inkscape:document-units="mm"
     showgrid="false"
     inkscape:zoom="0.25"
     inkscape:cx="230"
     inkscape:cy="1078"
     inkscape:window-width="1920"
     inkscape:window-height="991"
     inkscape:window-x="-9"
     inkscape:window-y="-9"
     inkscape:window-maximized="1"
     inkscape:current-layer="layer1" /><defs
     id="defs2"><inkscape:path-effect
       effect="bspline"
       id="path-effect3248"
       is_visible="true"
       lpeversion="1"
       weight="33.333333"
       steps="2"
       helper_size="0"
       apply_no_weight="true"
       apply_with_weight="true"
       only_selected="false" /><inkscape:path-effect
       effect="bspline"
       id="path-effect577"
       is_visible="true"
       lpeversion="1"
       weight="33.333333"
       steps="2"
       helper_size="0"
       apply_no_weight="true"
       apply_with_weight="true"
       only_selected="false" /></defs><g
     inkscape:label="Layer 1"
     inkscape:groupmode="layer"
     id="layer1"><path
       style="fill:#000000;stroke-width:1.55509"
       d="m 248.64684,340.15823 c -1.68036,-0.50627 -3.47399,-2.35697 -3.95202,-4.07775 -0.24605,-0.8857 -0.40685,-10.80386 -0.40731,-25.12194 -7.3e-4,-22.72667 0.0308,-23.71025 0.80096,-24.97332 1.28348,-2.10496 2.54877,-2.69574 5.89141,-2.75073 1.6351,-0.0269 17.27599,-0.003 34.75753,0.054 l 31.78463,0.10279 v 2.26069 2.26068 l -35.23715,0.10513 c -32.57877,0.0972 -35.27026,0.15765 -35.67611,0.8011 -0.64536,1.02316 0.72946,2.38993 2.40402,2.38993 h 1.30996 l 0.27206,12.41057 c 0.1496,6.82582 0.27208,15.80575 0.27208,19.9554 0,4.14966 0.15571,7.54484 0.34604,7.54484 0.19031,0 0.46566,-4.39739 0.61185,-9.77198 0.14618,-5.37459 0.39004,-14.35451 0.54184,-19.9554 l 0.276,-10.18343 h 32.43971 32.4397 v 6.89824 c 0,7.73556 0.32676,8.94853 2.87995,10.69132 1.35452,0.92458 1.3789,0.92576 19.00104,0.92576 19.48971,0 19.5177,-0.003 21.47292,-2.56674 1.07502,-1.40944 1.08286,-1.47231 1.08286,-8.68415 v -7.26443 h 14.81225 14.81226 v 22.26524 c 0,21.83689 -0.0166,22.29471 -0.86168,23.79838 -0.47393,0.84324 -1.44598,1.88679 -2.16013,2.31901 -1.26303,0.76441 -3.17217,0.78775 -70.01084,0.85577 -38.16051,0.0389 -69.24214,-0.0897 -69.90383,-0.28903 z m 73.17674,-34.73557 -1.00992,-1.00994 V 291.1882 c 0,-14.47401 0.0868,-15.03932 2.46056,-16.02256 0.71862,-0.29767 6.3503,-0.4046 17.16982,-0.32604 l 16.10045,0.11695 1.06135,0.9975 1.06137,0.99748 v 13.88777 13.88777 l -1.08412,0.85276 c -1.05666,0.83115 -1.51065,0.85277 -17.91686,0.85277 H 322.8335 Z m 40.13523,-19.76838 v -2.26299 h 12.98116 c 14.25412,0 14.7922,0.0824 16.01921,2.45524 0.34327,0.66383 0.62414,1.40131 0.62414,1.63885 0,0.29354 -4.74454,0.43188 -14.81226,0.43188 h -14.81225 z m -69.12386,-6.52497 c 0,-0.30741 0.97205,-1.2045 2.16013,-1.99352 2.78467,-1.84938 5.79808,-4.78656 6.72083,-6.55086 0.39947,-0.7638 1.14307,-2.77736 1.65242,-4.4746 0.50937,-1.69723 1.41127,-4.65968 2.00422,-6.58322 1.17285,-3.80477 1.19276,-5.08522 0.30376,-19.54396 -0.34473,-5.6069 -0.40714,-5.88633 -2.34301,-10.492 -1.81378,-4.31523 -1.98357,-4.99838 -1.92908,-7.76153 0.10093,-5.11218 -0.85119,-8.18139 -4.01861,-12.95532 -1.52386,-2.29679 -2.90205,-4.40366 -3.06263,-4.68196 -0.16058,-0.2783 0.008,-1.38923 0.37506,-2.46871 0.91374,-2.68872 0.66769,-3.91442 -2.93577,-14.62547 -2.58304,-7.67793 -3.71681,-10.359 -7.07072,-16.72034 -4.52551,-8.58348 -5.99871,-10.38266 -10.25776,-12.52747 -4.69931,-2.36654 -6.77917,-2.75123 -16.98367,-3.14123 -39.54449,-1.51132 -55.00628,-3.01318 -59.47885,-5.77737 -2.76856,-1.71108 -2.65039,-0.0851 -2.64969,-36.46074 5.9e-4,-30.454205 0.0532,-32.959133 0.72004,-34.29404 1.16091,-2.323852 3.41074,-3.160212 10.47967,-3.895724 5.16938,-0.53786 15.45196,-0.628864 70.15248,-0.620902 58.40324,0.0078 71.02621,0.185398 75.69209,1.060729 l 1.36393,0.255875 v 37.190562 c 0,33.21163 -0.0678,37.19058 -0.63358,37.19058 -0.96115,0 -3.52832,1.43812 -4.98911,2.79489 -1.8087,1.67991 -3.29561,4.80505 -3.87834,8.15129 -1.28875,7.40053 2.80086,24.28669 7.94219,32.7936 2.9294,4.84706 3.35027,5.73319 6.14115,12.9305 6.08865,15.70182 12.44093,36.15035 17.41718,56.06745 1.44177,5.7706 3.0066,11.87694 3.4774,13.56962 0.47081,1.69269 0.856,3.31279 0.856,3.6002 0,0.40656 -1.99826,0.52259 -8.99958,0.52259 h -8.99959 l -0.19263,-2.00469 c -0.22306,-2.32139 -1.45062,-4.27168 -3.33898,-5.30478 -1.18044,-0.64581 -2.9711,-0.71383 -18.79148,-0.71383 -16.8037,0 -17.54293,0.0325 -18.92676,0.83232 -1.67359,0.96726 -3.29162,3.83703 -3.29162,5.83808 v 1.3529 h -12.34355 c -10.12595,0 -12.34354,-0.10046 -12.34354,-0.55892 z m 35.16199,-124.63547 c 0.89578,-0.50736 2.19186,-1.72377 2.88017,-2.70311 1.09427,-1.55695 1.25146,-2.12879 1.25146,-4.55253 0,-2.33536 -0.17826,-3.04128 -1.13195,-4.48238 -2.16158,-3.26638 -6.46096,-4.52304 -10.10753,-2.95434 -3.36937,1.44947 -5.43512,4.43031 -5.41298,7.81081 0.009,1.51808 1.52154,4.59446 2.78982,5.67785 2.74833,2.34764 6.82174,2.85151 9.73101,1.2037 z m -5.94893,-1.56371 c -2.64961,-1.10147 -4.42643,-4.14334 -3.93874,-6.743 0.74968,-3.99614 5.57335,-6.07156 8.88034,-3.82085 3.98819,2.71434 4.15747,7.07546 0.38184,9.83797 -1.25653,0.91937 -3.96847,1.28915 -5.32344,0.72588 z M 219.10285,140.12387 c 0.59005,-0.59005 0.67467,-5.92909 0.0997,-6.2845 -0.21677,-0.1339 -2.57747,-0.31516 -5.24601,-0.40265 -6.2423,-0.20465 -6.70342,0.0333 -6.70342,3.45792 0,3.5744 0.2524,3.72297 6.3246,3.72297 3.36475,0 5.19502,-0.16355 5.52519,-0.49374 z m -0.15287,-12.49637 c 0.78991,-0.78992 0.90513,-5.51351 0.15287,-6.26582 -0.33245,-0.33245 -2.20948,-0.49374 -5.74585,-0.49374 -6.07066,0 -6.10396,0.021 -6.10396,3.85235 0,3.36802 0.32261,3.55378 6.17178,3.55378 3.88651,0 5.01012,-0.13157 5.52519,-0.64657 z m 102.50504,-1.18087 c 0.63949,-0.47486 0.70774,-0.74141 0.34239,-1.33721 -0.39854,-0.64997 -1.06983,-0.74414 -5.30402,-0.74414 -4.07666,0 -4.91652,0.10901 -5.28017,0.68554 -0.31382,0.49749 -0.28407,0.86433 0.10839,1.33723 0.7468,0.89985 8.93672,0.94721 10.1334,0.0586 z m 15.63517,0 c 0.63948,-0.47486 0.70772,-0.74141 0.34238,-1.33721 -0.40606,-0.66222 -1.1075,-0.74414 -6.37186,-0.74414 -5.36695,0 -5.92878,0.0686 -6.05805,0.7398 -0.31774,1.64989 0.57547,1.93463 6.06899,1.93463 3.90192,0 5.42151,-0.14975 6.01854,-0.59308 z m 0.46562,-7.48615 c 0.14214,-0.37021 0.0698,-0.97195 -0.16042,-1.33721 -0.36741,-0.58271 -1.91559,-0.67748 -12.63032,-0.77313 -7.95097,-0.0709 -12.49329,0.0417 -13.01894,0.32307 -0.78703,0.4212 -1.08321,1.63589 -0.53304,2.18607 0.15085,0.15084 6.08158,0.2743 13.17936,0.2743 11.56815,0 12.93183,-0.0697 13.16336,-0.6731 z m -118.75512,-3.45589 c 0.66644,-0.35666 0.79585,-0.87856 0.79585,-3.20932 0,-1.61627 -0.20703,-2.99043 -0.49374,-3.27714 -0.33019,-0.33019 -2.16044,-0.49374 -5.52521,-0.49374 -6.03331,0 -6.32459,0.16566 -6.32459,3.59719 0,3.56219 0.39238,3.80894 6.05686,3.80894 2.58223,0 5.05311,-0.19167 5.49083,-0.42593 z m 118.66684,-3.53177 c 0.61381,-0.61381 0.6107,-0.72728 -0.0396,-1.44592 -0.66765,-0.73774 -1.3827,-0.77397 -13.24417,-0.67113 -11.18002,0.0969 -12.58524,0.18297 -12.97067,0.79425 -0.3136,0.49738 -0.28378,0.86444 0.10855,1.33722 0.47169,0.56835 2.13497,0.65166 13.01034,0.65166 10.94228,0 12.55107,-0.0816 13.13557,-0.66608 z m -0.20019,-7.35198 c 0.27933,-0.33656 0.40038,-0.89203 0.26902,-1.23435 -0.20621,-0.53735 -2.00878,-0.62243 -13.1882,-0.62243 -8.26564,0 -13.04215,0.15023 -13.20592,0.41515 -0.14105,0.22832 -0.13965,0.78378 0.003,1.23436 0.25222,0.79463 0.64037,0.8192 12.93691,0.8192 10.71815,0 12.75537,-0.0945 13.18476,-0.61193 z m -118.46665,-1.45979 c 0.66644,-0.35666 0.79585,-0.87857 0.79585,-3.209324 0,-1.61627 -0.20703,-2.990428 -0.49374,-3.27714 -0.32903,-0.329026 -2.13691,-0.493742 -5.41934,-0.493742 -6.12024,0 -6.43046,0.190654 -6.43046,3.952116 0,2.03281 0.15488,2.68048 0.72003,3.0096 0.94664,0.55137 9.80371,0.56649 10.82766,0.0185 z m 118.2895,-5.516024 c 0.63948,-0.474863 0.70772,-0.741406 0.34238,-1.337224 -0.42426,-0.691876 -1.34565,-0.744127 -13.1216,-0.744127 -11.37215,0 -12.70948,0.06998 -13.09775,0.685547 -0.31382,0.497489 -0.28407,0.864304 0.10839,1.337208 0.47124,0.567811 2.11264,0.651677 12.75535,0.651677 9.99308,0 12.35978,-0.107923 13.01321,-0.593081 z M 219.10285,90.749684 c 0.27688,-0.276885 0.49374,-1.604203 0.49374,-3.022121 0,-3.526281 -0.32847,-3.736654 -5.95031,-3.811049 -5.9233,-0.07838 -6.39324,0.197761 -6.39324,3.756777 0,1.460123 0.21461,2.797253 0.49374,3.076393 0.33178,0.331779 2.19441,0.493741 5.67804,0.493741 3.48362,0 5.34625,-0.161962 5.67803,-0.493741 z m 118.19751,-0.569382 c 0.39247,-0.472904 0.42221,-0.839719 0.10839,-1.337208 -0.38829,-0.615553 -1.72561,-0.685547 -13.09775,-0.685547 -11.37214,0 -12.70948,0.06998 -13.09775,0.685547 -0.31382,0.497489 -0.28407,0.864304 0.10839,1.337208 0.47166,0.568324 2.13313,0.651677 12.98934,0.651677 10.85621,0 12.51769,-0.08335 12.98935,-0.651677 z M 256.67845,198.96455 c -0.25225,-0.68193 0.10513,-1.76149 1.46406,-4.42311 2.51818,-4.93196 3.46748,-8.92769 3.72023,-15.65883 0.27838,-7.41414 -0.42424,-11.25808 -2.96301,-16.21016 -1.03225,-2.01349 -1.77299,-3.76474 -1.64606,-3.89165 0.12689,-0.1269 2.12085,-0.21792 4.43098,-0.20221 6.71707,0.0456 12.44379,2.31669 15.72356,6.2355 0.62644,0.7485 2.74818,4.54414 4.71498,8.43475 2.76845,5.47643 4.26011,9.13347 6.60549,16.19442 2.56361,7.71795 2.94637,9.22073 2.48889,9.77197 -0.47705,0.57482 -2.51971,0.65141 -17.37301,0.65141 h -16.8324 z m 99.93151,-87.19386 V 75.090524 l 2.37602,0.268813 c 7.82772,0.88561 16.11103,3.807442 19.14016,6.75145 2.73432,2.657451 2.74631,2.785746 2.64433,28.265143 l -0.0907,22.62983 -0.96002,1.94932 c -2.53764,5.15276 -12.02912,10.86495 -21.9784,13.22714 l -1.13148,0.26864 z m -167.77963,32.54826 c -0.74111,-0.45186 -1.52802,-1.2964 -1.74867,-1.87678 -0.24739,-0.65067 -0.4012,-12.6181 -0.4012,-31.21464 0,-29.805182 0.009,-30.172044 0.8455,-31.234312 0.65675,-0.834898 3.98852,-2.327694 5.19523,-2.327694 0.072,0 0.13109,15.18257 0.13109,33.739026 v 33.73903 l -1.33721,-0.001 c -0.73548,-8.5e-4 -1.94358,-0.37124 -2.6847,-0.82309 z m -16.7564,-3.50743 c -1.81038,-0.29895 -4.46099,-0.55746 -5.89023,-0.57445 -2.5252,-0.03 -4.07958,-0.50305 -4.69835,-1.42973 -0.16626,-0.24898 -0.30511,-5.19774 -0.30858,-10.99721 -0.006,-11.34933 -0.0711,-11.69071 -2.14377,-11.39688 -0.93332,0.13234 -0.9517,0.23599 -1.15414,6.51195 -0.11322,3.50762 -0.36719,6.62782 -0.56455,6.93378 -0.31046,0.48132 -2.70208,1.7067 -3.33102,1.7067 -0.12037,0 -0.21894,-9.15217 -0.21894,-20.33813 V 90.889424 l 1.3372,0.377048 c 1.84823,0.521143 2.83767,1.845397 2.72519,3.647329 -0.0505,0.810017 -0.0596,3.659491 -0.0199,6.332169 l 0.072,4.85938 1.54295,-0.12767 1.54294,-0.12768 0.20573,-11.192213 c 0.15022,-8.17394 0.34447,-11.330762 0.72021,-11.705959 0.33137,-0.330924 1.50444,-0.479731 3.29617,-0.418165 1.52992,0.05256 4.80225,-0.188057 7.27185,-0.534718 5.15216,-0.723227 9.17249,-0.808897 10.70036,-0.228008 l 1.05814,0.402303 -0.10559,29.5308 -0.10559,29.53079 -4.32023,0.0602 c -2.37614,0.0331 -5.80148,-0.18447 -7.61187,-0.48342 z m -54.92878,-5.95424 c -0.80278,-0.80278 -0.82291,-1.37149 -0.82291,-23.26743 0,-24.207268 0.021,-24.451573 2.14365,-25.020193 0.51824,-0.13887 7.66247,-0.254942 15.87607,-0.258036 l 14.93381,-0.0062 1.00993,1.009924 1.00994,1.009924 v 22.762711 c 0,19.93612 -0.0795,22.87627 -0.64052,23.67717 l -0.64051,0.91446 h -16.02328 c -15.47468,0 -16.05145,-0.0282 -16.84618,-0.82291 z m -8.43476,-6.12171 c -1.13148,-0.40874 -4.00136,-1.77803 -6.37749,-3.04285 -2.37614,-1.26483 -6.079204,-3.0638 -8.229041,-3.99771 -2.149822,-0.93391 -4.140232,-2.00031 -4.423103,-2.36982 -0.369055,-0.48206 -0.514316,-2.83943 -0.514316,-8.34696 0,-8.8053 -0.219175,-8.26153 4.049445,-10.04583 1.435133,-0.59991 5.533425,-2.56211 9.107305,-4.360466 4.90664,-2.468989 7.11407,-3.353992 9.01374,-3.613786 1.38367,-0.189223 2.60854,-0.251287 2.72192,-0.137937 0.11337,0.113367 0.20615,8.414609 0.20615,18.447159 v 18.24102 l -1.74867,-0.0155 c -0.96178,-0.008 -2.67444,-0.34926 -3.80594,-0.758 z M 8.619491,114.69744 c -0.738389,-0.4502 -1.645832,-1.45457 -2.0165354,-2.23195 -0.5792097,-1.21463 -0.5975443,-1.59795 -0.1303167,-2.7259 0.8198141,-1.9792 2.5883581,-2.85764 5.7568121,-2.85946 l 2.678865,-0.001 3.492909,2.83016 c 1.921099,1.55658 4.233521,3.49298 5.138725,4.30311 l 1.645801,1.47295 -7.611851,0.0156 c -6.890335,0.014 -7.739104,-0.062 -8.954378,-0.80295 z m 16.729965,-2.57285 c -2.301211,-1.86696 -4.668124,-3.80441 -5.259774,-4.30545 l -1.07572,-0.91096 5.22141,-0.0156 5.22141,-0.0155 2.801903,2.13116 c 2.293186,1.74423 5.310361,4.16047 7.718733,6.18133 0.214976,0.1804 -2.046953,0.328 -5.02651,0.328 H 29.53351 Z m 13.728123,-0.83784 -5.034923,-4.20244 4.623461,-0.11943 c 2.542919,-0.0656 5.029045,-0.0187 5.524731,0.1045 0.689232,0.17128 7.789007,5.5981 10.598826,8.10138 0.215551,0.19206 -2.091288,0.34155 -5.143142,0.33331 l -5.53403,-0.0156 z m 17.286253,2.06197 c -1.40851,-1.18244 -3.575298,-2.98308 -4.815095,-4.00142 -1.239782,-1.01835 -2.262909,-1.9904 -2.273623,-2.16013 -0.01089,-0.16973 2.248664,-0.30735 5.020818,-0.30584 l 5.040273,0.003 2.517212,1.95165 c 4.24674,3.29258 7.97481,6.3383 7.97481,6.51517 0,0.0925 -2.453283,0.16357 -5.451734,0.15794 l -5.451735,-0.0109 z m 16.130772,0.81196 c -3.37539,-2.68594 -8.426704,-6.94994 -8.426704,-7.11329 0,-0.0928 2.303434,-0.1688 5.118743,-0.1688 h 5.118727 l 3.00744,2.45454 c 1.654089,1.35001 3.933202,3.287 5.064687,4.30444 l 2.057263,1.84989 -5.143142,-0.005 -5.143157,-0.005 z m 10.372172,-3.45823 -4.036709,-3.61814 3.986868,-0.11834 c 2.192789,-0.0652 4.06313,-0.0421 4.156343,0.051 0.09315,0.0931 0.115698,1.77464 0.04976,3.73654 l -0.119587,3.56708 z"
       id="path3" /></g><metadata
     id="metadata182"><rdf:RDF><cc:Work
         rdf:about=""><cc:license
           rdf:resource="http://creativecommons.org/licenses/by-sa/4.0/" /><dc:publisher><cc:Agent><dc:title>OpenDataKerala.org</dc:title></cc:Agent></dc:publisher><dc:date>April 2026</dc:date><dc:title>Election Symbols of Kerala</dc:title><dc:creator><cc:Agent><dc:title>Manoj Karingamadathil</dc:title></cc:Agent></dc:creator></cc:Work><cc:License
         rdf:about="http://creativecommons.org/licenses/by-sa/4.0/"><cc:permits
           rdf:resource="http://creativecommons.org/ns#Reproduction" /><cc:permits
           rdf:resource="http://creativecommons.org/ns#Distribution" /><cc:requires
           rdf:resource="http://creativecommons.org/ns#Notice" /><cc:requires
           rdf:resource="http://creativecommons.org/ns#Attribution" /><cc:permits
           rdf:resource="http://creativecommons.org/ns#DerivativeWorks" /><cc:requires
           rdf:resource="http://creativecommons.org/ns#ShareAlike" /></cc:License></rdf:RDF></metadata></svg>
