<?xml version="1.0" encoding="UTF-8" standalone="no"?>
<!-- Created with Inkscape (http://www.inkscape.org/) -->

<svg
   width="1500"
   height="1500"
   viewBox="0 0 396.87499 396.875"
   version="1.1"
   id="svg5"
   xml:space="preserve"
   inkscape:version="1.3 (0e150ed6c4, 2023-07-21)"
   sodipodi:docname="Dustbin.svg"
   inkscape:export-filename="Drilling Machine.png"
   inkscape:export-xdpi="96"
   inkscape:export-ydpi="96"
   xmlns:inkscape="http://www.inkscape.org/namespaces/inkscape"
   xmlns:sodipodi="http://sodipodi.sourceforge.net/DTD/sodipodi-0.dtd"
   xmlns="http://www.w3.org/2000/svg"
   xmlns:svg="http://www.w3.org/2000/svg"
   xmlns:rdf="http://www.w3.org/1999/02/22-rdf-syntax-ns#"
   xmlns:cc="http://creativecommons.org/ns#"
   xmlns:dc="http://purl.org/dc/elements/1.1/"><title
     id="title186">Election Symbols of Kerala</title><sodipodi:namedview
     id="namedview7"
     pagecolor="#ffffff"
     bordercolor="#000000"
     borderopacity="0.25"
     inkscape:showpageshadow="2"
     inkscape:pageopacity="0.0"
     inkscape:pagecheckerboard="0"
     inkscape:deskcolor="#d1d1d1"
     inkscape:document-units="mm"
     showgrid="false"
     inkscape:zoom="0.25"
     inkscape:cx="230"
     inkscape:cy="1078"
     inkscape:window-width="1920"
     inkscape:window-height="991"
     inkscape:window-x="-9"
     inkscape:window-y="-9"
     inkscape:window-maximized="1"
     inkscape:current-layer="layer1" /><defs
     id="defs2"><inkscape:path-effect
       effect="bspline"
       id="path-effect3248"
       is_visible="true"
       lpeversion="1"
       weight="33.333333"
       steps="2"
       helper_size="0"
       apply_no_weight="true"
       apply_with_weight="true"
       only_selected="false" /><inkscape:path-effect
       effect="bspline"
       id="path-effect577"
       is_visible="true"
       lpeversion="1"
       weight="33.333333"
       steps="2"
       helper_size="0"
       apply_no_weight="true"
       apply_with_weight="true"
       only_selected="false" /></defs><g
     inkscape:label="Layer 1"
     inkscape:groupmode="layer"
     id="layer1"><path
       style="fill:#000000;stroke-width:1.49674"
       d="m 216.16838,390.8359 c -2.69492,-0.41738 -4.82433,-1.27058 -22.57266,-9.04424 -7.46743,-3.2707 -15.15943,-6.761 -27.72081,-12.57852 -6.09858,-2.82441 -14.20697,-6.56212 -18.01857,-8.30602 -3.81163,-1.74389 -7.15235,-3.35106 -7.42384,-3.57149 -0.35646,-0.28943 -0.94683,0.009 -2.12457,1.07266 -1.97956,1.78841 -7.14496,4.30935 -10.6482,5.19676 -6.81604,1.72661 -15.54291,-1.17072 -21.43284,-7.11571 -9.629757,-9.71979 -12.095917,-24.33362 -5.68786,-33.70483 3.29711,-4.82173 11.65295,-9.2368 17.7867,-9.39818 l 2.26713,-0.0597 -0.24796,-2.4043 c -0.13639,-1.32236 -0.4103,-3.65173 -0.60871,-5.17637 -0.19842,-1.52465 -0.73139,-5.89068 -1.18438,-9.70228 -0.453,-3.81162 -1.34241,-11.20713 -1.97648,-16.43449 -3.39432,-27.9833 -7.61075,-63.39528 -8.88818,-74.64818 -0.55633,-4.90063 -1.27141,-10.425 -1.58908,-12.27636 -0.31767,-1.85136 -0.69106,-4.41591 -0.82977,-5.69903 -0.1387,-1.28311 -0.57527,-2.97605 -0.97013,-3.76211 -0.39487,-0.78604 -1.03935,-3.21123 -1.43217,-5.38928 -0.50287,-2.7882 -0.92797,-4.11572 -1.43649,-4.48589 -0.39725,-0.28917 -1.534957,-1.75937 -2.528257,-3.26709 -1.57664,-2.39319 -1.95878,-2.74133 -3.00905,-2.74133 -0.66167,0 -2.20486,-0.56837 -3.429308,-1.26305 -2.510409,-1.42427 -10.341703,-8.62296 -15.799192,-14.52295 -4.461517,-4.82327 -5.007485,-6.21978 -3.93786,-10.0724 2.747985,-9.89786 3.827898,-13.0089 5.052347,-14.5549 l 1.286426,-1.62424 -0.255367,-3.59762 c -0.220235,-3.10269 -0.03857,-4.91003 1.320518,-13.13723 2.829181,-17.126424 5.579489,-29.674526 9.772546,-44.586629 1.66975,-5.938258 9.4366,-29.925624 10.09642,-31.18206 0.380437,-0.72442 0.345027,-1.020744 -0.19297,-1.615233 -0.36238,-0.400422 -0.65888,-0.872927 -0.65888,-1.050006 0,-0.836242 3.760257,-9.729701 4.809947,-11.376127 1.64752,-2.584071 3.94132,-4.545904 7.02155,-6.005342 l 2.62293,-1.24277 7.52423,0.121236 c 8.93551,0.143986 12.05696,0.517631 13.61945,1.630215 1.64698,1.172753 6.92049,1.202973 7.89972,0.04535 2.11529,-2.500837 31.87951,-1.807414 33.6738,0.7845 0.6729,0.972026 2.01094,0.998713 4.82997,0.09624 1.75234,-0.560932 3.65538,-0.689367 10.26917,-0.693019 7.93748,-0.0045 8.16754,0.01856 10.33217,1.033736 3.97628,1.864665 5.45088,4.524097 4.98421,8.988982 -0.46068,4.407426 -8.36022,28.059732 -15.56458,46.602454 -1.18473,3.049287 -2.87125,7.415328 -3.74783,9.702282 -1.96192,5.1186 -2.72092,6.837617 -9.26711,20.988621 -2.87155,6.20747 -5.43736,11.83568 -5.7018,12.50711 -0.26444,0.67142 -1.42432,2.18713 -2.57752,3.36824 -1.77339,1.81632 -2.2357,2.61568 -2.99809,5.18384 -0.66122,2.22726 -1.2578,3.38182 -2.23884,4.33266 -0.73558,0.71296 -1.33742,1.62946 -1.33742,2.03667 0,0.4072 -0.17476,1.06689 -0.38834,1.46598 -0.3315,0.61941 0.27813,1.27877 4.16532,4.50498 4.15717,3.45031 4.64787,3.74873 5.6355,3.42741 1.32854,-0.43223 10.90934,-1.5801 13.24271,-1.58658 1.62408,-0.004 6.56555,0.71029 35.55851,5.14373 47.95947,7.3337 101.90281,16.02712 102.94314,16.59015 0.31577,0.1709 0.89649,0.74249 1.29049,1.27019 0.66713,0.89355 0.68563,1.39474 0.26929,7.29559 -0.34887,4.94487 -0.59267,6.48979 -1.11032,7.03599 -0.3648,0.38492 -2.2591,1.13932 -4.20954,1.67642 -8.63567,2.37808 -14.06982,4.03057 -14.39418,4.37717 -0.1929,0.20611 -0.65095,1.44399 -1.01789,2.75082 -1.68306,5.99423 -2.33983,7.82853 -3.03478,8.47597 -0.65177,0.60723 -1.10323,3.86673 -3.52013,25.41515 -1.52484,13.59523 -3.12156,27.48077 -3.54822,30.85678 -0.42668,3.376 -1.31977,11.03882 -1.98466,17.02849 -0.66488,5.98968 -2.36193,20.6966 -3.77122,32.68204 -1.4093,11.98545 -2.83711,24.45982 -3.17292,27.72082 -0.33582,3.26099 -1.13311,10.206 -1.77176,15.43335 -0.63866,5.22735 -1.4404,11.99916 -1.78164,15.04845 -0.93389,8.34501 -1.9531,9.98413 -7.9221,12.74053 -1.79294,0.82795 -2.89171,1.07667 -4.4771,1.01338 -1.9759,-0.0789 -2.23537,0.028 -4.35749,1.79338 -2.43738,2.02772 -10.25786,6.17545 -18.49022,9.80662 -6.39686,2.82157 -9.06075,3.75293 -10.73415,3.75293 -1.02969,0 -1.5307,0.29736 -2.3824,1.414 -1.14481,1.50093 -3.44094,2.82371 -7.65446,4.40967 -2.56999,0.96734 -7.73205,1.48481 -10.5139,1.05396 z m 11.86545,-3.93974 c 2.72986,-1.19359 3.76451,-1.8718 4.48183,-2.93788 0.51296,-0.76232 1.2521,-1.50472 1.64252,-1.64978 0.49793,-0.185 0.78977,-0.86597 0.97746,-2.28077 0.45412,-3.42339 0.95044,-4.04874 0.73063,-0.92059 -0.1841,2.62007 -0.1365,2.87095 0.5445,2.86965 1.7931,-0.003 15.74862,-6.0903 22.52686,-9.82533 5.29276,-2.91648 6.5342,-3.88994 6.5342,-5.12373 0,-1.292 0.83001,-4.05806 1.21771,-4.05806 0.49759,0 0.64851,0.9182 0.36111,2.19702 l -0.27127,1.20699 2.81132,-0.0875 c 3.42401,-0.10672 5.89291,-1.08876 8.28828,-3.29673 1.50464,-1.38694 1.7735,-1.88287 1.99628,-3.68232 0.25886,-2.09089 1.33023,-10.90046 2.44424,-20.09804 0.64719,-5.34338 2.41524,-20.68913 3.74136,-32.47295 0.45346,-4.02942 1.35156,-11.69225 1.99577,-17.02851 0.64421,-5.33625 1.35353,-11.21702 1.57624,-13.06838 0.22273,-1.85134 0.85525,-7.55391 1.40563,-12.67236 0.55037,-5.11845 1.79191,-15.89987 2.759,-23.9587 1.85219,-15.43472 5.66986,-48.40225 6.02578,-52.03576 l 0.20946,-2.13831 -1.73701,0.26908 c -0.95534,0.14803 -2.22399,0.62323 -2.81921,1.05608 -1.06002,0.77087 -1.09753,0.77171 -1.82832,0.0409 -0.65737,-0.65737 -0.90548,-0.68766 -2.08589,-0.25473 -6.27876,2.30291 -9.24266,3.4321 -9.82109,3.74166 -0.48249,0.25822 -0.82404,1.30292 -1.17453,3.59242 -0.57207,3.73701 -1.33382,6.03344 -1.04733,3.1574 0.44691,-4.48664 0.63769,-7.52422 0.47258,-7.52422 -0.0991,0 -1.31282,0.34394 -2.69706,0.7643 -3.21372,0.97594 -20.65121,5.71214 -24.29742,6.59942 -1.52465,0.37101 -3.46842,1.02236 -4.3195,1.44744 -2.42417,1.21075 -4.99363,1.84121 -7.36285,1.80657 -1.61739,-0.0237 -3.60523,0.45296 -7.72222,1.85147 -4.18603,1.42196 -6.33616,1.9332 -8.77727,2.08697 l -3.23308,0.20366 -0.20585,1.23333 c -0.11315,0.67833 -0.32001,1.97675 -0.45957,2.88536 -0.24463,1.59272 -1.15265,2.50325 -1.82105,1.82607 -0.42905,-0.43472 -1.54094,-5.96009 -1.54132,-7.65952 -3.6e-4,-1.57703 -0.88624,-3.16198 -1.34891,-2.41337 -0.15479,0.25046 -0.38774,1.72329 -0.51766,3.27297 l -0.23621,2.81761 -4.39393,2.12967 c -5.68723,2.75653 -8.52284,3.46706 -12.8932,3.23065 -2.85157,-0.15425 -3.93927,-0.43046 -6.94519,-1.76365 -4.46541,-1.98048 -8.92503,-4.62182 -13.04433,-7.72582 -5.90355,-4.44852 -5.72749,-4.17835 -6.40048,-9.82105 -0.14294,-1.19793 -0.39167,-3.15819 -0.55287,-4.35613 l -0.29307,-2.17806 -0.0519,1.9042 c -0.0286,1.04731 0.13935,3.13657 0.37299,4.6428 0.2337,1.50623 0.36736,3.11225 0.29701,3.56895 -0.11944,0.775 -0.23572,0.73778 -1.74563,-0.55862 -1.48359,-1.27382 -3.86043,-5.51153 -3.86043,-6.88284 0,-0.27303 -0.13545,-0.49643 -0.30098,-0.49643 -0.16552,0 -0.37301,-0.31186 -0.46107,-0.69302 -0.088,-0.38116 -0.28976,0.37622 -0.44827,1.68305 -0.26049,2.14769 -0.58319,3.34068 -1.78125,6.58516 -0.35913,0.97256 -0.493,1.02112 -2.03685,0.7388 l -1.65247,-0.30216 0.23296,1.16475 c 0.23114,1.1557 0.21994,1.16379 -1.44472,1.04322 l -1.67766,-0.12153 -1.66204,-3.34093 c -0.95118,-1.91197 -2.05214,-3.55277 -2.5741,-3.83625 -0.50162,-0.27244 -2.15947,-0.70449 -3.6841,-0.96011 -1.52466,-0.25563 -4.7148,-0.89053 -7.08921,-1.4109 -5.64892,-1.23798 -6.27379,-1.21829 -7.49779,0.23636 l -0.99498,1.18247 -0.26472,-1.20523 c -0.20899,-0.95148 -0.44465,-1.17764 -1.11928,-1.07408 -0.89316,0.1371 -0.91676,0.22989 -0.50443,1.98286 0.19704,0.83771 0.12688,1.02983 -0.31429,0.86054 -0.9382,-0.36001 -2.31488,0.60219 -2.0903,1.46099 0.10904,0.41696 0.015,0.75811 -0.20917,0.75811 -0.23848,0 -0.19988,0.25009 0.0931,0.6031 0.42311,0.5098 0.38994,0.56065 -0.21448,0.32871 -0.53039,-0.20354 -0.6313,-0.13889 -0.39084,0.25012 0.20832,0.33707 0.17055,0.42957 -0.10568,0.25885 -0.23641,-0.14608 -0.54177,-0.0846 -0.67858,0.1368 -0.1368,0.22137 0.0509,0.40247 0.41714,0.40247 0.57561,0 0.5922,0.0908 0.12237,0.67003 -0.3693,0.45529 -0.38484,0.57472 -0.0485,0.37264 0.50863,-0.30557 0.5711,-0.11614 0.59216,1.79521 0.008,0.7768 0.18933,1.02159 0.68402,0.92633 0.36981,-0.0712 0.9245,0.0301 1.23265,0.22515 0.44227,0.27995 0.39347,0.36516 -0.23176,0.40454 -0.43561,0.0274 -1.21301,0.015 -1.72754,-0.0281 -0.56293,-0.047 -0.83389,0.0864 -0.68034,0.33488 0.14035,0.2271 0.56133,0.29821 0.93552,0.15804 0.57457,-0.21523 0.60232,-0.15879 0.17849,0.36311 -0.52482,0.64626 -0.28052,1.90639 0.36958,1.90639 0.20736,0 0.26688,-0.1782 0.13227,-0.39601 -0.13462,-0.2178 -0.056,-0.39602 0.17463,-0.39602 0.23066,0 0.37483,-0.13366 0.32038,-0.29699 -0.0544,-0.16336 0.0346,-0.34157 0.19801,-0.39603 0.16335,-0.0545 0.28179,0.015 0.26318,0.15373 -0.0186,0.13905 0.20416,0.42313 0.49502,0.63139 0.39606,0.28357 0.35483,0.32266 -0.16418,0.1557 -0.89336,-0.28739 -0.90219,0.38782 -0.0115,0.88622 0.55769,0.3121 0.3959,0.4381 -0.89103,0.69387 -0.86485,0.1719 -1.67641,0.28636 -1.80346,0.25436 -0.12706,-0.032 -0.23101,0.17666 -0.23101,0.46369 0,0.4032 0.30862,0.43666 1.35717,0.14713 0.74645,-0.2061 1.45927,-0.27265 1.58405,-0.14788 0.12478,0.12483 -0.0807,0.22687 -0.45652,0.22687 -0.37586,0 -0.57052,0.18262 -0.43257,0.40583 0.13794,0.22319 0.0371,0.35685 -0.22414,0.297 -0.98918,-0.22662 -0.77366,0.85749 0.29257,1.47171 l 1.11354,0.64145 -1.30673,-0.214 c -0.9711,-0.15903 -1.23128,-0.0883 -1.01301,0.27506 0.18085,0.30113 0.0277,0.27308 -0.39867,-0.073 -0.59795,-0.4854 -0.67583,-0.4854 -0.57103,0 0.0857,0.39687 -0.21398,0.53804 -1.01968,0.48037 -1.05551,-0.0756 -1.08561,-0.0412 -0.40164,0.45898 0.46714,0.34158 0.97232,0.41599 1.37203,0.20206 0.43969,-0.23532 0.63265,-0.16924 0.63265,0.21662 0,0.30536 -0.17879,0.44471 -0.39731,0.30966 -0.24176,-0.14937 -0.29168,0.0296 -0.12751,0.45752 0.20051,0.52251 0.11609,0.64409 -0.32871,0.47341 -0.66289,-0.25438 -0.82885,0.34841 -0.2025,0.73551 0.21781,0.13455 0.39329,0.54608 0.38995,0.9144 -0.005,0.53727 -0.0747,0.56121 -0.35345,0.12108 -0.2771,-0.43755 -0.44012,-0.37521 -0.80583,0.30811 -0.25214,0.47112 -0.62771,0.752 -0.83459,0.62414 -0.20687,-0.12782 -0.37614,0.0349 -0.37614,0.36155 0,0.32671 0.17821,0.70415 0.39601,0.83877 0.72296,0.44681 0.40985,0.99002 -0.57064,0.99002 -1.56309,0 -1.56284,0.70906 7.9e-4,2.22756 1.17961,1.14556 1.29097,1.36742 0.57178,1.13915 -0.64645,-0.20517 -0.81155,-0.15145 -0.59775,0.19447 0.22165,0.35865 0.10668,0.37695 -0.46061,0.0733 -0.64606,-0.34576 -0.76812,-0.25813 -0.83936,0.60262 -0.0683,0.82566 0.0173,0.92369 0.47495,0.54387 0.40793,-0.33855 0.63193,-0.34424 0.83163,-0.0211 0.15032,0.24324 0.51689,0.34877 0.81459,0.23454 0.29771,-0.1142 0.64934,-0.0329 0.78141,0.18082 0.13207,0.21369 0.0932,0.36301 -0.0863,0.33181 -1.22015,-0.21195 -2.88701,0.10463 -2.80152,0.53211 0.0544,0.27226 -0.1683,0.4479 -0.49502,0.39032 -0.36076,-0.0636 -0.22691,0.20852 0.34089,0.69302 0.51419,0.43874 0.72422,0.79771 0.46672,0.79771 -0.25749,0 -0.74941,0.28124 -1.09315,0.62498 -0.49092,0.49093 -0.50609,0.60829 -0.0707,0.5471 1.01394,-0.14249 1.45748,0.0105 1.6752,0.57791 0.27301,0.71146 -1.11138,2.34532 -1.79433,2.11767 -0.33342,-0.11121 -0.20151,-0.3373 0.37744,-0.64714 0.92554,-0.49533 1.17537,-1.41334 0.4985,-1.83168 -0.22449,-0.13875 -0.29087,0.0202 -0.15564,0.37264 0.13004,0.33889 0.0287,0.61459 -0.22591,0.61459 -0.25396,0 -0.33733,-0.20132 -0.18525,-0.44739 0.16763,-0.27124 0.0606,-0.37541 -0.27196,-0.26456 -0.30165,0.10058 -0.56662,0.43552 -0.58882,0.74439 -0.0863,1.20033 -0.18736,1.33281 -0.57959,0.75959 -0.33482,-0.48931 -0.3861,-0.45441 -0.29095,0.198 0.0635,0.43561 -0.0776,0.75737 -0.3135,0.71502 -0.23595,-0.0423 -0.42901,0.14474 -0.42901,0.41571 0,0.271 0.33056,0.51761 0.73458,0.54806 0.40402,0.0304 0.64947,-0.0825 0.54544,-0.25072 -0.10402,-0.16832 0.0533,-0.30604 0.34959,-0.30604 0.40983,0 0.43721,0.16256 0.11444,0.67942 -0.33268,0.53268 -0.67425,0.60772 -1.58188,0.3474 -0.93586,-0.26839 -1.11519,-0.22154 -0.93631,0.24463 0.1217,0.31713 0.0677,0.5766 -0.11994,0.5766 -0.18767,0 -0.4515,-0.28737 -0.58628,-0.63861 -0.20953,-0.54602 -0.34153,-0.56038 -0.91041,-0.0989 -0.57274,0.46451 -0.61498,0.45693 -0.30346,-0.0543 0.77829,-1.27749 0.43151,-1.82408 -1.04628,-1.64914 -0.4046,0.0479 -1.54942,-6.6944 -1.59971,-9.42132 -0.0318,-1.72681 0.11329,-2.60968 0.44729,-2.72102 0.38313,-0.12767 0.37536,-0.23839 -0.0345,-0.49172 -0.30484,-0.1884 -0.55679,-1.13291 -0.59463,-2.22912 -0.0581,-1.68316 -0.52979,-5.05998 -1.20611,-8.63441 -0.12363,-0.65343 -0.3075,-1.63355 -0.40858,-2.17807 -0.10107,-0.54451 -0.32758,-3.03939 -0.50335,-5.54416 -0.17576,-2.50478 -0.51218,-5.62336 -0.74759,-6.93021 -0.23542,-1.30683 -0.53499,-3.22599 -0.6657,-4.26478 -0.13071,-1.0388 -0.39348,-1.79242 -0.58392,-1.67472 -0.19045,0.11765 -0.53,-0.10163 -0.75457,-0.48735 -0.22457,-0.38574 -0.41373,-0.4786 -0.42035,-0.20634 -0.0217,0.89222 -1.97779,0.56815 -2.39029,-0.39601 -0.42843,-1.00139 -1.77342,-7.71696 -2.18112,-10.89031 -0.32706,-2.54577 -0.9848,-2.74197 -0.9848,-0.29375 0,1.75859 1.64411,9.54062 2.34195,11.08505 0.19682,0.43561 0.55646,2.57408 0.7992,4.75214 0.25687,2.30489 0.65684,4.12565 0.95692,4.35614 0.28357,0.2178 0.81897,0.8623 1.18977,1.43221 0.66931,1.02869 0.66694,1.03483 -0.32676,0.84486 -0.74813,-0.14309 -1.00096,-0.024 -1.00096,0.47149 0,1.24934 0.88588,4.18164 1.26333,4.18164 0.57718,0 1.50875,1.05996 1.50875,1.71668 0,0.39026 -0.26386,0.51624 -0.79202,0.37812 -0.99814,-0.26103 -1.00497,-0.59571 0.17747,8.69893 0.53322,4.19145 1.33752,10.7394 1.78732,14.55101 0.44981,3.8116 1.62182,13.52379 2.60447,21.58263 0.98265,8.05883 2.48677,20.5332 3.34249,27.7208 2.11481,17.76348 2.20259,18.47698 3.60502,29.30487 0.67705,5.22735 1.29883,9.57422 1.38174,9.65971 0.31926,0.32921 1.38376,-0.90291 1.1981,-1.38676 -0.12395,-0.32298 0.0186,-0.42811 0.38809,-0.28631 0.45425,0.17431 0.48122,0.34789 0.1214,0.78142 -0.2544,0.30655 -0.34805,0.67184 -0.20811,0.81178 0.13994,0.13995 0.25444,0.0465 0.25444,-0.20758 0,-1.15005 0.74971,-0.30036 0.99003,1.12204 l 0.26762,1.58405 h 2.05282 c 6.47877,0 13.72412,4.65515 18.54031,11.91215 3.36502,5.07042 5.87004,12.20773 5.87004,16.72494 0,1.45629 0.14968,2.64782 0.33246,2.64782 0.60625,0 1.25151,-1.99056 1.25767,-3.87974 0.003,-1.02434 0.17881,-2.12974 0.38994,-2.45644 0.21113,-0.32671 0.38661,-0.39854 0.38995,-0.1596 0.003,0.23892 0.36248,0.84537 0.79809,1.34763 0.43562,0.50226 0.79204,0.70773 0.79204,0.45661 0,-0.25114 0.17621,-0.45661 0.39157,-0.45661 0.21537,0 0.37775,0.40096 0.36086,0.89102 -0.0376,1.08825 0.99985,3.9569 1.31643,3.64032 0.12543,-0.12542 0.21776,0.006 0.20523,0.29341 -0.065,1.48817 0.12318,1.87499 0.79501,1.63391 0.38116,-0.1368 0.56564,-0.10777 0.40995,0.0645 -0.60562,0.66998 0.70464,1.91121 6.48852,6.14668 6.28401,4.60171 6.63903,4.71786 6.66494,2.18058 0.006,-0.65342 0.1637,-1.42717 0.34895,-1.71945 0.52893,-0.83455 0.78724,1.2473 0.39818,3.20915 l -0.33285,1.6784 2.38025,2.23958 c 1.30913,1.23177 5.00278,4.16751 8.2081,6.52388 3.20532,2.35639 7.43884,5.5364 9.40782,7.0667 1.96897,1.53031 4.01833,3.09086 4.55413,3.46789 2.46881,1.73726 -16.01629,-5.63494 -28.41616,-11.33292 -2.66069,-1.22263 -4.93169,-2.22296 -5.04667,-2.22296 -0.30611,0 -7.70634,-3.33298 -12.34315,-5.5592 -5.17481,-2.48455 -5.89664,-2.66549 -6.45696,-1.61852 -0.271,0.50637 -0.69319,0.7367 -1.12157,0.61192 -3.29261,-0.95909 32.7022,15.63414 56.53674,26.06287 4.46504,1.95366 8.92017,3.90438 9.90029,4.33491 3.43353,1.50826 5.59799,1.90373 9.7023,1.77274 3.59403,-0.11465 4.28819,-0.26984 7.5093,-1.67823 z m 5.40699,-6.10971 c -0.0295,-0.63753 0.27349,-1.18999 0.84509,-1.54114 0.85423,-0.52476 0.8641,-0.51644 0.2389,0.20174 -0.35868,0.41202 -0.73897,1.10554 -0.84511,1.54115 -0.15886,0.65215 -0.20105,0.61652 -0.23888,-0.20175 z m -48.06234,-21.11626 c -0.16335,-0.39898 -0.28571,-1.29001 -0.27191,-1.98006 0.0245,-1.22442 0.0344,-1.23117 0.41424,-0.27988 0.21402,0.53613 0.33637,1.42717 0.27191,1.98007 -0.10028,0.86015 -0.16011,0.90055 -0.41424,0.27987 z m -29.77444,-26.91348 c 0.14877,-0.39056 0.37015,-0.61034 0.49208,-0.48842 0.12199,0.12199 2.6e-4,0.44148 -0.27039,0.7101 -0.39111,0.38819 -0.4366,0.34271 -0.22169,-0.22168 z m 1.3792,-0.47794 c 0.0413,-0.2178 0.0513,-0.66332 0.0223,-0.99003 -0.0471,-0.52802 -0.0956,-0.52802 -0.43686,0 -0.31398,0.48585 -0.38497,0.44061 -0.38994,-0.24852 -0.003,-0.46339 0.29546,-1.08711 0.66397,-1.38604 0.43413,-0.35213 0.56712,-0.37209 0.3777,-0.0567 -0.16078,0.26775 -0.0893,0.86604 0.15869,1.32955 0.33907,0.63357 0.3366,0.95502 -0.0105,1.29521 -0.25355,0.24888 -0.42716,0.2743 -0.38582,0.0564 z m -33.64837,-28.14982 c 0.019,-0.46133 0.11284,-0.55516 0.23925,-0.23926 0.1144,0.28587 0.10033,0.62743 -0.0313,0.75902 -0.13159,0.13156 -0.22518,-0.10238 -0.20799,-0.51976 z m 0.83796,-1.94706 c 0.008,-0.65341 0.0968,-0.87279 0.19723,-0.48748 0.1004,0.38532 0.0938,0.91992 -0.0147,1.18803 -0.10848,0.26813 -0.19063,-0.0471 -0.18256,-0.70055 z m -5.87109,-57.01764 c -0.13428,-0.34991 -0.13302,-0.74732 0.003,-0.88312 0.13581,-0.13575 0.24692,-0.0284 0.24692,0.23844 0,0.26698 0.17821,0.37525 0.39602,0.24065 0.2178,-0.13456 0.39601,-0.0666 0.39601,0.15126 0,0.71237 -0.79167,0.90446 -1.04175,0.25277 z m 5.99189,-22.38268 c 0.13462,-0.21781 0.32334,-0.39601 0.41939,-0.39601 0.0961,0 0.17463,0.1782 0.17463,0.39601 0,0.2178 -0.18872,0.39602 -0.41938,0.39602 -0.23066,0 -0.30925,-0.17822 -0.17464,-0.39602 z m 1.81332,-8.15123 c 0.019,-0.46134 0.11284,-0.55517 0.23926,-0.23927 0.11439,0.28588 0.10032,0.62743 -0.0313,0.75903 -0.1316,0.13156 -0.22519,-0.10223 -0.20799,-0.51976 z m 2.34481,-5.15094 c 0,-0.0359 0.30151,-0.30981 0.67003,-0.60874 0.36852,-0.29893 0.54562,-0.33597 0.39355,-0.0823 -0.15207,0.25365 -0.0526,0.54735 0.22099,0.65266 0.27361,0.10538 0.0965,0.17171 -0.39355,0.14758 -0.49006,-0.0241 -0.89102,-0.0732 -0.89102,-0.10911 z m -16.13662,-7.48843 c 0.004,-0.87122 0.0855,-1.18102 0.18022,-0.68841 0.0947,0.4926 0.0911,1.20543 -0.008,1.58406 -0.0991,0.37861 -0.17662,-0.0244 -0.17223,-0.89565 z m -0.46461,-2.40907 c 0.019,-0.46133 0.11283,-0.55517 0.23925,-0.23926 0.1144,0.28586 0.10033,0.62743 -0.0313,0.75903 -0.13159,0.13156 -0.22519,-0.10238 -0.20799,-0.51977 z m -0.39602,-2.37607 c 0.019,-0.46133 0.11284,-0.55517 0.23926,-0.23926 0.1144,0.28586 0.10033,0.62743 -0.0313,0.75903 -0.13159,0.13156 -0.22519,-0.10223 -0.20799,-0.51977 z m 182.59267,-7.68923 c 0,-0.54452 0.09,-0.76728 0.19976,-0.49501 0.10986,0.27226 0.10986,0.71776 0,0.99002 -0.10986,0.27226 -0.19976,0.0495 -0.19976,-0.49501 z m -175.6205,166.26532 1.11481,-0.45554 -1.78205,-0.33189 c -2.95206,-0.54975 -6.51295,-2.54257 -8.23662,-4.60952 -3.01192,-3.61177 -5.19915,-9.56961 -5.25289,-14.30844 -0.0214,-1.88837 -0.0835,-2.06821 -0.42267,-1.22369 -0.59479,1.48114 -0.45659,6.42186 0.24736,8.84337 1.59337,5.48099 6.87301,11.39135 10.87616,12.17544 2.08768,0.40893 2.24564,0.40482 3.4559,-0.0897 z m -0.27123,-3.10855 c 0,-0.21781 -0.36745,-0.39601 -0.81655,-0.39601 -0.4491,0 -1.80082,-0.46564 -3.00383,-1.03476 -2.33176,-1.10309 -4.76501,-3.91767 -6.72289,-7.7765 -0.52493,-1.03457 -1.02615,-1.88105 -1.11383,-1.88105 -0.29449,0 0.64982,2.95508 1.44121,4.51005 1.05845,2.07973 4.07889,5.02278 6.25577,6.09549 1.85196,0.91261 3.96012,1.16961 3.96012,0.48278 z M 135.96992,351.01 c 0.003,-0.37034 0.31792,-0.85498 0.69908,-1.077 0.65678,-0.38253 0.65613,-0.40426 -0.012,-0.41568 -0.73297,-0.012 -0.84868,0.18743 -1.25356,2.16601 -0.1791,0.87524 -0.13725,1.03164 0.15886,0.59403 0.22108,-0.32671 0.4047,-0.89703 0.40804,-1.26736 z m 5.19076,-5.63143 c 0.38018,-3.22369 0.35257,-4.03225 -0.19232,-5.63144 -0.34993,-1.027 -0.63624,-2.13222 -0.63624,-2.45606 0,-0.32382 -0.56588,-2.00678 -1.25749,-3.73989 -2.40375,-6.02364 -8.46245,-13.02426 -13.24149,-15.30014 -0.89571,-0.42656 -2.85597,-1.09527 -4.35612,-1.48604 -1.50016,-0.39076 -2.87802,-0.89144 -3.06192,-1.11261 -0.19727,-0.23725 -0.24628,-0.12662 -0.11953,0.26982 0.18671,0.58395 -0.0288,0.64686 -1.64569,0.48045 -1.0233,-0.10537 -2.75156,0.0512 -3.84059,0.34778 l -1.98006,0.53925 2.77821,0.2365 c 6.55251,0.55781 13.09773,5.0189 17.86805,12.17851 2.10675,3.16193 4.23116,9.22304 4.73155,13.49949 0.24163,2.06506 0.32208,2.2011 1.20199,2.03289 1.26305,-0.24144 1.21988,0.61952 -0.047,0.93748 -0.54452,0.13666 -1.01677,0.49647 -1.04943,0.79958 -0.0326,0.30309 -0.0772,0.77384 -0.0991,1.0461 -0.0241,0.30213 0.32921,0.44306 0.90695,0.3617 0.72885,-0.10268 0.8911,0.0105 0.70546,0.49501 -0.14892,0.38793 -0.0307,0.62833 0.30902,0.62833 0.30256,0 0.68148,-0.57917 0.84205,-1.28704 0.4837,-2.13254 0.2671,-9.4467 -0.35287,-11.91581 -0.72109,-2.87174 -0.053,-2.36285 0.74904,0.57059 1.21226,4.43371 1.36056,9.92678 0.37732,13.97693 -0.1112,0.45836 0.0606,0.26175 0.38194,-0.43693 0.32134,-0.69867 0.78401,-2.96418 1.02817,-5.03445 z m -6.96276,-12.51224 c 0.1368,-0.22135 0.41464,-0.29995 0.61739,-0.17464 0.54928,0.33948 0.44686,0.57711 -0.24875,0.57711 -0.33956,0 -0.50545,-0.18112 -0.36864,-0.40247 z m -15.74546,14.35544 c -0.38116,-0.0828 -0.69302,-0.31578 -0.69302,-0.51762 0,-0.20183 -0.72334,-0.36697 -1.60742,-0.36697 -1.04095,0 -1.51512,0.14938 -1.34552,0.42376 0.41911,0.67814 1.74902,1.02681 3.09389,0.81114 0.75005,-0.12034 0.96955,-0.25956 0.55207,-0.35031 z m 13.87278,-0.0307 c 0.0885,-0.26546 0.0105,-0.45597 -0.17324,-0.42337 -0.77379,0.13725 -1.35562,-0.0593 -1.15181,-0.38905 0.1205,-0.19498 -0.0472,-0.4567 -0.37264,-0.58158 -0.85672,-0.32875 -0.76592,1.1915 0.10127,1.69568 0.81569,0.47426 1.37287,0.36896 1.59642,-0.30168 z m 9.85319,-2.53696 c -0.10986,-0.27225 -0.19974,-0.0495 -0.19974,0.49502 0,0.54451 0.09,0.76727 0.19974,0.49502 0.10986,-0.27226 0.10986,-0.71778 0,-0.99004 z m 0.22474,-3.41609 c -0.17027,-7.08532 -3.06646,-14.22847 -7.60113,-18.74731 -1.43888,-1.43388 -3.4724,-2.52813 -3.90122,-2.0993 -0.29206,0.29206 1.11458,1.33306 2.20407,1.63113 0.49007,0.13411 0.89103,0.42276 0.89103,0.64152 0,0.21875 0.80008,1.46206 1.77794,2.76291 1.51431,2.01448 3.29767,5.33324 4.53305,8.43582 0.75551,1.89746 1.37866,4.95064 1.52203,7.45746 0.18626,3.25638 0.65285,3.18956 0.57423,-0.0822 z m -26.62379,1.90768 c 0,-0.23066 -0.15195,-0.32548 -0.33767,-0.21069 -0.18572,0.1148 -0.67579,-0.0675 -1.08903,-0.40497 -0.58156,-0.47498 -0.60565,-0.5686 -0.1066,-0.41427 1.53898,0.47592 2.06707,-1.69601 0.65316,-2.68636 -1.17272,-0.82141 -1.4557,-0.78007 -1.8796,0.27456 -0.33588,0.83563 -0.36144,0.81716 -0.41109,-0.29701 -0.0448,-1.00434 -0.10097,-1.06557 -0.36357,-0.39601 -0.32411,0.82635 -0.0402,2.26259 0.73278,3.70691 0.47588,0.8892 2.80162,1.24436 2.80162,0.42784 z m 16.35525,-1.56067 c 0.34093,0 0.733,0.3564 0.87126,0.79202 0.13829,0.43561 0.41968,0.79202 0.62539,0.79202 1.07735,0 -1.67597,-9.19416 -3.7885,-12.6509 -0.7393,-1.20974 -2.46851,-3.27938 -3.84268,-4.5992 -3.45846,-3.32165 -4.31966,-3.9072 -2.87752,-1.95646 0.64408,0.87122 1.30846,1.6447 1.47639,1.71882 0.35006,0.15452 1.47975,2.24133 1.47065,2.71664 -0.003,0.17417 -0.1475,0.094 -0.32036,-0.17831 -0.24941,-0.39279 -0.46393,-0.38557 -1.03908,0.035 -0.68215,0.49879 -0.60195,0.72148 1.3631,3.78482 1.95534,3.04819 3.96252,8.35516 3.96252,10.47684 0,0.73984 0.0326,0.73638 0.73947,-0.0787 0.40671,-0.46894 1.01842,-0.85261 1.35936,-0.85261 z m -13.7061,-2.45548 c -1.03837,-2.48518 -4.01438,-3.94113 -5.34203,-2.61348 -0.74016,0.74017 -0.56496,1.01617 0.51408,0.80989 1.23635,-0.23634 2.85604,0.78927 3.47581,2.20095 0.98456,2.24257 2.29435,1.85766 1.35214,-0.39736 z m 1.96944,-0.98398 c -0.5244,-1.01408 -2.24252,-2.88233 -2.24252,-2.43847 0,0.34287 1.67439,3.69482 2.12626,4.25654 0.72121,0.89655 0.80912,-0.47822 0.11626,-1.81807 z m 3.53124,-0.39601 c -0.35371,-1.04869 -0.99464,-2.35222 -1.42428,-2.89674 -0.59578,-0.75506 -0.48695,-0.25875 0.45856,2.09127 1.34479,3.34247 2.00801,3.89562 0.96572,0.80547 z m -22.80599,-7.25291 c 0.9169,-2.73354 2.58504,-5.31275 3.19306,-4.93696 0.2011,0.12423 1.21417,-0.1536 2.25126,-0.61751 1.03709,-0.46391 2.83698,-0.94523 3.99976,-1.0696 3.75246,-0.40136 2.96198,-2.48415 -0.94281,-2.48415 -1.40195,0 -2.61008,0.30131 -3.84861,0.95985 -0.99288,0.52791 -1.88896,0.8761 -1.9913,0.77376 -0.28967,-0.28967 -2.60346,2.79214 -3.23986,4.31528 -0.807387,1.93234 -1.412177,6.06539 -1.104497,7.54804 l 0.26012,1.2535 0.27974,-1.58408 c 0.153867,-0.87127 0.668277,-2.74242 1.143137,-4.15813 z m 27.71863,-12.28215 c -0.54126,-0.40904 -1.3136,-0.83029 -1.7163,-0.93612 -0.88255,-0.23192 -0.80687,-0.14713 0.94782,1.06252 1.58235,1.09079 2.23673,0.98316 0.76848,-0.12648 z m -5.57125,-2.11969 c -0.0907,-0.0799 -0.87782,-0.25402 -1.74905,-0.38667 -1.104,-0.1681 -1.34402,-0.13246 -0.79202,0.11764 0.76023,0.34443 2.88132,0.569 2.54107,0.26903 z m -3.92712,-89.55115 c 0,-0.301 -0.20573,-0.67442 -0.45719,-0.82984 -0.27288,-0.16865 -0.35011,-0.10926 -0.19155,0.14728 0.14611,0.23641 0.0816,0.54355 -0.14328,0.68256 -0.22492,0.13904 -0.30461,0.42154 -0.17711,0.62785 0.30631,0.4956 0.96913,0.0662 0.96913,-0.62785 z m 3.1681,-6.53419 c -0.43164,-0.27894 -0.45231,-0.38554 -0.0756,-0.38994 0.28511,-0.003 0.4029,-0.19293 0.26175,-0.4213 -0.17568,-0.28426 -0.43152,-0.2701 -0.81103,0.0449 -0.66679,0.55339 -0.3764,1.16471 0.54928,1.15633 0.5771,-0.004 0.58755,-0.0591 0.0756,-0.38994 z m -0.39601,-4.35613 c 0,-0.2178 -0.0786,-0.39601 -0.17464,-0.39601 -0.096,0 -0.28477,0.17821 -0.41938,0.39601 -0.13461,0.21781 -0.056,0.39602 0.17464,0.39602 0.23066,0 0.41938,-0.17821 0.41938,-0.39602 z m 1.18803,-1.98005 c 0.32671,-0.21114 0.41582,-0.38388 0.19801,-0.38388 -0.21781,0 -0.66332,0.17274 -0.99003,0.38388 -0.32671,0.21113 -0.41581,0.38389 -0.19801,0.38389 0.21781,0 0.66332,-0.17276 0.99003,-0.38389 z m 2.58355,-2.80193 c 0.37449,-1.17991 0.0631,-1.27193 -0.47138,-0.13935 -0.24948,0.52865 -0.30417,0.96117 -0.12153,0.96117 0.18263,0 0.44945,-0.36984 0.59291,-0.82187 z m -9.92668,-1.13082 c 0.12531,-0.20276 0.0764,-0.46224 -0.10863,-0.5766 -0.18506,-0.11435 -0.33647,0.0515 -0.33647,0.36865 0,0.66773 0.12487,0.72608 0.4451,0.20795 z m 9.57549,-0.22309 c 0.52497,-0.52498 0.48208,-0.58266 -0.38013,-0.5113 -0.6115,0.0506 -0.89911,0.27001 -0.77566,0.59174 0.25174,0.656 0.43187,0.64347 1.15579,-0.0804 z m -9.19029,-1.34345 c 0.11936,-0.19313 -0.0383,-0.56302 -0.35029,-0.82197 -0.46295,-0.38421 -0.55591,-0.31961 -0.50538,0.35115 0.0642,0.85254 0.47877,1.08065 0.85567,0.47082 z m 9.334,-1.40755 c 0,-0.0961 -0.1782,-0.28477 -0.39601,-0.41937 -0.2178,-0.13456 -0.39601,-0.056 -0.39601,0.17462 0,0.23067 0.17821,0.41939 0.39601,0.41939 0.21781,0 0.39601,-0.0786 0.39601,-0.17464 z m 0.79203,-3.9373 c 0,-0.0835 -0.35666,-0.24508 -0.79257,-0.35907 -0.43592,-0.11405 -0.69271,-0.0456 -0.57065,0.15182 0.21315,0.34489 1.36322,0.51974 1.36322,0.20725 z m -0.39602,-4.60031 c 0,-0.2178 -0.0786,-0.39602 -0.17463,-0.39602 -0.0961,0 -0.28477,0.17822 -0.41938,0.39602 -0.13462,0.21781 -0.056,0.39601 0.17463,0.39601 0.23066,0 0.41938,-0.1782 0.41938,-0.39601 z m 0,-1.73357 c 0,-0.0822 -0.27138,-0.37475 -0.60308,-0.65003 -0.50426,-0.4185 -0.56221,-0.394 -0.35364,0.14953 0.21301,0.55509 0.95672,0.94417 0.95672,0.5005 z m 121.17961,-3.82865 c 25.73457,-6.4681 50.33018,-13.02842 65.47158,-17.46301 5.84319,-1.71135 10.6782,-3.11153 10.74448,-3.11153 0.14279,0 0.55213,-5.39993 0.70219,-9.26311 0.0871,-2.24105 -0.0177,-2.80689 -0.58564,-3.1652 -0.50374,-0.31775 -0.88161,-0.31767 -1.39081,3.3e-4 -0.38454,0.24015 -1.67714,0.71893 -2.87246,1.06394 -3.94928,1.13995 -45.83531,10.98837 -46.52659,10.93955 -1.2457,-0.088 45.47077,-11.85187 47.06592,-11.85187 2.01121,0 1.39363,-0.74075 -0.82621,-0.991 -1.25533,-0.14144 -6.74155,-1.04384 -12.19157,-2.00518 -5.45004,-0.96134 -15.51863,-2.64286 -22.37466,-3.73674 -6.85602,-1.09386 -15.67319,-2.53412 -19.59372,-3.20056 -3.9205,-0.66644 -11.76153,-1.8962 -17.42451,-2.7328 -5.66296,-0.8366 -15.37514,-2.32447 -21.58263,-3.30636 -6.20748,-0.98192 -14.58313,-2.25482 -18.61254,-2.8287 -4.02942,-0.57388 -9.55379,-1.40143 -12.27636,-1.839 -9.58741,-1.54086 -12.27335,-1.39871 -31.08691,1.6453 -3.92051,0.63435 -10.51414,1.59493 -14.65248,2.13462 -11.31981,1.47629 -20.70641,2.94779 -21.48371,3.36795 -0.38112,0.206 -2.5641,0.56412 -4.85107,0.7958 -5.97595,0.60543 -27.538717,3.941 -30.01018,4.64233 l -2.091354,0.59347 0.111297,4.57404 c 0.102646,4.21866 0.179427,4.61923 0.988123,5.15536 l 0.876829,0.58129 -0.24363,-3.99898 c -0.199947,-3.282 -0.144151,-3.99833 0.311208,-3.99527 0.666133,0.004 5.75782,1.03608 14.613247,2.96074 3.59381,0.78108 9.38548,2.02754 12.87038,2.7699 3.48491,0.74235 9.00927,1.972 12.27637,2.73255 3.26709,0.76054 8.16774,1.86363 10.89032,2.45133 2.72258,0.58767 9.8508,2.27791 15.84052,3.75607 12.82275,3.16448 12.16441,3.70375 -0.99004,0.81098 -4.79177,-1.05375 -12.18729,-2.66027 -16.43452,-3.57006 -11.25099,-2.41005 -14.89606,-3.26132 -36.43309,-8.50867 -8.404187,-2.04761 -10.692317,-2.46732 -10.692317,-1.96125 0,0.68056 1.13359,1.97333 2.65458,3.02738 1.96684,1.36303 13.156047,4.88373 14.221577,4.47484 0.72309,-0.27747 10.55646,2.19255 11.16997,2.80577 0.28781,0.28768 1.06401,0.52304 1.72489,0.52304 1.63722,0 5.76465,1.10073 6.88839,1.83704 0.50463,0.33064 1.50662,0.68506 2.22665,0.7876 2.88592,0.41094 8.46793,1.90352 8.9603,2.39587 0.28801,0.28802 0.68913,0.52366 0.89138,0.52366 0.20225,0 0.36773,0.1525 0.36773,0.33889 0,0.6348 -11.17344,-1.62813 -12.57569,-2.54692 -0.5011,-0.32834 -1.06437,-0.50223 -1.25171,-0.38644 -0.35266,0.21795 -5.24034,-0.72986 -12.11138,-2.34861 -2.17806,-0.51314 -5.02935,-1.14129 -6.33618,-1.39588 -1.30684,-0.2546 -4.33633,-0.88633 -6.73221,-1.40384 -5.700477,-1.2313 -9.345597,-1.85415 -9.565307,-1.63443 -0.0972,0.0973 0.94594,0.44438 2.31818,0.77143 1.37225,0.32705 5.346277,1.33852 8.831177,2.24769 10.00309,2.60976 60.22711,14.67436 61.08817,14.67436 0.0783,0 0.04,-0.16581 -0.0853,-0.36847 -0.12528,-0.20264 -2.14058,-1.11131 -4.47851,-2.01925 -2.33792,-0.90793 -4.38955,-1.78083 -4.55916,-1.93977 -0.88682,-0.83105 3.2761,-0.0718 15.95084,2.90891 3.37601,0.79394 7.74203,1.81696 9.70228,2.27336 4.43279,1.03209 8.05675,2.39985 10.9063,4.11628 1.20671,0.72688 2.68503,1.50826 3.28513,1.73643 0.70745,0.26896 1.04994,0.65738 0.97406,1.10466 -0.0985,0.58048 1.35832,1.11187 9.18923,3.35191 11.18221,3.19868 15.12246,4.2111 17.2265,4.42627 3.93161,0.40206 7.82833,-0.27104 21.58263,-3.72804 z m -25.93877,-7.00642 c -0.43561,-0.0841 -4.53432,-1.29277 -9.10825,-2.68591 -8.70017,-2.64989 -13.70414,-3.99845 -16.03848,-4.32233 -3.15015,-0.43708 -6.80779,-1.51636 -6.27755,-1.85236 0.71726,-0.45453 2.02616,-0.44522 1.74334,0.012 -0.25045,0.40523 2.07823,1.03616 2.45047,0.66392 0.12962,-0.12961 -0.091,-0.23569 -0.49033,-0.23569 -0.39932,0 -0.62724,-0.0988 -0.50653,-0.21949 0.12079,-0.12079 2.24434,0.22662 4.71915,0.77188 2.4748,0.54526 6.99451,1.4565 10.04379,2.02499 3.04929,0.56849 7.50443,1.48204 9.90029,2.03012 2.39587,0.54807 4.84619,0.92479 5.44517,0.83715 1.2927,-0.18913 1.372,0.0772 0.297,0.99767 -0.43561,0.37297 -0.79201,0.93667 -0.79201,1.25266 0,0.72213 -0.37772,0.9197 -1.38606,0.725 z m 3.1681,-1.29177 c -0.61573,-0.26459 -0.4226,-0.34654 0.86766,-0.36818 0.91281,-0.0153 1.76982,0.15037 1.90442,0.36818 0.29741,0.48123 -1.65219,0.48123 -2.77208,0 z m 10.3953,-1.05429 c 0.27226,-0.10986 0.71778,-0.10986 0.99003,0 0.27226,0.10986 0.0496,0.19974 -0.49501,0.19974 -0.54452,0 -0.76727,-0.09 -0.49502,-0.19974 z m -10.79131,-2.11381 c -0.3181,-0.5147 2.56966,-0.5147 3.36611,0 0.43019,0.27804 0.0817,0.38556 -1.26367,0.38996 -1.02173,0.003 -1.96783,-0.17214 -2.10244,-0.38996 z m 19.00856,-2.40228 c 1.52464,-0.4107 2.94489,-0.69342 3.1561,-0.62827 0.44499,0.13726 -4.64881,1.46423 -5.41556,1.41077 -0.28194,-0.0196 0.73481,-0.37179 2.25946,-0.7825 z m 4.08386,-1.03632 c 0.28588,-0.11435 0.62743,-0.10028 0.75903,0.0313 0.13156,0.13156 -0.10238,0.22518 -0.51976,0.20799 -0.46134,-0.019 -0.55517,-0.11286 -0.23927,-0.23926 z m -61.50553,-1.71909 c -1.153,-0.30266 -1.14423,-0.31056 0.29699,-0.26822 0.81679,0.024 1.48505,0.18542 1.48505,0.35871 0,0.35375 -0.11121,0.34811 -1.78204,-0.0906 z m 51.18448,0.14323 c 0.27226,-0.10986 0.71778,-0.10986 0.99004,0 0.27225,0.10987 0.0495,0.19974 -0.49502,0.19974 -0.54451,0 -0.76727,-0.0899 -0.49502,-0.19974 z m -25.04772,-1.15572 c -12.5217,-2.15525 -20.45476,-3.68117 -50.49148,-9.71201 -33.15957,-6.65784 -36.88335,-7.43201 -46.71962,-9.71295 -7.12958,-1.65329 -7.93005,-1.91998 -7.93005,-2.64202 0,-0.73008 2.52806,-0.54506 6.3899,0.46767 1.66308,0.43612 4.45086,1.06367 6.19505,1.39452 1.74419,0.33087 5.10592,1.04366 7.47052,1.58397 2.36459,0.5403 10.53645,2.23576 18.15967,3.76769 7.62322,1.53192 17.78097,3.60188 22.5727,4.59992 4.79175,0.99802 11.20713,2.25383 14.25642,2.79068 3.04929,0.53685 8.48455,1.52161 12.07835,2.18835 13.2895,2.4655 17.52867,3.16492 18.16175,2.99653 0.45646,-0.12139 0.39615,-0.18621 -0.20347,-0.21854 -0.82307,-0.0443 -0.83399,-0.10657 -0.31891,-1.81815 0.40984,-1.36179 0.4238,-1.83506 0.0603,-2.04355 -0.26021,-0.14923 -0.34572,-0.13022 -0.19002,0.0422 0.49664,0.55016 -0.43847,1.78497 -1.14612,1.51343 -0.48361,-0.18558 -0.56967,-0.10477 -0.33187,0.31176 0.25059,0.43885 0.21079,0.46042 -0.1813,0.0982 -0.27629,-0.25524 -0.7034,-0.4181 -0.94912,-0.36191 -0.24572,0.0561 -0.31201,0.0271 -0.14728,-0.0648 0.36109,-0.20128 -0.92343,-2.47536 -1.39821,-2.47536 -0.18369,0 -0.25148,0.13366 -0.15061,0.29701 0.10088,0.16335 -0.28959,0.31902 -0.86766,0.34591 -0.57807,0.0269 -0.82828,-0.0325 -0.55603,-0.13201 0.27226,-0.0995 0.49502,-0.35259 0.49502,-0.56241 0,-0.20983 -0.41838,-0.0659 -0.92973,0.3198 -0.60675,0.45768 -0.86023,0.9671 -0.72964,1.46645 0.13381,0.51175 0.0483,0.67133 -0.25831,0.48186 -0.25211,-0.15583 -0.45839,-0.5281 -0.45839,-0.82727 0,-0.29918 -0.3564,-0.65708 -0.79203,-0.79533 -0.43561,-0.1383 -0.79201,-0.44729 -0.79201,-0.68672 0,-0.23942 -0.10358,-0.33178 -0.23009,-0.20523 -0.12663,0.12662 -0.0472,0.57207 0.17661,0.99003 0.31382,0.58639 0.27594,0.75994 -0.16591,0.75994 -0.31496,0 -0.49111,-0.0816 -0.39147,-0.18117 0.0997,-0.0997 -0.21223,-0.50952 -0.69302,-0.91085 -0.4808,-0.40132 -0.65143,-0.73562 -0.37917,-0.74286 0.27225,-0.007 0.49501,0.19472 0.49501,0.44884 0,0.2541 0.0958,0.36624 0.21284,0.24918 0.3347,-0.33472 -0.68423,-2.2954 -1.06922,-2.05745 -0.18952,0.1172 -0.22502,0.40637 -0.0789,0.64278 0.17072,0.27623 0.0783,0.314 -0.25885,0.10567 -0.37601,-0.23239 -0.45605,-0.14579 -0.28273,0.30587 0.13291,0.34651 0.0296,0.80611 -0.22972,1.02131 -0.34837,0.28913 -0.47147,0.0513 -0.47147,-0.91066 0,-0.77677 0.17408,-1.23514 0.43157,-1.13634 0.23736,0.0912 0.66015,-0.10986 0.93951,-0.44643 0.27937,-0.33661 0.79799,-0.6093 1.15248,-0.60597 0.47106,0.004 0.51115,0.0907 0.14892,0.32074 -0.37495,0.23807 -0.2989,0.52577 0.31244,1.18196 0.95798,1.02827 1.04118,1.05011 1.04118,0.27329 0,-0.32671 -0.19306,-0.59674 -0.42902,-0.60007 -0.23595,-0.003 -0.16171,-0.18154 0.16501,-0.39603 0.528,-0.34661 0.528,-0.43327 0,-0.77989 -0.50855,-0.33383 -0.4943,-0.39081 0.0991,-0.396 0.38116,-0.003 0.69302,-0.17868 0.69302,-0.38965 0,-0.21098 -0.26731,-0.28101 -0.59402,-0.15564 -0.37615,0.14428 -0.59401,-0.006 -0.59401,-0.40845 0,-0.58108 -0.46852,-0.82076 -1.31649,-0.67345 -0.17953,0.0311 -0.22023,-0.1151 -0.0904,-0.32516 0.12977,-0.21002 -0.10148,-0.35644 -0.51386,-0.32537 -0.64243,0.0483 -0.7004,0.22897 -0.40457,1.26046 0.42945,1.4974 0.43936,1.41861 -0.14971,1.19151 -0.27226,-0.10492 -0.54173,-0.84109 -0.59883,-1.63585 -0.0572,-0.79475 -0.32441,-1.71762 -0.59403,-2.05081 -0.34214,-0.42283 -0.34934,-0.52134 -0.0238,-0.32614 0.25743,0.15439 0.96709,-0.16718 1.58406,-0.71777 0.75238,-0.67145 0.87623,-0.91259 0.37896,-0.73778 -0.59223,0.2082 -0.69218,0.11046 -0.50404,-0.49323 0.12902,-0.41412 0.06,-1.02024 -0.15351,-1.34694 -0.30439,-0.46582 -0.36655,-0.38977 -0.28797,0.35234 0.0551,0.52051 -0.12707,0.99722 -0.40472,1.05933 -0.2777,0.0621 -0.33226,0.0257 -0.12123,-0.081 0.21102,-0.10672 0.2865,-0.4471 0.16774,-0.75658 -0.1708,-0.44509 -0.3524,-0.39419 -0.86879,0.24353 -0.64373,0.79498 -0.65358,0.79076 -0.70524,-0.30275 -0.10253,-2.16895 -0.31041,-2.73489 -1.02456,-2.78869 -0.39722,-0.0299 -0.63711,0.0834 -0.53307,0.25164 0.10403,0.16832 -0.0406,0.30605 -0.32145,0.30605 -0.95642,0 -0.5145,-1.02322 0.61143,-1.41572 1.29017,-0.44975 1.50298,-0.85624 0.33002,-0.63035 -0.43561,0.0838 -0.79203,-0.0154 -0.79203,-0.22074 0,-0.20529 0.2707,-0.37327 0.60157,-0.37327 0.57269,0 0.56481,-0.74822 -0.0281,-2.67308 -0.24443,-0.79339 0.3768,-0.57083 0.94465,0.33845 0.4311,0.69031 0.43046,0.78144 -0.003,0.53052 -0.28833,-0.16661 -0.3916,-0.15657 -0.22947,0.0223 0.39322,0.43388 2.67538,0.48647 2.67534,0.0617 -2e-5,-0.18374 -0.36019,-0.42828 -0.8004,-0.54339 -0.64464,-0.16858 -0.70866,-0.31981 -0.32898,-0.77729 0.37335,-0.44984 0.35449,-0.54274 -0.0907,-0.44664 -0.30912,0.0668 -0.65114,0.23528 -0.76005,0.37453 -0.10896,0.1392 -0.42779,0.006 -0.70864,-0.29701 -0.29439,-0.3172 -0.33632,-0.55019 -0.0989,-0.55019 0.22639,0 0.41163,-0.18872 0.41163,-0.41938 0,-0.23066 -0.1659,-0.31686 -0.36865,-0.19155 -0.20276,0.12527 -0.47589,0.0543 -0.60697,-0.15778 -0.26123,-0.42267 1.75676,-1.60736 2.738,-1.60736 0.79437,0 0.79377,-0.63819 -9e-4,-0.94312 -0.41138,-0.15786 -0.52429,-0.0736 -0.34151,0.25464 0.15019,0.26976 -0.14249,0.0944 -0.65046,-0.38956 -0.94891,-0.90422 -0.81956,-1.76521 0.14489,-0.96473 0.4101,0.34034 0.53758,0.31199 0.53758,-0.11959 0,-0.31116 -0.19305,-0.53109 -0.42901,-0.48873 -0.23596,0.0424 -0.38659,-0.13935 -0.33476,-0.40376 0.0518,-0.26442 -0.14892,-0.38744 -0.44615,-0.27339 -0.54428,0.20885 -1.30148,-1.68459 -0.85302,-2.13304 0.41506,-0.41506 16.12628,2.02025 58.03259,8.99526 5.11845,0.85194 14.91974,2.45489 21.78063,3.56213 16.95897,2.73689 21.91423,3.62943 22.34014,4.02393 0.49358,0.45719 -0.78604,0.8905 -5.70765,1.93268 -2.28697,0.48427 -8.16774,1.83612 -13.06839,3.0041 -11.17249,2.66274 -20.18096,4.68417 -26.4297,5.93062 -2.6659,0.53178 -6.4082,1.40192 -8.31624,1.93366 -1.90804,0.53175 -6.85507,1.71268 -10.99339,2.62429 -4.13832,0.91162 -8.12515,1.90544 -8.85963,2.20847 -1.96944,0.81258 -7.32425,0.62866 -13.71303,-0.47099 z m 2.68061,-2.00986 c -0.26811,-0.10851 -0.80273,-0.1151 -1.18803,-0.015 -0.38531,0.10044 -0.16595,0.18918 0.48747,0.19724 0.65341,0.007 0.96867,-0.0741 0.70056,-0.18255 z m -3.67064,-3.45999 c 0,-0.0856 -0.27657,-0.26176 -0.61459,-0.39147 -0.35242,-0.13531 -0.51138,-0.0688 -0.37264,0.15564 0.23256,0.37628 0.98723,0.55657 0.98723,0.23583 z m -6.3362,-2.31129 c 0,-0.23179 -0.25161,-0.19329 -0.59401,0.0908 -0.3267,0.27115 -0.59402,0.55468 -0.59402,0.63008 0,0.0754 0.26732,0.0346 0.59402,-0.0908 0.32671,-0.12543 0.59401,-0.40891 0.59401,-0.63008 z m 5.54417,0.72725 c 0,-0.0856 -0.27657,-0.26177 -0.61459,-0.39147 -0.35242,-0.13531 -0.51137,-0.0688 -0.37264,0.15563 0.23256,0.37629 0.98723,0.55657 0.98723,0.23584 z m -4.04294,-1.52741 c 0.29314,-0.35378 0.19398,-0.76175 -0.34753,-1.42992 -0.41672,-0.51419 -0.75767,-0.74747 -0.75767,-0.51838 0,0.22908 0.1782,0.52664 0.396,0.66126 0.21781,0.13456 0.39601,0.51206 0.39601,0.83877 0,0.32671 -0.1782,0.48388 -0.39601,0.34926 -0.2178,-0.13455 -0.396,-0.056 -0.396,0.17464 0,0.57032 0.60423,0.52898 1.1052,-0.0756 z m -1.1052,-2.84772 c 0,-0.0961 -0.17822,-0.28477 -0.39603,-0.41938 -0.2178,-0.13456 -0.396,-0.056 -0.396,0.17464 0,0.23066 0.1782,0.41938 0.396,0.41938 0.21781,0 0.39603,-0.0786 0.39603,-0.17464 z m -1.67331,-1.19258 c -0.0917,-1.10856 -0.42618,-0.9864 -0.51265,0.18725 -0.0317,0.43118 0.0886,0.78397 0.26763,0.78397 0.17898,0 0.28923,-0.43705 0.24502,-0.97122 z m -2.68283,-1.03553 c 0,-0.25204 0.34304,-0.31383 0.84966,-0.15303 0.74452,0.2363 0.78126,0.19469 0.29701,-0.33623 -0.33786,-0.37039 -0.69887,-0.46482 -0.92886,-0.24298 -0.20691,0.19961 -0.70749,0.36292 -1.11241,0.36292 -0.40489,0 -0.62605,0.1782 -0.49144,0.396 0.32643,0.52817 1.38604,0.50777 1.38604,-0.0266 z m 1.36597,-3.24894 c -0.10627,-0.27694 -0.59075,-0.74587 -1.0766,-1.04207 -0.8425,-0.51364 -0.83895,-0.49033 0.0766,0.50353 1.07198,1.16356 1.28348,1.27748 0.99992,0.53854 z m -2.71557,-1.57208 c 0.19776,0.16146 0.22076,0.12512 0.051,-0.081 -0.48708,-0.5913 -1.34157,-0.58054 -1.34157,0.0169 0,0.3711 0.14728,0.42071 0.46544,0.1567 0.25601,-0.21244 0.62727,-0.25417 0.82504,-0.0926 z m -0.87006,-2.3478 c -0.1914,-0.3097 -0.072,-0.38108 0.35997,-0.2153 0.35546,0.13635 0.73645,0.10207 0.84663,-0.0762 0.11016,-0.17829 -0.18121,-0.30415 -0.64754,-0.27972 -0.86128,0.0452 -1.55475,1.03447 -0.72509,1.03447 0.2488,0 0.32352,-0.20848 0.16603,-0.4633 z m 1.98087,-4.22283 c 0.11211,-0.18151 -0.0477,-0.33002 -0.35522,-0.33002 -0.30755,0 -0.4674,0.14848 -0.35522,0.33002 0.11211,0.18151 0.27202,0.33001 0.35522,0.33001 0.0832,0 0.24304,-0.14847 0.35522,-0.33001 z m -1.34525,-1.25404 c 0,-0.21781 -0.0786,-0.39601 -0.17464,-0.39601 -0.0961,0 -0.28477,0.1782 -0.41938,0.39601 -0.13456,0.2178 -0.056,0.39602 0.17464,0.39602 0.23066,0 0.41938,-0.17822 0.41938,-0.39602 z m 0.36679,-0.68359 c 0.55071,0.42908 0.55951,0.40437 0.0757,-0.21231 -0.4202,-0.53558 -0.67352,-0.59339 -1.08904,-0.24852 -0.29781,0.24715 -0.54148,0.55229 -0.54148,0.67809 0,0.12573 0.2096,0.0192 0.4658,-0.23706 0.35705,-0.35705 0.61128,-0.35243 1.08903,0.0198 z m 34.08622,27.85198 c 0,-0.0861 0.69782,-0.22296 1.55072,-0.3043 0.85292,-0.0813 1.46612,-0.0105 1.36268,0.1564 -0.1882,0.30453 -2.9134,0.44286 -2.9134,0.14788 z m 9.50428,-0.63163 c 0.50928,-0.35673 0.46065,-0.52792 -0.34088,-1.20006 l -0.93491,-0.78398 h 1.40163 c 1.57438,0 3.10087,1.11296 2.18647,1.59414 -0.29164,0.15346 -1.06489,0.3976 -1.7183,0.54251 -0.89083,0.19756 -1.03943,0.15939 -0.59401,-0.15261 z m 15.3702,-0.27451 c 0.28587,-0.11435 0.62743,-0.10028 0.75902,0.0313 0.13157,0.13156 -0.10223,0.2252 -0.51977,0.208 -0.46132,-0.019 -0.55517,-0.11285 -0.23925,-0.23927 z m -105.86958,-0.50419 c 0.12872,-0.20828 0.49566,-0.27832 0.8154,-0.15563 0.8186,0.31412 0.72213,0.53435 -0.23406,0.53435 -0.44847,0 -0.71007,-0.17042 -0.58134,-0.37872 z m 26.24009,-0.18243 c -1.03811,-0.27924 -2.00339,-0.62362 -2.14507,-0.7653 -0.47445,-0.47445 1.23923,-0.21629 3.43852,0.518 2.48813,0.83072 1.54556,1.01095 -1.29345,0.2473 z m 82.27781,-0.044 c 0.87122,-0.28713 2.02956,-0.51983 2.57408,-0.51709 0.59239,0.003 0.19477,0.22628 -0.99004,0.55595 -2.48835,0.6924 -3.7118,0.66239 -1.58404,-0.0389 z m -109.96751,-0.0614 c 0.28586,-0.11435 0.62743,-0.10028 0.75901,0.0313 0.13156,0.13156 -0.10223,0.22518 -0.51976,0.20798 -0.46133,-0.019 -0.55517,-0.11285 -0.23925,-0.23925 z m 20.4689,-1.728 c -0.55201,-0.25009 -0.31198,-0.28574 0.79201,-0.11765 0.87124,0.13261 1.65831,0.30667 1.74906,0.38667 0.34024,0.29998 -1.78085,0.0754 -2.54107,-0.26902 z m 99.91867,-0.64804 c 0.28586,-0.11436 0.62743,-0.10029 0.75902,0.0313 0.13157,0.13156 -0.10222,0.22518 -0.51977,0.20798 -0.46132,-0.019 -0.55517,-0.11285 -0.23925,-0.23925 z m -105.66084,-3.311 -2.17807,-0.76104 2.33897,0.16899 c 1.28643,0.0929 2.44475,0.33048 2.57407,0.52786 0.12932,0.19736 0.50242,0.4606 0.82913,0.58497 1.63948,0.62409 -1.67259,0.14009 -3.5641,-0.52078 z m 31.50837,-2.24257 c -0.2149,-0.56441 -0.16941,-0.60989 0.2217,-0.2217 0.27064,0.26864 0.39231,0.58817 0.27038,0.7101 -0.12198,0.12198 -0.34336,-0.0979 -0.49208,-0.4884 z m 115.48402,-1.25118 c -0.35707,-0.22641 0.0183,-0.47291 1.18803,-0.78034 5.33359,-1.40168 7.90696,-1.9451 7.55783,-1.59597 -0.21698,0.21698 -1.71062,0.66533 -3.31919,0.99635 -1.60857,0.33101 -2.98075,0.75499 -3.04927,0.94218 -0.0685,0.18719 -0.3804,0.24218 -0.69304,0.12228 -0.31264,-0.12004 -0.56843,-0.0208 -0.56843,0.22024 0,0.51868 -0.39505,0.55242 -1.11593,0.0953 z m -10.44265,-6.26364 c 0.28586,-0.11435 0.62744,-0.10028 0.75903,0.0313 0.13156,0.13157 -0.10238,0.22519 -0.51977,0.20799 -0.46133,-0.019 -0.55517,-0.11285 -0.23926,-0.23925 z m -106.45287,-1.68591 c 0,-0.31686 -0.25764,-0.40629 -0.69302,-0.24054 -0.55566,0.21154 -0.5949,0.165 -0.198,-0.23483 0.38113,-0.38396 0.60281,-0.39088 0.96363,-0.0301 0.25774,0.25774 0.34684,0.59039 0.198,0.73922 -0.14877,0.14878 -0.27061,0.0437 -0.27061,-0.23377 z m -2.37607,-1.58431 c 0,-0.95619 0.22023,-1.05265 0.53435,-0.23406 0.12274,0.31974 0.0527,0.68668 -0.15563,0.81541 -0.2083,0.12872 -0.37872,-0.13291 -0.37872,-0.58135 z m 0.23131,-1.7494 c 0.3122,-0.81356 1.58678,-0.8513 1.89196,-0.056 0.12543,0.32673 0.0702,0.59403 -0.12258,0.59403 -0.19282,0 -0.42555,-0.22276 -0.5172,-0.49502 -0.12946,-0.38451 -0.3156,-0.372 -0.83408,0.056 -0.58261,0.48098 -0.63577,0.46837 -0.41804,-0.0989 z m 1.35274,-1.44206 c -0.54452,-0.17438 -0.78184,-0.33482 -0.52739,-0.35654 0.25443,-0.0217 0.71479,-0.1362 1.02302,-0.25452 0.33399,-0.12812 0.5604,0.0319 0.5604,0.39601 0,0.33609 -0.015,0.59331 -0.0329,0.57159 -0.0181,-0.0217 -0.47853,-0.18215 -1.02304,-0.35654 z m -7.13204,-4.15811 c -0.21416,-7.82455 -0.21898,-7.71999 0.35584,-7.72114 0.43225,-8.5e-4 0.50388,0.50771 0.33457,2.37498 -0.11899,1.31277 -0.0551,2.37606 0.14294,2.37606 0.19715,0 0.35845,0.18873 0.35845,0.41939 0,0.23066 -0.13366,0.33678 -0.29701,0.23582 -0.16335,-0.10103 -0.297,0.65599 -0.297,1.68213 0,3.69975 -0.49946,4.22834 -0.59787,0.63276 z m 6.08957,0.11315 c -0.10582,-0.17114 0.16411,-0.31114 0.59972,-0.31114 0.43561,0 0.87855,0.13994 0.98432,0.31114 0.10582,0.17114 -0.16411,0.31116 -0.59972,0.31116 -0.43561,0 -0.87856,-0.13995 -0.98432,-0.31116 z m 1.36423,-7.31386 c 0.28587,-0.11435 0.62744,-0.10028 0.75903,0.0313 0.13156,0.13157 -0.10238,0.22519 -0.51977,0.20799 -0.46133,-0.019 -0.55517,-0.11285 -0.23926,-0.23925 z m -33.98274,54.31159 c 0,-0.1169 -0.45446,-2.23837 -1.0099,-4.71441 -0.55544,-2.47604 -1.13462,-5.63264 -1.28705,-7.01469 -0.24092,-2.18442 -0.39091,-2.529 -1.14766,-2.63667 -0.78488,-0.11166 -0.83821,-0.012 -0.54215,1.02103 0.18058,0.62969 0.63143,3.71491 1.00188,6.85605 0.37044,3.14115 0.74247,5.93392 0.82674,6.20618 0.14518,0.46893 2.15814,0.73241 2.15814,0.28251 z m -34.05706,-2.43721 c 0,-0.28509 -0.1782,-0.51832 -0.39601,-0.51832 -0.21781,0 -0.39601,0.45602 -0.39601,1.01339 0,0.66518 -0.15711,0.9163 -0.4572,0.73084 -0.3022,-0.18677 -0.34883,-0.10716 -0.13757,0.23463 0.24957,0.40381 0.43661,0.35723 0.85322,-0.21252 0.29347,-0.40133 0.53357,-0.96294 0.53357,-1.24802 z m 174.23303,-5.07246 c 0,-0.2178 -0.17275,-0.12872 -0.38388,0.198 -0.21114,0.32671 -0.38388,0.77223 -0.38388,0.99004 0,0.2178 0.17274,0.12871 0.38388,-0.19801 0.21113,-0.32671 0.38388,-0.77222 0.38388,-0.99003 z m -169.87691,-0.37023 c 0,-0.0948 -0.19776,-0.67389 -0.43947,-1.28705 -0.24171,-0.61313 -1.11698,-3.78788 -1.94505,-7.05497 -1.07212,-4.22997 -1.68344,-5.97642 -2.12337,-6.06605 -0.50662,-0.10327 -0.55405,0.0748 -0.2636,0.99002 0.19481,0.61375 0.93869,3.67872 1.65307,6.81105 0.71438,3.13231 1.5428,5.93905 1.84093,6.23717 0.51629,0.5163 1.27749,0.73665 1.27749,0.36983 z m -30.3715,-17.67874 c -0.39348,-0.67016 -0.96847,-1.42754 -1.277767,-1.68305 -0.30929,-0.25552 -0.0629,0.29281 0.547637,1.21848 1.2819,1.94369 1.78743,2.26536 0.73013,0.46457 z M 85.199003,156.01339 c 0.06886,-0.83202 -0.607844,-1.68933 -3.516584,-4.45515 -1.981018,-1.88365 -3.960506,-3.92558 -4.398863,-4.53758 -0.438357,-0.612 0.514705,0.17376 2.117914,1.74613 3.424572,3.35869 9.151027,8.31094 9.363983,8.09798 0.205626,-0.20562 -5.602618,-5.70922 -8.122961,-7.6969 -2.209481,-1.74252 -3.276241,-3.35501 -3.276241,-4.95229 0,-0.54289 0.613156,-2.73474 1.362567,-4.87081 0.749413,-2.13605 1.743398,-5.1642 2.208856,-6.72922 l 0.846288,-2.84546 -0.894622,-1.21004 c -0.839334,-1.13526 -0.939048,-1.16985 -1.613485,-0.55948 -0.85443,0.77325 -3.562418,8.90337 -4.480069,13.4504 -0.587638,2.91177 -0.59149,3.35645 -0.0405,4.67517 0.532992,1.27562 9.465279,10.91751 10.114035,10.91751 0.134422,0 0.282781,-0.46361 0.329679,-1.03026 z m -6.644718,-24.33785 c 0,-0.23065 0.178205,-0.30924 0.396011,-0.17463 0.217807,0.13456 0.396012,0.32333 0.396012,0.41939 0,0.0961 -0.178205,0.17462 -0.396012,0.17462 -0.217806,0 -0.396011,-0.18872 -0.396011,-0.41938 z m 11.90363,19.09271 0.90305,-0.73124 -2.41197,-1.35927 -2.411971,-1.35926 0.751964,-0.97858 c 1.021339,-1.32915 0.957593,-2.21261 -0.246537,-3.41673 -0.974158,-0.97417 -1.141743,-1.00449 -4.059118,-0.73448 -3.324746,0.30772 -4.132905,0.70226 -3.953144,1.92988 0.123556,0.84381 1.994457,2.14388 3.503412,2.43447 0.484714,0.0934 1.182781,0.44257 1.551263,0.77604 0.36848,0.33347 0.834212,0.60631 1.034957,0.60631 0.200746,0 1.166843,0.77519 2.146882,1.72264 0.980038,0.94745 1.8958,1.74937 2.035026,1.78205 0.139227,0.0326 0.659509,-0.26965 1.156186,-0.67183 z m -5.864454,-3.51821 c -0.681015,-0.23756 -0.620864,-0.76567 0.119574,-1.0498 0.338022,-0.12977 0.514045,-0.0732 0.391163,0.12573 -0.122882,0.19882 0.09061,0.4248 0.474446,0.50217 0.571466,0.11525 0.590276,0.18179 0.103859,0.36766 -0.326709,0.12482 -0.816774,0.14922 -1.089032,0.0543 z m -0.06186,1.3561 c -0.313525,-0.31352 -0.56986,-0.29454 -0.928164,0.0687 -0.396792,0.40229 -0.33786,0.61838 0.297009,1.08907 0.708297,0.52513 0.806414,0.51787 0.928164,-0.0687 0.07488,-0.36077 -0.05878,-0.85085 -0.297009,-1.08908 z m 15.891979,0.14279 c 10.62872,-1.71314 18.36649,-2.79357 20.00664,-2.79357 h 1.44471 l -1.27269,-1.31307 c -0.69997,-0.72219 -1.15074,-1.43501 -1.00171,-1.58405 0.14903,-0.14908 -0.0759,-0.27097 -0.49987,-0.27097 -1.02765,0 -9.36331,1.01814 -15.99365,1.95349 -2.94039,0.4148 -7.440067,0.98253 -9.999295,1.26161 -2.772227,0.3023 -4.653136,0.68126 -4.653136,0.93748 0,0.62093 3.182543,2.97562 4.021757,2.97562 0.390328,0 3.966587,-0.52493 7.947244,-1.16654 z m -4.246777,-4.004 c 3.70271,-0.44948 9.905577,-1.25204 13.784157,-1.78346 3.87858,-0.53143 8.13174,-0.96622 9.45147,-0.96622 2.22828,0 2.38427,-0.0582 2.18605,-0.81626 -0.13063,-0.49956 0.005,-0.9001 0.34983,-1.03239 0.57384,-0.2202 0.80742,-0.97512 0.26627,-0.86056 -0.16336,0.0346 -0.63603,-0.084 -1.0504,-0.26354 -0.73889,-0.32013 -28.360148,3.39308 -31.320759,4.21054 -1.106107,0.30541 -1.388842,0.58124 -1.388842,1.35489 0,0.53429 0.222756,0.97205 0.495014,0.97285 0.272258,7.7e-4 3.524502,-0.36635 7.22721,-0.81585 z m 34.127887,0.21101 c 0.83225,-0.13964 4.13088,-0.77378 7.33031,-1.40926 3.19941,-0.63548 6.27345,-1.15542 6.83119,-1.15542 0.79043,0 1.01199,-0.19651 1.00463,-0.89102 -0.0105,-0.97504 -0.51245,-3.20737 -1.0021,-4.45514 -0.30292,-0.77196 -0.28987,-0.77368 0.51512,-0.0678 0.79136,0.694 1.06342,0.69766 6.50234,0.0876 3.12206,-0.35019 6.21109,-0.73072 6.8645,-0.84561 0.65342,-0.11495 1.58902,-0.2177 2.07912,-0.22846 0.49009,-0.0105 1.33075,-0.5421 1.86814,-1.18075 l 0.97706,-1.16118 3.00895,2.3911 c 1.65493,1.31511 3.22004,2.39021 3.47802,2.38913 0.52725,-10e-4 -0.51142,-0.91636 -5.00329,-4.4035 -1.70296,-1.32205 -3.18077,-2.62385 -3.284,-2.89289 -0.10327,-0.26903 -0.0208,-1.23183 0.18312,-2.13956 0.45741,-2.03581 -0.35506,-2.33091 -1.14787,-0.41691 -0.41328,0.99775 -0.41497,1.38714 -0.009,2.03747 0.44652,0.71501 0.42106,0.77265 -0.23014,0.52084 -0.40273,-0.15574 -1.26686,-0.36154 -1.92028,-0.45731 l -1.18804,-0.17416 1.08903,0.43288 c 0.59899,0.2381 1.08905,0.59626 1.08905,0.79592 0,0.19965 0.33458,0.363 0.74354,0.363 0.40894,0 0.9881,0.29649 1.28703,0.65887 0.48572,0.58878 0.4593,0.61586 -0.24852,0.25459 -1.57556,-0.80418 -17.14991,1.59409 -16.92545,2.60632 0.0692,0.31196 -0.28266,0.26544 -1.06936,-0.14145 -1.56223,-0.80786 -2.86257,-0.76495 -11.70612,0.38631 -4.13831,0.53872 -8.13902,0.98129 -8.89045,0.98348 -1.75328,0.004 -1.15639,0.50413 1.36112,1.13797 2.87047,0.7227 3.37122,1.32325 3.37122,4.04313 0,2.66675 0.29679,3.65793 1.01301,3.38309 0.28313,-0.10867 1.19571,-0.31177 2.02796,-0.45138 z m -40.068059,-3.11885 c 0.435612,-0.12153 7.118302,-1.12182 14.850429,-2.22281 11.99627,-1.7082 14.14556,-2.11421 14.65244,-2.76794 0.49629,-0.64007 2.2227,-1.00217 10.49379,-2.20095 7.30767,-1.05915 10.2158,-1.33784 11.10674,-1.0644 0.83171,0.25525 2.494,0.17316 5.34668,-0.26408 l 4.13972,-0.63452 0.22378,-1.58075 c 0.12303,-0.86942 0.70047,-2.57435 1.28312,-3.78876 0.58264,-1.21441 1.17749,-2.79866 1.32187,-3.52055 l 0.2625,-1.31253 -1.34763,0.25134 c -7.15857,1.33509 -43.24916,6.03839 -53.621187,6.98788 -6.455727,0.59097 -6.28432,0.53469 -6.892494,2.26327 -0.830617,2.36084 -2.015434,4.07279 -2.818714,4.07279 -0.881378,0 -1.147231,0.3807 -2.074096,2.97008 -0.703681,1.96589 -0.70262,1.98509 0.148312,2.68224 0.471385,0.3862 1.144088,0.62311 1.494893,0.52645 0.350803,-0.0967 0.994236,-0.27521 1.429847,-0.39676 z m 61.966829,-0.83069 c 2.47213,-0.32604 4.54455,-0.64259 4.60538,-0.70342 0.24614,-0.24612 -1.53876,-2.66339 -1.96217,-2.65735 -0.86774,0.012 -8.6148,1.48596 -8.80332,1.67448 -0.35492,0.35492 0.60362,2.27912 1.13534,2.27912 0.2915,0 2.55264,-0.26676 5.02477,-0.59283 z m -66.999109,-1.59091 c 0.573038,-2.14252 0.592428,-2.5684 0.11694,-2.5684 -0.19866,0 -0.485576,0.73617 -0.637589,1.63592 -0.152013,0.89976 -0.390433,1.45203 -0.529824,1.22725 -0.139391,-0.22476 -0.921705,-0.40849 -1.738479,-0.40828 -1.30343,3.5e-4 -1.485043,0.1166 -1.485043,0.95082 0,0.87102 0.158568,0.95043 1.897922,0.95043 h 1.897924 z m 75.058979,0.33711 c 0.14444,-0.14443 -0.29149,-0.59953 -0.96869,-1.01137 -1.51832,-0.92332 -2.08992,-0.53696 -0.74004,0.50021 1.08137,0.83085 1.3182,0.90169 1.70873,0.51116 z m -69.85656,-7.60557 c 0.552999,-1.03329 0.25433,-1.17782 -1.666027,-0.80619 -0.919713,0.17799 -2.504105,0.33138 -3.520871,0.34087 -2.03844,0.019 -3.101478,0.31091 -3.101478,0.85162 0,0.19452 1.775781,0.35365 3.946182,0.35365 3.448322,0 3.996144,-0.0934 4.342194,-0.73995 z m 64.34258,-2.03563 c 0.68841,-1.91435 0.64905,-3.16459 -0.0997,-3.16459 -0.5215,0 -2.13536,3.9357 -1.88327,4.59266 0.4305,1.12183 1.28804,0.50424 1.98288,-1.42807 z m 1.4364,0.76972 c 0.69516,-2.63543 0.76681,-3.14228 0.44422,-3.14228 -0.3693,0 -1.64541,3.03038 -1.64541,3.90735 0,0.858 0.92918,0.26618 1.20119,-0.76507 z m -62.323783,-1.77008 c 11.797943,-1.30793 42.826283,-5.22121 53.202353,-6.70985 2.28696,-0.32812 6.93714,-0.95392 10.33371,-1.39069 3.3966,-0.43678 6.7393,-0.99065 7.4283,-1.23083 1.71101,-0.59645 5.33865,-5.05934 6.54228,-8.04863 0.53299,-1.32371 1.59305,-3.74329 2.3557,-5.37683 9.90248,-21.210704 14.8286,-33.270076 23.79923,-58.261609 3.86241,-10.760374 4.00909,-11.257006 3.43049,-11.614606 -0.26302,-0.162546 -0.42811,0.115697 -0.42811,0.721487 0,1.272286 -7.76971,22.334848 -13.94568,37.80474 l -4.81127,12.0515 -0.75241,-0.929189 c -0.47207,-0.582979 -0.69205,-1.340523 -0.5904,-2.033108 0.0891,-0.607151 0.012,-1.103903 -0.17102,-1.103903 -0.18319,0 0.10836,-0.668263 0.64782,-1.485047 0.53948,-0.816769 2.0697,-4.425416 3.40049,-8.019231 1.3308,-3.5938 3.18578,-8.494445 4.12216,-10.890312 0.93641,-2.395871 2.11118,-5.692658 2.61063,-7.326212 0.49943,-1.633553 1.12096,-3.415598 1.38119,-3.96011 0.57681,-1.206999 1.12529,-3.530623 0.69531,-2.945698 -0.21447,0.291759 -0.61198,0.263261 -1.29907,-0.09325 -0.54451,-0.282464 -0.74648,-0.516194 -0.44882,-0.519397 0.34693,-0.003 0.4662,-0.292642 0.33226,-0.804841 -0.11495,-0.439441 -0.001,-1.02284 0.25082,-1.296458 0.51859,-0.561127 0.63596,-0.981934 0.84018,-3.012033 0.0789,-0.784699 0.51308,-2.362289 0.96479,-3.505766 0.45172,-1.143492 0.66599,-2.079057 0.47619,-2.079057 -0.39958,0 -1.22087,1.65807 -2.35387,4.752139 -0.43866,1.197933 -1.1591,3.158194 -1.60099,4.356122 -0.44186,1.197943 -1.98191,5.474868 -3.42233,9.504278 -1.44041,4.029425 -2.85462,7.860831 -3.1427,8.514247 -1.76871,4.011863 -5.60822,13.465657 -6.35294,15.642451 -0.91689,2.680026 -2.11953,5.255701 -3.90204,8.356954 -0.5762,1.002515 -1.40689,2.87366 -1.84595,4.158114 -0.43906,1.284455 -1.04068,2.869993 -1.33695,3.523408 -2.21472,4.884697 -3.38945,7.680597 -3.6205,8.616997 -0.14833,0.60102 -0.45408,1.20678 -0.67952,1.34611 -0.82142,0.50766 0.0311,-1.91069 6.65346,-18.873375 2.66925,-6.837078 6.51654,-17.937312 6.51654,-18.801557 0,-0.337559 0.17968,-0.923188 0.39928,-1.301398 0.35636,-0.613722 3.37197,-9.157944 6.84676,-19.399185 0.82405,-2.428695 1.44732,-3.673651 1.84957,-3.69438 0.40727,-0.02095 0.44397,-0.09699 0.11165,-0.231007 -0.27225,-0.10986 -0.49501,-0.373615 -0.49501,-0.586122 0,-0.212506 0.15751,-0.28902 0.35004,-0.170029 0.19254,0.11899 0.57057,-0.316011 0.84007,-0.966672 0.29809,-0.719631 0.78142,-1.182991 1.234,-1.182991 0.40918,0 0.74397,-0.188723 0.74397,-0.419385 0,-0.230662 0.17063,-0.313941 0.37915,-0.185057 0.41773,0.258172 1.60091,-1.768349 1.60091,-2.741992 0,-0.337529 -0.31186,-0.630216 -0.69302,-0.650407 -2.47274,-0.130964 -6.03322,0.315557 -8.51424,1.067967 -0.95649,0.290053 -0.92238,-1.096943 0.0486,-1.975648 0.72059,-0.652113 0.79984,-2.406558 0.23584,-5.220138 -0.22469,-1.120862 -1.94975,-2.031716 -2.68779,-1.419191 -0.30213,0.250748 -2.17852,0.571544 -4.16975,0.712881 -3.52664,0.250329 -3.64689,0.291669 -4.64132,1.595431 -0.56148,0.73614 -1.33229,1.645093 -1.71289,2.019891 -0.38061,0.374798 -1.16476,1.50705 -1.74258,2.516105 -1.42988,2.49708 -2.12644,2.699454 -2.46168,0.7152 -0.3448,-2.040845 -1.10374,-1.988594 -2.13764,0.147129 -0.4545,0.938843 -1.37198,2.230842 -2.03887,2.871086 -1.18669,1.139286 -1.34488,1.173202 -7.42626,1.592423 -6.29026,0.433604 -15.51937,0.412021 -22.96143,-0.05373 -3.52751,-0.220754 -4.22924,-0.384542 -5.22023,-1.218404 -0.93443,-0.786265 -1.18984,-1.379647 -1.38939,-3.227877 -0.13448,-1.245494 -0.31807,-2.888238 -0.40798,-3.650571 -0.0899,-0.762318 -0.17022,-1.634361 -0.17844,-1.93787 -0.0123,-0.450473 -0.6723,-0.502215 -3.59359,-0.281686 -4.26934,0.322293 -5.04182,0.584341 -7.30882,2.479315 -1.59642,1.334445 -1.86769,1.850924 -3.3808,6.436716 -0.90482,2.742231 -2.61447,8.193575 -3.79924,12.114083 -1.18476,3.920522 -2.50561,8.019231 -2.93521,9.108271 -0.4296,1.089026 -1.20935,3.673007 -1.73278,5.742166 -2.00624,7.930864 -7.147587,25.058516 -10.963613,36.523688 -0.850271,2.55461 -1.545947,5.09029 -1.545947,5.63482 0,0.54454 -0.430865,2.28582 -0.95748,3.8695 -0.526613,1.58368 -1.081762,3.90409 -1.233664,5.15648 -0.285964,2.35769 -0.47726,2.61835 -1.310248,1.78537 -0.391597,-0.39161 -0.567736,-0.37145 -0.865162,0.0989 -0.205402,0.3249 -0.376185,0.81346 -0.379522,1.08572 -0.0072,0.58816 1.424354,0.66796 1.775989,0.0991 0.403082,-0.65221 5.617732,-0.49947 5.875431,0.17209 0.281635,0.73392 -2.289904,2.35368 -3.895374,2.4536 -0.653418,0.0407 -2.168162,0.2239 -3.366098,0.40717 -2.072019,0.31701 -2.183974,0.39412 -2.299451,1.58398 -0.08693,0.89567 0.137939,1.49981 0.792023,2.12794 l 0.913411,0.87718 -0.990029,-0.50417 c -0.544515,-0.27729 -1.120954,-0.70025 -1.280973,-0.93989 -1.825508,-2.73396 3.466336,-29.455409 10.399188,-52.511261 2.041632,-6.789632 2.990152,-10.191126 3.892212,-13.957874 0.24756,-1.033736 1.4518,-4.508724 2.67609,-7.722218 1.224297,-3.213494 3.095447,-8.337572 4.158107,-11.386878 1.06268,-3.049287 2.11705,-5.862942 2.34305,-6.252558 0.226,-0.38963 1.11228,-2.699544 1.96949,-5.133148 1.98758,-5.642668 4.3882,-9.240269 7.90809,-11.851221 3.26842,-2.424415 5.25245,-2.970753 11.86119,-3.266224 5.13882,-0.229749 5.34695,-0.207882 6.26829,0.658399 0.89305,0.83967 1.34961,0.904448 7.259,1.029845 5.49585,0.116596 6.27654,0.05703 6.0766,-0.464018 -0.19582,-0.510283 -1.08953,-0.564764 -6.10356,-0.372059 l -5.87417,0.225753 -0.97198,-1.048779 c -0.95074,-1.025878 -1.08778,-1.050275 -6.27272,-1.117134 -4.01907,-0.05179 -4.67836,-0.123631 -2.72668,-0.297013 2.10173,-0.186702 1.39526,-0.283317 -3.84989,-0.526492 -6.26809,-0.290591 -6.48856,-0.273513 -9.085,0.703781 -3.4527,1.299586 -5.02414,2.535023 -6.88324,5.411392 -1.57641,2.439022 -3.94257,8.850653 -3.94257,10.683272 0,0.837844 0.36571,1.258591 1.78205,2.0502 0.98013,0.547806 1.78205,0.817952 1.78205,0.600341 0,-0.54785 2.43625,-6.352599 2.59821,-6.190637 0.12232,0.122283 -1.93912,6.250657 -2.94224,8.746899 -0.2464,0.613153 -0.44799,1.19929 -0.44799,1.30255 0,0.348171 -3.60837,9.837292 -3.82057,10.047149 -0.11561,0.114351 -0.0886,-0.443139 0.06,-1.238789 0.23077,-1.235586 0.15297,-1.483865 -0.53325,-1.701655 -0.441887,-0.140244 -0.862197,-0.558492 -0.934017,-0.929413 -0.13986,-0.722345 -4.858267,13.038402 -5.272432,15.376485 -0.193606,1.092977 -0.07861,1.551532 0.526417,2.099068 0.749935,0.67868 0.788015,0.660809 1.217655,-0.571663 0.24393,-0.69974 0.535,-1.180776 0.64683,-1.06894 0.11182,0.111806 -0.24415,1.521807 -0.79105,3.133299 -1.141855,3.364584 -1.116773,3.246971 -0.62808,2.944949 0.20449,-0.126325 -0.334828,1.867908 -1.198496,4.431758 -4.793395,14.229491 -11.139088,41.240934 -12.268269,52.221814 -0.51795,5.0369 -0.169191,6.30061 2.124862,7.69938 1.548314,0.94407 3.19852,0.97065 10.43731,0.16815 z m -1.051261,-6.07586 c 0,-0.19114 0.222756,-0.52611 0.495014,-0.74438 0.688675,-0.55213 8.4907,-1.52562 18.11753,-2.26062 4.46504,-0.34091 9.36568,-0.83936 10.89033,-1.10766 1.52464,-0.26832 3.70766,-0.48833 4.85114,-0.4889 1.14349,-5.8e-4 2.07907,-0.1347 2.07907,-0.29807 0,-0.16335 0.36692,-0.29701 0.81539,-0.29701 0.44847,0 0.70526,0.17821 0.57064,0.39602 -0.14564,0.23566 0.3259,0.39601 1.16467,0.39601 1.44778,0 1.95466,-0.62094 0.71639,-0.87759 -0.38115,-0.079 2.42557,-0.64422 6.23719,-1.25606 3.81161,-0.61183 8.66378,-1.46122 10.78261,-1.88752 2.11882,-0.4263 4.70282,-0.7206 5.74219,-0.65403 1.59845,0.10238 1.90883,0.25494 2.01336,0.98953 0.10148,0.71258 -0.11181,0.90537 -1.18804,1.07402 -1.63842,0.25675 -6.06729,0.70661 -7.64783,0.77683 -0.65343,0.029 -1.28027,0.17444 -1.39297,0.32316 -0.32624,0.43046 -8.7802,1.23268 -9.05298,0.85906 -0.13546,-0.18559 -0.95919,-0.31874 -1.83043,-0.2959 -2.48512,0.0651 -2.91078,0.24778 -1.18803,0.50968 1.18767,0.18055 -0.34826,0.46775 -6.13818,1.14773 -4.24722,0.4988 -8.96967,1.08016 -10.49431,1.29192 -9.11972,1.2666 -15.94404,1.95052 -19.503577,1.95462 -2.43896,0.003 -4.05912,0.16273 -4.05912,0.40068 0,0.2178 -0.445513,0.396 -0.990029,0.396 -0.544516,0 -0.990028,-0.15637 -0.990028,-0.34752 z m 46.622124,-5.4359 c -0.13156,-0.13156 -0.47315,-0.14563 -0.75901,-0.0313 -0.31592,0.12648 -0.22208,0.22026 0.23925,0.23927 0.41746,0.0172 0.65135,-0.0765 0.51976,-0.208 z m 2.19386,-0.41651 c -0.26811,-0.10851 -0.80273,-0.1151 -1.18804,-0.015 -0.3853,0.10044 -0.16594,0.18916 0.48748,0.19723 0.65343,0.007 0.96867,-0.0741 0.70056,-0.18256 z m -35.82185,1.17728 c 0.28587,-0.11436 0.62743,-0.10029 0.75902,0.0313 0.13159,0.13156 -0.1023,0.22518 -0.51977,0.20798 -0.46133,-0.019 -0.55516,-0.11285 -0.23925,-0.23925 z m 2.94533,-0.39848 c 0.38116,-0.0997 1.00488,-0.0997 1.38604,0 0.38117,0.0995 0.0693,0.1811 -0.69302,0.1811 -0.76232,0 -1.07418,-0.0816 -0.69302,-0.1811 z m 12.89514,-1.58159 c 0.28587,-0.11435 0.62743,-0.10028 0.75902,0.0313 0.13159,0.13157 -0.1023,0.22519 -0.51976,0.20801 -0.46133,-0.019 -0.55517,-0.11286 -0.23926,-0.23927 z m -25.052677,-2.79857 c 0.10333,-2.03382 0.51207,-3.54821 1.70915,-6.33257 0.86533,-2.01274 1.786747,-4.30617 2.047587,-5.09654 0.34684,-1.05092 0.56658,-1.29129 0.81786,-0.89463 0.28352,0.44756 0.35286,0.43853 0.39656,-0.0516 0.0291,-0.32671 0.019,-0.76617 -0.0224,-0.97658 -0.15015,-0.761675 2.10044,-5.755612 2.59385,-5.755612 0.27843,0 1.07821,-1.161842 1.77729,-2.581871 0.69908,-1.420043 1.32793,-2.525009 1.39743,-2.455501 0.20437,0.204365 -2.54186,7.283256 -3.77241,9.724059 -0.62209,1.233925 -1.6787,3.669165 -2.34801,5.411605 -0.66932,1.74245 -1.950837,5.0838 -2.847827,7.42522 -0.89699,2.34142 -1.68803,4.25712 -1.75787,4.25712 -0.0698,0 -0.0659,-1.20288 0.009,-2.67308 z m 29.780067,2.01481 c 0.27226,-0.10986 0.71777,-0.10986 0.99003,0 0.27226,0.10986 0.0495,0.19974 -0.49501,0.19974 -0.54452,0 -0.76728,-0.09 -0.49502,-0.19974 z m 2.67308,-0.52689 c 0.75659,-0.32786 3.67658,-0.55271 3.33309,-0.25667 -0.0907,0.0783 -1.05602,0.24519 -2.14506,0.37106 -1.27387,0.14727 -1.69758,0.10641 -1.18803,-0.11436 z m 4.05911,-0.66115 c 0.27226,-0.10986 0.71778,-0.10986 0.99004,0 0.27225,0.10986 0.0495,0.19974 -0.49502,0.19974 -0.54451,0 -0.76727,-0.0898 -0.49502,-0.19974 z m 35.34409,0.11271 c 0,-0.0822 0.31186,-0.3941 0.69304,-0.69302 0.62809,-0.49259 0.6421,-0.47859 0.14952,0.14952 -0.51734,0.65966 -0.84254,0.86942 -0.84254,0.5435 z m -30.69094,-0.81728 c 2.88291,-0.61613 6.79095,-1.13802 6.52418,-0.87124 -0.2583,0.25829 -7.10145,1.44769 -8.10824,1.40927 -0.43561,-0.0166 0.27721,-0.25873 1.58406,-0.53803 z m 21.97869,1.3e-4 c 0,-0.33956 0.1782,-0.61739 0.39602,-0.61739 0.21781,0 0.39601,0.1677 0.39601,0.37265 0,0.20494 -0.1782,0.48278 -0.39601,0.61738 -0.21782,0.13456 -0.39602,-0.0331 -0.39602,-0.37264 z m 10.12377,-1.12948 c 0.14877,-0.39054 0.37014,-0.61034 0.49206,-0.48842 0.12199,0.12199 2.6e-4,0.44148 -0.27038,0.71012 -0.39111,0.38819 -0.4366,0.3427 -0.22168,-0.2217 z m 8.50628,-18.943104 c -0.0368,-0.523694 1.22707,-3.192929 1.42037,-2.999625 0.11196,0.111955 -0.15798,0.888522 -0.59971,1.725857 -0.44173,0.837319 -0.81104,1.410524 -0.82066,1.273768 z M 99.178943,82.790217 c -0.0176,-0.218509 0.33326,-1.644151 0.77975,-3.168098 0.446497,-1.523947 1.342737,-4.882939 1.991657,-7.464421 0.64891,-2.581481 1.4526,-5.343664 1.78597,-6.138177 0.33338,-0.794512 0.93725,-2.60291 1.34195,-4.018643 2.22217,-7.773782 4.16665,-13.979417 5.14961,-16.434484 0.61044,-1.524651 1.69358,-4.687799 2.407,-7.029219 0.71341,-2.34142 1.44547,-4.257123 1.62679,-4.257123 0.51942,0 0.46404,0.239897 -2.0695,8.964559 -4.4536,15.336657 -5.2087,17.744338 -8.33884,26.589074 -1.71732,4.852556 -3.12707,9.129481 -3.13278,9.504279 -0.0117,0.762467 -1.491277,4.076003 -1.541607,3.452253 z M 165.96147,72.118978 c 0.32495,-1.099922 0.68149,-2.149359 0.79228,-2.332081 0.11076,-0.182721 0.43569,-1.162844 0.72195,-2.178066 0.98635,-3.497824 9.22843,-27.196694 10.54474,-30.31974 2.36324,-5.60706 1.74799,-1.752454 -1.20064,7.522169 -1.51697,4.771447 -2.9392,9.299091 -3.16051,10.061424 -0.98906,3.407022 -6.07419,18.023953 -6.41204,18.431021 -0.20649,0.248817 -0.29382,0.534006 -0.19406,0.633763 0.0997,0.09983 -0.23803,0.18136 -0.7506,0.18136 h -0.93196 z m -4.11399,52.003982 c 1.70542,-0.24457 3.16075,-0.64482 3.23403,-0.88948 0.47925,-1.6 0.55996,-2.62288 0.20693,-2.62288 -0.22196,0 -0.40356,0.34075 -0.40356,0.75721 0,0.79773 -0.41859,0.91425 -5.21022,1.45028 -1.96928,0.2203 -2.25702,0.16296 -2.37974,-0.47424 -0.0959,-0.49823 -0.34229,-0.20884 -0.78791,0.92564 l -0.64835,1.65048 1.44402,-0.17618 c 0.7942,-0.0968 2.83937,-0.37628 4.5448,-0.62083 z M 88.5265,104.77012 c 1.12883,-3.92158 6.661223,-22.262382 8.242363,-27.324795 0.85035,-2.722579 2.0775,-6.910389 2.72702,-9.30626 1.235407,-4.55705 3.517497,-11.895236 5.788277,-18.612545 0.73629,-2.178066 2.05902,-6.323683 2.9394,-9.212494 0.88038,-2.888792 1.87136,-5.775787 2.20219,-6.415507 0.76446,-1.478327 0.75614,-1.850431 -0.0483,-2.159133 -1.85251,-0.710875 -2.60069,0.458944 -5.29744,8.282851 -0.82582,2.395872 -2.29446,6.41876 -3.26365,8.939744 -0.96919,2.520998 -2.337347,6.530606 -3.040337,8.910268 -0.70299,2.379647 -2.23589,7.356127 -3.40643,11.058829 -3.742559,11.838559 -6.660828,22.592717 -9.105936,33.556462 -0.854301,3.83064 -2.598312,14.99652 -2.536377,16.23892 0.02625,0.52664 3.733882,-10.25526 4.799235,-13.95634 z m 14.21575,-70.056628 c 0.0226,0.402652 0.0865,0.4197 0.23101,0.06166 0.10986,-0.272256 0.38216,-0.495015 0.60512,-0.495015 0.22296,0 0.30281,0.267317 0.17744,0.594024 -0.12537,0.326708 -0.0553,0.59401 0.15563,0.59401 0.65639,0 0.42282,-0.837005 -0.50744,-1.818385 -1.31662,-1.389002 -1.44692,-1.29791 -2.31827,1.620382 l -0.35472,1.188035 0.98999,-1.150631 c 0.60078,-0.698273 1.00227,-0.931794 1.02124,-0.59401 z m 100.62211,-4.261868 c 0.85653,-2.577201 1.66183,-5.528107 1.78958,-6.557578 0.48587,-3.915718 -1.54044,-7.340655 -4.82602,-8.157155 -4.2488,-1.055843 -15.84118,-1.220828 -18.41455,-0.262064 -0.98012,0.365174 -2.29015,0.758995 -2.91119,0.875172 -2.18636,0.408983 -0.13636,0.889331 3.8219,0.895513 2.83552,0.0045 4.21984,-0.169281 5.13966,-0.644929 1.06067,-0.548494 2.11066,-0.614575 6.66874,-0.419625 8.43665,0.360818 9.68667,1.244491 9.61369,6.796142 -0.034,2.582919 -0.34602,4.110428 -1.65134,8.083351 -0.8852,2.694246 -1.42458,4.713748 -1.19861,4.487786 0.22596,-0.225948 1.11162,-2.519427 1.96814,-5.096613 z m -16.40844,-14.83323 c 0.26864,-0.270655 0.58818,-0.392324 0.7101,-0.2704 0.12198,0.121984 -0.0979,0.343366 -0.48841,0.492082 -0.56439,0.214901 -0.60988,0.169415 -0.22169,-0.221682 z m 12.36937,14.866637 c 0.77212,-3.249445 0.82799,-3.94685 0.38867,-4.851133 -0.28221,-0.580854 -0.47445,-1.278872 -0.42723,-1.551128 0.0542,-0.312788 -0.39429,-0.495974 -1.21852,-0.49762 -0.71742,-0.0014 -1.83901,-0.356673 -2.49243,-0.789409 -1.71189,-1.133748 -3.90156,-1.045127 -4.87899,0.197479 -0.76666,0.97466 -0.76709,1.011555 -0.0287,2.459797 0.41229,0.808672 0.74961,1.874738 0.74961,2.36905 0,1.004774 1.29888,1.532404 2.98087,1.210875 0.7978,-0.152518 0.9006,-0.08546 0.53819,0.351239 -0.27305,0.329013 -0.29243,0.539768 -0.0497,0.539768 0.54664,0 0.90405,1.526582 0.42653,1.821708 -0.21221,0.131115 -0.29238,0.482039 -0.17813,0.77974 0.1142,0.297701 0.05,0.638733 -0.14264,0.757843 -0.19272,0.11914 -0.43688,-0.187047 -0.54258,-0.680342 -0.17814,-0.831332 -0.18745,-0.826303 -0.12737,0.06885 0.0533,0.793795 0.31165,0.993609 1.4509,1.122239 0.76232,0.08606 1.4603,0.230632 1.55104,0.321274 0.66912,0.668308 1.21404,-0.320556 2.00047,-3.63023 z m -1.35653,-1.721756 c -0.12527,-0.202763 -0.0765,-0.462222 0.10867,-0.576603 0.18505,-0.114351 0.33646,0.05149 0.33646,0.368646 0,0.667754 -0.12483,0.726082 -0.4451,0.207957 z m -28.82528,4.186163 c 2.20361,-0.963584 3.35683,-2.391411 4.23881,-5.248203 0.39589,-1.282284 0.88658,-2.543659 1.09042,-2.803043 0.44635,-0.567997 -0.26475,-0.696582 -7.39406,-1.33699 -5.92871,-0.532554 -17.02049,-0.224211 -23.96268,0.666152 l -4.54236,0.582575 -1.32375,-1.403101 c -0.72807,-0.771717 -1.49336,-1.403116 -1.70066,-1.403116 -0.72014,0 -1.88897,2.496602 -2.3155,4.945847 -0.83362,4.787013 0.2286,6.4144 4.32908,6.632415 1.41422,0.07514 8.71941,0.129318 16.23374,0.120337 12.43042,-0.01497 13.81434,-0.08277 15.34696,-0.752933 z m -53.65572,-5.009294 c 2.23501,-3.292431 4.0005,-4.708284 5.9081,-4.738009 0.36649,-0.006 0.77946,-0.366791 0.91771,-0.802416 0.13826,-0.43561 0.46213,-0.809779 0.71971,-0.831497 1.10601,-0.09325 -1.68015,-0.677109 -3.40259,-0.713075 -1.64155,-0.03428 -1.93778,0.08397 -2.24673,0.896545 -0.38868,1.022316 -1.29681,1.533302 -2.14592,1.207462 -0.29774,-0.114201 -1.39863,0.370862 -2.44644,1.07801 -1.0478,0.707148 -1.69523,1.355699 -1.43872,1.441193 0.75862,0.252873 0.53142,1.277495 -0.28327,1.277495 -0.85248,0 -1.23041,0.737457 -1.23041,2.400915 0,0.894375 0.2188,1.203017 0.99003,1.396575 0.54452,0.136652 0.99003,0.420433 0.99003,0.630605 0,1.175971 1.6716,-0.302116 3.6685,-3.243803 z m 70.21599,-4.847406 c 0.1151,-0.8005 -1.3639,-0.959797 -2.62837,-0.283063 -1.29528,0.693214 -0.86669,1.227085 0.88137,1.097857 1.21005,-0.0895 1.6738,-0.305724 1.747,-0.814794 z m -21.4551,-7.049585 c 6.02767,-0.006 11.13157,0.09669 11.34198,0.226696 0.56665,0.350206 0.46467,-0.834281 -0.1124,-1.305813 -1.44283,-1.178875 -17.53468,-1.984703 -26.63183,-1.333637 l -3.56411,0.255073 1.48505,0.877672 c 0.81677,0.482727 1.48505,1.086496 1.48505,1.34172 0,0.333143 0.7105,0.391261 2.51841,0.20604 1.38513,-0.14189 7.45019,-0.262393 13.47788,-0.267751 z M 144.977,14.636251 c -0.13156,-0.131564 -0.47315,-0.145633 -0.75902,-0.03128 -0.31592,0.126474 -0.22207,0.220259 0.23925,0.239253 0.41747,0.01721 0.65136,-0.07633 0.51977,-0.207986 z"
       id="path3" /></g><metadata
     id="metadata182"><rdf:RDF><cc:Work
         rdf:about=""><cc:license
           rdf:resource="http://creativecommons.org/licenses/by-sa/4.0/" /><dc:publisher><cc:Agent><dc:title>OpenDataKerala.org</dc:title></cc:Agent></dc:publisher><dc:date>April 2026</dc:date><dc:title>Election Symbols of Kerala</dc:title><dc:creator><cc:Agent><dc:title>Manoj Karingamadathil</dc:title></cc:Agent></dc:creator></cc:Work><cc:License
         rdf:about="http://creativecommons.org/licenses/by-sa/4.0/"><cc:permits
           rdf:resource="http://creativecommons.org/ns#Reproduction" /><cc:permits
           rdf:resource="http://creativecommons.org/ns#Distribution" /><cc:requires
           rdf:resource="http://creativecommons.org/ns#Notice" /><cc:requires
           rdf:resource="http://creativecommons.org/ns#Attribution" /><cc:permits
           rdf:resource="http://creativecommons.org/ns#DerivativeWorks" /><cc:requires
           rdf:resource="http://creativecommons.org/ns#ShareAlike" /></cc:License></rdf:RDF></metadata></svg>
