<?xml version="1.0" encoding="UTF-8" standalone="no"?>
<!-- Created with Inkscape (http://www.inkscape.org/) -->

<svg
   width="1500"
   height="1500"
   viewBox="0 0 396.87499 396.875"
   version="1.1"
   id="svg5"
   xml:space="preserve"
   inkscape:version="1.3 (0e150ed6c4, 2023-07-21)"
   sodipodi:docname="Electric Pole.svg"
   inkscape:export-filename="Boat with man and Sail.png"
   inkscape:export-xdpi="96"
   inkscape:export-ydpi="96"
   xmlns:inkscape="http://www.inkscape.org/namespaces/inkscape"
   xmlns:sodipodi="http://sodipodi.sourceforge.net/DTD/sodipodi-0.dtd"
   xmlns="http://www.w3.org/2000/svg"
   xmlns:svg="http://www.w3.org/2000/svg"
   xmlns:rdf="http://www.w3.org/1999/02/22-rdf-syntax-ns#"
   xmlns:cc="http://creativecommons.org/ns#"
   xmlns:dc="http://purl.org/dc/elements/1.1/"><title
     id="title186">Election Symbols of Kerala</title><sodipodi:namedview
     id="namedview7"
     pagecolor="#ffffff"
     bordercolor="#000000"
     borderopacity="0.25"
     inkscape:showpageshadow="2"
     inkscape:pageopacity="0.0"
     inkscape:pagecheckerboard="0"
     inkscape:deskcolor="#d1d1d1"
     inkscape:document-units="mm"
     showgrid="false"
     inkscape:zoom="0.25"
     inkscape:cx="230"
     inkscape:cy="1082"
     inkscape:window-width="1920"
     inkscape:window-height="991"
     inkscape:window-x="-9"
     inkscape:window-y="-9"
     inkscape:window-maximized="1"
     inkscape:current-layer="layer1" /><defs
     id="defs2"><inkscape:path-effect
       effect="bspline"
       id="path-effect3248"
       is_visible="true"
       lpeversion="1"
       weight="33.333333"
       steps="2"
       helper_size="0"
       apply_no_weight="true"
       apply_with_weight="true"
       only_selected="false" /><inkscape:path-effect
       effect="bspline"
       id="path-effect577"
       is_visible="true"
       lpeversion="1"
       weight="33.333333"
       steps="2"
       helper_size="0"
       apply_no_weight="true"
       apply_with_weight="true"
       only_selected="false" /></defs><g
     inkscape:label="Layer 1"
     inkscape:groupmode="layer"
     id="layer1"><path
       style="fill:#000000;stroke-width:1.76152"
       d="m 46.133777,392.90914 c -0.182458,-0.29523 0.05498,-0.81954 0.527641,-1.16517 1.077985,-0.78825 1.230999,-0.78419 2.339902,0.0618 0.783064,0.59745 0.810706,0.75313 0.205597,1.15804 -0.947631,0.63407 -2.666351,0.60347 -3.07314,-0.0548 z m 311.376993,-1.81501 c -1.28168,-0.19964 -3.40573,-0.38134 -4.72012,-0.4038 -2.88057,-0.0491 -4.21667,-1.11377 -2.7468,-2.18857 1.03959,-0.76017 2.31982,-0.76293 13.62141,-0.0294 8.91435,0.57857 10.65571,1.06242 8.78713,2.44155 -1.00149,0.73917 -10.60899,0.85506 -14.94162,0.18022 z M 24.225637,390.10796 c -0.602208,-0.9744 1.603834,-2.15872 5.056411,-2.71455 1.858703,-0.29923 4.593598,-0.87248 6.077543,-1.27388 2.085655,-0.56416 2.958433,-0.61119 3.845061,-0.20722 2.648806,1.20688 1.169911,2.03293 -6.391039,3.56978 -6.390858,1.29902 -8.095183,1.42322 -8.587976,0.62587 z m 123.593073,-0.79668 c -2.01537,-0.43429 -2.00036,-1.35903 0.037,-2.28043 1.62301,-0.73402 3.99362,-0.80899 25.5776,-0.80899 22.52705,0 23.86004,0.0467 25.13194,0.8793 1.27774,0.83649 1.30083,0.91026 0.47417,1.51472 -0.70693,0.51694 -5.32098,0.63542 -24.74427,0.63542 -13.13141,0 -24.15461,0.0794 -24.496,0.17649 -0.34138,0.097 -1.2326,0.0446 -1.98045,-0.11644 z m 177.06732,-0.13247 c -2.05069,-0.21878 -5.70057,-0.50261 -8.11083,-0.63076 -4.03014,-0.21425 -5.63818,-0.6843 -5.63818,-1.64809 0,-0.70257 3.35599,-1.4842 5.06068,-1.1787 0.93353,0.16734 5.50211,0.48609 10.15243,0.70841 7.95894,0.3805 10.42064,0.83344 10.42064,1.91734 0,1.32841 -4.36583,1.63398 -11.88474,0.8318 z M 85.565006,388.55798 c -1.743529,-2.10082 1.947277,-2.51409 22.730984,-2.54523 13.12021,-0.0195 16.27419,0.0999 17.6351,0.66855 1.85084,0.77332 1.88895,1.6576 0.0921,2.13815 -0.65412,0.17491 -9.88581,0.35515 -20.51486,0.40049 -17.197,0.0733 -19.393627,4.4e-4 -19.943368,-0.66196 z m 211.433484,-1.1747 c -1.49593,-0.19118 -3.2244,-0.61762 -3.84107,-0.94766 -0.87105,-0.46617 -1.38695,-0.47896 -2.31229,-0.0574 -2.78774,1.27017 -5.19864,0.26503 -4.76797,-1.98788 0.4329,-2.2645 -0.41284,-2.47651 -2.34658,-0.58827 -3.20332,3.12798 -8.41038,3.93921 -13.73874,2.14045 -2.86392,-0.96681 -3.69353,-0.98069 -8.74998,-0.14638 -2.34465,0.38686 -3.15029,-0.62396 -2.16573,-2.71728 0.68544,-1.45734 1.74159,-6.25967 1.71075,-7.77877 -0.0268,-1.32149 -1.27976,0.81826 -2.3338,3.98564 -1.34994,4.05653 -4.72243,6.82271 -6.34272,5.20241 -0.85432,-0.85431 -0.42013,-1.96159 1.02795,-2.62138 1.19288,-0.54352 2.99799,-3.0898 3.00099,-4.2332 0.004,-1.20552 3.65923,-8.24862 5.06057,-9.74876 2.62149,-2.80631 4.73189,-1.36275 3.86832,2.646 -0.25769,1.19625 -0.84153,4.12863 -1.29742,6.51636 -0.96174,5.0371 -0.77121,5.4191 2.47833,4.96892 1.47898,-0.20488 2.43876,-0.0218 3.96158,0.7558 1.244,0.6352 3.16389,1.09952 5.03913,1.21867 3.99704,0.25396 5.70051,-0.63983 8.18249,-4.29327 1.0447,-1.53777 2.20427,-2.85465 2.57683,-2.92639 1.26308,-0.24325 2.37403,1.0973 2.8003,3.37897 0.23291,1.24672 0.5174,2.36068 0.63219,2.47546 0.11486,0.11485 0.89489,-0.0305 1.73355,-0.32285 1.32328,-0.46129 1.70081,-0.40147 2.85607,0.45266 0.73217,0.54131 2.52103,1.15541 3.97525,1.36466 5.21475,0.75039 8.0038,1.64758 8.0038,2.57472 0,1.19849 -3.14322,1.43869 -9.0118,0.68869 z M 48.391298,386.6123 c -0.320422,-0.12929 -0.582585,-0.43804 -0.582585,-0.68609 0,-0.87125 3.232597,-1.78595 8.706638,-2.46364 3.040152,-0.37638 6.530889,-0.90919 7.757193,-1.184 1.226306,-0.27482 3.214443,-0.46513 4.418085,-0.42289 2.630105,0.0923 4.056181,-0.31773 5.916985,-1.70119 1.777511,-1.32152 4.90977,-2.31567 10.411088,-3.30437 4.057561,-0.72923 4.462023,-0.72982 5.974373,-0.009 0.89219,0.42546 1.818977,0.65192 2.059547,0.50325 0.731276,-0.45195 1.869797,-2.96865 2.584761,-5.71353 0.833567,-3.20029 1.322053,-3.81902 3.015082,-3.81902 1.070878,0 1.698985,0.50428 3.260035,2.61742 l 1.93362,2.61742 2.15918,-0.27589 c 1.18756,-0.15167 3.20784,-0.40631 4.48954,-0.56571 1.55346,-0.19321 3.34025,-0.0243 5.35978,0.50661 1.66618,0.43803 4.49756,0.89805 6.29191,1.02226 1.79437,0.12419 5.25492,0.86193 7.69013,1.63943 4.26188,1.36066 4.53232,1.39024 7.22404,0.78965 1.53802,-0.34318 4.48726,-0.57998 6.55385,-0.52624 4.61877,0.12014 5.45427,-0.46782 6.29483,-4.42956 0.31462,-1.48297 2.25078,-6.64777 4.30256,-11.47734 2.9477,-6.93848 3.97081,-8.89054 4.87586,-9.30292 0.95971,-0.43727 1.25041,-0.37821 1.79341,0.36439 0.90842,1.24233 0.82355,2.0181 -0.61943,5.66284 -1.18246,2.98665 -1.26118,3.62358 -1.17323,9.49335 0.10552,7.04001 0.33693,8.66367 1.28683,9.02816 0.35936,0.13793 2.13529,-0.5213 3.94648,-1.46494 3.81506,-1.98763 4.381,-1.85907 5.53978,1.25835 1.04428,2.80941 1.704,3.12423 5.2682,2.51384 2.52205,-0.4319 3.30078,-0.38193 5.42413,0.34819 2.86583,0.98541 4.4792,0.64017 4.89088,-1.04656 0.14533,-0.59544 0.492,-3.70427 0.77037,-6.90849 0.27835,-3.20421 0.60221,-6.35018 0.71967,-6.99102 0.32859,-1.79274 1.10307,-24.6339 1.39859,-41.24699 0.55556,-31.23172 1.14537,-56.22697 1.33412,-56.53749 0.10798,-0.17754 0.25922,-35.66239 0.33625,-78.85523 0.0997,-55.95505 -0.009,-79.4246 -0.37709,-81.63577 -0.4505,-2.70354 -0.94993,-3.72431 -3.87649,-7.923167 -1.84764,-2.650888 -4.12077,-5.74626 -5.05142,-6.878616 -0.93062,-1.132355 -2.72615,-3.334515 -3.99006,-4.893703 C 169.92017,76.339665 158.69896,64.645135 152.20791,59.179942 131.49849,41.743455 110.46946,31.428227 90.686958,29.002513 88.25175,28.703918 85.25921,28.265054 84.036868,28.027267 c -1.724445,-0.335463 -3.082094,-0.233471 -6.058882,0.455176 -8.223575,1.90242 -21.992293,2.444668 -27.372866,1.077995 -5.187255,-1.317561 -8.011674,-3.880391 -8.645624,-7.844895 -0.609064,-3.808874 1.165123,-7.337526 4.611586,-9.171916 1.738006,-0.92506 2.606252,-1.029307 8.461682,-1.015919 8.41598,0.0192 12.635006,1.001439 24.468562,5.69625 2.319019,0.92004 6.475951,1.889085 12.350805,2.879163 15.519449,2.615482 31.817769,8.920513 47.467719,18.362962 13.44409,8.111513 29.77472,22.228235 44.58033,38.536617 2.43503,2.68219 6.11879,6.606972 8.18615,8.721743 l 3.75883,3.845073 h 2.82558 2.82556 l 4.12554,-4.544166 c 7.61976,-8.392921 9.69176,-10.568851 17.65524,-18.540858 9.21275,-9.22263 9.8912,-9.838614 18.33964,-16.651349 12.07379,-9.736177 24.60775,-17.042947 38.99287,-22.731218 9.15182,-3.618877 14.26011,-5.178189 20.71038,-6.321888 3.7332,-0.661925 8.41179,-1.494559 10.39686,-1.850297 1.98508,-0.355756 4.39699,-1.047521 5.35978,-1.537275 2.74728,-1.397499 11.14474,-4.123481 15.49955,-5.031472 2.57637,-0.537192 6.0801,-0.831577 10.02045,-0.841917 5.73066,-0.01585 6.17276,0.05108 8.1612,1.220062 2.8196,1.657692 4.1896,4.139422 4.1896,7.589387 0,6.292753 -4.27449,9.226946 -14.38429,9.874003 -5.74276,0.367558 -16.91662,-0.516899 -21.58337,-1.708441 -2.87648,-0.734429 -4.02512,-0.829128 -5.61312,-0.462821 -1.09811,0.253323 -2.87098,0.46571 -3.9397,0.471963 -2.73661,0.01585 -12.60897,2.04542 -17.86476,3.672303 -17.43748,5.397586 -36.41063,16.925824 -51.50048,31.292064 C 228.5212,74.454684 216.4654,88.23219 209.8656,97.976053 l -2.69503,3.978897 -0.46032,10.4692 c -0.51068,11.61446 -0.45632,113.56902 0.0752,141.20123 1.13878,59.19288 1.40854,71.70047 1.84954,85.75649 0.26942,8.58729 0.55484,16.4522 0.63425,17.47754 0.0794,1.02534 0.28992,3.96158 0.46784,6.52496 0.62865,9.05801 1.22337,14.46312 1.73139,15.73571 0.58664,1.46949 2.04181,1.99286 4.24705,1.52746 4.35116,-0.91828 5.63296,-0.82372 8.73281,0.64415 4.11772,1.94986 5.57846,2.16112 8.15068,1.17878 1.88235,-0.71888 2.43885,-0.7447 4.64466,-0.21553 1.37835,0.33066 2.81752,0.48169 3.19815,0.33564 0.38063,-0.14603 0.84137,-1.17153 1.02388,-2.27882 0.67105,-4.07118 7.68423,-8.68415 7.68423,-5.05433 0,0.47601 -0.86246,1.54854 -1.91658,2.38342 -1.83807,1.45578 -1.90521,1.60088 -1.63908,3.54251 0.22218,1.62104 0.0986,2.20346 -0.62008,2.92214 -1.38052,1.38052 -4.18597,2.06325 -6.19679,1.50804 -1.13387,-0.31308 -2.36299,-0.31404 -3.70213,-0.004 -3.16537,0.7355 -8.78716,0.16752 -12.78904,-1.29202 -3.29691,-1.20245 -3.71989,-1.25316 -6.19261,-0.74243 -4.15503,0.85821 -5.77244,0.71685 -7.02248,-0.61376 -1.0012,-1.06572 -1.1417,-1.84313 -1.69675,-9.38878 -0.33282,-4.52479 -0.82111,-11.08033 -1.08506,-14.56786 -0.26396,-3.48756 -0.48077,-6.91776 -0.48183,-7.62268 l -0.002,-1.2817 h -7.42956 c -4.08628,0 -7.52671,0.1573 -7.64542,0.34955 -0.11873,0.19226 -0.3453,2.55172 -0.50351,5.24326 -0.92913,15.80625 -1.58024,23.2044 -2.1331,24.23743 -0.37726,0.70494 -1.15019,0.88854 -4.30747,1.02319 -2.19567,0.0937 -4.74818,-0.0868 -5.94499,-0.42044 -1.15353,-0.32147 -3.14596,-0.47191 -4.42766,-0.3343 -2.72475,0.29257 -4.90093,-0.78576 -6.20265,-3.07353 -0.95617,-1.68045 -1.1496,-1.69656 -3.04172,-0.25337 -0.82063,0.62592 -2.50549,1.40911 -3.74414,1.74038 -2.21241,0.59172 -2.27177,0.57945 -3.37055,-0.69797 -0.82612,-0.96043 -1.12425,-1.87217 -1.1406,-3.48814 -0.0729,-7.2219 -0.243,-11.18767 -0.46733,-10.90274 -0.54272,0.68937 -2.29226,5.58624 -3.00994,8.4247 -0.41332,1.63474 -1.06727,3.45419 -1.45321,4.04322 -0.866,1.32168 -2.91787,2.07283 -5.66226,2.07283 -1.14759,0 -4.07097,0.33826 -6.49636,0.75167 -4.84676,0.82617 -7.83845,0.52155 -12.35266,-1.25779 -1.38724,-0.54679 -3.40643,-0.89208 -5.21683,-0.89208 -1.62447,0 -3.84525,-0.31459 -4.93505,-0.6991 -2.40013,-0.84683 -6.41612,-0.87085 -9.50505,-0.0569 -2.98572,0.78676 -4.22818,0.49991 -6.07603,-1.40275 -0.838502,-0.86339 -1.645787,-1.56979 -1.793966,-1.56979 -0.148143,0 -0.615738,1.19138 -1.039048,2.64752 -0.617975,2.12576 -1.369455,3.26879 -3.813277,5.80016 -2.829277,2.93062 -5.259606,4.30254 -6.111969,3.45018 -0.16981,-0.16981 0.143388,-1.0939 0.695693,-2.05367 l 1.004329,-1.74506 -2.674528,-0.59333 c -2.422275,-0.53739 -2.985585,-0.49886 -5.972826,0.40849 -1.814071,0.55101 -3.974127,1.50043 -4.800123,2.10983 -0.954147,0.70395 -2.45929,1.21639 -4.127418,1.40521 -1.444082,0.16347 -5.30104,0.8047 -8.571015,1.42496 -5.50052,1.04336 -13.514202,1.47679 -15.144159,0.81909 z M 204.17448,333.32316 v -4.42765 h -5.82587 -5.82584 l -0.13353,4.55823 -0.13352,4.5582 5.95942,-0.13053 5.95941,-0.13052 z m -0.74722,-18.14692 c 0.37728,-0.23317 0.5086,-1.72042 0.41617,-4.71341 l -0.1351,-4.37277 -5.28114,0.0608 c -2.90461,0.0335 -5.41354,0.19319 -5.57537,0.35502 -0.35569,0.35568 -0.58581,8.22533 -0.25614,8.75875 0.28663,0.46379 10.0672,0.38401 10.83149,-0.0884 z m -0.0684,-22.17706 c 0.70227,-0.23466 0.82837,-7.71381 0.1418,-8.40341 -0.24381,-0.24485 -2.74377,-0.37768 -5.59281,-0.29718 l -5.15194,0.14568 v 4.07231 c 0,2.23978 0.19894,4.27157 0.4421,4.51508 0.41572,0.41635 8.89888,0.38929 10.16094,-0.0324 z m 5e-5,-20.64906 c 0.44084,-0.27992 0.5571,-2.68852 0.47771,-9.8968 -0.17878,-16.2326 -0.1027,-157.08864 0.0867,-160.38847 0.15642,-2.727513 0.031,-3.341544 -1.00144,-4.901737 -0.64919,-0.980988 -1.93503,-2.19004 -2.85741,-2.68677 -1.56601,-0.843344 -1.77959,-0.854265 -3.2252,-0.164878 -2.12722,1.014404 -4.26713,4.190277 -4.11805,6.111685 0.39287,5.0635 0.46729,94.12979 0.10798,129.22501 -0.28672,28.00683 -0.27385,42.11442 0.0387,42.50363 0.52918,0.6587 9.49882,0.8283 10.49092,0.19836 z m -9.6899,-179.319982 c 0.0745,-1.972828 -20.21552,-24.0661 -30.27962,-32.970565 -10.59922,-9.377943 -13.82472,-11.912712 -21.90104,-17.211066 -5.956,-3.907343 -15.6153,-9.051851 -22.37126,-11.914844 -5.8025,-2.458935 -15.19052,-6.14741 -15.64661,-6.14741 -0.19763,0 -0.72344,0.329527 -1.16845,0.732263 -0.72028,0.651849 -1.03135,0.658243 -2.833117,0.05831 -2.90342,-0.966808 -6.451624,-1.422178 -6.451624,-0.827983 0,0.267169 0.471892,0.590601 1.048666,0.718769 19.689225,4.375184 39.218815,13.673876 55.550925,26.44969 10.88093,8.511594 29.35388,28.324725 40.03289,42.937172 l 1.32163,1.808425 1.33934,-1.565811 c 0.73663,-0.861188 1.34784,-1.791304 1.35827,-2.066928 z m 15.70055,-1.246625 c 4.33506,-5.755948 10.9019,-13.63389 15.29356,-18.346968 21.91541,-23.519431 39.68817,-35.625904 64.56732,-43.98208 3.20344,-1.075934 5.96467,-2.183153 6.13606,-2.460468 0.1714,-0.277316 -0.17634,-0.888051 -0.77274,-1.357196 -1.05106,-0.82675 -1.1465,-0.826538 -3.10662,0.007 -1.11224,0.472914 -2.65146,1.013999 -3.42046,1.202393 -4.01852,0.984459 -19.45079,8.194133 -27.46696,12.832047 -16.70832,9.666915 -38.89298,29.874942 -55.8862,50.906777 l -1.76171,2.18037 1.25586,1.897717 c 0.6907,1.043733 1.32517,1.897716 1.40991,1.897716 0.0847,0 1.77313,-2.149736 3.75198,-4.777197 z m 93.72768,-66.452634 c 2.63293,-0.801578 3.37629,-1.819981 1.1438,-1.566975 -2.68547,0.304338 -6.88562,1.560528 -7.55211,2.258705 -0.63272,0.662806 -0.48296,0.701665 1.57744,0.409147 1.25208,-0.177772 3.42599,-0.673163 4.83087,-1.100877 z M 80.083911,24.970349 c 2.072522,-0.339232 2.223828,-0.822645 0.466067,-1.489062 -20.644941,-7.827175 -31.312598,-9.05733 -32.980201,-3.803184 -0.445749,1.404439 0.557996,3.488154 2.018191,4.189643 3.111146,1.494611 6.734425,1.821161 17.795593,1.60386 6.023926,-0.118373 11.739085,-0.343918 12.70035,-0.501257 z M 345.43309,24.617201 c 3.08956,-0.982469 4.02479,-2.034358 3.83585,-4.314394 -0.11838,-1.428678 -0.46821,-1.997207 -1.77862,-2.890578 -1.50483,-1.025942 -1.93325,-1.08978 -5.52856,-0.823879 -2.14352,0.158537 -5.49921,0.611969 -7.45708,1.00764 -4.99162,1.008786 -19.14373,6.012496 -19.16508,6.776113 -0.0391,1.399437 25.80161,1.609903 30.09349,0.245098 z M 64.227904,47.077902 c -0.84416,-0.844154 -0.736573,-5.263211 0.145976,-5.995667 1.190488,-0.988017 1.836596,0.206661 1.840762,3.403631 0.0028,2.208748 -0.16183,2.915134 -0.705045,3.023502 -0.389841,0.07786 -0.9666,-0.116436 -1.281686,-0.431466 z m 266.794686,0.234969 c -0.60561,-0.605609 -0.31523,-5.098105 0.38839,-6.008633 0.69203,-0.895554 0.70618,-0.895554 1.39821,0 0.83703,1.083192 0.93135,4.968528 0.13986,5.760065 -0.6188,0.618803 -1.44904,0.725939 -1.92641,0.248568 z M 48.27478,44.998697 c 0,-2.082865 1.612672,-4.832204 2.834419,-4.832204 1.121311,0 1.192735,1.645608 0.176945,4.07673 -1.232916,2.950781 -3.011364,3.396955 -3.011364,0.755474 z m 298.10943,0.552288 c -0.42627,-0.650546 -0.90459,-2.128189 -1.06297,-3.283655 -0.25648,-1.871171 -0.18852,-2.100837 0.62171,-2.100837 1.17972,0 3.05824,3.289543 2.85985,5.007968 -0.1936,1.677051 -1.43938,1.870977 -2.41859,0.376524 z M 80.548778,43.778535 c -0.831876,-1.042501 -1.979588,-3.547342 -1.979588,-4.320401 0,-0.513852 0.330608,-0.707143 1.036053,-0.605733 1.088196,0.156423 3.13693,3.207915 3.15089,4.693085 0.009,0.951724 -1.506222,1.111688 -2.207355,0.233049 z M 314.39951,43.265863 c 0,-1.536254 2.64085,-5.064905 3.63632,-4.858755 1.07019,0.221616 0.90735,1.314884 -0.57176,3.838819 -1.39434,2.379258 -3.06456,2.935139 -3.06456,1.019936 z M 33.577273,41.538221 c -0.601329,-0.972974 0.270891,-2.671023 2.362178,-4.598685 1.170636,-1.07907 2.380111,-1.878129 2.687719,-1.775714 1.213664,0.404074 0.758194,1.841947 -1.361035,4.296655 -2.188348,2.534751 -3.091888,3.043671 -3.688862,2.077744 z M 359.88431,39.183954 c -1.17727,-1.309405 -2.14049,-2.660277 -2.14049,-3.001923 0,-1.928156 2.93182,-0.710807 4.80785,1.996309 2.70787,3.907466 0.64195,4.686355 -2.66736,1.005614 z"
       id="path7" /></g><metadata
     id="metadata182"><rdf:RDF><cc:Work
         rdf:about=""><cc:license
           rdf:resource="http://creativecommons.org/licenses/by-sa/4.0/" /><dc:publisher><cc:Agent><dc:title>OpenDataKerala.org</dc:title></cc:Agent></dc:publisher><dc:date>April 2026</dc:date><dc:title>Election Symbols of Kerala</dc:title><dc:creator><cc:Agent><dc:title>Manoj Karingamadathil</dc:title></cc:Agent></dc:creator></cc:Work><cc:License
         rdf:about="http://creativecommons.org/licenses/by-sa/4.0/"><cc:permits
           rdf:resource="http://creativecommons.org/ns#Reproduction" /><cc:permits
           rdf:resource="http://creativecommons.org/ns#Distribution" /><cc:requires
           rdf:resource="http://creativecommons.org/ns#Notice" /><cc:requires
           rdf:resource="http://creativecommons.org/ns#Attribution" /><cc:permits
           rdf:resource="http://creativecommons.org/ns#DerivativeWorks" /><cc:requires
           rdf:resource="http://creativecommons.org/ns#ShareAlike" /></cc:License></rdf:RDF></metadata></svg>
