<?xml version="1.0" encoding="UTF-8" standalone="no"?>
<!-- Created with Inkscape (http://www.inkscape.org/) -->

<svg
   width="1500"
   height="1500"
   viewBox="0 0 396.87499 396.875"
   version="1.1"
   id="svg5"
   xml:space="preserve"
   inkscape:version="1.3 (0e150ed6c4, 2023-07-21)"
   sodipodi:docname="Flute.svg"
   inkscape:export-filename="Bat.png"
   inkscape:export-xdpi="96"
   inkscape:export-ydpi="96"
   xmlns:inkscape="http://www.inkscape.org/namespaces/inkscape"
   xmlns:sodipodi="http://sodipodi.sourceforge.net/DTD/sodipodi-0.dtd"
   xmlns="http://www.w3.org/2000/svg"
   xmlns:svg="http://www.w3.org/2000/svg"
   xmlns:rdf="http://www.w3.org/1999/02/22-rdf-syntax-ns#"
   xmlns:cc="http://creativecommons.org/ns#"
   xmlns:dc="http://purl.org/dc/elements/1.1/"><title
     id="title186">Election Symbols of Kerala</title><sodipodi:namedview
     id="namedview7"
     pagecolor="#ffffff"
     bordercolor="#000000"
     borderopacity="0.25"
     inkscape:showpageshadow="2"
     inkscape:pageopacity="0.0"
     inkscape:pagecheckerboard="0"
     inkscape:deskcolor="#d1d1d1"
     inkscape:document-units="mm"
     showgrid="false"
     inkscape:zoom="0.25"
     inkscape:cx="230"
     inkscape:cy="1082"
     inkscape:window-width="1920"
     inkscape:window-height="991"
     inkscape:window-x="-9"
     inkscape:window-y="-9"
     inkscape:window-maximized="1"
     inkscape:current-layer="layer1" /><defs
     id="defs2"><inkscape:path-effect
       effect="bspline"
       id="path-effect3248"
       is_visible="true"
       lpeversion="1"
       weight="33.333333"
       steps="2"
       helper_size="0"
       apply_no_weight="true"
       apply_with_weight="true"
       only_selected="false" /><inkscape:path-effect
       effect="bspline"
       id="path-effect577"
       is_visible="true"
       lpeversion="1"
       weight="33.333333"
       steps="2"
       helper_size="0"
       apply_no_weight="true"
       apply_with_weight="true"
       only_selected="false" /></defs><g
     inkscape:label="Layer 1"
     inkscape:groupmode="layer"
     id="layer1"><path
       style="fill:#000000;stroke-width:1.60465"
       d="m 315.32882,362.90991 c -1.79592,-2.05888 -2.09098,-4.52275 -0.82446,-6.88433 1.0955,-2.04265 3.15694,-2.96263 7.68921,-3.43153 6.06266,-0.62725 7.30858,-1.61882 8.3647,-6.65709 0.74882,-3.57234 2.07296,-5.84699 4.86499,-8.35726 1.206,-1.08431 2.11841,-2.02577 2.02759,-2.09217 -3.15349,-2.30527 -6.78105,-5.71431 -7.1223,-6.69324 -0.47577,-1.36476 -0.72662,-1.59814 -8.28002,-7.70379 -3.67761,-2.97271 -5.44741,-4.13948 -6.27899,-4.13948 -0.63689,0 -1.61686,-0.20908 -2.17773,-0.46463 -1.336,-0.60872 -3.91285,0.66476 -6.42166,3.17358 -1.4639,1.4639 -1.94082,2.35309 -2.54604,4.74706 -1.23419,4.8819 -2.00906,6.70322 -3.42682,8.05481 -1.76167,1.67946 -3.79805,2.29899 -8.58689,2.61249 -4.73839,0.31021 -5.69888,0.95302 -4.86595,3.25649 0.76985,2.12895 0.63373,3.224 -0.45096,3.62785 -2.21504,0.82467 -4.2941,-1.59996 -4.24347,-4.94882 0.057,-3.7682 2.40748,-5.47585 8.6558,-6.28842 5.84605,-0.76026 7.1787,-1.76543 7.98629,-6.02381 0.88699,-4.67701 2.84799,-7.60307 6.84638,-10.21562 l 2.54221,-1.66108 -4.02787,-3.23966 c -3.37168,-2.71191 -4.07407,-3.48589 -4.31139,-4.75101 -0.19328,-1.03023 -0.7568,-1.87565 -1.77023,-2.65582 -0.81767,-0.62947 -2.65724,-2.11342 -4.08792,-3.29767 -1.43065,-1.18424 -6.61331,-5.39339 -11.51702,-9.35365 -16.9204,-13.66508 -26.20781,-21.21085 -54.55627,-44.32543 -6.18799,-5.04554 -16.04322,-13.07951 -21.90052,-17.85329 -5.85729,-4.77374 -13.30837,-10.84671 -16.55793,-13.49541 -3.24956,-2.64872 -14.02806,-11.43212 -23.95222,-19.51865 -9.92413,-8.08652 -22.7247,-18.5173 -28.44568,-23.17952 -5.72097,-4.6622 -14.89152,-12.10501 -20.37899,-16.53956 -5.48746,-4.43455 -12.4609,-10.09358 -15.49652,-12.5756 C 99.042521,139.55361 91.98792,133.8087 86.401267,129.26916 73.247263,118.58068 44.307228,95.012673 30.388695,83.653982 24.37986,78.750283 18.829696,74.447571 18.05499,74.092399 16.118568,73.204629 9.7358027,68.125573 9.7358027,67.472467 c 0,-0.291982 -0.5760356,-0.94106 -1.2800898,-1.442384 -2.6893543,-1.914984 -3.7825023,-6.025524 -2.7669542,-10.404441 0.9202316,-3.967982 2.4752292,-6.621825 5.5840203,-9.52994 4.568539,-4.273651 9.185729,-5.097332 14.171827,-2.528198 2.997895,1.544679 9.137091,6.040767 9.484481,6.946028 0.118422,0.308718 5.436234,4.632594 11.81725,9.6086 20.574329,16.044142 36.349858,28.380671 47.477383,37.127577 13.73004,10.792601 39.00674,30.579981 57.74049,45.201031 9.45712,7.38096 20.82479,16.26541 25.26147,19.74321 4.43667,3.47781 10.45484,8.18219 13.37371,10.45417 9.7136,7.56085 45.67109,35.74531 55.19312,43.26186 3.15237,2.48846 12.32292,9.67326 20.37899,15.96626 12.6908,9.91341 28.2912,22.14691 47.97208,37.61869 2.91695,2.29312 5.59171,4.14314 5.94388,4.11114 1.88551,-0.17134 2.95565,0.42011 8.34636,4.6129 4.57128,3.55545 6.11618,5.01741 6.94136,6.56872 0.8261,1.55306 2.44184,3.08047 7.28838,6.88988 3.42485,2.69195 6.61256,4.89445 7.0838,4.89445 1.64768,0 3.11931,0.87645 8.5525,5.09346 5.49984,4.26873 6.79467,5.56523 6.79467,6.80329 0,0.36806 3.10463,3.08519 6.89914,6.03809 12.49751,9.72553 16.20051,12.82819 17.03494,14.27325 0.53506,0.92662 0.89591,2.54521 1.02869,4.61411 0.75724,11.79939 -8.18772,28.98498 -15.08644,28.98498 -1.46625,0 -1.91744,-0.30511 -8.81492,-5.96092 -15.01039,-12.3083 -19.50067,-15.69176 -20.82495,-15.69176 -0.71477,0 -1.93667,-0.47002 -2.71532,-1.04448 -1.68744,-1.24497 -2.0576,-1.10771 -4.73311,1.75512 -1.32746,1.42039 -2.08413,2.70028 -2.46639,4.17183 -1.47764,5.68844 -1.85203,6.67963 -3.02965,8.02085 -1.74871,1.99169 -4.18247,2.8665 -8.68681,3.12253 -2.10159,0.11939 -4.1554,0.39028 -4.56405,0.60186 -0.84491,0.43744 -0.96489,1.95065 -0.27475,3.46533 1.02435,2.24816 -1.88998,3.9729 -3.53209,2.09035 z m 1.72185,-2.49022 c -0.62773,-1.66306 -0.18301,-3.37555 1.09387,-4.2122 0.63169,-0.4139 2.67552,-0.79625 5.43814,-1.01737 6.77424,-0.54221 8.2875,-1.68507 9.49161,-7.1684 1.0545,-4.80206 2.62099,-7.43308 5.68009,-9.54012 0.71653,-0.49351 0.90688,-0.85638 0.6067,-1.15656 -0.59848,-0.59848 -3.61955,1.62941 -5.23671,3.86182 -0.78545,1.08431 -1.51575,2.90795 -1.95485,4.88161 -1.27267,5.72042 -2.99221,7.17722 -9.47102,8.02389 -2.29731,0.30024 -4.57825,0.76064 -5.06873,1.02314 -2.13825,1.14436 -2.91193,4.37298 -1.52305,6.35589 0.91967,1.313 1.56509,0.5939 0.94395,-1.0517 z m 60.75536,-0.78142 c 3.25911,-2.40449 7.47798,-9.79698 9.33911,-16.36437 1.76042,-6.21209 1.57019,-13.29086 -0.40522,-15.07859 -2.73075,-2.47129 -9.14401,4.82707 -12.49796,14.22285 -2.1306,5.96871 -3.0131,13.07852 -1.96542,15.83418 0.98473,2.59001 3.15883,3.13495 5.52949,1.38593 z m -2.77462,-4.0972 c -0.65987,-0.72961 -0.8054,-1.53082 -0.79043,-4.35176 0.0312,-5.87131 2.96826,-13.47514 6.63577,-17.17932 2.01356,-2.0337 2.94764,-2.43009 4.1765,-1.77243 2.86869,1.53527 2.127,8.82768 -1.70844,16.79783 -3.05631,6.35109 -6.21653,8.82413 -8.3134,6.50568 z m -4.01121,-8.20527 c 0.29436,-1.38536 0.78212,-3.21872 1.08394,-4.07413 l 0.54874,-1.55531 -2.45722,-1.7894 c -1.35149,-0.98416 -4.34173,-3.88156 -6.64497,-6.43863 -2.30326,-2.55708 -6.23498,-6.46736 -8.73715,-8.68952 l -4.54941,-4.04027 -0.86376,1.69311 c -0.47508,0.93121 -0.86377,1.86881 -0.86377,2.08356 0,0.21478 1.09856,1.21751 2.44125,2.22834 3.83937,2.89042 6.38485,5.42193 9.14062,9.0905 1.40328,1.86808 3.52683,4.42807 4.719,5.68887 1.89515,2.00423 1.96629,2.13764 0.56591,1.06141 -0.88091,-0.67703 -2.92259,-2.85493 -4.53702,-4.83974 -4.22622,-5.19585 -11.42178,-11.88776 -12.78244,-11.88776 -0.18182,0 -0.55948,0.69358 -0.83924,1.54129 -0.49259,1.49251 -0.46342,1.57625 0.92232,2.64661 2.78498,2.15117 5.62863,4.9908 9.19879,9.18582 1.98729,2.3351 5.25568,5.95468 7.26311,8.04354 3.57987,3.72509 3.59694,3.75268 0.89021,1.43865 -1.51782,-1.29761 -4.17273,-3.96193 -5.89984,-5.92074 -6.99752,-7.93627 -12.43435,-13.17762 -13.04045,-12.57153 -0.12998,0.12997 -0.31772,0.96864 -0.41708,1.86361 -0.17702,1.59445 -0.1205,1.66983 2.81434,3.74997 3.87319,2.74526 8.82905,7.89304 12.37708,12.85638 1.72611,2.41466 3.94122,4.86308 5.72037,6.32287 l 2.90348,2.38229 0.25399,-3.77549 c 0.13977,-2.07652 0.49485,-4.90897 0.7892,-6.2943 z m -8.89759,3.37467 c 0,-0.57635 -8.69062,-10.4562 -10.64947,-12.10677 -2.5339,-2.1351 -5.36366,-4.24561 -5.69251,-4.24561 -0.55084,0 -0.13383,2.97541 0.52702,3.76032 0.6154,0.73091 15.37254,12.74031 15.70881,12.78386 0.0584,0.008 0.10606,-0.0788 0.10606,-0.1918 z m 12.07922,-12.72743 c 2.51209,-5.51243 5.52519,-9.40384 8.44706,-10.90935 0.89828,-0.46283 1.56697,-0.90722 1.48597,-0.98752 -0.0811,-0.0802 -4.82637,-3.79252 -10.54527,-8.24935 -6.61592,-5.15594 -10.75297,-8.10336 -11.37395,-8.10336 -0.99413,0 -4.33865,1.51302 -4.33865,1.96275 0,0.65259 8.24673,8.11415 11.22773,10.1587 4.20017,2.88078 3.68199,3.02135 -0.8437,0.22892 -2.08941,-1.28922 -4.81679,-3.55742 -7.14717,-5.94388 -2.07265,-2.12251 -3.87855,-3.8591 -4.01314,-3.8591 -0.45505,0 -3.04498,2.71047 -3.02074,3.16136 0.0129,0.24607 1.11175,1.26481 2.44122,2.26384 1.32946,0.99904 4.25221,3.3872 6.49502,5.30703 2.2428,1.91982 5.5292,4.34369 7.3031,5.38636 1.77388,1.04267 3.15401,1.96701 3.06693,2.05411 -0.3678,0.36779 -7.75323,-4.13371 -10.30943,-6.28369 -6.24029,-5.24864 -9.25822,-7.62135 -9.70745,-7.63207 -0.6715,-0.016 -2.85916,3.412 -2.42895,3.80614 0.19572,0.17932 2.17086,1.90654 4.3892,3.8383 2.21833,1.93173 6.13901,5.84991 8.7126,8.70704 4.05542,4.50224 7.93844,8.26181 8.53306,8.26181 0.10063,0 0.8325,-1.42562 1.62656,-3.16804 z m 2.99274,-13.93998 c -7.04636,-3.81707 -13.35418,-9.04778 -15.20825,-12.61135 l -0.77311,-1.48596 0.94663,1.27369 c 2.61985,3.52498 8.29742,8.03463 17.20672,13.66716 1.57344,0.99475 0.33018,0.51189 -2.17199,-0.84354 z m -90.53869,16.43655 c 0.13575,-0.13575 -0.0363,-0.92479 -0.3825,-1.75331 -0.51011,-1.22088 -0.53247,-1.74045 -0.11794,-2.74125 0.71868,-1.73507 1.50549,-2.03278 6.54165,-2.47524 6.82375,-0.59954 8.58305,-1.95325 9.79173,-7.53433 1.10287,-5.09249 3.43907,-8.37775 7.24977,-10.19495 1.43701,-0.68527 1.74968,-1.13322 1.07988,-1.54719 -0.5599,-0.34602 -3.75727,1.52811 -5.65329,3.3137 -1.86597,1.75724 -3.51908,4.97592 -3.95018,7.69117 -0.39699,2.50032 -1.91582,4.89574 -3.68252,5.8079 -0.86622,0.44723 -3.27948,0.99036 -5.50392,1.23871 -3.96581,0.44276 -5.05165,0.77636 -6.42504,1.97382 -1.13348,0.9883 -1.36811,3.17476 -0.53014,4.94062 0.70549,1.48674 1.07619,1.78665 1.58249,1.28035 z m 57.48392,-3.1664 c -0.56381,-2.1123 0.43299,-7.48002 2.26537,-12.19903 3.45839,-8.90645 10.99752,-17.07897 15.7553,-17.07897 1.14278,0 1.26207,-0.0935 0.81127,-0.63684 -1.17103,-1.41099 -4.58762,-0.47719 -8.18246,2.23638 -6.40019,4.83121 -12.18423,16.7098 -12.19357,25.04176 -0.002,2.09004 0.17733,2.83382 0.84615,3.50263 1.16556,1.16557 1.22161,1.09601 0.69794,-0.86593 z m -1.11097,-11.4286 c 2.05196,-6.14273 5.91924,-12.41098 9.82191,-15.91984 2.24618,-2.0195 5.71892,-4.05236 6.92267,-4.05236 0.35801,0 0.65095,-0.17514 0.65095,-0.3892 0,-1.35134 -3.89898,-0.2831 -7.15725,1.96095 -6.69928,4.61398 -12.79719,16.71007 -12.79719,25.3851 0,1.67505 0.1396,3.18522 0.31037,3.35592 0.17071,0.17069 0.54037,-1.46918 0.82149,-3.64417 0.28113,-2.17498 0.92329,-5.18837 1.42705,-6.6964 z m -2.77491,0.42117 c 1.73353,-6.68994 5.63441,-13.54146 10.02307,-17.60458 2.51258,-2.32622 6.0635,-4.48705 7.3736,-4.48705 0.35802,0 0.65095,-0.19105 0.65095,-0.42456 0,-0.73673 -2.47888,-0.46111 -4.53178,0.50386 -7.68489,3.61234 -15.28366,16.73957 -15.54838,26.86059 -0.10335,3.95263 0.68647,4.51693 1.06581,0.76149 0.17108,-1.69367 0.6061,-4.21808 0.96673,-5.60975 z m -2.14381,-1.71264 c 1.00491,-3.93757 4.89645,-11.63716 7.47561,-14.79079 2.53626,-3.1012 6.53918,-6.20629 8.92058,-6.91978 1.71626,-0.51421 1.87185,-1.2188 0.26754,-1.21164 -1.6929,0.008 -5.37169,2.05514 -7.78384,4.33241 -6.28977,5.9381 -10.7657,15.69572 -10.7657,23.46943 0,3.99077 0.56289,4.47608 0.90918,0.78386 0.14988,-1.59711 0.58927,-4.14567 0.97663,-5.66349 z m -2.13818,-1.69824 c 1.00679,-3.96256 4.45606,-10.78018 7.28009,-14.38942 2.67912,-3.42403 6.59028,-6.5598 9.13146,-7.32116 1.73454,-0.51968 1.86579,-1.21579 0.22923,-1.21579 -2.97925,0 -9.22581,4.86623 -12.41591,9.67232 -3.53651,5.32799 -6.09532,12.77736 -6.09532,17.74515 0,3.98858 0.57635,4.78401 0.89883,1.24048 0.14875,-1.63455 0.58599,-4.21377 0.97162,-5.73158 z m -1.16902,-4.32654 c 1.88597,-5.67738 4.8864,-10.67783 8.63029,-14.38301 2.5123,-2.48634 3.96128,-3.42463 7.65078,-4.95425 l 1.06141,-0.44006 -1.17267,-0.30769 c -0.86297,-0.22643 -1.78802,-0.006 -3.50255,0.8322 -6.8975,3.37463 -13.33497,13.16403 -15.32844,23.30982 -0.62409,3.17627 -0.64402,3.91177 -0.14826,5.47214 l 0.57266,1.80266 0.35951,-3.38128 c 0.1977,-1.8597 1.04252,-5.43744 1.87733,-7.95053 z m -5.02423,3.59034 c -1.14954,-1.39819 -8.36323,-7.60833 -10.88914,-9.37427 l -2.61967,-1.83151 v 1.57384 c 0,1.78658 -0.15132,1.63206 8.49125,8.67067 l 5.30703,4.32209 0.1351,-1.34004 c 0.0743,-0.73703 -0.11682,-1.64638 -0.42457,-2.02078 z m 1.09206,-1.70503 c 0.26468,-1.52203 0.16901,-1.69227 -2.1734,-3.86737 -4.25625,-3.95227 -11.15283,-9.82478 -11.53805,-9.82478 -0.34662,0 -1.10149,2.94114 -0.81066,3.15849 0.0735,0.0549 1.56642,1.15397 3.31774,2.4424 1.75131,1.28844 4.80816,3.98956 6.793,6.00253 1.98482,2.01296 3.72708,3.66464 3.87165,3.67038 0.14458,0.006 0.38746,-0.706 0.53972,-1.58165 z m 0.46021,-6.67133 c -1.42138,-1.02124 -8.54871,-6.77231 -11.15028,-8.9972 -1.84856,-1.5809 -2.30687,-1.56335 -2.80984,0.10752 -0.22207,0.73772 0.26067,1.28406 2.80861,3.17873 1.69223,1.25835 4.89603,4.04086 7.11957,6.18336 l 4.04282,3.89545 0.59629,-1.75161 c 0.58767,-1.72635 0.57893,-1.76409 -0.60717,-2.61628 z m -16.67842,-1.39536 c -0.32666,-5.8826 2.96309,-14.38584 7.97683,-20.61829 3.58588,-4.45751 8.95549,-7.90269 10.66771,-6.84449 0.30246,0.18693 0.41503,0.077 0.29411,-0.28696 -0.10767,-0.32439 -0.68269,-0.76187 -1.27761,-0.97218 -1.37264,-0.48525 -5.64695,1.45211 -8.29733,3.76083 -4.20095,3.65937 -8.19512,10.31111 -9.89406,16.47717 -1.49749,5.43488 -1.28427,11.34971 0.40916,11.34971 0.15421,0 0.20871,-1.2896 0.12115,-2.86579 z m 20.08579,-1.97303 1.69826,-3.20574 -1.03302,-0.75404 c -0.56814,-0.41472 -2.95631,-1.86803 -5.30703,-3.22957 -2.35071,-1.36155 -5.36712,-3.31541 -6.70313,-4.34192 l -2.42911,-1.86638 -1.06321,1.81425 c -1.80104,3.07322 -1.81135,3.0528 4.01091,7.93977 6.85298,5.75209 8.65095,7.16197 8.91375,6.98978 0.11794,-0.0772 0.97855,-1.583 1.91258,-3.34615 z m -21.73725,-6.41209 c 1.74232,-6.0096 4.49224,-11.04194 8.27019,-15.13445 2.65157,-2.87234 6.59989,-5.65775 8.66177,-6.11062 0.96523,-0.21199 1.15516,-0.38541 0.72234,-0.65953 -2.88966,-1.83012 -10.57698,4.00497 -14.89843,11.3087 -3.70621,6.26393 -6.08235,16.16392 -4.53688,18.90265 0.54101,0.95871 0.60439,0.77202 0.87442,-2.57515 0.16014,-1.98482 0.56809,-4.56404 0.90659,-5.7316 z m -2.0484,-2.15063 c 2.7544,-9.47483 9.77238,-18.47846 16.06322,-20.60813 2.07947,-0.70396 2.12805,-0.75382 1.00797,-1.03494 -2.57476,-0.64624 -7.90593,2.74177 -11.55825,7.34538 -4.1128,5.18407 -7.83787,14.63138 -7.83787,19.87801 0,3.89785 0.5676,4.08115 1.10323,0.35628 0.27141,-1.88737 0.82116,-4.55884 1.2217,-5.9366 z m -3.38239,7.03948 c -0.48894,-0.79111 0.6901,-7.33763 1.94724,-10.81192 2.74479,-7.5856 8.54673,-15.07528 13.65598,-17.62839 1.4148,-0.70699 2.8762,-1.28836 3.24753,-1.29193 0.59132,-0.006 0.59609,-0.0584 0.0384,-0.42381 -2.03368,-1.33261 -8.26888,2.39074 -12.0384,7.18873 -2.5404,3.2335 -5.03827,7.91015 -6.395,11.97299 -1.6426,4.91898 -2.00606,11.41252 -0.63876,11.41252 0.24284,0 0.32521,-0.18818 0.18308,-0.41819 z m -2.16976,-1.87586 c -0.12579,-0.3277 0.0761,-2.36171 0.44857,-4.52001 1.88392,-10.91673 9.13008,-21.35106 17.06256,-24.56979 l 2.06174,-0.83658 -1.82129,-0.0231 c -2.11825,-0.027 -4.14681,0.91553 -7.24956,3.3681 -5.94106,4.69615 -11.52041,16.31461 -11.52041,23.99017 0,1.44155 0.1274,2.74836 0.28303,2.90402 0.5012,0.50122 0.97102,0.30139 0.73536,-0.31275 z m 34.65104,-3.77087 c 1.69259,-1.81789 3.00455,-3.36451 2.91545,-3.43692 -0.089,-0.0724 -1.40384,-0.9546 -2.92164,-1.96042 -1.51782,-1.00582 -4.61381,-3.68808 -6.88,-5.96056 l -4.12035,-4.1318 -1.71738,1.47001 c -0.94458,0.80852 -1.71741,1.61279 -1.71741,1.78728 0,0.17449 2.53146,2.33544 5.62546,4.8021 3.094,2.46668 6.00756,4.91513 6.47458,5.441 1.00659,1.13347 -4.99469,-3.27912 -9.63862,-7.08702 l -3.27019,-2.68147 -1.7149,2.39484 -1.71491,2.39484 1.58859,1.39624 c 0.87373,0.76794 3.17428,2.31524 5.11234,3.43844 1.93806,1.12322 4.6128,2.84876 5.94386,3.83455 1.33109,0.98578 2.54109,1.74999 2.6889,1.69825 0.1478,-0.0517 1.65362,-1.58146 3.34622,-3.39936 z m -36.51857,0.006 c 0,-4.79824 2.48414,-11.76888 6.16987,-17.313 3.18113,-4.7851 9.1844,-9.74432 11.7958,-9.74432 0.95049,0 0.92452,-0.83533 -0.0279,-0.89801 -1.54978,-0.10209 -2.50353,0.15999 -4.48841,1.23311 -5.71392,3.08907 -11.44918,11.39693 -13.85093,20.06392 -1.17451,4.23839 -1.16228,9.32036 0.0225,9.32036 0.20854,0 0.37915,-1.19793 0.37915,-2.66206 z m -2.58969,-5.27689 c 0.0514,-1.6483 -0.79689,-2.34253 -7.17525,-5.8724 -7.47146,-4.13481 -11.86968,-7.29681 -15.86043,-11.40248 -6.18324,-6.36132 -6.77979,-7.66561 -0.87944,-1.92279 6.14403,5.97998 8.73032,7.91926 16.10304,12.07449 2.80211,1.57928 5.79482,3.42029 6.65044,4.09114 l 1.55573,1.21976 0.7042,-2.12012 c 0.38729,-1.16609 0.5652,-2.345 0.39535,-2.61984 -0.16985,-0.27484 -0.13078,-0.38963 0.0869,-0.25511 0.21767,0.13447 1.14239,-1.22109 2.05497,-3.01248 1.84113,-3.61418 4.34844,-7.06629 6.96859,-9.59446 l 1.72787,-1.66722 -1.65182,-1.41391 c -0.90853,-0.77765 -2.56311,-2.70214 -3.67687,-4.27666 -5.09188,-7.19829 -8.70874,-11.10617 -14.75885,-15.94636 -6.32011,-5.05619 -7.26461,-5.79827 -22.13377,-17.39029 -5.13719,-4.00499 -11.69339,-9.15935 -14.5693,-11.45415 -7.68846,-6.13493 -11.39869,-8.80406 -11.77134,-8.46826 -0.18186,0.16387 -0.21434,0.0932 -0.0722,-0.15678 0.14426,-0.25374 -4.64873,-4.28858 -10.84315,-9.12808 -6.10588,-4.77032 -12.59184,-9.86347 -14.41325,-11.31808 -1.82138,-1.45463 -3.31162,-2.53951 -3.31162,-2.41086 0,0.4867 6.39586,8.12032 8.56324,10.22043 2.97864,2.88619 8.20872,6.32756 14.46057,9.51493 2.78813,1.42147 4.96238,2.69149 4.83163,2.82224 -0.38476,0.38475 -10.37294,-4.69056 -13.98352,-7.10547 -4.0708,-2.72271 -8.32723,-6.8697 -11.10665,-10.82108 -4.60666,-6.54909 -1.56321,-3.98159 -43.52325,-36.71686 -7.35554,-5.73845 -14.11763,-10.99716 -15.02687,-11.68605 l -1.65314,-1.25251 0.65399,1.2645 c 1.25576,2.42799 4.73233,6.79519 7.78464,9.77895 4.47678,4.37622 7.95349,7.10029 16.44385,12.88411 16.04994,10.93352 21.84127,15.90764 32.67356,28.06296 5.69364,6.38905 8.14137,8.64831 12.19427,11.25538 3.93568,2.53166 13.89252,8.07294 16.04485,8.92942 1.0021,0.39878 1.7272,0.81983 1.61136,0.93568 -0.34289,0.34289 -10.56432,-4.75043 -16.11946,-8.03231 -5.69178,-3.36261 -8.41598,-5.85929 -17.4471,-15.99004 -8.29621,-9.30633 -13.08804,-13.33567 -27.81957,-23.39274 -15.04336,-10.26994 -21.26539,-16.083 -25.69759,-24.00852 -1.40095,-2.50513 -2.25155,-3.3011 -9.88872,-9.25354 -4.59574,-3.58197 -12.46355,-9.73691 -17.484,-13.67765 -5.0204,-3.94045 -14.38199,-11.26975 -20.80351,-16.28704 -6.42151,-5.0173 -12.821782,-10.05561 -14.222838,-11.19624 -1.401056,-1.14064 -4.553422,-3.035618 -7.00527,-4.211085 -8.244663,-3.95249 -14.421364,-8.726647 -17.528166,-13.547932 -0.819044,-1.27104 -2.03437,-2.807584 -2.700699,-3.414573 -1.269194,-1.1561 -33.131063,-26.002187 -34.952576,-27.256233 -1.608657,-1.107494 -4.18323,-0.904089 -7.117806,0.562332 -4.28222,2.139859 -7.615037,6.448492 -8.749425,11.311224 l -0.608305,2.607534 1.545081,1.459922 c 4.062465,3.838616 18.099501,15.017763 31.052149,24.730055 9.995802,7.495156 14.181454,11.169966 17.168406,15.073036 2.178338,2.84647 2.957891,4.26567 1.049422,1.91053 C 65.363416,106.26965 59.735844,101.34744 50.065754,94.09273 36.797937,84.138938 29.223289,78.039456 18.697538,68.833462 l -1.0155,-0.888186 0.257802,1.698243 c 0.339672,2.237453 -3.013363,-0.677352 31.492577,27.376629 10.974939,8.922832 24.216713,19.691532 29.426162,23.930442 5.209454,4.23891 9.744212,7.70917 10.077258,7.71167 0.333046,0.003 1.993414,1.36149 3.689702,3.01995 3.178277,3.10737 10.628881,9.29727 26.859681,22.31481 7.90317,6.33856 9.84647,7.6921 12.6295,8.79656 4.44113,1.76249 10.28258,4.7471 12.72641,6.50237 1.10272,0.79204 3.96853,3.35161 6.36843,5.68793 6.98926,6.8041 9.84662,9.26057 13.80603,11.86904 2.04538,1.34749 5.25817,3.4719 7.13952,4.72087 1.88136,1.24899 4.36505,3.24823 5.51932,4.44279 l 2.09866,2.17191 -3.18234,-2.63738 c -1.75026,-1.45057 -4.32949,-3.32462 -5.73158,-4.16457 -7.16857,-4.29442 -11.74424,-7.80317 -17.62124,-13.51241 -3.38588,-3.28923 -7.35032,-6.8569 -8.80984,-7.92816 -2.37355,-1.74212 -9.51081,-5.51111 -12.69838,-6.70566 -1.92776,-0.72242 -4.16599,-2.59712 31.06087,26.01604 9.10687,7.39707 20.57006,16.72941 25.47375,20.73851 13.20637,10.7971 35.08161,28.62808 39.24194,31.98694 2.00137,1.61583 6.12255,4.97173 9.15817,7.45756 3.03562,2.48583 7.52537,6.1411 9.97722,8.12283 15.73881,12.72101 50.59318,41.11219 51.99533,42.35361 l 1.68468,1.49157 0.28967,-1.03779 c 0.15934,-0.57079 0.30871,-1.649 0.332,-2.39602 z m -0.19496,-7.54612 c -0.45326,-0.34395 -3.09185,-1.51521 -5.86349,-2.60279 -6.18662,-2.42765 -8.89968,-4.38803 -15.76419,-11.39089 -6.32028,-6.44764 -8.2436,-7.87711 -15.72357,-11.68625 -9.08202,-4.62498 -12.77755,-7.79761 -15.89438,-13.64542 -1.82715,-3.42803 -1.58392,-3.62616 0.46981,-0.3827 3.91458,6.18234 7.25275,8.96015 16.07617,13.37752 7.06929,3.53918 9.28817,5.19539 15.92108,11.88383 3.26915,3.29649 6.84536,6.6084 7.94715,7.3598 1.10178,0.75141 4.56266,2.57944 7.69082,4.06229 3.12816,1.48285 5.82023,2.91073 5.98235,3.17304 0.3984,0.64462 0.14426,0.59981 -0.84175,-0.14843 z m 1.14444,-8.58222 -3.55077,-2.80638 -1.21067,0.71516 c -2.72204,1.60795 -7.25845,0.55303 -8.8759,-2.06407 -1.08105,-1.74918 -1.11401,-4.63738 -0.0751,-6.57468 l 0.78081,-1.45588 -1.95775,-2.42953 c -1.07676,-1.33625 -3.25199,-4.92009 -4.83384,-7.96408 -3.40437,-6.55111 -5.68645,-9.7613 -9.78636,-13.76634 -6.17427,-6.03141 -14.07807,-10.15855 -23.19427,-12.11143 -1.87327,-0.40129 -1.88138,-0.41017 -0.41601,-0.45475 2.16176,-0.0658 7.29899,1.45695 11.40749,3.38129 10.13244,4.74582 17.56063,12.07946 22.76125,22.47155 1.46555,2.92852 4.34696,7.56785 5.90237,9.50332 0.60798,0.75653 0.72186,0.76228 2.10454,0.10607 5.72821,-2.71822 11.72237,3.06492 8.86292,8.5509 l -0.85554,1.64139 2.50424,2.06933 c 2.40401,1.98652 4.54101,4.04519 4.16342,4.01082 -0.0991,-0.009 -1.77798,-1.27928 -3.73091,-2.82277 z m -12.06159,-6.11014 c 0,-2.98712 2.64355,-5.60161 5.66386,-5.60161 1.71919,0 1.75156,-0.0234 0.77647,-0.56389 -4.07593,-2.25891 -8.8951,2.30808 -7.18415,6.80819 0.57506,1.51253 0.74382,1.3667 0.74382,-0.64269 z m 18.25927,2.26244 c -0.80229,-1.10916 -2.10459,-3.24368 -2.89398,-4.74338 -1.96206,-3.72752 -4.86236,-6.77107 -9.76449,-10.24678 -2.808,-1.9909 -5.61228,-4.53848 -8.72807,-7.9291 -12.01868,-13.07879 -16.46884,-16.68826 -28.03936,-22.74249 -7.98332,-4.17724 -7.82505,-4.53679 0.28938,-0.65741 9.85579,4.71188 16.98077,10.25177 25.58118,19.89016 5.22059,5.85068 7.92261,8.39699 12.34551,11.63416 4.47797,3.27747 6.71617,5.70465 8.5963,9.32218 0.86652,1.66729 2.08122,3.79564 2.69932,4.72968 1.62269,2.45208 1.79814,2.75965 1.57412,2.75965 -0.11073,0 -0.8576,-0.90749 -1.65991,-2.01667 z m -29.08993,-8.16859 c -2.93855,-3.36193 -7.08297,-6.17078 -12.60905,-8.54568 -8.18701,-3.51849 -10.79478,-5.55962 -14.58129,-11.41298 -1.28399,-1.98484 -3.31608,-4.85063 -4.51578,-6.36843 -1.19968,-1.51782 -2.71773,-3.52389 -3.37341,-4.45791 l -1.19218,-1.69825 1.58392,1.69825 c 3.11208,3.33676 5.75951,6.67706 8.05661,10.1652 2.83771,4.309 6.15094,7.42049 9.67372,9.08473 11.73266,5.54271 11.75777,5.55734 14.92456,8.68824 2.51549,2.48701 4.56578,5.03999 3.97236,4.9463 -0.0666,-0.0112 -0.93935,-0.95528 -1.93946,-2.09947 z m -16.86238,-2.19194 c -2.56861,-1.41446 -5.83151,-3.39765 -7.25091,-4.40714 -2.91504,-2.07319 -8.48249,-7.8384 -9.66704,-10.01041 l -0.7846,-1.43864 1.19533,1.48596 c 4.45526,5.53863 8.97313,9.28804 16.08267,13.34719 3.63243,2.0739 5.99422,3.68733 5.29185,3.61501 -0.10847,-0.0112 -2.29869,-1.17755 -4.8673,-2.59197 z m -1.90207,-12.54233 c -2.11536,-1.09738 -3.40531,-3.22203 -3.40337,-5.60561 0.003,-3.76672 2.71525,-6.40861 6.57913,-6.40861 6.63285,0 8.94477,7.57918 3.53427,11.5864 -1.60125,1.18595 -4.84944,1.39305 -6.71003,0.42782 z m -0.93467,-3.9195 c 0.0473,-3.43447 2.23389,-5.73788 5.46166,-5.75375 1.57564,-0.008 1.73679,-0.0856 1.11889,-0.53975 -1.01678,-0.7475 -3.8193,-0.6595 -5.21286,0.16368 -2.2863,1.35055 -3.18646,4.26859 -2.07156,6.71548 0.27097,0.59476 0.53503,1.08139 0.58678,1.08139 0.0518,0 0.1045,-0.75018 0.11713,-1.66705 z m -26.97521,-7.99175 c -8.61993,-11.52524 -14.30583,-16.81657 -28.77766,-26.78062 -8.66581,-5.96653 -11.31815,-8.29892 -16.53542,-14.5408 -6.81014,-8.14754 -10.44624,-11.45243 -17.00501,-15.4559 -5.77632,-3.5259 -9.47996,-6.53749 -17.03902,-13.85525 -8.22316,-7.96067 -10.67304,-9.67652 -19.54012,-13.68557 -9.99587,-4.51941 -14.25723,-7.3662 -23.32553,-15.58264 -4.7709,-4.32273 -6.5036,-5.75881 -10.375611,-8.59946 -0.627138,-0.46011 -0.365965,-0.39046 0.652041,0.17387 2.50234,1.38718 5.2947,3.60772 11.46319,9.11582 8.1626,7.28871 12.08226,9.71904 26.22072,16.25777 5.39615,2.49561 6.9555,3.69725 14.96184,11.52966 7.65539,7.48911 11.33167,10.44435 18.38081,14.7758 5.27292,3.24001 8.4044,6.10364 14.96576,13.68565 6.66119,7.69734 9.35778,10.0828 17.50002,15.48089 8.97279,5.9487 13.00461,9.113 18.04931,14.16562 4.80084,4.80837 7.75695,8.36728 11.85337,14.27042 3.27907,4.72533 3.65238,5.30703 3.40573,5.30703 -0.0938,0 -2.2784,-2.81803 -4.85442,-6.26229 z m -1.61275,-7.75129 c -5.13331,-5.8394 -10.526,-12.00087 -11.9838,-13.69215 -2.63824,-3.06079 -5.51476,-7.78816 -5.03245,-8.27047 0.13928,-0.13929 0.25313,-0.0547 0.25313,0.18773 0,1.16786 4.71703,7.42718 9.27521,12.30784 6.14662,6.58147 17.54857,20.08414 16.95949,20.08414 -0.0761,0 -4.33825,-4.77768 -9.47158,-10.61709 z m -11.43844,-2.14117 c -4.51567,-5.74772 -8.70846,-9.27713 -21.60594,-18.18742 -3.17329,-2.19228 -7.16068,-5.3061 -8.86089,-6.91959 l -3.09127,-2.93361 3.02202,2.46167 c 1.66211,1.35393 6.05634,4.54813 9.76494,7.09824 9.27024,6.37436 12.98245,9.33002 16.93999,13.48763 2.99196,3.14324 6.51273,7.56184 6.02531,7.56184 -0.0968,0 -1.08418,-1.15594 -2.19416,-2.56876 z m 17.10752,2.1312 c -4.603,-0.7872 -6.66543,-5.74555 -4.04006,-9.71279 l 1.12662,-1.70243 -2.64797,-1.8702 c -1.45638,-1.02858 -3.45994,-2.39923 -4.45234,-3.04584 -0.99242,-0.6466 -1.8044,-1.26402 -1.8044,-1.37203 0,-0.40091 4.95921,2.60745 7.14602,4.3349 l 2.26355,1.78809 1.77443,-0.63809 c 2.33159,-0.83843 4.54842,-0.40703 6.43918,1.25308 4.95238,4.34826 0.84706,12.10297 -5.80503,10.96531 z m -2.69217,-3.81473 c -0.39656,-1.24942 0.4783,-3.50161 1.88293,-4.84733 0.87986,-0.84296 1.86261,-1.25858 3.49282,-1.47718 l 2.26849,-0.3042 -1.74995,-0.55426 c -3.4365,-1.08846 -6.95359,1.29016 -6.95359,4.70275 0,1.57502 0.58328,3.33601 1.10497,3.33601 0.12419,0 0.10366,-0.3851 -0.0457,-0.85579 z m -28.10208,-18.23084 c -6.89424,-4.2037 -1.03053,-14.41072 6.39235,-11.12722 4.65946,2.06111 4.99952,8.42459 0.59375,11.11083 -1.83794,1.12061 -5.16234,1.12841 -6.9861,0.0164 z m -0.47575,-3.36018 c -0.30432,-3.19089 1.81132,-5.54687 5.4046,-6.01862 l 1.94722,-0.25566 -1.25465,-0.52175 c -2.84625,-1.18363 -6.68577,0.89587 -7.25483,3.92927 -0.22151,1.18075 0.64613,4.51002 1.17533,4.51002 0.0766,0 0.0685,-0.73947 -0.0177,-1.64326 z m -6.36509,-10.07918 c -2.17252,-1.77714 -3.85217,-3.32903 -3.73255,-3.44863 0.22056,-0.22058 6.4502,4.81147 7.45412,6.02112 0.98743,1.18977 0.27944,0.7004 -3.72157,-2.57249 z M 187.39412,197.476 c -4.2479,-1.85029 -5.14771,-7.12672 -1.77729,-10.42197 4.25266,-4.15773 10.9972,-1.40738 10.9972,4.48455 0,4.61471 -4.94524,7.79934 -9.21991,5.93742 z m -1.3658,-3.96686 c -0.2521,-2.95938 2.67499,-6.00581 5.84476,-6.08307 l 1.48596,-0.0363 -1.40218,-0.61256 c -1.8911,-0.82613 -4.32278,-0.16547 -5.78439,1.57154 -1.35712,1.61287 -1.6191,4.1258 -0.62398,5.98522 0.57678,1.07771 0.63356,0.98006 0.47983,-0.82492 z m -8.56089,-11.54796 -5.24183,-3.79969 -1.62253,0.82776 c -2.20151,1.12312 -4.38815,1.04918 -6.5568,-0.22174 -2.74309,-1.60756 -3.95415,-5.37396 -2.5294,-7.86632 0.33371,-0.58379 0.61352,-1.17385 0.62179,-1.31129 0.021,-0.34866 -6.14125,-5.16257 -11.342,-8.86032 -2.39346,-1.70175 -4.35177,-3.18093 -4.35177,-3.28704 0,-0.28941 7.78109,5.13456 11.8294,8.2459 1.95274,1.50079 3.80988,2.82827 4.12701,2.94995 0.3171,0.12163 1.08558,-0.17915 1.70772,-0.66849 1.51658,-1.19296 4.93694,-1.21437 6.85824,-0.043 2.74902,1.67612 3.90472,5.50209 2.43736,8.06899 -0.33372,0.58377 -0.61354,1.18223 -0.62181,1.32993 -0.008,0.14763 2.27759,2.04079 5.07971,4.20689 4.57692,3.53804 5.38818,4.2281 4.97073,4.2281 -0.0682,0 -2.48282,-1.70985 -5.36582,-3.79968 z m -12.51146,-10.67989 c 1.3253,-1.38332 3.61488,-2.27143 4.97404,-1.92936 0.89978,0.22643 0.90284,0.21511 0.10304,-0.38239 -0.45328,-0.33864 -1.65017,-0.61572 -2.65977,-0.61572 -3.51812,0 -6.09202,3.7864 -4.76199,7.00527 l 0.52629,1.27368 0.32972,-2.07093 c 0.21722,-1.3643 0.72516,-2.48369 1.4886,-3.28055 z m -9.30282,-14.39118 c -1.05,-1.16785 -3.28049,-4.13809 -4.95666,-6.60055 -4.12551,-6.06077 -6.71591,-9.09507 -9.41492,-11.02823 -3.10623,-2.22486 -3.44761,-2.61082 -1.25823,-1.42263 3.40159,1.84608 6.78218,5.40614 10.50789,11.06572 1.96378,2.98314 4.42914,6.47804 5.47859,7.76646 2.37925,2.92108 2.1817,3.0425 -0.35667,0.21923 z m -22.36969,-2.88335 c -1.65532,-0.906 -3.38377,-3.55623 -3.38018,-5.18282 0.003,-1.72342 1.47886,-4.46775 2.97339,-5.53195 2.06843,-1.47286 5.29018,-1.62745 7.16076,-0.34359 2.2349,1.5339 3.15248,3.03819 3.15248,5.16822 0,2.12666 -1.05979,4.22878 -2.77742,5.50903 -1.6594,1.23684 -5.21796,1.42707 -7.12903,0.38111 z m -0.6653,-3.23456 c -0.3423,-1.3638 1.15639,-4.69358 2.42976,-5.39847 0.54736,-0.30299 1.95047,-0.6628 3.11801,-0.7996 l 2.12282,-0.2487 -1.76593,-0.56607 c -2.26328,-0.72551 -3.74012,-0.34063 -5.51911,1.43836 -1.15427,1.15428 -1.41849,1.74795 -1.41849,3.18712 0,1.60996 0.5726,3.41105 1.08444,3.41105 0.11296,0 0.0899,-0.46066 -0.0516,-1.02369 z m -8.03823,-2.75188 c -8.21231,-3.25667 -14.56951,-7.69012 -26.591276,-18.5446 -7.763561,-7.00973 -12.08656,-11.99812 -17.266162,-19.92378 -2.44165,-3.73617 -5.291002,-7.8438 -6.331887,-9.12811 l -1.892519,-2.335083 1.967054,2.122803 c 1.081884,1.16755 3.725281,4.70034 5.874227,7.85066 5.157282,7.56051 8.808762,11.89008 15.190921,18.0119 12.128552,11.63378 20.971512,18.08262 29.759272,21.70237 1.9448,0.80107 3.24942,1.44881 2.89916,1.43944 -0.35027,-0.009 -1.97421,-0.54741 -3.60879,-1.1956 z m -4.04321,-7.42477 c -10.40732,-4.327 -19.63392,-11.00743 -25.971292,-18.80425 -3.898585,-4.79642 -4.693653,-7.10093 -2.628659,-7.61921 2.296418,-0.57636 15.422521,7.1955 20.427061,12.09471 2.5824,2.52805 3.42878,4.07424 2.93485,5.36142 -0.87881,2.29013 -8.64864,-1.73691 -13.64511,-7.07215 l -2.122803,-2.26675 1.910513,1.73454 c 6.17628,5.60735 12.69414,9.10477 13.42389,7.20312 0.34189,-0.89096 -1.57112,-3.6344 -3.81668,-5.47353 -5.06266,-4.1463 -16.954582,-11.05547 -18.62131,-10.81891 -1.359842,0.193 -1.057685,1.28888 1.247143,4.5233 5.022024,7.0475 13.777247,13.99252 24.305167,19.27991 5.82385,2.92489 6.76053,3.60536 2.55723,1.8578 z m 2.94593,-6.31287 c -2.56589,-3.66615 -11.28141,-12.29613 -15.8763,-15.72044 -2.09668,-1.56256 -6.23294,-4.08696 -9.191679,-5.60981 -9.396114,-4.83611 -14.536772,-8.56436 -26.762474,-19.409403 -3.608141,-3.200657 -8.55523,-7.47418 -10.993537,-9.496708 -2.43829,-2.022527 -4.719856,-3.972107 -5.070118,-4.332414 -1.340103,-1.378551 5.003236,3.70487 9.684292,7.760771 2.695002,2.335096 6.633684,5.744888 8.752618,7.577328 4.896366,4.234322 14.06426,11.122976 17.66144,13.270596 1.52361,0.90964 5.073855,2.86448 7.88944,4.3441 2.815598,1.47962 6.403098,3.65167 7.972228,4.82676 6.01014,4.50096 14.1006,12.97285 17.4524,18.2752 1.38779,2.1954 0.34168,1.17157 -1.51831,-1.48598 z M 86.161662,125.59687 C 83.693541,122.9113 80.106902,118.25647 73.435825,109.08088 69.355998,103.46938 65.062801,99.431529 57.923638,94.491324 45.299075,85.755298 33.746592,76.600683 29.477962,71.949941 c -0.70054,-0.763251 0.731012,0.374492 3.18121,2.528311 6.32028,5.555779 11.602404,9.602822 22.290368,17.078336 13.053389,9.130002 14.420354,10.489812 24.492621,24.364202 2.712284,3.73614 6.024946,7.99537 7.361443,9.46495 1.336505,1.46958 2.334996,2.76696 2.218865,2.88309 -0.116172,0.11618 -1.403483,-1.08626 -2.860807,-2.67196 z m 32.049838,-2.83125 c -5.36504,-5.52775 -9.8529,-8.86173 -22.077243,-16.40101 C 76.972463,94.546716 76.828125,94.437264 64.504352,82.37845 54.60528,72.692217 50.680013,69.435798 36.978925,59.54324 c -4.45971,-3.220042 -8.245181,-6.075653 -8.412128,-6.345795 -0.351626,-0.568927 -0.301193,-0.534492 11.737498,8.014658 12.652244,8.984858 15.07306,10.999298 25.473745,21.19751 5.020454,4.922714 10.656514,10.082403 12.524593,11.465976 1.868085,1.383574 8.862459,5.932856 15.543062,10.109511 14.063585,8.79241 18.472855,11.95133 22.879845,16.39172 2.80662,2.8279 6.26813,6.82311 5.8734,6.77901 -0.0779,-0.008 -2.05234,-1.98432 -4.38744,-4.39021 z M 44.75157,82.580138 C 44.045189,82.367362 42.824102,81.529721 42.038035,80.718717 38.20911,76.768273 41.33443,69.85575 46.949436,69.85575 c 6.484292,0 8.882676,8.726238 3.287695,11.961812 C 48.629965,82.747005 46.3553,83.0632 44.75157,82.580138 Z M 43.822737,74.81651 c 1.041014,-1.58879 3.064295,-2.522614 5.054425,-2.332832 1.472502,0.140406 1.57889,0.09275 0.900253,-0.40365 -1.247098,-0.91216 -2.648579,-1.094448 -4.394047,-0.571478 -2.922542,0.875607 -4.497035,4.168548 -3.323912,6.951677 l 0.578635,1.372742 0.224748,-1.947221 c 0.123557,-1.070972 0.555559,-2.452139 0.959898,-3.069238 z m -8.48575,-8.536664 c -7.213458,-5.774413 -11.736343,-9.585525 -11.375731,-9.585525 0.370689,0 16.429065,12.8599 17.138012,13.724499 0.320481,0.390843 0.511529,0.705322 0.424558,0.698823 -0.08697,-0.0064 -2.871047,-2.183506 -6.186839,-4.837797 z m -9.275507,2.620643 -1.678267,-1.804392 1.804376,1.678282 c 1.678074,1.560775 1.9995,1.930501 1.678282,1.930501 -0.06932,0 -0.881336,-0.811983 -1.804391,-1.804391 z M 347.23877,297.44274 c -0.0253,-0.24465 -12.76265,-10.16681 -13.82613,-10.77027 -0.66209,-0.37571 -3.55677,0.40784 -3.55677,0.96276 0,0.61855 6.10533,6.14109 9.94984,9.00003 l 3.79371,2.82116 1.83175,-0.88992 c 1.00745,-0.48946 1.82088,-0.99515 1.8076,-1.12376 z m -31.66063,-22.02061 1.88513,-1.19551 -2.4011,-1.90651 c -6.78119,-5.38439 -13.60159,-10.56215 -13.91301,-10.56215 -0.19321,0 0.816,1.19408 2.24269,2.65352 1.42669,1.45943 3.5929,4.0864 4.81379,5.83773 1.86794,2.67947 4.98202,6.36844 5.376,6.36844 0.0613,0 0.95967,-0.53799 1.9965,-1.19552 z M 89.949139,96.058933 c -0.366184,-0.284455 -4.438177,-3.478518 -9.048884,-7.097924 -4.610697,-3.619389 -8.59394,-6.65504 -8.851646,-6.74588 -0.883085,-0.311269 1.337039,2.370607 4.108951,4.963618 2.938025,2.748355 6.117234,5.037077 10.765909,7.750372 2.712153,1.582999 4.43931,2.227937 3.02567,1.129814 z M 16.478747,67.81891 c 0.07092,-7.575354 5.993142,-15.294309 13.225455,-17.237967 l 2.321135,-0.62379 -2.122818,-0.01861 c -2.155632,-0.01893 -5.239151,1.083712 -6.681823,2.389332 -0.414271,0.374909 -0.860122,0.574752 -0.990788,0.444086 -0.72323,-0.723229 5.055997,-3.719809 7.174064,-3.719809 0.687109,0 0.768192,-0.112486 0.368924,-0.511738 -0.770374,-0.770358 -4.928716,0.230219 -7.43713,1.789533 -1.133233,0.704456 -1.980998,1.042586 -1.883949,0.751424 0.155008,-0.464818 3.584456,-2.367719 6.691049,-3.712604 0.886583,-0.383832 0.713378,-0.422054 -1.051669,-0.232096 -1.16218,0.125002 -3.359292,0.798327 -4.882453,1.496107 -1.523178,0.69778 -2.387312,0.96712 -1.92028,0.598517 1.467689,-1.158394 4.045439,-2.346473 5.877528,-2.70893 l 1.764595,-0.349107 -1.751021,-0.04654 c -5.562695,-0.147785 -11.591122,5.178354 -13.741572,12.140718 -0.881897,2.85521 -1.064506,6.074866 -0.428504,7.55491 0.263434,0.613023 0.373176,0.18086 0.394726,-1.554275 0.03659,-2.944363 1.207672,-6.853007 2.720291,-9.079019 0.621832,-0.915113 1.124535,-1.47621 1.117107,-1.246858 -0.0081,0.229336 -0.300246,0.796354 -0.650701,1.260048 -1.180217,1.56156 -2.307736,6.137656 -2.307736,9.36609 0,4.191703 0.692997,4.401511 0.931465,0.281985 0.135592,-2.342831 0.511239,-3.99101 1.304271,-5.723225 0.61259,-1.338066 1.196166,-2.432834 1.296858,-2.432834 0.100608,0 -0.270848,1.250532 -0.825637,2.778972 -0.742085,2.044431 -1.008713,3.664994 -1.008713,6.131093 0,3.944988 0.612268,4.948742 0.690077,1.131323 0.03097,-1.517962 0.431088,-3.599989 0.955567,-4.972042 1.416468,-3.705463 2.207511,-4.335543 1.018244,-0.811019 -1.352829,4.009238 -1.554388,9.752231 -0.342271,9.752231 0.08184,0 0.16085,-1.298654 0.175709,-2.885922 z M 9.3096887,60.715385 C 10.445296,53.55374 15.350328,47.211059 21.314522,45.191982 c 2.518956,-0.852756 2.001329,-1.431424 -1.23869,-1.384761 -8.307811,0.119707 -15.8709533,12.133365 -12.0782135,19.185717 0.2933128,0.545387 0.6029291,0.921998 0.6880238,0.836887 0.085043,-0.08504 0.3659232,-1.486608 0.6240464,-3.11444 z"
       id="path5" /></g><metadata
     id="metadata182"><rdf:RDF><cc:Work
         rdf:about=""><cc:license
           rdf:resource="http://creativecommons.org/licenses/by-sa/4.0/" /><dc:publisher><cc:Agent><dc:title>OpenDataKerala.org</dc:title></cc:Agent></dc:publisher><dc:date>April 2026</dc:date><dc:title>Election Symbols of Kerala</dc:title><dc:creator><cc:Agent><dc:title>Manoj Karingamadathil</dc:title></cc:Agent></dc:creator></cc:Work><cc:License
         rdf:about="http://creativecommons.org/licenses/by-sa/4.0/"><cc:permits
           rdf:resource="http://creativecommons.org/ns#Reproduction" /><cc:permits
           rdf:resource="http://creativecommons.org/ns#Distribution" /><cc:requires
           rdf:resource="http://creativecommons.org/ns#Notice" /><cc:requires
           rdf:resource="http://creativecommons.org/ns#Attribution" /><cc:permits
           rdf:resource="http://creativecommons.org/ns#DerivativeWorks" /><cc:requires
           rdf:resource="http://creativecommons.org/ns#ShareAlike" /></cc:License></rdf:RDF></metadata></svg>
