<?xml version="1.0" encoding="UTF-8" standalone="no"?>
<!-- Created with Inkscape (http://www.inkscape.org/) -->

<svg
   width="1500"
   height="1500"
   viewBox="0 0 396.87499 396.875"
   version="1.1"
   id="svg5"
   xml:space="preserve"
   inkscape:version="1.3 (0e150ed6c4, 2023-07-21)"
   sodipodi:docname="Funnel.svg"
   inkscape:export-filename="Fountain.png"
   inkscape:export-xdpi="96"
   inkscape:export-ydpi="96"
   xmlns:inkscape="http://www.inkscape.org/namespaces/inkscape"
   xmlns:sodipodi="http://sodipodi.sourceforge.net/DTD/sodipodi-0.dtd"
   xmlns="http://www.w3.org/2000/svg"
   xmlns:svg="http://www.w3.org/2000/svg"
   xmlns:rdf="http://www.w3.org/1999/02/22-rdf-syntax-ns#"
   xmlns:cc="http://creativecommons.org/ns#"
   xmlns:dc="http://purl.org/dc/elements/1.1/"><title
     id="title186">Election Symbols of Kerala</title><sodipodi:namedview
     id="namedview7"
     pagecolor="#ffffff"
     bordercolor="#000000"
     borderopacity="0.25"
     inkscape:showpageshadow="2"
     inkscape:pageopacity="0.0"
     inkscape:pagecheckerboard="0"
     inkscape:deskcolor="#d1d1d1"
     inkscape:document-units="mm"
     showgrid="false"
     inkscape:zoom="0.25"
     inkscape:cx="230"
     inkscape:cy="1078"
     inkscape:window-width="1920"
     inkscape:window-height="991"
     inkscape:window-x="-9"
     inkscape:window-y="-9"
     inkscape:window-maximized="1"
     inkscape:current-layer="layer1" /><defs
     id="defs2"><inkscape:path-effect
       effect="bspline"
       id="path-effect3248"
       is_visible="true"
       lpeversion="1"
       weight="33.333333"
       steps="2"
       helper_size="0"
       apply_no_weight="true"
       apply_with_weight="true"
       only_selected="false" /><inkscape:path-effect
       effect="bspline"
       id="path-effect577"
       is_visible="true"
       lpeversion="1"
       weight="33.333333"
       steps="2"
       helper_size="0"
       apply_no_weight="true"
       apply_with_weight="true"
       only_selected="false" /></defs><g
     inkscape:label="Layer 1"
     inkscape:groupmode="layer"
     id="layer1"><path
       style="fill:#000000;stroke-width:1.55799"
       d="m 193.55368,392.84586 c -5.36536,-1.4176 -10.77049,-5.65467 -11.68117,-9.15685 -0.23106,-0.88865 -0.81037,-8.94292 -1.28732,-17.89837 -0.47696,-8.95545 -1.32031,-23.98083 -1.87409,-33.38972 -0.55379,-9.40889 -1.47228,-25.64 -2.04105,-36.06914 -0.56879,-10.42914 -1.22027,-22.02278 -1.44773,-25.76367 -0.22747,-3.74088 -0.7159,-12.64369 -1.0854,-19.78401 -0.64491,-12.4628 -0.70985,-13.02762 -1.62235,-14.11206 -1.30296,-1.54849 -2.66279,-5.3446 -2.66667,-7.44432 -0.003,-1.50806 -0.38868,-2.2516 -2.93344,-5.65255 -1.61162,-2.15383 -3.32603,-4.50248 -3.8098,-5.2192 -0.48379,-0.71671 -2.91279,-4.14843 -5.39781,-7.62604 C 148.487,197.82737 118.78798,155.32629 97.98264,125.261 91.86386,116.41891 84.25899,105.4745 81.08291,100.94011 77.90685,96.405694 74.296066,91.227614 73.058958,89.433243 68.857583,83.339328 68.039279,82.433013 66.02372,81.641304 50.064552,75.372598 40.686265,69.007576 35.780911,61.115598 33.564294,57.549401 33.340472,52.256777 35.23161,48.12601 40.715291,36.148073 59.912075,26.547663 94.00286,18.734223 152.70366,5.2802911 241.15361,5.2025317 301.55499,18.551767 c 30.73551,6.792814 50.41756,15.888528 57.7589,26.692285 2.75478,4.05402 3.44277,9.980295 1.66138,14.310734 -1.82714,4.441602 -5.8457,8.82816 -11.75384,12.830143 -3.48173,2.358411 -13.32664,7.250055 -17.55308,8.721609 l -2.86415,0.99724 -3.93747,5.593722 c -2.16561,3.076551 -7.46193,10.702471 -11.76962,16.9465 -11.13598,16.14169 -23.07791,33.3837 -29.2685,42.25849 -2.92574,4.19432 -8.39795,12.07801 -12.16047,17.5193 -3.76254,5.44129 -11.9236,17.12768 -18.13572,25.96978 -6.21212,8.84209 -13.16541,18.76625 -15.45176,22.05369 -2.28635,3.28746 -5.68119,8.12898 -7.54408,10.75897 -2.99817,4.23275 -3.38752,4.99003 -3.39109,6.59549 -0.005,1.89768 -1.52339,5.70303 -2.86344,7.17256 -0.6558,0.71918 -0.81151,2.14009 -1.21962,11.12991 -1.0309,22.708 -2.40933,49.52657 -3.52772,68.63441 -0.998,17.05107 -1.67549,29.13017 -3.04377,54.268 l -0.72133,13.25222 -1.66922,2.21085 c -3.24368,4.29623 -8.0522,6.53269 -14.56953,6.77635 -2.40299,0.0899 -4.71245,-0.064 -5.97718,-0.39816 z m 8.88568,-3.1461 1.46575,-0.40718 0.49908,-13.70901 c 0.27451,-7.53997 0.67815,-22.24194 0.89699,-32.67108 0.4353,-20.74495 1.04125,-46.07162 1.6622,-69.47433 0.2198,-8.2838 0.39974,-18.94995 0.39986,-23.70257 l 2.2e-4,-8.64113 h -7.11099 c -3.91106,0 -9.38336,-0.13757 -12.16069,-0.30568 l -5.04967,-0.30567 0.006,4.84009 c 0.003,2.66204 0.1857,7.99355 0.40535,11.84779 0.86535,15.18499 2.43085,48.58183 3.50713,74.81772 0.87782,21.39799 2.19833,49.06921 2.51362,52.67295 0.29466,3.36781 0.32806,3.40425 4.2856,4.67663 2.53457,0.81487 6.45911,0.97832 8.67957,0.36147 z m 4.19282,-1.34014 c 0.5778,-0.44878 0.72266,-2.77614 1.12251,-18.03459 0.67001,-25.56794 1.63714,-55.13023 1.88123,-57.5045 0.23136,-2.25046 0.77346,-19.58339 1.41816,-45.34406 0.22697,-9.06882 0.5125,-18.7611 0.63454,-21.53843 l 0.22186,-5.04968 h -1.36825 -1.36824 l -0.50065,11.64518 c -0.50962,11.85337 -0.9331,28.47718 -1.73007,67.91303 -0.24514,12.12955 -0.62356,27.15492 -0.84093,33.38972 -0.73674,21.13133 -0.9478,35.03859 -0.53177,35.03859 0.21901,0 0.69675,-0.23186 1.06161,-0.51526 z m -18.23182,-4.1222 c -3.1e-4,-1.19027 -0.26869,-6.98711 -0.59639,-12.88184 -0.95124,-17.11183 -1.42841,-27.33587 -2.08736,-44.72573 -0.33935,-8.95545 -0.80435,-19.99261 -1.03333,-24.527 -0.91865,-18.1919 -1.23523,-24.74529 -1.65279,-34.21416 -0.23996,-5.44129 -0.61019,-13.13947 -0.82275,-17.10708 -0.21255,-3.9676 -0.39002,-7.9639 -0.39437,-8.88067 l -0.008,-1.66683 -2.34199,-0.49124 c -1.2881,-0.27017 -2.43874,-0.39448 -2.55698,-0.27623 -0.20369,0.20369 0.54932,15.65651 1.82694,37.49085 0.31839,5.44129 0.77226,13.32498 1.00862,17.5193 0.23637,4.19433 1.26435,21.72392 2.2844,38.95468 1.02004,17.23074 2.04946,35.13134 2.2876,39.77911 0.23812,4.64775 0.50681,8.82147 0.5971,9.27491 0.18981,0.95327 2.54094,3.91608 3.1076,3.91608 0.2102,0 0.38194,-0.97386 0.38161,-2.16415 z m 23.74631,-0.3926 c 0.38396,-0.74249 0.71314,-3.77754 0.98368,-9.06977 0.6411,-12.54109 1.81916,-33.9211 3.50458,-63.60339 1.14486,-20.16239 2.19281,-40.764 3.38362,-66.51893 0.24462,-5.29049 0.22335,-5.50132 -0.53237,-5.27927 -0.43293,0.12729 -1.67009,0.35594 -2.74923,0.50828 -1.55894,0.22009 -1.99757,0.45783 -2.13473,1.15709 -0.31599,1.61082 -1.48471,29.5236 -1.88363,44.98749 -0.5417,20.99851 -1.21025,40.14294 -1.45535,41.67527 -0.29267,1.82968 -1.41168,42.21079 -1.41996,51.24089 l -0.008,7.58687 0.86664,-0.78429 c 0.47665,-0.43138 1.12632,-1.28647 1.44371,-1.90024 z m 2.61657,-146.91256 c 6.04797,-0.894 6.83304,-1.29072 8.12089,-4.10376 0.58348,-1.2745 0.90077,-2.4661 0.70509,-2.64801 -0.19569,-0.18191 -1.74703,-0.0891 -3.44742,0.20625 -10.97652,1.90656 -33.14994,1.89131 -43.23452,-0.0298 -1.67375,-0.31884 -3.19302,-0.4871 -3.37618,-0.3739 -0.43579,0.26931 0.34874,2.55201 1.39096,4.04724 0.45247,0.64913 1.39797,1.4191 2.10111,1.71104 5.02354,2.08573 26.99584,2.77907 37.74007,1.19088 z m -28.07409,-1.62312 c -1.73501,-0.29265 -3.54362,-0.74031 -4.01913,-0.99479 -1.6188,-0.86637 -0.87078,-1.18645 1.50569,-0.64431 1.30365,0.2974 3.3905,0.66537 4.63745,0.81769 2.88589,0.35256 3.70997,0.59014 3.70997,1.06957 0,0.49676 -1.89567,0.41614 -5.83398,-0.24816 z m 23.25023,-0.89371 c -1.47261,-0.54665 -0.11358,-0.94161 3.09163,-0.89853 3.35916,0.0452 3.46534,0.0717 1.54583,0.3871 -1.1336,0.18624 -2.52484,0.42053 -3.09163,0.52067 -0.5668,0.10018 -1.26243,0.096 -1.54583,-0.009 z m 1.39693,-6.45185 c 0.25817,-0.25978 1.56626,-2.51281 2.90682,-5.00673 2.91373,-5.42052 24.17822,-48.52579 27.55445,-55.85564 1.30538,-2.834 5.33724,-11.36694 8.9597,-18.96206 3.62244,-7.59513 7.28311,-15.38608 8.13481,-17.31319 0.8517,-1.92712 5.07531,-10.68091 9.38579,-19.45284 4.31048,-8.77193 7.76499,-16.021236 7.67667,-16.109559 -0.0883,-0.08834 -3.08279,0.262195 -6.65436,0.778918 -3.57157,0.51674 -8.59653,1.165285 -11.16658,1.441205 -3.97371,0.426641 -4.75396,0.630224 -5.21522,1.360735 -1.24034,1.964301 -13.47268,34.915021 -19.37096,52.180261 -4.45467,13.03953 -16.33651,46.00129 -17.19975,47.71432 -0.52708,1.04595 -1.15251,1.22835 -1.15251,0.33609 0,-0.32527 0.85135,-2.96862 1.89192,-5.87412 1.04055,-2.9055 5.56979,-16.13438 10.06499,-29.39752 9.05433,-26.71497 18.99703,-55.62469 20.97381,-60.98422 0.70588,-1.91384 1.28343,-3.730175 1.28343,-4.03632 0,-0.442735 -0.65356,-0.501238 -3.19469,-0.285954 -6.00363,0.508606 -5.96931,0.491998 -6.78913,3.284774 -0.39655,1.35086 -2.19642,6.90808 -3.99972,12.34937 -1.8033,5.44128 -5.71786,17.86968 -8.69903,27.61865 -5.17698,16.92958 -9.35497,29.79089 -11.85098,36.48136 -0.89387,2.39599 -1.33425,3.09164 -1.95718,3.09164 -0.44207,0 -0.85574,-0.27824 -0.91928,-0.61832 -0.0636,-0.34008 2.11565,-7.20354 4.84263,-15.25209 4.72792,-13.9543 16.54,-49.48757 20.1908,-60.73829 0.94498,-2.91217 1.64982,-5.36319 1.5663,-5.446729 -0.0835,-0.08351 -5.15169,0.115603 -11.26259,0.442329 -12.95466,0.69279 -43.06935,0.79841 -55.63035,0.195108 -22.06144,-1.059607 -40.14993,-2.890512 -59.11128,-5.983189 -3.491,-0.569399 -6.43909,-0.943442 -6.55133,-0.831204 -0.25838,0.258377 2.78131,5.272307 14.75514,24.338485 18.76899,29.88623 21.78377,34.74464 27.49775,44.31352 3.18153,5.32791 10.10002,16.92157 15.37444,25.76366 5.27439,8.84209 11.09503,18.55495 12.93473,21.58414 1.83971,3.02917 5.21338,8.59414 7.49704,12.36656 l 4.15213,6.85896 4.29836,0.24655 c 6.24133,0.35801 18.2116,-0.0235 18.78323,-0.59866 z m -34.23015,-28.95664 c -0.14676,-0.38232 -0.174,-0.78786 -0.0606,-0.90122 0.11342,-0.11342 0.32613,0.10672 0.47285,0.48899 0.14676,0.38232 0.17398,0.78786 0.0606,0.90122 -0.11342,0.11342 -0.32615,-0.10672 -0.47285,-0.48899 z m -17.76371,-44.26757 c -0.14443,-0.23367 0.021,-0.30278 0.38789,-0.162 0.71414,0.27403 0.84479,0.56949 0.25185,0.56949 -0.21335,0 -0.50122,-0.18338 -0.63974,-0.40749 z m -25.76659,-42.46325 c -0.24267,-0.45344 -0.34848,-0.82444 -0.23512,-0.82444 0.11343,0 0.40466,0.371 0.64733,0.82444 0.24268,0.45344 0.34848,0.82443 0.23512,0.82443 -0.11342,0 -0.40466,-0.37099 -0.64733,-0.82443 z m -10.9238,-4.94663 c -0.35172,-0.68017 -0.54675,-1.23665 -0.43339,-1.23665 0.11343,0 0.49389,0.55648 0.84562,1.23665 0.35172,0.68016 0.54675,1.23666 0.43339,1.23666 -0.11343,0 -0.49389,-0.5565 -0.84562,-1.23666 z m -2.05463,-3.55186 c -0.45371,-0.69243 -0.52166,-1.01687 -0.18984,-0.90627 0.28427,0.0947 0.66772,0.5801 0.85211,1.07855 0.44703,1.20844 0.20036,1.14427 -0.66227,-0.17228 z m 18.7495,-0.57033 c -0.49747,-0.32148 -0.43227,-0.40083 0.33349,-0.40591 0.53076,-0.003 0.83912,0.17606 0.69704,0.40591 -0.30635,0.4957 -0.2635,0.4957 -1.03053,0 z m 46.16849,124.73062 c 0,-0.24973 -3.86918,-6.98488 -7.8345,-13.63767 -1.89187,-3.17408 -5.41623,-9.11003 -7.8319,-13.191 -2.41567,-4.08096 -6.24309,-10.48066 -8.50541,-14.22154 -15.36943,-25.41442 -19.30474,-31.86074 -23.02588,-37.71803 -2.30456,-3.62752 -6.01536,-9.56347 -8.24618,-13.19099 -2.23085,-3.62753 -4.88778,-7.89398 -5.90431,-9.48103 -1.01653,-1.58703 -2.98856,-4.74052 -4.38229,-7.00773 -6.68689,-10.87759 -10.71927,-17.30379 -13.57982,-21.641473 -1.71941,-2.607284 -3.12784,-4.959229 -3.12983,-5.226565 -0.002,-0.26732 -1.07025,-0.702592 -2.37388,-0.967264 -1.30364,-0.264687 -3.43687,-0.725121 -4.74052,-1.023227 -1.30364,-0.29809 -2.37025,-0.472305 -2.37025,-0.38713 0,0.194936 6.8862,11.093369 11.31627,17.909649 2.96022,4.55473 10.15869,15.80055 14.84326,23.18892 3.12422,4.92743 21.97658,34.36322 26.59782,41.52942 2.55857,3.96761 5.36236,8.32683 6.23066,9.68714 8.26037,12.94122 17.49568,27.2949 22.87572,35.55387 l 6.51178,9.99631 h 1.77463 c 0.97605,0 1.77463,-0.0773 1.77463,-0.17166 z m 31.74395,-1.48332 c 0.88041,-1.72572 6.04684,-10.09381 13.61212,-22.0476 2.43927,-3.85425 6.44879,-10.2012 8.91006,-14.10434 2.46127,-3.90316 7.59456,-11.87959 11.40729,-17.72542 13.06,-20.02406 21.10195,-32.65896 26.04524,-40.92034 7.39819,-12.36405 15.86229,-26.21052 20.42987,-33.421297 5.15509,-8.13825 5.1036,-8.007909 3.03207,-7.674654 -2.73745,0.440382 -5.94265,1.524573 -5.94265,2.010168 0,0.253984 -3.67776,6.600107 -8.17282,14.102523 -8.38391,13.99301 -13.3653,22.38439 -20.57762,34.66389 -2.26377,3.85424 -7.60389,12.75817 -11.86693,19.7865 -7.07102,11.65774 -10.22558,16.94505 -16.47808,27.61866 -1.94307,3.31699 -9.80624,17.11966 -14.44233,25.35146 -0.95766,1.70039 -3.06128,5.40835 -4.67471,8.23991 -1.61342,2.83154 -2.93349,5.28939 -2.93349,5.4619 0,0.86047 0.90256,0.12759 1.65198,-1.34136 z m -38.88292,0.67086 c -0.12074,-0.31455 -3.1362,-5.09112 -6.70112,-10.61463 -3.56491,-5.52351 -9.29604,-14.40194 -12.73584,-19.72987 -3.43981,-5.32793 -8.03826,-12.46963 -10.21879,-15.87043 -2.18052,-3.4008 -8.73862,-13.60321 -14.57357,-22.67202 -5.83495,-9.06883 -12.91918,-20.10597 -15.74278,-24.52702 C 99.48395,104.08677 89.94881,89.621729 89.03724,89.160844 88.7076,88.994185 85.65543,88.076372 82.25463,87.121261 c -3.40081,-0.955112 -6.52379,-1.915225 -6.93996,-2.133577 -0.41619,-0.218368 -0.850372,-0.303341 -0.964868,-0.18886 -0.114513,0.114512 1.912368,3.23662 4.504128,6.938066 5.30926,7.582468 18.90816,27.17813 30.41666,43.82958 13.18535,19.07766 33.84638,48.66771 58.99384,84.48905 l 4.04034,5.75527 2.79231,0.90876 c 3.39841,1.10601 3.55548,1.12545 3.27937,0.40591 z m 44.63941,-0.62619 c 1.9251,-0.70403 2.61239,-1.57083 11.14137,-14.05138 2.95917,-4.33019 12.57256,-18.1738 20.1547,-29.0235 3.31166,-4.73884 9.08191,-13.03839 12.82279,-18.44347 3.7409,-5.40508 10.68588,-15.44023 15.43332,-22.30035 4.74742,-6.86012 9.72958,-14.04968 11.07146,-15.97681 5.85258,-8.40514 10.28861,-14.80369 14.61991,-21.08787 2.55382,-3.7053 6.75659,-9.797606 9.33947,-13.538501 2.70787,-3.921887 4.48012,-6.852361 4.18589,-6.921489 -0.28067,-0.0659 -2.52088,0.531883 -4.97824,1.328485 -2.45737,0.796616 -6.13158,1.870805 -8.16492,2.387093 -3.47049,0.881216 -3.76135,1.03971 -4.74818,2.587591 -1.82631,2.864602 -6.17811,9.983611 -12.2213,19.992611 -6.93059,11.47872 -11.59992,18.92348 -17.32235,27.61865 -2.31273,3.51417 -8.28485,12.69634 -13.27141,20.40483 -4.98652,7.70848 -10.88784,16.79792 -13.11402,20.19872 -6.46407,9.87479 -21.16791,32.98129 -24.65769,38.74856 -2.86747,4.73883 -5.22596,8.8579 -5.22596,9.12709 0,0.30298 2.95352,-0.32556 4.93516,-1.05026 z m 71.3253,-110.69942 c 0,-0.44462 3.69043,-6.40927 3.96554,-6.40927 0.27348,0 -2.72606,5.42725 -3.40926,6.16856 -0.30596,0.33199 -0.55628,0.4403 -0.55628,0.24071 z m -68.0292,88.2192 c 0.008,-0.21337 -0.25923,-0.0279 -0.5921,0.41221 -0.33288,0.4401 -0.61112,0.97476 -0.61833,1.18813 -0.008,0.21338 0.25923,0.0279 0.59211,-0.41222 0.33287,-0.4401 0.61111,-0.97474 0.61832,-1.18812 z m 7.28754,-13.56542 c 0.56396,-1.09946 0.95589,-2.06852 0.87095,-2.15346 -0.19696,-0.19696 -3.20317,4.923 -3.18564,5.42557 0.0202,0.58022 1.17864,-1.05732 2.31469,-3.27211 z m 3.75531,-6.76062 c 1.79286,-2.87173 3.89878,-6.69855 3.68625,-6.69855 -0.31384,0 -4.33969,6.32356 -4.78947,7.52298 -0.61746,1.64664 -0.28386,1.39733 1.10322,-0.82443 z m 9.50238,-15.83558 c 0.97689,-1.77624 1.68495,-3.22953 1.57349,-3.22953 -0.28248,0 -4.30066,6.69782 -4.59676,7.66222 -0.39428,1.28425 1.01762,-0.78589 3.02327,-4.43269 z m 9.55985,-15.81372 c 2.15385,-3.54075 4.6699,-7.58363 5.59125,-8.98417 2.25924,-3.43427 4.01641,-6.46252 3.74993,-6.46252 -0.53519,0 -6.62764,9.47653 -11.26315,17.51929 -0.91471,1.58705 -2.34044,4.0582 -3.16831,5.49145 -0.82787,1.43325 -1.50047,2.73174 -1.49466,2.88553 0.0109,0.30914 0.8405,-1.00614 6.58494,-10.44958 z m -6.4587,2.99932 c 0.35507,-0.84977 0.56541,-1.54504 0.46745,-1.54504 -0.22004,0 -2.25313,3.97601 -2.25313,4.40631 0,0.53477 1.10962,-1.2432 1.78568,-2.86127 z m 8.85007,-16.87427 c 2.5126,-4.83206 5.1104,-9.99131 5.77286,-11.465 0.66245,-1.47367 2.27225,-4.62714 3.5773,-7.0077 1.30507,-2.38057 4.78176,-9.02762 7.72601,-14.77123 4.77256,-9.310315 5.25046,-10.428035 4.40637,-10.305467 -0.79842,0.115914 -2.27487,2.786811 -9.42177,17.044057 -4.66123,9.29865 -9.71997,19.50105 -11.24163,22.67203 -1.52164,3.171 -3.70102,7.71317 -4.84303,10.09373 -3.40862,7.10537 -0.88267,3.17545 4.02389,-6.26042 z m 9.88106,-6.0031 c 2.63092,-4.29971 3.80504,-6.45717 3.80256,-6.98725 -0.002,-0.44842 -1.51625,2.02734 -5.65996,9.25446 -1.92794,3.36254 -0.58226,1.71998 1.8574,-2.26721 z m 4.37299,-16.69485 c 2.65935,-5.01829 3.70876,-7.31689 3.34043,-7.31689 -0.19238,0 -4.3138,7.90116 -5.64434,10.82075 -1.41808,3.11163 -0.30389,1.41714 2.30391,-3.50386 z m 9.92197,-8.78503 c 1.91048,-3.38684 4.36619,-7.707654 5.45713,-9.601798 2.21878,-3.852354 2.58114,-4.675753 1.65906,-3.769936 -0.6098,0.599048 -8.71416,14.797514 -10.5881,18.549844 -1.8626,3.72966 0.0891,0.81872 3.47191,-5.17811 z m -3.65678,-3.37542 c 1.07518,-1.98381 2.58676,-4.766291 3.35904,-6.183284 0.77228,-1.41701 1.23572,-2.576374 1.02987,-2.576374 -0.38155,0 -1.08803,1.217851 -4.30424,7.419938 -1.89196,3.64841 -2.46907,4.94662 -2.19902,4.94662 0.0877,0 1.03916,-1.6231 2.11435,-3.6069 z m -44.5521,-7.892682 c 33.27775,-2.240362 59.44585,-6.470139 82.44376,-13.326099 22.42049,-6.683849 35.92175,-14.462608 40.2057,-23.164539 1.18635,-2.409809 1.29965,-2.963675 1.16189,-5.680019 -0.19985,-3.940692 -1.6449,-6.916363 -4.97679,-10.248254 C 338.86032,28.248975 299.01733,17.733244 240.54662,13.157982 211.85188,10.912651 191.13345,10.806567 158.7212,12.739007 116.76614,15.24041 75.865,23.758919 54.842088,34.373987 c -3.968985,2.004061 -9.768283,6.051102 -12.302467,8.585285 -7.204654,7.204654 -7.059215,14.130147 0.452005,21.523817 9.728446,9.576215 33.896024,18.757135 64.408344,24.467815 20.19727,3.780125 36.73683,5.567033 66.98555,7.236998 11.468,0.633122 46.10739,0.191322 60.39003,-0.770224 z M 143.33047,85.058884 c -1.77665,-0.169245 -3.44614,-0.53383 -3.70997,-0.810218 -0.37426,-0.392069 -0.2079,-0.446817 0.75696,-0.249154 0.68017,0.139284 3.33675,0.419442 5.90351,0.622449 2.56678,0.203006 4.77729,0.479534 4.91228,0.614519 0.31169,0.311676 -3.67051,0.221733 -7.86278,-0.177596 z m 43.83382,-4.388178 C 171.78852,80.376697 148.07993,78.78393 135.43084,77.195215 117.40956,74.931748 105.69216,72.716891 92.7662,69.13058 76.14955,64.520279 66.925766,60.20732 61.197699,54.369414 c -3.188493,-3.249629 -4.294527,-5.48167 -4.294527,-8.666627 0,-11.134378 18.791178,-20.048617 53.382328,-25.323729 16.4798,-2.51315 42.92862,-5.017638 61.21449,-5.79651 14.46453,-0.616108 49.70235,-0.508747 64.31745,0.195949 47.7959,2.304613 83.3137,9.748076 97.92547,20.522262 2.78358,2.052514 5.75139,6.079581 6.18541,8.393106 2.12791,11.342713 -14.52536,21.152517 -48.2058,28.396168 -23.11447,4.971241 -47.03923,7.553379 -78.17623,8.437337 -7.82184,0.222061 -15.79828,0.367313 -17.7254,0.322801 -1.92713,-0.04456 -5.82259,-0.125263 -8.6566,-0.179465 z m 38.33635,-3.451358 c 55.9782,-2.703459 103.10214,-14.506605 110.2341,-27.610347 2.97151,-5.459672 0.17306,-10.487858 -8.55167,-15.365387 C 302.97012,20.707452 243.1528,13.159634 177.88938,15.405589 149.75326,16.37385 127.82234,18.630664 105.33887,22.87144 75.86448,28.430839 57.762482,38.089845 60.156415,46.980232 c 1.145187,4.252913 5.046944,7.91326 12.411075,11.643171 14.74873,7.470183 42.42889,13.785675 73.37493,16.741218 24.27418,2.318323 55.08551,3.03662 79.55822,1.854727 z M 134.19102,66.829005 c -0.10096,-0.283415 -0.74404,-3.761507 -1.42924,-7.729106 -0.68521,-3.967614 -1.52861,-8.71787 -1.87425,-10.556144 -0.66011,-3.51078 -0.55765,-4.469428 0.52193,-4.883698 1.11716,-0.428697 1.40758,0.366175 1.76491,4.830399 0.3703,4.626644 0.77789,7.253357 2.11126,13.606428 0.46492,2.215138 0.73999,4.30199 0.61125,4.637457 -0.28488,0.742383 -1.45225,0.807165 -1.70586,0.09473 z m -9.25575,-4.946625 c -0.20821,-0.510134 -0.7733,-3.060738 -1.25576,-5.668007 -1.47177,-7.953721 -3.2457,-16.343119 -4.53854,-21.464022 -1.41031,-5.586227 -1.46785,-6.268036 -0.5904,-6.996241 1.12828,-0.9364 1.74109,0.360987 2.63665,5.582114 0.46667,2.720644 1.1245,5.966861 1.46185,7.213831 1.00958,3.731687 4.01188,21.011191 3.76325,21.659098 -0.34017,0.886466 -1.04558,0.730402 -1.47705,-0.326773 z m 19.41858,-1.433166 c -0.31067,-0.580477 -0.72149,-17.318501 -0.50613,-20.62054 0.0584,-0.895441 1.24596,-0.55692 1.44611,0.412213 0.10532,0.510118 0.2695,5.238266 0.36481,10.506975 0.13585,7.510846 0.058,9.67524 -0.36107,10.022921 -0.39768,0.330046 -0.63901,0.247815 -0.94372,-0.321569 z m 9.63574,-4.750116 c -1.57182,-6.847048 -3.57621,-24.444787 -2.96554,-26.036199 0.2977,-0.775802 1.87552,-0.879408 2.12747,-0.139751 0.0964,0.283398 0.37575,4.657352 0.62051,9.719892 0.24477,5.06254 0.72332,10.800485 1.06346,12.750966 0.34012,1.950482 0.52464,3.790735 0.41002,4.089433 -0.32623,0.85015 -1.02136,0.637391 -1.25592,-0.384403 z m -43.23113,-3.508645 c -0.10672,-0.172672 -0.58567,-2.445035 -1.06434,-5.049686 -0.47867,-2.604651 -1.47531,-7.195322 -2.21478,-10.201483 -1.32936,-5.404286 -1.34351,-6.694693 -0.0734,-6.694693 1.1333,0 1.70283,2.316345 2.68589,10.923784 0.25894,2.267206 0.81894,5.588627 1.24446,7.380942 0.42552,1.792314 0.67684,3.415414 0.5585,3.606907 -0.26785,0.433387 -0.87829,0.451771 -1.13634,0.03428 z m -38.397077,-4.22046 c -0.156516,-0.712579 -0.198644,-1.381534 -0.09363,-1.486558 0.105008,-0.105009 0.309448,0.401619 0.45431,1.125867 0.144893,0.724248 0.186975,1.393188 0.09364,1.486558 -0.09332,0.09332 -0.29781,-0.413288 -0.45431,-1.125867 z m 56.472027,-6.252051 c -0.71387,-1.881743 -1.50605,-6.994326 -1.71962,-11.097984 -0.20805,-3.997543 -0.1491,-4.815582 0.36163,-5.011546 0.33564,-0.128846 0.81154,-0.109839 1.05755,0.04222 0.37887,0.234167 1.37586,10.099295 1.50187,14.860877 0.0372,1.405434 -0.80508,2.251174 -1.20143,1.206385 z m -34.86324,-2.61065 c -0.12277,-1.36033 -0.3665,-2.786313 -0.54166,-3.168878 -0.24793,-0.54148 0.0575,-0.887339 1.37863,-1.561357 2.58914,-1.320882 3.73013,-1.697947 3.73013,-1.232731 0,0.223307 -0.88112,0.823415 -1.95804,1.333548 l -1.95803,0.927535 -0.21392,3.087598 -0.21391,3.087598 z m 48.07126,-3.81303 c -0.15362,-0.396758 -0.3864,-3.343498 -0.51741,-6.548303 -0.22776,-5.571879 -0.20132,-5.846646 0.60406,-6.277665 1.44713,-0.774493 1.63641,0.157576 1.43261,7.054916 -0.14411,4.876889 -0.32224,6.492434 -0.71593,6.492434 -0.28826,0 -0.64974,-0.324624 -0.80333,-0.721382 z M 105.33887,78.410075 C 100.62141,77.5309 87.76542,74.160293 83.32212,72.637683 79.19681,71.224054 74.89367,69.402512 67.751861,66.046753 61.012828,62.880227 53.997579,56.043368 53.403345,52.063087 c -0.172594,-1.156123 -0.14723,-1.225438 0.139129,-0.380461 1.640955,4.841694 8.658557,10.639559 18.706484,15.455079 7.215622,3.458135 24.033992,8.823346 33.047682,10.542528 2.24396,0.427981 4.17624,0.874454 4.29393,0.992161 0.3142,0.314184 -1.88695,0.17839 -4.2517,-0.262319 z m 182.90546,0.252457 c 0.12308,-0.123082 3.91039,-1.130261 8.41614,-2.238056 4.50576,-1.10781 11.22483,-2.967523 14.93128,-4.132683 3.70646,-1.16516 6.8112,-2.046298 6.89944,-1.958054 0.22499,0.22499 -9.64944,3.74546 -14.08051,5.020007 -3.41375,0.98194 -14.92422,3.532654 -15.94161,3.532654 -0.24672,0 -0.34785,-0.100803 -0.22474,-0.223868 z M 328.3492,65.935886 c 7.03715,-4.141704 9.33499,-5.705773 11.55697,-7.866536 2.85975,-2.780985 3.84168,-4.416036 4.30816,-7.173822 l 0.32055,-1.894986 0.0485,1.896638 c 0.12573,4.918955 -5.58226,10.746001 -14.47724,14.779175 -3.29361,1.493398 -4.04096,1.603798 -1.75693,0.259531 z"
       id="path3" /></g><metadata
     id="metadata182"><rdf:RDF><cc:Work
         rdf:about=""><cc:license
           rdf:resource="http://creativecommons.org/licenses/by-sa/4.0/" /><dc:publisher><cc:Agent><dc:title>OpenDataKerala.org</dc:title></cc:Agent></dc:publisher><dc:date>April 2026</dc:date><dc:title>Election Symbols of Kerala</dc:title><dc:creator><cc:Agent><dc:title>Manoj Karingamadathil</dc:title></cc:Agent></dc:creator></cc:Work><cc:License
         rdf:about="http://creativecommons.org/licenses/by-sa/4.0/"><cc:permits
           rdf:resource="http://creativecommons.org/ns#Reproduction" /><cc:permits
           rdf:resource="http://creativecommons.org/ns#Distribution" /><cc:requires
           rdf:resource="http://creativecommons.org/ns#Notice" /><cc:requires
           rdf:resource="http://creativecommons.org/ns#Attribution" /><cc:permits
           rdf:resource="http://creativecommons.org/ns#DerivativeWorks" /><cc:requires
           rdf:resource="http://creativecommons.org/ns#ShareAlike" /></cc:License></rdf:RDF></metadata></svg>
