<?xml version="1.0" encoding="UTF-8" standalone="no"?>
<!-- Created with Inkscape (http://www.inkscape.org/) -->

<svg
   width="1500"
   height="1500"
   viewBox="0 0 396.87499 396.875"
   version="1.1"
   id="svg5"
   xml:space="preserve"
   inkscape:version="1.3 (0e150ed6c4, 2023-07-21)"
   sodipodi:docname="Ganna Kisan.svg"
   inkscape:export-filename="Ganna Kisan.png"
   inkscape:export-xdpi="96"
   inkscape:export-ydpi="96"
   xmlns:inkscape="http://www.inkscape.org/namespaces/inkscape"
   xmlns:sodipodi="http://sodipodi.sourceforge.net/DTD/sodipodi-0.dtd"
   xmlns="http://www.w3.org/2000/svg"
   xmlns:svg="http://www.w3.org/2000/svg"
   xmlns:rdf="http://www.w3.org/1999/02/22-rdf-syntax-ns#"
   xmlns:cc="http://creativecommons.org/ns#"
   xmlns:dc="http://purl.org/dc/elements/1.1/"><title
     id="title186">Election Symbols of Kerala</title><sodipodi:namedview
     id="namedview7"
     pagecolor="#ffffff"
     bordercolor="#000000"
     borderopacity="0.25"
     inkscape:showpageshadow="2"
     inkscape:pageopacity="0.0"
     inkscape:pagecheckerboard="0"
     inkscape:deskcolor="#d1d1d1"
     inkscape:document-units="mm"
     showgrid="false"
     inkscape:zoom="0.25"
     inkscape:cx="230"
     inkscape:cy="1078"
     inkscape:window-width="1920"
     inkscape:window-height="991"
     inkscape:window-x="-9"
     inkscape:window-y="-9"
     inkscape:window-maximized="1"
     inkscape:current-layer="layer1" /><defs
     id="defs2"><inkscape:path-effect
       effect="bspline"
       id="path-effect3248"
       is_visible="true"
       lpeversion="1"
       weight="33.333333"
       steps="2"
       helper_size="0"
       apply_no_weight="true"
       apply_with_weight="true"
       only_selected="false" /><inkscape:path-effect
       effect="bspline"
       id="path-effect577"
       is_visible="true"
       lpeversion="1"
       weight="33.333333"
       steps="2"
       helper_size="0"
       apply_no_weight="true"
       apply_with_weight="true"
       only_selected="false" /></defs><g
     inkscape:label="Layer 1"
     inkscape:groupmode="layer"
     id="layer1"><path
       style="fill:#000000;stroke-width:1.40688"
       d="m 187.64999,382.8922 c -8.55453,-4.60442 -14.02924,-8.92727 -17.85252,-14.09646 -3.13482,-4.23836 -3.14738,-4.28095 -3.30489,-11.21049 -0.20226,-8.89841 0.86691,-15.36834 4.22006,-25.53722 l 1.25458,-3.80466 -0.7063,-2.54876 c -0.38847,-1.40181 -1.23114,-3.99922 -1.8726,-5.77199 -1.16544,-3.22083 -1.16843,-3.22474 -4.01976,-5.22271 -3.88995,-2.72577 -3.92894,-2.78424 -3.03056,-4.54636 1.21573,-2.3846 1.01361,-6.02914 -0.61374,-11.06622 -1.78879,-5.53681 -6.782,-18.55095 -10.32735,-26.91684 -3.01339,-7.11065 -3.82683,-8.2899 -6.25264,-9.06442 -2.07364,-0.66209 -2.27193,-1.0877 -1.63892,-3.51801 0.65855,-2.52832 0.39141,-4.59383 -1.30173,-10.06495 -2.13175,-6.88844 -11.97965,-33.01243 -14.86322,-39.42842 -0.44922,-0.9995 -1.80538,-2.78261 -3.04361,-4.00175 -2.22717,-2.19287 -2.23248,-2.20332 -1.92428,-3.78076 0.58289,-2.98324 0.27482,-4.40523 -2.19746,-10.14327 -1.32315,-3.07096 -2.83774,-6.4211 -3.36578,-7.44475 -4.60546,-8.92844 -13.69364,-17.56862 -34.259615,-32.5708 -9.824392,-7.16658 -16.575625,-10.1302 -23.142903,-10.15918 -6.359324,-0.028 -7.567443,2.77628 -5.601523,13.00243 2.638585,13.72518 9.324076,33.80916 16.380486,49.20883 1.157219,2.52548 2.042257,4.77711 1.966751,5.00363 -0.40599,1.21797 -6.465066,-5.9499 -10.169444,-12.03042 -9.155206,-15.02775 -18.396376,-42.39797 -18.396376,-54.48581 0,-5.43233 1.343272,-8.86798 4.280734,-10.94872 2.786619,-1.9739 4.457288,-2.42423 8.933706,-2.40805 6.612782,0.0239 16.541816,2.77975 27.679945,7.68274 4.486014,1.97474 4.753575,2.48342 -2.999926,-5.70344 -8.087695,-8.53972 -21.862119,-21.5423 -26.566597,-25.07794 -4.118848,-3.09552 -10.281882,-6.93136 -12.906086,-8.032683 -1.776425,-0.745521 -1.775141,-1.1426 0.0037,-1.1426 6.320152,0 26.493463,9.991413 40.720291,20.167893 2.095064,1.49861 4.069129,2.88003 4.38681,3.06983 0.706433,0.42205 1.023277,0.84828 -4.683951,-6.30089 C 79.983665,110.92801 74.31622,103.80897 69.840905,98.178861 50.196043,73.464963 42.294905,65.487584 31.302761,59.268824 27.071625,56.875082 21.964092,54.85508 18.646676,54.263401 14.768098,53.571637 14.552061,53.51342 14.552061,53.15987 c 0,-0.79396 2.924552,-1.323216 7.072518,-1.279926 16.635618,0.173638 38.518711,14.294804 56.572134,36.506026 1.52958,1.881861 2.843842,3.358764 2.920582,3.282019 C 81.58993,91.195361 71.096012,64.499052 62.679546,44.762748 57.029406,31.513371 51.30529,20.932752 45.607812,13.206826 c -1.310433,-1.776978 -0.914145,-2.363366 1.210551,-1.791243 1.82995,0.49276 4.012788,1.928428 7.647978,5.030141 8.729873,7.448742 17.861198,22.338517 27.638283,45.067725 1.585189,3.685147 2.98939,6.816658 3.120447,6.958894 0.131051,0.14225 0.25773,-2.537862 0.281494,-5.9558 0.07106,-10.219908 1.29026,-18.740104 3.735498,-26.104898 2.977386,-8.967557 10.100083,-21.073771 11.547287,-19.626567 0.12001,0.120007 -0.23326,1.666397 -0.7851,3.43634 -1.898796,6.090101 -3.864015,14.502601 -4.733018,20.260593 -1.237466,8.199399 -1.240463,19.464958 -0.007,27.173355 0.853331,5.33369 3.253319,15.428597 4.955838,20.845321 l 0.87747,2.791777 0.0872,-1.675063 c 0.44553,-8.561193 0.98697,-15.600546 1.4237,-18.509783 1.98372,-13.214543 8.40784,-31.432215 13.62171,-38.628717 1.36939,-1.890105 1.63621,-2.106287 1.7357,-1.406363 0.0647,0.454888 -0.38963,2.632489 -1.00956,4.839101 -0.9775,3.479362 -2.37731,10.926754 -3.20291,17.040336 -0.1383,1.023648 -0.73082,4.290037 -1.31684,7.258644 -0.58603,2.968594 -1.28243,7.156265 -1.54759,9.305941 -0.60814,4.930491 -0.60403,20.510525 0.007,25.498291 0.73429,5.996659 4.24206,27.517209 4.53991,27.852849 0.14996,0.169 0.39117,-1.17106 0.53601,-2.9779 0.37012,-4.61727 2.25512,-15.42316 3.3488,-19.19723 0.50551,-1.744426 1.82571,-5.243105 2.93376,-7.774847 1.41708,-3.237814 2.14637,-5.486436 2.45875,-7.581059 0.64634,-4.333777 2.43537,-10.998956 3.53448,-13.167961 1.2952,-2.555955 3.0733,-4.513337 4.09995,-4.513337 0.45937,0 2.24271,0.892414 3.96297,1.983128 8.52372,5.404386 9.71158,6.550265 11.74389,11.328729 0.54522,1.281951 1.05271,2.269443 1.12774,2.194414 0.075,-0.07499 -0.19396,-2.547725 -0.59775,-5.494863 -1.09571,-7.997005 -1.80584,-13.985557 -2.44517,-20.620178 -0.31564,-3.275702 -1.1639,-11.316039 -1.88504,-17.867415 -2.22376,-20.202728 -2.20498,-21.905408 0.27138,-24.591935 2.68848,-2.916638 5.57159,-3.089684 8.17086,-0.490398 3.26158,3.261563 6.85095,10.060354 9.05399,17.149525 1.38074,4.443105 2.59647,9.949392 2.26903,10.276844 -0.21127,0.211258 -0.21112,0.211652 -1.65559,-4.25509 -1.99454,-6.167775 -6.51792,-14.2867 -8.57221,-15.386123 -0.5455,-0.291942 -0.86567,-0.231966 -1.35066,0.253028 -1.49271,1.492703 0.23431,13.72973 5.9778,42.35631 3.39325,16.912605 4.37959,22.880547 5.09082,30.802508 0.25272,2.814948 0.57491,4.99254 0.71598,4.83909 0.14107,-0.153452 0.6252,-2.037831 1.07586,-4.187506 3.46046,-16.506987 7.61026,-25.419689 13.2218,-28.397019 2.05903,-1.092473 5.33785,-1.071834 7.81556,0.04924 4.40809,1.994398 12.81418,8.262667 20.95745,15.627545 2.93664,2.655941 6.10519,6.183813 4.91451,5.471818 -0.3071,-0.183627 -1.89841,-1.190448 -3.53626,-2.237366 -9.22502,-5.896697 -18.14978,-10.081443 -23.07609,-10.820183 -2.91584,-0.437259 -4.03192,0.852839 -5.91855,6.841222 -1.29322,4.104849 -3.66313,13.631895 -4.83098,19.420599 -1.00794,4.99594 -3.58426,18.78408 -3.58426,19.18241 0,0.13267 1.75078,-3.24967 3.89068,-7.51634 4.51606,-9.00454 8.15486,-14.723845 11.82796,-18.590663 2.50961,-2.641958 4.95862,-4.534666 5.35484,-4.138445 0.10397,0.103968 -0.91716,2.396555 -2.26919,5.094647 -3.97101,7.924581 -8.87469,20.572131 -12.45276,32.118101 -0.88314,2.84979 -0.54984,2.46715 2.78113,-3.1928 4.54808,-7.72806 10.38571,-14.37712 14.50443,-16.52059 2.47418,-1.28761 6.11764,-2.34171 8.09405,-2.34171 3.35991,0 7.50722,5.08436 9.56447,11.72549 1.46957,4.744 2.53585,15.07563 1.5559,15.07563 -0.18044,0 -0.9554,-1.46568 -1.72216,-3.25708 -2.24385,-5.24246 -3.34431,-7.19899 -5.52809,-9.82834 -3.33743,-4.01844 -5.67207,-4.17483 -9.87663,-0.66159 -9.53136,7.96421 -18.7367,26.8103 -21.45371,43.92218 -0.33924,2.13652 -0.84782,5.28666 -1.13019,7.0003 -0.5699,3.45868 -0.4645,3.89461 1.42437,5.89101 1.02325,1.08151 1.15221,1.50473 1.41784,4.65297 0.35835,4.2471 2.06604,17.60064 2.60884,20.40007 0.21832,1.12601 0.97914,3.97364 1.69073,6.32805 1.1992,3.9678 1.42005,4.39341 3.02099,5.82219 l 1.72722,1.54146 -0.44531,2.92539 c -0.67243,4.41743 -0.54556,6.78322 0.65229,12.16298 0.60098,2.69909 1.86916,8.50884 2.81818,12.91056 2.25349,10.4519 2.52197,11.23615 4.65161,13.58779 l 1.77184,1.95652 -0.19062,3.34294 c -0.10636,1.86539 -0.0391,3.43659 0.15225,3.55483 0.32494,0.20082 17.39085,-5.42548 23.76383,-7.83444 6.7379,-2.54693 22.69086,-9.662 24.81451,-11.06737 1.53174,-1.01365 3.43724,-3.36932 4.24325,-5.24569 0.27099,-0.63089 0.6088,-2.42799 0.75067,-3.99357 l 0.25794,-2.84649 -3.17166,-5.68462 c -1.74441,-3.12655 -4.0163,-7.37414 -5.04863,-9.4391 -1.81067,-3.62184 -1.9404,-3.7786 -3.67229,-4.4373 -3.49199,-1.32812 -7.20871,-5.88108 -8.81898,-10.80314 -0.65276,-1.99527 -2.87413,-4.38073 -10.17007,-10.92127 -2.37449,-2.12864 -3.55526,-3.47381 -3.86013,-4.39759 -0.30449,-0.92258 -0.38909,-3.74283 -0.27576,-9.19296 0.18945,-9.11186 0.2595,-9.34063 4.40222,-14.37623 1.26321,-1.53549 2.54804,-3.2758 2.85515,-3.86738 0.30711,-0.59158 0.71407,-2.85292 0.90435,-5.02522 0.77727,-8.87351 0.83109,-9.10362 2.76339,-11.81147 0.97369,-1.36452 2.04875,-3.38073 2.38901,-4.48047 0.34028,-1.09975 0.77658,-2.15746 0.96959,-2.35046 0.77703,-0.77702 6.86653,-1.90794 11.46725,-2.12967 l 4.7936,-0.231 2.27893,-1.908 c 3.44887,-2.88752 5.12779,-4.13536 6.52902,-4.8526 2.12208,-1.08623 7.63248,-2.01801 15.62632,-2.64233 6.26409,-0.48921 8.60883,-0.51961 13.40055,-0.17373 9.00858,0.65025 11.82437,1.53631 15.91843,5.00912 1.34661,1.14229 2.40422,1.70786 3.53625,1.89112 3.9443,0.63848 6.574,2.82024 9.42356,7.81828 2.23492,3.91998 3.85161,8.17784 4.49537,11.83933 0.57398,3.26475 0.79608,3.68938 3.92502,7.50455 5.88252,7.17264 5.42697,11.94684 -1.88204,19.72439 -1.90067,2.0225 -3.71905,4.27746 -4.04082,5.011 -0.45281,1.0323 -0.63403,3.31071 -0.80183,10.08132 -0.21229,8.56598 -0.23829,8.79396 -1.25223,10.98102 -1.22708,2.64681 -2.68102,4.28073 -3.80919,4.28073 -1.10906,0 -1.24868,0.24252 -3.30866,5.7477 -2.06343,5.51442 -7.02374,16.41981 -8.72933,19.19177 -0.63382,1.03006 -1.15238,2.14001 -1.15238,2.46656 0,0.99647 2.21183,4.81168 3.53048,6.08976 1.25703,1.21836 3.68459,2.01737 16.38425,5.3927 30.02284,7.97949 31.42287,8.37979 34.24586,9.79186 6.56027,3.28146 13.08319,11.3197 15.22314,18.75953 0.9979,3.46939 3.8233,15.91907 5.26513,23.20001 1.37449,6.94089 3.77485,18.26851 4.63961,21.89486 1.31449,5.51236 2.22753,8.07359 4.47956,12.56612 3.90902,7.79802 5.37263,13.91387 5.14087,21.4817 -0.12704,4.14856 -0.20198,4.50345 -1.54651,7.32287 -1.19795,2.51203 -2.04755,3.59471 -5.58191,7.11313 -3.57717,3.56104 -4.63592,4.37988 -7.4592,5.76882 -3.01818,1.48484 -3.57228,1.63057 -6.70026,1.76215 -3.02299,0.12719 -3.81572,0.0127 -6.98475,-1.0079 -4.32531,-1.39308 -5.04066,-1.41679 -6.66179,-0.22076 -1.57529,1.16222 -2.54771,1.16561 -5.82572,0.0204 -1.43295,-0.50064 -4.35166,-1.29461 -6.486,-1.76437 -3.55251,-0.78189 -4.77761,-0.85315 -14.4894,-0.84279 -10.80692,0.0113 -14.87999,0.35705 -26.42888,2.24202 -10.68941,1.74468 -27.11041,5.38583 -34.24588,7.59361 -2.20868,0.68338 -3.36031,0.74402 -13.21443,0.6957 -5.9372,-0.0291 -10.29238,-0.12113 -9.67819,-0.20435 0.61419,-0.0833 3.46182,-0.55207 6.32805,-1.04179 15.01766,-2.56588 25.33304,-4.80918 47.91637,-10.42043 9.81658,-2.43913 14.06919,-3.21763 21.24627,-3.88946 4.87787,-0.45659 5.87346,-0.85596 3.55876,-1.42756 -2.88647,-0.7128 -17.50463,-3.00014 -21.91095,-3.42846 -5.79014,-0.56284 -24.64383,-1.05816 -42.04349,-1.10455 -7.87147,-0.021 -15.49303,-0.20411 -16.93682,-0.40694 -4.52711,-0.63597 -11.15386,-2.4799 -16.101,-4.48018 -7.32118,-2.96018 -17.94388,-8.41781 -18.42053,-9.46393 -0.56306,-1.2358 1.27568,-5.03248 3.77259,-7.78964 4.67798,-5.1656 8.17584,-12.6543 10.13655,-21.70172 0.85704,-3.95475 1.11356,-10.91045 0.54234,-14.70656 -0.29904,-1.98726 -0.26987,-2.14036 0.40761,-2.14036 2.17151,0 3.26047,4.03756 3.26285,12.09772 0.001,5.06541 -0.12691,6.42883 -0.8584,9.11983 -1.32289,4.86617 -3.09697,8.88261 -6.08657,13.77971 -4.51317,7.39273 -4.61918,7.61409 -4.20734,8.78512 0.50434,1.43408 5.91784,5.42973 10.03433,7.40624 7.2693,3.49034 13.08281,4.81244 15.15588,3.44675 0.46935,-0.3092 2.19342,-1.68067 3.83127,-3.04773 3.59653,-3.00189 6.85819,-4.93267 11.44679,-6.77605 3.23455,-1.29943 3.67904,-1.38159 7.35121,-1.3589 4.94444,0.0305 8.52696,0.62069 11.28929,1.85958 l 2.16948,0.973 2.66962,-0.84866 c 6.71059,-2.13327 16.2791,-5.90446 29.28462,-11.5418 9.31618,-4.03816 17.01746,-5.72098 30.06622,-6.56978 2.10289,-0.13675 3.88813,-0.35337 3.96718,-0.48128 0.0791,-0.12789 -0.35889,-1.23675 -0.97322,-2.46408 -2.29985,-4.59474 -3.74687,-8.62323 -4.77283,-13.28747 -0.58135,-2.64292 -1.25547,-5.04446 -1.49804,-5.33673 -0.24256,-0.29228 -0.96729,-0.65989 -1.6105,-0.81696 -0.64321,-0.15705 -7.92532,-0.20179 -16.18248,-0.0995 -14.31617,0.17748 -15.03748,0.21966 -15.54091,0.90868 -0.29037,0.39742 -0.53022,1.3187 -0.53303,2.04731 -0.006,1.64485 -0.35315,2.99981 -0.76785,2.99981 -0.44299,0 -1.8462,-4.65118 -2.0939,-6.94063 -0.31788,-2.93834 -0.50123,-2.90324 12.31742,-2.35819 16.40193,0.69742 23.79477,-0.0478 25.12458,-2.53253 0.19324,-0.36109 0.62229,-2.99759 0.95343,-5.85889 0.33115,-2.86131 0.78089,-5.86818 0.9994,-6.68194 0.37223,-1.3862 0.43019,-1.43455 0.91877,-0.76638 0.65639,0.89765 0.64164,0.60124 0.53752,10.80741 -0.10341,10.13636 0.17231,11.75023 2.95482,17.29502 2.05274,4.09056 2.11692,4.28373 1.32179,3.97862 -0.71182,-0.27316 -1.05358,0.31038 -0.74718,1.27577 0.23273,0.73326 0.26528,0.73719 0.74344,0.0897 0.69229,-0.93737 0.94858,-0.58644 2.99046,4.09465 2.21708,5.08278 4.43186,8.75314 8.11601,13.44988 2.87138,3.66059 4.485,6.27886 4.26191,6.91537 -0.26847,0.76602 -2.64627,-1.02135 -4.72008,-3.54807 -2.36212,-2.87803 -4.49686,-4.56455 -7.29678,-5.76473 -6.8548,-2.9383 -19.1581,-2.30749 -31.68198,1.62443 -6.98997,2.19452 -34.05431,12.473 -37.40453,14.20546 -0.97664,0.50505 -1.01179,0.61014 -0.64693,1.93516 0.43526,1.58076 1.98734,4.78503 2.45894,5.0765 0.1707,0.10551 1.80707,0.2191 3.6364,0.25246 11.22926,0.20479 19.68404,1.04449 41.4804,4.11973 10.4111,1.4689 13.09576,2.03983 23.10744,4.91408 11.54527,3.31452 13.55994,3.72548 17.30097,3.52912 2.75549,-0.14463 3.49554,-0.35123 6.38262,-1.78183 5.56702,-2.75857 11.33085,-9.39021 12.92374,-14.86959 1.64867,-5.67121 -0.18951,-14.52561 -3.34079,-16.0924 -0.85222,-0.42371 -1.12667,-0.99551 -1.84693,-3.84781 -0.7575,-2.99984 -3.82891,-12.02771 -5.75095,-16.90398 -1.05152,-2.66771 -2.07589,-8.51808 -3.54555,-20.24934 -2.38973,-19.07542 -4.09965,-24.90455 -8.22416,-28.03599 -0.77442,-0.58795 -1.83798,-1.55906 -2.36345,-2.158 -3.35624,-3.82546 -4.59068,-4.9858 -6.95501,-6.53752 -3.24907,-2.1324 -7.59444,-3.614 -16.4171,-5.59755 -8.67702,-1.95081 -11.05662,-2.58056 -20.48994,-5.42248 -4.35395,-1.31169 -8.3986,-2.38489 -8.98811,-2.38489 -0.99691,0 -1.24314,0.33197 -3.52175,4.74813 -4.27472,8.28474 -8.62276,14.69584 -14.66734,21.62665 -3.00054,3.44048 -4.5316,6.6287 -4.99993,10.41174 -0.55105,4.45108 -1.25884,7.20847 -2.76017,10.75308 -0.76195,1.79897 -1.45685,3.3546 -1.54422,3.45697 -0.43459,0.50921 -3.35426,-3.60812 -5.0077,-7.06184 -1.71645,-3.58538 -2.23317,-4.27693 -6.39796,-8.56275 -7.98818,-8.22033 -8.9495,-9.62022 -12.91532,-18.80741 -2.26411,-5.24503 -2.45627,-5.39745 -6.80434,-5.39745 -4.31381,0 -5.59914,-0.38896 -5.22864,-1.58229 0.14297,-0.46049 0.5844,-1.2979 0.98094,-1.8609 0.93452,-1.32683 0.7569,-1.32469 -4.82624,0.0582 -4.58349,1.1353 -8.07692,2.38958 -18.51281,6.64685 -6.49496,2.64958 -12.92651,4.97018 -15.72947,5.67542 -1.35198,0.34017 -1.87929,0.79244 -3.59386,3.08238 -1.10516,1.47605 -3.16987,4.72879 -4.58827,7.22833 -2.87974,5.07482 -2.02623,1.9693 -7.39564,26.90949 -4.48547,20.83432 -6.58575,29.34836 -9.80752,39.75715 -1.03329,3.33831 -1.8787,6.66375 -1.8787,7.38985 0,1.75443 1.98403,7.60377 3.44554,10.15823 2.52765,4.41788 9.37937,10.56162 16.79062,15.05566 4.38338,2.65801 8.35792,4.32684 13.45136,5.64796 l 3.35014,0.86895 -8.74759,0.0127 -8.74758,0.0127 z m 76.08309,-22.87181 c 3.25797,-0.12563 6.14747,-0.31434 6.42109,-0.41933 0.90598,-0.34766 0.52056,-1.33263 -1.60971,-4.1139 -2.72723,-3.56064 -4.1374,-4.62434 -6.42156,-4.84381 -2.0937,-0.20119 -2.47716,0.16749 -1.70807,1.64213 0.69389,1.33043 0.73145,3.1097 0.0657,3.1097 -0.27116,0 -1.54626,-0.91211 -2.83356,-2.02691 -1.2873,-1.1148 -2.78239,-2.12278 -3.32242,-2.23995 -1.26215,-0.27387 -4.7358,0.63721 -7.21027,1.89113 -2.39759,1.21495 -4.32812,2.74702 -5.8539,4.64564 l -1.17037,1.45636 1.04277,0.39756 c 1.29176,0.49248 10.11715,1.04036 13.88496,0.86198 1.53549,-0.0727 5.4574,-0.23496 8.71538,-0.3606 z m -88.6277,-44.26854 c 1.12938,-5.32103 1.59957,-9.11983 1.12881,-9.11983 -0.51081,0 -2.01614,1.07429 -3.5741,2.55067 -1.10049,1.04286 -1.39634,1.60223 -1.39803,2.64315 -0.003,1.80389 2.27742,9.53273 2.62393,8.89342 0.14922,-0.2753 0.69794,-2.51064 1.21939,-4.96741 z m 0.35756,-14.67222 c 1.37045,-0.52104 2.1293,-1.46196 2.1293,-2.64015 0,-1.20051 -5.35115,-15.70028 -9.13417,-24.75049 -1.36925,-3.27569 -3.74317,-8.97094 -5.27537,-12.65608 -1.53221,-3.68517 -2.92902,-6.85141 -3.10405,-7.03611 -0.59862,-0.63175 -3.39322,0.27095 -4.20222,1.35739 -1.14657,1.53976 -0.92262,3.87809 0.8388,8.75797 0.833,2.3078 1.84166,5.99296 2.24146,8.18925 0.94496,5.19107 1.35285,6.17161 9.63593,23.16348 2.75643,5.65453 4.02939,6.69486 6.87032,5.61474 z m 97.77218,-13.89703 c 3.92679,-9.71775 7.18507,-15.38603 14.69792,-25.56936 5.49125,-7.44315 5.99739,-8.25578 6.33144,-10.16546 0.2117,-1.21037 0.14983,-1.39589 -0.46563,-1.39589 -0.39038,0 -1.94742,0.68051 -3.46007,1.51224 -3.07667,1.69172 -4.97318,2.57298 -8.51996,3.95899 -2.66694,1.04219 -7.17668,2.34005 -7.40211,2.13027 -0.5858,-0.54511 1.77562,-2.29952 6.26901,-4.65756 9.15096,-4.80221 10.64389,-5.74782 11.31825,-7.16894 0.76634,-1.61495 0.50783,-2.32816 -0.94952,-2.61963 -2.00398,-0.40081 -6.47504,-0.24501 -9.48206,0.33039 -3.34929,0.64091 -6.79986,0.71668 -8.69238,0.1909 -0.71937,-0.19984 -2.22693,-0.94266 -3.35014,-1.65069 -3.75473,-2.36684 -4.67383,-2.75997 -7.30547,-3.12465 -1.439,-0.19942 -3.30811,-0.71548 -4.15359,-1.1468 l -1.53722,-0.78423 -0.415,0.77543 c -0.68411,1.27827 -0.5286,4.45407 0.32666,6.67071 0.43445,1.12601 1.91145,3.46558 3.28222,5.19901 3.26443,4.12812 6.45737,8.83482 6.45737,9.51876 0,1.16621 -1.04197,0.37067 -5.55446,-4.2408 -5.19073,-5.30456 -7.11325,-6.76982 -10.01206,-7.63066 l -1.95893,-0.58175 -0.4023,1.00809 c -0.22126,0.55444 -0.48323,2.18063 -0.58215,3.61375 -0.17984,2.60518 -0.17942,2.60657 2.25625,7.44476 1.33986,2.6615 3.38694,6.34664 4.54905,8.18923 1.87791,2.97744 9.93063,14.27213 13.00426,18.23964 2.88902,3.72923 3.98138,5.02522 4.23561,5.02522 0.15074,0 0.8325,-1.38194 1.51501,-3.07097 z m -86.89004,-13.67973 c 1.29144,-1.94495 2.94925,-4.11352 3.68402,-4.81905 1.08193,-1.03889 1.33594,-1.55668 1.33594,-2.72321 0,-2.89773 -0.8555,-3.32771 -4.89649,-2.46109 -2.96128,0.6351 -3.77133,1.6652 -4.57888,5.82282 -0.49597,2.5534 -0.62189,4.48803 -0.48453,7.44455 0.25789,5.55137 0.54501,6.03525 1.6818,2.83454 0.50054,-1.40927 1.96669,-4.15362 3.25814,-6.09856 z m -9.68761,5.67662 c -0.37688,-3.79469 -1.21724,-7.13076 -2.06902,-8.21362 -0.71391,-0.90759 -0.74757,-1.29406 -0.52363,-6.00983 0.21728,-4.57514 0.13647,-5.62335 -0.87698,-11.3679 -3.92139,-22.2288 -4.97837,-26.7383 -6.75214,-28.80756 -1.98049,-2.31041 -2.19034,-3.1407 -1.84488,-7.2995 0.51781,-6.23392 0.39478,-11.25237 -0.36624,-14.93997 -0.92282,-4.47144 -3.58754,-13.33037 -4.5755,-15.21129 -0.502,-0.95575 -0.87207,-2.57173 -1.03341,-4.5126 -0.27483,-3.30631 -0.83413,-4.36945 -3.17471,-6.03482 -3.34628,-2.38089 -4.99065,1.18592 -5.04824,10.95015 -0.0144,2.44 -0.15597,4.76871 -0.31462,5.17491 -0.25179,0.64468 -0.34086,0.57372 -0.70087,-0.55836 -2.82963,-8.89792 -2.34426,-24.15567 0.85241,-26.7952 0.9261,-0.76469 3.35011,-0.62592 5.49363,0.31452 0.97247,0.42666 1.76813,0.70423 1.76813,0.61682 0,-0.50825 -2.02914,-5.46578 -5.10434,-12.4707 -5.09819,-11.61309 -11.63816,-24.63706 -14.61174,-29.09849 -2.48047,-3.72154 -9.80918,-11.84767 -10.68508,-11.84767 -0.7754,0 -0.9588,1.29498 -1.1489,8.11206 -0.22365,8.02001 0.21491,13.84533 2.00955,26.69218 2.05723,14.72677 4.8622,27.8369 7.96418,37.22377 1.59274,4.81982 2.05274,5.44335 4.66767,6.32716 l 2.20527,0.74536 0.24009,3.53625 c 0.27262,4.01567 0.81627,6.54458 2.90656,13.52056 3.08057,10.28078 5.51083,16.21887 12.13848,29.65903 3.20285,6.49505 3.87893,7.52034 6.09287,9.24013 0.83801,0.65096 0.86917,0.78929 0.42137,1.87034 -0.52036,1.25627 -0.59736,3.49405 -0.18551,5.39139 0.56805,2.6169 11.63675,26.30549 12.29147,26.30549 0.11748,0 0.10144,-1.13067 -0.0359,-2.51261 z m 9.18339,-18.17668 c 4.52139,-2.29116 4.64901,-3.32867 1.62182,-13.18435 -0.47163,-1.53549 -1.30657,-5.63941 -1.85542,-9.11982 -1.83019,-11.60555 -3.97505,-18.56685 -6.00576,-19.4921 -1.05381,-0.48014 -3.65978,-0.20874 -4.80193,0.50012 -0.40997,0.25442 -1.04551,1.29723 -1.41234,2.31736 -0.74945,2.08414 -0.74247,2.15813 1.22192,12.95223 0.59612,3.2757 1.51629,8.38466 2.04482,11.35326 1.0518,5.9078 2.94913,13.08708 3.80308,14.39036 0.97493,1.48792 2.81503,1.58463 5.38381,0.28294 z m -28.28619,-9.10108 c 0.75136,-0.20869 1.72404,-0.66927 2.16149,-1.02351 l 0.7954,-0.64407 -0.91922,-2.04538 c -9.024,-20.07966 -16.03143,-37.24409 -19.22304,-47.08616 -0.46474,-1.4331 -0.90648,-2.71559 -0.98167,-2.84993 -0.0751,-0.13436 -1.26718,0.23142 -2.64888,0.81284 -2.27868,0.95886 -2.52331,1.16663 -2.63158,2.23507 -0.29839,2.94458 2.13169,11.35611 6.82533,23.62524 2.33875,6.11348 6.31509,16.76709 8.25857,22.12677 0.6915,1.90697 1.84024,3.08779 4.20571,4.32321 1.91725,1.00132 2.28074,1.04729 4.15789,0.52592 z m 119.09586,-12.8558 c 2.33074,-0.52556 4.90773,-1.2514 5.72666,-1.613 3.01579,-1.3316 4.96299,-4.78465 4.52778,-8.02932 -0.32962,-2.45751 -1.09295,-2.8027 -6.19757,-2.8027 -5.32269,0 -6.59376,-0.22781 -7.30199,-1.30869 -0.43921,-0.67033 -0.45997,-1.02213 -0.10608,-1.79885 0.54988,-1.20684 1.81269,-1.60078 6.06008,-1.89051 4.04942,-0.27622 5.33947,-0.55491 4.63514,-1.0013 -0.27536,-0.17451 -3.93993,-0.31987 -8.14348,-0.323 -5.73212,-0.004 -8.15165,-0.1488 -9.67818,-0.57811 -3.90771,-1.09895 -4.92047,-1.10317 -6.20086,-0.0257 -1.56011,1.31275 -2.56022,1.24418 -3.49041,-0.23933 -0.56446,-0.90022 -0.70731,-1.59074 -0.55826,-2.69872 0.11015,-0.81892 0.39516,-3.16403 0.63333,-5.21134 0.42623,-3.6639 0.45701,-3.74492 1.95962,-5.15835 3.57607,-3.36381 8.0532,-6.30653 8.66464,-5.69509 0.14355,0.14356 -0.10566,1.01559 -0.55368,1.93787 -0.44808,0.92227 -0.81468,2.07911 -0.81468,2.57076 0,0.93995 0.66334,1.27251 6.37936,3.19808 l 2.21667,0.74675 1.75085,-0.82015 c 0.96297,-0.45108 2.8265,-0.91613 4.14117,-1.03344 2.20615,-0.19683 2.41689,-0.29337 2.73507,-1.2529 0.78041,-2.35347 -0.36325,-3.82535 -3.25284,-4.18639 -1.12002,-0.13998 -2.18219,-0.44513 -2.36039,-0.67823 -0.39304,-0.51414 -1.62641,-6.44867 -1.84397,-8.87263 -0.1193,-1.32982 0.11874,-2.46351 0.99437,-4.73402 0.68714,-1.78181 1.15131,-3.67553 1.15131,-4.69702 0,-2.2129 0.4659,-3.03122 1.90585,-3.34748 0.64214,-0.14104 2.55473,-0.92206 4.25018,-1.73559 4.71932,-2.26449 7.67263,-2.06056 12.26228,0.84666 1.22427,0.7755 2.28648,1.34947 2.36047,1.27548 0.43415,-0.43415 -0.75431,-2.18098 -3.3811,-4.96969 -1.64325,-1.74453 -4.20818,-5.05166 -5.69986,-7.34917 -2.62933,-4.04976 -2.77661,-4.20142 -4.82352,-4.96727 -1.16127,-0.43449 -3.11263,-1.06835 -4.33638,-1.40857 -2.72875,-0.75866 -2.60198,-0.78873 -13.75667,3.26234 -4.57804,1.66261 -10.46507,3.58195 -13.08227,4.2652 -2.6172,0.68324 -5.46823,1.65817 -6.33563,2.1665 -2.18471,1.28032 -5.25256,4.38429 -5.81649,5.88494 -0.25836,0.68751 -0.99809,2.50632 -1.64385,4.0418 -1.12297,2.67022 -1.17263,3.0025 -1.14043,7.63088 0.0955,13.72648 3.19548,26.5739 8.05314,33.37516 5.32508,7.45569 14.42362,14.5267 20.76163,16.13509 1.33075,0.33771 2.92206,0.93309 3.53625,1.32308 0.61421,0.38999 1.21984,0.71188 1.34587,0.71533 0.12606,0.003 2.13613,-0.42373 4.46685,-0.94927 z m -8.72134,-40.95226 c -0.11354,-0.39239 -0.48767,-2.13442 -0.83146,-3.87119 -1.13033,-5.71017 -1.144,-5.71715 -6.12544,-3.12925 -4.55319,2.36544 -6.86059,2.56267 -10.92776,0.93409 -1.59504,-0.63868 -3.2963,-1.16124 -3.78058,-1.16124 -0.48426,0 -0.97517,-0.15318 -1.09088,-0.34041 -0.3777,-0.61112 3.96016,-4.09935 6.10555,-4.90971 2.04052,-0.77077 4.03309,-0.80304 7.64759,-0.12395 1.32116,0.24823 2.56555,-0.51264 2.23732,-1.36801 -0.33748,-0.87946 -2.51371,-1.76895 -5.43793,-2.22265 -2.7814,-0.43155 -9.75494,-0.31151 -10.85138,0.1868 -1.11382,0.50621 -0.74382,-0.45812 0.81514,-2.1245 l 1.46655,-1.56759 5.80537,0.0591 c 6.13831,0.0625 8.80644,0.47858 11.07868,1.72761 1.38811,0.76303 1.39086,0.76936 1.16538,2.68785 -0.22474,1.91218 -0.21711,1.93013 1.35619,3.19106 3.78495,3.03348 4.21032,4.12803 3.14462,8.09156 -0.36711,1.36535 -0.87068,2.971 -1.11903,3.56812 -0.39074,0.93944 -0.47936,0.98958 -0.65793,0.37224 z m -9.90727,-7.13453 c 2.07142,-1.04919 2.75814,-2.1384 1.62285,-2.57406 -0.44387,-0.17033 -0.93586,0.11016 -1.60951,0.91746 -1.83309,2.19685 -4.62664,2.37787 -6.09275,0.39484 -0.94516,-1.27839 -1.22988,-1.31808 -1.80092,-0.25109 -0.37708,0.7046 -0.30122,0.92911 0.56601,1.67508 1.48003,1.27306 4.61803,1.20346 7.31432,-0.16223 z m 35.44674,34.60401 c 1.73608,-1.81207 2.87627,-5.29461 3.25506,-9.94212 0.18733,-2.29823 0.45717,-4.49498 0.59967,-4.88165 0.14249,-0.38668 1.05561,-1.58302 2.02916,-2.65854 2.65756,-2.93594 3.39462,-5.21226 3.59844,-11.11349 l 0.16856,-4.87973 -1.10296,-1.23443 c -0.96652,-1.08171 -1.37726,-1.25428 -3.32008,-1.39481 -1.57018,-0.11354 -3.07977,0.0827 -5.1736,0.67254 -2.5704,0.72414 -3.50507,0.80391 -7.15712,0.61087 -3.92434,-0.20743 -4.25183,-0.17085 -4.97878,0.55612 -0.69278,0.69277 -0.75056,1.04742 -0.52667,3.2328 0.36998,3.6112 1.2893,5.29846 4.76312,8.74204 4.64984,4.60934 6.69988,7.30896 7.44816,9.80822 0.92262,3.0816 0.85347,3.5403 -1.01498,6.73216 -2.02561,3.46037 -2.40802,5.02914 -1.47675,6.05818 0.90632,1.00148 1.71691,0.91501 2.88877,-0.30816 z m -9.25258,-7.97496 c 2.10878,-1.2467 2.45069,-1.57298 1.86118,-1.77608 -0.86195,-0.29695 -17.44566,0.17837 -19.12999,0.54832 -1.41521,0.31082 -1.30937,0.86819 0.34874,1.83657 1.60667,0.93837 5.13931,1.31623 10.24208,1.09556 3.99,-0.17256 4.16063,-0.21611 6.67799,-1.70437 z M 176.46467,215.6255 c 1.25559,-0.64929 2.40256,-2.17614 2.76793,-3.68464 0.14328,-0.59158 0.004,-2.42947 -0.31025,-4.09462 -3.83333,-20.31049 -4.67085,-23.68374 -6.00765,-24.19671 -0.65724,-0.25221 -2.71086,0.3612 -4.13531,1.23523 l -1.18198,0.72524 0.54939,2.34887 c 0.63312,2.70687 4.76453,23.48397 5.16716,25.98596 0.14824,0.92128 0.34387,1.80069 0.43469,1.95424 0.26734,0.45192 1.56606,0.32111 2.71602,-0.27357 z m 89.06848,-3.5905 c 3.70956,-0.91505 4.74631,-1.40247 4.74631,-2.23145 0,-0.96779 -1.14597,-1.44229 -3.48323,-1.44229 -1.67649,0 -2.2575,-0.18032 -3.23712,-1.0046 l -1.19389,-1.0046 -0.86464,1.0052 c -1.21929,1.41751 -2.09976,4.89079 -1.41372,5.57683 0.27289,0.2729 1.54947,0.0622 5.44629,-0.89909 z m 22.24147,-1.43925 c 0,-0.47307 -2.58651,-3.3512 -3.01165,-3.3512 -0.29764,0 -1.4552,1.92423 -1.4552,2.41902 0,0.38503 2.37386,1.27355 3.44321,1.28877 0.563,0.008 1.02364,-0.15245 1.02364,-0.35659 z m -49.13539,-1.76821 c 0,-1.64425 -0.12943,-1.88611 -1.86118,-3.47821 -1.70667,-1.56902 -1.86119,-1.85079 -1.86119,-3.39399 0,-3.26557 -2.79903,-5.03189 -3.41583,-2.15556 -0.6083,2.83675 0.47425,6.70995 2.35596,8.4292 1.02156,0.9334 3.63193,2.36571 4.31145,2.36571 0.31346,0 0.47079,-0.59056 0.47079,-1.76715 z m 70.51677,-3.71176 c 1.14603,-1.23594 2.06961,-3.82471 2.06961,-5.80106 0,-1.47296 -1.69581,-5.84298 -2.26739,-5.84298 -0.16749,0 -0.38407,0.5444 -0.48127,1.20978 -0.0972,0.66537 -0.44035,2.96859 -0.76254,5.11826 -0.63787,4.25581 -0.71739,5.69777 -0.33525,6.07989 0.43584,0.43584 0.81591,0.27244 1.77684,-0.76389 z M 133.16572,194.76314 c 0.26906,-0.70112 -1.3882,-5.46084 -3.05597,-8.77695 -4.56521,-9.07724 -16.9058,-23.49383 -27.15325,-31.72115 -11.544475,-9.26863 -26.423085,-17.04582 -37.154861,-19.42118 -4.177842,-0.92471 -11.697037,-0.666 -13.897516,0.47819 -3.369336,1.75195 -4.041615,4.06954 -3.748624,12.9228 0.153681,4.64371 0.372168,6.50838 0.991751,8.46403 0.842723,2.65998 2.850574,7.35608 3.145142,7.35608 0.09647,0 -0.1381,-1.09632 -0.521293,-2.43625 -1.050592,-3.67373 -1.856847,-9.78623 -1.852775,-14.04654 0.0062,-6.44484 1.719342,-8.82376 6.939707,-9.63649 3.437329,-0.53515 7.026323,0.0905 12.59914,2.19602 7.412506,2.80071 14.407747,6.55339 23.450976,12.58051 7.363993,4.90796 12.182393,8.91143 18.642983,15.48993 9.59655,9.77166 17.16851,20.17224 19.27057,26.46938 0.27173,0.81398 2.03938,0.87553 2.34402,0.0816 z m 96.99658,-4.32105 c 1.06721,-0.56034 1.49446,-1.77272 1.23484,-3.50399 -0.33325,-2.22224 0.64305,-3.99369 3.74298,-6.79149 l 2.48468,-2.24251 -2.13871,-0.26721 c -3.44719,-0.4307 -5.9117,-0.0186 -7.73999,1.29444 -1.22349,0.87864 -2.38421,1.28456 -4.93827,1.72695 -1.83636,0.31807 -3.73543,0.8354 -4.22015,1.1496 -0.77672,0.50346 -0.86065,0.78639 -0.70715,2.38387 0.31571,3.28555 2.74177,5.7042 6.56047,6.54041 2.10864,0.46174 4.52247,0.33935 5.7213,-0.29007 z m 60.19516,-2.4996 c 1.31821,-0.56875 2.4617,-1.229 2.54112,-1.46722 0.0793,-0.23823 -0.45271,-0.71788 -1.18246,-1.06587 l -1.32685,-0.63273 -1.43625,1.55575 c -1.102,1.19367 -1.70948,1.55575 -2.61017,1.55575 -1.33213,0 -2.66283,-1.10983 -2.66283,-2.22086 0,-0.71771 -0.0259,-0.71667 -1.33174,0.0539 -1.28952,0.76084 -1.31018,0.80726 -0.65142,1.46452 0.89302,0.89101 3.32694,1.76373 4.96105,1.77885 0.71657,0.007 2.38136,-0.45327 3.69955,-1.022 z m 11.56221,-1.00938 c 0,-1.43886 -0.66488,-2.39981 -2.06532,-2.98494 -1.79576,-0.75032 -3.62525,-0.65651 -4.77088,0.24464 -1.45188,1.14205 -1.28061,1.79973 0.4151,1.59389 1.0388,-0.12606 1.96723,0.11367 3.62932,0.93747 2.77029,1.37301 2.79178,1.37462 2.79178,0.20894 z M 166.0267,183.07314 c 0.44125,-0.27925 0.37203,-0.54853 -0.40522,-1.57631 -0.51556,-0.68174 -1.88706,-2.85841 -3.04778,-4.83705 -2.27064,-3.87067 -4.97274,-6.67166 -7.11969,-7.38023 -1.77591,-0.58609 -3.23289,0.23122 -4.28444,2.40345 -1.02546,2.11832 -0.85818,2.73076 0.46221,1.69214 0.55491,-0.43649 1.59644,-0.88898 2.31449,-1.00549 1.23503,-0.20043 1.46286,-0.0535 4.21897,2.72117 1.6024,1.61318 3.47018,3.9381 4.15063,5.16649 1.67106,3.01665 2.45431,3.611 3.71083,2.81583 z m 150.68732,-6.20086 c 0.90114,-0.94048 1.55607,-1.7923 1.45543,-1.89295 -0.21026,-0.21026 -5.73404,1.42683 -7.90518,2.34287 -1.28349,0.54152 -1.369,0.65074 -0.71373,0.91147 0.40946,0.16294 1.8201,0.30801 3.13476,0.32239 2.36663,0.0259 2.40652,0.01 4.02872,-1.68378 z m -186.92376,0.31405 c -0.19827,-0.62782 -0.9455,-4.87665 -3.764,-21.40256 -2.87823,-16.87604 -3.94601,-28.98375 -3.23603,-36.69384 0.23899,-2.5953 0.66863,-5.60857 0.95475,-6.69618 0.49905,-1.89688 0.48811,-1.9974 -0.26878,-2.46725 -0.43397,-0.26937 -1.32686,-0.58845 -1.98423,-0.70904 -1.46465,-0.26868 -1.40727,-0.53612 -1.94414,9.06224 -0.71198,12.72907 -0.82061,19.13792 -0.41953,24.75382 0.53315,7.46548 3.06831,24.18586 3.94824,26.04018 0.37705,0.79458 0.75143,1.24703 0.83196,1.00546 0.17624,-0.52875 -1.0812,-10.32277 -2.35024,-18.30545 -0.94078,-5.91793 -1.20235,-11.15974 -0.55687,-11.15974 0.63645,0 1.81193,4.85419 2.61406,10.79491 1.31587,9.74539 3.30813,22.16886 3.73712,23.30406 0.35494,0.93929 2.10477,3.12481 2.50184,3.12481 0.0778,0 0.049,-0.29312 -0.0642,-0.65142 z m 38.02105,-2.80798 c 0.21395,-0.46956 1.17637,-3.69407 2.1387,-7.16558 5.63999,-20.34538 6.35647,-22.46753 10.04876,-29.76282 5.0471,-9.97216 11.70987,-18.87009 16.70705,-22.31178 1.76533,-1.21582 2.34027,-1.41726 3.94224,-1.38116 3.45322,0.0778 6.0923,1.84874 8.68123,5.82552 l 1.45398,2.23343 -0.25105,-1.86118 c -0.63343,-4.69571 -1.87521,-6.87094 -5.46974,-9.58131 -3.73186,-2.81392 -5.80353,-2.76616 -9.87014,0.22749 -5.76654,4.24509 -9.54248,9.61312 -16.92219,24.05721 -7.43605,14.55441 -9.82378,21.27632 -11.1069,31.26798 -0.40752,3.17332 -0.82727,6.14657 -0.93275,6.60721 -0.25865,1.12934 0.16796,2.69873 0.73357,2.69873 0.25203,0 0.6333,-0.38418 0.84724,-0.85374 z m 71.96957,-1.95092 c 0.53968,-0.27909 1.2583,-0.93029 1.59694,-1.44711 0.58896,-0.89887 0.57924,-0.96248 -0.22391,-1.46452 -0.46178,-0.28865 -2.26341,-0.63224 -4.00362,-0.76352 -4.15328,-0.31331 -6.33047,-1.05584 -9.4855,-3.23498 -2.79148,-1.92805 -2.91186,-1.91204 -3.35372,0.44636 -0.23206,1.23864 -0.13449,1.44017 1.28584,2.65592 4.48274,3.83707 10.83151,5.54146 14.18397,3.80785 z m 78.09102,-0.70688 c 3.08544,-1.60555 3.72484,-4.6845 1.73117,-8.33629 -0.63677,-1.16634 -1.54089,-2.22035 -2.19459,-2.5584 -2.28923,-1.18381 -4.03703,-0.7542 -14.37698,3.53387 -3.40095,1.4104 -4.10105,1.6177 -7.12475,2.10981 -1.76131,0.28666 -2.00546,1.02134 -0.81111,2.44075 2.00769,2.386 3.27575,2.72336 11.19147,2.97737 3.93758,0.12634 7.28772,0.35874 7.44476,0.51638 0.37721,0.37868 2.8989,-0.0377 4.14003,-0.68349 z m -155.34381,-1.97896 c -0.38044,-0.97458 -1.96203,-8.22391 -2.213,-10.14349 -0.24657,-1.88584 -0.38104,-2.08857 1.97519,2.97791 1.92452,4.13819 1.95125,2.05133 0.0446,-3.47828 -1.93393,-5.60861 -4.08656,-9.87925 -9.51966,-18.88622 -8.40478,-13.93342 -15.65817,-24.04226 -21.36734,-29.77902 -4.13252,-4.15247 -6.09026,-5.1951 -8.35276,-4.4484 -1.76377,0.58209 -1.98018,1.04595 -0.7095,1.52069 2.76605,1.03342 4.38,2.10257 7.30467,4.83893 3.92938,3.67634 7.56714,8.41327 11.44924,14.90866 4.92493,8.24021 14.12867,26.96891 19.14244,38.95296 0.9636,2.30321 1.9204,4.18767 2.12622,4.18767 0.20583,0 0.2598,-0.29314 0.12001,-0.65141 z m 76.90785,-8.09618 c 3.15959,-1.51418 3.57546,-1.55617 5.53134,-0.55835 1.9184,0.97869 3.31697,0.93921 7.09998,-0.20041 3.31888,-0.99981 6.38303,-1.20087 8.53156,-0.55982 2.08483,0.62205 3.10737,0.46753 6.01268,-0.90854 l 2.73736,-1.29654 9.49206,-0.3715 c 10.16604,-0.39787 13.43217,-0.77988 15.86343,-1.85533 3.48941,-1.54353 6.05551,-5.06008 6.85386,-9.39244 0.69684,-3.78157 -0.85389,-8.40227 -3.9818,-11.8645 -1.7535,-1.94092 -4.55507,-3.66963 -6.50352,-4.01301 -1.29482,-0.22818 -1.60978,-0.43166 -1.55688,-1.00583 0.10045,-1.09121 -0.51004,-1.27712 -4.21477,-1.28332 -4.2027,-0.007 -7.92051,1.025 -9.54518,2.64967 -1.07893,1.07892 -1.08574,1.11056 -0.40223,1.86697 0.38242,0.42321 1.44909,1.15456 2.37037,1.62523 2.88869,1.47578 4.7557,3.06378 6.1324,5.2159 1.04386,1.63182 1.74476,2.27168 3.25461,2.97121 3.87593,1.79575 7.59949,1.50086 9.05263,-0.7169 1.03186,-1.57483 1.41203,-1.17847 1.19243,1.24323 -0.21247,2.34323 -1.00788,4.07613 -2.21777,4.83173 -1.08921,0.68021 -4.21603,0.53975 -7.17656,-0.32239 -1.92957,-0.56191 -3.67933,-0.75845 -6.75223,-0.75845 -6.24768,0 -9.83619,0.76629 -23.58633,5.03659 -8.57224,2.66223 -17.84986,5.45476 -24.11309,7.25797 -2.30911,0.66479 -4.09663,1.31044 -3.97232,1.43476 0.41449,0.41448 5.55313,2.23308 6.37221,2.25515 0.44397,0.0113 2.03055,-0.56452 3.52576,-1.28108 z m 57.25801,0.75191 c 0.99209,-0.51302 2.77481,-2.39629 2.51465,-2.65646 -0.15848,-0.15849 -7.98216,2.6094 -8.31418,2.94143 -0.52466,0.52465 4.73354,0.26629 5.79953,-0.28497 z m -179.44867,-5.75069 c -1.09838,-9.30307 -2.93498,-21.50438 -4.09425,-27.19979 -3.9212,-19.26448 -5.17315,-28.64814 -5.42756,-40.680603 -0.27752,-13.125305 0.45738,-22.881391 2.53962,-33.714644 0.40764,-2.12089 0.66519,-3.932168 0.57231,-4.025064 -0.28491,-0.284894 -2.3942,6.557299 -3.17548,10.300804 -3.7158,17.803893 -3.77576,40.511927 -0.19066,72.214127 0.93712,8.28675 1.53557,10.73588 2.71338,11.10432 0.43612,0.13647 0.48344,-0.42087 0.28268,-3.32987 -0.57622,-8.34936 -0.66155,-11.30065 -0.31086,-10.75236 0.46609,0.72875 1.17946,5.41001 1.17946,7.73989 0,1.00517 0.4849,3.73696 1.07756,6.07063 0.59267,2.33366 1.19625,5.58307 1.3413,7.22092 0.14505,1.63785 0.49353,4.23421 0.77443,5.76969 0.43421,2.37359 0.6912,2.94512 1.71561,3.81543 0.6627,0.56301 1.30698,1.02365 1.43174,1.02365 0.12479,0 -0.0684,-2.5007 -0.42928,-5.55713 z m 191.26242,-1.24549 c 0.9438,-0.84866 1.97696,-4.84164 1.96697,-7.602 -0.0213,-5.88547 -3.6057,-13.14097 -6.49202,-13.14097 -0.75823,0 -0.7564,0.0193 0.56077,5.9558 0.71637,3.22872 0.8596,4.89521 0.82354,9.58161 -0.0374,4.86879 0.0418,5.72088 0.55854,6.01009 0.73177,0.40953 1.49734,0.17101 2.5822,-0.80453 z m -196.80052,0.19541 c 0.003,-1.76857 -0.83003,-8.94141 -1.12101,-9.65522 -0.18265,-0.448 -0.69444,-1.00849 -1.13734,-1.24552 l -0.80527,-0.43097 0.2657,3.47895 c 0.35808,4.68875 0.82023,7.01511 1.55486,7.82688 0.77336,0.85455 1.24174,0.86429 1.24306,0.0259 z m 118.65809,-0.46022 c 0.26049,-0.003 1.21242,-0.6861 2.11542,-1.51844 l 1.64179,-1.51337 2.59995,1.14113 c 3.60844,1.58375 5.97762,1.5527 10.55287,-0.1383 5.06821,-1.8732 7.54268,-2.95264 7.73329,-3.37355 0.19869,-0.43878 -6.71805,-4.51382 -9.66908,-5.69656 -2.89415,-1.15997 -8.968,-2.64218 -11.97075,-2.92126 l -2.54652,-0.23667 v 3.09834 3.09833 l -2.40145,2.30876 c -1.32081,1.26982 -2.51321,2.75398 -2.64978,3.29815 -0.4122,1.64233 1.32316,2.97692 3.37617,2.59649 0.40946,-0.0758 0.95759,-0.14027 1.21809,-0.14305 z m -65.66189,-13.17632 c 0.41389,-10.34071 0.81059,-11.04257 0.93102,-1.64718 0.0255,1.98404 0.19241,3.69768 0.37105,3.8081 0.17865,0.11044 0.4376,-1.17789 0.57544,-2.86288 1.7876,-21.84993 5.07242,-43.485314 8.4621,-55.73527 1.34975,-4.877874 4.87177,-11.437621 6.47038,-12.051064 2.21605,-0.850377 7.44719,0.607534 14.31852,3.990553 5.86883,2.889442 5.83439,2.878863 3.16403,0.971636 -6.93101,-4.950287 -14.3229,-8.573194 -17.70653,-8.678344 -2.19036,-0.06809 -4.39334,1.330405 -5.75444,3.652972 -3.60635,6.153762 -7.94013,25.445027 -11.20922,49.896387 -0.76239,5.70234 -0.98354,9.21615 -1.1415,18.13747 -0.10777,6.08571 -0.0815,11.36218 0.0585,11.72548 0.66355,1.72235 1.06696,-1.3732 1.46059,-11.20786 z m 3.79951,7.08876 c 0.13506,-0.44215 1.06644,-3.03377 2.06988,-5.75914 1.00345,-2.72539 2.40656,-7.38832 3.11803,-10.36208 2.17227,-9.07949 5.96302,-21.02628 8.93136,-28.14766 1.96806,-4.72162 0.4625,-2.29668 -3.18161,5.12447 -3.47441,7.07554 -4.66213,9.88754 -7.23228,17.12293 -2.06453,5.81198 -2.98739,9.84511 -3.90147,17.05039 -0.41051,3.23577 -0.86647,6.08339 -1.01325,6.32803 -0.16615,0.27695 -0.0346,0.25652 0.34851,-0.0542 0.33847,-0.2744 0.72584,-0.86068 0.86083,-1.30283 z m -70.840618,-6.33274 c -6.434225,-7.73461 -10.694862,-12.97165 -11.081967,-13.62158 -0.895055,-1.50274 3.064464,2.0666 10.379594,9.35677 4.480501,4.4652 8.229311,8.11857 8.330701,8.11857 0.57377,0 -0.3362,-3.57053 -1.24371,-4.88007 -1.58502,-2.28718 -8.037326,-9.45386 -10.670645,-11.85205 -5.189134,-4.72579 -14.973794,-12.07476 -21.758949,-16.34251 -4.063767,-2.55604 -12.866101,-7.49931 -13.353818,-7.49931 -0.134217,0 1.32442,1.19517 3.241408,2.65592 6.15304,4.68863 17.579715,15.74088 29.019129,28.06826 5.952845,6.41492 11.249235,11.71094 11.711785,11.71094 0.0993,0 -1.95877,-2.57173 -4.573528,-5.71494 z m 164.991698,3.84504 c 0.12957,-0.20955 -0.421,-1.1727 -1.22332,-2.14038 -3.25101,-3.92102 -3.30919,-5.0108 -0.16423,-3.07569 3.57134,2.19747 4.53428,2.40053 11.43258,2.41076 6.63253,0.01 9.1269,-0.269 9.10929,-1.01828 -0.006,-0.24664 -2.7278,-2.25322 -6.04887,-4.45909 -7.79385,-5.17667 -8.71318,-5.71384 -12.32625,-7.20234 -4.19628,-1.72877 -6.06306,-1.70023 -9.08575,0.13886 -3.42968,2.0868 -7.46251,5.53303 -8.14184,6.95757 -0.5643,1.18338 -0.55714,1.33432 0.11874,2.50181 1.4465,2.49883 4.79242,4.09867 11.55117,5.52312 3.90109,0.82219 4.46843,0.86535 4.77853,0.3636 z m -102.76171,-9.76253 0.266,-7.53782 -4.12083,-8.71219 c -2.26646,-4.79171 -4.22947,-8.81188 -4.36222,-8.93371 -0.30034,-0.27562 -0.32617,-0.39742 2.40046,11.31785 3.78805,16.27563 5.06042,21.40369 5.31072,21.40369 0.13197,0 0.35957,-3.39202 0.50587,-7.53782 z m -54.95948,0.18613 C 104.02432,133.69379 100.0095,126.54074 94.53864,118.46582 80.127543,97.195267 73.297763,88.431834 63.32422,78.413941 56.937972,71.999286 52.244168,68.039487 46.900266,64.558324 43.017482,62.028987 34.960955,57.603398 34.2502,57.609433 c -0.29032,0.0028 0.142173,0.387793 0.961096,0.8563 10.579106,6.052199 20.504485,15.953645 38.174553,38.08255 10.777194,13.496677 19.701352,25.314497 25.2648,33.456917 3.092371,4.52584 6.119861,8.37535 6.586881,8.37535 0.0443,0 -0.0929,-0.62815 -0.30475,-1.39588 z M 151.1771,124.7858 c -1.19557,-4.9091 -2.91991,-12.02451 -3.83188,-15.81204 -1.3922,-5.78201 -2.21054,-8.19972 -5.10277,-15.075622 -1.89456,-4.50408 -3.65283,-8.589978 -3.90728,-9.079784 -0.4334,-0.834324 -0.72347,-0.364383 -4.5952,7.444761 -5.09857,10.283635 -5.90425,12.261025 -5.16441,12.675055 1.81815,1.01749 6.92953,5.61651 9.9095,8.9162 3.99278,4.42113 10.13002,12.51103 12.86441,16.95745 1.02366,1.66457 1.89274,2.99794 1.9313,2.96305 0.0386,-0.0349 -0.90809,-4.07996 -2.10367,-8.98907 z m 9.49406,-6.23909 c -0.32867,-2.29652 -1.08654,-6.77186 -1.68414,-9.94518 -1.00256,-5.32366 -2.46914,-13.977342 -4.4668,-26.356759 -0.43961,-2.724204 -0.74046,-5.129552 -0.66856,-5.345227 0.0719,-0.215675 0.34263,0.924421 0.60164,2.533543 2.6751,16.6192 6.49221,36.640993 7.19311,37.729903 0.66229,1.02894 0.003,-7.7519 -1.17364,-15.63399 -1.37635,-9.219008 -3.49171,-22.194535 -5.94712,-36.479294 -3.98398,-23.177498 -5.30725,-33.053211 -5.36948,-40.073108 -0.0364,-4.111221 0.0346,-4.625915 0.77854,-5.636015 0.78212,-1.062014 0.78912,-1.138351 0.15681,-1.710587 -1.07382,-0.97179 -1.88944,-0.719508 -2.57648,0.796929 -0.54647,1.206205 -0.62743,2.711021 -0.59576,11.074069 0.0397,10.455701 0.42025,16.237976 1.85004,28.103951 0.89153,7.398967 2.94739,21.288321 4.04966,27.359486 3.09534,17.048779 7.40252,38.147769 7.97885,39.084959 0.49605,0.80665 0.44234,-1.52685 -0.12662,-5.50268 z m -57.61783,0.0127 c -0.39902,-4.43745 -1.29897,-8.09394 -4.191494,-17.02989 -3.040611,-9.393417 -3.982041,-12.615207 -3.824428,-13.088018 0.07034,-0.210991 1.443406,3.861936 3.051304,9.050928 1.607898,5.18901 3.158688,9.85332 3.446198,10.36514 0.47449,0.84467 0.50724,0.65564 0.35478,-2.04731 -0.13956,-2.47455 -0.57556,-4.11042 -2.579241,-9.678173 -3.891973,-10.814836 -6.359322,-21.086588 -7.58082,-31.559566 -0.574008,-4.92153 -0.591369,-6.297954 -0.164282,-13.028313 0.262651,-4.13898 0.762629,-9.659406 1.111072,-12.267612 0.687544,-5.146646 0.480802,-5.783387 -0.48038,-1.479479 -2.692183,12.054751 -3.500944,29.523159 -1.875755,40.514081 0.839501,5.67742 6.912607,27.505392 10.434616,37.504112 0.94629,2.68646 1.8069,5.1776 1.91246,5.53589 0.48658,1.65155 0.66772,0.34139 0.38597,-2.79179 z m -7.905327,-6.96906 c -0.122962,-0.199 -1.061493,-4.42855 -2.085549,-9.399 C 90.066735,87.651113 89.805787,86.787315 85.553426,77.334046 84.125969,74.160723 82.076702,69.470526 80.999499,66.911392 70.94048,43.013922 61.392848,26.530515 52.862403,18.334352 50.666122,16.22414 50.709292,16.35159 53.713687,20.84765 c 4.229428,6.329314 7.287169,11.915343 11.359196,20.751567 2.576854,5.591713 9.409498,21.65601 9.409498,22.122757 0,0.0868 1.002093,2.520079 2.226874,5.407383 3.245708,7.651488 8.629803,22.176092 10.253915,27.661867 1.465503,4.950046 2.37895,6.901926 2.391626,5.110516 0.01126,-1.51027 -4.796117,-16.97085 -9.885102,-31.794318 -0.696808,-2.029696 -1.199638,-3.757644 -1.117401,-3.83989 0.222693,-0.222696 1.890377,2.098872 2.778761,3.868295 2.329977,4.640646 4.198172,10.691777 5.842415,18.923702 0.736076,3.685162 1.988385,8.710365 2.782936,11.167131 0.794537,2.45677 1.559361,4.96938 1.699585,5.58357 0.351397,1.53906 1.413819,3.58463 2.584177,4.97551 0.930667,1.10604 1.590172,1.58501 1.107836,0.80458 z m 58.113737,-9.80157 c -1.22194,-3.90442 -5.9382,-14.475219 -8.8975,-19.942338 -1.26086,-2.329376 -3.03638,-5.062612 -3.94559,-6.07388 -2.05932,-2.290462 -4.98005,-4.013865 -6.81043,-4.018564 -1.49415,-0.0042 -2.48249,0.900475 -4.20191,3.844603 -0.99536,1.704312 -3.2946,7.703627 -3.04724,7.951 0.0854,0.0854 0.54307,-0.398669 1.01692,-1.07583 3.20222,-4.576253 6.52545,-7.127649 8.15083,-6.257773 1.1643,0.623108 3.96617,4.603335 5.78111,8.212398 1.57142,3.124814 3.9198,8.779091 6.71439,16.166494 0.77365,2.04509 1.46468,3.54416 1.53564,3.33129 0.0709,-0.21289 -0.81325,-3.64496 -1.96492,-7.626843 -2.05648,-7.110246 -2.63359,-9.295684 -2.15753,-8.170374 0.12986,0.307108 1.04014,2.233426 2.02275,4.280737 0.98259,2.04731 2.8229,5.899975 4.08955,8.56147 1.26665,2.6615 2.3853,4.62074 2.4859,4.35387 0.10059,-0.26687 -0.24681,-1.85818 -0.77197,-3.53626 z m -27.14692,0.95052 c 0.24495,-0.563 1.35088,-3.284999 2.45759,-6.048863 2.12941,-5.317906 6.66991,-14.668163 7.31711,-15.068154 0.68806,-0.425244 0.40559,-1.651455 -0.52014,-2.258019 -0.83218,-0.545265 -0.98271,-0.541368 -1.88324,0.04868 -1.27648,0.836378 -3.86267,4.503813 -5.49009,7.785438 -1.71057,3.449227 -5.28681,12.154259 -6.00229,14.610328 l -0.56929,1.95424 h 2.12249 c 1.95933,0 2.15674,-0.0786 2.56786,-1.02365 z"
       id="path3" /></g><metadata
     id="metadata182"><rdf:RDF><cc:Work
         rdf:about=""><cc:license
           rdf:resource="http://creativecommons.org/licenses/by-sa/4.0/" /><dc:publisher><cc:Agent><dc:title>OpenDataKerala.org</dc:title></cc:Agent></dc:publisher><dc:date>April 2026</dc:date><dc:title>Election Symbols of Kerala</dc:title><dc:creator><cc:Agent><dc:title>Manoj Karingamadathil</dc:title></cc:Agent></dc:creator></cc:Work><cc:License
         rdf:about="http://creativecommons.org/licenses/by-sa/4.0/"><cc:permits
           rdf:resource="http://creativecommons.org/ns#Reproduction" /><cc:permits
           rdf:resource="http://creativecommons.org/ns#Distribution" /><cc:requires
           rdf:resource="http://creativecommons.org/ns#Notice" /><cc:requires
           rdf:resource="http://creativecommons.org/ns#Attribution" /><cc:permits
           rdf:resource="http://creativecommons.org/ns#DerivativeWorks" /><cc:requires
           rdf:resource="http://creativecommons.org/ns#ShareAlike" /></cc:License></rdf:RDF></metadata></svg>
