<?xml version="1.0" encoding="UTF-8" standalone="no"?>
<!-- Created with Inkscape (http://www.inkscape.org/) -->

<svg
   width="1500"
   height="1500"
   viewBox="0 0 396.87499 396.875"
   version="1.1"
   id="svg5"
   xml:space="preserve"
   inkscape:version="1.3 (0e150ed6c4, 2023-07-21)"
   sodipodi:docname="Auto Rikshaw.svg"
   inkscape:export-filename="ttp.png"
   inkscape:export-xdpi="96"
   inkscape:export-ydpi="96"
   xmlns:inkscape="http://www.inkscape.org/namespaces/inkscape"
   xmlns:sodipodi="http://sodipodi.sourceforge.net/DTD/sodipodi-0.dtd"
   xmlns="http://www.w3.org/2000/svg"
   xmlns:svg="http://www.w3.org/2000/svg"
   xmlns:rdf="http://www.w3.org/1999/02/22-rdf-syntax-ns#"
   xmlns:cc="http://creativecommons.org/ns#"
   xmlns:dc="http://purl.org/dc/elements/1.1/"><title
     id="title186">Election Symbols of Kerala</title><sodipodi:namedview
     id="namedview7"
     pagecolor="#ffffff"
     bordercolor="#000000"
     borderopacity="0.25"
     inkscape:showpageshadow="2"
     inkscape:pageopacity="0.0"
     inkscape:pagecheckerboard="0"
     inkscape:deskcolor="#d1d1d1"
     inkscape:document-units="mm"
     showgrid="false"
     inkscape:zoom="0.25"
     inkscape:cx="230"
     inkscape:cy="1082"
     inkscape:window-width="1920"
     inkscape:window-height="991"
     inkscape:window-x="-9"
     inkscape:window-y="-9"
     inkscape:window-maximized="1"
     inkscape:current-layer="layer1" /><defs
     id="defs2"><inkscape:path-effect
       effect="bspline"
       id="path-effect3248"
       is_visible="true"
       lpeversion="1"
       weight="33.333333"
       steps="2"
       helper_size="0"
       apply_no_weight="true"
       apply_with_weight="true"
       only_selected="false" /><inkscape:path-effect
       effect="bspline"
       id="path-effect577"
       is_visible="true"
       lpeversion="1"
       weight="33.333333"
       steps="2"
       helper_size="0"
       apply_no_weight="true"
       apply_with_weight="true"
       only_selected="false" /></defs><g
     inkscape:label="Layer 1"
     inkscape:groupmode="layer"
     id="layer1"><path
       style="fill:#000000;stroke-width:1.64056"
       d="m 149.17163,387.55084 c -5.44391,-0.31236 -16.27553,-1.51403 -21.24377,-2.35682 -20.27953,-3.44013 -40.38938,-11.29075 -46.63752,-18.2067 -3.153969,-3.49107 -3.284918,-4.12257 -3.295631,-15.89201 l -0.0098,-10.46838 -1.844756,-1.21416 c -9.087221,-5.98086 -15.747042,-14.89556 -18.119844,-24.25485 -0.854287,-3.36967 -0.870463,-4.79862 -0.870463,-76.95492 0,-48.74498 0.154704,-74.94194 0.459142,-77.73651 2.029647,-18.63279 9.165098,-34.04377 21.450928,-46.32925 7.778287,-7.77806 19.409961,-14.93982 31.958854,-19.677454 1.01534,-0.383333 1.1526,-0.7058 1.35114,-3.17446 0.12157,-1.511297 0.17461,-8.509991 0.11796,-15.552685 -0.0568,-7.042678 -0.12763,-15.946501 -0.15749,-19.786272 l -0.0543,-6.981387 -2.38007,-1.63921 c -9.86627,-6.795168 -10.150811,-16.60799 -0.68707,-23.695307 7.68837,-5.757778 20.55366,-9.933338 36.96144,-11.996206 8.2805,-1.04108 25.89502,-1.030204 33.81966,0.02083 12.80721,1.698681 23.16368,4.588389 31.03556,8.659708 7.44422,3.85014 12.37081,9.732321 12.37081,14.770321 0,4.234587 -2.70769,8.650964 -7.40541,12.078529 l -3.02609,2.207893 0.1155,11.550647 0.11549,11.550631 5.4258,0.489361 c 5.42225,0.489034 5.42652,0.488689 6.5347,-0.540448 0.79237,-0.735839 1.6168,-1.029794 2.88811,-1.029794 2.92372,0 15.04792,2.194736 15.78706,2.857784 0.3769,0.338102 0.98284,0.614732 1.34652,0.614732 3.04546,0 17.85729,5.041758 24.28018,8.264663 16.31576,8.186998 30.87804,20.654854 41.56037,35.583014 11.01894,15.39856 20.22381,36.23421 26.74953,60.54892 4.21918,15.7206 6.97573,29.01324 13.45615,64.88828 6.20336,34.34125 11.50413,60.8581 16.26938,81.38697 3.89744,16.79017 4.41622,19.63767 3.91609,21.49496 -0.89502,3.32388 -6.8631,6.9419 -11.43753,6.9338 -3.12281,-0.005 -6.87032,-1.9426 -7.38009,-3.81471 -0.1109,-0.4073 -1.38944,-5.91676 -2.84115,-12.24324 -5.56352,-24.24524 -12.35578,-58.291 -18.05556,-90.50225 -9.34893,-52.83356 -15.48935,-76.57226 -25.15949,-97.26579 -6.95484,-14.88296 -18.09073,-29.45329 -29.31566,-38.357 -10.86591,-8.61893 -27.54082,-16.4629 -35.59324,-16.743255 -1.7905,-0.06234 -6.38073,-0.62666 -10.20049,-1.254041 -6.79541,-1.116103 -6.97395,-1.17308 -8.28746,-2.644741 -1.32052,-1.479486 -1.41449,-1.508786 -5.75135,-1.792996 l -4.40891,-0.288935 v 4.819642 4.819646 l 1.95955,0.86679 c 3.02836,1.3396 10.064,5.5711 13.61664,8.18957 12.74717,9.3953 22.47733,24.13985 26.53633,40.2117 2.79304,11.05919 2.69156,7.66447 2.6871,89.89001 -0.005,83.85503 0.27715,76.73908 -3.33378,84.20837 -3.45562,7.14804 -9.12894,13.34346 -16.25466,17.75048 l -3.72501,2.30381 -0.21703,10.15682 c -0.24331,11.38666 -0.18837,11.16272 -3.69708,15.06526 -2.08754,2.32183 -7.36293,6.05813 -11.42609,8.0925 -10.89641,5.45572 -28.84963,10.03965 -44.99468,11.48832 -5.42606,0.48687 -20.72247,0.87286 -24.95867,0.6298 z m 27.7801,-4.28016 c 18.26548,-2.3822 30.38918,-5.73686 41.67648,-11.53199 4.7953,-2.462 8.73906,-5.49268 10.61137,-8.15457 l 1.31902,-1.87525 0.13338,-8.8624 c 0.0733,-4.87431 0.072,-8.86238 -0.003,-8.86238 -0.075,0 -2.5766,1.09256 -5.55913,2.42794 -22.63497,10.13432 -51.49428,15.21945 -77.47738,13.65184 -22.47065,-1.35571 -42.93665,-6.35557 -60.227259,-14.71356 l -5.969278,-2.88544 -0.04348,3.47249 c -0.02395,1.90989 -0.118284,5.81647 -0.209811,8.68129 -0.09794,3.06898 0.02822,5.80358 0.307375,6.6567 2.710773,8.28604 27.337703,18.2296 53.379923,21.5531 2.96091,0.37787 7.23908,0.86156 9.50707,1.07488 6.23149,0.58609 26.18294,0.19837 32.55478,-0.63265 z m -34.29106,-3.51824 c -8.09417,-0.76986 -17.86313,-2.41422 -25.69987,-4.32595 -16.53395,-4.03332 -29.275326,-10.03953 -31.846898,-15.01243 -0.711427,-1.37574 -0.893889,-11.86746 -0.213698,-12.28783 0.745353,-0.46067 0.92885,0.57134 1.05701,5.9449 0.148798,6.23757 0.417013,6.85496 4.016081,9.24389 7.49201,4.9729 20.497655,9.44122 36.495945,12.5388 7.97748,1.5446 15.44444,2.39638 26.24673,2.99409 5.70538,0.31567 9.21929,0.67902 9.15307,0.94643 -0.16489,0.66597 -12.03828,0.64006 -19.20837,-0.0418 z m 23.43945,0.27936 c -1.06454,-0.74308 0.27614,-1.30831 3.12135,-1.31596 2.2876,-0.007 3.49372,0.47763 2.58733,1.03782 -0.82007,0.50683 -5.08346,0.71454 -5.70868,0.27814 z m 23.81667,-2.65994 c -1.04628,-0.64664 0.11337,-1.15659 5.78696,-2.5447 11.01352,-2.69461 22.51019,-7.31966 27.80978,-11.18772 1.25445,-0.91559 2.34278,-1.40648 2.76179,-1.24569 1.00635,0.38617 0.14043,1.29648 -3.44404,3.62072 -5.95159,3.85912 -15.83187,7.71549 -26.43292,10.31705 -6.06121,1.48746 -5.82062,1.44884 -6.48157,1.04034 z m 4.1626,-6.5047 c -0.41842,-0.67703 -0.32186,-0.7197 4.38594,-1.93804 2.37225,-0.61391 6.04483,-1.70869 8.1613,-2.43281 2.85314,-0.97618 3.97452,-1.1902 4.337,-0.82771 0.36248,0.36248 0.32149,0.59655 -0.15848,0.90525 -1.46099,0.93953 -14.34702,4.75626 -16.05805,4.75626 -0.20983,0 -0.51027,-0.20834 -0.66763,-0.46295 z m -8.66228,-3.44179 c -0.3924,-0.63491 1.13809,-1.12713 6.81815,-2.19275 4.88813,-0.91706 7.08026,-0.90045 6.13336,0.0464 -0.47741,0.4774 -9.95124,2.57852 -11.62645,2.57852 -0.58187,0 -1.17815,-0.19448 -1.32506,-0.43222 z m -40.36908,-2.1916 c -12.03112,-0.77654 -27.08741,-3.62491 -38.19761,-7.22628 -9.380078,-3.04054 -17.145536,-6.38709 -17.145536,-7.38893 0,-0.77104 0.603183,-0.59629 6.355941,1.84136 10.948315,4.63921 23.570935,7.9399 39.263925,10.26709 5.90393,0.87554 8.35814,0.99226 21.00894,0.99917 14.95756,0.008 16.75953,-0.136 30.5343,-2.44169 3.61533,-0.60515 5.50153,-0.75403 5.79795,-0.45762 0.29641,0.29642 0.15634,0.59082 -0.43068,0.90497 -1.2088,0.64692 -12.73578,2.53651 -18.75605,3.07463 -7.39988,0.66142 -21.51681,0.87359 -28.43118,0.4273 z m 68.37317,-0.47608 c 0.01,-0.70606 12.41934,-7.18863 12.87979,-6.7282 0.70955,0.70956 -0.83292,1.89163 -5.54829,4.25195 -5.56541,2.78581 -7.34405,3.38655 -7.3315,2.47625 z m -9.91834,-1.51753 c 0.11435,-0.59363 1.65015,-1.32266 6.00854,-2.85212 3.22023,-1.13005 8.24161,-3.2476 11.15862,-4.70566 4.90545,-2.45199 6.19903,-2.79854 6.19903,-1.6607 0,0.98598 -17.67988,8.76001 -22.06891,9.70392 -1.25965,0.27092 -1.43063,0.20694 -1.29728,-0.48544 z m -6.15015,-3.14256 c 0,-0.69895 1.05368,-1.18365 5.20876,-2.3961 5.61925,-1.63971 13.51156,-4.62388 19.02401,-7.1932 4.32057,-2.0138 5.28357,-2.24968 5.28357,-1.29419 0,1.10103 -13.8845,7.03717 -22.73358,9.71945 -5.18499,1.57165 -6.78276,1.84585 -6.78276,1.16404 z m -26.08379,-3.76155 c 13.81294,-1.21567 28.40923,-4.15051 39.53978,-7.95019 10.30407,-3.51753 20.57118,-8.16222 26.50458,-11.99028 5.89338,-3.80225 11.39699,-9.89974 14.17107,-15.70025 3.13461,-6.55435 2.90552,-2.02553 3.05411,-60.37705 0.0737,-28.94663 -0.0177,-52.62607 -0.2032,-52.62097 -0.18546,0.005 -0.89035,0.79103 -1.5664,1.74651 -2.92254,4.13046 -10.78814,9.82127 -19.17182,13.87093 -21.19092,10.2361 -52.53045,15.2933 -86.07228,13.88929 -15.43083,-0.6459 -27.23694,-2.09833 -38.72106,-4.76361 -21.344065,-4.95363 -35.693632,-11.72481 -44.676645,-21.08172 -1.938202,-2.01887 -3.57131,-3.67067 -3.629139,-3.67067 -0.331639,0 0.176245,103.82391 0.51689,105.66604 1.184826,6.40713 5.735187,14.01913 11.226817,18.7806 3.861623,3.34818 6.386915,5.01557 12.254495,8.09132 16.942252,8.881 40.421042,15.13921 61.854102,16.48705 6.23936,0.39235 18.2398,0.21081 24.9187,-0.377 z m 31.29255,-9.51843 c 0,-0.40476 0.91486,-0.90373 2.49588,-1.36127 2.05068,-0.59345 6.69995,-2.28283 10.63456,-3.86423 0.57008,-0.22912 0.75961,-0.0914 0.75961,0.55192 0,0.68137 -0.82361,1.17147 -4.01509,2.38927 -4.31539,1.64664 -8.378,2.92329 -9.30263,2.92329 -0.31477,0 -0.57233,-0.28754 -0.57233,-0.63898 z M 99.579851,341.92368 c -1.372736,-0.59862 -2.495877,-1.35658 -2.495877,-1.68433 0,-0.75185 0.332164,-0.7465 2.565223,0.0413 2.617703,0.92359 3.670763,1.73258 2.978563,2.28824 -0.39042,0.31341 -1.28277,0.12451 -3.047909,-0.64528 z m 98.718199,0.71441 c 0.10598,-0.33402 1.64575,-1.06336 3.42172,-1.62077 1.77599,-0.55741 4.56344,-1.50839 6.19435,-2.11327 1.98241,-0.73524 3.10956,-0.95549 3.40057,-0.66449 0.68613,0.68613 -1.15149,1.72047 -5.58463,3.14337 -5.17439,1.66082 -7.69585,2.08666 -7.43201,1.25516 z m 21.19191,-2.24336 c 0,-0.30299 1.12383,-1.16873 2.49741,-1.92385 1.37357,-0.75513 4.25053,-2.55817 6.39324,-4.00678 3.68881,-2.49384 4.9994,-3.09033 4.9994,-2.2754 0,1.21406 -11.57801,8.75694 -13.44155,8.75694 -0.24668,0 -0.4485,-0.24792 -0.4485,-0.55091 z M 90.884985,337.65671 c -2.185221,-1.36687 -3.245102,-2.78796 -2.079323,-2.78796 0.860931,0 5.673929,3.17273 5.673929,3.74027 0,0.95821 -0.937151,0.70993 -3.594606,-0.95231 z m 123.251535,-0.0389 c -0.62673,-0.62673 -0.19885,-1.06382 1.98945,-2.03228 6.17819,-2.7342 13.91239,-8.22299 20.19392,-14.33114 3.35792,-3.26525 4.58223,-4.21287 4.95776,-3.83734 0.37554,0.37554 -0.0825,1.115 -1.8547,2.99441 -6.19879,6.57367 -13.62715,12.13389 -21.5618,16.1393 -2.80864,1.4178 -3.24802,1.54368 -3.72463,1.06705 z m -7.89795,-2.33517 c -0.42897,-0.69409 0.0687,-1.0443 3.30199,-2.32301 3.34841,-1.32429 3.43845,-1.33619 3.43845,-0.45422 0,1.11201 -6.19266,3.66356 -6.74044,2.77723 z M 82.016073,330.85367 c -6.455424,-6.28834 -10.317802,-13.16332 -12.135784,-21.6015 -0.736495,-3.41848 -0.793422,-6.58433 -0.793422,-44.12296 0,-22.24212 0.146501,-40.58673 0.325535,-40.76581 0.179051,-0.17909 0.472054,-0.1792 0.651104,-2.8e-4 0.17905,0.17892 0.426873,19.01186 0.550702,41.85098 0.224609,41.42327 0.227578,41.53424 1.202774,44.99819 2.014865,7.15694 5.954447,13.42176 12.41166,19.73735 1.579527,1.54489 2.871859,2.96102 2.871859,3.14696 0,1.08585 -1.855633,-0.0978 -5.084428,-3.24293 z m 9.606982,1.65968 c -4.298536,-2.91464 -11.074591,-10.41466 -10.398156,-11.50914 0.51164,-0.82786 0.921582,-0.49929 3.522667,2.82333 1.413487,1.8056 4.181433,4.56042 6.151003,6.12183 1.96957,1.56142 3.581022,3.00252 3.581022,3.20245 0,0.89899 -0.878747,0.70259 -2.856536,-0.63847 z m 145.396705,-0.8733 c -0.17982,-0.46858 0.36613,-1.29799 1.66673,-2.53212 4.43257,-4.20607 8.06845,-10.65928 9.07086,-16.09955 0.2973,-1.61358 0.78366,-3.2638 1.0808,-3.66713 1.00446,-1.36356 1.2203,0.64011 0.45233,4.19964 -1.361,6.30847 -5.83982,13.9144 -10.25083,17.40798 -1.47324,1.16683 -1.7951,1.27696 -2.01989,0.69118 z m -22.08997,-0.24786 c -0.14896,-0.24096 0.35054,-0.77811 1.1099,-1.19366 8.21004,-4.49286 14.05922,-8.93994 21.17102,-16.09601 3.82515,-3.84897 5.92982,-5.67417 6.21461,-5.38937 0.89953,0.89953 -7.72456,9.83429 -14.43098,14.95078 -4.22159,3.22077 -12.12387,8.16058 -13.05977,8.16383 -0.40371,10e-4 -0.85585,-0.1946 -1.00478,-0.43557 z M 73.610766,328.68336 c -4.809438,-5.11317 -7.722557,-11.38459 -8.622648,-18.56298 -0.295415,-2.35598 -0.458929,-19.32286 -0.458929,-47.62037 0,-38.78649 0.07661,-43.96036 0.651103,-43.96036 0.358101,0 0.659356,0.34183 0.669446,0.75961 0.0098,0.4178 0.0694,20.78081 0.131736,45.25117 0.128128,50.27088 -0.0082,48.13388 3.524867,55.34312 1.188156,2.42461 2.912495,5.02593 4.545488,6.85726 1.447102,1.62288 2.631091,3.13667 2.631091,3.364 0,0.96361 -1.458716,0.28393 -3.072203,-1.43145 z m 140.032794,-2.47409 c -0.1401,-0.22676 0.19016,-0.64463 0.734,-0.92859 9.58797,-5.00627 18.83497,-12.22063 24.42825,-19.05854 4.56522,-5.58105 4.89018,-5.90429 5.41557,-5.38689 0.3517,0.34635 -0.0561,1.1902 -1.50936,3.12352 -5.90024,7.84904 -15.45598,16.04931 -24.56595,21.08131 -2.91707,1.61127 -4.04781,1.90489 -4.50251,1.16919 z m -126.047775,-4.905 c -3.474698,-4.64913 -6.069319,-11.38855 -7.083117,-18.39802 -0.383038,-2.64837 -0.559266,-9.66575 -0.565369,-22.5125 -0.0082,-16.30544 0.0735,-18.66474 0.642245,-18.66474 0.566008,0 0.682192,2.63779 0.88905,20.18396 0.2524,21.40997 0.343992,22.43449 2.605974,29.14909 1.195031,3.54739 2.281243,5.6536 4.611948,8.94279 1.751737,2.4721 2.059882,3.57825 0.996818,3.57825 -0.216914,0 -1.160808,-1.02548 -2.097549,-2.27883 z m 126.251355,-1.86933 c 0,-0.79668 4.37223,-2.88707 4.93222,-2.35814 0.56553,0.53416 -0.0333,1.21649 -1.90594,2.17187 -2.03155,1.03642 -3.02628,1.09764 -3.02628,0.18627 z M 77.969838,316.0955 c -1.163269,-1.88475 -2.89965,-7.63905 -3.438244,-11.39417 -0.549078,-3.82827 -0.576639,-19.31635 -0.03593,-20.17141 0.222099,-0.35118 0.560939,-0.48186 0.752966,-0.29039 0.192044,0.19147 0.465787,5.26436 0.608319,11.27309 0.273891,11.54552 0.552129,13.31372 2.946799,18.72725 0.504701,1.14097 0.917645,2.34266 0.917645,2.67041 0,1.04048 -0.850776,0.64471 -1.751588,-0.81478 z m 143.256392,-0.46373 c 0,-0.31473 1.92158,-1.87214 4.2702,-3.46091 4.85013,-3.28098 12.58893,-10.48118 16.13079,-15.00818 1.31305,-1.67824 2.63152,-3.06138 2.92993,-3.07363 1.34068,-0.0551 0.25389,1.88288 -3.3049,5.89332 -4.70651,5.30382 -9.73316,9.90855 -14.73229,13.49572 -3.69347,2.6503 -5.29373,3.30134 -5.29373,2.15368 z m -2.16028,-5.17909 c 0.01,-0.51026 7.38957,-5.58826 8.56271,-5.8917 1.0811,-0.27963 0.5091,1.20683 -0.86813,2.25601 -2.13294,1.62492 -6.49409,4.17825 -7.13652,4.17825 -0.31246,0 -0.56359,-0.24415 -0.55806,-0.54256 z m 30.03136,-8.41737 c 0.1068,-3.24812 0.24231,-3.8574 0.88564,-3.9804 0.64113,-0.12255 0.75572,0.18133 0.73461,1.94841 -0.0363,3.03226 -0.54524,5.46684 -1.18775,5.68102 -0.43332,0.14436 -0.53028,-0.67352 -0.4325,-3.64903 z M 229.706,303.6413 c -0.14388,-0.2327 1.81767,-2.531 4.35884,-5.10733 3.57922,-3.62874 8.18136,-8.8498 10.01102,-11.35734 0.0651,-0.0892 0.42815,-0.0433 0.80684,0.10204 0.50917,0.19539 0.58104,0.46379 0.27588,1.03027 -0.85457,1.58644 -9.14553,10.83717 -11.60467,12.94804 -3.12116,2.67915 -3.51489,2.92311 -3.84791,2.38429 z m -9.4791,-0.30101 c -0.63284,-0.63286 -0.19537,-1.0762 3.54081,-3.5884 5.79917,-3.89936 12.21289,-10.04941 17.58524,-16.86228 2.493,-3.16145 3.31273,-3.76196 3.31273,-2.42679 0,1.55854 -7.876,10.67592 -13.49035,15.6166 -2.93108,2.5794 -8.77284,6.84512 -10.04012,7.33142 -0.33298,0.1278 -0.74173,0.096 -0.90831,-0.0706 z m 1.70749,-7.84192 c -0.56251,-0.56252 -0.21491,-1.01388 2.09471,-2.72011 2.52139,-1.86265 3.27401,-2.12363 3.27401,-1.13533 0,1.0304 -4.769,4.45516 -5.36872,3.85544 z m 6.85872,-5.38546 c -0.17138,-0.27733 1.9106,-2.71497 4.91222,-5.75134 2.86533,-2.8985 6.43185,-6.89462 7.92558,-8.88027 1.89207,-2.51515 2.85375,-3.47238 3.17039,-3.15572 0.6513,0.6513 -0.17654,2.01293 -4.2036,6.91406 -3.58159,4.35895 -10.4287,11.35461 -11.1135,11.35461 -0.21647,0 -0.52746,-0.2166 -0.69109,-0.48134 z m 20.50258,-0.24209 c -0.15914,-0.15914 -0.28938,-13.63685 -0.28938,-29.9504 0,-29.37167 0.008,-29.66105 0.86813,-29.66105 0.85954,0 0.86812,0.28938 0.86812,29.26382 0,16.09508 -0.11861,29.57278 -0.26346,29.9504 -0.27965,0.72875 -0.70808,0.87255 -1.18341,0.39723 z m -27.79972,-1.75589 c -0.65883,-0.65885 -0.10795,-1.4118 2.11094,-2.88502 2.59486,-1.72291 3.26214,-1.91636 3.26214,-0.94576 0,0.71609 -4.95503,4.24881 -5.37308,3.83078 z m 6.48833,-5.28515 c -0.13091,-0.21196 2.06564,-2.70241 4.88143,-5.53432 2.81578,-2.83191 6.44356,-6.85805 8.06174,-8.94698 1.61816,-2.08894 3.12124,-3.79805 3.34017,-3.79805 1.86473,0 -2.87632,6.38524 -10.2328,13.78152 -4.67393,4.69923 -5.53189,5.33701 -6.05054,4.49783 z M 74.361484,277.68085 c -0.152243,-1.61146 -0.278107,-10.68271 -0.279797,-20.15835 -0.0033,-16.4644 0.144369,-18.57809 1.219459,-17.50438 0.410204,0.40965 0.663506,31.63665 0.296694,36.57758 -0.163891,2.20829 -0.44692,4.01508 -0.628858,4.01508 -0.181937,0 -0.455303,-1.31846 -0.607498,-2.92993 z m 146.864746,1.89002 c 0,-0.64063 3.82031,-3.30072 4.74035,-3.30072 0.93793,0 0.24929,1.03463 -1.66121,2.49586 -1.96409,1.50222 -3.07914,1.79368 -3.07914,0.80486 z m 6.07688,-4.00964 c 0,-0.15109 2.58811,-2.94926 5.75135,-6.218 3.16324,-3.26874 6.92333,-7.53122 8.35573,-9.47216 2.4756,-3.3545 3.68954,-4.32297 3.68954,-2.94347 0,0.3434 -1.21289,2.24785 -2.69532,4.23211 -4.90731,6.56852 -15.1013,16.29013 -15.1013,14.40152 z m -6.94501,-4.23757 c 0,-0.62653 3.81125,-3.30074 4.70418,-3.30074 1.22165,0 0.38129,1.23064 -1.87501,2.74584 -1.91978,1.28919 -2.82917,1.46756 -2.82917,0.5549 z m 7.16245,-4.60227 c -0.14732,-0.23839 2.23393,-2.93945 5.29166,-6.00237 3.05775,-3.06292 6.72894,-7.06743 8.15823,-8.89895 2.48734,-3.18732 3.69524,-4.06722 3.69524,-2.69184 0,1.5676 -15.12295,18.02658 -16.56331,18.02658 -0.17268,0 -0.4345,-0.19505 -0.58182,-0.43342 z m -6.86404,-2.4513 c -0.16412,-0.16412 -0.29841,-0.44574 -0.29841,-0.62581 0,-0.46055 4.87545,-3.86856 5.5343,-3.86856 1.18989,0 0.41573,1.1736 -1.86111,2.82141 -2.71905,1.96783 -2.96031,2.08743 -3.37478,1.67296 z m 6.95212,-5.50546 c -0.1214,-0.31637 1.97144,-2.72712 4.79756,-5.52638 2.75709,-2.73087 6.46936,-6.77202 8.24951,-8.98031 1.78013,-2.2083 3.41061,-4.01509 3.6233,-4.01509 1.8733,0 -3.05155,6.59561 -10.12991,13.56648 -5.12738,5.04951 -6.19415,5.85775 -6.54046,4.9553 z m -7.68459,-3.25597 c 0,-0.5516 3.73666,-3.11203 4.54168,-3.11203 0.99288,0 0.3561,1.01558 -1.49143,2.37864 -1.44812,1.06838 -3.05025,1.4536 -3.05025,0.73339 z M 79.991939,254.76684 c -0.148799,-0.38773 -0.270512,-2.61835 -0.270512,-4.95694 0,-3.23498 0.154541,-4.38022 0.645953,-4.78808 0.518645,-0.43045 0.692807,-0.41404 0.883636,0.0832 0.447298,1.16563 0.01313,10.03452 -0.499467,10.20452 -0.269002,0.0892 -0.610828,-0.15504 -0.75961,-0.54276 z m 146.709351,-3.59267 c -0.12042,-0.19488 2.37549,-2.97832 5.54651,-6.18541 3.17103,-3.20709 6.98327,-7.39371 8.47165,-9.30358 4.12132,-5.28848 3.97541,-5.13617 4.45826,-4.65333 0.61009,0.6101 0.0292,1.56569 -3.95807,6.51143 -3.47796,4.31397 -13.06073,13.98523 -13.85729,13.98523 -0.24313,0 -0.54061,-0.15946 -0.66106,-0.35434 z m -5.47485,-4.09481 c 1.3e-4,-0.29842 1.79718,-1.90766 3.99346,-3.57607 4.75443,-3.61174 11.3695,-10.19087 15.82574,-15.73978 2.91768,-3.63307 4.48815,-4.86553 4.48815,-3.52211 0,0.59101 -5.50689,7.42172 -8.75246,10.8565 -2.00014,2.11674 -7.7083,7.41549 -9.5685,8.88222 -4.6033,3.62959 -5.9869,4.34589 -5.98639,3.09924 z m -0.43429,-6.59998 c 0,-0.34737 1.61147,-1.84553 3.58104,-3.32923 1.96956,-1.48372 5.96744,-5.04095 8.88417,-7.90497 4.19827,-4.12239 5.362,-5.05401 5.58554,-4.47148 0.19831,0.51681 -0.41083,1.47509 -2.04635,3.21928 -5.04532,5.38056 -14.19952,13.118 -15.51997,13.118 -0.26643,0 -0.48443,-0.28423 -0.48443,-0.6316 z m -146.683049,-7.6923 c 0.01673,-1.74834 0.1906,-3.56946 0.386253,-4.04693 0.328144,-0.80074 0.394619,-0.76947 0.856321,0.40301 0.275318,0.6991 0.443327,2.4551 0.373358,3.90221 -0.101551,2.09986 -0.280585,2.66031 -0.886819,2.77578 -0.669626,0.12764 -0.756002,-0.2319 -0.729113,-3.03407 z m 147.293569,1.31321 c -0.18038,-0.29187 0.30546,-1.00482 1.16806,-1.71408 2.24761,-1.84802 3.36485,-2.3658 3.91588,-1.81477 0.33482,0.3348 -0.17328,0.97515 -1.78401,2.24837 -2.40838,1.90371 -2.8168,2.06219 -3.29993,1.28048 z m 27.90205,-8.02781 c -0.44902,-0.44904 -0.34568,-6.35187 0.12419,-7.09513 0.83707,-1.32401 1.35478,0.23695 1.22458,3.69225 -0.11713,3.10725 -0.55063,4.20104 -1.3488,3.40288 z m 114.07063,124.14808 c 0.54936,-0.21081 0.28541,-0.51869 -1.13761,-1.32698 l -1.85293,-1.05248 -0.77052,1.00143 c -0.42379,0.55078 -0.77487,1.14793 -0.78018,1.32698 -0.0115,0.39499 3.54086,0.43493 4.54124,0.051 z m -4.62082,-3.39544 c -0.0809,-0.0715 -1.00212,-0.56125 -2.04712,-1.08841 l -1.90003,-0.9585 0.30439,1.66474 c 0.16742,0.91561 0.60036,2.12396 0.96209,2.6852 l 0.6577,1.02044 1.08503,-1.59677 c 0.59677,-0.87824 1.01885,-1.65525 0.93794,-1.7267 z m 9.61933,-1.16906 c 0,-0.65419 -3.78391,-3.76055 -4.07038,-3.34154 -0.0566,0.0827 -0.72647,0.95978 -1.48873,1.94907 -0.76225,0.9893 -1.3859,1.91676 -1.3859,2.06101 0,0.14421 0.9277,0.83972 2.06158,1.54545 l 2.06159,1.28317 1.41091,-1.36752 c 0.77602,-0.75213 1.41093,-1.71048 1.41093,-2.12964 z m -6.9806,-2.1142 c 1.66771,-2.44686 1.71176,-2.33865 -1.75101,-4.30118 l -1.56956,-0.88956 -1.56717,2.36035 -1.56719,2.36035 2.26861,1.27599 c 1.24774,0.7018 2.36627,1.29736 2.48564,1.32344 0.11943,0.0261 0.88467,-0.93213 1.70068,-2.12939 z m 5.99661,-3.43708 -0.55405,-1.91366 -0.81171,1.23886 -0.81173,1.23885 1.25519,1.00166 c 1.50394,1.20015 1.65087,0.9507 0.9223,-1.56571 z m -11.33234,-2.89025 c -0.2687,-0.26161 -1.25645,-0.93425 -2.19498,-1.49475 -1.52987,-0.91365 -1.6743,-0.93539 -1.396,-0.21013 0.17074,0.44491 0.50424,1.70353 0.74114,2.79693 0.71866,3.31694 0.77446,3.35133 2.10257,1.29604 0.91112,-1.40998 1.10746,-2.03742 0.74727,-2.38809 z m 9.04521,0.80894 c 1.54375,-2.27183 1.425,-3.33717 -0.51919,-4.65828 -0.89098,-0.60544 -1.83844,-1.10081 -2.10544,-1.10081 -0.4112,0 -3.21959,4.00904 -3.21959,4.59607 0,0.26616 3.98823,2.78302 4.40996,2.78302 0.1834,0 0.82881,-0.729 1.43426,-1.62 z m -5.70151,-4.56542 1.53479,-2.27883 -0.94726,-0.73801 c -0.521,-0.40589 -1.66946,-1.14509 -2.55213,-1.64265 l -1.60487,-0.90465 -1.54209,2.41069 c -0.84817,1.32589 -1.54211,2.50421 -1.54211,2.6185 0,0.32722 4.06714,2.79636 4.62125,2.80554 0.2737,0.005 1.18829,-1.01722 2.03242,-2.27059 z m 5.89091,-2.38736 c -0.0238,-0.41778 -0.17528,-1.23173 -0.33661,-1.80877 l -0.29336,-1.04917 -0.78217,1.19375 c -0.75446,1.15146 -0.75407,1.21506 0.0115,1.79498 1.07055,0.8114 1.45272,0.77572 1.40107,-0.13075 z m -11.2663,-4.2468 c -0.1984,-0.24683 -1.18147,-0.91005 -2.18459,-1.47385 l -1.82387,-1.02507 0.24364,1.03977 c 0.13404,0.57188 0.47307,2.18183 0.75349,3.57764 l 0.50985,2.5379 1.43109,-2.10382 c 0.8373,-1.23088 1.28143,-2.29002 1.07039,-2.55257 z m 9.99571,-1.13091 c 0.0131,-1.2613 -0.90756,-2.51699 -2.63063,-3.58888 -1.29734,-0.80705 -1.56193,-0.61181 -3.58441,2.64509 l -1.12844,1.81719 2.4839,1.53386 2.4839,1.53385 1.18199,-1.39775 c 0.65011,-0.76877 1.18726,-1.91328 1.19369,-2.54336 z m -7.46685,-1.82182 c 0.46996,-0.79649 1.16639,-1.92425 1.54766,-2.50613 0.68663,-1.04793 0.6688,-1.07318 -1.88615,-2.67026 l -2.57933,-1.61233 -1.76347,2.65495 c -0.96991,1.46022 -1.70716,2.70273 -1.63834,2.7611 0.74396,0.63106 4.58425,2.80632 4.96549,2.81262 0.27484,0.005 0.88421,-0.64344 1.35414,-1.43995 z m 6.26891,-4.19464 c -0.21422,-1.4596 -0.71221,-1.66913 -1.33254,-0.56069 -0.3017,0.5391 -0.21872,0.89077 0.30398,1.2884 1.07506,0.81776 1.23844,0.70219 1.02856,-0.72771 z m -10.94603,-3.30631 c 0.002,-0.55387 -3.43797,-2.94795 -3.76544,-2.62049 -0.11828,0.11828 0.0115,1.35375 0.28675,2.74542 0.87731,4.42305 0.81987,4.3648 2.22102,2.25286 0.69069,-1.0411 1.25665,-2.1111 1.25767,-2.37779 z m 8.93566,0.72615 c 1.00158,-1.51348 1.07731,-1.87846 0.65306,-3.14697 -0.40607,-1.21411 -3.2946,-3.78778 -3.71578,-3.31074 -0.0677,0.0768 -0.82221,1.24034 -1.6765,2.58573 l -1.55328,2.44615 2.26038,1.54165 c 1.24319,0.84792 2.4041,1.55393 2.57975,1.56894 0.17568,0.0148 0.82924,-0.74313 1.45237,-1.68476 z m -6.17385,-4.5752 c 0.86938,-1.30938 1.57718,-2.53018 1.57288,-2.71291 -0.008,-0.3844 -4.1365,-3.15364 -4.70041,-3.15364 -0.20771,0 -1.08431,1.06431 -1.94801,2.36514 l -1.57036,2.36514 1.38107,0.99885 c 0.7596,0.54938 1.8781,1.32641 2.48556,1.72674 0.60747,0.40034 1.12565,0.74217 1.15154,0.75961 0.0259,0.0174 0.75836,-1.03957 1.62773,-2.34893 z m 5.64659,-3.6592 c -0.25307,-1.26533 -0.34684,-1.33772 -0.95065,-0.73393 -0.60379,0.6038 -0.59093,0.75711 0.13043,1.55418 1.00653,1.11221 1.17335,0.94538 0.82024,-0.82025 z m -11.8999,-1.09189 c 0.72767,-1.05763 1.32304,-2.02489 1.32304,-2.14945 0,-0.22985 -3.69942,-2.87258 -4.02115,-2.87258 -0.0963,0 0.12255,1.56262 0.48664,3.47251 0.36401,1.90987 0.7128,3.4725 0.77511,3.4725 0.0623,0 0.70867,-0.86533 1.43636,-1.92298 z m 9.97476,-1.07395 c 1.64727,-2.31337 1.01208,-4.57914 -1.76934,-6.3114 l -1.1478,-0.71484 -1.54847,2.47555 c -0.85166,1.36156 -1.43496,2.65924 -1.29622,2.88372 0.30173,0.48823 4.08848,2.92765 4.54462,2.92765 0.17574,0 0.72349,-0.5673 1.21721,-1.26068 z m -5.20333,-8.74417 c -0.58358,-0.44193 -1.77732,-1.2073 -2.65278,-1.7008 l -1.59174,-0.89727 -1.60211,2.63738 c -0.88116,1.45055 -1.53219,2.69468 -1.44671,2.76471 0.0855,0.0701 1.22029,0.83533 2.52181,1.70062 l 2.36642,1.57324 1.73307,-2.63717 1.73307,-2.63718 z m 4.91353,-0.3151 c -0.1752,-1.15067 -0.33085,-1.32669 -0.81667,-0.92349 -0.82003,0.68056 -0.75361,1.56508 0.15569,2.07398 0.94086,0.52654 0.9214,0.56041 0.66089,-1.15049 z m -11.82385,-0.98222 c 0.77181,-1.20274 1.32932,-2.23634 1.23893,-2.29687 -2.20676,-1.47783 -3.97097,-2.48894 -4.10643,-2.35348 -0.16507,0.16507 1.17067,6.83718 1.36878,6.83718 0.0525,0 0.72692,-0.98407 1.49872,-2.18683 z m 10.09455,-1.31833 c 1.24528,-2.14721 0.79392,-4.20673 -1.20572,-5.50166 -0.82949,-0.53715 -1.58091,-0.97665 -1.66983,-0.97665 -0.19806,0 -3.32301,4.67706 -3.32301,4.97352 0,0.38307 4.54057,3.27939 4.93499,3.14792 0.2118,-0.0705 0.7804,-0.81001 1.26357,-1.64313 z m -5.96073,-5.02088 c 0.86169,-1.34704 1.39546,-2.56784 1.18616,-2.7129 -0.20931,-0.14503 -1.28533,-0.89857 -2.39118,-1.67445 -1.10585,-0.7759 -2.1078,-1.41071 -2.22655,-1.41071 -0.11877,0 -0.94287,1.19672 -1.8314,2.65937 -1.29463,2.1312 -1.49484,2.72975 -1.00807,3.0138 0.33408,0.19495 1.29107,0.84426 2.12664,1.44295 0.83556,0.59869 1.75738,1.09809 2.04846,1.1098 0.29108,0.0115 1.23426,-1.08083 2.09594,-2.42786 z m 5.66847,-2.57808 c -0.14486,-0.37764 -0.26348,-0.96361 -0.26348,-1.30219 0,-0.84021 -0.71272,-0.77854 -1.04619,0.0906 -0.28418,0.74056 0.41461,1.89827 1.14579,1.89827 0.23505,0 0.30879,-0.30897 0.16389,-0.68659 z m -11.99535,-1.96506 c 0.75047,-1.21967 1.30439,-2.26387 1.2309,-2.32043 -0.85981,-0.66193 -3.6523,-2.40701 -3.85173,-2.40701 -0.14371,0 0.0367,1.56263 0.40068,3.47252 0.36399,1.90988 0.70544,3.47251 0.75874,3.47251 0.0533,0 0.71093,-0.99792 1.46141,-2.21759 z m 9.94829,-1.26352 c 1.25108,-2.22597 0.93238,-3.94388 -1.00589,-5.42227 -0.77883,-0.59404 -1.54655,-1.08009 -1.70604,-1.08009 -0.44279,0 -3.42416,4.81286 -3.15074,5.08628 0.44408,0.44408 4.38845,3.11287 4.63639,3.13702 0.13518,0.0131 0.68692,-0.76127 1.22628,-1.72094 z m -5.87399,-4.97646 c 0.86938,-1.30937 1.58069,-2.47614 1.58069,-2.59285 0,-0.25803 -4.43614,-3.27368 -4.81574,-3.27368 -0.33237,0 -3.57905,5.21117 -3.36702,5.40433 0.46818,0.42653 4.49172,2.84287 4.73377,2.84287 0.15815,0 0.99894,-1.0713 1.8683,-2.38067 z m 5.75074,-2.64657 c -0.14486,-0.37762 -0.26347,-1.08519 -0.26347,-1.57237 0,-0.73814 -0.10861,-0.7957 -0.65111,-0.3454 -0.78604,0.65235 -0.83164,1.38207 -0.13026,2.0835 0.74175,0.74175 1.35564,0.64436 1.04479,-0.16573 z m -11.87469,-2.07258 c 0.65652,-1.03924 1.19369,-2.00615 1.19369,-2.1487 0,-0.14256 -0.879,-0.86393 -1.9533,-1.60307 -1.0743,-0.73915 -1.95328,-1.12798 -1.95328,-0.86408 0,1.20924 1.02374,6.50682 1.25729,6.50614 0.14404,-4.3e-4 0.79908,-0.85106 1.4556,-1.89029 z m 9.76644,-0.92965 c 1.60824,-2.48283 1.30958,-4.30439 -0.99381,-6.06126 l -1.46098,-1.11435 -1.79569,2.64426 c -0.98761,1.45434 -1.68672,2.75322 -1.55354,2.8864 0.4211,0.42111 4.3835,3.11479 4.61034,3.13418 0.11943,0.01 0.65653,-0.65995 1.19368,-1.48923 z m -5.56978,-5.42489 1.72882,-2.60279 -2.56436,-1.74141 -2.56433,-1.74141 -1.79374,2.64139 c -0.98655,1.45276 -1.68477,2.75034 -1.55159,2.88352 0.52135,0.52136 4.41113,3.117 4.70485,3.13955 0.17134,0.0131 1.0895,-1.14734 2.04035,-2.57885 z m 5.67237,-2.49749 c -0.003,-0.17905 -0.12485,-0.76958 -0.2703,-1.31229 -0.24704,-0.92201 -0.30126,-0.93634 -0.82632,-0.21826 -0.3946,0.53964 -0.42752,0.93042 -0.11057,1.31229 0.4974,0.59933 1.21652,0.72935 1.20722,0.21826 z m -10.68985,-4.53456 c -0.0981,-0.16635 -1.05238,-0.89223 -2.12045,-1.61306 -2.22953,-1.50469 -2.29291,-1.39098 -1.47918,2.65375 0.74626,3.70931 0.75292,3.71333 2.32469,1.40051 0.79939,-1.17631 1.37311,-2.27486 1.27494,-2.4412 z m 8.83965,1.26584 c 1.34192,-1.97131 0.95398,-4.30362 -0.95847,-5.76233 -0.76502,-0.58351 -1.5007,-1.06093 -1.63481,-1.06093 -0.28539,0 -3.3142,4.14964 -3.47288,4.75806 -0.11336,0.4347 3.91881,3.42617 4.66681,3.46228 0.23873,0.0115 0.86844,-0.61718 1.39935,-1.39708 z m -6.49052,-4.36487 c 0.46995,-0.7965 1.18612,-1.95437 1.5915,-2.57304 l 0.73704,-1.12488 -2.30244,-1.55056 c -1.26633,-0.85279 -2.44635,-1.55054 -2.62225,-1.55054 -0.41109,0 -3.38581,4.40462 -3.36732,4.98593 0.0166,0.51991 3.88508,3.25485 4.60932,3.25865 0.27484,10e-4 0.88421,-0.64905 1.35415,-1.44556 z m 6.26891,-4.19464 c -0.20898,-1.42388 -0.83014,-1.71347 -1.2619,-0.58833 -0.16771,0.43706 0.0381,0.94199 0.53065,1.30219 0.44253,0.32358 0.83109,0.58834 0.86348,0.58834 0.0325,0 -0.0271,-0.58599 -0.13223,-1.3022 z m -11.83671,-1.5504 c 0.73661,-1.09145 1.22236,-2.17367 1.07943,-2.40493 -0.25021,-0.40487 -3.46101,-2.55562 -3.81519,-2.55562 -0.0951,0 -0.0148,0.83013 0.17987,1.84477 0.19411,1.01462 0.47227,2.57725 0.61815,3.4725 0.14584,0.89527 0.3402,1.62774 0.43184,1.62774 0.0917,0 0.76929,-0.893 1.5059,-1.98446 z m 9.90426,-0.84373 c 1.39604,-2.1551 0.97994,-4.64082 -0.97954,-5.85184 -0.77367,-0.47816 -1.52811,-0.86937 -1.67655,-0.86937 -0.46268,0 -3.4638,4.77278 -3.17974,5.05684 0.4406,0.4406 4.40201,3.14099 4.63724,3.16109 0.11944,0.01 0.65874,-0.66333 1.19859,-1.49672 z m -5.86477,-5.16988 c 0.89527,-1.28972 1.62774,-2.54029 1.62774,-2.77904 0,-0.42442 -4.0418,-3.11512 -4.67271,-3.11069 -0.37616,0.003 -3.23724,4.38483 -3.21716,4.92759 0.0131,0.34039 3.91423,3.24479 4.41736,3.28832 0.11943,0.01 0.94952,-1.03646 1.84477,-2.32618 z m 5.62691,-3.72165 c -0.2273,-1.5486 -0.34096,-1.59209 -0.99027,-0.37885 -0.38543,0.72018 -0.36491,1.00521 0.0932,1.29553 0.9539,0.60446 1.09858,0.45661 0.89703,-0.91668 z m -11.45861,-1.36585 1.36253,-2.01694 -2.03737,-1.32529 c -1.12055,-0.72892 -2.10976,-1.25293 -2.19823,-1.16446 -0.0884,0.0884 0.065,1.29949 0.34102,2.69116 0.58384,2.94355 0.91226,4.17185 1.06247,3.9737 0.0589,-0.0776 0.72021,-1.04885 1.46958,-2.15817 z m 9.63453,-0.91298 c 0.87407,-1.4336 1.10904,-3.21638 0.53116,-4.03006 -0.44315,-0.62397 -2.75535,-2.37239 -3.1374,-2.37239 -0.17274,0 -1.02436,1.0698 -1.89251,2.37733 l -1.57846,2.37731 2.27082,1.52926 c 1.24894,0.84108 2.42279,1.52925 2.60853,1.52925 0.18575,0 0.72478,-0.63482 1.19786,-1.4107 z m -5.85923,-4.86236 c 0.83259,-1.30159 1.51382,-2.52415 1.51382,-2.71681 0,-0.19267 -1.02222,-0.96585 -2.27161,-1.71817 l -2.27162,-1.36788 -1.62095,2.2399 c -0.89152,1.23196 -1.62727,2.35871 -1.63496,2.50391 -0.0131,0.23577 4.3052,3.42553 4.63684,3.42553 0.074,0 0.81586,-1.06492 1.64848,-2.36648 z m -158.22166,-2.61416 c 17.00655,-1.69659 34.7848,-5.88438 46.87888,-11.04265 11.95707,-5.09984 21.02074,-12.17854 24.41356,-19.06691 l 1.41324,-2.86928 0.13863,-15.20277 c 0.0768,-8.42473 -0.0735,-18.0089 -0.33732,-21.49672 -1.99718,-26.40889 -15.53959,-47.75361 -37.59006,-59.2471 -3.31694,-1.72892 -3.66438,-1.80479 -3.66438,-0.80035 0,2.71192 -5.08042,7.30893 -10.7513,9.72827 -3.77654,1.61119 -6.09273,1.65024 -7.89572,0.13305 -2.39055,-2.01152 -2.6221,-2.92496 -2.6221,-10.34428 v -6.749544 l -2.27882,0.0014 -2.27885,0.0014 -0.0208,1.728204 c -0.0686,5.66178 -12.00964,9.63048 -27.06494,8.99521 -10.49556,-0.44287 -19.49227,-3.58797 -21.08254,-7.3701 l -0.54309,-1.29166 -0.29051,1.15744 c -0.68903,2.74539 3.28,6.06141 9.33214,7.79674 5.30598,1.52141 11.65471,2.15742 18.8197,1.88536 12.40404,-0.47097 19.84073,-3.41788 21.17033,-8.38911 0.61608,-2.30346 1.19905,-2.05975 1.19905,0.50125 0,4.59776 -6.09112,7.99343 -16.74365,9.33428 -5.94211,0.74794 -18.01284,0.30371 -22.53914,-0.82948 -8.32858,-2.08515 -12.37894,-5.1647 -12.35965,-9.39729 0.0148,-3.21149 1.61096,-5.597919 5.70935,-8.535187 1.73114,-1.240703 0.52473,-1.656486 -3.01653,-1.039669 -1.73574,0.302338 -3.29837,0.692856 -3.47251,0.867821 -0.36115,0.362842 -0.34412,-0.04249 -0.45225,10.767585 l -0.0814,8.13746 -1.52392,1.68679 c -2.38415,2.63896 -3.50651,2.92691 -7.12475,1.8279 -1.66912,-0.50698 -4.31973,-1.59155 -5.89025,-2.41015 -6.22171,-3.24297 -8.6154,-6.27679 -8.74015,-11.07738 -0.0405,-1.55625 -0.093,-2.86842 -0.11697,-2.91591 -0.024,-0.0476 -0.77592,0.21242 -1.67117,0.57759 -23.053865,9.40375 -37.191193,22.74733 -44.778191,42.26405 -4.610685,11.86048 -5.265135,16.91582 -5.325475,41.13614 l -0.04577,18.34778 1.621034,3.27993 c 7.6214,15.42085 39.368802,27.75346 78.587282,30.52803 8.40553,0.59467 32.55015,0.23668 41.01902,-0.60817 z m 46.29732,-14.31053 c -0.14617,-0.38106 0.61236,-1.26493 2.01841,-2.35178 2.46315,-1.90395 11.33851,-10.83466 13.8638,-13.95027 1.25455,-1.54782 1.69432,-1.8423 2.11855,-1.41856 0.57703,0.57636 -0.13403,1.62279 -4.5953,6.76204 -2.32535,2.6788 -10.68302,10.23748 -12.24234,11.072 -0.73649,0.39416 -0.97736,0.37067 -1.16312,-0.11336 z m -7.45964,-1.12767 c -0.42005,-0.67964 0.34947,-1.40369 4.12879,-3.88488 2.02625,-1.33028 3.64736,-2.12095 3.95664,-1.9298 0.32519,0.20098 0.41106,0.14108 0.22635,-0.15766 -0.17259,-0.27924 1.88779,-2.60374 4.90405,-5.53274 2.86092,-2.77814 6.41838,-6.59586 7.90546,-8.4838 1.48708,-1.88795 2.86366,-3.43263 3.05906,-3.43263 2.00111,0 -4.05292,8.07349 -10.11832,13.49356 -7.66079,6.84568 -13.44369,10.92853 -14.06203,9.92804 z m -0.206,-7.52541 c 0,-0.53319 4.15087,-3.7424 4.84054,-3.7424 0.15142,0 0.38184,0.27752 0.512,0.6167 0.15241,0.3972 -0.56629,1.16972 -2.01913,2.17033 -2.40328,1.6552 -3.33341,1.92178 -3.33341,0.95537 z m -145.991792,-3.5007 c -0.376082,-2.74389 0.15979,-8.99066 0.754376,-8.79336 0.302749,0.10056 0.521681,2.08866 0.599017,5.44016 0.09893,4.28688 0.0082,5.28182 -0.483587,5.28182 -0.387384,0 -0.700665,-0.69462 -0.869806,-1.92862 z m -4.961764,-11.41884 c 0.0735,-6.50573 0.276516,-10.30903 0.550439,-10.30903 0.273924,0 0.477008,3.8033 0.55044,10.30903 0.102042,9.03265 0.03379,10.30901 -0.55044,10.30901 -0.584251,0 -0.6524,-1.27636 -0.550439,-10.30901 z m 158.535266,9.85165 c -0.15552,-0.25156 2.13322,-2.93733 5.08597,-5.96837 2.95276,-3.03106 6.89779,-7.41438 8.76671,-9.74069 3.13781,-3.90572 4.17538,-4.68904 4.17538,-3.15223 0,1.05729 -5.18072,7.22007 -11.22285,13.35027 -3.23546,3.28261 -6.02662,5.96838 -6.2026,5.96838 -0.17597,0 -0.44713,-0.20581 -0.60261,-0.45736 z m -7.30115,-1.05279 c -0.16061,-0.4187 0.58777,-1.27404 2.18186,-2.49352 7.0675,-5.4066 13.78184,-12.34938 18.9154,-19.55895 3.16349,-4.44276 3.66207,-4.96096 4.2283,-4.39472 1.31982,1.31981 -11.28064,16.28073 -19.3422,22.9656 -4.1994,3.48226 -5.65751,4.33071 -5.98336,3.48159 z M 64.818566,201.32178 c -0.434813,-0.43481 -0.335215,-35.42751 0.102863,-36.11907 0.2084,-0.329 0.601264,-0.46077 0.873038,-0.29279 0.357199,0.22075 0.482439,5.07764 0.451924,17.52667 -0.04626,18.89008 -0.143056,20.1699 -1.427759,18.88519 z m 184.567124,-4.1236 c -0.03,-0.31832 -0.0828,-8.29422 -0.1173,-17.72427 -0.0577,-15.78947 -0.14208,-17.60332 -1.06595,-22.93373 -0.55181,-3.1835 -0.90266,-5.88884 -0.77965,-6.01183 0.91579,-0.91581 2.08167,3.33922 2.87642,10.49785 0.68518,6.1718 0.42448,36.32324 -0.3162,36.57 -0.29841,0.0994 -0.56719,-0.0797 -0.59726,-0.39802 z m -28.30416,-0.21703 c -0.59252,-0.59252 -0.21092,-1.03404 3.07462,-3.55753 5.64325,-4.3343 11.73212,-11.00537 17.1902,-18.83388 2.8567,-4.09735 3.75338,-4.95041 3.75338,-3.57077 0,1.48418 -7.18402,11.25832 -11.92676,16.22681 -3.42594,3.58901 -10.78104,10.02475 -11.45682,10.02475 -0.18988,0 -0.47545,-0.13026 -0.63462,-0.28938 z M 74.729543,195.96811 c -0.505012,-0.81715 -0.754524,-9.69121 -0.291412,-10.3644 0.95669,-1.39063 1.376574,0.0976 1.370078,4.85594 -0.0066,4.74719 -0.377673,6.64269 -1.078666,5.50846 z m 146.504067,-6.61925 c 0.003,-0.29842 1.28823,-1.61688 2.85372,-2.92992 5.46621,-4.58478 13.90487,-14.61736 18.03812,-21.44524 0.84497,-1.39581 1.76785,-2.40882 2.20106,-2.41596 0.88499,-0.0148 0.69261,0.68744 -0.88876,3.24317 -4.47494,7.23221 -11.6591,15.82724 -17.61106,21.06967 -3.31256,2.91768 -4.60858,3.61697 -4.59308,2.47828 z M 74.705476,182.03913 c -0.540169,-0.87404 -0.18955,-15.18057 0.481569,-19.64873 0.839374,-5.58852 2.145929,-10.87821 3.525539,-14.27345 1.914266,-4.71104 4.034423,-8.5769 4.703835,-8.5769 0.946995,0 0.82351,0.49276 -1.059127,4.2264 -4.354003,8.63484 -6.542439,19.9381 -6.542439,33.7916 0,4.14513 -0.376672,5.66661 -1.109377,4.48108 z m 145.896094,0.082 c -0.31464,-0.5091 4.48298,-4.89855 5.00288,-4.57724 0.8054,0.49777 0.34338,1.32433 -1.7461,3.12374 -2.17103,1.86964 -2.82046,2.15948 -3.25678,1.4535 z M 69.161364,179.72864 c -0.421229,-1.09772 0.514626,-17.29386 1.231156,-21.30676 3.137448,-17.57079 11.01156,-30.84068 24.424813,-41.16194 1.449119,-1.11507 2.942599,-2.0274 3.318828,-2.0274 1.333887,0 0.63314,1.10798 -1.784383,2.82141 -6.434787,4.56068 -14.918004,14.63168 -18.767241,22.27985 -1.885507,3.74638 -4.139467,10.66112 -5.228977,16.0416 -0.899845,4.44384 -1.723503,14.19341 -1.740532,20.60271 -0.0066,2.58173 -0.149618,3.364 -0.6136,3.364 -0.332558,0 -0.710591,-0.27606 -0.840064,-0.61347 z m 158.828086,-3.67016 c -0.40751,-0.65937 0.25518,-1.72739 2.30307,-3.7118 1.51912,-1.47201 1.79559,-1.59818 2.04987,-0.93551 0.21401,0.5577 -0.29804,1.35797 -1.88329,2.9432 -1.32531,1.32531 -2.29166,1.99211 -2.46965,1.70411 z m -6.76322,-1.52096 c 0,-0.3277 0.9278,-1.43499 2.0618,-2.46067 3.06692,-2.77398 8.47187,-8.87393 11.16216,-12.59747 2.23228,-3.08959 7.41209,-11.31204 7.73342,-12.27604 0.0807,-0.24218 0.49151,-0.30803 0.91286,-0.14634 0.6953,0.26682 0.6375,0.52476 -0.62528,2.791 -2.20591,3.95875 -5.69246,9.225 -6.10745,9.225 -0.20865,0 -0.37935,0.25409 -0.37935,0.56463 0,0.81203 -7.64694,10.0533 -10.75709,12.99987 -2.56389,2.42904 -4.00107,3.11153 -4.00107,1.90004 z m 11.49692,-3.75415 c -0.16506,-0.26706 0.49548,-1.59501 1.46784,-2.95101 0.97235,-1.356 3.47192,-5.00473 5.55458,-8.10829 4.6055,-6.86307 4.3725,-6.58107 4.95569,-5.9979 0.58881,0.58883 -2.25742,5.39789 -7.04658,11.906 -3.81049,5.17819 -4.48161,5.8792 -4.93153,5.1512 z m -12.1759,-2.64016 c -0.16686,-0.26999 1.11304,-1.92796 2.93197,-3.79805 5.37346,-5.52456 11.06813,-13.50402 15.30175,-21.44105 1.36893,-2.5664 2.76466,-4.66618 3.10167,-4.66618 0.98203,0 0.74504,0.76456 -1.60343,5.17265 -4.35716,8.17839 -9.40633,15.26843 -15.55891,21.84781 -3.20138,3.42346 -3.64894,3.73286 -4.17305,2.88482 z m -0.18915,-7.77642 c 0,-0.24332 1.39337,-2.05012 3.09637,-4.01508 3.0074,-3.47 12.09587,-16.72559 12.09587,-17.64189 0,-0.2505 0.6279,-1.7288 1.39535,-3.2851 1.30379,-2.64394 2.51122,-3.68546 2.51122,-2.16616 0,1.02564 -2.56183,5.85839 -3.24435,6.12031 -0.33408,0.12813 -0.50493,0.50014 -0.37969,0.82654 0.28607,0.74544 -3.7236,7.59865 -7.11378,12.1587 -4.63565,6.23531 -8.36099,9.80101 -8.36099,8.00268 z m -154.379365,-0.7693 c -1.027776,-0.63651 1.387303,-11.71568 3.986207,-18.28675 5.846105,-14.78126 16.023951,-26.0068 31.025608,-34.21939 4.62719,-2.53314 5.64331,-2.88261 5.64097,-1.94006 -0.001,0.49405 -1.12431,1.32513 -3.30057,2.44241 -13.181607,6.76734 -24.236691,17.74624 -29.982279,29.77567 -2.191078,4.58742 -4.791179,12.75362 -5.63892,17.71029 -0.770799,4.50674 -0.95838,4.99631 -1.731016,4.51783 z m 150.649315,-4.49664 c -0.18448,-0.29849 0.59022,-1.27415 1.92457,-2.42377 4.54017,-3.91157 11.24279,-14.44283 15.19852,-23.88004 0.53844,-1.28459 1.23401,-2.27884 1.59422,-2.27884 0.84279,0 0.80909,0.40284 -0.26194,3.13089 -3.22932,8.22539 -8.9954,17.59775 -13.89627,22.58739 -3.31172,3.3717 -3.98438,3.79431 -4.5591,2.86437 z m -1.04466,-6.78727 c 0,-1.02297 4.1393,-5.10977 4.53195,-4.47445 0.34915,0.56494 0.1278,0.97449 -1.84065,3.40561 -1.56619,1.93434 -2.6913,2.38117 -2.6913,1.06884 z m -3.4725,-5.11518 c 0,-0.1365 1.11326,-1.60153 2.47391,-3.25548 2.33298,-2.83588 3.60297,-3.70239 3.60297,-2.45834 0,1.01055 -4.34227,5.96211 -5.22847,5.96211 -0.46662,0 -0.84841,-0.11172 -0.84841,-0.24829 z m 8.49432,-0.13716 c -0.20869,-0.33767 0.60194,-1.95437 2.13519,-4.25834 2.38023,-3.57666 6.18491,-10.89818 7.70283,-14.8229 0.76167,-1.96934 1.97335,-2.33682 1.70723,-0.51777 -0.68539,4.68511 -10.48312,21.31758 -11.54525,19.59901 z m -11.69637,-4.18955 c -0.15865,-0.41345 0.37737,-1.36543 1.4053,-2.49588 3.92444,-4.31576 8.35669,-11.53117 10.96017,-17.84242 1.51143,-3.66397 2.90551,-5.23182 2.676,-3.00957 -0.19265,1.86526 -4.23367,10.34705 -6.76997,14.20961 -2.67519,4.07408 -7.18446,9.80664 -7.71396,9.80664 -0.16558,0 -0.41647,-0.30078 -0.55754,-0.66838 z M 85.79831,135.6959 c 0,-2.61951 13.226737,-16.20689 15.07815,-15.48928 0.66077,0.25611 0.55787,0.47636 -0.75405,1.61397 -3.598423,3.12035 -9.917813,9.60332 -11.719717,12.02306 -2.06779,2.77682 -2.604383,3.15845 -2.604383,1.85225 z m 133.44304,-1.07335 c -0.15585,-0.40638 0.36124,-1.73787 1.24528,-3.20604 1.99449,-3.31231 4.27134,-7.94285 5.55663,-11.30081 0.94879,-2.47874 1.55304,-3.14315 2.23675,-2.45943 0.45739,0.45738 -1.31984,4.87548 -4.25584,10.57988 -3.07705,5.9784 -4.30843,7.62264 -4.78282,6.3864 z m -14.07549,-0.84169 c 0,-0.30273 1.12314,-1.7651 2.49587,-3.24971 1.37272,-1.48462 2.8706,-3.33671 3.32861,-4.11576 3.60274,-6.12813 4.74186,-8.295 5.75953,-10.95588 1.38572,-3.62325 1.84658,-4.33263 2.43349,-3.7457 0.57406,0.57406 -0.59977,4.14345 -2.78101,8.45649 -2.00448,3.96354 -5.00404,8.51816 -5.60983,8.51816 -0.22984,0 -0.4179,0.27188 -0.4179,0.60415 0,0.33228 -0.89707,1.60193 -1.9935,2.82142 -1.92506,2.14112 -3.21526,2.80999 -3.21526,1.66683 z m -4.34064,-4.34209 c 0,-0.30355 1.15597,-1.66803 2.5688,-3.03221 1.41285,-1.36415 3.58318,-3.9969 4.82296,-5.85053 2.20112,-3.29094 3.38647,-4.24748 3.10063,-2.50213 -0.23665,1.44515 -3.60349,6.3052 -6.37689,9.20511 -2.45013,2.5619 -4.1155,3.44394 -4.1155,2.17976 z m -4.75826,-4.33133 c 0.01,-0.29842 0.89062,-1.22623 1.95908,-2.0618 1.06845,-0.83557 2.9655,-2.77059 4.21569,-4.30003 4.38581,-5.36555 4.12905,-5.11886 4.45506,-4.28033 0.39702,1.02115 -2.87379,5.55045 -6.29668,8.71945 -2.50482,2.31902 -4.37023,3.14675 -4.33315,1.92271 z m -7.17005,-2.91628 c -0.21027,-0.34022 2.47481,-2.3032 7.91763,-5.78836 0.34416,-0.22038 0.64905,-0.0842 0.82226,0.36714 0.34716,0.90467 -1.24319,2.24165 -5.12226,4.30621 -3.18741,1.69644 -3.24695,1.71479 -3.61763,1.11501 z m -26.87072,-0.36734 c -0.4761,-0.77036 0.642,-1.10626 4.32587,-1.29962 2.4386,-0.12796 3.63874,-0.0258 3.85773,0.32857 0.17486,0.2829 0.19548,0.6368 0.0458,0.78642 -0.49827,0.49829 -7.93252,0.66507 -8.22944,0.18463 z m 9.13455,-0.70848 c -0.17345,-0.45203 0.0528,-0.721 0.70605,-0.83922 0.52873,-0.0957 2.91461,-0.60179 5.30197,-1.12465 5.59491,-1.22535 5.5832,-1.22458 5.75849,-0.37971 0.1196,0.57677 -0.60224,0.88894 -3.67291,1.58824 -6.02766,1.37272 -7.79344,1.53751 -8.0936,0.75534 z m 13.17006,-2.95521 c 0,-0.75361 8.1267,-4.77599 8.48336,-4.19891 0.43339,0.70124 -0.46882,1.47657 -3.3818,2.90618 -3.3158,1.62729 -5.10156,2.0798 -5.10156,1.29273 z m -24.49012,-0.73077 c -2.52813,-0.15897 -3.9343,-0.43191 -4.05128,-0.78617 -0.13682,-0.41429 1.08659,-0.54342 5.1743,-0.54614 9.56026,-0.007 18.09083,-1.43003 23.7527,-3.96411 3.20156,-1.43293 3.52097,-1.48398 3.52097,-0.56278 0,0.41293 -1.08288,1.16933 -2.76763,1.93323 -6.57569,2.98157 -16.49271,4.50069 -25.62906,3.92597 z m -10.45202,-0.66392 c -0.23873,-0.0741 -1.5572,-0.36569 -2.92992,-0.64795 -1.63394,-0.33597 -2.49587,-0.72729 -2.49587,-1.13317 0,-0.77244 0.7036,-0.77449 4.69327,-0.0131 3.41923,0.65207 3.79439,0.82374 3.35475,1.5351 -0.26708,0.43216 -1.63143,0.56726 -2.62223,0.25964 z m 62.53289,-2.94366 c 0.93402,-3.00829 1.90418,-4.89967 2.58248,-5.03471 0.6357,-0.12648 0.7105,0.0522 0.45427,1.08517 -0.60756,2.44977 -1.93229,4.92619 -2.63522,4.92619 -0.53133,0 -0.63014,-0.24034 -0.40153,-0.97665 z m -110.64162,-0.18086 c -0.60586,-0.60586 -0.22146,-1.0326 1.89722,-2.10623 2.03655,-1.03199 3.02216,-1.10517 3.02216,-0.22441 0,0.39794 -3.59355,2.62002 -4.23706,2.62002 -0.21613,0 -0.52317,-0.13026 -0.68232,-0.28938 z m 244.32403,118.05666 -0.28336,-1.12895 -0.6964,0.99426 c -0.64802,0.92518 -0.63916,1.0361 0.12747,1.59666 0.97407,0.71226 1.27042,0.20394 0.85231,-1.46197 z m -10.62856,-1.95784 c 0.33604,-0.59562 0.0468,-0.99045 -1.51036,-2.06181 -2.12767,-1.46387 -2.47112,-1.58434 -2.23081,-0.78253 0.0894,0.29841 0.40945,1.79386 0.71115,3.32319 l 0.54855,2.78061 1.03293,-1.26139 c 0.56812,-0.69376 1.21996,-1.5929 1.44854,-1.99807 z m 8.87275,0.16513 c 1.44069,-2.17706 1.13451,-4.05129 -0.86357,-5.28617 -0.77446,-0.47865 -1.58038,-0.86676 -1.79094,-0.86246 -0.60959,0.0131 -3.26276,4.32106 -2.96124,4.80893 0.22305,0.36091 4.06462,2.95978 4.41702,2.98818 0.0563,0.005 0.59573,-0.73729 1.19873,-1.64848 z m -5.97987,-4.52869 c 0.68342,-1.01462 1.39024,-2.08538 1.57071,-2.37947 0.21766,-0.35465 -0.49487,-1.06117 -2.11594,-2.09817 -1.34423,-0.8599 -2.49389,-1.49827 -2.55478,-1.41859 -0.83031,1.08659 -2.84732,4.27012 -2.94469,4.64773 -0.13173,0.51064 3.37412,3.01554 4.29029,3.06541 0.2815,0.0148 1.07098,-0.8023 1.75441,-1.81691 z m 5.87865,-3.70048 c -0.17519,-1.15066 -0.33085,-1.32668 -0.81667,-0.9235 -0.82003,0.68057 -0.7536,1.56508 0.15569,2.07399 0.94086,0.52652 0.9214,0.5604 0.6609,-1.15049 z m -11.67347,-1.20341 c 0.68537,-1.08483 1.17368,-2.03485 1.08516,-2.11115 -1.05908,-0.91279 -3.8505,-2.3183 -3.8505,-1.93876 0,1.10803 1.03545,6.02381 1.26871,6.02309 0.1378,-4.3e-4 0.81127,-0.88836 1.49663,-1.97318 z m 10.69063,-3.53781 c 0,-1.18396 -0.29847,-1.61846 -1.78972,-2.60532 l -1.78973,-1.18438 -0.93416,1.17155 c -0.51379,0.64437 -1.26715,1.73525 -1.67412,2.4242 l -0.73994,1.25264 2.27016,1.54683 2.27016,1.54681 1.19368,-1.3657 c 0.78097,-0.89351 1.19367,-1.85696 1.19367,-2.78663 z m -6.73415,-2.29299 c 0.87285,-1.18906 1.47363,-2.34535 1.33506,-2.56955 -0.22652,-0.36655 -4.03253,-2.64761 -4.41757,-2.64761 -0.27699,0 -3.34418,4.78179 -3.16253,4.93044 0.51703,0.42309 4.12401,2.44105 4.36947,2.44455 0.15864,0.002 1.00272,-0.96877 1.87557,-2.15783 z m 5.51294,-4.18893 c -0.36704,-0.65586 -0.46717,-0.62654 -0.95164,0.27872 -0.4649,0.86865 -0.42628,1.09649 0.27312,1.61165 0.72266,0.53226 0.83004,0.50081 0.95165,-0.27872 0.0755,-0.48326 -0.0476,-1.2085 -0.27313,-1.61165 z m -11.00492,-0.63663 0.92965,-1.56171 -2.21066,-1.20319 c -1.94639,-1.05937 -2.18281,-1.10617 -1.97777,-0.39158 0.12812,0.44638 0.46034,1.95792 0.73833,3.359 0.5561,2.80276 0.74028,2.78797 2.52045,-0.20252 z m 9.25579,-0.90024 c 1.371,-2.14529 1.1645,-3.15897 -0.93532,-4.59161 -0.78731,-0.53715 -1.57757,-0.97664 -1.75611,-0.97664 -0.60025,0 -3.14966,4.38483 -2.75545,4.73921 0.63843,0.57392 3.82681,2.64011 4.06883,2.63675 0.1237,-0.002 0.74376,-0.81519 1.37805,-1.80771 z m -5.58575,-4.43065 1.55029,-2.33491 -2.24398,-1.24611 c -1.23421,-0.68536 -2.36101,-1.30073 -2.50402,-1.36749 -0.14305,-0.0668 -1.00334,0.99816 -1.91185,2.36649 -0.90851,1.3683 -1.47714,2.54945 -1.26366,2.62479 0.21351,0.0753 1.16949,0.60346 2.12443,1.17364 0.95495,0.57017 1.95277,1.05509 2.21739,1.07758 0.26462,0.0225 1.17875,-1.00978 2.0314,-2.29399 z m 5.60945,-2.87918 c -0.24621,-1.67753 -0.78567,-1.99947 -1.40653,-0.83939 -0.40077,0.74887 -0.34538,1.02558 0.30377,1.51758 1.15585,0.87603 1.31638,0.7773 1.10276,-0.67819 z m -11.83774,-1.04173 1.31768,-1.91519 -1.98201,-1.16153 c -1.0901,-0.63883 -2.03309,-1.09548 -2.09554,-1.01475 -0.14339,0.18537 1.12276,6.00665 1.30647,6.00665 0.0746,0 0.72867,-0.86183 1.4534,-1.91518 z m 9.82496,-1.5283 c 0.77439,-1.17019 1.03723,-1.99883 0.83552,-2.63432 -0.29477,-0.92877 -2.57974,-2.5988 -3.55987,-2.60186 -0.46446,-0.001 -3.16782,3.48282 -3.16782,4.08291 0,0.19542 4.31906,2.84285 4.66003,2.85642 0.0563,0.002 0.61075,-0.76417 1.23214,-1.70315 z m -6.41733,-3.39303 c 2.0067,-2.86475 2.00917,-3.02128 0.0673,-4.24713 -2.72584,-1.72077 -2.75119,-1.7159 -4.4595,0.85702 l -1.59197,2.39766 2.061,1.07286 c 2.62888,1.36847 2.91233,1.36266 3.92318,-0.0804 z m 6.11102,-4.23778 -0.46749,-1.69312 -0.59052,1.06642 c -0.32478,0.58654 -0.59744,1.18307 -0.6059,1.32564 -0.0148,0.25205 1.84121,1.23104 2.03466,1.07314 0.0532,-0.0435 -0.11369,-0.84087 -0.37075,-1.77208 z m -11.57039,-0.44299 1.17752,-1.94045 -2.15416,-1.09159 c -1.1848,-0.60038 -2.15417,-0.89003 -2.15417,-0.64367 0,0.85302 1.44561,5.64353 1.69891,5.62986 0.13994,-0.008 0.78425,-0.88692 1.4319,-1.95415 z m 9.49937,-1.53912 c 0.70324,-1.10056 1.05275,-2.15549 0.92884,-2.80363 -0.213,-1.11424 -2.89956,-2.99043 -3.7918,-2.64805 -0.95094,0.36491 -2.95453,4.22527 -2.45319,4.72661 0.46219,0.46219 3.57254,2.38228 3.97164,2.45177 0.11943,0.0208 0.72438,-0.75623 1.34451,-1.7267 z m -5.55864,-4.65088 1.14074,-2.09594 -2.3795,-1.16701 c -1.30873,-0.64186 -2.4585,-1.16702 -2.55506,-1.16702 -0.26671,0 -2.95957,4.80594 -2.78173,4.96455 0.0853,0.0761 1.13175,0.63163 2.32542,1.23453 2.47833,1.25173 2.64337,1.18304 4.25013,-1.76911 z m -6.48689,-3.22351 1.17321,-2.04902 -2.18112,-1.10526 c -1.19963,-0.60789 -2.18112,-0.97652 -2.18112,-0.81919 0,0.51574 1.79501,6.32647 1.9068,6.17259 0.06,-0.0825 0.63696,-1.07215 1.28223,-2.19912 z m 12.00321,1.20914 c 0,-0.10385 -0.2015,-0.71873 -0.44776,-1.36643 -0.42924,-1.129 -0.47325,-1.14362 -1.06513,-0.35381 -0.54006,0.72067 -0.52797,0.89181 0.0966,1.36644 0.70911,0.53884 1.41624,0.71549 1.41624,0.3538 z m -2.62455,-3.13002 c 1.33538,-2.26331 1.04021,-3.61514 -1.04387,-4.78063 -0.9433,-0.52752 -1.87484,-0.86042 -2.07005,-0.73977 -0.42323,0.26157 -2.6277,4.53167 -2.42942,4.70582 0.11648,0.10237 4.35167,2.31769 4.54398,2.37692 0.0361,0.0115 0.48582,-0.69194 0.99936,-1.56234 z m -5.86228,-4.26524 c 0.70378,-1.30474 1.19211,-2.45252 1.08516,-2.55064 -0.10696,-0.0981 -1.21819,-0.69265 -2.46944,-1.32116 l -2.27498,-1.14273 -1.24376,2.71826 -1.24375,2.71825 1.99951,0.95001 c 1.09973,0.5225 2.19485,0.9613 2.43358,0.97513 0.23874,0.0131 1.0099,-1.04239 1.71368,-2.34712 z m -5.42447,-5.22084 c 0.0164,-0.38101 -3.18389,-1.95328 -3.97503,-1.95328 -0.2464,0 0.59186,2.86775 1.64941,5.64282 0.17047,0.4473 0.57046,0.0397 1.27788,-1.30219 0.56637,-1.0743 1.03785,-2.14862 1.04774,-2.38735 z m 10.78582,1.84477 c -0.62475,-1.85186 -0.62915,-1.85462 -1.21432,-0.76122 -0.41701,0.7792 -0.36711,1.04428 0.2904,1.5426 1.22767,0.93047 1.44067,0.75034 0.92392,-0.78138 z m -2.10196,-2.45931 c 1.2115,-2.37472 0.6105,-4.04614 -1.80202,-5.01142 -0.96811,-0.38737 -1.82692,-0.63756 -1.90851,-0.55599 -0.0815,0.0815 -0.63981,1.25969 -1.24054,2.61803 l -1.09221,2.46971 2.05433,1.06948 c 1.12987,0.58821 2.29452,1.07855 2.58808,1.08968 0.29358,0.0115 0.92396,-0.74465 1.40087,-1.67949 z m -6.30708,-3.77856 c 0.61434,-1.3419 1.11699,-2.50884 1.11699,-2.59323 0,-0.19593 -2.26776,-1.37142 -3.68591,-1.91059 -1.02251,-0.38876 -1.16689,-0.25603 -2.41872,2.22385 -0.73223,1.45052 -1.2691,2.69952 -1.19306,2.77556 0.19331,0.19331 4.41142,1.89165 4.77,1.92055 0.16159,0.0131 0.79636,-1.07425 1.4107,-2.41614 z m -6.31555,-3.17497 c 0.50686,-1.17825 0.92158,-2.23419 0.92158,-2.34655 0,-0.30449 -4.02178,-1.61758 -4.25131,-1.38803 -0.27335,0.27333 1.73643,5.87685 2.10781,5.87685 0.16518,0 0.71505,-0.96402 1.22192,-2.14227 z m 11.53288,-0.57064 c -0.60443,-1.97568 -0.92671,-2.22551 -1.24337,-0.96382 -0.20175,0.80389 -0.11336,1.32729 0.26481,1.56711 0.96681,0.61315 1.28979,0.41404 0.97856,-0.60329 z m -2.37683,-2.45727 c 0.81723,-2.47624 0.36636,-3.60036 -1.88226,-4.69283 l -1.92558,-0.93552 -0.96934,2.59198 c -0.53313,1.42559 -0.8943,2.65878 -0.80261,2.74041 0.56642,0.50421 3.75518,1.95848 4.32938,1.97445 0.42546,0.0115 0.905,-0.63186 1.25041,-1.67849 z m -6.3247,-3.57021 c 0.63532,-1.46492 1.10034,-2.71821 1.03339,-2.78507 -0.25733,-0.25696 -4.79855,-1.95587 -4.91275,-1.83791 -0.27638,0.2855 -2.37232,5.25958 -2.26252,5.36938 0.14535,0.14536 4.33952,1.81018 4.71794,1.8727 0.14782,0.0244 0.78862,-1.15418 1.42394,-2.6191 z m -5.82194,-4.95828 c 0.005,-0.41887 -4.33138,-2.07599 -4.63585,-1.77152 -0.0719,0.0719 0.50355,1.53607 1.27873,3.25376 l 1.40942,3.12304 0.97106,-2.07278 c 0.53408,-1.14002 0.97357,-2.27964 0.97664,-2.5325 z m 11.11286,2.04149 c -0.12632,-0.20435 -0.44203,-0.93022 -0.70163,-1.61303 -0.37675,-0.99094 -0.55326,-1.11307 -0.87451,-0.60512 -0.63757,1.00806 -0.48905,1.55356 0.56085,2.0599 1.24118,0.5986 1.29238,0.60658 1.01529,0.15831 z m -2.90511,-3.2095 c 0.60691,-1.42176 0.68275,-2.0767 0.33074,-2.85623 -0.51363,-1.13739 -3.68349,-2.94353 -4.19056,-2.38771 -0.40807,0.44733 -1.88342,4.93235 -1.67368,5.08789 0.13879,0.10286 4.3222,1.88295 4.61971,1.96568 0.0694,0.0194 0.48068,-0.79501 0.91379,-1.80963 z m -6.25441,-3.72853 c 0.41377,-1.27479 0.58427,-2.46964 0.37891,-2.6552 -0.29411,-0.26576 -4.32605,-1.75497 -4.7515,-1.75497 -0.33659,0 -1.85663,5.43879 -1.59089,5.69235 0.54371,0.51878 4.64745,1.60947 4.93902,1.31269 0.14979,-0.15241 0.61072,-1.32007 1.02446,-2.59487 z m -6.76919,-4.87312 c -0.69804,-0.43142 -3.84087,-1.00291 -4.09851,-0.74527 -0.0991,0.0991 0.5351,1.52717 1.40931,3.17351 l 1.58947,2.99332 0.84318,-2.52951 c 0.69492,-2.08477 0.74002,-2.59324 0.25655,-2.89205 z m 11.01502,0.65288 c -0.61934,-1.29877 -0.78707,-1.4204 -1.04763,-0.75962 -0.17063,0.4327 -0.32396,0.93952 -0.34074,1.12626 -0.0236,0.26211 1.09999,0.90162 2.02426,1.15217 0.0558,0.0148 -0.23033,-0.66833 -0.63589,-1.51881 z m -2.3489,-1.8908 c 0.6673,-2.2272 -0.0148,-3.78069 -2.02719,-4.62182 -2.24382,-0.93753 -2.49372,-0.80778 -3.04513,1.5811 -0.74841,3.24223 -0.70611,3.3524 1.55318,4.04712 2.91025,0.89489 2.95318,0.88262 3.51914,-1.0064 z m -6.68991,-3.11279 c 0.40793,-1.45382 0.67783,-2.69466 0.59977,-2.75738 -0.25046,-0.20128 -4.19434,-1.11023 -4.81723,-1.11023 -0.36094,0 -0.79254,0.82433 -1.07952,2.0618 -0.263,1.13399 -0.59901,2.37387 -0.74671,2.7553 -0.20758,0.53602 0.15503,0.79523 1.59728,1.14155 3.5661,0.85634 3.62753,0.82746 4.44641,-2.09104 z m -7.00179,-1.80776 c 0.63971,-2.45722 0.63507,-2.50089 -0.28567,-2.68789 -2.44317,-0.49616 -4.19141,-0.6906 -4.19141,-0.46616 0,0.37369 3.5573,5.92935 3.7015,5.78088 0.0689,-0.071 0.41792,-1.25303 0.77558,-2.62683 z m 10.86423,-3.0365 -0.74133,-1.4107 -0.27676,1.08516 c -0.27729,1.08726 0.16176,1.71707 1.20569,1.72961 0.40975,0.005 0.36096,-0.3602 -0.1876,-1.40407 z m -2.53467,-1.64058 c 0.34351,-2.49769 -0.0699,-3.25975 -2.26666,-4.178 -2.33646,-0.97666 -2.54793,-0.8208 -3.0012,2.21224 l -0.41787,2.79608 2.40791,0.63334 c 1.32436,0.34834 2.53609,0.65273 2.69275,0.67642 0.15667,0.0236 0.41993,-0.93934 0.58507,-2.14008 z m -6.84322,-2.266 c 0.5014,-3.0891 0.33777,-3.34704 -2.12987,-3.35735 -0.87573,-0.003 -1.88052,-0.1173 -2.23288,-0.25248 -0.50337,-0.19316 -0.70598,0.3173 -0.94568,2.38248 -0.39974,3.44424 -0.46379,3.24993 1.17269,3.55757 3.60212,0.67715 3.65217,0.64895 4.13574,-2.33022 z m -7.06281,-1.01319 c 0.16657,-1.33313 0.23792,-2.48001 0.15848,-2.5486 -0.26198,-0.22642 -4.70198,-0.54724 -4.70198,-0.33976 0,0.36515 3.68214,5.28662 3.96507,5.29962 0.15159,0.007 0.41182,-1.07811 0.57838,-2.41126 z m 11.21591,-3.68636 c -0.43129,-0.73456 -1.04341,-1.55233 -1.36028,-1.81724 -0.46359,-0.3876 -0.54838,-0.19367 -0.43406,0.99296 0.11024,1.14401 0.38535,1.54174 1.22722,1.77396 0.59683,0.16465 1.14502,0.31881 1.21821,0.34262 0.0732,0.0238 -0.2198,-0.55774 -0.65109,-1.2923 z m -3.25926,-2.17172 c 0.16373,-2.51784 -0.76575,-3.68459 -3.21782,-4.03915 l -1.78635,-0.25829 -0.27545,2.00965 c -0.51856,3.78335 -0.45281,3.9869 1.35228,4.18549 3.57201,0.39299 3.78507,0.29003 3.92734,-1.8977 z m -7.12856,-0.0195 c 0.14929,-0.74605 0.2713,-2.01569 0.2713,-2.82141 v -1.46497 h -2.55796 c -2.92344,0 -3.08488,0.18358 -3.08488,3.50802 v 2.13482 h 2.55013 c 2.50888,0 2.55451,-0.022 2.82141,-1.35646 z m -6.69875,-3.30974 c 0.0218,-0.85089 -0.19395,-0.97664 -1.67573,-0.97664 -3.17466,0 -3.27145,0.28147 -1.00783,2.93106 l 2.05691,2.40764 0.30082,-1.6927 c 0.16545,-0.931 0.31208,-2.1322 0.32583,-2.66936 z m -0.95162,-2.70812 c 0.91215,-0.005 0.97664,-0.19107 0.97664,-2.82618 v -2.82142 l -1.62775,0.007 c -3.37321,0.0115 -3.58102,0.20708 -3.58102,3.35697 v 2.82758 l 1.62774,-0.26905 c 0.89526,-0.14798 2.06724,-0.2712 2.60439,-0.27383 z m 11.31867,-0.84889 c -1.29153,-1.63501 -1.66075,-1.64034 -1.66075,-0.0239 0,1.16466 0.14109,1.30219 1.3352,1.30219 h 1.33521 z M 286.3358,112.8451 c 0,-2.63714 -0.20276,-2.75916 -3.49176,-2.10135 l -1.42996,0.28598 2.35235,2.08756 c 1.29379,1.14814 2.40116,2.09376 2.46085,2.10135 0.0597,0.008 0.10844,-1.0605 0.10844,-2.37354 z m 14.32411,0.43406 c 0,-2.62917 -1.06038,-3.68953 -3.68955,-3.68953 h -1.95328 v 2.82142 2.82141 h 2.82141 2.82142 z m -169.04476,-3.02208 1.06879,-1.06879 -0.11188,-26.372565 -0.11189,-26.372563 -3.4725,-0.913166 c -3.77306,-0.992208 -9.02765,-2.733774 -11.61121,-3.848384 l -1.62773,-0.702256 V 76.7478 102.51623 l 0.97664,1.44653 c 1.38377,2.04953 4.64691,4.25959 8.74131,5.92035 4.23493,1.71775 4.77201,1.75043 6.14847,0.37397 z m -2.8903,-4.64637 c -0.13977,-9.718571 0.0712,-48.278842 0.2652,-48.472838 0.95393,-0.95395 1.08183,2.442148 0.97779,25.962966 -0.0876,19.798932 -0.23055,25.370872 -0.65463,25.512192 -0.39856,0.13288 -0.55472,-0.66403 -0.58836,-3.00232 z M 117.92568,90.599328 c 0.007,-9.953386 0.21677,-11.843864 1.24702,-11.207132 0.33279,0.205677 0.4826,3.591572 0.4826,10.907205 0,10.319569 -0.0236,10.608949 -0.86813,10.608949 -0.84395,0 -0.86795,-0.28716 -0.86149,-10.309022 z m 0.1919,-17.145699 c -0.12977,-0.338233 -0.17872,-2.258931 -0.10877,-4.268218 0.10106,-2.901422 0.26122,-3.653256 0.77833,-3.653256 0.53265,0 0.65109,0.743533 0.65109,4.087429 0,2.883195 -0.15979,4.140698 -0.54236,4.268219 -0.29828,0.09942 -0.64854,-0.09597 -0.77833,-0.434174 z m -0.005,-11.732043 c -0.1324,-0.345009 -0.18133,-1.777395 -0.10877,-3.183073 0.0992,-1.923765 0.29297,-2.555773 0.78307,-2.555773 0.51599,0 0.65109,0.622969 0.65109,3.002267 0,2.015325 -0.17828,3.061704 -0.54236,3.183073 -0.29828,0.09942 -0.65066,-0.101551 -0.78305,-0.446494 z m 83.85021,47.804934 c 3.62684,-1.70506 6.64251,-4.09304 7.37113,-5.83685 0.98534,-2.35823 0.72344,-2.50713 -1.51709,-0.86244 -2.2136,1.62494 -4.75344,2.85583 -5.89277,2.85583 -1.22816,0 -0.68026,-0.84272 1.15739,-1.78023 5.38508,-2.74726 7.4186,-4.82112 6.65943,-6.79156 -0.27598,-0.716317 -0.31906,-0.714234 -0.74001,0.0358 -0.24582,0.43795 -1.63027,1.56109 -3.07655,2.49586 -2.58551,1.67111 -4.47307,2.20806 -4.12854,1.17443 0.19111,-0.57331 4.60435,-3.52277 6.51481,-4.353972 0.84184,-0.366254 1.27132,-0.942746 1.46282,-1.963516 0.37505,-1.999198 -0.003,-2.158989 -1.66726,-0.702716 -1.6956,1.48467 -4.98601,3.043474 -5.44086,2.57756 -0.17662,-0.180904 0.0696,-0.607482 0.54701,-0.94793 5.99514,-4.274715 6.2927,-4.535088 6.25966,-5.477538 -0.0189,-0.53766 -0.13272,-0.733394 -0.2532,-0.434961 -0.12042,0.298417 -0.57717,0.542581 -1.015,0.542581 -1.47701,0 -2.38708,-3.479947 -2.38708,-9.127726 0,-4.516303 0.10828,-5.214327 1.11017,-7.160584 0.75315,-1.462983 1.3813,-2.156954 1.95329,-2.157939 0.78862,-0.0014 0.84558,-0.359183 0.88123,-5.535777 0.021,-3.043888 -0.0325,-5.534334 -0.11894,-5.534334 -0.0865,0 -1.15974,0.689706 -2.38519,1.532656 -1.22545,0.842967 -2.42933,1.465575 -2.6753,1.38358 -1.106,-0.368666 -0.51273,-1.107228 2.26752,-2.82284 l 2.9908,-1.84556 -0.0579,-3.681588 c -0.0318,-2.024873 -0.16968,-3.681588 -0.30627,-3.681588 -0.13666,0 -2.38314,0.791847 -4.99231,1.759644 -2.60918,0.967797 -4.95442,1.827727 -5.21167,1.910936 -0.32659,0.105652 -0.48805,8.238118 -0.5351,26.953451 -0.0371,14.741184 -0.15536,26.890191 -0.26302,26.997781 -1.01393,1.01393 -1.13298,-1.83483 -1.11474,-26.675034 0.01,-14.459878 -0.0751,-26.38513 -0.19055,-26.500543 -0.1155,-0.115495 -0.70728,-0.08498 -1.31523,0.06759 l -1.10538,0.277434 v 26.057117 c 0,22.207016 0.0953,26.241456 0.6452,27.304776 1.05854,2.04697 2.12332,2.03859 6.56954,-0.0517 z m 1.70039,-21.284803 c -0.82169,-2.766929 -0.86427,-4.695911 -0.10369,-4.695911 0.33676,0 0.77562,1.006268 1.0885,2.49586 0.28832,1.372719 0.64318,2.935348 0.78856,3.472516 0.19267,0.711853 0.0786,0.976639 -0.42057,0.976639 -0.44978,0 -0.9142,-0.772128 -1.35282,-2.249104 z m -0.51394,-6.657016 c -0.69878,-1.820984 0.98463,-10.626751 2.03153,-10.626751 0.74732,0 0.74002,0.721795 -0.0374,3.689545 -0.43774,1.671136 -0.80716,3.954724 -0.82092,5.074634 -0.0256,2.08892 -0.68483,3.135365 -1.17324,1.862572 z m 1.7696,-14.147352 c -0.31389,-0.507867 1.64445,-2.339991 2.99236,-2.79951 1.48831,-0.507392 1.3768,0.311 -0.24484,1.797147 -1.72119,1.577329 -2.26872,1.777083 -2.74752,1.002363 z M 204.105,58.40968 c -0.24592,-0.397916 3.88114,-3.94616 4.58989,-3.94616 0.87188,0 0.27524,1.334231 -1.03333,2.310788 -2.05373,1.532657 -3.27342,2.093498 -3.55656,1.635372 z m 80.44183,50.51295 1.90073,-0.29635 -0.23495,-2.59106 c -0.12927,-1.42508 -0.31718,-2.6733 -0.41768,-2.7738 -0.10057,-0.10057 -1.31184,0.044 -2.69186,0.32117 l -2.50913,0.50391 0.26646,1.94401 c 0.1465,1.06922 0.26646,2.32059 0.26646,2.78083 0,0.5893 0.22466,0.77332 0.75961,0.62221 0.41778,-0.11795 1.61495,-0.34793 2.66036,-0.51092 z m -5.15624,-1.93738 c 0,-2.42489 -0.17539,-2.51248 -3.19283,-1.59439 l -1.67363,0.50923 2.32472,1.62392 c 1.2786,0.89315 2.37355,1.62564 2.43324,1.62774 0.0597,0.002 0.10844,-0.97283 0.10844,-2.1665 z m 12.91341,0.87289 c 0.82233,-0.003 0.97664,-0.24034 0.97664,-1.49574 0,-3.31041 -1.20107,-4.45446 -4.10462,-3.90974 -1.46863,0.27551 -1.53794,0.36983 -1.53228,2.08503 0.003,0.98806 0.12927,2.25691 0.27984,2.81971 0.24182,0.90335 0.45726,0.99291 1.83885,0.76438 0.86071,-0.1424 2.00442,-0.261 2.54157,-0.26364 z m 3.94646,-1.30696 c -1.0404,-1.40721 -1.66763,-1.66545 -1.66763,-0.68659 0,1.28034 0.56235,1.98878 1.57866,1.98878 h 1.05171 z m -120.71082,-2.55625 c 3.83124,-0.96595 8.1155,-2.91593 9.29975,-4.2328 0.39918,-0.44389 0.85293,-1.31663 1.0083,-1.93943 0.25452,-1.020069 0.075,-1.235293 -1.81094,-2.170312 -1.58976,-0.788222 -2.29591,-1.473416 -2.93479,-2.847759 -0.59347,-1.276615 -1.1689,-1.872728 -1.95328,-2.023462 -1.41585,-0.272086 -1.44804,-0.225872 -0.88119,1.265049 0.25967,0.682964 0.48824,2.379479 0.50795,3.770064 0.0312,2.20397 -0.12026,2.69118 -1.1805,3.79792 -4.69184,4.89722 -24.50789,4.84246 -29.43167,-0.0814 -1.14834,-1.14834 -1.2256,-1.43836 -1.0905,-4.093862 l 0.14536,-2.857964 -1.4347,0.233681 c -0.78909,0.128456 -2.35172,0.890757 -3.47252,1.693858 -2.80438,2.009468 -2.93102,3.304487 -0.53905,5.512727 2.22497,2.05409 5.50926,3.35689 11.08909,4.39879 5.95996,1.11289 17.43112,0.89783 22.67864,-0.42518 z m 103.21819,-2.62466 c -0.67824,-3.95881 -0.69046,-3.98555 -1.68431,-3.68251 -2.79475,0.85219 -3.8183,1.48654 -3.60652,2.23518 0.1196,0.4226 0.34147,1.56901 0.49317,2.54757 l 0.27581,1.7792 2.39346,-0.66618 2.39344,-0.66619 z m -6.5583,0.51472 c -0.16458,-1.13398 -0.35295,-2.12426 -0.41861,-2.20059 -0.0656,-0.0763 -0.9507,0.28532 -1.9668,0.80369 l -1.84744,0.9425 1.9139,1.23024 c 1.05265,0.67663 2.07237,1.24278 2.26605,1.25811 0.19367,0.0148 0.21748,-0.89995 0.0528,-2.03395 z m 13.18523,-1.29938 c 0.0738,-0.50172 -0.0802,-1.70866 -0.34227,-2.68208 -0.52167,-1.93732 -0.87842,-2.066038 -3.61782,-1.305345 l -1.65545,0.459705 0.29895,2.46782 c 0.16442,1.35728 0.36718,2.58747 0.45055,2.73372 0.0833,0.14634 1.18214,0.0348 2.44167,-0.24785 1.79028,-0.40164 2.31939,-0.71284 2.42437,-1.42597 z m 3.90795,0.32274 c 0.52476,0 0.34529,-0.37048 -0.67269,-1.38845 -1.59871,-1.5987 -1.96967,-1.48705 -1.5773,0.47479 0.19555,0.97778 0.46685,1.32324 0.90664,1.15448 0.34517,-0.13239 0.94968,-0.24082 1.34335,-0.24082 z m -121.27428,-1.0848 c 3.41007,-0.29141 7.01093,-1.66331 7.68846,-2.92928 0.75504,-1.41081 -0.1383,-1.679615 -2.54396,-0.765514 -6.24637,2.373424 -15.91416,2.099274 -22.36373,-0.634173 -0.57397,-0.243262 -0.75961,-0.114839 -0.75961,0.525355 0,1.953902 3.44275,3.442792 9.17728,3.968902 1.99518,0.18303 4.11591,0.27848 4.71276,0.21209 0.59684,-0.0664 2.43679,-0.23621 4.0888,-0.37738 z m 96.85673,-2.15062 c -0.16274,-1.085343 -0.3894,-1.973343 -0.50365,-1.973343 -0.11418,0 -1.01255,0.410582 -1.99622,0.912412 l -1.78849,0.912431 2.13133,1.17882 c 1.17223,0.64835 2.20369,1.12575 2.29213,1.06091 0.0884,-0.0648 0.0276,-1.0059 -0.13518,-2.09123 z m 4.91421,1.09154 1.64982,-0.84168 -0.4375,-2.413787 c -0.49371,-2.723815 -0.77482,-2.849646 -3.38786,-1.516579 -1.53717,0.784219 -1.72372,1.036651 -1.48095,2.003939 0.15274,0.60868 0.3904,1.669887 0.52808,2.358247 0.29436,1.47181 0.89305,1.55025 3.12841,0.40986 z m 7.59115,-3.087474 c 0.21207,-0.191846 0.14568,-1.306916 -0.15175,-2.546701 -0.59266,-2.470447 -1.01676,-2.646627 -3.68622,-1.531245 -1.32038,0.551686 -1.57196,0.847396 -1.38484,1.627743 0.12583,0.524453 0.358,1.667937 0.51608,2.541074 l 0.28743,1.587503 2.02105,-0.668562 c 1.11158,-0.367698 2.19082,-0.822116 2.39831,-1.009812 z m -19.93499,-0.51999 c -0.16522,-0.537151 -0.52493,-1.414734 -0.79936,-1.950179 l -0.49898,-0.973522 -1.39271,0.973522 c -0.766,0.535445 -1.39608,1.079667 -1.4002,1.209386 -0.007,0.229415 3.32685,1.621509 4.03683,1.685474 0.19515,0.01755 0.21962,-0.40753 0.0545,-0.944681 z m 4.43587,-0.126815 c 1.0356,-0.606908 1.88289,-1.384269 1.88289,-1.727473 0,-1.04423 -1.3676,-4.114088 -1.83279,-4.114088 -0.79921,0 -3.81003,1.888624 -3.81003,2.389945 0,0.770553 1.35461,4.55507 1.6304,4.55507 0.13568,0 1.09392,-0.496547 2.12953,-1.103454 z m -90.34812,-0.357428 c 1.19782,-0.375704 2.56067,-0.963007 3.02852,-1.305112 0.80783,-0.590698 0.74896,-0.671414 -1.16945,-1.603447 l -2.0201,-0.981446 -1.1322,1.345551 c -1.60177,1.903603 -4.8411,2.591111 -9.22965,1.958874 -2.06218,-0.297089 -3.7219,-0.811813 -4.51977,-1.401708 -0.69348,-0.512706 -1.46185,-0.808007 -1.70746,-0.656206 -0.24562,0.151752 -1.36458,0.414536 -2.48657,0.583825 l -2.03998,0.307817 1.51922,0.823592 c 0.83558,0.452974 2.59354,1.073925 3.90657,1.379905 3.19152,0.743713 12.92389,0.46641 15.85087,-0.451645 z m 109.94185,0.220901 c 0.41639,-0.264113 0.15914,-0.668396 -0.97664,-1.534675 -1.5583,-1.188566 -1.79048,-1.018359 -1.26838,0.929884 0.26636,0.993914 1.22456,1.252039 2.24502,0.604791 z m -26.81428,-3.543684 1.03972,-0.784267 -1.03406,-2.207762 c -0.56875,-1.214274 -1.24484,-2.200429 -1.50246,-2.191472 -0.2576,0.0082 -1.20784,0.649611 -2.11164,1.423675 l -1.64324,1.407384 0.99216,2.220525 c 0.98479,2.204071 1.00041,2.215703 2.10598,1.568356 0.61261,-0.358708 1.58171,-1.005104 2.15354,-1.436439 z m -63.20039,0.298582 c -0.22456,-0.585236 -0.89163,-0.723683 -3.48674,-0.723683 -2.56309,0 -3.20902,-0.13108 -3.20902,-0.651087 0,-0.520877 0.65109,-0.651104 3.25547,-0.651104 3.08637,0 3.25553,-0.05069 3.25648,-0.976639 9.7e-4,-0.939777 -0.12337,-0.97121 -3.29417,-0.832484 -3.00161,0.131244 -3.28153,0.07333 -3.14202,-0.651088 0.13485,-0.700058 0.52918,-0.778017 3.29417,-0.65112 3.04188,0.139611 3.14102,0.112214 3.14125,-0.868133 2.1e-4,-0.967256 -0.13978,-1.012272 -3.14696,-1.012272 -2.50813,0 -3.14719,-0.132229 -3.14719,-0.651088 0,-0.517792 0.63279,-0.651104 3.09082,-0.651104 h 3.0908 l 0.28088,-4.356382 c 0.15454,-2.396016 0.15536,-4.984124 0.002,-5.751347 -0.26562,-1.328112 -0.37519,-1.395243 -2.28653,-1.400887 -1.10415,-0.0033 -2.41792,-0.116151 -2.91947,-0.250726 -1.94419,-0.521927 -2.2022,0.470544 -2.51353,9.667945 -0.16012,4.731298 -0.12534,9.188344 0.0773,9.904546 0.36224,1.280093 0.42692,1.305882 3.8116,1.519237 3.73033,0.235124 4.2693,0.09318 3.84497,-1.012584 z m 57.97973,1.208056 c 0,-0.131245 -0.30821,-0.834617 -0.68493,-1.563106 l -0.68494,-1.324503 -1.08476,1.019081 -1.08477,1.019081 1.22713,0.524436 c 1.32733,0.567272 2.31227,0.705702 2.31227,0.325011 z m 18.35649,-0.682898 c 1.00512,-0.506817 1.88512,-0.971373 1.95555,-1.032369 0.27989,-0.242327 -0.90785,-4.123554 -1.38243,-4.517419 -0.33775,-0.280289 -1.14905,-0.133049 -2.4317,0.441162 -1.05867,0.473973 -1.98296,0.919876 -2.05396,0.990879 -0.10779,0.107785 0.40758,1.771161 1.39299,4.49665 0.25916,0.716775 0.38378,0.698024 2.51955,-0.378903 z m -27.67872,-8.387376 c 0.37997,-3.116482 0.72845,-6.051158 0.77442,-6.521473 0.0761,-0.778953 -0.49585,-0.940728 -6.41974,-1.815686 -3.66592,-0.541465 -6.60783,-0.791437 -6.74287,-0.572964 -0.38891,0.629252 -1.90837,14.277744 -1.62146,14.564644 0.14437,0.144369 3.06038,0.695612 6.47994,1.224905 l 6.21738,0.96235 0.31074,-1.087705 c 0.17091,-0.598245 0.62162,-3.637572 1.00159,-6.754071 z m -8.7869,5.011046 c -2.20114,-0.407121 -4.14141,-0.879551 -4.31171,-1.049858 -0.867,-0.867017 0.97012,-0.963039 5.1895,-0.271249 5.25613,0.861751 5.94569,1.058766 5.94569,1.698714 0,0.613863 -2.08761,0.498335 -6.82348,-0.377607 z m 0.52955,-3.102062 c -2.38735,-0.436355 -4.38947,-0.805513 -4.44915,-0.82036 -0.0597,-0.01477 -0.10861,-0.222312 -0.10861,-0.461046 0,-0.610549 2.21826,-0.539021 6.46578,0.208482 4.3939,0.77326 5.25395,1.028137 5.25395,1.557019 0,0.575639 -2.16464,0.429334 -7.16205,-0.484095 z m 14.41249,3.773542 c 0.95316,-0.824905 0.95365,-0.833436 0.14026,-2.427843 -1.18192,-2.316761 -1.89175,-2.804564 -2.71525,-1.865952 -0.93193,1.062211 -1.46641,5.752757 -0.70887,6.220956 0.55154,0.340858 0.89845,0.137314 3.28387,-1.927161 z m -78.63496,0.930638 c 0.16777,-0.16778 -0.47756,-1.194128 -1.43409,-2.280783 -3.41829,-3.883394 -3.54688,-9.802061 -0.29549,-13.600572 1.95286,-2.281488 1.92806,-2.742074 -0.1173,-2.177329 -0.88597,0.244623 -2.74159,0.316857 -4.12361,0.160446 l -2.51276,-0.284292 -0.0536,3.602579 c -0.21902,14.724976 -0.22379,14.624459 0.70467,14.833138 1.31141,0.294759 7.48369,0.09515 7.83213,-0.253236 z m 106.22255,-0.725126 c 0.18148,-0.176524 -0.48388,-0.778345 -1.47857,-1.337398 l -1.80852,-1.016439 0.27896,1.042557 c 0.1534,0.573407 0.28164,1.3079 0.2849,1.632189 0.005,0.424789 0.33965,0.507227 1.19961,0.294841 0.65652,-0.162087 1.34216,-0.439226 1.52362,-0.61575 z M 152.42692,89.18863 c -0.14748,-0.238734 -1.13572,-0.434059 -2.19593,-0.434059 -1.06023,0 -1.92767,0.195325 -1.92767,0.434059 0,0.238733 0.98815,0.434058 2.19593,0.434058 1.35343,0 2.09301,-0.166533 1.92767,-0.434058 z m 107.01116,-0.658405 c 1.18573,-0.60087 2.15589,-1.163252 2.15589,-1.249743 0,-0.367353 -2.25137,-5.036884 -2.42849,-5.036884 -0.14896,0 -2.64421,1.524946 -4.03332,2.464837 -0.17101,0.115659 1.80268,4.89332 2.02707,4.906854 0.0676,0.0033 1.0931,-0.48421 2.27885,-1.085064 z M 156.6842,86.916886 c 0.40116,-1.696286 -0.10877,-5.172132 -0.79182,-5.397791 -0.25679,-0.08482 -0.43322,1.331263 -0.44259,3.552395 -0.0164,3.862181 0.55535,4.716763 1.23441,1.845396 z m -17.20624,0.49092 2.74846,-0.478616 0.002,-2.451302 c 0.003,-3.32421 0.67274,-5.491992 2.02436,-6.55517 0.95154,-0.748488 1.75637,-0.887886 5.12654,-0.887886 3.44653,0 4.10614,0.119761 4.78344,0.868133 1.28009,1.414504 2.02586,1.111723 1.87097,-0.75961 l -0.13469,-1.627743 -3.83783,-0.21703 c -4.5818,-0.259093 -5.26233,-0.811829 -5.74375,-4.665019 -0.43754,-3.501849 0.39179,-5.721063 2.52804,-6.764899 1.5115,-0.738562 1.62775,-0.930917 1.62775,-2.693236 0,-1.810107 -0.0653,-1.907277 -1.4107,-2.101191 -0.7759,-0.111886 -3.99882,-0.571209 -7.16206,-1.020869 l -5.75135,-0.817571 -0.0743,0.892692 c -0.30416,3.654897 -0.0897,29.757949 0.24441,29.757949 0.22543,0 1.64666,-0.215388 3.15832,-0.478632 z m 6.62452,-2.397049 c 0.0167,-0.746043 -0.0996,-2.006532 -0.25842,-2.801086 -0.24466,-1.22333 -0.33974,-1.314774 -0.62059,-0.596851 -0.4176,1.06751 -0.47009,3.986552 -0.0968,5.382239 0.26306,0.983497 0.30845,0.999525 0.61466,0.217029 0.18186,-0.464671 0.34436,-1.455272 0.36114,-2.201331 z m 6.54147,2.224577 c 0,-0.48229 -0.50641,-0.651087 -1.9533,-0.651087 -1.44687,0 -1.95327,0.168797 -1.95327,0.651087 0,0.482291 0.5064,0.651104 1.95327,0.651104 1.44689,0 1.9533,-0.168813 1.9533,-0.651104 z m 27.78008,-6.076882 v -6.293928 h -5.38083 -5.38083 l -1.32575,1.509935 c -2.25199,2.564878 -2.37921,6.41546 -0.30194,9.138898 1.24279,1.629384 1.76593,1.745946 8.37427,1.866051 l 4.01508,0.07301 z m -10.52604,4.692516 c -0.41778,-0.109262 -0.75961,-0.385531 -0.75961,-0.61411 0,-0.658552 10.52259,-0.295464 10.74379,0.370749 0.13731,0.413749 -0.93632,0.530622 -4.52221,0.492216 -2.5863,-0.02773 -5.04419,-0.139611 -5.46197,-0.248855 z m 1.51922,-2.628582 c -3.16852,-0.113034 -4.0151,-0.277073 -4.0151,-0.778033 0,-0.518121 0.86771,-0.634813 4.72046,-0.634813 5.46323,0 7.43334,0.301993 7.43334,1.139415 0,0.435289 -0.5581,0.572456 -2.0618,0.506751 -1.134,-0.04954 -3.8686,-0.15454 -6.0769,-0.23332 z m 0.62243,-6.084511 c -1.71761,-0.10073 -2.4694,-0.314297 -2.35203,-0.668132 0.222,-0.669314 9.37802,-0.966928 10.01928,-0.325667 0.24323,0.243229 0.35759,0.515807 0.25414,0.605742 -0.33861,0.294365 -5.34086,0.539415 -7.92139,0.388057 z m 78.72659,8.777763 2.09345,-1.536742 -1.30644,-1.935774 c -0.71855,-1.064671 -1.44945,-1.935774 -1.62423,-1.935774 -0.17481,0 -1.13087,0.597934 -2.12462,1.328752 l -1.80681,1.328736 1.17872,2.137513 c 0.6483,1.175639 1.25022,2.140335 1.33759,2.143764 0.0874,0.0033 1.10093,-0.685277 2.25234,-1.530475 z m -27.41604,-3.332855 c 0.28321,-2.215801 0.60284,-4.445661 0.7103,-4.955251 0.17951,-0.851301 -0.0422,-0.95208 -2.73025,-1.240916 -5.49222,-0.590174 -11.44324,-0.889247 -11.91332,-0.598721 -0.57663,0.356378 -0.99635,6.244859 -0.59689,8.374153 l 0.29155,1.554066 2.69323,0.03314 c 1.48128,0.01821 4.45119,0.27102 6.59981,0.561661 2.1486,0.290624 4.02448,0.477139 4.1686,0.41447 0.14421,-0.06267 0.49376,-1.926882 0.77697,-4.142683 z m -8.81759,2.089937 c -3.74566,-0.344451 -5.23006,-0.644738 -5.37653,-1.087656 -0.17003,-0.51415 0.62129,-0.565204 4.95717,-0.31981 6.12687,0.346781 7.54685,0.613256 7.54685,1.416309 0,0.667033 0.22502,0.667312 -7.12749,-0.0082 z m 3.65497,-2.500486 c -2.02923,-0.207924 -4.91034,-0.487803 -6.40243,-0.621952 -2.71789,-0.244344 -3.46088,-0.747027 -1.8567,-1.256173 0.85161,-0.270298 10.12525,0.445476 12.05863,0.93072 0.96194,0.241424 1.16535,1.09996 0.29699,1.2535 -0.22382,0.03954 -2.06723,-0.09811 -4.09649,-0.306095 z m 46.57492,3.687527 1.38914,-0.724486 -2.17031,-0.961694 c -1.19368,-0.528932 -2.22753,-0.910738 -2.29745,-0.848479 -0.15585,0.138791 1.31018,3.259145 1.53126,3.259145 0.087,0 0.78332,-0.326028 1.54736,-0.724486 z M 153.07801,84.630952 c 0,-0.491938 -0.53052,-0.651088 -2.17031,-0.651088 -1.6398,0 -2.17032,0.159134 -2.17032,0.651088 0,0.491937 0.53052,0.651103 2.17032,0.651103 1.63979,0 2.17031,-0.159133 2.17031,-0.651103 z m 103.09016,-2.540139 c 0.85526,-0.640851 0.85204,-0.656567 -0.21704,-1.06167 -0.59684,-0.22615 -1.73688,-0.552965 -2.53342,-0.726257 l -1.44826,-0.315069 1.00274,1.74232 c 1.04664,1.818572 1.22361,1.838538 3.19598,0.360676 z m -103.52422,0.36983 c 0,-0.48229 -0.50641,-0.651103 -1.9533,-0.651103 -1.44687,0 -1.95327,0.168813 -1.95327,0.651103 0,0.482291 0.5064,0.651088 1.95327,0.651088 1.44689,0 1.9533,-0.168797 1.9533,-0.651088 z m 94.37701,-2.105949 1.7044,-1.441934 -2.0522,-0.516758 c -2.29886,-0.578854 -2.87581,-0.405644 -2.87581,0.863309 0,0.989961 0.74307,2.553477 1.20894,2.543781 0.17065,-0.0033 1.07725,-0.655336 2.01467,-1.448398 z M 151.77582,80.07329 c -0.85818,-0.55459 -3.4725,-0.55459 -3.4725,0 0,0.238733 0.9278,0.431072 2.0618,0.427414 1.49122,-0.0049 1.88162,-0.123042 1.4107,-0.427414 z m 4.34065,-7.813149 c 0,-0.248035 -1.3022,-0.434075 -3.03846,-0.434075 -2.41145,0 -3.03844,-0.134361 -3.03844,-0.651087 0,-0.516742 0.62699,-0.651104 3.03844,-0.651104 2.95164,0 3.03846,-0.03101 3.03846,-1.085146 0,-1.067083 -0.0579,-1.085162 -3.47252,-1.085162 h -3.47252 v 1.649431 c 0,0.907195 0.23441,1.883851 0.52088,2.170325 0.63529,0.635289 6.42416,0.713527 6.42416,0.08679 z m 25.34902,-1.651745 c 0.88849,-1.71817 2.39552,-2.254829 6.33177,-2.254829 h 3.42581 l 0.13485,-5.100259 c 0.16291,-6.161831 0.12567,-6.329889 -1.33727,-6.03454 -0.62276,0.125831 -3.57391,0.547634 -6.5581,0.937545 -2.98419,0.389895 -6.06062,0.801691 -6.83651,0.915069 l -1.41071,0.206169 v 2.60627 c 0,3.302915 -0.82392,4.942388 -2.81387,5.599119 -1.44021,0.475319 -1.52676,0.612731 -1.52676,2.423512 v 1.919614 h 4.98058 4.98059 z m -14.74273,-0.07382 c 1.4306,-0.54391 1.55321,-1.966108 0.13682,-1.586516 -0.53715,0.144041 -2.49043,0.264392 -4.34063,0.267657 -2.61011,0.0049 -3.36399,0.143713 -3.36399,0.620852 0,0.338217 0.24416,0.713445 0.54258,0.833862 0.97373,0.392913 5.88428,0.297958 7.02527,-0.135838 z m -14.72151,-3.726638 c -0.9723,-0.73492 -2.01836,-0.673235 -2.28743,0.134854 -0.12403,0.372554 0.34076,0.53825 1.48324,0.528784 1.57203,-0.01312 1.61644,-0.04971 0.80419,-0.663654 z m 11.92836,-2.14396 c 0,-1.446889 -0.0723,-1.519237 -1.51923,-1.519237 -2.10384,0 -2.05104,-1.163073 0.0709,-1.561154 2.15346,-0.403987 2.94027,0.196063 3.10106,2.364993 0.14486,1.954641 0.68065,2.212175 2.87022,1.379708 1.01847,-0.38722 1.08601,-0.573424 0.84523,-2.330131 -0.15979,-1.165615 -0.0812,-2.020821 0.20174,-2.195688 0.63718,-0.393782 1.51504,1.374229 1.12596,2.267676 -0.79875,1.834223 -0.51815,2.250613 0.84494,1.253909 0.58725,-0.429415 0.73051,-1.050661 0.62553,-2.712905 -0.0748,-1.185778 -0.28264,-2.107114 -0.46169,-2.047431 -0.17905,0.05972 -4.32979,0.108441 -9.22386,0.108441 h -8.8983 v 1.928671 c 0,1.500977 0.21393,2.078519 0.9647,2.604382 0.53059,0.371652 1.11658,0.675713 1.30219,0.675713 0.64791,0 0.33066,-1.627858 -0.53064,-2.722815 -1.16642,-1.482866 -1.12411,-2.188863 0.10844,-1.810977 1.66391,0.510098 2.06181,1.100534 2.06181,3.059457 0,1.710657 0.11434,1.917072 1.19366,2.155133 0.65652,0.144861 1.38901,0.328423 1.62775,0.408055 0.23873,0.07973 1.16655,0.160283 2.0618,0.179067 1.57743,0.0333 1.62774,-0.01313 1.62774,-1.484949 z m 14.20561,-9.114044 c 14.57196,-1.62799 22.01562,-3.544274 30.50589,-7.853392 17.58905,-8.927053 14.46644,-20.417951 -7.63213,-28.085517 -5.3878,-1.869413 -10.41713,-3.042674 -18.1976,-4.245234 -7.78536,-1.203315 -26.9505,-1.52744 -35.33233,-0.597556 -17.31925,1.921403 -31.63563,6.876686 -38.26188,13.243488 -5.01668,4.820249 -4.9114,9.913913 0.30486,14.749567 2.90484,2.692891 5.7387,4.415508 10.5755,6.428519 6.93583,2.886624 17.03442,5.238033 27.33765,6.365424 7.11178,0.778197 23.71283,0.775326 30.70004,-0.0049 z M 148.08627,52.896657 C 128.43756,50.799944 111.858,44.373115 108.34782,37.492623 c -0.87885,-1.722699 -1.11697,-3.430157 -0.47837,-3.430157 0.20248,0 0.72622,0.794095 1.16389,1.764648 2.48622,5.513449 12.95759,10.734322 27.43453,13.678497 7.76846,1.579856 14.16228,2.260621 24.55747,2.614653 7.08841,0.241424 8.98116,0.429087 8.98116,0.890477 0,0.792652 -14.11125,0.719204 -21.92023,-0.114018 z m 27.12899,-0.306931 c 0,-0.44592 0.50075,-0.768552 1.41072,-0.908918 4.23521,-0.653286 5.47394,-0.704635 5.76184,-0.238799 0.53451,0.864852 -0.36077,1.225971 -3.80856,1.536266 -2.91452,0.262292 -3.364,0.210368 -3.364,-0.388549 z m 12.75392,-1.2472 c -0.44428,-0.718859 0.32304,-1.067363 4.60864,-2.093153 9.52212,-2.279192 16.7155,-5.331479 20.5786,-8.731909 1.06918,-0.941138 2.46618,-2.778528 3.10444,-4.083082 1.28458,-2.625612 1.92671,-3.006926 1.92671,-1.14414 0,2.695942 -3.96761,6.98849 -9.25632,10.014381 -4.44778,2.544765 -20.29914,7.11058 -20.96207,6.037903 z m -33.37195,-5.591787 c -17.22945,-0.880552 -32.72157,-5.070827 -36.83903,-9.964163 -2.05237,-2.439097 -1.87608,-6.726182 0.26401,-6.420399 0.75031,0.107292 1.03052,0.512411 1.23675,1.788436 0.41475,2.566141 0.85339,2.694482 3.42364,1.001773 4.58339,-3.018525 15.17845,-5.725295 26.6218,-6.801205 8.13053,-0.76445 26.2046,-0.298482 33.72401,0.86943 9.50474,1.47627 16.14028,3.55054 20.42166,6.38383 1.96515,1.300485 2.61339,1.057962 2.77838,-1.039506 0.13075,-1.661916 0.54464,-2.281176 1.52476,-2.281176 0.50155,0 0.97218,0.493807 1.26144,1.323584 2.59146,7.433835 -12.18059,13.413105 -37.48893,15.174389 -6.60509,0.459668 -7.27707,0.458273 -16.92849,-0.03494 z m 26.04383,-4.067431 c 8.8404,-1.186597 15.9766,-2.917893 20.401,-4.949443 l 1.73626,-0.797228 -1.51923,-0.9372 c -14.1852,-8.750874 -58.99435,-9.272735 -75.63561,-0.880897 -1.37273,0.692233 -2.49587,1.408959 -2.49587,1.592734 0,0.505865 5.54227,2.556446 10.07765,3.728607 4.18611,1.081897 11.47389,2.206351 18.57056,2.865329 5.69502,0.528817 23.08318,0.154213 28.86524,-0.621902 z M 121.20948,25.438079 c -0.40759,-0.659487 1.19049,-1.539039 5.60767,-3.086329 17.40857,-6.098062 45.7853,-6.855884 65.9777,-1.762007 6.79668,1.714578 11.93675,3.800709 11.93675,4.844595 0,0.62917 -0.92194,0.440375 -4.34063,-0.88882 -9.74292,-3.788061 -22.62922,-5.73189 -37.98059,-5.729167 -13.75346,0.0016 -24.85672,1.575443 -34.50807,4.888759 -2.74545,0.942516 -5.31151,1.819885 -5.70236,1.949719 -0.39084,0.129768 -0.83655,0.03232 -0.99047,-0.21675 z"
       id="path1" /></g><metadata
     id="metadata182"><rdf:RDF><cc:Work
         rdf:about=""><cc:license
           rdf:resource="http://creativecommons.org/licenses/by-sa/4.0/" /><dc:creator><cc:Agent><dc:title>Jameela P</dc:title></cc:Agent></dc:creator><dc:publisher><cc:Agent><dc:title>OpenDataKerala.org</dc:title></cc:Agent></dc:publisher><dc:date>April 2026</dc:date><dc:title>Election Symbols of Kerala</dc:title></cc:Work><cc:License
         rdf:about="http://creativecommons.org/licenses/by-sa/4.0/"><cc:permits
           rdf:resource="http://creativecommons.org/ns#Reproduction" /><cc:permits
           rdf:resource="http://creativecommons.org/ns#Distribution" /><cc:requires
           rdf:resource="http://creativecommons.org/ns#Notice" /><cc:requires
           rdf:resource="http://creativecommons.org/ns#Attribution" /><cc:permits
           rdf:resource="http://creativecommons.org/ns#DerivativeWorks" /><cc:requires
           rdf:resource="http://creativecommons.org/ns#ShareAlike" /></cc:License></rdf:RDF></metadata></svg>
