<?xml version="1.0" encoding="UTF-8" standalone="no"?>
<!-- Created with Inkscape (http://www.inkscape.org/) -->

<svg
   width="1500"
   height="1500"
   viewBox="0 0 396.87499 396.875"
   version="1.1"
   id="svg5"
   xml:space="preserve"
   inkscape:version="1.3 (0e150ed6c4, 2023-07-21)"
   sodipodi:docname="Grapes.svg"
   inkscape:export-filename="Gramaphone.png"
   inkscape:export-xdpi="96"
   inkscape:export-ydpi="96"
   xmlns:inkscape="http://www.inkscape.org/namespaces/inkscape"
   xmlns:sodipodi="http://sodipodi.sourceforge.net/DTD/sodipodi-0.dtd"
   xmlns="http://www.w3.org/2000/svg"
   xmlns:svg="http://www.w3.org/2000/svg"
   xmlns:rdf="http://www.w3.org/1999/02/22-rdf-syntax-ns#"
   xmlns:cc="http://creativecommons.org/ns#"
   xmlns:dc="http://purl.org/dc/elements/1.1/"><title
     id="title186">Election Symbols of Kerala</title><sodipodi:namedview
     id="namedview7"
     pagecolor="#ffffff"
     bordercolor="#000000"
     borderopacity="0.25"
     inkscape:showpageshadow="2"
     inkscape:pageopacity="0.0"
     inkscape:pagecheckerboard="0"
     inkscape:deskcolor="#d1d1d1"
     inkscape:document-units="mm"
     showgrid="false"
     inkscape:zoom="0.25"
     inkscape:cx="230"
     inkscape:cy="1082"
     inkscape:window-width="1920"
     inkscape:window-height="991"
     inkscape:window-x="-9"
     inkscape:window-y="-9"
     inkscape:window-maximized="1"
     inkscape:current-layer="layer1" /><defs
     id="defs2"><inkscape:path-effect
       effect="bspline"
       id="path-effect3248"
       is_visible="true"
       lpeversion="1"
       weight="33.333333"
       steps="2"
       helper_size="0"
       apply_no_weight="true"
       apply_with_weight="true"
       only_selected="false" /><inkscape:path-effect
       effect="bspline"
       id="path-effect577"
       is_visible="true"
       lpeversion="1"
       weight="33.333333"
       steps="2"
       helper_size="0"
       apply_no_weight="true"
       apply_with_weight="true"
       only_selected="false" /></defs><g
     inkscape:label="Layer 1"
     inkscape:groupmode="layer"
     id="layer1"><path
       style="fill:#000000;stroke-width:1.58734"
       d="m 251.341,394.37282 c -3.36037,-0.48336 -4.88738,-1.00655 -8.76781,-3.00404 -6.23547,-3.20975 -12.38091,-10.12397 -15.36112,-17.28274 -1.35823,-3.26265 -2.95381,-9.53894 -2.97071,-11.68548 l -0.01,-1.15495 h -3.7356 c -6.65485,0 -11.6961,-2.30495 -16.63827,-7.60729 -7.21069,-7.73619 -9.62985,-20.16572 -6.11982,-31.44343 l 0.73913,-2.37486 -3.81704,-0.0127 c -2.16427,-0.006 -4.97421,-0.31426 -6.48953,-0.70982 -5.78075,-1.50907 -12.5345,-6.16039 -16.20475,-11.16028 -2.53216,-3.44947 -5.15101,-9.06118 -6.14743,-13.17278 -1.21763,-5.02429 -1.3269,-13.10274 -0.22843,-16.88593 0.40242,-1.38594 0.82819,-2.85064 0.94618,-3.25487 0.18345,-0.62853 -0.081,-0.73496 -1.82545,-0.73496 -7.38759,0 -16.59196,-5.68716 -21.74194,-13.43386 -6.22355,-9.36157 -7.56204,-21.06392 -3.6388,-31.81389 l 1.23579,-3.38612 -1.83953,-0.51504 c -4.37621,-1.22527 -10.93648,-6.17914 -13.8898,-10.48865 -1.97389,-2.8803 -4.15578,-7.42057 -5.24755,-10.91956 -0.88003,-2.82038 -0.98284,-3.95446 -0.98284,-10.84171 v -7.69184 l -1.25995,0.22028 c -3.94111,0.68901 -6.4953,0.70154 -9.6596,0.0473 -10.436924,-2.15773 -18.43599,-10.07748 -21.722173,-21.50679 -1.227218,-4.26824 -1.324426,-12.35085 -0.198513,-16.50497 2.025172,-7.47199 6.597828,-13.89652 12.901698,-18.12674 0.970386,-0.65117 0.993149,-0.74509 0.34315,-1.41614 -0.629204,-0.64957 -0.912004,-0.66359 -2.93989,-0.14572 -3.165848,0.80837 -10.518391,0.6877 -13.243261,-0.21735 -3.004399,-0.99791 -3.294183,-1.46929 -1.983678,-3.22685 1.298981,-1.7421 3.76648,-6.14125 4.129424,-7.36208 0.250593,-0.84293 0.08365,-0.89752 -3.421043,-1.1186 -2.026474,-0.12778 -6.613877,-0.83756 -10.194225,-1.57715 -8.284691,-1.71137 -15.092698,-1.84393 -21.629112,-0.42115 -2.309908,0.50279 -5.097541,1.01899 -6.19474,1.14709 l -1.994933,0.23294 v -1.42517 c 0,-0.78384 0.644173,-3.98279 1.431476,-7.10876 3.930071,-15.604235 10.736634,-27.925745 20.566739,-37.230775 3.592238,-3.400329 9.718786,-7.820188 12.335384,-8.899038 0.750714,-0.30953 1.36495,-0.71046 1.36495,-0.890972 0,-0.527456 -4.474511,-3.368868 -9.239632,-5.867351 -6.358775,-3.33409 -6.257281,-4.060804 1.259948,-9.021374 7.569755,-4.995221 14.794422,-7.990779 23.93902,-9.925774 5.456565,-1.154613 16.250931,-1.290759 21.629111,-0.272832 1.84793,0.34977 3.41136,0.591759 3.4743,0.537758 0.25475,-0.218544 -2.4499,-4.908997 -4.06155,-7.043616 -0.94745,-1.2549 -1.72264,-2.478673 -1.72264,-2.719488 0,-0.617188 1.64503,-0.914306 6.71972,-1.213678 5.20994,-0.30734 10.46488,0.469011 15.94361,2.355481 1.95477,0.673062 3.63774,1.140152 3.73994,1.037943 0.10222,-0.102224 -0.3379,-1.418094 -0.97801,-2.924223 -1.39659,-3.286041 -4.11642,-7.217064 -8.13058,-11.751243 -2.01036,-2.270797 -2.80482,-3.4527911 -2.46567,-3.6684149 0.72435,-0.460534 8.56713,-0.4012787 13.9398,0.1053991 17.44088,1.6445598 33.53071,8.7652418 45.13194,19.9734728 11.56841,11.176532 17.65212,24.985646 17.65212,40.067725 0,8.002907 -1.97416,17.008613 -5.08184,23.182305 -0.89398,1.77596 -1.07225,2.475007 -0.69126,2.710472 1.0578,0.653761 10.10921,0.658428 13.1829,0.0063 8.27051,-1.753356 15.71991,-6.349521 20.49461,-12.644835 4.13555,-5.452612 6.04916,-9.956997 6.92278,-16.295216 0.81707,-5.927814 -0.86519,-14.427461 -3.92338,-19.823215 l -1.39667,-2.464213 -1.16931,2.605565 c -2.32689,5.185003 -7.22083,8.162133 -13.44157,8.176911 -2.89433,0.0063 -3.76659,-0.174576 -6.10964,-1.271028 -6.72802,-3.148419 -9.98017,-8.78921 -9.51238,-16.499047 0.35138,-5.791445 2.83034,-10.243559 7.59626,-13.642571 6.41766,-4.577005 15.16827,-5.012586 22.83603,-1.136723 9.57522,4.840075 17.07985,15.09765 20.6057,28.164589 0.98309,3.643335 1.08749,4.779804 1.112,12.105093 0.0143,4.446352 0.0846,8.084448 0.15508,8.08467 0.0705,2.22e-4 1.20438,-0.727476 2.5199,-1.617099 9.17282,-6.203105 21.22156,-10.50074 31.82075,-11.350028 20.5468,-1.646386 37.60979,7.745123 44.24153,24.350632 2.60023,6.510826 3.20837,15.494945 1.48957,22.005518 -1.72399,6.53022 -6.64927,13.94751 -11.71294,17.63928 -1.26731,0.92397 -2.31154,1.77443 -2.32051,1.88993 -0.01,0.11556 1.62822,0.52901 3.63817,0.91891 10.12445,1.96402 18.39898,9.54306 20.8825,19.12726 0.82382,3.17926 0.84343,9.25301 0.0397,12.27347 -1.06245,3.99232 -3.09191,7.51603 -6.05058,10.50553 -3.19426,3.22753 -6.5486,5.07694 -11.09166,6.11531 -2.95387,0.67516 -3.06998,0.75146 -4.78724,3.14613 -2.01126,2.80462 -6.58067,6.23569 -10.01659,7.52125 -7.24924,2.71228 -15.16076,1.84418 -21.49198,-2.35826 l -2.2787,-1.51251 -2.10786,2.05523 c -5.98883,5.83932 -11.08588,14.15694 -12.32621,20.11448 -1.62416,7.80132 0.1408,14.38235 5.29766,19.75261 2.74231,2.85583 4.8006,4.04114 8.79395,5.06419 9.17802,2.35129 18.33377,-3.97207 20.1865,-13.94169 1.6953,-9.12255 -4.44766,-17.6551 -12.64566,-17.56473 -2.98972,0.033 -4.52675,0.6463 -6.94879,2.77288 -5.516,4.84311 -3.72426,14.20455 2.85663,14.92528 2.27936,0.24963 4.43704,-1.11156 5.28228,-3.33239 0.71511,-1.87888 0.39537,-3.39894 -1.01071,-4.80502 -1.04143,-1.04142 -1.04184,-1.04499 -0.0879,-0.75553 4.87017,1.47788 4.41295,9.26067 -0.67992,11.57356 -2.22986,1.01269 -5.82709,1.01769 -8.02123,0.0111 -5.49279,-2.51971 -7.90686,-10.07571 -5.14587,-16.10651 4.64205,-10.13956 17.61265,-12.13695 25.68991,-3.95607 10.9275,11.06768 5.37039,30.96155 -9.94847,35.61451 -8.19633,2.48955 -18.35131,-1.06121 -23.77921,-8.31456 -3.63743,-4.86073 -5.0856,-9.39959 -5.0856,-15.93915 0,-9.1249 4.05391,-17.73364 12.60478,-26.76705 1.84501,-1.94912 3.35455,-3.67043 3.35455,-3.82515 0,-0.15476 -0.76213,-1.54492 -1.69361,-3.08935 -2.69055,-4.46099 -3.87891,-8.69315 -3.91573,-13.94525 -0.0394,-5.61963 0.51988,-7.905 3.39004,-13.85245 2.15354,-4.46249 2.64501,-5.13711 6.57819,-9.02963 2.54009,-2.51383 5.30529,-4.79837 6.87111,-5.67674 2.67745,-1.50199 3.21212,-2.09992 1.8777,-2.09992 -1.55422,0 -5.86576,-1.33731 -8.85106,-2.74535 -4.09213,-1.93005 -7.81926,-4.95496 -10.58046,-8.58696 -1.83899,-2.41898 -2.56309,-3.04626 -3.9488,-3.42086 -3.73016,-1.00834 -8.15056,0.33396 -10.71382,3.25335 -1.91809,2.18458 -2.6346,4.13837 -2.63621,7.18842 -0.003,4.77319 2.7131,8.70501 7.5379,10.91388 3.4809,1.59361 6.06187,1.68507 9.79192,0.34696 6.60176,-2.36829 11.48384,-3.99834 11.60682,-3.87537 0.0703,0.0703 -1.42728,1.73094 -3.32802,3.69024 -3.03093,3.12429 -3.79675,3.67921 -6.22773,4.51261 -5.38835,1.84727 -10.06504,1.60073 -14.93956,-0.78758 -2.781,-1.36258 -6.29767,-4.80544 -7.68386,-7.52259 -1.37573,-2.69665 -1.92388,-6.39848 -1.40019,-9.45581 0.9608,-5.60905 3.67875,-9.40842 8.3162,-11.62502 2.14862,-1.02701 3.03405,-1.20452 6.00953,-1.20481 2.53796,-2.3e-4 3.40763,-0.13301 3.18891,-0.48693 -0.65879,-1.06594 -1.39966,-5.78649 -1.40671,-8.963005 -0.0276,-12.461417 7.86022,-23.100398 19.34938,-26.097893 3.53141,-0.921337 9.50386,-0.9034 12.76569,0.03841 13.34239,3.852164 19.85774,18.299245 13.81661,30.636838 -4.98784,10.18651 -18.52406,13.10688 -27.32495,5.89523 -1.20098,-0.98412 -2.31066,-2.50936 -3.33795,-4.58793 -1.47725,-2.989 -1.53122,-3.25333 -1.34766,-6.599071 0.29134,-5.310371 2.30841,-8.628905 6.4876,-10.673601 5.11222,-2.501182 11.37081,-0.514836 13.14113,4.170711 1.0121,2.678742 0.31493,6.388633 -1.48043,7.877936 -0.68171,0.565495 -0.68327,0.523385 -0.0276,-0.744715 2.14133,-4.141964 -0.88699,-9.36546 -5.42966,-9.36546 -5.88503,0 -9.52106,5.632203 -7.65561,11.85855 0.76452,2.55177 3.72365,5.57189 6.46397,6.59716 2.89719,1.08398 4.81947,1.08844 8.28129,0.0192 3.46668,-1.07075 6.50145,-3.69654 8.14836,-7.05028 1.07172,-2.182436 1.1761,-2.805037 1.1761,-7.014813 0,-4.257649 -0.0965,-4.81663 -1.23079,-7.130554 -2.42559,-4.94803 -7.41577,-8.543649 -13.2445,-9.543163 -13.9171,-2.386529 -26.33805,11.414125 -23.31732,25.90739 2.4651,11.82745 12.51521,20.1149 24.35316,20.08195 12.8873,-0.0359 24.2197,-9.36654 26.85165,-22.10859 2.76636,-13.392772 -3.18621,-26.410917 -15.46193,-33.814874 -15.87527,-9.575005 -39.75862,-6.173771 -59.01608,8.404503 -2.10701,1.595051 -2.94306,2.543961 -3.50755,3.98104 -0.83508,2.125936 -0.753,2.109856 2.43134,-0.476439 5.12656,-4.163742 13.13046,-8.817162 19.09379,-11.101022 6.86491,-2.629138 15.86611,-4.075503 21.41912,-3.441727 l 2.72988,0.311562 -3.35986,0.327881 c -15.41253,1.504065 -29.17117,8.156878 -41.73381,20.179841 -1.70247,1.629338 -5.5986,5.706587 -8.65807,9.06055 l -5.56266,6.098125 2.07679,1.43179 c 6.46292,4.45573 10.41376,12.64418 9.85722,20.4299 -0.17815,2.49242 -1.16685,6.12958 -2.57976,9.49028 -0.23413,0.55692 0.18455,0.95258 1.94178,1.83512 5.72325,2.8744 11.13142,7.9017 14.77778,13.73707 2.91181,4.65983 4.37272,8.96014 4.94199,14.54718 1.11081,10.90183 -3.29258,20.50755 -11.98946,26.15421 -2.29802,1.49205 -6.94731,3.27522 -8.57917,3.29041 -1.6179,0.0159 -1.81472,0.54963 -1.29703,3.52246 0.86594,4.97257 -0.59268,11.33107 -3.63711,15.85508 -0.7968,1.18402 -1.39645,2.19678 -1.33256,2.25056 0.064,0.0538 0.77766,0.43262 1.58612,0.84192 2.24456,1.13631 7.22762,4.99822 9.17434,7.11017 4.6963,5.09488 8.34852,13.07886 9.12587,19.94974 l 0.2745,2.42633 3.12218,0.26391 c 3.48654,0.29472 8.50203,1.83467 11.43562,3.51117 5.56053,3.17777 10.99749,8.96453 13.68309,14.56345 2.67706,5.58114 3.68996,9.87982 3.72177,15.79525 0.0327,6.08206 -0.86164,10.02414 -3.34744,14.75463 -2.02713,3.85762 -6.52181,8.32121 -10.26472,10.19372 -2.52236,1.26188 -3.91091,1.67821 -8.71207,2.61213 -0.92059,0.17909 -0.84852,0.3271 1.27681,2.62273 1.23887,1.33811 2.97105,3.5155 3.84931,4.83866 9.57072,14.41889 8.4445,33.77976 -2.38564,41.01186 -1.43264,0.95667 -2.59825,1.86397 -2.59027,2.01623 0.008,0.15223 0.52763,1.84553 1.15478,3.76283 1.45652,4.4528 1.96701,9.06558 1.52881,13.81446 -0.573,6.20958 -2.43458,10.57366 -6.18981,14.51062 -5.05909,5.30393 -11.59852,7.59422 -18.74754,6.56591 z m 9.00979,-6.01318 c 4.14374,-1.45576 7.83243,-5.34953 9.67628,-10.21426 1.40414,-3.70465 1.61141,-10.22065 0.46882,-14.73897 -0.48624,-1.92282 -1.31722,-4.28232 -1.84662,-5.24331 -0.92883,-1.68609 -1.05058,-1.75585 -3.47555,-1.99174 -5.77259,-0.56155 -11.1308,-3.36852 -16.54013,-8.66477 -2.185,-2.13933 -4.01061,-3.84481 -4.05691,-3.78997 -0.0463,0.0548 -0.60176,1.12974 -1.23435,2.38869 -0.63258,1.25895 -1.6287,3.01211 -2.21357,3.89593 -1.01864,1.53925 -1.0522,1.7878 -0.79681,5.90068 0.3298,5.31152 1.43522,9.42346 3.90772,14.53613 1.52189,3.14696 2.53082,4.56679 4.99932,7.03528 3.048,3.04799 2.6176,3.33881 -0.8577,0.57953 -2.63273,-2.0903 -5.15243,-5.37992 -6.92241,-9.03757 -1.93425,-3.99715 -2.44364,-5.8107 -3.09993,-11.03646 l -0.49426,-3.93562 -1.14644,0.9018 c -0.97383,0.76602 -1.14644,1.21603 -1.14644,2.98893 0,1.14793 0.29876,3.54385 0.66391,5.3243 1.87082,9.12195 7.31054,17.07049 13.90384,20.31636 2.56301,1.26177 3.20114,1.39879 6.51726,1.39938 3.30428,6e-4 3.53893,0.0505 2.32008,0.49369 -1.97109,0.71667 -6.10739,0.65965 -8.73446,-0.12048 -8.44449,-2.5074 -15.93991,-13.19975 -17.41066,-24.83661 -0.15333,-1.21269 -0.34902,-2.20491 -0.435,-2.20491 -0.086,0 -0.82421,0.31849 -1.64052,0.70777 -1.71392,0.8173 -1.76472,1.14339 -0.88164,5.66003 1.43688,7.34908 3.94581,12.1248 9.01903,17.16766 5.53714,5.50398 10.4421,7.7036 16.41734,7.3623 1.73244,-0.0989 4.00035,-0.47869 5.0398,-0.84386 z m 5.72865,-16.45582 c 0.24481,-2.14873 -0.46523,-7.73295 -1.14934,-9.03917 -0.23858,-0.45554 -0.16021,-0.8582 0.23003,-1.18208 0.78958,-0.65528 1.27867,0.27907 1.879,3.58977 0.46302,2.55337 0.1736,5.4654 -0.76851,7.73279 -0.34993,0.84216 -0.38777,0.62418 -0.19118,-1.10131 z m -41.29837,-16.32448 c 3.82446,-0.99614 6.59289,-2.63566 9.58688,-5.67753 3.05163,-3.10044 5.34932,-7.20894 6.44733,-11.5285 0.73994,-2.91085 0.82941,-8.10456 0.19092,-11.08169 -0.4054,-1.89035 -0.56552,-2.09496 -1.78491,-2.28079 -0.73676,-0.11223 -1.38773,-0.16266 -1.44659,-0.11191 -0.0589,0.0508 0.0829,1.09358 0.31499,2.31745 1.16335,6.13429 -0.53101,13.74598 -3.97558,17.85992 l -1.05496,1.25995 0.85015,-1.98168 c 2.30672,-5.37698 3.02296,-11.4761 1.99976,-17.02919 -0.44993,-2.44178 -0.63741,-2.78503 -1.78493,-3.26778 -0.70522,-0.29669 -1.34573,-0.47613 -1.42338,-0.39876 -0.0776,0.0773 0.18334,1.59926 0.57995,3.38196 1.39206,6.25706 -0.006,14.06041 -3.19298,17.80965 -0.6796,0.79973 -1.23563,1.23612 -1.23563,0.96974 0,-0.26637 0.17412,-0.59194 0.38695,-0.72348 0.21281,-0.13159 0.92154,-1.79636 1.57492,-3.69962 1.04272,-3.03734 1.18539,-4.05109 1.16666,-8.2903 -0.0178,-4.01335 -0.19521,-5.32383 -1.04996,-7.75225 -0.97276,-2.76377 -1.15945,-2.99835 -3.43841,-4.32052 -1.32537,-0.76895 -4.0864,-2.99361 -6.13561,-4.9437 l -3.72584,-3.54563 -1.90704,1.26319 c -3.83096,2.53751 -7.79705,9.26185 -8.73196,14.8047 -0.95059,5.6357 0.0811,12.83475 2.3685,16.52713 1.25403,2.02432 4.0791,4.79268 5.79562,5.67929 0.89827,0.46396 2.78819,1.1087 4.19982,1.43276 l 2.56663,0.5892 -2.5199,-0.24627 c -1.38593,-0.1354 -3.40647,-0.62529 -4.49005,-1.08852 -2.24383,-0.95923 -6.09661,-4.7653 -7.37802,-7.28856 -6.01246,-11.83928 -2.11698,-26.99069 8.64676,-33.63153 0.0762,-0.047 -0.18159,-0.57408 -0.57288,-1.17127 l -0.71143,-1.08578 -2.73885,2.95822 c -1.50637,1.62702 -3.56659,3.52771 -4.57826,4.22376 -3.5845,2.4662 -6.07958,9.52869 -6.068,17.17579 0.0143,8.91634 3.49432,16.37036 9.50861,20.36242 4.45696,2.95837 8.94706,3.78396 13.76072,2.53015 z m 47.12231,-5.40083 c 5.72996,-2.66831 9.0875,-11.16475 7.83504,-19.82712 -0.69082,-4.77795 -2.20827,-9.44172 -4.1525,-12.76236 -2.05606,-3.51163 -6.38592,-8.13123 -9.54329,-10.18188 l -2.49782,-1.62229 -1.10207,3.12228 c -1.51799,4.30068 -3.50744,7.42774 -6.6431,10.44172 -2.34859,2.25746 -2.70039,2.80565 -2.99449,4.66611 -0.34742,2.19779 0.0159,6.04994 0.83125,8.81619 0.68841,2.33527 0.25207,2.31345 -0.75949,-0.0379 -1.07821,-2.50639 -1.94314,-7.30402 -1.61372,-8.95112 0.28221,-1.41107 0.0178,-1.51706 -1.36628,-0.54761 -0.90774,0.63581 -0.95967,0.87735 -0.69384,3.22704 1.10113,9.73267 6.95221,17.09228 16.18751,20.36096 l 2.7299,0.96619 -2.51989,-0.25239 c -3.88264,-0.38888 -7.41726,-2.30524 -11.16571,-6.05367 -4.31362,-4.31362 -6.30531,-8.5693 -7.3297,-15.66141 -0.15286,-1.05856 -0.40184,-1.48786 -0.77888,-1.34317 -0.41535,0.15938 -0.46866,0.65428 -0.21284,1.97581 0.18773,0.96973 0.35015,3.55858 0.36094,5.753 0.0192,3.90102 0.0546,4.04177 1.59323,6.32242 3.31083,4.90774 6.07512,7.54937 10.72336,10.24761 4.3855,2.5457 9.42053,3.06089 13.11239,1.34168 z m 1.8201,-17.49173 c -0.15111,-0.34649 -0.48366,-1.75966 -0.73906,-3.14041 -0.88109,-4.76331 -3.50592,-8.94683 -7.5723,-12.06883 l -1.44839,-1.11204 1.107,-0.50438 c 0.96458,-0.4395 1.35184,-0.36091 3.00994,0.61079 3.89406,2.28207 6.2472,7.46978 6.04152,13.31902 -0.0683,1.93921 -0.24761,3.24235 -0.39871,2.89585 z m -29.51416,-13.05597 c 10.4529,-1.91482 16.75561,-13.61367 14.28657,-26.51821 -2.14922,-11.23299 -9.46153,-20.61388 -18.93424,-24.29055 -2.04554,-0.79394 -3.35003,-0.98224 -6.92971,-1.00034 -4.11154,-0.0208 -4.60132,0.0684 -7.24083,1.31879 -5.26167,2.49248 -9.2756,7.9517 -10.43942,14.1983 -0.78709,4.22471 -0.27345,10.72708 1.20368,15.23705 3.57633,10.9194 12.72268,19.713 21.9102,21.06521 3.34596,0.49245 3.39994,0.49236 6.14375,-0.01 z m -6.39674,-3.50084 c -4.78184,-1.15971 -9.85152,-4.6666 -13.40411,-9.27213 -3.3963,-4.40294 -5.49434,-9.65647 -5.86408,-14.68375 l -0.21737,-2.95553 0.83519,3.05063 c 3.66423,13.38366 13.8107,22.91301 23.70849,22.26649 3.22427,-0.21061 5.86415,-1.27182 7.98329,-3.20923 l 1.21276,-1.10874 -0.73568,1.15434 c -1.16568,1.82904 -4.49369,4.01598 -7.17359,4.71401 -2.86556,0.74638 -3.43216,0.7503 -6.3449,0.044 z m -0.87431,-5.05564 c -4.15676,-1.29854 -8.91529,-5.70625 -11.31739,-10.48304 l -1.07267,-2.13311 1.81704,2.09992 c 6.15805,7.1167 11.40191,10.2534 17.30896,10.35369 1.76076,0.0298 2.33447,0.15349 1.7672,0.38053 -1.32207,0.5293 -6.53913,0.39555 -8.50314,-0.21799 z m 13.36498,-17.25684 c -0.88643,-3.96098 -3.60806,-8.8088 -6.70274,-11.93906 -3.00922,-3.04381 -5.79779,-4.60383 -9.81362,-5.49005 -2.66932,-0.58908 -2.99823,-1.03455 -1.25995,-1.70647 3.18508,-1.23117 8.53631,0.65725 12.35146,4.35879 3.81148,3.69801 6.56664,10.31914 6.6381,15.95263 0.0248,1.94967 -0.66294,1.2832 -1.21325,-1.17584 z m -52.43468,20.19675 c 1.5538,-0.32928 3.63735,-0.95799 4.63012,-1.39715 3.19427,-1.41298 9.55408,-8.00466 9.55408,-9.9024 0,-0.34758 -0.19686,-1.14978 -0.43748,-1.78266 l -0.43749,-1.15069 -1.40116,2.0806 c -1.96907,2.92389 -6.06967,6.59325 -8.93999,7.99981 -2.15543,1.05623 -2.89146,1.1926 -6.44494,1.19415 -3.79379,0.002 -4.18536,-0.0841 -7.21155,-1.57973 -6.24646,-3.08716 -10.83963,-9.08596 -12.77749,-16.68775 -0.80516,-3.1584 -0.88706,-9.27646 -0.16586,-12.3895 0.47045,-2.03069 2.53054,-7.07656 2.7852,-6.82192 0.0689,0.0689 -0.26897,1.53751 -0.75078,3.26359 -1.15948,4.15392 -1.25625,11.2258 -0.20672,15.10786 3.63475,13.44436 14.84976,20.87919 24.42696,16.1935 4.1296,-2.02043 10.2106,-9.66437 9.68634,-12.17594 -0.75889,-3.63566 -0.62149,-3.55146 -1.65316,-1.01308 -1.78314,4.3873 -4.94107,8.22739 -8.18988,9.95898 -3.0731,1.63794 -3.76266,1.70786 -1.27868,0.12968 3.59836,-2.28625 6.55782,-6.45955 8.24251,-11.62317 1.56915,-4.80952 1.55985,-10.7571 -0.0244,-15.61739 l -1.12063,-3.43789 -2.3832,-0.69281 c -5.00695,-1.45557 -10.9109,-5.10846 -14.5509,-9.00293 -1.4872,-1.59118 -2.17015,-2.06119 -2.50638,-1.72496 -0.73916,0.73916 0.79861,3.11479 3.90677,6.03539 3.18804,2.99567 5.96282,4.61215 9.49491,5.53136 1.53384,0.39918 2.76549,1.00864 3.21063,1.58877 1.0564,1.37668 2.16327,6.72157 1.7845,8.617 -0.30453,1.52384 -0.32569,1.48838 -0.82904,-1.38889 -0.28408,-1.62396 -0.9141,-3.73199 -1.40004,-4.6845 -0.79261,-1.55364 -1.17275,-1.8253 -3.69417,-2.63989 -1.54586,-0.4994 -3.71703,-1.36731 -4.8248,-1.92867 -2.31594,-1.17357 -7.07478,-5.47344 -8.36103,-7.55463 l -0.87433,-1.41471 -3.02115,2.54243 c -1.66164,1.39835 -4.48542,3.23334 -6.27506,4.07779 l -3.25392,1.53535 -1.15591,3.35987 c -1.04129,3.02673 -1.15491,3.92202 -1.14585,9.02963 0.0111,6.68786 0.61874,9.44517 3.23534,14.6994 2.35654,4.73204 7.60909,10.1764 11.66826,12.09433 4.48556,2.11941 8.03307,2.55879 12.69043,1.5718 z m -12.72649,-43.79989 -1.01816,-1.15496 1.15496,1.01816 c 1.07947,0.95164 1.34754,1.29175 1.01816,1.29175 -0.0752,0 -0.59496,-0.51973 -1.15496,-1.15495 z m 93.30781,28.49772 c 2.77193,-1.05634 6.81659,-4.54418 8.73314,-7.53086 0.72284,-1.12645 1.81218,-3.44631 2.42075,-5.15524 0.93499,-2.6256 1.10846,-3.82315 1.11922,-7.72697 0.0143,-5.15173 -0.73253,-8.79495 -2.69832,-13.1649 -4.14848,-9.22213 -12.99581,-15.71618 -21.96384,-16.12174 l -2.47963,-0.11223 -0.78249,3.14498 c -1.03825,4.17285 -2.72865,7.66782 -5.12355,10.59307 -1.82624,2.2307 -1.99379,2.63889 -2.39437,5.83354 -0.52875,4.21692 -0.28557,5.41257 1.69977,8.35727 0.85654,1.27044 2.37512,3.88989 3.37462,5.821 1.33956,2.58818 2.35038,3.93251 3.84543,5.11429 3.62897,2.86854 8.60222,4.05048 12.42727,2.95346 1.90586,-0.54658 1.6968,-0.14016 -0.42275,0.82195 -3.21947,1.46138 -8.64564,0.87126 -11.64827,-1.2668 -1.58453,-1.12828 -1.84547,-0.95901 -1.37878,0.89446 0.42444,1.68572 2.11344,2.65824 5.80035,3.33979 7.71655,1.42648 14.6998,-3.47993 17.6892,-12.42837 l 0.5612,-1.67993 -0.25972,1.88992 c -0.85284,6.20571 -5.29388,11.81031 -10.86897,13.71667 -2.5852,0.884 -7.27144,0.86351 -9.81741,-0.0429 -1.01075,-0.35987 -2.01152,-0.65429 -2.22393,-0.65429 -0.34157,0 -0.0546,2.87856 0.33073,3.31806 0.0811,0.0925 1.04827,0.42247 2.14921,0.73322 2.87733,0.8122 8.94645,0.48227 11.91114,-0.64752 z m 4.99761,-24.70584 c -0.95276,-3.5527 -3.40517,-7.7507 -6.14213,-10.51404 -2.76665,-2.7933 -5.58225,-4.36978 -9.28989,-5.20142 -1.21269,-0.27202 -2.2049,-0.63057 -2.2049,-0.79678 0,-0.16621 0.57198,-0.53912 1.27107,-0.8287 2.92343,-1.21093 7.94675,0.71716 11.58964,4.44843 2.94487,3.01632 4.65678,6.61319 5.24299,11.01596 0.53058,3.9849 0.32273,4.82047 -0.46678,1.87655 z m -72.0677,3.99956 c 0.95487,-2.5958 0.44962,-3.69662 -1.69664,-3.69662 -1.25618,0 -1.4542,0.11953 -1.2179,0.73497 0.15524,0.40423 0.58589,1.82701 0.95706,3.16172 0.37116,1.33471 0.80012,2.27967 0.95326,2.09992 0.15317,-0.17977 0.60502,-1.21476 1.00422,-2.29999 z m 42.20387,-8.74527 0.0449,-2.94873 -1.00872,0.66093 c -1.6098,1.05479 -1.76532,2.61277 -0.40278,4.03497 0.63315,0.66087 1.18956,1.20158 1.23645,1.20158 0.047,0 0.10556,-1.32694 0.13016,-2.94875 z m -39.40222,-0.64948 c 5.91456,-1.70694 10.27601,-6.87846 12.19586,-14.46104 0.96664,-3.8178 0.74611,-13.29644 -0.41041,-17.63928 -3.13592,-11.77571 -9.71607,-20.04517 -18.46766,-23.20886 -1.39385,-0.50387 -3.85197,-0.93636 -5.94603,-1.04614 l -3.56986,-0.18716 -1.99108,1.52783 c -1.09508,0.8403 -3.36299,2.2292 -5.03979,3.08645 -2.61255,1.33564 -3.30272,1.93758 -4.82412,4.20734 -2.50433,3.73615 -3.53312,7.26654 -3.78931,13.00329 -0.45301,10.14421 2.97796,19.35336 9.94681,26.69849 3.79645,4.00144 8.9604,7.28499 12.92443,8.21812 2.5495,0.60016 6.50614,0.51238 8.97116,-0.19904 z m -8.16486,-3.14638 c -2.92479,-0.72537 -7.5372,-3.47149 -10.05132,-5.98429 -6.20713,-6.20393 -10.00823,-15.19135 -9.89229,-23.38963 l 0.0446,-3.14986 0.3878,2.72988 c 0.50252,3.5374 2.9013,10.69011 4.79139,14.28694 3.01402,5.73571 7.97586,10.69155 13.19637,13.18041 2.47853,1.18163 3.10966,1.30146 6.85431,1.30146 3.93393,0 4.06001,0.0275 2.72989,0.59468 -1.73975,0.74191 -5.90743,0.96444 -8.06069,0.43041 z m 1.25584,-4.22211 c -5.10554,-1.19858 -10.72994,-6.25322 -13.75816,-12.36445 -0.94475,-1.90658 -1.64528,-3.68389 -1.55674,-3.94955 0.0886,-0.26567 1.25294,1.21538 2.58751,3.2912 4.22672,6.57442 9.29301,11.02153 14.42335,12.66062 1.84018,0.58791 2.13911,0.77925 1.19447,0.76455 -0.69297,-0.0111 -1.99367,-0.19186 -2.89043,-0.40237 z m 11.64219,-11.10782 c -0.24964,-0.65055 0.0756,-3.48207 0.44195,-3.84849 0.54447,-0.54448 1.09586,0.54931 1.09586,2.17385 0,1.88008 -1.02899,3.00062 -1.53781,1.67464 z m -0.6999,-11.43149 c -3.02432,-9.32544 -9.17243,-15.92089 -16.55651,-17.76115 -1.21271,-0.30223 -2.20492,-0.69421 -2.20492,-0.87107 0,-0.53052 2.8595,-0.8998 4.69491,-0.6063 5.09349,0.81448 10.28596,5.16467 12.91463,10.81977 1.88114,4.04694 2.67811,7.29251 2.47977,10.09869 l -0.14016,1.98254 z m 32.05648,30.14616 c 0,-0.23099 -0.20013,-0.41998 -0.44475,-0.41998 -0.24463,0 -0.32798,0.18899 -0.18522,0.41998 0.14271,0.23099 0.34292,0.41998 0.44478,0.41998 0.1019,0 0.18519,-0.18899 0.18519,-0.41998 z m -76.73495,-1.6028 c 3.00926,-1.3715 7.54664,-5.30475 9.1935,-7.96941 0.84385,-1.3654 0.85177,-1.48992 0.1838,-2.89068 l -0.69805,-1.46383 -1.81186,2.44855 c -2.6185,3.53863 -4.32641,5.05479 -7.39931,6.56849 -2.25832,1.11244 -3.3157,1.3652 -6.23051,1.48938 -4.48233,0.19097 -6.59929,-0.41218 -10.42295,-2.96959 -4.82325,-3.22599 -8.5559,-8.8951 -10.06155,-15.28141 -1.09604,-4.64892 -0.31171,-12.73643 1.51341,-15.60519 0.39706,-0.62408 0.43366,-0.57722 0.24842,0.31801 -1.70156,8.22313 -1.16365,13.91289 1.94049,20.52556 1.6,3.40849 6.19872,8.20131 9.56329,9.96692 2.07533,1.08909 2.71506,1.21219 6.29974,1.21219 3.531,0 4.23966,-0.1316 6.16224,-1.14355 1.19482,-0.62895 3.15439,-2.13997 4.35459,-3.35784 2.28258,-2.31619 4.64665,-5.98874 4.36935,-6.78772 -0.0891,-0.25651 -0.36397,-1.01818 -0.61101,-1.69259 l -0.44914,-1.22621 -1.21574,2.5707 c -1.49279,3.15653 -4.13591,6.09021 -6.93194,7.69402 -2.73651,1.56967 -3.52416,1.56299 -1.02219,-0.008 5.11458,-3.21279 8.70586,-10.62241 7.59331,-15.66667 -0.26887,-1.2191 -0.66761,-3.97413 -0.88606,-6.12227 -0.73108,-7.18907 -4.50742,-12.82157 -10.14602,-15.1331 l -2.26735,-0.92948 1.82347,0.23067 c 3.43974,0.43514 7.17314,3.01246 9.36827,6.46733 1.18588,1.86646 1.29306,1.84062 1.78726,-0.43082 0.49172,-2.26005 -3.5164,-6.1407 -8.42847,-8.1604 -3.70683,-1.52414 -5.69176,-1.37942 -8.29158,0.60448 -1.1763,0.8976 -2.95723,2.0432 -3.95763,2.54577 -2.15238,1.08126 -7.62607,2.54193 -9.52562,2.54193 -1.24616,0 -1.43253,0.19968 -2.64574,2.83487 -2.06738,4.49053 -2.70881,7.96268 -2.50209,13.54446 0.29929,8.08186 2.99024,14.38422 8.5127,19.93724 4.96998,4.9975 9.71135,7.01151 15.95935,6.77915 3.14645,-0.11698 4.25771,-0.35835 6.63162,-1.4403 z m 74.93663,-4.08447 c 4.29584,-1.90869 7.92709,-6.44319 9.40306,-11.74202 0.95169,-3.4166 0.74232,-10.71586 -0.4156,-14.4894 -2.7232,-8.87458 -8.67622,-15.84165 -15.98659,-18.70978 l -3.01836,-1.18421 -3.46172,1.12736 c -1.90394,0.62004 -4.04105,1.12735 -4.74915,1.12735 -2.48369,0 -3.97269,0.51294 -4.43511,1.52783 -0.38152,0.83735 -0.12524,1.67845 1.6771,5.50503 3.18432,6.76053 4.72544,13.51496 4.72544,20.71079 0,2.73341 0.03,2.80707 1.92018,4.7244 2.25421,2.2865 6.16984,4.31835 9.41935,4.88781 2.281,0.39972 2.26788,0.40326 -1.04996,0.28328 -3.85916,-0.13953 -5.92526,-0.99744 -8.81299,-3.65924 l -1.79975,-1.65896 -0.29512,1.57306 c -0.26205,1.39686 -0.16162,1.68115 0.89656,2.53804 0.65541,0.53075 2.23113,1.48055 3.50157,2.11065 2.03024,1.00696 2.79676,1.14568 6.33093,1.14568 3.74113,0 4.16505,-0.0886 6.08976,-1.27219 2.4537,-1.50893 4.46249,-4.32065 5.6498,-7.90806 l 0.85366,-2.57926 -0.19404,2.43359 c -0.3505,4.39591 -3.1771,8.43404 -7.30873,10.44137 -4.03199,1.95892 -10.60649,1.04917 -14.63385,-2.02498 -1.05042,-0.80181 -1.96371,-1.39765 -2.02952,-1.32411 -0.0659,0.0735 -0.24884,0.73697 -0.40672,1.47426 -0.26594,1.2419 -0.13826,1.44975 1.73586,2.82447 1.11261,0.81616 2.40091,1.50162 2.86289,1.52324 0.462,0.0216 2.5409,0.47317 4.61982,1.00345 4.22909,1.07871 5.71555,1.01041 8.91123,-0.40945 z m 2.82728,-25.18974 c -1.61248,-5.12651 -5.08522,-9.49247 -9.69458,-12.18812 -3.49141,-2.04185 -3.75989,-2.49846 -1.26825,-2.15695 5.72489,0.78469 10.56468,6.38495 11.67362,13.50786 0.23974,1.53984 0.34527,2.89031 0.23452,3.00106 -0.1108,0.1108 -0.53614,-0.86299 -0.94531,-2.16385 z m -72.26098,-14.3055 c 0.79321,-2.06702 -0.82886,-3.81484 -5.83481,-6.28717 -3.84751,-1.9002 -6.43063,-2.27576 -7.50298,-1.09084 -0.76917,0.84992 -0.76279,0.86673 0.42113,1.11189 4.8445,1.00317 7.81112,2.43301 10.31827,4.97319 2.07767,2.10505 2.25324,2.19242 2.59839,1.29293 z m -26.92797,-4.13759 c 5.64388,-1.99184 10.27695,-6.10627 12.93798,-11.48965 1.57402,-3.18436 1.67321,-4.46421 0.67401,-8.6974 -0.87847,-3.72178 -0.88924,-7.40948 -0.036,-12.37599 l 0.6724,-3.91436 -2.00016,-4.0291 c -1.53229,-3.08666 -2.70133,-4.74406 -4.99779,-7.08562 l -2.99765,-3.05653 -2.43953,0.83932 c -5.08451,1.74933 -10.01124,1.51902 -15.03194,-0.70268 l -2.39324,-1.05904 -1.41545,0.8748 c -2.24695,1.3887 -5.90305,5.48901 -7.54356,8.46011 -5.10537,9.24625 -5.44793,20.58642 -0.90078,29.81877 3.27291,6.64521 8.69927,11.41306 14.62888,12.85363 3.54285,0.86072 7.63442,0.69609 10.84294,-0.43626 z m -11.3174,-2.70592 c -7.83579,-2.90765 -13.28655,-11.26496 -13.88456,-21.28831 -0.2825,-4.7352 0.37761,-8.6651 2.09501,-12.47252 0.70464,-1.56212 1.33892,-2.78245 1.40953,-2.71185 0.0706,0.0706 -0.24313,1.32203 -0.69719,2.78094 -3.92372,12.60689 0.78238,26.68354 10.45249,31.26502 2.42741,1.15004 3.23997,1.32298 6.15637,1.31019 2.71925,-0.0111 3.80029,-0.22198 5.66978,-1.10174 4.96814,-2.33794 8.19562,-5.80272 10.77419,-11.56632 1.2399,-2.77143 1.42574,-3.01758 1.20548,-1.59662 -0.14318,0.92395 -0.978,3.19186 -1.85505,5.03979 -1.94281,4.09342 -5.03594,7.37931 -8.87741,9.43059 -2.42289,1.29379 -3.12651,1.46532 -6.497,1.58383 -2.93746,0.10333 -4.26387,-0.0467 -5.95164,-0.673 z m 1.2327,-4.16952 c -5.22763,-2.09254 -9.02809,-7.18314 -9.9473,-13.32414 -0.2411,-1.61078 -0.22229,-1.59395 0.55366,0.49524 1.77564,4.78078 5.81029,9.48116 9.56332,11.14129 2.7748,1.22742 6.85169,1.13729 10.27361,-0.22712 l 2.6753,-1.06672 -1.25995,1.03277 c -3.05283,2.5024 -8.31507,3.36712 -11.85864,1.94868 z m 17.94839,-18.49422 c 0,-2.61142 -1.32838,-7.80101 -2.67914,-10.46661 -1.47773,-2.91614 -3.01776,-4.62007 -5.8023,-6.41981 -3.1471,-2.03408 -2.46091,-2.74785 1.503,-1.56348 5.4179,1.61883 9.30288,10.83675 7.96883,18.9077 -0.36993,2.23807 -0.99039,1.95127 -0.99039,-0.4578 z m 20.78916,25.11441 c 0,-0.72541 -3.43609,-3.34494 -6.2653,-4.77639 -1.46827,-0.74287 -2.81903,-1.08599 -4.2753,-1.08599 -3.16196,0 -3.06429,0.47345 0.27245,1.32082 3.44679,0.87534 6.56669,2.46731 8.22263,4.19574 1.18761,1.2396 2.04552,1.38464 2.04552,0.34582 z m 52.56834,-5.85824 c 4.51596,-1.57357 7.18079,-4.21276 9.19154,-9.10306 1.13456,-2.75936 1.37168,-7.2217 0.55591,-10.46143 -0.51666,-2.05183 -0.51223,-2.04672 -2.10023,-2.42537 l -1.10192,-0.26276 0.16347,3.87955 c 0.18362,4.3581 -0.31755,4.01991 -1.03506,-0.69843 -0.47985,-3.15553 -0.91048,-3.8208 -2.76838,-4.2769 -1.08499,-0.26637 -1.18852,-0.20988 -0.91153,0.49733 0.41671,1.06391 1.0862,5.15297 1.05893,6.4676 -0.0127,0.57747 -0.34531,-0.1785 -0.74074,-1.67993 -1.11514,-4.23411 -2.42441,-6.20267 -5.57127,-8.37672 -1.52283,-1.05207 -3.4935,-2.55072 -4.37927,-3.33034 -2.37351,-2.08908 -4.16298,-2.70649 -7.14944,-2.46677 -2.99132,0.24011 -4.64346,1.01029 -6.69204,3.11965 -2.18025,2.24494 -3.01303,5.3692 -2.39656,8.99087 0.259,1.52156 0.57401,3.128 0.7,3.56985 0.12603,0.44186 -0.2739,-0.22254 -0.88866,-1.47644 -2.11698,-4.31786 -1.2939,-9.74541 1.97336,-13.01265 2.04232,-2.04232 4.33074,-2.95669 7.42699,-2.96758 1.44369,-0.005 2.6249,-0.15286 2.6249,-0.3285 0,-0.1756 -0.48467,-0.84197 -1.07704,-1.48081 -0.98872,-1.06627 -1.25563,-1.14058 -3.25486,-0.90595 -4.6029,0.54017 -8.44514,3.19586 -10.59905,7.32586 -1.19894,2.29891 -1.34566,8.37472 -0.27554,11.41003 2.04901,5.81176 7.06035,10.62234 13.94654,13.38786 2.7298,1.0963 9.64287,1.62185 11.73593,0.89221 0.72176,-0.2516 1.2162,-0.30197 1.09874,-0.1119 -0.43941,0.71096 -4.32581,1.50644 -7.16491,1.46652 -3.41463,-0.0479 -6.89131,-0.97048 -10.47761,-2.78004 -3.37488,-1.7029 -8.09865,-6.45824 -9.71035,-9.77525 l -1.2244,-2.5199 -0.34729,2.48107 c -0.191,1.36459 -0.23848,2.91456 -0.10556,3.44438 0.36301,1.44632 5.46514,6.333 7.90099,7.56733 1.17658,0.59621 3.09892,1.71919 4.27187,2.49548 1.92428,1.27357 3.90058,1.90718 7.59239,2.43421 2.24713,0.3208 7.50477,-0.21364 9.7301,-0.98905 z m -43.3288,-1.91222 c 7.31426,-3.4602 10.92935,-14.21361 8.32412,-24.76083 -1.84388,-7.46492 -6.25217,-12.08463 -12.10831,-12.68904 -6.15676,-0.63543 -11.93171,3.44133 -14.46463,10.21115 -3.3621,8.986 -0.97589,20.51462 5.31271,25.66766 3.88973,3.18735 8.36952,3.7314 12.93611,1.57106 z m -6.92964,-1.88345 c -5.76845,-1.01299 -9.71122,-7.62498 -9.61774,-16.12888 0.0538,-4.90098 0.69554,-7.23263 0.75917,-2.75866 0.0503,3.54084 1.29116,9.27468 2.53431,11.71148 0.45339,0.8887 1.34536,2.23503 1.9822,2.99186 1.31113,1.55817 4.80975,3.34567 6.56046,3.35182 1.48784,0.005 3.97508,-1.02934 5.33556,-2.21932 0.76722,-0.67108 0.71141,-0.54097 -0.20426,0.47617 -2.044,2.27048 -4.3951,3.09437 -7.3497,2.57553 z m 10.5262,-14.91446 c -0.056,-5.34516 -2.0967,-10.2953 -5.5086,-13.36289 l -2.16856,-1.94973 h 1.24325 c 2.04833,0 3.95368,1.63861 5.55394,4.77639 1.30668,2.56215 1.47239,3.27363 1.61051,6.9145 0.0846,2.23216 -0.0391,4.53095 -0.27498,5.10843 -0.36291,0.88833 -0.43304,0.65946 -0.45556,-1.4867 z m 55.15367,-8.16268 c 7.21259,-1.18117 13.38544,-6.67429 15.87435,-14.12636 1.22073,-3.65496 1.30106,-10.26548 0.17512,-14.40911 -2.99281,-11.014 -12.99795,-20.22963 -23.77868,-21.90232 -5.41642,-0.84038 -11.28824,0.50622 -15.3873,3.52883 -3.79036,2.79498 -4.6964,4.3974 -5.16111,9.12788 -0.21407,2.17922 -0.70722,5.46762 -1.0959,7.30753 -0.8796,4.16403 -0.64987,6.61588 1.02606,10.95018 4.01117,10.37377 13.34713,18.36848 22.93512,19.64016 2.29812,0.3048 2.91981,0.29139 5.41234,-0.11683 z m -6.12137,-3.39098 c -1.31392,-0.19932 -3.70595,-1.02563 -5.31562,-1.83625 -8.80937,-4.43634 -14.57355,-12.97054 -15.0564,-22.29187 -0.10762,-2.07892 -0.0111,-4.53582 0.21586,-5.45978 l 0.41165,-1.67992 0.0422,2.43259 c 0.15619,9.00709 4.85052,18.10313 11.94704,23.14942 6.01313,4.2759 11.72601,5.41928 17.45853,3.49416 2.66261,-0.89417 2.96727,-0.9321 2.09992,-0.26147 -2.63235,2.03531 -7.66389,3.08105 -11.80317,2.45312 z m -0.30618,-4.84592 c -5.09646,-1.37025 -10.62455,-5.84611 -12.95298,-10.4875 -2.0083,-4.00328 -2.00098,-4.80961 0.017,-1.86498 4.67066,6.81564 12.80703,12.05062 18.99105,12.21894 l 2.09992,0.0571 -1.67994,0.34749 c -2.37821,0.49191 -3.86924,0.42948 -6.47498,-0.27111 z m 15.58228,-15.21145 c -0.68881,-3.29086 -2.2471,-6.4683 -4.90377,-9.99906 -3.7785,-5.02167 -9.2467,-8.01529 -15.43806,-8.4517 -1.79018,-0.12619 -3.25486,-0.36897 -3.25486,-0.53953 0,-0.47076 3.4916,-1.24981 5.6015,-1.24981 2.71047,0 6.8249,1.40894 9.78196,3.34971 5.26815,3.45757 8.6186,9.25235 9.24473,15.98923 0.32766,3.52541 -0.35701,4.12357 -1.0315,0.90116 z m -52.66927,18.99966 c 1.79361,-3.51074 6.48262,-6.5894 10.87125,-7.13773 l 2.21523,-0.27677 -0.61362,-1.18659 c -0.33748,-0.65264 -0.78408,-1.29195 -0.99243,-1.42072 -0.59313,-0.36658 -4.66885,0.52679 -6.5422,1.43402 -2.25908,1.09402 -5.83938,4.56053 -6.94151,6.72088 -0.77709,1.52321 -0.82632,1.9376 -0.39084,3.2891 0.7254,2.25123 0.93426,2.47279 1.24387,1.31952 0.15254,-0.56823 0.67016,-1.80199 1.15025,-2.74171 z m -86.17971,-3.35249 c 2.10046,-1.05251 2.68876,-1.61738 3.91449,-3.75857 0.79338,-1.38595 2.45096,-3.81561 3.68351,-5.39925 1.43149,-1.83928 2.48627,-3.72313 2.92006,-5.21529 l 0.67908,-2.33595 -1.52627,-2.82578 c -2.00195,-3.70646 -3.19372,-8.4594 -3.19571,-12.74476 -0.002,-3.62805 -0.53493,-5.0301 -2.84971,-7.4925 -0.83521,-0.88848 -1.47941,-1.15664 -2.79206,-1.16225 -3.31295,-0.0143 -7.58176,-1.22166 -11.80126,-3.33817 -2.31832,-1.16286 -4.4597,-2.11431 -4.75863,-2.11431 -1.01729,0 -5.104621,3.02467 -7.014282,5.19062 -3.746845,4.24973 -6.509239,11.69164 -6.466365,17.4204 0.0527,7.04145 2.868206,13.88769 7.699392,18.72196 4.850555,4.85366 9.119355,6.62894 15.425485,6.41501 3.0091,-0.10206 4.02198,-0.32875 6.08227,-1.36116 z m -12.04075,-2.64015 c -8.413061,-2.78112 -14.39732,-12.55658 -13.66832,-22.32755 0.209386,-2.80631 1.37584,-7.43094 1.773896,-7.03288 0.08381,0.0838 -0.04952,1.36975 -0.296197,2.85765 -0.570837,3.44266 -0.165575,8.59653 0.935434,11.89628 4.272367,12.80445 17.765307,17.85251 25.331827,9.47728 2.3484,-2.59941 4.42338,-7.83321 4.43586,-11.18879 0.003,-0.7371 0.19397,-1.45697 0.42496,-1.59973 1.08265,-0.6691 -0.0159,6.99423 -1.45435,10.15316 -1.30041,2.85411 -4.08602,5.828 -6.71845,7.17249 -2.83462,1.44776 -7.41422,1.69966 -10.76466,0.59209 z m 0.12286,-4.26612 c -2.84543,-1.29138 -5.32385,-3.58521 -6.70067,-6.20162 -1.994794,-3.79075 -2.056637,-4.7629 -0.11985,-1.88444 5.09221,7.56812 12.24459,9.48121 18.2639,4.88513 2.45202,-1.87227 1.97429,-0.57932 -0.60018,1.62434 -2.91027,2.49107 -7.39232,3.14276 -10.84319,1.57659 z m 14.0841,-17.25551 c -0.67351,-3.15844 -3.47104,-8.10968 -5.72933,-10.14007 -1.85585,-1.66856 -5.79334,-3.68532 -7.19518,-3.68532 -1.02956,0 -0.25053,-0.83075 0.99884,-1.06512 6.22377,-1.1676 12.87457,6.55635 12.37549,14.37234 l -0.12905,2.02215 z m 190.22051,24.04751 c 4.9208,-1.5361 8.88407,-5.02179 11.30644,-9.94404 5.14094,-10.44641 0.72438,-23.21061 -9.85551,-28.48321 -1.70572,-0.85006 -3.44396,-1.54557 -3.86278,-1.54557 -0.68306,0 -0.63106,0.27867 0.50498,2.70634 2.55134,5.45209 2.4011,11.86211 -0.41358,17.64476 -1.95392,4.01427 -4.62807,7.19421 -10.45161,12.42845 -2.36766,2.12808 -4.30483,4.00336 -4.30483,4.16733 0,0.43141 4.0512,2.571 6.05744,3.19915 2.59271,0.81178 8.14353,0.72454 11.01945,-0.17321 z m -140.55182,-3.12046 c 0,-0.21777 -1.01547,-1.84217 -2.25658,-3.60977 -1.2411,-1.76759 -2.77579,-4.25328 -3.41039,-5.52372 -0.6346,-1.27044 -1.2162,-2.37929 -1.29246,-2.46409 -0.20767,-0.23091 -2.65007,1.77688 -2.67694,2.20058 -0.0127,0.20156 1.07381,1.5392 2.41464,2.97257 1.34084,1.43335 3.17315,3.86301 4.0718,5.39923 1.54291,2.63757 1.67612,2.7549 2.39191,2.10713 0.41691,-0.3773 0.75802,-0.86417 0.75802,-1.08193 z m 31.97571,-3.07921 c 2.67077,-1.68525 5.962,-5.22255 7.87898,-8.46808 3.45868,-5.85568 4.92025,-12.73789 4.5627,-21.48467 -0.18124,-4.43367 -0.42669,-5.91754 -1.51581,-9.16363 -2.27897,-6.79247 -5.67426,-12.33049 -9.44562,-15.40664 -3.83361,-3.12693 -9.09682,-5.04841 -13.11759,-4.78898 l -2.01307,0.12984 -1.90719,3.14987 c -2.72504,4.50062 -6.37822,7.93744 -10.80727,10.16724 l -3.63681,1.83094 -1.26108,3.13555 -1.26108,3.13553 -0.0871,9.65959 c -0.0984,10.92542 0.11714,12.27771 2.77795,17.4293 1.66462,3.22277 4.19841,6.66648 5.53604,7.52413 0.555,0.35585 1.19627,0.3599 2.47479,0.0159 l 1.72567,-0.46467 -2.30589,-2.38258 c -2.92945,-3.02691 -3.76202,-4.26395 -5.12142,-7.60942 -1.85178,-4.55729 -2.47148,-8.64969 -2.25217,-14.87311 0.15908,-4.5145 0.40261,-6.15682 1.33795,-9.02319 0.6289,-1.92729 1.22117,-3.42645 1.31614,-3.33148 0.0949,0.0949 -0.14509,1.57735 -0.53335,3.29417 -1.06404,4.70432 -0.94448,13.85324 0.23837,18.24087 2.96632,11.00314 10.63091,17.49384 19.42744,16.45202 2.89433,-0.34278 6.80067,-2.54374 9.02437,-5.08459 3.40895,-3.89514 6.41314,-11.31585 7.27983,-17.98202 l 0.34129,-2.62502 0.0459,3.35985 c 0.14842,10.84829 -6.07784,21.49424 -14.03846,24.0036 l -2.29264,0.72268 1.31406,1.35576 c 1.28034,1.32098 1.35466,1.34143 2.89805,0.79689 0.87121,-0.30739 2.40883,-1.07932 3.41693,-1.71543 z m -13.96072,-5.76821 c -3.74543,-1.05607 -8.11739,-5.20158 -9.88748,-9.37535 -1.57053,-3.70323 -2.23392,-7.42565 -2.19737,-12.32985 l 0.036,-4.8298 0.59303,4.40982 c 0.32615,2.42541 0.88984,5.44928 1.25261,6.71972 1.75506,6.14608 5.48268,11.26538 9.50406,13.05234 4.56005,2.02632 10.64806,0.79142 14.08993,-2.85803 1.43117,-1.51748 1.45203,-1.5247 0.8082,-0.27967 -0.84286,1.62991 -3.76408,4.27768 -5.5365,5.01824 -2.06611,0.86327 -6.43211,1.10147 -8.66249,0.47258 z m 16.84356,-13.541 c 0,-0.85435 1.02504,-3.54438 1.35058,-3.54438 0.20771,0 0.31954,0.80159 0.2485,1.78129 -0.0941,1.29939 -0.32797,1.81903 -0.86411,1.92073 -0.40423,0.0767 -0.73497,0.006 -0.73497,-0.15763 z m 1.73232,-6.91527 c -0.0287,-0.12159 -0.24911,-1.78999 -0.48956,-3.70762 -0.55389,-4.41725 -2.16473,-9.60151 -4.03219,-12.97693 -2.36743,-4.27913 -5.13302,-6.69593 -10.02004,-8.75631 -0.64557,-0.27218 -0.36681,-0.38688 1.20451,-0.49563 5.46917,-0.3785 11.60483,5.92234 13.20258,13.55801 0.71927,3.43732 0.95818,7.8257 0.5602,10.28958 -0.20521,1.27046 -0.39667,2.21046 -0.4255,2.0889 z m -34.10191,26.91792 c 0.51875,-0.32831 0.51875,-0.48922 0,-1.20042 -2.59114,-3.55235 -4.25159,-6.1519 -5.42115,-8.48717 -0.75197,-1.50145 -1.43459,-2.80392 -1.51693,-2.89439 -0.23495,-0.25814 -1.82108,1.78434 -1.83667,2.3651 -0.0345,1.28075 6.92788,10.62508 7.89962,10.60243 0.1519,-0.003 0.54564,-0.17704 0.87513,-0.38555 z m 122.13876,-5.27778 c 5.62447,-5.17029 7.96818,-7.91732 9.49548,-11.12955 1.51087,-3.17765 1.93377,-7.19812 1.13336,-10.77477 -0.65186,-2.91279 -3.30696,-6.84958 -5.90666,-8.75794 -2.44484,-1.79469 -2.57504,-1.7561 -5.90033,1.74873 -4.03212,4.2498 -6.53672,8.51123 -7.7547,13.19416 -0.96281,3.70186 -0.6867,10.19666 0.57098,13.42997 1.10823,2.84914 3.30604,6.39146 3.85029,6.20567 0.21985,-0.0751 2.25005,-1.83735 4.51158,-3.91627 z m -0.84786,-3.00682 c -0.11635,-0.19417 -0.4368,-1.44828 -0.712,-2.7869 -1.26684,-6.1625 1.86072,-12.59665 7.39596,-15.21523 1.28098,-0.606 2.38172,-1.04069 2.44607,-0.96599 0.0643,0.0748 0.24567,1.02266 0.40293,2.10657 0.26748,1.84371 0.21003,2.01786 -0.89115,2.7014 -3.67602,2.28181 -5.31645,5.02249 -5.29048,8.8388 0.0167,2.45197 -0.0673,2.67431 -1.56102,4.1329 -0.86826,0.84783 -1.6739,1.38263 -1.79031,1.18845 z m 37.80037,1.05873 c 5.55779,-2.65521 9.77273,-9.78501 9.77273,-16.53115 0,-9.45765 -6.72117,-17.60639 -16.98235,-20.58939 -5.39643,-1.5688 -13.80376,-0.56552 -19.97614,2.38383 l -2.72988,1.30442 3.00641,0.52937 c 9.09359,1.60116 15.74764,5.80014 20.25939,12.78447 2.70355,4.1852 3.61309,7.62561 3.61309,13.66688 0,2.95703 -0.21424,5.62201 -0.51842,6.44863 -0.51784,1.40721 -0.51712,1.40851 0.62997,1.13031 0.63161,-0.15318 1.94796,-0.66051 2.9252,-1.12737 z m -179.73665,-1.00982 c 7.43231,-2.21572 12.67241,-10.50731 12.69041,-20.08053 0.0159,-8.04514 -3.71807,-14.87713 -9.85655,-18.03806 -2.30807,-1.18849 -2.88388,-1.30286 -6.65364,-1.32143 -4.11977,-0.0203 -4.12844,-0.0181 -5.00432,1.23962 -1.66056,2.38461 -5.63852,5.89829 -8.25875,7.29486 -2.14965,1.14575 -2.76154,1.71718 -3.37749,3.15413 -1.76149,4.10936 -2.21475,10.29354 -1.07513,14.66878 1.80775,6.94045 7.34917,12.7254 13.1494,13.72731 2.28233,0.39423 5.81113,0.12302 8.38607,-0.64468 z m -9.26736,-2.45213 c -4.17719,-1.55686 -7.25973,-4.89567 -8.68211,-9.4039 -1.05915,-3.35698 -1.45077,-7.39243 -0.92631,-9.54507 0.40015,-1.64237 0.41025,-1.61851 0.45149,1.06671 0.14492,9.43621 5.89003,16.76604 13.15089,16.77847 5.35985,0.01 9.51251,-2.90043 12.51259,-8.76705 1.84642,-3.61062 1.95611,-3.65885 1.00025,-0.43971 -1.83811,6.19042 -6.97224,10.44676 -12.9721,10.75427 -1.85826,0.0952 -3.52663,-0.0681 -4.5347,-0.44372 z m 15.50291,-18.91439 c -0.98231,-5.00178 -3.99009,-9.41254 -7.61529,-11.16749 -2.77892,-1.34525 -2.82621,-1.82424 -0.1581,-1.60118 2.94686,0.24637 5.37031,1.83593 6.79608,4.45763 1.56666,2.88073 2.09757,5.38858 1.66525,7.86582 l -0.36485,2.09057 z m 63.97953,-8.56783 c -0.0111,-0.15746 -0.86102,-0.68371 -1.88992,-1.16934 -2.11488,-0.99818 -2.2969,-0.74002 -1.24807,1.77021 l 0.62266,1.49026 1.26727,-0.90237 c 0.69698,-0.4963 1.25861,-1.03125 1.24806,-1.18876 z m 4.16139,-2.16531 c 0.36437,-0.19571 -0.16976,-0.49171 -1.46994,-0.81463 -4.33981,-1.0778 -7.72947,-4.9865 -7.68002,-8.85597 l 0.0241,-1.88993 0.53701,1.71532 c 0.86314,2.75702 1.98883,4.31505 4.23333,5.85923 4.8318,3.32421 10.00774,2.68922 15.09838,-1.85233 l 1.23569,-1.1024 -0.76508,1.25994 c -0.42078,0.69297 -1.26034,1.79331 -1.86566,2.4452 l -1.10058,1.18527 1.63745,-0.13525 c 2.05776,-0.17001 3.67167,-2.02696 5.09661,-5.86406 0.79919,-2.1521 0.99416,-2.42615 1.00376,-1.41094 0.006,0.69297 -0.47085,2.3939 -1.06089,3.77985 -1.7265,4.05534 -1.72514,3.98983 -0.0835,3.98983 1.22998,0 1.57029,-0.23118 2.31837,-1.57494 6.81496,-12.24149 -3.30955,-27.48327 -17.57791,-26.46237 -5.56925,0.39846 -11.36657,4.36701 -13.64292,9.33922 -1.68599,3.68271 -1.73467,4.92952 -0.27021,6.92088 l 1.25293,1.70372 0.2278,-2.51234 c 0.15826,-1.74593 0.62179,-3.1882 1.51929,-4.72785 1.41549,-2.42828 1.67826,-2.42712 0.64795,0.003 -2.28281,5.38403 -0.13286,15.29274 3.85251,17.75587 3.0648,1.89415 4.97556,2.24262 6.8315,1.24585 z m 11.9396,-16.44802 c -2.34107,-4.14815 -6.0232,-6.55317 -10.6794,-6.97537 -1.35439,-0.12286 -2.46253,-0.35571 -2.46253,-0.51754 0,-0.60612 2.21126,-1.26904 4.23308,-1.26904 4.67126,0 8.88234,3.39299 10.07129,8.11473 0.73876,2.93391 0.2741,3.19263 -1.16244,0.64722 z M 126.28898,132.1092 c 10.2452,-2.10709 17.30659,-10.46158 17.30659,-20.4758 0,-7.56302 -5.36084,-15.749677 -12.59948,-19.240945 -4.09503,-1.975075 -6.35487,-2.482864 -11.05482,-2.484007 -6.84705,-0.0016 -11.22496,1.743134 -15.8701,6.324981 -8.633249,8.515601 -8.322877,21.239471 0.72904,29.887401 5.88509,5.62245 13.26642,7.67943 21.48877,5.98837 z m -10.41228,-2.86847 c -5.51778,-1.64751 -9.34161,-4.48977 -12.27736,-9.12581 -2.15725,-3.40664 -3.09077,-10.30699 -1.85555,-13.71592 0.45452,-1.25437 0.50379,-1.01342 0.51528,2.5199 0.0159,4.63931 0.77437,7.22698 3.17564,10.82292 3.78372,5.66617 11.66107,9.33192 18.67554,8.69072 2.88867,-0.26406 6.15971,-1.39175 8.72563,-3.00817 l 1.73007,-1.08986 -1.81952,1.6831 c -2.6806,2.47961 -5.70607,3.50692 -10.77997,3.6604 -2.65912,0.0805 -4.89314,-0.08 -6.08976,-0.43728 z m -0.17646,-4.2287 c -1.59849,-0.56403 -3.5829,-1.56919 -4.40981,-2.23371 -1.87579,-1.50743 -4.5047,-4.92443 -5.07216,-6.59267 l -0.42857,-1.25995 1.14597,1.46995 c 4.32906,5.55292 10.57393,8.78424 17.10193,8.84915 2.04827,0.0203 2.70823,0.14143 2.12868,0.39047 -1.81488,0.77987 -7.43856,0.44499 -10.46604,-0.62324 z m 20.26244,-17.13277 c -1.3347,-2.71881 -4.34796,-6.11407 -6.96403,-7.84689 -3.37235,-2.233748 -7.0243,-3.094402 -12.16089,-2.865952 -4.30634,0.191512 -4.39254,0.177654 -3.42674,-0.550854 2.56248,-1.932884 8.56033,-2.351877 12.45932,-0.870368 5.58389,2.121697 9.43105,6.102114 10.80551,11.179734 0.41136,1.51967 0.66141,2.84954 0.55569,2.95528 -0.10571,0.10571 -0.67671,-0.7947 -1.26886,-2.00095 z m 38.06717,14.23423 c 2.22665,-1.10047 3.79521,-2.2946 5.78576,-4.40471 4.57539,-4.85016 6.44916,-10.03477 6.09057,-16.85222 -0.58719,-11.162831 -7.78688,-19.275454 -17.78724,-20.042662 -8.8455,-0.678618 -16.53752,4.931141 -19.70674,14.372047 -1.26455,3.767083 -1.27188,6.998595 -0.0303,13.402705 0.88852,4.58334 1.68414,6.19622 4.6218,9.36923 3.99369,4.31366 8.41653,6.09381 14.46625,5.82255 2.99561,-0.13429 3.9492,-0.37662 6.55997,-1.66694 z m -12.0799,-1.70378 c -3.6902,-1.31633 -7.64674,-4.91533 -9.34115,-8.49703 -1.26118,-2.66592 -2.27898,-6.84229 -2.28728,-9.38556 -0.008,-2.2137 1.34291,-7.406303 2.10969,-8.113763 0.41376,-0.381755 0.46614,-0.313436 0.24274,0.316578 -0.15667,0.441851 -0.50404,2.081506 -0.77192,3.643684 -1.36237,7.944681 2.90619,16.887591 9.54281,19.992851 2.12994,0.99658 3.03986,1.17465 5.87977,1.15066 3.78482,-0.0319 5.29995,-0.5533 8.31038,-2.85957 1.59544,-1.22223 1.87667,-1.33584 1.36183,-0.55009 -0.88858,1.35613 -4.01328,3.54094 -6.13472,4.28943 -2.17045,0.76578 -6.78268,0.7724 -8.91215,0.0127 z m 0.54485,-3.72099 c -2.28665,-0.71735 -5.99531,-4.68048 -7.07141,-7.55663 -0.49953,-1.33515 -0.90378,-2.9402 -0.89829,-3.56676 0.008,-0.89383 0.22123,-0.62555 0.99085,1.24563 1.8184,4.42112 5.5456,7.98908 9.99787,9.57079 l 2.23076,0.79249 -1.88991,-0.0127 c -1.03947,-0.006 -2.55141,-0.2197 -3.35987,-0.47333 z m 17.26217,-14.48075 c -0.0565,-1.81707 -1.50616,-6.065797 -2.72936,-7.999475 -2.29984,-3.635683 -6.64784,-6.53289 -10.62171,-7.077569 -3.20535,-0.439343 -1.67592,-1.554447 2.07525,-1.513065 4.02536,0.04445 8.32263,3.15807 10.37007,7.513833 1.25595,2.6719 1.9683,7.262986 1.40197,9.035566 l -0.45334,1.4189 z m -84.600722,20.34874 c 0.09461,-0.0946 -0.340182,-1.66132 -0.966227,-3.48154 -0.967736,-2.81365 -1.142946,-4.03314 -1.16947,-8.13931 -0.03841,-5.9443 0.998593,-9.56573 4.042216,-14.116323 4.425823,-6.617162 11.523083,-10.990433 19.095043,-11.766196 l 2.71056,-0.277705 1.48524,-2.354258 c 0.81689,-1.294838 2.54141,-3.43479 3.83225,-4.755454 l 2.347,-2.401196 -1.65323,0.229545 c -5.44096,0.755477 -12.43532,2.012282 -15.22535,2.735822 -5.40163,1.400825 -8.05241,3.671891 -14.179834,12.14857 -2.014679,2.787109 -4.494702,5.992449 -5.511153,7.122998 -1.988028,2.21116 -6.223503,5.559317 -8.297548,6.559237 l -1.277584,0.61592 1.259948,-0.92696 c 2.997352,-2.20517 6.947487,-6.987293 11.756879,-14.233119 2.836411,-4.273317 5.093953,-7.838522 5.016777,-7.922683 -0.195449,-0.213068 -11.298932,4.035946 -13.713271,5.247703 -2.877682,1.444334 -4.482448,3.00894 -7.606422,7.416053 -2.413211,3.404424 -7.703265,9.118356 -8.4419,9.118356 -0.138098,0 0.594775,-1.03861 1.628718,-2.30802 1.622433,-1.991897 6.529414,-9.81972 6.529414,-10.415987 0,-0.360881 -11.76345,5.981132 -16.799307,9.056993 -7.164666,4.376114 -7.111395,4.348124 -5.459771,2.867384 2.236605,-2.00521 14.325411,-10.089876 19.529193,-13.060593 2.540897,-1.45054 6.982217,-3.717717 9.869598,-5.038174 2.887382,-1.320442 5.249783,-2.561517 5.249783,-2.757934 0,-0.196417 -1.606432,-0.687238 -3.569857,-1.090707 -4.287618,-0.881067 -11.141182,-0.952259 -15.539358,-0.161416 -1.732435,0.311515 -3.209198,0.509979 -3.281692,0.441057 -0.244656,-0.232592 5.152003,-1.84531 7.663645,-2.290177 3.583413,-0.634697 10.550805,-0.54333 14.375333,0.188512 1.810501,0.346452 4.020835,0.629934 4.911871,0.629982 1.862644,7.9e-5 15.187608,-4.178378 14.677468,-4.602578 -0.18601,-0.154606 -2.2795,-1.178708 -4.65222,-2.275637 C 98.679675,70.19495 92.876992,68.63928 87.343822,68.148968 l -4.015771,-0.355865 5.697618,-0.05778 c 7.220381,-0.07318 9.088772,0.286451 17.763391,3.418917 l 7.0817,2.557262 4.25784,-0.714507 c 7.1153,-1.194011 10.74353,-1.546971 16.12236,-1.568464 2.82963,-0.01111 5.14479,-0.10778 5.14479,-0.214354 0,-0.559059 -10.70754,-8.045828 -13.22947,-9.250092 -3.38687,-1.617306 -4.96844,-1.757246 -14.27941,-1.263441 -3.59952,0.190909 -6.36838,0.152384 -7.13971,-0.09937 -1.1503,-0.375405 -1.05893,-0.414613 1.04996,-0.450613 2.16887,-0.03698 12.0626,-1.875788 12.51223,-2.325417 0.4147,-0.414707 -7.29731,-3.296438 -13.98217,-5.224655 -3.7183,-1.072531 -14.687212,-2.966462 -17.560021,-3.031955 -1.198535,-0.0273 -2.74614,-0.209576 -3.439108,-0.404978 -0.752509,-0.212195 1.784706,-0.284577 6.299726,-0.179702 7.497055,0.174115 12.219173,0.770557 18.195843,2.298257 2.62279,0.670428 3.0409,0.69373 2.83535,0.158099 -0.55733,-1.452397 -3.34387,-5.230433 -4.88404,-6.621892 -1.89439,-1.711467 -1.83603,-1.826104 0.35391,-0.695143 1.82709,0.943561 3.52593,2.525659 7.10951,6.62094 2.27871,2.604105 3.02782,3.157165 5.87976,4.340937 4.00541,1.662545 8.75295,4.019057 10.30304,5.114033 0.63523,0.448725 1.15499,0.661237 1.15502,0.472265 5e-5,-0.188973 -0.89767,-2.139016 -1.99491,-4.333429 -1.54055,-3.080989 -2.71249,-4.721374 -5.14486,-7.201349 -3.42892,-3.49603 -2.64995,-3.499427 1.80786,-0.0079 2.62158,2.053331 4.38683,4.268348 6.58215,8.259198 2.86268,5.204067 3.89499,6.514747 6.93044,8.799273 5.54618,4.174204 7.03992,4.921395 11.78165,5.893464 2.41814,0.495709 4.39661,0.828558 4.39661,0.739651 0,-0.08889 -0.54155,-0.951688 -1.20346,-1.91728 -1.79018,-2.611534 -3.11602,-5.397675 -5.75682,-12.097474 -1.30886,-3.320597 -2.75738,-6.793419 -3.21896,-7.717376 -2.44248,-4.889156 -7.52802,-11.024577 -12.36019,-14.911853 -1.72114,-1.384586 -3.02614,-2.517436 -2.89998,-2.517436 1.09592,0 6.98572,4.234903 9.92975,7.139713 5.32269,5.251782 7.19229,8.227657 11.08859,17.649865 2.61065,6.313155 4.94514,10.419627 7.60582,13.378946 2.71447,3.019146 4.45075,3.827672 8.24306,3.838513 1.68388,0.0048 4.24281,0.256276 5.68649,0.55879 1.82093,0.38158 2.62479,0.411057 2.62456,0.09619 -1.9e-4,-0.249593 -0.57391,-1.666259 -1.27496,-3.148165 -1.5265,-3.226722 -5.73397,-7.521023 -9.45891,-9.654086 -4.73145,-2.709424 -6.81108,-4.189203 -7.7598,-5.52155 -0.9256,-1.29987 -0.92756,-1.323553 -0.0719,-0.865575 0.48387,0.258958 1.00739,0.677333 1.16337,0.929703 0.15604,0.252371 2.76514,1.639116 5.79815,3.08164 3.14681,1.496652 6.55887,3.478537 7.94681,4.615879 2.11233,1.730943 2.40243,1.863899 2.20575,1.010927 -0.12461,-0.540186 -0.60867,-2.68309 -1.07576,-4.762009 -1.70542,-7.59039 -4.29713,-10.976607 -11.74888,-15.350577 -2.36048,-1.385538 -4.68391,-3.156816 -5.93159,-4.521973 -2.63041,-2.878079 -2.67158,-3.798147 -0.0562,-1.255488 1.32054,1.283806 3.72297,2.800221 7.1067,4.485718 2.81147,1.40046 5.23229,2.741251 5.37956,2.979574 0.1473,0.238307 0.44753,0.433295 0.66721,0.433295 0.70442,0 -3.39125,-7.612072 -6.81947,-12.674422 -1.82682,-2.697599 -5.53485,-7.327908 -8.24009,-10.289576 -4.83971,-5.298482 -4.87481,-5.35123 -2.18871,-3.288644 6.29191,4.831408 13.90368,13.549537 17.78748,20.372878 l 1.31479,2.309908 0.34219,-2.519897 c 0.41066,-3.024194 0.0727,-8.298088 -0.75372,-11.759514 -0.83719,-3.506807 -0.75422,-3.716605 0.41522,-1.049959 1.55106,3.536903 2.24532,7.583834 2.48567,14.489399 0.20655,5.934496 0.31456,6.579764 1.86304,11.129547 0.90407,2.656392 1.97382,6.341743 2.37724,8.189657 0.40341,1.847929 0.85323,3.586222 0.99961,3.862878 0.37454,0.707873 4.50623,-8.555649 5.5379,-12.416337 0.47154,-1.764547 0.97759,-5.377611 1.12551,-8.03586 0.21539,-3.870656 0.33098,-4.496178 0.582,-3.149863 0.54223,2.908128 0.38794,9.357127 -0.30436,12.722186 -0.36631,1.780436 -1.47162,5.410563 -2.45625,8.066955 -2.26379,6.107373 -2.75752,8.139053 -2.75752,11.347298 0,2.262701 0.13318,2.686663 1.09564,3.488887 0.6026,0.502249 1.83604,1.553907 2.74098,2.337019 0.90495,0.783113 1.70033,1.350094 1.76752,1.259949 1.07158,-1.437698 5.27822,-9.540893 6.03422,-11.623622 1.25693,-3.462838 2.21281,-7.933175 2.2477,-10.511835 0.0238,-1.763943 0.0716,-1.85885 0.46182,-0.917496 0.61458,1.482731 0.13175,7.933858 -0.89596,11.969502 -0.48576,1.907566 -1.98557,5.584536 -3.46979,8.506585 l -2.6142,5.1467 1.39368,2.53512 c 0.76653,1.3943 1.71447,3.672668 2.10654,5.063032 0.39207,1.390364 0.89477,2.561326 1.1171,2.602153 0.22234,0.04079 1.45178,-2.002187 2.73208,-4.539989 3.9658,-7.860936 5.40272,-13.776717 5.4272,-22.343588 0.0406,-14.213425 -5.4612,-26.498886 -16.56528,-36.990023 -10.54782,-9.965584 -24.34368,-16.075481 -40.92539,-18.125003 -1.94565,-0.240481 -3.6123,-0.362452 -3.7037,-0.271053 -0.0914,0.09143 0.51028,1.107754 1.33706,2.258574 3.29633,4.588244 6.23945,12.412115 6.86485,18.249148 0.39388,3.676192 0.79811,3.612619 -4.06341,0.639078 -3.52268,-2.154651 -6.62618,-3.510792 -10.84213,-4.73774 -3.4158,-0.994069 -9.78417,-1.837088 -9.78417,-1.295187 0,0.155083 0.44962,1.173312 0.99914,2.262843 1.29172,2.561057 3.62066,9.366731 3.62066,10.580393 0,0.724936 -0.16818,0.874178 -0.73497,0.652204 -6.83284,-2.675963 -12.19426,-3.683128 -19.84418,-3.727812 -9.187932,-0.05365 -15.249319,1.155026 -23.380403,4.662246 -3.726083,1.607178 -10.638203,5.49628 -10.638203,5.985576 0,0.14413 0.708714,0.599109 1.574939,1.011022 2.035934,0.968149 7.460863,4.75174 11.371569,7.931048 l 3.076893,2.501452 -3.959199,1.557289 C 71.249658,66.989371 61.294232,76.492501 54.402064,89.90348 c -2.554358,4.970331 -5.696808,13.3485 -6.374363,16.99491 l -0.303356,1.63247 1.439032,-0.26996 c 7.102157,-1.33238 14.808073,-1.04844 23.620965,0.87034 5.370166,1.16923 11.860611,1.50413 16.049751,0.82814 l 2.14627,-0.34634 -0.175703,2.23626 c -0.252958,3.21966 -0.943195,6.10889 -2.076791,8.69325 -0.544552,1.24144 -0.990086,2.35623 -0.990086,2.47728 0,0.24921 7.152587,-0.19751 7.418386,-0.46331 z M 207.48608,106.93963 c 2.39275,-0.22297 2.95226,-0.4401 3.98985,-1.54835 l 1.20682,-1.28903 -1.04996,0.24526 c -5.19854,1.2143 -11.09927,1.24843 -16.67884,0.0965 -1.43519,-0.29631 -2.71089,-0.43729 -2.83489,-0.31329 -0.12397,0.12397 -0.22546,0.64984 -0.22546,1.16852 0,0.77711 0.30369,0.99434 1.72594,1.23463 2.39027,0.40383 9.22382,0.92622 10.24357,0.78308 0.46198,-0.0649 2.09232,-0.23463 3.62297,-0.37726 z m 3.96458,-4.43473 c 1.37062,-0.2482 4.28746,-1.26595 6.48188,-2.26164 2.19441,-0.995701 4.78818,-1.942357 5.76393,-2.103694 0.97575,-0.161337 2.96018,-1.058055 4.40981,-1.992727 9.01647,-5.813382 15.8988,-15.391006 18.41251,-25.623327 0.90908,-3.700573 1.07845,-1.859279 0.20709,2.251685 -1.68303,7.940445 -7.74809,17.762979 -14.29693,23.154352 -2.10538,1.73326 -2.22067,1.914566 -1.36341,2.144365 1.83601,0.492138 2.93767,0.244878 4.53078,-1.016896 2.08284,-1.649639 6.74164,-7.238143 8.58256,-10.295274 3.11102,-5.166384 5.71114,-12.991446 6.48725,-19.523495 1.76225,-14.831581 -5.22823,-31.688714 -16.25982,-39.209658 -4.12464,-2.81203 -7.0588,-3.765432 -11.64397,-3.783512 -3.28426,-0.0127 -4.12314,0.142225 -6.39816,1.184074 -5.10728,2.338718 -8.23454,6.961963 -8.26567,12.219714 -0.0475,8.015288 6.79643,13.56622 14.19374,11.512285 2.16762,-0.601854 5.37423,-3.837513 6.04648,-6.101229 1.79065,-6.029784 -0.87049,-10.840827 -5.99638,-10.840827 -2.47133,0 -3.83252,0.716841 -5.43382,2.861635 -1.2153,1.62775 -1.1619,4.407351 0.11794,6.138389 0.90081,1.218408 0.91241,1.292505 0.13762,0.877813 -1.29487,-0.692999 -2.5395,-2.484626 -2.84044,-4.088804 -0.58706,-3.129292 2.31057,-7.48115 5.64677,-8.480695 7.34085,-2.199382 13.93829,2.941557 20.05629,15.62844 8.55106,17.732375 2.96654,37.836628 -13.56586,48.836902 -8.07515,5.373023 -19.12423,7.653754 -28.39099,5.860447 -2.83875,-0.549362 -2.8577,-0.54679 -3.68073,0.499537 -0.45501,0.57845 -0.72926,1.14977 -0.60943,1.2696 1.11077,1.11078 13.10331,1.70972 17.67103,0.88254 z m -67.65591,-9.3133 c 1.70271,-5.24456 5.70507,-10.654521 10.04418,-13.576649 1.83969,-1.238916 1.9905,-1.437698 1.09058,-1.437413 -1.36948,4.29e-4 -5.94631,2.181429 -8.13377,3.875975 -2.281,1.767007 -8.65994,7.937207 -8.65994,8.37655 0,0.363166 4.2191,4.782883 4.67647,4.898838 0.14667,0.03714 0.58878,-0.924608 0.98248,-2.137301 z m -2.76887,-9.008389 c 1.98865,-2.244288 4.56448,-4.613753 6.14584,-5.653427 1.72216,-1.132263 2.52969,-1.893422 2.19798,-2.071791 -0.60779,-0.326833 -6.25228,-1.07777 -10.81392,-1.438667 -3.85824,-0.305261 -7.13486,0.593521 -10.63606,2.917493 -2.30156,1.527684 -6.58323,5.803334 -6.58323,6.57397 0,0.212386 0.67141,0.386152 1.49202,0.386152 2.62622,0 7.02565,1.250741 10.2675,2.919032 2.92497,1.505208 3.19829,1.571321 3.82812,0.925894 0.37304,-0.382279 2.21884,-2.433689 4.10175,-4.558656 z M 292.05949,317.40642 c -1.15495,-0.54599 -2.5922,-1.53636 -3.19388,-2.20081 -1.96898,-2.17433 -4.69909,-6.05458 -4.44132,-6.31234 1.14131,-1.1413 9.47897,-1.27411 11.86804,-0.18904 4.47289,2.03147 5.19345,7.44291 1.21253,9.10625 -1.9723,0.82408 -3.01046,0.74705 -5.44537,-0.40406 z m 5.04462,-2.51732 c 0.52991,-0.80875 0.56058,-1.20373 0.16148,-2.07967 -0.73005,-1.60227 -2.77084,-2.38173 -6.2359,-2.38173 h -3.00278 l 1.17632,1.54295 c 2.76961,3.63283 6.5241,5.01967 7.90088,2.91845 z m -148.9385,-14.75228 c -2.40753,-1.30835 -3.15077,-5.54808 -1.66026,-9.47076 1.03523,-2.72453 3.7849,-6.36892 6.0405,-8.00609 l 1.75929,-1.27691 0.32012,2.6578 c 0.17607,1.4618 0.6013,4.03338 0.94496,5.71462 0.34366,1.68124 0.62484,3.70908 0.62484,4.50632 0,2.08305 -1.16776,4.70352 -2.5275,5.67175 -1.37579,0.97964 -3.90161,1.07296 -5.50195,0.20327 z m 4.36527,-2.62436 c 1.40706,-1.55478 1.63767,-3.01738 0.95147,-6.0344 -0.35593,-1.56491 -0.64716,-3.42221 -0.64716,-4.12733 0,-1.65004 -0.53757,-1.62245 -1.84742,0.0949 -3.54194,4.64371 -3.70942,10.8026 -0.29377,10.8026 0.64408,0 1.47067,-0.33107 1.83688,-0.73573 z m -17.18503,-12.28019 c -1.34506,-0.54281 -2.24984,-2.09602 -2.24984,-3.86223 0,-2.92156 3.24761,-5.38093 7.10552,-5.38093 1.88274,0 6.92619,1.19622 7.83008,1.85715 0.69933,0.51136 0.58579,0.73224 -1.52524,2.96712 -3.92399,4.1542 -7.90776,5.73154 -11.16052,4.41889 z m 6.30633,-3.08786 c 0.49139,-0.32644 1.45527,-1.11895 2.14197,-1.76115 1.1776,-1.1013 1.20145,-1.18603 0.41998,-1.49143 -0.4557,-0.17809 -1.96251,-0.33636 -3.34844,-0.35174 -3.06399,-0.034 -5.24978,1.06571 -5.24978,2.6412 0,2.27986 3.26896,2.80143 6.03627,0.96312 z m -34.71078,-66.5286 c -2.52425,-2.78927 -1.97784,-7.34132 1.45503,-12.1215 1.23996,-1.72663 1.4103,-1.83052 1.90096,-1.15952 1.91765,2.62255 2.91835,8.9405 1.76896,11.16844 -1.39784,2.70955 -3.71884,3.6663 -5.12495,2.11258 z m 2.90357,-3.32815 c 0.60577,-1.44983 0.51574,-4.66236 -0.1615,-5.76187 -0.42945,-0.69724 -1.75107,2.46078 -1.76883,4.22665 -0.0335,3.33294 0.87672,4.05686 1.93033,1.53522 z m -20.842175,1.01902 c 0.01429,-3.89456 2.246256,-8.83084 5.381214,-11.90086 3.269326,-3.20165 9.936851,-6.47338 13.192161,-6.47338 1.16304,0 1.21268,0.0717 0.94442,1.36493 -0.50752,2.44648 -2.18898,6.97554 -3.28256,8.84159 -1.65736,2.82805 -4.61015,5.88118 -6.885743,7.1197 -2.232335,1.21499 -6.294853,2.41296 -8.182768,2.41296 -1.042959,0 -1.171168,-0.15001 -1.166724,-1.36494 z M 97.568,209.88715 c 2.80963,-1.64656 6.29557,-6.04463 7.19284,-9.07497 0.23304,-0.78701 -0.57117,-0.20679 -3.21124,2.31683 -1.93719,1.85173 -4.179334,3.83234 -4.982543,4.40139 l -1.460381,1.03459 1.460381,-2.0423 c 0.803209,-1.12326 2.659281,-3.34014 4.124603,-4.92636 1.47911,-1.60115 2.39046,-2.88405 2.0488,-2.88405 -0.33848,0 -2.01052,0.91072 -3.715634,2.02384 -2.147095,1.40165 -3.589762,2.73463 -4.692516,4.33579 -1.566321,2.27421 -3.010337,6.00334 -2.588788,6.68544 0.302293,0.4891 3.612048,-0.57364 5.824478,-1.8702 z m 224.27465,-7.57201 c -1.64132,-0.71464 -3.01779,-2.45163 -3.35123,-4.22897 -0.24913,-1.32803 0.46107,-7.08622 1.08829,-8.82351 0.4773,-1.32206 1.24346,1.95768 1.24627,5.33502 0.003,3.37276 0.54434,4.72923 2.15425,5.39607 0.99422,0.41182 1.38448,0.37939 2.24877,-0.18691 2.18443,-1.4313 1.91645,-4.16698 -0.82461,-8.41799 -1.03327,-1.6025 -1.78726,-3.00503 -1.67551,-3.11678 0.3037,-0.30372 3.12045,2.08231 4.56467,3.86669 1.04069,1.28582 1.29671,2.03739 1.43529,4.21356 0.20557,3.22866 -0.52949,4.89506 -2.59071,5.87318 -1.73034,0.8211 -2.57501,0.83872 -4.29548,0.0897 z M 89.873148,197.1631 c -2.138587,-1.13405 -2.633677,-2.12517 -1.909995,-3.8236 0.426534,-1.00103 1.133517,-1.62369 2.560073,-2.25472 2.432688,-1.0761 5.024809,-0.86421 9.437541,0.77143 l 3.024673,1.12115 -1.21905,0.97369 c -4.113658,3.28567 -9.176103,4.65291 -11.893242,3.21205 z m 6.460111,-2.51845 c 0.816303,-0.38926 1.484191,-0.83813 1.484191,-0.99746 0,-0.38301 -2.228509,-0.81467 -4.205791,-0.81467 -1.955361,0 -3.940373,1.41061 -2.933922,2.08495 0.979244,0.65609 4.014644,0.50966 5.655522,-0.27282 z M 64.628416,138.54974 c -6.420205,-3.24726 -5.42423,-11.81854 1.712927,-14.7411 3.437187,-1.40746 3.464346,-1.21877 0.271324,1.88523 -2.556216,2.48495 -3.238691,3.41687 -3.479553,4.75131 -0.376755,2.08718 0.694951,4.25411 2.671122,5.40098 2.825237,1.63961 5.884701,-0.19029 8.080337,-4.83293 0.627236,-1.3263 1.26044,-2.29147 1.40711,-2.14478 0.593585,0.59358 0.240101,4.83203 -0.528599,6.33816 -0.982307,1.92466 -1.93636,2.80852 -3.931404,3.64209 -2.147904,0.89745 -4.015787,0.80743 -6.203264,-0.29896 z M 260.60232,98.384095 c -0.87239,-0.34223 -0.98263,-0.283768 3.63401,-1.927217 3.17638,-1.130723 4.10094,-3.230468 2.38372,-5.413548 -0.63201,-0.803478 -1.25726,-1.106596 -2.28255,-1.106596 -2.11161,0 -3.36457,0.617919 -5.73618,2.828888 -1.83094,1.706927 -2.09987,1.846644 -1.83045,0.950958 1.52583,-5.072446 7.06534,-7.859364 10.70471,-5.385516 3.6533,2.483309 3.02758,8.124925 -1.09206,9.846217 -1.47719,0.617204 -4.46282,0.724016 -5.7812,0.206814 z M 211.41804,86.105618 c 1.42065,-2.469975 1.8653,-4.243459 2.29013,-9.134344 0.19958,-2.297718 0.66035,-4.712914 1.03869,-5.444565 0.83532,-1.615321 2.62235,-2.58912 4.7513,-2.58912 6.02796,0 6.44098,9.177234 0.64271,14.281076 -2.09014,1.839819 -6.23012,4.034994 -8.40925,4.458892 l -1.37111,0.266721 z m 6.23247,-3.948928 c 2.08181,-1.589591 3.80136,-4.175696 4.27015,-6.422126 0.37632,-1.80331 -0.44692,-3.795576 -1.69817,-4.109615 -2.7902,-0.700301 -3.84908,0.841209 -4.3737,6.36722 -0.22059,2.323623 -0.52369,4.544275 -0.67354,4.934792 -0.41896,1.091801 0.34995,0.852526 2.47526,-0.770271 z m 44.56257,-27.326413 c -0.159,-1.060293 -0.19522,-3.847926 -0.0805,-6.194739 0.287,-5.871622 1.33109,-8.508363 4.69119,-11.847198 2.05497,-2.041966 5.65786,-4.389256 6.73714,-4.389256 0.42177,0 1.10372,1.746769 1.50214,3.847657 1.11358,5.871907 -2.21905,12.496513 -9.1716,18.231291 -1.52032,1.254027 -2.90484,2.28005 -3.07673,2.28005 -0.17189,0 -0.44263,-0.867511 -0.60163,-1.927805 z m 9.28861,-10.413118 c 1.25866,-2.512214 1.44858,-3.296898 1.44858,-5.984751 0,-1.996711 -0.16616,-3.093449 -0.46871,-3.093449 -1.02421,0 -4.56903,3.073163 -5.85324,5.074413 -1.45244,2.263447 -2.48545,5.830684 -2.48316,8.575031 0.001,1.663862 0.0184,1.645766 1.78423,-1.889915 1.70216,-3.408361 4.08101,-7.259287 4.08101,-6.606447 0,0.575425 -2.41883,7.292684 -3.1012,8.612221 -1.0701,2.069347 -0.81757,2.085046 1.23263,0.07651 1.0512,-1.029817 2.56314,-3.173467 3.35986,-4.763693 z m -1.91127,11.045656 c 0,-0.431724 1.71596,-3.31747 2.93232,-4.931315 2.6553,-3.522998 7.22319,-4.95749 9.17396,-2.880968 1.39432,1.484175 1.17581,3.063988 -0.68055,4.920346 -1.09037,1.090374 -2.31734,1.794691 -3.88483,2.230002 -2.50893,0.696777 -7.5409,1.138469 -7.5409,0.661935 z m 7.95559,-3.470934 c 2.15044,-1.041388 2.98837,-2.097093 2.2503,-2.835173 -0.27651,-0.276498 -0.9458,-0.369088 -1.55779,-0.215481 -1.19882,0.30088 -3.83207,2.465642 -4.48634,3.688161 -0.38236,0.714444 -0.30552,0.768778 0.75102,0.53098 0.64733,-0.145718 2.0166,-0.671523 3.04281,-1.168487 z"
       id="path11" /></g><metadata
     id="metadata182"><rdf:RDF><cc:Work
         rdf:about=""><cc:license
           rdf:resource="http://creativecommons.org/licenses/by-sa/4.0/" /><dc:publisher><cc:Agent><dc:title>OpenDataKerala.org</dc:title></cc:Agent></dc:publisher><dc:date>April 2026</dc:date><dc:title>Election Symbols of Kerala</dc:title><dc:creator><cc:Agent><dc:title>Manoj Karingamadathil</dc:title></cc:Agent></dc:creator></cc:Work><cc:License
         rdf:about="http://creativecommons.org/licenses/by-sa/4.0/"><cc:permits
           rdf:resource="http://creativecommons.org/ns#Reproduction" /><cc:permits
           rdf:resource="http://creativecommons.org/ns#Distribution" /><cc:requires
           rdf:resource="http://creativecommons.org/ns#Notice" /><cc:requires
           rdf:resource="http://creativecommons.org/ns#Attribution" /><cc:permits
           rdf:resource="http://creativecommons.org/ns#DerivativeWorks" /><cc:requires
           rdf:resource="http://creativecommons.org/ns#ShareAlike" /></cc:License></rdf:RDF></metadata></svg>
