<?xml version="1.0" encoding="UTF-8" standalone="no"?>
<!-- Created with Inkscape (http://www.inkscape.org/) -->

<svg
   width="1500"
   height="1500"
   viewBox="0 0 396.87499 396.875"
   version="1.1"
   id="svg5"
   xml:space="preserve"
   inkscape:version="1.3 (0e150ed6c4, 2023-07-21)"
   sodipodi:docname="Hand cart.svg"
   inkscape:export-filename="Ginger.png"
   inkscape:export-xdpi="96"
   inkscape:export-ydpi="96"
   xmlns:inkscape="http://www.inkscape.org/namespaces/inkscape"
   xmlns:sodipodi="http://sodipodi.sourceforge.net/DTD/sodipodi-0.dtd"
   xmlns="http://www.w3.org/2000/svg"
   xmlns:svg="http://www.w3.org/2000/svg"
   xmlns:rdf="http://www.w3.org/1999/02/22-rdf-syntax-ns#"
   xmlns:cc="http://creativecommons.org/ns#"
   xmlns:dc="http://purl.org/dc/elements/1.1/"><title
     id="title186">Election Symbols of Kerala</title><sodipodi:namedview
     id="namedview7"
     pagecolor="#ffffff"
     bordercolor="#000000"
     borderopacity="0.25"
     inkscape:showpageshadow="2"
     inkscape:pageopacity="0.0"
     inkscape:pagecheckerboard="0"
     inkscape:deskcolor="#d1d1d1"
     inkscape:document-units="mm"
     showgrid="false"
     inkscape:zoom="0.25"
     inkscape:cx="230"
     inkscape:cy="1078"
     inkscape:window-width="1920"
     inkscape:window-height="991"
     inkscape:window-x="-9"
     inkscape:window-y="-9"
     inkscape:window-maximized="1"
     inkscape:current-layer="layer1" /><defs
     id="defs2"><inkscape:path-effect
       effect="bspline"
       id="path-effect3248"
       is_visible="true"
       lpeversion="1"
       weight="33.333333"
       steps="2"
       helper_size="0"
       apply_no_weight="true"
       apply_with_weight="true"
       only_selected="false" /><inkscape:path-effect
       effect="bspline"
       id="path-effect577"
       is_visible="true"
       lpeversion="1"
       weight="33.333333"
       steps="2"
       helper_size="0"
       apply_no_weight="true"
       apply_with_weight="true"
       only_selected="false" /></defs><g
     inkscape:label="Layer 1"
     inkscape:groupmode="layer"
     id="layer1"><path
       style="fill:#000000;stroke-width:1.47803"
       d="m 11.301559,319.60659 c -1.7957777,-0.79268 -2.5452867,-1.8741 -2.6270897,-3.79046 -0.09196,-2.15429 2.2579087,-9.92284 3.4418187,-11.37847 1.546234,-1.90112 1.879854,-4.50355 1.492131,-11.63944 -0.19335,-3.55854 -0.3215,-8.88184 -0.284779,-11.82955 0.06475,-5.19741 0.116543,-5.50419 1.71309,-10.14588 1.446992,-4.20689 1.592655,-4.93483 1.203071,-6.01219 -0.362181,-1.00161 -0.294414,-1.79235 0.370527,-4.32345 0.688952,-2.62249 0.768952,-3.66752 0.521541,-6.81274 -0.16073,-2.04331 -0.286115,-4.24303 -0.278631,-4.8883 0.02866,-2.47161 0.886222,-13.33538 1.114713,-14.12147 0.131943,-0.45395 -0.03973,-1.76696 -0.381491,-2.9178 -1.588237,-5.34817 -1.111168,-12.67874 1.215625,-18.67915 1.034168,-2.66695 1.136281,-3.53206 0.700854,-5.93763 -0.206062,-1.13841 0.02343,-1.8827 1.326345,-4.30168 0.866536,-1.60881 1.828728,-4.06896 2.138204,-5.467 0.309476,-1.39806 1.033199,-4.3017 1.608273,-6.45255 1.328836,-4.97 1.729474,-10.19112 1.766639,-23.02286 0.03203,-11.05941 0.446603,-14.84978 2.208229,-20.18955 1.676989,-5.08324 5.350443,-9.5867 10.844115,-13.29434 2.174552,-1.46759 2.985891,-2.87299 3.274847,-5.67269 0.198504,-1.92332 0.07819,-2.31257 -1.773085,-5.73653 -1.09232,-2.02024 -2.453919,-5.3043 -3.025774,-7.2979 -0.902657,-3.14682 -1.020789,-4.17834 -0.896006,-7.82399 0.129919,-3.79577 0.266309,-4.44829 1.41934,-6.79042 0.701583,-1.425117 1.923879,-3.160317 2.716214,-3.855997 4.373755,-3.8402 11.966247,-5.00713 21.574128,-3.31583 6.240149,1.09848 8.988402,3.10625 9.324832,6.812367 0.132727,1.46248 -0.01611,2.0481 -0.780032,3.06736 -0.928913,1.23948 -0.935121,1.30247 -0.386106,3.91062 0.448125,2.12884 0.466866,3.01658 0.09519,4.50809 -0.447149,1.79429 -0.41475,1.94472 0.955947,4.43838 1.581022,2.87633 1.552703,3.76149 -0.148453,4.6412 -0.836936,0.4328 -1.153471,0.94489 -1.352193,2.18761 -0.142778,0.89239 -0.51839,2.12325 -0.834866,2.73525 -0.316462,0.61199 -0.575398,1.88608 -0.575398,2.8313 0,2.21734 -0.874744,3.02328 -3.775013,3.47809 -1.218002,0.19099 -2.380209,0.44966 -2.582684,0.57479 -0.497151,0.30727 -2.636056,4.86901 -2.63644,5.6229 -1.78e-4,0.3307 0.901185,1.47455 2.003014,2.5419 2.207796,2.13867 4.644392,5.66698 6.601646,9.55954 1.712256,3.4053 3.001396,5.02729 8.7053,10.95295 3.3614,3.49207 5.201684,5.11347 5.991367,5.27875 0.626878,0.13124 3.33951,1.0354 6.028066,2.00938 18.411735,6.66993 17.376755,6.3527 21.620545,6.6267 5.51509,0.35609 8.40895,1.68674 9.89976,4.55212 0.59544,1.14444 1.87626,1.61531 5.63064,2.07001 1.18297,0.14322 3.47068,0.58855 5.08382,0.98954 2.87188,0.71386 24.72035,5.09967 32.06713,6.43707 2.04331,0.37196 5.86011,1.18401 8.48177,1.80453 4.84654,1.14713 6.03486,1.13012 7.03778,-0.1008 0.91234,-1.11973 8.46766,-30.78274 9.2986,-36.50734 0.7449,-5.13179 1.5112,-7.64432 2.79781,-9.17336 1.40688,-1.67198 2.76837,-1.80517 6.91938,-0.6769 8.40413,2.28433 14.73081,3.55139 15.82378,3.16907 1.11117,-0.38867 1.44105,-1.37576 3.72482,-11.14539 0.33108,-1.41631 1.16296,-4.38083 1.84862,-6.58781 1.71675,-5.52586 1.6056,-5.48465 10.62011,-3.93792 7.84688,1.34638 9.51505,1.77068 10.93811,2.78208 0.57092,0.40575 1.5388,0.74155 2.15085,0.7462 1.51865,0.0118 7.73463,1.40959 8.79823,1.97881 0.47437,0.25387 2.54678,0.50151 4.60534,0.55031 2.87668,0.0681 5.28127,0.47153 10.39089,1.74289 3.65643,0.90978 8.0189,1.89569 9.69437,2.19088 1.67548,0.2952 3.52324,0.87452 4.10616,1.28738 1.14548,0.81134 6.05309,2.13087 10.44535,2.8085 1.5056,0.23227 3.68259,0.85331 4.83778,1.38008 1.48846,0.67875 2.78839,0.95777 4.46222,0.95777 1.34901,0 4.84484,0.59203 8.15189,1.38054 8.57855,2.04543 10.11761,2.57621 11.03575,3.80595 0.89526,1.1991 0.91682,1.02436 -1.50783,12.21579 -1.61168,7.43898 -1.58858,7.07027 -0.48826,7.79124 0.53176,0.3484 3.41161,1.15926 6.39971,1.8019 6.54165,1.40689 7.69423,1.88603 8.35097,3.47154 0.41825,1.00975 0.39871,1.61645 -0.11839,3.67489 -0.34061,1.35601 -1.07917,4.65554 -1.64121,7.33227 -0.56205,2.67674 -1.60696,7.15452 -2.32203,9.95061 -0.71508,2.7961 -2.13594,9.18813 -3.15748,14.20452 -1.82408,8.95737 -1.84404,9.13388 -1.11455,9.85828 0.51082,0.50726 2.39139,1.05471 6.02212,1.75308 7.22541,1.38981 14.39372,2.91144 23.65929,5.02223 4.3017,0.97997 10.02099,2.22029 12.70954,2.75628 19.16878,3.8215 21.20801,4.35659 23.00688,6.037 2.38344,2.22646 2.10458,4.96681 -0.60109,5.90666 -1.52403,0.5294 -2.00198,0.48537 -7.42237,-0.6837 -3.1864,-0.68724 -8.43312,-1.6957 -11.65938,-2.24102 -3.22626,-0.54532 -9.82546,-1.79275 -14.66484,-2.77208 -10.40181,-2.10495 -23.58987,-4.43523 -23.82628,-4.21001 -0.57917,0.55175 4.6635,2.75589 10.06155,4.23011 1.87085,0.51093 5.99471,1.54378 9.16413,2.2952 3.29456,0.78111 7.06297,1.96896 8.7989,2.77354 2.08282,0.96536 4.87848,1.782 8.90229,2.60046 20.68576,4.20756 21.29381,4.38754 22.66514,6.70904 0.88083,1.49112 0.61263,3.94299 -0.56888,5.20065 -0.91353,0.97241 -3.30259,1.742 -4.76331,1.53441 -0.49958,-0.0709 -2.93206,-0.41573 -5.40553,-0.76605 -2.47348,-0.35034 -6.03517,-0.9742 -7.91488,-1.38638 -3.94893,-0.86589 -6.53823,-0.95703 -7.40294,-0.26058 -0.33379,0.26887 -1.14175,1.28074 -1.79545,2.24862 -0.65373,0.96787 -1.73415,2.2767 -2.40096,2.90849 -1.04911,0.99403 -1.51513,1.14985 -3.46084,1.15715 -4.9702,0.0186 -21.50988,-2.79025 -39.00838,-6.62477 -5.7231,-1.25412 -8.89731,-1.3847 -10.66946,-0.43894 -1.50648,0.80399 -2.49382,0.88058 -6.01241,0.46645 l -2.60361,-0.30644 -0.69307,1.32126 c -0.38117,0.7267 -1.15041,2.54953 -1.70938,4.05075 -1.39696,3.75178 -2.7548,4.70734 -6.0775,4.277 -1.29052,-0.16714 -4.67857,-0.33823 -7.529,-0.38021 -4.18779,-0.0616 -5.71893,-0.24877 -7.97651,-0.97469 -2.50885,-0.80669 -2.89626,-0.8409 -3.79719,-0.33522 -0.6289,0.35299 -1.10273,1.04935 -1.26978,1.86614 -0.14662,0.71665 -0.88463,1.94544 -1.64014,2.73066 -1.0016,1.04098 -1.54644,2.11612 -2.0116,3.96957 -0.83168,3.31387 -1.52663,3.9638 -4.80229,4.49121 l -2.64958,0.42662 -0.88938,2.64689 c -0.48917,1.45578 -0.78674,2.81296 -0.66128,3.01595 0.12548,0.20299 2.03185,0.36908 4.23643,0.36908 2.86532,0 4.2248,0.15976 4.76744,0.56026 0.49937,0.36858 0.6253,0.68789 0.36803,0.93328 -0.58623,0.55918 -5.16792,1.24389 -8.32331,1.24389 h -2.78435 l -1.19402,1.73545 c -0.6567,0.95448 -1.0611,1.81607 -0.89867,1.91463 0.16244,0.0986 3.7618,0.11735 7.99857,0.0417 6.36946,-0.11366 8.16379,-0.27642 10.36316,-0.94021 3.69385,-1.11482 7.66085,-1.54019 12.14156,-1.30195 2.09798,0.11159 6.01422,10e-4 8.70278,-0.24494 2.68855,-0.24626 7.79193,-0.62089 11.34082,-0.83252 3.54889,-0.21162 8.95522,-0.6459 12.01405,-0.96508 8.13144,-0.84845 13.40503,-0.76535 13.40503,0.21126 0,0.45182 -2.68996,0.97139 -10.94977,2.115 -13.27432,1.83791 -22.53901,2.51792 -43.21241,3.17176 -3.44137,0.10878 -6.96093,0.36003 -7.82126,0.55823 -2.01486,0.46415 -6.95296,1.06635 -13.03603,1.58972 -4.41596,0.37994 -4.98559,0.52086 -6.7388,1.66702 -1.05331,0.68861 -1.91825,1.34871 -1.92213,1.46691 -0.004,0.11824 5.18434,0.15422 11.52934,0.0801 6.93639,-0.0811 11.53633,0.0103 11.53633,0.22829 0,0.57206 -1.50853,0.83435 -4.83183,0.84012 -1.68963,0.003 -4.06533,0.2567 -5.27934,0.56391 -4.11533,1.04141 -9.31923,1.40144 -24.35642,1.68514 -16.69914,0.31502 -40.57321,0.27625 -40.91593,-0.0665 -0.75455,-0.75456 3.06503,-1.29181 12.81349,-1.80231 4.19416,-0.21963 8.24166,-0.53561 8.99445,-0.70217 l 1.36872,-0.30283 -2.73743,-1.76928 -2.73744,-1.76926 -6.06148,0.29548 c -17.09911,0.83357 -19.66206,0.87587 -19.47728,0.32151 0.29088,-0.87263 4.33701,-1.49707 12.43815,-1.91955 8.25753,-0.43066 9.90751,-0.70244 10.09248,-1.66238 0.0662,-0.34361 -0.38765,-1.19335 -1.00858,-1.88827 -1.10226,-1.23366 -1.19989,-1.26165 -4.12905,-1.18413 -1.65005,0.0436 -4.01184,0.25354 -5.24842,0.46637 -5.089,0.87588 -6.8902,1.09201 -14.17575,1.70105 -4.19414,0.3506 -9.20953,0.92859 -11.14528,1.28439 -2.48895,0.45748 -5.40903,0.62855 -9.9721,0.58417 -10.36985,-0.10095 -13.76853,-0.76319 -7.43019,-1.44796 1.39804,-0.15104 6.06147,-0.78602 10.36316,-1.41106 4.30168,-0.62505 8.96142,-1.13693 10.35493,-1.13754 1.39354,-6e-4 6.05695,-0.43204 10.36317,-0.95872 4.30622,-0.5267 10.0858,-1.07309 12.84352,-1.21419 3.8126,-0.19507 5.06552,-0.39063 5.22879,-0.81613 0.1181,-0.30775 -0.278,-2.0051 -0.88022,-3.77186 -0.96035,-2.81747 -1.10349,-3.85192 -1.16446,-8.41617 -0.043,-3.22322 -0.23595,-5.3703 -0.50678,-5.64113 -0.24048,-0.24049 -1.26314,-0.89037 -2.27257,-1.44419 -3.51946,-1.93096 -4.01572,-3.57602 -2.5299,-8.38654 0.92775,-3.00371 0.74552,-3.77394 -1.1213,-4.7393 -0.62819,-0.32486 -2.0748,-0.59305 -3.21467,-0.59599 -2.6409,-0.007 -3.83229,-0.32945 -3.83229,-1.03787 0,-0.82352 -2.04528,-1.54966 -9.25411,-3.28548 -7.34233,-1.76796 -8.78211,-2.38892 -10.85252,-4.68061 -2.51374,-2.78241 -2.69574,-3.61672 -1.7907,-8.20845 0.97596,-4.95158 0.97259,-5.15772 -0.0999,-6.10321 -1.32951,-1.172 -2.86869,-1.70705 -4.91079,-1.70705 -1.17464,0 -4.18238,-0.76701 -8.29168,-2.11447 -3.62848,-1.1898 -9.86873,-2.82297 -14.26967,-3.73459 -19.78035,-4.09729 -17.8642,-3.55587 -19.51096,-5.51294 -0.86294,-1.02554 -1.01984,-1.59111 -1.01984,-3.67603 0,-1.67563 -0.18146,-2.61463 -0.56716,-2.93473 -0.31193,-0.25887 -1.76376,-0.64402 -3.22626,-0.85586 -8.35289,-1.20994 -11.33006,-2.25864 -12.97661,-4.571 -0.66499,-0.93389 -1.29014,-1.20504 -4.017008,-1.74226 -3.554978,-0.70036 -4.919764,-1.47283 -5.805223,-3.28569 l -0.586602,-1.20098 -5.474868,0.20208 c -6.554719,0.24192 -10.502779,-0.23199 -15.638957,-1.87726 -4.738808,-1.51797 -4.783873,-1.48766 -5.305559,3.56906 -0.209053,2.02638 -0.464427,3.95168 -0.567505,4.27844 -0.521095,1.6521 -1.333688,9.73588 -1.154314,11.4833 0.150818,1.46934 0.01182,2.41636 -0.523475,3.56508 l -0.728847,1.56426 1.302871,2.7264 c 0.716564,1.49952 1.302856,3.22981 1.302856,3.84508 0,1.05598 1.313616,4.45298 3.308545,8.55587 1.027661,2.11356 3.304156,9.17368 4.516394,14.00681 0.45856,1.82823 1.365052,4.79116 2.01444,6.58433 0.649403,1.79315 1.441554,4.78479 1.760366,6.64807 1.07348,6.27391 1.080146,6.54663 0.194952,7.97889 -0.544167,0.88049 -1.214366,3.58684 -2.015903,8.14051 -0.660399,3.75183 -1.620573,8.22933 -2.133717,9.95001 -1.287987,4.3188 -2.924937,10.57107 -3.363632,12.84718 -0.534885,2.77529 -0.186424,3.67966 1.627122,4.22302 0.923726,0.27675 1.916091,0.97096 2.520222,1.76303 0.548084,0.71857 1.333008,1.3065 1.74427,1.3065 0.411263,0 1.640675,0.35195 2.73201,0.78212 1.40688,0.55454 2.906403,0.78213 5.153234,0.78213 2.491622,0 3.540774,0.1857 4.908589,0.86881 1.964039,0.9809 2.643949,2.03234 3.045442,4.7097 0.546783,3.64617 -1.467701,4.93794 -9.239816,5.92498 -4.673257,0.59351 -15.422159,1.54394 -23.301682,2.0604 -5.689447,0.37289 -7.158025,-0.7112 -7.158025,-5.28406 0,-2.88741 1.960439,-9.46805 3.292097,-11.05064 1.561161,-1.85533 1.799209,-5.36681 1.230483,-18.15105 -0.324674,-7.29823 -0.31218,-7.50103 0.703505,-11.41891 l 1.03405,-3.98872 -0.94573,-1.39361 c -0.520153,-0.76649 -1.061741,-2.05118 -1.203528,-2.85488 -0.45497,-2.5789 -1.502469,-4.12041 -4.501939,-6.6251 -1.760725,-1.47028 -3.948916,-3.85166 -5.474878,-5.95821 -1.398049,-1.92999 -2.676739,-3.51665 -2.841532,-3.52594 -0.337185,-0.0189 -0.65545,0.64935 -3.365042,7.0663 -1.054662,2.49768 -2.047263,5.48931 -2.205779,6.64805 -0.417678,3.05325 -0.790046,3.7796 -2.2504,4.38978 -1.630509,0.68127 -1.993681,1.79218 -2.833282,8.66681 -0.741113,6.06821 -1.22628,8.05303 -3.56496,14.58426 -1.350523,3.77161 -1.83067,5.73632 -1.99271,8.15396 -0.198939,2.96819 -0.153148,3.23452 0.672367,3.91063 0.487213,0.39904 1.665425,1.38544 2.618246,2.19202 0.952822,0.80656 1.941673,1.46723 2.197448,1.46816 0.255774,9.2e-4 1.256945,0.5281 2.224826,1.1715 1.500138,0.99725 2.134822,1.17031 4.301689,1.17299 3.914889,0.004 6.085313,1.68485 6.538132,5.06087 0.482096,3.59429 -1.786452,4.61205 -11.426415,5.12639 -3.656436,0.19508 -8.143881,0.53315 -9.972099,0.75127 -4.643298,0.55395 -10.504258,0.48222 -11.927412,-0.14603 z m 10.371022,-4.17683 c 2.475042,-0.68932 3.556899,-0.77672 7.031269,-0.56805 3.272789,0.19655 4.921866,0.0875 8.125306,-0.53762 2.210531,-0.43134 4.1826,-0.88525 4.382375,-1.00871 0.628109,-0.38819 -0.0037,-1.28824 -1.35398,-1.92903 -1.608669,-0.76336 -2.885071,-0.78637 -3.692718,-0.0665 -1.074239,0.95743 -2.524954,0.9273 -2.95873,-0.0615 -0.404029,-0.92091 -1.157231,-1.15554 -1.569283,-0.48883 -0.132934,0.21509 -0.594323,0.39106 -1.025318,0.39106 -0.588194,0 -0.753116,-0.21944 -0.661281,-0.87989 0.09947,-0.71542 -0.04212,-0.85702 -0.757543,-0.75753 -0.508773,0.0708 -0.879892,-0.084 -0.879892,-0.36688 0,-0.7701 -1.704083,-3.07388 -2.275916,-3.07683 -0.283874,-0.001 -1.325107,0.5539 -2.313852,1.23418 -2.580229,1.77525 -4.890887,1.93187 -7.431509,0.50372 -2.098156,-1.17944 -3.230168,-1.09947 -3.230168,0.22818 0,0.45105 -0.180824,1.15797 -0.401829,1.57092 -0.762437,1.42463 -1.100927,4.23684 -0.563636,4.68276 0.41691,0.346 4.957931,1.72023 6.252672,1.89221 0.219407,0.0291 1.715223,-0.31362 3.324033,-0.76169 z m 40.467128,-0.52095 c 1.740959,-0.60336 7.940832,-1.52423 9.806508,-1.45658 0.860614,0.0312 1.521575,-0.28877 2.321767,-1.12399 1.270339,-1.32596 1.980134,-1.53789 1.377142,-0.4112 -0.588302,1.09926 -0.526047,1.19889 0.749126,1.19889 2.475955,0 10.346344,-2.04635 10.820393,-2.81336 0.152518,-0.24679 -0.189277,-0.84168 -0.771119,-1.34217 -0.950345,-0.81746 -1.381709,-0.89126 -4.759825,-0.81428 l -3.714769,0.0847 -0.875483,1.36717 -0.875482,1.36716 -0.121938,-1.69709 -0.121938,-1.69708 -1.344521,1.3844 c -0.73949,0.76143 -1.344522,1.56911 -1.344522,1.79487 0,0.54498 -1.448235,1.97469 -2.00028,1.97469 -0.444918,0 0.516912,-1.79467 1.362317,-2.5419 0.243343,-0.2151 0.467989,-0.95932 0.499205,-1.65385 0.05099,-1.13332 -0.02069,-1.2213 -0.699124,-0.85822 -1.675881,0.8969 -3.329223,-0.70928 -2.872171,-2.79023 0.22537,-1.02614 0.15033,-1.15025 -0.695488,-1.15025 -1.063844,0 -1.996852,0.86718 -2.57825,2.39637 -0.245117,0.64472 -1.064804,1.3528 -2.204914,1.90472 -2.323467,1.12476 -4.199593,0.90394 -6.65127,-0.78285 -1.006676,-0.69262 -1.974549,-1.10675 -2.153806,-0.92157 -0.497935,0.51437 -1.559351,4.96567 -1.559351,6.5395 0,1.12246 0.211688,1.51239 1.075422,1.98097 1.363578,0.73976 5.280226,0.77247 7.33243,0.0612 z m 15.341059,-0.0739 c -0.129919,-0.12992 -0.467236,-0.14381 -0.749525,-0.0309 -0.311968,0.12489 -0.219311,0.21749 0.236263,0.23626 0.412238,0.017 0.64321,-0.0754 0.513262,-0.2054 z m 8.513762,-1.53627 1.173188,-0.56406 -1.368717,0.24138 c -0.752792,0.13273 -1.720666,0.38337 -2.150848,0.55692 -0.706396,0.28498 -0.687462,0.31623 0.195544,0.32269 0.537708,0.004 1.505583,-0.24669 2.150833,-0.55693 z m -65.001609,-6.97239 c 2.383045,-1.00864 2.774213,-1.82231 2.490368,-5.18019 -0.286025,-3.38368 0.0011,-4.7885 2.668784,-13.0582 0.936676,-2.90364 1.920085,-6.68718 2.185353,-8.40784 0.265269,-1.72068 0.865011,-5.0212 1.332761,-7.3345 1.102354,-5.45178 1.168939,-5.37762 -5.160358,-5.74729 -2.532689,-0.14793 -4.731864,-0.20538 -4.887053,-0.1277 -0.485807,0.24321 -1.857476,3.65501 -2.86072,7.11554 -1.116411,3.85088 -1.161059,5.34875 -0.514353,17.25517 0.418386,7.70287 0.398026,8.66668 -0.237882,11.26158 -0.382485,1.56075 -0.630436,2.87341 -0.551,2.917 3.698125,2.02925 3.780412,2.04867 5.5341,1.30641 z m 43.396486,-1.57762 1.919521,-2.11025 0.117799,-3.85347 c 0.09814,-3.20696 0.422806,-4.90319 1.935572,-10.11046 2.700054,-9.29415 4.725121,-20.10262 3.917687,-20.91005 -0.245294,-0.24529 -1.119876,-0.18419 -2.47297,0.17275 -1.151402,0.30374 -3.52357,0.67295 -5.271476,0.82047 -1.747906,0.14751 -3.458389,0.41314 -3.8011,0.59024 -0.780283,0.40322 -2.165716,4.5605 -2.728418,8.18716 -0.30984,1.99696 -0.308643,3.68997 0.0044,6.16415 0.723748,5.72096 0.674485,14.75604 -0.09563,17.54574 -0.364839,1.32155 -0.663342,2.59629 -0.663342,2.83275 0,0.70164 3.164483,2.78121 4.232155,2.78121 0.695355,0 1.552525,-0.62249 2.905826,-2.11024 z M 234.56237,292.75417 c 7.85812,-1.45265 14.84664,-6.39133 18.14627,-12.8237 2.40892,-4.69598 3.23886,-9.73426 2.45982,-14.93262 -1.29746,-8.65766 -8.99632,-16.93154 -18.0282,-19.37465 -3.84958,-1.04132 -9.9148,-0.95876 -13.99019,0.19044 -3.24785,0.91583 -7.00067,3.00689 -8.49591,4.73387 -0.73451,0.84835 -0.66795,0.83719 1.09308,-0.18326 1.03137,-0.59764 1.96934,-0.99248 2.08441,-0.87743 0.11499,0.11499 -0.7288,0.94705 -1.87522,1.84888 -1.14643,0.90182 -2.58115,2.2369 -3.1883,2.96681 -1.40098,1.68431 -1.96308,1.70346 -1.64849,0.0562 l 0.24271,-1.27096 -1.20484,1.36871 c -1.37548,1.56258 -3.12908,5.04485 -3.12908,6.21371 0,0.43301 -0.2716,1.80772 -0.60355,3.05496 -1.32666,4.98446 -0.37878,11.66268 2.40805,16.96604 4.62012,8.7921 15.5933,13.93676 25.72944,12.063 z m 10.00808,-6.14409 c 0,-0.16753 1.14386,-1.43829 2.54191,-2.82391 1.39805,-1.38563 2.5419,-2.38367 2.5419,-2.21789 0,0.81376 -1.32293,2.67618 -2.79757,3.93842 -1.61613,1.38334 -2.28624,1.70676 -2.28624,1.10338 z m -17.23439,-5.68351 c -5.68847,-1.60221 -9.12193,-6.04977 -9.11352,-11.80525 0.006,-3.65978 1.14912,-6.25272 3.84159,-8.70901 2.76086,-2.51865 5.23943,-3.3693 9.1387,-3.13638 8.33797,0.49805 13.54002,8.05807 10.88763,15.8227 -1.91359,5.60182 -9.10737,9.41848 -14.7544,7.82794 z m 4.31145,-10.61054 c 1.1123,-1.34022 -0.42177,-3.60587 -1.83968,-2.71702 -1.39544,0.87476 -0.89348,3.28209 0.68436,3.28209 0.37751,0 0.89739,-0.25428 1.15532,-0.56507 z m -23.44589,-8.36877 c 0,-0.18173 0.35196,-0.64896 0.78213,-1.03825 0.62086,-0.56188 0.78211,-0.59051 0.78211,-0.13879 0,0.61338 -0.74223,1.50755 -1.25139,1.50755 -0.17207,0 -0.31285,-0.14871 -0.31285,-0.33046 z m 40.96381,-5.6202 c -0.74992,-0.93853 -0.87638,-1.70575 -0.33621,-2.03959 0.29803,-0.18421 1.60717,1.99249 1.60717,2.67223 0,0.49438 -0.61507,0.18822 -1.27096,-0.63264 z m -4.93199,-4.45776 c -1.31027,-0.91775 -0.44559,-1.66995 0.90353,-0.78599 1.06606,0.69852 1.3188,1.41785 0.49815,1.41785 -0.27476,0 -0.90551,-0.28434 -1.40168,-0.63186 z m -6.44193,-3.26766 c -2.90331,-0.92763 -3.31046,-1.36089 -0.99436,-1.05811 1.98751,0.25982 3.86268,0.98843 3.86268,1.5009 0,0.43872 -0.21149,0.40607 -2.86832,-0.44279 z M 64.290556,266.4026 c 4.182669,-0.63421 8.917413,-1.97656 9.730626,-2.75873 0.459875,-0.44232 0.4427,-1.00687 -0.114991,-3.77827 -0.360566,-1.79202 -1.079466,-4.18516 -1.597546,-5.31809 -1.17511,-2.56971 -2.286028,-6.50664 -3.336185,-11.82287 -0.448657,-2.27126 -1.403732,-5.41678 -2.137264,-7.03913 -0.72938,-1.61312 -1.444407,-3.37291 -1.588944,-3.91062 -0.512981,-1.90836 -1.760144,-3.51956 -2.724354,-3.51956 -1.225643,0 -1.58281,-0.66976 -0.811617,-1.52192 0.817308,-0.90311 0.789698,-1.08121 -0.208018,-1.34211 -0.619399,-0.16198 -0.759886,-0.39923 -0.548054,-0.9255 0.751505,-1.86701 0.691852,-3.58485 -0.166309,-4.79002 l -0.860259,-1.20813 -0.722491,0.88544 c -0.665041,0.81505 -0.744116,0.82989 -0.994494,0.18653 -0.165555,-0.42539 -0.02394,-0.97312 0.362014,-1.39952 0.348712,-0.38532 0.634017,-0.84885 0.634017,-1.03005 0,-0.72561 -1.353523,-1.76009 -2.309223,-1.76494 -0.558147,-0.003 -2.686605,-0.36812 -4.729908,-0.81175 -4.869315,-1.05723 -22.514573,-1.74298 -23.472693,-0.91222 -0.66652,0.57792 -1.290984,0.31044 -1.669337,-0.71503 -0.138876,-0.3764 -0.545212,-0.68436 -0.902973,-0.68436 -0.35776,0 -1.204373,-0.34233 -1.88136,-0.76073 -1.51222,-0.9346 -1.99167,-0.669 -2.768893,1.53389 -3.0658,8.68939 -2.488077,18.29214 1.288147,21.41122 l 1.055063,0.87146 -1.223525,-0.22649 c -0.808645,-0.1497 -1.33906,-0.0474 -1.56425,0.30172 -0.582554,0.90314 -1.51825,14.84963 -1.156695,17.24048 0.439553,2.90663 0.631554,2.95599 3.509348,0.90244 2.179277,-1.55509 2.623713,-1.74226 2.834269,-1.19355 0.308035,0.80272 -0.122396,1.23976 -3.550336,3.60486 -2.692265,1.85752 -2.720933,1.89623 -3.35935,4.53475 -0.63194,2.61176 -0.628914,2.67174 0.16278,3.22626 0.584565,0.40945 2.047983,0.57146 5.314665,0.58835 2.479384,0.0133 5.337533,0.15994 6.351441,0.32693 2.213079,0.36449 2.653753,0.0335 2.653753,-1.9927 0,-1.2961 -0.116632,-1.48605 -0.91248,-1.48605 -1.521035,0 -1.483601,-0.44007 0.137309,-1.61424 1.938116,-1.40397 3.338493,-3.60281 4.53504,-7.12079 1.762138,-5.18091 1.123892,-5.86553 -2.945513,-3.15956 -1.528476,1.01636 -2.886377,1.74062 -3.017557,1.60944 -0.131175,-0.13125 0.926799,-1.51531 2.351062,-3.07583 1.424264,-1.56054 2.58957,-3.03774 2.58957,-3.28269 0,-0.76172 -3.662731,-5.56246 -4.692753,-6.15079 -0.537711,-0.30714 -1.857548,-0.77038 -2.93297,-1.02944 -1.968318,-0.47413 -4.489587,-1.88942 -4.494549,-2.52295 -0.0015,-0.18765 0.217301,-0.1634 0.486156,0.0539 0.727792,0.58818 4.937846,1.83457 5.225433,1.54698 0.13688,-0.13687 -0.365988,-1.10471 -1.117484,-2.15073 -1.421943,-1.97925 -1.543444,-2.44771 -2.30455,-8.88552 -0.560617,-4.74201 -0.542358,-8.46646 0.04691,-9.56751 0.881527,-1.64715 1.198195,-0.31878 1.099026,4.61021 -0.08701,4.32456 0.01183,5.25678 0.77469,7.30368 1.288417,3.45723 3.91758,7.04868 8.207069,11.21083 l 3.809182,3.6961 5.865941,1.88111 c 6.062501,1.94413 6.323091,2.04722 5.997479,2.37284 -0.193919,0.19392 -5.425481,-0.37292 -7.463965,-0.80872 -1.687992,-0.36086 -1.359693,0.60347 1.366189,4.01297 5.037412,6.30073 9.962575,9.89502 14.703065,10.73005 4.030772,0.71 2.608151,1.79387 -1.74294,1.32791 -1.611942,-0.17262 -2.496667,-0.12593 -2.496667,0.13169 0,0.21952 0.175977,0.50788 0.391062,0.6408 0.215085,0.13288 0.391058,0.67926 0.391058,1.21406 0,1.02626 1.567971,2.89371 2.426367,2.8898 0.278639,-10e-4 2.178398,-0.2558 4.221704,-0.56562 z m 0.391058,-5.64409 c 0,-0.19035 0.458766,-0.64668 1.019473,-1.01408 1.341181,-0.87877 2.18326,-0.18329 0.881779,0.72831 -0.987917,0.69197 -1.901252,0.82925 -1.901252,0.28577 z M 47.288606,242.3486 c -0.139911,-0.22639 0.0099,-0.51302 0.332955,-0.63699 0.915171,-0.35118 4.675619,-0.0103 4.710437,0.42644 0.04254,0.53417 -4.720495,0.73301 -5.043392,0.21055 z M 34.190053,219.28326 c -1.006304,-0.64883 -0.04031,-0.99366 3.443055,-1.22908 3.747374,-0.25326 5.34453,-0.001 5.34453,0.84378 0,0.44217 -0.855052,0.57905 -4.106159,0.65733 -2.258387,0.0544 -4.36503,-0.068 -4.681426,-0.27203 z m 326.165027,34.81228 c 1.14127,-1.14124 1.45288,-2.13884 0.79513,-2.54536 -0.33664,-0.20806 -10.24639,-2.3346 -17.44537,-3.74362 -20.69125,-4.04979 -62.22432,-12.07815 -68.82704,-13.30429 -8.07663,-1.49984 -37.55844,-7.2633 -40.86604,-7.98898 -3.54366,-0.77748 -16.80711,-3.31279 -30.69842,-5.86801 -14.71513,-2.70677 -26.22959,-5.07449 -28.61323,-5.88375 -3.06967,-1.04219 -16.18913,-3.53614 -26.52662,-5.04261 -5.37711,-0.78359 -12.85618,-1.9797 -16.62015,-2.65802 -3.76398,-0.67832 -7.32754,-1.3104 -7.91902,-1.40464 -0.97816,-0.15585 -1.07543,-0.0621 -1.07543,1.03722 0,0.82482 0.27938,1.38836 0.8799,1.77484 0.94829,0.61029 14.50018,3.60137 18.67323,4.12142 1.39806,0.17423 5.50884,1.1259 9.13507,2.11484 3.62624,0.98893 8.99356,2.24692 11.92741,2.79549 2.93384,0.54859 7.53399,1.50864 10.22255,2.13345 12.06704,2.80434 15.87907,3.61547 22.29056,4.74305 3.76398,0.66197 7.98746,1.36776 9.3855,1.56841 1.39806,0.20066 5.79751,1.05962 9.77658,1.90881 3.97905,0.84919 8.46651,1.73549 9.97209,1.96957 1.5056,0.23406 4.84919,0.86469 7.43019,1.40138 2.58101,0.5367 7.33243,1.48326 10.55869,2.10347 3.22628,0.62022 8.41763,1.67334 11.53635,2.34029 5.18292,1.10838 19.68686,4.07489 37.15095,7.59855 10.00464,2.01858 19.62119,3.71505 23.63912,4.17021 1.93717,0.21944 6.60571,1.03588 10.37454,1.81428 12.77892,2.63936 30.3083,5.89231 32.00826,5.93982 1.38395,0.0387 1.90026,-0.16087 2.8352,-1.09582 z m -45.19781,-8.68964 c -3.31722,-1.09002 -4.49722,-1.6111 -4.49722,-1.98595 0,-0.455 2.35559,-0.25621 5.76816,0.48676 2.03181,0.44236 2.69048,1.22711 1.43451,1.70907 -0.78835,0.30252 -1.25665,0.26619 -2.70545,-0.20988 z m -31.08949,7.87743 c 0,-0.21508 -0.17598,-0.39105 -0.39106,-0.39105 -0.21509,0 -0.39107,0.17597 -0.39107,0.39105 0,0.21509 0.17598,0.39108 0.39107,0.39108 0.21508,0 0.39106,-0.17599 0.39106,-0.39108 z m 5.08381,-4.45162 c 0,-0.0825 -0.43462,-0.23303 -0.96582,-0.33457 -0.53121,-0.10154 -0.87277,-0.0341 -0.75905,0.14993 0.20026,0.32403 1.72487,0.48722 1.72487,0.18464 z m 97.21277,-0.18662 c -0.29718,-0.48085 -3.81501,-1.39578 -10.78791,-2.80578 -3.3338,-0.67413 -10.37293,-2.16564 -15.6425,-3.31445 -19.81677,-4.32031 -34.81547,-7.09551 -33.98987,-6.28914 0.0896,0.0875 3.24255,0.80204 7.00654,1.5878 7.98774,1.66748 22.63723,4.88331 34.02244,7.46854 13.17672,2.99201 19.88508,4.15198 19.3913,3.35303 z m -105.03402,-1.61875 c -0.53771,-0.17221 -1.41761,-0.32795 -1.95532,-0.3461 -0.76865,-0.026 -0.85225,0.048 -0.39105,0.3461 0.32262,0.20849 1.20251,0.36423 1.9553,0.34609 1.25412,-0.0303 1.28686,-0.0593 0.39107,-0.34609 z m -68.24044,-1.17319 c 0.13288,-0.21509 0.0658,-0.39106 -0.14937,-0.39106 -0.21508,0 -0.49983,0.17597 -0.63275,0.39106 -0.13287,0.21508 -0.0658,0.39106 0.14937,0.39106 0.21509,0 0.49983,-0.17598 0.63275,-0.39106 z m -39.55625,-10.37569 c -0.3102,-0.80838 -0.52768,-0.71312 -0.52768,0.23114 0,0.44286 0.16829,0.70119 0.37399,0.57407 0.2057,-0.12711 0.27486,-0.48947 0.15369,-0.80521 z m 7.68464,0.20805 c 0,-0.21508 -0.18636,-0.39106 -0.41414,-0.39106 -0.22778,0 -0.30538,0.17598 -0.17245,0.39106 0.13288,0.21509 0.31929,0.39108 0.41413,0.39108 0.0949,0 0.17246,-0.17599 0.17246,-0.39108 z m 46.1454,0 c 0,-0.21508 -0.53832,-0.39106 -1.19626,-0.39106 -0.69793,0 -1.0956,0.16291 -0.95458,0.39106 0.13288,0.21509 0.67125,0.39108 1.19626,0.39108 0.52502,0 0.95458,-0.17599 0.95458,-0.39108 z m -10.38271,-1.52305 c -0.53889,-0.50748 -3.21305,-1.01068 -2.71789,-0.51141 0.38782,0.39104 1.43155,0.72865 2.52235,0.81591 0.34886,0.0279 0.42409,-0.0893 0.19554,-0.3045 z m 97.74589,-0.94173 c 0.7091,-0.51851 2.18129,-5.75998 2.18713,-7.78685 0.003,-1.20569 -0.92617,-1.87131 -2.61356,-1.87131 -1.46104,0 -8.70716,-1.63036 -15.86015,-3.56848 -5.88273,-1.59396 -8.36922,-1.79802 -8.93405,-0.73321 -0.85692,1.61544 -2.29003,7.90991 -1.94689,8.55107 0.27674,0.5171 2.11528,1.04043 7.52949,2.14323 3.93984,0.80248 9.53906,1.96961 12.4427,2.59362 6.1755,1.32716 6.28524,1.3374 7.19533,0.67193 z m -1.32939,-3.59669 c 0,-0.32262 0.26396,-0.58658 0.5866,-0.58658 0.32263,0 0.58659,0.26396 0.58659,0.58658 0,0.32263 -0.26396,0.5866 -0.58659,0.5866 -0.32264,0 -0.5866,-0.26397 -0.5866,-0.5866 z m -111.84393,1.75979 c 0,-0.21508 -0.48394,-0.37353 -1.07542,-0.35208 l -1.07542,0.039 0.97765,0.31311 c 0.53772,0.1722 1.02166,0.33063 1.07543,0.35208 0.0538,0.0214 0.0977,-0.13701 0.0977,-0.35208 z m 164.53148,-0.23628 c -0.12992,-0.12991 -0.46724,-0.14381 -0.74954,-0.0309 -0.31195,0.1249 -0.2193,0.2175 0.23626,0.23627 0.41226,0.017 0.64323,-0.0754 0.51328,-0.20541 z m -5.45886,-1.15716 c -0.30971,-0.30971 -4.25258,-1.33376 -5.15686,-1.33937 -1.23897,-0.007 -0.3825,0.46145 1.81311,0.99309 2.24841,0.54444 3.69134,0.69387 3.34375,0.34628 z m -173.25678,-0.79814 c -0.12992,-0.12992 -0.46725,-0.14381 -0.74954,-0.0309 -0.31197,0.12489 -0.2193,0.21751 0.23626,0.23626 0.41226,0.017 0.64323,-0.0754 0.51328,-0.20538 z m -3.21812,-0.54587 c -0.13288,-0.21508 -0.41768,-0.39105 -0.63276,-0.39105 -0.21508,0 -0.28231,0.17597 -0.14937,0.39105 0.13287,0.21509 0.41766,0.39108 0.63274,0.39108 0.2151,0 0.28231,-0.17599 0.14939,-0.39108 z m 164.76819,-0.9772 c -0.10731,-0.1073 -0.97253,-0.35156 -1.92273,-0.54282 -0.9502,-0.19126 -4.19133,-0.91376 -7.20252,-1.60556 -9.64272,-2.21535 -14.44823,-3.09316 -14.84082,-2.71096 -0.20434,0.19891 -0.23987,0.36168 -0.0789,0.36168 0.25289,0 4.46012,0.87107 20.59022,4.26308 3.10608,0.65319 3.92934,0.70909 3.45484,0.23458 z M 281.9519,226.6345 c 0.56583,-0.91554 2.41172,-9.14546 2.12123,-9.45756 -0.16594,-0.17828 -0.99311,-0.41689 -1.83816,-0.53024 l -1.53646,-0.20607 -1.24833,4.24753 c -0.68659,2.33614 -1.24835,4.53985 -1.24835,4.8971 0,1.06222 3.19038,1.95485 3.75007,1.04924 z m -10.03977,-1.87024 c 0.58148,-0.36808 2.73622,-7.02774 2.75768,-8.52319 0.0104,-0.71713 -0.34627,-0.97052 -2.04062,-1.45023 -2.77843,-0.78663 -13.05605,-2.817 -16.91346,-3.34132 -6.72218,-0.9137 -7.95345,-1.13483 -11.80274,-2.1197 -2.18982,-0.56028 -4.33728,-1.01869 -4.77214,-1.01869 -0.85239,0 -0.96397,0.28208 -2.22134,5.61554 -0.66867,2.83635 -0.66912,3.00272 -0.0103,3.73078 0.4552,0.50299 1.64195,0.91605 3.49105,1.21511 3.9735,0.6426 27.59325,5.38439 29.00262,5.82241 1.54011,0.47867 1.84896,0.4872 2.50919,0.0693 z m -30.47019,-1.20169 c 0,-0.21508 -0.39595,-0.38836 -0.87988,-0.38507 -0.71151,0.004 -0.76765,0.0785 -0.2933,0.38507 0.75818,0.48997 1.17318,0.48997 1.17318,0 z m 76.1948,-2.46668 c 0.23343,-0.28126 0.86768,-2.61297 1.40947,-5.18159 2.32172,-11.00738 2.99799,-14.32909 3.16068,-15.52444 0.095,-0.69779 0.28027,-1.90784 0.41178,-2.68899 0.16517,-0.98115 0.0764,-1.52161 -0.28712,-1.74794 -0.28943,-0.18019 -2.72595,-0.7893 -5.41451,-1.35355 -2.68855,-0.56426 -8.22055,-1.77994 -12.29331,-2.70151 -5.04361,-1.14123 -7.59175,-1.55778 -7.99057,-1.30622 -0.32598,0.20562 -0.96347,2.00464 -1.43811,4.05836 -0.46892,2.02896 -1.76617,7.20228 -2.8828,11.49626 -1.1378,4.37548 -1.93226,8.19755 -1.80736,8.69519 0.1274,0.50758 0.59723,0.96124 1.0968,1.05902 3.14352,0.61537 10.69522,2.4047 12.96317,3.07156 3.99067,1.17341 10.02538,2.54259 11.42441,2.59201 0.67269,0.0238 1.41405,-0.18691 1.64747,-0.46816 z m -3.27473,-22.75816 c -3.66089,-0.54328 -7.22153,-1.64352 -7.22153,-2.23148 0,-0.55558 4.11685,-0.0748 7.60168,0.88775 4.68217,1.29326 4.46449,2.06269 -0.38015,1.34373 z m -13.73182,-2.92906 c -1.13034,-0.45606 -1.43999,-1.04261 -0.70028,-1.32647 0.8008,-0.3073 3.42602,0.80347 3.10947,1.31567 -0.2933,0.47455 -1.24917,0.47885 -2.40919,0.0104 z m -71.03262,20.62594 c 0.32728,-0.42737 2.46982,-8.24149 2.46187,-8.97873 -0.001,-0.15268 -0.70133,-0.48684 -1.55483,-0.74255 -1.2072,-0.36169 -1.6786,-0.35975 -2.12257,0.009 -0.4489,0.37255 -2.5826,7.9454 -2.5826,9.16605 0,0.84468 3.21549,1.30736 3.79813,0.54651 z m -8.94363,-1.97876 c 0.45838,-0.55229 2.01699,-6.83179 2.01699,-8.1262 0,-1.18346 -2.04732,-1.85557 -9.57003,-3.14168 -3.66248,-0.62614 -7.53896,-1.38636 -8.61437,-1.68937 -1.07542,-0.303 -4.41901,-0.93889 -7.43019,-1.41309 -3.0112,-0.4742 -6.7892,-1.2899 -8.39558,-1.81265 -3.47756,-1.1317 -3.74026,-0.96769 -4.10587,2.56299 -0.12563,1.21268 -0.42428,3.11387 -0.6638,4.22489 -0.23951,1.11101 -0.3395,2.2701 -0.22221,2.57575 0.1249,0.32547 1.2413,0.73686 2.69419,0.99281 1.36452,0.24039 5.91418,1.14109 10.11036,2.00155 4.19618,0.86046 9.56351,1.83092 11.92741,2.15657 2.36389,0.32566 5.52985,0.93365 7.03544,1.3511 3.30304,0.91583 4.65283,0.99792 5.21766,0.31733 z m -35.10506,-9.03394 c -0.31305,-0.3772 -0.3282,-0.63196 -0.0479,-0.8052 0.54606,-0.33749 1.19218,0.0925 1.19218,0.79347 0,0.71801 -0.55342,0.72369 -1.1443,0.0118 z m 100.92677,3.68028 c 0.78663,-3.11873 2.22573,-8.71032 3.19801,-12.42575 l 1.76778,-6.75533 -0.85163,-0.54689 c -0.4684,-0.30079 -1.46029,-0.60448 -2.20423,-0.67487 -1.56027,-0.14765 -1.36267,-0.5761 -2.91647,6.32458 -1.10554,4.90989 -3.74771,18.15888 -3.74771,18.79263 0,0.51199 1.5389,1.13943 2.5419,1.03638 0.66698,-0.0686 0.9927,-0.91518 2.21235,-5.75075 z m 0.74953,-16.58535 c -0.31305,-0.3772 -0.3282,-0.63196 -0.0479,-0.8052 0.54606,-0.33749 1.19218,0.0925 1.19218,0.79347 0,0.71801 -0.55342,0.72369 -1.14429,0.0118 z m -11.55261,19.55393 c 0.30186,-0.46072 1.00067,-2.76895 1.55291,-5.12939 0.55222,-2.36045 1.43611,-6.05151 1.9642,-8.20234 0.52808,-2.15085 1.13022,-5.05449 1.33809,-6.45255 0.20787,-1.39804 0.49012,-2.92291 0.62719,-3.38858 0.18446,-0.62664 0.0103,-0.99799 -0.66758,-1.42892 -0.50425,-0.32023 -5.75623,-1.58003 -11.67105,-2.79957 -5.91482,-1.21954 -13.03928,-2.73226 -15.83212,-3.3616 -5.55183,-1.25107 -6.66789,-1.36344 -7.07055,-0.71191 -0.44847,0.72561 -4.69406,15.22626 -5.87137,20.05335 -0.77932,3.1953 -0.98431,4.66114 -0.69263,4.95281 0.57256,0.57256 6.66449,2.21081 9.41141,2.53093 3.50184,0.40808 19.97383,3.65721 22.56871,4.45171 2.62033,0.80229 3.55265,0.69196 4.34279,-0.51394 z m -5.38975,-22.79821 c -3.22192,-0.84528 -2.89037,-1.44918 0.64868,-1.18152 2.9791,0.22531 4.72961,0.82334 4.32524,1.47763 -0.32056,0.51869 -2.32251,0.3995 -4.97392,-0.29611 z m -11.82964,-2.29306 c -4.27642,-1.00075 -5.67041,-1.43907 -5.67041,-1.78295 0,-0.73992 3.5097,-0.53041 7.36635,0.43976 3.13618,0.78891 3.39539,0.92143 3.01288,1.54036 -0.33588,0.54347 -1.80715,0.48187 -4.70882,-0.19717 z m -84.66508,20.19888 c -0.32262,-0.1847 -3.22626,-0.97821 -6.45254,-1.76338 -3.22626,-0.78518 -7.27376,-1.87316 -8.99443,-2.41774 -7.24304,-2.29235 -37.57147,-8.67655 -38.17895,-8.03674 -0.13524,0.14248 -0.36157,0.91036 -0.503,1.70654 -0.25132,1.41487 -0.22367,1.45649 1.22352,1.84093 2.72593,0.72413 15.89526,3.0809 20.83827,3.72919 2.68855,0.35262 6.38409,0.89534 8.21231,1.20605 1.82821,0.3107 5.34778,0.83608 7.82125,1.16751 2.47347,0.33142 6.60896,1.03189 9.18997,1.55661 6.7151,1.36514 7.7221,1.51391 6.8436,1.01103 z m -116.213269,-3.3378 c -0.088,-0.40171 -0.302951,-0.4743 -0.689322,-0.23277 -0.481841,0.30119 -0.483867,0.44444 -0.01434,1.01023 0.56964,0.68639 0.935685,0.28192 0.703616,-0.77746 z m 175.817749,-1.09315 c 0.59062,-2.10575 5.64356,-21.72654 5.97917,-23.21748 0.1479,-0.65694 -0.0766,-0.92087 -1.08078,-1.27094 -2.62343,-0.91454 -2.99597,-0.70205 -3.85329,2.19784 -0.99195,3.35526 -2.51865,9.76893 -3.933,16.5224 -0.60809,2.90363 -1.23064,5.5878 -1.38344,5.96482 -0.21367,0.52718 0.0254,0.81711 1.0354,1.25564 2.23754,0.97152 2.60197,0.80796 3.23594,-1.45228 z m -189.437286,0.13953 c 0,-0.55206 -1.086191,-0.82781 -3.062719,-0.77751 l -1.825564,0.0464 1.955313,0.50259 c 2.446971,0.62898 2.93297,0.66683 2.93297,0.22846 z m 131.573026,-0.48263 c 0.60213,-0.55322 -3.77038,-0.3605 -5.06425,0.2232 -1.07823,0.48641 -0.93577,0.51261 1.75979,0.32369 1.61312,-0.11307 3.10014,-0.35916 3.30446,-0.54689 z m 48.96646,-1.71006 c 1.07965,-3.71075 4.44091,-18.48305 4.44907,-19.55313 0.004,-0.64527 0.26733,-1.51479 0.58313,-1.93229 0.8295,-1.09672 0.70606,-2.13395 -0.30575,-2.56882 -0.48393,-0.20801 -3.9595,-0.98742 -7.72348,-1.73202 -11.07384,-2.19069 -17.90405,-3.6193 -22.42301,-4.69 -6.38075,-1.51184 -6.30038,-1.53489 -7.40725,2.12421 -1.41301,4.67117 -5.75546,20.96112 -5.75593,21.59246 -7.1e-4,0.93265 0.68578,1.2156 6.25648,2.57879 6.88892,1.68576 12.21449,2.66089 18.77101,3.43702 3.27724,0.38795 6.74321,1.04946 8.21232,1.56739 1.39806,0.4929 3.06984,0.86116 3.71511,0.81841 1.00847,-0.0668 1.23708,-0.29738 1.6283,-1.64202 z m -3.58362,-21.91078 c -0.86033,-0.30996 -2.26816,-0.58374 -3.12851,-0.60842 -2.00384,-0.0575 -3.37916,-0.44674 -3.33734,-0.94457 0.0381,-0.45321 0.9408,-0.42524 5.42851,0.16819 3.31431,0.43826 4.75243,0.92406 4.75243,1.60536 0,0.54568 -1.90153,0.43279 -3.71509,-0.22056 z M 204.87758,175.806 c -6.41692,-1.47413 -7.63029,-2.55751 -2.44413,-2.18227 5.712,0.41329 11.05064,2.67425 6.09406,2.5809 -1.14712,-0.0216 -2.78958,-0.20098 -3.64993,-0.39863 z m -168.202316,25.4 c 2.063226,-0.58577 2.664827,-1.10726 1.277351,-1.10726 -1.006965,0 -3.382826,0.96834 -3.382826,1.37876 0,0.27508 0.330265,0.2325 2.105475,-0.2715 z M 165.0972,200.66298 c -0.80432,-0.80431 -31.6187,-7.21181 -34.68446,-7.21223 -1.53212,-2.2e-4 0.59461,0.53257 8.59592,2.15344 4.82558,0.97752 12.20535,2.54813 16.39949,3.49019 7.08099,1.59053 10.21898,2.09854 9.68905,1.5686 z m -50.01265,-2.35124 c 0.78856,0.48736 0.79224,-0.53684 0.009,-2.30909 -0.44639,-1.00913 -0.69453,-1.95186 -0.55144,-2.09496 0.24238,-0.24238 0.52512,0.059 1.95582,2.08497 0.46541,0.65902 0.61235,0.69303 0.93363,0.21612 0.53073,-0.78781 -0.37026,-2.79699 -2.27394,-5.07072 -2.69482,-3.21866 -9.44004,-5.60631 -21.105748,-7.47092 -3.044688,-0.48666 -6.56672,-1.33896 -8.407846,-2.03464 -1.742585,-0.65844 -4.300778,-1.6212 -5.684852,-2.13946 -1.384074,-0.51827 -3.74458,-1.0965 -5.245566,-1.28497 -1.611721,-0.20237 -3.143169,-0.64909 -3.740501,-1.09108 -0.556287,-0.41163 -2.250186,-3.02018 -3.764209,-5.79677 -1.514022,-2.77657 -3.640851,-6.28017 -4.726289,-7.78577 l -1.973528,-2.73744 -2.942487,0.0171 c -2.504747,0.0148 -3.323796,0.20487 -5.505642,1.27899 -2.888368,1.42194 -4.976445,3.52064 -4.976445,5.00178 0,1.52345 2.013674,4.13764 7.902224,10.25885 2.966655,3.08386 5.393909,5.76789 5.393909,5.96452 0,0.19662 1.075225,1.14903 2.389402,2.11646 2.04539,1.50575 2.658374,1.75898 4.257783,1.75898 1.253475,0 2.687225,0.38259 4.356426,1.1625 4.383194,2.04798 8.487453,2.47992 19.523403,2.05472 l 9.556906,-0.36822 0.72495,0.93283 c 0.93902,1.20826 2.65585,2.08411 4.08524,2.08411 1.16007,0 3.15394,1.25447 5.49656,3.45823 0.72177,0.67899 1.3597,1.23452 1.41761,1.23452 0.0579,0 0.21087,-0.52793 0.33992,-1.17318 0.12903,-0.64525 0.41168,-1.17319 0.62803,-1.17319 0.51523,0 0.9444,1.7495 0.67856,2.76606 -0.16822,0.64329 -0.1042,0.71144 0.32996,0.35112 0.29629,-0.24588 0.71022,-0.34107 0.91987,-0.2115 z m -48.619025,-14.6109 c -0.687108,-0.75925 -0.687773,-0.80377 -0.01596,-1.06154 0.774711,-0.29729 2.710061,0.61263 2.617019,1.23041 -0.112626,0.74831 -1.874455,0.63392 -2.600982,-0.16887 z m 41.624045,14.66127 c 0,-0.0949 -0.17597,-0.28121 -0.39106,-0.41415 -0.21508,-0.13287 -0.39107,-0.0553 -0.39107,0.17246 0,0.22778 0.17599,0.41414 0.39107,0.41414 0.21509,0 0.39106,-0.0776 0.39106,-0.17245 z m -1.75977,-0.59577 c 0.66754,-0.27499 0.44904,-0.47734 -1.49154,-1.38137 -2.67526,-1.24626 -3.32558,-0.9842 -1.53277,0.61766 1.33576,1.19349 1.73576,1.2945 3.02431,0.76371 z m 70.39127,-1.96922 c -0.13288,-0.21509 -0.53926,-0.3919 -0.90296,-0.39292 -0.81656,-0.003 -13.16807,-2.59184 -22.36526,-4.68893 -13.20808,-3.01162 -30.0943,-6.65004 -30.86354,-6.65004 -0.80909,0 -2.9761,1.87743 -2.60053,2.25301 0.40702,0.40702 9.03662,2.04947 14.88859,2.8337 3.22626,0.43236 9.73745,1.48563 14.46931,2.34063 4.73186,0.85498 12.21094,2.17974 16.62017,2.9439 4.40923,0.76414 8.28075,1.45048 8.60338,1.52518 1.27204,0.29451 2.38206,0.2096 2.15084,-0.16453 z m -75.49444,-0.75082 c 0.12223,-0.19784 -0.24302,-0.72578 -0.81178,-1.17318 -1.678087,-1.31998 -5.274981,-0.94868 -4.723822,0.48761 0.327472,0.85339 5.068952,1.44063 5.535602,0.68557 z m -59.405832,-2.74269 c 3.019339,-1.87172 7.079937,-5.37859 6.685069,-5.77346 -0.107157,-0.10716 -1.570821,0.84979 -3.252592,2.12655 -1.68177,1.27675 -4.069637,2.99062 -5.306374,3.80861 -1.236736,0.81797 -2.24861,1.5503 -2.24861,1.6274 0,0.50198 1.422616,-0.11544 4.122507,-1.7891 z m 82.302352,0.21131 c 0,-0.0845 -0.26398,-0.25497 -0.5866,-0.37879 -0.32263,-0.12386 -0.58659,-0.0547 -0.58659,0.1537 0,0.20833 0.26396,0.37879 0.58659,0.37879 0.32262,0 0.5866,-0.0692 0.5866,-0.1537 z m -65.56192,-1.59355 c 0.121199,-0.31574 0.05203,-0.67809 -0.153701,-0.80522 -0.205683,-0.12711 -0.373971,0.13125 -0.373971,0.57408 0,0.94424 0.217463,1.0395 0.527672,0.23114 z m 265.34753,-0.34645 c 0.24167,-0.2912 0.86507,-2.44694 1.38533,-4.79053 0.52026,-2.34358 1.12469,-4.72679 1.34319,-5.29601 0.57506,-1.49813 -0.11869,-2.14313 -2.87664,-2.67469 -1.29051,-0.24874 -5.16202,-1.13825 -8.60337,-1.97672 -5.42043,-1.32065 -10.27119,-2.14197 -14.43211,-2.4436 -1.35362,-0.0981 -1.34813,-0.11218 -2.60513,6.69664 -0.68322,3.70083 -0.78013,4.89188 -0.41636,5.11672 0.55351,0.34208 9.81705,2.33441 12.95638,2.78655 1.18295,0.17038 4.17458,0.93147 6.64805,1.69133 4.99445,1.5343 5.95829,1.66431 6.60066,0.89031 z m -4.22528,-10.3723 c -1.61706,-0.4519 -1.44626,-1.2212 0.27113,-1.2212 1.74579,0 4.00156,0.68293 4.00156,1.21144 0,0.40182 -2.84647,0.40831 -4.27269,0.0103 z m -203.75315,4.78118 c 0.38486,-1.16614 0.34711,-1.47058 -0.26643,-2.14855 -0.39317,-0.43444 -1.29035,-1.03036 -1.99375,-1.32425 -0.70338,-0.29389 -1.27888,-0.8073 -1.27888,-1.14091 0,-0.88831 2.14048,-0.77598 4.19863,0.22035 2.0093,0.97269 2.54925,0.7237 1.30433,-0.60146 -1.27147,-1.35343 -2.4194,-1.69153 -7.26275,-2.13914 -2.36593,-0.21864 -5.44009,-0.76238 -6.83145,-1.2083 -1.39138,-0.44593 -4.207027,-1.26443 -6.257013,-1.8189 -2.049972,-0.55448 -5.047067,-1.62242 -6.660206,-2.37323 -3.90641,-1.81816 -6.913319,-2.85349 -8.287401,-2.85349 -0.929209,0 -2.000177,-0.89724 -6.132297,-5.13755 -2.753574,-2.82566 -5.233254,-5.06198 -5.5104,-4.96959 -0.696242,0.23208 -2.346066,4.90198 -2.353973,6.66306 -0.0059,1.21194 0.338321,1.81663 2.137678,3.76016 3.155673,3.40849 6.00121,5.44201 9.658468,6.90226 1.789306,0.71442 3.95718,1.60451 4.817528,1.97798 1.130547,0.49075 3.299012,0.76523 7.821244,0.98998 3.441362,0.17102 6.941325,0.51578 7.777702,0.7661 0.83639,0.25031 2.10931,0.3447 2.82871,0.20974 0.98718,-0.18519 1.58194,-0.0429 2.42472,0.58022 1.28379,0.94913 3.46508,1.531 5.78976,1.54444 2.114,0.0118 2.9038,0.86146 1.86683,2.0073 -0.71017,0.78472 -0.71065,0.82655 -0.016,1.33453 1.00331,0.73364 1.70186,0.34409 2.22491,-1.24075 z M 77.955275,172.29138 c -0.660399,-1.23398 0.151868,-1.8803 1.186417,-0.94404 0.435251,0.3939 0.791368,0.95288 0.791368,1.24216 0,0.83495 -1.491719,0.6101 -1.977785,-0.29812 z m 41.225465,13.14259 c -0.2352,-0.61296 -1.3146,-0.82702 -1.3146,-0.26071 0,0.47775 0.44947,0.84729 1.03057,0.84729 0.29189,0 0.41309,-0.25027 0.28403,-0.58658 z m -78.762479,-2.63968 c 2.569581,-1.72466 5.679401,-5.01148 5.435081,-5.74445 -0.07779,-0.23336 -1.05802,0.19757 -2.202369,0.96823 -1.134204,0.76382 -3.025539,1.75741 -4.202967,2.20799 -1.177428,0.45058 -2.140777,0.96109 -2.140777,1.13449 0,0.29664 4.041916,-1.32696 4.888283,-1.96356 0.215085,-0.16179 0.742723,-0.42071 1.172529,-0.57537 1.356223,-0.48808 -1.305792,2.01397 -4.007734,3.76687 -1.344277,0.87211 -2.444142,1.64914 -2.444142,1.72674 0,0.50546 1.368318,-0.0888 3.502096,-1.52094 z m 251.771819,0.78213 c 0.43673,-0.538 2.43639,-9.3009 2.43639,-10.67674 0,-1.19423 -0.68616,-1.64578 -2.73744,-1.80147 -1.70396,-0.12933 -1.76335,-0.0964 -1.87228,1.03961 -0.1144,1.19323 -1.37577,7.77648 -1.85849,9.69981 -0.23334,0.92967 -0.1076,1.12471 1.04847,1.62667 1.63531,0.71001 2.47245,0.74148 2.98335,0.11218 z M 99.779503,182.62248 c -0.37641,-0.0984 -0.99232,-0.0984 -1.36873,0 -0.3764,0.0984 -0.0684,0.17884 0.68436,0.17884 0.7528,0 1.060757,-0.0806 0.68437,-0.17884 z m 182.698867,-1.63875 c 0.2164,-0.40433 0.74536,-2.31506 1.17548,-4.24608 0.43014,-1.93102 0.94871,-3.94927 1.15239,-4.485 0.55217,-1.45228 -0.25694,-2.76408 -1.91646,-3.10716 -0.75014,-0.15508 -3.73961,-0.7419 -6.64326,-1.30403 -2.90364,-0.56214 -6.53743,-1.35981 -8.07509,-1.77263 -1.53765,-0.4128 -4.70527,-1.11374 -7.03912,-1.55764 -2.33386,-0.4439 -5.78578,-1.17106 -7.67092,-1.6159 -1.88515,-0.44486 -3.66305,-0.71846 -3.95088,-0.608 -0.32294,0.12385 -0.62524,1.1955 -0.78946,2.79853 -0.14633,1.42876 -0.53883,3.91627 -0.87212,5.52783 -0.44234,2.13898 -0.49044,3.06926 -0.17814,3.44556 0.43885,0.52879 1.62194,0.80699 9.41367,2.21362 5.32003,0.96041 20.49907,4.42361 21.89951,4.99651 1.58499,0.6484 3.05902,0.52793 3.4944,-0.28561 z m 45.7795,-6.69506 c 0,-0.21508 -0.48395,-0.37869 -1.07543,-0.36358 -0.95297,0.0244 -0.98635,0.0658 -0.2933,0.36358 1.06814,0.459 1.36873,0.459 1.36873,0 z m -87.26863,-2.2486 c 0.62178,-1.19218 2.46914,-10.75253 2.13827,-11.06585 -0.17426,-0.16504 -1.00907,-0.48712 -1.85513,-0.71576 -1.79648,-0.48549 -2.56787,-0.0734 -2.56787,1.37178 0,0.51314 -0.43995,2.79492 -0.97766,5.0706 -0.53771,2.27569 -0.97766,4.39165 -0.97766,4.70214 0,1.23916 3.64072,1.7862 4.24005,0.63709 z m 79.55257,0.0368 c -0.26476,-0.10716 -0.79269,-0.11366 -1.17318,-0.0148 -0.38049,0.0992 -0.16387,0.18679 0.48138,0.19477 0.64526,0.007 0.95656,-0.0732 0.6918,-0.18027 z m -88.96947,-1.79658 c 0.21658,-0.26885 0.88649,-2.84316 1.48872,-5.72068 1.26562,-6.04749 1.27273,-6.02741 -2.2914,-6.47307 -1.81279,-0.22667 -6.32206,-1.30178 -15.52891,-3.70244 -1.61314,-0.42062 -5.57264,-1.14673 -8.79891,-1.61358 -3.22627,-0.46686 -6.37614,-1.00761 -6.99972,-1.20167 -2.24009,-0.69716 -2.39041,-0.56786 -3.11349,2.67788 -0.37136,1.6669 -0.97009,4.23671 -1.33053,5.71066 -0.6218,2.54284 -0.61994,2.7058 0.0362,3.18557 0.94073,0.68788 10.0278,2.84934 13.16734,3.13201 1.39806,0.12593 4.47767,0.67079 6.8436,1.21094 5.4611,1.24678 14.6634,3.16637 15.49686,3.23262 0.35006,0.0278 0.81367,-0.16938 1.03026,-0.43824 z m -32.17659,-16.47913 c -0.42566,-0.31126 -0.65323,-0.68663 -0.50569,-0.83417 0.3615,-0.3615 2.48818,0.371 2.39085,0.82349 -0.12962,0.60243 -1.0686,0.60776 -1.88516,0.0103 z m 112.92708,15.1104 c 0.75216,-0.8427 1.24949,-2.67079 2.2731,-8.35541 0.43662,-2.42487 1.14575,-5.72193 1.57583,-7.32682 0.84947,-3.16989 0.77668,-3.96867 -0.36163,-3.96867 -0.40723,0 -3.2568,-0.71117 -6.33239,-1.58038 -7.3344,-2.07283 -8.78008,-2.2713 -9.31147,-1.27835 -0.50109,0.93627 -1.33993,4.47947 -2.81301,11.88193 -0.62377,3.13455 -1.23863,5.9715 -1.36635,6.30435 -0.37616,0.98025 0.76201,1.7335 3.40151,2.25113 1.35998,0.26671 3.08863,0.74671 3.84142,1.06666 1.48486,0.63109 5.83454,1.59405 7.46736,1.65317 0.55814,0.0203 1.28967,-0.27121 1.62563,-0.64761 z m -2.44492,-2.44413 c 0,-0.75149 0.76477,-1.0602 1.30016,-0.52482 0.29605,0.29605 -0.44415,1.30693 -0.95697,1.30693 -0.18876,0 -0.34319,-0.35195 -0.34319,-0.78211 z m 2.63968,-15.12996 c -1.18959,-0.31087 -0.74068,-0.90362 0.68436,-0.90362 0.95593,0 1.36872,0.17691 1.36872,0.58659 0,0.57299 -0.67486,0.6772 -2.05308,0.31703 z m -22.18073,12.1652 c 0.21108,-0.55519 0.74965,-3.06288 1.19683,-5.57264 0.44716,-2.50977 1.14875,-5.97104 1.5591,-7.69171 1.14228,-4.78989 0.98709,-5.35753 -1.56612,-5.72817 -1.13432,-0.16468 -0.94371,-0.7765 -3.28475,10.54279 -1.89333,9.15446 -1.87542,9.45917 0.55622,9.45917 0.8818,0 1.2457,-0.23873 1.53872,-1.00944 z M 39.837687,161.61654 c -0.356029,-0.54335 -0.981573,-2.00591 -1.3901,-3.25011 l -0.742775,-2.26217 0.213029,2.15085 c 0.208785,2.108 2.074949,5.82603 2.413872,4.80927 0.08431,-0.25294 -0.138004,-0.90447 -0.494026,-1.44784 z m 240.724533,0.33677 c 0.5724,-0.68968 4.71586,-18.96428 4.41152,-19.45674 -0.35297,-0.5711 -2.21766,-1.10718 -3.0898,-0.88829 -0.46511,0.11677 -1.04213,0.69842 -1.28227,1.29265 -0.59689,1.47696 -3.47578,13.90501 -3.79365,16.37702 -0.23195,1.80376 -0.1675,2.06336 0.6553,2.63966 1.14793,0.80405 2.44881,0.81904 3.0989,0.0358 z m -6.78493,-1.4496 c 0.17291,-0.26885 0.59592,-1.63269 0.94004,-3.03073 3.53035,-14.34297 3.89132,-16.05556 3.52735,-16.73563 -0.41206,-0.76993 -1.3499,-1.01465 -13.73003,-3.58253 -3.97907,-0.82533 -7.50367,-1.61065 -7.83248,-1.74514 -0.3288,-0.1345 -0.87926,-0.0207 -1.22328,0.25292 -0.62342,0.49585 -2.30941,6.63653 -3.89454,14.18465 -0.45168,2.15085 -0.91097,4.30759 -1.02062,4.79277 -0.24389,1.07911 0.49607,2.05083 1.56171,2.05083 0.83206,0 4.552,0.85117 12.9958,2.97359 5.43008,1.36489 8.16771,1.62973 8.67605,0.83927 z m -2.15518,-2.51015 c 0.16577,-0.86079 1.69144,-0.97763 1.69144,-0.12948 0,0.32263 -0.4116,0.64488 -0.91468,0.71612 -0.70932,0.10051 -0.88371,-0.0313 -0.77676,-0.5866 z m -18.44828,-2.52763 c -0.95183,-0.38284 -0.95753,-0.40807 -0.21605,-0.95471 0.75959,-0.55998 1.91602,-0.43163 2.85142,0.3165 1.18677,0.94916 -0.71639,1.41005 -2.63537,0.63821 z m 20.74053,-13.03174 c -0.59417,-0.71594 -0.20589,-1.38584 0.80326,-1.38584 0.95209,0 1.44994,1.12665 0.706,1.59772 -0.75063,0.4753 -0.96378,0.44537 -1.50926,-0.21188 z M 61.320066,154.49267 c -1.503366,-3.39937 -5.049536,-8.51231 -6.689307,-9.64478 -2.524698,-1.74362 -4.425645,-2.36279 -7.155901,-2.33081 -3.082801,0.0361 -4.001265,0.36488 -6.265611,2.24284 -2.214405,1.83653 -4.200091,4.8918 -3.179286,4.8918 0.182419,0 0.648747,-0.70314 1.036284,-1.56255 1.677703,-3.72048 6.861731,-5.81808 11.236086,-4.54641 4.040778,1.17468 7.282795,4.73609 10.281823,11.29473 0.566574,1.23903 1.181125,2.15946 1.365687,2.0454 0.184562,-0.1141 -0.09888,-1.18967 -0.629775,-2.39022 z m 182.764324,-0.24595 c 0.21549,-0.26886 1.03143,-3.56846 1.81317,-7.33243 0.78175,-3.76398 1.66951,-7.8975 1.97281,-9.18561 0.33767,-1.43407 0.41313,-2.50867 0.19467,-2.77191 -0.51366,-0.61891 -3.53846,-1.45851 -3.87447,-1.07543 -0.30358,0.34609 -4.31287,18.40299 -4.31287,19.42412 0,1.25645 3.35272,2.00662 4.20669,0.94126 z m -10.5023,-2.39764 c 0.53907,-0.64954 1.28897,-3.44807 2.3849,-8.90022 0.4479,-2.22825 1.18542,-5.5854 1.63896,-7.46031 0.64565,-2.66925 0.72349,-3.53075 0.35875,-3.97025 -0.60207,-0.72544 -4.86223,-1.70251 -8.84122,-2.02771 -1.72068,-0.14071 -3.457,-0.43051 -3.8585,-0.64416 -0.5236,-0.27862 -0.86949,-0.23945 -1.22348,0.1385 -0.67356,0.71925 -2.73698,7.76737 -3.87518,13.23654 -0.51477,2.47348 -1.05696,4.96591 -1.20486,5.53875 -0.41229,1.59678 0.80313,2.55988 3.57955,2.83644 1.25443,0.12489 3.60061,0.55534 5.21375,0.95642 3.65505,0.90875 5.25146,0.98983 5.82733,0.29594 z m -8.16429,-1.85116 c -0.79069,-0.3155 -0.8624,-0.4533 -0.39107,-0.75136 1.19438,-0.75529 5.02689,-0.076 4.48826,0.79549 -0.30514,0.49373 -2.81711,0.46666 -4.09719,-0.0442 z m 0.80418,-18.76285 c -0.66346,-0.26519 -0.82295,-0.50144 -0.53376,-0.79062 0.28918,-0.28919 0.77641,-0.2242 1.63053,0.2175 0.66998,0.34645 1.21812,0.71338 1.21812,0.8154 0,0.30101 -1.29465,0.16552 -2.31489,-0.24228 z m -32.33573,19.36163 c 0.14618,-0.38086 0.0587,-0.55964 -0.22701,-0.46438 -0.58457,0.19486 -0.90644,1.08366 -0.39243,1.08366 0.21,0 0.48874,-0.27868 0.61944,-0.61928 z M 57.978131,137.00173 c 1.711902,-3.7755 1.809762,-4.4991 0.760034,-5.61957 -0.495081,-0.52844 -1.472074,-1.20043 -2.171099,-1.4933 -0.699025,-0.29287 -1.270954,-0.71745 -1.270954,-0.9435 0,-0.54239 0.244545,-0.51866 1.284713,0.1246 1.324927,0.81943 5.520972,1.54766 7.580256,1.31555 2.165154,-0.24404 3.005268,-1.11318 2.648057,-2.73953 -0.144108,-0.65601 -0.0405,-1.34107 0.256882,-1.69943 0.406932,-0.49032 0.395344,-0.66551 -0.06311,-0.95565 -0.30879,-0.1954 -0.781421,-0.35797 -1.050275,-0.36126 -0.268854,-0.003 -0.48883,-0.25881 -0.48883,-0.5678 0,-0.34801 0.483701,-0.60846 1.27096,-0.68436 1.162872,-0.11218 1.281351,-0.2485 1.393194,-1.60371 0.106418,-1.28936 0.272046,-1.51111 1.279089,-1.71252 0.636278,-0.12726 1.245819,-0.37532 1.354543,-0.55125 0.108783,-0.17593 -0.437941,-1.56713 -1.214839,-3.09157 -1.250697,-2.45413 -1.363899,-2.91127 -0.987962,-3.98967 0.789669,-2.26523 0.294025,-7.49599 -0.772759,-8.15529 -0.259469,-0.16037 -1.372058,0.12755 -2.472423,0.63999 -1.249898,0.58197 -2.734389,0.93522 -3.955954,0.94135 -2.830683,0.0148 -3.201137,0.34674 -2.557808,2.29602 0.505989,1.5332 0.486775,1.61382 -0.709663,2.97648 -0.968682,1.10326 -1.229754,1.75546 -1.229754,3.07205 0,1.76184 -0.586171,2.89104 -1.564252,3.01339 -1.447954,0.18112 -2.012069,-0.12179 -2.99632,-1.60913 -0.578657,-0.8744 -1.562444,-1.85373 -2.186192,-2.1763 -1.015541,-0.52514 -1.233165,-0.52154 -2.081946,0.0346 -2.31867,1.51924 0.406638,7.37297 3.183512,6.83789 0.994414,-0.1916 1.388592,0.0876 1.272941,0.90203 -0.124731,0.87825 -0.669584,0.99803 -2.813676,0.6186 -0.550855,-0.0975 -0.869878,0.2577 -1.281735,1.42698 -0.301586,0.85621 -1.050445,2.08806 -1.664131,2.73744 -0.640056,0.67727 -1.233442,1.84762 -1.391726,2.74494 -0.151762,0.86033 -0.638424,2.40959 -1.081467,3.44281 -0.463799,1.08161 -0.656843,2.01157 -0.45504,2.19208 0.192772,0.17243 1.318374,0.61636 2.501339,0.98649 1.182965,0.37012 3.083097,1.1937 4.222515,1.83014 2.567929,1.43437 5.649107,2.67024 6.05201,2.42748 0.166335,-0.10021 0.797207,-1.27345 1.401932,-2.60715 z m -8.550043,-19.1045 c -0.958412,-1.55307 -1.335999,-2.85797 -0.98931,-3.41892 0.343124,-0.55518 1.506415,-0.52397 2.08637,0.056 0.568194,0.5682 0.639379,2.81053 0.07822,2.46371 -0.215085,-0.13288 -0.391064,-0.58327 -0.391064,-1.00075 0,-0.41747 -0.263967,-0.75904 -0.586594,-0.75904 -0.878638,0 -0.708873,0.96786 0.401158,2.28704 0.582606,0.6924 0.825679,1.27405 0.592617,1.41809 -0.217323,0.13435 -0.753448,-0.33643 -1.191389,-1.04611 z m 14.681941,-2.79522 c -1.043623,-0.76311 -0.402542,-1.42805 1.376787,-1.42805 1.704778,0 2.126179,0.83259 0.784762,1.55049 -0.987636,0.52857 -1.295052,0.51116 -2.161549,-0.12239 z m -0.601603,-2.24446 c 0,-0.56523 1.452787,-1.13891 2.884188,-1.13891 1.380896,0 2.299242,0.64859 1.344521,0.94958 -1.138173,0.35883 -4.228709,0.49721 -4.228709,0.18933 z m -6.452532,-11.6976 c 0.132934,-0.21509 0.05532,-0.39106 -0.172451,-0.39106 -0.227778,0 -0.414143,0.17597 -0.414143,0.39106 0,0.21508 0.07761,0.39106 0.172452,0.39106 0.09485,0 0.281214,-0.17598 0.414142,-0.39106 z m 4.106156,-1.173187 c 0,-0.21508 -0.175975,-0.39106 -0.391058,-0.39106 -0.215083,0 -0.391058,0.17598 -0.391058,0.39106 0,0.215077 0.175975,0.391057 0.391058,0.391057 0.215083,0 0.391058,-0.17598 0.391058,-0.391057 z m 68.9248,195.688487 c -1.82184,-0.82857 1.09344,-1.68257 6.79124,-1.98941 5.89917,-0.31769 8.16277,0.31996 5.13616,1.44684 -1.31791,0.49071 -11.06641,0.93415 -11.9274,0.54257 z m 15.20968,-1.28744 c -0.91568,-0.5802 0.055,-0.84329 8.17799,-2.21644 4.28976,-0.72517 8.10754,-1.46584 8.48393,-1.64592 0.97065,-0.46441 19.64187,0.004 19.70733,0.49543 0.15117,1.13247 -4.12978,1.84114 -18.82743,3.11672 -7.48684,0.64975 -16.70376,0.78123 -17.54182,0.25021 z m 186.57866,-12.03377 c -0.89482,-0.36105 -0.50534,-0.87283 0.97766,-1.28469 1.81272,-0.50342 10.26539,-0.54594 10.26539,-0.0516 0,0.86986 -9.5778,2.00826 -11.24305,1.33632 z m -63.55433,-1.42469 c -0.59514,-0.235 -1.02167,-0.61223 -0.94786,-0.83828 0.24964,-0.76444 8.88719,-1.80759 16.10819,-1.94537 3.87151,-0.0739 7.98702,-0.3308 9.14557,-0.57093 3.98855,-0.82671 9.98775,-0.38072 7.12038,0.52935 -1.43589,0.45574 -9.31723,1.29206 -10.33774,1.09697 -0.56681,-0.10834 -2.13254,0.09 -3.47939,0.44082 -3.00589,0.78293 -11.42899,1.81281 -14.36456,1.75633 -1.18938,-0.0229 -2.64946,-0.23387 -3.24459,-0.46889 z M 160.27867,227.68651 c -1.23171,-1.23169 -1.30289,-2.58083 -0.12416,-2.35385 1.15936,0.22328 2.17632,1.22599 2.393,2.35948 0.24702,1.29217 -0.97403,1.28914 -2.2688,-0.006 z"
       id="path3" /></g><metadata
     id="metadata182"><rdf:RDF><cc:Work
         rdf:about=""><cc:license
           rdf:resource="http://creativecommons.org/licenses/by-sa/4.0/" /><dc:publisher><cc:Agent><dc:title>OpenDataKerala.org</dc:title></cc:Agent></dc:publisher><dc:date>April 2026</dc:date><dc:title>Election Symbols of Kerala</dc:title><dc:creator><cc:Agent><dc:title>Manoj Karingamadathil</dc:title></cc:Agent></dc:creator></cc:Work><cc:License
         rdf:about="http://creativecommons.org/licenses/by-sa/4.0/"><cc:permits
           rdf:resource="http://creativecommons.org/ns#Reproduction" /><cc:permits
           rdf:resource="http://creativecommons.org/ns#Distribution" /><cc:requires
           rdf:resource="http://creativecommons.org/ns#Notice" /><cc:requires
           rdf:resource="http://creativecommons.org/ns#Attribution" /><cc:permits
           rdf:resource="http://creativecommons.org/ns#DerivativeWorks" /><cc:requires
           rdf:resource="http://creativecommons.org/ns#ShareAlike" /></cc:License></rdf:RDF></metadata></svg>
