<?xml version="1.0" encoding="UTF-8" standalone="no"?>
<!-- Created with Inkscape (http://www.inkscape.org/) -->

<svg
   width="1500"
   height="1500"
   viewBox="0 0 396.87499 396.875"
   version="1.1"
   id="svg5"
   xml:space="preserve"
   inkscape:version="1.2.2 (b0a8486541, 2022-12-01)"
   sodipodi:docname="inc.svg"
   inkscape:export-filename="cpi.png"
   inkscape:export-xdpi="96"
   inkscape:export-ydpi="96"
   xmlns:inkscape="http://www.inkscape.org/namespaces/inkscape"
   xmlns:sodipodi="http://sodipodi.sourceforge.net/DTD/sodipodi-0.dtd"
   xmlns="http://www.w3.org/2000/svg"
   xmlns:svg="http://www.w3.org/2000/svg"
   xmlns:rdf="http://www.w3.org/1999/02/22-rdf-syntax-ns#"
   xmlns:cc="http://creativecommons.org/ns#"
   xmlns:dc="http://purl.org/dc/elements/1.1/"><title
     id="title186">Election Symbols of Kerala</title><sodipodi:namedview
     id="namedview7"
     pagecolor="#ffffff"
     bordercolor="#000000"
     borderopacity="0.25"
     inkscape:showpageshadow="2"
     inkscape:pageopacity="0.0"
     inkscape:pagecheckerboard="0"
     inkscape:deskcolor="#d1d1d1"
     inkscape:document-units="mm"
     showgrid="false"
     inkscape:zoom="0.20783333"
     inkscape:cx="1542.101"
     inkscape:cy="1142.7426"
     inkscape:window-width="1854"
     inkscape:window-height="1011"
     inkscape:window-x="0"
     inkscape:window-y="0"
     inkscape:window-maximized="1"
     inkscape:current-layer="layer1" /><defs
     id="defs2"><inkscape:path-effect
       effect="bspline"
       id="path-effect3248"
       is_visible="true"
       lpeversion="1"
       weight="33.333333"
       steps="2"
       helper_size="0"
       apply_no_weight="true"
       apply_with_weight="true"
       only_selected="false" /><inkscape:path-effect
       effect="bspline"
       id="path-effect577"
       is_visible="true"
       lpeversion="1"
       weight="33.333333"
       steps="2"
       helper_size="0"
       apply_no_weight="true"
       apply_with_weight="true"
       only_selected="false" /></defs><g
     inkscape:label="Layer 1"
     inkscape:groupmode="layer"
     id="layer1"><path
       style="fill:#000000;stroke-width:0.963414"
       d="m 117.49253,361.52669 c -1.43644,-3.82226 -2.36456,-9.42244 -2.9937,-18.06404 -1.34569,-18.48311 -2.37398,-25.14358 -4.51646,-29.25401 -7.97707,-15.30437 -14.631791,-52.83612 -14.631791,-82.52151 0,-16.65826 1.06026,-26.5939 4.385926,-41.09934 1.860095,-8.11311 2.562605,-14.93959 3.321445,-32.27439 2.062,-47.1049 5.65082,-73.346241 11.67946,-85.399991 3.86035,-7.718438 11.37254,-13.917854 18.809,-15.522008 3.45846,-0.746057 5.26657,-2.559183 7.05333,-7.072917 1.67297,-4.226366 9.52046,-11.139577 14.25536,-12.558173 2.1025,-0.629937 6.00326,-1.14532 8.6684,-1.14532 4.75687,0 4.90211,-0.08775 7.91977,-4.790433 10.47166,-16.318641 28.58154,-17.946427 37.42691,-3.364081 2.34118,3.859619 2.91759,4.243189 6.42554,4.275778 11.47676,0.106689 19.25935,6.616267 22.49697,18.817087 1.67312,6.305159 2.88034,18.554809 4.93663,50.092178 2.57317,39.46496 3.8448,56.33135 4.46298,59.19552 0.45202,2.09431 0.8928,1.66912 3.9946,-3.85364 9.26881,-16.50322 25.77254,-24.3109 38.43299,-18.18206 8.07033,3.90678 10.0606,10.87355 7.68691,26.90727 -0.82369,5.56372 -2.60186,20.95424 -3.95145,34.20123 -6.62217,64.99823 -12.11482,80.72386 -39.03442,111.75612 -5.97552,6.88841 -11.56473,13.58872 -12.4205,14.88952 -1.17478,1.78578 -1.68128,5.73956 -2.06769,16.14054 -0.59392,15.98529 -1.31726,17.46797 -8.9412,18.3273 -3.80049,0.4284 -4.70461,0.15804 -6.93732,-2.07467 -2.23005,-2.23009 -2.52441,-3.21101 -2.2409,-7.46825 l 0.32626,-4.90102 -6.31539,-2.04915 c -3.47351,-1.12704 -7.56292,-2.86657 -9.0877,-3.86562 -2.72865,-1.78789 -2.74212,-1.84084 -0.85791,-3.36489 1.0529,-0.85161 2.89807,-2.19869 4.10037,-2.99351 2.03026,-1.34216 1.69421,-1.42209 -4.716,-1.12179 -9.02336,0.42271 -11.21626,-0.22103 -13.49725,-3.96201 -1.04133,-1.70786 -1.89495,-3.38797 -1.89692,-3.73353 -0.0109,-1.76965 6.874,-2.75941 15.39588,-2.21359 l 9.16758,0.58723 10.83768,-6.58 c 25.37499,-15.40615 39.33883,-32.36124 47.07515,-57.15927 2.1904,-7.02103 5.85692,-29.91206 8.0243,-50.09757 1.10946,-10.33264 2.44164,-22.20403 2.96041,-26.38092 l 0.94323,-7.5943 -3.42652,-3.79277 c -3.89582,-4.31219 -3.87015,-5.66189 0.13363,-7.03079 4.52965,-1.54866 5.22644,-2.33102 5.22644,-5.86831 0,-4.43381 -2.24185,-9.61324 -4.73953,-10.94998 -4.65385,-2.49065 -15.42796,3.3982 -19.67945,10.75633 -1.31409,2.2743 -3.76804,8.03694 -5.45321,12.80586 -3.27829,9.27718 -3.33564,10.70135 -1.32815,32.98422 0.67378,7.47862 -0.20354,9.88775 -3.60058,9.88775 -0.99486,0 -2.72712,-0.91825 -3.84939,-2.04056 -2.45813,-2.4581 -1.8625,-3.22105 -9.56229,12.24863 -7.24304,14.55202 -8.51788,16.00946 -13.6614,15.61832 -3.76022,-0.28584 -3.93696,-0.16604 -5.24068,3.55776 -0.74208,2.1195 -2.15897,4.66517 -3.14863,5.65701 -1.75814,1.76201 -1.82849,1.75094 -3.06746,-0.48173 -0.70695,-1.27397 -1.2251,-4.93809 -1.17095,-8.28098 0.0943,-5.82761 0.0393,-5.96572 -1.95976,-4.92097 -4.04849,2.11575 -18.09951,15.60466 -24.20862,23.24015 -5.26438,6.57968 -8.93673,13.03402 -16.27167,28.59823 -0.61814,1.31169 -2.31635,3.04583 -3.7738,3.85364 -2.35294,1.30419 -2.75828,1.30685 -3.61678,0.0255 -0.53173,-0.79481 -0.82715,-2.53908 -0.65641,-3.87618 0.2578,-2.0189 -0.0845,-2.42726 -2.01798,-2.40855 -3.7928,0.0368 -4.80493,-2.69536 -2.55856,-6.90644 3.615,-6.77684 10.10491,-14.75326 14.67632,-18.038 2.51789,-1.80919 7.80354,-7.04721 11.74592,-11.64003 14.02473,-16.33867 26.24208,-26.11201 38.49457,-30.79394 5.85197,-2.23616 7.10365,-3.1649 9.68336,-7.18506 5.21574,-8.12801 6.17138,-12.43802 5.54735,-25.01895 -0.67349,-13.57812 -2.5223,-20.25068 -6.55007,-23.63985 -3.58576,-3.01722 -7.95829,-3.19706 -22.53477,-0.92681 -9.17997,1.42977 -10.22697,1.42977 -13.09297,0 -3.91493,-1.95302 -11.44693,-2.00036 -15.99391,-0.1005 -1.91337,0.79944 -6.65112,4.46691 -10.5284,8.14993 -3.87724,3.68298 -8.80091,7.58986 -10.94145,8.68187 l -3.89192,1.98547 v -5.80008 c 0,-5.70923 -0.0422,-5.80004 -2.69577,-5.80004 -1.70301,0 -6.10478,2.26344 -11.95288,6.14629 -10.5529,7.00664 -15.01992,8.21951 -18.1199,4.91973 -2.26653,-2.41258 -2.49364,-6.49548 -0.47369,-8.51543 0.79237,-0.79241 3.77634,-2.77704 6.63101,-4.41033 2.85467,-1.63328 5.75661,-3.65192 6.44874,-4.48591 1.47499,-1.77722 2.24202,-25.96767 1.31361,-41.42851 l -0.58362,-9.71923 -3.71011,0.99031 c -4.51519,1.20515 -8.65008,-0.29494 -8.65008,-3.13807 0,-2.35509 4.35781,-5.87108 7.27675,-5.87108 5.24537,0 5.24763,-0.007 5.24763,-16.402315 0,-8.378015 -0.26326,-15.918541 -0.58479,-16.756685 -0.88249,-2.299743 -3.6588,-1.834645 -6.59889,1.105448 -4.88544,4.885397 -7.23376,12.088998 -9.19304,28.199906 -0.61217,5.033846 -1.74555,13.054256 -2.51858,17.823166 -1.99122,12.28388 -2.73994,40.97062 -1.45319,55.67852 l 1.07828,12.32484 -2.87255,5.51941 c -3.51999,6.76348 -4.45161,11.56193 -5.34805,27.54583 -0.66897,11.92776 -0.6236,12.40455 1.11317,11.70149 6.35704,-2.57338 12.88985,-2.75759 12.88985,-0.36339 0,2.96762 -3.82652,6.92879 -8.98093,9.29692 l -5.60899,2.57702 0.61385,8.18904 c 2.56511,34.22111 9.40896,54.59892 23.33835,69.49051 3.72242,3.9796 4.24596,5.05337 3.96613,8.13493 -0.31351,3.45456 -0.20573,3.58532 4.01306,4.85626 6.04802,1.82209 7.34223,1.77202 5.68888,-0.22029 -1.10993,-1.3374 -0.93857,-1.85853 1.22248,-3.71739 3.31663,-2.85282 21.83128,-7.48005 28.29512,-7.07157 4.44805,0.2811 4.75854,0.46677 4.53165,2.71029 -0.26618,2.63114 -5.19184,7.70733 -7.47895,7.70733 -0.78644,0 -1.42992,0.43353 -1.42992,0.96341 0,0.52987 0.69668,0.9634 1.54822,0.9634 1.01591,0 1.34712,0.52394 0.9634,1.52394 -0.32152,0.83814 -0.58478,1.68091 -0.58478,1.87277 0,0.92469 -14.59866,11.1309 -19.26831,13.47085 -2.91432,1.46036 -6.72285,3.89858 -8.4634,5.41822 -3.14568,2.74649 -5.49913,3.37937 -7.53303,2.0257 -0.58493,-0.38929 -1.36685,-5.25994 -1.73764,-10.82366 -0.37075,-5.56372 -0.93559,-11.17475 -1.25518,-12.469 l -0.58103,-2.35312 -0.82664,2.23467 c -0.45465,1.22903 -1.91625,6.62333 -3.248,11.98726 -2.80544,11.29968 -6.11494,20.8319 -7.23258,20.8319 -0.42723,0 -1.71358,-2.49284 -2.85861,-5.53962 z m 36.91721,-208.23808 c 2.91697,-1.53442 6.97118,-3.07132 9.00941,-3.41535 l 3.70585,-0.62549 -0.2061,-31.99016 c -0.11324,-17.594567 -0.48665,-39.930128 -0.82948,-49.634542 -0.5716,-16.181694 -0.7892,-17.798957 -2.62487,-19.509144 -2.81949,-2.626764 -7.6144,-2.386405 -11.11245,0.557002 -5.11956,4.307822 -6.07113,9.057363 -6.94623,34.669685 -0.95208,27.865159 -1.14678,69.101769 -0.33646,71.213919 0.85228,2.22106 3.35662,1.88162 9.34022,-1.26592 z m -4.99489,-19.71422 c -0.83104,-1.00131 -0.60638,-1.91908 0.95594,-3.90524 1.64566,-2.09212 2.70341,-2.53949 5.44698,-2.30386 4.48188,0.38492 6.09641,2.83257 3.65094,5.53481 -2.09321,2.31297 -8.34586,2.73233 -10.05386,0.67429 z m 1.57295,-42.121904 c -2.36154,-1.375447 -2.10985,-5.297186 0.45519,-7.093817 2.69617,-1.888463 8.8118,-1.94807 10.34484,-0.100862 1.66747,2.009207 0.34701,5.136024 -2.8723,6.800696 -3.21245,1.661212 -5.55236,1.777514 -7.92773,0.393983 z m 46.06491,55.494624 c 4.57116,-5.73275 5.27712,-16.67686 3.32625,-51.563781 -0.51851,-9.272889 -0.95106,-26.086341 -0.96118,-37.363302 -0.0219,-23.053723 -0.6173,-25.951141 -5.9071,-28.686596 -2.97414,-1.537993 -3.32854,-1.533004 -6.3404,0.08885 -6.19479,3.33608 -10.8123,11.403569 -11.12931,19.444512 -0.12089,3.064188 -0.11689,24.577587 0.007,47.807583 l 0.22794,42.236314 2.89025,2.53613 c 2.14546,1.8826 2.89024,3.37875 2.89024,5.8058 v 3.26966 l 6.39677,-0.40731 c 5.64519,-0.35939 6.65542,-0.73168 8.59802,-3.168 z M 185.189,122.34965 c -1.45749,-0.59979 -2.16768,-1.70655 -2.16768,-3.37814 0,-4.68688 9.29612,-6.33221 11.95562,-2.11601 2.10414,3.33572 -5.14502,7.40482 -9.78794,5.49415 z m -4.33535,-37.641056 c -4.50303,-2.622795 0.6252,-8.603882 7.35555,-8.57883 2.18053,0.0073 4.56067,0.392345 5.28928,0.853838 1.90445,1.206347 1.6334,5.981013 -0.425,7.486162 -2.05338,1.501471 -9.79232,1.652728 -12.21983,0.238866 z m 48.6411,63.615026 c 6.42973,-1.78567 6.53164,-2.87102 3.61453,-38.48911 -2.41084,-29.435886 -5.24232,-52.109207 -7.23368,-57.923851 -3.07646,-8.983082 -8.15932,-10.638796 -14.17926,-4.618858 l -2.8708,2.870801 0.64829,45.491454 c 0.64818,45.481254 0.6488,45.491704 2.75341,46.604874 1.1578,0.61238 3.09353,2.45489 4.30159,4.09451 2.43432,3.30382 6.13759,3.86654 12.96592,1.97018 z m -13.70262,-30.7671 c -2.42984,-2.42981 -2.43225,-3.37759 -0.0146,-5.79517 3.60964,-3.60964 10.59754,-1.68083 10.59754,2.92517 0,1.94527 -1.75206,3.16509 -6.00665,4.18187 -1.94083,0.46379 -3.14608,0.11834 -4.57622,-1.31187 z m -2.90492,-37.578424 c -1.28219,-0.820229 -1.27804,-1.225901 0.0368,-3.598032 1.26723,-2.286015 2.08997,-2.67359 5.67551,-2.67359 5.28754,0 7.1815,2.229029 4.45446,5.242385 -1.92783,2.130206 -7.55539,2.699917 -10.16689,1.029237 z M 130.99808,278.91524 c -3.39226,-4.08741 25.63592,-33.39838 49.71203,-50.19632 16.12394,-11.24968 29.17886,-18.68924 32.79586,-18.68924 1.77919,0 3.23489,0.34774 3.23489,0.77271 0,1.12165 -14.90726,13.93118 -29.38415,25.24922 -6.88841,5.38538 -19.24421,15.52791 -27.45735,22.53892 -18.77747,16.02916 -25.86837,21.76843 -26.89513,21.76843 -0.44438,0 -1.34716,-0.64967 -2.00615,-1.44372 z m 7.38505,-55.07661 c -0.35321,-0.35321 -0.64229,-1.56003 -0.64229,-2.68168 0,-4.83733 51.78435,-32.80427 67.67987,-36.55159 2.44816,-0.57714 2.64942,-0.40116 2.64942,2.31704 0,2.61118 -0.83884,3.48457 -7.46647,7.77429 -8.42043,5.45005 -34.93564,18.72555 -50.67387,25.37109 -11.77552,4.97231 -10.69734,4.6202 -11.54666,3.77085 z m -19.03276,-83.0504 c -2.15581,-1.74566 -2.17365,-1.88217 -0.56625,-4.33539 2.30476,-3.51749 7.63447,-3.57112 9.90905,-0.0998 1.49295,2.27855 1.48486,2.55416 -0.12708,4.33538 -2.16997,2.39777 -6.32227,2.4427 -9.21569,0.0998 z"
       id="path4265"
       sodipodi:nodetypes="csssssssssssssssssssssssssscsssssscscsssscssssssssssssssssssscsssssssssssssscsssssssscssssssssscssssscsssssssssssssssssscsssccsscsssssssssssssssssscscsssccsscsccssssscsssssssscsssssssssssssssssssssssssssssssssssss" /></g><metadata
     id="metadata182"><rdf:RDF><cc:Work
         rdf:about=""><cc:license
           rdf:resource="http://creativecommons.org/licenses/by-sa/4.0/" /><dc:creator><cc:Agent><dc:title>Jameela P</dc:title></cc:Agent></dc:creator><dc:publisher><cc:Agent><dc:title>OpenDataKerala.org</dc:title></cc:Agent></dc:publisher><dc:date>April 2026</dc:date><dc:title>Election Symbols of Kerala</dc:title></cc:Work><cc:License
         rdf:about="http://creativecommons.org/licenses/by-sa/4.0/"><cc:permits
           rdf:resource="http://creativecommons.org/ns#Reproduction" /><cc:permits
           rdf:resource="http://creativecommons.org/ns#Distribution" /><cc:requires
           rdf:resource="http://creativecommons.org/ns#Notice" /><cc:requires
           rdf:resource="http://creativecommons.org/ns#Attribution" /><cc:permits
           rdf:resource="http://creativecommons.org/ns#DerivativeWorks" /><cc:requires
           rdf:resource="http://creativecommons.org/ns#ShareAlike" /></cc:License></rdf:RDF></metadata></svg>
