<?xml version="1.0" encoding="UTF-8" standalone="no"?>
<!-- Created with Inkscape (http://www.inkscape.org/) -->

<svg
   width="1500"
   height="1500"
   viewBox="0 0 396.87499 396.875"
   version="1.1"
   id="svg5"
   xml:space="preserve"
   inkscape:version="1.3 (0e150ed6c4, 2023-07-21)"
   sodipodi:docname="Helmet.svg"
   inkscape:export-filename="Grapes.png"
   inkscape:export-xdpi="96"
   inkscape:export-ydpi="96"
   xmlns:inkscape="http://www.inkscape.org/namespaces/inkscape"
   xmlns:sodipodi="http://sodipodi.sourceforge.net/DTD/sodipodi-0.dtd"
   xmlns="http://www.w3.org/2000/svg"
   xmlns:svg="http://www.w3.org/2000/svg"
   xmlns:rdf="http://www.w3.org/1999/02/22-rdf-syntax-ns#"
   xmlns:cc="http://creativecommons.org/ns#"
   xmlns:dc="http://purl.org/dc/elements/1.1/"><title
     id="title186">Election Symbols of Kerala</title><sodipodi:namedview
     id="namedview7"
     pagecolor="#ffffff"
     bordercolor="#000000"
     borderopacity="0.25"
     inkscape:showpageshadow="2"
     inkscape:pageopacity="0.0"
     inkscape:pagecheckerboard="0"
     inkscape:deskcolor="#d1d1d1"
     inkscape:document-units="mm"
     showgrid="false"
     inkscape:zoom="0.25"
     inkscape:cx="230"
     inkscape:cy="1082"
     inkscape:window-width="1920"
     inkscape:window-height="991"
     inkscape:window-x="-9"
     inkscape:window-y="-9"
     inkscape:window-maximized="1"
     inkscape:current-layer="layer1" /><defs
     id="defs2"><inkscape:path-effect
       effect="bspline"
       id="path-effect3248"
       is_visible="true"
       lpeversion="1"
       weight="33.333333"
       steps="2"
       helper_size="0"
       apply_no_weight="true"
       apply_with_weight="true"
       only_selected="false" /><inkscape:path-effect
       effect="bspline"
       id="path-effect577"
       is_visible="true"
       lpeversion="1"
       weight="33.333333"
       steps="2"
       helper_size="0"
       apply_no_weight="true"
       apply_with_weight="true"
       only_selected="false" /></defs><g
     inkscape:label="Layer 1"
     inkscape:groupmode="layer"
     id="layer1"><path
       style="fill:#000000;stroke-width:1.57193"
       d="m 45.339965,357.04039 c -1.207081,-0.50044 -1.832442,-1.15459 -2.654368,-2.77659 -2.260532,-4.46093 -2.700877,-6.38472 -2.934413,-12.8199 -0.422806,-11.6506 1.758873,-26.88378 5.767303,-40.26911 3.572592,-11.92996 12.000347,-30.96762 15.835501,-35.77121 0.981973,-1.22993 3.189087,-4.57004 4.904696,-7.42246 1.71561,-2.85243 3.605718,-5.54565 4.200238,-5.98494 0.86457,-0.63881 4.111442,-1.20474 16.220314,-2.82715 30.498074,-4.08632 41.443834,-5.88432 52.986764,-8.70387 11.49287,-2.80733 13.43047,-3.74653 14.96126,-7.25206 3.39281,-7.76964 5.71293,-26.82034 4.84195,-39.75782 -0.64791,-9.62444 -0.84876,-10.22518 -4.41471,-13.20511 -9.5981,-8.02079 -16.72471,-12.44383 -39.71897,-24.65107 -16.210892,-8.6061 -24.734623,-14.08163 -30.458653,-19.5663 -1.793454,-1.71845 -1.981974,-2.07806 -1.981974,-3.78069 0,-2.76383 2.105202,-6.74742 4.432834,-8.38808 1.095665,-0.77231 2.341027,-2.206 3.118928,-3.59063 0.712233,-1.26773 2.113318,-3.38519 3.113519,-4.70545 l 1.818547,-2.40049 -0.980963,-0.37295 c -0.539531,-0.20514 -4.143812,-1.49049 -8.009513,-2.85633 -26.01936,-9.19327 -46.059437,-18.028953 -60.34659,-26.606843 -8.121077,-4.87583 -15.012699,-11.03259 -15.930133,-14.23151 -0.7890528,-2.751264 1.502205,-6.39917 4.292738,-6.834468 0.727045,-0.113493 17.791757,-0.292316 37.921582,-0.397556 20.49136,-0.107206 39.43694,-0.394554 43.046214,-0.653057 6.325214,-0.453029 6.626554,-0.519537 16.012364,-3.534209 17.09126,-5.489622 23.2465,-7.216698 34.93606,-9.802579 25.4468,-5.629147 42.34755,-7.156226 62.36962,-5.63545 7.25395,0.55096 7.49763,0.599407 8.42208,1.674133 0.99489,1.156639 1.23996,3.072393 0.55644,4.349583 -0.37108,0.693361 0.13708,0.755609 8.21414,1.0063 11.3413,0.352001 16.02318,0.803773 29.11465,2.809378 19.63105,3.007472 33.9257,7.285485 54.77393,16.392424 10.43762,4.559391 25.98046,12.852191 30.38538,16.212001 1.37587,1.04942 4.75863,5.58705 4.75863,6.38321 0,0.21372 1.65762,1.71224 3.68363,3.33005 2.02601,1.61781 6.04231,5.33675 8.92512,8.264293 13.98587,14.20295 25.59245,32.66406 29.63243,47.13254 0.91909,3.29162 1.11726,4.93216 1.20441,9.97051 0.0574,3.31685 0.33013,6.84244 0.60613,7.83466 1.46623,5.27092 1.80044,8.82627 2.00168,21.2932 0.36781,22.78788 -1.87882,42.50548 -6.97679,61.2319 -4.30589,15.81688 -9.04394,28.43025 -13.08275,34.82813 -0.81613,1.29284 -0.97004,2.18748 -1.11279,6.4687 -0.21829,6.54632 -0.59289,7.2645 -4.78595,9.17533 -5.23643,2.38633 -16.19615,5.83797 -26.84428,8.45433 -23.14262,5.68639 -48.42899,8.89246 -90.57273,11.4838 -6.99045,0.42983 -19.17091,1.43432 -25.37024,2.09222 -12.19938,1.29467 -37.6598,5.19972 -51.15638,7.84627 -4.00308,0.78495 -11.67653,2.28493 -17.05211,3.33325 -5.37558,1.04833 -12.11325,2.45879 -14.9726,3.13433 -2.85935,0.67555 -8.56765,1.9912 -12.68512,2.92369 -4.11746,0.93248 -10.38724,2.42518 -13.93283,3.31711 -35.009731,8.80707 -52.467753,12.9779 -58.226764,13.91074 -4.904622,0.79445 -6.839036,0.78262 -8.857461,-0.0542 z m 5.946122,-3.23509 c 0,-0.10421 -0.482571,-0.89964 -1.072379,-1.7676 -0.834679,-1.22831 -1.04092,-1.97643 -0.930453,-3.37509 l 0.141929,-1.797 -2.500767,0.28411 c -1.375421,0.15625 -2.566625,0.34452 -2.647117,0.41835 -0.301736,0.27677 1.269837,4.34144 2.07372,5.36342 0.69491,0.88343 1.183042,1.06329 2.885729,1.06329 1.127137,0 2.049341,-0.0854 2.049341,-0.18948 z m 16.220314,-3.55634 c 5.604326,-1.34319 20.76408,-5.06655 33.688339,-8.27411 28.03326,-6.95735 33.24721,-8.13191 57.60291,-12.97644 17.08145,-3.39764 22.03506,-4.46902 18.09188,-3.913 -0.80061,0.11286 -4.63733,0.68335 -8.52606,1.26768 -11.63596,1.74845 -16.08213,2.34032 -16.2582,2.16424 -0.24432,-0.24432 7.02519,-1.71651 17.91855,-3.62877 5.25941,-0.92326 9.84477,-1.76553 10.18969,-1.87169 0.90669,-0.2791 14.31799,-1.88386 15.46471,-1.85048 1.81693,0.053 -0.41453,0.71091 -4.84622,1.42904 -3.99434,0.64726 -5.3938,1.0381 -3.71812,1.03838 0.43844,8e-5 3.2302,-0.45612 6.20392,-1.01378 11.79723,-2.2123 40.6966,-5.34812 59.47449,-6.45345 44.15773,-2.59929 74.15169,-7.06296 97.52983,-14.51427 7.78954,-2.48276 14.61914,-4.94867 15.13674,-5.46532 0.50295,-0.50202 0.92836,-8.73708 0.45135,-8.73708 -0.16186,0 -0.97482,0.36653 -1.80659,0.8145 -2.22339,1.1975 -16.27852,5.55551 -24.17913,7.49712 -9.32438,2.2915 -16.99832,3.80523 -29.32134,5.78383 -22.25845,3.57382 -36.35633,5.20424 -66.75283,7.71998 -30.42411,2.51804 -48.15404,4.53422 -68.00055,7.73278 -5.7187,0.92165 -14.42151,2.31818 -19.3396,3.10339 -4.91808,0.78522 -11.28144,1.80363 -14.14079,2.26313 -25.92662,4.1665 -58.849743,12.37199 -79.43794,19.79846 -3.545593,1.27895 -7.475901,2.68908 -8.734014,3.13362 l -2.287481,0.80824 -0.112707,2.29675 c -0.104376,2.12684 -0.0121,2.38947 1.247716,3.54985 1.62713,1.49874 0.599602,1.61972 14.46145,-1.7026 z m -13.308975,0.97755 c 0,-0.65727 2.628984,-1.78189 5.614723,-2.40185 1.601236,-0.33248 8.151747,-2.09906 14.556692,-3.9257 26.251159,-7.48668 35.780499,-9.84061 51.553299,-12.73471 10.73501,-1.96972 14.95985,-2.37183 7.29732,-0.69454 -2.40185,0.52576 -8.01657,1.89581 -12.47716,3.04454 -4.46059,1.14875 -13.72488,3.46817 -20.58732,5.1543 -15.181778,3.73019 -37.202764,9.39422 -41.174641,10.59054 -4.182942,1.25988 -4.782913,1.38123 -4.782913,0.96742 z M 230.02146,314.18586 c -2.22717,-0.33738 -1.17979,-1.00723 1.24772,-0.79797 2.99843,0.25847 2.9751,0.25044 1.97555,0.67997 -0.88052,0.37836 -1.38311,0.39677 -3.22327,0.11805 z m 38.36729,-1.25259 c 0,-0.44943 6.56445,-1.17361 6.96922,-0.76884 0.506,0.506 -0.36559,0.73784 -3.60979,0.96021 -2.14419,0.14697 -3.35943,0.0778 -3.35943,-0.19137 z m 28.17758,-3.29991 c 0.28595,-0.11538 0.75384,-0.11538 1.03977,0 0.28593,0.11538 0.052,0.20977 -0.51988,0.20977 -0.57187,0 -0.80582,-0.0943 -0.51989,-0.20977 z m 38.42538,-6.15988 c 0.10815,-0.10815 1.58988,-0.48622 3.29259,-0.84008 7.08615,-1.47258 19.81897,-6.24111 21.90983,-8.20538 1.33415,-1.25337 1.23934,-2.39492 -0.20221,-2.4348 -1.12176,-0.031 -1.11687,-0.0413 0.25446,-0.53763 0.76902,-0.27831 1.64903,-0.84901 1.95558,-1.26825 0.91288,-1.24844 1.97111,-0.52661 1.62634,1.10934 -0.77106,3.65866 -1.89645,4.67307 -7.77915,7.01199 -5.43044,2.1591 -22.1534,6.26079 -21.05744,5.16481 z M 55.237189,341.92264 c 3.888716,-1.32996 10.90712,-3.7361 15.596455,-5.34698 24.31402,-8.3524 51.028376,-14.16301 101.480926,-22.07304 22.22496,-3.48446 33.53794,-4.82584 58.14261,-6.89403 41.82349,-3.51553 69.64427,-6.92892 93.45495,-11.46615 11.01862,-2.09963 16.07775,-3.28103 25.00348,-5.8387 12.75527,-3.65504 17.33363,-5.62529 19.26402,-8.29013 1.64478,-2.27055 4.39625,-8.94046 7.70846,-18.68623 7.36179,-21.66117 10.77026,-41.98079 11.30193,-67.37667 0.28054,-13.40025 -0.16515,-20.08703 -1.74682,-26.20788 -0.97447,-3.77103 -1.11733,-5.09282 -1.05578,-9.76795 0.0572,-4.34119 -0.10202,-6.06251 -0.8075,-8.73401 -3.67844,-13.92868 -14.91089,-31.72193 -28.98893,-45.92116 -3.72229,-3.75432 -6.87284,-6.720993 -7.00124,-6.592593 -0.12842,0.12842 0.34521,1.379713 1.05242,2.780723 2.6575,5.26446 7.11261,17.8299 8.7645,24.71981 0.4465,1.86237 0.81314,4.66385 0.81474,6.22549 0.003,2.61165 -0.0987,2.94095 -1.26389,4.10616 -1.14439,1.14439 -1.46279,1.24796 -3.29482,1.07194 -3.27641,-0.31483 -5.52381,-2.15289 -15.04624,-12.30581 -10.33579,-11.02013 -15.25124,-15.91333 -19.2793,-19.19204 -12.47235,-10.152103 -27.61201,-16.886503 -46.29445,-20.592633 -21.54756,-4.27449 -39.93273,-6.65901 -53.73082,-6.96875 -7.73821,-0.17372 -19.13257,0.0677 -19.12031,0.40529 0.006,0.17156 1.73077,1.62202 3.83229,3.22326 10.93382,8.33088 12.9603,9.84078 17.36756,12.94021 2.6306,1.85 10.77194,7.353413 18.09188,12.229813 25.97344,17.30302 26.93184,18.13081 28.1018,24.27241 0.52643,2.76349 -0.17895,6.86216 -1.74608,10.14581 -1.52113,3.1872 -5.19007,7.06331 -8.0604,8.5155 -6.50292,3.29001 -17.9628,5.12677 -44.91327,7.19862 -17.4176,1.33898 -27.50973,1.28631 -31.69659,-0.16545 -6.2586,-2.17012 -14.34777,-7.71797 -23.43083,-16.0697 -1.49783,-1.37725 -3.36941,-3.04201 -4.15905,-3.69952 -0.78966,-0.65749 -2.56364,-2.24832 -3.94219,-3.53518 -3.87683,-3.61898 -14.41299,-12.36026 -19.51342,-16.18924 -2.52894,-1.89851 -6.28248,-4.26325 -8.34122,-5.25498 -4.66062,-2.24512 -13.45653,-5.33883 -14.44454,-5.08045 -0.41491,0.10846 -0.90827,-0.10878 -1.12699,-0.49618 -0.47682,-0.84469 -0.22306,-1.11097 -5.09013,5.34149 -5.410509,7.17292 -7.817191,10.68557 -7.522848,10.97992 0.137245,0.13723 0.929533,0.24953 1.76065,0.24953 0.831118,0 1.688923,0.16719 1.906234,0.37152 0.217311,0.20433 2.031535,1.06823 4.031614,1.91978 l 3.6365,1.54825 4.13829,-1.08889 c 6.73548,-1.77228 9.80807,-2.06504 13.39224,-1.27596 7.78963,1.71494 14.89578,6.96417 22.0611,16.29628 1.44505,1.88204 2.67782,2.93649 4.78291,4.09107 4.81157,2.63899 12.58776,7.23361 17.62912,10.41627 3.62742,2.29003 5.27908,3.63033 6.71236,5.44699 2.72572,3.45483 6.52308,7.66615 8.34377,9.25332 l 1.56762,1.36655 12.98907,-0.67561 c 7.144,-0.37159 16.82581,-0.86825 21.51515,-1.10371 4.68934,-0.23548 13.27075,-0.71513 19.06982,-1.06593 5.79907,-0.35079 13.19178,-0.67206 16.42827,-0.71395 5.50894,-0.0714 6.07926,-0.003 8.93588,1.07166 7.61059,2.86279 14.70334,6.76752 15.66267,8.62266 0.97719,1.88968 0.79326,3.64436 -0.51818,4.94325 -0.62906,0.62304 -4.79331,3.06193 -9.25389,5.41974 -4.46059,2.35781 -11.05905,6.25004 -14.66326,8.64938 -6.70836,4.46583 -19.7136,14.04642 -25.23012,18.58635 -1.69716,1.3967 -4.22378,3.46224 -5.61473,4.5901 -4.94259,4.00772 -13.13876,11.53005 -15.92311,14.61401 -3.96368,4.39023 -13.99653,13.6861 -16.9099,15.66778 -5.90485,4.01648 -13.2521,6.11154 -42.68738,12.17231 -18.15711,3.73857 -58.167674,10.59571 -61.850542,10.60014 -2.506458,0.003 -4.533284,-0.74769 -10.316956,-3.82119 -2.291824,-1.2179 -5.261468,-2.5864 -6.599209,-3.04112 l -2.432254,-0.82675 -1.590833,1.79264 c -2.984753,3.3634 -10.27265,19.59433 -14.040298,31.26926 -2.940104,9.11059 -5.110036,18.53067 -6.131488,26.61795 -0.76386,6.04781 -1.228011,15.99309 -0.842348,18.04885 l 0.294486,1.56974 2.157994,-0.28758 c 1.186897,-0.15817 5.339671,-1.37572 9.228387,-2.70568 z m -9.52765,0.16834 c -0.354242,-0.92313 0.464796,-10.64859 1.249223,-14.83359 0.352132,-1.87867 1.166205,-5.56806 1.80905,-8.19867 0.642847,-2.6306 1.486739,-6.1866 1.875318,-7.9022 3.834784,-16.93095 11.642308,-37.90956 15.233136,-40.93105 1.573003,-1.3236 4.224445,-1.40652 4.464533,-0.13959 0.07586,0.40031 -0.109736,0.73458 -0.412447,0.7428 -1.670116,0.0454 -4.223655,3.59312 -7.922131,11.00653 -6.729092,13.48815 -12.371506,33.54054 -13.575362,48.24504 -0.187276,2.28749 -0.281749,4.2318 -0.209942,4.32071 0.297286,0.3681 1.602701,-3.90996 4.968079,-16.28121 0.8561,-3.14704 1.632678,-5.64578 1.725728,-5.55272 0.09304,0.0931 -0.02465,0.88991 -0.261546,1.77081 -0.2369,0.88089 -1.192988,5.62551 -2.124639,10.5436 -1.972159,10.4108 -2.101871,10.8854 -4.063837,14.86861 -1.469337,2.98308 -2.253189,3.64909 -2.755163,2.34096 z M 83.396943,330.0634 c 0.425134,-0.42514 20.509247,-6.47132 27.571577,-8.30024 7.83564,-2.02917 14.88027,-3.44599 23.81546,-4.78979 11.5594,-1.73845 7.83122,-0.70018 -17.99278,5.0108 -13.46013,2.97673 -22.506467,5.18434 -28.116502,6.86138 -4.809581,1.43778 -5.704086,1.64417 -5.277755,1.21785 z m 59.084337,-14.20424 c 0.40466,-0.10547 0.96613,-0.0986 1.24771,0.0157 0.28158,0.11397 -0.0495,0.2002 -0.73575,0.19173 -0.68624,-0.008 -0.91663,-0.1017 -0.51196,-0.20715 z m 30.87306,-3.9096 c 8.45359,-2.30987 37.39241,-7.45388 50.07501,-8.90108 2.88222,-0.32889 11.8845,-1.07766 20.00506,-1.66396 16.79157,-1.2123 25.82109,-2.01438 33.18459,-2.94772 2.81103,-0.35631 5.33766,-0.57149 5.61473,-0.47818 1.24234,0.41833 -25.47491,3.83177 -39.81447,5.08673 -14.85235,1.29986 -23.10504,2.38823 -55.12974,7.27057 -9.03425,1.37732 -16.52055,2.48732 -16.63621,2.46668 -0.11569,-0.0206 1.0998,-0.39552 2.70103,-0.83304 z M 55.062071,311.32981 c 0.01996,-0.48451 0.118507,-0.58306 0.251277,-0.25127 0.120142,0.30022 0.105366,0.65895 -0.03284,0.79714 -0.138204,0.13817 -0.236501,-0.10752 -0.218443,-0.54587 z M 140.3824,299.27963 c -1.38585,-0.97068 -1.17588,-2.95209 0.75589,-7.13342 2.74177,-5.93455 3.47669,-8.83306 2.96957,-11.71198 -0.52707,-2.99225 -1.31343,-4.73349 -3.17539,-7.03126 -1.9325,-2.38483 -1.45701,-3.94856 1.34776,-4.43236 4.60211,-0.79382 16.29794,-2.97831 23.58781,-4.4056 20.26758,-3.96825 22.74464,-4.17488 26.82591,-2.23769 4.8511,2.30261 6.54486,4.30463 5.80989,6.86732 -0.56788,1.98005 -2.15523,3.46538 -7.26556,6.79857 -9.55285,6.2308 -37.00155,20.03585 -46.32178,23.29706 -2.30285,0.80579 -3.37206,0.80329 -4.5341,-0.011 z m 3.96254,-4.27922 c 0.74343,-1.09664 1.35169,-2.24882 1.35169,-2.56039 0,-0.31157 0.74863,-2.39215 1.66362,-4.62352 1.34518,-3.28047 1.66187,-4.55962 1.65449,-6.68279 -0.0104,-2.96412 -0.92824,-5.38512 -2.63939,-6.96129 -2.0043,-1.84622 -1.26836,-2.65139 2.85647,-3.12521 1.37249,-0.15765 4.62521,-0.649 7.22824,-1.09189 2.60305,-0.44289 5.12968,-0.78837 5.61473,-0.76775 1.09197,0.0464 0.52565,0.20151 -8.18626,2.24127 -3.61501,0.8464 -6.50698,1.66252 -6.4266,1.81358 2.06862,3.8874 2.48437,5.26472 2.44721,8.10722 -0.0214,1.63954 -0.38356,4.62598 -0.80473,6.63652 -0.48128,2.29743 -0.59986,3.58669 -0.31918,3.47023 1.47328,-0.61134 14.03274,-6.44501 17.65065,-8.19844 2.37105,-1.14915 4.3723,-2.02804 4.44721,-1.95312 0.14038,0.14037 -7.14659,4.2887 -15.70057,8.93803 -2.67457,1.4537 -5.76267,2.85701 -6.86244,3.11844 -1.52884,0.36343 -2.21539,0.8006 -2.91623,1.85693 -0.50415,0.75988 -0.81521,1.3816 -0.69124,1.3816 0.7025,0 13.99202,-6.26293 25.10653,-11.83191 13.11101,-6.56933 23.15966,-12.52715 25.50763,-15.12341 1.39621,-1.54385 0.77126,-2.63917 -2.41773,-4.23759 -4.6802,-2.34585 -5.70951,-2.2518 -34.31934,3.13534 -5.60432,1.05529 -11.40621,2.12734 -12.89307,2.38232 -1.48686,0.255 -2.77508,0.51523 -2.86271,0.5783 -0.0876,0.063 0.45407,0.8133 1.20377,1.66717 1.86422,2.12323 2.88989,4.61527 3.18053,7.72762 0.21061,2.25544 0.057,3.16744 -1.1054,6.56144 -0.7425,2.16805 -1.98446,5.20521 -2.7599,6.74927 -1.66283,3.31099 -1.04828,3.80165 0.99202,0.79203 z m 43.56609,-21.94067 c 1.86847,-1.04179 6.44654,-4.44221 6.44654,-4.78827 0,-0.76787 -4.70481,-1.77842 -9.35787,-2.00998 l -4.99087,-0.24838 2.20397,-0.51105 c 3.96295,-0.91891 7.78803,-0.56686 11.20898,1.03164 1.04085,0.48637 1.35169,0.89283 1.35169,1.76748 0,0.62473 -0.32753,1.42377 -0.72784,1.77565 -1.02934,0.90481 -5.10415,3.09787 -6.34255,3.41354 -0.91747,0.23387 -0.89301,0.18323 0.20795,-0.43063 z m 127.68298,20.40296 c 0.22875,-0.088 2.38106,-0.55099 4.78292,-1.02871 20.20779,-4.01937 39.1964,-11.32792 43.08558,-16.58327 2.42135,-3.27191 9.20283,-17.50149 12.31108,-25.8323 1.74397,-4.67427 4.18279,-13.71927 4.70993,-17.46803 0.17691,-1.25813 0.40518,-2.04814 0.50728,-1.75562 0.52741,1.51114 -2.54035,14.95037 -5.55849,24.35067 -2.92957,9.12441 -8.66602,21.35368 -11.31635,24.12483 -3.16095,3.30507 -14.58796,7.57983 -28.55848,10.68355 -10.05804,2.23451 -22.19395,4.36758 -19.96347,3.50888 z m 48.03709,-9.30307 c 0,-0.60781 2.49305,-2.53405 3.25518,-2.51509 0.48005,0.0126 0.19063,0.46348 -0.93302,1.45568 -1.63959,1.44776 -2.32216,1.75916 -2.32216,1.05941 z M 66.615323,275.08929 c 1.083823,-1.56092 2.039786,-2.31762 1.387,-1.09787 -0.230381,0.43048 -0.845912,1.1549 -1.367843,1.60983 l -0.948966,0.82716 z m 262.495617,-9.48371 c -3.65625,-0.57151 -10.60325,-2.84917 -11.08942,-3.63581 -0.1828,-0.29577 -0.006,-0.3409 0.51959,-0.13314 4.50245,1.77691 15.63794,3.30776 22.48071,3.09055 2.57873,-0.0819 4.31904,-0.0126 3.86738,0.15499 -0.73998,0.27374 -10.66722,1.21424 -11.78358,1.11637 -0.25271,-0.0222 -2.05031,-0.28895 -3.99468,-0.59287 z m 1.28075,-1.91203 c -7.44356,-0.86282 -18.43378,-4.80764 -20.41653,-7.32832 -1.32645,-1.68632 -0.90148,-3.65319 1.19691,-5.53958 2.35393,-2.11613 9.21151,-5.77307 16.24536,-8.66319 11.47819,-4.71623 21.46374,-8.46681 27.47966,-10.32139 3.31684,-1.02251 6.79974,-2.217 7.7398,-2.65442 1.83769,-0.85512 6.26597,-1.09546 7.55036,-0.40978 0.39721,0.21205 1.03882,0.48274 1.4258,0.60151 1.26272,0.38758 2.21347,2.36916 2.12329,4.42545 -0.088,2.00774 -1.6478,6.79722 -3.24879,9.97601 -1.50132,2.98086 -7.52186,11.8993 -9.43103,13.97052 -2.51926,2.73306 -4.54772,3.74464 -9.48668,4.73097 -8.0891,1.61539 -14.52293,1.98366 -21.17815,1.21222 z m 15.14752,-3.04608 c 6.13346,-0.85884 10.17619,-1.8288 11.47402,-2.75293 3.73205,-2.65745 12.51835,-16.8347 13.69682,-22.1007 0.74033,-3.30814 0.51061,-3.66 -2.38697,-3.65622 -5.72613,0.008 -13.25671,2.07907 -27.98269,7.69777 -15.22957,5.81083 -21.64288,8.7328 -25.67897,11.69962 -3.48785,2.56385 -3.38934,3.22174 0.80472,5.37392 6.98812,3.58594 19.79383,5.17787 30.07307,3.73854 z m 8.78512,-3.73831 c 1.16572,-0.78505 3.19575,-2.60984 4.51114,-4.05508 l 2.39164,-2.62771 -1.10695,2.07953 c -0.60882,1.14373 -1.42483,2.45856 -1.81333,2.92182 -1.35929,1.62089 -3.70408,3.1088 -4.89913,3.1088 -1.14854,0 -1.10712,-0.0645 0.91663,-1.42736 z m 11.2283,-14.89692 c 0.99565,-1.68612 3.69747,-5.3028 3.96138,-5.3028 0.62216,0 -0.55884,2.44231 -1.98884,4.11294 -1.35602,1.58422 -2.67537,2.38006 -1.97254,1.18986 z m 3.38126,-13.07579 c -0.40031,-0.10469 -1.05536,-0.10469 -1.45567,0 -0.40031,0.10469 -0.0728,0.1902 0.72783,0.1902 0.80062,0 1.12814,-0.0857 0.72784,-0.1902 z m -51.08163,15.72789 c 3.67475,-2.8833 15.94169,-8.87113 22.72796,-11.09415 4.15429,-1.36085 12.2178,-3.53874 12.93656,-3.49408 0.1873,0.011 -2.18609,0.91463 -5.27419,2.00661 -3.0881,1.09201 -8.51566,3.25417 -12.06125,4.80482 -3.5456,1.55065 -8.59884,3.75946 -11.22945,4.90849 -2.6306,1.14902 -4.97621,2.24177 -5.21246,2.42831 -0.23624,0.18656 -0.98487,0.54028 -1.66361,0.78603 l -1.23409,0.44685 z m 54.0985,-1.97732 c 8.5e-4,-0.19958 0.3428,-0.92433 0.75987,-1.61057 0.41708,-0.68625 1.09686,-2.13672 1.51062,-3.22326 0.41376,-1.08657 0.91403,-1.97555 1.1117,-1.97555 0.61223,0 0.40585,0.8235 -0.88325,3.52457 -1.13429,2.3767 -2.50276,4.17552 -2.49894,3.28481 z m 7.70003,-17.67056 c 0.10705,-1.28431 0.5666,-7.74125 1.02122,-14.34875 0.45462,-6.6075 1.04267,-13.60445 1.30681,-15.54882 0.26411,-1.94436 0.48569,-7.27835 0.49237,-11.85329 0.009,-6.95817 0.0726,-7.80814 0.38203,-5.19884 0.20343,1.71562 0.29165,8.35971 0.19606,14.76465 -0.14194,9.51449 -0.37577,13.1674 -1.27747,19.96346 -1.22518,9.23383 -2.46973,16.40515 -2.12102,12.22159 z M 185.20765,169.45682 c -1.76507,-0.63993 -5.06633,-4.79698 -5.15356,-6.48952 -0.0563,-1.09336 -3.30133,-3.64489 -6.69975,-5.26802 -2.18923,-1.04558 -6.75946,-4.82845 -6.3401,-5.24781 0.0849,-0.0847 1.1717,0.47172 2.41533,1.23671 1.24363,0.765 3.60317,2.1645 5.24342,3.11001 4.33083,2.49649 5.33737,3.49205 6.97697,6.90092 1.69398,3.52194 3.42997,5.21481 5.3572,5.2241 0.72587,0.003 1.60052,0.1878 1.94364,0.40954 0.45109,0.29153 0.10563,0.39584 -1.24772,0.37671 -1.02937,-0.0142 -2.15231,-0.12827 -2.49543,-0.25264 z m 77.98227,-1.02538 -3.32723,-1.22986 -13.7249,0.18426 c -14.58556,0.19581 -14.69341,-0.11459 -0.3471,-0.99898 11.18864,-0.68971 16.38594,-0.0377 20.72648,2.60038 1.774,1.07817 0.53202,0.8707 -3.32725,-0.5558 z m 117.5748,-9.2606 c -0.51367,-1.12847 -1.41737,-3.6551 -2.00821,-5.61473 -3.32142,-11.01603 -4.27276,-13.57152 -7.2101,-19.36737 -1.73894,-3.43122 -3.91794,-7.36152 -4.84222,-8.73402 -2.06246,-3.06258 -2.3429,-3.53518 -2.09774,-3.53518 0.38685,0 5.61442,8.24757 8.43565,13.30896 3.11941,5.59636 5.79995,11.47711 7.2039,15.80442 0.99363,3.06255 1.81811,7.82803 1.59915,9.24303 -0.1204,0.77797 -0.3129,0.58103 -1.08043,-1.10511 z M 155.72479,143.52463 c -1.23258,-0.67415 -2.46475,-1.22573 -2.73817,-1.22573 -0.44856,0 -1.35465,-0.82892 -4.87473,-4.4596 -0.61597,-0.63533 -1.77231,-1.67654 -2.56965,-2.31383 -0.79735,-0.63729 -1.5673,-1.69405 -1.711,-2.34833 -0.36979,-1.68366 -1.50522,-2.55221 -4.68196,-3.58152 -1.52299,-0.49348 -2.84736,-1.13212 -2.94306,-1.4192 -0.25091,-0.75273 1.92601,-0.20578 5.10864,1.28355 2.28585,1.06968 2.81081,1.55236 4.36359,4.01214 1.11673,1.76902 2.66023,3.48366 4.20185,4.66774 1.34019,1.02936 2.44438,2.01045 2.45377,2.18019 0.009,0.16973 1.32714,1.17977 2.92838,2.24452 1.60125,1.06474 2.91134,2.00202 2.91134,2.08285 0,0.21552 -0.0126,0.2096 -2.449,-1.12278 z m -9.28654,-4.69385 c -2.9272,-2.24929 -4.03353,-3.4393 -4.05564,-4.36244 -0.007,-0.30372 0.59504,0.23747 1.33847,1.20265 0.74343,0.96516 2.1341,2.14945 3.09038,2.63173 0.95628,0.48228 1.93484,1.29799 2.17458,1.81268 0.23975,0.51468 0.39313,0.91917 0.34084,0.89888 -0.0523,-0.0203 -1.35216,-1.00289 -2.88863,-2.1835 z m -3.92233,-5.26311 c -0.49128,-0.19822 -1.02656,-0.57613 -1.18952,-0.8398 -0.16399,-0.26534 0.28128,-0.18074 0.99721,0.18948 0.71142,0.36789 1.29349,0.75767 1.29349,0.86616 0,0.23434 0.0284,0.23991 -1.10118,-0.21584 z m -39.13767,-8.51377 c -1.20093,-0.55912 -2.18351,-1.21234 -2.18351,-1.45161 0,-0.5926 0.20973,-0.55618 1.99212,0.34601 0.84869,0.42959 2.17626,0.91781 2.95015,1.08497 1.0248,0.22136 1.25078,0.4029 0.83181,0.66824 -0.84314,0.53399 -1.18502,0.47232 -3.59057,-0.64761 z m 29.0094,-1.9209 c -1.48686,-0.89428 -3.73275,-2.17308 -4.99086,-2.84176 -1.25812,-0.66868 -2.6618,-1.51496 -3.11929,-1.8806 -1.63203,-1.30442 3.41596,0.85649 5.49794,2.35352 1.09359,0.78635 2.64341,1.68009 3.44402,1.98611 1.68821,0.64528 2.49544,1.20024 2.49544,1.71562 0,0.57798 -0.44973,0.39782 -3.32725,-1.33289 z m -10.28593,0.47513 c -0.96793,-0.15774 -1.90372,-0.43985 -2.07953,-0.62691 -0.44452,-0.47298 4.9948,0.15247 5.48223,0.63045 0.44782,0.43907 -0.69408,0.43789 -3.4027,-0.003 z m 240.04761,-4.87907 c -0.64052,-0.83977 -0.95218,-1.39558 -0.69258,-1.23514 0.53245,0.32907 2.33299,2.76199 2.04407,2.76199 -0.1028,0 -0.71096,-0.68708 -1.35149,-1.52685 z m -263.079343,-0.4487 c 0.219967,-0.40031 1.586853,-2.41225 3.037513,-4.47099 1.86946,-2.65308 3.0992,-3.96969 4.22276,-4.52104 1.09282,-0.5363 1.71893,-0.64418 2.01577,-0.34734 0.29685,0.29684 0.0473,0.62877 -0.80322,1.06861 -0.6786,0.35092 -2.86272,2.51916 -4.8536,4.81832 -3.524917,4.07072 -4.437117,4.94088 -3.619223,3.45244 z m 228.097533,-1.88191 c -1.41199,-1.19525 -4.31292,-3.65079 -6.44653,-5.45676 -9.03554,-7.64809 -23.03188,-15.161433 -36.94374,-19.831703 -7.87419,-2.6434 -8.39006,-3.0407 -1.87158,-1.4414 11.78267,2.89086 22.39377,7.88007 32.57449,15.316153 5.01641,3.66403 16.35572,13.6466 15.44521,13.59721 -0.10484,-0.006 -1.34585,-0.98826 -2.75785,-2.1835 z M 184.9997,324.04959 c 1.11295,-0.2832 1.13542,-0.3175 0.20795,-0.3175 -0.57187,0 -1.60124,0.14289 -2.28748,0.3175 -1.11297,0.2832 -1.13542,0.31748 -0.20795,0.31748 0.57186,0 1.60122,-0.14289 2.28748,-0.31748 z M 90.3812,270.61054 c 1.944358,-0.33902 8.340786,-1.35849 14.21429,-2.26552 10.68028,-1.6493 25.59271,-4.36427 36.94208,-6.72569 3.31685,-0.69014 9.49305,-1.97694 13.72488,-2.85956 16.15532,-3.36947 26.74661,-6.36939 31.19292,-8.83526 2.62417,-1.45534 4.76968,-3.38057 13.51693,-12.12917 5.7187,-5.71958 12.45637,-12.19005 14.97259,-14.37882 14.1763,-12.33138 31.72167,-25.60389 42.2144,-31.93384 7.96187,-4.80314 4.20827,-3.18667 -5.82267,2.50751 -6.49463,3.68675 -10.62636,6.45706 -18.91123,12.67993 -7.95734,5.97685 -14.74841,11.51442 -19.66574,16.03578 -1.65936,1.52574 -3.12966,2.77409 -3.26733,2.77409 -0.4209,0 5.35449,-6.24751 9.04257,-9.78178 4.34305,-4.16193 7.62149,-6.76809 15.54165,-12.35467 13.31843,-9.3943 23.11772,-15.23011 30.15315,-17.95716 5.51725,-2.13859 8.31491,-3.64634 8.31665,-4.4821 8e-4,-0.38374 -0.60109,-1.16926 -1.33755,-1.74563 -1.09444,-0.85652 -1.21524,-1.09542 -0.66139,-1.30795 0.80788,-0.31001 3.19412,0.83914 3.52319,1.69669 0.40741,1.06168 -0.93338,2.4667 -4.15759,4.35683 -1.72512,1.01132 -3.06379,1.91157 -2.97479,2.00058 0.25046,0.25044 7.36381,-3.66091 8.41696,-4.62813 1.26677,-1.16345 1.18072,-1.73303 -0.4497,-2.97662 -1.72402,-1.31496 -8.95103,-4.72725 -13.37917,-6.31707 -3.13382,-1.12512 -3.67782,-1.19067 -9.35788,-1.1276 -3.31684,0.0368 -10.24166,0.35584 -15.3885,0.70891 -15.26783,1.04739 -43.51242,2.35207 -50.94842,2.35345 l -3.74315,6.9e-4 -3.5352,-3.85054 c -9.23136,-10.05481 -10.25564,-10.90139 -20.58731,-17.01525 -5.26121,-3.11337 -10.15207,-5.95782 -10.86859,-6.32102 -1.37189,-0.69537 -2.5116,-1.84232 -6.88441,-6.92815 -4.76622,-5.5434 -10.19275,-9.54867 -15.59246,-11.50865 -4.03775,-1.46564 -7.87768,-1.37975 -14.30114,0.31985 -5.71811,1.51298 -5.14449,1.57804 -11.619931,-1.31787 -1.944358,-0.86954 -4.476855,-1.70521 -5.627772,-1.85703 l -2.092577,-0.27603 -1.820869,2.43297 c -1.001479,1.33815 -1.958472,3.04123 -2.126654,3.78468 -0.295865,1.30782 -0.262459,1.35168 1.029698,1.35168 2.830586,0 6.543783,1.0137 13.757465,3.75576 14.35523,5.4567 31.68416,13.92813 44.91779,21.95852 6.30267,3.82456 14.49421,9.49138 17.29952,11.96761 6.91283,6.10195 8.7967,8.17098 10.16668,11.16599 2.55833,5.59296 2.88988,7.69755 2.88619,18.32086 -0.006,16.19831 -2.16533,30.23771 -5.82897,37.89202 -3.68502,7.699 -8.07843,10.06547 -24.93932,13.4333 -28.40151,5.67299 -52.25675,9.08495 -60.396658,8.6384 -4.823295,-0.2646 -10.290651,-1.58904 -12.361864,-2.9946 l -1.400512,-0.95042 -2.223551,3.59946 c -1.222954,1.9797 -2.2796,3.72082 -2.348101,3.86914 -0.06851,0.14839 0.773705,0.60934 1.871573,1.02447 1.09787,0.41515 3.286423,1.48208 4.863454,2.37096 4.00095,2.25508 8.986268,4.06638 12.105268,4.39815 0.228749,0.0244 2.006743,-0.23313 3.951101,-0.57215 z m -11.229446,-2.32602 c -2.987231,-1.0299 -4.940954,-2.23434 -4.438837,-2.73646 0.140625,-0.14069 9.026472,3.47605 9.360143,3.80972 0.523076,0.52307 -1.692848,0.0398 -4.921306,-1.07326 z m -8.214134,-4.13827 c -1.533368,-0.61636 -0.962534,-3.27972 1.103711,-5.14963 1.237519,-1.11995 1.365053,-0.7146 0.431333,1.37094 -0.931987,2.08165 -1.008926,3.00766 -0.308122,3.70845 0.578857,0.57886 0.105853,0.60593 -1.226922,0.0703 z m 56.38118,-1.10298 c 0.30024,-0.12009 0.65896,-0.10532 0.79716,0.0329 0.1382,0.13817 -0.10744,0.23649 -0.54588,0.21845 -0.48451,-0.02 -0.58306,-0.11853 -0.25128,-0.25129 z m 4.15906,-0.8318 c 0.30023,-0.12009 0.65895,-0.10532 0.79715,0.0329 0.13821,0.13817 -0.10744,0.23649 -0.54587,0.21843 -0.48451,-0.02 -0.58306,-0.11852 -0.25128,-0.25127 z m 1.53365,-0.35051 c 0.81574,-0.30019 18.84258,-4.48762 25.99409,-6.03814 4.00309,-0.86792 8.49487,-1.8644 9.98174,-2.21441 4.56893,-1.07552 1.88376,0.26844 -3.98194,1.99302 -5.24753,1.54283 -29.4005,6.5068 -31.36114,6.44541 -0.57676,-0.0181 -0.8615,-0.1017 -0.63275,-0.18588 z m 6.65449,-7.87675 c 0.91499,-0.29891 3.90951,-1.05812 6.65449,-1.68711 4.41202,-1.011 12.00084,-3.05737 15.9164,-4.29194 0.74786,-0.23579 1.26815,-0.28056 1.15624,-0.0995 -0.41772,0.6759 -7.40056,3.0199 -11.94806,4.01073 -2.58977,0.56427 -6.3931,1.3945 -8.45183,1.84494 -4.23797,0.92726 -5.80458,1.03219 -3.32724,0.22286 z m 40.13487,-4.02634 c 3.23004,-1.82144 7.35092,-4.62481 12.22858,-8.31892 2.30983,-1.74935 4.28329,-3.10062 4.38547,-3.00283 0.32026,0.30654 -6.32281,6.76981 -8.50389,8.27374 -2.09861,1.44705 -8.61972,4.34238 -9.77378,4.33949 -0.34312,-8.7e-4 0.40551,-0.58203 1.66362,-1.29148 z m -10.43709,-6.48945 c 0.70344,-0.8581 1.76534,-2.12163 2.35978,-2.80788 0.95582,-1.10342 1.02063,-1.12747 0.56045,-0.20795 -0.74868,1.49598 -2.87436,4.06761 -3.58893,4.3418 -0.33565,0.12874 -0.0347,-0.46789 0.6687,-1.32597 z m 6.73256,-15.9089 c -0.0126,-0.34312 0.23609,-2.12112 0.5531,-3.9511 1.11786,-6.45291 1.57589,-14.84412 1.39617,-25.57819 -0.17658,-10.54587 -0.18513,-10.62987 -1.51752,-14.91905 -0.73699,-2.37239 -1.25046,-4.40294 -1.14108,-4.51234 0.10941,-0.1094 0.70436,0.79862 1.32216,2.01779 0.78391,1.54697 1.21823,3.22438 1.43759,5.55211 0.17288,1.83448 0.66257,4.45837 1.0882,5.83085 0.66742,2.15218 0.7704,3.86852 0.74861,12.47717 -0.0218,8.63495 -0.1454,10.51483 -0.91613,13.93285 -0.91544,4.06011 -2.92954,10.26282 -2.9711,9.14991 z m -1.75799,-51.46574 c -1.36354,-1.64559 -1.69017,-2.18607 -1.3211,-2.18607 0.45856,0 2.36342,2.47931 2.1041,2.73863 -0.0978,0.0978 -0.45015,-0.15091 -0.783,-0.55256 z m 32.60036,-1.23625 c 0.62906,-0.0952 1.65842,-0.0952 2.28747,0 0.62907,0.0953 0.11444,0.17326 -1.14373,0.17326 -1.25811,0 -1.77281,-0.078 -1.14374,-0.17326 z m -47.77594,-9.7878 c -2.62393,-1.8547 -6.63599,-5.19941 -5.56393,-4.63849 1.23226,0.64478 7.29545,4.85352 8.09859,5.62161 1.44674,1.3836 0.0439,0.83947 -2.53466,-0.98312 z m -37.5528,-21.16487 c -15.44489,-7.42914 -18.76045,-9.17107 -18.74524,-9.84842 0.003,-0.15593 0.18327,-0.56342 0.39949,-0.90544 0.34401,-0.54417 0.46009,-0.53499 0.92941,0.0734 0.61367,0.7955 1.05749,1.02801 11.74649,6.15357 9.26993,4.44511 19.80961,10.10983 21.37383,11.4877 0.60739,0.53502 1.01075,0.96183 0.89638,0.94844 -0.11437,-0.0142 -7.58454,-3.57255 -16.60036,-7.90924 z m -17.12362,-13.00043 c 0.26517,-0.31951 0.84745,-0.48538 1.29397,-0.36861 1.10312,0.28846 0.60885,0.94953 -0.70995,0.94953 -0.8655,0 -0.97541,-0.10924 -0.58402,-0.58092 z m -9.060863,-2.63965 c -2.390451,-0.1344 -2.573737,-0.20671 -1.871575,-0.73845 1.097063,-0.83081 2.648359,-0.74924 4.105634,0.21587 0.686245,0.4545 1.06056,0.79152 0.831811,0.74895 -0.228748,-0.0426 -1.60839,-0.14446 -3.06587,-0.22637 z m -5.876098,124.45326 c 12.114251,-1.10195 35.710491,-4.57186 46.900961,-6.89695 7.02462,-1.45953 15.24767,-3.7707 17.49475,-4.91706 1.82196,-0.9295 3.69684,-2.92069 5.20677,-5.52976 2.47365,-4.2743 4.88761,-16.09218 5.88647,-28.81798 0.29631,-3.77518 -0.39559,-16.11873 -1.08915,-19.43047 -0.55304,-2.64076 -1.98715,-6.14771 -2.514,-6.14771 -0.22164,0 -0.21402,0.30889 0.0184,0.74307 1.65554,3.09341 2.61345,18.16566 1.74138,27.39955 -1.31325,13.90531 -4.20956,25.86621 -7.01612,28.9746 -0.95095,1.05323 -4.7564,2.93115 -7.57084,3.73609 -4.57312,1.30792 -16.97358,4.02213 -22.25094,4.8703 -5.61305,0.90212 -31.733359,4.47934 -41.174644,5.63894 -9.369369,1.15076 -6.685116,1.38273 4.367006,0.37738 z m 68.812791,-75.93879 c -1.58563,-1.6429 -5.38057,-4.70368 -9.8845,-7.97225 -3.82808,-2.77809 -13.50299,-8.36258 -26.27971,-15.16899 -13.82519,-7.36493 -22.16374,-12.08816 -26.729952,-15.14069 -1.662837,-1.1116 -3.235893,-2.0211 -3.495681,-2.0211 -1.000473,0 1.316764,1.90093 6.311067,5.17722 5.965656,3.91351 9.821286,6.09066 22.874806,12.91669 5.14683,2.69142 10.38723,5.49932 11.64535,6.23978 11.89203,6.99908 15.46224,9.35868 22.175,14.65583 4.2159,3.32683 5.99233,4.01643 3.38362,1.31351 z m 62.19743,-24.06517 c 18.10465,-1.43165 23.71188,-2.10222 29.90035,-3.57579 5.23024,-1.24539 7.83377,-2.59717 10.33901,-5.36811 4.44046,-4.91141 5.57957,-11.93625 2.55835,-15.77713 -1.43849,-1.82874 -9.90588,-7.99375 -22.58453,-16.44354 -4.55198,-3.03371 -9.13734,-6.11773 -10.18968,-6.85339 -1.05234,-0.73567 -4.06565,-2.82048 -6.69625,-4.63294 -6.65868,-4.587783 -22.93862,-16.856243 -26.23644,-19.771633 -1.50578,-1.33115 -5.06177,-3.84704 -7.90221,-5.59084 -2.84043,-1.7438 -5.64529,-3.62648 -6.23302,-4.18373 -1.06094,-1.005919 -1.63479,-0.964907 -1.63479,0.1168 0,0.86561 3.11694,4.06252 7.4863,7.67839 2.17311,1.79836 5.7291,4.77023 7.9022,6.60415 8.47001,7.148 21.99265,16.777753 27.42181,19.527633 1.01399,0.51359 3.07272,1.7282 4.57497,2.69914 6.81488,4.40463 15.8297,10.00603 22.8233,14.18133 7.69318,4.59297 10.17674,6.46449 9.81826,7.39867 -0.10799,0.28148 0.0896,1.32241 0.43917,2.31316 0.8898,2.52199 0.80184,3.7711 -0.50817,7.21557 -1.27062,3.34089 -3.80031,6.29123 -6.59681,7.69376 -2.05485,1.03059 -6.24226,2.02342 -11.80702,2.79945 -4.88539,0.68128 -7.51351,0.76106 -4.57495,0.1388 11.17479,-2.36605 14.78605,-3.85352 17.9361,-7.38779 3.26005,-3.65767 3.85529,-5.25063 3.5632,-9.5354 l -0.24507,-3.59468 -1.82254,-1.66363 c -1.86045,-1.69823 -7.94272,-5.53312 -14.64879,-9.23607 -10.37198,-5.72722 -13.21028,-7.42602 -16.84417,-10.08171 -2.17311,-1.58813 -7.60067,-5.1671 -12.06126,-7.953263 -13.31211,-8.31498 -32.11403,-22.92552 -34.5471,-26.84576 -1.03479,-1.66726 -1.03146,-3.568022 0.008,-4.5086 0.48728,-0.440988 3.0271,-1.203907 6.34256,-1.905237 3.04139,-0.643343 6.74907,-1.458182 8.23925,-1.810749 3.97801,-0.941175 17.23963,-3.043265 23.70056,-3.756778 10.13682,-1.119448 23.71058,-1.612781 36.80765,-1.337788 6.86244,0.144146 13.69369,0.379982 15.18054,0.524206 5.95163,0.577258 0.53537,-1.135308 -10.18968,-3.221883 -11.23028,-2.184883 -42.9153,-2.030111 -60.09834,0.293541 -1.02937,0.139273 -4.83674,0.797203 -8.46081,1.462222 -7.46169,1.369226 -12.33447,1.597784 -12.33447,0.578547 0,-0.346814 0.60827,-0.904832 1.3517,-1.240014 3.44228,-1.551994 15.48077,-5.503596 24.11483,-7.915654 1.31108,-0.366259 2.46316,-0.794027 2.56018,-0.950591 0.30457,-0.491416 -12.14799,-0.09935 -18.66883,0.587806 -3.43123,0.361574 -9.42027,1.210194 -13.30898,1.885824 -3.88871,0.67563 -8.66458,1.388923 -10.61305,1.585083 -4.51257,0.454318 -22.50565,4.107302 -32.16498,6.530191 -4.08433,1.024487 -7.48864,1.800138 -7.56513,1.723648 -0.0765,-0.07655 4.10745,-1.400335 9.29764,-2.94186 16.74631,-4.97381 41.675,-10.289593 53.90685,-11.495072 6.78102,-0.668289 21.27995,-0.595603 21.93906,0.110035 0.39628,0.424216 0.84818,0.457289 1.88798,0.138172 0.75183,-0.230759 1.36687,-0.528513 1.36671,-0.661686 -8.5e-4,-0.773828 -27.28168,-0.826236 -34.93578,-0.06712 -19.11451,1.895728 -41.37178,7.089828 -68.07373,15.886107 -6.68791,2.203149 -9.28183,3.624846 -4.81954,2.641512 3.23293,-0.712428 6.50844,-1.020369 6.05756,-0.569493 -1.08414,1.084142 -12.544069,3.177476 -13.735016,2.50892 -0.621072,-0.348653 -0.639389,-0.450373 -0.114939,-0.638328 2.425495,-0.869259 3.007285,-1.117859 2.865045,-1.224232 -0.0889,-0.06649 -2.594707,0.03144 -5.568431,0.217696 -9.107904,0.570358 -41.839939,0.977707 -60.93015,0.758282 -10.605287,-0.121982 -18.483251,-0.04936 -19.037646,0.17527 -1.370764,0.555455 -1.597312,2.040769 -0.538144,3.52822 1.742866,2.447633 9.608745,5.940273 29.427449,13.066493 7.108928,2.55616 10.482768,3.66187 31.322982,10.26551 23.808592,7.544243 29.5113,9.393223 38.05535,12.338653 5.03246,1.73487 10.17929,3.6712 11.4374,4.30296 4.98657,2.504 13.93431,9.67706 30.3611,24.33934 11.38931,10.16592 12.82744,11.33953 18.31332,14.94528 4.81017,3.1616 7.76843,4.63622 10.45747,5.21282 3.06101,0.65634 19.76675,0.0926 36.52637,-1.23277 z m -33.27244,-6.22354 c -4.5866,-0.90641 -15.50473,-7.64392 -23.91457,-14.75753 -1.37248,-1.16094 -4.91368,-4.26501 -7.86934,-6.89793 -13.98167,-12.455 -19.35733,-16.72872 -26.0263,-20.69126 -2.40221,-1.42734 -4.64839,-2.77761 -4.99151,-3.0006 -1.13185,-0.7356 2.64306,0.87924 6.00472,2.56871 8.97063,4.5084 16.0141,9.9297 32.32665,24.88154 5.53607,5.07428 11.78232,10.15489 15.94541,12.9698 2.21004,1.49432 3.91086,2.23847 7.06927,3.09296 3.70382,1.00204 5.0923,1.14683 12.68511,1.3228 5.73051,0.13283 7.9806,0.30406 6.86245,0.52226 -2.03218,0.39655 -16.07302,0.38822 -18.09189,-0.011 z m 33.35921,-2.74642 c -3.94327,-0.85626 -6.87997,-2.34662 -7.86391,-3.99089 -1.14189,-1.90826 -1.30579,-9.25725 -0.28739,-12.88679 1.22854,-4.37851 5.01243,-7.70673 9.88174,-8.69173 2.94686,-0.59612 5.15991,-0.31258 8.06477,1.03326 4.62948,2.14487 7.05983,5.365 7.80636,10.34318 0.55212,3.68186 -1.10129,8.24091 -3.90849,10.77704 -2.2167,2.00265 -3.73394,2.74402 -7.05725,3.44839 -3.28074,0.69534 -3.28421,0.69532 -6.63583,-0.0324 z m -2.72147,-2.31797 c -1.07005,-0.70876 -2.71301,-2.15923 -3.65104,-3.22326 -1.42946,-1.62149 -1.58161,-1.71383 -0.94009,-0.57047 0.94786,1.68932 2.87411,3.57649 4.52245,4.43068 2.09061,1.08338 2.12895,0.72774 0.0687,-0.63695 z m 10.38063,-0.53008 c 4.96868,-1.76014 8.06969,-6.19875 7.44347,-10.65409 -1.29756,-9.23147 -11.69872,-13.10045 -18.0755,-6.72367 -1.24454,1.24454 -2.22007,2.71227 -2.65909,4.0007 -0.78153,2.29367 -0.89721,4.20719 -0.27749,4.59021 0.24569,0.15185 0.41591,-0.31374 0.41591,-1.1376 0,-2.1384 2.32576,-5.67 4.69744,-7.1329 3.30299,-2.03734 8.59471,-1.9247 11.64588,0.24792 1.48434,1.05695 2.77852,3.75955 2.74636,5.7351 l -0.0237,1.45566 -0.62804,-1.77465 c -0.37465,-1.05865 -1.205,-2.21474 -2.05801,-2.86537 -0.7865,-0.59988 -1.33251,-1.18818 -1.21335,-1.30733 0.49039,-0.49039 -1.61244,-1.40871 -3.72508,-1.62675 -3.52612,-0.36393 -6.66888,1.20571 -8.12368,4.05736 -1.38361,2.71211 -1.13119,3.72535 1.6462,6.60817 1.69251,1.75676 2.18284,2.47535 1.55965,2.28566 -1.22148,-0.37177 -2.32089,-1.38271 -3.06173,-2.81535 -0.83806,-1.62062 -1.15598,-1.1169 -0.41474,0.65714 0.95986,2.29728 3.02982,3.29916 7.32186,3.54388 l 3.64933,0.20808 1.72482,-1.55825 c 1.90677,-1.72268 2.19244,-1.62275 0.83018,0.29038 -1.23882,1.73974 -3.78652,2.80288 -6.74333,2.81397 -3.18714,0.0126 -5.98777,-1.46526 -8.01572,-4.2279 -2.14329,-2.91973 -2.9988,-2.64307 -1.41667,0.45813 2.20868,4.32939 8.01997,6.54888 12.75503,4.8715 z m 10.22584,-14.71351 c -0.41999,-1.40073 -0.40592,-1.47738 0.13817,-0.75231 0.52875,0.70463 0.85386,2.31195 0.46764,2.31195 -0.0759,0 -0.34861,-0.70183 -0.60581,-1.55964 z m -104.68806,-11.7962 c -0.91499,-0.67451 -2.08472,-1.52291 -2.59941,-1.88532 -1.04246,-0.73402 -1.22537,-1.39505 -0.38602,-1.39505 0.74025,0 3.35547,2.01697 4.44896,3.43122 1.1243,1.45411 0.64682,1.40489 -1.46353,-0.15091 z m 96.62161,-2.62519 c -6.97388,-3.50046 -16.95538,-9.38919 -15.91481,-9.38919 0.8036,0 11.57463,5.55756 15.36736,7.92915 4.81223,3.00908 4.56022,2.82982 4.31841,3.07163 -0.10296,0.10296 -1.7999,-0.62224 -3.77096,-1.61159 z M 113.7548,98.192157 c -0.52628,-0.21117 -6.23458,-1.70246 -12.68511,-3.314 -6.450542,-1.61152 -14.254879,-3.65317 -17.342977,-4.53699 -3.088098,-0.88379 -7.860612,-2.21473 -10.605588,-2.95761 -15.964876,-4.32062 -29.597108,-8.53791 -37.563677,-11.62076 -3.871546,-1.49819 -4.42001,-2.12059 -0.758618,-0.86088 2.975623,1.02376 19.884835,5.74888 32.707571,9.13981 25.662005,6.78622 44.188449,12.32151 47.297999,14.13158 0.90889,0.52907 0.25141,0.54087 -1.0496,0.0189 z m 84.31885,-8.14591 c -2.38697,-1.51795 -5.46289,-3.61895 -6.83537,-4.66889 -3.13008,-2.39448 -9.77378,-8.90292 -9.77378,-9.57479 0,-0.27653 1.26331,0.53705 2.80737,1.80794 3.33987,2.74901 16.0225,12.95726 17.73206,14.27254 2.37476,1.82705 0.32404,0.86864 -3.93028,-1.8368 z M 22.255798,72.402647 c -3.748228,-1.87301 -5.539586,-4.334743 -4.158967,-5.715365 0.762525,-0.762526 1.529072,-0.600445 1.30016,0.274914 -0.248364,0.949758 1.865864,2.784211 5.347495,4.639901 4.154769,2.21448 1.834465,2.96085 -2.488688,0.80055 z M 355.23413,133.04475 c 0.20361,-2.4602 -1.0199,-8.08812 -3.20827,-14.75745 -2.87886,-8.77364 -4.6154,-13.03516 -8.79595,-21.585663 -2.96978,-6.07406 -3.99428,-7.78054 -5.26404,-8.76801 -7.09909,-5.52097 -29.68748,-16.52573 -45.66255,-22.246201 -12.63098,-4.522997 -9.15033,-4.17829 -40.00209,-3.961647 -24.13677,0.169485 -27.69881,0.280762 -34.0291,1.062968 -13.75524,1.699661 -28.81767,4.346046 -31.9038,5.605316 l -1.33576,0.54505 1.85514,1.269441 c 1.02032,0.698183 2.48572,1.592853 3.25645,1.988123 0.77071,0.39528 2.3514,1.40126 3.51262,2.23552 l 2.11134,1.51684 19.36215,0.0142 19.36217,0.0142 9.98173,1.74131 c 38.0338,6.63503 37.00804,6.42598 45.74961,9.32428 5.63682,1.86891 17.35809,7.42257 22.66685,10.73979 6.76928,4.229833 11.5851,8.418063 20.17141,17.542713 4.57497,4.8618 9.7218,10.32254 11.4374,12.13499 4.13266,4.36595 8.15855,7.43004 9.54923,7.26788 0.89364,-0.10422 1.07625,-0.36346 1.18546,-1.68306 z m -5.37643,-3.11905 c -2.2298,-2.33214 -8.75033,-10.24267 -12.08463,-14.66066 -1.29478,-1.7156 -2.83765,-3.57302 -3.4286,-4.12758 -0.59097,-0.55454 -1.07448,-1.19543 -1.07448,-1.42418 0,-0.67596 1.96969,1.34569 5.20643,5.34381 3.84986,4.75544 10.64367,11.86584 11.33074,11.85874 0.57165,-0.006 0.38179,-2.36761 -0.39554,-4.92019 -0.77433,-2.54272 -0.0583,-1.78629 1.46634,1.54919 2.08608,4.56362 2.67043,6.85198 1.96632,7.70038 -0.29947,0.36082 -0.66897,0.65606 -0.82111,0.65606 -0.15217,0 -1.12662,-0.889 -2.16547,-1.97557 z m -4.46943,-20.11372 c -2.00351,-5.20825 -7.12779,-14.785743 -9.46149,-17.683933 -2.39902,-2.97934 -18.68578,-12.67811 -26.48529,-15.772 -1.55391,-0.6164 -2.74563,-1.20037 -2.6483,-1.29771 0.22933,-0.22933 6.63292,2.30182 12.90595,5.10133 8.07016,3.6015 17.1476,9.08498 18.64866,11.26524 1.73399,2.51854 4.57781,8.862723 6.17913,13.784793 0.92338,2.83822 1.58091,5.25834 1.46119,5.37807 -0.11978,0.11978 -0.38967,-0.22939 -0.59985,-0.77579 z m -29.541,-19.109403 c -4.20172,-3.49914 -18.686,-9.34844 -33.73365,-13.62293 -6.17231,-1.75333 -7.77964,-2.08423 -14.34873,-2.95396 -4.04896,-0.53608 -5.16402,-0.78557 -3.66047,-0.81901 5.90981,-0.13141 18.98145,2.3644 28.1989,5.38418 8.75666,2.86883 23.76379,10.37507 24.48138,12.24507 0.29945,0.78037 0.27146,0.7734 -0.93743,-0.23335 z M 197.39615,74.217637 c -0.9499,-0.94989 -5.04527,-3.29368 -6.17025,-3.53125 -2.54805,-0.538038 7.15011,-3.200017 15.69673,-4.308461 2.9077,-0.37712 5.5279,-0.588859 5.82268,-0.47054 0.29477,0.118366 0.0242,0.22991 -0.60116,0.247971 -1.36739,0.03946 -10.424,1.910001 -13.62754,2.814582 -3.16961,0.895007 -3.66175,1.348319 -2.49205,2.295488 0.50632,0.41 1.17179,0.74545 1.47881,0.74545 0.30701,0 1.07612,0.23395 1.70914,0.51988 l 1.15093,0.51989 -1.65125,0.2529 c -0.93842,0.14368 0.86232,0.29677 4.17144,0.3545 6.33392,0.11051 6.00239,0.53319 -0.8194,1.04463 -3.47729,0.2607 -3.97394,0.20911 -4.66808,-0.48504 z m 69.95284,-10.607574 c -3.20247,-0.206425 -11.0631,-0.289093 -17.46805,-0.183695 -13.88704,0.228511 -13.01374,-0.283167 1.75142,-1.026185 11.17423,-0.562325 20.76036,-0.17648 26.11426,1.051084 l 2.49543,0.572165 -3.5352,-0.01902 c -1.94436,-0.011 -6.15539,-0.187924 -9.35786,-0.394349 z M 97.867499,109.4817 c 0,-0.20711 -1.544049,-0.94609 -3.431221,-1.64219 -22.715683,-8.378733 -42.104282,-16.352373 -52.62708,-21.643133 -5.843293,-2.93796 -11.277046,-4.90541 -7.99114,-2.89344 9.582972,5.86767 30.867035,14.91755 58.434717,24.846163 4.864779,1.75207 5.614724,1.93006 5.614724,1.3326 z M 210.36993,52.879214 c 1.1924,-0.303413 1.17396,-0.318362 -0.4159,-0.337461 -0.915,-0.011 -2.03794,0.140845 -2.49543,0.337461 -0.70442,0.302706 -0.64072,0.354391 0.4159,0.337477 0.68624,-0.011 1.80919,-0.162852 2.49543,-0.337477 z m 9.46185,-0.304513 c -0.97218,-0.08756 -2.56303,-0.08756 -3.5352,0 -0.97218,0.08756 -0.17676,0.159204 1.7676,0.159204 1.94436,0 2.73977,-0.07168 1.7676,-0.159204 z m -6.75847,-2.241834 c 0,-0.737501 -0.10264,-0.797549 -0.62385,-0.364986 -0.34313,0.28477 -0.62386,0.681996 -0.62386,0.882731 0,0.200751 0.28073,0.364985 0.62386,0.364985 0.35857,0 0.62385,-0.375344 0.62385,-0.88273 z"
       id="path11" /></g><metadata
     id="metadata182"><rdf:RDF><cc:Work
         rdf:about=""><cc:license
           rdf:resource="http://creativecommons.org/licenses/by-sa/4.0/" /><dc:publisher><cc:Agent><dc:title>OpenDataKerala.org</dc:title></cc:Agent></dc:publisher><dc:date>April 2026</dc:date><dc:title>Election Symbols of Kerala</dc:title><dc:creator><cc:Agent><dc:title>Manoj Karingamadathil</dc:title></cc:Agent></dc:creator></cc:Work><cc:License
         rdf:about="http://creativecommons.org/licenses/by-sa/4.0/"><cc:permits
           rdf:resource="http://creativecommons.org/ns#Reproduction" /><cc:permits
           rdf:resource="http://creativecommons.org/ns#Distribution" /><cc:requires
           rdf:resource="http://creativecommons.org/ns#Notice" /><cc:requires
           rdf:resource="http://creativecommons.org/ns#Attribution" /><cc:permits
           rdf:resource="http://creativecommons.org/ns#DerivativeWorks" /><cc:requires
           rdf:resource="http://creativecommons.org/ns#ShareAlike" /></cc:License></rdf:RDF></metadata></svg>
