<?xml version="1.0" encoding="UTF-8" standalone="no"?>
<!-- Created with Inkscape (http://www.inkscape.org/) -->

<svg
   width="1500"
   height="1500"
   viewBox="0 0 396.87499 396.875"
   version="1.1"
   id="svg5"
   xml:space="preserve"
   inkscape:version="1.3 (0e150ed6c4, 2023-07-21)"
   sodipodi:docname="Ice cream.svg"
   inkscape:export-filename="Headphone.png"
   inkscape:export-xdpi="96"
   inkscape:export-ydpi="96"
   xmlns:inkscape="http://www.inkscape.org/namespaces/inkscape"
   xmlns:sodipodi="http://sodipodi.sourceforge.net/DTD/sodipodi-0.dtd"
   xmlns="http://www.w3.org/2000/svg"
   xmlns:svg="http://www.w3.org/2000/svg"
   xmlns:rdf="http://www.w3.org/1999/02/22-rdf-syntax-ns#"
   xmlns:cc="http://creativecommons.org/ns#"
   xmlns:dc="http://purl.org/dc/elements/1.1/"><title
     id="title186">Election Symbols of Kerala</title><sodipodi:namedview
     id="namedview7"
     pagecolor="#ffffff"
     bordercolor="#000000"
     borderopacity="0.25"
     inkscape:showpageshadow="2"
     inkscape:pageopacity="0.0"
     inkscape:pagecheckerboard="0"
     inkscape:deskcolor="#d1d1d1"
     inkscape:document-units="mm"
     showgrid="false"
     inkscape:zoom="0.25"
     inkscape:cx="230"
     inkscape:cy="1078"
     inkscape:window-width="1920"
     inkscape:window-height="991"
     inkscape:window-x="-9"
     inkscape:window-y="-9"
     inkscape:window-maximized="1"
     inkscape:current-layer="layer1" /><defs
     id="defs2"><inkscape:path-effect
       effect="bspline"
       id="path-effect3248"
       is_visible="true"
       lpeversion="1"
       weight="33.333333"
       steps="2"
       helper_size="0"
       apply_no_weight="true"
       apply_with_weight="true"
       only_selected="false" /><inkscape:path-effect
       effect="bspline"
       id="path-effect577"
       is_visible="true"
       lpeversion="1"
       weight="33.333333"
       steps="2"
       helper_size="0"
       apply_no_weight="true"
       apply_with_weight="true"
       only_selected="false" /></defs><g
     inkscape:label="Layer 1"
     inkscape:groupmode="layer"
     id="layer1"><path
       style="fill:#000000;stroke-width:1.62118"
       d="m 176.61444,387.87501 c -14.63411,-1.22226 -28.43912,-3.78299 -41.05009,-7.61451 -17.53964,-5.32897 -30.23802,-13.30949 -34.29708,-21.55461 l -1.43264,-2.91012 v -8.61001 -8.61002 l 1.58054,-3.19802 c 1.96427,-3.97442 5.20636,-7.59655 9.67592,-10.8101 13.329,-9.58339 36.95888,-16.69181 61.72173,-18.56734 l 3.91924,-0.29684 0.2485,-1.98591 c 1.1049,-8.83029 1.34825,-14.67576 1.33272,-32.01156 -0.0186,-20.73303 -0.55373,-29.02459 -2.61625,-40.53459 -1.18741,-6.62655 -2.21999,-9.96122 -3.64574,-11.77375 -0.48519,-0.61683 -2.45578,-2.42412 -4.3791,-4.0162 -3.38263,-2.80007 -3.63714,-2.92579 -7.78631,-3.84643 -21.46003,-4.76159 -41.04579,-14.5192 -56.77024,-28.28289 -5.27662,-4.61866 -5.957662,-5.29951 -11.248128,-11.24492 -8.747878,-9.83081 -16.038379,-20.76687 -21.851222,-32.77778 -5.821435,-12.02865 -8.555298,-20.26049 -7.961637,-23.97304 1.532243,-9.58212 15.622562,-17.086023 42.866187,-22.828685 l 8.94667,-1.885856 3.49253,-3.386048 c 1.92089,-1.862332 4.65065,-4.236584 6.06615,-5.276118 1.41549,-1.039534 4.0555,-3.2654 5.8667,-4.946386 6.59693,-6.122667 16.3689,-11.895629 25.23127,-14.905822 9.38481,-3.187648 20.58826,-4.619087 29.44229,-3.76179 5.07719,0.491607 11.74319,1.880133 15.56044,3.241228 1.04197,0.371526 2.20011,0.576103 2.57363,0.454612 0.68778,-0.223723 3.66406,-4.325701 11.35018,-15.643054 2.33035,-3.431312 7.27568,-10.581743 10.98963,-15.889831 3.71396,-5.308104 8.435,-12.309062 10.49121,-15.557666 4.25384,-6.7206403 6.0314,-8.3814753 10.48582,-9.7972373 8.03198,-2.5528254 26.7764,0.720599 32.39996,5.6581343 1.83046,1.607174 2.45104,3.557617 1.90508,5.987509 -0.56239,2.503006 -1.72142,4.038135 -7.53751,9.983429 -8.1754,8.357044 -11.74286,12.326068 -20.5053,22.813539 -9.6248,11.519612 -15.74403,19.458245 -15.41237,19.994872 0.12904,0.208825 0.90898,0.379665 1.73315,0.379665 2.46957,0 7.50207,1.291238 10.27064,2.635246 4.17869,2.028536 9.83585,6.565558 13.37478,10.726514 3.53413,4.155331 4.02024,4.413666 10.40417,5.529266 3.43613,0.600469 5.12339,1.28999 7.71811,3.154106 1.10921,0.79689 2.67417,1.58984 3.47769,1.76211 3.89469,0.83502 13.53777,3.81684 17.31902,5.35538 14.5918,5.937203 20.18252,12.553843 17.99965,21.302643 -2.04175,8.18327 -8.86175,23.2476 -14.49789,32.02362 -15.75081,24.52557 -35.0778,41.49669 -58.60763,51.46365 -7.41908,3.14263 -24.89865,8.45472 -27.82049,8.45472 -0.33246,0 -2.44483,1.68895 -4.69414,3.75321 -2.9502,2.70747 -4.36061,4.35077 -5.06209,5.89789 -4.01964,8.86547 -6.39962,49.50334 -4.29568,73.34833 0.3955,4.48239 0.81852,8.64932 0.94002,9.25986 0.21895,1.09999 0.27624,1.1149 6.31449,1.64381 27.09407,2.37322 52.36367,11.14733 63.36666,22.00216 5.68574,5.60919 6.79106,8.86647 6.9554,20.49689 l 0.11218,7.93534 -1.25424,2.57362 c -1.54242,3.16497 -5.75464,7.62405 -9.84697,10.42405 -13.60925,9.31153 -34.48581,15.5767 -59.60599,17.88807 -6.23775,0.57395 -28.53527,0.8062 -33.95355,0.35366 z m 27.66647,-4.45066 c 20.25113,-1.28005 37.15011,-4.87005 49.75676,-10.57023 5.07648,-2.29537 12.32386,-6.32731 14.96084,-8.32316 1.21774,-0.92166 2.38813,-1.67576 2.60086,-1.67576 0.49918,0 3.45623,-3.44689 3.45623,-4.02876 0,-0.24355 -0.91686,0.43399 -2.03745,1.50567 -2.96892,2.83932 -5.13764,4.41143 -8.72087,6.32177 -8.07536,4.30524 -20.83259,7.78896 -36.21033,9.88826 -17.75584,2.42393 -24.21388,2.74371 -39.03331,1.93273 -11.64316,-0.63718 -16.98624,-1.15891 -19.51667,-1.90572 -0.8257,-0.2437 -3.75876,-0.44023 -6.51791,-0.43673 -3.89165,0.005 -5.67117,-0.19517 -7.93535,-0.89238 -3.70039,-1.13946 -5.27787,-1.95117 -5.27787,-2.71585 0,-0.63453 0.51418,-0.84952 3.05092,-1.27564 0.85229,-0.14315 1.87481,-0.61963 2.27226,-1.05881 0.67814,-0.74936 0.67621,-0.84493 -0.0313,-1.55248 -1.19599,-1.19599 -3.46359,-1.96297 -6.5289,-2.20829 -4.59478,-0.36773 -6.55554,0.89977 -4.81496,3.11257 1.74321,2.21614 -0.0937,2.46896 -5.95823,0.82007 -2.09769,-0.5898 -4.58395,-1.07234 -5.52503,-1.07234 -0.94108,0 -2.20619,-0.18825 -2.81132,-0.41833 -1.93698,-0.73642 -1.19624,0.27142 2.22398,3.02597 5.11055,4.11587 9.33873,5.67262 22.62646,8.33068 15.39454,3.0795 33.50116,4.23782 49.97123,3.19676 z m -15.93469,-7.74297 c 1.63368,-0.56953 1.73424,-1.36139 0.25829,-2.03389 -1.31642,-0.5998 -4.44896,-0.6435 -5.34154,-0.0746 -1.04535,0.6664 0.0618,1.89837 1.97402,2.1967 0.91958,0.14347 1.69141,0.28823 1.71518,0.3217 0.0238,0.0334 0.6511,-0.15109 1.39405,-0.41003 z m -15.81858,-2.56282 c 2.24347,-1.01764 2.68024,-1.56402 2.10682,-2.63547 -0.23037,-0.43044 -0.31215,-0.95525 -0.18176,-1.16623 0.1365,-0.22082 6.19751,-0.28217 14.282,-0.14461 13.72758,0.23365 19.40548,-0.006 29.80939,-1.26322 3.34289,-0.40364 4.29065,-0.3958 4.71832,0.0391 0.42895,0.43618 0.32234,0.704 -0.53718,1.34948 -2.43409,1.82797 -2.66838,2.14875 -2.08379,2.85315 1.17149,1.41155 2.53519,1.52703 4.29336,0.36352 1.84158,-1.21871 1.91987,-1.41856 1.0211,-2.60684 -1.53624,-2.03111 -0.68042,-2.77942 4.12696,-3.60846 13.09811,-2.25879 26.17428,-6.63089 34.33205,-11.47911 10.23439,-6.08237 13.70268,-12.05605 10.65061,-18.34432 -1.4085,-2.90196 -6.33711,-7.63006 -10.91854,-10.47431 -12.1793,-7.56114 -35.10744,-14.03824 -54.1842,-15.30678 l -4.39817,-0.29248 0.25812,1.45548 c 0.91545,5.16195 1.55079,6.48408 4.55826,9.48558 1.616,1.6128 3.12433,3.42196 3.35183,4.02035 0.62524,1.64449 0.50062,6.48276 -0.20199,7.84144 -1.58207,3.0594 -6.04167,5.84628 -11.88967,7.43007 -3.0683,0.83097 -4.65247,0.97081 -11.08624,0.97871 -8.55345,0.01 -11.97332,-0.61075 -16.72857,-3.03878 -3.3972,-1.73459 -4.31602,-2.47364 -5.75068,-4.62552 -0.91013,-1.36511 -1.11233,-2.17199 -1.11233,-4.43902 0,-3.59228 0.72634,-5.04706 4.07935,-8.17054 2.75396,-2.56546 3.48374,-4.06495 4.68938,-9.63533 l 0.25532,-1.17959 -2.47457,0.003 c -5.1713,0.008 -20.47634,2.27454 -27.78188,4.11399 -10.94102,2.75485 -23.40668,7.84492 -30.45457,12.43544 -13.65008,8.89073 -14.81606,20.13914 -3.01803,29.11525 4.18109,3.18105 11.81125,7.2613 11.81125,6.31612 0,-0.19646 -1.39941,-1.39936 -3.1098,-2.67309 -4.37002,-3.25437 -8.50353,-7.61989 -10.21871,-10.79228 -1.27107,-2.35101 -1.4601,-3.09407 -1.45143,-5.70559 0.008,-2.53269 0.22661,-3.4216 1.39438,-5.68021 2.47022,-4.77775 8.81532,-10.65398 14.75293,-13.6628 1.18304,-0.59949 2.42097,-0.98637 2.75096,-0.85974 1.10022,0.42219 0.64543,1.87485 -0.88263,2.81925 -2.1334,1.3185 -5.34462,5.02576 -6.51204,7.51793 -1.49305,3.18731 -1.3996,6.90231 0.26198,10.41457 1.57789,3.33537 4.91702,6.92522 8.34605,8.97266 1.43201,0.85504 3.37574,2.16701 4.31941,2.9155 2.48676,1.97241 5.17279,3.45421 8.58325,4.73514 1.64893,0.61931 3.57712,1.47602 4.28488,1.9038 0.71471,0.43198 4.91005,1.47213 9.43662,2.33961 8.41588,1.61283 10.9379,2.3918 10.9379,3.37832 0,0.31511 -0.62731,0.84904 -1.39404,1.18652 -0.76672,0.33747 -1.39405,0.90311 -1.39405,1.25699 0,0.89704 3.93059,3.4335 5.30297,3.42207 0.62211,-0.005 1.99434,-0.40099 3.04942,-0.87959 z m 11.16427,-9.87875 c -11.20379,-0.97686 -22.87487,-3.12406 -30.15571,-5.54792 -10.12086,-3.36935 -17.06347,-7.80275 -20.12611,-12.85206 -1.64625,-2.71414 -1.68644,-2.87476 -1.51514,-6.05523 0.13764,-2.55582 0.42494,-3.69196 1.31953,-5.21847 2.09797,-3.57989 6.21515,-6.44936 12.97274,-9.04133 7.92057,-3.03804 14.78428,-4.08349 15.12201,-2.30334 0.17642,0.92983 -1.63334,1.75746 -5.29482,2.42141 -8.44998,1.53228 -17.10576,5.875 -19.78778,9.92779 -1.4738,2.22705 -1.7985,5.49685 -0.78329,7.88781 3.23727,7.62432 19.9905,14.53934 41.8145,17.25928 8.87608,1.10624 29.57481,1.10171 37.74651,-0.008 6.43781,-0.87445 14.46495,-2.85075 20.47167,-5.04018 2.9951,-1.09172 4.07817,-1.32192 4.45356,-0.94655 0.89173,0.89175 0.01,1.86885 -2.86498,3.17209 -6.31639,2.86399 -17.66715,5.40275 -28.4943,6.37317 -5.66827,0.50803 -18.90013,0.49302 -24.87839,-0.0282 z m -21.25004,-13.28126 c -0.15547,-0.25163 -0.17974,-0.56048 -0.0538,-0.68636 0.30725,-0.30727 1.14384,0.23411 1.14384,0.74019 0,0.54817 -0.74052,0.5116 -1.08998,-0.0538 z m -34.0829,-2.14147 c 0,-0.24984 0.19302,-0.33497 0.42894,-0.18916 0.23591,0.14574 0.42893,0.35022 0.42893,0.45425 0,0.10408 -0.19302,0.18916 -0.42893,0.18916 -0.23592,0 -0.42894,-0.20441 -0.42894,-0.45425 z m 138.11788,-6.00513 c 0,-0.48576 0.1846,-0.76911 0.4102,-0.62967 0.22562,0.13942 0.30148,0.53687 0.16859,0.88319 -0.34025,0.88665 -0.57879,0.78217 -0.57879,-0.25352 z M 259.45878,331.708 c -3.6235,-3.47444 -8.44797,-5.90032 -16.14455,-8.11797 -6.42717,-1.85187 -8.27305,-2.61289 -8.04227,-3.31559 0.77029,-2.34536 16.18767,2.02985 22.51933,6.39062 3.06631,2.11186 6.19004,5.61937 6.02544,6.76575 -0.22928,1.59691 -1.36335,1.14859 -4.35795,-1.72281 z m -33.08085,-3.15689 c -0.33818,-0.54719 0.3642,-0.87334 1.01481,-0.47123 0.43093,0.26631 0.40598,0.39685 -0.11397,0.59636 -0.36609,0.14056 -0.77147,0.0841 -0.90082,-0.12515 z m -5.79285,-9.22761 c -0.76604,-0.923 -0.2074,-1.93567 1.0678,-1.93567 0.60459,0 1.21132,0.29199 1.34826,0.64886 0.28427,0.74082 -0.54506,1.92476 -1.34826,1.92476 -0.29611,0 -0.77662,-0.28707 -1.0678,-0.63795 z m -6.76031,-0.50401 c -0.29489,-0.11899 -0.53617,-0.48979 -0.53617,-0.82401 0,-0.73893 2.80107,-0.85175 3.24667,-0.13083 0.53844,0.87122 -1.30677,1.5212 -2.7105,0.95478 z m -86.73123,38.64822 c 0.69335,-0.83543 0.16507,-2.03828 -1.26659,-2.88398 -3.46307,-2.04569 -5.14198,0.55394 -1.96945,3.04947 1.13177,0.89024 2.4143,0.82466 3.23604,-0.16549 z m -10.99272,-13.56296 c 0.8441,-0.98614 1.5347,-1.92521 1.5347,-2.08685 0,-0.71871 -1.85435,-2.55426 -2.58043,-2.55426 -1.72573,0 -2.79673,3.54362 -1.69384,5.60438 0.63477,1.1861 1.01388,1.05281 2.73957,-0.96327 z m 84.21682,-10.00274 c 3.01219,-0.71298 7.24809,-2.71178 8.30915,-3.92086 1.35207,-1.54069 1.35778,-2.57158 0.0225,-4.06604 l -1.24734,-1.396 -1.66774,1.74684 c -1.32144,1.38412 -2.4248,1.99613 -5.31371,2.94736 -3.30207,1.08729 -4.21238,1.1995 -9.65109,1.18967 -9.09546,-0.0164 -13.69037,-1.39047 -15.1324,-4.52511 -0.40606,-0.8827 -0.89791,-1.60989 -1.093,-1.61597 -0.60308,-0.0188 -2.86232,2.45962 -2.86232,3.14005 0,2.72622 7.23761,6.13766 15.22728,7.17734 3.4275,0.44602 10.08331,0.10975 13.40869,-0.67728 z m -24.99001,0.21438 c -0.14574,-0.23591 -0.45811,-0.42894 -0.69404,-0.42894 -0.23592,0 -0.30963,0.19303 -0.16384,0.42894 0.14575,0.23592 0.45813,0.42894 0.69405,0.42894 0.23591,0 0.30964,-0.19302 0.16383,-0.42894 z m 25.22542,-8.47746 c 1.58495,-0.74169 2.99941,-1.65523 3.14326,-2.03009 0.1438,-0.37485 -0.0522,-1.68666 -0.43558,-2.91511 -2.0308,-6.5066 -3.27827,-15.08326 -4.33213,-29.78449 -1.34555,-18.77028 -0.34087,-45.13295 2.30378,-60.45108 0.42402,-2.45604 0.61671,-4.56086 0.42818,-4.67737 -0.52528,-0.32466 -2.65369,0.28247 -3.46822,0.98931 -0.40538,0.35178 -2.3025,0.80558 -4.28937,1.02606 -3.9352,0.43667 -4.79901,1.03884 -5.31871,3.70777 -0.15045,0.77271 -0.0295,8.98773 0.26882,18.25564 0.6174,19.17992 0.35115,42.88975 -0.63657,56.69034 -1.0978,15.33883 -0.86378,18.39393 1.54246,20.13613 1.6917,1.22485 7.18217,0.7431 10.79408,-0.94711 z m -3.13514,-3.31833 c 0,-0.35387 0.19302,-0.6434 0.42894,-0.6434 0.23591,0 0.42894,0.28953 0.42894,0.6434 0,0.35389 -0.19303,0.64341 -0.42894,0.64341 -0.23592,0 -0.42894,-0.28952 -0.42894,-0.64341 z m -16.36705,0.10716 c 2.60455,-6.58965 3.93549,-16.33611 5.01554,-36.72894 0.53961,-10.18842 0.58055,-14.58233 0.21385,-22.94814 -0.57523,-13.12283 -1.48886,-22.25436 -2.88067,-28.79129 -0.60278,-2.83099 -1.19315,-5.68902 -1.31193,-6.35117 -0.21032,-1.17225 -2.0251,-2.81611 -2.54021,-2.30099 -0.14153,0.14153 0.0584,1.9531 0.44414,4.02578 2.11698,11.37417 2.9949,23.7665 3.01705,42.58735 0.0146,12.18886 -0.16082,17.90343 -0.72328,23.59157 -1.42691,14.4315 -1.80179,17.06204 -3.37961,23.71484 -0.85736,3.615 -0.86278,3.80368 -0.13212,4.61107 0.41901,0.46301 0.90252,0.84184 1.07448,0.84184 0.17194,0 0.71318,-1.01337 1.20271,-2.25192 z m 14.73743,-98.60126 c 2.65063,-0.56182 4.83532,-1.59629 6.7196,-3.18181 1.93426,-1.62757 1.71949,-2.03847 -0.90783,-1.73691 -1.23857,0.14217 -5.87109,0.37462 -10.2945,0.51658 -4.42343,0.14202 -8.04259,0.40788 -8.04259,0.59089 0,0.85362 3.50398,3.40692 5.01443,3.65397 0.89875,0.14704 1.92365,0.32853 2.27752,0.40341 1.38753,0.29361 3.05747,0.21508 5.23337,-0.24613 z m 0.1352,-8.52853 c 1.26238,-0.47997 1.23077,-1.27331 -0.077,-1.9317 -1.15955,-0.58379 -7.2437,-0.14834 -7.95138,0.56916 -0.45792,0.46426 -0.40881,0.67469 0.27528,1.17959 0.97804,0.72185 6.02254,0.84089 7.75305,0.18295 z m 10.7165,-6.63828 c 31.27427,-3.27664 53.44258,-13.66499 75.07369,-35.1805 8.59523,-8.54928 17.44931,-20.44168 22.96799,-30.84952 1.8533,-3.4952 2.07137,-4.1135 1.2207,-3.46106 -2.12882,1.63276 -6.08703,6.56825 -8.59654,10.71902 -8.36168,13.83043 -22.22588,28.83707 -34.2507,37.07303 -5.58628,3.82612 -21.68362,11.61139 -24.00849,11.61139 -1.47178,0 -0.98797,-0.76987 1.05047,-1.67157 2.00668,-0.88764 2.7029,-2.05428 0.96511,-1.61721 -3.31592,0.83399 -9.2966,2.63373 -13.00497,3.91353 -9.14402,3.15573 -21.81528,4.86666 -38.78923,5.23751 -11.24318,0.24564 -16.49908,-0.13683 -30.63382,-2.22897 -2.33979,-0.34631 -4.36093,-0.52291 -4.49142,-0.39242 -0.3089,0.3089 0.84011,1.03146 1.66811,1.04899 1.66483,0.0352 7.04764,1.62577 7.21648,2.1323 0.29081,0.87243 -4.49714,0.30957 -6.78997,-0.79822 -1.03097,-0.49809 -2.20869,-0.90564 -2.61718,-0.90564 -1.51903,0 -10.35938,-3.15122 -11.47585,-4.09068 -0.63687,-0.53588 -3.08607,-1.8409 -5.44267,-2.90005 -18.22096,-8.18907 -31.77202,-19.14971 -46.5095,-37.61868 -1.976626,-2.47712 -5.197248,-6.91663 -7.156916,-9.86557 -3.334105,-5.0172 -8.69968,-11.48085 -8.715471,-10.49909 -0.01459,0.86013 5.288748,9.94184 8.884317,15.21614 15.32908,22.48605 33.30813,37.51678 56.30713,47.07355 9.66287,4.01521 22.67877,6.88835 37.31757,8.23748 2.71303,0.25003 5.60836,0.5341 6.43406,0.63124 2.77725,0.32672 17.31895,-0.1802 23.3771,-0.81492 z m -11.24403,-9.34473 c 0.59919,-0.39262 1.22031,-1.30969 1.38027,-2.03794 0.27449,-1.24974 0.39102,-1.31681 2.07473,-1.19412 1.93956,0.14137 2.22911,0.71141 0.74595,1.46868 -0.87023,0.44432 -0.88867,0.53386 -0.24293,1.17957 0.9676,0.96762 3.33057,0.87335 5.48011,-0.21863 2.32262,-1.17988 7.16761,-4.62489 7.16761,-5.09648 0,-0.83137 -1.91388,-0.84719 -5.45529,-0.0451 -2.07177,0.46925 -5.60056,1.07495 -7.84176,1.346 -3.62874,0.43885 -4.50934,0.73123 -8.04259,2.67036 -2.18222,1.19765 -3.96766,2.36381 -3.96766,2.59147 0,0.71564 7.46543,0.14607 8.70156,-0.66384 z m -13.51334,-0.1177 c 2.00644,-0.83237 6.09859,-3.28774 6.09859,-3.65927 0,-0.15352 -1.431,-0.40883 -3.18001,-0.56731 -3.11778,-0.28253 -3.25206,-0.25294 -6.863,1.51223 -3.39935,1.66175 -4.14605,2.34094 -3.39704,3.08996 0.54783,0.54783 5.75804,0.28126 7.34146,-0.37561 z m -17.88171,-1.22463 1.42552,-0.5994 -1.69798,-0.44529 c -2.79822,-0.73386 -9.04242,-1.78743 -10.59348,-1.78743 -1.55546,0 -3.3327,0.99737 -2.77357,1.5565 0.55942,0.55942 7.20037,1.80877 9.79685,1.84307 1.32944,0.0175 3.05864,-0.2378 3.84266,-0.56745 z m 53.79145,-1.39908 c 1.6514,-0.81725 3.43686,-1.96733 3.96767,-2.55574 1.0126,-1.12247 1.2633,-2.50281 0.53617,-2.9522 -0.7508,-0.46403 -0.4664,-1.03094 0.86176,-1.71776 1.352,-0.69915 2.73211,-0.36878 3.1026,0.74268 0.27775,0.83327 1.92799,-0.0944 4.73986,-2.66418 2.69437,-2.46251 3.03437,-3.17275 1.31184,-2.74042 -0.84421,0.21188 -1.05182,0.1485 -0.8076,-0.24669 0.18081,-0.29254 0.78538,-0.44459 1.34352,-0.3379 0.76815,0.14688 1.75094,-0.42566 4.04361,-2.35553 2.48114,-2.0885 3.14174,-2.4558 3.65324,-2.03129 0.88072,0.73094 0.79952,1.04178 -0.72616,2.77943 -1.84189,2.09781 -1.26781,2.65177 2.05622,1.98421 4.37382,-0.87838 6.06851,-1.9911 13.581,-8.91708 1.94838,-1.79628 2.29869,-2.29638 1.6085,-2.29638 -1.45803,0 -1.00546,-1.10383 1.21467,-2.96262 2.29801,-1.92401 3.20872,-2.13342 4.43841,-1.02058 0.76988,0.69674 0.90909,0.68377 2.66585,-0.2482 1.01946,-0.54081 2.97704,-1.93324 4.35018,-3.09427 2.36145,-1.99668 4.03501,-2.67892 4.03501,-1.64491 0,0.6739 -2.57697,4.16176 -3.27192,4.42845 -1.20246,0.46142 -0.63776,1.53962 0.80553,1.53796 1.82127,-0.002 3.43397,-1.02353 7.14849,-4.52762 3.71878,-3.50812 6.04133,-6.59217 6.04133,-8.02215 0,-0.58826 0.29549,-1.31481 0.65663,-1.61452 1.08095,-0.89711 4.18445,-4.72759 3.98883,-4.9232 -0.49452,-0.49451 -5.03397,1.22708 -7.8291,2.96921 -3.24329,2.02145 -4.81592,2.42666 -5.22998,1.34759 -0.3525,-0.91856 0.19354,-1.60583 3.26637,-4.11127 1.53346,-1.2503 4.37187,-3.80076 6.30758,-5.66768 2.64847,-2.55436 3.762,-3.35986 4.49946,-3.25481 1.53539,0.2187 1.38757,1.33062 -0.49321,3.70997 -0.95428,1.20727 -1.73507,2.29723 -1.73507,2.42213 0,0.58688 1.97156,0.11007 4.19437,-1.01444 3.56754,-1.80474 10.68904,-9.71825 13.19372,-14.66099 1.10479,-2.18018 1.02621,-2.5418 -0.55229,-2.5418 -1.81711,0 -0.79721,-1.05886 1.25094,-1.29874 2.15539,-0.25245 3.94411,-1.24844 4.6666,-2.59843 0.76773,-1.43451 0.1897,-1.43282 -2.32649,0.006 -2.32719,1.33148 -10.57218,4.29892 -18.92557,6.81149 -31.73644,9.54578 -90.81058,14.13213 -136.33214,10.58445 -27.19328,-2.11929 -35.65802,-3.20285 -49.97256,-6.39694 -9.86617,-2.20151 -16.756969,-4.17989 -23.01682,-6.60824 -2.359159,-0.91517 -4.675422,-1.80277 -5.147251,-1.97243 -0.471828,-0.16964 0.251997,0.73934 1.60852,2.01996 1.922186,1.81466 2.466384,2.60845 2.466384,3.59753 0,2.03603 3.22265,6.3723 7.05958,9.49914 l 3.404433,2.77437 5.44284,-0.28733 c 5.263704,-0.27789 5.483254,-0.25464 6.671014,0.70607 3.57586,2.89234 8.96526,6.45776 10.33177,6.83507 2.01458,0.55626 5.49302,-0.11089 10.68688,-2.04958 4.47725,-1.67122 5.09962,-1.75231 5.4972,-0.71625 0.36095,0.94066 -0.88008,2.00318 -4.05527,3.47197 -2.6675,1.23393 -8.80185,3.14399 -10.04286,3.12705 -1.53747,-0.0209 -5.6092,-1.89605 -7.11464,-3.27633 -2.66965,-2.44771 -6.06189,-4.92536 -7.100304,-5.18598 -0.881614,-0.22127 -6.253561,0.41269 -7.823772,0.9233 -0.730942,0.23769 -0.240924,1.12949 2.050551,3.73184 1.290039,1.46506 2.115204,2.03909 2.937175,2.04331 3.08957,0.0162 4.12138,1.17709 2.434771,2.7402 l -1.059247,0.98167 0.95614,0.85571 c 0.525879,0.47065 2.043886,1.08845 3.373336,1.37291 3.29017,0.704 8.05876,3.57884 8.08522,4.87433 0.0114,0.5924 -1.74501,0.33014 -3.84727,-0.57424 -3.51759,-1.51323 -4.03746,-0.87463 -1.07895,1.32537 1.41551,1.05256 3.61663,2.82628 4.8914,3.94157 3.7547,3.28497 4.40147,3.47499 9.79788,2.87846 4.85162,-0.5363 6.54314,-0.95732 6.54314,-1.62857 0,-0.22301 -0.56234,-0.52898 -1.24964,-0.67994 -0.68728,-0.15094 -2.56241,-1.06624 -4.16692,-2.03397 -1.60453,-0.96775 -3.77173,-2.01667 -4.81601,-2.33095 -3.59774,-1.08276 -3.98641,-2.43999 -0.57944,-2.0234 l 2.01879,0.24686 -2.03745,-1.79228 c -2.33499,-2.05399 -2.80128,-3.72598 -0.90649,-3.25042 0.62203,0.15612 1.73191,0.73332 2.46639,1.28268 2.59377,1.93998 3.9619,2.38689 7.30702,2.38689 4.02356,0 7.96887,1.50023 7.96887,3.0302 0,0.91795 -0.0713,0.92785 -4.50384,0.62575 -2.87082,-0.19568 -4.50385,-0.15418 -4.50385,0.11429 0,0.63884 2.68615,1.77894 4.90918,2.08364 1.08749,0.14899 2.07988,0.43707 2.20532,0.64004 0.12548,0.20296 1.1604,0.36903 2.29992,0.36903 2.43818,0 4.61066,1.34597 3.4537,2.13977 -0.35387,0.24278 -1.12596,0.54959 -1.71574,0.6818 -1.89458,0.42467 -3.14396,1.07039 -2.74612,1.41928 0.83963,0.73631 5.28169,1.39195 8.53677,1.25998 3.1642,-0.12823 3.4315,-0.0739 3.4315,0.69763 0,1.62223 -4.13364,3.5052 -9.82638,4.47616 -7.00848,1.19538 -7.23799,1.55309 -2.64454,4.1219 2.22848,1.24624 2.91125,1.4471 3.78705,1.11413 0.58763,-0.22342 2.42117,-0.5395 4.0745,-0.70243 3.2612,-0.32135 4.2396,-0.69247 3.78114,-1.43426 -0.42774,-0.69209 -4.11162,-0.57978 -5.54763,0.16916 -1.42216,0.7417 -1.98841,0.80756 -1.98841,0.23126 0,-0.22523 0.67556,-0.53624 1.50128,-0.69114 1.6965,-0.31827 1.94149,-0.84652 0.59134,-1.27505 -0.8001,-0.25394 -0.69088,-0.38687 0.90472,-1.10125 2.26357,-1.01343 3.05177,-1.01868 4.34398,-0.0289 0.56262,0.43094 1.84711,1.10647 2.85442,1.50119 2.4522,0.96091 4.56541,0.46606 9.98786,-2.33889 4.3816,-2.26654 5.67971,-2.4772 5.89756,-0.95703 0.10441,0.72818 -0.46601,1.25414 -2.85162,2.62955 -4.71625,2.71913 -7.97291,3.8231 -12.24023,4.14937 -4.02447,0.30768 -8.5698,1.69212 -8.3018,2.5286 0.0875,0.27328 1.19909,1.12421 2.47007,1.89093 2.23736,1.3497 3.86629,1.69012 5.3546,1.11899 0.60941,-0.23386 0.53435,-0.42428 -0.50109,-1.27138 -1.04101,-0.85164 -1.09819,-0.99857 -0.39377,-1.01176 0.45325,-0.008 1.16209,0.29047 1.57522,0.66433 1.1469,1.03794 3.97708,1.25484 6.07567,0.46565 1.00072,-0.37634 2.78462,-0.89455 3.96419,-1.15159 2.88563,-0.62879 9.72623,-3.98007 15.22729,-7.45997 4.9008,-3.1002 6.64853,-3.51172 6.64853,-1.56546 0,0.87243 -0.75607,1.50571 -4.50385,3.77238 -2.4771,1.49816 -6.68585,3.89511 -9.35276,5.32652 -2.66691,1.43142 -4.72644,2.72569 -4.57676,2.87617 0.14964,0.15045 1.65614,0.37008 3.34764,0.48804 2.87917,0.20078 3.06895,0.27607 2.9733,1.17959 -0.084,0.79378 0.10943,0.9651 1.08947,0.9651 2.06893,0 5.98554,-1.22092 8.98526,-2.80098 1.59257,-0.83884 4.63277,-2.43979 6.75602,-3.55763 2.12323,-1.11785 5.20952,-2.94327 6.85841,-4.0565 3.18962,-2.15345 4.08678,-2.40556 4.93283,-1.38613 0.81797,0.98558 0.31803,1.6483 -2.85288,3.78171 -4.3529,2.92867 -5.25587,3.70888 -4.30598,3.72061 0.42455,0.005 1.29315,-0.25275 1.93021,-0.57334 0.63706,-0.32061 1.91573,-0.69996 2.84152,-0.84305 1.93154,-0.29851 5.58207,-2.42699 9.86228,-5.75035 2.14497,-1.66544 3.27273,-2.26785 4.07124,-2.1747 1.91616,0.22352 1.52043,1.36809 -1.12296,3.24788 -3.7697,2.68077 -5.89623,4.79223 -5.36322,5.32524 0.26128,0.26127 1.67786,0.38021 3.38045,0.28382 5.55581,-0.31456 13.40634,-5.02275 23.66151,-14.19048 2.34634,-2.09753 3.76293,-2.5577 4.21854,-1.37037 0.44357,1.15591 -4.50601,5.72488 -12.66246,11.68874 -2.03945,1.49121 -3.87287,3.00573 -4.07427,3.3656 -0.5656,1.01068 0.25858,1.53071 1.61103,1.0165 1.44812,-0.55059 4.54578,-0.58528 4.54578,-0.0509 0,0.76595 -2.97866,2.22076 -5.33071,2.60356 -2.53103,0.41194 -6.48195,2.71523 -5.9987,3.49711 0.4815,0.77911 4.56644,-0.0875 7.68343,-1.63008 z m -40.38232,-5.39412 c -0.14412,-0.23332 0.003,-0.59269 0.32894,-0.79863 0.51714,-0.32754 0.89089,-0.38754 2.41411,-0.38754 0.17694,0 0.32171,0.23337 0.32171,0.51858 0,0.65399 -2.70854,1.24397 -3.06476,0.66759 z m -26.21023,-1.47025 c -0.99527,-0.4016 -0.54528,-1.00273 0.75064,-1.00273 0.85787,0 1.28682,0.21446 1.28682,0.64341 0,0.6268 -0.95653,0.79548 -2.03746,0.35932 z m -5.68342,-9.34682 c 0,-1.20765 1.01186,-2.84153 1.68006,-2.71286 1.0193,0.19631 1.05135,1.46254 0.0621,2.45183 -1.03459,1.03457 -1.74212,1.14058 -1.74212,0.26103 z m 93.50838,-2.13957 c 0,-0.3678 0.19301,-0.66872 0.42893,-0.66872 0.23593,0 0.42895,0.18163 0.42895,0.40362 0,0.22201 -0.19302,0.52293 -0.42895,0.66872 -0.23592,0.14575 -0.42893,-0.0358 -0.42893,-0.40362 z m 8.38692,-4.92146 c -0.33946,-0.54927 0.51592,-1.02619 1.99874,-1.1144 0.71802,-0.0426 1.15745,0.1203 1.06591,0.39531 -0.0858,0.2574 -0.54785,0.48863 -1.02704,0.51385 -0.47919,0.0253 -1.07718,0.17316 -1.32888,0.32871 -0.25169,0.15564 -0.57062,0.10003 -0.70873,-0.12353 z m -71.44074,-6.4707 c 0,-0.23591 0.20441,-0.42893 0.45425,-0.42893 0.24984,0 0.33496,0.19302 0.18916,0.42893 -0.14574,0.23592 -0.35022,0.42893 -0.45425,0.42893 -0.10408,0 -0.18916,-0.19301 -0.18916,-0.42893 z m 10.58046,-3.71745 c -0.15725,-0.15725 -0.28596,-0.63352 -0.28596,-1.05832 0,-0.56169 1.52934,-1.53591 5.60699,-3.57172 3.08384,-1.53965 6.0221,-3.09014 6.5295,-3.44553 1.85953,-1.30246 5.17213,-0.55368 4.2307,0.9563 -0.37717,0.60491 -14.25121,7.39927 -15.11612,7.40261 -0.37352,10e-4 -0.80782,-0.12613 -0.96511,-0.28334 z m 34.88025,-2.08125 c -0.74547,-0.89822 0.31316,-2.00691 3.57772,-3.74691 1.39935,-0.74584 3.79017,-2.48517 5.31295,-3.86516 2.80161,-2.53894 3.72914,-2.84489 4.57113,-1.50787 0.37733,0.5992 0.18475,1.02954 -1.02637,2.29368 -1.88881,1.97145 -5.97882,4.89948 -8.87577,6.35412 -2.60727,1.30918 -2.83944,1.33997 -3.55966,0.47214 z m -73.16526,-0.36535 c -0.47732,-1.24387 0.0853,-1.74838 3.52244,-3.15915 1.85826,-0.76269 5.01889,-2.35483 7.02362,-3.5381 3.64938,-2.154 5.74673,-2.66816 6.75812,-1.65675 0.99197,0.99195 -0.39671,2.05705 -6.90851,5.29878 -6.89163,3.43081 -9.91102,4.3182 -10.39567,3.05522 z m 103.80695,-1.70515 c -0.36957,-0.96306 -0.10181,-1.24985 3.57848,-3.83417 1.82519,-1.28164 4.38015,-3.43694 5.6777,-4.78955 2.39578,-2.49748 3.645,-3.28892 4.61108,-2.92137 0.64675,0.24608 0.6977,1.58253 0.10262,2.69429 -0.43654,0.81568 -5.81576,5.13987 -9.47349,7.61545 -2.50766,1.6972 -4.14646,2.14745 -4.49647,1.23535 z m -147.9464,-3.70709 c -0.15028,-0.24314 0.0219,-0.31506 0.40363,-0.16857 0.7431,0.28515 0.87905,0.59261 0.26206,0.59261 -0.22199,0 -0.52155,-0.19081 -0.66569,-0.42404 z m -6.222629,-0.43384 c 0,-0.23591 0.204415,-0.42893 0.454255,-0.42893 0.249841,0 0.334953,0.19302 0.18916,0.42893 -0.145744,0.23591 -0.350224,0.42893 -0.454255,0.42893 -0.10408,0 -0.18916,-0.19302 -0.18916,-0.42893 z m 80.211319,-4.89566 c 0,-0.38597 0.45541,-0.8749 1.01201,-1.08653 1.24216,-0.47227 17.86229,-0.79295 17.86169,-0.34465 -2.4e-4,0.17695 -1.31068,0.32171 -2.91208,0.32171 -2.7033,0 -10.95867,0.87266 -14.44818,1.5273 -1.23095,0.23093 -1.51344,0.15287 -1.51344,-0.41783 z m 56.73126,-3.80415 c 0.11348,-0.34096 2.17217,-0.69513 5.92903,-1.01993 7.8794,-0.68125 9.94152,-0.69438 9.73071,-0.0619 -0.29678,0.89034 -2.49521,1.22704 -9.26108,1.41839 -5.04116,0.14266 -6.53195,0.0642 -6.39866,-0.33648 z m -118.49827,-1.4041 -2.35916,-0.57103 3.82727,0.24712 c 2.10499,0.13585 4.32474,0.39795 4.93278,0.58229 1.96959,0.59713 -3.83428,0.36284 -6.40089,-0.25838 z m 162.56733,-6.38478 c 1.5143,-0.82421 9.3185,-2.90175 10.20255,-2.71601 0.63736,0.13391 0.61392,0.22163 -0.1759,0.6582 -1.4838,0.82013 -8.29633,2.67723 -9.75293,2.65864 l -1.34607,-0.0172 z M 89.111099,137.60202 c -1.179572,-0.47964 -3.17831,-1.04137 -4.441616,-1.24826 -2.246033,-0.36785 -3.493726,-0.99132 -3.493726,-1.74584 0,-0.20704 0.291602,-0.37642 0.648002,-0.37642 0.919615,0 10.632356,3.38791 11.124935,3.88049 0.715655,0.71564 -1.570632,0.41183 -3.837595,-0.50997 z m 145.443231,55.36204 c 4.39348,-2.25125 8.58214,-5.0071 8.19651,-5.39271 -0.11689,-0.11689 -1.53378,0.17917 -3.1488,0.65776 -1.61504,0.47859 -3.75494,0.9992 -4.75533,1.1569 -1.18848,0.18738 -3.03781,1.12283 -5.33567,2.69898 -4.42759,3.03699 -4.74824,3.71403 -1.58936,3.35596 1.56973,-0.17794 3.695,-0.97161 6.63265,-2.47689 z m 16.26622,-5.97324 c 2.27635,-1.12118 2.42499,-1.26738 1.28681,-1.26568 -0.79683,10e-4 -1.85846,0.48313 -2.78809,1.26568 -1.87469,1.57805 -1.7027,1.57805 1.50128,0 z m 7.23714,-5.73192 c 1.44563,-1.02956 3.68338,-2.40515 4.97277,-3.05685 3.6745,-1.85722 5.591,-3.57885 5.591,-5.02248 0,-0.70969 -0.27855,-1.33539 -0.65958,-1.4816 -1.00862,-0.38704 -4.19648,1.0015 -5.55517,2.41966 -1.04312,1.08879 -1.11356,1.30484 -0.50189,1.53956 0.99719,0.38266 0.88625,1.15436 -0.33022,2.29718 l -1.04174,0.97866 -0.1378,-1.31465 -0.1378,-1.31465 -1.48809,0.72436 c -2.20924,1.07536 -6.66599,5.40135 -6.25301,6.06954 0.55577,0.89929 2.6927,0.19025 5.54161,-1.83873 z m -124.96334,-1.18691 c 2.02578,-0.60692 2.00845,-1.26564 -0.0464,-1.7608 -0.80965,-0.19511 -2.17642,-0.65878 -3.03725,-1.03039 -2.25784,-0.97469 -7.87147,-0.34554 -7.87147,0.88221 0,0.53602 0.67354,1.18551 1.93021,1.86133 1.6525,0.8887 2.3167,1.00393 4.61631,0.80088 1.47735,-0.1305 3.46119,-0.4694 4.40853,-0.75323 z m 85.55588,-40.48218 c 5.89789,-0.36165 12.55715,-0.84629 14.79835,-1.07695 2.2412,-0.23066 6.07737,-0.61506 8.52486,-0.85421 11.07925,-1.08263 33.09309,-4.85886 35.34225,-6.06257 0.50887,-0.27235 2.33081,-1.72102 4.04871,-3.21925 1.71791,-1.49824 3.41396,-2.72408 3.76902,-2.72408 0.85241,0 0.81825,1.07654 -0.0825,2.60149 -0.40045,0.6779 -0.61886,1.34179 -0.48534,1.47531 0.66603,0.66603 5.02189,-1.6552 7.30354,-3.89206 2.80952,-2.75437 3.55,-4.52335 3.22232,-7.69814 -0.28694,-2.78038 -1.38494,-4.97544 -4.15182,-8.30019 -1.17975,-1.41761 -2.83091,-3.82532 -3.66924,-5.35047 -3.02381,-5.501173 -5.64897,-7.606823 -12.80292,-10.269353 -3.79952,-1.41408 -7.99064,-2.024859 -7.99064,-1.16448 0,1.09742 1.52144,2.99907 2.73903,3.42353 1.41207,0.49224 1.14144,1.13063 -0.57839,1.36434 -0.77236,0.10489 -1.22397,0.58523 -1.67977,1.78636 -0.60436,1.592663 -0.58946,1.671243 0.48806,2.573623 0.6113,0.51196 1.84521,2.37849 2.74203,4.14784 1.56801,3.09359 1.62846,3.37341 1.57545,7.29195 -0.0755,5.5904 -1.34067,8.40942 -3.62396,8.07551 -0.88211,-0.12905 -0.9656,-0.39048 -1.04892,-3.28466 -0.0898,-3.11896 -0.0822,-3.1424 0.93479,-2.88715 0.92549,0.23227 1.02456,0.12078 1.0175,-1.14489 -0.005,-0.84702 -0.52711,-2.16648 -1.31935,-3.33244 l -1.31155,-1.93021 1.31935,-0.13439 c 1.74225,-0.17751 1.68326,-0.96162 -0.23183,-3.0814 -1.53564,-1.69978 -2.73572,-2.21679 -2.74083,-1.1808 -10e-4,0.29489 -0.29183,1.09065 -0.64526,1.76837 -0.35345,0.6777 -0.59353,2.02886 -0.53353,3.00255 0.0942,1.52759 -0.0178,1.78844 -0.81604,1.9022 -0.65379,0.0932 -1.33534,-0.37863 -2.32371,-1.60852 -1.62577,-2.02304 -2.21534,-2.15466 -2.90191,-0.64782 -0.99143,2.17599 -0.39871,5.47346 1.3842,7.70069 0.67653,0.84514 0.70581,0.83716 1.96996,-0.53616 1.45243,-1.57788 1.81397,-1.67199 2.76594,-0.72001 0.44502,0.44501 0.67406,1.45486 0.67406,2.97193 0,3.31343 -1.53649,4.64507 -3.21704,2.78809 -0.9355,-1.03373 -1.63519,-1.08679 -2.38691,-0.181 -0.68322,0.8232 -4.40996,2.75463 -5.31516,2.75463 -0.35922,0 -1.71883,0.9651 -3.02136,2.14469 -2.55643,2.3151 -3.37808,2.58886 -4.04271,1.34696 -0.32943,-0.61553 -0.18379,-1.12727 0.63761,-2.24064 1.39057,-1.8848 2.05353,-4.44093 1.74176,-6.71553 -0.18804,-1.37188 -0.10618,-1.82743 0.3286,-1.82743 0.57572,0 1.10617,2.07865 1.11555,4.37131 0.006,1.63251 0.64899,1.83581 2.3936,0.75758 2.59411,-1.60326 2.90622,-2.43726 2.28831,-6.11465 -0.57928,-3.44754 -0.0921,-8.32906 0.95757,-9.59379 0.50965,-0.61409 0.81534,-0.61958 3.97872,-0.0715 0.61172,0.10603 1.10246,-0.4009 1.93022,-1.99366 2.09241,-4.026253 1.28633,-11.266033 -1.76863,-15.884629 -3.3502,-5.064992 -9.92289,-10.315755 -15.62539,-12.482788 -2.24469,-0.853017 -4.02352,-1.17179 -7.49755,-1.34357 l -4.55466,-0.225215 -1.77218,2.398911 c -0.97468,1.319398 -1.77217,2.613134 -1.77217,2.874954 0,0.261837 -0.67558,1.113217 -1.50128,1.891951 -1.95244,1.841403 -1.93568,2.878781 0.0619,3.831387 0.85977,0.409997 2.7044,1.623564 4.09917,2.696819 2.11177,1.624958 2.51395,2.141337 2.40444,3.087183 -0.21886,1.890364 -1.70159,1.691022 -4.52149,-0.607862 -1.36016,-1.108839 -3.05209,-2.257722 -3.75983,-2.553069 -3.12525,-1.304127 -7.50962,-2.451891 -10.08003,-2.638797 -1.87303,-0.136179 -3.77354,-0.648456 -5.79065,-1.560824 -2.47298,-1.118551 -3.6669,-1.385592 -6.76905,-1.514038 -8.23735,-0.34108 -18.94973,1.504359 -24.2429,4.176342 -1.44935,0.731639 -3.2927,1.330244 -4.09632,1.330244 -0.80362,0 -2.17986,0.300291 -3.05829,0.667327 -0.87844,0.367051 -2.20492,0.608316 -2.94772,0.536173 -1.11744,-0.108457 -1.37409,-0.336103 -1.48702,-1.31862 -0.11884,-1.033941 0.10294,-1.296119 1.71574,-2.028033 1.01873,-0.462313 2.6512,-0.844814 3.6277,-0.850002 1.06813,-0.0049 2.16089,-0.321513 2.74289,-0.79279 l 0.96743,-0.783371 -1.00079,-0.932374 c -0.55042,-0.512812 -1.46303,-0.932374 -2.028,-0.932374 -1.48922,0 -0.96974,-0.94972 0.91102,-1.665553 1.71529,-0.652833 2.4107,-0.426079 1.61895,0.527922 -0.398,0.479561 -0.26064,0.692309 0.68952,1.067937 2.45456,0.970407 3.33548,0.959237 5.90483,-0.0749 1.4155,-0.569683 3.53874,-1.16725 4.71832,-1.327942 1.17957,-0.160659 2.45443,-0.381772 2.83301,-0.491315 0.69928,-0.202323 4.26228,-4.63105 7.6653,-9.527796 2.20465,-3.172344 2.11185,-3.401693 -1.91956,-4.743642 -8.28994,-2.759526 -19.17275,-3.204378 -28.70788,-1.173475 -13.03475,2.776305 -20.9656,6.117933 -29.36396,12.372337 -1.92191,1.431292 -2.19164,1.786477 -1.60568,2.114409 1.06445,0.595687 0.22105,1.767104 -1.9562,2.71697 -1.01698,0.443669 -2.65591,1.346878 -3.64208,2.007104 -0.98616,0.660242 -2.04779,1.203354 -2.35916,1.206921 -0.9979,0.01135 -6.67545,5.037221 -9.69144,8.578885 -4.88915,5.74135 -6.32865,8.625173 -9.31041,18.652163 -2.634,8.85749 -2.97431,15.47108 -1.00072,19.44776 0.90464,1.82281 1.12765,1.99913 2.52857,1.99913 1.12165,0 1.96522,0.37634 3.12473,1.39403 0.87356,0.76674 2.06404,1.39406 2.64551,1.39406 0.58147,0 2.84277,0.30929 5.0251,0.68731 2.35924,0.40869 4.87297,0.58198 6.20045,0.42748 1.46762,-0.17083 2.86634,-0.0447 4.08224,0.3681 8.92114,3.02881 56.82345,4.45094 87.19356,2.58861 z m -45.03842,-0.62102 c -1.5239,-0.25599 -1.59585,-0.31837 -0.64342,-0.55782 2.60832,-0.65577 4.33712,-0.7526 5.1992,-0.29124 0.73591,0.39386 0.80201,0.56924 0.3277,0.86961 -0.66196,0.41924 -2.30671,0.41232 -4.88348,-0.0206 z m 9.79966,-0.50541 c 0.5676,-0.32992 0.9261,-0.32623 1.26537,0.013 0.34521,0.34522 0.13083,0.46985 -0.79198,0.46034 -1.10929,-0.0113 -1.16767,-0.0699 -0.47339,-0.47339 z m 33.09408,-2.08719 c 0.14575,-0.23593 1.03719,-0.42894 1.98084,-0.42894 1.03461,0 1.61052,0.17029 1.45065,0.42894 -0.14574,0.23592 -1.03718,0.42894 -1.98084,0.42894 -1.0346,0 -1.61051,-0.17029 -1.45065,-0.42894 z m 20.19136,0.0506 c -0.2535,-0.4102 3.22576,-1.44042 3.60016,-1.06603 0.12515,0.12516 -0.14672,0.50138 -0.60431,0.83598 -0.92918,0.67942 -2.63706,0.81057 -2.99585,0.23005 z m 5.33043,-4.74366 c 0,-0.62631 0.70682,-0.91422 1.49852,-0.61041 0.57231,0.21961 0.60193,0.34917 0.14591,0.63823 -0.76658,0.48593 -1.64448,0.47108 -1.64448,-0.0279 z m -27.02307,-0.80936 c 0,-0.67349 3.9921,-4.04696 6.17163,-5.21526 1.65061,-0.88476 2.11661,-0.97568 2.73458,-0.53343 0.40968,0.29319 1.01584,0.6604 1.34704,0.81602 0.92232,0.4334 3.37602,-2.52697 3.93525,-4.74786 0.59462,-2.36143 1.83519,-3.64424 2.88687,-2.98511 0.39904,0.25008 0.78503,0.85255 0.85772,1.3388 0.17617,1.17823 -2.02978,5.44597 -3.98744,7.71428 -1.58738,1.8393 -2.60282,2.18466 -4.08734,1.39016 -0.61264,-0.32786 -1.56786,-0.13261 -3.93949,0.80528 -3.75897,1.48655 -5.91882,2.00368 -5.91882,1.41712 z m -13.44004,-1.21765 c -1.27832,-1.27834 1.38295,-3.54934 6.37167,-5.4373 3.45799,-1.30867 4.41972,-1.40542 4.7747,-0.48037 0.41218,1.07413 -1.05507,2.25829 -5.31457,4.28919 -3.88478,1.85225 -5.23186,2.22841 -5.8318,1.62848 z m -81.20715,-1.23385 c -0.13974,-0.36403 -0.14655,-0.76941 -0.0146,-0.90082 0.37563,-0.37563 1.15388,0.26151 1.15388,0.94464 0,0.82308 -0.81821,0.79159 -1.1388,-0.0438 z m 117.26149,0.11154 c -0.11608,-0.30266 0.71504,-2.05152 1.84704,-3.88638 1.42946,-2.31697 2.27168,-4.29561 2.75702,-6.4771 0.41577,-1.86874 1.03895,-3.44882 1.53856,-3.90097 0.46188,-0.41797 0.83977,-1.28548 0.83977,-1.92778 0,-2.26177 1.99205,-2.67598 2.9334,-0.60995 0.40638,0.89194 0.26841,1.40577 -0.94391,3.51514 -0.78093,1.35876 -1.65549,3.56735 -1.94344,4.90797 -0.49289,2.29463 -2.79203,6.47078 -4.50274,8.17873 -0.88124,0.87983 -2.22408,0.98634 -2.5257,0.20034 z m -127.86259,-0.84376 c -0.38545,-1.43833 -0.32321,-3.6699 0.10976,-3.93752 0.48107,-0.29731 0.8932,1.20984 0.90079,3.29412 0.007,1.77195 -0.60402,2.1606 -1.01061,0.6434 z m 180.21773,-4.0749 c -0.24045,-0.92712 0.0344,-1.82299 0.55931,-1.82299 0.21625,0 0.39318,0.57907 0.39318,1.28681 0,1.39463 -0.63686,1.75313 -0.95249,0.53618 z m -180.48807,-4.48597 c 0,-2.28493 0.41567,-4.62895 0.82085,-4.62895 0.35087,0 -0.16017,5.91629 -0.54415,6.30034 -0.15223,0.15222 -0.2767,-0.59994 -0.2767,-1.67139 z m 172.659,-1.1786 c -0.40851,-0.66099 1.86776,-1.957 2.43714,-1.3876 0.34673,0.34673 0.32666,0.65267 -0.0746,1.1361 -0.6123,0.73779 -1.97255,0.88257 -2.36259,0.2515 z m -171.37211,-7.32773 c 0,-1.393 1.26353,-4.22087 2.25274,-5.04185 0.51345,-0.42611 0.51489,-0.0853 0.01,2.36955 -0.57719,2.80673 -1.132,3.9762 -1.88639,3.9762 -0.20702,0 -0.3764,-0.58675 -0.3764,-1.3039 z M 273.23934,98.355117 c -1.61015,-1.14564 -1.75867,-1.87012 -0.38336,-1.87012 0.87484,0 3.20963,2.27851 2.77754,2.7106 -0.45419,0.45419 -0.69179,0.37078 -2.39418,-0.84048 z m -50.22817,-6.016516 c -0.15725,-0.157255 -0.28594,-0.485414 -0.28594,-0.729191 0,-0.268776 0.19978,-0.243453 0.50758,0.06436 0.27916,0.279168 0.40784,0.607311 0.28594,0.729208 -0.12191,0.121913 -0.35029,0.09289 -0.50758,-0.06436 z m 6.15469,-8.614504 c 0.003,-0.41285 0.16541,-1.001047 0.35956,-1.30711 0.48156,-0.75915 1.54711,0.495449 1.1966,1.408888 -0.34441,0.897518 -1.56422,0.81774 -1.55616,-0.10181 z m 15.80846,-1.749092 c -1.32815,-0.866344 -2.7758,-1.797339 -3.21702,-2.068871 -0.7546,-0.464387 -0.75747,-0.511758 -0.0483,-0.797767 1.33173,-0.537162 3.56191,0.190327 5.39592,1.760181 3.38226,2.89509 1.83965,3.696213 -2.13054,1.106457 z m -98.49699,-8.939194 c 0.85149,-0.962787 4.17198,-2.716014 5.14396,-2.716014 0.35702,0 1.59052,-0.416854 2.74111,-0.926359 1.15058,-0.509505 2.67104,-1.066316 3.37879,-1.237383 0.70776,-0.171051 1.67286,-0.456606 2.14469,-0.634563 l 0.85788,-0.323555 -0.85788,0.879247 c -0.47183,0.483583 -2.3786,1.299556 -4.23727,1.813276 -1.85865,0.513719 -4.27142,1.481419 -5.36172,2.150448 -1.09027,0.669029 -2.5614,1.356475 -3.26914,1.527639 -1.25319,0.30308 -1.26731,0.28917 -0.54042,-0.532736 z m 45.12294,-3.514397 c 1.31212,-1.402176 2.13192,-1.675718 2.62606,-0.8762 0.43305,0.700707 -0.69792,1.618117 -2.39035,1.938965 l -1.49553,0.283512 z M 165.2476,66.448756 c 0,-1.200987 5.894,-1.80037 6.81316,-0.69286 0.39427,0.475071 0.0657,0.633606 -1.77048,0.854152 -3.28623,0.394709 -5.04268,0.338535 -5.04268,-0.161308 z M 97.904403,130.56423 c 0,-1.97188 -2.725206,-4.84654 -3.26386,-3.44284 -0.402166,1.04803 0.460934,2.99307 1.581981,3.56506 1.369363,0.69866 1.681879,0.67595 1.681879,-0.12224 z m -7.291944,-1.3451 c 0,-0.42794 -1.802803,-2.27957 -2.219446,-2.27957 -0.588684,0 -0.398697,0.9556 0.355719,1.78921 0.694044,0.76692 1.863727,1.07467 1.863727,0.49036 z m -9.436621,-2.84269 c 0,-0.0738 -0.49425,-1.15876 -1.098351,-2.41097 -0.6041,-1.25223 -0.996199,-2.543 -0.871336,-2.86837 0.408181,-1.06373 1.853335,-0.62291 3.278239,0.99997 l 1.39741,1.59157 0.627041,-0.94439 0.627056,-0.94437 1.269904,1.06855 c 0.698454,0.58771 1.514735,1.06857 1.81394,1.06857 1.168531,0 2.095896,-1.73204 2.350616,-4.39029 0.324268,-3.38386 1.311065,-3.87713 2.192161,-1.0958 0.730002,2.30436 0.708326,2.2793 1.443338,1.66928 0.499421,-0.41447 0.986553,-0.0303 2.656403,2.09518 1.124645,1.4315 2.253506,2.53311 2.508583,2.44803 0.311364,-0.10391 0.416611,-2.04593 0.320232,-5.90951 -0.164372,-6.58911 -0.528213,-7.5187 -2.502731,-6.39412 -0.617378,0.35162 -1.473249,1.29756 -1.901921,2.10209 -1.285208,2.41207 -1.528904,2.4896 -3.085027,0.98133 -1.627018,-1.57697 -3.031464,-1.73414 -4.591494,-0.51388 -0.589786,0.46134 -1.72244,0.8431 -2.516997,0.84833 -0.989877,0.006 -1.914032,0.42166 -2.935652,1.31866 -2.836532,2.4905 -3.555915,0.43125 -1.202673,-3.44262 1.734599,-2.85546 3.384135,-4.37671 4.345674,-4.00773 0.456119,0.17502 0.560945,0.59646 0.367489,1.47731 -0.360356,1.6407 0.163302,1.55415 2.417943,-0.39963 1.035854,-0.89764 2.496474,-2.05877 3.2458,-2.58032 1.74979,-1.21787 4.428224,-4.85992 4.428224,-6.02135 0,-1.06523 1.593006,-1.98591 4.567291,-2.639673 3.63326,-0.79861 9.15872,-2.62986 9.15872,-3.03539 0,-0.71701 -1.92966,-0.40579 -9.680288,1.56122 -9.934015,2.521153 -15.397769,4.362423 -21.335168,7.189903 -12.760107,6.07658 -14.293615,11.85407 -4.746786,17.88342 3.714694,2.34604 7.45236,3.99863 7.45236,3.295 z m -9.86557,-7.58669 c 0,-0.23591 0.193035,-0.42893 0.428949,-0.42893 0.235914,0 0.428932,0.19302 0.428932,0.42893 0,0.23591 -0.193018,0.42893 -0.428932,0.42893 -0.235914,0 -0.428949,-0.19302 -0.428949,-0.42893 z m -0.857864,-7.01983 c 0,-0.65496 1.030699,-1.59333 2.573626,-2.34304 0.589785,-0.28658 1.746093,-1.01154 2.569572,-1.611 1.044478,-0.76037 1.952437,-1.05888 3.002557,-0.98717 0.8584,0.0587 2.383088,-0.30813 3.547729,-0.85335 1.884866,-0.88237 3.119558,-0.90461 2.805795,-0.0506 -0.173029,0.47101 -5.510055,4.71511 -5.929309,4.71511 -0.500572,0 -0.853714,-1.20463 -0.569926,-1.94417 0.346187,-0.90217 -3.665054,0.64436 -6.177058,2.38155 -1.164381,0.80523 -1.822986,1.05546 -1.822986,0.6926 z m 22.73368,11.73815 c 0,-0.23592 -0.08511,-0.42895 -0.189143,-0.42895 -0.10408,0 -0.308446,0.19303 -0.454255,0.42895 -0.145744,0.23591 -0.06063,0.42893 0.189159,0.42893 0.249824,0 0.454239,-0.19302 0.454239,-0.42893 z m 217.306436,-3.701 c 2.46244,-1.96566 3.41385,-4.0797 2.78326,-6.1844 -0.78812,-2.63051 -4.87379,-6.04138 -10.48428,-8.75263 -5.00507,-2.41869 -10.16374,-4.30537 -11.00511,-4.02492 -0.90342,0.30113 1.16099,2.33006 2.90136,2.85148 0.92129,0.27602 2.04428,0.91987 2.49553,1.43079 0.81834,0.92649 0.81768,0.92814 -0.25186,0.63678 -0.58979,-0.16066 -1.62259,-0.41202 -2.29514,-0.55854 l -1.22278,-0.26639 0.65389,1.24182 c 1.82415,3.46435 4.89686,7.29188 6.51499,8.11547 2.04512,1.0409 3.5357,3.69202 3.92529,6.98142 l 0.26038,2.19844 1.97957,-1.13008 c 1.08877,-0.62154 2.77397,-1.7642 3.7449,-2.53924 z m -2.07532,-4.32012 c -0.0997,-1.13241 -0.33264,-2.39671 -0.51768,-2.80956 -0.59697,-1.33191 0.55467,-0.82124 1.27075,0.56348 0.74629,1.44319 0.69997,3.88804 -0.0785,4.14327 -0.3106,0.10181 -0.56046,-0.60088 -0.67456,-1.89719 z m -5.19884,-5.96964 c -0.81878,-0.7592 -1.06982,-1.26352 -0.77549,-1.55783 0.56825,-0.56826 3.22586,0.94983 3.41905,1.95304 0.21478,1.11521 -1.25095,0.89609 -2.64356,-0.39521 z m -2.23825,10.82198 c -0.15985,-0.63688 -0.50888,-1.08619 -0.77561,-0.99845 -0.57957,0.19062 -0.87318,1.80899 -0.50315,2.77329 0.47274,1.23193 1.63021,-0.37456 1.27876,-1.77484 z M 93.40149,110.71236 c -0.284744,-0.28474 -1.931151,1.23669 -1.931151,1.78458 0,0.24047 0.481799,-0.0162 1.070661,-0.5686 0.588845,-0.55321 0.976081,-1.10039 0.86049,-1.21598 z m 7.16178,-2.23636 c 1.53346,-1.53345 1.33019,-2.03153 -0.51682,-1.26648 -1.144486,0.47407 -2.142047,1.55911 -2.142047,2.32987 0,0.68893 1.510762,0.0846 2.658867,-1.06339 z m -0.007,-4.5692 c 1.16913,-0.63631 2.31192,-1.50491 2.53953,-1.93021 0.35433,-0.66209 0.23575,-0.77329 -0.82463,-0.77329 -1.61238,0 -4.115675,1.69788 -4.290503,2.91007 -0.17431,1.20863 0.0013,1.19454 2.575603,-0.20657 z M 225.95542,75.603827 c 1.53347,-2.080511 4.12514,-5.519944 5.75928,-7.643173 1.63415,-2.123245 4.57461,-5.963775 6.5344,-8.534498 3.10007,-4.066507 11.67954,-14.550476 18.62476,-22.759149 1.20637,-1.425829 5.68916,-6.206498 9.96178,-10.623698 7.23545,-7.480309 8.72932,-9.45533 8.01994,-10.603126 -0.65369,-1.057707 -1.94175,-0.216817 -5.7117,3.728814 -9.94319,10.406574 -14.14125,15.318721 -29.41828,34.422251 -6.57194,8.218028 -8.51081,10.703315 -12.71598,16.299617 -0.62044,0.8257 -2.64346,3.699503 -4.49558,6.386238 -3.16948,4.597687 -3.32059,4.919248 -2.56972,5.468294 0.919,0.671995 1.2028,0.382031 6.0111,-6.14157 z m -6.54992,0.184928 c 1.9765,-2.654052 5.82063,-7.817385 8.54254,-11.474073 2.7219,-3.656688 5.98977,-7.935407 7.26191,-9.508228 1.27215,-1.572838 3.27811,-4.075683 4.4577,-5.561852 8.62948,-10.872534 15.69867,-19.113906 24.15485,-28.160147 4.58887,-4.909083 6.10555,-6.802703 6.00513,-7.49759 -0.54757,-3.7888313 -15.98006,-6.4011053 -23.30766,-3.9453243 -2.89068,0.9687863 -4.53658,2.2943123 -6.20802,4.9995783 -2.71831,4.399643 -8.80966,13.384246 -15.54852,22.933717 -0.8591,1.21741 -3.72668,5.367375 -6.37241,9.222171 -2.64574,3.85478 -6.38278,9.228461 -8.30455,11.941492 -12.76095,18.015086 -14.38236,20.76161 -11.76648,19.931355 2.05802,-0.653191 8.02327,-0.0368 11.96543,1.236264 1.06162,0.342863 2.73938,0.642458 3.72835,0.665787 l 1.79811,0.04247 z m -11.26477,1.154265 c 0,-0.367798 0.19618,-0.547473 0.43594,-0.399297 0.23977,0.148176 0.32488,0.449099 0.18916,0.668721 -0.3677,0.594957 -0.6251,0.48402 -0.6251,-0.269424 z m -0.4153,-8.149744 c -0.008,-0.249807 0.26977,-0.828877 0.61613,-1.286812 0.34637,-0.457952 0.63591,-0.62824 0.6434,-0.378433 0.008,0.249792 -0.26975,0.828862 -0.61611,1.286813 -0.34637,0.457935 -0.63591,0.628224 -0.64342,0.378432 z M 221.4378,47.025383 c 0,-0.746862 3.57792,-6.437257 5.9854,-9.519301 1.1057,-1.415486 2.4468,-3.297451 2.98024,-4.182145 0.53343,-0.884679 1.15661,-1.608504 1.38483,-1.608504 0.57184,0 -2.13134,4.844803 -5.8948,10.564979 -2.90404,4.413974 -4.45567,6.066347 -4.45567,4.744971 z m 22.70607,-34.131622 c 0.8893,-1.661662 6.46167,-3.0008073 6.46167,-1.552865 0,0.437995 -0.44503,0.646414 -1.39403,0.652817 -0.76674,0.0049 -2.23548,0.391224 -3.26388,0.857881 -2.29386,1.040863 -2.3388,1.041917 -1.80376,0.04215 z"
       id="path3" /></g><metadata
     id="metadata182"><rdf:RDF><cc:Work
         rdf:about=""><cc:license
           rdf:resource="http://creativecommons.org/licenses/by-sa/4.0/" /><dc:publisher><cc:Agent><dc:title>OpenDataKerala.org</dc:title></cc:Agent></dc:publisher><dc:date>April 2026</dc:date><dc:title>Election Symbols of Kerala</dc:title><dc:creator><cc:Agent><dc:title>Manoj Karingamadathil</dc:title></cc:Agent></dc:creator></cc:Work><cc:License
         rdf:about="http://creativecommons.org/licenses/by-sa/4.0/"><cc:permits
           rdf:resource="http://creativecommons.org/ns#Reproduction" /><cc:permits
           rdf:resource="http://creativecommons.org/ns#Distribution" /><cc:requires
           rdf:resource="http://creativecommons.org/ns#Notice" /><cc:requires
           rdf:resource="http://creativecommons.org/ns#Attribution" /><cc:permits
           rdf:resource="http://creativecommons.org/ns#DerivativeWorks" /><cc:requires
           rdf:resource="http://creativecommons.org/ns#ShareAlike" /></cc:License></rdf:RDF></metadata></svg>
