<?xml version="1.0" encoding="UTF-8" standalone="no"?>
<!-- Created with Inkscape (http://www.inkscape.org/) -->

<svg
   width="1500"
   height="1500"
   viewBox="0 0 396.87499 396.875"
   version="1.1"
   id="svg5"
   xml:space="preserve"
   inkscape:version="1.3 (0e150ed6c4, 2023-07-21)"
   sodipodi:docname="Kettle.svg"
   inkscape:export-filename="Ice cream.png"
   inkscape:export-xdpi="96"
   inkscape:export-ydpi="96"
   xmlns:inkscape="http://www.inkscape.org/namespaces/inkscape"
   xmlns:sodipodi="http://sodipodi.sourceforge.net/DTD/sodipodi-0.dtd"
   xmlns="http://www.w3.org/2000/svg"
   xmlns:svg="http://www.w3.org/2000/svg"
   xmlns:rdf="http://www.w3.org/1999/02/22-rdf-syntax-ns#"
   xmlns:cc="http://creativecommons.org/ns#"
   xmlns:dc="http://purl.org/dc/elements/1.1/"><title
     id="title186">Election Symbols of Kerala</title><sodipodi:namedview
     id="namedview7"
     pagecolor="#ffffff"
     bordercolor="#000000"
     borderopacity="0.25"
     inkscape:showpageshadow="2"
     inkscape:pageopacity="0.0"
     inkscape:pagecheckerboard="0"
     inkscape:deskcolor="#d1d1d1"
     inkscape:document-units="mm"
     showgrid="false"
     inkscape:zoom="0.25"
     inkscape:cx="230"
     inkscape:cy="1078"
     inkscape:window-width="1920"
     inkscape:window-height="991"
     inkscape:window-x="-9"
     inkscape:window-y="-9"
     inkscape:window-maximized="1"
     inkscape:current-layer="layer1" /><defs
     id="defs2"><inkscape:path-effect
       effect="bspline"
       id="path-effect3248"
       is_visible="true"
       lpeversion="1"
       weight="33.333333"
       steps="2"
       helper_size="0"
       apply_no_weight="true"
       apply_with_weight="true"
       only_selected="false" /><inkscape:path-effect
       effect="bspline"
       id="path-effect577"
       is_visible="true"
       lpeversion="1"
       weight="33.333333"
       steps="2"
       helper_size="0"
       apply_no_weight="true"
       apply_with_weight="true"
       only_selected="false" /></defs><g
     inkscape:label="Layer 1"
     inkscape:groupmode="layer"
     id="layer1"><path
       style="fill:#000000;stroke-width:1.66859"
       d="m 213.59884,392.6886 c -0.97125,-0.0975 -5.73925,-0.48621 -10.59554,-0.86391 -48.07964,-3.7393 -88.51709,-19.23442 -101.63129,-38.94385 -5.097567,-7.66118 -6.549577,-14.7416 -7.259907,-35.40143 l -0.49262,-14.32756 -2.10556,-2.5301 c -2.65511,-3.19042 -7.28184,-10.19009 -9.58975,-14.50805 -3.12744,-5.85126 -6.51229,-13.56358 -12.594464,-28.69627 C 59.956658,234.09696 55.91682,225.6394 49.401745,215.69749 41.27735,203.29979 32.085207,194.74108 19.452199,187.81179 c -6.940714,-3.80704 -7.450118,-4.15364 -8.587012,-5.84252 -1.2922047,-1.91962 -1.2747017,-3.26806 0.07225,-5.56651 2.743328,-4.68113 13.691661,-9.05962 25.954893,-10.37996 5.876255,-0.63268 8.178725,-0.23394 16.890397,2.92505 12.412621,4.50101 21.055846,9.65918 44.892896,26.79154 2.691657,1.93457 2.551677,2.00823 4.859787,-2.55743 0.7365,-1.45689 2.2601,-4.13611 3.38577,-5.95384 l 2.04665,-3.30498 0.003,-44.15423 c 0.003,-40.083183 0.0766,-44.703775 0.80092,-50.114243 3.04019,-22.707283 9.47612,-36.676447 22.4722,-48.77579 8.74975,-8.145987 19.36889,-13.939847 34.78188,-18.977169 34.14989,-11.160978 78.10821,-12.5233654 108.82182,-3.372686 30.14774,8.982084 49.20632,27.587941 56.04128,54.710062 3.26545,12.957765 3.50649,17.509861 3.16379,59.746856 l -0.29247,36.04683 3.44382,3.9072 c 10.50543,11.91895 18.26001,27.49857 21.52572,43.24702 1.06178,5.1202 2.55161,16.12353 3.07198,22.68824 1.5219,19.19995 2.03985,33.32444 2.12888,58.05475 0.0799,22.18397 -0.24785,27.33048 -2.36682,37.16642 -3.1612,14.67377 -7.30237,21.66022 -17.31612,29.21343 -3.43224,2.58888 -11.02014,7.17188 -16.07291,9.70782 -19.18679,9.62974 -44.41902,16.04807 -74.07675,18.84294 -7.05971,0.66529 -37.13963,1.26545 -41.4992,0.82801 z m 43.0444,-11.84627 c 28.40315,-2.80343 54.61389,-10.13286 72.27559,-20.21076 9.36457,-5.3435 18.57394,-13.22587 21.72315,-18.59306 3.13214,-5.3381 5.69705,-14.21369 6.52899,-22.593 0.50341,-5.07029 0.28703,-50.71811 -0.28031,-59.13165 -0.26295,-3.89977 -0.569,-8.48116 -0.68008,-10.18085 -0.52182,-7.98399 -0.77568,-11.0222 -1.38331,-16.55555 -1.8379,-16.73657 -4.56675,-27.63499 -9.45131,-37.74661 -6.2324,-12.90177 -16.17729,-24.76586 -28.54498,-34.05368 -3.68927,-2.77055 -6.89311,-4.77561 -16.18053,-10.12627 l -2.35416,-1.35628 -3.82043,2.30464 c -6.74983,4.07177 -15.12809,6.98645 -27.04237,9.40764 -9.49325,1.92919 -18.18716,2.75503 -31.80096,3.02082 -31.75918,0.62003 -59.22563,-4.21266 -73.76644,-12.9791 -1.74341,-1.05107 -3.3551,-1.91105 -3.58151,-1.91105 -0.22641,0 -1.16643,0.59981 -2.08892,1.3329 -0.92248,0.73312 -3.18481,2.1512 -5.02736,3.1513 -4.52996,2.45879 -9.51073,6.27963 -10.70497,8.21195 -0.86175,1.39433 -0.96647,2.09779 -0.86542,5.8132 0.0768,2.81875 0.32696,4.52108 0.75134,5.10987 2.42859,3.36972 2.89927,4.31446 3.26304,6.54962 0.6067,3.72764 -0.33163,6.43363 -3.23908,9.3411 -3.31931,3.31929 -6.29159,4.36296 -11.53872,4.05165 -4.59481,-0.27263 -8.84659,-1.48283 -11.80822,-3.36104 l -2.07813,-1.31792 -1.04914,1.41867 c -1.44982,1.96044 -4.57913,7.77854 -5.33303,9.91532 l -0.62363,1.76757 2.05793,1.9598 c 1.13187,1.07787 3.74662,3.35832 5.81055,5.06764 13.46216,11.14928 25.92354,24.80301 33.00972,36.16822 12.29212,19.71477 13.47561,38.11304 3.41615,53.1064 -3.95517,5.89509 -10.4192,11.52724 -16.27792,14.18305 -5.84732,2.65065 -8.84112,3.29496 -15.29167,3.29102 -4.15118,-0.003 -6.72255,-0.2204 -8.4726,-0.71784 l -2.51261,-0.71423 -0.13632,5.0281 c -0.0749,2.76545 0.029,5.67387 0.23105,6.46316 0.20203,0.7893 0.52437,2.72641 0.71629,4.30471 0.63763,5.24338 2.6774,9.33551 7.64988,15.34692 1.46073,1.76595 2.53098,3.33573 2.37831,3.48839 -0.71045,0.71047 -7.02857,-4.45016 -9.83315,-8.03171 -2.87101,-3.66637 -4.41893,-7.18154 -5.73489,-13.02339 -0.95934,-4.25867 -1.1075,-5.85811 -0.98532,-10.63821 l 0.14383,-5.62593 -1.21408,-0.71631 -1.21407,-0.71632 0.002,8.52347 c 0.003,16.69085 2.09028,22.93479 10.38146,31.05966 7.90793,7.74931 21.00252,14.9402 37.07606,20.36033 19.59538,6.60771 41.43685,10.31595 68.11007,11.56369 8.6428,0.4043 30.82326,-0.16436 39.39055,-1.01005 z m 41.28579,-16.59836 c 0.15402,-0.24934 1.87957,-1.2575 3.83437,-2.24035 1.95482,-0.98286 6.16127,-3.38495 9.34769,-5.33797 5.67506,-3.47835 6.72926,-4.22169 14.44278,-10.18385 2.08568,-1.61214 4.56903,-3.20229 5.51851,-3.53367 0.94947,-0.33138 3.31565,-1.64077 5.25817,-2.90974 3.82623,-2.49953 5.32409,-3.08392 6.04829,-2.35972 1.19282,1.19283 -1.23299,4.62817 -6.59664,9.3419 -5.92729,5.20911 -11.80854,8.80597 -20.33641,12.43738 -8.73108,3.71794 -18.50751,6.38912 -17.51676,4.78602 z m 5.13664,-11.41594 c -1.30964,-0.82996 -0.15251,-2.00746 4.56862,-4.64894 6.20394,-3.47112 11.8222,-7.25473 18.76293,-12.63584 3.03518,-2.35317 6.21385,-4.62902 7.06371,-5.05746 0.84985,-0.42845 3.63117,-2.2084 6.18072,-3.95545 2.54956,-1.74706 5.00841,-3.31428 5.4641,-3.48271 0.98443,-0.36387 2.04108,0.39359 2.04108,1.46314 0,2.01494 -9.37477,12.28547 -14.60918,16.00511 -3.12318,2.21935 -11.33912,6.46179 -17.22006,8.89189 -2.83584,1.1718 -11.04561,3.86524 -11.59565,3.80427 -0.0335,-0.003 -0.32886,-0.17652 -0.65627,-0.38401 z m 4.78935,-13.28888 c 0,-0.54638 0.70695,-1.33475 1.8763,-2.09244 4.59322,-2.97618 10.21023,-7.38541 14.89999,-11.6962 5.8899,-5.41394 10.94588,-10.49906 10.43887,-10.49906 -0.19354,0 -1.52517,0.90282 -2.95917,2.00626 -5.58974,4.3012 -13.2773,8.42799 -23.08539,12.39258 -5.15759,2.08477 -6.65931,2.34267 -7.09097,1.21777 -0.4075,-1.06196 0.25132,-1.64942 6.3365,-5.65018 3.04913,-2.00466 7.33187,-5.03635 9.5172,-6.7371 4.18314,-3.25553 15.23109,-13.63631 15.23109,-14.31129 0,-0.2173 -0.94366,0.28143 -2.09704,1.10828 -7.53401,5.40117 -20.28858,11.59578 -22.62006,10.98608 -1.86223,-0.48698 -0.76545,-1.9817 4.44689,-6.06035 2.81322,-2.20132 6.42352,-5.19442 8.02288,-6.6513 2.7235,-2.48089 14.01326,-14.58112 14.01326,-15.01924 0,-0.10996 -1.73833,1.06437 -3.86297,2.60947 -4.65372,3.38437 -11.36471,6.99501 -18.13599,9.75755 -5.49327,2.24113 -7.70029,2.47466 -7.93375,0.8395 -0.10512,-0.73669 0.71995,-1.51054 3.97333,-3.72643 10.00825,-6.81666 19.56678,-15.06228 24.78915,-21.38421 l 1.82924,-2.21439 -1.54358,1.23192 c -7.05129,5.62756 -21.01294,12.90371 -23.17095,12.07559 -1.4061,-0.53956 -0.73127,-2.25507 1.55992,-3.96561 4.83126,-3.60687 11.42178,-9.66709 15.02212,-13.81338 6.05405,-6.97209 8.83787,-10.31813 8.58443,-10.31813 -0.12982,0 -1.87323,1.24854 -3.87423,2.77454 -7.52362,5.73761 -19.99886,12.23581 -23.49027,12.23581 -2.37699,0 -1.92559,-1.81382 0.98882,-3.97333 5.03656,-3.73195 11.15769,-8.87771 14.44199,-12.14072 3.69213,-3.66818 11.9288,-13.02369 11.46617,-13.02369 -0.14534,0 -1.19393,0.77341 -2.33015,1.71866 -5.11977,4.25929 -14.66902,9.54298 -20.50834,11.34746 -2.27539,0.70315 -2.62085,0.71603 -3.21695,0.11997 -1.00163,-1.00163 -0.48865,-1.67725 3.47261,-4.57358 5.94989,-4.35037 11.12084,-8.88002 15.41355,-13.50198 2.22872,-2.39968 4.21477,-4.6535 4.41345,-5.0085 0.19866,-0.355 -1.47977,0.60878 -3.72986,2.14173 -5.04086,3.43426 -10.80696,6.57339 -14.25042,7.75812 -2.31949,0.79801 -2.6708,0.82238 -3.26659,0.22661 -0.59577,-0.59577 0.0668,-1.37259 6.1594,-7.22299 5.75857,-5.52948 13.66802,-14.34191 13.66802,-15.22838 0,-0.13982 -1.51655,0.83396 -3.3701,2.16383 -5.96371,4.27876 -17.32597,9.90505 -20.00323,9.90505 -1.22837,0 -2.06248,-0.96964 -1.54892,-1.80059 0.13482,-0.21806 2.27106,-1.92 4.74735,-3.78211 2.47627,-1.8621 5.8453,-4.56863 7.48671,-6.01453 2.83258,-2.49516 10.0393,-10.48685 10.0393,-11.1328 0,-0.16669 -1.24166,0.66724 -2.75926,1.85309 -5.59371,4.37098 -12.86881,8.43964 -14.18658,7.93397 -0.39237,-0.1505 -0.71339,-0.58988 -0.71339,-0.97624 0,-0.38638 2.39781,-3.40884 5.32849,-6.71662 6.18079,-6.97611 11.65763,-14.84568 8.0263,-11.53286 -2.74558,2.50479 -17.49975,12.58567 -18.66718,12.75448 -2.51009,0.36299 -2.31198,-1.1617 0.56647,-4.35944 5.22354,-5.80295 14.01702,-16.75996 14.01702,-17.46571 0,-0.13198 -1.68204,0.85635 -3.73786,2.1964 -3.99869,2.60649 -9.57078,5.5264 -12.55577,6.57958 -1.70688,0.60221 -4.0145,0.34542 -4.0145,-0.44676 0,-0.14434 1.93756,-2.28489 4.30567,-4.75684 4.27286,-4.4602 10.2632,-11.6471 10.2632,-12.31323 0,-0.19094 -0.94366,0.31696 -2.09704,1.12866 -3.32638,2.341 -6.58322,4.04281 -11.89338,6.21475 -5.20881,2.13045 -6.25366,2.34947 -7.11237,1.49077 -0.92898,-0.92899 -0.58512,-1.55513 1.788,-3.25587 4.05856,-2.90864 11.8598,-10.88021 11.24721,-11.4928 -0.12798,-0.12798 -1.19618,0.25296 -2.37369,0.84661 -3.48899,1.75898 -14.23248,5.23584 -15.2151,4.92398 -1.38521,-0.43966 -0.84254,-2.00773 1.15917,-3.34938 2.56854,-1.72158 11.12527,-10.19436 10.51317,-10.41003 -0.28538,-0.10062 -1.27873,0.2036 -2.20741,0.6759 -1.50142,0.76354 -8.55016,2.9677 -14.37812,4.49604 -2.17708,0.57095 -3.42447,0.17357 -3.42447,-1.09089 0,-0.29474 1.83435,-1.61142 4.07633,-2.92593 2.36747,-1.3881 5.46747,-3.7276 7.39481,-5.58067 l 3.31847,-3.19061 -3.53185,1.75436 c -4.48962,2.2301 -7.49776,3.04991 -8.27519,2.25524 -0.44728,-0.45719 -0.21314,-0.86496 1.2115,-2.10993 1.13564,-0.99242 1.45079,-1.45581 0.88297,-1.29829 -9.39575,2.60628 -17.27184,3.86215 -23.19964,3.69924 -2.53752,-0.0697 -4.31567,-0.2506 -3.95145,-0.40194 0.36422,-0.15134 4.53623,-1.22228 9.2711,-2.3799 9.66524,-2.363 19.56787,-5.59456 25.13797,-8.20337 3.2426,-1.5187 3.8086,-1.6627 4.36167,-1.10963 0.82727,0.82727 0.41587,2.45029 -1.06818,4.21397 l -1.148,1.36435 1.12031,-0.42594 c 0.61616,-0.23427 2.11944,-0.93225 3.34061,-1.55106 2.68371,-1.35995 2.99217,-1.38019 3.36022,-0.22054 0.33677,1.06109 -0.25172,2.04446 -3.55087,5.93348 l -2.3851,2.81154 2.52307,-1.08761 c 1.38769,-0.59819 3.54487,-1.5906 4.79374,-2.20537 1.53749,-0.75684 2.82044,-1.07261 3.97333,-0.97793 1.48405,0.12181 1.72047,0.29439 1.84136,1.34355 0.16702,1.44957 -1.66504,4.27813 -5.19243,8.0167 -2.32957,2.46905 -2.37462,2.55917 -0.90627,1.81274 0.84987,-0.432 3.14805,-1.84953 5.10707,-3.15006 3.79674,-2.52049 4.9449,-2.82329 6.03671,-1.592 1.57592,1.77726 0.98886,3.82579 -2.28241,7.96426 -0.98871,1.25081 -1.79766,2.37777 -1.79766,2.50437 0,0.12664 1.67496,-0.96022 3.72216,-2.41515 4.01693,-2.85482 4.89095,-3.14002 5.33504,-1.74081 0.25261,0.79589 0.52177,0.86934 2.24117,0.61149 2.27322,-0.34089 3.2705,0.23953 3.2705,1.90346 0,1.27507 -3.06324,5.71532 -5.69773,8.259 -2.46032,2.37552 -2.27746,2.86912 0.34874,0.94134 1.1859,-0.87054 2.29244,-1.58279 2.45896,-1.58279 0.16653,0 1.13326,-0.56592 2.14826,-1.25762 2.27232,-1.54848 3.86477,-1.96633 5.34668,-1.40292 0.83024,0.31567 1.13434,0.74975 1.13434,1.61922 0,1.19429 -3.06413,6.55996 -5.37923,9.41967 -1.94651,2.40442 -1.47454,2.45253 1.43241,0.146 5.38943,-4.27631 5.88697,-4.59309 7.00651,-4.46089 0.65904,0.0778 1.37747,0.61556 1.77653,1.32972 0.63552,1.13731 0.58589,1.36469 -0.96354,4.4148 -0.89845,1.76867 -2.75805,4.78241 -4.13245,6.6972 -2.69599,3.75608 -2.6095,3.80642 1.27961,0.74506 5.36387,-4.22223 5.78507,-4.48836 6.89613,-4.35717 0.65127,0.0769 1.3757,0.61244 1.76076,1.30162 0.61468,1.10011 0.55596,1.36712 -0.97065,4.4148 -0.89368,1.78412 -3.01022,5.08753 -4.70342,7.34089 -3.14073,4.17982 -3.17274,4.33613 -0.47081,2.3 6.38828,-4.81409 6.55386,-4.91308 7.9821,-4.77171 2.10433,0.20827 2.5332,1.22324 1.59304,3.76996 -1.10393,2.99028 -2.99701,5.98039 -6.73797,10.64256 -1.78717,2.22725 -3.12965,4.04955 -2.9833,4.04955 0.14633,0 1.91923,-1.18249 3.93975,-2.62776 5.42282,-3.8789 6.17724,-4.21604 7.49778,-3.35079 1.37028,0.89785 1.4038,2.70568 0.0919,4.95998 -1.46631,2.51977 -5.08074,7.55277 -7.36916,10.26132 -2.34716,2.77809 -1.9338,2.72394 2.80076,-0.3668 3.47023,-2.2654 5.05656,-2.72404 5.8864,-1.70188 1.76208,2.17038 -0.40889,6.16193 -8.31235,15.28313 -3.48551,4.02257 -3.26389,4.05062 2.0247,0.25623 4.55085,-3.26508 5.21892,-3.56092 6.60995,-2.92713 2.95324,1.34559 -0.27453,7.31064 -9.81619,18.14079 -2.48073,2.81573 -1.54935,2.45246 3.0549,-1.19152 1.7762,-1.40575 3.72066,-2.89567 4.32102,-3.31095 2.4623,-1.70318 5.17521,-0.2737 4.42761,2.33302 -0.77095,2.68813 -4.06733,7.23854 -10.59237,14.62193 -2.83974,3.21332 -2.0151,2.91907 3.40137,-1.21369 2.02584,-1.54572 3.98881,-2.81038 4.36216,-2.81038 1.26554,0 2.3867,0.90964 2.3867,1.93644 0,2.40176 -4.61221,9.07405 -10.79207,15.61242 -2.12288,2.24604 -3.72789,4.08371 -3.56673,4.08371 0.51602,0 3.87986,-2.45311 7.51583,-5.48102 2.87431,-2.39361 3.77844,-2.91746 4.8563,-2.81379 1.68758,0.16235 1.91747,1.37528 0.75303,3.97284 -1.16339,2.59519 -5.91566,8.925 -10.2452,13.64616 -1.97728,2.15612 -3.41602,3.92023 -3.1972,3.92023 0.52367,0 4.05949,-2.59415 8.57473,-6.29111 3.79087,-3.10384 5.81146,-3.80754 6.41522,-2.23416 0.49766,1.29688 -4.57187,9.38658 -9.03281,14.41416 -0.8271,0.93214 -1.38825,1.81037 -1.247,1.9516 0.26105,0.26107 0.89648,-0.24718 4.9727,-3.97753 2.61748,-2.3954 4.55171,-2.84613 4.55171,-1.06071 0,2.1148 -10.31055,12.8283 -15.89332,16.51445 -5.14401,3.39645 -11.20818,6.60995 -16.94444,8.97913 -5.73402,2.36826 -8.21997,2.75828 -8.21997,1.28965 z M 141.89249,165.17846 c -0.85048,-0.53827 0.9562,-2.62249 4.99539,-5.76276 5.34418,-4.15484 7.9948,-5.74629 9.5707,-5.74629 0.91343,0 3.80238,1.13971 7.67024,3.02597 3.41269,1.66427 7.75416,3.58171 9.64773,4.261 1.89617,0.6802 3.27389,1.40398 3.06675,1.61112 -0.79945,0.79947 -14.66784,-2.31033 -16.28373,-3.6514 -1.57754,-1.30924 -6.63758,0.43848 -12.71672,4.39227 -3.46222,2.2518 -4.72181,2.64765 -5.95036,1.87009 z m -15.37835,144.36262 c 8.37316,-2.1415 16.31695,-8.48836 20.96145,-16.74758 2.11169,-3.75516 5.13911,-13.30201 4.21823,-13.30201 -0.21373,0 -0.84546,0.94367 -1.40385,2.09703 -2.38028,4.91642 -7.46369,10.64891 -12.58868,14.19604 -3.36753,2.33077 -6.27035,2.50192 -3.73989,0.22051 1.61688,-1.45775 4.67691,-5.72333 6.51563,-9.08257 1.79642,-3.28196 4.60302,-10.35358 4.37521,-11.02392 -0.0684,-0.20135 -1.27925,1.12758 -2.69069,2.95317 -2.69821,3.48994 -7.045,7.2612 -8.36986,7.26167 -0.43013,1.5e-4 -1.00619,-0.49167 -1.28014,-1.09293 -0.44118,-0.96826 -0.24272,-1.51065 1.73668,-4.74592 2.99237,-4.89097 6.28551,-12.40736 6.28551,-14.34629 0,-0.34212 -1.17969,0.86249 -2.62152,2.6769 -4.31485,5.42979 -8.13739,7.75802 -9.2682,5.64509 -0.34411,-0.643 -0.0489,-1.63976 1.32992,-4.49108 2.06244,-4.26488 3.49611,-8.31747 3.49611,-9.88259 0,-1.04852 -0.0801,-1.0146 -1.69594,0.71761 -0.99825,1.07017 -1.90634,1.6881 -2.20741,1.50203 -0.69126,-0.42722 -0.63166,-3.6327 0.15685,-8.4314 0.35907,-2.18531 0.64303,-4.86732 0.63103,-5.95998 -0.0214,-1.94601 -0.84848,0.60269 -4.2628,13.13552 -0.7506,2.75521 -1.80307,3.55418 -3.18815,2.42027 -0.896,-0.73351 -0.91689,-0.94499 -0.49014,-4.96025 0.5889,-5.54057 0.58541,-5.60376 -0.3225,-5.84118 -0.72704,-0.19014 -0.7784,-1.01766 -0.71167,-11.46663 0.0764,-11.97553 0.26587,-13.15437 2.11347,-13.15437 2.51146,0 5.12611,4.09984 7.38591,11.58127 l 1.03117,3.41389 0.67213,-1.42723 c 0.72952,-1.54907 2.03594,-2.00982 3.4909,-1.23114 0.48533,0.25974 1.78689,2.27906 2.8924,4.48741 1.63015,3.25639 2.00998,4.4587 2.00998,6.36231 0,3.31085 0.44058,4.28483 1.07059,2.3668 0.36927,-1.12421 0.73351,-1.48395 1.47578,-1.45755 0.54201,0.0192 0.98549,-0.0384 0.98549,-0.12798 0,-1.17692 -7.65022,-12.84362 -11.66186,-17.78448 -7.06539,-8.70199 -23.46012,-23.56787 -37.342527,-33.86027 -5.442,-4.03469 -7.80625,-5.70285 -15.67258,-11.05829 -9.532849,-6.48999 -23.073636,-14.17578 -26.2681,-14.90986 -0.984218,-0.22616 -1.179543,-0.0417 -1.804229,1.70378 l -0.700508,1.9574 1.691216,0.5067 c 1.186534,0.3555 1.946894,0.36988 2.547903,0.0482 1.349004,-0.72197 2.72252,0.0741 5.661224,3.28118 2.399498,2.61865 2.705701,2.8256 2.834633,1.91589 0.106289,-0.74998 0.478017,-1.05802 1.404602,-1.16401 1.547316,-0.17699 2.980918,1.0595 4.701868,4.05539 1.084967,1.88876 1.267711,2.03396 1.527927,1.21408 0.207222,-0.65292 0.662113,-0.93127 1.521834,-0.93127 1.45241,0 1.9512,0.5196 4.57092,4.76164 1.8326,2.96742 2.00813,3.12977 2.26733,2.09703 0.21972,-0.87543 0.55924,-1.11942 1.55775,-1.11942 1.61728,0 3.10688,1.71314 5.24255,6.02928 l 1.58097,3.19508 0.79123,-1.30107 c 1.60222,-2.63463 3.53881,-1.27175 6.3312,4.45557 l 1.7088,3.50482 0.55486,-1.31962 c 0.3934,-0.93561 0.85804,-1.31964 1.59664,-1.31964 1.979427,0 3.495737,2.17232 5.026807,7.20152 l 0.64676,2.12446 0.88974,-1.13113 c 1.98063,-2.51795 3.85646,-0.97863 5.5378,4.54437 l 1.19451,3.92382 0.68889,-1.37819 c 2.00321,-4.00752 5.57374,-0.21583 7.09943,7.53912 0.84206,4.28012 -0.7659,13.00971 -3.61718,19.63772 -0.93945,2.18378 -2.55406,3.20599 -3.52707,2.23297 -0.26542,-0.26541 -0.52111,-4.47621 -0.62672,-10.32039 -0.0981,-5.42964 -0.33792,-10.44874 -0.53293,-11.15359 l -0.35459,-1.28151 -0.58169,1.94374 c -0.6862,2.29294 -2.94147,6.9148 -3.91055,8.0141 -0.37459,0.42492 -1.12261,0.77259 -1.66229,0.77259 -1.62195,0 -2.10691,-1.03447 -1.8099,-3.86083 0.6645,-6.32354 0.85262,-13.7984 0.34729,-13.7984 -0.28033,0 -0.50969,0.59033 -0.50969,1.31184 0,0.72154 -0.50338,2.45985 -1.11862,3.86297 -1.54667,3.52725 -2.890937,4.43847 -4.368357,2.96105 -0.5235,-0.52351 -0.69458,-1.63405 -0.69708,-4.52518 -0.003,-3.73165 -0.64498,-9.05459 -1.19987,-9.95239 -0.15167,-0.24543 -0.52532,0.77711 -0.8303,2.2723 -0.66691,3.26937 -1.41242,4.88235 -2.62253,5.67406 -0.76228,0.49871 -1.04896,0.48914 -1.83479,-0.0612 -0.79674,-0.55808 -0.97506,-1.27504 -1.23384,-4.96082 -0.32231,-4.59077 -1.38475,-10.69242 -1.96664,-11.29453 -0.19339,-0.20011 -0.70187,1.09123 -1.12998,2.86963 -0.99523,4.13434 -1.34457,4.77864 -2.591,4.77864 -1.49533,0 -2.45615,-1.33281 -2.89993,-4.02269 -0.68761,-4.16785 -1.84749,-8.78025 -2.20796,-8.78025 -0.19177,0 -0.45035,0.90205 -0.57463,2.00458 -0.22726,2.01625 -1.31012,3.73467 -2.35341,3.73467 -1.11685,0 -2.27274,-2.23278 -3.469382,-6.70161 -1.455811,-5.43663 -1.980248,-6.55772 -1.99932,-4.27396 -0.0083,0.89784 -0.380088,2.05946 -0.844524,2.63302 -0.722399,0.89211 -0.976475,0.96012 -1.942488,0.51998 -0.899353,-0.40977 -1.390319,-1.3634 -2.573532,-4.99881 -1.45431,-4.46833 -1.54468,-4.54741 -2.339947,-2.04764 -0.168361,0.52917 -0.594151,0.7553 -1.24702,0.66223 -0.732528,-0.10446 -1.395859,-0.95519 -2.540494,-3.25827 -1.873943,-3.77053 -2.539744,-4.67466 -3.97725,-5.40098 -0.60705,-0.30672 -2.229536,-1.22614 -3.605555,-2.04315 l -2.501867,-1.4855 -2.418937,1.45715 c -3.503487,2.11046 -6.191318,3.22954 -10.624693,4.4235 -3.764155,1.01373 -4.610113,1.35182 -4.210653,1.68275 0.101117,0.0838 1.475284,1.01571 3.053569,2.07085 3.737357,2.49858 9.431018,7.92218 14.127397,13.45731 10.733735,12.65076 15.929456,22.59853 30.894246,59.15046 4.72488,11.54069 11.11323,24.54859 14.63512,29.79996 3.69257,5.50588 10.709757,12.60297 14.568267,14.73418 5.9872,3.30696 11.52997,4.09327 17.71079,2.51248 z m -16.06034,-7.5974 c -3.04923,-1.51024 -4.46735,-2.60739 -8.13156,-6.2911 -2.971307,-2.98714 -5.266947,-5.80593 -6.945677,-8.52851 -3.09424,-5.0182 -8.77296,-16.23351 -11.80029,-23.30516 -4.24826,-9.92367 -7.94023,-18.76053 -7.94023,-19.00525 0,-0.13432 -1.51111,-3.55465 -3.358036,-7.60081 -4.00922,-8.78324 -4.244525,-9.37463 -3.729998,-9.37463 0.724818,0 12.150264,22.09753 17.098554,33.0697 1.06825,2.36867 4.58715,8.766 9.24889,16.81435 1.33506,2.30494 3.47077,5.58293 4.74602,7.28444 1.275247,1.70151 2.433267,3.39166 2.573367,3.75588 0.41673,1.08346 5.90165,7.30311 7.95124,9.01637 1.04512,0.87359 2.97535,2.33384 4.28943,3.24499 1.31406,0.91115 2.47113,1.90241 2.57126,2.20281 0.39078,1.17233 -2.92043,0.52597 -6.57297,-1.28308 z M 49.99019,202.56342 c -4.992169,-5.62168 -8.044587,-8.81846 -10.399701,-10.89151 -1.946843,-1.71368 -2.196531,-2.69344 -0.681669,-2.67487 2.322827,0.0285 15.536154,14.45027 15.536154,16.95704 0,1.31805 -0.843422,0.67611 -4.454784,-3.39066 z m 97.55205,54.82353 c -0.54979,-1.27799 -1.0665,-2.12293 -1.14826,-1.87766 -0.19503,0.58509 1.59527,4.75386 1.9075,4.44165 0.13215,-0.13216 -0.20946,-1.286 -0.75924,-2.56399 z m -11.97515,-72.51501 c 1.14373,-1.02966 1.31516,-2.85196 0.30475,-3.23969 -0.822,-0.31543 -3.28476,1.88519 -3.28476,2.93514 0,0.93467 0.89595,1.80808 1.50549,1.46757 0.26465,-0.14784 0.92819,-0.67119 1.47452,-1.16302 z m -9.77166,0.76277 c 0.62703,-0.16829 1.11141,-0.85588 1.47303,-2.091 0.78654,-2.68648 2.37305,-5.22206 4.43043,-7.08078 l 1.80956,-1.63482 0.10762,-39.16524 c 0.0592,-21.54088 0.232,-39.661906 0.38404,-40.268956 0.15201,-0.607032 0.41063,-2.295695 0.57465,-3.752574 0.77863,-6.916537 3.25508,-16.028337 6.05728,-22.287066 2.97448,-6.643489 9.40575,-14.402196 16.01579,-19.321465 11.58081,-8.618582 28.17595,-14.02034 51.43253,-16.741426 8.46456,-0.990374 33.23834,-1.113583 41.94068,-0.208573 11.35506,1.180861 20.70505,3.326049 28.90273,6.631208 2.42029,0.975808 4.48763,1.687094 4.59411,1.580621 0.45964,-0.459646 -8.59172,-4.271155 -13.49322,-5.681964 -9.20572,-2.649687 -17.68967,-3.902414 -31.9236,-4.713782 -7.69185,-0.438455 -10.51947,-0.407336 -18.83754,0.207322 -22.33481,1.650436 -42.14317,6.061318 -54.22756,12.075282 -6.77507,3.371719 -14.26764,9.190424 -18.62713,14.465803 -7.62944,9.232322 -11.18646,18.333026 -13.37283,34.214778 -1.31226,9.532192 -1.48876,15.165462 -1.52157,48.562902 l -0.031,31.5659 -1.1551,2.46006 c -1.59923,3.40601 -2.95983,4.38289 -6.1045,4.38289 -1.51909,0 -2.84226,-0.25511 -3.36194,-0.64818 -0.83942,-0.6349 -0.83757,-0.64847 0.0906,-0.66222 1.21498,-0.018 3.43309,-2.53966 4.15317,-4.72154 0.43123,-1.30662 0.57133,-10.30505 0.61401,-39.44005 0.0534,-36.493426 0.0871,-37.940878 1.01238,-43.578758 1.76342,-10.744682 3.41414,-16.66407 6.50325,-23.320423 8.84394,-19.056661 27.16655,-31.601333 54.75766,-37.490086 15.00566,-3.20264 26.89149,-4.396066 43.48586,-4.366265 20.91526,0.03754 34.38259,2.018059 48.12142,7.076789 12.49542,4.600885 25.2921,14.023193 33.1641,24.419023 4.86544,6.425354 9.96534,18.958814 11.61339,28.541072 1.57897,9.180613 1.71165,12.13979 1.97477,44.046048 0.19039,23.08669 0.40482,32.23799 0.75816,32.35556 0.27867,0.0928 0.60525,-0.56267 0.75177,-1.5087 0.56995,-3.67979 0.84747,-53.76092 0.34075,-61.4933 -1.32584,-20.231981 -4.15669,-31.195632 -11.00021,-42.60291 -9.06986,-15.118322 -24.83718,-26.358108 -45.10789,-32.155338 -3.9617,-1.133006 -14.15999,-3.092047 -20.08919,-3.85903 -5.75655,-0.744658 -29.60868,-1.023213 -37.98987,-0.443662 -22.57579,1.561099 -47.17864,7.508386 -60.67931,14.66812 -10.28395,5.453818 -19.84916,13.532494 -25.01536,21.127697 -6.32,9.291507 -10.1707,20.136487 -12.61883,35.53922 -0.96457,6.068844 -0.98248,6.935926 -0.98889,47.900693 -0.007,41.17238 0.005,41.74002 0.89208,43.24951 1.11208,1.89299 3.19851,3.14645 6.37752,3.83144 3.06194,0.65976 2.71922,0.62953 3.81221,0.33617 z M 20.598654,182.16098 c -2.547502,-1.15824 -3.906268,-2.80038 -3.465694,-4.18849 0.388665,-1.22455 -0.03905,-1.14045 -0.902523,0.1775 -0.434034,0.6624 -0.59275,1.44844 -0.409222,2.02664 0.342712,1.07979 4.247461,3.07492 5.954162,3.04227 0.862861,-0.0167 0.606098,-0.24735 -1.176723,-1.05792 z m 25.220863,-7.43313 c 0.449618,-0.8349 0.695602,-1.83565 0.546614,-2.2239 -0.341961,-0.89113 -3.347491,-2.17424 -4.259292,-1.81836 -0.507268,0.19799 -0.321454,0.42188 0.71449,0.86087 2.069935,0.87718 2.492222,1.97039 1.507337,3.90218 -0.730926,1.43369 -0.7378,1.55244 -0.06908,1.19456 0.408371,-0.21855 1.110363,-1.08046 1.559981,-1.91535 z M 243.17806,158.71617 c 21.13669,-1.07462 43.95011,-7.19944 49.84277,-13.38152 l 1.27986,-1.34273 -1.26743,-1.67309 c -2.45199,-3.23682 -9.30371,-9.65176 -13.44282,-12.58589 -4.72944,-3.35258 -12.5935,-7.75996 -16.75832,-9.39216 -5.80307,-2.27418 -14.93295,-4.50812 -20.29832,-4.96667 -2.16618,-0.18511 -2.35113,-0.13482 -1.82691,0.49684 0.32081,0.38655 0.46798,1.00334 0.32701,1.37066 -0.14099,0.36731 -0.21284,0.66569 -0.15968,0.66307 0.0531,-0.003 1.07175,-0.30063 2.26371,-0.66223 2.94329,-0.89286 5.40326,-0.85684 5.9314,0.0869 0.58976,1.05385 -0.27069,2.71211 -1.8241,3.51542 -2.18682,1.13085 -1.14267,1.02415 3.56354,-0.36417 4.53618,-1.33816 5.76754,-1.37692 7.33445,-0.23085 1.14652,0.83858 0.6545,2.62074 -1.06069,3.84208 -2.55299,1.81788 -13.64514,3.39214 -14.91979,2.11749 -0.97529,-0.97529 -0.57945,-2.10972 0.99878,-2.86232 1.31884,-0.62891 1.43242,-0.79925 0.82774,-1.24139 -0.53937,-0.39441 -1.78152,-0.32743 -5.39153,0.29066 -6.15421,1.05372 -7.40612,1.04104 -8.00668,-0.0811 -0.66388,-1.24046 -0.30707,-1.62672 2.93172,-3.17381 1.55996,-0.74514 2.96284,-1.55958 3.11752,-1.80985 0.17195,-0.27822 -0.007,-0.34483 -0.45788,-0.17141 -0.4065,0.15601 -2.07809,0.49108 -3.71463,0.74465 -1.63655,0.25358 -4.35251,0.69504 -6.03547,0.98102 -1.68297,0.28596 -4.46429,0.53096 -6.18074,0.54443 -4.21566,0.033 -4.18607,-0.82669 0.0799,-2.32313 1.76041,-0.61751 3.20074,-1.24604 3.20074,-1.39669 0,-0.15068 -1.47771,-0.48683 -3.2838,-0.74703 -8.02048,-1.15547 -23.70107,3.05572 -35.78726,9.61104 -8.25029,4.47479 -19.12314,12.86239 -21.6779,16.72289 -1.36644,2.06483 -1.07457,2.88375 1.7075,4.79094 10.13623,6.94864 29.98204,11.50447 55.95109,12.84421 6.6735,0.34428 12.87085,0.28535 22.73627,-0.21623 z m 29.46886,-9.3303 c -1.10059,-0.40855 -0.49202,-0.9737 2.65911,-2.46943 3.66851,-1.74129 5.05865,-2.95961 3.37701,-2.95961 -1.57016,0 -0.58342,-0.66008 3.25654,-2.17842 2.67972,-1.05959 3.634,-1.25922 4.30444,-0.90041 1.05238,0.56322 1.11101,2.08452 0.13415,3.47929 -1.41332,2.0178 -11.69679,5.78377 -13.73119,5.02858 z m -102.38847,-3.85159 c -2.47938,-1.15441 -3.23585,-2.12638 -3.23585,-4.15767 0,-2.99949 6.02868,-8.45379 13.6859,-12.38199 7.48353,-3.83907 8.10481,-3.51782 1.66209,0.85944 -2.24963,1.52843 -5.07046,3.58794 -6.26853,4.57668 -2.27782,1.87986 -5.9891,6.55874 -5.9891,7.55057 0,0.55539 1.21378,1.82777 3.53185,3.70245 l 1.10371,0.89257 -1.10371,0.01 c -0.60703,0.005 -2.1309,-0.46789 -3.38636,-1.05243 z m 97.02565,-4.58313 c -0.40878,-0.76383 -0.32719,-1.02938 0.49284,-1.60375 0.54052,-0.37858 1.20158,-0.68834 1.46902,-0.68834 0.26746,0 1.42224,-0.66543 2.56618,-1.47875 2.85876,-2.0325 6.51471,-3.24301 8.11026,-2.68535 0.95438,0.33357 1.2541,0.74993 1.36446,1.89559 0.0878,0.91063 -0.13382,1.77226 -0.58334,2.26898 -1.39491,1.54136 -5.10886,2.75926 -9.11342,2.98854 -3.5274,0.20195 -3.85314,0.14917 -4.306,-0.69692 z m -6.13775,-5.47075 c -1.06079,-1.06079 -0.52357,-1.93822 1.92063,-3.13697 2.41014,-1.18204 2.82565,-2.0725 0.96708,-2.0725 -1.78039,0 -0.15118,-0.80722 3.49945,-1.73385 3.80186,-0.96503 4.61151,-0.89311 6.21711,0.55214 2.3383,2.10477 0.53507,4.78858 -4.0766,6.06735 -3.46384,0.96049 -7.72904,1.12246 -8.52767,0.32383 z m -9.54861,-4.5788 c -1.19848,-1.19846 -0.85184,-1.67257 2.78929,-3.81501 6.57479,-3.86857 9.3644,-4.65465 10.81811,-3.04831 1.01003,1.11609 0.57498,2.67126 -1.23918,4.4296 -1.20509,1.16803 -2.13547,1.53397 -5.74742,2.26056 -5.20458,1.04697 -5.73317,1.0608 -6.6208,0.17316 z m -108.09765,21.03671 c 1.88931,-1.19491 4.32913,-2.73456 5.4218,-3.42147 1.92278,-1.20875 1.99485,-1.33407 2.24165,-3.89779 0.14016,-1.45688 0.49058,-3.08781 0.77853,-3.62426 0.64097,-1.19423 2.72262,-2.7885 5.36795,-4.11118 1.09266,-0.54632 3.90527,-2.83119 6.25024,-5.07746 10.62424,-10.17713 26.88079,-18.35661 42.97489,-21.62277 3.15659,-0.64061 5.88091,-1.30255 6.05404,-1.471 0.17314,-0.16844 -0.27817,-1.2178 -1.00287,-2.3319 -1.97139,-3.03061 -2.49656,-6.16314 -1.56742,-9.349262 1.86845,-6.407167 8.67319,-10.033145 18.80216,-10.018912 12.11094,0.01702 19.66034,4.944197 19.6066,12.796429 -0.0202,2.950485 -1.40047,6.584145 -3.00775,7.918085 -1.49557,1.24121 -1.15729,1.4089 5.88822,2.91908 8.15354,1.74764 15.7992,4.64235 23.65657,8.9565 8.33643,4.57719 12.83615,7.92094 20.08739,14.92697 1.81132,1.75007 3.59766,3.02834 4.84371,3.46606 3.43297,1.20596 5.04303,3.29259 5.56258,7.20911 0.32949,2.48383 1.29,3.79092 1.98205,2.69724 0.7235,-1.14337 0.50468,-47.903643 -0.26529,-56.692872 -1.43979,-16.435155 -4.75386,-25.538796 -12.41212,-34.09554 -5.06846,-5.663109 -12.1891,-10.322929 -20.40138,-13.350901 -21.37144,-7.879898 -59.87867,-8.162073 -88.73395,-0.650216 -19.97482,5.200008 -32.80904,14.345381 -39.60405,28.220954 -3.19477,6.523784 -5.27875,15.570342 -6.35628,27.592563 -0.58926,6.574612 -0.61589,55.185132 -0.0302,55.185132 0.2353,0 1.97364,-0.97766 3.86297,-2.17259 z m 174.12898,-38.46884 c -1.15098,-0.94728 -1.73331,-1.04347 -2.68214,-0.44308 -0.54236,0.34319 -0.51515,0.66482 0.18823,2.22465 l 0.82228,1.82346 1.35693,-1.37363 1.35695,-1.37363 z m 0.41398,-10.53641 c 0.70976,-0.70977 1.29048,-1.59991 1.29048,-1.97809 0,-0.37818 -0.69782,-1.77848 -1.5507,-3.11175 -1.5147,-2.367845 -3.08656,-3.698445 -3.6745,-3.110501 -0.16135,0.161353 -0.29331,2.171319 -0.29331,4.466681 0,3.22931 0.14984,4.26809 0.66222,4.59201 1.1557,0.73056 2.23724,0.47021 3.56581,-0.85835 z m -86.78498,-1.79989 c 0.77436,-0.33274 0.72911,-0.38323 -0.36789,-0.41045 -2.07245,-0.0514 -1.12296,-0.977825 2.05882,-2.00878 3.77802,-1.224127 4.64581,-1.979347 1.92159,-1.672277 -1.91678,0.216049 -6.04065,-0.901422 -6.04065,-1.636853 0,-0.635132 2.31779,-1.335339 4.42021,-1.335339 1.79909,0 2.43876,0.234871 3.73182,1.370179 1.11777,0.981415 1.56055,1.736201 1.56055,2.660233 v 1.290036 l 1.35189,-0.699089 c 1.75148,-0.905727 1.55721,-1.781436 -0.79283,-3.573885 -2.47414,-1.887091 -5.76007,-2.538575 -11.37039,-2.254381 -5.09257,0.257981 -7.78756,1.10222 -9.82627,3.078214 -2.08163,2.017608 -1.9092,3.116575 0.66058,4.210032 1.15338,0.49077 2.49437,0.98885 2.98,1.10686 1.51314,0.36769 8.78409,0.2745 9.71257,-0.12448 z m 85.3162,-13.681074 c 1.51491,-0.923648 1.87494,-2.071053 0.78153,-2.490637 -0.35931,-0.137825 -1.07085,-0.926317 -1.58118,-1.752069 -0.51036,-0.825751 -1.2693,-1.50138 -1.68656,-1.50138 -0.41727,0 -1.01751,-0.248336 -1.33388,-0.551853 -0.47012,-0.451019 -0.52874,-0.22918 -0.32085,1.214083 0.13983,0.971252 0.38156,2.709589 0.53704,3.862951 0.23724,1.759912 0.43431,2.096766 1.22589,2.095382 0.51877,-9.01e-4 1.58887,-0.395323 2.37801,-0.876477 z m -3.25495,-11.617271 0.88247,-1.181962 -1.05202,-2.542797 c -2.75572,-6.660809 -7.91241,-14.173816 -13.18783,-19.213924 -4.47782,-4.27808 -6.47646,-5.381669 -2.53173,-1.397928 5.45325,5.50718 10.73412,14.589729 12.81612,22.042401 1.05543,3.77802 1.08573,3.844447 1.66577,3.651091 0.28861,-0.09611 0.92186,-0.706798 1.40722,-1.356881 z"
       id="path3" /></g><metadata
     id="metadata182"><rdf:RDF><cc:Work
         rdf:about=""><cc:license
           rdf:resource="http://creativecommons.org/licenses/by-sa/4.0/" /><dc:publisher><cc:Agent><dc:title>OpenDataKerala.org</dc:title></cc:Agent></dc:publisher><dc:date>April 2026</dc:date><dc:title>Election Symbols of Kerala</dc:title><dc:creator><cc:Agent><dc:title>Manoj Karingamadathil</dc:title></cc:Agent></dc:creator></cc:Work><cc:License
         rdf:about="http://creativecommons.org/licenses/by-sa/4.0/"><cc:permits
           rdf:resource="http://creativecommons.org/ns#Reproduction" /><cc:permits
           rdf:resource="http://creativecommons.org/ns#Distribution" /><cc:requires
           rdf:resource="http://creativecommons.org/ns#Notice" /><cc:requires
           rdf:resource="http://creativecommons.org/ns#Attribution" /><cc:permits
           rdf:resource="http://creativecommons.org/ns#DerivativeWorks" /><cc:requires
           rdf:resource="http://creativecommons.org/ns#ShareAlike" /></cc:License></rdf:RDF></metadata></svg>
