<?xml version="1.0" encoding="UTF-8" standalone="no"?>
<!-- Created with Inkscape (http://www.inkscape.org/) -->

<svg
   width="1500"
   height="1500"
   viewBox="0 0 396.87499 396.875"
   version="1.1"
   id="svg5"
   xml:space="preserve"
   inkscape:version="1.2.2 (b0a8486541, 2022-12-01)"
   sodipodi:docname="kla2026.svg"
   inkscape:export-filename="kla2026.png"
   inkscape:export-xdpi="96"
   inkscape:export-ydpi="96"
   xmlns:inkscape="http://www.inkscape.org/namespaces/inkscape"
   xmlns:sodipodi="http://sodipodi.sourceforge.net/DTD/sodipodi-0.dtd"
   xmlns="http://www.w3.org/2000/svg"
   xmlns:svg="http://www.w3.org/2000/svg"
   xmlns:rdf="http://www.w3.org/1999/02/22-rdf-syntax-ns#"
   xmlns:cc="http://creativecommons.org/ns#"
   xmlns:dc="http://purl.org/dc/elements/1.1/"><title
     id="title186">Election Symbols of Kerala</title><sodipodi:namedview
     id="namedview7"
     pagecolor="#ffffff"
     bordercolor="#000000"
     borderopacity="0.25"
     inkscape:showpageshadow="2"
     inkscape:pageopacity="0.0"
     inkscape:pagecheckerboard="0"
     inkscape:deskcolor="#d1d1d1"
     inkscape:document-units="mm"
     showgrid="false"
     inkscape:zoom="0.35355339"
     inkscape:cx="-165.46299"
     inkscape:cy="974.39314"
     inkscape:window-width="1854"
     inkscape:window-height="1011"
     inkscape:window-x="0"
     inkscape:window-y="0"
     inkscape:window-maximized="1"
     inkscape:current-layer="layer1" /><defs
     id="defs2"><inkscape:path-effect
       effect="bspline"
       id="path-effect3248"
       is_visible="true"
       lpeversion="1"
       weight="33.333333"
       steps="2"
       helper_size="0"
       apply_no_weight="true"
       apply_with_weight="true"
       only_selected="false" /><inkscape:path-effect
       effect="bspline"
       id="path-effect577"
       is_visible="true"
       lpeversion="1"
       weight="33.333333"
       steps="2"
       helper_size="0"
       apply_no_weight="true"
       apply_with_weight="true"
       only_selected="false" /></defs><g
     inkscape:label="Layer 1"
     inkscape:groupmode="layer"
     id="layer1"><path
       style="fill:#000000;stroke-width:0.4443"
       d="m 185.03646,386.20346 c -14.09901,-0.9942 -35.7511,-5.57673 -45.9201,-9.7187 -1.79698,-0.73193 -3.44969,-1.33079 -3.67273,-1.33079 -0.83014,0 -11.11904,-4.49277 -17.55311,-7.66477 C 95.087903,356.24753 74.926371,340.49976 57.712052,320.48501 49.889781,311.39023 45.78874,305.75951 39.119541,294.95766 29.159656,278.82602 20.10499,255.52719 16.672491,237.19855 c -0.640684,-3.42113 -1.344758,-7.01996 -1.564589,-7.99741 -0.219847,-0.97748 -0.761371,-4.57631 -1.203382,-7.99742 -1.129764,-8.74424 -1.130537,-34.62639 -0.0013,-43.0972 4.629853,-34.72965 16.915374,-64.68294 37.813995,-92.194085 9.113411,-11.996981 25.2649,-27.84775 37.128078,-36.436833 4.813547,-3.48506 9.499907,-6.693044 11.026746,-7.548217 0.655351,-0.36705 1.791341,-1.088757 2.524431,-1.603799 4.73264,-3.324944 18.70952,-10.44141 27.76881,-14.138777 9.32595,-3.806183 21.48105,-7.594716 29.76816,-9.278212 17.15009,-3.483968 22.05339,-3.985493 39.32062,-4.021798 8.22429,-0.0173 15.92135,0.197648 19.10495,0.533497 6.38969,0.674067 19.28776,2.829599 24.60414,4.111873 17.59488,4.243744 35.92221,11.662827 51.03852,20.660924 2.01626,1.200175 4.34224,2.582027 5.16884,3.070756 4.25824,2.517712 13.48589,9.265466 21.22571,15.521419 4.40336,3.559131 18.07015,17.249465 22.42768,22.466316 17.59764,21.067856 29.99047,44.203206 37.0086,69.088776 5.39162,19.11821 7.13148,31.80549 7.12865,51.98321 -10e-4,8.44366 -0.8287,21.13933 -1.72312,26.43591 -1.38135,8.18015 -3.02448,15.77028 -4.76107,21.99289 -2.42347,8.6839 -2.57315,9.11116 -8.48243,24.21439 -1.64997,4.21706 -7.6589,16.06862 -10.36231,20.43785 -1.28519,2.0771 -2.74531,4.47632 -3.24472,5.33161 -1.12154,1.92075 -9.09978,13.27069 -11.24327,15.99484 -6.76703,8.60011 -19.75661,21.85713 -27.73333,28.30434 -1.57377,1.27199 -4.061,3.2857 -5.5272,4.47489 -2.38813,1.93694 -11.55754,8.51998 -13.44346,9.65149 -0.40728,0.24436 -1.54783,0.93902 -2.53455,1.54366 -0.98671,0.60465 -2.1939,1.32308 -2.68263,1.59648 -3.1246,1.74801 -4.49725,2.55123 -4.88732,2.85981 -1.07285,0.84874 -16.00046,8.07947 -20.43783,9.8998 -13.65815,5.60298 -30.95147,10.21913 -45.98514,12.27495 -9.55794,1.30703 -27.1027,1.6992 -38.87633,0.86898 z m 38.65418,-9.27939 c 21.2111,-3.09689 37.10749,-8.08072 56.20406,-17.62103 8.16711,-4.08014 9.51197,-4.87217 18.88279,-11.12062 8.60635,-5.73869 12.0598,-8.36263 18.4797,-14.04088 14.38793,-12.72574 26.3395,-26.97966 36.02137,-42.96044 4.20614,-6.94264 10.47123,-19.30511 12.57818,-24.81969 10.69297,-27.98708 14.84358,-54.84517 12.47151,-80.70177 -2.81249,-30.65725 -11.63074,-56.46455 -28.29087,-82.79545 -5.71139,-9.026697 -15.997,-21.622985 -24.36185,-29.834824 -16.1076,-15.81292 -32.61306,-27.257395 -52.20828,-36.199942 -7.75624,-3.539669 -9.53712,-4.245708 -17.56479,-6.963772 -23.18024,-7.8485 -52.22986,-11.03504 -74.42041,-8.163426 -8.69323,1.124961 -18.81254,2.859708 -23.32579,3.998741 -8.16329,2.060185 -9.48276,2.450123 -15.93188,4.708325 -13.80909,4.835309 -25.52601,10.458807 -36.49562,17.515979 -1.83275,1.179066 -3.57339,2.144835 -3.8681,2.146162 -0.29471,0.0013 -0.46344,0.119562 -0.37494,0.262718 0.0885,0.14324 -1.40318,1.310854 -3.314836,2.594824 C 85.468619,61.460644 71.324502,74.722131 60.14723,88.579903 42.811518,110.07301 30.665773,135.94553 24.43456,164.65402 c -1.681447,7.74684 -3.567275,26.01871 -3.567275,34.56365 0,14.52196 2.484597,32.83201 6.299377,46.42259 3.597263,12.81574 6.532436,20.52916 12.172978,31.98967 4.094257,8.31877 6.017197,11.88979 7.989725,14.83741 0.718702,1.07398 2.283928,3.4732 3.478293,5.33161 7.065232,10.99341 19.615307,25.49793 30.040243,34.71846 13.152874,11.63332 24.324269,19.23751 39.764929,27.06734 6.84022,3.46862 19.64542,8.87867 22.43719,9.47945 0.61092,0.13149 2.8102,0.82815 4.88731,1.5482 4.82131,1.6713 17.61931,4.65872 25.19371,5.88091 10.5582,1.70366 17.77315,2.18163 29.8996,1.98072 9.65895,-0.16003 12.70558,-0.38858 20.66,-1.54996 z m -18.23815,-12.70616 c -0.29923,-2.79405 -0.26168,-2.95601 0.99992,-4.31414 7.05909,-7.59901 12.1344,-13.64961 13.18419,-15.71772 1.95263,-3.8467 -0.28461,-7.68625 -4.47867,-7.68625 -1.95944,0 -5.82687,2.11054 -6.59724,3.60029 -0.36606,0.70785 -0.76538,1.28702 -0.88738,1.28702 -0.62829,0 -6.41986,-3.17928 -6.41986,-3.52418 0,-0.22162 1.00068,-1.49781 2.2237,-2.83602 3.37177,-3.68924 6.70292,-4.94926 13.11483,-4.96073 4.81092,-0.008 4.93875,0.0178 7.23337,1.4902 4.1684,2.67484 5.80686,7.20009 4.3771,12.0891 -0.71714,2.45227 -3.2122,5.86551 -8.90725,12.18507 -1.44004,1.59796 -2.53968,2.97172 -2.44366,3.05279 0.096,0.0811 2.17394,-0.1021 4.61759,-0.407 2.44366,-0.30495 5.77782,-0.67999 7.40925,-0.83344 3.36748,-0.31672 3.20123,-0.48755 3.6862,3.78758 l 0.28287,2.49348 -3.91196,0.49158 c -2.15157,0.27039 -7.71072,0.89851 -12.35367,1.39584 -4.64294,0.49734 -8.97647,0.99546 -9.63008,1.10691 -1.16369,0.19845 -1.19482,0.1424 -1.49925,-2.70038 z m -29.0799,1.37864 c -2.98921,-0.77416 -4.9339,-1.91617 -6.66451,-3.91368 -3.35339,-3.8706 -4.43399,-6.87048 -4.43003,-12.29836 0.007,-8.90871 3.48231,-15.70625 9.55108,-18.67892 3.06726,-1.50244 8.81028,-1.55096 11.76239,-0.0994 6.21544,3.05622 9.09923,8.14842 9.01401,15.91695 -0.0477,4.34885 -1.06499,9.22132 -2.44925,11.73118 -1.36566,2.47611 -4.73282,5.65914 -7.03348,6.64886 -2.52726,1.08719 -7.00113,1.40534 -9.75021,0.69336 z m 7.17746,-7.81919 c 0.66516,-0.47365 1.77157,-2.00597 2.45867,-3.40518 1.15873,-2.35968 1.24926,-2.93032 1.24926,-7.87562 0,-4.21174 -0.16104,-5.6259 -0.76677,-6.73269 -1.49876,-2.73867 -5.27658,-4.03414 -8.06253,-2.76478 -3.06903,1.39834 -5.48574,8.07904 -5.04252,13.93946 0.25439,3.36355 0.94537,5.22048 2.4489,6.58116 1.96788,1.78089 5.41415,1.89599 7.71499,0.25765 z m -38.05638,-0.14509 c -2.68802,-1.06484 -7.6864,-3.07868 -11.10751,-4.47521 -3.42112,-1.39651 -6.65412,-2.70566 -7.18446,-2.9092 l -0.96426,-0.37005 0.85318,-1.67347 c 0.46924,-0.9204 0.85317,-2.00375 0.85317,-2.40744 0,-0.46623 0.95224,-1.16132 2.61029,-1.90543 1.43566,-0.64427 2.75501,-1.17141 2.93188,-1.17141 0.17688,0 0.95163,-0.27504 1.72165,-0.61117 0.77004,-0.33616 3.79928,-1.55793 6.73167,-2.71506 6.70004,-2.64388 8.26556,-3.64289 9.29858,-5.93374 1.13845,-2.5246 0.45811,-4.08113 -2.44792,-5.60066 -2.57093,-1.34429 -6.59093,-1.58375 -7.53292,-0.4487 -0.86466,1.04186 -1.4874,0.66332 -3.66577,-2.22832 l -1.99902,-2.65358 1.32415,-0.97692 c 3.09378,-2.28252 8.90706,-2.45269 14.07315,-0.41199 4.35555,1.72054 6.55531,3.5458 8.06995,6.69605 1.46477,3.04659 0.84871,8.0571 -1.30537,10.61661 -1.71837,2.04178 -5.20431,4.30634 -8.59308,5.58229 -6.69511,2.52086 -9.27957,3.69194 -8.91516,4.03971 0.19827,0.18922 2.75973,1.23991 5.69212,2.33486 7.66312,2.86139 7.83714,2.95512 7.51606,4.04774 -1.02695,3.4944 -1.799,5.14443 -2.39982,5.12874 -0.37029,-0.0101 -2.87253,-0.88879 -5.56056,-1.95365 z m 102.99743,-1.51903 c -6.36828,-2.2006 -10.61753,-8.9587 -11.1288,-17.69949 -0.29037,-4.96449 0.26719,-7.45099 2.38684,-10.64438 3.11362,-4.69088 8.69568,-7.65757 15.13489,-8.04373 4.76263,-0.2856 5.01275,-0.17689 4.52542,1.96707 -0.21256,0.93514 -0.48835,2.40003 -0.61284,3.25531 l -0.22637,1.55505 -2.20455,-0.15281 c -4.44203,-0.30778 -9.07044,2.24503 -10.74214,5.92485 -0.82334,1.81235 -1.02822,4.66912 -0.44181,6.16012 0.28871,0.73402 0.4497,0.66075 1.46427,-0.66646 1.68007,-2.19777 6.36562,-4.37469 10.08757,-4.68673 2.65291,-0.2224 3.34832,-0.10546 5.7325,0.96458 7.00799,3.14498 8.57236,12.79205 2.92579,18.04255 -4.64526,4.31943 -11.39507,5.92652 -16.90077,4.024 z m 7.93018,-5.85334 c 2.24898,-0.62466 4.36847,-3.11542 4.36847,-5.13371 0,-3.11356 -2.28067,-5.52937 -5.19846,-5.50649 -1.79147,0.0134 -4.71188,1.45717 -5.8329,2.88231 -1.84076,2.34014 -0.85458,6.39282 1.84088,7.56515 1.71525,0.74602 2.68978,0.78496 4.82201,0.19274 z m -63.83169,-32.68121 c -11.44893,-0.85235 -21.68913,-3.18882 -34.87764,-7.95789 -3.78211,-1.36764 -16.10202,-7.79745 -20.15531,-10.51912 -8.31365,-5.58241 -16.224,-12.25562 -21.85236,-18.43475 -17.413027,-19.11695 -27.309354,-40.24379 -30.663667,-65.46123 -1.016549,-7.64239 -0.898784,-22.79352 0.237546,-30.56165 1.376446,-9.40955 4.815645,-21.84961 8.256021,-29.86327 2.773327,-6.45988 8.76943,-16.99328 12.25617,-21.53049 1.06575,-1.38686 2.3527,-3.08567 2.85984,-3.77514 4.45137,-6.05157 15.12675,-16.97069 19.32645,-19.76771 1.08158,-0.72035 2.16644,-1.52009 2.41081,-1.77722 0.88286,-0.92894 5.39373,-4.11425 8.21956,-5.80416 1.58839,-0.94989 3.18787,-1.96333 3.55442,-2.252126 0.84504,-0.665771 8.70752,-4.65427 12.21827,-6.198119 8.81929,-3.878273 21.93148,-7.4279 31.98967,-8.659981 5.80771,-0.711413 21.51702,-0.730237 26.8802,-0.03224 23.57388,3.068254 43.65266,11.89102 61.31352,26.941666 16.21636,13.81961 28.47094,31.85139 35.05137,51.57567 5.06493,15.18171 6.91739,29.48569 5.833,45.04021 -0.75576,10.84076 -2.77059,21.26134 -5.62684,29.10171 -0.62316,1.71055 -1.29135,3.70991 -1.48485,4.443 -1.04188,3.94685 -7.34026,16.15631 -11.89601,23.06044 -7.11032,10.77548 -15.67769,19.97827 -26.76398,28.749 -4.39746,3.47898 -13.46256,9.06234 -19.77139,12.17757 -14.98821,7.40099 -30.61296,11.20612 -47.31804,11.52346 -4.27639,0.0813 -8.77494,0.0732 -9.99676,-0.0176 z m 16.85645,-6.86564 c 13.86746,-1.31502 29.24902,-5.92509 41.12481,-12.32569 3.98727,-2.14898 13.31053,-8.36329 17.48162,-11.65215 4.0731,-3.21161 12.64324,-11.74979 16.25654,-16.19595 4.53195,-5.57658 8.78869,-12.0525 12.23647,-18.61574 14.27131,-27.1671 16.47025,-59.23955 6.06792,-88.50306 -1.77665,-4.998 -6.94247,-15.82377 -9.23575,-19.35493 -0.69558,-1.07104 -1.36464,-2.16121 -1.48682,-2.42262 -1.25818,-2.6918 -9.47416,-12.86735 -14.61219,-18.09726 -14.48106,-14.74005 -31.57654,-24.547293 -51.32472,-29.44371 -8.55602,-2.12141 -13.03913,-2.772168 -21.36823,-3.101805 -23.24574,-0.919992 -45.19458,5.198564 -64.42156,17.958395 -22.65916,15.03759 -39.62576,38.99421 -45.982802,64.92719 -2.735041,11.15732 -3.599316,20.55716 -3.051915,33.19242 0.433044,9.9951 2.702783,21.3009 6.205911,30.91208 1.979967,5.43225 6.800336,15.66875 9.042196,19.20192 0.77526,1.22182 1.9805,3.1212 2.67831,4.22086 3.10705,4.89627 8.86154,11.8143 14.63236,17.59099 9.26794,9.27736 18.87288,16.11443 30.23542,21.52241 17.46793,8.31382 37.16436,11.92751 55.52243,10.18665 z m -22.85452,-23.4828 c -2.81021,-0.44642 -6.00918,-1.05518 -7.10881,-1.3528 -4.3537,-1.17827 -10.99004,-3.31327 -12.88474,-4.14517 -5.17015,-2.27007 -8.98609,-4.13184 -9.33814,-4.55602 -0.55236,-0.66557 10.14848,-11.45434 11.07919,-11.17023 0.38644,0.11805 2.47731,0.95312 4.64639,1.85592 4.80163,1.99845 10.08771,3.44816 16.22901,4.45078 6.57637,1.07364 19.90432,0.74023 25.5902,-0.64017 7.48389,-1.81689 11.54479,-3.25403 17.26282,-6.10922 5.47206,-2.73238 13.61609,-7.8912 13.61609,-8.62508 0,-0.19268 -10.31006,-10.66618 -22.91125,-23.27447 l -22.91127,-22.92417 -28.41436,28.5283 -28.41437,28.5283 -1.81244,-1.74764 c -7.47576,-7.20842 -12.89506,-13.78093 -17.01061,-20.63041 -3.80111,-6.32616 -4.86478,-8.50277 -7.18092,-14.69444 -5.69532,-15.22512 -7.06951,-31.57694 -4.02986,-47.95199 1.36465,-7.35149 4.9619,-17.56312 8.73956,-24.80919 l 1.00498,-1.92769 5.65776,5.64521 5.65777,5.64521 -1.679,3.63416 c -3.68573,7.97774 -5.76405,18.16353 -5.76683,28.26308 -0.003,9.3717 0.44226,12.25555 3.7074,24.03317 0.70749,2.55192 4.08985,9.77338 6.64134,14.17945 1.91431,3.30574 5.28507,7.98303 5.75307,7.98303 0.20798,0 10.66715,-10.27631 23.24261,-22.83626 l 22.86443,-22.83625 -28.21737,-28.20004 c -15.51954,-15.51004 -28.21736,-28.42555 -28.21736,-28.70114 0,-1.00934 9.64835,-10.45079 14.06111,-13.75958 9.67532,-7.25477 22.26307,-13.17852 33.57596,-15.80076 11.70133,-2.71227 27.94469,-2.70809 39.8902,0.0101 5.01454,1.14112 13.36651,4.1197 18.64084,6.64794 l 5.08965,2.43973 -5.58325,5.58326 -5.58326,5.58325 -3.97338,-1.58971 c -9.91554,-3.96717 -15.5136,-5.13821 -26.14048,-5.46825 -8.67192,-0.26932 -15.21964,0.32716 -20.21569,1.84163 -1.09965,0.33333 -3.49888,1.04897 -5.33161,1.59031 -6.28473,1.85631 -18.2251,8.15915 -22.1028,11.66716 l -0.99851,0.9033 23.11511,23.1008 23.11512,23.10075 28.49164,-28.47715 28.49165,-28.47716 3.26176,2.96747 c 5.86364,5.33458 12.57407,13.89507 17.12804,21.85023 0.6295,1.09966 2.1344,4.19867 3.34425,6.88669 5.75089,12.77738 7.97203,24.25931 7.54879,39.02269 -0.38159,13.31035 -2.96367,24.09324 -8.57526,35.81069 l -2.43197,5.07816 -5.54167,-5.52093 c -3.04792,-3.03651 -5.54168,-5.77819 -5.54168,-6.09261 0,-0.31441 0.47717,-1.51472 1.06039,-2.66732 1.63661,-3.23445 3.64057,-9.241 4.78668,-14.3473 0.93776,-4.17804 1.03571,-5.65467 0.99994,-15.07286 -0.0422,-11.1 -0.27573,-12.91976 -2.68042,-20.88215 -1.35132,-4.47452 -4.68545,-12.45044 -5.9426,-14.21595 -0.48938,-0.68729 -0.8898,-1.37035 -0.8898,-1.51793 0,-0.57732 -5.93666,-9.14698 -6.33661,-9.14698 -0.23385,0 -10.67969,10.34004 -23.21301,22.97784 l -22.78782,22.97781 26.90409,26.84692 c 14.79727,14.76581 27.49523,27.52016 28.21771,28.34303 l 1.31359,1.49609 -1.26392,1.65708 c -2.63334,3.4525 -11.00622,10.83123 -16.60735,14.6355 -9.57311,6.50205 -21.09792,11.33611 -32.77287,13.74657 -7.70437,1.59067 -22.43231,1.90994 -30.31785,0.65724 z m 146.41602,-87.98882 c -0.0964,-0.156 -0.30203,-1.47626 -0.45696,-2.93396 l -0.28169,-2.65036 8.3092,-8.34171 c 4.57006,-4.58796 8.23087,-8.41953 8.13515,-8.51464 -0.15096,-0.14996 -5.40145,0.49233 -15.37277,1.88043 -2.73639,0.38094 -2.76001,0.3749 -2.97551,-0.76177 -0.46226,-2.43813 -0.78055,-5.8109 -0.54836,-5.8109 0.134,0 4.40136,-0.5808 9.48308,-1.29065 14.725,-2.05691 21.02863,-2.84101 21.22903,-2.6406 0.1026,0.1026 0.3764,1.37901 0.60839,2.83645 l 0.42183,2.64985 -6.05369,6.22022 c -8.57454,8.81039 -10.28282,10.60688 -10.17293,10.6982 0.0808,0.0672 11.88414,-1.4965 16.59196,-2.19797 l 1.38897,-0.20695 0.53741,3.33136 c 0.29556,1.83224 0.45403,3.4147 0.35217,3.51659 -0.10193,0.10193 -6.0671,0.99096 -13.25605,1.97574 -7.18894,0.98478 -14.12677,1.95562 -15.41739,2.1574 -1.2906,0.20177 -2.42543,0.23926 -2.52184,0.0833 z M 50.662739,196.93414 c -8.171218,-1.20215 -14.893414,-2.23133 -14.938216,-2.28708 -0.12141,-0.15113 0.70787,-6.70638 0.868792,-6.8673 0.07607,-0.0762 3.266791,0.3247 7.090287,0.89079 3.823512,0.56609 6.951832,0.91821 6.951832,0.78251 0,-0.13568 -1.920656,-2.44429 -4.268143,-5.13017 -2.347471,-2.68587 -5.148052,-5.90638 -6.223526,-7.1567 l -1.955383,-2.27328 0.51924,-3.50262 c 0.285589,-1.92645 0.661707,-3.66731 0.835812,-3.8686 0.174104,-0.20129 2.890992,2.64694 6.037516,6.32943 3.146523,3.68248 5.920875,6.69597 6.165239,6.69668 0.244364,8.9e-4 2.443658,-1.23061 4.887316,-2.73622 8.336708,-5.13652 13.99547,-8.30257 13.99547,-7.8304 0,0.25938 -0.229923,2.19849 -0.510928,4.30917 l -0.510945,3.8376 -6.626797,3.90124 c -3.64474,2.1457 -6.563809,4.06167 -6.486799,4.25772 0.07691,0.19605 1.04827,1.36031 2.158404,2.5872 1.922671,2.12495 2.154458,2.24537 4.887299,2.53916 4.637443,0.49856 4.538384,0.42656 4.214306,3.06274 -0.502498,4.08763 -0.709196,4.73734 -1.491776,4.68935 -0.408208,-0.025 -7.427765,-1.02908 -15.599,-2.23122 z m 19.266258,-29.89841 c -2.26297,-0.98542 -26.701748,-9.58915 -27.23778,-9.58915 -0.273634,0 -0.498367,-0.24992 -0.499459,-0.55538 -0.0034,-1.08998 7.280277,-21.21536 7.678628,-21.21536 0.223373,0 1.494782,0.31647 2.825351,0.70329 2.14853,0.6246 2.387453,0.81101 2.13528,1.66611 -0.15617,0.52957 -1.26402,3.72768 -2.461911,7.1069 -1.197874,3.37923 -2.177967,6.38005 -2.177967,6.66849 0,0.48393 5.6594,2.81434 5.959028,2.45379 0.07321,-0.088 1.044089,-2.75926 2.157598,-5.93601 1.113526,-3.17675 2.158404,-6.11271 2.32198,-6.52438 0.274153,-0.68999 0.494185,-0.67507 2.815728,0.19078 1.385094,0.51659 2.590827,0.99252 2.679391,1.05762 0.164566,0.12091 0.01746,0.56594 -2.821506,8.53359 -0.899606,2.52478 -1.568736,4.64186 -1.48694,4.70459 0.801522,0.61498 6.350663,2.44217 6.589334,2.16973 0.172156,-0.19653 1.478611,-3.55626 2.903234,-7.46612 1.42464,-3.90985 2.742211,-7.28683 2.92797,-7.50439 0.34391,-0.40284 5.283886,1.36951 5.271174,1.89115 -0.0034,0.15483 -1.020243,3.18069 -2.258806,6.72399 -1.238579,3.5433 -2.967549,8.49171 -3.842135,10.99646 -0.874602,2.50475 -1.707543,4.54626 -1.850967,4.53669 -0.143408,-0.0101 -0.875677,-0.28514 -1.627225,-0.61239 z m 263.408883,-3.9846 c -6.45613,-2.11735 -10.65157,-7.23797 -11.63817,-14.20468 -1.56454,-11.04763 6.86437,-19.84085 18.02022,-18.79911 8.33451,0.7783 14.87555,9.39354 14.27201,18.79778 -0.3888,6.05843 -3.71159,10.87247 -9.22931,13.37139 -3.0179,1.36677 -8.56622,1.77209 -11.42475,0.83462 z m 7.48892,-7.00879 c 2.07567,-0.62189 5.01995,-3.05191 6.02375,-4.97164 1.0715,-2.04912 0.96303,-6.27683 -0.21988,-8.57154 -1.36333,-2.64466 -4.22316,-4.94508 -6.58864,-5.2998 -9.05095,-1.35729 -15.24151,7.83043 -10.24916,15.21133 2.45827,3.63441 6.54034,4.97797 11.03393,3.63165 z M 68.728117,133.27225 c -7.032437,-4.45892 -12.991633,-8.31252 -13.242663,-8.56357 -0.312357,-0.31236 -0.06297,-1.10063 0.790119,-2.49746 0.685587,-1.12258 2.130445,-3.50068 3.210789,-5.28468 4.982445,-8.22764 8.398353,-11.0189 13.484777,-11.0189 2.886794,0 6.334592,1.58197 8.2822,3.80017 1.31925,1.50256 2.704663,5.17309 2.704663,7.16583 0,1.02208 0.04316,1.03012 5.527545,1.03012 3.040144,0 5.625731,-0.15885 5.74573,-0.35304 0.120067,-0.19417 -2.454808,-7.44182 -5.721817,-16.1059 l -5.939986,-15.752887 2.788895,-2.812655 2.788911,-2.812673 11.73406,4.765201 c 6.45374,2.620852 13.53349,5.46543 15.73279,6.321241 2.19927,0.855829 4.08723,1.631893 4.19545,1.724571 0.2893,0.247806 -4.97603,5.476966 -5.51445,5.476547 -0.25202,-1.85e-4 -1.73849,-0.606024 -3.30328,-1.346287 l -2.84509,-1.345933 -1.13758,1.013056 c -0.62569,0.557191 -3.02532,2.854435 -5.33252,5.104999 l -4.194914,4.09192 1.419871,3.38256 1.419873,3.38256 -2.50465,2.58936 c -1.377554,1.42416 -3.478074,4.10869 -4.667804,5.96561 l -2.163139,3.37625 h -5.10718 c -5.610836,0 -5.251393,-0.15785 -7.584388,3.33226 l -1.484942,2.22151 3.617233,2.35715 c 1.989489,1.29644 3.699534,2.43946 3.800121,2.54004 0.166245,0.16625 -3.408453,6.48061 -3.621163,6.39634 -0.05021,-0.0198 -5.845041,-3.68437 -12.877461,-8.14331 z m 6.229353,-9.82556 c 2.357311,-3.82079 2.693329,-5.41383 1.60432,-7.60603 -1.152434,-2.3199 -3.577637,-3.52819 -5.685395,-2.83256 -0.853175,0.28158 -2.039076,1.09171 -2.63531,1.80031 -1.745511,2.07442 -4.479292,6.8035 -4.026265,6.96486 0.228865,0.0814 2.11555,1.2393 4.192662,2.57284 2.077094,1.33356 3.976491,2.36411 4.220855,2.29011 0.244364,-0.0741 1.292467,-1.50929 2.329133,-3.18953 z M 99.976529,96.468487 c 2.035301,-1.866013 3.108521,-3.150638 2.844311,-3.40454 -0.60965,-0.585839 -10.854389,-5.087482 -11.075277,-4.866593 -0.274289,0.274288 4.348058,11.521384 4.678954,11.384844 0.155834,-0.06432 1.754243,-1.465479 3.552012,-3.113711 z M 312.86361,132.23246 c -0.52888,-0.91638 -1.37002,-2.29214 -1.86919,-3.05727 l -0.9076,-1.39112 2.34275,-1.46247 c 1.2885,-0.80435 5.24181,-3.29151 8.78512,-5.52703 3.54329,-2.23551 7.34207,-4.60836 8.44171,-5.27297 1.09964,-0.66463 3.09898,-1.89923 4.443,-2.74356 1.34401,-0.8443 2.55689,-1.53595 2.6953,-1.53696 0.29279,-0.002 4.0687,5.83433 3.8762,5.99147 -0.071,0.0579 -3.12817,1.95972 -6.79364,4.22606 -3.66548,2.26635 -9.60614,5.99248 -13.20146,8.2803 -3.5953,2.28783 -6.6075,4.15967 -6.69376,4.15967 -0.0863,0 -0.58956,-0.74975 -1.11843,-1.66612 z m -12.7047,-17.94099 c -1.82533,-2.24551 -2.07414,-2.76344 -1.55507,-3.23714 0.33988,-0.31016 3.91688,-3.32887 7.94892,-6.70824 4.03202,-3.37939 8.0597,-6.79024 8.9504,-7.579671 l 1.61944,-1.435337 -2.83921,-3.486672 c -1.56156,-1.917667 -2.84013,-3.605327 -2.84127,-3.750347 -10e-4,-0.145087 0.98439,-1.095457 2.19004,-2.112073 l 2.19211,-1.848415 8.46185,10.109506 8.46183,10.109489 -2.10115,1.87122 c -1.15564,1.02916 -2.24371,1.87889 -2.41791,1.88828 -0.17422,0.0101 -1.65566,-1.58242 -3.29207,-3.53733 -1.63641,-1.95493 -3.09334,-3.54684 -3.23764,-3.53759 -0.14424,0.0101 -4.46098,3.60748 -9.59266,7.99607 -5.13168,4.38858 -9.43029,7.96848 -9.55247,7.95535 -0.12225,-0.0134 -1.20001,-1.22684 -2.39514,-2.6971 z m -12.25603,-13.95754 c -4.88113,-1.363566 -9.51795,-5.115995 -11.84468,-9.585531 -1.11652,-2.144785 -1.24597,-2.847601 -1.25874,-6.833664 -0.0134,-4.01273 0.10697,-4.67966 1.2369,-6.886661 1.40325,-2.740801 4.13095,-5.77379 6.64487,-7.388605 5.86959,-3.770347 14.59498,-2.450694 20.28576,3.068052 2.48798,2.412777 3.73168,4.406614 4.7359,7.592382 0.95776,3.038363 0.70332,3.375187 -2.55778,3.385883 -1.14074,0.0034 -2.39034,0.128127 -2.77687,0.276489 -0.50636,0.194305 -0.7028,0.0034 -0.7028,-0.684159 0,-1.274902 -1.59627,-4.395028 -3.04791,-5.9575 -4.71469,-5.074737 -12.75418,-3.656545 -16.0654,2.833998 -1.36545,2.676486 -1.12402,7.039473 0.52285,9.448975 2.23926,3.276195 5.97092,5.107566 9.31704,4.572507 l 1.64927,-0.263726 0.72003,3.165667 c 0.396,1.741128 0.63297,3.252723 0.52659,3.359103 -0.56214,0.56214 -5.23712,0.4968 -7.38503,-0.10328 z M 120.15527,87.135918 c -1.6575,-2.749113 -5.31678,-8.769534 -8.13175,-13.378716 -4.03445,-6.605891 -4.98401,-8.458168 -4.48463,-8.747989 0.34844,-0.202215 1.72606,-1.062813 3.0614,-1.912462 2.34785,-1.493875 2.44765,-1.516579 3.02756,-0.688626 0.77912,1.112334 6.58608,10.498219 10.00736,16.174999 1.47274,2.443658 2.71842,4.499981 2.76817,4.569636 0.0497,0.06969 2.80678,-1.58259 6.12669,-3.671608 3.3199,-2.089034 6.34047,-3.914997 6.71237,-4.0577 0.45808,-0.175783 0.99826,0.286413 1.67478,1.43302 l 0.9986,1.692496 0.31338,-1.315824 c 0.17237,-0.723706 0.94009,-7.913689 1.70605,-15.977755 0.76594,-8.064065 1.46476,-14.888678 1.5529,-15.165821 0.0882,-0.277143 1.72494,-1.031042 3.63732,-1.675319 l 3.47703,-1.171409 2.46797,2.563909 c 5.2844,5.489796 20.41353,22.305579 20.41353,22.68927 0,0.36705 -5.82409,2.320821 -6.88666,2.310241 -0.24437,-0.0017 -1.34402,-1.101368 -2.44366,-2.442062 -1.09966,-1.340678 -2.29926,-2.433666 -2.66581,-2.42883 -0.36654,0.005 -3.56551,0.963267 -7.10883,2.129874 l -6.44235,2.121107 -0.44431,3.733807 -0.44429,3.73379 -2.91484,1.131041 c -1.60316,0.622077 -3.60251,1.551876 -4.443,2.066213 -0.8405,0.514337 -3.22764,1.990127 -5.30473,3.279537 -7.10678,4.411635 -12.9867,8.003562 -13.10169,8.003562 -0.0633,0 -1.47109,-2.249268 -3.12856,-4.998381 z m 34.89087,-24.537635 c 2.07711,-0.677089 3.95359,-1.393271 4.16995,-1.591506 0.36285,-0.332441 -7.1247,-9.303854 -7.765,-9.303854 -0.15583,0 -0.42727,2.526914 -0.60322,5.615386 -0.17595,3.088456 -0.43768,5.92227 -0.58161,6.297346 -0.17746,0.462448 -0.0581,0.606595 0.37081,0.447839 0.34789,-0.128798 2.33198,-0.788121 4.40907,-1.465211 z m 99.97154,17.271716 c -5.98486,-2.821405 -10.91484,-5.164862 -10.95553,-5.207699 -0.0406,-0.04282 1.01524,-2.477109 2.34653,-5.409495 2.64434,-5.82457 2.935,-6.452189 6.51588,-14.069676 1.34023,-2.851026 2.79694,-6.000001 3.23714,-6.997743 0.4402,-0.997742 0.97467,-1.814074 1.1877,-1.814074 0.47621,0 21.2124,9.379453 21.2124,9.594851 0,0.637442 -2.25943,5.067078 -2.58458,5.067078 -0.22658,0 -3.5865,-1.480004 -7.46649,-3.288907 l -7.05452,-3.288907 -1.42242,2.73353 c -0.78233,1.503447 -1.43211,2.893679 -1.44397,3.089429 -0.0117,0.19575 0.62823,0.628509 1.42241,0.961688 0.7942,0.333197 3.79614,1.712161 6.67099,3.064392 l 5.22702,2.458586 -1.20978,2.466697 c -0.66539,1.356698 -1.36151,2.466714 -1.54693,2.466714 -0.1854,0 -3.07211,-1.299586 -6.41487,-2.887953 -3.34276,-1.588383 -6.25678,-2.887953 -6.47557,-2.887953 -0.37195,0 -3.02644,5.444087 -3.02644,6.206902 0,0.191501 1.0052,0.780598 2.23379,1.309124 1.22857,0.528527 4.72333,2.137615 7.76615,3.575773 l 5.53238,2.614807 -1.21272,2.684478 c -0.667,1.476462 -1.31269,2.685302 -1.43488,2.686326 -0.12225,8.9e-4 -5.11884,-2.306564 -11.10369,-5.127968 z m -16.66511,-6.821053 c -0.73311,-0.183576 -5.43157,-1.286791 -10.44107,-2.451601 -5.0095,-1.16481 -9.15622,-2.158521 -9.21496,-2.208227 -0.0588,-0.04971 0.78598,-3.974393 1.8771,-8.721508 1.09114,-4.747132 2.62325,-11.430235 3.40473,-14.851349 0.78147,-3.421114 1.56994,-6.393852 1.75217,-6.606092 0.18427,-0.214591 1.79614,-0.05995 3.63134,0.348293 l 3.30001,0.734183 -2.76749,12.314275 c -1.5221,6.772859 -2.69406,12.394425 -2.60436,12.492392 0.0897,0.0979 3.50661,0.955744 7.59307,1.906198 4.08649,0.950437 7.47899,1.777114 7.5389,1.83703 0.0599,0.05995 -0.12712,1.351441 -0.41578,2.870035 -0.5674,2.985669 -0.70619,3.074434 -3.65366,2.336371 z m -40.09816,-5.683833 -8.55279,-0.130814 v -9.027936 c 0,-4.965367 0.12896,-12.008769 0.28641,-15.652014 l 0.28641,-6.624078 11.70971,0.125272 11.70971,0.125272 v 2.873797 2.873797 h -8.21956 -8.21956 v 3.332248 3.332266 h 7.33095 7.33098 v 2.887953 2.887953 h -7.33098 -7.33095 l -0.0297,1.110755 c -0.0168,0.61091 -0.0431,2.160402 -0.0596,3.44333 l -0.0299,2.332576 8.72341,0.120402 8.7234,0.120402 v 3.100714 3.100713 l -3.88762,-0.100922 c -2.13821,-0.05542 -7.7364,-0.159697 -12.44042,-0.231737 z"
       id="path5484" /></g><metadata
     id="metadata182"><rdf:RDF><cc:Work
         rdf:about=""><cc:license
           rdf:resource="http://creativecommons.org/licenses/by-sa/4.0/" /><dc:creator><cc:Agent><dc:title>Jameela P</dc:title></cc:Agent></dc:creator><dc:publisher><cc:Agent><dc:title>OpenDataKerala.org</dc:title></cc:Agent></dc:publisher><dc:date>April 2026</dc:date><dc:title>Election Symbols of Kerala</dc:title></cc:Work><cc:License
         rdf:about="http://creativecommons.org/licenses/by-sa/4.0/"><cc:permits
           rdf:resource="http://creativecommons.org/ns#Reproduction" /><cc:permits
           rdf:resource="http://creativecommons.org/ns#Distribution" /><cc:requires
           rdf:resource="http://creativecommons.org/ns#Notice" /><cc:requires
           rdf:resource="http://creativecommons.org/ns#Attribution" /><cc:permits
           rdf:resource="http://creativecommons.org/ns#DerivativeWorks" /><cc:requires
           rdf:resource="http://creativecommons.org/ns#ShareAlike" /></cc:License></rdf:RDF></metadata></svg>
