<?xml version="1.0" encoding="UTF-8" standalone="no"?>
<!-- Created with Inkscape (http://www.inkscape.org/) -->

<svg
   width="1500"
   height="1500"
   viewBox="0 0 396.87499 396.875"
   version="1.1"
   id="svg5"
   xml:space="preserve"
   inkscape:version="1.3 (0e150ed6c4, 2023-07-21)"
   sodipodi:docname="Lady Finger.svg"
   inkscape:export-filename="Lady Finger.png"
   inkscape:export-xdpi="96"
   inkscape:export-ydpi="96"
   xmlns:inkscape="http://www.inkscape.org/namespaces/inkscape"
   xmlns:sodipodi="http://sodipodi.sourceforge.net/DTD/sodipodi-0.dtd"
   xmlns="http://www.w3.org/2000/svg"
   xmlns:svg="http://www.w3.org/2000/svg"
   xmlns:rdf="http://www.w3.org/1999/02/22-rdf-syntax-ns#"
   xmlns:cc="http://creativecommons.org/ns#"
   xmlns:dc="http://purl.org/dc/elements/1.1/"><title
     id="title186">Election Symbols of Kerala</title><sodipodi:namedview
     id="namedview7"
     pagecolor="#ffffff"
     bordercolor="#000000"
     borderopacity="0.25"
     inkscape:showpageshadow="2"
     inkscape:pageopacity="0.0"
     inkscape:pagecheckerboard="0"
     inkscape:deskcolor="#d1d1d1"
     inkscape:document-units="mm"
     showgrid="false"
     inkscape:zoom="0.25"
     inkscape:cx="230"
     inkscape:cy="1082"
     inkscape:window-width="1920"
     inkscape:window-height="991"
     inkscape:window-x="-9"
     inkscape:window-y="-9"
     inkscape:window-maximized="1"
     inkscape:current-layer="layer1" /><defs
     id="defs2"><inkscape:path-effect
       effect="bspline"
       id="path-effect3248"
       is_visible="true"
       lpeversion="1"
       weight="33.333333"
       steps="2"
       helper_size="0"
       apply_no_weight="true"
       apply_with_weight="true"
       only_selected="false" /><inkscape:path-effect
       effect="bspline"
       id="path-effect577"
       is_visible="true"
       lpeversion="1"
       weight="33.333333"
       steps="2"
       helper_size="0"
       apply_no_weight="true"
       apply_with_weight="true"
       only_selected="false" /></defs><g
     inkscape:label="Layer 1"
     inkscape:groupmode="layer"
     id="layer1"><path
       style="fill:#000000;stroke-width:1.78998"
       d="m 298.76184,383.61225 c -15.59565,-5.42912 -52.71186,-32.44875 -83.83404,-61.02899 -2.6352,-2.41998 -5.03925,-4.39996 -5.34229,-4.39996 -0.67824,0 -7.39917,10.26855 -15.1889,23.20631 -12.04663,20.0079 -16.85837,26.18488 -22.19373,28.49073 -2.96282,1.28046 -6.90208,1.03876 -9.24601,-0.56735 -5.76194,-3.94814 -5.39046,-12.42972 1.60646,-36.68005 3.2421,-11.23656 9.42243,-34.05617 9.26597,-34.21263 -0.094,-0.094 -5.51076,3.6217 -12.03742,8.25693 -16.67047,11.83932 -39.06686,27.30387 -45.79071,31.61814 -7.10825,4.56093 -15.12213,8.52487 -19.31465,9.55368 -7.28163,1.78686 -12.165842,-1.76404 -12.176967,-8.85287 -0.0048,-3.12913 2.209124,-6.4861 8.734129,-13.24292 8.917048,-9.23383 17.962168,-19.58062 26.099418,-29.85534 4.58104,-5.78438 5.61886,-7.11243 12.93258,-16.54915 7.3939,-9.5402 17.18252,-23.66023 16.81935,-24.26186 -0.20004,-0.3314 -1.74759,-2.52061 -3.439,-4.86491 -5.02948,-6.97093 -8.13765,-12.18707 -14.97742,-25.1352 -21.66798,-41.01888 -28.51728,-50.84448 -49.486882,-70.99102 -8.011662,-7.69721 -12.036751,-12.19866 -13.352285,-14.93249 -0.564045,-1.17216 -1.525091,-2.79719 -2.135657,-3.6112 -1.557963,-2.07707 -2.836967,-6.22769 -3.668107,-11.90376 C 60.73819,114.78747 57.350335,108.88098 49.599131,101.96601 47.322974,99.93543 43.378412,96.909726 40.833435,95.242237 34.923486,91.369982 21.153928,84.364014 15.47876,82.341735 10.398006,80.531263 8.7312533,79.241657 8.7312533,77.121072 c 0,-3.655257 2.1873507,-5.214989 7.2930377,-5.200454 6.222763,0.0179 11.404849,1.614201 27.279606,8.404261 12.104345,5.177345 16.721343,7.366809 22.823995,10.823611 8.455048,4.789278 17.579344,9.10255 23.114999,10.927 11.653899,3.8409 15.473029,4.84316 21.075109,5.53072 12.18976,1.49614 14.27906,3.09244 41.30304,31.55709 7.2952,7.68412 16.11789,17.15721 19.60593,21.05131 3.48805,3.89409 7.04743,7.8368 7.90972,8.76156 l 1.5678,1.6814 -0.70405,-1.44808 c -0.38722,-0.79645 -3.04217,-7.29657 -5.89989,-14.44474 -9.78447,-24.47447 -16.07178,-38.73192 -23.48354,-53.25249 -1.86139,-3.646705 -4.09646,-8.761562 -4.96682,-11.366354 -0.87035,-2.604773 -2.03666,-5.695006 -2.5918,-6.867154 -0.93242,-1.968795 -1.0006,-2.798825 -0.89472,-10.892758 0.11864,-9.06938 -0.24507,-12.48521 -1.83361,-17.220306 -1.44024,-4.293061 -7.76117,-17.17928 -10.40042,-21.202914 -2.93637,-4.476606 -3.49466,-6.293324 -2.68701,-8.74373 1.21775,-3.694637 5.81996,-5.082047 9.91978,-2.990478 3.07938,1.570973 6.08718,4.709696 12.38923,12.928444 9.08028,11.841982 11.4435,13.71641 26.53892,21.049907 10.88538,5.288199 13.67377,7.136475 16.15448,10.707853 0.91414,1.316062 4.01619,5.376498 6.89344,9.023217 5.4639,6.925061 13.73196,18.299555 20.27051,27.886383 3.59298,5.26802 3.86624,5.55302 4.28016,4.46434 0.24316,-0.63961 2.08086,-4.9834 4.08376,-9.652857 5.75982,-13.428205 7.75321,-18.431171 10.24697,-25.717753 1.2816,-3.744773 2.87425,-7.919786 3.53921,-9.277787 1.36584,-2.789428 9.07595,-11.319327 14.14103,-15.644608 9.08198,-7.755502 10.28506,-9.519667 14.24914,-20.894734 3.02099,-8.668837 4.71608,-10.911069 8.59634,-11.371129 2.21714,-0.262858 3.80692,0.537459 5.2134,2.624535 1.31731,1.954762 1.38351,4.278384 0.31489,11.055735 -1.07041,6.788772 -1.05802,15.065927 0.027,18.112001 0.46396,1.302387 2.55116,5.777883 4.63826,9.945556 4.31932,8.62518 4.88047,10.891075 4.80893,19.417502 -0.0342,4.077441 -0.31507,6.18734 -1.29229,9.70876 -3.00052,10.812424 -4.72089,17.248279 -6.26655,23.443089 -2.61814,10.49313 -3.00814,12.2714 -2.74827,12.53126 0.13424,0.13425 8.06098,-7.65655 17.61515,-17.31268 9.55418,-9.656119 18.33027,-18.299682 19.50242,-19.207898 4.24769,-3.29123 9.37062,-6.056349 16.08772,-8.683408 11.7724,-4.604177 15.96038,-7.50589 26.53563,-18.385652 10.81591,-11.12737 17.02163,-15.482114 22.06274,-15.482114 2.49147,0 2.80724,0.131026 4.57334,1.897088 1.83496,1.834959 1.89007,1.981934 1.68233,4.486988 -0.25291,3.049636 -0.75312,3.806545 -10.43709,15.7928 -7.42688,9.192531 -9.2461,12.043515 -11.08297,17.368552 -1.22249,3.543848 -1.32371,4.446999 -1.56604,13.971123 -0.24828,9.758341 -0.31104,10.290821 -1.50739,12.787141 -0.68658,1.43265 -1.82307,4.02834 -2.52551,5.76824 -1.65009,4.08712 -6.69165,11.81264 -12.77059,19.56926 -2.65382,3.38622 -6.85598,8.82075 -9.33816,12.07674 -2.48218,3.256 -5.73174,7.51838 -7.22121,9.47196 -1.48948,1.9536 -6.1589,7.69241 -10.37646,12.75294 -7.5068,9.00715 -8.97138,10.78688 -15.61755,18.97812 -5.70472,7.03095 -14.70123,17.07845 -21.15503,23.62636 -6.99354,7.09556 -6.67869,6.27478 -4.47179,11.65669 2.24569,5.47652 20.91421,52.13631 22.45409,56.12134 9.40599,24.34181 18.92048,43.15282 31.32273,61.92788 2.28166,3.45408 4.28797,7.02381 4.4585,7.93276 1.10666,5.899 -3.51248,9.7461 -9.95574,8.29173 -5.11417,-1.15437 -13.82126,-7.23306 -25.06101,-17.49589 -7.96725,-7.27477 -30.97699,-30.42896 -37.21652,-37.45017 -6.49767,-7.3117 -6.49237,-7.30715 -4.97741,-4.2687 0.71259,1.42917 4.27393,8.14242 7.91411,14.91834 14.52879,27.04423 21.28041,37.37254 33.74455,51.621 6.91935,7.90989 7.91295,9.46937 7.95854,12.49114 0.0992,6.56742 -6.10416,8.95759 -15.11061,5.82229 z m 7.8936,-4.82508 c 0.50385,-0.26964 0.90929,-0.85572 0.90101,-1.3024 -0.0143,-0.7591 -0.0562,-0.75801 -0.64422,0.0161 -1.00389,1.32247 -3.86491,1.01656 -8.10229,-0.8663 -5.02341,-2.23214 -5.51277,-2.38897 -3.57458,-1.14558 2.20233,1.41284 8.04788,3.75837 9.40729,3.7747 0.6032,0.007 1.50897,-0.20744 2.01279,-0.47708 z M 173.02698,361.8727 c 2.39821,-2.39828 5.25231,-6.20887 5.25231,-7.01248 0,-0.15537 -0.57059,0.42644 -1.26797,1.29297 -3.98078,4.94637 -6.60382,7.02191 -8.87419,7.02191 -1.5702,0 -2.17139,-1.2293 -2.17139,-4.44009 0,-1.43439 -0.23692,-2.75441 -0.5265,-2.93337 -0.79265,-0.4899 -0.35547,7.02114 0.46631,8.01134 0.40403,0.48682 1.35863,0.78292 2.52406,0.78292 1.65031,0 2.19974,-0.32546 4.59737,-2.7232 z m 96.31204,-8.05115 c -5.90434,-5.7728 -17.43251,-17.82677 -30.68658,-32.08626 C 203.4163,283.8263 174.93246,247.42782 148.12172,206.04935 130.84604,179.38687 127.09546,174.65627 108.19531,155.69026 91.748702,139.18636 82.232888,131.35222 77.932153,130.77537 c -2.821413,-0.37843 -3.241961,0.61385 -1.669187,3.93843 1.064457,2.25007 3.518391,4.94581 14.149877,15.54417 13.002567,12.96206 19.291267,20.23605 26.234827,30.34515 5.69902,8.29719 12.34622,19.84339 11.76089,20.42873 -0.0854,0.0854 -3.1252,-4.36432 -6.75498,-9.8884 -7.24078,-11.01956 -13.32582,-19.53818 -16.83245,-23.56427 -10.477216,-12.02923 -14.02177,-15.76832 -17.254671,-18.20159 -4.529058,-3.40885 -10.270707,-9.16124 -12.770515,-12.79445 -2.264528,-3.29123 -2.865075,-2.45246 -0.86939,1.21427 0.901209,1.65582 4.137699,5.15141 10.09733,10.90568 4.824045,4.65782 10.752087,10.65057 13.173428,13.31723 10.976548,12.08861 22.047218,28.88501 33.942748,51.49785 9.60173,18.25245 12.14921,22.77561 16.40416,29.12627 8.2662,12.33759 18.23281,23.84035 37.28914,43.03649 27.43754,27.63886 50.56148,48.19978 72.53677,64.49696 12.19836,9.04649 15.20262,10.78462 7.03163,4.0682 -1.47241,-1.21029 -5.80843,-4.86453 -9.6356,-8.12051 -3.82717,-3.25598 -7.5242,-6.33875 -8.21563,-6.85062 -0.69144,-0.51184 -3.03512,-2.42991 -5.20821,-4.26238 -2.17307,-1.83245 -4.96797,-4.18421 -6.21089,-5.22614 -12.12856,-10.16717 -48.28848,-45.29717 -59.72079,-58.01981 -17.84946,-19.86401 -23.87591,-27.77287 -32.29526,-42.38293 -3.90283,-6.77255 -9.04324,-16.80804 -8.7564,-17.09488 0.16115,-0.1611 7.90376,12.21453 12.91731,20.64687 9.66143,16.24964 39.36797,49.68642 67.47003,75.94218 15.40011,14.38833 19.16005,17.66603 34.57892,30.14374 8.14647,6.59254 11.11006,9.01652 14.63823,11.97297 3.90204,3.26974 11.05948,8.85274 11.35906,8.8604 0.10579,0.004 -2.58671,-2.71233 -5.98351,-6.03343 z M 129.78251,204.04859 c -0.70956,-1.30369 -1.18847,-2.37036 -1.06424,-2.37036 0.31685,0 2.72575,4.36932 2.52151,4.57357 -0.0919,0.092 -0.74771,-0.89952 -1.45727,-2.20321 z m 158.84508,148.70737 c -0.27881,-0.52098 -0.61348,-0.94721 -0.74372,-0.94721 -0.13031,0 -0.009,0.42623 0.27013,0.94721 0.2788,0.52095 0.61348,0.94718 0.74371,0.94718 0.13032,0 0.009,-0.42623 -0.27012,-0.94718 z m 46.88619,-1.91107 c 0,-0.91708 -0.0143,-0.91674 -0.95441,0.0238 -1.13075,1.13074 -2.47338,0.93932 -5.67596,-0.80929 -1.76229,-0.96222 -1.92625,-0.99437 -0.94719,-0.18574 0.65119,0.53783 2.24959,1.38388 3.55198,1.88011 2.61896,0.99786 4.02558,0.68025 4.02558,-0.90896 z m -63.53641,-4.34429 c -1.1313,-1.35661 -3.50862,-3.86077 -5.28295,-5.56477 -4.01184,-3.85287 -14.24186,-15.8288 -15.8692,-18.57754 -1.57106,-2.65367 -0.20812,-1.61835 2.29643,1.74442 2.12712,2.85602 11.41723,12.51756 9.84906,10.24286 -0.60576,-0.8787 -2.42225,-3.43613 -4.03659,-5.68318 -5.30957,-7.39042 -8.86908,-12.54986 -11.31227,-16.39693 -1.32416,-2.085 -5.14483,-8.05329 -8.49038,-13.26287 -3.34556,-5.20958 -10.07952,-15.86553 -14.96436,-23.6799 -4.88483,-7.81436 -12.14526,-19.42935 -16.13428,-25.81108 -14.79943,-23.67654 -33.80474,-51.33933 -43.87038,-63.8547 -2.02602,-2.51911 -5.48484,-6.92451 -7.68626,-9.78976 -10.58672,-13.77919 -23.76823,-28.72299 -35.09893,-39.79143 -8.78044,-8.57723 -16.93588,-16.12259 -19.05871,-17.63301 -3.124795,-2.22333 -7.238839,-1.19257 -13.075659,3.27607 -1.432634,1.09683 -3.759505,2.64671 -5.170824,3.4442 -1.411321,0.79749 -2.627014,1.66309 -2.70154,1.92356 -0.07452,0.26048 1.707664,1.85888 3.960421,3.552 14.875392,11.17994 33.101102,28.89727 45.064852,43.80782 5.28482,6.58652 9.81017,13.11612 26.25818,37.88782 13.032,19.62696 22.85069,33.39184 32.26226,45.2286 1.34621,1.6931 5.84061,7.34076 9.98755,12.55035 22.08849,27.7486 45.16946,52.365 70.05006,74.71005 2.53781,2.27919 4.7191,4.14399 4.84731,4.14399 0.12816,0 -0.6925,-1.10997 -1.82379,-2.46657 z M 170.82012,223.59622 c -0.32559,-0.11635 -0.59199,-0.55901 -0.59199,-0.98384 0,-0.70303 0.072,-0.70051 0.8006,0.0281 0.8562,0.8562 0.75906,1.30124 -0.20861,0.95565 z m -4.61758,-10.55164 c -0.40409,-0.78145 -0.56284,-1.42079 -0.35279,-1.42079 0.21006,0 0.62326,0.63934 0.91823,1.42079 0.29495,0.78143 0.4537,1.4208 0.35278,1.4208 -0.10095,0 -0.51411,-0.63937 -0.91822,-1.4208 z m -62.27811,-89.03642 c -0.37564,-0.23214 -0.52575,-0.57931 -0.33359,-0.77146 0.19215,-0.19217 0.59801,-0.10078 0.9019,0.20314 0.71557,0.71556 0.31617,1.11496 -0.56831,0.56832 z m 169.6544,210.41253 c -8.00333,-12.98995 -18.48638,-31.90652 -15.95338,-28.78772 0.42311,0.52095 1.48863,2.36223 2.36782,4.09172 1.54326,3.03584 6.36046,10.60429 17.08183,26.8378 5.11862,7.7502 7.16431,10.39156 4.40526,5.68793 -0.81249,-1.38513 -1.64596,-2.73154 -1.85215,-2.99201 -0.35792,-0.45219 -1.98522,-3.4011 -8.88578,-16.10233 -6.70709,-12.34514 -9.41278,-17.44888 -14.43675,-27.23187 -8.05734,-15.68984 -19.84022,-37.16866 -25.8508,-47.12299 -14.91133,-24.69519 -35.84333,-53.72387 -50.52774,-70.07226 -2.34966,-2.6159 -5.74294,-6.46117 -7.54061,-8.54499 -4.95521,-5.74402 -18.59283,-20.36691 -31.34014,-33.60439 -18.65249,-19.36973 -20.24926,-20.69847 -26.24709,-21.84131 -3.9945,-0.76112 -9.92768,-0.0804 -9.92768,1.13921 0,0.18599 2.182,2.25132 4.8489,4.58962 21.83571,19.14531 36.9086,36.08301 64.0515,71.97596 11.39991,15.07492 29.62037,42.45058 46.65151,70.09249 14.67142,23.81202 25.89987,40.92353 35.38388,53.923 11.20464,15.35789 23.29862,29.87451 24.16609,29.00701 0.13962,-0.13962 -2.73798,-5.10981 -6.39467,-11.04487 z m -21.65508,-39.44368 c -0.65997,-1.30239 -1.09339,-2.368 -0.96315,-2.368 0.13031,0 0.77678,1.06561 1.43676,2.368 0.65996,1.30238 1.09339,2.36799 0.96315,2.36799 -0.13031,0 -0.77678,-1.06561 -1.43676,-2.36799 z m -6.96927,-11.81596 c -1.74928,-2.83743 -5.02935,-8.53239 -7.28907,-12.65544 -2.25972,-4.12305 -5.86203,-10.26701 -8.00514,-13.65324 -2.1431,-3.38622 -6.1455,-9.77978 -8.89423,-14.20793 -2.74872,-4.42814 -7.41211,-11.72974 -10.36308,-16.22578 -16.65552,-25.37603 -16.17074,-24.60652 -13.94531,-22.13565 2.77763,3.084 16.44898,22.5995 21.06759,30.07348 7.61416,12.32142 10.78725,17.62958 13.30598,22.25909 1.48801,2.73503 4.19036,7.31708 6.00519,10.18235 5.00308,7.89882 12.29234,21.60999 11.44887,21.53542 -0.0827,-0.007 -1.58153,-2.33485 -3.3308,-5.1723 z m -52.46872,-83.49561 c -0.69725,-0.95247 -0.81161,-1.28325 -0.3,-0.86775 0.77658,0.63068 1.95084,2.40693 1.59118,2.40693 -0.0904,0 -0.67145,-0.69263 -1.29118,-1.53918 z m -10.50725,-13.29498 c -6.42772,-7.81095 -8.9088,-11.01666 -8.9088,-11.51071 0,-0.66863 2.94311,2.43439 6.57043,6.92737 4.26662,5.28489 8.30125,10.86047 8.0446,11.11711 -0.0993,0.0993 -2.66723,-2.84078 -5.70623,-6.53377 z m -12.02885,-14.65439 c -2.96533,-3.2504 -3.66358,-4.14151 -3.42902,-4.37605 0.13353,-0.13353 1.36646,1.04889 2.7397,2.62774 2.57869,2.96479 3.17205,4.46974 0.68932,1.74831 z m -9.0445,-10.09386 c -3.76396,-4.25823 -4.19375,-5.41008 -0.60732,-1.62768 2.68552,2.8323 4.12933,4.74306 3.58396,4.74306 -0.12261,0 -1.46207,-1.40193 -2.97664,-3.11538 z m -8.36486,-9.16302 c -3.07835,-3.22732 -3.62788,-4.46311 -0.74282,-1.67046 1.86383,1.80414 4.02302,4.4769 3.61666,4.4769 -0.10833,0 -1.40156,-1.26289 -2.87384,-2.80644 z m -6.32537,-7.02071 c -2.7521,-3.16259 -14.4926,-14.76104 -19.32101,-19.08728 -3.5601,-3.18982 -9.66963,-8.15019 -11.01592,-8.94388 -0.68851,-0.4059 -0.71426,-0.5579 -0.15657,-0.92424 0.36709,-0.24114 1.00645,-0.3201 1.42079,-0.17542 1.43243,0.50009 5.93847,4.16589 10.62987,8.64774 4.1317,3.94715 17.96476,18.94662 20.35484,22.07118 1.59999,2.09166 0.48228,1.16331 -1.912,-1.58807 z m 35.65282,192.87273 c 1.7693,-2.60478 3.45939,-4.94909 3.75578,-5.20957 2.41489,-2.12237 8.81504,-11.62577 12.33218,-18.31171 l 2.9124,-5.53636 -3.22981,-3.20506 c -1.77639,-1.76279 -3.31355,-3.11023 -3.41591,-2.99431 -0.75105,0.85069 -8.08052,19.78443 -9.80284,25.32305 -0.56502,1.81697 -2.17772,5.81449 -3.58378,8.88336 -3.55636,7.76215 -3.53891,7.77992 1.03198,1.0506 z m 136.59651,4.81854 c 0,-0.0848 -0.58608,-0.67092 -1.30239,-1.3024 l -1.3024,-1.14815 1.14816,1.30241 c 1.07311,1.21727 1.45663,1.51956 1.45663,1.14814 z m -217.38832,-3.19554 c 3.66167,-1.75229 11.84685,-6.50538 11.84685,-6.87938 0,-0.0856 -3.12929,1.43646 -6.95396,3.38232 -3.82468,1.94589 -8.072214,3.89046 -9.438965,4.32129 -2.319893,0.7313 -2.565861,0.73035 -3.701993,-0.0143 -0.729793,-0.47792 -1.216991,-1.23832 -1.216991,-1.89916 0,-1.27071 1.998985,-4.23646 5.147976,-7.63772 l 2.192361,-2.36798 -2.780207,2.60479 c -5.076151,4.75586 -6.725367,8.5386 -4.441732,10.18779 1.563452,1.1291 4.58767,0.57981 9.346661,-1.69763 z m 89.39561,-3.63578 c 1.81323,-2.80015 4.78554,-7.54205 6.60514,-10.53755 5.73331,-9.4385 5.76872,-10.10071 0.0902,-1.68856 -1.92265,2.84825 -4.29094,6.35404 -5.26282,7.79066 -1.71983,2.54218 -5.10009,8.66676 -5.10009,9.24068 0,0.72096 0.58733,-0.0485 3.6675,-4.80523 z m -16.91221,1.66774 c 0.33714,-0.85214 2.40671,-5.38548 4.59907,-10.07411 4.83358,-10.33722 9.6241,-21.58565 11.06055,-25.97088 l 1.06073,-3.23819 -1.64915,-1.4978 c -3.35647,-3.04843 -2.92396,-3.17264 -5.41697,1.55562 -1.2414,2.35446 -2.31975,4.21818 -2.39631,4.14161 -0.0766,-0.0766 0.0517,-0.8743 0.28518,-1.77272 0.23343,-0.89843 0.65273,-2.51071 0.93181,-3.58285 0.27907,-1.07213 0.50742,-2.66292 0.50742,-3.53506 0,-1.3806 -0.0872,-1.49603 -0.67398,-0.89225 -0.66018,0.67929 -5.01025,15.93601 -6.67938,23.42617 -0.46438,2.08383 -1.4525,5.90042 -2.19582,8.48132 -2.48695,8.63488 -1.03314,5.17246 2.90765,-6.92494 2.14563,-6.58654 3.98993,-12.27243 4.09848,-12.63532 0.10847,-0.36288 0.28704,-0.5701 0.39664,-0.46048 0.10954,0.10954 -0.0924,1.47211 -0.44875,3.02776 -0.35644,1.55567 -1.28689,5.59903 -2.06767,8.98525 -0.78079,3.38624 -1.78729,7.75518 -2.23669,9.70876 -0.44939,1.9536 -1.42272,5.57662 -2.16295,8.05117 -0.74024,2.47455 -1.34832,4.67159 -1.35129,4.88232 -0.0107,0.80839 0.84564,-0.19469 1.43143,-1.67538 z m -71.7661,-11.7317 c 1.2828,-1.30239 2.22582,-2.368 2.09558,-2.368 -0.13024,0 -1.28637,1.06561 -2.56918,2.368 -1.28281,1.30238 -2.225825,2.36799 -2.095587,2.36799 0.130239,0 1.286377,-1.06561 2.569187,-2.36799 z m 95.13336,-3.90718 c 1.63858,-2.15121 4.16667,-7.06353 3.81303,-7.40907 -0.62265,-0.60838 -5.88443,6.91525 -5.88443,8.41391 0,0.98067 0.88665,0.55056 2.0714,-1.00484 z m -68.7904,-2.84159 c 2.60378,-1.88848 5.84032,-4.24314 7.19231,-5.23258 4.53545,-3.31923 10.05544,-6.8054 11.25065,-7.10538 0.65156,-0.16361 2.70291,-1.477 4.55855,-2.91885 1.85564,-1.44182 3.52913,-2.62151 3.71888,-2.62151 0.48948,0 -6.44371,5.41962 -7.94514,6.21067 -2.22478,1.17213 -11.96547,9.34002 -11.58832,9.71717 0.1555,0.15555 8.43245,-5.23253 12.84026,-8.35858 16.0749,-11.40043 22.65534,-16.04358 24.4503,-17.25208 1.18183,-0.7957 2.93123,-2.07906 3.88756,-2.85192 1.6076,-1.29914 1.68235,-1.46756 0.99059,-2.23194 -0.662,-0.73149 -0.92332,-0.75361 -2.26757,-0.19193 -0.83565,0.34915 -3.58035,2.04197 -6.09934,3.76181 -2.51898,1.71985 -4.57998,2.99404 -4.57998,2.83153 0,-0.45654 8.16617,-8.46229 9.23516,-9.05376 0.84263,-0.46621 0.86877,-0.60327 0.2368,-1.24167 -0.63403,-0.64045 -0.93951,-0.56801 -2.84158,0.67384 -3.73558,2.4389 -6.81287,4.79919 -15.2281,11.67994 -4.51825,3.69436 -11.19867,9.08894 -14.84537,11.98793 -5.68684,4.52084 -9.6064,7.8207 -17.00275,14.31462 -2.71148,2.38065 -0.73632,1.34476 4.03709,-2.11731 z m 28.35759,-19.00432 c 0,-0.0985 0.37296,-0.47132 0.8288,-0.82881 0.75115,-0.58908 0.7679,-0.57233 0.17882,0.17882 -0.6187,0.78889 -1.00761,1.03978 -1.00761,0.64999 z m 5.20957,-4.26238 c 0,-0.0985 0.37296,-0.47132 0.8288,-0.82881 0.75116,-0.58908 0.7679,-0.57233 0.17882,0.17882 -0.61869,0.78889 -1.0076,1.03977 -1.0076,0.64999 z m 148.19898,14.79288 c -5.07446,-10.12915 -10.91066,-22.50945 -14.25677,-30.24281 -3.46989,-8.01947 -15.08036,-37.45091 -15.04821,-38.14581 0.0591,-1.27563 4.73039,9.54213 12.99559,30.09464 4.69777,11.68165 8.47813,19.89811 13.7218,29.82374 6.22997,11.79258 8.33031,15.64166 8.53526,15.64166 0.0902,0 -1.42806,-3.43402 -3.37389,-7.63114 -1.94583,-4.19713 -4.35039,-9.68493 -5.3435,-12.19514 -0.99312,-2.51021 -2.9937,-7.44111 -4.44579,-10.95757 -1.45206,-3.51647 -7.90086,-19.60696 -14.33067,-35.75664 -17.81293,-44.74055 -28.72092,-69.19757 -39.49961,-88.56281 -2.17473,-3.9072 -4.58894,-8.27613 -5.36491,-9.70876 -6.01884,-11.11219 -25.92917,-42.84692 -32.53628,-51.85898 -0.95484,-1.30239 -3.73883,-5.138525 -6.18666,-8.524766 -4.09485,-5.664667 -10.12011,-13.517884 -16.1103,-20.99789 -1.3219,-1.650645 -2.52281,-2.881809 -2.6687,-2.735908 -0.30875,0.308736 -0.41189,0.159845 5.91419,8.541839 2.67467,3.543956 5.87146,8.044261 7.10397,10.000669 1.23251,1.956427 3.34865,5.203533 4.70254,7.215807 6.95697,10.340069 14.39704,21.524219 16.13869,24.260179 4.10504,6.4486 12.3684,20.23441 13.58395,22.66218 3.09584,6.18318 -0.94754,0.14087 -12.31253,-18.3998 -6.43829,-10.50328 -15.02697,-23.787893 -19.2898,-29.83667 -3.90858,-5.546117 -15.86444,-20.77554 -17.66039,-22.495904 -0.54387,-0.520955 -1.12812,-1.325388 -1.29834,-1.787613 -0.21128,-0.573706 -0.65102,-0.770245 -1.38552,-0.619296 -0.59178,0.121539 -1.86771,0.34824 -2.83536,0.503574 -0.96766,0.15537 -1.86653,0.455817 -1.9975,0.667715 -0.13103,0.211915 2.57883,4.665591 6.02176,9.897083 7.92602,12.043444 10.02622,15.355151 14.93057,23.543201 19.35734,32.3179 25.8921,44.60724 43.18925,81.22205 4.36835,9.247 10.76051,22.67348 14.20479,29.83667 3.44427,7.16316 7.70878,16.11947 9.47669,19.90289 6.10421,13.0634 19.28776,39.55246 22.62218,45.4536 9.52937,16.86474 18.39394,30.43144 24.67481,37.76333 1.1686,1.36414 2.20561,2.39939 2.30447,2.30053 0.0988,-0.0988 -1.78024,-4.0921 -4.17578,-8.87385 z m -32.67096,-76.98269 c -0.31731,-0.96145 -1.84142,-4.42464 -3.38694,-7.69597 -2.7131,-5.7428 -4.40298,-9.64135 -7.75707,-17.8957 -0.87086,-2.14317 -3.51903,-7.85726 -5.8848,-12.69798 -5.49831,-11.25031 -9.93876,-20.94333 -9.92803,-21.67175 0.0251,-1.70112 10.23111,18.61245 13.39627,26.66324 0.66566,1.69312 2.95056,7.02109 5.07757,11.83994 3.9967,9.0547 8.66445,20.27399 9.21158,22.1407 0.5222,1.78171 -0.11116,1.18846 -0.72858,-0.68248 z M 244.03416,162.924 c -3.5879,-6.40423 -7.02874,-13.05923 -7.02874,-13.59447 0,-0.15215 0.19715,-0.15466 0.43812,-0.005 0.55468,0.3428 8.1782,13.9415 9.5165,16.97536 2.00817,4.55238 0.61519,2.94556 -2.92588,-3.37509 z m 48.53675,150.84461 c -38.59755,-48.07413 -66.65799,-92.31495 -91.80461,-144.74152 -13.46277,-28.06765 -23.47846,-47.59213 -31.71371,-61.82232 -2.41487,-4.17279 -4.97765,-8.759048 -5.69507,-10.191691 -0.71741,-1.432626 -3.22282,-6.088175 -5.56756,-10.345669 l -4.26319,-7.740878 -1.14267,1.142667 -1.14267,1.142667 1.61999,4.940621 c 2.47659,7.55302 3.43777,9.68805 6.46607,14.362773 1.53641,2.37172 3.3605,5.59092 4.05355,7.15378 0.69302,1.56286 3.60701,7.6226 6.47549,13.46606 5.62019,11.44907 9.34571,19.75664 12.22616,27.26335 4.49192,11.70632 13.95313,31.58094 22.15059,46.53052 3.10674,5.66568 6.62422,12.11275 7.81663,14.32682 1.19241,2.21408 4.83303,7.96828 8.09025,12.78715 3.25724,4.81884 8.65081,12.97906 11.98575,18.13378 3.33493,5.15472 9.04717,13.18101 12.69387,17.83618 3.64672,4.6552 10.01574,12.87588 14.1534,18.26822 4.13765,5.39232 10.93851,13.77621 15.113,18.63084 8.06783,9.38229 21.16169,23.43931 21.50939,23.09161 0.11456,-0.11456 -1.24654,-2.0203 -3.02466,-4.23496 z m 10.20356,1.9283 c -0.80808,-1.51605 -6.45202,-8.99366 -9.74082,-12.90553 -2.79299,-3.32212 -7.57564,-10.61522 -10.75842,-16.40558 -3.21709,-5.85277 -1.67692,-4.54624 2.86976,2.43444 1.44208,2.21406 3.49078,5.30429 4.55267,6.86717 1.06188,1.56287 2.74485,4.05288 3.73994,5.53337 0.99508,1.48051 2.06677,2.85097 2.38154,3.04551 0.31477,0.19455 0.13103,-0.27085 -0.40824,-1.0342 -1.66758,-2.36037 -9.29819,-15.79414 -12.08687,-21.27902 -2.49179,-4.90096 -14.81687,-30.53354 -22.77231,-47.35979 -1.97048,-4.16767 -7.67375,-16.20889 -12.67396,-26.75828 -5.00021,-10.54939 -10.25367,-21.73814 -11.67433,-24.86388 -12.24663,-26.9449 -32.40697,-63.93759 -49.16849,-90.220422 -8.70233,-13.645634 -12.3873,-19.116267 -13.70905,-20.352085 l -1.25282,-1.17136 -2.22487,0.841897 c -1.22366,0.463049 -4.46261,1.585006 -7.19764,2.49324 -2.73503,0.908234 -5.23598,1.913378 -5.55767,2.233676 -0.60961,0.606927 -0.89461,0.04099 9.34602,18.559423 13.77466,24.909171 16.94546,30.784411 23.00355,42.623821 3.73194,7.2934 9.86644,19.80288 13.63219,27.79885 19.42577,41.24743 45.50272,84.51015 69.88263,115.93811 2.12166,2.73503 5.0086,6.49552 6.4154,8.35667 4.118,5.44795 23.01408,26.59697 23.83471,26.67648 0.0743,0.007 -0.12046,-0.46643 -0.43292,-1.05251 z M 229.90146,206.44215 c 0,-0.53633 0.21311,-0.97515 0.47359,-0.97515 0.26047,0 0.47361,0.30711 0.47361,0.68245 0,0.37536 -0.21314,0.81417 -0.47361,0.97514 -0.26048,0.16092 -0.47359,-0.14606 -0.47359,-0.68244 z m -25.58482,107.12358 c 0.005,-0.32561 -0.20787,-0.592 -0.47479,-0.592 -0.49464,0 -1.41762,1.97383 -1.39854,2.99082 0.0143,0.736 1.8596,-1.62757 1.87333,-2.39882 z m 78.50579,-5.44638 c -1.14931,-1.36752 -3.3341,-3.97822 -4.85513,-5.80158 -1.52104,-1.82334 -4.60994,-5.44638 -6.86426,-8.05115 -4.7279,-5.46294 -14.05002,-17.04344 -21.4931,-26.70006 -2.83549,-3.67872 -5.24351,-6.6886 -5.35116,-6.6886 -0.36325,0 3.31191,6.36789 5.65581,9.79974 3.39353,4.96865 15.28928,19.14469 24.9554,29.73904 3.4502,3.78153 9.64615,10.189 9.85264,10.189 0.10418,0 -0.75091,-1.11888 -1.9002,-2.48639 z m -152.61332,0.592 c 0.47146,-0.52095 0.75064,-0.9472 0.6204,-0.9472 -0.13024,0 -0.62254,0.42625 -1.094,0.9472 -0.47146,0.52096 -0.75064,0.94719 -0.6204,0.94719 0.13024,0 0.62254,-0.42623 1.094,-0.94719 z m 6.15677,-4.81713 c 1.56287,-1.34241 5.71869,-4.57129 9.23516,-7.17532 12.28248,-9.09547 23.61065,-17.87116 23.64571,-18.31783 0.0107,-0.13031 -1.24983,-1.62205 -2.80013,-3.31518 l -2.81873,-3.07838 -1.78799,2.13118 c -0.98339,1.17217 -4.34681,4.87194 -7.47424,8.22174 -3.12743,3.34978 -6.845,7.61216 -8.26127,9.47195 -1.41627,1.85978 -4.98601,5.75985 -7.93276,8.66683 -2.94676,2.90697 -5.35773,5.41112 -5.35773,5.56477 0,0.66184 0.88404,0.12172 3.55198,-2.16976 z m -11.8072,-3.3194 c 2.56401,-2.9122 6.26955,-7.47242 8.23452,-10.13381 1.96498,-2.66137 6.23667,-8.40163 9.49265,-12.75611 3.25599,-4.35449 7.09213,-9.51963 8.52477,-11.47808 1.43263,-1.95844 2.81036,-3.84186 3.06163,-4.18534 0.66023,-0.9025 -0.11744,-1.45174 -0.81694,-0.57696 -0.55128,0.68943 -8.14597,10.76914 -11.74425,15.58706 -3.42026,4.57955 -17.33387,22.94021 -18.91632,24.96233 -2.49697,3.19074 -2.97909,3.87585 -2.72751,3.87585 0.12628,0 2.32743,-2.38272 4.89145,-5.29494 z m 22.5406,-21.26113 c 2.17147,-2.64782 5.4701,-6.76552 7.33029,-9.15043 l 3.38215,-4.33621 -0.89941,-1.1107 -0.8994,-1.11072 -2.24595,2.0569 c -2.70396,2.47638 -5.27389,5.81074 -10.57176,13.71637 -6.92046,10.32688 -8.01378,12.03928 -7.99524,12.52234 0.0269,0.701 7.3833,-7.08086 11.89932,-12.58755 z m 11.35853,-6.20099 c 1.65482,-1.8667 2.77214,-3.30525 2.48295,-3.19678 -0.55443,0.20793 -6.08369,6.59077 -5.7094,6.59077 0.11974,0 1.57163,-1.5273 3.22645,-3.39399 z m 126.19893,-66.35903 c 6.86759,-7.11922 12.34216,-13.21369 17.48769,-19.46796 6.10932,-7.42571 11.28276,-13.67255 15.14369,-18.28573 5.97539,-7.13962 11.76125,-14.31873 15.84002,-19.65432 2.19034,-2.86527 5.39089,-7.0211 7.11236,-9.23515 1.72146,-2.21408 4.95278,-6.3699 7.18071,-9.23517 8.37422,-10.76987 11.76569,-16.43768 11.76059,-19.65432 -0.005,-3.03894 -0.71653,-3.09357 -1.79427,-0.13765 -1.812,4.96956 -3.53132,7.48756 -15.48019,22.67109 -3.12572,3.97192 -7.81435,10.03667 -10.41914,13.47722 -5.06517,6.69037 -8.74592,11.05956 -25.32044,30.05635 -2.27264,2.60478 -5.16182,6.01468 -6.42037,7.57756 -3.21287,3.98973 -15.08648,16.88519 -19.1286,20.77479 l -3.37916,3.25169 0.57955,1.60269 c 0.31874,0.88149 0.82775,1.60271 1.13112,1.60271 0.30336,0 2.87126,-2.40467 5.70644,-5.34371 z m -6.36723,-3.29946 c 15.12082,-12.174 27.06725,-24.98508 45.85792,-49.1769 2.47455,-3.18584 5.05456,-6.45122 5.73333,-7.25642 2.65801,-3.15306 9.96269,-13.01263 17.19127,-23.20408 2.00297,-2.82396 6.65079,-10.67979 8.55095,-14.45302 l 1.64295,-3.26246 -2.10394,-1.93934 c -1.15716,-1.06663 -2.56791,-1.93933 -3.13503,-1.93933 -1.35811,0 -3.39145,2.19525 -9.45036,10.20287 -2.75071,3.63542 -5.83808,7.69382 -6.86086,9.01865 -1.02275,1.32483 -2.49499,3.2429 -3.27164,4.26238 -0.77666,1.01948 -4.42624,5.58317 -8.11017,10.14156 -6.83128,8.45283 -9.60113,11.57138 -31.20716,35.13612 -20.11137,21.93458 -21.79774,23.9541 -21.38283,25.6072 0.5397,2.15035 3.60258,8.40197 4.11641,8.40197 0.28457,0 1.37769,-0.69263 2.42916,-1.5392 z m -78.12953,-12.27068 c -7.01495,-12.8056 -8.01611,-14.95799 -17.14751,-36.86511 -5.06454,-12.15035 -9.04883,-21.27873 -13.12621,-30.07346 -1.44915,-3.12575 -3.52948,-7.71421 -4.62296,-10.19659 -1.09346,-2.48237 -3.2635,-6.6382 -4.82232,-9.23515 -1.5588,-2.59697 -3.22659,-5.750976 -3.70618,-7.008918 -0.47959,-1.257924 -1.42818,-3.069451 -2.10796,-4.025567 -1.0726,-1.508628 -3.44459,-6.393223 -4.52392,-9.315986 -0.19238,-0.520972 -0.44228,-0.701814 -0.55534,-0.401903 -0.38569,1.02315 2.78677,8.308605 8.80794,20.227164 6.11268,12.09968 10.00306,20.87701 17.34699,39.13767 12.11571,30.12558 15.54348,38.01914 18.23345,41.98843 3.38279,4.99162 10.05366,13.91796 10.25256,13.71904 0.11599,-0.11599 -1.6969,-3.69327 -4.02854,-7.94962 z m 73.94893,-5.76052 c 0.20268,0.20268 5.45995,-5.37038 15.93919,-16.89664 3.19704,-3.51647 7.65576,-8.31164 9.90827,-10.65595 12.90578,-13.43175 22.64588,-24.96412 37.04159,-43.85751 2.70016,-3.54379 6.2414,-8.08654 7.86938,-10.09498 1.628,-2.00844 2.95999,-3.79913 2.95999,-3.979332 0,-0.812094 -4.76151,-3.080459 -7.78987,-3.71105 -1.83682,-0.382482 -4.36027,-1.028807 -5.60767,-1.436277 -1.2474,-0.407453 -2.34013,-0.660323 -2.42828,-0.56191 -0.0883,0.09845 -4.18242,4.780257 -9.09836,10.404079 -9.40185,10.75571 -16.3678,18.47552 -29.0211,32.16187 -21.56938,23.33033 -30.58724,33.59781 -32.26946,36.74106 -0.49846,0.93138 -0.24249,1.69102 2.08752,6.19534 1.4606,2.82358 3.20341,6.4125 3.87292,7.97538 l 1.21727,2.84159 2.55961,-2.66254 c 1.40779,-1.46438 2.64933,-2.57278 2.759,-2.46313 z m -7.74041,-3.58581 c 0,-0.77643 2.80795,-3.44194 3.30335,-3.13578 0.64707,0.39991 -0.13568,1.85636 -1.51801,2.82461 -1.18418,0.82943 -1.78534,0.93421 -1.78534,0.31117 z m 20.12791,-22.30919 c 0.16092,-0.26048 0.38667,-0.47359 0.50153,-0.47359 0.11492,0 0.20886,0.21311 0.20886,0.47359 0,0.26047 -0.2257,0.47359 -0.50156,0.47359 -0.27585,0 -0.36982,-0.21312 -0.20883,-0.47359 z m 21.5487,-23.20629 c 0,-0.26048 0.21311,-0.4736 0.47359,-0.4736 0.26048,0 0.47359,0.21312 0.47359,0.4736 0,0.26047 -0.21311,0.47359 -0.47359,0.47359 -0.26048,0 -0.47359,-0.21312 -0.47359,-0.47359 z m -33.89639,16.33911 c 38.8593,-41.49305 54.78224,-59.231105 53.93269,-60.080663 -1.49369,-1.493682 -6.94067,2.574791 -14.08382,10.519533 -2.96216,3.29457 -10.68142,11.1784 -17.15387,17.51964 -6.47246,6.34122 -13.68619,13.41425 -16.03049,15.71782 -2.34431,2.30358 -4.84845,4.40936 -5.56478,4.6795 -0.71632,0.27016 -1.30239,0.42774 -1.30239,0.35019 0,-0.0775 4.42223,-4.2809 9.82715,-9.34079 11.29164,-10.57076 9.69449,-8.98681 22.66826,-22.48109 5.49974,-5.72039 11.05872,-11.679415 12.35331,-13.242279 1.29456,-1.562882 2.92195,-3.144004 3.61641,-3.513616 0.69446,-0.369612 1.26265,-0.861176 1.26265,-1.092369 0,-1.188652 -3.72659,2.10929 -10.55613,9.341954 -4.18134,4.42815 -8.57832,9.06844 -9.77109,10.31175 -3.0972,3.22844 -20.71508,19.79138 -26.32218,24.74604 -14.23981,12.58287 -24.30648,22.25245 -23.74784,22.81106 0.29754,0.29757 1.74796,-0.82976 6.51365,-5.06268 2.79129,-2.47924 3.24437,-2.75576 2.32784,-1.42079 -0.6259,0.91167 -2.70705,3.21762 -4.62479,5.12433 l -3.48682,3.46673 0.96012,1.50605 c 0.52808,0.82831 1.54239,2.62484 2.25401,3.99228 l 1.29389,2.48624 1.82937,-1.77583 c 1.00616,-0.97673 7.21835,-7.53006 13.80485,-14.56301 z m -7.54342,-4.91695 c 1.95195,-2.15089 7.30945,-6.73386 6.14747,-5.25874 -0.99288,1.26045 -5.02804,5.00635 -6.62108,6.14646 -0.52096,0.37283 -0.30784,-0.0267 0.47361,-0.88772 z m -9.12579,-1.60601 c 5.39392,-5.20931 7.2082,-7.27494 7.99772,-9.10577 0.56166,-1.30238 2.17117,-4.3302 3.57672,-6.72849 1.40552,-2.39828 2.8986,-5.16882 3.31792,-6.15676 1.43889,-3.39015 1.10862,-0.82226 -0.50156,3.89964 -0.88585,2.59778 -1.76305,5.09619 -1.94932,5.55203 -0.50223,1.2291 0.25302,0.98171 2.26579,-0.74214 2.18449,-1.87094 3.59146,-5.77143 6.7792,-18.79378 1.17961,-4.81885 3.33077,-12.81082 4.78034,-17.759909 3.77046,-12.872973 4.42404,-15.685222 4.51828,-19.441166 0.0705,-2.810477 -0.10024,-3.634887 -1.07902,-5.209582 l -1.16278,-1.870741 -0.29161,5.209583 c -0.33888,6.054148 -0.93939,8.719566 -4.45493,19.772831 -1.42152,4.469481 -3.02047,10.160654 -3.55321,12.647064 -1.20057,5.60323 -3.36682,13.37674 -3.64906,13.0945 -0.20051,-0.20052 0.35599,-2.65071 5.28199,-23.255305 3.75207,-15.69428 4.83222,-22.325999 4.25894,-26.148762 -0.25369,-1.691832 -0.61489,-2.298902 -1.79642,-3.019368 -1.69031,-1.030722 -4.47054,-1.184803 -5.65323,-0.313335 -1.08825,0.801909 -3.61328,9.40262 -10.53231,35.87505 -2.77398,10.61336 -4.62258,16.58917 -10.40189,33.62546 -2.99948,8.84184 -4.96491,14.96898 -4.96491,15.47789 0,0.33311 0.49274,-0.11832 7.21335,-6.60894 z m -9.48155,-3.98022 c 1.60702,-4.69098 1.70015,-4.86068 2.21239,-4.03185 0.70994,1.1487 9.31992,-25.0174 14.69697,-44.664696 1.35448,-4.949106 3.51604,-12.534041 4.80351,-16.85542 1.28746,-4.321379 2.34084,-8.283151 2.34084,-8.803945 0,-1.299057 -1.88747,-2.091122 -6.15678,-2.583669 -1.95358,-0.225394 -4.35412,-0.539983 -5.33449,-0.699094 -2.93472,-0.476294 -3.1455,-0.0954 -6.45068,11.655807 -2.45266,8.72021 -4.93554,16.347532 -8.24796,25.337477 -6.02715,16.35777 -7.99086,21.97147 -8.83351,25.25259 l -0.89043,3.46707 5.01303,8.25338 c 2.75715,4.53934 5.10361,8.16275 5.21434,8.05201 0.1108,-0.1108 0.84548,-2.08158 1.63277,-4.37966 z m 20.72346,-7.46565 c -0.009,-0.2758 -0.32796,-0.0877 -0.7104,0.41783 -0.38243,0.50563 -0.68855,1.14499 -0.68026,1.42079 0.009,0.27582 0.32795,0.0877 0.71038,-0.41783 0.38243,-0.50561 0.68857,-1.14498 0.68028,-1.42079 z M 69.447527,126.7324 c -0.218091,-2.26973 -0.170961,-2.42906 0.543118,-1.83641 0.430062,0.35692 0.78193,0.96863 0.78193,1.35934 0,0.52833 0.15741,0.57976 0.61423,0.20064 0.337828,-0.28038 2.522297,-1.49678 4.854378,-2.70312 2.332082,-1.20633 5.412001,-3.08096 6.844267,-4.16581 3.863592,-2.92641 6.488179,-4.5484 10.183023,-6.29303 2.831148,-1.33681 3.107741,-1.56838 1.894393,-1.586 -0.781438,-0.0107 -3.551985,-0.66427 -6.156774,-1.45095 -2.604788,-0.78666 -4.096621,-1.32027 -3.315185,-1.18577 0.781437,0.13443 3.551984,0.60698 6.156772,1.05 2.60479,0.44302 4.807019,0.97824 4.893846,1.1894 0.214705,0.52216 2.32658,0.4882 2.654687,-0.0428 0.145023,-0.23464 -0.854721,-0.68774 -2.22164,-1.00688 -8.20499,-1.91563 -19.1787,-6.33734 -29.243585,-11.783303 -11.131848,-6.02327 -14.674737,-7.81987 -19.180715,-9.726517 -2.344308,-0.991951 -6.687333,-2.850358 -9.651163,-4.129779 -2.963831,-1.279422 -5.476016,-2.238992 -5.582634,-2.132381 -0.106611,0.106682 2.424895,1.636396 5.625582,3.399505 7.898929,4.351146 14.247737,8.643491 17.65938,11.939285 1.562873,1.50981 4.386701,3.97783 6.275172,5.48449 2.229255,1.77854 3.433585,3.07561 3.433585,3.698 0,0.52724 0.524312,1.64603 1.165138,2.48619 1.50756,1.97651 3.385966,6.2008 3.788489,8.5198 0.446871,2.57451 -0.432084,1.81513 -1.430859,-1.23619 -1.199037,-3.66314 -3.875748,-8.91981 -5.328448,-10.46433 -0.699988,-0.74422 -3.542582,-3.14694 -6.316873,-5.33936 -2.774293,-2.192412 -5.356288,-4.460599 -5.737765,-5.040426 -0.38148,-0.579809 -1.62807,-1.543478 -2.7702,-2.141492 l -2.076598,-1.087267 1.420794,1.07685 c 2.547544,1.930829 10.663118,10.502415 12.618117,13.327105 2.902023,4.19304 4.558118,8.1687 5.36164,12.87127 1.168487,6.83856 1.716628,9.23517 2.112208,9.23517 0.203774,0 0.263035,-1.11841 0.131688,-2.48534 z m 2.319451,-3.31624 c 0.02596,-0.3256 0.209179,-1.12478 0.407141,-1.77598 l 0.359932,-1.184 0.543444,1.34213 c 0.298894,0.73818 0.42278,1.53737 0.275306,1.77599 -0.400196,0.64755 -1.640209,0.52388 -1.585823,-0.15805 z m 164.776252,-7.2445 c 1.34752,-3.37405 3.15353,-8.05271 4.01338,-10.39702 0.85983,-2.3443 2.57018,-6.92637 3.80075,-10.182355 5.41786,-14.335312 9.86724,-30.305355 8.75751,-31.433165 -0.50266,-0.51086 -3.89864,2.894517 -5.80874,5.824833 -1.3802,2.117381 -1.40522,2.131289 -1.13247,0.628837 0.15341,-0.84503 0.69792,-2.403634 1.21001,-3.463569 0.56259,-1.164415 0.70808,-1.853842 0.36761,-1.741951 -1.00704,0.330949 -2.63798,3.778622 -4.64554,9.820311 -2.21025,6.65166 -6.33906,17.173015 -9.66421,24.627085 -3.90931,8.763584 -6.40645,15.319804 -5.99263,15.733604 0.22133,0.22133 1.11364,-1.15027 1.98288,-3.04801 0.86927,-1.89773 2.83835,-6.10953 4.37576,-9.35953 1.53739,-3.250008 3.60059,-7.832061 4.5849,-10.182353 3.75521,-8.966636 3.42023,-8.273736 3.13518,-6.484905 -0.13819,0.867422 -2.26042,6.621641 -4.71598,12.787143 -4.38422,11.008065 -6.91018,18.109495 -6.91018,19.427185 0,0.36623 0.67154,1.83961 1.4923,3.27415 1.48154,2.58947 1.49665,2.59998 2.09588,1.45631 0.33197,-0.6336 1.70608,-3.91257 3.05359,-7.2866 z m 6.65635,-36.010761 c 0.0227,-0.551724 0.13497,-0.663938 0.28613,-0.286145 0.13676,0.341885 0.11993,0.750358 -0.0374,0.907732 -0.15734,0.157339 -0.2693,-0.122434 -0.24873,-0.621587 z m 0.94099,-3.038932 c 0.001,-0.390716 0.3234,-1.243192 0.71576,-1.894386 l 0.71336,-1.183997 -0.31384,1.183997 c -0.17255,0.651194 -0.49469,1.50367 -0.71575,1.894386 -0.35725,0.631468 -0.40164,0.631468 -0.39953,0 z m 118.80678,16.673271 c 0.0562,-10.097417 1.96438,-15.692704 8.75401,-25.67048 1.99621,-2.933556 3.54046,-5.422769 3.43169,-5.531546 -0.10883,-0.10883 -1.21973,0.9312 -2.46876,2.311111 -3.90437,4.313484 0.31432,-1.285418 5.1694,-6.860658 3.02844,-3.477637 3.33378,-4.622416 0.59044,-2.213735 -1.25678,1.103467 -1.70733,1.299004 -1.70733,0.740961 0,-1.179004 3.21659,-4.452638 5.01349,-5.102417 0.88928,-0.321569 1.61689,-0.767542 1.61689,-0.991074 0,-0.223515 -0.15985,-0.323109 -0.35521,-0.221295 -0.19536,0.10185 -1.20768,0.568998 -2.24959,1.038186 -2.87788,1.295961 -7.5238,5.223975 -16.7475,14.159554 -4.60779,4.463879 -9.86463,9.106594 -11.68187,10.317137 -1.81723,1.210543 -6.18062,3.409315 -9.69644,4.886135 -12.61991,5.301068 -14.63612,6.410406 -11.65078,6.410406 0.53753,0 2.22083,0.767524 3.74064,1.705615 1.59711,0.985793 4.03071,1.970781 5.76637,2.333932 1.6517,0.345591 3.82232,1.143741 4.82361,1.77367 1.00128,0.629946 2.67299,1.420614 3.7149,1.757058 4.2512,1.372751 8.14103,3.74259 10.6935,6.514892 l 2.56726,2.78833 0.32008,-1.92478 c 0.17613,-1.05863 0.33589,-4.758078 0.3552,-8.221002 z m -1.68322,6.940172 c -0.64638,-0.832898 -2.0772,-4.516132 -2.04768,-5.271108 0.0125,-0.320316 0.66396,0.660125 1.44761,2.178777 1.34207,2.600831 1.71664,4.531131 0.60007,3.092331 z m -10.79309,-7.091496 c -0.70004,-0.550668 -1.17482,-1.099171 -1.05507,-1.21892 0.33512,-0.33512 3.14734,1.236283 3.14734,1.758669 0,0.728413 -0.71431,0.544135 -2.09227,-0.539749 z m 8.24903,-5.792471 c 0,-4.088718 1.30296,-7.722996 4.07188,-11.357436 2.52837,-3.318723 3.34231,-3.860155 1.43518,-0.954683 -1.75366,2.671647 -3.94017,8.463724 -4.57536,12.120198 -0.30542,1.75824 -0.64,3.19679 -0.74352,3.19679 -0.10346,0 -0.18818,-1.352184 -0.18818,-3.004869 z m -25.57428,-1.516056 -1.18398,-0.698574 1.62111,0.123329 c 0.89162,0.06784 1.70856,0.38975 1.81546,0.715346 0.25867,0.787984 -0.79015,0.722739 -2.25259,-0.140155 z m 2.84158,0.355793 c 0,-0.793604 3.29997,-1.722709 3.91923,-1.103448 0.70546,0.705465 0.39759,0.910578 -1.92421,1.281837 -1.28042,0.204756 -1.99502,0.140872 -1.99502,-0.17846 z m 23.18326,-8.030012 c 0.77196,-1.32222 2.8597,-3.709136 2.86228,-3.272453 0.004,0.583156 -2.53826,4.079284 -2.9743,4.091134 -0.20452,0.0054 -0.15412,-0.362846 0.11205,-0.818681 z M 148.63029,75.895243 c 0.15895,-0.414219 0.18635,-0.919243 0.0609,-1.122262 -0.25718,-0.416134 1.59385,-6.175776 1.98477,-6.175776 0.13858,0 0.15476,1.172166 0.036,2.604791 -0.1188,1.432644 -0.17203,2.604792 -0.1183,2.604792 0.0537,0 1.03725,-0.525126 2.18557,-1.166922 1.14833,-0.641814 3.56224,-1.50886 5.36425,-1.926784 1.80203,-0.417906 5.205,-1.678156 7.56215,-2.800525 2.35717,-1.122387 6.20383,-2.51728 8.54814,-3.099756 2.34431,-0.582494 4.44581,-1.168604 4.66999,-1.302476 0.22419,-0.13389 -1.05451,-0.869696 -2.84159,-1.635197 -9.74495,-4.174297 -11.64723,-5.10938 -15.41804,-7.57885 -5.16003,-3.379224 -8.7854,-6.988712 -13.83136,-13.770717 -4.40506,-5.920579 -10.11901,-12.308683 -10.69263,-11.95416 -0.20529,0.126909 -0.93111,-0.208121 -1.61293,-0.744433 -1.5362,-1.208377 -1.6127,-0.485281 -0.13825,1.306879 1.82482,2.218032 3.95612,5.529971 4.33326,6.733694 0.31333,1.000042 0.17771,0.944625 -1.1589,-0.473592 l -1.51375,-1.606181 1.38146,2.131182 c 0.75981,1.172166 2.10184,3.456319 2.98229,5.075889 0.88045,1.619589 1.86421,3.004851 2.18614,3.078383 0.82077,0.187483 6.07498,7.654727 7.59196,10.789656 1.40557,2.904648 2.11205,9.115794 1.14668,10.081164 -0.3875,0.387494 -0.52869,-0.03168 -0.5322,-1.580084 -0.009,-4.070871 -5.19237,-16.274536 -7.8483,-18.478766 -0.95085,-0.789129 -0.87655,-0.471749 1.03444,4.418717 3.20783,8.209225 3.6432,10.5728 3.57566,19.411703 -0.0549,7.187739 0.25528,9.283604 1.06265,7.179631 z m 22.10504,-12.663439 c -0.91913,-0.919135 -0.53053,-1.205531 1.02886,-0.758305 0.84483,0.242291 2.12355,0.440531 2.84159,0.440531 0.71803,0 1.30551,0.209284 1.30551,0.465089 0,0.624022 -4.53366,0.494983 -5.17596,-0.147315 z M 151.56311,52.932137 c -0.67435,-0.801408 -1.22609,-1.699117 -1.22609,-1.994892 0,-0.569982 2.7895,2.490823 2.82234,3.096838 0.0348,0.64287 -0.35389,0.374534 -1.59625,-1.101946 z m -1.50789,-3.870841 -0.9022,-1.065591 1.0656,0.902202 c 1.00139,0.84784 1.28119,1.22898 0.9022,1.22898 -0.0899,0 -0.56939,-0.479517 -1.0656,-1.065591 z m 134.59783,12.313551 c -0.61655,-1.367524 -1.99979,-4.297912 -3.07387,-6.511969 -2.77312,-5.716469 -3.53728,-9.770533 -3.16901,-16.812729 0.16343,-3.125746 0.3972,-6.535651 0.5194,-7.57756 l 0.22221,-1.894404 -0.69441,1.657608 -0.69442,1.657589 0.28056,-1.894403 c 0.1543,-1.04191 0.27979,-2.000943 0.27883,-2.131182 -9.5e-4,-0.13031 -0.0392,-1.515519 -0.085,-3.078383 l -0.0834,-2.841588 -1.12396,2.472906 c -0.61819,1.360096 -1.76343,4.343754 -2.54503,6.630359 -3.00703,8.797483 -4.24077,10.848724 -9.36261,15.566547 -2.57057,2.367799 -5.63474,5.138342 -6.80928,6.156767 -1.17453,1.018425 -3.0171,2.81071 -4.09461,3.982858 l -1.95908,2.1312 4.09461,0.0089 c 2.76775,0.0072 4.74994,0.27494 6.11698,0.828794 1.11231,0.450663 3.20421,0.81938 4.64871,0.81938 1.44447,0 3.09184,0.255698 3.6608,0.568228 0.56895,0.31253 3.08381,0.612476 5.5886,0.666533 3.54,0.07643 4.96374,0.314338 6.39356,1.068437 2.88413,1.521104 3.14817,1.315167 1.89048,-1.474403 z m -4.83936,-0.557595 c -0.36773,-0.958336 -1.47424,-6.427984 -1.30036,-6.427984 0.43448,0 1.80193,3.359535 2.07229,5.091194 0.29762,1.906342 -0.21362,2.7917 -0.77193,1.33679 z m -21.62472,-3.156301 c -1.67377,-0.974428 0.60945,-1.889893 2.7065,-1.085174 0.58919,0.226092 0.63836,0.440156 0.21753,0.947184 -0.63834,0.769171 -1.74977,0.821617 -2.92403,0.138008 z m 18.55835,-6.876373 c -0.8132,-2.058634 -1.01531,-4.857262 -0.56051,-7.76166 0.40416,-2.580967 0.41275,-2.552846 0.93986,3.077023 0.29261,3.124977 0.44853,5.765245 0.34654,5.867256 -0.10203,0.102029 -0.42866,-0.430185 -0.72589,-1.182619 z m -3.49726,-4.09126 c 0.18706,-1.367524 0.56027,-3.019189 0.82939,-3.6704 0.8095,-1.958843 1.01155,0.151611 0.32449,3.389267 -0.74018,3.487822 -1.62187,3.702637 -1.15388,0.281133 z m -5.33674,-1.629415 c 0.44034,-0.440334 0.93358,-0.667626 1.09611,-0.505096 0.46611,0.466092 -0.24943,1.305698 -1.11277,1.305698 -0.72294,0 -0.72165,-0.06229 0.0161,-0.800602 z m 3.6629,-2.510961 c 0.55831,-1.094392 1.12253,-1.882393 1.25381,-1.751116 0.30512,0.305119 -1.08104,3.006766 -1.75708,3.424565 -0.28151,0.173985 -0.055,-0.579058 0.50327,-1.673449 z"
       id="path11" /></g><metadata
     id="metadata182"><rdf:RDF><cc:Work
         rdf:about=""><cc:license
           rdf:resource="http://creativecommons.org/licenses/by-sa/4.0/" /><dc:publisher><cc:Agent><dc:title>OpenDataKerala.org</dc:title></cc:Agent></dc:publisher><dc:date>April 2026</dc:date><dc:title>Election Symbols of Kerala</dc:title><dc:creator><cc:Agent><dc:title>Manoj Karingamadathil</dc:title></cc:Agent></dc:creator></cc:Work><cc:License
         rdf:about="http://creativecommons.org/licenses/by-sa/4.0/"><cc:permits
           rdf:resource="http://creativecommons.org/ns#Reproduction" /><cc:permits
           rdf:resource="http://creativecommons.org/ns#Distribution" /><cc:requires
           rdf:resource="http://creativecommons.org/ns#Notice" /><cc:requires
           rdf:resource="http://creativecommons.org/ns#Attribution" /><cc:permits
           rdf:resource="http://creativecommons.org/ns#DerivativeWorks" /><cc:requires
           rdf:resource="http://creativecommons.org/ns#ShareAlike" /></cc:License></rdf:RDF></metadata></svg>
