<?xml version="1.0" encoding="UTF-8" standalone="no"?>
<!-- Created with Inkscape (http://www.inkscape.org/) -->

<svg
   width="1500"
   height="1500"
   viewBox="0 0 396.87499 396.875"
   version="1.1"
   id="svg5"
   xml:space="preserve"
   inkscape:version="1.3 (0e150ed6c4, 2023-07-21)"
   sodipodi:docname="Letter Box.svg"
   inkscape:export-filename="Lady Finger.png"
   inkscape:export-xdpi="96"
   inkscape:export-ydpi="96"
   xmlns:inkscape="http://www.inkscape.org/namespaces/inkscape"
   xmlns:sodipodi="http://sodipodi.sourceforge.net/DTD/sodipodi-0.dtd"
   xmlns="http://www.w3.org/2000/svg"
   xmlns:svg="http://www.w3.org/2000/svg"
   xmlns:rdf="http://www.w3.org/1999/02/22-rdf-syntax-ns#"
   xmlns:cc="http://creativecommons.org/ns#"
   xmlns:dc="http://purl.org/dc/elements/1.1/"><title
     id="title186">Election Symbols of Kerala</title><sodipodi:namedview
     id="namedview7"
     pagecolor="#ffffff"
     bordercolor="#000000"
     borderopacity="0.25"
     inkscape:showpageshadow="2"
     inkscape:pageopacity="0.0"
     inkscape:pagecheckerboard="0"
     inkscape:deskcolor="#d1d1d1"
     inkscape:document-units="mm"
     showgrid="false"
     inkscape:zoom="0.25"
     inkscape:cx="230"
     inkscape:cy="1082"
     inkscape:window-width="1920"
     inkscape:window-height="991"
     inkscape:window-x="-9"
     inkscape:window-y="-9"
     inkscape:window-maximized="1"
     inkscape:current-layer="layer1" /><defs
     id="defs2"><inkscape:path-effect
       effect="bspline"
       id="path-effect3248"
       is_visible="true"
       lpeversion="1"
       weight="33.333333"
       steps="2"
       helper_size="0"
       apply_no_weight="true"
       apply_with_weight="true"
       only_selected="false" /><inkscape:path-effect
       effect="bspline"
       id="path-effect577"
       is_visible="true"
       lpeversion="1"
       weight="33.333333"
       steps="2"
       helper_size="0"
       apply_no_weight="true"
       apply_with_weight="true"
       only_selected="false" /></defs><g
     inkscape:label="Layer 1"
     inkscape:groupmode="layer"
     id="layer1"><path
       style="fill:#000000;stroke-width:1.60592"
       d="m 176.28065,390.24906 c -2.60705,-1.18398 -2.9069,-2.78095 -1.43319,-7.63284 0.72792,-2.39649 0.84362,-3.79518 0.74358,-8.98883 l -0.11847,-6.15072 -5.94858,-0.28377 c -6.6787,-0.31859 -14.85642,-1.2859 -21.33725,-2.52389 -8.80192,-1.68136 -21.96054,-5.84938 -29.24779,-9.26432 -2.04793,-0.95969 -3.80106,-1.66734 -3.89584,-1.57256 -0.0948,0.0947 -0.44477,1.19593 -0.77776,2.44699 -0.72132,2.71003 -0.77401,5.29785 -0.17395,8.54384 0.58444,3.16153 -0.18689,5.17495 -2.32468,6.06818 -2.03392,0.84983 -8.7821,0.84151 -10.43427,-0.0129 -2.829744,-1.46331 -3.290523,-4.13267 -1.3117,-7.59887 2.53715,-4.44422 3.4315,-12.66044 3.4315,-31.52449 v -13.74942 l -1.27469,-2.00999 c -1.05673,-1.66629 -1.27399,-2.44986 -1.27055,-4.58242 0.004,-2.54729 1.3836,-6.52837 2.50157,-7.21932 0.339,-0.2095 0.46857,-24.04081 0.46857,-86.17741 v -85.88783 l -1.09851,-1.58515 c -1.92383,-2.7761 -1.90464,-6.60738 0.0475,-9.48403 l 1.05101,-1.54874 v -14.984 -14.983986 l -2.01826,-2.103427 C 100.74883,86.282223 99.000874,84.060824 97.974528,82.5027 96.719895,80.598004 95.747589,79.579178 95.007139,79.393342 94.40142,79.24131 92.564296,78.496181 90.924641,77.737498 85.962063,75.441263 84.185074,72.569885 85.79724,69.452304 c 0.902236,-1.744731 2.188777,-2.427261 8.868737,-4.704996 20.487243,-6.985719 37.938893,-14.534841 53.825523,-23.283469 7.25736,-3.996563 18.02171,-10.248506 21.5191,-12.49833 3.40991,-2.193537 3.91985,-2.681109 4.16372,-3.98105 0.15285,-0.814762 0.84187,-2.123679 1.53115,-2.908731 1.2217,-1.391446 1.23721,-1.46572 0.61639,-2.951562 -1.85159,-4.431477 0.89974,-11.5563802 4.74654,-12.2917452 4.63382,-0.8858072 8.80585,6.7612442 6.78686,12.4398592 -0.49332,1.387495 -0.44902,1.580639 0.66133,2.882844 0.65454,0.767644 1.193,1.819262 1.19658,2.336945 0.004,0.517683 0.14699,1.161944 0.31867,1.43169 0.93559,1.469959 23.43893,14.501486 35.79121,20.72645 14.923,7.520488 24.83173,11.619235 43.76455,18.103233 6.01126,2.058704 7.73912,3.027023 8.75711,4.907599 1.82419,3.369935 -0.95615,6.631357 -7.86843,9.229906 -1.63468,0.61452 -2.90953,1.404936 -3.35579,2.080577 -2.1808,3.301843 -4.3964,6.218074 -5.56135,7.320038 l -1.31932,1.247973 v 14.985525 14.98554 l 1.04025,1.53288 c 1.89835,2.79738 1.81255,7.12177 -0.19189,9.66999 -0.84152,1.06981 -0.84836,1.77049 -0.84836,86.919 v 85.8405 l 1.26993,2.0465 c 2.19422,3.53603 2.23238,7.59285 0.0997,10.60796 l -1.15722,1.6361 -0.13458,12.62987 c -0.19123,17.95037 1.17385,29.62087 3.94177,33.69964 1.29243,1.9045 1.36139,3.3404 0.24805,5.16629 -1.12436,1.84401 -3.1321,2.3766 -8.26097,2.19134 -4.07381,-0.1471 -4.17351,-0.17561 -5.39129,-1.53911 l -1.24071,-1.3892 0.26934,-4.77183 c 0.26114,-4.62647 -0.26435,-9.34406 -1.09824,-9.85943 -0.19229,-0.11884 -2.35719,0.74292 -4.81089,1.91503 -7.24271,3.45976 -20.23091,7.41268 -30.6394,9.32499 -5.37612,0.98773 -15.89711,2.13309 -19.594,2.13309 -1.45959,0 -3.25131,0.11948 -3.9816,0.26557 l -1.32781,0.26555 v 5.61505 c 0,4.28346 0.20649,6.41209 0.87075,8.97598 1.16164,4.48374 1.157,5.50626 -0.0307,6.7705 -1.323,1.40826 -3.30364,1.89833 -7.63844,1.88997 -2.60295,-0.005 -4.09796,-0.22782 -5.35294,-0.79777 z m 9.88284,-4.18308 c -0.13225,-0.64267 -0.53237,-2.4113 -0.88917,-3.93032 -0.36553,-1.55616 -0.6526,-4.75584 -0.65758,-7.32949 -0.007,-3.77294 -0.11976,-4.56766 -0.64621,-4.56766 -0.53502,0 -0.64695,1.00622 -0.69717,6.26725 -0.046,4.81864 -0.1345,5.72709 -0.38288,3.93031 -0.17768,-1.28532 -0.34196,-3.93667 -0.36507,-5.89191 -0.0394,-3.33552 -0.0945,-3.54127 -0.8914,-3.33285 -0.46715,0.12221 -0.95645,0.0488 -1.08732,-0.16291 -0.70058,-1.13356 -0.95815,0.19303 -1.10085,5.6698 -0.14199,5.44974 -0.25699,6.21512 -1.15081,7.65897 -1.5816,2.55485 -1.17956,2.85728 3.79835,2.85728 h 4.31055 z m -6.35923,-0.81628 c -0.4219,-0.11611 -0.69261,-0.43407 -0.60158,-0.70656 0.11024,-0.33003 1.07559,-0.44596 2.89157,-0.34726 2.6106,0.1418 3.28955,0.29473 2.90312,0.65357 -0.32287,0.29983 -4.41268,0.61504 -5.19311,0.40025 z m 0.70781,-6.08832 c 0,-2.2201 0.0716,-3.12833 0.15914,-2.01827 0.0875,1.11004 0.0875,2.92648 0,4.03654 -0.0875,1.11004 -0.15914,0.20181 -0.15914,-2.01827 z m 80.98997,-11.677 c 0.28049,-0.17334 0.19393,-0.73317 -0.24444,-1.58085 -0.45913,-0.88788 -0.78245,-1.14457 -0.99944,-0.79347 -0.17643,0.28546 -1.10176,0.62374 -2.0563,0.75178 -1.6883,0.22645 -2.49512,1.02382 -1.94184,1.91907 0.27776,0.44942 4.41361,0.21545 5.24202,-0.29653 z m -153.67769,-0.64507 c -0.17149,-0.65576 -0.57957,-0.8498 -1.78729,-0.8498 -0.86078,0 -1.7864,-0.22133 -2.05693,-0.49186 -0.57108,-0.57109 -1.80258,0.21173 -1.80258,1.14584 0,0.76907 0.69991,0.97347 3.46564,1.01208 2.20172,0.0307 2.38474,-0.0377 2.18116,-0.81626 z m 147.17461,-8.1227 c -0.13088,-2.72457 -0.43128,-4.49438 -0.90137,-5.31123 -0.66655,-1.15827 -0.69231,-1.16713 -0.47235,-0.16283 0.128,0.58425 0.46426,2.64114 0.74737,4.57089 0.47164,3.21503 0.44146,3.73393 -0.36066,6.20105 -0.79662,2.45016 -0.81386,2.73152 -0.19181,3.1268 0.58736,0.37325 0.73222,0.0984 1.02937,-1.95207 0.19019,-1.31255 0.25745,-4.22521 0.14951,-6.47261 z m -144.61795,7.44236 c -0.0451,-0.44375 -0.36684,-1.76282 -0.7149,-2.9313 l -0.63282,-2.12448 -0.0229,2.12448 c -0.0125,1.16848 0.0945,2.56253 0.23787,3.0979 0.30712,1.14649 1.25216,1.0075 1.13272,-0.1666 z m -3.10119,-1.97528 c 0.002,-0.29212 0.19535,-2.20563 0.42984,-4.25226 0.77323,-6.74852 0.81995,-10.00179 0.15162,-10.55644 -0.33302,-0.27639 -0.68543,-0.42256 -0.78314,-0.32486 -0.0977,0.0976 -0.47816,2.61561 -0.84544,5.59534 -0.59367,4.81625 -1.03086,6.7292 -2.13134,9.32577 -0.27066,0.63863 -0.0688,0.74358 1.42991,0.74358 1.11092,0 1.74633,-0.193 1.74855,-0.53113 z m 152.5251,0.21246 c -0.005,-0.17527 -0.38487,-1.72825 -0.84306,-3.45106 -0.4582,-1.72281 -1.06875,-5.11669 -1.35682,-7.54195 -0.28805,-2.42527 -0.64384,-4.40957 -0.79066,-4.40957 -0.14678,0 -0.60128,0.36946 -1.00994,0.82101 -0.66559,0.73548 -0.69657,1.21138 -0.29727,4.56766 0.24514,2.06066 0.56618,5.22849 0.71339,7.03961 l 0.26768,3.29297 h 1.66334 c 0.91484,0 1.65885,-0.14341 1.65334,-0.31867 z m -56.0766,-1.56003 c 15.55926,-2.15027 29.45983,-6.02032 41.42761,-11.5338 4.32046,-1.99042 9.01102,-4.69983 10.51623,-6.07449 l 1.16848,-1.06713 v -12.03011 c 0,-6.61657 -0.091,-12.03011 -0.20218,-12.03011 -0.11113,0 -0.82822,0.3805 -1.59338,0.84558 l -1.39119,0.84559 -0.21244,11.09497 -0.21245,11.09497 -2.66796,1.2107 c -1.46739,0.66588 -2.57091,1.05366 -2.45228,0.86172 0.11868,-0.19194 0.78708,-0.58565 1.48546,-0.87494 l 1.26978,-0.52595 0.12028,-10.57705 c 0.0662,-5.81738 6.5e-4,-10.5769 -0.14549,-10.57672 -0.14614,1.6e-4 -1.31494,0.46429 -2.5972,1.03137 l -2.33141,1.03105 -0.27729,2.47436 c -0.15256,1.3609 -0.38097,6.39405 -0.50771,11.18477 -0.12671,4.79074 -0.38137,8.86281 -0.56589,9.04906 -1.73614,1.75244 -26.19832,9.97414 -27.07321,9.09925 -0.11065,-0.11065 1.19413,-0.53954 2.89947,-0.95309 4.7289,-1.14682 14.79896,-4.66527 19.38963,-6.77472 l 4.10614,-1.88679 0.32764,-6.07268 c 0.18021,-3.33996 0.27581,-7.62644 0.21246,-9.52552 -0.0784,-2.34695 0.0549,-3.61114 0.41591,-3.94707 0.66135,-0.61537 0.69903,-2.16029 0.0527,-2.16029 -0.26315,0 -2.12851,0.66019 -4.14529,1.46708 -7.8643,3.14646 -22.49694,6.61162 -34.04204,8.06152 -31.87867,4.00354 -65.2387,0.0727 -89.97228,-10.60153 -4.82865,-2.0839 -6.64071,-2.43677 -4.1573,-0.80956 l 1.04771,0.68648 0.12077,10.15856 c 0.0664,5.58721 -0.0409,10.15842 -0.23855,10.15822 -0.19762,-1.7e-4 -0.91463,-0.39576 -1.59337,-0.87906 l -1.23406,-0.87874 -0.003,-10.69975 -0.003,-10.69976 -1.37823,-0.83947 c -0.75803,-0.46172 -1.52164,-0.90786 -1.69691,-0.99143 -0.17527,-0.0835 -0.31868,5.30357 -0.31868,11.97144 v 12.12339 l 1.38092,1.04193 c 3.64891,2.75318 11.33672,6.69436 18.2726,9.36752 11.4843,4.42616 27.19216,7.74589 42.16923,8.91214 5.45686,0.42492 29.93911,-0.1137 34.62923,-0.76191 z m -53.64345,-4.77617 c 0.29211,-0.11788 0.77013,-0.11788 1.06224,0 0.29212,0.11787 0.0531,0.21431 -0.53112,0.21431 -0.58424,0 -0.82324,-0.0965 -0.53112,-0.21431 z m -6.47971,-1.24913 c -10.66507,-2.63632 -23.64138,-7.2501 -24.70812,-8.78508 -0.19849,-0.28562 -0.30639,-5.05185 -0.23979,-10.5916 0.10388,-8.63856 0.20971,-10.03831 0.74358,-9.83344 0.52255,0.20053 0.62246,1.86153 0.62246,10.34843 v 10.10956 l 6.55922,2.59694 c 3.60757,1.42832 8.91349,3.25585 11.79093,4.06117 2.87745,0.80532 6.57015,1.8395 8.20601,2.29816 4.2543,1.19284 2.0709,1.04298 -2.97429,-0.20414 z m 72.36555,0.81537 c 0.30673,-0.12269 0.6732,-0.1076 0.81439,0.0336 0.14116,0.14116 -0.10969,0.24161 -0.55769,0.22316 -0.49497,-0.0204 -0.59566,-0.12108 -0.2567,-0.2567 z M 126.57842,340.0707 c 0,-5.25812 0.061,-7.40916 0.13554,-4.7801 0.0746,2.62906 0.0746,6.93115 0,9.56021 -0.0746,2.62906 -0.13554,0.47801 -0.13554,-4.78011 z m -16.59876,13.80921 c 0.24064,-1.41798 0.20509,-1.56211 -0.21454,-0.86985 -0.27664,0.45637 -0.55641,2.27283 -0.62171,4.03655 -0.11223,3.03085 -0.10045,3.07856 0.21454,0.86983 0.1833,-1.28531 0.46307,-3.10176 0.62171,-4.03653 z m 83.76354,-20.8401 c 21.34957,-1.06532 45.4011,-7.1857 59.42177,-15.12102 5.1395,-2.90879 6.18353,-4.05758 6.21,-6.83299 0.0145,-1.59261 -1.12957,-4.58208 -1.75461,-4.58208 -0.18567,0 -1.34529,0.76983 -2.57692,1.71073 -2.71038,2.07059 -10.07273,5.72861 -15.76253,7.83167 -18.54887,6.85606 -43.27245,10.30641 -65.63063,9.15929 -13.41632,-0.68836 -18.99893,-1.37786 -29.83267,-3.68463 -15.30999,-3.25988 -28.76517,-8.47165 -35.15801,-13.61823 -0.99191,-0.79852 -2.01524,-1.32101 -2.27407,-1.16104 -0.77326,0.4779 -1.65859,3.02084 -1.65859,4.76399 0,1.28615 0.29124,1.9069 1.38092,2.94339 6.61638,6.29333 26.27176,13.49426 44.93303,16.46162 10.52126,1.67301 28.21716,2.93841 35.26658,2.52183 1.28532,-0.076 4.6314,-0.25259 7.43573,-0.39253 z m -15.0839,-3.59157 c 0,-0.26237 2.20367,-0.42489 5.76121,-0.42489 3.7326,0 5.66874,0.14967 5.4986,0.42489 -0.15319,0.24784 -2.5538,0.4249 -5.7612,0.4249 -3.38248,0 -5.49861,-0.16352 -5.49861,-0.4249 z m -44.88209,-5.9604 c -13.66795,-3.6031 -26.92577,-9.79342 -26.92577,-12.57212 0,-0.87642 1.03289,-0.71053 1.95241,0.31355 1.32988,1.48109 5.57909,4.19793 9.25691,5.91867 3.65272,1.70898 13.12113,5.06732 17.44074,6.18602 2.43241,0.62995 4.36468,1.42295 3.42978,1.40757 -0.2337,-0.003 -2.55303,-0.56802 -5.15407,-1.25369 z m 91.19604,0.77573 c 15.01448,-4.28105 25.36086,-8.68405 30.02107,-12.77578 1.28868,-1.13146 1.42143,-1.16866 1.42143,-0.39822 0,1.11007 -2.39669,3.18583 -5.43587,4.70799 -5.29986,2.65441 -15.4739,6.26332 -22.39499,7.94395 -4.17502,1.01378 -6.53024,1.35423 -3.61164,0.52206 z m -19.75779,-2.40445 c 13.29571,-1.74581 22.29505,-3.70895 31.44249,-6.85897 6.09327,-2.09829 14.43939,-6.0731 17.52061,-8.34416 l 2.22426,-1.63941 0.006,-15.91372 0.006,-15.91369 -1.67086,1.63153 -1.67084,1.63154 -0.0353,14.06972 c -0.0318,12.64129 -0.1076,14.12363 -0.74732,14.60083 -1.65041,1.23129 -1.70217,0.90405 -1.56456,-9.89324 0.0731,-5.73341 0.26533,-10.65693 0.42724,-10.94114 0.16189,-0.28422 -0.26103,-0.0129 -0.93983,0.60413 -2.07958,1.88868 -6.0782,3.6656 -11.72692,5.21123 -9.02524,2.46953 -15.58387,3.28888 -28.30518,3.5361 -14.40275,0.27989 -16.48874,-0.10021 -21.80842,-3.974 -3.66899,-2.67175 -3.50591,-1.39248 -3.64923,-28.62631 -0.0695,-13.20371 -0.12413,-25.41344 -0.12145,-27.13274 0.004,-2.61412 -0.10015,-3.08567 -0.63654,-2.87984 -1.14379,0.43892 -4.98233,-0.55556 -6.44214,-1.66902 -3.80936,-2.90554 -4.17637,-8.67161 -0.7775,-12.21552 1.48546,-1.54884 2.72041,-1.99191 5.55178,-1.99191 h 2.30928 v -15.01557 c 0,-8.25857 0.12725,-18.81515 0.28278,-23.45908 0.36259,-10.82652 0.0569,-10.38783 7.23986,-10.39068 9.22529,-0.003 23.66747,-1.13414 35.23838,-2.75841 5.18542,-0.7279 12.33862,-2.42595 16.41918,-3.89764 3.2073,-1.15674 4.14114,-1.05599 5.95452,0.64244 l 1.18748,1.11223 -0.0384,-11.25129 c -0.0212,-6.18822 -0.0297,-11.45963 -0.019,-11.71423 0.0112,-0.2546 0.46795,-0.6673 1.01621,-0.9171 l 0.99684,-0.45419 0.27655,7.29059 c 0.37796,9.96334 0.35173,29.59777 -0.0395,29.59774 -0.17527,-2e-5 -0.25444,19.83743 -0.17593,44.08323 l 0.14277,44.08324 0.95796,1.06225 c 0.99998,1.10884 1.78145,2.86645 2.07812,4.67389 0.0959,0.58423 0.20038,-29.40299 0.23219,-66.63827 0.0318,-37.23527 -0.0856,-67.62668 -0.2608,-67.53646 -24.15944,12.43616 -93.13423,15.13497 -132.74888,5.19411 -6.57669,-1.65034 -13.26909,-3.79008 -14.69093,-4.69708 l -0.95602,-0.60985 v 85.752 85.75199 l 2.05568,1.56768 c 2.65803,2.02706 9.03441,5.28411 14.62044,7.46814 8.56479,3.34867 25.53556,6.95962 38.1358,8.11434 2.68748,0.24628 5.55555,0.52311 6.37348,0.61516 0.81793,0.092 7.79689,0.1145 15.5088,0.0498 11.29537,-0.0948 15.34348,-0.29121 20.82003,-1.01032 z M 126.4566,227.36636 c -0.0397,-56.62222 0.083,-85.29841 0.36507,-85.29841 0.50574,0 0.52315,164.60418 0.0178,168.25986 -0.17768,1.28531 -0.34997,-36.04734 -0.38288,-82.96145 z m -7.24868,81.75107 c -0.32473,-0.60677 -0.45932,-25.52727 -0.45932,-85.04726 0,-74.99772 0.0703,-84.17401 0.64399,-84.05164 0.57281,0.12221 0.64302,9.50291 0.63527,84.87132 -0.005,46.60366 -0.0879,84.81311 -0.18466,84.90988 -0.0968,0.0968 -0.38265,-0.21026 -0.63528,-0.6823 z m 125.84271,-1.12657 c 0.005,-0.93477 0.0917,-1.26715 0.19335,-0.73862 0.10166,0.52853 0.0978,1.29335 -0.008,1.6996 -0.10632,0.40623 -0.18952,-0.0262 -0.1848,-0.96098 z m -132.78174,-2.19275 -1.16847,-0.61547 V 221.09643 137.0102 l 1.38092,0.58064 1.38092,0.58062 0.10728,84.16614 c 0.059,46.29136 -0.0366,84.14584 -0.21245,84.12104 -0.17585,-0.0247 -0.84554,-0.32202 -1.4882,-0.66053 z m 132.85382,-8.64216 c 0,-4.79073 0.062,-6.75058 0.13762,-4.35521 0.0758,2.39537 0.0758,6.31506 0,8.71043 -0.0758,2.39535 -0.13762,0.4355 -0.13762,-4.35522 z m -2.64578,-4.46144 c 0.008,-0.70108 0.1039,-0.93644 0.21161,-0.52303 0.10776,0.41341 0.10069,0.98703 -0.0161,1.2747 -0.11643,0.28766 -0.20453,-0.0506 -0.19587,-0.75167 z M 167.7819,282.11454 c -1.17132,-1.17132 -1.44466,-1.77299 -1.44466,-3.18003 0,-2.40467 1.67314,-4.26164 4.13751,-4.59212 1.67279,-0.22431 1.92155,-0.12044 3.50541,1.46339 1.83454,1.83455 2.0372,2.73629 1.11239,4.94969 -0.77914,1.86474 -2.19193,2.80372 -4.21846,2.80372 -1.30714,0 -1.94602,-0.29847 -3.09219,-1.44465 z m 4.70088,-2.36231 c 1.57178,-1.7368 -0.75212,-4.47015 -2.53942,-2.98683 -0.86019,0.71389 -0.79704,2.53816 0.11174,3.22802 1.02694,0.77956 1.55103,0.72749 2.42768,-0.24119 z m 70.01846,-126.84935 c 0.005,-0.93477 0.0917,-1.26717 0.19335,-0.73863 0.10166,0.52854 0.0978,1.29336 -0.008,1.69961 -0.10631,0.40623 -0.18949,-0.0262 -0.18477,-0.96098 z m 2.56377,-9.34777 c 0.003,-1.16848 0.0857,-1.59605 0.18337,-0.95019 0.0976,0.64587 0.0951,1.60191 -0.006,2.1245 -0.10085,0.5226 -0.18076,-0.006 -0.17756,-1.17431 z m -23.91585,145.71242 c 13.72273,-1.58874 25.32182,-5.09613 27.79148,-8.40371 0.88775,-1.18894 0.88934,-1.26355 1.00099,-46.97224 l 0.11177,-45.78138 -1.89447,0.43954 c -1.38568,0.32148 -1.95639,0.68632 -2.12508,1.35841 -0.12686,0.50538 -0.67244,1.20837 -1.21245,1.5622 -2.47014,1.61849 -11.58739,3.38069 -20.31331,3.92619 -4.38058,0.27386 -4.53486,0.25289 -5.73614,-0.77956 -1.20133,-1.03251 -1.23825,-1.18476 -1.37564,-5.67277 -0.13377,-4.36769 -0.0877,-4.66958 0.8709,-5.70381 0.96429,-1.04049 1.29185,-1.10532 6.93955,-1.37352 6.27287,-0.2979 12.73371,-1.41587 15.02256,-2.59948 1.74426,-0.902 3.47657,-0.55563 5.03986,1.00764 l 1.17279,1.17279 1.80013,-0.76453 1.80014,-0.76451 v -5.75356 c 0,-3.16445 -0.16787,-5.75355 -0.37303,-5.75355 -0.20515,0 -1.0453,0.2809 -1.867,0.62423 -1.99529,0.83368 -10.08315,2.91368 -15.60571,4.01341 -7.5657,1.50658 -13.3673,2.11469 -25.06903,2.62768 -6.19289,0.27148 -11.35541,0.58008 -11.47226,0.68574 -0.11685,0.10567 -0.26832,10.11899 -0.33661,22.2518 l -0.12417,22.05967 h 3.03712 c 2.61968,0 3.21062,-0.14598 4.29952,-1.06225 1.0792,-0.90808 1.68719,-1.06225 4.18931,-1.06225 2.66794,0 3.0598,0.11675 4.42884,1.31871 l 1.50193,1.31872 v 4.96022 c 0,5.46212 -0.30373,6.34363 -2.49911,7.25298 -0.82885,0.34332 -2.24845,0.429 -4.15969,0.25106 -1.59578,-0.14854 -4.62226,-0.30894 -6.72551,-0.3564 l -3.82408,-0.0862 -0.10953,25.5523 c -0.0602,14.05377 0.0404,26.27399 0.22369,27.15604 0.42835,2.06168 1.89819,3.15249 4.81989,3.57699 3.99098,0.57986 14.82808,0.46168 20.77232,-0.22652 z m 4.66726,-5.64575 c -1.04764,-0.55705 -1.66128,-1.29733 -2.09871,-2.53183 -0.55427,-1.56418 -0.54502,-1.89809 0.0894,-3.22853 0.91657,-1.92209 2.59201,-2.99333 4.68158,-2.99333 1.34732,0 1.90834,0.26644 2.90149,1.37797 2.04703,2.29103 1.53948,5.5733 -1.13439,7.33594 -1.56079,1.02888 -2.56233,1.03785 -4.43941,0.0398 z m 3.93165,-3.51012 c 0.71423,-0.95759 0.75096,-1.23451 0.26663,-2.01006 -0.71839,-1.15033 -1.50413,-1.44462 -2.47286,-0.92616 -1.15529,0.61829 -1.36255,1.61932 -0.62897,3.03791 0.77633,1.50127 1.66334,1.46946 2.8352,-0.10166 z m 14.19021,1.7889 c 1.9223,-0.9094 2.72207,-1.5506 3.04697,-2.44283 0.35418,-0.97264 0.4471,-1.03689 0.47408,-0.32781 0.0416,1.09501 -1.39361,2.48167 -3.46403,3.34674 -2.73431,1.14248 -2.77704,0.7107 -0.057,-0.5761 z m -53.1367,4.24148 c -1.50748,-1.5438 -1.60272,-1.78559 -1.29701,-3.29297 l 0.32992,-1.62682 0.30514,1.37028 c 0.16783,0.75365 0.62149,1.85308 1.00813,2.44316 1.71764,2.62146 1.75082,2.15997 1.63244,-22.70905 l -0.1132,-23.78212 -1.05947,0.48274 c -0.89974,0.40994 -1.20773,0.34344 -2.04282,-0.44109 -0.54083,-0.50809 -1.11255,-0.79457 -1.27049,-0.63664 -0.36933,0.36932 -0.37291,27.19101 -0.005,38.17363 l 0.28206,8.42187 1.68122,1.63158 c 2.20482,2.13971 2.64523,2.11199 0.54917,-0.0345 z m 62.71263,-13.9085 c 1.45319,-1.31514 0.8062,-7.79478 -0.77831,-7.79478 -0.43766,0 -0.56915,0.98168 -0.56915,4.24898 0,2.33694 0.12831,4.24899 0.28523,4.24899 0.1569,0 0.63486,-0.31644 1.06223,-0.70319 z m -61.25816,-37.64725 c 0,-1.75907 -0.0529,-1.82821 -1.91204,-2.49674 l -1.91204,-0.68757 v 1.60783 c 0,1.35557 0.21665,1.74176 1.38092,2.46153 2.0913,1.29288 2.44316,1.16541 2.44316,-0.88505 z m 16.47651,-4.37596 c 0.51938,-0.36379 0.94434,-1.06635 0.94434,-1.56121 0,-0.89104 -0.0103,-0.89011 -1.05879,0.0949 -0.62577,0.58788 -1.58152,0.99467 -2.33694,0.99467 -1.30154,0 -1.70834,0.46377 -0.74703,0.85167 1.03719,0.41852 2.26693,0.27239 3.19842,-0.38004 z m -8.66532,-0.0414 4.54418,-0.27803 -1.0789,-1.12613 c -1.36081,-1.42038 -1.36544,-2.58594 -0.0166,-4.18889 0.58423,-0.69431 1.06224,-1.37821 1.06224,-1.51974 0,-0.14148 -3.10707,-0.25871 -6.9046,-0.26037 -6.86963,-0.003 -6.92482,-0.0112 -10.8961,-1.50869 -5.62963,-2.12357 -6.63021,-1.6754 -1.35993,0.60912 l 4.28918,1.85925 v 2.50221 c 0,2.36703 0.0746,2.54769 1.38093,3.34418 1.51818,0.92565 2.30618,0.97542 8.97965,0.56709 z m -9.22751,-1.27991 c -0.4543,-0.4543 -0.32603,-4.81552 0.14162,-4.81552 0.23606,0 0.4249,1.13306 0.4249,2.5494 0,2.57227 -0.0521,2.78058 -0.56653,2.26612 z m 16.72721,-1.86839 c 0.52033,-0.97225 -0.0772,-2.09734 -1.11386,-2.09734 -0.7567,0 -1.51327,1.4654 -1.19064,2.30616 0.3653,0.95196 1.75044,0.82644 2.3045,-0.20882 z m -25.296,-3.61989 c 0,-1.03864 -0.17198,-1.23929 -1.06225,-1.23929 -0.83462,0 -1.09031,0.24269 -1.19323,1.13256 -0.0932,0.80593 0.0906,1.1892 0.63735,1.32897 1.28147,0.32764 1.61813,0.0734 1.61813,-1.22224 z m 26.78295,-0.85213 c -0.57291,-0.87438 -0.98674,-1.04865 -2.23782,-0.9424 -2.13973,0.18171 -2.23849,1.04603 -0.15966,1.39724 0.93328,0.1577 1.9399,0.57951 2.23693,0.93741 0.84459,1.01766 0.97854,-0.14389 0.16056,-1.39225 z m -29.14621,-2.61908 c 0.89192,-1.18791 1.2941,-1.37972 2.89314,-1.37972 1.12994,0 1.75438,-0.16639 1.59461,-0.42489 -0.41495,-0.67142 -3.32278,-0.49478 -4.41178,0.26798 -1.05237,0.73711 -2.19689,3.02977 -2.13964,4.28603 0.0262,0.57446 0.15436,0.50056 0.53113,-0.30624 0.27313,-0.5849 0.96278,-1.68433 1.53254,-2.44316 z m 12.77327,-22.20538 0.21245,-22.72644 -2.12449,-1.96603 -2.12449,-1.96601 -0.3174,7.9146 c -0.17458,4.35302 -0.27018,15.18037 -0.21245,24.06075 l 0.10494,16.14615 1.48715,0.74872 c 2.93421,1.47729 2.73923,2.93342 2.97429,-22.21174 z m -2.27109,16.64945 c -0.85577,-0.94562 -0.90144,-2.18863 -0.11968,-3.25773 0.5692,-0.77842 0.58912,-0.77781 0.81269,0.0251 0.53734,1.92955 0.73889,4.00975 0.3885,4.00975 -0.20806,0 -0.69474,-0.34968 -1.0815,-0.77704 z m -0.63611,-40.0133 c 0,-0.58424 0.0964,-0.82324 0.21431,-0.53112 0.11788,0.29212 0.11788,0.77013 0,1.06225 -0.11787,0.29211 -0.21431,0.0531 -0.21431,-0.53113 z m 47.62437,15.97336 c 2.51034,-0.58073 4.85946,-1.22108 5.22026,-1.42299 0.47923,-0.26818 0.69863,-1.25494 0.81416,-3.66157 0.14727,-3.06697 0.0932,-3.32408 -0.78468,-3.72402 -0.70612,-0.32173 -1.57643,-0.21701 -3.46637,0.41707 -4.17803,1.40173 -7.76471,1.91686 -13.46467,1.93385 -5.62936,0.0167 -6.01217,0.15802 -4.79363,1.76912 0.39332,0.52003 0.62883,1.82958 0.63736,3.54405 l 0.0128,2.71925 5.62991,-0.25944 c 3.65073,-0.16823 7.23444,-0.63062 10.19415,-1.31532 z m -15.13136,0.0665 c -0.40361,-1.50606 -0.31015,-3.71787 0.15706,-3.71787 0.2337,0 0.4249,1.05164 0.4249,2.33695 0,2.5037 -0.17184,2.91141 -0.58199,1.38092 z m 28.54235,-6.79838 c 0.0927,-1.4451 -0.0279,-2.01642 -0.42489,-2.01177 -1.062,0.0129 -1.43979,0.64266 -1.47423,2.45916 -0.0308,1.62952 0.0634,1.81431 0.86748,1.6996 0.75261,-0.10743 0.92361,-0.46326 1.03164,-2.14699 z m -34.12138,-10.96937 c 11.02966,-1.07773 24.86594,-3.85566 29.95534,-6.01416 l 1.48715,-0.63072 -1.59935,-0.6808 c -0.87964,-0.37443 -1.71271,-0.97623 -1.85127,-1.33733 -0.32672,-0.8514 -1.08679,-0.82158 -4.2371,0.16622 -3.62076,1.13532 -12.18769,2.82565 -18.23109,3.59717 -6.36685,0.8128 -21.36732,1.92657 -27.78602,2.06305 l -4.84149,0.10294 2.41219,1.69961 2.4122,1.69959 8.80277,-0.10439 c 4.84153,-0.0575 10.90603,-0.30994 13.47666,-0.56114 z m 32.22972,-7.93861 c -0.4135,-1.57309 -1.59808,-2.64725 -2.62122,-2.37691 -0.98237,0.25956 -0.98162,0.26271 0.40202,1.69025 1.5048,1.55256 2.53022,1.86984 2.2192,0.68666 z m -46.46383,-23.69592 c 19.45639,-1.43805 32.10126,-3.46875 42.64199,-6.84808 11.37072,-3.64541 15.77564,-7.15832 13.27102,-10.58359 -0.58097,-0.79453 -0.65248,-0.77991 -2.44316,0.49884 -7.38002,5.27025 -25.2238,9.25935 -50.28311,11.24113 -7.68822,0.608 -32.27648,0.82989 -39.94047,0.36043 -14.90862,-0.91325 -31.57861,-3.29936 -41.85251,-5.99066 -9.95684,-2.60825 -13.31905,-3.8556 -16.26633,-6.03462 -1.22059,-0.90241 -1.2257,-0.90255 -1.85628,-0.0557 -0.68789,0.92378 -0.48287,3.75781 0.34393,4.75404 0.80143,0.96567 6.81735,3.79182 10.9803,5.15831 10.54207,3.46045 30.25053,6.56603 48.65089,7.66621 10.03092,0.59978 27.45608,0.52095 36.75373,-0.16626 z m -78.01039,-7.41596 c -7.89558,-1.68634 -13.06439,-3.24666 -15.72018,-4.7455 -3.55315,-2.00527 -3.75352,-2.8094 -0.26412,-1.05995 3.31282,1.66092 9.26856,3.56244 16.23825,5.18449 3.62226,0.84301 6.66559,1.61173 6.76297,1.70826 0.37551,0.37229 -1.65919,0.057 -7.01692,-1.0873 z m 112.77241,0.54767 c 0.30672,-0.1227 0.6732,-0.1076 0.81438,0.0336 0.14116,0.14116 -0.10969,0.24163 -0.55767,0.22317 -0.49499,-0.0204 -0.59567,-0.12108 -0.25671,-0.25672 z m 4.1162,-1.03534 c 6.58265,-1.84393 10.32619,-3.07255 12.86514,-4.22232 2.94899,-1.33545 3.17243,-0.9842 0.39098,0.61468 -1.97923,1.13774 -7.41267,2.86523 -12.13909,3.85947 -4.19197,0.8818 -4.73053,0.7604 -1.11703,-0.25183 z m -29.96599,-0.14244 c 8.53588,-0.80099 18.38689,-2.1473 23.80496,-3.25338 8.03467,-1.64025 16.55224,-4.75001 20.07646,-7.32991 l 1.16848,-0.85538 V 105.87771 90.242332 l -2.23073,0.816191 c -1.22689,0.448901 -3.04334,1.027192 -4.03654,1.285102 -2.04963,0.532232 -2.15136,0.754828 -0.93946,2.055636 1.00524,1.079015 2.02908,1.204919 2.37918,0.292566 0.5245,-1.366827 1.42835,-0.66623 1.42835,1.107135 0,1.240875 0.30665,2.108937 1.06225,3.006901 1.29562,1.539757 1.37435,3.479327 0.21245,5.233747 -0.75947,1.14677 -0.84449,2.00452 -0.84699,8.54689 -0.003,6.71135 -0.0707,7.35853 -0.88345,8.39175 -0.48434,0.61575 -1.20137,1.1221 -1.59337,1.12523 -1.23094,0.01 -7.91902,2.49275 -8.08913,3.00306 -0.11996,0.35995 -0.24273,0.35629 -0.47163,-0.0144 -0.23263,-0.37641 -1.42436,-0.28552 -4.80178,0.36626 -8.97693,1.73237 -22.06545,2.59466 -32.17699,2.11987 -3.80291,-0.17856 -5.5143,-0.92377 -7.00319,-3.04945 -0.96442,-1.37692 -0.94521,-16.68509 0.0227,-18.06694 0.6235,-0.89018 0.59891,-1.0349 -0.37192,-2.18866 -1.01592,-1.20736 -1.83111,-3.92985 -1.39028,-4.643135 0.12176,-0.196998 -7.66055,-0.470196 -17.29401,-0.607085 -9.63348,-0.136874 -20.00106,-0.453801 -23.03908,-0.704163 -19.278,-1.588733 -37.41384,-4.579591 -47.84511,-7.890347 -0.79637,-0.252755 -0.81348,0.126064 -0.70476,15.59871 l 0.11142,15.85776 3.39919,1.70351 c 9.13975,4.58038 31.37488,8.79262 52.68742,9.98114 9.66526,0.53899 39.13194,0.15433 47.36556,-0.61825 z m -84.89904,-21.37032 c -0.0456,-9.46529 0.0785,-14.552782 0.35486,-14.552782 0.48966,0 0.50433,18.110092 0.0201,24.856572 -0.2118,2.95113 -0.32634,-0.19614 -0.37499,-10.30379 z m -7.18709,12.57759 c -0.40362,-0.40408 -0.53112,-3.92839 -0.53112,-14.68085 0,-7.78201 0.14341,-14.146188 0.31867,-14.142607 1.07708,0.022 1.15857,1.300069 0.95602,14.993007 -0.16996,11.49017 -0.31866,14.25583 -0.74357,13.83045 z m -6.79838,-2.25544 -1.38092,-0.40654 V 107.57394 93.650776 l 1.38092,0.262856 c 0.75951,0.144533 1.43134,0.301736 1.49296,0.349271 0.0616,0.04754 0.0616,6.377607 0,14.066847 l -0.11203,13.98043 z m 117.59069,1.26753 c 9.40005,-1.25561 18.04847,-3.36452 19.65156,-4.79202 0.64047,-0.57031 0.74357,-1.47775 0.74357,-6.54484 0,-3.23551 -0.0479,-5.88066 -0.10615,-5.87812 -0.0584,0.003 -0.98139,0.27024 -2.05106,0.59491 -5.93587,1.80176 -18.42718,3.45942 -30.51492,4.04951 -4.91156,0.23978 -8.43036,0.59202 -8.71042,0.87196 -0.63118,0.63092 -0.88062,7.32054 -0.33168,8.89522 0.24059,0.69014 0.27425,1.3139 0.0748,1.38615 -0.19945,0.0723 -0.50086,0.68808 -0.6698,1.36854 l -0.30718,1.2372 8.66752,-0.2679 c 4.76712,-0.14742 10.86635,-0.56164 13.55383,-0.92061 z m 16.99594,-5.48942 c 0,-0.0919 0.29674,-0.28086 0.65942,-0.42003 0.37813,-0.14517 0.54868,-0.0739 0.39982,0.16699 -0.24952,0.40374 -1.05924,0.59717 -1.05924,0.25304 z m 1.42787,-4.93178 c 0,-2.2201 0.0716,-3.12833 0.15914,-2.01829 0.0875,1.11006 0.0875,2.9265 0,4.03655 -0.0875,1.11005 -0.15914,0.20182 -0.15914,-2.01826 z m -46.47564,9.12504 c -0.29561,-0.35618 -0.62498,-0.56012 -0.73192,-0.45316 -0.29467,0.29465 0.30403,1.10077 0.81754,1.10077 0.28175,0 0.24952,-0.24379 -0.0856,-0.64761 z m 5.28388,-0.096 c 0.12862,-0.40896 0.16957,-3.13362 0.091,-6.0548 -0.11283,-4.19523 -0.26755,-5.31123 -0.73633,-5.31123 -0.46825,0 -0.61946,1.07598 -0.71655,5.09878 -0.12637,5.23613 0.0609,7.01082 0.73987,7.01082 0.21349,0 0.4934,-0.3346 0.62201,-0.74357 z m 0.20949,-15.57367 c 0.87495,-0.93135 0.90693,-1.12048 0.36448,-2.15577 -0.72987,-1.393 -1.35855,-0.81667 -1.72712,1.58331 -0.28464,1.85346 0.0336,1.98716 1.36264,0.57246 z m 25.10785,-0.88385 c 2.92118,-0.32512 6.2431,-0.67794 7.38204,-0.78406 1.89791,-0.17682 3.02619,-0.87557 2.57988,-1.59771 -0.0988,-0.15979 -0.89877,-0.0339 -1.77779,0.27974 -0.87901,0.31367 -2.30741,0.57869 -3.17422,0.58894 -0.86681,0.01 -2.97006,0.20279 -4.67389,0.42786 -1.70383,0.22505 -6.06153,0.70545 -9.68378,1.06755 -9.59667,0.95931 -9.82158,1.03071 -2.54939,0.80932 3.62225,-0.11033 8.97597,-0.46652 11.89715,-0.79164 z m 18.39872,-2.63272 c 0.65469,-0.33317 1.29929,-0.88968 1.43245,-1.2367 0.29941,-0.78021 -1.01221,-2.298904 -1.98543,-2.298904 -0.39496,0 -1.06416,-0.382417 -1.48714,-0.849803 -0.77492,-0.856258 -1.91205,-1.151522 -1.91205,-0.496452 0,0.194332 0.98479,0.99146 2.18843,1.771389 2.41579,1.56538 2.44452,1.368 -0.5119,3.51696 l -1.03918,0.75535 1.06225,-0.27806 c 0.58424,-0.15288 1.59789,-0.55064 2.25257,-0.88378 z m -28.59629,-0.36429 c 5.45676,-0.27052 11.36504,-1.07265 17.16217,-2.330055 3.22924,-0.70042 4.04627,-1.048535 4.93256,-2.101646 0.58423,-0.694205 1.5132,-1.423516 2.06439,-1.620707 0.98733,-0.353221 0.97122,-0.392132 -1.09007,-2.633878 l -2.0922,-2.275358 -6.77056,1.137068 c -8.01675,1.346368 -18.24314,2.389635 -23.93226,2.441507 -5.22632,0.04769 -8.72132,0.49899 -7.40236,0.955969 1.72886,0.598975 3.53158,3.120134 3.53158,4.93901 0,2.30141 -0.87593,2.20553 13.59675,1.48809 z m -21.24493,-1.42294 c 0,-0.44055 -0.27932,-1.444374 -0.62071,-2.230711 l -0.62072,-1.429715 -0.0166,2.23073 c -0.0127,1.706976 0.13301,2.230716 0.62072,2.230716 0.35054,0 0.63735,-0.36047 0.63735,-0.80102 z m 6.55618,-0.42553 c 0.12807,-0.20721 -0.0997,-0.637423 -0.50605,-0.956021 -0.65271,-0.511709 -0.67738,-0.500371 -0.21146,0.09716 0.29009,0.372043 0.40163,0.802251 0.24786,0.956021 -0.15377,0.15368 -0.16339,0.27957 -0.0214,0.27957 0.14201,0 0.36297,-0.16954 0.49104,-0.37675 z m -1.8977,-2.025047 c -0.71909,-1.130725 -3.67792,-3.121884 -4.63907,-3.121884 -1.2899,0 -1.55215,0.925328 -0.47334,1.670136 1.10529,0.763115 5.27192,2.564664 5.47593,2.367682 0.0746,-0.0721 -0.089,-0.484199 -0.36352,-0.915934 z m -8.83449,-3.225402 c 0.1864,-0.293609 0.34184,-0.647553 0.34542,-0.786561 0.004,-0.139073 -6.15983,-0.392245 -13.69647,-0.562761 -19.91958,-0.450701 -22.14971,-0.954043 -4.57127,-1.031753 23.82716,-0.105348 42.47374,-1.146367 54.17817,-3.024711 7.02638,-1.12761 15.92842,-3.119219 19.83271,-4.437098 3.79316,-1.280364 4.65451,-1.393565 3.734,-0.490735 -0.34221,0.33562 -2.91664,1.302205 -5.72097,2.147977 -2.80433,0.845771 -5.28179,1.719759 -5.50546,1.94221 -0.2587,0.257252 -0.16834,0.642784 0.24827,1.059391 0.58852,0.588536 0.7806,0.589034 1.89383,0.0048 0.68139,-0.357509 2.87691,-1.127096 4.87898,-1.710172 2.00204,-0.583076 4.29195,-1.499444 5.08866,-2.03635 1.28576,-0.866472 3.58171,-3.658566 3.26714,-3.973148 -0.066,-0.066 -1.64495,0.242509 -3.50863,0.685742 -19.90899,4.734898 -47.5299,7.628406 -72.85941,7.632613 -25.60754,0.0048 -48.60148,-2.035643 -69.25847,-6.144186 -4.08965,-0.813397 -7.72253,-1.474488 -8.07307,-1.469076 -0.35055,0.0048 1.04868,0.678066 3.10939,1.494803 4.11741,1.631851 9.47836,3.006274 17.92308,4.595039 6.20036,1.166505 5.99415,1.402704 -0.42489,0.486641 -11.21261,-1.600119 -21.10094,-4.241674 -23.38488,-6.246997 -2.0355,-1.787208 -2.23205,-1.32411 -0.36418,0.858073 1.89933,2.218942 2.77283,2.668566 7.81536,4.022851 18.87466,5.069251 49.01528,8.162293 74.96785,7.693253 7.20006,-0.130079 9.83445,-0.315594 10.08484,-0.709975 z m -62.63929,-4.851817 c 0.29212,-0.117874 0.77013,-0.117874 1.06225,0 0.29211,0.117874 0.0531,0.214326 -0.53113,0.214326 -0.58423,0 -0.82324,-0.09652 -0.53112,-0.214326 z m 78.92491,-5.217203 c 20.89159,-1.834374 39.15209,-5.283673 52.84503,-9.982117 2.83096,-0.971387 8.55282,-3.83936 8.55282,-4.286945 0,-0.463547 -3.37114,-1.801324 -11.22238,-4.45343 -12.6352,-4.268075 -20.59086,-7.521741 -35.27337,-14.425911 -10.29878,-4.8428 -34.63927,-18.69405 -39.67009,-22.57473 -0.82812,-0.638785 -1.78702,-0.739829 -6.41406,-0.675801 l -5.44037,0.07532 -2.93372,1.949951 c -4.94756,3.288499 -11.74278,7.282781 -23.9662,14.087513 -15.13934,8.428008 -31.96684,15.76722 -50.515051,22.031834 -8.643318,2.91925 -10.02402,3.534669 -9.571801,4.266373 0.537455,0.869619 6.275915,3.358468 11.963662,5.188827 13.82318,4.448355 36.10752,7.898633 59.38301,9.194254 8.32159,0.463211 45.706,0.180601 52.26252,-0.395087 z M 161.66335,81.29306 c -26.21947,-1.824545 -52.59821,-5.910991 -60.86672,-9.429136 -1.110046,-0.472316 -2.016582,-1.074213 -2.014523,-1.337551 0.0021,-0.263338 3.873943,-1.791335 8.604193,-3.395533 13.33538,-4.5225 22.71013,-8.328071 32.60723,-13.236521 10.59067,-5.252405 24.03112,-13.04333 32.29229,-18.718637 2.2201,-1.525171 3.46292,-2.276627 2.76184,-1.669912 -2.24483,1.942693 -9.18269,6.72177 -14.87145,10.244074 -17.3606,10.749118 -28.84922,16.351645 -51.73556,25.229341 -2.5145,0.975386 -4.46593,1.944749 -4.33652,2.154144 0.66966,1.083544 14.12028,4.229067 24.20468,5.660436 34.90467,4.954331 80.42615,4.694109 112.59813,-0.643667 5.84958,-0.970519 16.7123,-3.548689 18.90799,-4.48762 l 1.48714,-0.635942 -3.82409,-1.461352 c -26.02973,-9.947043 -40.96507,-17.457206 -60.79183,-30.568883 -3.99004,-2.638665 -7.51247,-5.108275 -7.82764,-5.488026 -0.31517,-0.37975 1.41977,0.634755 3.85542,2.254466 18.79051,12.49568 41.2625,23.617869 62.841,31.102272 9.80312,3.400158 9.78367,3.392578 9.78367,3.816138 0,0.930725 -10.88368,4.101847 -19.54533,5.694819 -19.33922,3.556719 -35.86098,4.971836 -60.12314,5.149659 -10.28255,0.07532 -21.0856,-0.02923 -24.00678,-0.232569 z m 87.10422,-9.832927 c -4.8052,-2.190582 -13.89408,-6.75429 -14.66018,-7.361166 -0.46674,-0.36973 0.32279,-0.09989 1.75453,0.599553 1.43174,0.699473 5.44702,2.533782 8.92287,4.076232 3.47584,1.542434 6.50136,2.985639 6.72338,3.207095 0.6769,0.675255 -0.68273,0.41643 -2.7406,-0.521714 z m -134.44825,0.08495 c 0.22802,-0.228008 3.91088,-2.034664 8.18413,-4.014774 4.27325,-1.98011 8.66604,-4.087939 9.76175,-4.684039 1.7005,-0.925153 1.83666,-0.951152 0.92995,-0.177663 -0.58424,0.498396 -4.59953,2.608939 -8.92287,4.69011 -4.32335,2.081171 -8.19264,3.967785 -8.59843,4.192452 -0.98377,0.544679 -1.90116,0.540552 -1.35453,-0.0064 z m 71.65534,-45.708188 c 0.38451,-0.384504 -0.4115,-3.259608 -1.01738,-3.674721 -0.30902,-0.211708 -1.79328,-0.298443 -3.29836,-0.192726 -3.02366,0.212382 -3.84942,0.83612 -3.84942,2.907688 v 1.193484 h 3.96572 c 2.18115,0 4.0709,-0.105187 4.19944,-0.233725 z m -2.06995,-6.560375 c 0.99943,-2.003413 1.21617,-3.622818 0.72768,-5.436941 -0.51246,-1.903124 -1.9351,-3.9151115 -2.76832,-3.9151115 -0.85942,0 -1.93719,1.9445235 -2.46044,4.4391215 -0.4014,1.913674 -0.35932,2.557116 0.27598,4.22062 0.68474,1.792989 0.87245,1.962735 2.17045,1.962735 1.15312,0 1.54032,-0.23941 2.05465,-1.270424 z m -3.53393,-1.035254 c -0.24023,-0.631864 -0.42839,-1.471003 -0.41813,-1.864758 0.0103,-0.393738 0.28845,0.04159 0.6182,0.96742 0.66953,1.879789 0.48616,2.702243 -0.20007,0.897338 z"
       id="path11" /></g><metadata
     id="metadata182"><rdf:RDF><cc:Work
         rdf:about=""><cc:license
           rdf:resource="http://creativecommons.org/licenses/by-sa/4.0/" /><dc:publisher><cc:Agent><dc:title>OpenDataKerala.org</dc:title></cc:Agent></dc:publisher><dc:date>April 2026</dc:date><dc:title>Election Symbols of Kerala</dc:title><dc:creator><cc:Agent><dc:title>Manoj Karingamadathil</dc:title></cc:Agent></dc:creator></cc:Work><cc:License
         rdf:about="http://creativecommons.org/licenses/by-sa/4.0/"><cc:permits
           rdf:resource="http://creativecommons.org/ns#Reproduction" /><cc:permits
           rdf:resource="http://creativecommons.org/ns#Distribution" /><cc:requires
           rdf:resource="http://creativecommons.org/ns#Notice" /><cc:requires
           rdf:resource="http://creativecommons.org/ns#Attribution" /><cc:permits
           rdf:resource="http://creativecommons.org/ns#DerivativeWorks" /><cc:requires
           rdf:resource="http://creativecommons.org/ns#ShareAlike" /></cc:License></rdf:RDF></metadata></svg>
