<?xml version="1.0" encoding="UTF-8" standalone="no"?>
<!-- Created with Inkscape (http://www.inkscape.org/) -->

<svg
   width="1500"
   height="1500"
   viewBox="0 0 396.87499 396.875"
   version="1.1"
   id="svg5"
   xml:space="preserve"
   inkscape:version="1.3 (0e150ed6c4, 2023-07-21)"
   sodipodi:docname="Man blowing Turha.svg"
   inkscape:export-filename="Flute.png"
   inkscape:export-xdpi="96"
   inkscape:export-ydpi="96"
   xmlns:inkscape="http://www.inkscape.org/namespaces/inkscape"
   xmlns:sodipodi="http://sodipodi.sourceforge.net/DTD/sodipodi-0.dtd"
   xmlns="http://www.w3.org/2000/svg"
   xmlns:svg="http://www.w3.org/2000/svg"
   xmlns:rdf="http://www.w3.org/1999/02/22-rdf-syntax-ns#"
   xmlns:cc="http://creativecommons.org/ns#"
   xmlns:dc="http://purl.org/dc/elements/1.1/"><title
     id="title186">Election Symbols of Kerala</title><sodipodi:namedview
     id="namedview7"
     pagecolor="#ffffff"
     bordercolor="#000000"
     borderopacity="0.25"
     inkscape:showpageshadow="2"
     inkscape:pageopacity="0.0"
     inkscape:pagecheckerboard="0"
     inkscape:deskcolor="#d1d1d1"
     inkscape:document-units="mm"
     showgrid="false"
     inkscape:zoom="0.25"
     inkscape:cx="230"
     inkscape:cy="1082"
     inkscape:window-width="1920"
     inkscape:window-height="991"
     inkscape:window-x="-9"
     inkscape:window-y="-9"
     inkscape:window-maximized="1"
     inkscape:current-layer="layer1" /><defs
     id="defs2"><inkscape:path-effect
       effect="bspline"
       id="path-effect3248"
       is_visible="true"
       lpeversion="1"
       weight="33.333333"
       steps="2"
       helper_size="0"
       apply_no_weight="true"
       apply_with_weight="true"
       only_selected="false" /><inkscape:path-effect
       effect="bspline"
       id="path-effect577"
       is_visible="true"
       lpeversion="1"
       weight="33.333333"
       steps="2"
       helper_size="0"
       apply_no_weight="true"
       apply_with_weight="true"
       only_selected="false" /></defs><g
     inkscape:label="Layer 1"
     inkscape:groupmode="layer"
     id="layer1"><path
       style="fill:#000000"
       d="m 179.22778,365.01141 c -0.45166,-0.19662 -1.06253,-0.69797 -1.3575,-1.11413 -1.04975,-1.48107 -4.0776,-8.45406 -7.04956,-16.23477 -4.38742,-11.48646 -9.14278,-22.01572 -10.62881,-23.53415 -0.32706,-0.3342 -0.992,-0.2909 -5.20789,0.3391 -6.82297,1.01959 -6.57369,1.0474 -8.54527,-0.95348 -1.83473,-1.862 -4.10215,-3.11171 -6.94146,-3.82586 -1.44565,-0.36362 -3.0291,-0.44592 -8.39624,-0.43641 -7.45714,0.0132 -9.61966,0.2683 -12.09503,1.42667 -0.95785,0.44823 -1.90927,0.73015 -2.15102,0.63738 -0.23842,-0.0915 -0.57569,-0.64096 -0.74949,-1.22105 -0.21323,-0.71169 -0.62275,-1.26362 -1.25919,-1.69707 -1.47739,-1.00618 -5.99781,-2.6664 -8.6161,-3.16445 -1.30969,-0.24913 -2.53008,-0.49212 -2.71198,-0.53998 -0.18276,-0.0481 -0.33073,-0.48991 -0.33073,-0.98753 0,-0.69002 0.58028,-1.78973 2.48251,-4.70466 3.97581,-6.09245 4.74707,-7.58897 10.55113,-20.47288 3.72001,-8.25773 4.81225,-11.18436 5.97406,-16.0073 1.27725,-5.30215 2.51361,-11.11766 2.38528,-11.21972 -0.0517,-0.0411 -2.17762,-1.23714 -4.72423,-2.65781 -5.44864,-3.03961 -9.2936,-5.54041 -10.58334,-6.88351 -0.88698,-0.92368 -0.92298,-1.03681 -0.85346,-2.68227 l 0.0726,-1.71791 -1.52778,-1.60687 c -0.84028,-0.88378 -3.13513,-2.98437 -5.09966,-4.66798 -4.304647,-3.68911 -7.852117,-7.19866 -8.199207,-8.11157 -0.47616,-1.2524 0.6868,-8.04956 2.2782,-13.31543 2.30814,-7.63753 7.144227,-16.58141 12.757957,-23.5946 2.30501,-2.87964 7.43141,-7.9996 9.47414,-9.46225 0.76483,-0.54763 1.39631,-1.12161 1.4033,-1.27549 0.007,-0.15389 -0.52309,-0.65745 -1.17793,-1.11903 -0.66939,-0.47183 -1.19063,-1.05056 -1.19063,-1.32195 0,-0.94263 2.44835,-2.80881 5.22493,-3.98253 1.69893,-0.71818 2.12579,-0.55346 4.29104,1.65584 2.08078,2.12311 2.93196,1.97234 4.23093,-0.74941 1.03144,-2.16119 2.31968,-3.33272 3.65866,-3.3272 0.54064,0.002 1.1111,0.0915 1.26769,0.19844 0.16428,0.11216 0.41675,2.2089 0.59687,4.95688 0.17169,2.61938 0.49749,5.65547 0.724,6.74688 0.52822,2.54514 2.66977,9.00167 4.13472,12.46569 l 1.13884,2.69289 0.17337,-1.03086 c 0.21594,-1.28399 -0.12378,-7.10438 -0.87864,-15.05376 -0.31782,-3.34698 -0.5868,-7.27605 -0.59774,-8.73125 l -0.0199,-2.64584 1.41119,-0.46806 c 1.96059,-0.65029 7.46571,-1.25173 11.45732,-1.25173 3.81304,0 3.67115,-0.0905 3.66279,2.33674 -0.0161,4.66717 -2.12956,14.49609 -5.57026,25.90495 -0.71706,2.37767 -1.30374,4.40012 -1.30374,4.49434 0,0.0942 0.35443,-0.16826 0.78763,-0.5833 0.90216,-0.86431 1.16967,-1.5966 1.59695,-4.37148 0.867,-5.6306 3.56681,-14.4527 6.47759,-21.16667 0.53626,-1.23692 1.00153,-2.7252 1.03392,-3.30729 0.0893,-1.60372 0.57092,-1.75061 5.44974,-1.66199 4.01903,0.073 4.13808,0.092 5.95313,0.94823 1.01864,0.48055 2.74505,1.4564 3.83645,2.16855 1.5145,0.98821 2.45426,1.39194 3.96875,1.70502 3.81931,0.78952 13.00321,5.87786 15.27625,8.46381 1.45482,1.65508 2.16825,3.20548 3.45657,7.51162 0.65253,2.18104 1.28225,3.76718 1.65181,4.16056 0.32849,0.34966 2.07756,1.43301 3.88682,2.40744 5.4487,2.93454 11.31018,6.91716 14.27542,9.69953 1.23835,1.16197 1.39064,1.43007 1.55373,2.73545 0.13257,1.06101 0.33105,1.54323 0.74376,1.80701 0.30961,0.19789 2.21816,0.61877 4.24121,0.93529 9.93341,1.55415 18.41443,4.58144 18.41443,6.57299 0,0.59693 -1.09916,1.65133 -2.9149,2.79618 l -1.4222,0.89673 1.01024,0.4221 c 0.55563,0.23216 1.10296,0.4221 1.21629,0.4221 0.11333,0 0.91881,0.53578 1.78994,1.19063 1.21686,0.91473 1.81234,1.19062 2.56979,1.19062 0.54226,0 3.38342,-0.79058 6.31369,-1.75686 11.84057,-3.90448 21.06977,-7.92216 23.74,-10.33454 1.71337,-1.54793 1.61545,-2.33923 -0.73422,-5.93362 -1.68693,-2.58058 -2.14572,-4.10034 -1.63941,-5.43062 0.53995,-1.41868 1.38788,-1.89601 4.88387,-2.74932 3.39916,-0.82968 3.02644,-0.58871 5.50582,-3.55967 1.25257,-1.50091 1.80186,-1.73724 4.59454,-1.97679 2.07499,-0.17798 2.24551,-0.24212 3.43958,-1.29374 3.09094,-2.72221 3.88596,-2.94424 10.55112,-2.94663 l 4.26769,-10e-4 1.08956,-1.44312 c 1.26275,-1.67249 1.12273,-1.63205 6.49681,-1.8765 l 3.68634,-0.16767 1.51794,-1.32027 c 4.32965,-3.76582 12.96169,-15.07105 16.33781,-21.39735 1.66452,-3.11904 3.11112,-7.39644 3.59189,-10.6207 0.20216,-1.35576 0.33098,-2.5026 0.28628,-2.54854 -0.0447,-0.0459 -0.36676,0.31125 -0.71568,0.79375 -5.72258,7.91343 -7.69181,9.99082 -14.37761,15.16733 -5.84554,4.52593 -6.98135,5.66628 -9.11625,9.15265 -2.01815,3.29571 -4.48302,5.84488 -6.88143,7.11677 -2.4652,1.30731 -4.35299,1.29572 -7.27604,-0.0447 -1.16417,-0.53385 -2.405,-1.0101 -2.7574,-1.05833 -0.92296,-0.12634 -0.93023,-0.50998 -0.0331,-1.74837 1.1842,-1.63474 4.11652,-3.69293 9.14054,-6.41573 4.56138,-2.47206 8.28464,-4.78201 11.64167,-7.22259 5.81437,-4.22709 12.13033,-10.12939 15.16491,-14.1717 3.02542,-4.0301 4.44837,-7.76365 3.36993,-8.84209 -0.5723,-0.5723 -0.67174,-0.52123 -6.57623,3.37731 -8.41289,5.55476 -17.97604,10.58694 -25.32007,13.32353 -6.52882,2.43283 -19.42307,5.93726 -26.98677,7.33454 -18.44955,3.40826 -33.57854,2.813 -48.20478,-1.89666 -23.88882,-7.69223 -42.14471,-23.34562 -55.19425,-47.32595 -4.54399,-8.3502 -8.49743,-19.03673 -10.91381,-29.501042 -1.46723,-6.353977 -3.95664,-19.438848 -3.95664,-20.796966 0,-0.607027 -1.04458,1.249493 -4.66884,8.297874 -5.43854,10.576728 -6.38047,12.519831 -6.76374,13.952809 -0.46484,1.737987 -0.25288,1.853574 3.39893,1.853574 2.9883,0 3.06529,-0.015 3.66706,-0.714602 1.10933,-1.289676 1.71218,-3.453321 2.00069,-7.180593 0.50482,-6.521781 0.46116,-6.302473 1.23624,-6.209417 1.49979,0.180065 2.37007,2.95249 2.09142,6.662563 -0.14885,1.981744 -0.83231,4.296826 -2.84616,9.64069 -0.58309,1.54728 -0.59617,1.68813 -0.17863,1.92438 1.12097,0.63424 2.7706,2.06209 3.31402,2.86847 0.81407,1.20801 1.1514,2.43896 1.31729,4.80699 0.16851,2.40548 -0.091,3.01877 -1.44691,3.41997 -1.5404,0.45578 -8.62315,0.6382 -10.90667,0.28091 -3.1703,-0.49604 -3.62366,-1.25305 -2.76279,-4.61325 0.59719,-2.33099 1.49721,-3.70622 3.40853,-5.20827 3.02399,-2.37646 2.76362,-2.65955 -2.6752,-2.90866 -2.30589,-0.10562 -4.4042,-0.27988 -4.6629,-0.38726 -0.55286,-0.22945 -0.98484,-0.954082 -0.98484,-1.652015 0,-0.91424 3.3709,-7.29572 6.74469,-12.768447 3.57044,-5.791713 6.3722,-11.168193 6.63426,-12.730928 0.13634,-0.813041 0.0391,-1.09524 -0.64673,-1.876326 -0.98579,-1.122754 -1.22876,-1.741897 -1.47714,-3.764072 -0.10609,-0.863657 -0.30434,-1.863433 -0.44056,-2.221725 l -0.24768,-0.651441 -2.96831,0.160764 c -7.64069,0.413818 -24.93887,5.096292 -36.17354,9.791879 -19.630277,8.204575 -33.143057,18.075017 -37.301977,27.247321 -1.44134,3.1788 -1.32839,4.48379 0.51641,5.96631 1.16203,0.93384 2.39522,3.21063 2.3778,4.39006 -0.015,1.0159 -0.44226,1.95585 -1.39162,3.06146 l -0.7421,0.86425 -5.34331,-0.15478 c -6.13118,-0.1776 -8.20777,-0.53723 -13.68767,-2.37046 C 48.777403,110.28522 38.741573,105.3825 30.294803,99.683146 17.092143,90.774823 7.5601433,80.255773 4.4603133,71.173451 c -0.71342,-2.090307 -0.86045,-2.922288 -0.87315,-4.941041 -0.013,-2.062347 0.0679,-2.539939 0.53768,-3.175 1.67091,-2.258752 5.00585,-2.208208 11.2209997,0.170062 1.81901,0.696058 4.14073,1.4292 5.15938,1.629206 2.84001,0.557623 17.58583,0.479804 22.75416,-0.120081 11.16912,-1.296392 15.96467,-2.434105 38.5721,-9.150963 30.540307,-9.073786 42.486887,-11.804743 65.409157,-14.952368 17.41316,-2.391129 27.67285,-2.924666 52.36972,-2.723396 18.86055,0.153707 23.24871,0.445856 38.91153,2.590596 28.44243,3.894676 48.97962,9.849042 69.71771,20.213315 14.77217,7.38269 24.41992,14.190993 34.66792,24.464749 8.238,8.258698 12.8454,14.738328 18.13188,25.49984 1.34464,2.73724 2.66516,5.22416 2.93448,5.5265 0.26932,0.30233 1.44217,1.17954 2.60634,1.94935 5.14675,3.40331 6.99073,5.70997 9.43242,11.79917 3.80278,9.48353 5.07668,14.40971 5.05218,19.53673 -0.025,5.24004 -0.42991,6.69909 -4.25856,15.34684 l -1.34756,3.04371 0.5217,1.67621 c 0.36271,1.16542 0.52169,2.43117 0.52169,4.15362 0,2.40214 0.0336,2.54007 1.10519,4.54049 l 1.10518,2.06309 0.19062,4.01109 0.19061,4.01108 1.0707,0.96731 c 1.51637,1.36995 1.61907,1.82328 2.54888,11.25114 0.25103,2.54526 0.70953,5.25534 1.20861,7.14375 4.19704,15.88073 4.60241,17.72334 5.03492,22.88647 0.37725,4.50347 0.20566,7.50112 -0.52725,9.21094 -2.00293,4.67264 -7.75265,9.43415 -14.27971,11.82545 l -1.69079,0.61945 1.75324,1.60749 c 0.96428,0.88413 1.86796,1.92688 2.00817,2.31723 0.30012,0.83549 0.0324,1.94981 -0.7868,3.27536 -0.69291,1.12116 -0.7455,1.02187 2.50775,4.73568 5.3508,6.1083 7.85653,11.37676 11.0145,23.15873 1.54581,5.76721 2.89202,12.15496 2.89202,13.72264 0,1.56736 -0.52704,2.64333 -1.92312,3.92607 -1.55998,1.43336 -3.58513,2.44128 -7.81852,3.89133 -13.34581,4.57129 -38.44212,8.73035 -74.52815,12.3511 -1.74625,0.17521 -3.31101,0.39084 -3.47725,0.47917 -0.20541,0.10915 0.0991,1.13536 0.95044,3.20331 3.88592,9.4388 6.17241,18.99118 7.04297,29.42381 0.50409,6.04093 0.42723,6.72025 -0.81925,7.24107 -1.40164,0.58564 -4.13639,0.49527 -4.97503,-0.16441 -0.94061,-0.73988 -1.15486,-1.68042 -1.77531,-7.79317 -1.28788,-12.68845 -2.48552,-18.03109 -6.12858,-27.33936 l -1.58744,-4.05602 -1.22986,0.15312 c -0.67642,0.0842 -4.38501,0.38983 -8.24131,0.67914 -17.83431,1.33797 -21.09672,1.61369 -21.97821,1.85751 -0.5191,0.14359 -1.76926,0.92409 -2.77812,1.73445 -6.45601,5.18576 -17.14418,9.67814 -22.20721,9.33399 -1.26083,-0.0857 -1.32665,-0.12813 -1.40241,-0.90402 -0.13344,-1.36647 0.53682,-1.78822 5.63574,-3.54614 7.13642,-2.46039 12.80303,-5.32251 11.78435,-5.95209 -0.15877,-0.0981 -5.19691,-0.28832 -11.19588,-0.42266 -13.4758,-0.30179 -17.08441,-0.56683 -18.71243,-1.37441 -1.48443,-0.73634 -1.7465,-1.62477 -0.61366,-2.08038 0.50212,-0.20195 5.67564,-0.36966 15.8272,-0.51307 8.29469,-0.11718 17.34344,-0.33805 20.10834,-0.49083 14.76008,-0.81559 26.99541,-1.76079 43.25937,-3.34186 20.36121,-1.97937 21.84941,-2.14467 22.47073,-2.4959 0.46514,-0.26295 0.17673,-0.40335 -3.55302,-1.72968 -2.6171,-0.93065 -3.57188,-1.79408 -3.57188,-3.23009 0,-2.12632 1.77073,-2.82454 3.55904,-1.40336 1.23546,0.98182 2.96619,1.63296 7.08885,2.667 1.7835,0.44734 3.99942,1.04459 4.92425,1.32723 2.27602,0.69557 4.95281,0.66028 11.34123,-0.14951 16.60824,-2.10523 31.4958,-5.48736 36.19795,-8.22339 0.58659,-0.34131 1.40753,-0.97651 1.82432,-1.41155 l 0.75781,-0.79097 -0.18795,-2.97024 c -0.34283,-5.41796 -2.09977,-14.66247 -3.88807,-20.4579 -1.53448,-4.97286 -4.77573,-10.40303 -8.60715,-14.41981 -2.59685,-2.72248 -4.02263,-3.61678 -8.17199,-5.12572 -3.97682,-1.4462 -4.8352,-1.89183 -5.20424,-2.7018 -0.24166,-0.53039 -0.20821,-0.74367 0.18477,-1.1779 0.74357,-0.82164 1.69413,-0.65652 6.08639,1.05726 2.23774,0.87312 4.24477,1.5875 4.46006,1.5875 0.72318,0 1.22848,-0.31777 1.22848,-0.77256 0,-0.77385 -1.34959,-1.78546 -4.23334,-3.17315 -2.39524,-1.15263 -3.12454,-1.37529 -5.29166,-1.61561 -2.98993,-0.33156 -4.67344,-0.88502 -4.90427,-1.61228 -0.3008,-0.94774 0.27413,-1.20486 3.10959,-1.39068 1.48749,-0.0975 2.80036,-0.27308 2.9175,-0.39021 0.23048,-0.23048 -0.498,-1.24217 -4.12592,-5.72989 -1.29404,-1.60073 -2.68206,-3.12193 -3.08448,-3.38045 -1.19939,-0.7705 -4.49714,-1.24772 -8.81851,-1.27613 -4.39764,-0.0289 -5.28823,-0.16769 -5.41854,-0.84435 -0.14769,-0.76689 1.15805,-1.01427 6.51009,-1.23333 2.80674,-0.11488 5.16194,-0.26765 5.23378,-0.33949 0.0718,-0.0718 -0.17189,-0.32881 -0.54161,-0.57106 -1.05203,-0.68932 -4.49413,-1.00432 -11.38284,-1.04171 -7.21825,-0.0392 -9.36674,0.24018 -14.20299,1.84673 -4.28337,1.42289 -4.9133,2.30655 -3.22544,4.52469 0.84921,1.11601 1.94366,1.1305 4.45622,0.059 2.17763,-0.92869 3.80725,-1.02904 4.48839,-0.27639 0.85848,0.94861 0.32591,1.51442 -2.86282,3.0415 -4.54085,2.17461 -5.34742,3.42458 -5.13485,7.95767 0.12088,2.57786 0.72916,4.22281 1.85245,5.0096 1.1548,0.80885 1.41359,0.65034 4.4035,-2.69719 1.58739,-1.77725 2.31111,-2.35876 3.93365,-3.16066 2.54112,-1.25589 4.98152,-1.52045 5.86604,-0.63594 1.01779,1.01779 0.74131,1.41815 -1.85527,2.68653 -2.13682,1.0438 -2.71354,1.49288 -5.0321,3.91848 -3.39417,3.55086 -3.97787,4.54874 -4.14019,7.07798 -0.0691,1.07602 -0.0618,1.95641 0.0161,1.95641 0.0779,0 1.14197,-0.47998 2.36456,-1.06662 1.22258,-0.58663 2.6563,-1.13694 3.18605,-1.22291 1.34934,-0.21897 2.31481,0.0691 2.31481,0.69062 0,0.4891 -0.73362,1.19562 -5.29167,5.09624 l -1.98438,1.69816 -0.21913,3.44867 c -0.14813,2.33118 -0.12547,3.79653 0.0699,4.52222 l 0.28907,1.07356 7.73527,0.11163 c 6.62133,0.0956 8.09723,0.19196 10.24881,0.66948 2.745,0.60923 4.65147,1.22618 5.20268,1.68364 0.57943,0.48089 0.40424,1.48656 -0.41937,2.40728 -0.70331,0.78622 -0.89997,0.8602 -2.18282,0.82118 -0.77543,-0.0236 -2.66002,-0.36491 -4.18799,-0.7585 -2.63149,-0.67785 -3.19041,-0.72256 -10.58908,-0.84711 -10.35244,-0.17427 -11.21071,-0.0293 -15.31699,2.58784 -1.40347,0.89449 -1.49078,0.91318 -4.36562,0.93475 -3.42014,0.0257 -3.90887,0.21445 -7.01386,2.70929 -2.44784,1.96682 -4.66297,2.70706 -5.52403,1.84599 -0.48514,-0.48513 -0.37874,-1.76377 0.21629,-2.59941 0.77554,-1.08915 3.42688,-2.77004 5.4105,-3.43015 0.94575,-0.31472 1.98948,-0.80125 2.3194,-1.08116 0.59694,-0.50645 0.59728,-0.51097 0.0707,-0.93051 -0.45579,-0.36313 -1.2079,-0.40302 -5.42396,-0.28765 -8.13127,0.2225 -11.2047,1.29557 -15.22055,5.31414 -3.70988,3.71239 -4.58744,6.02941 -4.61908,12.19579 -0.007,1.30968 -0.10387,2.52546 -0.21588,2.70171 -0.30216,0.47547 -2.03354,1.13474 -2.98004,1.13474 -1.1493,0 -2.28949,-0.89141 -2.63736,-2.06192 -0.45027,-1.51502 -0.65603,-9.02987 -0.27857,-10.1736 0.34756,-1.05312 3.01755,-3.73323 5.84315,-5.86528 2.26226,-1.707 3.45119,-2.83303 3.28138,-3.10779 -0.0757,-0.12246 -0.93426,-0.22236 -1.90793,-0.22199 -2.10453,7.9e-4 -5.64735,0.89813 -8.95393,2.26788 -4.74377,1.96511 -5.69002,2.25684 -7.05626,2.17546 -1.63542,-0.0974 -2.1048,-0.64223 -1.49415,-1.73431 0.3641,-0.65116 1.32339,-1.32356 3.97661,-2.78732 1.10745,-0.61097 0.75772,-1.0032 -1.13475,-1.27261 -0.76744,-0.10925 -7.6114,-0.20733 -15.20879,-0.21795 l -13.81344,-0.0193 -4.16307,2.2414 c -5.6702,3.05283 -8.05114,3.49318 -9.07025,1.67751 -0.68508,-1.22056 -0.11443,-1.88565 2.81646,-3.28256 1.42427,-0.67883 2.7527,-1.36428 2.95208,-1.52322 0.27475,-0.21904 -0.42977,-0.4401 -2.91042,-0.91323 -2.95973,-0.5645 -4.21186,-0.63693 -13.08521,-0.75688 -10.80693,-0.14609 -11.26945,-0.0985 -13.17529,1.35629 -1.39425,1.06426 -2.62284,1.72986 -3.19303,1.72986 -0.7216,0 -1.39215,-0.95089 -1.58704,-2.25054 l -0.18939,-1.26289 -4.80689,0.15383 c -5.45916,0.17469 -8.153,0.64714 -13.3788,2.34638 -4.89814,1.59269 -8.64987,3.25033 -10.63554,4.69913 -2.39442,1.74702 -2.61043,1.84794 -5.47217,2.55656 -3.79388,0.93945 -5.79361,2.27268 -7.21184,4.8082 -0.4667,0.83437 -1.23237,1.99329 -1.70148,2.57537 -1.56562,1.94266 -1.54442,1.7039 -0.67492,7.60083 1.72177,11.67697 1.3291,10.50777 6.5997,19.65111 3.80397,6.59905 6.60629,13.01123 10.75376,24.6064 0.67667,1.89177 1.88259,4.92786 2.67983,6.74687 3.18126,7.25849 3.50845,8.66957 2.29223,9.8858 -0.77439,0.77438 -1.41397,0.85183 -2.6372,0.31935 z m -23.91137,-43.03775 c 3.9376,-0.71923 3.92905,-0.71407 3.77684,-2.28321 -0.61211,-6.30996 -3.78273,-25.8306 -5.921,-36.45398 -1.38654,-6.88862 -5.10026,-22.02865 -5.50197,-22.43037 -0.3408,-0.34079 -0.47995,0.71976 -1.22458,9.33349 -1.04132,12.04566 -1.80384,18.16844 -4.50944,36.2092 -0.79338,5.29022 -1.4425,9.83913 -1.4425,10.1087 0,0.35426 0.74334,0.87194 2.68165,1.86758 1.4749,0.75761 3.46919,2.01148 4.43177,2.7864 1.63933,1.31973 1.84285,1.40914 3.21472,1.41228 0.80552,0.002 2.82805,-0.2457 4.49451,-0.55009 z m -35.12836,-8.37625 c 2.76768,-5.03684 5.84077,-11.25627 8.2689,-16.7349 2.81149,-6.34363 8.29601,-20.03173 9.75872,-24.35554 1.15293,-3.40808 3.33642,-11.12896 3.33642,-11.79765 0,-0.21809 -0.48636,-0.12939 -1.5273,0.27856 -3.01841,1.1829 -5.31067,1.60914 -8.65916,1.61014 -1.74625,5.2e-4 -3.39908,-0.0586 -3.67295,-0.13134 -0.44565,-0.1184 -0.58825,0.28457 -1.35765,3.83646 -1.04156,4.80827 -2.89712,11.89847 -3.63509,13.88983 -0.52345,1.41248 -6.96456,15.97831 -9.17674,20.75214 -1.23509,2.66528 -2.24336,4.40112 -4.77497,8.22053 -0.96455,1.4552 -1.83719,2.78457 -1.9392,2.95415 -0.12536,0.20839 0.65123,0.58377 2.39598,1.15815 3.01535,0.99267 5.92556,2.28093 7.37007,3.2625 0.56252,0.38224 1.15578,0.69499 1.31834,0.69499 0.16257,0 1.19515,-1.63711 2.29463,-3.63802 z m 16.79998,2.95208 c 0.47294,-0.0725 0.85989,-0.21803 0.85989,-0.32342 0,-0.1054 0.52974,-3.58259 1.1772,-7.72708 2.94011,-18.82016 3.77119,-25.38038 4.77188,-37.66766 0.36603,-4.4945 0.66552,-8.29854 0.66552,-8.45344 0,-0.83347 -0.58656,0.58256 -1.46154,3.52837 -3.77835,12.7205 -10.70676,29.62197 -18.68129,45.57196 -1.43624,2.87265 -2.61135,5.27116 -2.61135,5.33001 0,0.14634 14.20634,-0.0942 15.27969,-0.25874 z m 21.2102,-30.5349 c 0.93749,-3.49756 1.02201,-5.36755 0.36885,-8.15995 -0.57723,-2.46776 -0.35255,-2.93596 2.12446,-4.427 1.21487,-0.7313 2.67847,-2.02772 4.55452,-4.03428 2.58058,-2.7601 2.76437,-3.02892 2.76437,-4.0431 0,-1.58643 -1.54325,-4.34184 -3.52482,-6.29344 -2.18551,-2.15243 -9.16631,-7.26229 -11.7159,-8.57589 -0.80816,-0.41638 -0.83333,-0.40979 -1.61733,0.42358 -1.25015,1.32886 -2.19195,2.89094 -2.19195,3.63558 0,0.375 0.72251,3.29416 1.60557,6.48701 2.15149,7.77903 3.41262,12.94171 5.14647,21.06801 0.79753,3.73788 1.45005,6.88311 1.45005,6.98941 0,0.56275 0.30178,-0.33175 1.03571,-3.06993 z m 6.47332,0.38779 c 1.39603,-0.20935 3.02156,-1.2734 3.59626,-2.35407 0.35688,-0.67108 0.34706,-0.7639 -0.11671,-1.10302 -1.32839,-0.97134 -4.29066,0.33986 -5.34432,2.36558 -0.43475,0.83582 -0.27949,1.62757 0.27727,1.41392 0.19845,-0.0762 0.91282,-0.22124 1.5875,-0.32241 z m 159.06853,-5.44355 c 1.81921,-0.55903 2.22931,-1.10527 2.22255,-2.96033 -0.005,-1.26177 -0.1535,-1.5683 -0.97081,-1.9985 -0.87246,-0.45923 -1.66149,-0.0338 -3.92479,2.1161 -2.46138,2.33808 -2.76432,2.82289 -2.07916,3.32748 0.59336,0.437 2.32873,0.25998 4.75221,-0.48475 z m -22.37965,-0.36819 c 1.54302,-0.23781 4.48013,-0.38922 7.60677,-0.39213 l 5.09323,-0.005 v -1.53555 c 0,-2.04243 -0.90525,-3.83262 -3.13131,-6.19236 -5.06798,-5.37232 -14.44763,-9.38343 -28.08366,-12.00968 -5.04866,-0.97235 -5.82669,-1.28978 -5.82669,-2.37723 0,-1.15073 0.71268,-1.51664 2.63937,-1.35511 3.4095,0.28584 13.97906,3.10119 20.1236,5.3602 9.13485,3.35839 14.60498,6.62422 17.38353,10.37849 l 1.42548,1.92605 0.97599,-0.55521 c 0.53679,-0.30536 1.44575,-0.95349 2.01991,-1.44029 l 1.04393,-0.88508 -0.75849,-1.09451 c -1.96604,-2.83699 -7.05872,-6.52478 -12.06906,-8.73963 -3.57668,-1.58109 -3.89403,-1.83449 -3.46811,-2.76927 0.26576,-0.5833 0.47123,-0.6706 1.56828,-0.6664 2.85312,0.011 10.46144,4.06542 14.66166,7.81321 2.32071,2.07073 3.14155,1.89744 3.13143,-0.66107 -0.004,-0.93588 -0.20947,-1.90024 -0.56736,-2.65906 -0.30885,-0.65484 -0.65217,-1.88986 -0.76293,-2.74448 -0.18071,-1.39435 -0.33823,-1.69311 -1.53452,-2.91042 -0.73322,-0.74611 -1.46572,-1.7098 -1.62778,-2.14155 -0.36181,-0.96395 -0.36404,-5.00301 -0.004,-7.15251 0.36653,-2.18792 0.39316,-2.07333 -0.80291,-3.45528 -0.58956,-0.68118 -1.32164,-1.76977 -1.62686,-2.41908 -0.79124,-1.6833 -2.87334,-3.85242 -4.53087,-4.72025 l -1.42069,-0.74383 -0.90035,0.62855 c -0.49519,0.3457 -2.64023,2.00388 -4.76675,3.68484 -2.12651,1.68097 -4.68636,3.65161 -5.68854,4.37922 -1.00218,0.7276 -1.82214,1.50004 -1.82214,1.71652 0,0.26913 0.40617,0.45171 1.28436,0.57733 1.81817,0.26007 7.2947,1.94665 9.44927,2.91004 1.92462,0.86057 2.27268,1.31541 1.85243,2.42075 -0.35905,0.94438 -1.84887,1.32965 -3.74855,0.96938 -0.78277,-0.14845 -3.3891,-0.91299 -5.79183,-1.69899 -2.40273,-0.78599 -4.89528,-1.56774 -5.53901,-1.73723 -4.31756,-1.13673 -11.59824,-0.60837 -17.20742,1.24874 -3.01854,0.99939 -6.32402,2.84426 -8.50416,4.74638 -1.07668,0.93938 -2.46361,2.0105 -3.08208,2.38027 -0.61846,0.36976 -1.12448,0.77081 -1.12448,0.89122 0,0.2766 1.06097,0.61266 4.23334,1.34092 5.23495,1.20175 6.83277,2.54555 5.77836,4.85972 -0.53921,1.18344 -1.63457,1.01706 -7.82003,-1.1878 -6.30218,-2.24646 -7.03847,-2.38615 -11.05521,-2.09732 -5.60292,0.40289 -6.36881,0.52927 -8.06286,1.33043 -2.90963,1.37603 -2.41143,1.56165 8.85661,3.29964 13.26762,2.04642 17.40736,3.03485 17.8763,4.26826 0.28689,0.75457 -0.0305,1.52231 -0.79934,1.9338 -1.64144,0.87847 -8.08608,-0.0419 -24.353,-3.47805 -4.14734,-0.87605 -8.255,-1.60132 -9.12812,-1.61171 -1.28976,-0.0153 -2.60481,0.32135 -7.01146,1.79512 -2.98318,0.9977 -5.51775,1.89107 -5.63239,1.98526 -0.38097,0.31303 0.14202,2.41148 0.79418,3.18652 0.75174,0.89339 3.61828,1.89432 6.70318,2.3406 1.08432,0.15687 7.62695,0.46216 14.53919,0.67842 22.3467,0.69918 37.61695,1.62629 41.27501,2.50596 1.48047,0.35602 5.21514,0.29955 7.9375,-0.12001 z M 173.56668,280.2155 c 5.23546,-0.21766 6.20204,-0.40464 7.9276,-1.53349 0.62124,-0.4064 0.6274,-0.43569 0.1323,-0.62927 -0.2856,-0.11167 -1.23448,-0.21141 -2.10863,-0.22163 -0.87415,-0.0102 -2.66009,-0.32056 -3.96875,-0.68963 -2.01843,-0.56924 -3.14581,-0.69556 -7.43157,-0.83273 l -5.05217,-0.16171 -0.16973,0.6343 c -0.28375,1.06037 -0.19698,2.8022 0.15377,3.08697 0.76019,0.61718 2.57899,0.67722 10.51718,0.34719 z m 28.17813,-4.67413 c 4.87702,-0.35164 6.96223,-0.37314 12.86028,-0.13261 9.83074,0.40092 9.45018,0.41477 9.80169,-0.35671 0.34858,-0.76505 -0.32138,-5.01154 -1.12985,-7.16141 -0.99414,-2.64366 -0.84176,-2.86957 3.35309,-4.97095 1.31759,-0.66004 2.55256,-1.38917 2.74437,-1.62029 0.30626,-0.36903 0.24556,-0.42022 -0.49827,-0.42022 -0.46586,0 -2.89146,0.29343 -5.39021,0.65208 -6.89769,0.99002 -13.67756,1.53734 -16.58173,1.33859 -3.38556,-0.23169 -7.15999,-0.83726 -8.45962,-1.35727 -1.19283,-0.47727 -1.41967,-1.21892 -0.52008,-1.70037 0.34214,-0.18311 4.11253,-0.38202 10.12031,-0.53392 11.10471,-0.28076 15.2872,-0.62329 22.72757,-1.86129 6.9698,-1.15971 11.73312,-2.74296 13.16756,-4.3767 1.7739,-2.02036 1.26907,-3.69341 -1.63966,-5.434 -1.81302,-1.0849 -1.95897,-1.24415 -2.59172,-2.82788 -0.39842,-0.99722 -0.96313,-1.8914 -1.3916,-2.20352 -0.87628,-0.63833 -0.92665,-1.39887 -0.12578,-1.89912 0.32743,-0.20452 2.20266,-0.75392 4.16719,-1.22091 4.40488,-1.04707 15.27173,-4.6183 21.29896,-6.9996 9.49047,-3.74958 15.05911,-7.02027 14.57101,-8.55814 -0.37153,-1.17057 -0.9926,-1.17328 -2.95484,-0.0129 -2.7187,1.60772 -8.89069,4.55058 -11.74846,5.60176 -1.38245,0.50851 -6.76063,2.24094 -11.95151,3.84985 -10.09923,3.13024 -11.81617,3.77525 -13.37656,5.02519 -1.49906,1.20081 -4.8388,2.6397 -6.75761,2.91143 -2.03539,0.28825 -3.26349,0.88246 -5.96741,2.88729 -3.73807,2.77161 -7.36098,3.93063 -11.424,3.65468 -4.74049,-0.32197 -10.58333,-2.40734 -10.58333,-3.7773 0,-0.47665 1.14381,-0.45628 3.94813,0.0703 4.84562,0.90992 6.53525,0.19268 11.93618,-5.06687 2.11517,-2.0598 4.52619,-4.19687 5.35781,-4.74904 0.83163,-0.55217 1.51205,-1.14972 1.51205,-1.3279 0,-0.17818 -0.74414,-0.59117 -1.65365,-0.91775 -0.9095,-0.32658 -2.28537,-0.95039 -3.05748,-1.38624 l -1.40384,-0.79246 -2.37871,0.28126 c -2.64284,0.31248 -3.67716,0.10745 -3.67716,-0.72893 0,-1.26417 2.01721,-1.9203 7.04596,-2.29183 2.66865,-0.19716 2.88646,-0.10222 3.84446,1.67572 0.35499,0.65882 0.66198,0.84881 1.59843,0.98924 1.96837,0.29517 5.14352,-0.29962 7.21373,-1.35134 2.56558,-1.30338 5.47777,-3.27836 5.35909,-3.63441 -0.18306,-0.54919 -4.70084,-1.76734 -10.46781,-2.82248 -5.57443,-1.01992 -7.68312,-1.53649 -10.5688,-2.58907 -1.41029,-0.51442 -3.20293,-0.45454 -3.78386,0.12639 -0.15083,0.15083 0.0103,0.87482 0.41815,1.87847 1.35233,3.3281 1.28163,3.36335 -6.74476,3.36335 -3.41974,0 -6.54513,-0.0916 -6.94531,-0.20348 -1.72959,-0.48368 -0.33711,-1.95868 4.03489,-4.27402 1.67349,-0.88625 3.01617,-1.72965 2.98373,-1.87422 -0.10143,-0.452 -3.26539,-0.64311 -6.02644,-0.36403 -1.62752,0.16451 -3.56231,0.57807 -5.02708,1.07452 -4.23837,1.4365 -4.89479,1.42849 -4.89479,-0.0597 0,-1.97875 4.24859,-4.70537 8.26193,-5.30228 2.04235,-0.30376 2.40568,-0.27201 7.85416,0.68626 2.8197,0.49593 4.25682,0.36951 4.25682,-0.37446 0,-1.52152 -8.23871,-6.80493 -13.26056,-8.50389 -2.41371,-0.81659 -5.20463,-0.64048 -7.9152,0.49945 -4.03069,1.6951 -8.69655,5.32058 -9.8858,7.68148 -0.19272,0.38259 -0.42792,1.56567 -0.52268,2.62908 -0.11401,1.27945 -0.40252,2.38781 -0.85294,3.27668 -0.62865,1.24058 -0.6734,1.55784 -0.58563,4.15195 0.0862,2.54634 0.20217,3.09299 1.24182,5.85144 1.13684,3.01632 1.14538,3.06451 0.98531,5.55625 -0.0888,1.38245 -0.23385,3.24028 -0.32231,4.12852 -0.15635,1.56982 -0.13863,1.6308 0.63355,2.18064 1.30116,0.9265 4.10334,2.15708 4.91247,2.1573 0.50496,1.4e-4 1.05123,-0.29696 1.65364,-0.89937 1.0849,-1.0849 1.17502,-2.18575 0.37042,-4.52438 -0.29104,-0.84593 -0.52917,-1.63847 -0.52917,-1.76121 0,-0.96275 5.15004,1.20684 5.75079,2.42267 0.17975,0.3638 0.32858,1.43722 0.33073,2.38538 0.005,2.31922 -0.54902,3.3077 -2.53576,4.52231 -1.44713,0.88472 -1.56199,1.02616 -1.5696,1.93296 -0.005,0.53812 -0.16859,1.07751 -0.36461,1.19865 -1.15051,0.71106 -6.05829,0.45598 -7.3361,-0.38127 -0.37186,-0.24366 -0.87307,-0.7989 -1.1138,-1.23387 -0.99982,-1.80659 -0.95326,-1.80824 -2.13456,0.0758 -0.5992,0.95565 -1.39511,1.87682 -1.7687,2.04704 -0.92674,0.42225 -2.19088,0.0467 -4.33964,-1.28929 -0.94588,-0.5881 -2.55323,-1.31615 -3.57187,-1.61791 -2.25326,-0.66748 -2.9007,-1.31566 -3.31696,-3.32074 -0.2829,-1.36274 -0.49345,-1.68963 -2.03126,-3.15361 -1.62723,-1.54911 -2.87874,-2.44561 -3.0742,-2.20216 -0.0489,0.0609 -1.66644,2.12134 -3.59462,4.57886 -3.37164,4.29724 -3.48721,4.48571 -3.02042,4.92546 0.26696,0.25148 2.39037,1.68119 4.71871,3.17712 2.32833,1.49593 5.1263,3.3997 6.2177,4.23058 2.38,1.8119 6.32657,5.89626 7.29641,7.55116 0.61772,1.05407 0.68709,1.41417 0.60098,3.11956 -0.0891,1.76499 -0.20896,2.11234 -1.41769,4.10943 -0.78343,1.2944 -1.66999,2.39961 -2.18022,2.7179 -2.04116,1.27335 -0.51267,1.74307 4.53253,1.39288 2.46572,-0.17115 3.84601,-0.14971 4.90625,0.0762 0.81141,0.17288 2.96357,0.51423 4.78258,0.75856 1.81901,0.24432 3.96213,0.65653 4.7625,0.91602 1.90144,0.61646 5.35271,0.64485 12.83229,0.10557 z m -17.51403,-13.35065 c -1.2655,-0.3904 -4.99772,-5.36368 -4.66868,-6.22114 0.22099,-0.57587 2.06129,-0.9711 3.34265,-0.71788 0.88034,0.17398 1.18402,0.38415 1.45286,1.00549 1.13751,2.62895 1.83566,3.16678 4.1108,3.16678 0.8991,0 2.25981,-0.0934 3.0238,-0.20755 0.81653,-0.12201 1.38906,-0.10757 1.38906,0.035 0,0.52943 -2.23058,2.43175 -3.1375,2.67577 -1.50312,0.40445 -4.5795,0.55149 -5.51299,0.26351 z m 7.47687,-4.79033 c -1.28653,-0.29346 -2.79513,-1.40801 -2.79513,-2.06505 0,-0.30636 0.29728,-0.59345 0.79375,-0.76652 0.75148,-0.26197 0.79375,-0.35376 0.79375,-1.72403 0,-1.90474 0.17229,-2.28436 1.03675,-2.28436 1.50892,0 3.02124,2.38911 3.04779,4.81481 0.009,0.82914 -0.10256,1.61744 -0.24808,1.75178 -0.4442,0.41007 -1.5331,0.5233 -2.62883,0.27337 z m 1.88431,-28.78902 c -2.53877,-0.81575 -1.7907,-2.71186 1.56529,-3.9675 2.34236,-0.87639 3.54485,-0.24055 3.54485,1.87438 0,1.06397 -0.10826,1.34675 -0.652,1.70302 -0.76678,0.50241 -3.39335,0.73225 -4.45814,0.3901 z m 39.07091,38.20013 c 0.89413,-0.22972 4.42366,-1.52866 7.8434,-2.88654 7.61666,-3.02435 9.59968,-3.6627 13.50471,-4.34725 3.12359,-0.54756 9.75374,-2.44033 10.70466,-3.05595 0.29104,-0.18842 1.47265,-1.13017 2.6258,-2.09277 3.89015,-3.24735 8.63487,-5.22748 17.49131,-7.29969 8.53582,-1.99719 9.36491,-2.39838 16.65997,-8.06161 1.89177,-1.4686 4.28921,-3.29473 5.32764,-4.05806 2.48694,-1.82812 2.66791,-2.0558 1.94252,-2.44402 -0.31307,-0.16755 -4.04146,-0.94487 -8.28531,-1.72737 -9.97875,-1.83993 -12.46951,-2.35551 -15.50222,-3.20892 l -2.49445,-0.70194 -1.20971,0.72161 c -2.26328,1.35008 -10.19425,5.14188 -13.51284,6.46049 -2.97784,1.18322 -9.1665,3.38003 -18.91771,6.71529 -2.48225,0.84902 -3.46451,1.30562 -3.52916,1.64053 -0.1976,1.02373 0.35609,1.9512 2.45545,4.11298 1.20836,1.2443 2.33123,2.52242 2.49526,2.84027 0.48862,0.94683 0.36762,3.53839 -0.20939,4.48467 -0.95027,1.55841 -3.4604,3.00738 -9.81112,5.66344 -4.30245,1.79942 -8.69091,4.00053 -9.74583,4.88818 -0.6774,0.57 -0.8375,0.90253 -0.8375,1.73952 0,0.9386 0.0641,1.03482 0.68941,1.03482 0.37918,0 1.42098,-0.18796 2.31511,-0.41768 z m -97.38445,-6.97634 c 1.10719,-0.28317 2.902,-0.92557 3.98847,-1.42755 4.11227,-1.89998 9.565,-8.10666 23.74612,-27.02947 6.29334,-8.39764 7.74722,-10.43528 7.57122,-10.61128 -0.15013,-0.15013 -9.10876,5.84972 -22.64751,15.16769 -10.96253,7.5449 -14.93692,10.08218 -18.82005,12.01484 -3.50023,1.7421 -9.33875,3.78047 -12.03854,4.20295 -1.01864,0.1594 -1.9478,0.38483 -2.0648,0.50094 -0.11699,0.11612 0.59738,0.68866 1.5875,1.27231 2.98646,1.76046 10.40397,5.69379 11.42644,6.05917 1.44294,0.51563 4.93151,0.44366 7.25115,-0.1496 z m -16.62234,-10.60208 c 1.30444,-0.32563 2.91178,-0.82987 3.57188,-1.12052 l 1.20017,-0.52846 -0.79375,-0.33487 c -1.00558,-0.42424 -5.43036,-1.18672 -6.88666,-1.18672 -0.7098,0 -1.42283,0.21427 -1.99407,0.59923 -1.12388,0.75738 -2.49645,2.67667 -2.22654,3.1134 0.29586,0.4787 4.24186,0.17866 7.12897,-0.54206 z m 255.33675,-1.34281 c 4.96833,-1.85889 10.71135,-8.0394 10.71135,-11.52731 0,-1.08841 -0.0397,-1.14837 -0.76049,-1.14837 -0.87997,0 -2.21512,0.44189 -5.22113,1.72802 -2.66992,1.14233 -4.0679,1.21127 -4.83321,0.23833 -0.83791,-1.06523 -0.34072,-1.729 2.37559,-3.17154 2.14359,-1.13838 2.39058,-1.35278 2.92775,-2.54134 0.44019,-0.974 0.90417,-1.49344 1.85844,-2.08062 1.26671,-0.77941 1.2718,-0.78827 1.2718,-2.21692 0,-1.7227 -0.59801,-4.9982 -1.15661,-6.33511 -0.47834,-1.14483 -1.34861,-1.29121 -2.55774,-0.43024 -0.58109,0.41378 -0.79211,0.82208 -0.92298,1.78594 -0.0933,0.68724 -0.21776,1.42812 -0.27656,1.6464 -0.14503,0.53842 -3.01209,2.43687 -5.244,3.47236 -3.15365,1.46313 -6.22855,1.03371 -6.46069,-0.90227 -0.10845,-0.90442 0.7063,-1.4271 3.47426,-2.22881 2.88279,-0.83497 3.45371,-1.22452 3.24902,-2.21688 -0.0874,-0.42363 -0.2278,-1.09941 -0.31206,-1.50174 -0.20005,-0.95532 0.5775,-1.95286 2.09467,-2.68731 1.81531,-0.87878 2.61793,-1.94352 2.94248,-3.90347 0.15136,-0.91402 0.089,-1.19854 -0.3617,-1.6492 -0.44494,-0.44495 -0.75447,-0.51584 -1.69143,-0.38742 -1.42584,0.19544 -2.1734,-0.37835 -1.90331,-1.4609 0.25328,-1.01519 0.79843,-1.50295 2.41148,-2.15764 l 1.4452,-0.58657 -0.17352,-3.3383 c -0.0954,-1.83607 -0.24915,-4.23127 -0.34158,-5.32268 l -0.16806,-1.98437 -1.45521,0.01 c -0.94821,0.006 -2.48792,0.35211 -4.41939,0.99218 -3.26502,1.082 -5.20315,1.27008 -5.48623,0.53239 -0.57426,-1.49651 3.97315,-4.22868 7.9893,-4.80013 l 1.25487,-0.17855 0.0783,-1.63353 c 0.0671,-1.40056 -0.0366,-1.84892 -0.72761,-3.14378 -0.97658,-1.83007 -0.98939,-2.24347 -0.14445,-4.66185 0.81699,-2.33842 0.81732,-2.50711 0.007,-3.69928 l -0.65424,-0.9628 -2.45462,0.92562 c -1.35004,0.5091 -3.17856,0.98893 -4.06339,1.0663 -1.52484,0.13333 -1.63935,0.10181 -2.19458,-0.60405 -1.23007,-1.56378 -0.51907,-2.18821 3.46227,-3.04077 3.60133,-0.77119 3.91296,-0.92994 3.91296,-1.99332 0,-0.48778 -0.26244,-1.42706 -0.58321,-2.0873 -0.53482,-1.10082 -0.55692,-1.3258 -0.2663,-2.71132 0.49476,-2.35879 0.59273,-2.32255 -6.23778,-2.30718 -6.16299,0.0139 -7.492,0.21241 -8.48302,1.2673 -0.54707,0.58233 -0.55641,0.64986 -0.13766,0.99516 0.35321,0.29125 1.62531,0.37044 5.9508,0.37044 4.90839,0 5.55219,0.0505 5.97123,0.46799 1.03933,1.03557 -0.89249,2.08404 -4.7254,2.56465 -3.04896,0.38231 -4.4995,0.33934 -7.11365,-0.21072 l -2.26354,-0.47628 -1.9698,1.2432 -1.96979,1.24321 0.0635,1.41995 c 0.11404,2.54982 0.5783,2.84408 6.81566,4.31992 5.32224,1.25932 5.80703,1.40784 6.58004,2.01589 1.43903,1.13194 0.47984,2.36115 -1.84249,2.36115 -1.97894,0 -5.8291,-1.05439 -10.04274,-2.75026 -2.02669,-0.81569 -3.88541,-1.48307 -4.13049,-1.48307 -0.86295,0 -2.07985,1.38881 -3.10195,3.54016 -0.56812,1.19577 -1.37284,2.5785 -1.78828,3.07273 -0.72755,0.86554 -0.75508,1.00133 -0.74829,3.69129 0.0111,4.39188 0.91939,5.70482 5.5492,8.02121 3.78315,1.8928 7.49633,2.77421 13.01473,3.08934 3.8411,0.21935 4.94915,0.60765 4.79471,1.68026 -0.14516,1.0081 -1.12317,1.23859 -5.27322,1.24277 -6.47847,0.007 -9.74604,-0.81489 -15.76113,-3.96217 -1.94965,-1.02012 -3.80757,-1.85211 -4.12871,-1.84888 -0.69175,0.007 -1.5914,0.68359 -2.01908,1.51855 -0.65106,1.27106 1.45554,4.08367 3.86585,5.16147 0.84596,0.37828 4.27501,1.35753 7.62013,2.17611 3.34512,0.81858 6.29192,1.67827 6.54844,1.91042 0.25652,0.23214 0.4664,0.74637 0.4664,1.14273 0,1.96957 -4.98039,1.55562 -12.43277,-1.03335 -1.23548,-0.42921 -2.34377,-0.72015 -2.46289,-0.64653 -0.32168,0.19881 -0.0445,1.19111 1.53693,5.50285 l 1.43146,3.90272 6.03336,6.12072 c 6.20464,6.29447 9.60085,10.14675 14.30884,16.2303 2.7174,3.51136 3.68338,4.45477 5.52025,5.39126 1.27131,0.64815 2.09683,0.63827 3.92847,-0.047 z m -245.45044,-2.43972 c 3.51011,-1.74601 11.31405,-6.83347 21.06567,-13.73288 l 4.21951,-2.98537 6.30464,-12.03854 c 7.74086,-14.78096 16.4063,-31.96265 16.29241,-32.30432 -0.12823,-0.38469 -4.42719,3.48692 -8.28344,7.45999 -1.89262,1.94996 -5.58027,6.04569 -8.19477,9.10163 -6.0655,7.08961 -8.86695,10.1577 -15.09926,16.53645 -2.77253,2.83766 -5.58791,5.93328 -6.25641,6.87917 -3.66859,5.1908 -13.24859,22.225 -12.49929,22.225 0.0863,0 1.1892,-0.51351 2.45094,-1.14113 z m -3.12927,-3.9521 c 1.06819,-1.92815 3.10856,-5.53988 4.53417,-8.02606 1.42561,-2.48619 2.67612,-4.74837 2.77891,-5.02709 0.24418,-0.66204 -1.23903,0.69052 -9.24817,8.43356 -4.0116,3.87832 -6.46969,6.44156 -6.32045,6.5908 0.22518,0.22519 4.93827,1.42552 5.89509,1.50136 0.27658,0.0219 1.07626,-1.15452 2.36045,-3.47257 z m -12.71901,2.59927 c 0.3356,-0.35723 0.51815,-0.77918 0.41164,-0.9515 -0.23852,-0.38594 -4.8563,-3.43371 -5.20253,-3.43371 -0.54877,0 1.01698,3.3755 2.04053,4.39904 0.8245,0.8245 1.96819,0.81875 2.75036,-0.0138 z m 63.75778,-1.64566 c 0.57263,-0.40109 0.60856,-0.56112 0.45526,-2.0278 -0.0915,-0.87578 -0.47294,-2.25741 -0.84756,-3.07027 -0.37462,-0.81287 -0.84955,-2.42602 -1.05539,-3.5848 -0.437,-2.45999 -0.96584,-3.17076 -2.33042,-3.13208 -0.49789,0.0141 -1.43742,0.33753 -2.08783,0.71869 -1.16034,0.68001 -1.19392,0.68384 -1.78664,0.20389 -0.91631,-0.74199 -0.53705,-1.65642 1.26308,-3.04538 0.83596,-0.64501 1.72686,-1.40342 1.9798,-1.68536 0.64773,-0.72202 0.84049,-1.96169 0.39787,-2.55868 -0.33952,-0.45792 -0.4998,-0.32512 -2.23535,1.85208 -2.64844,3.32238 -6.16303,8.28088 -6.16303,8.69501 0,0.19251 1.18822,1.14356 2.64049,2.11346 1.45227,0.96989 3.5061,2.56798 4.56407,3.55131 1.05796,0.98332 2.16169,1.92318 2.45274,2.08858 0.76908,0.43705 2.03759,0.38238 2.75291,-0.11865 z m -53.61575,-8.46152 c 3.96362,-3.78831 8.49251,-8.05452 10.0642,-9.48047 2.12802,-1.93068 3.04931,-2.97238 3.6084,-4.07999 0.83269,-1.64964 4.64106,-11.13797 4.91453,-12.24431 0.1313,-0.53115 -0.22202,-1.59729 -1.44677,-4.36562 -0.89127,-2.01456 -1.81774,-4.13909 -2.05882,-4.72118 -0.24108,-0.58208 -0.45772,-1.0912 -0.48143,-1.13138 -0.1028,-0.17422 -16.43257,8.0045 -19.43208,9.7325 -4.63138,2.66813 -9.6837,6.07184 -11.26914,7.59195 -0.87855,0.84234 -1.40269,1.59164 -1.51854,2.17085 -0.22508,1.12543 -0.2322,5.84545 -0.009,5.84545 0.0924,0 1.43278,-1.22039 2.97851,-2.71198 6.31109,-6.09001 12.85038,-10.58993 22.21871,-15.28947 4.53976,-2.27733 5.67182,-2.60052 5.80599,-1.65755 0.1062,0.74647 -1.04822,1.59483 -5.7713,4.24117 -10.81703,6.06081 -17.57618,10.96883 -21.84236,15.86041 -2.62786,3.01309 -3.08953,3.81775 -3.08953,5.38483 0,0.73891 0.073,1.41651 0.1623,1.50578 0.0893,0.0893 2.0973,-1.73725 4.4623,-4.05891 2.365,-2.32167 5.31203,-5.0351 6.54896,-6.02984 3.92102,-3.15331 11.43569,-7.84498 15.79151,-9.85918 3.00711,-1.39054 4.89497,-1.06404 3.01147,0.52082 -0.4269,0.35922 -3.41413,2.24503 -6.63829,4.19071 -3.22416,1.94567 -7.36949,4.66669 -9.21184,6.04669 -5.5307,4.14276 -13.00702,11.84148 -13.00702,13.39396 0,0.40572 0.57568,1.01828 1.93649,2.06058 1.06507,0.81578 2.01322,1.48323 2.107,1.48323 0.0938,0 1.08782,-1.22039 2.20897,-2.71198 3.52152,-4.68504 8.63481,-9.62803 16.60227,-16.04932 6.20281,-4.99909 8.3661,-6.21736 8.3661,-4.71143 0,0.80491 -1.55449,2.27428 -8.33437,7.87801 -6.38308,5.27576 -12.21446,10.96311 -14.76881,14.40401 -0.97221,1.30964 -1.76765,2.45439 -1.76765,2.54389 0,0.34864 2.00311,1.48516 2.31843,1.31543 0.18373,-0.0989 3.57701,-3.27935 7.54062,-7.06766 z m -19.11988,0.0988 c -0.70583,-4.74603 -1.15124,-11.68767 -0.97986,-15.27085 0.24249,-5.06986 1.81151,-9.78274 4.16228,-12.5023 2.20896,-2.5555 8.21844,-5.98375 16.3858,-9.34766 2.54036,-1.04631 4.65579,-2.01324 4.70096,-2.14873 0.13827,-0.4148 -1.43806,-2.58575 -3.80036,-5.23396 l -2.24822,-2.52031 -0.78567,0.40629 c -1.30083,0.67268 -5.16219,4.26147 -8.37336,7.78229 -3.45861,3.7921 -6.6744,8.44578 -9.14748,13.23761 -2.7416,5.31212 -2.95716,6.16218 -2.95214,11.64166 0.005,5.08321 0.42117,8.16937 1.73187,12.8323 0.76506,2.72178 1.5244,4.76517 1.70403,4.58555 0.056,-0.056 -0.12302,-1.61387 -0.39785,-3.46189 z m 132.17036,2.56832 c 2.88108,-0.74736 4.38568,-2.24285 3.65656,-3.63444 -0.69366,-1.32389 -2.72964,-1.29841 -4.70237,0.0589 -1.65955,1.14179 -3.9244,3.40106 -3.72801,3.71881 0.24796,0.40122 2.99238,0.31886 4.77382,-0.14324 z m -135.37139,-1.86323 c -0.921877,-2.9847 -1.811597,-7.4839 -1.996677,-10.09698 -0.0953,-1.34607 -0.25877,-2.4474 -0.36317,-2.4474 -0.22197,0 -0.86836,2.23069 -1.44255,4.97824 -0.50419,2.41258 -0.51653,4.35723 -0.0336,5.2875 0.41669,0.80262 4.076767,4.42475 4.272907,4.22862 0.0695,-0.0695 -0.12715,-0.94697 -0.43695,-1.94998 z m 223.27622,-0.36367 c 8.17275,-3.00733 13.51589,-3.90125 21.42367,-3.58422 4.24666,0.17025 4.56406,0.15064 4.56406,-0.28189 0,-0.6578 -3.77609,-4.25214 -5.9554,-5.66877 l -1.83164,-1.19062 -3.58096,0.0252 c -7.8566,0.0553 -14.01368,1.97238 -19.39165,6.03791 -2.36881,1.79072 -3.2611,2.81103 -3.01628,3.44902 0.18032,0.46991 3.71939,2.26184 4.46714,2.26184 0.25947,0 1.75394,-0.47181 3.32106,-1.04846 z m -10.35054,-5.76456 c 5.57328,-3.87086 6.78043,-4.54614 10.4241,-5.83125 3.5101,-1.23801 7.15796,-1.93793 11.1505,-2.13949 1.99367,-0.10064 3.69972,-0.25785 3.79122,-0.34934 0.21158,-0.21159 -1.18931,-5.48067 -2.27487,-8.5563 -0.45593,-1.29173 -1.22018,-2.96019 -1.69834,-3.70767 -2.7819,-4.3488 -9.05718,-9.121 -14.42309,-10.96842 -2.12388,-0.73122 -6.15123,-0.99785 -7.13581,-0.47243 -0.5851,0.31225 -1.11471,0.96503 -2.02172,2.49195 -0.27423,0.46165 -0.72196,0.49493 -6.65924,0.49493 -7.20888,0 -7.25222,0.0113 -8.47543,2.20054 -0.6855,1.22692 -1.02152,1.35779 -4.77015,1.85785 -3.01413,0.40208 -4.20802,1.08854 -5.10877,2.9374 -0.93456,1.91828 -1.3541,2.19459 -3.0168,1.98685 -1.56234,-0.1952 -3.11289,0.16371 -4.37784,1.01336 -1.46106,0.98137 -1.33732,1.56476 0.96844,4.56613 1.1137,1.44968 2.63722,3.63765 3.3856,4.86216 3.41263,5.58382 5.03067,6.41811 16.45075,8.48228 5.34694,0.96646 10.78015,1.80286 11.92376,1.83559 0.49464,0.0142 1.23582,-0.26529 1.86769,-0.70414 z M 162.6341,222.8244 c 10.21479,-6.7492 19.02136,-13.87405 28.42857,-22.99982 3.63154,-3.52289 4.59463,-4.78599 4.32219,-5.66858 -0.39042,-1.26478 -2.09042,-3.17884 -4.31085,-4.85365 -2.09836,-1.58274 -9.68053,-5.6815 -10.51004,-5.6815 -0.44027,0 -2.09799,2.9532 -6.46052,11.50937 -1.92912,3.78354 -6.11329,11.94716 -9.29817,18.14137 -3.18487,6.1942 -5.79068,11.34366 -5.79068,11.44322 0,0.41279 0.63785,0.0797 3.6195,-1.89041 z m -18.82251,-8.02525 c 2.63657,-2.73478 3.20994,-3.9417 5.51043,-11.59914 3.46474,-11.53282 4.99582,-17.88365 5.73133,-23.77331 0.33721,-2.70026 0.19093,-3.21602 -0.76678,-2.70347 -0.81553,0.43646 -0.93012,0.74383 -2.68151,7.19229 -3.07634,11.32684 -6.97548,23.61266 -9.51068,29.96723 -0.73482,1.84186 -1.33604,3.41061 -1.33604,3.48611 0,0.37548 1.13378,-0.57875 3.05325,-2.56971 z m -33.21575,-5.25291 c 5.19804,-3.45871 9.00877,-5.68774 13.96105,-8.16631 3.92048,-1.96217 8.68905,-4.19807 11.02277,-5.16839 0.7956,-0.33079 0.96623,-0.50481 0.72829,-0.74275 -0.23794,-0.23794 -1.0083,-0.0764 -3.28799,0.68961 -8.16689,2.74407 -16.13826,6.23536 -20.23101,8.86074 -2.47446,1.58731 -4.88929,4.04263 -6.00111,6.10176 -0.42091,0.77954 -0.59951,1.31851 -0.39688,1.19771 0.20263,-0.12081 2.09483,-1.36837 4.20488,-2.77237 z m 51.37789,-14.70025 c 1.70028,-1.89889 5.36474,-5.67699 8.14324,-8.39578 l 5.05182,-4.94326 -1.46854,-0.93941 c -2.67663,-1.71222 -3.70164,-2.03546 -6.89399,-2.17401 l -2.92397,-0.12691 -1.27615,2.74326 c -3.00467,6.45896 -6.50814,17.00174 -6.49477,19.5443 0.003,0.60504 0.12151,0.53705 1.38721,-0.7971 0.76105,-0.80221 2.77487,-3.0122 4.47515,-4.91109 z m 173.27609,4.22561 c 0.21697,-0.26143 0.39382,-1.37838 0.46083,-2.91042 0.0969,-2.21428 0.0591,-2.48617 -0.345,-2.48617 -1.03031,0 -4.37189,2.94044 -4.37189,3.84706 0,0.39574 0.3716,0.76871 1.25677,1.26139 1.43769,0.80021 2.49037,0.90134 2.99929,0.28814 z M 148.69281,184.87532 c 1.21181,-4.33051 2.12953,-7.94743 2.03936,-8.0376 -0.24451,-0.24451 -5.21142,0.42996 -6.20351,0.84239 -0.68211,0.28358 -0.85989,0.51162 -0.85989,1.10303 0,1.82198 1.25,15.97742 1.50195,17.00854 0.20081,0.82185 0.47622,-0.0318 3.52209,-10.91636 z m 179.12595,9.83708 c 1.33278,-0.60279 7.46594,-6.66165 10.26326,-10.13892 1.36331,-1.69469 1.59829,-2.12929 1.37592,-2.54479 -0.25005,-0.46722 -4.35411,-3.17034 -4.81343,-3.17034 -0.28678,0 -1.42764,1.66603 -2.93202,4.2817 -1.7325,3.0123 -4.18696,6.39052 -6.47602,8.91332 -1.05359,1.16118 -1.91562,2.24304 -1.91562,2.40413 0,0.86977 2.78895,1.02782 4.49791,0.2549 z m -195.79839,-1.02764 c 0.33655,-0.21282 0.31356,-0.40314 -0.16726,-1.38501 -0.65508,-1.3377 -4.57252,-6.98219 -6.61925,-9.53742 l -1.42942,-1.78455 -1.60088,0.80812 -1.60087,0.80811 3.40323,3.48998 c 1.87177,1.91949 4.03488,4.26389 4.80692,5.20977 1.41031,1.7279 2.33398,2.64931 2.64825,2.64179 0.093,-0.002 0.3447,-0.11508 0.55928,-0.25079 z m 2.81229,-3.8833 c -0.38957,-1.5139 -0.90006,-5.91456 -1.02389,-8.82645 l -0.0619,-1.4552 -0.7784,1.51253 c -0.83899,1.6303 -1.23813,1.93777 -1.99184,1.53439 -0.38247,-0.20469 -0.57117,-0.12385 -0.90688,0.38851 -0.23315,0.35585 -0.42392,0.7554 -0.42392,0.8879 0,0.25548 3.90047,6.76836 4.85821,8.11208 l 0.56575,0.79375 0.0809,-0.69855 c 0.0445,-0.38421 -0.0986,-1.39624 -0.31806,-2.24896 z m 207.65862,-11.37205 c 1.88186,-0.72214 1.63812,-7.08068 -0.39821,-10.38816 -0.33501,-0.54415 -0.6465,-0.79987 -0.79429,-0.65209 -0.48114,0.48114 -4.48418,8.60321 -4.48418,9.09829 0,0.68401 0.89335,1.22263 2.78752,1.68064 1.83487,0.44367 2.3035,0.48606 2.88916,0.26132 z m 6.69499,-6.51638 c 0.75381,-0.8047 1.15729,-1.95039 0.96153,-2.73034 -0.13945,-0.55561 -0.31527,-0.64309 -1.29249,-0.64309 -0.94931,0 -1.15672,0.0957 -1.29062,0.59531 -0.38167,1.42419 0.0266,3.37344 0.70661,3.37344 0.19652,0 0.60825,-0.26789 0.91497,-0.59532 z m -78.25292,-1.63304 c 10.74999,-1.17182 21.47034,-3.41622 29.63333,-6.204 7.98801,-2.72803 18.0309,-7.5113 25.26845,-12.03497 5.34411,-3.34022 6.8507,-4.63098 8.73051,-7.47977 0.87312,-1.3232 1.97799,-2.84739 2.45525,-3.38709 l 0.86775,-0.98129 -0.79367,-1.00209 c -0.43652,-0.55115 -0.91024,-1.30869 -1.05271,-1.68342 -0.27436,-0.72162 -0.34111,-0.55577 1.92062,-4.77188 0.53261,-0.99284 0.96838,-2.07332 0.96838,-2.40106 0,-2.20231 -4.77839,-12.4132 -9.00902,-19.25127 -5.33769,-8.62744 -13.38452,-16.618655 -23.53473,-23.372051 -16.79597,-11.175136 -34.92111,-17.875194 -63.31627,-23.405213 -7.55913,-1.472157 -20.9563,-3.221299 -30.87539,-4.031106 -5.46044,-0.445798 -25.60332,-0.450973 -30.69167,-0.0079 -8.00477,0.697049 -16.36548,1.785052 -16.77574,2.183077 -0.5184,0.502942 1.17111,13.978722 2.78367,22.202974 5.15951,26.314169 14.97237,46.743009 29.72398,61.880669 5.38176,5.52261 10.38255,9.42722 16.88278,13.18206 10.43189,6.02596 20.62273,9.28161 33.8078,10.80053 4.13102,0.47589 17.75743,0.33599 23.00668,-0.23622 z m 98.85361,-4.73007 c 1.42981,-0.74118 3.25076,-3.06221 4.59659,-5.85893 1.80525,-3.75145 2.22418,-5.61083 2.23878,-9.93681 0.0114,-3.37679 -0.0278,-3.65311 -0.71835,-5.05919 -1.1998,-2.44312 -3.49979,-3.63188 -9.23652,-4.77395 -2.43119,-0.484 -3.87263,-0.59595 -7.62787,-0.59246 -4.91109,0.005 -6.78622,0.25367 -10.05416,1.33562 -3.45052,1.14239 -5.35609,2.97727 -3.56011,3.42803 1.05165,0.26395 3.98929,-0.0691 5.93363,-0.67262 2.61331,-0.81123 6.73411,-1.42342 8.56891,-1.273 1.65403,0.13559 8.22791,1.63256 8.84122,2.01327 0.26849,0.16666 0.25271,0.41027 -0.0778,1.20131 -0.56781,1.35896 -0.31325,1.90828 1.25187,2.70139 l 1.33942,0.67873 -0.57186,0.57258 c -0.51055,0.51121 -0.91046,0.58202 -3.73091,0.66067 l -3.15906,0.0881 -0.69063,2.26422 c -0.37984,1.24532 -0.92371,3.33219 -1.2086,4.63748 -0.56858,2.60517 -1.14119,4.1733 -1.6354,4.47869 -0.19792,0.1223 -0.35672,1.07585 -0.41527,2.49357 l -0.0948,2.29554 4.59272,-0.12716 c 3.52249,-0.0975 4.7851,-0.22687 5.41822,-0.55507 z m -17.73311,0.14135 c 0.15966,-0.10691 0.36004,-0.78969 0.44529,-1.5173 0.0853,-0.7276 0.46671,-2.02467 0.8477,-2.88237 0.38976,-0.87746 0.76362,-2.31893 0.85487,-3.29609 0.15205,-1.62826 0.23377,-1.80181 1.3094,-2.78072 0.96752,-0.88052 1.14723,-1.20105 1.14723,-2.0461 0,-0.55112 0.12693,-1.08047 0.28206,-1.17635 0.78147,-0.48297 1.83461,-2.37591 1.83461,-3.29756 0,-1.50484 -0.94795,-2.38018 -2.57761,-2.38018 -2.93725,0 -6.93374,1.70294 -9.17126,3.90797 -2.08816,2.05783 -2.13026,2.20242 -2.22873,7.65443 l -0.087,4.81553 2.46823,1.24008 c 2.13986,1.0751 4.01112,1.88976 4.4526,1.93846 0.0728,0.008 0.26292,-0.0729 0.42258,-0.1798 z m 20.16466,-27.7766 c -0.21721,-1.12785 -5.56736,-3.37571 -9.64788,-4.05354 -2.8187,-0.46822 -8.63584,-0.39291 -10.67479,0.1382 -0.94588,0.24639 -1.98768,0.62055 -2.3151,0.83147 -0.70691,0.45539 -0.79268,1.55747 -0.14924,1.91755 0.26282,0.14709 2.64075,0.19094 5.7884,0.10675 5.74521,-0.15365 10.28124,0.16317 14.13844,0.98751 2.90065,0.61992 2.96599,0.62156 2.86017,0.0721 z m -25.26491,-4.69125 c 1.69017,-0.79723 3.78245,-1.6885 4.6495,-1.98059 4.64342,-1.56425 11.37903,-0.98147 17.15296,1.48412 2.3776,1.01528 3.07252,1.05285 3.19833,0.17292 0.20266,-1.41734 -4.11708,-4.12647 -9.47521,-5.94238 -2.23726,-0.75823 -2.849,-0.8536 -5.56548,-0.86769 l -3.05194,-0.0158 -2.84835,1.38486 c -5.24678,2.55095 -8.37798,4.95527 -8.37798,6.43308 0,1.14244 0.71286,1.03208 4.31817,-0.66849 z m -0.33318,-7.28989 c 1.45885,-0.73208 2.71968,-1.50626 2.80185,-1.72038 0.65426,-1.70498 -2.45629,-3.29855 -6.43856,-3.29855 -1.01707,0 -1.14203,0.0669 -1.14203,0.61182 0,0.57261 1.35181,4.87819 1.71722,5.46944 0.23156,0.37467 0.12269,0.41244 3.06152,-1.06233 z m 23.13,0.0159 c 0.55373,-0.89595 -2.9592,-4.58512 -6.01155,-6.31313 -5.71363,-3.23463 -14.80027,-5.97971 -20.89904,-6.31362 -3.23043,-0.17686 -3.54735,0.0112 -2.76908,1.64326 0.33204,0.6963 0.89158,1.11571 2.65275,1.98841 2.05229,1.01695 25.39821,9.17011 26.42079,9.227 0.24608,0.0137 0.51883,-0.0907 0.60613,-0.23192 z M 73.274443,113.33731 c 0.99607,-0.19921 1.69085,-1.13221 1.69085,-2.27061 0,-1.01449 -0.66571,-1.52919 -1.97783,-1.52919 -4.83839,0 -19.81141,-6.03341 -31.16959,-12.559839 -14.39166,-8.269478 -24.11081,-17.784813 -25.39367,-24.86115 -0.15653,-0.863471 -0.28461,-2.075754 -0.28461,-2.693962 0,-1.252188 -0.28952,-1.545079 -2.8377,-2.87069 -1.83862,-0.956481 -3.26444,-1.145254 -3.8941297,-0.515564 -1.28248,1.282484 0.7471797,7.387129 4.2149097,12.677247 2.45129,3.739514 9.30156,10.710935 14.55546,14.812882 5.09722,3.979617 12.22214,8.435456 18.54869,11.600126 7.16559,3.58439 16.69928,7.01336 21.80027,7.84088 1.09141,0.17706 2.16297,0.35691 2.38125,0.39968 0.75578,0.14807 1.52514,0.13838 2.3661,-0.0298 z m 282.706537,-0.44816 c 0.45754,-0.33456 0.42575,-0.48102 -0.6238,-2.87417 -3.02737,-6.90288 -8.69561,-14.479906 -16.59242,-22.179918 -15.30766,-14.926165 -35.52259,-26.802721 -58.27591,-34.23791 -5.5727,-1.821011 -10.2766,-3.061725 -11.60788,-3.061725 -1.06828,0 -1.31043,0.13636 -2.82535,1.591066 -2.95676,2.839227 -6.76394,8.79151 -6.76394,10.574995 0,0.679181 0.15518,0.818561 1.4512,1.303463 0.79815,0.298628 3.92354,1.253945 6.94531,2.122926 6.59362,1.896153 12.1731,3.779316 16.85162,5.687689 21.97464,8.963476 40.37448,22.231926 49.99378,36.051394 l 1.50761,2.1659 3.09868,-0.0175 c 3.22328,-0.0182 4.52153,0.19485 11.82992,1.94097 1.89177,0.45198 3.61818,0.92245 3.83646,1.0455 0.53606,0.30217 0.61809,0.2943 1.17472,-0.11272 z m -285.093517,-8.0154 c 0.54152,-0.68843 1.9346,-4.6644 2.25949,-6.44874 l 0.1686,-0.926041 -3.78329,-1.903606 c -9.60569,-4.833207 -16.6621,-9.489076 -22.88211,-15.097767 -2.94136,-2.652272 -5.15247,-5.351164 -7.11254,-8.681605 l -1.46847,-2.495147 -2.16738,0.0025 c -3.21268,0.0037 -13.75575,0.517458 -13.9164,0.678102 -0.28374,0.283742 -0.0242,2.440915 0.49643,4.126637 1.73089,5.603958 10.19895,13.770153 21.08678,20.335081 6.29305,3.794456 16.02302,8.171316 22.97415,10.334526 3.04089,0.94633 3.65177,0.95702 4.34474,0.076 z m 6.52783,-11.529874 c 0.46813,-0.32077 1.05475,-0.92789 1.3036,-1.349156 0.38216,-0.646951 0.39634,-0.821555 0.0913,-1.123963 -0.19865,-0.196914 -2.18002,-1.375171 -4.40304,-2.618349 -4.53781,-2.537669 -8.43444,-5.08512 -11.57121,-7.564758 -2.80199,-2.21499 -9.27737,-8.597024 -11.15531,-10.994498 l -1.49803,-1.912464 -1.47721,0.125661 c -2.69719,0.22944 -5.17663,0.642451 -5.44041,0.906233 -1.08334,1.083335 6.85952,9.640316 13.72434,14.78547 6.12572,4.591203 16.53152,10.219671 19.06206,10.310613 0.28204,0.01014 0.89582,-0.24402 1.36395,-0.564789 z m 6.79686,-6.391217 c 0.46827,-0.197918 3.17312,-1.75347 6.01077,-3.456782 5.44919,-3.270888 16.062327,-8.705735 21.166667,-10.839166 5.02741,-2.101273 6.61458,-2.86884 6.61458,-3.198846 0,-0.172595 -1.65173,-2.089735 -3.67051,-4.260311 -4.22913,-4.547117 -5.30708,-5.846629 -7.91039,-9.536298 -1.03976,-1.473658 -2.05451,-2.742325 -2.255,-2.819259 -0.20048,-0.07693 -4.04528,0.987391 -8.543987,2.365168 -19.6448,6.016418 -27.8649,8.431103 -33.3149,9.786375 -3.85203,0.957899 -5.99252,1.616484 -6.32842,1.94713 -0.50009,0.492256 -0.49714,0.51545 0.20001,1.568916 2.9064,4.391853 14.98041,14.127078 22.07292,17.797287 1.61477,0.835607 2.21078,1.005637 3.5251,1.005637 0.86997,0 1.96489,-0.161933 2.43316,-0.359851 z M 127.2438,66.852662 c 0.93444,-0.320126 1.74169,-0.710138 1.79387,-0.866693 0.0522,-0.156555 -1.54744,-2.059863 -3.55473,-4.229573 -4.62722,-5.001641 -5.96492,-6.753959 -7.4114,-9.708584 l -1.16395,-2.37752 -1.5474,0.161735 c -1.76124,0.184086 -3.60651,0.825684 -4.33135,1.506001 -0.43953,0.412539 -0.45706,0.57355 -0.16151,1.483724 0.18233,0.561531 0.86642,1.852677 1.52019,2.869212 1.25927,1.95801 6.97613,7.979074 9.83532,10.35868 1.96061,1.631745 2.3978,1.701666 5.02096,0.803018 z m 8.7161,-3.706224 c 0.16139,-0.194464 0.47713,-0.874213 0.70165,-1.510554 0.22451,-0.63634 0.54711,-1.242831 0.71689,-1.347758 0.44663,-0.276035 1.24282,0.220024 2.48894,1.550724 1.0214,1.090726 1.16081,1.156626 2.11667,1.0006 1.78618,-0.291558 3.27222,-0.935472 3.27222,-1.417877 0,-0.245944 -0.39549,-1.039769 -0.87886,-1.764055 -0.48337,-0.724285 -2.24422,-3.340945 -3.91299,-5.814799 -1.66877,-2.473855 -3.31118,-5.182527 -3.64979,-6.019271 l -0.61566,-1.521354 h -1.14229 c -1.29618,0 -7.75077,1.136558 -9.8314,1.731164 -1.2494,0.357056 -1.39361,0.47778 -1.54692,1.294991 -0.32754,1.745945 0.40114,3.607207 2.54428,6.498845 1.47049,1.984072 5.45838,5.984613 6.96585,6.98796 1.12146,0.746419 2.30911,0.888429 2.77141,0.331384 z m 117.78032,-2.093824 c 1.19314,-1.495607 7.85587,-11.332001 8.09122,-11.9453 0.10845,-0.282611 -0.57178,-0.539213 -2.85232,-1.075983 -4.69045,-1.103988 -13.35196,-2.787571 -14.34118,-2.787571 -2.34127,0 -7.84134,6.52395 -9.18465,10.89444 -0.79256,2.578619 -0.61233,2.820706 2.51407,3.376864 1.88705,0.33569 2.18076,0.159323 2.42282,-1.454846 0.33945,-2.263599 2.24178,-4.438865 4.61382,-5.275767 1.61565,-0.570034 1.76589,-0.28189 1.0583,2.029633 -0.65921,2.153483 -0.75025,4.584604 -0.21319,5.692994 0.35624,0.735204 0.65534,0.857218 3.78528,1.54413 2.69855,0.592237 2.87,0.550539 4.10583,-0.998594 z M 156.6995,60.711457 c 0.69475,-0.267802 0.58792,-0.62589 -0.91129,-3.054744 -4.37552,-7.08869 -5.48851,-9.117485 -6.16177,-11.231857 -0.81928,-2.572965 -0.55399,-2.455751 -4.39425,-1.941486 -3.05529,0.409146 -3.41552,0.57191 -3.41552,1.543259 0,1.231243 2.19013,5.131774 5.82085,10.36671 l 3.30729,4.768611 2.64583,-0.136008 c 1.45521,-0.0748 2.8542,-0.216322 3.10886,-0.314485 z m 16.20573,-2.774121 c 9.9561,-0.904903 13.35384,-1.061551 23.02966,-1.061747 9.81271,-1.99e-4 13.41144,0.15346 25.58287,1.092339 3.89012,0.300076 7.26284,0.506694 7.49493,0.45915 0.2579,-0.05283 0.85664,-1.166742 1.53975,-2.864568 1.45221,-3.609391 2.23297,-4.90826 4.72361,-7.858122 1.13037,-1.33879 2.05522,-2.614123 2.05522,-2.834073 0,-2.427769 -44.70633,-4.51795 -65.88125,-3.080184 -6.28465,0.426725 -13.7854,1.089108 -14.81667,1.308445 -0.91228,0.194029 -0.92507,0.215491 -0.86103,1.444166 0.11374,2.182222 3.10443,9.380995 5.27991,12.709053 l 1.00508,1.537583 2.64583,-0.173519 c 1.45521,-0.09544 5.14615,-0.400772 8.20209,-0.678523 z"
       id="path6" /></g><metadata
     id="metadata182"><rdf:RDF><cc:Work
         rdf:about=""><cc:license
           rdf:resource="http://creativecommons.org/licenses/by-sa/4.0/" /><dc:publisher><cc:Agent><dc:title>OpenDataKerala.org</dc:title></cc:Agent></dc:publisher><dc:date>April 2026</dc:date><dc:title>Election Symbols of Kerala</dc:title><dc:creator><cc:Agent><dc:title>Manoj Karingamadathil</dc:title></cc:Agent></dc:creator></cc:Work><cc:License
         rdf:about="http://creativecommons.org/licenses/by-sa/4.0/"><cc:permits
           rdf:resource="http://creativecommons.org/ns#Reproduction" /><cc:permits
           rdf:resource="http://creativecommons.org/ns#Distribution" /><cc:requires
           rdf:resource="http://creativecommons.org/ns#Notice" /><cc:requires
           rdf:resource="http://creativecommons.org/ns#Attribution" /><cc:permits
           rdf:resource="http://creativecommons.org/ns#DerivativeWorks" /><cc:requires
           rdf:resource="http://creativecommons.org/ns#ShareAlike" /></cc:License></rdf:RDF></metadata></svg>
