<?xml version="1.0" encoding="UTF-8" standalone="no"?>
<!-- Created with Inkscape (http://www.inkscape.org/) -->

<svg
   width="1500"
   height="1500"
   viewBox="0 0 396.87499 396.875"
   version="1.1"
   id="svg5"
   xml:space="preserve"
   inkscape:version="1.3 (0e150ed6c4, 2023-07-21)"
   sodipodi:docname="Matchbox.svg"
   inkscape:export-filename="Kettle.png"
   inkscape:export-xdpi="96"
   inkscape:export-ydpi="96"
   xmlns:inkscape="http://www.inkscape.org/namespaces/inkscape"
   xmlns:sodipodi="http://sodipodi.sourceforge.net/DTD/sodipodi-0.dtd"
   xmlns="http://www.w3.org/2000/svg"
   xmlns:svg="http://www.w3.org/2000/svg"
   xmlns:rdf="http://www.w3.org/1999/02/22-rdf-syntax-ns#"
   xmlns:cc="http://creativecommons.org/ns#"
   xmlns:dc="http://purl.org/dc/elements/1.1/"><title
     id="title186">Election Symbols of Kerala</title><sodipodi:namedview
     id="namedview7"
     pagecolor="#ffffff"
     bordercolor="#000000"
     borderopacity="0.25"
     inkscape:showpageshadow="2"
     inkscape:pageopacity="0.0"
     inkscape:pagecheckerboard="0"
     inkscape:deskcolor="#d1d1d1"
     inkscape:document-units="mm"
     showgrid="false"
     inkscape:zoom="0.25"
     inkscape:cx="230"
     inkscape:cy="1078"
     inkscape:window-width="1920"
     inkscape:window-height="991"
     inkscape:window-x="-9"
     inkscape:window-y="-9"
     inkscape:window-maximized="1"
     inkscape:current-layer="layer1" /><defs
     id="defs2"><inkscape:path-effect
       effect="bspline"
       id="path-effect3248"
       is_visible="true"
       lpeversion="1"
       weight="33.333333"
       steps="2"
       helper_size="0"
       apply_no_weight="true"
       apply_with_weight="true"
       only_selected="false" /><inkscape:path-effect
       effect="bspline"
       id="path-effect577"
       is_visible="true"
       lpeversion="1"
       weight="33.333333"
       steps="2"
       helper_size="0"
       apply_no_weight="true"
       apply_with_weight="true"
       only_selected="false" /></defs><g
     inkscape:label="Layer 1"
     inkscape:groupmode="layer"
     id="layer1"><path
       style="fill:#000000;stroke-width:1.49653"
       d="m 346.59876,311.0912 c -7.73103,-0.16532 -23.58905,-0.49733 -35.24004,-0.7378 -11.651,-0.24046 -31.51807,-0.69529 -44.14904,-1.01071 -12.63099,-0.31542 -36.41803,-0.85739 -52.86008,-1.20437 l -29.89465,-0.63088 -2.17776,0.96733 c -7.23734,3.2147 -17.8989,3.2594 -24.79474,0.104 -4.1676,-1.90703 -7.26517,-5.97517 -7.27379,-9.55288 -0.007,-3.35812 2.55373,-6.77862 6.61994,-8.83881 6.35425,-3.21948 17.95347,-2.81782 25.34041,0.87749 l 2.68189,1.3416 23.95531,0.22945 c 13.17542,0.12616 36.16066,0.50264 51.07827,0.83654 14.91764,0.33391 40.30829,0.87589 56.42368,1.2044 50.98332,1.03931 50.98771,1.03945 52.06489,1.60557 1.15734,0.60826 3.69567,3.20183 4.25619,4.34882 1.38846,2.84119 0.80181,5.59819 -1.74044,8.17926 -2.20622,2.2399 -3.58871,2.72963 -7.46193,2.64334 -1.52442,-0.034 -9.09708,-0.197 -16.82811,-0.36231 z m 23.81525,-8.27911 c -0.20837,-1.4675 -1.52231,-3.0958 -3.15991,-3.91591 -1.32977,-0.66595 -3.5434,-0.76598 -26.3967,-1.19279 -13.71986,-0.25623 -32.9633,-0.638 -42.76319,-0.84836 -62.13267,-1.33377 -111.85747,-2.18502 -111.85747,-1.91491 0,0.0979 0.35637,0.87692 0.79192,1.73122 0.43555,0.85431 0.79192,2.11374 0.79192,2.79874 v 1.24546 l 11.58169,0.26735 c 16.07389,0.37105 66.85591,1.3198 99.08789,1.85123 14.80875,0.24416 32.27038,0.5781 38.80364,0.74205 6.53328,0.16398 16.68953,0.2811 22.56947,0.26025 l 10.6908,-0.0379 z m -212.7758,-7.39118 c 3.80042,-2.52422 10.70918,-3.49786 16.68333,-2.35113 1.83099,0.35144 3.40764,0.56043 3.50367,0.46441 0.30234,-0.30236 -3.9371,-1.42502 -7.01754,-1.85835 -8.16725,-1.14893 -16.24736,2.47302 -16.24736,7.28294 0,0.59875 0.26337,0.3287 0.89089,-0.91348 0.48999,-0.96994 1.47415,-2.15091 2.18701,-2.62439 z m -44.2573,0.37646 c -0.70017,-0.25643 -97.682499,-97.01019 -99.473937,-99.2395 -1.618835,-2.01454 -1.820924,-4.2543 -0.795875,-8.82075 0.434231,-1.93444 1.280342,-5.8335 1.880248,-8.66458 0.599904,-2.83108 1.709413,-7.90922 2.465574,-11.28474 0.75616,-3.37552 1.968703,-8.79424 2.694537,-12.04161 0.852075,-3.81216 1.573749,-6.15077 2.036656,-6.59986 0.446733,-0.43339 3.850901,-1.44618 9.032021,-2.68716 12.804658,-3.06696 33.225051,-8.03996 46.008094,-11.20439 l 11.559961,-2.86167 0.245553,-1.45341 c 0.135061,-0.79939 0.723923,-2.02567 1.308596,-2.72507 0.985276,-1.17862 1.620781,-1.40955 8.68715,-3.1567 4.193252,-1.03677 7.715592,-1.97653 7.827412,-2.08835 0.11179,-0.11179 -0.94063,-0.48563 -2.33879,-0.83065 -2.28108,-0.56292 -2.88151,-0.56709 -5.847639,-0.0407 -7.126127,1.26466 -14.954748,-0.95291 -19.435893,-5.50547 -5.812438,-5.90509 -2.396316,-13.41448 6.610563,-14.53148 5.959044,-0.73903 12.846267,1.17725 18.164979,5.0542 1.79521,1.30856 2.81299,1.59535 16.40644,4.62309 l 14.49248,3.22799 6.75698,-1.54322 c 3.71634,-0.84877 17.70033,-4.28747 31.07555,-7.64155 13.37521,-3.35409 24.37783,-6.098342 24.45026,-6.098342 0.0724,0 0.1311,-0.13364 0.1302,-0.296971 -8.1e-4,-0.16333 -1.17015,-0.901282 -2.59854,-1.639892 -2.70955,-1.401091 -5.72962,-4.096154 -6.70605,-5.984364 -1.58964,-3.073997 -1.07007,-6.195494 1.49428,-8.977475 3.03547,-3.293088 8.56186,-3.73573 15.92073,-1.275159 4.32081,1.444731 6.1829,2.496354 9.03359,5.101729 1.19478,1.091955 2.32553,1.982627 2.51277,1.979274 0.18723,-0.003 2.77137,0.729137 5.74253,1.627756 l 5.40208,1.633846 7.07051,-1.657028 c 3.88878,-0.911368 14.90187,-3.609349 24.47354,-5.995528 14.14854,-3.527175 17.7195,-4.291046 19.09544,-4.084705 1.89794,0.284609 2.15724,0.496173 13.79272,11.253449 3.88666,3.593292 9.12825,8.391974 11.648,10.66371 9.22158,8.31396 18.46489,16.80942 19.42968,17.85768 0.80031,0.86952 2.73403,1.61122 10.09686,3.87263 12.70957,3.90364 23.40956,7.09209 34.05219,10.14712 8.87667,2.54808 9.14447,2.65526 10.58959,4.23823 1.82535,1.99951 2.46861,4.10392 1.89994,6.2158 -0.49283,1.83022 -1.21543,2.5335 -3.7593,3.65878 -2.63156,1.16406 -3.47032,1.01707 -16.84733,-2.95237 -6.20659,-1.84173 -11.35647,-3.27699 -11.44416,-3.18947 -0.0877,0.0875 0.35776,0.55605 0.98989,1.0412 0.63213,0.48515 2.30749,1.96838 3.72304,3.29609 1.41553,1.32768 5.43337,4.98684 8.92852,8.13144 26.23449,23.60323 29.11678,26.25477 29.71707,27.33791 1.08335,1.95479 0.59883,4.53547 -3.78359,20.15287 -0.82499,2.93997 -2.79311,10.15626 -4.37361,16.03619 -2.99579,11.14525 -3.36699,12.20972 -4.66857,13.38765 -0.6959,0.62978 -15.08598,4.69838 -51.35896,14.52107 -3.91996,1.06151 -10.6908,2.91234 -15.04631,4.11295 -4.35551,1.20061 -11.21545,3.07301 -15.24429,4.1609 -7.39842,1.99775 -12.22514,3.31417 -27.71689,7.5594 -4.68217,1.28306 -14.2148,3.87252 -21.18362,5.75439 -6.96883,1.88185 -16.23419,4.40779 -20.58969,5.61323 -10.66298,2.95107 -14.0345,3.86757 -20.78768,5.65089 -3.15774,0.83388 -9.32859,2.51557 -13.713,3.73709 -4.3844,1.22153 -8.41146,2.22095 -8.94901,2.22095 -0.53755,0 -1.78432,-0.42905 -2.77059,-0.95347 -1.57186,-0.83576 -6.92779,-2.63668 -8.02564,-2.69859 -0.34705,-0.0196 -10.94297,2.7453 -48.30658,12.60504 -9.33459,2.46326 -10.48996,2.68578 -11.6807,2.24969 z m 2.15443,-14.31912 c 0.96174,-4.27478 2.30351,-10.44503 2.98171,-13.71166 0.67819,-3.26663 1.6709,-7.93733 2.20601,-10.37933 0.53511,-2.44199 0.97292,-4.79752 0.97292,-5.2345 0,-0.52645 -16.33185,-17.16549 -48.405567,-49.31604 -26.623063,-26.68685 -48.596845,-48.51925 -48.830625,-48.51647 -0.233781,0.003 -0.625884,1.0296 -0.871339,2.2818 -0.245457,1.25222 -1.968033,9.04759 -3.827947,17.32306 -1.859914,8.27547 -3.496766,16.1582 -3.637446,17.51719 l -0.255783,2.47088 48.645543,48.518 c 42.922254,42.80972 48.682504,48.41808 48.959724,47.6687 0.17279,-0.46713 1.10105,-4.34686 2.0628,-8.62163 z m 72.42525,-1.02077 c 1.77409,-0.53326 5.54195,-1.59727 8.37303,-2.36448 2.83108,-0.76719 12.00735,-3.25494 20.39171,-5.52834 8.38436,-2.27339 19.6097,-5.31531 24.9452,-6.75984 5.3355,-1.44452 12.55179,-3.40877 16.0362,-4.365 3.48442,-0.95623 12.39342,-3.36958 19.79778,-5.36298 7.40437,-1.9934 16.31338,-4.42842 19.79779,-5.41115 3.4844,-0.98272 10.52251,-2.90834 15.64024,-4.27913 5.11773,-1.3708 18.12486,-4.89793 28.90475,-7.83807 10.77989,-2.94013 22.80705,-6.18689 26.72701,-7.21503 6.06359,-1.59037 7.2897,-2.04062 8.21608,-3.01707 0.59888,-0.63126 1.08887,-1.4393 1.08887,-1.79563 0,-0.69492 1.43882,-6.08146 5.16473,-19.33538 1.28563,-4.57329 3.14403,-11.197 4.12978,-14.71937 1.85758,-6.63775 2.15302,-8.72641 1.28165,-9.06077 -0.28082,-0.10775 -4.5126,0.86496 -9.40393,2.16161 -4.89135,1.29666 -13.08059,3.42364 -18.19832,4.72665 -5.11773,1.30299 -15.63034,4.01105 -23.36137,6.01787 -7.73103,2.00684 -19.13455,4.94587 -25.34117,6.53119 -6.2066,1.5853 -14.40287,3.69019 -18.21395,4.67752 -3.81107,0.98735 -11.5619,2.9755 -17.22406,4.41813 -20.05495,5.10966 -27.42087,7.01149 -36.03197,9.30312 -4.79107,1.27502 -14.68006,3.84703 -21.97553,5.71556 -22.78284,5.83516 -24.33963,6.25642 -24.79968,6.71069 -0.39742,0.39243 -7.36543,28.3934 -10.29539,41.37205 l -1.10559,4.89728 0.92013,0.74508 c 0.50606,0.40978 1.00794,0.74506 1.11527,0.74506 0.1073,0 1.64665,-0.4363 3.42074,-0.96957 z m 0.87411,-5.32649 c -0.23367,-0.37808 0.56356,-3.72078 5.72265,-23.99454 1.77336,-6.96882 3.48451,-12.95953 3.80255,-13.31271 0.85861,-0.95348 11.33634,-3.82082 56.17919,-15.37406 16.13543,-4.15709 24.35406,-6.29692 35.04206,-9.12364 10.99678,-2.90837 15.95953,-4.17969 34.05219,-8.72317 8.81991,-2.21488 18.26346,-4.62261 20.98565,-5.35051 2.7222,-0.72791 10.11666,-2.69014 16.43215,-4.36055 6.3155,-1.67039 13.42209,-3.55218 15.79244,-4.18177 4.90255,-1.30214 5.61542,-1.3714 5.92094,-0.57522 0.12017,0.31321 -0.73387,4.01045 -1.89791,8.21608 -3.82859,13.83264 -7.40452,26.22583 -7.75752,26.8854 -0.48633,0.90872 -1.47065,1.24213 -10.87009,3.68192 -4.57327,1.18709 -12.05684,3.17383 -16.63013,4.415 -4.57328,1.24118 -8.8496,2.39188 -9.50294,2.55716 -0.65332,0.16526 -9.11687,2.46391 -18.80787,5.10812 -24.34458,6.64246 -26.55207,7.24727 -34.64612,9.49225 -5.88115,1.63121 -25.61864,6.95209 -28.50881,7.68546 -0.8088,0.20524 -22.38615,6.11201 -26.33105,7.20809 -4.08613,1.13534 -21.00479,5.75161 -23.95531,6.53624 -0.65332,0.17373 -3.8955,1.04742 -7.20483,1.94153 -6.21432,1.67898 -7.44076,1.87806 -7.81724,1.26892 z m 12.22354,-4.32358 c 3.70957,-0.94872 4.06287,-1.87904 0.57546,-1.51528 -1.96023,0.20446 -2.67802,0.46175 -3.19423,1.14498 -0.36622,0.48468 -0.74174,0.79482 -0.83449,0.68918 -0.0928,-0.10566 0.19107,-1.75209 0.63072,-3.6588 0.43965,-1.9067 0.68396,-3.58212 0.54293,-3.72317 -0.14098,-0.14097 -1.46159,-0.006 -2.93454,0.29909 l -2.67812,0.55553 -1.02762,4.05382 c -0.56519,2.22959 -0.95689,4.12452 -0.87047,4.21095 0.16887,0.16887 5.32078,-0.9132 9.79036,-2.0563 z m 10.94711,-3.10148 c 3.51707,-0.74606 4.88502,-1.16869 4.04553,-1.24991 -0.69763,-0.0675 -1.92231,0.0579 -2.72153,0.27854 l -1.45312,0.40121 0.24796,-1.46638 c 0.8029,-4.74825 0.79765,-4.58068 0.13558,-4.3266 -0.34557,0.13259 -1.68917,0.36114 -2.98576,0.50783 l -2.35743,0.26671 -0.63927,3.22058 c -0.77228,3.89059 -0.77412,3.95123 -0.11224,3.69724 0.28953,-0.11104 2.91768,-0.70925 5.84034,-1.32922 z m 12.73808,-3.35276 c 1.18409,-0.30199 1.48483,-0.56607 1.48483,-1.30382 0,-0.50882 0.11134,-1.48194 0.24747,-2.1625 l 0.24748,-1.23735 -2.12827,0.006 c -1.17054,0.003 -2.32624,0.13693 -2.56825,0.29697 -0.24198,0.16 -0.56814,1.16005 -0.72476,2.22231 -0.15664,1.06228 -0.3863,2.19594 -0.51036,2.51925 -0.23747,0.61882 0.40651,0.56327 3.95186,-0.34092 z m 7.58711,-2.06898 1.94473,-0.45693 0.72642,-2.57371 c 1.0644,-3.77122 1.09598,-3.70064 -1.51033,-3.37501 -1.23191,0.15392 -2.46271,0.36537 -2.73512,0.46992 -0.4055,0.15561 -1.75629,4.86357 -1.75629,6.1213 0,0.43986 0.87659,0.39103 3.33059,-0.18557 z m -28.91921,-0.66097 c 0.68054,-0.003 1.45503,-0.14442 1.72108,-0.3134 0.45668,-0.29016 1.80027,-5.64563 1.49338,-5.95252 -0.079,-0.079 -1.38179,0.0652 -2.89513,0.32052 l -2.75154,0.46411 -0.46978,2.38782 c -0.25837,1.31329 -0.57625,2.6653 -0.70639,3.00444 -0.19574,0.51009 -0.012,0.57157 1.06719,0.35584 0.7171,-0.14336 1.86063,-0.26347 2.54119,-0.26681 z m 16.48614,-2.1926 c 0.32914,-0.0937 0.81194,-1.0183 1.07287,-2.05455 0.26095,-1.03626 0.59676,-2.30507 0.74626,-2.81958 0.2596,-0.89338 0.2024,-0.9253 -1.27085,-0.70943 -0.84847,0.12437 -2.45649,0.33632 -3.57339,0.47108 -1.97848,0.23873 -2.03627,0.28246 -2.2461,1.69932 -0.11838,0.79985 -0.34525,2.05702 -0.504,2.7937 l -0.28864,1.3394 2.73272,-0.27474 c 1.50299,-0.15112 3.002,-0.35146 3.33113,-0.4452 z m 26.32655,-0.61217 c 2.86295,-0.68098 3.25825,-0.97114 3.43962,-2.5247 l 0.16294,-1.39572 h -1.85077 c -3.53071,0 -4.20907,0.3008 -4.47852,1.98584 -0.13274,0.82969 -0.35765,1.81194 -0.49995,2.18278 -0.20166,0.5255 -0.0926,0.62444 0.49409,0.44847 0.41404,-0.12421 1.64371,-0.43767 2.73259,-0.69667 z m 7.49005,-2.36956 c 1.64944,-0.41534 1.72398,-0.50295 2.35309,-2.76571 0.81618,-2.93564 0.81181,-3.239 -0.0433,-3.0018 -0.3811,0.1058 -1.69975,0.30653 -2.93033,0.44621 l -2.23741,0.25399 -0.16722,1.65923 c -0.092,0.91258 -0.0446,1.74833 0.10521,1.85722 0.14987,0.10895 0.39761,0.59888 0.55052,1.08889 0.32385,1.03775 0.18795,1.01124 2.36932,0.46197 z m -55.27394,-0.58889 1.91817,-0.25446 0.67224,-2.80094 c 0.36971,-1.54052 1.03778,-3.39243 1.48455,-4.11534 0.73102,-1.18282 0.99736,-1.315 2.66084,-1.32044 1.01666,-0.003 2.02694,-0.13693 2.24502,-0.29697 0.21811,-0.16 0.67863,-1.40454 1.02342,-2.76563 l 0.62685,-2.47473 h -1.07289 c -2.14874,0 -3.61465,0.5058 -4.01546,1.3855 -0.31713,0.69602 -0.96228,0.97747 -3.12764,1.36444 -2.66876,0.47693 -2.73669,0.51907 -3.12383,1.93747 -0.21764,0.79745 -0.84169,3.05354 -1.38678,5.0135 -1.16292,4.18158 -1.24393,5.12744 -0.41179,4.80812 0.32402,-0.12437 1.45231,-0.34057 2.5073,-0.48052 z m 42.5804,-1.21366 c 1.75339,-0.24032 1.85524,-0.32522 2.2566,-1.88078 0.23116,-0.896 0.50829,-1.93299 0.61582,-2.30441 0.15394,-0.53179 0.75007,-0.70011 2.80481,-0.79192 l 2.60933,-0.11658 0.53122,-1.78181 c 0.29217,-0.97998 0.53393,-1.92825 0.53724,-2.10725 0.003,-0.179 -1.01854,-0.21417 -2.27074,-0.0781 -3.92462,0.42627 -3.96257,0.44554 -4.25215,2.15951 l -0.26363,1.5604 -2.2461,0.25136 c -3.08518,0.34523 -2.99006,0.28497 -3.50992,2.22373 -0.2554,0.95248 -0.58458,2.04359 -0.73152,2.4247 -0.30225,0.78395 0.64253,0.89033 3.91904,0.44123 z m -27.02087,-1.25672 c 0.39188,-0.43908 1.67877,-5.6098 1.45249,-5.83609 -0.11329,-0.11328 -1.63648,-0.0866 -3.38493,0.0593 l -3.17903,0.26512 -0.45951,2.4212 c -0.25273,1.33167 -0.55884,2.75946 -0.68024,3.17286 -0.20827,0.70923 -0.045,0.73582 2.89325,0.47137 1.71268,-0.15416 3.22378,-0.4033 3.35797,-0.55367 z m 54.6581,-0.67918 c 2.82672,-0.66341 3.04779,-0.79099 3.26663,-1.88519 0.43799,-2.18994 0.42495,-2.2016 -2.24,-2.00295 -4.03902,0.30106 -4.12478,0.34151 -4.40218,2.07619 -0.13678,0.85501 -0.369,1.86835 -0.51617,2.25187 -0.19272,0.50225 -0.10984,0.63776 0.29612,0.48447 0.31004,-0.11703 1.92805,-0.53303 3.5956,-0.92439 z m -39.04467,0.0645 c 0.0105,-0.0301 0.48752,-1.16904 1.05991,-2.531 0.99747,-2.3734 1.0101,-2.49269 0.3038,-2.87068 -1.09166,-0.58424 -5.91925,-0.50528 -6.14875,0.10057 -0.10311,0.27223 -0.53551,1.71556 -0.96088,3.2074 l -0.77339,2.71243 3.25006,-0.282 c 1.78752,-0.1551 3.25868,-0.30663 3.26925,-0.33671 z m 30.49565,-3.42679 c 1.2922,-0.22132 2.90709,-0.49264 3.58862,-0.60292 0.97811,-0.15827 1.28689,-0.43914 1.4657,-1.33319 0.12466,-0.62298 0.34355,-1.59892 0.48658,-2.16877 l 0.26003,-1.03609 -2.51765,0.0395 c -3.99543,0.0627 -4.28727,0.22957 -5.13182,2.9356 -0.40689,1.30368 -0.74241,2.41487 -0.74561,2.46931 -0.009,0.14157 0.006,0.13978 2.59415,-0.30342 z m 19.01981,-0.78109 2.02001,-0.004 0.70137,-2.59104 c 0.38574,-1.42508 0.60884,-2.68357 0.49576,-2.79665 -0.11313,-0.11314 -1.68314,-0.0608 -3.48902,0.11628 l -3.28344,0.32192 -0.68529,2.71933 -0.6853,2.71934 1.45296,-0.24027 c 0.79913,-0.13214 2.36196,-0.24221 3.47295,-0.2446 z m -58.37772,-2.44093 3.03561,-0.46202 0.80193,-3.19321 c 0.44106,-1.75628 0.76775,-3.21669 0.72597,-3.24539 -0.0418,-0.0287 -1.69207,0.21201 -3.66728,0.53488 l -3.59132,0.58706 -0.50421,2.22685 c -0.27731,1.22475 -0.59743,2.62773 -0.71136,3.11772 -0.24462,1.05198 -0.18926,1.05812 3.91066,0.43411 z m 18.88914,0.088 c 0.95206,-0.18389 1.88669,-0.57705 2.07695,-0.87366 0.54475,-0.84928 1.97829,-4.78391 1.8058,-4.9564 -0.0854,-0.0855 -1.78447,0.0665 -3.77551,0.33757 -3.52928,0.48067 -3.62006,0.51937 -3.62006,1.54358 0,0.57781 -0.25936,1.78567 -0.57637,2.68415 l -0.57636,1.63361 1.46727,-0.0172 c 0.80698,-0.009 2.24622,-0.1677 3.19828,-0.35161 z m 54.82584,-0.66054 c 1.48879,-0.36733 2.76571,-0.86508 2.83761,-1.10611 0.0718,-0.24101 0.23808,-0.9282 0.3693,-1.52708 l 0.2386,-1.08889 h -3.32257 -3.32255 l -0.24838,1.48484 c -0.13663,0.81665 -0.36364,1.90602 -0.50453,2.42081 -0.21523,0.78642 -0.13618,0.8999 0.49474,0.71016 0.41298,-0.12421 1.96899,-0.52639 3.45778,-0.89373 z m -36.92707,-1.34635 c 0.9923,0 1.16346,-0.21246 1.72371,-2.1397 0.34212,-1.17684 0.62203,-2.34243 0.62203,-2.59023 0,-0.49451 -5.66232,-0.17117 -6.70404,0.38284 -0.31171,0.16577 -0.79901,1.07805 -1.08287,2.02729 -0.85103,2.84574 -0.83964,2.86113 1.90566,2.5742 1.33861,-0.13993 2.92958,-0.2544 3.53551,-0.2544 z m 17.5857,-1.67815 c 0.25866,-0.37774 1.34094,-4.83836 1.20656,-4.97275 -0.0917,-0.0917 -1.58375,-0.0413 -3.31556,0.11194 l -3.14876,0.27873 -0.63559,2.2652 c -0.34956,1.24586 -0.63557,2.44061 -0.63557,2.65502 0,0.33342 6.29223,0.007 6.52892,-0.33814 z m 30.50421,-0.66416 c 0.65223,-0.0271 0.93196,-0.5358 1.48816,-2.70612 0.37673,-1.46998 0.68346,-2.81376 0.68163,-2.98617 -0.003,-0.2724 -5.92489,0.0404 -6.26993,0.33112 -0.22995,0.19379 -1.56741,5.67681 -1.42054,5.82368 0.0781,0.0781 1.17158,0.0135 2.42981,-0.14351 1.25822,-0.15709 2.64911,-0.30066 3.09087,-0.31903 z m -16.39972,-0.27747 c 1.73063,-0.24301 1.74172,-0.25491 2.58625,-2.77473 0.4665,-1.39187 0.73376,-2.5856 0.59393,-2.65275 -0.13978,-0.0672 -1.76218,0.0678 -3.60521,0.29999 l -3.35097,0.4221 -0.50051,1.73827 c -0.27529,0.95604 -0.60571,2.06967 -0.73426,2.47471 -0.20385,0.64228 -0.009,0.73646 1.51948,0.73646 0.96426,0 2.53534,-0.10985 3.49129,-0.24405 z m -54.05501,-0.54785 c 0.95712,0 1.43785,-1.06732 1.99218,-4.42309 l 0.24008,-1.45342 -1.53042,0.35509 c -1.74703,0.40535 -4.10411,0.48691 -4.10411,0.14202 0,-0.12765 0.30294,-1.36887 0.67319,-2.75841 0.37026,-1.38953 0.58806,-2.61158 0.48399,-2.71565 -0.104,-0.10401 -1.26136,0.0808 -2.57174,0.41095 l -2.38255,0.60016 -0.60619,2.97622 -0.6062,2.97621 1.21789,-0.25158 c 2.84492,-0.58769 3.79125,-0.67676 3.78541,-0.35631 -0.003,0.18716 -0.25231,1.38652 -0.55316,2.66525 l -0.54698,2.32499 1.79629,-0.24621 c 0.98797,-0.13543 2.2085,-0.24621 2.71232,-0.24621 z m -18.82943,-1.18787 c 1.02379,0 1.12376,-0.16357 1.72372,-2.82026 0.35029,-1.55115 0.6369,-2.94872 0.6369,-3.10571 0,-0.34097 -6.74705,1.4129 -7.14155,1.85641 -0.25184,0.28313 -1.17352,3.66137 -1.17352,4.3013 0,0.15236 1.09522,0.16255 2.43382,0.0226 1.33859,-0.13993 2.92288,-0.25438 3.52063,-0.25438 z m 103.3293,-1.34853 c 2.26923,-0.73113 2.58852,-0.95805 2.699,-1.91811 0.14726,-1.28013 0.0341,-1.24495 1.55834,-0.48456 0.93134,0.46461 1.59328,0.5185 2.86337,0.23314 0.90858,-0.20416 1.72719,-0.4464 1.81913,-0.53833 0.25719,-0.25719 1.09288,-4.6537 0.91662,-4.82221 -0.0856,-0.0819 -1.44783,0.14397 -3.02728,0.50161 -2.66118,0.60263 -2.90257,0.74376 -3.29238,1.92489 l -0.42065,1.27459 -3.42886,0.11403 -3.42887,0.11404 -0.29335,1.72397 c -0.16134,0.94816 -0.40278,2.06876 -0.53654,2.49018 -0.27922,0.87978 0.0922,0.82996 4.57147,-0.61323 z m -69.26623,0.31964 c 1.36354,-0.19696 1.43955,-0.29802 2.22146,-2.95315 l 0.80962,-2.74922 h -1.07451 c -0.59098,0 -2.17219,0.11478 -3.51382,0.25496 l -2.43933,0.25495 -0.61942,2.21976 c -0.34069,1.22088 -0.71268,2.5508 -0.82664,2.95539 -0.2175,0.77214 0.20773,0.77351 5.44264,0.0174 z m 16.10755,-1.18068 2.07713,-0.26778 0.82161,-2.75881 c 0.45189,-1.51736 0.76444,-2.81273 0.69456,-2.8786 -0.0699,-0.0658 -1.66126,0.072 -3.5364,0.30633 l -3.40936,0.42609 -0.84717,2.63038 c -0.46594,1.44671 -0.84716,2.77414 -0.84716,2.94985 0,0.17572 0.66817,0.21617 1.48483,0.0899 0.81666,-0.12631 2.41954,-0.3501 3.56196,-0.49736 z m 15.99204,-1.55815 2.23096,-0.2374 0.63972,-2.27995 c 0.35185,-1.25397 0.63972,-2.4265 0.63972,-2.60562 0,-0.31156 -4.44242,-0.006 -6.17461,0.42436 -0.60408,0.15016 -0.94596,0.70939 -1.25909,2.05948 -0.23641,1.01933 -0.55532,2.17772 -0.70866,2.57416 -0.24422,0.63136 -0.11254,0.69485 1.06109,0.51159 0.73697,-0.11508 2.34386,-0.31605 3.57087,-0.44662 z m 16.80899,-0.98032 c 1.15503,-0.003 1.25802,-0.13319 1.88079,-2.3732 0.36237,-1.30337 0.65886,-2.46153 0.65886,-2.57371 0,-0.3187 -5.69099,-0.22711 -6.1566,0.0991 -0.22837,0.15999 -0.64063,1.09272 -0.91614,2.0727 -0.2755,0.98 -0.5993,2.12089 -0.71956,2.53532 -0.20172,0.69517 -0.0542,0.73376 1.90603,0.49838 1.16858,-0.14038 2.67456,-0.25667 3.34662,-0.25856 z m 15.26221,-0.76194 c 0.8907,-0.0286 1.1051,-0.28455 1.47769,-1.76424 0.2397,-0.95195 0.54719,-2.02102 0.6833,-2.37573 0.21676,-0.56488 -0.17199,-0.64491 -3.1324,-0.64491 h -3.37989 l -0.62203,2.1397 c -0.95942,3.3003 -0.96504,3.29027 1.65471,2.96301 1.25221,-0.15643 2.74558,-0.29947 3.31862,-0.31783 z m 26.16671,-1.23273 c 1.83008,-0.51533 2.76465,-1.41567 2.60814,-2.51264 -0.10984,-0.76966 -0.36524,-0.84154 -2.99094,-0.84154 h -2.87089 l -0.24989,1.38584 c -0.13738,0.76223 -0.4248,1.72367 -0.63858,2.13655 -0.35809,0.69162 -0.2683,0.73084 1.141,0.49842 0.84133,-0.13873 2.19185,-0.43874 3.00116,-0.66663 z m -97.29595,-0.3845 h 2.07553 l 0.98456,-2.67271 c 0.5415,-1.46999 1.11961,-2.98654 1.28468,-3.37011 0.21321,-0.49549 0.14396,-0.64852 -0.23892,-0.52858 -0.29646,0.0929 -2.17032,0.55611 -4.16413,1.02943 l -3.62509,0.86058 -0.24902,1.44979 c -0.13693,0.79739 -0.35193,1.96604 -0.47772,2.59702 -0.22182,1.11266 -0.19009,1.1395 1.05292,0.8909 0.70491,-0.14097 2.21564,-0.25632 3.35719,-0.25632 z m 17.83271,-1.37268 c 0.76588,-0.48685 2.44692,-4.81396 2.03155,-5.22933 -0.1085,-0.1085 -1.52131,0.0165 -3.13973,0.27754 l -2.94257,0.4747 -1.43994,2.66594 c -0.79198,1.46628 -1.35542,2.75048 -1.2521,2.8538 0.34131,0.34131 5.92352,-0.52187 6.74279,-1.04265 z m 15.53957,-0.99962 c 1.41305,-0.004 1.48071,-0.10565 2.62146,-3.94699 l 0.62271,-2.09686 -2.81568,0.27744 c -4.09791,0.40381 -4.46694,0.61499 -4.98596,2.8532 -0.24486,1.05594 -0.57673,2.26006 -0.7375,2.67584 -0.27243,0.70453 -0.14636,0.73843 1.85299,0.49838 1.17994,-0.14172 2.72883,-0.25912 3.44198,-0.26101 z m 73.13297,-0.45448 c 1.30115,-0.21274 2.3776,-0.42103 2.39212,-0.46284 0.17111,-0.49272 1.37948,-5.42466 1.37948,-5.63035 0,-0.25548 -2.32748,-0.0416 -4.79063,0.44024 -1.05146,0.20568 -1.01134,0.11658 -2.64433,5.87381 -0.17551,0.6188 -0.0751,0.70464 0.54108,0.46285 0.41611,-0.16327 1.82114,-0.47094 3.12228,-0.68371 z m -56.97943,-0.56411 c 1.07332,-0.16067 1.29401,-0.42949 1.88079,-2.29094 1.04023,-3.3 0.98224,-3.45102 -1.21602,-3.16707 -5.28005,0.68204 -4.89012,0.45516 -5.68814,3.30976 -0.39507,1.4132 -0.72457,2.60113 -0.73222,2.63984 -0.0192,0.0973 4.26831,-0.26895 5.75559,-0.49159 z m 28.91653,0.22324 c 0.76508,0 1.0215,-0.34417 1.52857,-2.05165 0.92172,-3.10381 0.99131,-3.024 -2.21052,-2.53582 l -2.8198,0.42993 -0.74885,1.91046 c -0.41185,1.05074 -0.63398,2.09627 -0.49361,2.3234 0.1542,0.24951 0.96167,0.31613 2.04008,0.16831 0.98166,-0.13453 2.19853,-0.24463 2.70413,-0.24463 z m -14.50495,-0.39595 h 1.86813 l 0.80971,-2.77574 c 0.44535,-1.52665 0.68894,-2.85038 0.54134,-2.9416 -0.33964,-0.20991 -5.39263,0.40597 -5.89911,0.719 -0.20772,0.1284 -0.58582,1.08278 -0.84023,2.12092 -0.25441,1.03814 -0.56396,2.22568 -0.68789,2.63899 -0.19854,0.66212 -0.0729,0.72097 1.05728,0.49495 0.70545,-0.14113 2.12329,-0.25652 3.15077,-0.25652 z m 29.59645,-0.16627 c 0.2124,-0.17458 1.58622,-4.95965 1.46014,-5.08573 -0.078,-0.078 -1.42258,-0.004 -2.98785,0.16219 -1.56528,0.16726 -2.96723,0.22914 -3.11546,0.13753 -0.25249,-0.15605 -1.57925,4.0278 -1.57925,4.98008 0,0.30357 0.93059,0.35083 3.06866,0.1558 1.68776,-0.15396 3.10695,-0.31139 3.15376,-0.34987 z m 27.57225,-2.39501 c 1.2739,-0.3043 2.36468,-0.60977 2.42398,-0.67882 0.0593,-0.069 0.23449,-0.9976 0.38933,-2.06345 l 0.28154,-1.93793 -1.51765,0.25076 c -0.83472,0.13798 -2.07692,0.25272 -2.76046,0.25511 -1.12319,0.004 -1.26868,0.14726 -1.51187,1.48919 -0.148,0.81666 -0.36531,1.88574 -0.48294,2.37574 -0.25273,1.05282 -0.0263,1.07486 3.17807,0.3094 z m -108.31764,-2.24169 c -0.50702,-0.31335 -0.9199,-0.26135 -4.37118,0.55063 -2.51071,0.59068 -2.3935,1.07791 0.19797,0.82296 1.14333,-0.11254 2.52422,-0.0331 3.06866,0.17656 0.82882,0.31907 1.04023,0.2493 1.29924,-0.42877 0.19947,-0.52221 0.13034,-0.92051 -0.19469,-1.12138 z m 13.30451,0.13484 2.3324,-0.28135 0.5208,-1.97976 c 0.78544,-2.98581 0.80398,-2.95289 -1.32505,-2.35308 -1.03443,0.29142 -2.63105,0.72234 -3.54804,0.9576 -1.45582,0.37348 -1.71916,0.61462 -2.07656,1.9015 -0.62049,2.23416 -0.54963,2.46926 0.67516,2.24014 0.59889,-0.11209 2.13846,-0.33031 3.42129,-0.48505 z m 59.81411,-0.87527 h 2.06025 l 0.45449,-1.88079 c 0.24998,-1.03444 0.57165,-2.29323 0.71483,-2.79733 0.2575,-0.90658 0.23285,-0.91387 -2.26728,-0.66982 -4.13289,0.40342 -4.06685,0.36789 -4.57305,2.46027 -0.25251,1.04378 -0.59366,2.23785 -0.75812,2.65349 -0.26823,0.67788 -0.16474,0.72885 1.00481,0.49495 0.71709,-0.14337 2.23093,-0.26077 3.36407,-0.26077 z m -41.87691,-0.6056 c 0.38178,-0.11628 2.10187,-4.92122 2.10187,-5.87136 0,-0.31962 -1.96281,-0.3208 -4.60965,-0.003 l -2.03596,0.24463 -0.83598,2.82059 c -0.45979,1.55132 -0.8354,2.94386 -0.83472,3.09453 0.001,0.25949 5.21096,0.02 6.21444,-0.2856 z m 57.48617,0.35813 c 0.81995,-0.164 1.23736,-0.48113 1.23736,-0.94011 0,-0.38095 0.26916,-1.45556 0.59816,-2.38801 0.32898,-0.93245 0.51518,-1.77835 0.41376,-1.87977 -0.10146,-0.10146 -1.52631,-0.0587 -3.16641,0.095 l -2.98202,0.27943 -0.56091,1.84752 c -0.30849,1.01614 -0.68638,2.15934 -0.83973,2.54044 -0.24528,0.60957 -0.0177,0.69292 1.8918,0.69292 1.19384,0 2.72743,-0.11134 3.40799,-0.24746 z m -41.64355,-0.91592 c 0.40676,-0.0209 2.2582,-5.14318 1.96499,-5.43638 -0.057,-0.057 -1.65812,0.1082 -3.5579,0.36726 l -3.45416,0.47101 -0.38171,1.41749 c -0.20991,0.77961 -0.4883,1.95058 -0.61861,2.60216 l -0.23693,1.18468 2.90405,-0.29087 c 1.59722,-0.15998 3.11835,-0.30189 3.38027,-0.31535 z m 13.88083,-0.34182 c 0.55344,-0.70589 1.35476,-3.30669 1.09792,-3.56351 -0.0901,-0.0901 -1.39244,-0.0404 -2.89411,0.11045 l -2.73034,0.27419 -0.61517,1.92368 c -0.33834,1.05803 -0.54893,1.98991 -0.46797,2.07087 0.081,0.081 1.26406,0.0736 2.62913,-0.0163 1.65489,-0.10895 2.64808,-0.37536 2.98054,-0.7994 z m 41.09284,0.11868 2.39184,-0.25574 0.63946,-2.44546 c 0.3517,-1.345 0.58321,-2.50366 0.51449,-2.57477 -0.0687,-0.0711 -1.55576,-0.004 -3.3045,0.148 l -3.17957,0.27737 -0.54747,2.42566 c -0.6062,2.68583 -0.53743,3.13963 0.43431,2.86622 0.36277,-0.10207 1.73592,-0.30067 3.05144,-0.44131 z m 13.31018,-1.63319 c 1.38592,-0.22919 1.47266,-0.33874 2.03456,-2.56935 l 0.58692,-2.32997 h -2.54194 c -1.69701,0 -2.58713,0.16451 -2.67794,0.49494 -0.0748,0.27222 -0.30563,1.43039 -0.51292,2.57371 -0.37492,2.06799 -0.37158,2.07875 0.6434,2.07441 0.56116,-0.003 1.67173,-0.11209 2.46792,-0.24374 z m -46.94822,-2.73791 c 0.64158,-0.1275 1.0107,-0.79667 1.65175,-2.99419 l 0.82553,-2.82994 -1.806,0.24754 c -0.9933,0.13618 -2.39722,0.24754 -3.11982,0.24754 -1.28144,0 -1.33373,0.0669 -2.12249,2.71539 -0.44477,1.49345 -0.80868,2.83136 -0.80868,2.97313 0,0.2416 3.54924,0.004 5.37971,-0.35947 z m 16.42839,-3.34603 c 0.38603,-1.41376 0.63697,-2.63538 0.55762,-2.71472 -0.0793,-0.0793 -1.61224,0.009 -3.40645,0.19473 l -3.2622,0.33898 -0.46672,1.97978 c -0.25668,1.08889 -0.51329,2.15796 -0.57024,2.37574 -0.19712,0.75396 0.003,0.791 3.2174,0.59394 l 3.22872,-0.19799 z m -44.09819,2.52348 c 0.63708,-0.17081 1.03369,-0.78129 1.46626,-2.25692 0.32612,-1.11252 0.55035,-2.06536 0.49828,-2.11744 -0.16601,-0.16601 -6.39127,1.49954 -6.64605,1.77813 -0.13454,0.14711 -0.3528,0.84657 -0.48505,1.55434 l -0.24043,1.28686 2.26684,-0.006 c 1.24677,-0.003 2.65984,-0.11074 3.14015,-0.23955 z m 57.57417,-0.49879 c 0.29548,-0.30053 1.4931,-5.11029 1.31644,-5.28695 -0.0694,-0.0694 -1.5403,0.0413 -3.26867,0.24605 l -3.14251,0.37222 -0.49479,2.21127 c -0.27214,1.21621 -0.57996,2.43332 -0.68406,2.7047 -0.14606,0.38065 0.52163,0.43691 2.92115,0.24613 1.71074,-0.13604 3.21934,-0.35806 3.35244,-0.49342 z m -43.64028,-0.77043 1.74064,-0.26762 0.90478,-2.96966 c 0.49762,-1.63332 0.91705,-2.58784 0.93205,-2.12113 0.034,1.05807 0.71987,1.32921 3.36227,1.32921 h 2.08236 l 0.49424,-2.20848 c 0.27183,-1.21465 0.42214,-2.28055 0.33404,-2.36867 -0.23678,-0.23678 -5.44758,1.30744 -6.02286,1.78488 -0.27148,0.22531 -0.57146,0.33182 -0.66661,0.23667 -0.0952,-0.0952 -1.40245,0.13723 -2.90513,0.51653 l -2.73213,0.68949 -0.69035,1.96165 c -0.37968,1.0789 -0.70414,2.36255 -0.72102,2.85254 -0.0338,0.98332 0.58224,1.0728 3.88772,0.56459 z m 57.5237,-0.22498 c 0.30861,0.19074 0.97732,-1.91421 1.37614,-4.33179 l 0.25033,-1.51747 -1.93661,0.25608 c -4.08613,0.54032 -3.85788,0.37933 -4.53239,3.19707 -0.3388,1.41531 -0.56422,2.62509 -0.50092,2.68839 0.0633,0.0633 1.22752,-0.0162 2.58719,-0.17641 1.35966,-0.16031 2.59998,-0.21246 2.75626,-0.11583 z m -20.03603,-4.5032 c 0.4713,-0.32284 1.92061,-5.20481 1.63109,-5.49431 -0.10057,-0.10057 -1.4774,-0.0401 -3.05957,0.13454 l -2.87668,0.31741 -0.71854,2.57371 c -0.39521,1.41555 -0.72482,2.61826 -0.73248,2.6727 -0.0346,0.24653 5.37854,0.0546 5.75618,-0.20403 z m -15.61086,-0.34044 c 1.38127,-0.22842 1.48011,-0.35336 2.27674,-2.87749 0.45804,-1.45129 0.83279,-3.01563 0.83279,-3.47634 0,-0.77979 -0.11613,-0.81197 -1.68281,-0.46588 -4.60376,1.01701 -4.48427,0.94031 -4.99371,3.20484 -0.25744,1.14431 -0.57403,2.48149 -0.70353,2.97148 -0.21444,0.81136 -0.0988,0.89051 1.29555,0.88654 0.84205,-0.003 2.1808,-0.11179 2.97497,-0.24315 z m 29.93723,-1.10704 c 0.0699,-0.0699 0.55368,-1.50979 1.0751,-3.1998 l 0.94805,-3.07272 -2.05181,0.24649 c -1.1285,0.13559 -2.50616,0.24805 -3.06147,0.24994 -0.90902,0.003 -1.05731,0.23037 -1.48786,2.28019 -0.26302,1.2522 -0.5939,2.70512 -0.73531,3.22869 l -0.25709,0.95194 2.72168,-0.27884 c 1.49691,-0.15337 2.77883,-0.33602 2.84871,-0.40589 z m 13.36209,-1.48342 c 0.28183,-0.28182 1.92626,-6.25465 1.75881,-6.38827 -0.0964,-0.0769 -1.23956,-0.037 -2.54034,0.0887 l -2.36504,0.22856 -0.64998,1.7818 c -0.35747,0.98 -0.77612,2.47589 -0.93033,3.32424 l -0.28035,1.54243 2.43575,-0.22086 c 1.33968,-0.12152 2.49684,-0.28195 2.57148,-0.35658 z m -32.66227,-3.4938 c 0.003,-0.32859 0.11493,-1.26597 0.2499,-2.08304 l 0.24555,-1.48559 -1.53676,0.53691 c -0.84522,0.29531 -2.19868,0.65892 -3.0077,0.80802 -1.61842,0.29826 -1.66824,0.34546 -2.05032,1.94255 l -0.26511,1.10819 3.18004,-0.11478 c 2.51797,-0.0908 3.18094,-0.23918 3.1844,-0.71226 z m 13.54605,-1.18794 c 0.97475,-0.003 1.1377,-0.22117 1.70405,-2.28018 0.34442,-1.25222 0.79103,-2.67766 0.99247,-3.16766 0.44318,-1.07809 0.69016,-1.07438 -3.39038,-0.0509 -3.68891,0.92522 -3.33098,0.52769 -4.38008,4.86451 l -0.27841,1.15096 2.13726,-0.25661 c 1.17551,-0.14112 2.6223,-0.25818 3.21509,-0.26007 z m 13.28102,-2.21079 c 1.8277,-0.23839 2.11302,-0.3995 2.31835,-1.30899 0.12886,-0.57043 0.57437,-2.1779 0.9902,-3.57214 0.41581,-1.39424 0.68458,-2.60642 0.59726,-2.69374 -0.19123,-0.19123 -5.46702,1.12469 -5.89556,1.4705 -0.30893,0.24929 -1.87626,5.57032 -1.87626,6.36986 0,0.26117 0.36671,0.35383 0.8909,0.22512 0.48999,-0.12032 1.8288,-0.34109 2.97511,-0.49061 z m -233.32228,45.33716 c 5.66217,-1.47588 14.12572,-3.69772 18.8079,-4.93745 4.68218,-1.23972 11.18575,-2.95324 14.45238,-3.80781 8.65401,-2.26398 18.1574,-5.07496 18.58352,-5.49679 1.0562,-1.04556 0.26771,-0.88 -15.81184,3.31985 -11.40127,2.97792 -17.28648,4.49541 -34.78002,8.96794 -6.9336,1.7727 -12.87214,3.325 -13.19678,3.44957 -0.40399,0.15502 -15.82404,-15.00089 -48.865581,-48.02852 -26.551436,-26.54026 -48.275339,-48.48088 -48.275339,-48.7569 0,-0.56723 -0.37009,-0.63201 -1.069777,-0.18728 -0.312275,0.1985 16.419519,17.20645 48.674723,49.47808 44.849744,44.87259 49.239614,49.15404 50.168274,48.92916 0.55974,-0.13559 5.65038,-1.45398 11.31254,-2.92985 z m 4.52587,-4.96332 c 8.18178,-2.09259 20.04319,-5.1416 26.35868,-6.77556 6.31548,-1.63395 12.37361,-3.19065 13.46248,-3.45932 1.88357,-0.46477 1.92206,-0.49999 0.79192,-0.72494 -2.5987,-0.51727 -10.59121,-0.76324 -10.85642,-0.33411 -0.18423,0.29806 -0.85998,0.23796 -2.22718,-0.19811 l -1.96272,-0.62601 -18.21395,4.77447 c -25.31732,6.63649 -25.54249,6.69862 -26.17339,7.22223 -0.45718,0.37941 -0.46915,0.58207 -0.0636,1.07497 0.54609,0.66363 3.46025,2.85112 3.79824,2.85112 0.11554,0 6.90412,-1.71213 15.08591,-3.80474 z m -7.78997,-6.69369 c 23.16176,-5.93204 29.22331,-7.58096 29.71167,-8.08248 0.37535,-0.38541 0.067,-0.86425 -1.44167,-2.2394 -1.0555,-0.96204 -2.18519,-1.74916 -2.5104,-1.74916 -0.32521,0 -5.43065,1.32225 -11.34541,2.93833 -5.91478,1.61609 -15.29772,4.0297 -20.851,5.36356 -10.3086,2.47609 -11.1334,2.72682 -11.37736,3.4587 -0.14157,0.42483 3.6661,3.68167 4.30441,3.68167 0.19072,0 6.27011,-1.51704 13.50976,-3.37122 z m 80.37234,-8.33462 c 25.63866,-6.67448 47.05539,-12.22168 59.29847,-15.35902 26.73637,-6.85133 40.73697,-10.45097 51.07828,-13.13251 10.03929,-2.60322 36.01057,-9.29707 55.43376,-14.28755 3.81106,-0.97919 7.1074,-1.95934 7.32517,-2.1781 0.48737,-0.48959 -0.19497,-1.13929 -17.00642,-16.1928 -33.42483,-29.92966 -28.96873,-26.2861 -33.93519,-27.74742 -2.25291,-0.66291 -7.08072,-2.15274 -10.72845,-3.31075 -3.64774,-1.15801 -6.632,-1.99358 -6.63169,-1.85683 3.2e-4,0.13678 1.99924,2.03045 4.44208,4.20821 5.59218,4.98536 12.38949,11.19135 19.51266,17.81522 3.04886,2.83514 9.24061,8.52141 13.75946,12.63615 4.51885,4.11474 8.21335,7.7664 8.21001,8.11479 -0.003,0.34839 -0.15125,0.86228 -0.32873,1.14199 -0.39713,0.62589 -9.41752,2.97464 -105.97928,27.5951 -10.01768,2.55421 -21.59937,5.51272 -25.73712,6.57446 -4.13772,1.06174 -12.37551,3.13028 -18.30618,4.59675 -10.34718,2.55855 -10.85932,2.64592 -12.67058,2.16159 -1.77283,-0.47409 -4.35393,-2.96362 -42.47299,-40.96635 -42.01885,-41.89063 -42.05597,-41.93045 -40.06955,-42.99355 0.41805,-0.22375 4.03661,-1.23205 8.04122,-2.24068 7.35314,-1.85202 9.33251,-2.51702 7.56192,-2.54051 -0.49888,-0.006 -5.24261,-1.0011 -10.54164,-2.20994 l -9.63457,-2.1979 -3.67467,1.03319 c -2.02108,0.56824 -6.57698,1.71861 -10.12425,2.55638 -6.991812,1.65128 -7.39098,1.79607 -7.210035,2.61539 0.06645,0.3011 8.946915,9.41621 19.734255,20.25579 25.17199,25.29393 72.18072,72.92376 76.40934,77.41889 2.31777,2.46386 3.53021,3.46462 4.19746,3.46462 0.51605,0 9.53731,-2.23858 20.04726,-4.97461 z m -88.49877,-0.98484 c 7.35367,-1.97103 15.59757,-4.18111 18.31976,-4.91128 2.7222,-0.73018 5.87038,-1.53724 6.99596,-1.79346 1.1256,-0.25622 2.37284,-0.70448 2.7717,-0.99614 0.69238,-0.50629 0.68042,-0.57815 -0.26472,-1.58968 -2.19651,-2.35079 -1.95636,-2.36119 -13.4703,0.58323 -5.76676,1.4747 -14.76134,3.77386 -19.98795,5.10924 -10.59395,2.70672 -11.51583,3.01338 -11.87543,3.95048 -0.31252,0.81442 2.19294,3.23133 3.34975,3.23133 0.435,0 6.80756,-1.61267 14.16123,-3.58372 z m -8.80321,-6.08716 c 4.5733,-1.20958 12.94776,-3.37224 18.60993,-4.80588 6.33208,-1.60327 10.56702,-2.87203 11.00194,-3.2961 0.67645,-0.65954 0.60282,-0.78893 -1.69685,-2.98245 -2.79816,-2.66898 -1.90379,-2.65023 -11.0869,-0.23244 -3.15774,0.83139 -12.15583,3.1459 -19.99575,5.14336 -7.83992,1.99746 -14.432593,3.80912 -14.650368,4.02592 -0.263448,0.26227 0.489454,1.23601 2.249908,2.90982 l 2.64585,2.51564 2.30359,-0.5393 c 1.26697,-0.29661 6.04536,-1.52897 10.61865,-2.73857 z M 115.2617,206.5405 c 17.52648,-4.42705 20.68868,-5.33255 20.68868,-5.92422 0,-0.97672 -2.74007,-3.13181 -3.98192,-3.13181 -1.7945,0 -40.925986,9.89413 -41.533257,10.5014 -0.510454,0.51045 -0.393189,0.77297 0.96796,2.16691 0.851828,0.87236 1.91352,1.59226 2.35932,1.5998 0.4458,0.007 10.120447,-2.33788 21.499217,-5.21208 z m 99.30137,-0.35089 c 0.53593,-0.20377 0.97439,-0.57483 0.97439,-0.8246 0,-0.24979 -1.39156,-1.90235 -3.09236,-3.6724 -5.04936,-5.25492 -16.38841,-17.67063 -16.13828,-17.67063 0.12735,0 1.78908,1.38821 3.69276,3.08491 8.72669,7.77785 20.23754,17.50478 20.71517,17.50478 0.18086,0 0.73812,-0.16584 1.23836,-0.36855 0.50024,-0.2027 1.39952,-0.47336 1.99841,-0.60148 0.59888,-0.1281 1.08888,-0.4703 1.08888,-0.76041 0,-0.29012 -2.78513,-4.42942 -6.18918,-9.19843 -6.64115,-9.30414 -9.86544,-14.06213 -8.38779,-12.37759 1.12768,1.28557 9.0941,10.16779 14.15595,15.78331 4.99057,5.53641 4.59023,5.30252 7.72725,4.51454 1.51756,-0.38121 2.59265,-0.86321 2.59265,-1.16238 0,-0.28112 -2.9845,-3.6935 -6.63225,-7.58309 -3.64774,-3.88958 -9.82227,-10.49784 -13.72116,-14.68503 -3.8989,-4.18719 -7.37341,-7.6032 -7.72114,-7.59112 -1.82978,0.0635 -7.76636,1.85879 -7.85411,2.37516 -0.0998,0.58742 4.84875,7.84019 10.07109,14.76042 1.61581,2.14117 2.67831,3.74478 2.36111,3.5636 -0.49269,-0.28142 -9.62435,-8.00139 -17.8404,-15.08241 -1.32893,-1.14534 -2.59441,-2.01461 -2.81219,-1.93171 -0.21777,0.0829 -2.1332,0.55196 -4.25652,1.04235 -2.12331,0.4904 -3.86057,1.05929 -3.86057,1.26421 0,0.40919 3.05035,3.90186 12.07666,13.82783 3.26663,3.59223 7.98341,8.81146 10.48172,11.59827 l 4.54241,5.06695 1.90738,-0.25302 c 1.04906,-0.13917 2.34586,-0.41973 2.88176,-0.62348 z m -107.97071,-6.16112 c 21.82398,-5.51971 21.83487,-5.52297 21.83487,-6.53826 0,-0.67595 -3.77377,-3.9245 -4.54656,-3.9138 -0.85188,0.012 -6.40313,1.39825 -27.463771,6.85927 -7.26133,1.88286 -13.363994,3.52325 -13.561471,3.64529 -0.75645,0.46751 -0.296442,1.51107 1.323763,3.00303 1.61901,1.49087 1.763207,1.54138 3.803252,1.3323 1.166242,-0.11957 9.540703,-2.09405 18.609917,-4.38783 z m 133.82937,-0.41009 c 1.23128,-0.35079 2.3951,-0.78337 2.58626,-0.96131 0.19319,-0.17983 -0.46635,-1.48783 -1.48484,-2.94481 -1.00782,-1.44169 -1.8324,-2.7617 -1.8324,-2.93334 0,-0.17163 1.09544,-0.61663 2.43432,-0.98886 l 2.43432,-0.6768 1.22828,1.10003 c 0.67554,0.60504 2.07026,1.89392 3.09936,2.86422 l 1.87111,1.76417 2.68238,-0.52214 c 2.72889,-0.53118 3.82246,-1.04345 3.46438,-1.62282 -0.71842,-1.16245 -32.91952,-28.09944 -33.58019,-28.09066 -1.1787,0.0157 -7.167,1.89469 -7.29884,2.29022 -0.1513,0.45392 3.66595,6.23388 9.98944,15.12568 1.9359,2.7222 5.02428,7.0876 6.86306,9.70091 3.17153,4.50745 4.76461,6.53327 5.13765,6.53327 0.0919,0 1.17443,-0.28699 2.40571,-0.63776 z m -10.43765,-19.23972 -5.42338,-7.20689 3.26117,2.95037 c 1.79364,1.62271 5.06427,4.51001 7.26807,6.41626 2.20378,1.90623 4.06246,3.63206 4.13041,3.83517 0.11358,0.3395 -2.28497,1.20463 -3.35406,1.20978 -0.25236,0.001 -2.89935,-3.24089 -5.88221,-7.20469 z M 86.455937,195.25242 c 11.859319,-3.09705 31.929203,-8.53093 32.765333,-8.87117 0.48999,-0.19938 0.89089,-0.61287 0.89089,-0.91886 0,-0.51086 -2.8836,-3.42019 -3.38993,-3.42019 -0.44706,0 -10.14639,2.49866 -19.17954,4.94085 -5.117724,1.38364 -11.888564,3.17189 -15.04631,3.97387 -3.157746,0.802 -6.178253,1.73559 -6.71224,2.07462 l -0.970884,0.61645 1.920577,1.7388 c 2.212481,2.0031 1.499487,2.01295 9.722104,-0.13439 z m 178.717233,-1.83305 c 1.05769,-0.24527 2.01035,-0.67339 2.11703,-0.95142 0.1073,-0.27964 -2.96327,-3.83321 -6.8725,-7.95357 -11.22905,-11.83543 -15.23493,-16.25386 -14.90083,-16.43539 0.17116,-0.0929 1.15755,-0.39791 2.19198,-0.67756 1.03444,-0.27964 1.8808,-0.64421 1.8808,-0.81013 0,-0.54553 -3.58283,-4.29961 -4.32973,-4.53667 -0.62661,-0.19888 -13.93569,2.70184 -14.77413,3.22002 -0.64267,0.39718 -0.22128,1.25849 1.58281,3.23528 l 1.88079,2.06082 2.27223,-0.54653 2.27224,-0.54653 5.25092,5.60666 c 2.888,3.08366 7.91149,8.50357 11.16331,12.04425 6.23585,6.78981 6.79939,7.29541 7.74809,6.95181 0.32666,-0.11822 1.45931,-0.41578 2.51699,-0.66104 z m 19.10912,-4.21582 c 2.02216,-0.9183 2.92313,-2.15803 2.92313,-4.02222 0,-1.63458 -1.08775,-3.40457 -4.25666,-6.9264 l -2.07889,-2.31044 -2.4746,0.511 c -3.76059,0.77656 -3.8185,0.85893 -2.01254,2.86211 0.86016,0.95409 1.95717,2.25221 2.4378,2.8847 0.82006,1.07916 0.83314,1.19499 0.2125,1.88079 -1.4665,1.62048 -3.18537,0.7498 -7.68597,-3.89332 -8.67477,-8.94946 -13.04639,-14.11765 -13.04639,-15.42368 0,-0.30737 0.43742,-0.75817 0.97205,-1.00176 1.46372,-0.66693 3.10185,0.19862 5.41987,2.86371 1.09494,1.25887 2.21305,2.37414 2.48469,2.47839 0.673,0.25824 5.50035,-1.09237 5.66451,-1.58483 0.25487,-0.76462 -6.40031,-6.69861 -8.77004,-7.81968 -2.73559,-1.29413 -7.03792,-1.75628 -9.67716,-1.0395 -5.1277,1.39261 -4.85579,5.56687 0.80239,12.31784 7.16939,8.55406 12.84678,14.41483 15.86788,16.38038 3.95513,2.57323 9.81119,3.38975 13.21743,1.84291 z M 79.257371,185.03788 c 4.721425,-1.18346 13.21709,-3.34467 18.87926,-4.80267 5.662159,-1.45802 10.710379,-2.74056 11.218269,-2.85009 1.31953,-0.28457 1.49622,-1.17171 0.45428,-2.2808 -2.02047,-2.15068 -1.69689,-2.19504 -22.87462,3.13551 -17.761644,4.4707 -20.672359,5.33549 -20.672359,6.14186 0,0.43198 3.267153,2.80793 3.861182,2.80793 0.302268,0 4.412562,-0.96828 9.133988,-2.15174 z m 217.648979,0.43542 c 1.33317,-0.34558 1.97976,-0.71934 1.97976,-1.14439 0,-0.34717 -2.36089,-3.16393 -5.24641,-6.25945 -2.88552,-3.09553 -5.24641,-5.76 -5.24641,-5.92106 0,-0.16107 1.09548,-0.52531 2.43441,-0.80945 l 2.4344,-0.51662 1.42617,1.56444 c 0.78439,0.86044 3.29705,3.66279 5.58369,6.22746 l 4.15754,4.66302 1.89629,-0.23726 c 2.45234,-0.30684 3.84507,-0.84763 3.84507,-1.49302 0,-0.5613 -14.4862,-16.57249 -22.02683,-24.34562 l -4.70019,-4.84511 -2.67268,0.63019 c -1.81861,0.42881 -2.67271,0.81831 -2.67271,1.21889 0,0.32377 2.32906,3.0219 5.17569,5.99583 l 5.17569,5.40714 -2.67651,0.53258 -2.67652,0.53259 -2.98534,-3.30339 c -1.64194,-1.81687 -4.05838,-4.41412 -5.36986,-5.77167 l -2.38451,-2.46826 -2.57371,0.64244 c -1.41554,0.35333 -2.73588,0.78879 -2.93411,0.96767 -0.33924,0.30613 1.86042,2.81509 11.24918,12.83087 2.06887,2.20703 6.3249,6.80681 9.45785,10.22171 3.941,4.29569 5.95419,6.20657 6.53327,6.20129 0.46035,-0.004 1.72789,-0.23856 2.81678,-0.52082 z m 23.63086,-5.82952 c 7.65869,-1.90066 7.84788,-1.96018 7.84272,-2.46729 -0.004,-0.41439 -3.79779,-4.63722 -4.16583,-4.63722 -0.0739,0 -1.97205,0.45181 -4.21812,1.00403 l -4.08377,1.00403 -3.45463,-3.67673 c -1.90004,-2.0222 -3.45912,-3.79643 -3.46461,-3.94275 -0.006,-0.14636 1.44988,-0.60594 3.23416,-1.02141 1.78429,-0.41548 3.30667,-0.94297 3.38308,-1.17221 0.0765,-0.22925 -0.73277,-1.36483 -1.79817,-2.52352 l -1.93712,-2.1067 -3.84155,0.88243 -3.84154,0.88244 -1.90557,-2.08897 c -3.56141,-3.90417 -4.10339,-4.64714 -3.53364,-4.844 0.2912,-0.10057 1.92581,-0.53218 3.63246,-0.95905 1.70664,-0.42687 3.19107,-0.8642 3.29871,-0.97183 0.34013,-0.34014 -0.53985,-1.59134 -2.37893,-3.38248 l -1.77949,-1.73309 -6.07109,1.46573 c -7.90939,1.90953 -7.45741,1.7566 -7.45382,2.52207 0.002,0.36644 2.98623,3.89291 6.63226,7.83664 3.64601,3.94371 9.48001,10.31179 12.96443,14.15127 4.49455,4.95259 6.58614,6.9821 7.1987,6.98503 0.47488,0.003 3.05849,-0.54062 5.74136,-1.20642 z M 77.199899,176.87361 c 6.941913,-1.75386 14.0471,-3.60889 15.789299,-4.12233 1.74221,-0.51343 4.147635,-1.15161 5.345408,-1.41817 3.383424,-0.75299 5.203404,-1.57638 5.065614,-2.29179 -0.0661,-0.34366 -0.84293,-1.13271 -1.7261,-1.75342 l -1.60577,-1.12859 -19.959243,4.97343 c -10.977584,2.7354 -20.201459,5.21565 -20.497501,5.51169 -0.810757,0.81076 2.02831,3.40983 3.729848,3.41456 0.680234,0.001 6.916534,-1.43153 13.858445,-3.18538 z m 263.378441,-1.7187 c 4.39817,-2.27438 3.71769,-6.53126 -1.90076,-11.89034 -2.99923,-2.86079 -6.5391,-4.50503 -13.19944,-6.13105 -2.79644,-0.68271 -5.64732,-1.52509 -6.3353,-1.87197 -1.61869,-0.81616 -3.35155,-2.43517 -4.06196,-3.79513 -0.52594,-1.00678 -0.49905,-1.11875 0.41192,-1.71564 1.33828,-0.87688 2.40662,-0.46933 4.77492,1.82152 l 1.97978,1.91505 2.55223,-0.70448 c 1.40374,-0.38746 2.61326,-0.88754 2.68785,-1.11127 0.17688,-0.53061 -3.85792,-4.21022 -5.9808,-5.45431 -4.86712,-2.85234 -10.85023,-2.65753 -13.28075,0.43237 -1.6693,2.12218 -0.56467,5.45368 3.01397,9.08997 3.46115,3.51689 6.54101,4.993 13.85592,6.6408 6.05884,1.36487 9.22854,3.124 10.67743,5.92584 0.60048,1.16123 0.58894,1.24837 -0.25607,1.93261 -0.4867,0.39411 -1.19667,0.71657 -1.5777,0.71657 -0.9908,0 -3.54088,-1.76054 -5.15882,-3.5616 l -1.38584,-1.54267 -2.72932,0.76096 c -1.50114,0.41852 -2.8259,0.85754 -2.94394,0.97557 -0.34762,0.34763 2.69932,3.29685 5.44586,5.27118 3.54675,2.54956 5.86644,3.31392 9.38724,3.09317 1.55349,-0.0974 3.36411,-0.45612 4.02358,-0.79715 z M 67.846025,171.1086 c 25.543434,-6.19804 30.31898,-7.41315 30.767159,-7.82854 0.487254,-0.45161 0.437345,-1.33341 -0.686081,-12.1224 -0.512949,-4.92619 -1.802924,-12.72057 -2.415452,-14.59477 -0.53625,-1.64079 0.226305,-1.73265 -13.852866,1.66876 -5.745926,1.38816 -11.783489,2.83255 -13.416805,3.20972 -1.633317,0.37718 -7.245988,1.71495 -12.472601,2.97284 -5.226613,1.25788 -13.111079,3.14416 -17.521035,4.19173 -4.409954,1.04758 -8.0181,2.01938 -8.0181,2.15956 0,0.14022 1.380896,1.46801 3.068656,2.95074 1.68776,1.48273 6.632257,6.1173 10.987767,10.29903 11.082601,10.64043 10.47694,10.13729 11.878668,9.86779 0.653326,-0.12556 5.909637,-1.37411 11.68069,-2.77446 z M 221.87974,157.02468 c 4.19016,-0.87144 4.22741,-0.87214 8.33729,-0.15689 7.30651,1.27155 8.76615,1.27319 11.25743,0.0135 1.19671,-0.6055 2.17585,-1.23428 2.17585,-1.39729 0,-0.16302 -0.75727,-0.42135 -1.68281,-0.57406 -2.89559,-0.47772 -7.9185,-2.18561 -10.39384,-3.5341 -1.30665,-0.71182 -3.5339,-1.50778 -4.94945,-1.76877 -1.41553,-0.261 -3.64278,-0.7194 -4.94944,-1.01866 -4.43928,-1.01671 -10.62923,-2.17702 -10.78466,-2.02159 -0.0851,0.0851 0.83657,0.60871 2.04828,1.16344 1.21172,0.55475 2.20312,1.1278 2.20312,1.27347 0,0.45988 -3.68274,-0.25853 -5.65664,-1.10346 -1.04227,-0.44615 -2.28953,-1.3033 -2.77168,-1.90477 -0.78673,-0.98142 -1.64825,-1.26507 -8.39979,-2.76556 -4.13774,-0.91958 -7.91678,-1.82103 -8.39787,-2.0032 -0.69452,-0.263 -1.03996,-0.12122 -1.67686,0.6885 -2.2782,2.89627 -1.76839,5.94709 1.5462,9.25279 3.64259,3.63283 8.26439,5.37199 17.83348,6.7106 3.64297,0.50961 9.35048,0.16817 14.26139,-0.85318 z m 32.70277,-9.74262 c -1.41317,-2.73276 -4.31136,-4.06772 -12.22048,-5.62897 -5.63329,-1.112 -8.86715,-1.18629 -10.29343,-0.23646 -2.11679,1.40967 -1.42946,1.65659 4.15754,1.49356 8.57536,-0.25022 14.94415,1.33372 17.52315,4.35805 1.3976,1.63893 1.67598,1.64355 0.83322,0.0135 z m 11.01351,0.0992 c 11.28588,-1.97351 15.40132,-3.85133 19.66266,-8.97186 2.32689,-2.79603 2.18294,-3.58741 -0.46015,-2.52984 -3.33376,1.33389 -8.1424,2.2426 -13.03536,2.46331 -5.62038,0.25354 -7.68313,-0.0934 -14.05644,-2.36361 -2.56345,-0.91317 -5.63487,-1.63827 -8.71102,-2.05653 -2.61331,-0.35532 -5.33437,-0.72977 -6.04679,-0.83211 -0.71243,-0.10236 -1.91514,-0.73028 -2.6727,-1.39542 -1.89085,-1.66019 -1.82871,-2.95308 0.29884,-6.21857 1.46389,-2.24687 1.6762,-2.85292 1.6762,-4.78462 0,-7.63177 -10.88387,-13.2731 -19.9032,-10.3162 -3.56603,1.16907 -6.73836,3.34079 -7.74069,5.29915 -0.67224,1.31338 -0.73008,1.82118 -0.39421,3.46077 0.35523,1.7341 0.31086,1.9993 -0.45489,2.71868 -0.46667,0.43842 -2.31838,1.33357 -4.11492,1.98921 -1.79652,0.65566 -3.9394,1.53543 -4.76195,1.95507 -1.46248,0.7461 -3.99429,3.25875 -3.99429,3.96404 0,0.19535 1.38089,0.64936 3.06865,1.00893 1.68776,0.35956 4.37331,0.99833 5.96789,1.41947 2.8402,0.75013 2.92085,0.75057 3.95957,0.0211 0.58316,-0.40955 2.48576,-1.15514 4.22795,-1.65685 5.19812,-1.49693 6.83034,-2.56528 8.26875,-5.41222 1.27353,-2.52059 0.43473,-5.44522 -2.36457,-8.24451 -1.15228,-1.15227 -1.32692,-1.52257 -0.93872,-1.9903 0.60337,-0.72702 1.56782,-0.74661 1.56782,-0.0319 0,0.29854 1.40939,1.96552 3.13198,3.70439 3.58544,3.61931 5.15691,6.36913 5.46714,9.56663 0.11867,1.22231 0.65606,3.1692 1.19436,4.32642 0.53832,1.15723 0.89682,2.18596 0.79672,2.28606 -0.44043,0.44044 -1.47661,-0.40876 -2.09889,-1.72013 -0.64638,-1.36213 -0.7026,-1.39194 -1.24945,-0.66231 -1.23499,1.64781 -2.15627,3.83024 -1.77699,4.20953 0.20989,0.20989 4.45279,1.08383 9.42868,1.94209 4.97587,0.85824 9.68452,1.73211 10.46367,1.94191 3.25035,0.87522 7.02397,4.49289 7.77129,7.45009 0.18102,0.71631 0.42819,0.8721 1.11155,0.70059 0.4833,-0.12136 3.5035,-0.67954 6.71151,-1.24051 z m -52.28091,-21.24099 c -0.17604,-0.28483 0.24113,-0.86422 1.06551,-1.47979 2.95526,-2.20676 4.2881,-3.82238 4.56093,-5.5286 0.15448,-0.96603 0.55434,-1.8139 0.9571,-2.02945 0.57371,-0.30704 0.73364,-0.16097 0.93699,0.85579 0.75155,3.75776 -0.12706,5.44512 -3.80346,7.30386 -2.92912,1.48097 -3.29161,1.56661 -3.71707,0.87819 z m 17.18965,15.83077 c 0.47855,-1.13266 0.72678,-2.20269 0.55164,-2.37783 -0.27921,-0.2792 -5.45732,-1.52434 -22.0522,-5.30272 -2.39553,-0.54543 -9.96819,-2.30694 -16.82812,-3.9145 -6.85992,-1.60753 -15.32348,-3.57139 -18.80788,-4.36415 -3.48442,-0.79274 -9.00799,-2.06529 -12.27463,-2.82789 -3.26663,-0.7626 -7.89931,-1.81006 -10.29484,-2.32768 -2.39553,-0.51763 -8.72093,-1.93433 -14.05643,-3.14824 -5.3355,-1.21389 -12.99725,-2.92222 -17.02609,-3.79627 -4.02886,-0.87404 -8.61466,-1.8814 -10.19068,-2.23857 -1.57602,-0.35718 -2.9328,-0.57284 -3.01506,-0.47925 -0.0823,0.0935 -0.2453,1.27733 -0.3623,2.63053 -0.17819,2.06106 -0.10655,2.49276 0.44136,2.65988 0.35973,0.1097 6.26674,1.45486 13.12668,2.9892 6.85992,1.53433 15.76893,3.57993 19.79777,4.54577 4.02886,0.96585 15.25421,3.54509 24.94521,5.73165 9.69102,2.18656 21.53998,4.86416 26.33104,5.95023 4.79107,1.08606 14.05643,3.16102 20.58971,4.61105 6.53326,1.45001 12.85865,2.86153 14.05641,3.13671 3.8975,0.89544 4.08934,0.8395 5.06841,-1.47792 z m 147.57725,1.25975 c 0.38382,-0.62102 -0.51869,-2.94669 -1.50196,-3.87042 -0.54089,-0.50813 -3.32246,-1.53331 -7.2147,-2.65906 -6.53573,-1.8903 -28.09334,-8.35849 -40.98054,-12.29587 -4.02886,-1.2309 -9.46334,-2.85389 -12.07665,-3.60659 -2.6133,-0.75271 -9.38415,-2.77107 -15.04631,-4.48524 -5.66217,-1.71416 -19.5602,-5.90773 -30.88454,-9.31902 -11.32433,-3.4113 -27.46846,-8.302949 -35.87587,-10.870313 -8.4074,-2.567349 -15.82767,-4.78686 -16.4895,-4.932217 -1.17789,-0.258705 -1.20697,-0.22825 -1.37559,1.440839 -0.0947,0.937812 -0.30531,2.0028 -0.46791,2.366635 -0.37783,0.845402 3.2131,2.023302 39.75649,13.041096 7.94881,2.39656 16.67963,5.04423 19.40182,5.88371 9.68931,2.98803 24.95183,7.56812 38.80366,11.6445 7.73103,2.27512 18.51092,5.50269 23.95531,7.17238 8.29558,2.54408 33.77959,9.96593 36.42792,10.60908 1.44908,0.35192 3.31565,0.28941 3.56837,-0.11957 z M 166.2809,121.08714 c 0.63138,-0.20562 6.40427,-1.7156 12.82864,-3.35551 27.12259,-6.92341 47.35618,-12.1375 47.91064,-12.3463 0.32666,-0.12301 -2.88059,-1.27041 -7.1272,-2.54975 -7.54993,-2.27449 -7.77595,-2.31678 -10.1928,-1.90708 -1.35942,0.23044 -3.3194,0.33964 -4.35551,0.24265 -1.34949,-0.12631 -3.51244,0.24728 -7.62521,1.31707 -14.4404,3.75619 -36.65222,9.34446 -44.94096,11.3067 -10.2143,2.41809 -10.30432,2.4432 -9.96677,2.78072 0.287,0.28702 20.27311,4.79738 21.48938,4.84963 0.4575,0.0196 1.3484,-0.13244 1.97979,-0.33813 z m 152.18403,-2.5499 c -0.5329,-0.50599 -5.86885,-5.35152 -11.85768,-10.76787 -5.98883,-5.41633 -14.36427,-13.074539 -18.6121,-17.018241 -4.24781,-3.943718 -8.11152,-7.378154 -8.586,-7.632084 -1.33569,-0.714845 -2.18133,-0.590948 -10.02172,1.468286 -4.02885,1.058163 -13.69512,3.497918 -21.48059,5.421701 -7.78548,1.923768 -14.15543,3.602989 -14.15543,3.731585 0,0.128551 1.20272,0.547444 2.67271,0.930734 1.46999,0.38329 5.64706,1.581812 9.28239,2.663381 l 6.60967,1.966508 11.29524,-2.8249 c 8.6029,-2.151569 11.63536,-2.761089 12.72224,-2.557188 1.12459,0.210981 2.99428,1.701759 8.8221,7.034248 4.06729,3.72159 8.73142,8.04489 10.36473,9.60732 l 2.96967,2.84078 8.71102,2.67104 c 4.79107,1.46908 9.42375,2.9017 10.29485,3.18363 1.97069,0.63779 2.2104,0.45992 0.9689,-0.71893 z M 83.436419,107.50797 c 2.006019,-1.04673 8.783274,-1.474 11.124445,-0.70134 0.798082,0.26339 1.53976,0.3902 1.648168,0.28179 0.108348,-0.10835 -0.749894,-0.51688 -1.907321,-0.90773 -2.866757,-0.96804 -7.844517,-0.98557 -10.304719,-0.0362 -2.017576,0.77851 -3.496125,2.60599 -3.459987,4.27653 0.01673,0.77333 0.132517,0.67273 0.643072,-0.5587 0.436084,-1.05183 1.112201,-1.75729 2.256342,-2.3543 z M 193.75089,85.455465 c 1.50041,-0.82683 2.26083,-0.969688 4.94944,-0.929806 2.84586,0.0422 5.73432,0.594345 7.89409,1.508931 0.51693,0.218897 0.6719,0.181813 0.48742,-0.116729 -1.00372,-1.624059 -9.71162,-3.068205 -12.65107,-2.098098 -1.89503,0.625428 -3.44901,2.494767 -3.4202,4.114322 l 0.0223,1.256467 0.47258,-1.379108 c 0.34069,-0.994141 0.96746,-1.651804 2.24539,-2.356039 z"
       id="path3" /></g><metadata
     id="metadata182"><rdf:RDF><cc:Work
         rdf:about=""><cc:license
           rdf:resource="http://creativecommons.org/licenses/by-sa/4.0/" /><dc:publisher><cc:Agent><dc:title>OpenDataKerala.org</dc:title></cc:Agent></dc:publisher><dc:date>April 2026</dc:date><dc:title>Election Symbols of Kerala</dc:title><dc:creator><cc:Agent><dc:title>Manoj Karingamadathil</dc:title></cc:Agent></dc:creator></cc:Work><cc:License
         rdf:about="http://creativecommons.org/licenses/by-sa/4.0/"><cc:permits
           rdf:resource="http://creativecommons.org/ns#Reproduction" /><cc:permits
           rdf:resource="http://creativecommons.org/ns#Distribution" /><cc:requires
           rdf:resource="http://creativecommons.org/ns#Notice" /><cc:requires
           rdf:resource="http://creativecommons.org/ns#Attribution" /><cc:permits
           rdf:resource="http://creativecommons.org/ns#DerivativeWorks" /><cc:requires
           rdf:resource="http://creativecommons.org/ns#ShareAlike" /></cc:License></rdf:RDF></metadata></svg>
