<?xml version="1.0" encoding="UTF-8" standalone="no"?>
<!-- Created with Inkscape (http://www.inkscape.org/) -->

<svg
   width="1500"
   height="1500"
   viewBox="0 0 396.87499 396.875"
   version="1.1"
   id="svg5"
   xml:space="preserve"
   inkscape:version="1.3 (0e150ed6c4, 2023-07-21)"
   sodipodi:docname="Pen nib with Seven Rays.svg"
   inkscape:export-filename="Pen nib with Seven Rays.png"
   inkscape:export-xdpi="96"
   inkscape:export-ydpi="96"
   xmlns:inkscape="http://www.inkscape.org/namespaces/inkscape"
   xmlns:sodipodi="http://sodipodi.sourceforge.net/DTD/sodipodi-0.dtd"
   xmlns="http://www.w3.org/2000/svg"
   xmlns:svg="http://www.w3.org/2000/svg"
   xmlns:rdf="http://www.w3.org/1999/02/22-rdf-syntax-ns#"
   xmlns:cc="http://creativecommons.org/ns#"
   xmlns:dc="http://purl.org/dc/elements/1.1/"><title
     id="title186">Election Symbols of Kerala</title><sodipodi:namedview
     id="namedview7"
     pagecolor="#ffffff"
     bordercolor="#000000"
     borderopacity="0.25"
     inkscape:showpageshadow="2"
     inkscape:pageopacity="0.0"
     inkscape:pagecheckerboard="0"
     inkscape:deskcolor="#d1d1d1"
     inkscape:document-units="mm"
     showgrid="false"
     inkscape:zoom="0.25"
     inkscape:cx="230"
     inkscape:cy="1082"
     inkscape:window-width="1920"
     inkscape:window-height="991"
     inkscape:window-x="-9"
     inkscape:window-y="-9"
     inkscape:window-maximized="1"
     inkscape:current-layer="layer1" /><defs
     id="defs2"><inkscape:path-effect
       effect="bspline"
       id="path-effect3248"
       is_visible="true"
       lpeversion="1"
       weight="33.333333"
       steps="2"
       helper_size="0"
       apply_no_weight="true"
       apply_with_weight="true"
       only_selected="false" /><inkscape:path-effect
       effect="bspline"
       id="path-effect577"
       is_visible="true"
       lpeversion="1"
       weight="33.333333"
       steps="2"
       helper_size="0"
       apply_no_weight="true"
       apply_with_weight="true"
       only_selected="false" /></defs><g
     inkscape:label="Layer 1"
     inkscape:groupmode="layer"
     id="layer1"><path
       style="fill:#000000;stroke-width:1.82084"
       d="m 149.52934,391.80218 c -0.3689,-0.44452 -0.17753,-2.03011 0.68323,-5.66315 5.72073,-24.14296 12.4847,-64.42888 14.87235,-88.57897 0.98513,-9.96425 1.07727,-9.20647 -1.11934,-9.20647 -3.06909,0 -3.44704,-0.82964 -3.44704,-7.56674 0,-6.52814 0.21358,-6.99204 3.27526,-7.11389 l 1.78328,-0.071 -0.12364,-4.0661 c -0.23126,-7.6104 -2.57846,-22.24015 -5.47252,-34.10962 -2.97138,-12.18652 -9.49914,-28.51201 -14.71121,-36.79174 -0.62218,-0.98837 -1.13123,-1.98576 -1.13123,-2.21642 0,-0.23066 2.29475,-2.67391 5.09945,-5.42942 14.14541,-13.8974 27.68851,-31.75822 33.52628,-44.21491 5.51289,-11.76349 6.02409,-13.20113 5.79927,-16.30928 -0.11617,-1.60498 0.0477,-3.7023 0.364,-4.6607 1.724,-5.22372 9.84969,-6.18259 13.15268,-1.55206 0.89518,1.25499 1.08329,2.18961 1.12726,5.60134 0.0575,4.46054 -0.0277,4.19792 4.52938,13.97117 4.06343,8.71462 7.87782,15.08019 13.63671,22.75732 5.68141,7.57385 15.89318,19.25426 21.70602,24.82777 2.35206,2.25522 4.15655,4.38113 4.15655,4.89693 0,0.50134 -1.17654,3.1064 -2.61453,5.78901 -8.61377,16.06922 -15.24351,39.34259 -17.84733,62.6521 -1.07224,9.59862 -1.13723,9.15328 1.3358,9.15328 1.13938,0 2.33176,0.26015 2.64971,0.57812 0.38618,0.38618 0.57812,2.5207 0.57812,6.42916 0,6.65991 -0.3726,7.44566 -3.53072,7.44566 -2.076,0 -1.98518,-0.71953 -1.04245,8.25897 2.72026,25.90784 6.75124,50.95591 13.13025,81.59011 1.21387,5.82933 2.22403,11.35759 2.24483,12.28498 l 0.0379,1.68617 -46.06796,0.12291 c -36.98795,0.0987 -46.16895,10e-4 -46.58033,-0.4945 z m 81.8862,-3.96154 c 0.13111,-0.1311 -1.2441,-7.77301 -3.05582,-16.98221 -6.49711,-33.02569 -9.82327,-56.22924 -10.89452,-76.00102 l -0.33932,-6.26294 -21.27442,-0.12545 -21.27442,-0.12546 -0.30473,4.22042 c -1.6902,23.40891 -6.56093,54.74859 -12.35735,79.51048 -1.92222,8.21166 -1.39119,4.2882 1.2369,-9.13866 4.33675,-22.15639 7.04832,-41.47035 8.67786,-61.81073 1.00684,-12.56752 1.00041,-12.77155 -0.40162,-12.77155 -1.10857,0 -1.14782,0.15186 -1.71229,6.62426 -1.98936,22.81086 -6.47589,51.30671 -12.81754,81.40953 -1.18848,5.64161 -2.16089,10.58011 -2.16089,10.97445 0,0.62879 4.70175,0.717 38.21997,0.717 21.02099,0 38.32718,-0.10725 38.45819,-0.23819 z m 5.38722,-1.85944 c -0.14967,-0.83358 -1.09562,-5.30948 -2.10203,-9.94648 -3.15842,-14.55211 -7.2632,-38.28233 -10.08346,-58.2935 -1.09489,-7.76886 -2.91463,-25.05728 -2.91463,-27.69045 0,-1.49657 -0.14475,-1.69718 -1.22451,-1.69718 -1.22341,0 -1.22426,0.004 -0.95786,3.4928 0.14658,1.92102 0.48966,6.41951 0.76228,9.9966 1.30072,17.06812 3.97548,37.01066 7.40751,55.22928 1.44058,7.64716 3.29249,17.48103 4.11536,21.85304 0.82288,4.37202 1.57381,8.1792 1.66873,8.46041 0.0963,0.28553 0.92949,0.42295 1.8867,0.31121 1.63008,-0.1903 1.70076,-0.27442 1.44191,-1.71573 z M 197.99373,281.28152 c 3.52074,-0.16752 6.49354,-0.45376 6.6062,-0.63606 0.599,-0.96918 -28.87168,-1.44101 -34.92785,-0.5592 l -2.64971,0.38582 3.85412,0.3951 c 2.11975,0.21732 4.93809,0.56987 6.26293,0.78344 2.31291,0.37287 7.00943,0.28975 20.85431,-0.3691 z m -25.26542,-7.74219 c 0.28143,-0.45697 -0.84367,-11.76521 -1.83345,-18.42749 -2.44256,-16.44138 -5.76169,-28.38973 -11.27511,-40.58866 -1.71039,-3.7844 -1.60037,-4.3489 0.16752,-0.85995 7.37958,14.56288 14.2206,41.7335 14.2206,56.48019 0,2.9785 0.0927,3.27965 1.08398,3.52058 0.59618,0.14494 10.29772,0.20323 21.55895,0.12965 l 20.47499,-0.13383 0.53819,-6.26295 c 2.13445,-24.83904 10.27456,-49.99305 21.82041,-67.4279 l 2.33483,-3.52574 -5.03671,-4.9914 c -8.09679,-8.02398 -19.12594,-21.81453 -25.36759,-31.71896 -3.22875,-5.1235 -10.89876,-20.48535 -10.90559,-21.84224 -0.004,-0.66964 -0.31544,-0.83931 -1.32925,-0.72264 l -1.32486,0.1524 v 27.42043 27.42043 l 1.44529,0.46295 c 4.81109,1.54103 7.88982,7.2485 6.56126,12.16346 -2.08696,7.7207 -12.40616,9.99772 -17.74614,3.91583 -4.48494,-5.10808 -2.29001,-13.80278 4.03318,-15.97641 l 1.85231,-0.63673 0.12436,-27.50543 c 0.0752,-16.6485 -0.0517,-27.50541 -0.32193,-27.50541 -0.24546,0 -0.75634,-0.1189 -1.13524,-0.26438 -0.49448,-0.18975 -0.99978,0.58818 -1.7903,2.75626 -1.5914,4.36453 -8.13689,16.97703 -11.11126,21.41023 -7.15765,10.66828 -17.84633,23.77254 -25.45211,31.20416 l -4.87347,4.76188 1.4007,2.46458 c 2.64747,4.65832 8.12566,17.4066 10.0646,23.42135 4.34575,13.48075 7.46409,29.26583 8.75135,44.29938 0.31812,3.71516 0.73957,6.14259 1.107,6.37601 0.75709,0.4809 1.67716,0.4951 1.9634,0.0302 z m 49.18065,-4.095 c 1.48914,-20.07184 4.83325,-35.26236 11.98455,-54.43938 0.66697,-1.78855 1.11126,-3.25191 0.98732,-3.25191 -0.46809,0 -3.6662,7.61147 -6.24691,14.86765 -2.86442,8.05382 -5.33061,17.59063 -6.86939,26.5641 -1.39075,8.11032 -2.66147,19.04212 -2.3176,19.93821 0.16406,0.42771 0.71084,0.77766 1.21492,0.77766 0.81095,0 0.95458,-0.51324 1.24711,-4.45633 z m -23.34964,-61.77666 c 2.18763,-1.13127 3.39323,-3.00854 3.37389,-5.25357 -0.0324,-3.7685 -2.44051,-6.0689 -6.35869,-6.07434 -3.2219,-0.004 -5.17873,1.76778 -5.54559,5.02255 -0.58571,5.19643 4.04943,8.62256 8.53039,6.30536 z m -0.20036,-75.62475 c 1.74108,-1.74109 1.61583,-4.14841 -0.29975,-5.76026 -1.89608,-1.59544 -2.60588,-1.56909 -4.33597,0.16097 -1.88823,1.88823 -1.94759,4.36051 -0.13893,5.78326 1.68389,1.32456 3.32942,1.26114 4.77457,-0.18401 z M 22.25214,266.95509 c 0,-0.19805 12.516724,-10.14451 25.467155,-20.23755 2.745703,-2.13989 8.707541,-6.9365 13.248521,-10.65913 l 8.256372,-6.76844 27.174941,-5.40071 c 14.946221,-2.97039 27.249831,-5.32582 27.341371,-5.2343 0.0916,0.0916 -2.2683,2.09894 -5.24407,4.46092 -12.04487,9.56049 -25.503842,20.40476 -30.903859,24.90009 -3.145905,2.61886 -6.181012,4.95069 -6.744691,5.18182 -0.563678,0.23116 -7.095112,1.74945 -14.514279,3.37399 -7.419185,1.62455 -19.77644,4.53231 -27.460576,6.46169 -17.363643,4.35977 -16.620885,4.18452 -16.620885,3.92162 z m 57.089103,-28.34161 c 6.359291,-3.04819 14.873568,-7.00951 18.920608,-8.80289 4.047039,-1.79341 7.271829,-3.34717 7.166179,-3.45281 -0.85268,-0.85268 -37.093724,15.14056 -48.970604,21.61079 -16.714876,9.10585 -17.528447,10.21596 -1.92707,2.62948 7.286701,-3.54331 18.451595,-8.93635 24.810887,-11.98457 z m 289.058687,28.21585 c -0.52994,-0.11817 -7.90095,-1.92623 -16.37999,-4.01789 -14.99602,-3.69931 -31.46865,-7.4951 -37.81851,-8.71453 -3.2641,-0.62683 -3.98637,-1.13752 -16.86177,-11.92217 -1.19236,-0.99875 -8.19572,-6.65064 -15.56299,-12.55977 -7.36727,-5.90912 -13.31758,-10.82134 -13.2229,-10.91602 0.0947,-0.0947 4.3881,0.69538 9.54094,1.75571 15.04764,3.09644 28.70459,5.77615 41.88789,8.21905 2.85656,0.52933 3.51212,0.90099 7.46735,4.23344 4.08557,3.44226 16.61932,13.48375 33.63026,26.94309 6.39892,5.06292 9.23104,7.48914 8.46268,7.24983 -0.0987,-0.0308 -0.61303,-0.15259 -1.14296,-0.27074 z m -19.03831,-10.92935 c -6.62838,-4.50012 -33.67908,-18.13634 -46.57578,-23.4788 -8.01212,-3.31901 -16.09293,-6.32786 -16.33758,-6.08321 -0.089,0.089 1.72885,0.99696 4.03987,2.01751 13.6125,6.01133 36.47742,16.83327 49.48768,23.42249 10.39508,5.26473 12.30347,6.10285 9.38581,4.12201 z M 47.785665,167.49765 C 37.149051,162.19472 33.637393,160.5881 17.44315,153.6156 c -5.162179,-2.22259 -9.5956198,-4.25092 -9.8521036,-4.5074 -0.3005664,-0.30057 0.5524799,-0.47549 2.4001796,-0.49215 10.975782,-0.0991 40.829655,-0.98215 47.188837,-1.39601 l 7.708245,-0.50164 25.051748,12.64453 25.051744,12.64455 -12.28498,0.29323 c -6.756747,0.16132 -19.547599,0.30846 -28.424114,0.32709 l -16.139107,0.0339 z m 48.647168,-0.52608 c -1.284112,-0.7523 -16.84401,-5.23051 -25.062036,-7.21297 -13.951529,-3.36559 -33.606538,-6.97758 -40.687775,-7.47716 -4.978929,-0.35128 -4.328834,-0.10561 3.613243,1.36541 17.230885,3.1915 48.501027,10.02971 57.329963,12.53701 4.465215,1.26807 6.077553,1.53229 4.806605,0.78771 z m 194.287247,5.28809 -13.60515,-0.25218 25.1675,-12.5825 25.16752,-12.58247 6.98559,0.39248 c 5.8102,0.32646 38.45518,1.26895 47.67059,1.37632 1.50544,0.0182 2.43035,0.20781 2.16793,0.446 -0.44772,0.40637 -2.81025,1.47233 -19.96914,9.01007 -4.63697,2.03698 -13.50424,6.16942 -19.705,9.18316 l -11.27413,5.47957 -14.50026,-0.10906 c -7.97516,-0.0601 -20.6226,-0.22262 -28.10545,-0.36133 z m 12.88252,-6.98901 c 18.2358,-4.41148 55.32818,-12.28158 57.97204,-12.30026 0.57426,-0.004 1.3693,-0.23544 1.76677,-0.51419 2.16163,-1.51601 -20.1401,2.10996 -38.82568,6.31255 -10.5873,2.38121 -30.20292,8.01799 -28.38048,8.15546 0.26497,0.02 3.62528,-0.72411 7.46735,-1.65356 z m -164.28169,-33.4799 c -3.75461,-3.00956 -21.01086,-15.23805 -33.48263,-23.72714 l -8.189998,-5.57466 -1.902617,-4.263662 C 92.385283,90.694776 85.566684,76.909289 79.839753,66.067466 76.774547,60.264606 74.331523,55.451938 74.410821,55.37264 c 0.260216,-0.260216 15.7605,10.645008 22.996581,16.179239 1.639177,1.253668 17.161788,11.903866 19.925388,13.670993 0.92611,0.592174 2.00575,2.247138 3.29487,5.050652 1.05457,2.293424 4.31698,9.047729 7.24981,15.009566 8.21589,16.70126 13.41873,27.57307 13.26718,27.72307 -0.0757,0.0748 -0.89634,-0.47205 -1.82374,-1.21541 z m -11.386,-15.97327 c -8.54273,-11.88077 -23.53129,-29.558804 -33.848414,-39.922036 -7.773904,-7.808646 -8.416752,-8.109521 -1.55631,-0.728446 6.735295,7.24646 21.521864,24.679986 34.020484,40.110532 2.38281,2.94179 4.39909,5.28201 4.48059,5.20049 0.0816,-0.0816 -1.31185,-2.17875 -3.09635,-4.66054 z m 122.6736,17.2838 c 0,-0.11417 3.98883,-8.31686 8.8641,-18.22829 4.87525,-9.91142 9.93555,-20.405484 11.24514,-23.320106 l 2.38104,-5.299306 4.05088,-2.695757 c 2.22799,-1.482657 6.11042,-4.065922 8.62765,-5.740569 2.51722,-1.674647 7.39509,-5.148322 10.83971,-7.719279 7.85416,-5.86211 20.66577,-14.874642 20.86812,-14.68003 0.14312,0.137656 -1.62182,3.607853 -10.38584,20.420727 -1.98647,3.810841 -5.62906,11.290241 -8.09465,16.620866 l -4.48289,9.692074 -6.90149,4.7755 c -7.09527,4.90957 -31.31344,22.12309 -34.96428,24.85149 -1.12612,0.8416 -2.04749,1.43681 -2.04749,1.32268 z m 15.50043,-18.71625 c 7.72808,-9.61864 20.10385,-24.346486 27.3766,-32.579679 10.56389,-11.958927 11.71435,-13.426872 5.76441,-7.355201 -10.40941,10.622411 -23.60118,25.85598 -31.49799,36.37322 -8.58297,11.4311 -9.41521,13.23519 -1.64302,3.56166 z m -71.29547,-14.00042 c -0.56769,-2.207793 -2.34341,-9.434024 -3.94606,-16.058284 -1.60265,-6.624261 -3.42841,-13.778459 -4.05724,-15.898229 -0.62883,-2.119752 -1.733,-5.975021 -2.45371,-8.567263 l -1.31041,-4.713159 3.42499,-11.907707 c 1.88375,-6.54926 4.29442,-15.918422 5.35703,-20.820366 3.61428,-16.6729966 3.95286,-18.0201831 4.34994,-17.3073416 0.2103,0.3775517 0.96613,3.3963806 1.67963,6.7085106 3.77126,17.506579 4.81391,21.923031 6.96944,29.521206 4.33084,15.266105 4.12299,13.076214 2.00152,21.08863 -3.37591,12.750284 -4.82517,18.433952 -7.54267,29.580456 -1.48262,6.081413 -2.86322,11.356487 -3.06801,11.722417 -0.23584,0.42144 -0.75066,-0.8061 -1.40445,-3.34887 z m 1.73391,-42.796205 c -0.0109,-13.910961 -0.17134,-27.677366 -0.35747,-30.592043 -0.1861,-2.914677 -0.34636,9.550973 -0.3561,27.701456 -0.009,18.150465 0.15113,31.916888 0.35747,30.592043 0.20636,-1.324863 0.36661,-13.790513 0.3561,-27.701456 z"
       id="path11" /></g><metadata
     id="metadata182"><rdf:RDF><cc:Work
         rdf:about=""><cc:license
           rdf:resource="http://creativecommons.org/licenses/by-sa/4.0/" /><dc:publisher><cc:Agent><dc:title>OpenDataKerala.org</dc:title></cc:Agent></dc:publisher><dc:date>April 2026</dc:date><dc:title>Election Symbols of Kerala</dc:title><dc:creator><cc:Agent><dc:title>Manoj Karingamadathil</dc:title></cc:Agent></dc:creator></cc:Work><cc:License
         rdf:about="http://creativecommons.org/licenses/by-sa/4.0/"><cc:permits
           rdf:resource="http://creativecommons.org/ns#Reproduction" /><cc:permits
           rdf:resource="http://creativecommons.org/ns#Distribution" /><cc:requires
           rdf:resource="http://creativecommons.org/ns#Notice" /><cc:requires
           rdf:resource="http://creativecommons.org/ns#Attribution" /><cc:permits
           rdf:resource="http://creativecommons.org/ns#DerivativeWorks" /><cc:requires
           rdf:resource="http://creativecommons.org/ns#ShareAlike" /></cc:License></rdf:RDF></metadata></svg>
