<?xml version="1.0" encoding="UTF-8" standalone="no"?>
<!-- Created with Inkscape (http://www.inkscape.org/) -->

<svg
   width="1500"
   height="1500"
   viewBox="0 0 396.87499 396.875"
   version="1.1"
   id="svg5"
   xml:space="preserve"
   inkscape:version="1.3 (0e150ed6c4, 2023-07-21)"
   sodipodi:docname="Pen Stand.svg"
   inkscape:export-filename="Pen nib with Seven Rays.png"
   inkscape:export-xdpi="96"
   inkscape:export-ydpi="96"
   xmlns:inkscape="http://www.inkscape.org/namespaces/inkscape"
   xmlns:sodipodi="http://sodipodi.sourceforge.net/DTD/sodipodi-0.dtd"
   xmlns="http://www.w3.org/2000/svg"
   xmlns:svg="http://www.w3.org/2000/svg"
   xmlns:rdf="http://www.w3.org/1999/02/22-rdf-syntax-ns#"
   xmlns:cc="http://creativecommons.org/ns#"
   xmlns:dc="http://purl.org/dc/elements/1.1/"><title
     id="title186">Election Symbols of Kerala</title><sodipodi:namedview
     id="namedview7"
     pagecolor="#ffffff"
     bordercolor="#000000"
     borderopacity="0.25"
     inkscape:showpageshadow="2"
     inkscape:pageopacity="0.0"
     inkscape:pagecheckerboard="0"
     inkscape:deskcolor="#d1d1d1"
     inkscape:document-units="mm"
     showgrid="false"
     inkscape:zoom="0.25"
     inkscape:cx="230"
     inkscape:cy="1082"
     inkscape:window-width="1920"
     inkscape:window-height="991"
     inkscape:window-x="-9"
     inkscape:window-y="-9"
     inkscape:window-maximized="1"
     inkscape:current-layer="layer1" /><defs
     id="defs2"><inkscape:path-effect
       effect="bspline"
       id="path-effect3248"
       is_visible="true"
       lpeversion="1"
       weight="33.333333"
       steps="2"
       helper_size="0"
       apply_no_weight="true"
       apply_with_weight="true"
       only_selected="false" /><inkscape:path-effect
       effect="bspline"
       id="path-effect577"
       is_visible="true"
       lpeversion="1"
       weight="33.333333"
       steps="2"
       helper_size="0"
       apply_no_weight="true"
       apply_with_weight="true"
       only_selected="false" /></defs><g
     inkscape:label="Layer 1"
     inkscape:groupmode="layer"
     id="layer1"><path
       style="fill:#000000;stroke-width:1.59209"
       d="m 141.14305,388.87328 -12.21596,-0.21062 -2.35909,-1.29437 c -2.51653,-1.38075 -8.80628,-5.84679 -29.655125,-21.05667 -7.182145,-5.23959 -14.385337,-10.43344 -16.007116,-11.54189 -3.611618,-2.46845 -5.206412,-4.02099 -5.958562,-5.80073 -0.480778,-1.13763 -0.581064,-19.53538 -0.611377,-112.15771 l -0.0363,-110.79686 1.085644,-1.85249 c 1.445886,-2.46722 2.603334,-2.97416 14.99845,-6.56901 9.60554,-2.78582 16.849586,-5.02044 16.849586,-5.19772 0,-0.0416 -1.12851,-5.88625 -2.50779,-12.988117 -3.0613,-15.762399 -3.81081,-21.28976 -3.81081,-28.103384 0,-4.433294 0.13485,-5.533713 0.86162,-7.035179 0.94677,-1.955768 3.03545,-3.119759 5.5981,-3.119759 2.46512,0 2.70583,-1.195928 2.45876,-12.215958 -0.11686,-5.212828 -0.21957,-10.176494 -0.22821,-11.030347 -0.0377,-3.727076 2.49682,-5.456099 8.40496,-5.733759 6.07115,-0.285318 7.49676,0.847325 8.15913,6.48247 0.21536,1.832158 1.07762,6.079784 1.91612,9.439167 0.83851,3.359384 1.63208,6.812844 1.76349,7.674354 0.15714,1.029826 0.59478,1.799537 1.27777,2.247041 2.40782,1.577663 2.94221,4.904409 5.71398,35.572499 0.68196,7.545392 1.07434,10.309032 1.45931,10.278242 0.2896,-0.0232 2.61169,-0.0705 5.16019,-0.10524 l 4.63363,-0.0632 v -3.940607 c 0,-5.385394 0.74468,-14.141906 1.5277,-17.963871 1.13296,-5.53002 3.53436,-15.208844 4.12292,-16.617475 0.31254,-0.748058 0.70751,-2.954484 0.8777,-4.903183 0.35899,-4.110833 0.9885,-5.58657 2.77768,-6.511812 2.02554,-1.047434 6.54081,-1.261904 9.35339,-0.444272 3.32229,0.965824 3.86339,1.898485 3.92561,6.766451 0.0479,3.74513 1.42565,10.670455 4.65442,23.395261 0.95866,3.778182 1.15094,5.574502 1.31882,12.321259 l 0.19655,7.898249 h 7.51904 c 8.58126,0 7.59775,0.52083 8.35212,-4.423027 0.2121,-1.390082 0.594,-3.854346 0.84863,-5.47611 0.37348,-2.378626 2.95492,-21.336071 3.61371,-26.538105 0.088,-0.695041 0.47065,-3.727968 0.8503,-6.73983 0.97474,-7.733023 2.13677,-13.123353 3.37944,-15.676201 1.11515,-2.290902 3.99651,-5.153459 6.46405,-6.421843 l 1.44037,-0.740401 1.61621,-8.116206 c 1.78666,-8.972064 2.58254,-10.93269 5.73668,-14.132008 1.03906,-1.053946 2.42035,-3.039417 3.06956,-4.412159 0.90304,-1.9095047 1.45026,-2.5636347 2.32914,-2.7842187 0.91063,-0.228552 1.31876,-0.07868 1.96874,0.722969 0.68439,0.844064 0.78433,1.4567067 0.60442,3.7048867 -0.15714,1.962784 -0.008,3.29635 0.54878,4.915206 0.68232,1.98317 0.72171,2.869558 0.36706,8.258646 -0.21852,3.320362 -0.57417,7.606038 -0.79035,9.523707 -0.21619,1.917685 -0.29654,3.718495 -0.17858,4.001791 0.11797,0.283296 0.80294,0.894196 1.52219,1.357557 0.71924,0.463361 1.87671,1.857965 2.57213,3.099125 2.08802,3.72663 2.02444,6.744034 -0.54284,25.755801 -0.45363,3.359383 -1.32754,9.96973 -1.94201,14.689648 -0.61448,4.719933 -1.33156,9.648431 -1.59352,10.952239 -0.26196,1.303808 -0.41366,3.737026 -0.33709,5.407153 l 0.13915,3.03661 7.95983,0.12275 7.95983,0.12275 1.54152,-6.529215 c 0.84785,-3.59108 3.01207,-12.595082 4.80941,-20.008891 1.79734,-7.413825 4.06852,-16.891712 5.04704,-21.061993 2.31138,-9.850483 3.57418,-13.863259 5.14011,-16.333606 1.61504,-2.547817 4.25383,-4.818372 6.31882,-5.437057 l 1.60272,-0.480174 2.31438,-7.117187 c 1.27291,-3.914449 2.59843,-7.666446 2.94559,-8.337774 0.53908,-1.042468 1.74394,-2.325619 5.53303,-5.892511 0.36917,-0.347522 1.36617,-1.579648 2.21554,-2.7380587 1.20528,-1.643796 1.83565,-2.1347197 2.8713,-2.2361086 0.94518,-0.092532 1.44565,0.091832 1.73944,0.6407766 0.23556,0.440165 0.3529,3.4767147 0.2736,7.0803667 -0.12785,5.813536 -0.97576,11.948151 -2.73188,19.767178 -0.34579,1.539612 -0.26793,1.779603 1.05095,3.239452 2.55363,2.826544 2.94721,3.94707 2.93885,8.366816 -0.006,3.402545 -0.27794,4.97946 -1.81316,10.530989 -0.99307,3.591064 -2.35589,8.23523 -3.02849,10.320371 -1.15851,3.591463 -3.53663,12.187651 -7.17947,25.951628 -0.89572,3.384347 -2.00412,7.175498 -2.4631,8.424798 -0.84616,2.3031 -2.14718,7.08272 -2.14718,7.88817 0,0.24214 1.65863,0.94161 3.68585,1.55439 10.70526,3.23593 29.11493,9.21591 30.4161,9.88 1.97038,1.00566 2.81059,1.98687 3.58791,4.19004 0.57013,1.6159 0.64295,14.23709 0.64295,111.42727 0,120.24375 0.17406,112.08182 -2.44104,114.46191 -0.62672,0.57038 -4.91795,3.48845 -9.53607,6.48458 -4.61814,2.99614 -10.77877,6.99836 -13.6903,8.89383 -9.44006,6.1457 -21.03279,13.5722 -28.04065,17.96332 -1.85346,1.16136 -4.50726,2.5818 -5.89736,3.15652 l -2.52744,1.04495 -45.07264,0.0422 c -24.78996,0.0232 -50.56984,-0.0525 -57.28861,-0.16837 z m 95.56313,-3.58053 c 0.13341,-0.34753 0.64911,-0.63186 1.14612,-0.63186 0.49701,0 1.6688,-0.42651 2.60397,-0.94779 l 1.70032,-0.94778 -0.31679,-23.80005 c -0.17422,-13.09003 -0.30447,-23.98961 -0.28944,-24.22129 0.0143,-0.23168 0.15729,-1.35273 0.31604,-2.49122 0.26731,-1.91663 0.22945,-2.04709 -0.51104,-1.76127 -4.06256,1.56811 -53.85028,18.36396 -66.30252,22.36712 -4.05443,1.30341 -10.0255,3.22536 -13.26904,4.27096 -17.31494,5.58177 -29.05387,8.99676 -30.926,8.99676 -0.86138,0 -0.87761,0.16313 -0.87761,8.82217 v 8.82215 l 1.79027,1.07299 1.79027,1.07299 51.45149,0.005 c 45.34853,0.003 51.48025,-0.071 51.69396,-0.62788 z m -0.36295,-47.81071 c 0.14313,-0.23168 0.34392,-0.42125 0.4461,-0.42125 0.10221,0 0.18575,0.18957 0.18575,0.42125 0,0.23168 -0.20075,0.42123 -0.4461,0.42123 -0.24534,0 -0.32894,-0.18955 -0.18575,-0.42123 z m 5.45167,48.06088 c 0.12976,-0.20993 0.59544,-0.28768 1.03489,-0.17276 0.43945,0.11495 1.19749,-0.005 1.68454,-0.26499 l 0.88555,-0.47393 v -27.787 c 0,-15.28284 -0.10142,-27.787 -0.22544,-27.787 -0.12402,0 -0.69267,0.30614 -1.26372,0.68031 l -1.03828,0.6803 -0.006,26.38434 c -0.003,14.5114 -0.14567,26.5913 -0.31593,26.84423 -0.17021,0.25292 -1.20988,0.79996 -2.31037,1.21564 -1.10049,0.41566 -2.00089,0.82478 -2.00089,0.90915 0,0.34039 3.33704,0.12609 3.5561,-0.22829 z m -110.76161,-0.4608 c -0.14312,-0.23168 -0.4499,-0.42123 -0.68158,-0.42123 -0.23168,0 -0.30409,0.18955 -0.1609,0.42123 0.14313,0.23168 0.44991,0.42125 0.68159,0.42125 0.23168,0 0.30407,-0.18957 0.16089,-0.42125 z m -1.89558,-9.69893 v -9.2777 l -1.08052,-0.41082 c -0.59429,-0.22595 -1.25773,-0.41081 -1.47434,-0.41081 -0.23198,0 -0.39382,3.70062 -0.39382,9.00528 0,8.86208 0.0143,9.01578 0.94779,9.66642 1.98256,1.38297 2.00089,1.30446 2.00089,-8.57237 z m 122.68925,5.64411 c 2.83635,-1.76679 6.38914,-4.00955 7.89507,-4.98394 1.50594,-0.97437 4.77965,-3.08303 7.27491,-4.68589 2.49528,-1.60287 9.31936,-6.04834 15.16463,-9.87882 5.84529,-3.83047 12.4101,-8.0911 14.58851,-9.46807 5.03131,-3.18027 5.51354,-3.94185 5.51559,-8.71069 l 0.002,-3.66003 -2.00089,-0.27381 c -1.1005,-0.15061 -5.60249,-1.00771 -10.00445,-1.90471 -14.50191,-2.9551 -42.61122,-8.4041 -43.35359,-8.4041 -0.12928,0 -0.21356,9.85701 -0.18729,21.90446 0.0376,17.21874 0.1604,21.90448 0.57436,21.90448 0.59991,0 1.05316,1.85067 1.05316,4.30015 0,0.91707 0.14218,1.60141 0.31594,1.52074 0.4336,-0.20127 3.24547,-1.98278 21.08683,-13.35995 8.50064,-5.42072 18.48864,-11.78371 22.19556,-14.13993 l 6.73983,-4.28407 0.12545,-2.60435 0.12546,-2.60434 h -1.70506 c -0.93777,0 -1.70506,-0.18955 -1.70506,-0.42123 0,-0.23168 0.74705,-0.42125 1.6601,-0.42125 0.91306,0 1.78747,-0.20607 1.94312,-0.45794 0.65421,-1.05853 0.96718,0.4647 0.73185,3.56192 -0.24489,3.22324 -0.29358,3.34314 -1.76689,4.35116 -1.37154,0.93837 -5.48506,3.57425 -18.57528,11.90274 -9.89857,6.29784 -23.19425,14.78736 -26.91875,17.18805 -2.17864,1.4043 -4.19511,2.4635 -4.48105,2.35377 -0.57256,-0.21972 -1.00861,-1.94914 -1.0855,-4.30538 l -0.0498,-1.52699 -0.32155,1.26372 c -0.36258,1.42493 -0.53739,9.05665 -0.20745,9.05665 0.11766,0 2.53446,-1.44555 5.37081,-3.21235 z m -126.48062,-7.42395 -2e-4,-8.95135 -2.20509,-1.89558 c -1.21281,-1.04257 -9.51756,-8.71967 -18.45502,-17.06021 -21.328712,-19.90423 -24.841111,-23.14071 -25.295668,-23.30859 -0.327954,-0.12116 -0.694755,14.07036 -0.477244,18.46433 0.04012,0.81089 0.860301,3.61475 1.822558,6.2308 l 1.749577,4.75646 8.222239,5.98515 c 4.522228,3.29185 9.948368,7.2531 12.058068,8.80283 13.18277,9.68358 21.87326,15.89468 22.26507,15.91285 0.17376,0.008 0.31582,-4.01345 0.31571,-8.93669 z m 10.46834,-11.72536 c 16.19438,-4.69193 62.84888,-19.91585 101.89757,-33.25039 l 3.89647,-1.33059 v -18.70753 -18.70754 h -15.30553 c -8.41805,0 -33.53446,-0.12609 -55.81426,-0.2801 l -40.50874,-0.28009 v 36.92795 c 0,33.57727 0.0611,36.92796 0.67432,36.92796 0.37086,0 2.69295,-0.58485 5.16017,-1.29967 z m -6.79773,-35.84381 -0.0898,-36.72224 -1.36902,-0.55868 -1.36904,-0.55869 v 36.40786 36.40789 l 1.10991,0.87305 c 0.61045,0.48017 1.26695,0.87305 1.45889,0.87305 0.19195,0 0.30855,-16.525 0.25912,-36.72224 z m -3.9066,31.56205 c 0.13517,-1.21632 0.1749,-4.29664 0.0884,-6.84515 -0.0864,-2.5485 -0.18338,-17.85256 -0.21535,-34.00903 l -0.0581,-29.37542 -2.43388,-1.22863 c -4.22918,-2.13487 -39.536913,-23.39769 -43.168226,-25.99652 l -2.003785,-1.43404 0.108262,28.92654 c 0.08486,22.68931 0.221746,28.9644 0.634765,29.10203 0.417573,0.13915 0.526536,-5.40566 0.526536,-26.7941 0,-16.99936 0.151248,-27.06309 0.409277,-27.22252 0.484027,-0.29916 6.751804,3.05318 6.751804,3.6112 0,0.71814 -1.099703,0.38495 -3.500013,-1.06044 l -2.397349,-1.44361 -0.0032,8.49937 c -0.0016,4.67466 -0.12084,16.83993 -0.263698,27.03393 l -0.259685,18.53454 9.846885,9.05635 c 11.693007,10.75425 27.541107,25.52759 31.961977,29.79442 1.73762,1.67706 3.28782,3.05222 3.44491,3.0559 0.15714,0.003 0.39618,-0.98848 0.53128,-2.20482 z m -44.955961,-8.55608 c -0.51348,-0.82518 -1.167732,-1.91514 -1.453926,-2.42214 -0.379665,-0.67259 -0.522013,-4.25278 -0.526551,-13.24306 -0.0048,-7.9292 -0.156343,-12.32126 -0.427443,-12.32126 -0.616488,0 -0.567389,25.04531 0.05142,26.24986 0.577291,1.12369 2.510929,3.23692 2.961808,3.23692 0.180526,0 -0.09186,-0.67514 -0.60536,-1.50032 z M 302.26725,296.78327 c 0,-21.63524 -0.14218,-39.33574 -0.31594,-39.33447 -0.41048,0.003 -10.36847,5.76765 -19.58791,11.33939 -12.72415,7.68978 -27.03837,15.90004 -32.63322,18.71756 l -2.93515,1.47813 -0.27634,4.51633 c -0.15205,2.48399 -0.27633,10.74822 -0.27633,18.36495 0,10.72088 0.11893,13.88129 0.52654,13.99332 0.28962,0.0796 2.80125,0.52015 5.58143,0.97901 2.78018,0.45885 14.26696,2.69382 25.52619,4.96661 11.55849,2.3332 20.80398,4.00467 21.23542,3.83911 0.7325,-0.28108 0.75211,-1.67406 0.4739,-33.66354 -0.28928,-33.26297 -0.46623,-39.05707 -1.19279,-39.05707 -0.21083,0 -2.62365,1.23213 -5.36184,2.73806 -4.67186,2.5694 -7.28125,3.58687 -5.29674,2.06533 1.53114,-1.17392 10.38144,-6.06711 10.97359,-6.06711 0.31946,0 0.78534,0.38207 1.03527,0.84906 0.30908,0.57753 0.53764,12.54807 0.71475,37.43309 0.25075,35.23546 0.2889,36.57659 1.03476,36.38154 0.74473,-0.19476 0.77441,-1.70944 0.77441,-39.5393 z m -57.60454,29.43899 c 0.68751,-0.19768 0.73717,-1.44594 0.73717,-18.53242 v -18.32047 l -1.15754,0.29052 c -0.63666,0.1598 -1.19762,0.3306 -1.24661,0.37959 -0.049,0.049 -0.14408,8.3763 -0.21147,18.50519 -0.10795,16.23748 -0.0476,18.385 0.50942,18.15284 0.34752,-0.14488 0.96359,-0.35867 1.36903,-0.47525 z m -2.46719,-39.9553 c 0.14058,-0.36648 0.25569,-1.18822 0.25569,-1.82609 v -1.15977 l -41.38682,-0.27987 c -22.76274,-0.15396 -48.06871,-0.27999 -56.2355,-0.28012 l -14.8487,-2.3e-4 v 1.89268 1.89269 l 29.17085,0.11113 c 16.04397,0.0611 41.23489,0.15714 55.97982,0.21352 24.11786,0.0922 26.83463,0.0355 27.06466,-0.56394 z m 3.73091,-0.0487 c 0.17376,-0.0974 0.31593,-0.9363 0.31593,-1.86404 0,-1.64929 -0.0304,-1.68385 -1.36903,-1.55478 -1.31421,0.12673 -1.3742,0.21269 -1.498,2.14685 -0.12896,2.0145 -0.1288,2.0148 1.05311,1.73203 0.65012,-0.15555 1.32423,-0.36258 1.49799,-0.46006 z m -116.87095,-2.06137 c -0.11511,-1.73353 -0.2702,-1.99323 -1.49741,-2.50711 l -1.36904,-0.57326 v 2.09944 c 0,1.78349 0.14266,2.15677 0.94779,2.48041 1.82577,0.73385 2.05503,0.55468 1.91866,-1.49948 z m 121.83072,-0.31186 c 1.732,-1.00344 6.37158,-3.6785 10.31016,-5.94458 3.9386,-2.26608 9.24622,-5.36053 11.79473,-6.87656 2.5485,-1.51602 6.15009,-3.64308 8.00355,-4.72676 5.39119,-3.15219 16.763,-10.02076 17.79737,-10.74962 0.71045,-0.50061 0.9478,-1.08489 0.9478,-2.33315 0,-0.91592 -0.10253,-1.6653 -0.22769,-1.6653 -0.12513,0 -0.74127,0.35549 -1.36902,0.78995 -0.62774,0.43447 -3.51083,2.17387 -6.40686,3.86537 -2.89602,1.69148 -8.20364,4.81232 -11.79471,6.93519 -3.59106,2.12287 -10.41514,6.10395 -15.16463,8.84683 -4.74948,2.74288 -10.52084,6.09064 -12.82526,7.43949 -2.30441,1.34883 -4.34217,2.45244 -4.52833,2.45244 -0.18616,0 -0.33848,0.85301 -0.33848,1.89558 0,1.04257 0.14679,1.89557 0.32614,1.89557 0.17937,0 1.74323,-0.821 3.47523,-1.82445 z m 45.49305,-27.97826 c 0.005,-0.17376 0.38006,-0.78982 0.83312,-1.36903 0.86893,-1.11087 1.14746,-0.5145 0.40641,0.87018 -0.42523,0.79457 -1.25824,1.12981 -1.23953,0.49885 z m -171.0327,26.68385 c 0,-1.73215 -0.19777,-1.89869 -7.16107,-6.0308 -3.1277,-1.856 -11.18391,-6.68821 -17.90268,-10.73824 -6.718785,-4.05002 -13.819017,-8.28491 -15.778303,-9.41086 -1.959286,-1.12596 -3.902254,-2.38712 -4.317709,-2.80257 -0.415455,-0.41546 -1.039697,-0.75537 -1.387217,-0.75537 -0.347537,0 -0.631868,-0.18955 -0.631868,-0.42123 0,-0.23168 -0.177645,-0.42125 -0.394758,-0.42125 -0.59993,0 -0.0064,3.05187 0.766686,3.9396 0.373551,0.42917 1.213743,1.05672 1.867088,1.39458 1.153165,0.59633 1.173973,0.58826 0.71152,-0.27582 -0.261994,-0.48956 -0.407463,-1.21189 -0.323226,-1.6052 0.113516,-0.52974 0.343175,-0.35701 0.886331,0.6663 0.403244,0.75978 0.636501,1.53785 0.518336,1.72904 -0.422397,0.68345 1.880335,2.19222 18.71497,12.26222 9.38311,5.61272 18.57184,11.11677 20.41938,12.23126 1.84754,1.11448 3.50617,1.93547 3.68584,1.82442 0.17968,-0.11097 0.32668,-0.82478 0.32668,-1.58608 z m 115.6303,-2.70446 c 1.40201,-0.24853 1.69773,-0.47435 1.76096,-1.34476 0.0419,-0.57535 0.0951,-12.41212 0.1183,-26.30393 l 0.0422,-25.25782 -2.65119,-0.53582 c -2.75806,-0.55742 -4.223,-1.01378 -30.23132,-9.41774 -8.68807,-2.80734 -20.53544,-6.61571 -26.32748,-8.46302 -9.79289,-3.12338 -51.32069,-16.79224 -52.9709,-17.43537 -0.69921,-0.2725 -0.73717,1.99244 -0.73717,43.98794 0,24.35139 0.0474,44.31935 0.10524,44.37324 0.058,0.0538 23.89481,0.19823 52.97089,0.32074 29.07607,0.12259 53.62381,0.25706 54.55054,0.29898 0.92673,0.0419 2.44319,-0.0583 3.36991,-0.22244 z m 5.35531,-0.84655 c 0.16523,-0.16042 0.35478,-11.99443 0.42123,-26.29781 l 0.12084,-26.00614 -1.36903,1.3e-4 -1.36902,1.4e-4 -0.005,24.95845 c -0.003,13.72715 -0.12673,25.6972 -0.27581,26.60012 -0.27098,1.64056 -0.27032,1.64147 0.95243,1.33923 0.67298,-0.16636 1.35878,-0.4337 1.52401,-0.59412 z M 128.4025,190.43436 c -0.17485,-0.16039 -0.7444,-0.42046 -1.26568,-0.57796 l -0.94779,-0.28635 v 44.03449 44.03449 l 1.15841,0.60697 1.15842,0.60696 0.1073,-44.0635 c 0.0591,-24.23492 -0.0358,-44.19473 -0.21061,-44.3551 z m 129.08455,82.30781 c 20.29219,-11.80804 41.28459,-24.27961 43.62178,-25.91568 l 1.15842,-0.81092 v -27.77313 c 0,-15.27522 -0.13374,-27.77313 -0.2971,-27.77313 -0.28651,0 -11.64682,7.6036 -24.76667,16.57662 -7.55931,5.17003 -27.76142,18.31639 -28.70097,18.67693 -0.59598,0.22871 -0.65575,2.75864 -0.57927,24.51939 0.047,13.34541 -0.0527,25.07001 -0.22139,26.05465 -0.20336,1.187 -0.15396,1.79027 0.14647,1.79027 0.24927,0 4.58667,-2.40525 9.63865,-5.345 z M 297.6336,247.8232 c 0,-0.19578 0.37913,-0.69906 0.84249,-1.1184 0.82072,-0.74274 0.84247,-1.29739 0.84247,-21.4838 0,-20.51017 -0.24303,-28.4331 -0.8722,-28.4331 -0.17863,0 -1.85626,0.94986 -3.72807,2.11079 -1.88913,1.17167 -3.40086,1.87448 -3.39784,1.57964 0.005,-0.51407 5.2826,-4.17648 6.90062,-4.78894 1.91061,-0.72322 1.93997,-0.32953 1.93997,26.01576 v 24.75622 l -0.92191,0.85889 c -0.96839,0.9022 -1.60553,1.10179 -1.60553,0.50294 z M 124.92532,233.17947 V 189.5355 l -0.94898,0.23817 c -0.52194,0.13103 -5.68739,1.01537 -11.47878,1.96529 -13.400103,2.1979 -25.338735,4.32851 -30.854633,5.50641 l -4.317709,0.92204 v 24.55018 c 0,13.5026 0.115108,24.85001 0.255689,25.21648 0.140582,0.36648 0.417478,0.66632 0.615199,0.66632 0.197737,0 0.414404,-10.60862 0.481479,-23.57469 0.107625,-20.78785 0.200428,-23.6531 0.785552,-24.23795 0.38269,-0.38253 4.216213,-1.46472 9.056652,-2.55669 14.843731,-3.34863 18.400441,-4.03087 18.821051,-3.61026 0.51703,0.51703 0.38608,0.55354 -9.164246,2.55479 -6.882593,1.44224 -17.954907,4.10978 -18.145846,4.3717 -0.03407,0.0466 -0.175942,10.82724 -0.315329,23.9568 l -0.25346,23.87193 3.881206,2.49805 c 2.134654,1.37393 6.440232,4.01725 9.567935,5.87406 9.45311,5.61196 28.33629,17.03516 29.9005,18.08802 0.80674,0.54301 1.61235,0.9873 1.79027,0.9873 0.1779,0 0.32345,-19.6398 0.32345,-43.64398 z m 176.65817,20.77645 c 0.55055,-0.40256 0.70657,-1.00099 0.60707,-2.32832 -0.13215,-1.76255 -0.14664,-1.77755 -1.08173,-1.11925 -0.70985,0.49974 -0.94779,1.08426 -0.94779,2.32832 0,1.77651 0.25221,1.97495 1.42245,1.11925 z m -58.71105,-30.20868 c 0,-0.23168 -0.29552,-0.42123 -0.65672,-0.42123 -0.3612,0 -0.53957,0.18955 -0.39638,0.42123 0.14313,0.23168 0.43871,0.42125 0.65672,0.42125 0.218,0 0.39638,-0.18957 0.39638,-0.42125 z m 2.71064,0.0111 c 1.01475,-0.38582 1.08052,-0.58647 1.08052,-3.29696 v -2.88615 l -1.26372,0.18547 -1.26372,0.18548 v 3.11148 c 0,1.71132 0.0825,3.1115 0.1832,3.1115 0.10078,0 0.66943,-0.18488 1.26372,-0.41082 z m -3.02977,-1.12663 c 0.17552,-0.10842 0.31913,-1.10513 0.31913,-2.21477 v -2.01754 l -3.68586,-0.95054 c -3.6468,-0.94048 -8.69072,-2.44798 -28.74961,-8.59249 -5.6762,-1.73875 -12.78461,-3.91487 -15.79647,-4.83578 -3.01187,-0.92092 -10.97331,-3.41331 -17.69207,-5.53863 -6.71877,-2.12533 -15.81755,-4.99822 -20.21952,-6.38421 -4.40196,-1.38597 -12.03017,-3.83569 -16.9516,-5.44379 -4.92143,-1.6081 -9.13909,-2.92382 -9.37259,-2.92382 -0.23349,0 -0.42453,0.92478 -0.42453,2.05508 0,1.85627 0.11209,2.09694 1.15841,2.48753 0.63713,0.23784 8.93028,2.93167 18.42923,5.98628 9.49897,3.05461 20.96722,6.75903 25.48501,8.23204 4.5178,1.473 15.60694,5.05577 24.64253,7.9617 9.03559,2.90591 21.64119,6.99119 28.01244,9.0784 9.06335,2.96913 11.90421,3.74083 13.05523,3.54634 0.80911,-0.13676 1.61474,-0.33731 1.79027,-0.4458 z m 11.97581,-4.14731 c 3.43531,-2.19988 12.12231,-7.96602 19.30444,-12.81366 7.18214,-4.84763 16.51787,-11.14935 20.74605,-14.00382 l 7.68764,-5.18995 v -2.68851 -2.68853 l -0.9478,0.62694 c -0.764,0.50536 -0.97228,1.08709 -1.07412,3.00004 -0.14982,2.81373 -0.92677,3.21411 -0.92677,0.47757 0,-1.04258 -0.11845,-1.89559 -0.26314,-1.89559 -0.14472,0 -4.93108,3.14878 -10.63631,6.9973 -5.70523,3.84851 -17.24463,11.56523 -25.64309,17.14826 l -15.26994,10.15096 v 2.4394 c 0,1.34165 0.17483,2.43938 0.3885,2.43938 0.21369,0 3.19922,-1.7999 6.63454,-3.99979 z m 41.41953,-28.96924 c 0,-0.37423 0.17497,-0.78857 0.38882,-0.92073 0.21387,-0.13214 0.51039,-0.79372 0.65895,-1.4701 0.2601,-1.18429 1.29868,-2.45188 1.68904,-2.0615 0.10397,0.10396 0.005,0.85589 -0.22015,1.67094 -0.46354,1.67879 -2.51666,3.94789 -2.51666,2.78139 z m -52.26334,24.86016 c -0.0927,-1.64883 -0.55173,-1.81576 -2.41163,-0.87705 -1.36182,0.68734 -1.62232,0.9618 -1.0531,1.10956 1.60315,0.41616 3.49408,0.28927 3.46473,-0.23251 z m 3.23081,-0.006 c 0.20119,-0.20119 0.57208,-15.08451 0.83962,-33.69237 0.29071,-20.22059 0.38965,-19.18019 -1.76887,-18.60078 -0.88197,0.23674 -0.88904,0.36229 -1.1657,20.74031 -0.15316,11.27615 -0.39794,23.13783 -0.54411,26.35929 l -0.26577,5.85718 1.40075,-0.28014 c 0.77041,-0.15412 1.44724,-0.32665 1.50408,-0.38349 z m -6.24998,-1.58865 2.49998,-1.27951 0.26941,-8.93554 c 0.14822,-4.91455 0.3954,-15.98609 0.54941,-24.60342 l 0.28002,-15.66785 -31.34145,-0.0433 c -40.25055,-0.0556 -85.04998,-0.587 -85.99731,-1.02016 -0.68974,-0.31538 -0.73717,0.24926 -0.73717,8.77507 v 9.11216 l 1.08052,0.4108 c 2.12202,0.80679 2.08744,0.94268 1.94735,-7.65036 -0.0863,-5.29831 0.022,-8.21555 0.31593,-8.50955 0.31565,-0.31564 0.45607,-0.0815 0.47698,0.7953 0.0162,0.68347 0.20256,1.62178 0.41397,2.08514 0.30777,0.67457 0.36483,0.54862 0.28632,-0.63187 l -0.0981,-1.47433 27.59121,-0.26919 c 15.17517,-0.14807 32.14059,-0.37684 37.70096,-0.50841 7.20526,-0.17049 9.88702,-0.11128 9.33447,0.20613 -1.30911,0.75202 -15.77749,1.16635 -41.38928,1.18526 -27.48036,0.0202 -31.95754,0.19233 -32.09091,1.23315 -0.0479,0.37427 -0.31387,2.25808 -0.59087,4.18624 -0.45781,3.18656 -0.43276,3.63742 0.27524,4.95207 0.86149,1.59972 0.56773,2.47979 -0.40053,1.19995 -0.56001,-0.74023 -0.61529,-0.58663 -0.6275,1.74409 l -0.0127,2.55583 2.42214,0.74097 c 3.11598,0.95325 27.40431,8.56271 41.80804,13.09834 11.73132,3.69411 22.78463,7.13076 32.64608,10.15017 3.24354,0.99312 11.39453,3.51069 18.1133,5.59459 6.71878,2.08388 12.34178,3.80213 12.49556,3.8183 0.1538,0.0162 1.40461,-0.54637 2.7796,-1.2501 z m 29.58687,-14.01855 c 27.42774,-18.36667 27.28047,-18.26293 28.13126,-19.81717 0.65394,-1.19459 0.73771,-3.55465 0.86935,-24.49017 0.0812,-12.91638 0.30109,-22.79539 0.49694,-22.32571 0.52508,1.25935 0.50386,44.14035 -0.0226,45.52489 -0.59861,1.57446 -0.31184,1.66126 1.22261,0.37011 l 1.31662,-1.10787 v -23.97322 c 0,-13.18527 -0.14217,-23.97137 -0.31593,-23.96913 -0.17376,0.002 -1.1098,0.61832 -2.08008,1.36904 -0.9703,0.75072 -2.86587,2.0284 -4.21241,2.83928 -1.34652,0.81088 -3.58558,2.24577 -4.97567,3.18863 -3.14448,2.13281 -18.15135,11.65688 -24.64253,15.6393 -6.19561,3.80109 -9.98744,5.9181 -13.73413,7.66787 l -2.99252,1.39757 -0.27469,14.38169 c -0.15109,7.90992 -0.39556,18.50456 -0.5433,23.54364 -0.18843,6.42729 -0.13326,9.16197 0.18484,9.16197 0.24938,0 0.57377,-0.37912 0.72083,-0.84248 0.14711,-0.46336 0.44418,-0.84247 0.66026,-0.84247 0.74038,0 0.39267,1.14087 -0.71052,2.33124 -1.25342,1.35247 -1.96995,4.60056 -0.95871,4.34594 0.32324,-0.0814 10.1604,-6.55821 21.86033,-14.39295 z m 16.84961,-57.40089 c 0,-0.74387 0.90682,-0.61432 1.16717,0.16676 0.0917,0.27511 -0.13342,0.50021 -0.50022,0.50021 -0.36683,0 -0.66695,-0.30014 -0.66695,-0.66697 z M 83.019653,194.05728 c 4.261476,-0.96434 15.525111,-2.94517 26.319797,-4.62863 2.43266,-0.37938 7.02943,-1.17413 10.21505,-1.76613 l 5.79205,-1.07638 v -2.10528 c 0,-1.97026 -0.0608,-2.09062 -0.94779,-1.8764 -0.52128,0.12593 -4.73894,0.91515 -9.37258,1.75389 -4.63363,0.83874 -12.78462,2.3574 -18.113305,3.37479 -5.328684,1.01741 -10.997948,2.05792 -12.598362,2.31227 -1.600414,0.25435 -3.780331,0.64913 -4.84426,0.87731 l -1.934402,0.41485 v 1.88326 c 0,1.0358 0.193009,1.88326 0.428925,1.88326 0.235899,0 2.510594,-0.47106 5.054877,-1.04681 z m 6.521523,-8.05499 c 5.444525,-1.02112 14.164184,-2.61876 19.377024,-3.55032 5.21284,-0.93156 10.99437,-2.0323 12.84781,-2.4461 3.35908,-0.74995 3.36984,-0.75669 3.34652,-2.09434 -0.0127,-0.7381 -0.0602,-4.94039 -0.10524,-9.33846 l -0.0818,-7.99645 -2.2115,-1.11487 c -3.35195,-1.68981 -13.69069,-8.33709 -24.958453,-16.04701 -5.560365,-3.80466 -12.431845,-8.50506 -15.269948,-10.44534 l -5.160194,-3.52776 v 29.50696 29.50699 l 1.158419,-0.29836 c 0.637122,-0.16408 5.613015,-1.13381 11.05754,-2.15494 z m -9.695445,-1.64816 c -0.480333,-0.57877 -0.629384,-4.90876 -0.816852,-23.72861 -0.243255,-24.42069 -0.177788,-28.70739 0.438493,-28.70739 0.222064,0 0.385555,4.23828 0.385922,10.00444 9.39e-4,15.2407 0.520994,40.86767 0.83981,41.3835 0.194569,0.31482 6.009572,-0.60478 18.571889,-2.93701 10.058747,-1.86743 19.283807,-3.61122 20.500127,-3.87508 l 2.21152,-0.47974 0.006,-6.56749 c 0.003,-3.61213 0.16636,-6.81974 0.36179,-7.12803 0.60408,-0.95291 0.89548,1.71735 0.89548,8.20592 v 6.06576 l -1.06674,0.40556 c -0.58672,0.22307 -4.2357,0.96312 -8.10887,1.64457 -12.63113,2.22231 -29.157023,5.35719 -32.763371,6.21506 -0.509118,0.12116 -1.111054,-0.0863 -1.455645,-0.50146 z m 49.074339,0.91567 c 0.11383,-1.8087 0.0205,-2.05621 -0.90825,-2.40935 -1.67625,-0.6373 -1.82279,-0.49853 -1.82279,1.72622 0,1.80503 0.14075,2.17611 0.94779,2.49924 1.44062,0.57677 1.64577,0.36782 1.78325,-1.81611 z m 119.88716,-27.38081 c 1.29483,-0.53268 4.51733,-2.1703 7.16107,-3.63918 11.08984,-6.16152 44.995,-27.79338 45.02575,-28.7269 0.0369,-1.11922 -3.8635,-2.52719 -26.10739,-9.42435 -4.28611,-1.32899 -8.0022,-2.49319 -8.25795,-2.58712 -0.5664,-0.20801 -2.07268,4.8964 -1.57136,5.32495 0.19328,0.16523 4.42691,1.5535 9.40807,3.08506 11.49374,3.53397 12.21595,3.83506 12.21595,5.09278 0,0.5402 -0.33173,1.27168 -0.73717,1.62552 -1.41284,1.23306 -31.98255,18.44616 -37.1744,20.93208 l -3.1593,1.51271 -57.54504,0.10969 -57.54504,0.1097 -2.69224,-1.39607 c -1.48073,-0.76784 -4.01916,-2.22394 -5.64092,-3.23579 -3.80568,-2.37444 -21.38363,-13.05391 -25.485002,-15.48342 -1.73762,-1.0293 -3.491034,-2.16864 -3.896475,-2.53188 -0.871683,-0.78095 -0.956096,-1.92996 -0.188582,-2.56695 0.420374,-0.34888 8.237779,-2.79542 15.708359,-4.91611 0.54456,-0.1546 -0.1479,-5.26276 -0.71343,-5.26276 -0.19105,0 -4.76169,1.33958 -10.156958,2.97685 -5.395266,1.63727 -11.585779,3.51353 -13.756701,4.16946 -2.170923,0.65594 -4.306755,1.55222 -4.746299,1.99176 -0.959041,0.95904 -1.898468,0.20242 13.92075,11.21223 23.353058,16.25319 32.220088,21.61968 36.686038,22.20306 1.27424,0.16645 28.09668,0.32298 59.60542,0.34787 l 57.2886,0.0452 z m -9.62065,-1.03909 c -2.20536,-0.21264 -1.57153,-0.91943 0.84249,-0.93946 3.90392,-0.0323 5.64544,-0.5817 7.62291,-2.40445 2.71808,-2.50544 3.53606,-2.86146 4.52277,-1.9685 0.4441,0.4019 0.80745,0.99494 0.80745,1.31789 0,0.68054 -3.1262,2.20809 -4.5468,2.22168 -0.68402,0.006 -0.9301,0.22458 -0.84248,0.74642 0.10762,0.64082 -0.34423,0.7647 -3.45676,0.94779 -1.9693,0.1159 -4.1966,0.15124 -4.94958,0.0786 z m 11.90003,-3.86979 c 0.14313,-0.23168 -0.024,-0.42124 -0.37152,-0.42124 -0.34752,0 -0.74901,0.18956 -0.8922,0.42124 -0.14313,0.23169 0.024,0.42125 0.37153,0.42125 0.34752,0 0.74901,-0.18956 0.89219,-0.42125 z m -122.97691,3.32934 c 0.43698,-0.70705 -0.66414,-1.60968 -2.27892,-1.86812 -2.98854,-0.47828 -3.4329,-0.64122 -3.4329,-1.25861 0,-1.09724 3.03329,-0.75591 5.68673,0.63987 1.3213,0.69504 2.75106,1.26372 3.17721,1.26372 0.97411,0 1.42882,0.67965 0.73969,1.10556 -0.80913,0.50008 -4.19136,0.60226 -3.89181,0.1175 z M 83.591833,129.04766 c -1.071156,-0.8539 -2.451926,-1.91569 -3.068398,-2.35955 -0.616472,-0.44384 -0.972192,-0.93903 -0.790503,-1.10039 0.181689,-0.16136 1.657251,-0.61208 3.279031,-1.0016 1.62178,-0.3895 3.2804,-0.8075 3.685841,-0.92888 0.405441,-0.12132 0.737168,-0.0143 0.737168,0.23937 0,0.52072 -1.353767,1.09932 -4.415081,1.88695 -1.615889,0.41576 -1.902687,0.60194 -1.247527,0.80988 0.652182,0.20699 4.46391,4.15634 3.893306,4.03386 -0.06941,-0.0143 -1.002665,-0.72574 -2.073837,-1.57964 z M 296.2909,126.99673 c 0.30409,-0.12163 0.6674,-0.10667 0.80738,0.0333 0.13995,0.13994 -0.1089,0.23953 -0.55288,0.22123 -0.49072,-0.0202 -0.59054,-0.12004 -0.2545,-0.25449 z m -3.18562,-1.23563 c -0.2896,-0.12753 -0.52655,-0.40554 -0.52655,-0.61791 0,-0.52645 7.04537,-0.49291 7.3717,0.0352 0.15809,0.25569 -0.45299,0.42305 -1.55479,0.42587 -0.99833,0.003 -2.47859,0.0911 -3.28947,0.19667 -0.81089,0.10555 -1.71129,0.0877 -2.00089,-0.0398 z m -128.58692,6.99952 c -0.006,-22.49386 -0.92072,-37.702921 -2.56413,-42.637245 -0.44126,-1.324856 -0.80229,-2.699161 -0.80229,-3.05399 0,-0.354828 -0.14217,-0.644954 -0.31593,-0.644716 -1.10906,0.0015 -3.90412,18.335081 -5.39444,35.383711 -0.60896,6.96622 -1.47193,25.58005 -1.21082,26.11685 0.0564,0.1159 2.39505,0.21063 5.19711,0.21063 h 5.09466 z m 32.21677,12.11064 c 0.41825,-5.06929 1.87412,-18.23267 2.34108,-21.16731 0.22121,-1.39009 0.40361,-3.31154 0.40536,-4.2699 0.003,-1.64308 -0.0748,-1.75434 -1.36585,-1.95096 -0.75296,-0.11463 -1.3944,-0.18357 -1.42541,-0.15316 -0.031,0.0304 -0.56373,4.22565 -1.18381,9.32266 -0.62009,5.097 -1.47351,11.92107 -1.8965,15.16463 -0.42297,3.24354 -0.68469,6.03952 -0.58159,6.21328 0.10317,0.17376 0.91478,0.31593 1.80373,0.31593 h 1.61625 z m 10.08448,2.94867 c 0.081,-0.2896 0.94139,-5.54984 1.91188,-11.68941 0.9705,-6.13956 2.03559,-12.23278 2.36687,-13.54048 0.85011,-3.35566 0.87353,-3.30729 -1.60917,-3.32391 -1.21632,-0.008 -3.44363,-0.28581 -4.94956,-0.61706 -3.82841,-0.84209 -3.79114,-0.8514 -3.79127,0.9478 -9e-5,1.48728 -2.20134,23.08481 -2.74773,26.95934 l -0.25246,1.79027 h 4.46205 c 3.21024,0 4.50339,-0.14774 4.60939,-0.52655 z m 5.21615,-0.94779 c 0.0685,-0.69505 0.69689,-5.39687 1.39654,-10.44848 0.69964,-5.05162 1.21232,-9.35847 1.13928,-9.57079 -0.0734,-0.21321 -0.60178,-0.15156 -1.18034,0.13772 -0.69758,0.34881 -1.13836,1.01311 -1.31941,1.98847 -1.10854,5.97168 -2.89857,17.21685 -2.89857,18.20916 0,1.11317 0.11129,1.20087 1.36903,1.0796 1.17717,-0.11352 1.38647,-0.30911 1.49347,-1.39572 z m 22.87406,-0.0406 c 0.14823,-0.67271 0.96376,-3.85117 1.81232,-7.06325 0.84856,-3.21207 2.39947,-9.65703 3.44648,-14.32215 4.31605,-19.23095 5.44081,-23.1617 7.47193,-26.112327 0.68767,-0.99899 0.7284,-1.26639 0.24115,-1.583459 -0.32242,-0.209821 -1.05945,-0.332396 -1.63782,-0.272374 -0.88334,0.0917 -1.13532,0.446073 -1.57502,2.215313 -0.2879,1.158417 -1.35559,5.518247 -2.37261,9.688517 -1.01704,4.17028 -3.59414,14.4064 -5.7269,22.74694 -2.13274,8.34055 -3.88418,15.25941 -3.89208,15.37525 -0.0455,0.66801 0.18236,0.82239 1.02424,0.69393 0.64005,-0.0978 1.02459,-0.53254 1.20831,-1.36639 z m 10.43367,0.75203 2.26043,-0.71142 1.87052,-5.26551 c 2.89206,-8.14101 5.44227,-16.63128 6.4165,-21.36197 l 0.88588,-4.30178 -1.06168,-2.40064 c -1.05334,-2.38181 -1.06597,-3.94983 -0.0318,-3.94983 0.63445,0 1.67107,1.12811 2.12892,2.31683 0.23974,0.62237 0.5693,-0.20298 1.26151,-3.1593 0.51534,-2.20098 1.26512,-4.63545 1.66617,-5.40996 0.40104,-0.7745 0.6678,-1.46203 0.59279,-1.52786 -1.84887,-1.6228 -12.1417,-4.583964 -12.1417,-3.493087 0,0.21753 -0.56911,1.62508 -1.26469,3.127877 -1.31164,2.83381 -2.54968,7.2845 -4.43355,15.93844 -1.3456,6.18129 -2.33043,10.42957 -4.199,18.11332 -1.98877,8.17796 -2.73995,11.53421 -2.73995,12.24208 0,0.87027 5.858,0.76551 8.78964,-0.15714 z m -106.58345,-3.13355 c -0.27326,-3.04964 -1.82329,-18.36222 -4.53053,-44.756717 -0.4515,-4.401949 -1.22524,-12.173819 -1.71943,-17.270823 -1.45593,-15.016853 -2.06438,-19.667961 -2.69972,-20.637622 -0.53081,-0.810118 -0.84337,-0.88329 -2.73606,-0.640481 -1.17523,0.150771 -2.24746,0.384792 -2.3827,0.52004 -0.13517,0.135327 -0.0562,0.975217 0.17562,1.866579 2.31738,8.909591 3.89506,25.537987 4.49013,47.325154 0.34435,12.60768 1.4425,35.67701 1.73452,36.43799 0.19081,0.49726 1.06265,0.63111 4.11088,0.63111 h 3.86869 z m 14.13549,-5.05487 c 0.50718,-15.23704 1.99744,-29.93712 4.72526,-46.610506 1.89877,-11.605998 2.94996,-12.405321 5.59455,-4.254184 1.39818,4.309445 2.49671,23.04987 2.66058,45.38857 l 0.10269,14.00622 h 1.31328 1.31328 l 0.38045,-19.48233 c 0.61663,-31.578138 0.47212,-43.929392 -0.60993,-52.128419 -0.5045,-3.822745 -1.12877,-8.040407 -1.3873,-9.372586 -0.5745,-2.960581 -1.44572,-3.316747 -1.03038,-0.421234 0.26607,1.854909 0.73058,5.758548 1.93482,16.260083 0.2617,2.282193 0.37974,4.245523 0.26228,4.362972 -0.38583,0.385842 -1.47214,-4.210434 -2.16122,-9.144281 -0.3721,-2.664342 -0.94858,-6.360707 -1.28105,-8.214167 -0.33248,-1.853461 -0.67161,-3.843808 -0.75362,-4.423026 -0.16237,-1.146717 -1.26755,-1.530059 -3.09145,-1.072286 -1.33748,0.335675 -2.28702,2.504337 -3.51275,8.02275 -1.17689,5.298562 -1.81748,6.466167 -1.49187,2.719238 0.20928,-2.408208 1.29342,-7.131373 2.14703,-9.353768 0.16083,-0.418719 0.0887,-0.737168 -0.16684,-0.737168 -0.51867,0 -1.22445,2.235529 -2.97359,9.418517 -3.04276,12.495481 -3.47783,17.408567 -4.23907,47.870085 -0.2287,9.15143 -0.53474,18.67672 -0.68009,21.16729 l -0.26427,4.52833 h 1.4626 1.46262 z m -23.97912,5.10238 c -1.42522,-3.44388 -3.55884,-10.40518 -3.56505,-11.6316 -0.005,-1.05867 0.5013,-1.2288 1.18961,-0.39944 0.25029,0.30159 0.95582,2.68378 1.56784,5.29377 0.61201,2.60999 1.18897,4.66923 1.28212,4.57606 0.0931,-0.0931 -0.0177,-2.52274 -0.24615,-5.39909 -0.22855,-2.87634 -0.61078,-11.01122 -0.84938,-18.07751 -0.95158,-28.180468 -1.96779,-41.340056 -3.96871,-51.393419 -0.56509,-2.839281 -1.18287,-5.316202 -1.37282,-5.504275 -0.35918,-0.355625 -6.39945,0.257456 -6.83636,0.693879 -0.36096,0.360576 -0.29876,7.121597 0.0927,10.078056 0.3081,2.32674 0.28619,2.443822 -0.27596,1.474336 -1.26603,-2.183388 -1.78234,-8.33628 -0.89254,-10.636305 0.22246,-0.575014 0.0669,-0.735735 -0.70767,-0.730704 -1.81491,0.01114 -2.19638,0.568422 -1.91595,2.795737 1.07403,8.53034 3.15092,23.723103 4.91471,35.951855 1.72495,11.95948 3.60554,25.86591 5.32595,39.3839 0.18366,1.44306 0.54491,2.30333 1.1498,2.73805 1.61179,1.15836 5.95898,3.72495 6.08899,3.59495 0.0704,-0.0704 -0.37112,-1.33412 -0.98117,-2.80825 z m 123.64068,-0.43002 c 2.1191,-1.16498 2.47175,-1.54455 2.83748,-3.05399 0.22969,-0.94803 2.54652,-9.68024 5.14848,-19.40492 l 4.73082,-17.68124 -1.11444,-0.95861 c -0.61296,-0.52726 -1.26181,-0.95863 -1.44189,-0.95863 -0.1801,0 -0.76137,2.03774 -1.29174,4.52832 -0.53037,2.49059 -1.4943,6.13959 -2.14209,8.10887 -0.64779,1.9693 -1.94515,6.42391 -2.88303,9.89914 -1.92808,7.14436 -3.54934,12.30516 -5.4587,17.37613 -0.71968,1.91138 -1.19516,3.47523 -1.05662,3.47523 0.13851,0 1.34083,-0.59864 2.67173,-1.3303 z m -78.1522,-25.63014 c -0.0143,-11.7992 -0.66044,-25.143704 -1.41649,-29.276157 -0.16956,-0.926723 -0.23635,1.91665 -0.14839,6.318596 0.0879,4.401964 -0.008,14.827631 -0.21198,23.168181 -0.20452,8.34054 -0.28255,15.33517 -0.1734,15.54361 0.10922,0.20842 0.59624,-0.36024 1.08242,-1.26372 0.84371,-1.56787 0.88324,-2.22794 0.86787,-14.49051 z m -57.74429,7.21534 c 0.45233,-0.91042 0.45273,-1.74416 0.002,-4.6879 -0.30135,-1.96929 -0.55593,-4.20021 -0.56575,-4.95759 -0.0161,-1.23845 -0.11909,-1.35163 -1.02428,-1.12446 -0.89062,0.22353 -1.13281,-0.0143 -2.1042,-2.06783 -2.98832,-6.3168 -6.93959,-28.9312 -7.15048,-40.924537 -0.0473,-2.685612 0.1202,-3.712079 0.82451,-5.054877 0.48608,-0.926738 1.08635,-1.68497 1.33393,-1.68497 0.24759,0 0.59232,-0.142173 0.76608,-0.315933 0.40807,-0.408052 -2.83614,-0.401986 -3.44547,0.0064 -0.93992,0.630037 -1.02614,2.852606 -0.37668,9.70936 1.22984,12.984045 4.1167,31.166027 6.05515,38.136377 0.65406,2.35193 1.5281,6.07701 1.9423,8.27799 1.1602,6.16499 2.29966,7.59225 3.74261,4.6879 z m 97.51998,0.12705 c 0.60262,0.37244 0.75428,-0.0839 1.08572,-3.26676 l 0.29936,-2.87491 -1.1933,0.13692 c -1.33825,0.15348 -1.69126,1.08924 -1.77935,4.71675 -0.0425,1.75219 0.04,1.97799 0.56357,1.54338 0.33738,-0.28 0.79818,-0.39488 1.024,-0.25532 z m 3.93339,-10.23001 c 0.82034,-0.97491 1.16332,-2.23169 1.81063,-6.63453 0.43923,-2.98748 0.80629,-6.47435 0.81568,-7.74859 l 0.017,-2.316817 -4.00177,-0.28253 c -2.20097,-0.15539 -6.65429,-0.68191 -9.89625,-1.17006 -5.61354,-0.845255 -5.92032,-0.852212 -6.43668,-0.145994 -0.94292,1.289514 -1.79214,4.842351 -2.06271,8.629711 -0.2964,4.14906 0.16609,5.85783 1.78514,6.59553 1.17939,0.53736 1.36302,1.3274 0.30853,1.3274 -0.50349,0 -0.58382,0.1323 -0.27052,0.44558 1.06953,1.06953 8.38186,2.31878 14.32354,2.44707 2.3702,0.0511 2.68308,-0.0482 3.60735,-1.14672 z m -5.57079,0.38723 c -1.02355,-0.30157 -1.00658,-0.33026 0.60448,-1.02217 l 1.65757,-0.71188 -0.98717,-0.69146 -0.98719,-0.69145 1.04719,-0.87712 c 1.38006,-1.15595 2.37928,-6.0063 1.388,-6.73746 -0.34172,-0.25206 -0.66766,-1.21394 -0.7243,-2.13752 l -0.10301,-1.67923 1.99176,-0.0173 c 1.34018,-0.0111 2.06649,0.17736 2.2202,0.57794 0.43552,1.13491 -1.11315,11.59933 -1.83872,12.42426 -0.6094,0.69287 -2.75888,2.02575 -3.08949,1.91577 -0.0694,-0.0231 -0.60012,-0.18161 -1.17932,-0.35228 z m -13.99545,-2.02786 c -1.83961,-2.0981 -2.11582,-3.38503 -1.62313,-7.56262 0.25779,-2.18581 0.93158,-5.29902 1.49729,-6.918267 l 1.0286,-2.944056 -1.55954,0.129755 c -1.52578,0.12689 -1.56617,0.175305 -1.86594,2.235911 -0.86118,5.919717 -1.59629,13.444247 -1.38002,14.125677 0.26287,0.82821 1.89412,1.58365 3.53602,1.63755 0.93082,0.0306 0.96059,-0.0266 0.36672,-0.70391 z m -50.87547,-4.14797 v -2.72476 l -4.73894,0.11908 -4.73896,0.11909 0.1487,2.52744 c 0.0818,1.3901 0.20533,2.62223 0.27451,2.73807 0.0691,0.11591 2.13475,0.15109 4.59019,0.0782 l 4.46445,-0.13246 z m 38.43814,2.50161 5.37079,-0.27392 v -2.46243 -2.46243 h -7.16107 -7.16108 v 2.73805 2.73807 l 1.79027,-0.002 c 0.98465,-9.4e-4 4.20714,-0.12498 7.16109,-0.27562 z m 52.27148,-0.45984 c 0.10985,-0.40544 0.32125,-1.30583 0.46963,-2.00089 0.14839,-0.69504 0.36833,-1.59544 0.48877,-2.00089 0.2032,-0.68394 -0.36086,-0.73716 -7.81293,-0.73716 -6.13133,0 -8.03789,0.12466 -8.05706,0.52655 -0.0143,0.2896 -0.17193,1.41785 -0.35139,2.50722 l -0.32626,1.98065 1.93103,0.15491 c 1.06208,0.0852 4.52469,0.18909 7.6947,0.23085 5.17014,0.0681 5.78424,2e-5 5.96351,-0.66126 z m -123.73882,-4.00178 c -0.58497,-5.47448 -3.24775,-25.109183 -3.88463,-28.644285 -0.36521,-2.027221 -0.82723,-3.685858 -1.02669,-3.685858 -1.6266,0 -1.55107,6.074164 0.21737,17.481453 1.09164,7.041563 2.72274,14.32877 3.67506,16.41886 0.86458,1.89758 1.31522,1.20311 1.01889,-1.57017 z m 151.75378,-7.37168 c 0.36949,-0.705897 3.7119,-12.608419 6.64397,-23.659526 0.76323,-2.876647 1.28836,-5.390999 1.16695,-5.587446 -0.77447,-1.253101 -9.16028,-3.900774 -13.93556,-4.399893 -2.48552,-0.259781 -2.66357,-0.215218 -3.83968,0.960873 -0.72985,0.72986 -1.52049,2.221232 -1.93685,3.653506 -1.29643,4.459484 -2.83395,11.833459 -3.22096,15.447497 -0.79795,7.451908 -0.70784,7.160301 -2.2148,7.167529 -1.29223,0.0064 -2.79464,0.610263 -2.38412,0.958564 0.10922,0.09266 1.73404,0.378614 3.61089,0.635593 4.76548,0.652517 13.90074,3.844616 14.69899,5.136233 0.39576,0.64037 0.98,0.5108 1.41117,-0.31293 z m -3.50787,-3.041614 c -0.30391,-0.491748 0.72902,-2.595277 1.64953,-3.35924 0.36281,-0.301096 0.65964,-0.780346 0.65964,-1.064995 0,-0.28465 0.49192,-1.442702 1.09314,-2.573434 l 1.09313,-2.05591 -1.55321,-1.303999 c -2.79464,-2.346244 -1.06708,-4.821971 1.89366,-2.713745 0.69544,0.495203 1.26444,1.104367 1.26444,1.353704 0,0.249337 -0.60455,2.650411 -1.34347,5.335721 -0.88248,3.207053 -1.67088,5.209772 -2.29767,5.83656 -1.0038,1.003795 -2.03458,1.232375 -2.45919,0.545338 z m 5.49864,-16.525484 c -0.48386,-0.690822 -0.58257,-1.496355 -0.38713,-3.159306 0.18112,-1.541013 0.114,-2.232059 -0.2169,-2.232059 -0.76042,0 -0.55679,-0.771334 0.32876,-1.245251 1.25879,-0.673691 3.40439,-0.08342 3.40439,0.936562 0,1.332831 -1.67777,6.627286 -2.10013,6.627286 -0.20874,0 -0.67179,-0.417254 -1.02899,-0.927232 z m -47.23294,14.866863 c 0.13007,-0.210394 0.72169,-4.143725 1.31482,-8.740734 1.91705,-14.85825 1.8434,-13.622137 0.84973,-14.260548 -1.09863,-0.705852 -12.06398,-2.319767 -15.54875,-2.288514 -2.31723,0.02086 -2.69744,0.148382 -3.50727,1.177348 -2.23817,2.843723 -3.2545,13.47791 -1.99825,20.908596 0.26701,1.579318 0.23902,1.641903 -0.47093,1.053086 -2.07798,-1.723403 -2.35472,-5.323335 -1.03577,-13.473819 1.04672,-6.468284 1.45474,-7.769004 2.75877,-8.79477 1.31841,-1.037053 1.28945,-1.316305 -0.13581,-1.309237 -1.99488,0.0096 -2.97382,0.460018 -3.23126,1.485736 -0.22336,0.889913 -3.19263,20.855197 -3.19263,21.4671 0,0.628922 3.00209,1.391548 5.68673,1.444612 1.62178,0.032 5.12859,0.411443 7.79292,0.843074 5.30247,0.859027 10.34647,1.088717 10.7177,0.48807 z m -4.21494,-1.5758 c 0.16884,-0.428844 0.48023,-2.580534 0.692,-4.781516 0.21176,-2.200965 0.59743,-5.599275 0.85703,-7.551763 0.42963,-3.231189 0.40522,-3.598834 -0.27184,-4.093925 -1.13562,-0.830369 -0.0631,-1.833973 1.96016,-1.833973 1.5006,0 1.63351,0.09409 1.63517,1.158403 0.003,1.84214 -1.73143,14.490127 -2.13095,15.540921 -0.19915,0.523812 -0.96654,1.264961 -1.70531,1.646998 -1.28385,0.6639 -1.32965,0.660143 -1.03626,-0.08518 z m 31.39976,-1.190053 c 0.24189,-0.291448 0.63647,-2.119164 0.87686,-4.061574 0.89939,-7.267242 4.42742,-19.706649 6.07767,-21.429129 l 1.10311,-1.151397 -1.58004,-0.256406 c -0.86902,-0.141059 -1.64733,-0.189124 -1.72956,-0.106829 -0.32952,0.329499 -6.8618,26.74151 -6.84892,27.692193 0.006,0.429816 1.60918,-0.09441 2.10088,-0.68681 z M 109.58684,70.205503 c -0.13198,-1.158403 -0.24172,-2.532708 -0.24373,-3.053989 -0.006,-1.50586 -0.81636,-1.104161 -1.69997,0.842484 -0.49716,1.095261 -0.81623,2.737547 -0.82188,4.230351 l -0.01,2.440097 1.50745,-1.176377 c 1.45285,-1.133742 1.49876,-1.25267 1.26738,-3.282566 z m 115.23397,-1.292361 c 0.54133,-2.149684 2.09908,-17.023743 1.82869,-17.461233 -0.93522,-1.513215 -7.11816,-3.352601 -12.27437,-3.651548 -3.97138,-0.230247 -4.37068,-0.18051 -5.60472,0.698194 -2.69554,1.919405 -4.17558,5.466575 -5.10251,12.229062 -0.26992,1.969284 -0.6581,3.760621 -0.86262,3.980711 -1.04729,1.127087 0.40143,-10.13475 1.66772,-12.964271 0.43275,-0.966938 1.19343,-2.119164 1.69043,-2.560522 1.36887,-1.21559 1.0927,-1.515603 -0.8716,-0.946894 l -1.77522,0.513974 -0.72079,3.566371 c -0.39643,1.961499 -1.02728,5.746288 -1.40188,8.410631 -0.3746,2.664342 -0.77772,5.341834 -0.8958,5.950012 l -0.21471,1.105752 6.02457,0.02882 c 5.82194,0.0277 13.70664,1.050714 16.34493,2.120565 1.44385,0.58549 1.80669,0.41485 2.16788,-1.019541 z m -2.72953,-2.568992 c -0.15444,-0.154432 -0.28083,-2.711882 -0.28083,-5.683178 0,-4.946138 -0.0712,-5.44677 -0.84247,-5.928471 -1.05164,-0.656752 -1.06375,-1.90678 -0.0315,-3.24988 l 0.79223,-1.030813 1.72583,1.142099 c 1.43424,0.949139 1.72453,1.372396 1.71811,2.50515 -0.008,1.378763 -1.04243,9.234074 -1.49723,11.367503 -0.23333,1.094592 -0.96294,1.498775 -1.58414,0.87759 z m 53.86787,-0.03519 c 0.37113,-1.332179 0.94314,-3.275146 1.27112,-4.317709 0.32797,-1.042578 1.24611,-4.408394 2.04031,-7.47961 l 1.44398,-5.584023 -1.75553,-1.02817 c -5.78759,-3.389649 -13.54606,-5.00971 -16.07039,-3.355706 -1.53963,1.008794 -3.4084,4.248596 -4.40503,7.636717 -0.92041,3.129009 -1.71026,4.30225 -1.71026,2.540414 0,-2.838516 2.29654,-8.167392 4.35642,-10.108639 l 1.33031,-1.25369 -1.89557,0.281259 c -1.04258,0.15475 -2.02376,0.413719 -2.18044,0.575635 -0.38481,0.397639 -4.55939,17.369003 -4.55939,18.535764 0,0.82736 0.21909,0.925003 2.07572,0.925003 5.20854,0 15.06347,2.41491 17.87344,4.379816 0.4962,0.34698 1.03907,0.640815 1.20637,0.652963 0.16728,0.01274 0.60781,-1.067861 0.97894,-2.400024 z m -2.59723,-4.329363 c 0.13437,-1.859876 0.53065,-4.371505 0.88071,-5.581428 0.66367,-2.294023 0.58557,-4.74364 -0.17553,-5.504737 -0.24429,-0.24429 -0.44416,-0.880138 -0.44416,-1.41301 0,-0.767752 0.23219,-0.968848 1.11865,-0.968848 1.37812,0 3.93623,1.880987 3.93623,2.894335 0,1.126115 -3.37989,12.825075 -3.87963,13.428699 -0.23976,0.289616 -0.71597,0.526551 -1.05823,0.526551 -0.51754,0 -0.58119,-0.569378 -0.37804,-3.381562 z m -154.92734,-2.52729 c 2.29565,-0.280765 4.28991,-0.629989 4.43169,-0.776047 0.14169,-0.145995 -0.18833,-2.82457 -0.73354,-5.952289 -0.54523,-3.127703 -1.11408,-6.407912 -1.26412,-7.289372 l -0.27278,-1.602642 -2.36359,0.284474 c -1.29997,0.156502 -2.98432,0.538221 -3.74299,0.848328 l -1.3794,0.563821 0.11574,7.393478 c 0.0802,5.126171 0.25668,7.339395 0.57541,7.217107 0.25284,-0.09696 2.33798,-0.406093 4.63365,-0.686858 z m -3.58149,-2.024578 c -0.22735,-0.424801 -0.44689,-3.126 -0.48787,-6.002662 l -0.0745,-5.23031 1.63145,-0.111127 1.63146,-0.111128 -1.13182,0.864026 -1.13183,0.864026 0.24806,5.249732 c 0.13645,2.887346 0.13119,5.249733 -0.0111,5.249733 -0.14281,0 -0.44581,-0.347569 -0.67316,-0.772369 z m 12.47446,0.456436 c -0.12291,-0.405441 -1.04541,-3.822395 -2.05002,-7.593238 -1.63278,-6.12874 -1.91593,-6.842679 -2.66904,-6.729832 -0.49173,0.07371 -0.78268,0.385126 -0.69884,0.74809 1.29772,5.618396 1.73526,8.224627 1.74282,10.381237 0.0127,3.597926 0.19979,3.930911 2.20952,3.930911 1.4129,0 1.65249,-0.120521 1.46556,-0.737168 z m 99.11654,-9.807353 c 0,-0.866526 -1.32492,-3.57785 -2.20735,-4.51715 -2.25382,-2.399085 -11.58008,-3.524579 -15.27962,-1.84394 -1.46147,0.663933 -4.35699,3.640212 -3.93348,4.043201 0.0814,0.07738 2.03853,-0.04665 4.34936,-0.275447 2.90487,-0.287706 5.15054,-0.274985 7.27659,0.04124 3.17237,0.471831 8.01522,1.915105 8.72034,2.598843 0.53236,0.516219 1.07416,0.49264 1.07416,-0.04681 z m -2.77808,-2.138206 c -0.44136,-0.488404 -1.70286,-1.344597 -2.80335,-1.902671 -1.88716,-0.956988 -2.60922,-1.842953 -1.50202,-1.842953 1.01035,0 4.15675,1.790621 4.97561,2.831655 1.41953,1.804631 0.84391,2.589562 -0.67024,0.913969 z m -16.62833,-1.584508 c 0.50842,-0.949983 2.88058,-2.129895 4.96065,-2.467449 1.08996,-0.176881 1.43339,-0.109058 1.21735,0.240596 -0.16555,0.267837 -0.54743,0.486972 -0.84862,0.486972 -0.30121,0 -1.6643,0.566273 -3.02913,1.258386 -2.94582,1.493855 -2.82896,1.469401 -2.30025,0.481495 z m 73.35136,0.04267 c -0.67369,-2.501901 -1.99009,-3.875888 -5.05566,-5.276814 -2.93936,-1.34326 -7.37474,-1.935102 -10.33717,-1.379336 -1.35233,0.253699 -4.8555,2.81973 -4.85148,3.553666 8.1e-4,0.14679 2.03855,0.283471 4.52834,0.303706 2.48977,0.02022 5.37987,0.268283 6.42243,0.551229 3.19088,0.865984 7.52602,2.6012 8.52786,3.413451 0.52252,0.423638 1.00989,0.710931 1.08303,0.638427 0.0732,-0.07244 -0.0696,-0.884468 -0.31735,-1.804329 z m -1.84085,-0.664887 c -0.41695,-0.636341 -1.80619,-1.827461 -3.08722,-2.646909 -2.46929,-1.579589 -2.67853,-2.092146 -0.67436,-1.65195 1.56666,0.344098 4.86547,3.660225 4.66689,4.691404 -0.12482,0.647693 -0.263,0.587735 -0.90531,-0.392545 z m -16.29873,-3.598372 c 0,-0.157457 0.5748,-0.625786 1.2773,-1.040763 1.54606,-0.913285 5.88379,-1.466042 5.88379,-0.749778 0,0.264095 -0.45701,0.480158 -1.01558,0.480158 -0.55855,0 -2.16981,0.359238 -3.58054,0.79832 -1.41073,0.439066 -2.56497,0.669489 -2.56497,0.512063 z m -41.10901,-3.100638 c 1.18314,-9.452094 1.53974,-13.936845 1.13998,-14.336602 -0.6419,-0.641898 -0.76219,-0.02659 -1.29987,6.648492 -0.69165,8.586541 -1.45052,8.513018 -1.08218,-0.104759 0.28449,-6.656342 0.26938,-6.845131 -0.5478,-6.845131 -1.10182,0 -1.85606,2.055464 -3.24595,8.846035 -0.59275,2.896022 -1.16835,5.574852 -1.27911,5.952973 -0.16112,0.55005 0.28535,0.770809 2.23338,1.104335 3.96781,0.679344 3.8329,0.721168 4.08155,-1.265263 z m -6.90678,-2.106207 c 1.0386,-6.307149 2.10395,-10.881566 2.77151,-11.900406 0.61453,-0.937883 0.61827,-1.05272 0.0344,-1.05272 -0.3605,0 -0.802,0.23695 -0.98113,0.526551 -0.17912,0.2896 -1.00206,3.891204 -1.82873,8.00355 -1.05083,5.227459 -1.35199,7.477015 -1.00095,7.477015 0.29621,0 0.70829,-1.252272 1.00498,-3.05399 z m 63.31356,-5.160193 c 1.63411,-8.290938 1.74215,-9.190292 1.07738,-8.968706 -0.31102,0.103645 -1.51623,-0.161676 -2.67826,-0.589661 -2.10119,-0.77388 -2.11681,-0.773264 -2.84445,0.112242 -0.40244,0.489742 -0.93674,1.678108 -1.18735,2.640827 -0.39229,1.506879 -2.91242,9.185755 -3.6189,11.026797 -0.16124,0.420215 0.0322,0.622729 0.59475,0.622729 0.63799,0 0.89314,-0.371657 1.08687,-1.583204 0.43667,-2.730764 3.10767,-10.648023 3.88029,-11.501748 0.40615,-0.448777 0.99659,-0.81596 1.31211,-0.81596 0.42023,0 0.29546,0.549015 -0.46655,2.052757 -0.57211,1.129013 -1.80017,4.256732 -2.72901,6.950464 -1.46442,4.246957 -1.593,4.897913 -0.96777,4.899394 0.39656,9.39e-4 1.66881,0.346932 2.82722,0.768899 1.43548,0.522889 2.19029,0.622952 2.37026,0.31423 0.1452,-0.24913 0.74978,-2.917229 1.34341,-5.929092 z m -2.91222,1.579653 c 0.1245,-0.405441 0.70113,-2.523682 1.28141,-4.707182 0.99458,-3.742487 1.91891,-5.743884 1.91891,-4.154838 0,1.542319 -1.25944,7.10531 -1.88053,8.306381 -0.71175,1.376391 -1.69952,1.792245 -1.31979,0.555639 z M 221.81045,17.592258 c 0,-1.269858 -0.15093,-2.402149 -0.33553,-2.516203 -0.32347,-0.199917 -3.45598,3.685674 -3.45528,4.285976 1.8e-4,0.16208 0.85318,0.349674 1.89557,0.416875 l 1.89524,0.122177 z m 57.44001,-1.585483 c 0.14933,-1.428268 0.21795,-2.650332 0.15252,-2.715698 -0.12992,-0.129851 -3.6739,4.362418 -3.6739,4.65685 0,0.09959 0.61606,0.25753 1.36902,0.350973 0.75298,0.09344 1.48421,0.200232 1.62496,0.237308 0.14074,0.03708 0.37806,-1.101167 0.52733,-2.529433 z"
       id="path11" /></g><metadata
     id="metadata182"><rdf:RDF><cc:Work
         rdf:about=""><cc:license
           rdf:resource="http://creativecommons.org/licenses/by-sa/4.0/" /><dc:publisher><cc:Agent><dc:title>OpenDataKerala.org</dc:title></cc:Agent></dc:publisher><dc:date>April 2026</dc:date><dc:title>Election Symbols of Kerala</dc:title><dc:creator><cc:Agent><dc:title>Manoj Karingamadathil</dc:title></cc:Agent></dc:creator></cc:Work><cc:License
         rdf:about="http://creativecommons.org/licenses/by-sa/4.0/"><cc:permits
           rdf:resource="http://creativecommons.org/ns#Reproduction" /><cc:permits
           rdf:resource="http://creativecommons.org/ns#Distribution" /><cc:requires
           rdf:resource="http://creativecommons.org/ns#Notice" /><cc:requires
           rdf:resource="http://creativecommons.org/ns#Attribution" /><cc:permits
           rdf:resource="http://creativecommons.org/ns#DerivativeWorks" /><cc:requires
           rdf:resource="http://creativecommons.org/ns#ShareAlike" /></cc:License></rdf:RDF></metadata></svg>
