<?xml version="1.0" encoding="UTF-8" standalone="no"?>
<!-- Created with Inkscape (http://www.inkscape.org/) -->

<svg
   width="1500"
   height="1500"
   viewBox="0 0 396.87499 396.875"
   version="1.1"
   id="svg5"
   xml:space="preserve"
   inkscape:version="1.3 (0e150ed6c4, 2023-07-21)"
   sodipodi:docname="Pestle and Mortar.svg"
   inkscape:export-filename="Matchbox.png"
   inkscape:export-xdpi="96"
   inkscape:export-ydpi="96"
   xmlns:inkscape="http://www.inkscape.org/namespaces/inkscape"
   xmlns:sodipodi="http://sodipodi.sourceforge.net/DTD/sodipodi-0.dtd"
   xmlns="http://www.w3.org/2000/svg"
   xmlns:svg="http://www.w3.org/2000/svg"
   xmlns:rdf="http://www.w3.org/1999/02/22-rdf-syntax-ns#"
   xmlns:cc="http://creativecommons.org/ns#"
   xmlns:dc="http://purl.org/dc/elements/1.1/"><title
     id="title186">Election Symbols of Kerala</title><sodipodi:namedview
     id="namedview7"
     pagecolor="#ffffff"
     bordercolor="#000000"
     borderopacity="0.25"
     inkscape:showpageshadow="2"
     inkscape:pageopacity="0.0"
     inkscape:pagecheckerboard="0"
     inkscape:deskcolor="#d1d1d1"
     inkscape:document-units="mm"
     showgrid="false"
     inkscape:zoom="0.25"
     inkscape:cx="230"
     inkscape:cy="1078"
     inkscape:window-width="1920"
     inkscape:window-height="991"
     inkscape:window-x="-9"
     inkscape:window-y="-9"
     inkscape:window-maximized="1"
     inkscape:current-layer="layer1" /><defs
     id="defs2"><inkscape:path-effect
       effect="bspline"
       id="path-effect3248"
       is_visible="true"
       lpeversion="1"
       weight="33.333333"
       steps="2"
       helper_size="0"
       apply_no_weight="true"
       apply_with_weight="true"
       only_selected="false" /><inkscape:path-effect
       effect="bspline"
       id="path-effect577"
       is_visible="true"
       lpeversion="1"
       weight="33.333333"
       steps="2"
       helper_size="0"
       apply_no_weight="true"
       apply_with_weight="true"
       only_selected="false" /></defs><g
     inkscape:label="Layer 1"
     inkscape:groupmode="layer"
     id="layer1"><path
       style="fill:#000000;stroke-width:1.8441"
       d="m 200.91278,384.74537 c -15.86692,-0.92524 -32.02442,-3.70567 -44.08397,-7.5861 -12.28941,-3.95437 -16.26473,-6.28269 -18.58899,-10.88744 -2.51851,-4.98959 -5.82894,-17.45462 -7.58041,-28.54316 -0.55103,-3.4886 -1.11936,-7.06776 -1.26298,-7.95368 -0.22917,-1.41378 -0.86938,-2.00263 -5.23545,-4.81553 -26.558706,-17.11068 -47.351327,-41.02417 -63.192012,-72.67681 -12.092687,-24.16349 -18.344861,-46.8992 -20.038369,-72.8687 -0.601194,-9.21902 0.152876,-12.87711 3.630733,-17.61498 4.496482,-6.12544 18.262816,-13.31339 35.404696,-18.48621 3.527316,-1.06441 6.495648,-2.01768 6.596336,-2.11835 0.100688,-0.10069 -1.06054,-2.13963 -2.580519,-4.531 -3.061146,-4.81614 -16.449698,-26.25008 -25.088298,-40.164274 -3.066679,-4.93947 -5.905113,-9.15242 -6.307643,-9.362113 -0.402529,-0.209674 -5.232902,-2.581662 -10.734178,-5.271075 -17.1646,-8.39127 -22.87162,-13.950264 -27.248253,-26.541521 -1.628854,-4.686128 -1.732234,-5.352308 -1.756761,-11.322019 -0.02914,-7.071081 0.945174,-11.3549 3.674346,-16.156579 5.95542,-10.477903 17.84426,-17.279745 30.165911,-17.258556 8.943024,0.01475 15.553522,2.793862 22.070433,9.27651 3.749308,3.729576 4.517024,4.814882 6.915125,9.775725 1.483668,3.069205 3.598498,8.300006 4.699608,11.623973 1.101111,3.323985 3.478373,9.21866 5.282822,13.099305 l 3.280797,7.055719 10.929541,9.344889 c 10.653625,9.108992 18.442115,15.683992 42.279805,35.692426 6.39426,5.3671 12.64376,10.63661 13.88778,11.71002 8.89589,7.67583 12.76855,10.57358 13.79903,10.32519 0.59069,-0.14236 5.02608,-0.50325 9.85647,-0.80198 4.83038,-0.29874 9.44119,-0.65144 10.24627,-0.78381 3.67536,-0.60431 44.58199,-0.79151 55.13467,-0.25231 32.14387,1.64241 53.77864,3.66099 76.11512,7.10177 14.53788,2.23943 24.71406,4.5139 34.15421,7.63375 15.57335,5.14676 24.90557,11.3818 27.26188,18.2142 1.13939,3.30379 2.26118,13.30354 2.25909,20.13778 -0.006,19.99024 -7.58951,48.70436 -19.0455,72.11477 -13.73679,28.0713 -32.5629,50.8198 -57.5595,69.55194 -2.54937,1.91047 -4.78349,3.73572 -4.96473,4.05613 -0.18127,0.32041 -0.57613,2.88186 -0.87753,5.6921 -1.33319,12.4306 -2.88255,20.68548 -5.44606,29.01643 -1.81887,5.91094 -2.76442,7.81643 -4.89217,9.85882 -4.06838,3.90513 -21.84778,9.46479 -38.6182,12.07598 -17.87189,2.7827 -35.17387,3.65162 -52.54315,2.63877 z M 237.6728,373.3887 c 13.72646,-1.53248 26.63409,-4.02166 35.9347,-6.92982 9.82052,-3.07072 11.07051,-4.06153 13.14268,-10.41769 1.78203,-5.46613 4.34951,-20.45423 3.86801,-22.58005 -0.14052,-0.6201 -1.0349,-0.35289 -4.80776,1.43624 -13.81509,6.55121 -31.59837,11.15854 -50.67126,13.12801 -10.9,1.12553 -31.52117,1.14061 -42.44872,0.031 -15.57663,-1.58162 -30.28538,-4.58693 -38.81837,-7.9314 -0.88482,-0.3468 -0.91705,-0.16782 -0.63009,3.49825 0.49691,6.3484 3.1227,12.6522 6.1757,14.82612 0.7908,0.56311 2.93069,1.62417 4.7553,2.35792 4.10863,1.65223 4.47029,2.79002 0.87788,2.76183 -9.68426,-0.076 -15.39078,-7.76682 -15.44885,-20.82071 l -0.0184,-4.04394 -4.15907,-1.80721 -4.15907,-1.80724 0.33412,3.02701 c 0.18367,1.66487 0.86886,5.41333 1.52247,8.32992 2.53936,11.33144 4.44868,15.71306 7.65366,17.56407 6.6621,3.84763 25.48398,8.0954 42.32996,9.5531 3.35443,0.29028 6.97721,0.61258 8.05063,0.71625 4.55802,0.44019 30.19362,-0.18581 36.51606,-0.89169 z m 33.33748,-11.34547 c -0.66399,-0.66399 -0.25827,-1.12005 2.52433,-2.83757 3.90919,-2.41289 5.51339,-5.56327 6.92014,-13.5901 0.72329,-4.12701 0.93197,-4.71543 1.67228,-4.71543 0.95118,0 1.21567,1.64011 0.93485,5.79711 -0.5378,7.96093 -3.26865,12.79739 -8.28581,14.67455 -2.91209,1.08955 -3.28177,1.15546 -3.76579,0.67144 z m -37.40702,-24.5594 c 35.42445,-3.53688 61.13515,-15.57203 87.15678,-40.79799 23.61204,-22.89006 42.75574,-57.28938 50.69993,-91.10267 1.45169,-6.17892 1.43297,-6.15678 4.21291,-4.98376 0.56513,0.23846 1.05376,-0.0148 1.58268,-0.8228 0.87628,-1.33736 1.53352,-5.29675 1.07681,-6.48691 -0.26741,-0.69685 -0.50346,-0.63668 -1.80775,0.46082 -2.11664,1.78103 -3.00407,1.67313 -2.66008,-0.32342 0.95019,-5.51484 1.25207,-13.68503 0.53227,-14.40483 -0.10438,-0.10438 -2.04378,0.92629 -4.30995,2.29018 -13.256,7.9781 -37.22243,15.13021 -68.73246,20.51129 -29.89029,5.10448 -54.41424,6.89421 -94.34265,6.88503 -54.31047,-0.0129 -105.75992,-6.04044 -135.763932,-15.90648 -8.257941,-2.7154 -16.229771,-6.20543 -18.999162,-8.31775 l -1.614415,-1.23138 v 2.4005 c 0,2.19866 1.132405,9.88746 1.755691,11.92074 0.451933,1.47432 -2.254556,1.09953 -3.523314,-0.48791 -0.589834,-0.73799 -1.245688,-1.16989 -1.457464,-0.9598 -0.479502,0.47567 0.492079,5.23704 1.636821,8.02151 0.852397,2.07338 1.705753,2.88533 1.266305,1.20488 -0.306876,-1.17347 1.413832,-3.26859 2.379992,-2.89785 0.410441,0.15749 0.903478,1.12726 1.095652,2.15501 0.192173,1.02776 1.440738,5.49145 2.774592,9.91929 9.896163,32.85138 29.055891,64.21424 52.083554,85.25642 7.69275,7.02946 12.35924,10.66443 20.81385,16.21299 21.70525,14.24465 42.31283,20.51193 72.91661,22.17578 5.45171,0.29639 25.86109,-0.15508 31.22673,-0.69089 z M 157.48815,324.043 c -9.74797,-3.26304 -19.86109,-8.94911 -29.45886,-16.56316 -4.05025,-3.21312 -5.44036,-4.8024 -4.92706,-5.63295 0.55965,-0.9055 1.62683,-0.44317 5.00914,2.17014 4.47656,3.45877 12.36862,8.72603 18.15468,12.11666 4.05279,2.37494 15.99929,8.52286 18.05293,9.29043 0.44607,0.16671 0.25554,0.2853 -0.48791,0.30367 -0.67088,0.0166 -3.52519,-0.74157 -6.34292,-1.68479 z m 101.13813,-1.8057 c -1.25585,-1.36952 -3.06674,-5.12023 -3.06674,-6.35185 0,-0.63514 0.64739,-1.17415 2.07365,-1.72652 3.63157,-1.40643 11.69285,-5.46334 15.97931,-8.0417 11.98359,-7.2083 19.84404,-13.35869 30.05318,-23.51504 13.15771,-13.08968 22.17831,-25.66428 30.91419,-43.09403 5.31365,-10.60177 9.85803,-22.06112 12.20479,-30.7763 0.49696,-1.84558 2.19335,-3.89706 2.75668,-3.33373 1.04433,1.04432 -3.02395,15.79986 -7.17953,26.03999 -3.80186,9.36853 -3.84044,9.51604 -1.12849,4.31581 4.73759,-9.08441 9.45987,-20.96112 12.50104,-31.4406 0.51067,-1.75968 0.9028,-2.24189 2.0922,-2.57283 1.86929,-0.52013 4.07546,-0.11858 5.54041,1.00848 l 1.14915,0.88406 -0.85216,3.86251 c -1.08636,4.92413 -4.84544,16.10085 -7.53495,22.40337 -7.95648,18.6451 -18.91391,36.27751 -31.64087,50.91569 -6.5482,7.53155 -16.49005,17.29657 -17.31196,17.00404 -0.31951,-0.11378 -0.52435,-0.70069 -0.45522,-1.30437 0.10383,-0.90685 -0.48223,-0.55834 -3.37263,2.00546 -4.46705,3.96228 -11.93415,9.2927 -18.44431,13.16654 -4.12004,2.45161 -22.34227,11.64883 -23.07956,11.64883 -0.1053,0 -0.64449,-0.49402 -1.19818,-1.09781 z M 114.23382,295.32906 c -1.56962,-1.18052 -5.05181,-4.41908 -7.73818,-7.19677 -15.63605,-16.16756 -26.619715,-33.2772 -35.504041,-55.30586 -5.080635,-12.59742 -9.034896,-26.88702 -7.785889,-28.13602 0.937318,-0.93732 1.477933,0.0221 3.553908,6.30653 10.862857,32.88479 24.388131,56.01105 45.791372,78.29665 5.82559,6.06577 6.57457,7.00333 6.1472,7.69483 -0.55064,0.89095 -1.58433,0.50675 -4.46437,-1.65936 z m 103.7561,-97.57958 c 0,-0.259 -12.20771,-11.31968 -24.3959,-22.10372 -12.26125,-10.84867 -15.36186,-13.95518 -14.96385,-14.99238 0.16265,-0.42383 0.60069,-0.77059 0.97344,-0.77059 0.61187,0 5.5377,3.99793 18.92081,15.35664 7.10182,6.02755 23.50529,20.50729 24.54226,21.66405 0.81963,0.91433 1.45394,1.03598 5.3671,1.0294 2.44068,-0.004 4.73715,-0.19725 5.10324,-0.42918 0.49038,-0.31069 -0.97864,-1.81798 -5.58024,-5.72555 -3.4352,-2.91712 -16.04613,-13.64726 -28.02426,-23.84473 -11.97814,-10.19747 -25.80621,-21.94408 -30.72906,-26.10357 -4.92285,-4.15951 -10.50584,-8.89449 -12.40662,-10.52218 -1.90081,-1.62769 -8.85409,-7.55589 -15.45175,-13.17377 C 128.99635,107.61904 109.16596,90.702198 105.28098,87.368476 101.22002,83.883741 84.554271,69.473688 83.564286,68.591121 c -0.827944,-0.738118 -1.311854,-0.799324 -3.11551,-0.394065 -7.244997,1.62784 -15.266378,8.674449 -17.192482,15.103249 -0.652479,2.177787 -0.762498,1.96957 9.012454,17.056555 3.738188,5.76963 8.88971,13.78367 11.447842,17.80898 5.287138,8.31952 27.40535,42.05267 40.99343,62.52032 l 9.11414,13.72857 4.29662,0.35301 c 2.36315,0.19417 4.38971,0.25997 4.50343,0.14624 0.11378,-0.11378 -2.47194,-3.8157 -5.74593,-8.22657 -7.63771,-10.28988 -23.30269,-33.09167 -23.30269,-33.91917 0,-0.34899 0.19669,-0.7561 0.43708,-0.90466 0.96543,-0.59665 2.27372,1.00911 19.65343,24.12209 5.54851,7.37888 11.48017,14.89818 13.18148,16.70958 2.96208,3.15376 3.18987,3.29343 5.37064,3.29343 h 2.27737 l -5.29854,-5.29853 c -6.59663,-6.59663 -12.832,-15.68191 -10.76274,-15.68191 0.25458,0 2.9129,2.73891 5.90738,6.08646 5.25269,5.87201 9.64642,9.85626 14.00032,12.69554 1.1405,0.74376 2.07365,1.6425 2.07365,1.99721 0,0.8986 1.77492,1.11685 12.92979,1.5898 10.02626,0.4251 44.64447,0.71376 44.64447,0.37225 z m -50.34651,-45.24419 c -6.75906,-5.78902 -22.84137,-20.49874 -35.75797,-32.70608 -14.36769,-13.57877 -17.63455,-16.86487 -17.19908,-17.30034 0.51447,-0.51447 13.054,10.28182 44.1719,38.03113 10.34908,9.22875 15.18794,13.85098 15.00346,14.33174 -0.14974,0.39028 -0.2723,0.80142 -0.2723,0.91365 0,0.11231 -0.42519,0.20405 -0.94485,0.20405 -0.51967,0 -2.77019,-1.56337 -5.00116,-3.47415 z m -61.01834,-9.33367 c -1.18074,-1.40888 -3.57906,-4.64742 -5.3296,-7.19678 -1.75055,-2.54937 -5.013939,-7.26998 -7.251991,-10.49024 C 81.676207,107.68973 68.492018,87.037387 68.837233,86.000359 c 0.351134,-1.05475 1.595144,-0.762424 2.378443,0.558909 0.442011,0.745642 5.132325,7.613245 10.422911,15.261342 20.532073,29.68126 29.172383,42.76635 28.721303,43.49621 -0.57503,0.93044 -1.69755,0.28568 -3.73482,-2.1452 z m 165.46528,52.03581 c 37.74094,-3.79764 74.64826,-12.42503 89.59122,-20.94271 8.07693,-4.60394 11.54055,-9.99202 9.25916,-14.40373 -2.24541,-4.34215 -13.22838,-9.77434 -26.58023,-13.14659 -12.38112,-3.12709 -28.12514,-5.31227 -47.32796,-6.56884 -6.30634,-0.41267 -13.19124,-0.87834 -15.29978,-1.03485 -2.68113,-0.19901 -3.73596,-0.1265 -3.5086,0.24145 0.17888,0.2893 0.94545,0.52601 1.70365,0.52601 2.97794,0 24.86172,3.11283 41.34306,5.88081 20.17715,3.38865 35.97976,8.94689 40.41171,14.21398 1.09842,1.30539 1.2773,1.89524 1.06189,3.50124 -0.49346,3.67907 -5.58168,7.09401 -7.93509,5.32561 -3.95279,-2.97018 -13.66248,-6.49456 -24.59847,-8.92866 -30.5552,-6.80086 -67.81231,-9.05118 -100.74785,-6.08515 -9.30924,0.83835 -20.85964,2.43024 -24.13586,3.32646 l -2.17246,0.59426 18.27375,15.17535 c 10.05057,8.34644 20.68893,17.18048 23.64083,19.63119 l 5.3671,4.45584 4.87917,-0.28235 c 2.68355,-0.15528 10.23219,-0.82098 16.77476,-1.47932 z M 116.991,191.69544 c 0,-0.48765 -1.18184,-0.89817 -11.46606,-3.98273 -12.902872,-3.86999 -14.755452,-4.49025 -16.401992,-5.49158 -1.134341,-0.68984 -1.394082,-1.07806 -0.990981,-1.48116 0.403102,-0.4031 1.475223,-0.329 4.090448,0.28266 1.949303,0.45592 3.818627,0.82612 4.154087,0.82269 0.852434,-0.009 0.763788,-2.19864 -0.118575,-2.93099 -0.773931,-0.6423 -0.644641,-3.04722 0.336972,-6.26864 0.932486,-3.06015 2.609877,1.26542 1.920885,4.95343 -0.236985,1.26856 -0.256772,2.41406 -0.04407,2.54558 0.374684,0.23156 0.584136,-0.49077 1.224794,-4.22383 0.17187,-1.00133 -0.0074,-3.01564 -0.411731,-4.63522 -0.393604,-1.57537 -0.981595,-4.40125 -1.306635,-6.27974 -0.325041,-1.87847 -0.826746,-4.37458 -1.114923,-5.54688 l -0.523964,-2.13148 -2.543249,0.29891 c -5.595932,0.6577 -15.613917,4.40809 -20.605021,7.71384 -3.893037,2.57847 -4.503821,2.77815 -4.503821,1.47235 0,-1.10854 2.830948,-3.81096 6.478332,-6.1842 3.019249,-1.96454 11.39027,-5.76275 14.613734,-6.63073 3.830061,-1.03133 4.361622,-1.34676 3.847119,-2.28294 -1.532998,-2.78934 -1.335606,-2.76483 -6.896187,-0.85656 -7.115154,2.44177 -16.352477,7.04325 -19.224658,9.57658 -3.449993,3.04295 -5.16126,5.94137 -5.16126,8.74178 0,2.99435 1.396055,5.03896 5.175662,7.57998 7.934524,5.33438 30.29507,12.47583 46.299614,14.78702 1.61012,0.23252 2.98239,0.44953 3.04949,0.48225 0.0671,0.0328 0.1219,-0.116 0.1219,-0.33039 z M 98.295525,181.25966 c -0.155826,-0.38922 -0.271359,-0.27361 -0.294779,0.29479 -0.02121,0.51434 0.09423,0.80252 0.256256,0.64039 0.162096,-0.1621 0.179431,-0.58296 0.03854,-0.93518 z m -41.506923,-4.81083 c -1.271671,-1.51129 -2.738946,-5.58795 -2.738946,-7.60983 0,-1.96788 1.91067,-6.29477 3.416836,-7.73776 2.291844,-2.19573 1.711931,-2.51078 -0.855255,-0.46462 -7.852978,6.2591 -8.87848,8.72354 -5.320369,12.78568 1.489035,1.69996 5.424339,4.51343 6.31312,4.51343 0.239659,0 -0.127243,-0.6691 -0.815386,-1.4869 z M 196.89134,147.67075 c 2.20198,-0.2761 8.01465,-1.36432 12.91702,-2.41827 8.66406,-1.86267 20.90806,-3.48977 31.84555,-4.23195 4.636,-0.31458 5.068,-0.41226 3.17146,-0.71711 -1.20759,-0.19409 -6.42222,-0.36919 -11.58803,-0.38909 -5.74656,-0.0221 -9.39242,-0.22068 -9.39242,-0.51155 0,-0.26146 0.67909,-0.82656 1.5091,-1.25576 0.82999,-0.42921 1.43379,-0.83606 1.34177,-0.90408 -0.3984,-0.29449 -32.89248,0.67873 -37.98094,1.13756 -3.08608,0.27828 -5.9038,0.50953 -6.26161,0.5139 -0.35779,0.004 -0.57737,0.22494 -0.48791,0.49018 0.17297,0.51277 10.20861,8.78819 10.65752,8.78819 0.14568,0 2.06653,-0.2259 4.26849,-0.50202 z M 56.48925,74.436061 c 3.363744,-5.86611 10.920356,-12.060709 17.819309,-14.607574 1.604457,-0.592305 2.979711,-1.127979 3.056149,-1.190401 0.07635,-0.06233 -0.650358,-1.844024 -1.615116,-3.959148 C 74.784834,52.563814 73.248055,48.287647 72.334526,45.17636 69.859379,36.74653 68.04866,32.401081 65.554998,28.906553 62.78249,25.021225 60.115114,22.799512 55.729684,20.722837 52.461852,19.1754 52.126097,19.11862 46.242982,19.11862 c -6.810915,0 -9.466341,0.738395 -14.521547,4.03802 -7.103684,4.636687 -11.138292,13.931823 -9.902802,22.814636 1.029006,7.398316 4.144609,13.599628 9.208592,18.328815 3.144831,2.936928 4.84791,3.988045 13.359766,8.245347 5.365513,2.683622 9.899263,4.876936 10.075006,4.874022 0.175742,-0.0037 1.088017,-1.345435 2.027253,-2.983399 z M 50.390285,70.749287 C 46.79625,69.941443 41.337813,67.848485 39.449973,66.55439 32.078342,61.501194 27.34578,53.788018 27.795094,47.559155 l 0.151032,-2.092995 1.362751,2.775071 c 2.002413,4.077613 5.804222,9.65597 7.967238,11.690249 3.160524,2.972372 7.282192,5.26416 12.493152,6.946622 2.726811,0.880391 5.055205,1.8928 5.174187,2.249781 0.461596,1.384769 -1.886254,2.220846 -4.553132,1.621404 z m -6.984244,-7.764351 c -2.400959,-1.19645 -5.945572,-4.762178 -5.945572,-5.980997 0,-0.940748 2.231505,-0.622438 3.20908,0.457779 0.506407,0.559572 2.022495,1.804154 3.369073,2.765758 5.210849,3.721075 4.809758,5.469482 -0.632581,2.75746 z m 26.199221,-6.89471 c -1.214282,-1.463329 -4.081872,-11.012249 -3.6472,-12.145004 0.38798,-1.011063 1.600695,-0.813542 2.450031,0.399063 0.413649,0.590553 1.318327,2.77402 2.010398,4.852133 1.75121,5.258351 1.263114,9.395971 -0.813229,6.893808 z M 61.688995,36.108122 c -2.730388,-4.213061 -5.130094,-6.470255 -8.981104,-8.447717 -3.895268,-2.000182 -4.136697,-3.195434 -0.559905,-2.771808 4.563662,0.540505 9.149194,4.266873 11.458889,9.311936 2.532573,5.531849 1.254669,6.802911 -1.91788,1.907589 z"
       id="path3" /></g><metadata
     id="metadata182"><rdf:RDF><cc:Work
         rdf:about=""><cc:license
           rdf:resource="http://creativecommons.org/licenses/by-sa/4.0/" /><dc:publisher><cc:Agent><dc:title>OpenDataKerala.org</dc:title></cc:Agent></dc:publisher><dc:date>April 2026</dc:date><dc:title>Election Symbols of Kerala</dc:title><dc:creator><cc:Agent><dc:title>Manoj Karingamadathil</dc:title></cc:Agent></dc:creator></cc:Work><cc:License
         rdf:about="http://creativecommons.org/licenses/by-sa/4.0/"><cc:permits
           rdf:resource="http://creativecommons.org/ns#Reproduction" /><cc:permits
           rdf:resource="http://creativecommons.org/ns#Distribution" /><cc:requires
           rdf:resource="http://creativecommons.org/ns#Notice" /><cc:requires
           rdf:resource="http://creativecommons.org/ns#Attribution" /><cc:permits
           rdf:resource="http://creativecommons.org/ns#DerivativeWorks" /><cc:requires
           rdf:resource="http://creativecommons.org/ns#ShareAlike" /></cc:License></rdf:RDF></metadata></svg>
