<?xml version="1.0" encoding="UTF-8" standalone="no"?>
<!-- Created with Inkscape (http://www.inkscape.org/) -->

<svg
   width="1500"
   height="1500"
   viewBox="0 0 396.87499 396.875"
   version="1.1"
   id="svg5"
   xml:space="preserve"
   inkscape:version="1.3 (0e150ed6c4, 2023-07-21)"
   sodipodi:docname="Plate and Stand.svg"
   inkscape:export-filename="Pestle and Mortar.png"
   inkscape:export-xdpi="96"
   inkscape:export-ydpi="96"
   xmlns:inkscape="http://www.inkscape.org/namespaces/inkscape"
   xmlns:sodipodi="http://sodipodi.sourceforge.net/DTD/sodipodi-0.dtd"
   xmlns="http://www.w3.org/2000/svg"
   xmlns:svg="http://www.w3.org/2000/svg"
   xmlns:rdf="http://www.w3.org/1999/02/22-rdf-syntax-ns#"
   xmlns:cc="http://creativecommons.org/ns#"
   xmlns:dc="http://purl.org/dc/elements/1.1/"><title
     id="title186">Election Symbols of Kerala</title><sodipodi:namedview
     id="namedview7"
     pagecolor="#ffffff"
     bordercolor="#000000"
     borderopacity="0.25"
     inkscape:showpageshadow="2"
     inkscape:pageopacity="0.0"
     inkscape:pagecheckerboard="0"
     inkscape:deskcolor="#d1d1d1"
     inkscape:document-units="mm"
     showgrid="false"
     inkscape:zoom="0.25"
     inkscape:cx="230"
     inkscape:cy="1078"
     inkscape:window-width="1920"
     inkscape:window-height="991"
     inkscape:window-x="-9"
     inkscape:window-y="-9"
     inkscape:window-maximized="1"
     inkscape:current-layer="layer1" /><defs
     id="defs2"><inkscape:path-effect
       effect="bspline"
       id="path-effect3248"
       is_visible="true"
       lpeversion="1"
       weight="33.333333"
       steps="2"
       helper_size="0"
       apply_no_weight="true"
       apply_with_weight="true"
       only_selected="false" /><inkscape:path-effect
       effect="bspline"
       id="path-effect577"
       is_visible="true"
       lpeversion="1"
       weight="33.333333"
       steps="2"
       helper_size="0"
       apply_no_weight="true"
       apply_with_weight="true"
       only_selected="false" /></defs><g
     inkscape:label="Layer 1"
     inkscape:groupmode="layer"
     id="layer1"><path
       style="fill:#000000;stroke-width:1.66707"
       d="m 298.96028,331.77834 c -12.73612,-5.20831 -23.50393,-9.58034 -23.92846,-9.71561 -0.69932,-0.2228 -0.77212,0.16121 -0.77436,4.0843 -10e-4,2.38164 -0.21066,5.07998 -0.46514,5.99633 -0.64701,2.3299 -2.65047,4.43772 -5.37347,5.65337 -1.96941,0.87923 -3.05005,1.03719 -7.17072,1.04814 -5.61369,0.015 -8.61593,-0.79641 -11.13643,-3.00944 -2.94752,-2.58795 -3.17801,-3.66781 -3.18891,-14.94028 l -0.01,-10.0232 -1.43162,-0.74032 c -0.78739,-0.40717 -5.99762,-2.57477 -11.57829,-4.81689 -5.58067,-2.2421 -13.42166,-5.40773 -17.42446,-7.0347 -11.3613,-4.61796 -49.59327,-20.00939 -54.25255,-21.841 -2.30464,-0.90598 -6.47282,-2.58583 -9.26264,-3.73302 -2.78981,-1.14718 -12.11861,-4.92468 -20.73066,-8.39445 -8.61204,-3.46978 -19.82645,-7.99329 -24.9209,-10.05229 -5.09444,-2.05899 -15.415654,-6.2293 -22.936038,-9.26737 -7.520384,-3.03806 -15.781495,-6.40011 -18.358045,-7.47123 l -4.684622,-1.9475 -0.216668,3.79987 c -0.323011,5.66524 -1.883318,8.0107 -6.51341,9.79105 -3.107294,1.1948 -9.249264,1.31691 -12.803098,0.25454 -2.897594,-0.86617 -6.008055,-3.37141 -6.936027,-5.58639 -0.487034,-1.16252 -0.752197,-4.54022 -1.020645,-13.00144 -0.439088,-13.83907 -0.363103,-14.14597 4.063406,-16.41478 l 1.608385,-0.82438 -3.26103,-4.1109 C 15.896544,183.818 12.996866,142.37039 28.589349,99.925581 34.931268,82.662031 43.635968,67.14595 53.408391,55.685789 c 10.46754,-12.27531 20.787511,-20.614323 32.196459,-26.0162 8.964546,-4.2445 15.57899,-5.885293 25.23544,-6.259932 5.67627,-0.22022 7.3243,-0.120862 11.60094,0.699918 7.43772,1.427358 13.97937,3.989971 18.62316,7.29543 1.74755,1.243897 2.45911,1.453564 5.73401,1.689571 7.00566,0.504854 15.65863,3.730743 22.35253,8.333178 6.38441,4.389673 12.7262,11.595015 16.23724,18.448272 1.18385,2.31082 2.03575,3.281669 4.39122,5.004382 10.07294,7.367063 19.58189,24.042339 23.33385,40.919242 2.37145,10.66714 2.70637,14.20729 2.66564,28.17745 -0.0402,13.78865 -0.38316,17.62445 -2.63708,29.49276 -0.61575,3.24231 -1.02405,5.9906 -0.90732,6.10734 0.1167,0.1167 1.12009,-0.41238 2.22965,-1.17578 2.54621,-1.75183 5.46403,-3.08557 6.77777,-3.09811 1.73729,-0.0167 3.64903,1.28645 4.39684,2.99689 0.56419,1.29041 0.68875,2.92952 0.60531,7.96558 -0.084,5.06874 0.01,6.29647 0.47103,6.11975 0.31684,-0.12153 3.17059,-1.91153 6.34167,-3.97767 7.83308,-5.1037 9.19914,-5.76507 11.32003,-5.4806 3.84908,0.51627 4.7414,2.60489 4.7414,11.09801 0,3.6953 0.17516,6.4098 0.4136,6.4098 0.22749,0 3.44444,-2.017 7.14878,-4.48222 3.70433,-2.46521 7.47409,-4.77248 8.37723,-5.12725 3.15246,-1.23831 6.21471,0.35187 7.37749,3.831 0.2872,0.85933 0.50108,4.38955 0.50108,8.27022 0,3.72397 0.11703,6.77088 0.26,6.77088 0.14303,0 3.73799,-2.30066 7.98888,-5.11259 8.47334,-5.60504 9.58264,-6.14237 11.90338,-5.76576 2.00095,0.32471 3.13005,1.33787 4.22866,3.79439 0.80837,1.80752 0.85143,2.53222 0.55991,9.42221 -0.1737,4.10525 -0.14654,7.39228 0.0603,7.30451 0.2069,-0.0879 2.35757,-1.50092 4.77926,-3.14032 10.97693,-7.43097 12.57191,-8.37638 14.45406,-8.5675 2.40536,-0.24424 4.34209,0.93866 5.69977,3.48125 0.95364,1.78593 1.00489,2.31804 0.91507,9.50048 -0.0523,4.18473 0.0757,7.6086 0.28445,7.6086 0.20878,0 1.83949,-1.04536 3.62378,-2.32304 9.84326,-7.0484 13.52049,-9.26593 15.71507,-9.4768 2.60304,-0.25013 4.40709,0.55883 6.05008,2.71292 1.9587,2.56798 2.21748,5.49656 1.57276,17.79831 -0.91925,17.53996 -1.12682,36.87338 -0.40211,37.4563 0.52731,0.42417 8.54996,3.45253 21.53237,8.12798 5.12978,1.84742 6.19186,3.0504 6.19186,7.01319 0,2.09202 -0.22157,2.82093 -1.31733,4.33358 -1.34692,1.85937 -4.11637,3.60678 -5.71638,3.60678 -0.49157,0 -5.56929,-1.68713 -11.28382,-3.74917 -5.71452,-2.06204 -10.58009,-3.74916 -10.81236,-3.74916 -0.23229,0 -0.42343,1.33977 -0.42478,2.97728 -0.007,7.40614 -2.60551,10.35739 -10.20036,11.58115 -6.45911,1.04077 -13.12194,-1.25586 -15.35086,-5.29131 -1.04478,-1.89159 -1.07107,-2.17282 -0.97073,-10.38552 0.0793,-6.49983 -0.0287,-8.54323 -0.46991,-8.88456 -1.20463,-0.93183 -20.23923,-7.74896 -20.60769,-7.3805 -0.12786,0.12786 -0.23744,12.08039 -0.24366,26.5613 l -0.0117,26.32892 14.37881,5.73401 c 7.90835,3.15371 14.71954,6.01729 15.13599,6.36351 2.08257,1.73135 2.84145,6.44354 1.46304,9.08454 -0.76357,1.46295 -2.68478,3.37152 -4.15336,4.12602 -0.5299,0.27223 -2.01854,0.48695 -3.3081,0.47713 -2.01915,-0.015 -5.55949,-1.33252 -25.50124,-9.48749 z m 29.00086,4.7865 c 1.19633,-0.8847 1.43351,-1.34826 1.43351,-2.80194 0,-1.97212 -0.0182,-1.98326 -1.75944,-1.08276 -1.62195,0.83874 -2.65133,2.30489 -2.65133,3.77631 0,2.03197 0.35841,2.045 2.97726,0.10836 z m -5.17586,-2.43907 c -0.1387,-0.17666 -4.51404,-2.03212 -9.72296,-4.12325 -5.2089,-2.09114 -12.94421,-5.24953 -17.18958,-7.01865 -24.42448,-10.17814 -42.88357,-17.67325 -103.43275,-41.9977 -45.20012,-18.15828 -65.49201,-26.40051 -70.35191,-28.5758 -2.30462,-1.03154 -7.24637,-3.00657 -10.98164,-4.38893 -7.70728,-2.85233 -15.597085,-5.99504 -36.434208,-14.51264 -14.534179,-5.94114 -14.555785,-5.94824 -14.700286,-4.83056 -0.324678,2.51145 0.09119,2.9068 5.087602,4.83718 2.618443,1.01164 11.410065,4.54594 19.536927,7.85399 8.126863,3.30806 20.855355,8.4748 28.285555,11.48164 7.43019,3.00683 24.99612,10.12114 39.03538,15.80953 14.03927,5.68841 31.282,12.6674 38.3172,15.50886 7.03519,2.84149 21.02839,8.50039 31.09598,12.57537 10.0676,4.07497 29.32066,11.86724 42.78455,17.31616 13.46389,5.44892 28.94573,11.74279 34.40407,13.98636 13.33684,5.48193 21.11675,8.61058 22.7155,9.13494 1.28456,0.4213 1.33024,0.38768 1.56303,-1.15066 0.13186,-0.87156 0.12619,-1.72918 -0.0117,-1.90584 z m -56.38978,0.54217 c 3.58681,-1.02698 4.25867,-2.64976 4.30951,-10.40905 l 0.0263,-4.01297 -1.65404,-0.71261 c -0.90972,-0.39193 -5.22677,-2.12436 -9.59345,-3.84984 -4.36666,-1.72549 -8.18749,-3.24256 -8.49073,-3.37129 -0.88565,-0.37592 -0.77759,17.11395 0.11736,18.99997 1.64976,3.4766 9.12842,5.11852 15.28503,3.35579 z m -4.81657,-12.36398 c -0.8929,-0.35924 -1.34409,-1.69332 -0.76764,-2.26978 0.48899,-0.48898 4.41039,0.85527 4.54914,1.55942 0.0939,0.47639 -0.15753,0.72373 -0.73581,0.72373 -0.48313,0 -1.14275,0.0868 -1.46583,0.19296 -0.32309,0.10619 -1.03401,0.0133 -1.57986,-0.20633 z m 64.17683,8.72664 c 1.03101,-0.5461 1.87458,-1.11679 1.87458,-1.26821 0,-0.29542 -9.0544,-4.01241 -22.93606,-9.41567 -4.73054,-1.84132 -9.9904,-3.93127 -11.68854,-4.64434 -1.69816,-0.71307 -4.77468,-1.90252 -6.83672,-2.64324 -2.06203,-0.74069 -5.13855,-1.93094 -6.83671,-2.64499 -1.69814,-0.71406 -10.41371,-4.20166 -19.3679,-7.75023 -8.9542,-3.54856 -16.8936,-6.72497 -17.64311,-7.05869 -1.14292,-0.50887 -19.45444,-7.76537 -33.34088,-13.21234 -2.06204,-0.80885 -8.11584,-3.19157 -13.45287,-5.29495 -5.33705,-2.10339 -12.48251,-4.90651 -15.8788,-6.22918 -3.39632,-1.32267 -6.8698,-2.68323 -7.71887,-3.02346 -2.82856,-1.1334 -20.906,-8.16305 -24.03874,-9.34778 -1.69815,-0.64219 -5.19374,-2.01217 -7.76796,-3.04438 -6.91925,-2.77448 -10.90539,-4.04671 -13.62431,-4.34841 -2.25027,-0.24968 -2.34609,-0.22402 -1.32323,0.35433 0.60648,0.34294 3.4845,1.54897 6.39561,2.68006 2.91112,1.13111 6.38461,2.52717 7.71887,3.10236 1.33427,0.57521 7.68579,3.13864 14.11449,5.6965 6.42871,2.55788 14.36811,5.75683 17.64311,7.10877 3.275,1.35195 8.43562,3.42965 11.46803,4.6171 5.56527,2.17932 14.39003,5.72879 40.57915,16.32169 7.88427,3.18902 23.96155,9.67279 35.7273,14.40839 11.76575,4.73561 23.87333,9.67646 26.90574,10.97968 3.03241,1.30322 12.16273,5.05897 20.28958,8.34611 8.12686,3.28715 15.37156,6.26198 16.09935,6.61077 1.71758,0.82311 1.48199,0.84253 3.63889,-0.29989 z m -28.41294,-23.82019 c 0.15387,-3.94213 0.29461,-11.63342 0.3129,-17.09176 0.0183,-5.45834 0.19578,-16.27578 0.39441,-24.03874 0.49613,-19.38997 0.85887,-20.4272 9.39221,-26.85676 2.73396,-2.05991 7.10004,-5.39471 9.70243,-7.41062 26.23686,-20.32424 25.95836,-20.14429 27.51027,-17.77578 0.66229,1.0108 0.68201,2.43479 0.22758,16.43015 -0.27365,8.42789 -0.49613,19.11241 -0.49443,23.74337 l 0.003,8.41995 1.05039,0.4786 c 0.98538,0.44896 1.06697,0.37827 1.31838,-1.14217 0.14737,-0.89142 0.27098,-5.78894 0.27465,-10.88339 0.003,-5.09444 0.2255,-12.04142 0.49302,-15.43772 0.26751,-3.39629 0.5148,-9.84707 0.54954,-14.33503 0.0545,-7.03603 -0.0437,-8.35558 -0.71327,-9.58036 -0.83765,-1.5324 -1.9738,-2.32874 -3.32241,-2.32874 -1.60595,0 -12.47465,7.3834 -25.64679,17.42257 -20.08534,15.30807 -20.67973,15.8567 -22.0757,20.37631 -1.06956,3.46283 -1.24573,6.40957 -1.53744,25.71633 -0.12653,8.36945 -0.35946,20.80243 -0.5178,27.62883 l -0.28792,12.41165 1.2792,0.69275 c 0.70357,0.38103 1.39821,0.7007 1.54362,0.71042 0.14537,0.01 0.39026,-3.20773 0.54407,-7.14986 z m -6.10382,-7.49833 c 0.52349,-17.9778 0.91173,-38.82791 0.74194,-39.84647 -0.12703,-0.76225 -1.57519,-1.43291 -8.38594,-3.88373 -4.52782,-1.62931 -8.53011,-3.00105 -8.894,-3.04833 -0.58042,-0.0753 -0.67559,3.07789 -0.77548,25.69143 -0.0643,14.56206 0.0562,25.94747 0.277,26.16827 0.52451,0.52451 15.08304,6.40357 15.98696,6.45589 0.6307,0.0365 0.75101,-1.28607 1.04952,-11.53706 z m -20.49071,-15.43771 c 0.0252,-28.94165 0.36529,-42.81558 1.13232,-46.19306 1.05769,-4.65716 2.22358,-6.16221 7.79105,-10.05729 2.72447,-1.90607 9.41951,-6.61388 14.87785,-10.46181 15.78719,-11.12936 20.13572,-13.89481 21.84873,-13.89481 1.70295,0 2.58593,1.05351 1.92229,2.29354 -0.2276,0.42527 -0.35949,4.42839 -0.2934,8.9056 l 0.12003,8.13306 1.14517,-0.98564 c 1.12195,-0.96561 1.15108,-1.13437 1.43509,-8.31375 0.31369,-7.92947 -0.0752,-11.18955 -1.48697,-12.46724 -0.54526,-0.49347 -1.20904,-0.66436 -1.90349,-0.49005 -1.96544,0.49329 -29.24113,19.09849 -40.65113,27.72881 -2.648,2.00289 -3.33317,2.82237 -4.8129,5.75649 l -1.72537,3.42112 -0.32803,8.04019 c -0.18042,4.42211 -0.35541,19.30422 -0.38889,33.07137 -0.0542,22.29487 0.0133,25.03116 0.61988,25.03116 0.60311,0 0.6827,-2.22618 0.69775,-19.51769 z m -4.27811,-8.3536 c 0.23314,-20.34275 0.17953,-25.73921 -0.25856,-26.01938 -0.30399,-0.19441 -1.34665,-0.64797 -2.31702,-1.00792 -9.98619,-3.70422 -14.04575,-5.08327 -14.27875,-4.85053 -0.15221,0.15203 -0.33937,11.53129 -0.4158,25.28715 -0.1317,23.70566 -0.0972,25.0476 0.66161,25.71911 0.44034,0.38968 3.67864,1.8272 7.19624,3.19451 3.51759,1.36732 6.79259,2.66539 7.27777,2.88465 0.48518,0.21923 1.09775,0.41204 1.36126,0.42846 0.33645,0.021 0.56669,-7.61227 0.77325,-25.63605 z m -19.86124,-38.29038 c 0.36694,-14.13017 0.31826,-14.05934 17.94727,-26.11319 1.81945,-1.24405 7.16501,-4.94478 11.87903,-8.22387 4.71401,-3.27907 9.66446,-6.62045 11.001,-7.42526 4.00282,-2.41038 6.2869,-1.78044 5.38045,1.48389 -0.25721,0.92627 -0.46876,4.82377 -0.47011,8.66114 l -0.002,6.977 1.34851,-0.96021 1.34849,-0.96023 -0.13554,-8.81333 c -0.13436,-8.73926 -0.14453,-8.82064 -1.21292,-9.6849 -0.59256,-0.47938 -1.42967,-0.77945 -1.86028,-0.66686 -1.122,0.29342 -8.04621,4.72875 -20.33523,13.0258 -18.57737,12.54271 -22.30961,15.41791 -23.80172,18.33613 -2.07653,4.06124 -2.10065,4.44664 -2.37999,38.03459 -0.1462,17.57547 -0.0947,32.09423 0.1152,32.41922 0.21682,0.33595 0.50574,-9.82375 0.67316,-23.6707 0.16137,-13.34261 0.38868,-27.93125 0.50522,-32.41922 z m -4.38461,53.26015 c 0.1462,-0.54583 0.26866,-11.83519 0.27198,-25.08743 0.005,-18.74397 -0.11636,-24.19659 -0.54533,-24.55246 -1.01549,-0.84255 -16.23219,-6.39118 -16.57825,-6.04511 -0.1217,0.12169 -0.30568,11.18719 -0.40878,24.58994 -0.15721,20.44046 -0.0877,24.5001 0.43128,25.18421 0.54868,0.72322 14.79766,6.82787 16.06323,6.88191 0.27495,0.0117 0.61958,-0.42523 0.76587,-0.97106 z m 99.83655,-1.13541 c 1.02291,-0.52942 2.07343,-1.36171 2.33449,-1.84949 0.26107,-0.4878 0.59338,-2.83561 0.73848,-5.21737 l 0.26383,-4.33047 -3.25993,-1.22636 c -1.79296,-0.67447 -5.44624,-1.96877 -8.11839,-2.8762 -2.67218,-0.90742 -5.51903,-1.99143 -6.32635,-2.40891 -0.80735,-0.4175 -1.53967,-0.6873 -1.62739,-0.59956 -0.0877,0.0877 -0.19193,3.57607 -0.23154,7.75187 -0.0717,7.55229 -0.066,7.60032 1.07779,9.09983 1.03088,1.35156 2.07716,1.91141 4.90871,2.62658 0.48518,0.12253 2.56928,0.17104 4.63131,0.10769 2.82751,-0.0869 4.20637,-0.3517 5.60899,-1.07767 z M 222.30221,251.74488 c 0.13486,-31.96003 0.13553,-31.97952 1.12438,-34.42677 0.54418,-1.34676 1.6424,-3.08154 2.44049,-3.85508 2.83009,-2.74304 33.82926,-24.5808 37.89771,-26.69752 2.41646,-1.25724 2.56133,-1.28009 3.63888,-0.57404 1.1532,0.7556 1.46114,1.77669 0.68117,2.25874 -0.49102,0.30346 -0.63304,14.77611 -0.14504,14.77611 0.16287,0 0.65906,-0.32848 1.1027,-0.72998 0.72424,-0.65542 0.80661,-1.53675 0.80661,-8.63002 0,-4.54118 -0.19183,-8.25847 -0.45119,-8.74307 -0.88185,-1.64775 -1.90351,-1.78708 -4.18767,-0.57114 -6.12207,3.25903 -16.3324,10.12834 -33.95545,22.84452 -9.45284,6.82087 -9.91826,7.83563 -10.05944,21.933 -0.2013,20.10036 0.1532,55.21332 0.55352,54.81241 0.25346,-0.2539 0.47151,-13.02045 0.55329,-32.39716 z m 151.59464,30.91902 c 0.96245,-0.89905 1.3699,-1.68619 1.3699,-2.64647 0,-1.61858 -0.1107,-1.64291 -2.04307,-0.44867 -1.27774,0.78969 -1.48556,1.15991 -1.48556,2.64647 0,0.95057 0.17749,1.72833 0.39443,1.72833 0.21693,0 1.01087,-0.57584 1.7643,-1.27966 z m -4.5455,-0.26313 c 0.41306,-1.64573 0.0388,-2.14723 -2.08247,-2.79093 -1.05952,-0.3215 -6.88851,-2.43812 -12.95333,-4.7036 -6.06482,-2.26546 -14.30196,-5.31402 -18.30473,-6.77455 -4.00278,-1.46053 -13.29615,-4.85188 -20.65193,-7.53632 -7.3558,-2.68443 -13.57043,-4.88079 -13.81031,-4.88079 -0.23989,0 -0.37456,0.73194 -0.29927,1.62652 l 0.13687,1.62653 11.9091,4.37818 c 6.55,2.40799 15.97804,5.82941 20.9512,7.60314 4.97314,1.77374 11.82088,4.2453 15.21717,5.49234 3.3963,1.24705 7.76298,2.84053 9.70371,3.54107 1.94075,0.70052 4.71955,1.77074 6.17509,2.37825 3.32924,1.38955 3.66933,1.39295 4.00886,0.0402 z m -151.37603,-0.91922 c 0.34462,-0.89808 0.34035,-46.8435 -0.005,-48.12951 -0.18774,-0.70016 -1.13769,-1.3279 -3.41233,-2.25492 -5.68476,-2.31677 -12.65143,-4.62461 -12.97738,-4.29899 -0.17576,0.17559 -0.37705,11.29437 -0.44732,24.70839 l -0.1277,24.38914 7.62606,3.10241 c 4.19434,1.70633 7.95217,3.12013 8.35077,3.14179 0.39858,0.0217 0.84517,-0.27457 0.99242,-0.65831 z m 153.99886,-3.98435 c 1.87328,-1.22741 2.69011,-0.80548 -12.3657,-6.38762 -5.33704,-1.97877 -10.5969,-3.88644 -11.68856,-4.23926 -1.09166,-0.35282 -3.77122,-1.30425 -5.95456,-2.11427 -9.23616,-3.42671 -19.2064,-7.04867 -22.49495,-8.17193 -1.94075,-0.66287 -6.53844,-2.27099 -10.2171,-3.57359 -3.67865,-1.30259 -6.78866,-2.26869 -6.91112,-2.14691 -0.12253,0.12186 -0.34477,0.71726 -0.494,1.32323 -0.26438,1.07349 -0.0698,1.17397 7.57273,3.90999 4.31425,1.5445 9.82893,3.5663 12.25486,4.49288 2.42593,0.92657 10.66306,3.96346 18.30474,6.74863 7.64168,2.78515 17.36744,6.35907 21.6128,7.94202 4.24539,1.58296 8.0732,2.88959 8.50627,2.90364 0.43307,0.0133 1.27664,-0.29502 1.87459,-0.68681 z M 198.84186,213.42022 c 0.93564,-5.47032 2.29913,-7.22393 9.36887,-12.04942 1.8813,-1.28409 7.33965,-5.10097 12.12964,-8.48193 12.96984,-9.1546 19.33008,-13.35114 21.14036,-13.9486 1.48563,-0.49029 1.68807,-0.45274 2.41778,0.4484 0.59159,0.7306 0.68462,1.19239 0.36172,1.79572 -0.50292,0.93971 -0.59931,12.78628 -0.10386,12.76527 0.18195,-0.008 0.67166,-0.27295 1.08826,-0.58941 0.6573,-0.49932 0.76567,-1.53912 0.81975,-7.86493 0.0405,-4.74265 -0.11403,-7.61887 -0.44216,-8.23214 -0.7853,-1.46738 -2.76169,-1.18917 -6.35102,0.89403 -3.54064,2.05495 -13.76371,8.95453 -18.02428,12.16467 -1.5315,1.15392 -6.15827,4.38061 -10.28169,7.17043 -9.53829,6.45339 -11.19312,8.06283 -12.47179,12.12964 -0.94964,3.02037 -0.97647,3.7565 -1.23278,33.83605 -0.14403,16.91168 -0.0968,31.0041 0.10519,31.31651 0.20194,0.31243 0.50821,-12.73046 0.68062,-28.98419 0.18914,-17.83077 0.50465,-30.66987 0.79545,-32.3701 z m -4.70448,56.51912 c 0.15471,-1.63751 0.2826,-12.52987 0.28434,-24.20528 0.003,-17.45118 -0.10453,-21.31732 -0.60188,-21.73009 -0.33275,-0.27616 -2.01382,-0.98128 -3.73573,-1.56694 l -3.13071,-1.06482 -2.18448,2.72589 c -1.20145,1.49924 -3.29159,3.81077 -4.64474,5.13674 l -2.46029,2.41086 v 17.49829 17.49828 l 2.75674,1.15462 c 5.39964,2.26158 12.46819,5.03254 12.94802,5.07578 0.28752,0.0258 0.60291,-1.17753 0.76873,-2.93333 z M 174.60544,247.6649 c 0.0167,-10.00694 0.11753,-23.35505 0.22567,-29.66248 0.30105,-17.56441 0.51782,-18.12972 9.19347,-23.97534 9.0045,-6.06719 22.43118,-15.17495 28.44409,-19.29457 4.72061,-3.23423 5.69093,-3.73155 7.05726,-3.61705 l 1.58413,0.13269 0.22053,7.4081 c 0.2048,6.8796 0.27395,7.36731 0.9692,6.8367 0.64164,-0.4897 0.76552,-1.61165 0.86661,-7.84916 0.12203,-7.53001 -0.19201,-9.26264 -1.67895,-9.26264 -0.87316,0 -8.46423,4.70141 -17.35889,10.75095 -3.76019,2.55743 -9.81399,6.64067 -13.45287,9.07389 -14.00564,9.36512 -14.66848,9.93871 -15.94924,13.80113 -0.6963,2.09991 -0.78504,5.26293 -0.92815,33.08706 -0.11053,21.50121 -0.0173,30.76516 0.3099,30.76516 0.3221,0 0.47722,-5.67589 0.49724,-18.19445 z m -3.99879,3.41836 c 0,-6.91389 -0.081,-12.57071 -0.17993,-12.57071 -0.099,0 -2.04065,1.24053 -4.31486,2.75672 -2.27422,1.51622 -5.97053,3.64693 -8.21404,4.73492 l -4.07909,1.97817 0.12369,4.78592 0.1237,4.78591 6.50087,2.57038 c 7.9084,3.12692 8.78632,3.45026 9.48821,3.49459 0.42899,0.0272 0.55135,-2.75481 0.55135,-12.5359 z m 170.44536,8.93184 c 0.11336,-0.54585 0.32102,-8.63411 0.46142,-17.97392 0.14037,-9.33984 0.37363,-18.30947 0.51828,-19.93253 0.1447,-1.62307 0.13386,-3.46554 -0.024,-4.09441 l -0.28698,-1.14337 -2.37996,1.88901 c -1.30898,1.03895 -5.45162,4.24994 -9.20585,7.13551 l -6.8259,5.24651 -0.29879,7.54476 c -0.16437,4.14961 -0.23411,9.42575 -0.15504,11.72475 l 0.1437,4.18002 8.60103,3.17209 c 4.73055,1.74465 8.74609,3.18828 8.92342,3.20804 0.17733,0.0198 0.41517,-0.41063 0.52854,-0.95646 z M 150.86094,228.47803 c 0.12603,-25.38518 0.21463,-28.34194 0.91185,-30.41492 1.551,-4.6115 3.02067,-5.89983 20.15709,-17.66991 3.76019,-2.58267 9.81398,-6.87312 13.45287,-9.53434 8.47365,-6.19697 10.27951,-7.32955 11.6867,-7.32955 2.04617,0 2.20725,0.56973 2.20725,7.80708 0,3.71168 0.15887,6.74849 0.35286,6.74849 1.18387,0 1.41146,-1.32994 1.41146,-8.24815 0,-6.69067 -0.0635,-7.25315 -0.91627,-8.10584 -0.50394,-0.50393 -1.19851,-0.80794 -1.54349,-0.67556 -0.64389,0.24709 -20.63384,13.63182 -24.07333,16.11885 -1.05403,0.76216 -5.48916,3.88648 -9.85584,6.94293 -10.98753,7.69074 -11.03556,7.73267 -12.58646,10.98228 -1.12024,2.34724 -1.42555,3.69623 -1.76493,7.79823 -0.55383,6.69412 -0.5556,53.69911 -0.002,53.69911 0.26368,0 0.47521,-10.57899 0.56225,-28.1187 z m 141.48317,25.50644 c 0,-1.61019 -0.11469,-1.76713 -1.65405,-2.26439 -0.90971,-0.29386 -4.78731,-1.69864 -8.61687,-3.12175 -3.82955,-1.42311 -7.26541,-2.58745 -7.63522,-2.58745 -0.50725,0 -0.63877,0.40619 -0.53547,1.65402 l 0.13686,1.65405 6.39563,2.25129 c 3.5176,1.2382 7.38806,2.66639 8.60103,3.17376 3.09466,1.29444 3.30807,1.24545 3.30807,-0.75953 z m -145.55566,-1.62516 c 0,-1.55965 -0.14337,-1.977 -0.61695,-1.79529 -0.33932,0.13019 -1.83402,0.47618 -3.32156,0.76883 -1.48754,0.29265 -2.59953,0.63719 -2.4711,0.76562 0.43244,0.43245 4.85853,2.19387 5.63772,2.2436 0.63055,0.0402 0.77189,-0.32278 0.77189,-1.98276 z m 173.03682,-8.20276 c 0.15054,-5.38654 0.22859,-9.83887 0.1734,-9.89409 -0.0552,-0.0552 -0.54694,0.23649 -1.09275,0.64819 -0.94879,0.71567 -1.00469,1.11687 -1.27287,9.13447 -0.2534,7.57605 -0.20713,8.45928 0.47913,9.14552 0.41778,0.4178 0.91255,0.75962 1.09948,0.75962 0.18693,0 0.46306,-4.40717 0.61361,-9.79371 z m -4.98619,0.53109 c 0,-3.6389 -0.094,-6.61617 -0.2088,-6.61617 -0.63133,0 -10.23043,7.68641 -10.68676,8.55735 -0.53408,1.01931 -0.46578,1.06304 4.40466,2.82056 2.72091,0.98185 5.29448,1.80077 5.71902,1.8198 0.70236,0.0315 0.77188,-0.5613 0.77188,-6.58154 z m -22.12093,3.97242 c 0.38191,-1.09558 0.33291,-1.38787 -0.28767,-1.71601 -1.65741,-0.87641 -16.94714,-6.20845 -17.83975,-6.22134 -0.18195,-0.003 -0.33082,0.58801 -0.33082,1.31253 0,1.4451 0.44001,1.71354 6.1751,3.76762 1.57686,0.56477 4.75262,1.72588 7.05724,2.58025 2.30463,0.85439 4.3197,1.56332 4.4779,1.57544 0.15821,0.0117 0.49481,-0.57222 0.748,-1.29849 z m -150.11994,-1.32975 c 0.97036,-0.26573 2.31014,-0.69538 2.97726,-0.9548 l 1.21298,-0.47166 v -10.3682 -10.36818 l -1.65405,0.26228 c -4.39167,0.69638 -6.77744,0.78109 -9.84953,0.34967 -1.83899,-0.25825 -3.67498,-0.5967 -4.07996,-0.7521 -0.67607,-0.25945 -0.73634,0.65387 -0.73634,11.15914 0,6.29292 0.14887,11.59756 0.3308,11.78807 0.44277,0.46358 9.57396,-0.035 11.79884,-0.64422 z m -7.71887,-3.08376 c 0,-0.24259 0.29773,-0.44107 0.66161,-0.44107 0.36391,0 0.66163,0.19848 0.66163,0.44107 0,0.24259 -0.29772,0.44109 -0.66163,0.44109 -0.36388,0 -0.66161,-0.1985 -0.66161,-0.44109 z M 127.40227,219.877 c 0.0117,-15.34399 0.0909,-28.90032 0.17596,-30.12516 0.22887,-3.29492 2.37302,-7.66614 4.70434,-9.59058 1.73365,-1.43109 11.21307,-7.64925 29.28198,-19.20792 6.86634,-4.3924 10.33021,-6.24558 11.67389,-6.24558 0.49326,0 1.30645,0.40962 1.80709,0.91025 0.86164,0.86166 0.90286,1.321 0.77188,8.60159 -0.076,4.23022 -0.0392,7.68803 0.0822,7.68399 0.12136,-0.003 0.51826,-0.19534 0.88216,-0.42518 0.54126,-0.34187 0.6893,-1.95193 0.81379,-8.85202 0.14904,-8.26278 0.13187,-8.45581 -0.84877,-9.49962 -1.35742,-1.44493 -2.1722,-1.34978 -5.37903,0.6282 -1.51026,0.93152 -6.81488,4.0405 -11.78803,6.90883 -11.04052,6.36778 -27.57661,16.90237 -29.19775,18.60091 -1.86515,1.95419 -2.95936,4.97158 -3.43276,9.46603 -0.58774,5.58001 -0.59611,59.04444 -0.008,59.04444 0.28917,0 0.44839,-9.60762 0.46232,-27.89818 z m -4.09453,14.43621 0.11703,-12.34752 -2.40429,-1.43808 c -7.75231,-4.63685 -15.51428,-15.22258 -19.39213,-26.44683 -8.14203,-23.5667 -3.950543,-55.25319 10.55419,-79.78691 5.35077,-9.05045 15.23143,-19.990651 22.43834,-24.844497 13.41098,-9.032296 26.79854,-10.561679 38.61932,-4.411839 12.52468,6.51606 21.466,22.058986 24.06792,41.837876 0.71421,5.42914 0.83195,19.31324 0.20424,24.08319 -1.02688,7.8032 -1.03894,7.33395 0.18034,7.02795 1.66311,-0.41742 4.09776,0.58909 5.21553,2.15616 0.91437,1.28191 1.01266,1.97633 1.14961,8.12258 0.13637,6.11747 0.2155,6.68241 0.88214,6.29281 2.12855,-1.24392 2.35233,-1.74004 3.8138,-8.45486 2.77013,-12.72758 3.74375,-22.24048 3.5363,-34.55207 -0.28082,-16.66476 -3.57332,-31.704491 -9.58413,-43.778898 C 199.53259,81.397679 196.90144,77.527886 192.65361,72.987715 183.20815,62.892181 174.04177,58.483959 161.11152,57.818767 143.09293,56.891812 125.90365,66.523668 109.60888,86.677793 90.861425,109.86554 79.483668,143.13192 79.779222,173.894 c 0.122196,12.71122 1.708409,22.76659 5.288166,33.52137 3.639705,10.9349 8.710869,19.44956 16.201492,27.20281 6.23229,6.45083 11.41342,9.72581 18.39334,11.62643 3.79309,1.03285 3.51414,1.94582 3.64559,-11.9314 z m -69.036959,10.91043 c 1.1117,-0.49175 2.236736,-1.2967 2.500065,-1.78875 0.508939,-0.95096 0.58169,-11.23419 0.09552,-13.50013 -0.268181,-1.24995 -0.439655,-1.33155 -4.453766,-2.11989 -3.99674,-0.78494 -9.066337,-2.70333 -13.190958,-4.99165 l -1.928712,-1.07002 0.311641,9.79633 c 0.332063,10.43808 0.56757,11.58476 2.661138,12.9565 3.234724,2.11948 10.046855,2.46853 14.005103,0.71761 z m 212.407169,-0.42574 -0.13687,-1.65404 -7.27779,-2.72477 c -4.00277,-1.49863 -7.82361,-2.85992 -8.49073,-3.02509 -1.1677,-0.28911 -1.21298,-0.23593 -1.21298,1.42499 v 1.72531 l 2.97728,0.99487 c 1.63751,0.54718 5.3591,1.85741 8.2702,2.91165 2.91111,1.05423 5.45379,1.93576 5.65037,1.95895 0.1966,0.0232 0.29584,-0.70215 0.22054,-1.61187 z m 26.61157,-1.1027 c 0.0348,-0.0607 0.18366,-4.8296 0.33081,-10.59767 0.23419,-9.17974 0.18506,-10.47165 -0.39406,-10.36111 -0.47083,0.0898 -0.74214,0.95184 -0.94087,2.9891 -0.38334,3.92979 -0.45034,17.42389 -0.0884,17.78591 0.28789,0.2879 0.96715,0.40218 1.09243,0.18377 z m -188.40347,-0.5213 c 0,-1.00259 -12.022229,-6.35237 -16.871223,-7.50755 -4.663,-1.11085 -3.744763,-0.64274 8.711286,4.44105 8.578867,3.50135 8.159937,3.34393 8.159937,3.0665 z m 53.48487,-1.7917 c 1.99909,-1.09021 5.52032,-3.34423 7.82496,-5.00895 l 4.19023,-3.02674 0.1182,-10.93755 0.11819,-10.93757 -2.10297,1.9638 c -2.62823,2.45429 -6.8357,5.35397 -11.14135,7.67831 l -3.31181,1.78784 -0.11836,10.23154 c -0.0785,6.78909 0.0342,10.23153 0.335,10.23153 0.24937,0 2.08901,-0.892 4.08809,-1.98221 z m 130.536,-7.50148 c 0.071,-4.48824 0.0583,-8.16022 -0.028,-8.15994 -0.0864,2.9e-4 -2.62814,1.72175 -5.64833,3.8255 -5.45337,3.7986 -7.64748,5.81131 -7.64748,7.01525 0,0.34528 -0.01,0.75825 -0.0235,0.91772 -0.0235,0.289 11.67371,4.46445 12.68569,4.52832 0.39364,0.0248 0.56617,-2.09437 0.66161,-8.12685 z m -21.83596,5.50527 c 0.48485,-1.28456 0.44512,-1.35676 -1.11627,-2.02879 -4.54328,-1.95543 -15.78036,-5.77635 -16.09878,-5.47402 -0.20092,0.19074 -0.30016,0.90113 -0.22056,1.57864 0.13153,1.11957 0.50651,1.36089 4.11445,2.64822 2.18334,0.77904 5.75607,2.11082 7.9394,2.95952 2.18334,0.84872 4.1743,1.56681 4.42435,1.59575 0.25006,0.029 0.68089,-0.54675 0.95741,-1.27932 z m 39.16711,-7.18404 c 3.3963,-2.55309 6.71524,-5.10529 7.37542,-5.67159 l 1.20033,-1.02961 0.29983,-8.93182 c 0.21775,-6.48744 0.16437,-8.93183 -0.19522,-8.93183 -0.51272,0 -6.01397,3.6594 -13.35299,8.88235 l -4.23155,3.01145 -0.28789,6.29301 c -0.15837,3.46116 -0.28862,8.07003 -0.2895,10.24195 l -0.002,3.94895 1.65405,-1.58545 c 0.90972,-0.87201 4.43283,-3.67433 7.82914,-6.22741 z m -63.81938,3.77439 c -0.13536,-1.63641 -0.17684,-1.66978 -3.88606,-3.13165 -2.06205,-0.81269 -5.88288,-2.23982 -8.49075,-3.17139 l -4.74159,-1.69376 v 1.72236 c 0,2.091 -0.32019,1.90138 8.40825,4.97946 3.74491,1.32065 7.10667,2.50879 7.47055,2.64029 1.24459,0.44977 1.37633,0.3068 1.2396,-1.34531 z m -145.472041,-0.3308 c -0.301989,-0.36388 -0.872126,-0.65459 -1.26697,-0.64598 -0.493952,0.01 -0.373923,0.21225 0.384825,0.64598 1.415489,0.80916 1.553705,0.80916 0.882145,0 z m 171.331971,-2.97728 c 0.32247,-1.97765 0.52515,-19.73892 0.22523,-19.73854 -0.13336,1.7e-4 -0.48076,0.23849 -0.77188,0.52961 -0.66114,0.66114 -0.76589,20.64244 -0.10819,20.64244 0.23158,0 0.52627,-0.64508 0.65484,-1.43351 z m -4.16348,-8.23388 c 0.12136,-4.67106 0.15237,-8.5604 0.0692,-8.64299 -0.0833,-0.0825 -1.77041,1.0318 -3.74915,2.47643 -8.68024,6.33725 -9.32441,6.95321 -9.62655,9.2052 -0.1367,1.01951 0.18229,1.20886 4.92613,2.92308 2.7898,1.00813 5.5686,2.04254 6.17507,2.2987 0.60648,0.25617 1.30118,0.41324 1.54377,0.34907 0.2649,-0.07 0.52918,-3.50926 0.66163,-8.60949 z m -187.763539,6.60008 c -2.865286,-1.74709 -5.016534,-2.67866 -9.249648,-4.00553 -2.386354,-0.74801 -4.586931,-1.44124 -4.890171,-1.54052 -0.303239,-0.0993 -0.551348,-0.0345 -0.551348,0.14387 0,0.17836 2.72917,1.39128 6.064819,2.69541 3.335648,1.30411 6.660277,2.6244 7.388052,2.93397 2.044873,0.86979 2.807789,0.72986 1.238296,-0.22712 z m 166.347859,-0.30458 c 0.16104,-0.64157 0.10736,-1.35185 -0.1192,-1.57839 -0.30865,-0.30867 -16.57096,-6.47575 -17.16976,-6.51121 -0.0607,-0.003 -0.11019,0.70674 -0.11019,1.57853 0,1.1364 0.21848,1.64386 0.77188,1.79279 0.42454,0.1142 4.14613,1.47369 8.27022,3.02098 4.12407,1.54728 7.62566,2.82462 7.78131,2.83853 0.1557,0.0133 0.41473,-0.49966 0.57576,-1.14123 z M 86.581334,229.63816 c -9.477819,-4.87582 -18.301749,-15.06933 -23.073224,-26.6545 -1.347256,-3.27115 -1.367561,-4.16812 -0.09436,-4.16812 0.584656,0 1.575744,1.57675 3.711505,5.9048 5.430533,11.00477 11.090705,17.19305 20.687053,22.61723 1.453498,0.82156 2.735388,1.40109 2.848632,1.28783 0.113194,-0.1132 -0.506738,-1.3791 -1.37778,-2.81298 -4.258753,-7.01066 -8.962529,-18.90826 -11.022106,-27.87904 -0.36202,-1.57684 -1.353224,-4.88674 -2.202677,-7.35531 -3.009337,-8.74543 -4.377015,-17.56293 -4.40072,-28.372 -0.07919,-36.12865 18.076378,-75.489151 42.372283,-91.861054 5.09608,-3.434022 20.96683,-11.204399 27.2372,-13.335426 2.43023,-0.825931 5.90725,-1.825221 7.7267,-2.220649 3.98194,-0.86539 11.71479,-1.14484 16.49892,-0.596242 1.91791,0.219936 3.5607,0.326311 3.65062,0.23639 0.26917,-0.269165 -4.40347,-3.274401 -5.59397,-3.597795 -2.25181,-0.611713 -4.85186,-2.082415 -4.85186,-2.744424 0,-0.567469 0.44602,-0.643087 2.62683,-0.44534 3.35952,0.304623 6.81726,2.237336 10.14626,5.671275 1.71317,1.767189 3.37702,2.950056 5.47134,3.889714 1.65525,0.742645 3.09981,1.350274 3.21015,1.350274 0.54837,0 -3.07843,-4.603903 -6.13692,-7.790266 C 159.43409,35.571669 138.27619,32.368802 117.45677,42.200773 97.540958,51.606029 81.209298,68.844707 68.535513,93.839024 59.321057,112.01113 54.088071,128.87184 51.7026,148.07482 c -0.81838,6.588 -0.814129,22.96954 0.0083,29.14095 3.147187,23.63701 13.173354,41.969 27.681844,50.61387 2.911231,1.73465 7.768293,3.55153 9.615252,3.59678 0.753481,0.0185 -0.015,-0.54787 -2.42593,-1.78826 z m 131.578066,-2.47726 -0.13687,-1.64795 -7.9394,-2.95846 c -4.36666,-1.62715 -8.08825,-2.96966 -8.27019,-2.98338 -0.18196,-0.0133 -0.33082,0.75262 -0.33082,1.70293 0,1.96332 -1.0687,1.37708 9.70371,5.323 3.275,1.19964 6.21464,2.18806 6.53253,2.19648 0.39978,0.01 0.53576,-0.49273 0.44107,-1.63262 z m 63.15777,-6.00104 c 3.03241,-2.09304 6.0445,-4.25517 6.69352,-4.80472 l 1.18005,-0.99919 0.30444,-8.49073 c 0.16936,-4.7234 0.13503,-8.48635 -0.0774,-8.48083 -0.36802,0.01 -16.21767,11.0182 -17.02321,11.82373 -0.21757,0.21759 -0.50739,4.43196 -0.64404,9.36529 l -0.24846,8.9697 2.15078,-1.78886 c 1.18294,-0.98387 4.63186,-3.50136 7.66427,-5.59439 z m -99.47757,0.48146 c 3.67245,-4.41227 8.43721,-11.42791 12.06783,-17.76867 l 2.28173,-3.98497 v -5.15566 -5.15566 l -3.64391,2.52448 c -2.00415,1.38844 -5.56183,3.81461 -7.90599,5.39147 -5.68905,3.8269 -6.1232,4.60987 -6.58268,11.87159 -0.47741,7.54509 -0.4789,16.35738 -0.003,16.35738 0.21445,0 1.91806,-1.83598 3.78579,-4.07996 z m -133.320579,1.44587 c -5.357466,-2.11614 -6.707089,-2.83955 -6.707089,-3.595 0,-0.60416 2.070562,-0.45524 3.817197,0.27455 2.767696,1.15641 2.584702,0.72374 -0.656641,-1.55257 l -3.152888,-2.21418 -1.76814,1.1701 c -0.972483,0.64355 -1.766423,1.29259 -1.764289,1.44229 0.005,0.3962 4.721964,3.3405 7.159064,4.46922 2.147881,0.99477 6.048465,2.08312 7.613173,2.12424 0.485199,0.0133 -1.55799,-0.94064 -4.540387,-2.11865 z m 192.218999,-8.30896 v -8.56907 l -1.43351,1.08361 c -0.78842,0.59598 -2.52517,1.84204 -3.85942,2.76903 -6.69515,4.65152 -9.26299,7.15998 -9.25737,9.04332 10e-4,0.4501 2.15118,1.45463 6.72478,3.1422 5.98146,2.20704 6.78362,2.40448 7.27417,1.79028 0.39847,-0.4989 0.55135,-3.06634 0.55135,-9.25937 z m -96.18861,7.77976 2.23904,-0.51684 v -2.04732 -2.04734 l -4.74159,0.11519 c -2.60787,0.0634 -5.63477,-0.0745 -6.72644,-0.30627 -1.09166,-0.2318 -2.64065,-0.54686 -3.44219,-0.70015 l -1.45737,-0.27868 0.1342,2.59642 0.13403,2.59642 2.2054,0.51036 c 2.936,0.67942 8.87755,0.7193 11.6549,0.0782 z m 73.79328,-0.84425 c 0.23101,-1.57396 1.10807,-1.10736 -9.10914,-4.84606 -3.86356,-1.41375 -7.18819,-2.46939 -7.38806,-2.34588 -0.19986,0.12353 -0.3634,0.76479 -0.3634,1.42501 0,1.14474 0.30167,1.31068 6.50589,3.57857 3.57826,1.30798 7.10137,2.62552 7.82914,2.92782 2.00003,0.8308 2.30835,0.74053 2.52557,-0.73946 z M 59.467392,220.1527 C 49.43629,214.5698 42.498863,207.26388 36.976624,196.46731 c -2.218865,-4.33812 -2.353013,-4.76697 -1.696373,-5.42361 0.392161,-0.39216 0.935874,-0.57527 1.208273,-0.40693 0.272382,0.16834 1.305229,1.92858 2.295216,3.91162 5.343829,10.70426 12.776492,18.57238 21.917214,23.20124 1.049135,0.53127 2.085649,0.90475 2.303335,0.82991 0.217702,-0.0748 -0.614331,-1.62467 -1.848959,-3.44412 -5.184475,-7.6403 -9.831304,-19.25895 -12.08386,-30.21382 -0.598594,-2.91111 -1.593598,-6.98007 -2.211113,-9.0421 -2.343394,-7.82511 -2.981297,-12.9934 -3.021473,-24.47983 -0.04718,-13.48208 1.253183,-23.00224 4.819637,-35.28622 2.920566,-10.05933 9.404652,-24.699406 14.77262,-33.354362 6.04188,-9.741516 14.584942,-19.529159 22.668227,-25.970601 8.722539,-6.950864 24.931532,-16.564321 33.121712,-19.644308 5.12793,-1.928379 4.00417,-1.970005 -2.08505,-0.07719 -1.63197,0.507289 -3.09551,0.794041 -3.25231,0.637236 -0.65163,-0.651622 0.39731,-1.752603 2.57516,-2.702947 3.69205,-1.611069 6.32512,-2.117157 12.68646,-2.438434 l 5.95454,-0.300722 -2.58535,-1.205855 C 113.93941,22.392497 90.716974,27.309224 70.261443,44.236727 57.610381,54.705822 48.152566,67.131496 39.389002,84.796959 31.61534,100.46699 27.126049,114.2295 24.20645,131.34103 c -4.465169,26.17014 -0.188862,52.90052 11.323761,70.78262 5.31679,8.25838 12.922994,15.0154 20.065054,17.82492 4.426977,1.74148 4.389934,1.72986 5.624097,1.76319 0.826214,0.0223 0.386942,-0.36859 -1.75197,-1.55903 z m 185.437828,-8.07593 c 0.28062,-7.77193 0.24468,-8.51831 -0.38508,-7.99565 -0.58977,0.48947 -0.69256,1.88275 -0.68118,9.23373 0.008,4.93046 0.17341,8.37247 0.38508,7.99566 0.20442,-0.36389 0.51094,-4.51906 0.68118,-9.23374 z m -50.48037,6.78531 c 0,-1.37037 -0.19135,-1.64623 -1.52962,-2.2054 -0.84126,-0.3515 -1.71162,-0.6391 -1.93411,-0.6391 -0.52968,0 -1.97292,2.20869 -1.65258,2.52904 0.19251,0.19251 4.50816,1.80233 5.00603,1.86734 0.0607,0.008 0.1102,-0.69043 0.1102,-1.55188 z m -36.60025,-1.2489 c 4.17827,-2.44831 7.24756,-4.75749 10.58684,-7.96498 2.12327,-2.03949 2.63745,-2.80342 2.6423,-3.92572 0.003,-0.7664 0.1352,-1.88967 0.29302,-2.49616 0.22675,-0.87126 -0.42467,-0.42977 -3.10374,2.10352 -4.20158,3.97295 -7.67731,6.55281 -11.47168,8.51493 l -2.92239,1.51118 -0.002,2.09514 c -9e-4,1.15231 0.15137,2.09512 0.3384,2.09512 0.18701,0 1.82452,-0.86986 3.63888,-1.93303 z m -34.41328,-2.05708 v -2.66687 l -3.4764,-3.39795 c -8.66356,-8.46803 -13.7153,-20.40318 -15.53359,-36.69934 -0.57986,-5.19683 -0.30132,-12.64906 0.74184,-19.8485 2.74843,-18.96811 11.30383,-36.56601 24.00217,-49.3708 9.44721,-9.526416 18.74979,-14.139087 28.60911,-14.185815 6.64349,-0.03151 12.75421,2.206345 18.04274,6.607515 7.14806,5.94867 13.23762,18.12494 15.59909,31.19086 1.59396,8.81947 1.2524,23.80067 -0.76695,33.63781 -0.27967,1.36236 -0.23564,1.44699 0.53742,1.03326 1.89077,-1.01191 2.37597,-2.12034 3.0488,-6.96502 0.97342,-7.00897 1.307,-19.31002 0.6808,-25.10439 -2.21513,-20.49715 -11.01386,-36.417932 -23.50235,-42.526178 -11.34968,-5.551229 -24.56166,-3.446141 -37.00089,5.895412 -5.07755,3.81313 -11.73958,10.878956 -16.05419,17.027276 -3.88203,5.53191 -9.4018,16.06709 -11.65754,22.24996 -3.82897,10.49496 -6.1999,23.73225 -6.20372,34.63617 -0.007,19.37156 4.98667,34.43059 14.94783,45.07909 2.42028,2.58728 6.74203,6.00645 7.65503,6.05631 0.18194,0.01 0.3308,-1.18203 0.3308,-2.6488 z m 133.5363,-4.34219 7.60859,-5.38774 v -7.95285 c 0,-4.37407 -0.15671,-7.88669 -0.34819,-7.80582 -0.19151,0.0808 -2.07479,1.33794 -4.18508,2.7935 -2.11029,1.45555 -5.57595,3.84432 -7.70148,5.30839 l -3.86459,2.66192 -0.3285,7.70341 c -0.34421,8.07155 -0.25637,9.19315 0.66453,8.48618 0.30037,-0.23059 3.97,-2.84373 8.15472,-5.80699 z m -39.09673,-1.04061 c 0.0268,-3.45695 0.1172,-7.42665 0.20058,-8.82157 0.0834,-1.3949 -0.0253,-2.53619 -0.24165,-2.53619 -0.38266,0 -7.25494,4.67722 -11.6964,7.96049 -1.21298,0.89667 -2.56357,2.25049 -3.00134,3.00849 -0.78877,1.36581 -0.78679,1.38213 0.22054,1.81592 1.91552,0.82484 13.36618,4.79641 13.918,4.82732 0.41458,0.0232 0.56348,-1.52825 0.60027,-6.25446 z m -72.05487,4.69559 c 0.91556,-0.25595 0.99416,-0.53822 1.01488,-3.64434 0.0365,-5.46371 0.73583,-12.46167 1.48919,-14.90077 0.38584,-1.24918 1.48717,-3.43251 2.44739,-4.85186 1.81056,-2.67624 2.47761,-3.20537 15.66893,-12.42923 l 6.17508,-4.31785 0.11986,-8.46476 c 0.0658,-4.65563 0.015,-8.46478 -0.11202,-8.46478 -0.22064,0 -9.57236,5.9876 -23.26961,14.89877 -3.45968,2.25081 -8.51187,5.48256 -11.2271,7.18169 -4.59869,2.87774 -5.02162,3.26205 -6.1751,5.61134 l -1.2383,2.52204 -0.1402,12.63506 -0.1402,12.63506 2.78669,0.90418 c 1.53266,0.49728 3.28288,0.99992 3.88936,1.11697 1.32365,0.25542 7.31574,-0.0413 8.71129,-0.43152 z m 48.75764,-1.38639 c 0.30855,-1.61402 -0.58569,-2.11612 -1.5525,-0.87172 -1.11123,1.43026 -0.99365,1.6597 1.04147,2.0324 0.1537,0.0282 0.38362,-0.49417 0.51103,-1.16068 z m -37.4741,-3.02872 c 3.96577,-2.32361 7.81017,-5.51312 10.99782,-9.12437 5.04907,-5.72 4.73465,-4.96017 4.73465,-11.4421 0,-4.8733 -0.0969,-5.68453 -0.65353,-5.47093 -0.65475,0.25124 -8.96106,5.97556 -13.39719,9.23269 -3.66779,2.69301 -4.6119,5.14253 -4.83886,12.55452 -0.0984,3.21436 -0.0405,5.84429 0.1287,5.84429 0.16922,0 1.53198,-0.71734 3.02838,-1.5941 z m 65.14051,-5.90423 c 0.0969,-8.53996 0.065,-9.07039 -0.50914,-8.49617 -0.31707,0.31708 -0.57855,3.23181 -0.71027,7.91735 -0.18798,6.68673 -0.14136,7.35051 0.4742,6.75391 0.53703,-0.52047 0.696,-1.83777 0.74521,-6.17509 z m -98.79513,-4.74159 c 0.021,-13.47839 0.93999,-17.90728 4.57367,-22.04352 1.75132,-1.99355 10.81279,-8.21209 19.45144,-13.34879 2.18334,-1.29826 5.95456,-3.58421 8.38049,-5.07991 2.42593,-1.4957 6.54799,-3.99243 9.16013,-5.5483 2.61214,-1.55586 5.49018,-3.27217 6.39563,-3.81401 3.15647,-1.8889 6.90412,-0.78422 8.60926,2.53774 0.6885,1.34135 0.76505,2.46689 0.60683,8.92302 -0.12953,5.28835 -0.0402,7.38375 0.31481,7.3729 0.27272,-0.008 1.674,-0.85189 3.11398,-1.87457 2.3071,-1.63854 2.68569,-2.12142 3.18691,-4.06482 1.49928,-5.81318 2.03772,-10.53097 2.24017,-19.62797 0.18393,-8.26499 0.0915,-10.18412 -0.71897,-14.93987 -1.66925,-9.79408 -5.12426,-18.54464 -9.7413,-24.67191 -4.41776,-5.862819 -10.18432,-9.790376 -16.24219,-11.062431 -9.70097,-2.037054 -21.72748,2.954541 -31.90509,13.242171 -11.26133,11.38307 -18.80473,26.39868 -22.46091,44.70983 -1.35902,6.80642 -1.67422,18.86572 -0.67169,25.6993 1.27512,8.69166 4.08423,16.96849 7.88302,23.22689 2.29321,3.778 6.60986,9.07554 7.39512,9.07554 0.24491,0 0.42065,-3.57132 0.42869,-8.71129 z m 16.74734,-50.35809 c 0,-0.26186 0.50244,-0.47613 1.11653,-0.47613 0.6141,0 1.2308,-0.29772 1.37043,-0.66161 0.25956,-0.67641 1.0471,-0.92814 1.0349,-0.33081 -0.015,0.77118 -0.74601,1.34245 -2.08835,1.63367 -0.92404,0.20047 -1.43351,0.14187 -1.43351,-0.16504 z m 98.47062,48.90526 2.53619,-1.77784 v -7.07758 c 0,-4.41054 -0.16237,-7.02216 -0.43065,-6.93054 -0.23687,0.0808 -3.80959,2.48985 -7.9394,5.35326 l -7.50875,5.20623 v 7.24974 7.24974 l 5.40321,-3.74758 c 2.97176,-2.06116 6.54449,-4.54759 7.9394,-5.52543 z m -29.00087,-3.65667 c 2.91111,-1.93378 6.03726,-4.09778 6.94698,-4.8089 l 1.65404,-1.29293 v -6.79965 c 0,-3.73981 -0.10802,-6.79964 -0.24005,-6.79964 -0.13204,0 -2.36996,1.47267 -4.97318,3.27262 l -4.73313,3.2726 -2.34548,6.29777 c -2.40583,6.45982 -3.44202,11.4692 -2.22225,10.74319 0.34108,-0.203 3.00195,-1.95128 5.91307,-3.88506 z m -9.48317,-2.27855 c 0,-5.57733 -0.59353,-6.77787 -1.03578,-2.09512 -0.48052,5.08799 -0.37198,7.16752 0.37417,7.16752 0.54975,0 0.66161,-0.85766 0.66161,-5.0724 z m -23.42931,-6.32211 c 0.0397,-3.4677 -0.0797,-4.51405 -0.49916,-4.37483 -0.61168,0.20298 -1.0434,9.65779 -0.49728,10.89052 0.52009,1.174 0.93982,-1.57056 0.99644,-6.51569 z m 6.42497,2.86103 c 1.538,-2.42184 7.16978,-17.04903 6.56424,-17.04903 -0.1317,0 -0.9834,0.58929 -1.89277,1.30953 -1.21034,0.9586 -1.9182,2.05194 -2.64144,4.07996 -0.54339,1.52375 -2.08693,5.09009 -3.43007,7.9252 -2.70876,5.71765 -2.86083,7.28858 -0.54596,5.64025 0.73859,-0.52591 1.61429,-1.38358 1.946,-1.90591 z m 9.06494,-5.49458 4.19023,-2.9782 0.14037,-6.71406 c 0.0772,-3.69273 -0.003,-6.71406 -0.17889,-6.71406 -0.761,0 -3.26959,2.31971 -3.26959,3.02343 0,0.999 -2.65063,9.06674 -4.33228,13.18619 -0.71799,1.75879 -1.17824,3.19267 -1.02277,3.18637 0.15554,-0.007 2.16827,-1.35166 4.47289,-2.98967 z m -10.94354,-3.3979 c 0.65234,-1.57499 1.09089,-2.86362 0.97455,-2.86362 -0.11636,0 -0.79894,0.43429 -1.5169,0.9651 -1.09541,0.80988 -1.30538,1.27102 -1.30538,2.86701 0,1.04605 0.14887,1.90038 0.33082,1.89852 0.18194,-0.002 0.86455,-1.29203 1.51691,-2.86701 z M 77.51598,152.50237 c 4.565776,-29.71739 17.442059,-56.466987 36.98635,-76.83658 3.99949,-4.168365 4.76308,-5.141498 3.39552,-4.327336 -3.94465,2.348429 -7.53794,5.177539 -11.42249,8.99327 -6.697837,6.579158 -11.091736,12.630423 -16.69366,22.990476 -9.955467,18.41132 -15.281775,38.96372 -15.317384,59.10443 -0.01,5.57878 0.615664,12.99921 1.208406,14.33502 0.161539,0.3639 0.421167,-3.50657 0.577105,-8.60102 0.184444,-6.02549 0.626933,-11.4978 1.266153,-15.65826 z m -29.783898,2.21358 c 1.065706,-16.38104 4.751671,-31.90464 11.55235,-48.65315 7.528685,-18.541422 16.416963,-33.137683 27.228735,-44.714822 1.662265,-1.779942 2.847232,-3.236258 2.633247,-3.236258 -0.75198,0 -10.259122,9.085992 -13.614909,13.011799 -13.829761,16.178857 -24.195826,39.536831 -27.796038,62.633041 -1.067156,6.84609 -1.422108,26.85085 -0.456993,25.75592 0.08402,-0.0954 0.288186,-2.25381 0.453608,-4.79653 z"
       id="path3" /></g><metadata
     id="metadata182"><rdf:RDF><cc:Work
         rdf:about=""><cc:license
           rdf:resource="http://creativecommons.org/licenses/by-sa/4.0/" /><dc:publisher><cc:Agent><dc:title>OpenDataKerala.org</dc:title></cc:Agent></dc:publisher><dc:date>April 2026</dc:date><dc:title>Election Symbols of Kerala</dc:title><dc:creator><cc:Agent><dc:title>Manoj Karingamadathil</dc:title></cc:Agent></dc:creator></cc:Work><cc:License
         rdf:about="http://creativecommons.org/licenses/by-sa/4.0/"><cc:permits
           rdf:resource="http://creativecommons.org/ns#Reproduction" /><cc:permits
           rdf:resource="http://creativecommons.org/ns#Distribution" /><cc:requires
           rdf:resource="http://creativecommons.org/ns#Notice" /><cc:requires
           rdf:resource="http://creativecommons.org/ns#Attribution" /><cc:permits
           rdf:resource="http://creativecommons.org/ns#DerivativeWorks" /><cc:requires
           rdf:resource="http://creativecommons.org/ns#ShareAlike" /></cc:License></rdf:RDF></metadata></svg>
