<?xml version="1.0" encoding="UTF-8" standalone="no"?>
<!-- Created with Inkscape (http://www.inkscape.org/) -->

<svg
   width="1500"
   height="1500"
   viewBox="0 0 396.87499 396.875"
   version="1.1"
   id="svg5"
   xml:space="preserve"
   inkscape:version="1.3 (0e150ed6c4, 2023-07-21)"
   sodipodi:docname="Pressure Cooker.svg"
   inkscape:export-filename="Belt.png"
   inkscape:export-xdpi="96"
   inkscape:export-ydpi="96"
   xmlns:inkscape="http://www.inkscape.org/namespaces/inkscape"
   xmlns:sodipodi="http://sodipodi.sourceforge.net/DTD/sodipodi-0.dtd"
   xmlns="http://www.w3.org/2000/svg"
   xmlns:svg="http://www.w3.org/2000/svg"
   xmlns:rdf="http://www.w3.org/1999/02/22-rdf-syntax-ns#"
   xmlns:cc="http://creativecommons.org/ns#"
   xmlns:dc="http://purl.org/dc/elements/1.1/"><title
     id="title186">Election Symbols of Kerala</title><sodipodi:namedview
     id="namedview7"
     pagecolor="#ffffff"
     bordercolor="#000000"
     borderopacity="0.25"
     inkscape:showpageshadow="2"
     inkscape:pageopacity="0.0"
     inkscape:pagecheckerboard="0"
     inkscape:deskcolor="#d1d1d1"
     inkscape:document-units="mm"
     showgrid="false"
     inkscape:zoom="0.25"
     inkscape:cx="230"
     inkscape:cy="1082"
     inkscape:window-width="1920"
     inkscape:window-height="991"
     inkscape:window-x="-9"
     inkscape:window-y="-9"
     inkscape:window-maximized="1"
     inkscape:current-layer="layer1" /><defs
     id="defs2"><inkscape:path-effect
       effect="bspline"
       id="path-effect3248"
       is_visible="true"
       lpeversion="1"
       weight="33.333333"
       steps="2"
       helper_size="0"
       apply_no_weight="true"
       apply_with_weight="true"
       only_selected="false" /><inkscape:path-effect
       effect="bspline"
       id="path-effect577"
       is_visible="true"
       lpeversion="1"
       weight="33.333333"
       steps="2"
       helper_size="0"
       apply_no_weight="true"
       apply_with_weight="true"
       only_selected="false" /></defs><g
     inkscape:label="Layer 1"
     inkscape:groupmode="layer"
     id="layer1"><path
       style="fill:#000000;stroke-width:1.59393"
       d="M 130.03223,307.71673 C 112.44673,306.9332 92.663267,303.09678 81.117617,298.2312 66.226498,291.95575 56.62549,283.82482 51.248098,272.93524 48.321642,267.00897 46.55814,258.9133 45.703869,247.4835 c -0.332721,-4.45169 -1.233536,-25.67164 -1.276824,-30.0774 -0.003,-0.30605 -2.172519,-1.58655 -4.821137,-2.84554 -3.883044,-1.84574 -5.618611,-2.41534 -8.961708,-2.94116 -9.631226,-1.51486 -12.587619,-2.55401 -15.791006,-5.5504 -2.13146,-1.99372 -3.415664,-4.12695 -5.6610416,-9.40365 -2.346487,-5.51433 -2.1605567,-8.72871 0.6923667,-11.9698 2.4451049,-2.77779 5.5208469,-4.04758 14.4020619,-5.94577 4.324499,-0.92427 5.473152,-1.91235 6.684305,-5.74991 1.141721,-3.61757 2.598412,-5.70023 5.527297,-7.9025 2.026031,-1.52342 9.385974,-5.96577 9.883875,-5.96577 0.11387,0 1.01239,-0.55408 1.996696,-1.23131 1.28414,-0.8835 1.95533,-1.73333 2.37622,-3.00864 0.926458,-2.8072 4.304591,-7.23451 7.340582,-9.6204 6.012847,-4.72531 17.883229,-10.10198 29.342218,-13.2905 2.203529,-0.61315 5.687622,-1.58685 7.742453,-2.16381 4.170694,-1.17102 13.778623,-2.85889 20.513283,-3.60365 9.85053,-1.08934 8.90938,-0.82239 9.58143,-2.71765 0.329,-0.9278 0.59806,-2.35113 0.59788,-3.16295 -1.7e-4,-0.81183 0.48387,-2.70378 1.07565,-4.20434 0.8915,-2.26062 1.03193,-3.14953 0.81911,-5.18561 -0.14123,-1.35151 -0.47026,-2.85609 -0.73112,-3.34351 -0.74101,-1.38457 0.20129,-3.85519 2.05715,-5.39367 4.92418,-4.08204 15.05763,-3.77538 19.59518,0.59302 1.51473,1.45826 1.79351,2.74371 1.2173,5.61288 -0.75927,3.78069 -0.61006,7.46103 0.36748,9.06437 0.46304,0.75944 0.8426,1.87438 0.84346,2.47763 0.002,1.34195 0.78707,3.78976 1.42759,4.45075 0.27159,0.28028 3.87148,0.77462 8.48458,1.1651 23.94506,2.02686 48.35882,8.95099 61.67239,17.4913 1.87427,1.2023 3.63805,2.46347 3.91951,2.80259 0.34575,0.41662 1.34975,0.61873 3.09587,0.6232 2.88025,0.008 9.45491,1.27989 11.90778,2.30476 0.87774,0.36674 2.23442,1.15384 3.01485,1.74911 l 1.41897,1.0823 6.61656,-0.47979 c 3.63911,-0.26388 8.51433,-0.6615 10.83384,-0.88358 2.3195,-0.22209 8.67703,-0.77897 14.12786,-1.23755 5.45083,-0.45857 15.12946,-1.32058 21.5081,-1.9156 11.93505,-1.11331 32.48918,-2.94902 49.55297,-4.42563 5.33485,-0.46165 11.57016,-1.0292 13.85624,-1.26122 11.27512,-1.14437 13.95891,0.23719 17.72022,9.12188 1.96219,4.63498 2.60563,8.77237 1.98569,12.76809 -0.57745,3.72165 -1.15728,4.91407 -3.35513,6.89969 -2.1787,1.96831 -3.40124,2.27309 -12.28361,3.06215 -7.17783,0.63765 -11.37784,1.2275 -24.03846,3.37596 -3.36327,0.57074 -9.53104,1.59514 -13.70615,2.27647 -4.17509,0.68131 -14.89751,2.48945 -23.8276,4.01807 -8.93007,1.52861 -19.12077,3.2392 -22.646,3.8013 -9.57559,1.52681 -8.89294,1.26197 -16.49304,6.39879 -2.10866,1.42521 -6.16357,3.77902 -9.01093,5.23069 -2.84735,1.45167 -6.79496,3.75976 -8.77245,5.12909 -2.99176,2.07166 -3.74678,2.83066 -4.49662,4.52044 -1.09872,2.47588 -3.50187,5.20751 -5.63699,6.40752 -1.91579,1.07674 -1.90631,1.01906 -2.52238,15.34161 -0.22947,5.33485 -0.5098,10.83839 -0.62295,12.23008 -0.11317,1.39171 -0.3177,4.52303 -0.45456,6.95851 -0.52521,9.34663 -2.40307,19.09838 -4.60305,23.90379 -3.01477,6.58512 -9.00049,13.37955 -15.78198,17.91425 -12.56717,8.40349 -25.50151,12.61437 -48.33995,15.73743 -9.10729,1.24541 -23.64931,1.73578 -35.63597,1.20172 z m 32.05128,-4.95807 c 18.39026,-2.12115 30.68786,-5.24597 41.54015,-10.55532 6.17067,-3.01891 7.2849,-3.97378 2.30086,-1.97179 -10.99141,4.41507 -23.65811,7.52906 -38.78028,9.53377 -15.59074,2.06682 -39.72201,1.87695 -55.24628,-0.43471 -15.164798,-2.25814 -27.555408,-5.30906 -35.964044,-8.85537 -1.875737,-0.7911 -3.481973,-1.36681 -3.5694,-1.27938 -0.253753,0.25375 4.01857,2.58086 7.711722,4.20052 11.743011,5.14999 30.063012,8.9774 48.479952,10.12845 5.8929,0.3683 28.0892,-0.13899 33.52732,-0.76617 z m -8.85626,-4.6753 c 26.2483,-1.53108 50.99481,-8.00555 63.2591,-16.55058 11.21518,-7.81406 13.22742,-15.17456 14.78493,-54.08134 0.24607,-6.14667 0.59241,-14.21221 0.76968,-17.92341 0.17726,-3.71121 0.25746,-6.8301 0.17824,-6.9309 -0.0792,-0.10074 -1.46906,0.45776 -3.08857,1.24122 -2.85381,1.38059 -2.94455,1.47233 -2.94455,2.97721 0,2.51828 -0.46201,4.11417 -1.48556,5.1314 -1.08307,1.07642 -14.56195,6.56478 -20.00087,8.14402 -1.95966,0.569 -4.42678,1.03513 -5.48246,1.03583 -1.05569,7e-4 -3.8424,0.37464 -6.19269,0.83096 -4.74208,0.92072 -14.11726,2.21506 -14.35101,1.98131 -0.0824,-0.0824 3.03055,-0.85858 6.91772,-1.72478 9.69105,-2.15959 8.85487,-1.78442 7.3206,-3.28445 l -1.29996,-1.27097 -4.74814,0.89373 c -2.61148,0.49157 -5.50725,0.87231 -6.43505,0.84611 -1.13239,-0.032 0.2357,-0.44063 4.16188,-1.24314 6.93318,-1.41713 7.0139,-1.4441 7.0139,-2.34359 0,-0.57697 -0.2798,-0.65314 -1.58148,-0.43054 -16.67401,2.85159 -30.27639,4.05718 -45.77626,4.05718 -17.85628,0 -28.62212,-0.75168 -45.79662,-3.19752 -4.033043,-0.57436 -7.402197,-0.97491 -7.486978,-0.89012 -0.257914,0.25792 9.757388,2.27183 17.139308,3.44645 7.51328,1.19553 10.98583,1.95564 7.5911,1.66165 -1.04377,-0.0904 -4.27,-0.36958 -7.16938,-0.6204 -14.820201,-1.28211 -32.75458,-5.63007 -43.18059,-10.46855 -4.597724,-2.13372 -4.874701,-2.1564 -4.510393,-0.36927 0.265501,1.30242 0.4989,1.44908 4.691176,2.94761 14.841214,5.30506 31.04138,9.32765 46.373637,11.51482 2.66743,0.38051 4.94475,0.79456 5.06073,0.9201 0.38095,0.41236 -9.29254,-0.34258 -15.14284,-1.18177 -16.91437,-2.4263 -28.387162,-5.52291 -37.923536,-10.23592 l -3.023367,-1.49418 v 1.66404 c 0,1.30335 0.159967,1.66423 0.738022,1.66486 0.40591,4.5e-4 2.920463,0.86215 5.587889,1.91489 11.21491,4.42615 26.32918,8.56635 38.377192,10.51253 3.82717,0.61822 7.7176,1.28067 8.64541,1.4721 l 1.68691,0.34807 -1.89777,0.0343 c -5.20138,0.0939 -19.227167,-1.97346 -28.119146,-4.14481 -10.033999,-2.4502 -22.585309,-7.13889 -24.121268,-9.01076 -0.84405,-1.02867 -1.318754,-0.86534 -1.320539,0.45437 -0.0016,1.44906 -1.304648,3.63209 -2.721254,4.56028 -0.91949,0.60247 -1.359734,0.63373 -3.023909,0.21469 -1.071249,-0.26974 -2.873359,-0.9595 -4.004681,-1.53277 -1.389496,-0.70412 -2.055544,-0.86898 -2.052614,-0.50809 0.01562,1.93194 0.912405,20.7656 1.270365,26.68136 1.015021,16.77454 3.938959,25.70234 10.566155,32.26216 7.84142,7.76169 26.558785,14.75602 48.466161,18.1109 12.75972,1.95402 30.46935,2.71938 44.28138,1.91372 z m -41.75101,-4.71134 c -17.593026,-1.32805 -38.772806,-8.01304 -48.341999,-15.25825 -3.099701,-2.3469 -6.976873,-5.95923 -6.396124,-5.95923 0.1417,0 2.107224,1.23662 4.367847,2.74807 11.987281,8.01457 29.410614,14.13779 49.737676,17.47972 3.01535,0.49576 5.67224,0.97165 5.90419,1.05755 0.48658,0.18019 -2.49388,0.14185 -5.27159,-0.0679 z m 67.68724,-3.05088 c 0.4639,-0.21452 3.21567,-0.89524 6.11505,-1.5127 13.88106,-2.95614 29.83618,-9.80157 38.09981,-16.34651 2.54917,-2.01898 1.28028,-0.0928 -1.84497,2.80059 -7.0734,6.54872 -19.56073,11.79661 -34.14622,14.3502 -4.73379,0.82878 -9.34244,1.22578 -8.22367,0.70842 z m -68.95243,-1.59664 c -5.47931,-0.60939 -17.91359,-2.97759 -23.115365,-4.4025 -13.336225,-3.65316 -22.303693,-8.16183 -29.383198,-14.77331 -3.407234,-3.18198 -4.321378,-4.71725 -1.377108,-2.31281 4.200516,3.43038 14.812299,9.19273 22.497881,12.21667 7.812633,3.07392 20.39445,6.34774 32.64298,8.4938 5.1552,0.90324 5.43422,0.99491 2.95208,0.96992 -1.50768,-0.0159 -3.40545,-0.10153 -4.21727,-0.19177 z m 76.06566,-4.77731 c 4.37619,-1.13107 9.50018,-2.56852 11.38664,-3.19433 10.60482,-3.51801 23.05005,-9.97534 27.84471,-14.44748 l 1.64147,-1.53107 -0.79801,1.41383 c -1.00842,1.78659 -4.93314,5.44959 -8.25849,7.70781 -7.09616,4.81891 -20.51755,9.45954 -33.40234,11.54934 -7.0472,1.143 -6.44997,0.57889 1.58602,-1.4981 z m -75.85479,0.56959 c -24.152019,-3.11569 -42.672868,-9.89509 -52.899988,-19.36359 -2.3791,-2.20264 -4.593704,-4.80701 -4.087583,-4.80701 0.117664,0 1.10153,0.76821 2.186375,1.70713 2.914709,2.52267 7.632488,5.60877 12.519494,8.18954 11.271479,5.95232 23.631548,9.93737 39.962192,12.88434 4.05912,0.73251 7.45931,1.40998 7.55595,1.5055 0.20453,0.20216 -3.3871,0.12274 -5.23644,-0.11588 z m 68.74156,-3.07614 c 0.4639,-0.1961 3.12079,-0.87143 5.90419,-1.50073 5.17096,-1.16914 13.84623,-3.89903 19.57345,-6.15929 7.11246,-2.80695 16.4993,-8.26033 20.66471,-12.0054 3.15262,-2.83449 2.61203,-1.50105 -0.88324,2.17855 -3.04697,3.20766 -8.21037,6.96309 -11.73179,8.53269 -10.30827,4.59473 -16.35137,6.44277 -27.12183,8.29412 -6.52878,1.12225 -7.81155,1.25444 -6.40549,0.66006 z m -69.79589,-1.29524 c -19.003408,-2.40002 -36.849658,-8.29526 -47.167504,-15.58109 -3.190443,-2.25289 -9.343961,-7.83997 -9.343961,-8.48384 0,-0.1996 1.56566,0.8433 3.479254,2.31756 9.792311,7.5442 22.548631,13.32102 39.11521,17.71372 5.507401,1.46029 17.806801,4.05421 19.261021,4.06208 0.65602,0.003 1.47743,0.19041 1.82536,0.41527 0.83786,0.54147 0.4327,0.5164 -7.16938,-0.4437 z m 70.21761,-3.22661 c 11.2881,-2.65857 16.62715,-4.29531 25.01267,-7.66792 7.87904,-3.1689 14.61322,-7.03614 20.43019,-11.73243 3.97977,-3.21306 3.59581,-2.071 -0.74394,2.21279 -3.69632,3.64865 -6.9638,5.85849 -13.06936,8.83898 -7.46519,3.64422 -16.3256,6.30305 -26.77969,8.03609 -3.40118,0.56383 -6.86455,0.78698 -4.84987,0.31249 z m -70.63933,-1.63036 C 85.839827,272.5671 66.011636,264.81687 55.088973,254.23744 c -3.225374,-3.12402 -2.74282,-3.61646 0.815534,-0.83225 5.216137,4.08135 14.979041,9.52247 22.457603,12.51621 7.682266,3.0753 19.283895,6.34773 28.89684,8.15087 4.29109,0.80488 8.08663,1.53466 8.43456,1.62171 1.38979,0.34771 -2.16691,0.13389 -6.74764,-0.40555 z m 76.75438,-4.85375 c 11.04624,-2.7991 17.96823,-5.31739 26.35797,-9.58923 4.77176,-2.42966 11.64289,-6.87622 14.94332,-9.67036 l 1.86979,-1.58296 -0.81547,1.41867 c -1.85189,3.22178 -9.55781,9.18892 -16.05987,12.43609 -6.11975,3.05625 -16.82148,6.28055 -26.1245,7.87097 -7.38083,1.26182 -7.43961,0.9586 -0.17124,-0.88318 z m -76.33266,-0.0191 c -12.96324,-1.49356 -28.584459,-5.74006 -38.766423,-10.53837 -5.023622,-2.3674 -11.352291,-6.46788 -14.904524,-9.65695 -4.195451,-3.76652 -3.455606,-3.86587 1.903902,-0.25567 6.629395,4.46564 11.202876,6.94203 18.049572,9.77331 10.206653,4.2207 21.535099,7.51559 33.295753,9.68409 3.36327,0.62013 6.19411,1.20401 6.29077,1.29747 0.25302,0.24474 -2.21773,0.11684 -5.86905,-0.30388 z m 75.4892,-4.82449 c 2.89938,-0.79348 6.10348,-1.64043 7.1202,-1.88211 3.54407,-0.84246 14.63488,-5.17712 19.59395,-7.65796 5.30566,-2.65423 10.71089,-5.98783 14.76822,-9.10807 3.27257,-2.51674 2.46349,-1.0823 -1.52819,2.70941 -3.40679,3.23612 -5.41364,4.70482 -9.58981,7.0182 -6.66382,3.69145 -19.43141,7.84611 -29.47009,9.58976 -6.74899,1.17225 -6.98306,0.99708 -0.89428,-0.66923 z m -76.6954,-0.86417 c -20.141831,-2.73496 -38.019673,-8.64984 -48.403524,-16.0143 -2.873888,-2.03822 -7.449141,-6.09386 -7.179169,-6.36384 0.09544,-0.0955 2.178069,1.13132 4.628067,2.72611 5.809239,3.78148 15.089739,8.3687 22.218178,10.98212 9.378097,3.43822 16.488589,5.28675 31.840418,8.27765 5.84415,1.13857 4.05625,1.36451 -3.10397,0.39226 z m 75.27825,-3.94327 c 6.28924,-1.59012 18.30569,-5.58747 23.76871,-7.9068 6.25139,-2.65406 14.07767,-6.98075 18.20147,-10.06258 1.93462,-1.44579 3.60176,-2.54713 3.70474,-2.44745 0.3814,0.3692 -5.34886,5.74424 -8.30857,7.79351 -7.74669,5.36376 -23.66244,11.06172 -37.0035,13.24754 -5.55715,0.91048 -5.66936,0.71744 -0.36285,-0.62422 z m -73.22859,-1.13215 c -0.57988,-0.087 -3.14187,-0.45521 -5.69332,-0.81831 -8.043933,-1.14473 -21.432008,-4.2578 -27.623152,-6.42308 -7.351908,-2.57126 -14.292758,-6.10222 -19.604626,-9.97332 -6.274198,-4.57239 -7.194436,-5.96236 -1.727996,-2.61004 14.631675,8.97295 30.020467,14.31732 54.859964,19.05225 3.89916,0.74328 4.57674,0.96079 2.95208,0.94765 -1.15974,-0.01 -2.58307,-0.0881 -3.16295,-0.17515 z m 74.919,-4.53282 c 14.39844,-3.69299 29.10219,-9.74807 39.36913,-16.21241 2.20351,-1.38739 4.10129,-2.42553 4.21727,-2.30696 0.29636,0.30301 -3.00675,3.13958 -6.74764,5.79462 -7.30565,5.18508 -18.47233,9.59062 -31.41869,12.39549 -3.2473,0.70353 -7.04285,1.38541 -8.43456,1.51529 -2.06845,0.19304 -1.51818,-0.0234 3.01449,-1.18603 z m -72.59951,-0.11875 C 97.391726,253.09498 96.565831,252.95315 87.215612,250.65282 73.525025,247.28469 66.750885,244.62904 59.19642,239.6685 c -6.598092,-4.33254 -10.015543,-7.56546 -4.337085,-4.1029 6.928752,4.22495 19.076717,9.34368 29.626336,12.48352 8.896348,2.64777 13.470099,3.69401 28.677469,6.55987 2.87266,0.54136 2.48191,0.78286 -0.6326,0.39094 z m 73.38057,-4.94756 c 7.51607,-2.00443 13.68869,-3.84666 15.60393,-4.657 0.69584,-0.29443 3.73228,-1.53983 6.74763,-2.76757 7.4404,-3.02948 12.55007,-5.62565 20.24292,-10.28529 2.44988,-1.48391 -3.22553,3.56006 -6.46648,5.74703 -8.10688,5.47047 -19.86635,9.65362 -35.81446,12.74016 -7.97813,1.54406 -8.07914,1.29365 -0.31354,-0.77733 z m -74.43487,0.74072 c -0.57989,-0.0882 -3.33165,-0.45974 -6.11505,-0.82572 -16.100023,-2.11697 -32.272216,-6.68798 -41.950673,-11.85724 -5.318133,-2.8404 -10.97612,-6.7084 -10.97612,-7.50366 0,-0.10233 2.96171,1.32296 6.58159,3.16725 14.477303,7.37607 28.651472,11.91932 49.297283,15.80125 4.17511,0.78503 6.83199,1.41632 5.90419,1.40287 -0.92781,-0.0128 -2.16135,-0.0966 -2.74122,-0.18475 z m -1.05432,-4.21517 c -6.72999,-0.78018 -19.005919,-3.05155 -26.019739,-4.81434 -11.612436,-2.91856 -19.36729,-6.221 -28.067169,-11.9525 -5.308321,-3.49715 -4.907049,-3.91495 0.949249,-0.98833 17.169468,8.58021 32.817768,13.56468 52.695719,16.78528 5.84461,0.94694 6.67677,1.16033 4.44834,1.1407 -1.50768,-0.0127 -3.31056,-0.0902 -4.0064,-0.17081 z m 71.06106,-0.39716 c 17.62135,-4.22243 26.2982,-7.20633 38.13047,-13.11277 2.57117,-1.28348 5.77721,-2.99786 7.12451,-3.80973 1.34732,-0.81189 2.5464,-1.37941 2.66463,-1.26118 0.3298,0.3298 -5.15575,4.62429 -8.68257,6.79736 -7.65551,4.71697 -28.19577,10.93004 -39.02618,11.80474 l -2.95208,0.23844 z m -75.91093,-4.38756 c -21.522143,-2.87344 -37.264883,-8.06003 -49.90711,-16.44233 -2.267213,-1.50326 -3.938781,-2.79434 -3.71459,-2.86906 0.224191,-0.0748 2.684831,1.00566 5.468088,2.40085 14.824493,7.43129 29.485417,12.28525 47.099292,15.5937 3.71121,0.69707 7.69653,1.4452 8.85627,1.6625 l 2.10864,0.39508 -2.10864,0.01 c -1.15974,0.005 -4.67063,-0.33238 -7.80195,-0.75044 z m 82.02598,-1.44154 c 15.66853,-4.01412 26.65708,-8.24675 39.00977,-15.02595 l 3.16297,-1.73583 -2.04296,1.92985 c -7.14718,6.75147 -22.90856,12.9963 -39.91892,15.81631 -9.04287,1.49914 -9.08773,1.28979 -0.21086,-0.98438 z m -78.65216,-2.41836 c -9.975245,-1.03242 -23.340861,-3.85361 -32.859733,-6.936 -5.411075,-1.75221 -15.449123,-6.36528 -17.741259,-8.15315 -1.713252,-1.33633 -0.614029,-1.51487 2.2082,-0.35865 1.449456,0.59382 5.44697,2.23587 8.883372,3.64902 12.250662,5.03781 25.334774,8.58743 41.40719,11.23343 6.08905,1.00244 5.11862,1.29153 -1.89777,0.56535 z m 71.06107,-0.19173 c 0.4639,-0.11875 3.97477,-0.97077 7.80195,-1.89345 13.78076,-3.32234 22.72268,-6.59421 34.55106,-12.64232 4.0423,-2.06693 7.43002,-3.67764 7.52829,-3.57938 0.40164,0.40164 -7.5821,5.85068 -11.71167,7.99342 -7.10575,3.68699 -17.9552,7.10858 -28.83688,9.09425 -3.92646,0.71649 -11.28183,1.52627 -9.33275,1.02748 z m -66.42208,-3.81673 c -11.78891,-1.1125 -16.269117,-1.80213 -25.936225,-3.99229 -13.016785,-2.94905 -28.784454,-9.47315 -27.060825,-11.1968 0.134687,-0.13469 1.533966,0.2755 3.10963,0.91139 17.414566,7.02817 33.743188,11.54491 49.57114,13.71211 2.02955,0.27789 3.69011,0.58054 3.69011,0.67256 0,0.16886 -0.67891,0.14728 -3.37383,-0.10695 z m 68.74157,-1.05931 c 16.98774,-3.9869 32.88587,-9.64497 43.73435,-15.56483 3.4194,-1.8659 3.95957,-2.02193 2.88347,-0.83286 -1.41409,1.56253 -7.73137,5.51857 -12.09289,7.57283 -8.78992,4.14004 -24.94954,8.40397 -35.79012,9.4437 -2.02792,0.19449 -1.8689,0.11668 1.26519,-0.61884 z m 3.58468,-5.79757 c 14.39584,-3.38312 25.02857,-7.07041 39.59499,-13.73098 1.82952,-0.83656 3.52167,-1.45593 3.76035,-1.37637 0.54724,0.18241 -6.09468,4.3638 -10.1311,6.37797 -8.46749,4.22527 -21.15285,7.93163 -33.32689,9.73733 -7.1,1.0531 -7.06156,0.67569 0.10265,-1.00795 z m 13.89812,-9.57818 c 1.56454,-0.60037 1.91667,-2.3766 1.91667,-9.66802 0,-8.03282 -0.0591,-8.20275 -3.81461,-10.95952 -1.163,-0.85372 -2.42133,-2.14546 -2.79628,-2.87054 -0.40842,-0.78979 -0.88958,-3.52913 -1.20017,-6.83278 -0.30033,-3.19457 -0.79531,-6.04986 -1.17656,-6.78713 -0.41189,-0.7965 -1.57552,-1.76142 -3.11006,-2.57896 -4.61164,-2.4569 -19.31703,-9.80492 -19.62233,-9.80492 -0.16764,0 -0.19523,0.28557 -0.0614,0.63461 0.24626,0.64171 4.26845,2.98886 13.35612,7.79395 5.53572,2.92701 7.33214,4.25425 7.94886,5.87277 0.2288,0.60045 0.59859,3.34206 0.82177,6.09248 0.45003,5.54591 1.19911,7.61177 3.18306,8.7783 2.14974,1.26402 3.98794,3.53297 4.42676,5.46406 0.24489,1.07769 0.29813,3.80513 0.12815,6.56691 -0.32945,5.35414 -0.74706,6.13155 -3.18811,5.93488 -1.2068,-0.0972 -1.45289,0.0341 -1.56699,0.83614 -0.096,0.6742 0.14982,1.06586 0.8432,1.34389 1.16011,0.46519 2.9584,0.54971 3.91176,0.18388 z m -34.98448,-2.48677 c 12.12277,-1.04602 27.83076,-3.29702 30.7485,-4.40633 1.01092,-0.38436 1.09192,-0.60702 1.09192,-3.00167 0,-2.4706 -0.0426,-2.57602 -0.9489,-2.35221 -1.66888,0.41212 -13.43406,2.3173 -18.45057,2.98777 -14.6623,1.95969 -40.20575,2.67621 -55.45714,1.55564 -37.164101,-2.73053 -66.125226,-11.8278 -78.595462,-24.68841 -4.01395,-4.13962 -5.286737,-6.85883 -5.310675,-11.34586 l -0.01761,-3.3031 -0.970069,2.03792 c -0.807675,1.69676 -0.941807,2.55008 -0.801243,5.0973 0.419008,7.59295 7.855525,16.27275 18.218677,21.2646 1.855606,0.89383 2.899375,1.52882 2.319503,1.41108 -5.060933,-1.02759 -8.265538,-1.22994 -20.242914,-1.27816 -12.216995,-0.0493 -13.494988,-0.12353 -15.905109,-0.92505 -5.090745,-1.69306 -7.556171,-3.71952 -8.816711,-7.24687 l -0.544801,-1.52451 -0.01851,1.30767 c -0.06205,4.38357 3.247871,8.12313 8.801862,9.94437 2.629002,0.8621 3.609427,0.91345 18.381045,0.96283 17.945281,0.0599 18.447735,0.12449 29.743665,3.81619 8.180162,2.67342 19.967931,5.6446 27.400396,6.90644 6.218916,1.0558 18.171046,2.34705 27.623146,2.98424 3.7112,0.25018 7.79141,0.52512 9.06714,0.61096 4.84166,0.32585 25.40547,-0.18684 32.68388,-0.81484 z m -34.37078,-1.30158 c -5.25167,-0.44642 -14.41742,-1.50554 -16.65825,-1.92489 -3.47633,-0.65055 -4.39813,-1.2742 -1.47604,-0.99861 10.74118,1.01297 17.30221,1.27822 31.20783,1.26159 17.32247,-0.0207 23.72558,-0.45817 39.62575,-2.70729 12.66465,-1.79145 14.68388,-1.72462 5.48932,0.18168 -14.4966,3.00556 -24.90521,4.035 -42.5847,4.2118 -7.53838,0.0754 -14.56014,0.0644 -15.60391,-0.0242 z m -40.696693,-4.63728 c -10.97649,-1.94904 -24.543483,-6.3736 -33.699003,-10.99012 -8.217988,-4.14379 -14.295981,-9.3294 -16.730075,-14.27374 -1.574171,-3.1976 -1.435122,-4.08912 0.202051,-1.29548 5.057548,8.63004 20.902295,17.35122 42.85282,23.5868 3.598537,1.02225 8.010855,2.18525 9.805158,2.58445 5.341229,1.18831 3.621649,1.46284 -2.430951,0.38809 z m 121.457483,4.31126 c 3.47924,-1.01468 7.40124,-2.16194 8.71551,-2.54947 1.31429,-0.38754 2.64274,-1.00915 2.9521,-1.3814 0.39877,-0.47981 0.60379,-2.53924 0.70436,-7.076 0.17556,-7.91766 -0.0344,-8.53236 -3.99931,-11.70863 -4.67022,-3.74129 -4.24824,-2.83428 -5.61738,-12.07428 -0.25332,-1.70963 -0.64986,-3.46211 -0.88122,-3.89438 -0.51543,-0.96309 -5.85196,-3.54659 -12.503,-6.05291 -2.73623,-1.03109 -7.44207,-2.82756 -10.45742,-3.99217 -3.01537,-1.16459 -6.11638,-2.12268 -6.89117,-2.12908 -1.32639,-0.0112 -9.69499,2.03118 -12.15227,2.96543 -0.6783,0.25788 -0.9729,0.58089 -0.741,0.8124 0.42652,0.42578 17.22307,8.81929 19.81979,9.90426 3.78908,1.58319 4.78283,3.47232 5.46737,10.3935 0.28994,2.93151 0.74159,5.7307 1.00368,6.22044 0.26211,0.48972 1.72126,1.83267 3.2426,2.98435 2.09309,1.58452 2.93659,2.00097 3.46702,1.71174 0.73978,-0.4034 15.10004,-4.63938 15.72776,-4.63938 0.20144,0 0.36627,0.19652 0.36627,0.43671 0,0.73225 -3.69593,2.07886 -10.12146,3.68779 -3.36329,0.84216 -6.15633,1.5493 -6.20678,1.57144 -0.0505,0.0222 0.12066,0.73227 0.38023,1.57807 0.46449,1.51347 0.49034,1.5283 1.63369,0.93704 0.63895,-0.33042 2.74517,-1.06583 4.68049,-1.63425 1.93534,-0.56843 5.40328,-1.61985 7.70658,-2.33651 3.25697,-1.01341 4.2629,-1.18421 4.52571,-0.76845 0.51987,0.82248 -0.54518,1.3863 -5.69349,3.01404 -6.08429,1.92367 -9.56763,2.79212 -11.19915,2.79212 h -1.30975 v 6.53677 c 0,4.94857 0.12816,6.53665 0.52716,6.53623 0.28994,-2.8e-4 3.37383,-0.83072 6.85308,-1.84542 z m -12.35559,-21.816 c 0.26824,-0.80474 11.18612,-4.17606 13.51535,-4.17337 2.39272,0.003 0.9861,0.73857 -4.63901,2.42668 -7.23391,2.17092 -9.14298,2.54659 -8.87634,1.74669 z m -3.03746,-12.55542 c 0,-0.47623 1.11792,-0.90288 7.81633,-2.9831 6.15884,-1.91265 6.5224,-1.97171 6.5224,-1.05949 0,0.84694 -3.0055,2.13047 -7.96146,3.4 -4.10386,1.05128 -6.37727,1.28034 -6.37727,0.64259 z m -16.73307,-9.98674 c -1.57169,-0.80147 -1.98678,-1.62209 -1.38719,-2.74243 1.39883,-2.61375 7.07043,-3.03172 9.58028,-0.70605 1.1837,1.09685 1.2049,2.05673 0.0681,3.08548 -1.2206,1.10463 -6.36372,1.33061 -8.26123,0.363 z m 6.08445,-1.29514 c 1.41847,-0.38014 1.14575,-1.29072 -0.55464,-1.85191 -1.72642,-0.56977 -4.07931,-0.25368 -4.82814,0.6486 -0.41929,0.50521 -0.33132,0.68966 0.48478,1.01643 1.15614,0.46293 3.52998,0.5535 4.898,0.18688 z m 52.24499,42.63511 c 1.62327,-1.23813 3.71653,-4.58062 3.39439,-5.42011 -0.12114,-0.31579 -0.94713,-0.70311 -1.83546,-0.86074 -0.88833,-0.15764 -1.93405,-0.37996 -2.32379,-0.49407 -0.62245,-0.18225 -0.72504,0.28224 -0.84345,3.81898 -0.0741,2.21454 -0.0579,4.02601 0.0362,4.0255 0.0941,-5.2e-4 0.80151,-0.48183 1.57208,-1.06956 z M 159.804,207.18637 c 14.90572,-0.98639 29.1911,-2.96595 35.12213,-4.86697 0.37438,-0.12002 -0.005,-0.60984 -1.06735,-1.37972 -3.01508,-2.1841 -2.76492,-2.16287 -10.34558,-0.8783 -31.40849,5.32226 -68.51588,4.18331 -95.78023,-2.9398 -9.389621,-2.45314 -14.501627,-4.31305 -21.592433,-7.85604 -10.353869,-5.17339 -16.273658,-10.67453 -17.465086,-16.22997 -0.42494,-1.98143 0.04704,-9.64191 0.654618,-10.62501 0.887247,-1.43559 -4.072218,1.85328 -5.98153,3.96667 -2.05282,2.27223 -2.722509,4.0201 -2.722509,7.10568 0,8.25232 10.425638,16.85085 28.261152,23.30837 13.780676,4.98942 30.891152,8.45321 49.336688,9.98756 2.89938,0.24117 5.93581,0.50103 6.74763,0.57746 3.72164,0.3504 28.82011,0.22795 34.8325,-0.16993 z m 87.81444,-7.4635 c 5.28732,-5.31513 8.02772,-16.62773 5.39668,-22.27804 -1.19951,-2.57602 -4.21284,-5.32669 -8.87405,-8.10058 -3.88642,-2.31279 -4.8938,-3.49885 -5.18789,-6.10805 -0.28581,-2.53574 0.42116,-4.48051 2.47837,-6.81761 1.03436,-1.17511 1.61189,-2.19172 1.46402,-2.57707 -0.13437,-0.35001 -1.06015,-0.98615 -2.05743,-1.41362 -1.9689,-0.84399 -7.30292,-2.15257 -8.7742,-2.15257 -0.90162,0 -0.90366,0.0159 -0.14871,1.15976 2.08632,3.16148 3.33262,6.90624 4.41192,13.25656 l 0.47908,2.8188 3.22994,1.58414 c 4.53046,2.22197 6.54212,3.94554 7.94012,6.80295 1.52608,3.11919 1.6091,7.50613 0.20947,11.06807 -1.27847,3.25361 -4.53602,7.39844 -7.93415,10.09521 -1.58932,1.26129 -3.04599,2.42343 -3.23705,2.58253 -0.43659,0.36359 5.34885,2.00625 7.22054,2.05012 1.11994,0.0263 1.77865,-0.3574 3.38342,-1.9706 z m -17.52202,-0.16231 c 7.52729,-3.78281 12.52261,-8.13663 14.71788,-12.82784 1.34695,-2.87836 1.70931,-5.91654 0.97883,-8.20681 -0.30665,-0.96141 -0.39941,-0.85902 -1.10906,1.22423 -1.24682,3.66021 -4.2066,7.05472 -9.64171,11.05783 -0.81182,0.59793 -1.66582,1.16411 -1.89778,1.25819 -0.40158,0.16287 -6.16678,3.3575 -6.47114,3.58582 -0.26786,0.20093 -0.55802,5.65236 -0.30085,5.65236 0.13963,0 1.81539,-0.78469 3.72383,-1.74378 z m -62.10872,-0.10982 c 6.17653,-0.65761 14.71072,-1.93259 19.02874,-2.84285 l 1.94877,-0.41082 -0.16488,-1.76907 c -0.0907,-0.97299 -0.33738,-3.6067 -0.54821,-5.85269 -0.21085,-2.24599 -0.584,-4.45855 -0.82925,-4.91677 -0.42059,-0.7859 -0.57174,-0.80045 -2.66573,-0.25661 -14.6038,3.79295 -44.90158,5.02991 -65.47895,2.67328 -11.80073,-1.35148 -25.519589,-4.19267 -34.312985,-7.10625 -11.928337,-3.95231 -18.697536,-7.48634 -24.178409,-12.62292 -3.486277,-3.26729 -5.142004,-5.6293 -6.028612,-8.60025 l -0.530348,-1.77713 -0.705327,2.31948 c -1.042813,3.42931 -2.284494,12.83046 -1.941995,14.70344 0.420813,2.30125 2.477855,5.0507 5.780208,7.72587 12.189105,9.8741 36.658024,16.8649 67.610778,19.31648 7.45002,0.59007 35.57828,0.20872 43.0162,-0.58319 z m -74.013154,-5.50585 c -16.542272,-3.15311 -30.513502,-8.8744 -37.399137,-15.3151 -2.717126,-2.54156 -3.299428,-3.73125 -3.289125,-6.71998 0.0086,-2.47934 0.963803,-9.25202 1.360979,-9.64919 0.119066,-0.11907 0.91796,0.73893 1.775208,1.90674 2.780819,3.78823 7.992955,7.67099 15.200517,11.32358 7.530142,3.81604 14.699975,6.35291 26.568827,9.4007 6.315245,1.62169 2.190455,1.23241 -5.693312,-0.53732 -11.058322,-2.48234 -22.96766,-6.95795 -29.518379,-11.09324 -0.979997,-0.61864 -1.643534,-0.90108 -1.474529,-0.62764 0.492094,0.79623 5.577831,3.94416 9.695671,6.00135 6.756049,3.3752 15.520467,6.35693 28.677469,9.75631 l 2.530365,0.65376 -2.3195,-0.23182 c -10.461941,-1.04563 -27.382978,-6.39964 -35.741406,-11.309 -2.145542,-1.26019 -3.900985,-2.21464 -3.900985,-2.12101 0,0.40972 6.436801,4.45987 9.703083,6.10534 6.606666,3.32827 13.42864,5.66439 28.252384,9.67467 l 3.162964,0.85568 -2.319504,-0.2264 c -3.736715,-0.36474 -12.476745,-2.26086 -17.712551,-3.84268 -4.921388,-1.48682 -13.842281,-5.03805 -16.341931,-6.50537 -0.753849,-0.44251 -2.068443,-1.22036 -2.921323,-1.72857 -0.852897,-0.50819 -1.410661,-0.69738 -1.239473,-0.42038 0.579474,0.93761 8.456997,5.30455 13.122494,7.27452 5.923125,2.50099 10.024962,3.85768 19.188595,6.34665 8.132313,2.20885 8.305863,2.49101 0.632599,1.0284 z m 163.442784,0.17831 c 5.9295,-2.98128 9.23538,-5.32168 9.95716,-7.04917 0.72927,-1.74535 0.87191,-6.29371 0.2179,-6.94772 -0.29091,-0.29091 -1.848,0.001 -4.8363,0.90765 -2.87169,0.87096 -4.79403,1.23962 -5.51731,1.05808 -1.07863,-0.27071 -1.11005,-0.22359 -1.11005,1.6649 0,1.06892 0.19641,1.94349 0.43645,1.94349 0.24005,0 1.95292,-0.5012 3.80637,-1.11377 1.85347,-0.61258 3.48274,-1.00098 3.62062,-0.8631 0.47488,0.47488 -0.29259,2.40779 -1.44095,3.62914 -0.71478,0.76021 -2.22004,1.56787 -3.9723,2.13137 -2.81006,0.90368 -2.82425,0.9161 -3.53505,3.09541 -0.3925,1.20345 -0.90156,2.42531 -1.13123,2.71525 -0.65631,0.82859 -0.11045,0.64608 3.50469,-1.17153 z m -222.87192,0.91094 c -0.124422,-0.20132 -2.175723,-0.4602 -4.558458,-0.5753 -11.25413,-0.54363 -14.927,-6.28267 -5.7534,-8.98996 2.177991,-0.64277 2.465699,-0.82099 1.52038,-0.94182 -2.001149,-0.2558 -5.656548,0.74479 -7.439608,2.03644 -3.89776,2.82353 -2.234037,6.59334 3.619909,8.20231 2.265531,0.62269 12.970959,0.85046 12.611177,0.26833 z m 196.20733,-4.95565 c 5.23584,-3.1245 9.93628,-7.57741 11.52157,-10.91483 1.93473,-4.07308 1.69425,-4.59065 -3.30259,-7.10801 l -2.18568,-1.10112 -0.4653,2.24139 c -1.09457,5.27248 -5.18335,9.98824 -12.31037,14.19806 l -2.38659,1.40972 1.85943,1.41978 c 1.02268,0.78087 1.85941,1.60085 1.85941,1.82218 0,0.88278 1.62368,0.29241 5.41012,-1.96717 z M 220.83,186.27584 c 2.80984,-1.436 7.58025,-5.00813 9.41834,-7.05251 3.00352,-3.34063 3.69953,-5.00376 3.64307,-8.70509 -0.0494,-3.24334 -1.30087,-10.18352 -2.24325,-12.44096 l -0.52816,-1.26518 -0.33492,1.78404 c -0.18419,0.98122 -0.70659,2.62426 -1.16086,3.65121 -1.19258,2.69604 -5.99383,7.34176 -10.28002,9.94704 -2.02342,1.22989 -3.59372,2.37401 -3.48959,2.54249 0.10408,0.1685 0.56207,2.62916 1.01764,5.46816 0.53489,3.3333 1.08458,5.44496 1.55176,5.96118 0.87287,0.96452 0.74465,0.95867 2.40599,0.10967 z m -0.1366,-2.56691 c 2.9197,-2.0965 7.11687,-5.67134 7.33935,-6.2511 0.29076,-0.75773 0.0996,-0.66235 -2.73817,1.36599 -1.99703,1.42742 -5.79322,3.28458 -6.09568,2.9821 -0.0933,-0.0933 1.01378,-1.04361 2.45997,-2.11204 1.44619,-1.06843 3.57831,-2.93285 4.73807,-4.14317 2.2332,-2.33058 2.01843,-2.36469 -1.05432,-0.1675 -2.02644,1.44902 -6.31265,3.72343 -6.55681,3.47926 -0.0808,-0.0808 0.97949,-1.0589 2.35634,-2.1734 3.74121,-3.02841 6.73084,-5.78036 6.73084,-6.19579 0,-0.20268 -1.18611,0.45619 -2.63581,1.46417 -2.4509,1.70412 -8.63905,5.04567 -7.69651,4.15605 0.23195,-0.21893 1.56377,-1.25994 2.95959,-2.31337 3.43919,-2.59551 7.04143,-6.19703 8.7791,-8.77733 1.72793,-2.56583 1.73738,-2.5479 2.4113,4.57074 0.42362,4.47485 0.39762,4.87977 -0.42201,6.57291 -1.30408,2.69385 -7.17747,7.15345 -10.56503,8.0219 l -1.05433,0.2703 z m 60.10636,-1.63872 c 4.84565,-2.3361 7.08522,-2.71915 15.18219,-2.59679 8.52074,0.12879 10.13054,-0.34716 4.84681,-1.43294 -7.52044,-1.54543 -12.6951,-0.78421 -21.7159,3.19449 -2.7834,1.22766 -5.77239,2.46465 -6.64221,2.74889 -0.86981,0.28425 -1.58148,0.66574 -1.58148,0.84778 0,0.60825 6.92118,-1.32023 9.91059,-2.76143 z m -114.9207,1.78529 c 7.38023,-0.83043 17.33297,-2.35402 18.06929,-2.76609 0.59962,-0.33555 -2.39476,-2.26547 -10.4782,-6.75329 -5.38876,-2.99179 -6.32591,-3.90975 -6.32591,-6.19644 0,-3.24444 1.38436,-4.75137 5.03583,-5.48167 0.7192,-0.14377 1.3856,-0.38769 1.48089,-0.54187 0.0953,-0.15413 -1.94876,-1.16271 -4.54234,-2.24116 -11.40458,-4.74215 -13.13016,-5.2066 -14.80205,-3.98408 -0.69251,0.50638 -0.32199,0.97128 4.24209,5.32268 2.7505,2.62232 4.70965,4.60252 4.35368,4.40046 -1.28764,-0.73093 -7.48884,-5.02643 -13.20868,-9.1495 l -5.84308,-4.21189 -5.15437,0.0328 -5.15436,0.0328 -6.09319,2.93694 c -3.35127,1.61532 -8.74528,3.91732 -11.98671,5.11554 -8.03309,2.96951 -18.069641,6.8996 -23.331141,9.13598 -2.400252,1.02021 -4.487807,1.8456 -4.639007,1.83419 -0.676464,-0.051 15.085358,-7.65626 25.757278,-12.42813 8.46136,-3.78344 10.91143,-5.89222 8.09143,-6.96438 -1.75594,-0.66762 -9.27958,0.90339 -35.544219,7.42199 -7.971788,1.97852 -14.564906,3.52656 -14.651361,3.4401 -0.231072,-0.23107 17.330184,-5.82672 26.696071,-8.50634 21.392329,-6.12045 24.293329,-6.58553 27.208649,-4.36192 1.41007,1.07551 1.41853,1.07643 2.90623,0.31319 1.45497,-0.74643 1.49388,-0.83174 1.56554,-3.43253 l 0.0735,-2.66707 -1.8487,-0.98073 c -1.01679,-0.5394 -2.39141,-1.54686 -3.05472,-2.23879 -1.11316,-1.16118 -1.20604,-1.50766 -1.20604,-4.49952 0,-1.7828 0.16139,-4.24685 0.35865,-5.47566 l 0.35864,-2.23421 -2.25642,0.26073 c -7.05225,0.81491 -12.55137,1.63303 -17.22774,2.56301 -5.571487,1.10799 -19.027033,4.5573 -20.083043,5.14828 -0.379611,0.21244 3.720106,0.8822 10.467548,1.71005 18.487425,2.26824 21.845595,2.9226 21.845595,4.25675 0,0.8842 -1.3857,1.52893 -4.5536,2.11869 -2.30462,0.42903 -31.217607,0.64632 -31.626259,0.23768 -0.12608,-0.12608 0.41914,-0.23043 1.211626,-0.23185 2.405066,-0.005 23.602303,-1.2162 26.533683,-1.51701 1.50768,-0.15461 2.55145,-0.34647 2.3195,-0.42617 -0.58378,-0.20056 -18.489942,-2.50916 -25.971038,-3.34838 l -6.149877,-0.68987 -4.380775,1.79637 c -8.800057,3.60855 -15.069512,7.89645 -16.813702,11.49946 -1.172718,2.42252 -1.105279,3.80532 0.332399,6.81605 5.655249,11.84293 32.531927,21.94883 66.689143,25.07576 2.66742,0.24419 5.60897,0.51847 6.53677,0.60952 4.07808,0.40017 29.42537,-0.14664 34.79252,-0.75052 z M 136.569,169.67478 c -0.16079,-0.26016 0.56622,-0.42172 1.89777,-0.42172 1.33155,0 2.05858,0.16156 1.89778,0.42172 -0.14329,0.23197 -0.99735,0.42174 -1.89778,0.42174 -0.90041,0 -1.75442,-0.18977 -1.89777,-0.42174 z m -2.0032,-2.59879 c -0.63786,-0.23297 -1.15971,-0.5501 -1.15966,-0.70474 4e-5,-0.15461 2.37226,-0.28308 5.27159,-0.28546 2.89932,-0.002 5.27151,0.0402 5.27151,0.0947 0,0.0544 -0.55992,0.38846 -1.24424,0.74234 -1.41688,0.73269 -6.30092,0.82466 -8.1392,0.15334 z m -0.52716,-2.59944 c -3.56167,-1.3937 -4.31118,-2.63708 -1.00553,-1.66805 2.14529,0.62887 8.88321,0.57652 11.97043,-0.0929 l 1.26518,-0.27438 -1.02995,0.83315 c -0.56648,0.45822 -1.72716,1.04203 -2.57929,1.29733 -1.9957,0.59793 -6.99065,0.54286 -8.62084,-0.095 z m 1.6706,-2.38875 c -2.35781,-0.34618 -4.37085,-1.25055 -5.286,-2.37476 -0.54359,-0.66776 -0.5202,-0.70656 0.24158,-0.40075 3.36467,1.35075 10.77152,1.62089 14.27179,0.52053 1.99616,-0.62751 2.02559,-0.62402 1.31896,0.15684 -1.54643,1.70878 -6.49427,2.69317 -10.54633,2.09821 z m -1.31625,-2.93831 c -1.65844,-0.39517 -4.02503,-1.75189 -4.25398,-2.43875 -0.12002,-0.36011 0.31439,-0.30903 1.4422,0.16956 2.43703,1.03418 9.01277,1.24622 12.32577,0.39747 1.48413,-0.38022 2.76616,-0.62356 2.84896,-0.54076 0.38661,0.38661 -1.55351,1.53456 -3.62128,2.14267 -2.37182,0.69754 -6.42192,0.82253 -8.74167,0.26981 z m 1.02437,-2.50346 c -2.24461,-0.47236 -5.05298,-1.81082 -4.6484,-2.21539 0.18864,-0.18864 1.00148,-0.16123 1.80632,0.0609 1.9888,0.54893 8.02866,0.70748 11.37396,0.29856 2.52062,-0.30813 2.67491,-0.28237 1.91724,0.3202 -1.71475,1.36371 -7.33874,2.19025 -10.44912,1.53571 z m 138.94144,25.0898 c 1.45497,-0.55689 4.16364,-1.71402 6.01924,-2.57139 7.56001,-3.4931 13.27472,-3.9839 22.25025,-1.9109 l 5.38117,1.24282 6.00547,-1.0628 c 15.89891,-2.81369 17.04241,-3.06288 19.8002,-4.31496 8.34604,-3.78922 19.52036,-6.02584 36.39085,-7.2839 3.7112,-0.27675 6.9613,-0.71205 7.22243,-0.96734 0.26115,-0.2553 0.59932,-0.99579 0.75149,-1.64556 0.26704,-1.14017 0.2284,-1.17332 -1.1074,-0.95041 -0.76124,0.12704 -4.61028,0.70466 -8.55344,1.28361 -3.94314,0.57895 -10.11091,1.52689 -13.70613,2.10654 -10.67106,1.72047 -10.12295,1.21213 1.53327,-1.422 8.78284,-1.98479 17.22331,-3.42083 20.10697,-3.42094 l 2.02993,-9e-5 -0.13214,-1.37061 -0.13213,-1.37062 -3.37383,0.12624 c -3.84036,0.14377 -8.64267,0.90693 -14.76045,2.34585 -6.38935,1.50278 -28.9605,7.32239 -33.73819,8.69885 -5.87241,1.69184 -10.74466,2.54249 -14.27988,2.49314 -4.34966,-0.0607 -6.00204,-0.70472 -1.95663,-0.76257 4.47053,-0.0639 7.3787,-0.60963 15.02169,-2.8188 3.6835,-1.0647 7.45638,-2.11846 8.38419,-2.34169 9.3381,-2.24672 14.59876,-3.59879 20.19291,-5.18985 8.64645,-2.45918 14.27459,-3.58761 19.68114,-3.94597 4.39316,-0.29119 4.40686,-0.29553 4.26542,-1.34646 -0.0781,-0.57987 -0.26781,-1.16838 -0.42172,-1.30778 -0.4457,-0.40371 -14.58526,1.54861 -19.67929,2.71722 -2.55145,0.58532 -6.86888,1.71658 -9.5943,2.51391 -2.72541,0.79733 -4.9553,1.36752 -4.9553,1.26708 0,-0.40124 5.51356,-2.64541 9.48887,-3.86225 4.88852,-1.49635 8.73445,-2.23762 16.65823,-3.21072 7.7538,-0.95221 7.5566,-0.89949 7.28268,-1.94694 -0.12671,-0.48449 -0.45415,-0.96678 -0.72769,-1.07174 -0.78692,-0.30197 -14.21073,1.84658 -20.47199,3.27666 -5.67199,1.29548 -12.55238,3.2804 -21.21837,6.12128 -2.50808,0.8222 -4.64695,1.40811 -4.75304,1.30202 -0.32691,-0.32693 10.48181,-4.43028 17.00265,-6.45478 6.19972,-1.9248 14.5771,-3.72688 23.84483,-5.12933 l 4.96546,-0.7514 -0.69167,-0.98457 c -0.66803,-0.95092 -0.83058,-0.97542 -4.75462,-0.71671 -15.27517,1.00713 -21.85363,2.6067 -33.31108,8.09975 -12.91248,6.1906 -14.84179,6.61672 -29.45141,6.50477 -12.90643,-0.0988 -15.98635,0.20132 -23.67147,2.30759 l -5.28117,1.4474 h -9.58593 c -7.65606,0 -10.57791,0.1696 -14.5132,0.84236 -2.70998,0.46329 -5.22629,1.00971 -5.59179,1.21426 -0.57073,0.31939 -0.53007,0.44386 0.28797,0.88167 0.75865,0.40602 1.65222,0.37704 4.39015,-0.14234 5.2126,-0.98886 10.11398,-1.20994 15.24597,-0.68767 12.59691,1.28196 15.13069,1.11887 23.52965,-1.51447 6.10267,-1.91339 6.58537,-1.78714 1.14141,0.29852 -9.05449,3.46891 -12.33781,3.85731 -22.41687,2.65184 -3.5816,-0.42835 -7.16145,-0.58845 -9.84528,-0.44026 -4.39209,0.24252 -9.06714,1.02335 -9.06714,1.51443 0,0.15652 0.54618,0.80788 1.21373,1.44743 1.21316,1.16228 1.21523,1.16261 4.51427,0.70375 2.13998,-0.29763 6.87666,-0.35967 13.47073,-0.17642 11.74581,0.32644 13.37919,0.0814 20.6466,-3.09738 7.80387,-3.41345 9.11154,-3.67132 16.63303,-3.2798 8.19618,0.42663 10.85349,0.33815 14.58271,-0.48553 1.62366,-0.3586 3.42654,-0.73012 4.00641,-0.82558 0.95752,-0.15764 0.93817,-0.11651 -0.21086,0.44793 -1.82061,0.89434 -6.31133,2.20511 -9.47115,2.76445 -2.08703,0.36946 -3.87373,0.35846 -7.64513,-0.047 -6.53104,-0.70221 -10.11832,-0.19365 -16.6512,2.36056 -9.66611,3.77924 -9.79141,3.79921 -23.16572,3.69197 -6.4946,-0.0521 -12.4142,0.0443 -13.15466,0.21404 l -1.3463,0.30871 1.48564,2.42493 c 1.75954,2.87202 2.21832,2.96305 6.90296,1.36969 2.15471,-0.73286 5.12586,-1.24875 9.72564,-1.68872 7.67525,-0.73413 9.05626,-0.97262 16.07062,-2.77522 5.83465,-1.49943 9.07693,-1.52025 14.26515,-0.0917 2.06026,0.56733 4.20796,0.7482 8.64542,0.7281 5.59372,-0.0254 6.18137,-0.1111 11.17578,-1.63088 8.40122,-2.55644 12.33931,-3.53571 15.22737,-3.78649 2.67545,-0.23232 2.66222,-0.22483 -1.73211,0.97982 -2.43547,0.66766 -6.46165,1.89346 -8.94706,2.72399 -8.31593,2.77891 -11.10165,3.35779 -16.1457,3.35516 -3.60327,-0.002 -5.72183,-0.26198 -9.48888,-1.165 -3.94391,-0.94541 -5.44582,-1.11873 -8.04026,-0.92783 -1.75471,0.12911 -3.68617,0.42324 -4.29212,0.65362 -2.51052,0.9545 -11.79242,2.63941 -15.81793,2.87137 -3.8665,0.2228 -5.22434,0.59464 -3.84747,1.05358 0.26135,0.0872 0.57018,1.14672 0.68623,2.35465 0.11604,1.20792 0.37234,2.19624 0.56948,2.19624 0.19715,0 1.54889,-0.45564 3.00387,-1.01251 z m 15.5081,-0.27508 4.00642,-0.74161 -2.9521,-0.008 c -1.8934,-0.005 -4.16202,0.35037 -6.32591,0.99065 -3.33881,0.98793 -3.34974,0.99571 -1.05432,0.74924 1.27573,-0.13692 4.1224,-0.58277 6.32591,-0.99064 z m 59.09513,-9.89643 c 6.77884,-1.04831 14.61656,-2.10875 17.41715,-2.35654 5.81312,-0.51435 9.60668,-1.23418 9.80888,-1.86127 0.29676,-0.92035 -18.01036,0.80083 -27.59708,2.59457 -5.36927,1.00462 -12.33406,2.88882 -12.33406,3.33674 0,0.26827 -0.85951,0.3842 12.70511,-1.7135 z m -130.05986,-1.85833 c 6.81225,-4.55665 10.10104,-9.21927 9.7225,-13.78397 -0.3789,-4.56891 -4.43063,-8.33349 -14.0361,-13.04127 -5.83471,-2.8597 -15.53644,-6.52243 -17.27639,-6.52243 -0.85849,0 -2.67424,0.40875 -16.88354,3.8007 -14.2157,3.39346 -16.22436,4.05166 -15.57437,5.10336 0.12959,0.20956 9.70667,0.37396 21.7846,0.37396 11.85443,0 21.45099,0.10249 21.32569,0.2278 -0.20866,0.20866 -4.72333,0.49775 -31.70922,2.03051 -10.11408,0.57445 -13.70076,0.36627 -15.38943,-0.89326 -2.22534,-1.65979 -1.42083,-3.32103 2.27862,-4.70517 1.84524,-0.69039 22.81281,-6.01353 27.5818,-7.00232 1.99383,-0.41341 1.28891,-0.7039 -5.44782,-2.24501 -10.47327,-2.3959 -23.58078,-4.28166 -29.76078,-4.28166 h -2.81055 l 0.25339,1.15976 c 0.13931,0.63786 0.37841,2.98487 0.53119,5.21559 l 0.27779,4.05586 -1.7578,1.90699 c -0.96678,1.04884 -2.3328,2.14516 -3.03556,2.43626 -1.26577,0.52429 -1.27656,0.55614 -1.14916,3.39053 0.1511,3.36136 0.12496,3.3408 6.60318,5.20193 4.19039,1.20387 7.76513,2.61285 16.9313,6.67342 5.58038,2.47208 5.7337,2.51287 7.7287,2.05566 3.61962,-0.82951 6.23239,-0.58376 10.26397,0.96542 11.66208,4.48127 22.44416,8.8581 23.54748,9.55881 0.69585,0.44192 1.48996,0.80669 1.7647,0.81059 0.27473,0.003 2.18085,-1.11752 4.23581,-2.49206 z m 32.58754,-4.28251 c 3.57017,-0.84213 5.2463,-0.9538 15.39305,-1.02551 11.06098,-0.0783 11.48916,-0.11285 14.97132,-1.2097 7.9764,-2.51267 8.1149,-2.5288 22.35156,-2.60474 17.25502,-0.092 18.2297,-0.28726 30.36438,-6.08201 8.70453,-4.15674 13.57077,-5.90594 19.18859,-6.89744 4.31542,-0.76163 12.17384,-1.52586 16.23649,-1.57898 2.72527,-0.0357 2.73337,-0.0394 1.38851,-0.62795 -1.17865,-0.51591 -2.56263,-0.48538 -10.75406,0.23719 -20.72831,1.82845 -18.47874,1.37428 -27.07994,5.46722 -9.82046,4.67315 -16.53779,5.84913 -25.54842,4.47271 -13.24655,-2.02348 -14.58335,-2.11687 -19.37002,-1.35334 -2.45167,0.39108 -6.64002,1.37554 -9.30745,2.18771 -5.90142,1.79684 -10.98365,2.5928 -18.76687,2.93926 -5.96639,0.26556 -10.29998,0.68945 -15.49847,1.51596 -2.7876,0.4432 -2.84667,0.47907 -2.84667,1.72885 0,1.12189 0.11477,1.24381 0.94889,1.00796 5.00797,-1.41608 13.90508,-2.36042 22.23858,-2.36042 6.48114,0 10.64221,-0.59991 15.14025,-2.1828 6.80716,-2.39547 9.94172,-2.98469 14.59908,-2.74435 4.33713,0.22382 10.27168,1.19523 12.06151,1.97429 0.94929,0.41321 0.93361,0.42734 -0.25315,0.22782 -0.69585,-0.11699 -4.39651,-0.3382 -8.22369,-0.49156 -5.71759,-0.22915 -7.59379,-0.14999 -10.52096,0.44424 -1.95936,0.39772 -3.88076,0.89345 -4.26978,1.10165 -0.38901,0.20819 -2.39166,0.8794 -4.45035,1.49156 -3.49102,1.03811 -4.55233,1.13632 -15.76228,1.45869 -11.47163,0.32988 -19.46385,1.14651 -20.40196,2.08462 -0.5309,0.53091 2.28886,2.19127 3.32199,1.9561 0.46392,-0.10567 2.64634,-0.61725 4.84987,-1.13703 z m -2.95207,-6.03117 c 2.89938,-0.3654 8.59269,-0.86925 12.65182,-1.11968 7.60535,-0.46922 12.33838,-1.27324 18.556,-3.15222 5.29363,-1.59973 12.17866,-2.28819 18.67187,-1.86708 2.95364,0.19158 5.51776,0.43946 5.69803,0.55088 0.18028,0.11142 2.80805,0.40146 5.83949,0.64455 9.28613,0.74462 13.92876,-0.14935 23.77172,-4.57765 l 4.84987,-2.18192 -3.79555,0.27175 c -2.90753,0.20817 -4.38756,0.55233 -6.32591,1.47099 -4.37632,2.0741 -6.80394,2.60789 -12.91216,2.83916 -3.35688,0.12703 -6.04568,0.048 -6.47183,-0.19057 -0.5168,-0.28922 0.78676,-0.48668 4.4776,-0.67824 4.81656,-0.24999 10.91473,-1.30869 13.43035,-2.33166 1.04477,-0.42486 1.04233,-0.42898 -0.27059,-0.45547 -0.72869,-0.0143 -6.04246,0.44382 -11.80836,1.01892 -5.76591,0.57513 -16.27168,1.52516 -23.34615,2.1112 -11.38003,0.94269 -13.3002,1.20826 -16.65823,2.30385 -6.42479,2.09616 -6.92316,2.1779 -15.60393,2.559 -10.69443,0.46953 -14.4188,0.98842 -15.69416,2.18654 -0.89416,0.84002 -1.36501,1.89904 -0.64777,1.45695 0.17396,-0.10727 2.68852,-0.49393 5.58789,-0.8593 z m 8.24351,-3.65345 c 5.87165,-0.28997 9.94002,-0.70214 12.01923,-1.21767 3.05225,-0.75678 3.08826,-0.78045 1.24536,-0.81837 -1.04379,-0.0215 -3.60577,0.13899 -5.69333,0.35651 -2.08754,0.21756 -6.73617,0.61043 -10.33028,0.87305 -3.5941,0.26261 -6.82031,0.64489 -7.16935,0.84948 -0.83484,0.48936 -0.853,0.48944 9.92837,-0.043 z m -113.65591,-6.73912 c 1.63279,-0.87384 0.75493,-1.13362 -3.14197,-0.92979 -2.3234,0.12146 -4.50673,0.019 -5.27159,-0.2477 -1.05147,-0.36654 -1.30562,-0.34111 -1.30562,0.13071 0,0.7449 0.64533,1.13889 2.51605,1.53615 1.84626,0.39205 6.09567,0.10344 7.20313,-0.48929 z m 0.157,-2.35421 c 0.36689,-0.14074 0.66669,-0.4729 0.66623,-0.73802 -5.9e-4,-0.33582 -1.59981,-0.48205 -5.27176,-0.48205 -3.73489,0 -5.27088,0.14345 -5.27075,0.49201 1e-4,0.27062 0.2374,0.58775 0.52734,0.70474 0.76134,0.3072 8.55845,0.32665 9.34894,0.0233 z m 2.89445,-4.83818 c 2.62642,-0.87819 4.72846,-2.42497 5.16512,-3.80073 0.43801,-1.38005 -2.40869,-16.41829 -3.10493,-16.40229 -1.0677,0.0246 -1.4154,0.79419 -0.97464,2.1575 1.41144,4.36577 2.21577,14.04408 1.34476,16.18118 -0.32215,0.7904 -0.35838,0.77714 -0.57604,-0.21086 -0.12784,-0.57987 -0.34259,-2.8572 -0.47743,-5.06073 -0.22252,-3.63628 -1.52168,-11.13158 -2.01494,-11.62485 -0.11062,-0.11062 -1.2197,0.0175 -2.46479,0.28448 -2.10708,0.4519 -7.97835,0.28794 -10.26797,-0.28672 -0.84391,-0.2118 -0.94971,0.0513 -1.65638,4.11894 -0.41519,2.38985 -0.86482,6.3853 -0.99919,8.87875 -0.2029,3.76539 -0.35865,4.53576 -0.91915,4.5464 -0.52696,0.01 -0.48999,0.1205 0.16862,0.504 2.99526,1.74429 12.4886,2.14883 16.77696,0.71493 z m -14.66046,-1.79663 c -0.37697,-0.86536 -0.0144,-7.17006 0.69286,-12.05737 0.54361,-3.75506 1.37724,-5.6527 0.95427,-2.1723 -0.15269,1.25699 -0.50981,5.14742 -0.79347,8.64541 -0.32146,3.96427 -0.64304,6.06779 -0.85366,5.58426 z m 2.03892,-5.44474 c 0.15015,-3.30529 0.45679,-6.76872 0.68155,-7.69652 0.35124,-1.44996 0.38127,-1.27224 0.21376,1.26519 -0.10711,1.62364 -0.19623,5.08707 -0.19788,7.69651 -0.002,3.28514 -0.15175,4.74445 -0.48666,4.74445 -0.35389,0 -0.41044,-1.61265 -0.21077,-6.00963 z m 10.65015,4.07735 c -0.39454,-1.02818 -0.30339,-2.28501 0.16574,-2.28501 0.23195,0 0.42174,0.66423 0.42174,1.47605 0,1.60029 -0.1857,1.85598 -0.58748,0.80896 z m -2.19605,-5.13813 c -1.54839,-1.03388 -1.63917,-3.95094 -0.14776,-4.7491 1.58947,-0.85064 2.93717,-0.49348 3.53904,0.93794 0.60572,1.44059 0.4852,2.21811 -0.52634,3.3959 -0.65257,0.75982 -2.04635,0.96184 -2.86493,0.41526 z m -14.05141,5.86906 c -0.98973,-1.84934 0.0193,-12.092 1.59177,-16.15904 0.35085,-0.90741 0.30571,-1.17331 -0.23433,-1.38054 -0.83555,-0.32063 -0.74207,-0.46067 -1.53111,2.29356 -1.00419,3.50526 -1.96913,9.51046 -1.96913,12.25473 0,2.14268 0.1382,2.55315 1.1187,3.32447 1.2901,1.01479 1.67798,0.8886 1.0241,-0.33318 z m 7.97866,-24.31317 c 0,-2.95209 -0.16503,-4.84986 -0.42174,-4.84986 -0.2567,0 -0.42172,1.89777 -0.42172,4.84986 0,2.9521 0.16502,4.84986 0.42172,4.84986 0.25671,0 0.42174,-1.89776 0.42174,-4.84986 z m -1.68692,-0.39683 c 0,-2.76174 -0.18034,-4.93643 -0.42172,-5.08562 -0.27224,-0.16826 -0.42172,1.54195 -0.42172,4.82497 0,3.10926 0.16388,5.08562 0.42172,5.08562 0.25657,0 0.42172,-1.88948 0.42172,-4.82497 z m -1.33847,-1.29008 c -0.006,-1.15974 -0.16272,-2.58307 -0.34843,-3.16295 -0.20785,-0.64903 -0.33352,0.89107 -0.3269,4.00641 0.008,3.85856 0.091,4.60992 0.34843,3.16295 0.18572,-1.04377 0.33283,-2.84665 0.3269,-4.00641 z m -1.61362,0.87795 c 0,-4.31555 -0.20335,-5.72782 -0.82473,-5.72782 -0.17201,0 -0.13708,1.09122 0.0776,2.42495 0.21472,1.3337 0.31932,3.61103 0.23246,5.06072 -0.0869,1.44968 -0.006,2.63579 0.17837,2.63579 0.18495,0 0.33627,-1.97714 0.33627,-4.39364 z m 14.87246,-1.39507 c 0.13245,-3.89325 0.0618,-4.65207 -0.39718,-4.27106 -0.61022,0.50644 -0.81305,8.07783 -0.25444,9.49812 0.40225,1.02273 0.45274,0.61766 0.65162,-5.22706 z m -2.64236,-6.07112 c 2.26716,-0.49919 3.72339,-1.45456 3.12667,-2.05128 -0.26907,-0.26907 -1.01229,-0.11603 -2.13589,0.43993 -1.11477,0.55155 -2.97135,0.93717 -5.25798,1.09213 -3.39136,0.22981 -4.41696,0.0534 -7.6466,-1.31539 -1.1125,-0.4715 -0.90332,0.49314 0.27426,1.26472 1.9706,1.29119 7.20064,1.54727 11.63954,0.56989 z m -1.91085,-3.30119 c 0.59645,-0.96509 -3.066,-1.72729 -4.36023,-0.90742 -0.46651,0.29551 -0.42589,0.45422 0.21087,0.82417 0.97827,0.56835 3.81438,0.62525 4.14936,0.0832 z"
       id="path7" /></g><metadata
     id="metadata182"><rdf:RDF><cc:Work
         rdf:about=""><cc:license
           rdf:resource="http://creativecommons.org/licenses/by-sa/4.0/" /><dc:publisher><cc:Agent><dc:title>OpenDataKerala.org</dc:title></cc:Agent></dc:publisher><dc:date>April 2026</dc:date><dc:title>Election Symbols of Kerala</dc:title><dc:creator><cc:Agent><dc:title>Manoj Karingamadathil</dc:title></cc:Agent></dc:creator></cc:Work><cc:License
         rdf:about="http://creativecommons.org/licenses/by-sa/4.0/"><cc:permits
           rdf:resource="http://creativecommons.org/ns#Reproduction" /><cc:permits
           rdf:resource="http://creativecommons.org/ns#Distribution" /><cc:requires
           rdf:resource="http://creativecommons.org/ns#Notice" /><cc:requires
           rdf:resource="http://creativecommons.org/ns#Attribution" /><cc:permits
           rdf:resource="http://creativecommons.org/ns#DerivativeWorks" /><cc:requires
           rdf:resource="http://creativecommons.org/ns#ShareAlike" /></cc:License></rdf:RDF></metadata></svg>
