<?xml version="1.0" encoding="UTF-8" standalone="no"?>
<!-- Created with Inkscape (http://www.inkscape.org/) -->

<svg
   width="1500"
   height="1500"
   viewBox="0 0 396.87499 396.875"
   version="1.1"
   id="svg5"
   xml:space="preserve"
   inkscape:version="1.3 (0e150ed6c4, 2023-07-21)"
   sodipodi:docname="Razor.svg"
   inkscape:export-filename="Plate and Stand.png"
   inkscape:export-xdpi="96"
   inkscape:export-ydpi="96"
   xmlns:inkscape="http://www.inkscape.org/namespaces/inkscape"
   xmlns:sodipodi="http://sodipodi.sourceforge.net/DTD/sodipodi-0.dtd"
   xmlns="http://www.w3.org/2000/svg"
   xmlns:svg="http://www.w3.org/2000/svg"
   xmlns:rdf="http://www.w3.org/1999/02/22-rdf-syntax-ns#"
   xmlns:cc="http://creativecommons.org/ns#"
   xmlns:dc="http://purl.org/dc/elements/1.1/"><title
     id="title186">Election Symbols of Kerala</title><sodipodi:namedview
     id="namedview7"
     pagecolor="#ffffff"
     bordercolor="#000000"
     borderopacity="0.25"
     inkscape:showpageshadow="2"
     inkscape:pageopacity="0.0"
     inkscape:pagecheckerboard="0"
     inkscape:deskcolor="#d1d1d1"
     inkscape:document-units="mm"
     showgrid="false"
     inkscape:zoom="0.25"
     inkscape:cx="230"
     inkscape:cy="1078"
     inkscape:window-width="1920"
     inkscape:window-height="991"
     inkscape:window-x="-9"
     inkscape:window-y="-9"
     inkscape:window-maximized="1"
     inkscape:current-layer="layer1" /><defs
     id="defs2"><inkscape:path-effect
       effect="bspline"
       id="path-effect3248"
       is_visible="true"
       lpeversion="1"
       weight="33.333333"
       steps="2"
       helper_size="0"
       apply_no_weight="true"
       apply_with_weight="true"
       only_selected="false" /><inkscape:path-effect
       effect="bspline"
       id="path-effect577"
       is_visible="true"
       lpeversion="1"
       weight="33.333333"
       steps="2"
       helper_size="0"
       apply_no_weight="true"
       apply_with_weight="true"
       only_selected="false" /></defs><g
     inkscape:label="Layer 1"
     inkscape:groupmode="layer"
     id="layer1"><path
       style="fill:#000000;stroke-width:1.51091"
       d="m 100.38474,329.78541 c -0.11226,-0.11226 -0.60424,-0.2649 -1.093293,-0.3392 -3.999845,-0.6077 -7.396427,-2.4009 -9.56122,-5.04781 -0.92613,-1.13237 -2.501909,-2.9652 -3.501756,-4.07297 -2.262746,-2.507 -3.853619,-4.30827 -7.40173,-8.3807 -1.532037,-1.75842 -3.803501,-4.27648 -5.047694,-5.5957 -3.085998,-3.27206 -5.961783,-6.5043 -9.75637,-10.96562 -5.372405,-6.31642 -9.032112,-10.49788 -11.570449,-13.22003 -4.299217,-4.61055 -7.512706,-8.38244 -9.816458,-11.52229 -2.308013,-3.14563 -6.624787,-8.35727 -13.006166,-15.70237 -8.048038,-9.26345 -10.662963,-12.81803 -11.566203,-15.72246 -0.839706,-2.70013 -0.776324,-4.38286 0.278144,-7.3849 2.053605,-5.8465 7.027884,-8.2603 13.980252,-6.784 3.745528,0.79535 6.50745,2.52405 11.089767,6.94114 4.739014,4.56813 5.595189,4.97149 8.952381,4.21768 2.282464,-0.51248 4.580293,-1.62276 7.061472,-3.41199 3.08976,-2.22808 4.134588,-2.59998 7.304548,-2.59998 3.000979,0 5.827704,0.71916 8.102763,2.06149 l 1.222285,0.72116 3.182727,-2.89042 c 3.873744,-3.51801 8.291054,-7.10333 11.768938,-9.55231 9.288392,-6.5405 43.295902,-24.96001 58.523832,-31.69832 3.36072,-1.4871 6.47346,-3.14194 7.14506,-3.79856 1.34872,-1.31862 10.80302,-6.29782 35.67099,-18.7865 19.01019,-9.54691 32.04046,-15.7339 55.16727,-26.1944 1.31921,-0.59669 5.7266,-2.61722 9.79419,-4.49008 10.02083,-4.61391 11.95002,-5.50551 15.09105,-6.97456 4.48513,-2.0977 11.25884,-5.12163 15.4908,-6.91546 2.1987,-0.93198 5.79657,-2.51251 7.99526,-3.51233 3.83666,-1.74462 28.94641,-12.88134 35.57889,-15.78001 1.75896,-0.76872 4.7272,-2.07974 6.59609,-2.913377 1.8689,-0.833632 5.10697,-2.242998 7.19574,-3.13193 2.08876,-0.888932 6.49614,-2.828448 9.79418,-4.310005 l 5.99645,-2.693765 4.99703,-6.19e-4 c 4.34648,-5.29e-4 5.38738,0.134622 7.99526,1.038436 4.40627,1.527021 6.66253,2.922442 9.82598,6.077035 3.05856,3.049978 4.44534,5.495665 5.56713,9.818045 1.14277,4.40318 0.25812,11.75038 -2.01379,16.72509 -1.19092,2.60767 -2.31658,3.97716 -5.19906,6.32521 -2.68091,2.18385 -6.40853,3.8349 -37.76272,16.726 -7.93935,3.26421 -21.5895,9.45289 -32.78055,14.86197 -3.84771,1.85977 -8.06988,3.86394 -9.38261,4.45371 -6.38636,2.86929 -24.51044,12.24723 -35.79058,18.51914 -15.95341,8.87032 -21.55558,11.91269 -28.78292,15.63114 -8.92656,4.59268 -12.62817,6.59664 -17.18982,9.30609 -9.98884,5.93303 -14.85462,8.58606 -25.61168,13.96462 -6.28105,3.14056 -12.51022,6.53914 -13.84258,7.55241 -1.33237,1.01328 -2.90606,2.02616 -3.49708,2.25088 -1.52077,0.5782 -4.09236,0.49947 -6.38295,-0.1954 -1.07933,-0.32743 -3.09413,-0.59533 -4.47734,-0.59533 -2.804,0 -6.29189,1.32425 -13.34851,5.06803 -2.08877,1.10815 -8.20515,4.3082 -13.59195,7.11124 -21.26942,11.06757 -25.44137,14.00656 -26.80716,18.88469 -0.9147,3.26698 -0.11529,6.16704 3.50331,12.70813 0.87003,1.57268 1.10599,2.52413 1.11084,4.47913 0.006,2.27227 -0.21126,2.90587 -2.56399,7.48928 -3.53743,6.89129 -6.43925,11.28357 -8.89125,13.45803 l -2.07316,1.83848 3.76907,4.38806 c 8.87575,10.33339 10.17279,12.25826 9.25275,13.73148 -0.26766,0.42859 -0.48665,1.00976 -0.48665,1.29152 0,0.28174 -0.46606,1.19812 -1.03567,2.03639 -1.43826,2.11657 -5.16349,4.43158 -8.02538,4.98726 -2.67203,0.51882 -6.84352,0.82263 -7.14571,0.52043 z m 6.21269,-3.26744 c 3.30854,-0.5256 5.90399,-2.08292 7.1099,-4.26602 l 0.91357,-1.65389 -0.889,-0.82826 c -1.30983,-1.22027 -4.46998,-1.12959 -7.12607,0.20449 -1.97023,0.98957 -2.04434,1.08559 -1.77435,2.29863 0.44865,2.01576 0.40619,2.46521 -0.23287,2.46521 -0.38915,0 -0.56458,-0.32498 -0.49975,-0.92583 0.17128,-1.58723 -0.58174,-2.47216 -2.10365,-2.47216 -0.75678,0 -2.594358,-0.45923 -4.0835,-1.02052 l -2.70753,-1.0205 -0.899462,1.04281 c -0.597552,0.69278 -0.899463,1.56109 -0.899463,2.58695 0,1.31936 0.194319,1.66425 1.334924,2.36918 2.536931,1.5679 6.864281,2.01313 11.857251,1.21991 z m -14.617466,-5.81572 c 0.303648,-1.20982 -0.160369,-1.89232 -1.728018,-2.54166 -0.620382,-0.25696 -3.357797,-2.91832 -6.083124,-5.9141 -2.725328,-2.99577 -5.911182,-6.44771 -7.079663,-7.67098 -1.168481,-1.22326 -4.386926,-4.78759 -7.152081,-7.92072 -2.765171,-3.13314 -5.204165,-5.69662 -5.419999,-5.69662 -0.481725,0 -0.216121,0.34497 4.309219,5.59667 1.989331,2.30863 4.123181,4.82714 4.741901,5.59668 0.618734,0.76954 3.235336,3.64784 5.814679,6.3962 6.098355,6.49797 9.068224,9.8444 10.36968,11.68453 1.24448,1.75956 1.870588,1.89168 2.227406,0.47 z m 12.134706,-1.92161 c 0.41984,-0.40627 0.36686,-0.84547 -0.28561,-2.36764 -0.77706,-1.81279 -0.85246,-1.86856 -2.51429,-1.86005 -2.760272,0.0136 -6.419496,2.04265 -5.72165,3.17181 0.141875,0.2295 0.562091,0.42481 0.933881,0.43403 0.371806,0.009 1.305627,0.36895 2.075166,0.79939 1.535813,0.85906 4.541273,0.76226 5.512503,-0.17754 z m 6.18795,-1.35112 2.70577,-0.1532 -1.29347,-1.6659 c -0.71142,-0.91623 -3.25396,-4.05433 -5.65008,-6.97351 -3.68893,-4.4942 -4.44847,-5.23137 -4.95605,-4.81011 -0.49247,0.4087 -0.72755,0.33929 -1.317291,-0.38902 -0.938172,-1.1586 -1.073701,-1.12371 -1.399621,0.3602 -0.312789,1.42412 0.08899,2.37042 2.311122,5.4433 0.83235,1.151 1.49744,2.21449 1.47801,2.3633 -0.0195,0.14882 0.51657,0.50262 1.19113,0.78625 0.67457,0.28363 1.22647,0.74577 1.22647,1.02697 0,0.28121 0.39523,1.46484 0.8783,2.6303 0.67588,1.63067 1.02136,2.05169 1.4991,1.82682 0.34145,-0.16072 1.83843,-0.36114 3.32661,-0.4454 z m -20.245023,-1.4366 c -0.633859,-1.33575 -3.451232,-4.64663 -12.772881,-15.01022 -2.456989,-2.73163 -5.456668,-6.0874 -6.665944,-7.45729 -1.209291,-1.36989 -3.050371,-3.45327 -4.0913,-4.62976 -2.829384,-3.19784 -3.278126,-3.92067 -3.473608,-5.5951 -0.01677,-0.14414 -0.615245,-0.9644 -1.329817,-1.82289 -0.714572,-0.85848 -1.838904,-2.2536 -2.498524,-3.10024 -5.273712,-6.76917 -10.541743,-11.99 -11.316555,-11.21519 -0.380222,0.38022 3.336885,5.05479 8.113975,10.20399 5.995446,6.46247 7.484074,8.44429 6.832356,9.09603 -0.163828,0.16381 -0.84927,-0.33165 -1.523198,-1.10104 -0.673929,-0.7694 -3.166893,-3.55761 -5.53992,-6.19605 -4.318708,-4.80172 -9.558938,-11.27181 -9.558938,-11.80236 0,-0.15517 -2.662413,-2.95991 -5.916471,-6.23276 -3.254057,-3.27286 -7.234214,-7.36905 -8.844774,-9.10264 -1.610574,-1.7336 -2.770896,-2.87188 -2.578496,-2.52949 0.338505,0.60239 6.777631,8.57123 12.956532,16.03456 1.656839,2.00125 3.80681,4.71798 4.777739,6.03719 1.726054,2.34522 8.64009,10.24897 13.374466,15.28899 l 2.375777,2.52913 0.615109,-1.01374 c 0.594258,-0.97939 1.629204,-1.39305 1.629204,-0.65116 0,0.38478 3.564732,4.66839 8.015116,9.63149 1.478672,1.64903 5.721955,6.37839 9.429513,10.50971 3.707558,4.13133 7.100816,8.02338 7.540553,8.64902 1.044812,1.4865 1.275695,1.21966 0.450086,-0.52018 z m 4.878457,-4.73625 c -4.96464,-5.82045 -12.589063,-14.18297 -13.858231,-15.19977 -0.753509,-0.60367 -1.840974,-1.5731 -2.416603,-2.15429 l -1.046595,-1.05672 1.228404,0.62883 c 0.67562,0.34586 1.473096,0.92368 1.772182,1.28405 0.299085,0.36037 1.185448,0.98481 1.969704,1.38767 1.829491,0.93974 7.231721,6.52368 10.121769,10.46222 1.234145,1.68189 2.894459,3.70854 3.689593,4.50369 0.795149,0.79514 1.359536,1.58513 1.254195,1.75556 -0.10531,0.17043 0.425504,0.23785 1.179617,0.14989 0.827588,-0.0967 1.371121,-0.38045 1.371121,-0.71598 0,-0.30575 -0.14958,-0.55591 -0.332428,-0.55591 -0.445704,0 -2.650023,-3.49508 -3.151587,-4.99704 -0.375507,-1.12446 0.313077,-5.93136 1.291062,-9.01274 0.377532,-1.1895 4.221603,-8.18919 6.302153,-11.47559 1.81489,-2.86681 2.66957,-5.07593 2.38494,-6.1644 -0.10863,-0.41544 -0.98014,-1.62579 -1.93666,-2.68967 -1.78209,-1.98212 -2.87516,-4.0378 -2.14704,-4.0378 0.21551,0 1.32408,0.44974 2.46351,0.99941 1.13941,0.54967 2.12794,0.99941 2.19673,0.99941 0.37055,0 -0.006,-1.16691 -1.07975,-3.34892 -0.66264,-1.34621 -1.48932,-3.84305 -1.83704,-5.54854 -0.61123,-2.99788 -0.60331,-3.1961 0.23842,-5.96731 2.89958,-9.54623 9.30642,-14.2178 41.38054,-30.17279 9.01466,-4.48426 16.67536,-8.31103 17.02381,-8.50394 0.34843,-0.19292 3.01361,-1.55183 5.92262,-3.01982 4.72369,-2.38376 6.43618,-2.89371 6.43613,-1.91655 -1e-5,0.43777 -2.57644,2.44596 -3.68067,2.86891 -1.5367,0.58859 -23.86317,11.68684 -34.89642,17.34663 -15.30234,7.84973 -20.49872,11.02161 -24.8179,15.1489 -6.69519,6.39773 -7.80611,11.95237 -4.00867,20.04348 1.01342,2.15923 1.84257,4.17091 1.84257,4.47039 0,0.29948 0.35979,0.65868 0.79953,0.79825 0.44546,0.14142 0.82648,0.64016 0.86042,1.12629 0.0335,0.47988 0.0901,1.14236 0.12555,1.47218 0.11574,1.07157 -1.39336,4.51698 -3.61216,8.24714 -1.19406,2.00742 -2.17103,3.84072 -2.17103,4.07397 0,0.23326 -0.20479,0.55067 -0.45509,0.70537 -0.94994,0.58709 0.12299,-2.69175 2.21772,-6.77722 2.33805,-4.56008 2.85805,-6.40948 2.25103,-8.00605 -0.42926,-1.12901 -2.01976,-1.96751 -3.01077,-1.58721 -0.84223,0.32318 -0.75156,1.08693 0.23505,1.97979 1.32054,1.19508 0.74437,3.81814 -2.05747,9.36689 -1.30821,2.59076 -2.37858,4.84688 -2.37858,5.01359 0,0.16672 -0.72358,1.26151 -1.60798,2.43288 -1.699306,2.25071 -2.584974,4.80002 -1.550859,4.46395 0.308212,-0.10018 0.801839,-0.93222 1.096939,-1.84903 0.39761,-1.2352 1.0024,-1.98129 2.33529,-2.88085 1.93803,-1.30795 3.00692,-1.6268 3.32448,-0.99165 0.10999,0.21986 -0.84441,1.09441 -2.12075,1.94341 -2.08001,1.38358 -2.308,1.67057 -2.1987,2.76756 0.0671,0.67314 0.3631,1.30315 0.65785,1.40001 0.71433,0.23474 5.26066,-4.4732 5.26066,-5.44768 0,-0.42091 0.26393,-0.98433 0.58652,-1.25205 0.79375,-0.65876 3.26006,-5.06578 5.14588,-9.19511 1.96811,-4.30953 1.87297,-5.37654 -0.98302,-11.02387 -1.96198,-3.87958 -2.16055,-4.52006 -2.29085,-7.38907 -0.12994,-2.85998 -0.0261,-3.39392 1.15769,-5.96242 2.19533,-4.76281 5.21857,-7.08862 17.97098,-13.82526 4.50731,-2.38107 9.81417,-5.20089 11.79299,-6.26626 8.20923,-4.41976 17.98849,-9.18413 20.76258,-10.11537 3.27365,-1.09893 5.4824,-1.21909 10.01552,-0.54486 2.6472,0.39371 3.11741,0.36863 3.7456,-0.1999 0.92532,-0.83737 1.96602,-0.9071 1.28461,-0.0861 -0.2585,0.31148 -0.3078,0.66313 -0.11014,0.78532 0.65833,0.40687 2.40596,-1.92325 3.24325,-4.32429 0.79973,-2.2933 1.4357,-3.35624 1.79192,-2.99488 0.15456,0.15681 -0.37497,1.8537 -1.14562,3.67115 -0.46745,1.10241 0.78733,0.86579 1.54559,-0.29146 1.73613,-2.64966 2.44665,-12.36421 1.27246,-17.3975 -0.32488,-1.39267 -0.40656,-2.49038 -0.19502,-2.62112 0.20019,-0.12374 0.37896,0.0106 0.39728,0.29834 0.0512,0.80429 0.23628,1.85189 0.92851,5.25569 0.35047,1.72332 0.64269,3.70215 0.64939,4.39738 0.0106,1.12165 0.0623,1.17785 0.45634,0.49888 0.33018,-0.5688 0.31704,-1.11683 -0.0512,-2.13508 -0.27245,-0.75343 -0.49013,-2.7044 -0.48372,-4.33549 0.0204,-5.1996 -3.77544,-14.1282 -7.94664,-18.69215 -2.20375,-2.41125 -4.74665,-3.71192 -7.85198,-4.01625 -1.10314,-0.10818 -2.85359,-0.41005 -3.88991,-0.671 -1.26887,-0.31951 -2.01609,-0.34257 -2.28806,-0.0706 -0.27198,0.27197 0.19122,0.4931 1.41834,0.67712 2.9995,0.4498 7.1067,2.7658 9.5118,5.36361 4.05629,4.38128 7.28797,12.25098 7.75414,18.88269 0.32244,4.5872 -0.0789,8.94291 -0.89959,9.76362 -0.32779,0.32779 -0.48035,0.59598 -0.339,0.59598 0.14142,0 -0.0343,0.29126 -0.39024,0.64723 -1.0273,1.0273 -1.10257,0.41948 -0.22405,-1.80934 0.9547,-2.4221 1.08205,-7.56909 0.28283,-11.43041 -0.44326,-2.14153 -0.60924,-2.4118 -1.54875,-2.5219 -1.03246,-0.12103 -3.84135,1.1078 -6.79625,2.97315 -2.78214,1.75628 -25.12319,13.10428 -37.09639,18.84288 -10.43044,4.99917 -26.2034,14.06049 -29.52424,16.96124 -4.72909,4.13081 -7.660564,9.08777 -7.956311,13.45362 -0.258865,3.82163 1.815727,11.09513 3.809511,13.35605 0.34049,0.38611 0.49963,0.82148 0.35362,0.9675 -0.14596,0.14595 0.0193,0.70019 0.36753,1.23151 0.34815,0.53133 0.55726,1.04181 0.46468,1.13437 -0.0926,0.0926 -1.23127,0.024 -2.530464,-0.15223 -1.338051,-0.18156 -3.055402,-0.15855 -3.961196,0.053 -1.643558,0.384 -5.932108,3.48853 -7.404162,5.35994 l -0.818463,1.04049 -1.98507,-1.95522 c -1.091787,-1.07537 -1.98507,-2.1532 -1.98507,-2.39516 0,-0.24197 -0.539683,-0.957 -1.199288,-1.58894 -0.659605,-0.63194 -1.199289,-1.38517 -1.199289,-1.67383 0,-0.28868 -0.158918,-0.52486 -0.353146,-0.52486 -0.194213,0 -0.450268,-0.37143 -0.56898,-0.82542 -0.207721,-0.79428 -0.178016,-0.80063 0.787579,-0.16794 0.551892,0.36161 1.10806,0.55286 1.235929,0.42499 0.232786,-0.23278 -1.553644,-2.94013 -3.476071,-5.26803 -2.556045,-3.09512 -10.709576,-12.51502 -12.116177,-13.99797 -3.062805,-3.22905 -2.75819,-6.01136 1.21399,-11.08809 1.057655,-1.35176 2.509433,-3.31514 3.226196,-4.36307 0.716763,-1.04794 1.669636,-2.24673 2.117517,-2.664 l 0.814322,-0.75864 -0.944457,-0.61884 c -1.556741,-1.02002 -4.319298,-1.84856 -6.163551,-1.84856 -2.374991,0 -6.108295,1.44561 -6.617081,2.56227 -0.396358,0.86994 -2.982062,2.53327 -3.626256,2.33271 -0.180282,-0.056 -1.359324,0.23756 -2.620092,0.65266 -1.260753,0.41509 -3.472702,0.84233 -4.915414,0.94944 l -2.623114,0.19473 -2.17404,-2.57329 c -4.055205,-4.79993 -8.029001,-7.73405 -12.139097,-8.96317 -2.462368,-0.73634 -3.037876,-0.77531 -5.19182,-0.35156 -4.464874,0.87842 -6.056759,2.27257 -6.632236,5.80844 -0.374828,2.303 -0.256992,3.32631 0.235279,2.04344 0.138702,-0.36127 0.483146,-0.65685 0.765581,-0.65685 0.28242,0 2.107091,1.90021 4.054796,4.22272 1.947706,2.3225 5.407459,6.41507 7.688351,9.0946 2.280876,2.67953 5.339059,6.39022 6.795958,8.24597 3.689971,4.70012 8.381346,9.56601 10.044531,10.41815 0.769539,0.39427 1.848907,1.23142 2.398577,1.86034 1.17309,1.34221 5.606491,6.69168 6.740508,8.13332 0.432394,0.54967 0.902349,0.88371 1.044345,0.74231 0.243967,-0.24293 -4.379901,-9.51126 -4.957387,-9.93686 -0.553146,-0.40768 -2.027935,-3.114 -2.027935,-3.7214 0,-1.31609 0.802054,-1.03894 1.617162,0.55881 0.466556,0.91453 1.327958,2.32851 1.914193,3.14219 0.911369,1.26489 1.684489,2.80232 3.729285,7.41601 0.194893,0.43973 0.423329,1.35672 0.507653,2.03774 0.156002,1.2601 4.927697,8.66663 7.955177,12.3479 0.906731,1.10255 4.361618,5.06282 7.677517,8.8006 3.315899,3.73779 7.097613,8.06462 8.403814,9.61522 1.306201,1.55057 3.702209,4.35477 5.324448,6.23154 l 2.949517,3.41229 1.779375,-1.72935 1.779374,-1.72934 z m -4.329149,-12.50313 c -0.273702,-0.32981 -1.108679,-0.59964 -1.855494,-0.59964 -1.249783,0 -1.337809,-0.0798 -1.106261,-1.00233 0.302213,-1.20413 0.07706,-1.56876 -4.477763,-7.25184 -5.412232,-6.7529 -12.350066,-14.71578 -13.742162,-15.77256 -2.015621,-1.53014 -2.701334,-2.32059 -5.686433,-6.55514 -1.549957,-2.19869 -3.379403,-4.65002 -4.065449,-5.4474 -0.686031,-0.79737 -1.60713,-1.92003 -2.046866,-2.49479 -1.644163,-2.14899 -2.021544,-2.53805 -2.927881,-3.01843 -0.822648,-0.43602 -0.954415,-0.39555 -1.150244,0.35335 -0.121629,0.46518 -0.350654,0.79344 -0.508877,0.72949 -0.351846,-0.14218 -6.514173,-7.09579 -8.295314,-9.36044 -1.862339,-2.36787 -3.930509,-5.50024 -5.585157,-8.45905 -0.793789,-1.4194 -2.494294,-3.9983 -3.778934,-5.73088 -1.284625,-1.73258 -2.291453,-3.16051 -2.237408,-3.17318 0.05409,-0.0121 0.751061,-0.092 1.548899,-0.17642 1.377698,-0.14565 1.461614,-0.0855 1.669561,1.19588 0.124197,0.76528 1.090065,2.4717 2.231682,3.94271 1.107002,1.42641 2.129166,3.05736 2.271464,3.62433 0.142328,0.56697 0.381324,1.03085 0.531177,1.03085 0.149882,0 0.797748,0.89946 1.439811,1.9988 0.642048,1.09936 1.309464,1.99882 1.483144,1.99882 0.17368,0 0.315781,0.23385 0.315781,0.51967 0,1.43668 7.952896,10.59436 8.764801,10.09257 0.236368,-0.1461 0.42975,-0.39076 0.42975,-0.54377 0,-0.24278 -2.781095,-4.17511 -5.183964,-7.32989 -1.232785,-1.61854 -1.414095,-2.33882 -0.588743,-2.33882 0.788078,0 0.560036,-0.41414 -0.297333,-0.53997 -0.745591,-0.10939 -2.454571,-1.86226 -2.131069,-2.18577 0.143234,-0.14323 0.610379,0.18651 1.037983,0.7329 0.427589,0.5464 0.672856,0.69682 0.545047,0.33429 -0.127823,-0.36253 -0.06255,-0.76414 0.145048,-0.89246 0.469774,-0.29034 2.475347,2.54075 2.475347,3.49424 0,0.65923 2.180945,3.48869 8.825283,11.44943 1.559838,1.86888 3.796551,4.75139 4.970441,6.40554 2.976608,4.19437 5.33427,6.78663 6.17248,6.78663 0.391402,0 1.182835,0.37065 1.758735,0.82365 0.5759,0.453 1.679533,0.92628 2.452487,1.05172 1.478913,0.23999 1.8758,1.05668 0.727641,1.49727 -0.401239,0.15396 -1.128608,-0.0733 -1.782759,-0.55688 -0.607735,-0.44932 -1.405165,-0.81695 -1.772046,-0.81695 -0.542766,0 -0.46997,0.24209 0.390693,1.29923 0.581762,0.71457 1.819096,2.27142 2.749623,3.45965 2.937853,3.75145 4.032707,5.10635 6.224999,7.70349 1.174011,1.39081 3.51262,4.20412 5.196927,6.25183 2.189119,2.66143 3.385643,3.78907 4.196067,3.95452 0.62354,0.12722 1.221333,0.52068 1.328411,0.87418 0.107124,0.35351 0.358556,0.95046 0.558812,1.32653 0.379315,0.71235 0.117852,1.91469 -0.416287,1.91469 -0.169419,0 -0.531993,-0.26985 -0.80571,-0.59965 z m -5.621419,-1.91388 c -0.783167,-0.70632 -2.492148,-2.62147 -3.797759,-4.25588 -3.244645,-4.06179 -8.544299,-9.62087 -9.171888,-9.62087 -0.460572,0 -1.347932,-0.89933 -3.480059,-3.52696 -1.420411,-1.75053 0.140666,-1.21059 2.359595,0.81609 1.271284,1.16117 2.930208,2.6509 3.686496,3.3105 0.756289,0.65962 1.846127,1.64903 2.421846,2.1987 1.71241,1.63493 8.862089,10.34534 9.761959,11.89296 0.514784,0.88533 -0.31779,0.50438 -1.78019,-0.81454 z m 5.221661,-2.97331 c 0,-0.37933 -0.483054,-1.92092 -1.073444,-3.42574 -0.826969,-2.10781 -1.926749,-3.71648 -4.789509,-7.00575 -2.04383,-2.34834 -4.19294,-4.74763 -4.775805,-5.33177 -0.855707,-0.85755 -1.004865,-1.28074 -0.774677,-2.19786 0.156788,-0.62471 0.16602,-1.01677 0.02055,-0.87127 -0.145501,0.1455 -0.920888,-0.48451 -1.723078,-1.4 -0.80219,-0.91549 -2.63162,-2.92536 -4.065403,-4.46638 -2.390101,-2.56888 -10.217591,-12.07477 -10.966657,-13.3182 -0.200619,-0.333 0.01904,-0.88897 0.592218,-1.4991 1.148159,-1.22217 1.430761,-1.21717 1.669092,0.0296 0.10516,0.54967 0.03611,0.99941 -0.153267,0.99941 -0.726297,0 -0.281529,0.96416 1.354656,2.93657 0.934456,1.12648 1.968828,2.39252 2.298645,2.81343 2.027784,2.58797 5.664193,6.75438 7.542215,8.64146 3.104446,3.11945 5.324131,6.02668 5.08237,6.65668 -0.113772,0.29648 -0.03264,0.53905 0.180373,0.53905 0.212963,0 0.387217,0.27549 0.387217,0.6122 0,0.3367 0.276482,0.71829 0.614428,0.84797 0.337932,0.12963 0.882843,0.75485 1.210923,1.38927 0.328065,0.63442 1.940453,2.63142 3.583074,4.43778 1.642621,1.80636 2.98658,3.51659 2.98658,3.80053 0,0.28393 0.161426,0.8286 0.358736,1.21039 1.030761,1.9946 1.715024,4.11975 1.503768,4.67028 -0.321568,0.83799 -1.062974,0.79018 -1.062974,-0.0686 z m -15.258773,-1.40908 c -0.686756,-0.55318 -4.748699,-6.03774 -5.470509,-7.38646 -0.251975,-0.47083 -0.450026,-1.18269 -0.440114,-1.58192 0.0136,-0.51872 0.155488,-0.41674 0.499705,0.35733 0.264924,0.59575 1.965791,2.69538 3.779719,4.66584 1.813914,1.97046 3.29804,3.77667 3.29804,4.01379 0,0.58237 -0.904932,0.54514 -1.666841,-0.0686 z m 19.037934,-6.43479 c -1.029371,-1.02936 -1.282646,-1.55934 -1.098511,-2.29863 0.402689,-1.61685 1.705657,-3.15952 2.668578,-3.15952 1.082374,0 2.89112,1.80325 3.244614,3.23475 0.192415,0.77918 -0.0076,1.34908 -0.806542,2.29863 -1.356801,1.61246 -2.338896,1.59403 -4.008139,-0.0752 z m -27.31959,-6.89018 c -0.936888,-1.19105 -1.033043,-1.60273 -0.45743,-1.95848 0.373317,-0.23073 1.787322,2.54805 1.462082,2.87329 -0.08778,0.0878 -0.53985,-0.32391 -1.004652,-0.91481 z M 51.030397,266.36197 c -0.345818,-0.4281 -0.388124,-0.61526 -0.09987,-0.44214 0.683522,0.41067 0.634025,-0.33711 -0.06044,-0.9135 -0.308106,-0.25569 -1.063624,-1.45993 -1.678944,-2.67608 -0.61532,-1.21617 -1.423674,-2.37439 -1.796356,-2.57383 -0.372668,-0.19946 -0.870015,-0.91463 -1.105204,-1.5893 -0.668852,-1.91868 -4.643223,-7.36455 -8.890555,-12.18228 -2.132218,-2.41857 -5.604043,-6.35279 -7.715169,-8.74273 -2.111141,-2.38993 -3.838434,-4.49666 -3.838434,-4.68163 0,-1.11381 3.354276,-2.73354 4.122562,-1.99072 0.17865,0.17273 -0.230355,0.42508 -0.908906,0.56078 -2.676571,0.53532 -2.116444,1.49772 5.853253,10.05715 2.251928,2.41856 5.329208,6.01643 6.8384,7.99526 2.908451,3.81352 6.481417,9.09087 6.481417,9.57323 0,0.3565 3.683761,5.16733 4.09757,5.35125 0.431457,0.19175 0.37025,1.26591 -0.07207,1.26591 -0.204578,0 -0.429448,0.38948 -0.499705,0.86549 -0.12314,0.83438 -0.149279,0.8388 -0.727385,0.12314 z m 8.846436,-23.44692 c -1.716641,-1.75582 -1.846398,-2.46986 -0.830323,-4.56881 1.032483,-2.1328 1.564869,-2.42368 3.197972,-1.74723 1.792625,0.74252 2.777605,2.22239 2.777605,4.17314 0,3.2773 -2.86826,4.47187 -5.145254,2.1429 z m 3.546208,-1.52749 c 0,-0.21986 -0.07932,-0.39975 -0.176294,-0.39975 -0.097,0 -0.287467,0.17989 -0.423358,0.39975 -0.135831,0.21987 -0.05651,0.39978 0.176293,0.39978 0.232847,0 0.423359,-0.17991 0.423359,-0.39978 z m 27.699358,34.9363 c 1.805241,-1.45278 3.773238,-3.19548 4.373328,-3.87266 1.31031,-1.47866 1.956,-1.1782 0.753447,0.35061 -1.287163,1.63636 -1.087737,1.90618 1.207916,1.63429 1.129167,-0.13371 2.130677,-0.32079 2.225578,-0.41569 0.09489,-0.0949 -0.317096,-1.13488 -0.915554,-2.31105 -2.285455,-4.49176 -3.472747,-11.6904 -2.568449,-15.57259 0.276301,-1.18618 1.134228,-3.37463 1.906502,-4.86325 2.709473,-5.22264 6.658833,-8.41464 19.485743,-15.74899 6.99644,-4.00052 7.65366,-4.33989 18.38909,-9.49574 4.83713,-2.3231 11.85297,-5.8177 15.59075,-7.76578 13.64066,-7.10934 17.25286,-9.02608 20.42087,-10.83599 1.77708,-1.01526 4.02574,-2.09798 4.99703,-2.40605 0.97128,-0.30806 1.81427,-0.58999 1.87331,-0.6265 0.0591,-0.0366 -0.45575,-1.39726 -1.14396,-3.0239 -2.25362,-5.32667 -5.76051,-9.81275 -8.95746,-11.45856 -3.50935,-1.80665 -8.49295,-2.51231 -12.00767,-1.70025 -3.10546,0.7175 -23.30203,10.70217 -39.53179,19.54352 -3.28158,1.78767 -6.02022,3.25031 -6.08589,3.25031 -0.0657,0 -2.4336,1.32975 -5.26209,2.95501 -7.427947,4.26811 -15.271377,9.6691 -20.715656,14.26481 -2.609471,2.20275 -6.136218,5.18002 -7.837236,6.61616 -1.7927,1.51355 -4.012219,3.9159 -5.280088,5.71501 -1.203036,1.70712 -2.495442,3.35699 -2.872022,3.66641 -1.148311,0.94349 -2.946722,4.05765 -2.946722,5.10257 0,1.17077 2.805375,4.89509 10.628393,14.10992 5.253451,6.1881 6.986757,8.69257 6.728421,9.72189 -0.187595,0.74742 0.176248,1.35729 1.797717,3.01323 1.118092,1.14188 2.032905,2.23781 2.032905,2.4354 0,0.63539 0.373287,0.40599 3.713587,-2.28214 z m 1.278294,-29.08875 c -4.350981,-3.31018 -12.050799,-12.98627 -10.89992,-13.69755 0.256009,-0.15822 0.650932,0.0292 0.886272,0.42044 2.374932,3.94899 8.979427,11.21075 13.017014,14.31245 1.147329,0.88136 1.255268,1.07687 0.599652,1.08618 -0.439736,0.006 -2.061099,-0.94845 -3.603018,-2.12152 z m 20.317667,-14.07496 c -0.26133,-0.11982 -1.95387,-2.05046 -3.76121,-4.2903 -1.80733,-2.23985 -4.21563,-5.06186 -5.35181,-6.27113 -1.13616,-1.2093 -2.3489,-2.65961 -2.69495,-3.22295 -0.62407,-1.01591 -0.61975,-1.02285 0.53012,-0.85409 0.63761,0.0935 1.15928,0.34107 1.15928,0.54999 0,0.20891 1.49175,2.12235 3.31498,4.25207 1.82324,2.12974 4.16342,4.98495 5.2004,6.34493 1.03699,1.35999 2.2477,2.58767 2.69046,2.7282 1.1904,0.37782 2.8928,-0.1035 6.73727,-1.90459 1.89433,-0.88748 6.65336,-3.10558 10.57565,-4.9291 11.32467,-5.26494 15.22016,-7.80335 17.6647,-11.51079 1.7568,-2.66441 1.95663,-3.94968 0.96323,-6.1954 -1.81257,-4.09761 -5.13754,-6.84547 -8.28319,-6.84547 -1.72316,0 -8.76884,2.51635 -12.89131,4.60411 -1.97919,1.00232 -6.08442,1.80575 -5.37756,1.05244 0.55871,-0.59544 5.91845,-3.17696 8.15554,-3.92811 1.00744,-0.33828 2.64122,-0.96532 3.63063,-1.39345 0.98942,-0.42812 2.15872,-0.93449 2.59845,-1.12524 3.62534,-1.57267 8.81948,0.11649 11.61058,3.7758 1.22948,1.61194 2.58101,4.99086 2.58101,6.45268 0,1.46489 -1.02456,3.44288 -2.86832,5.5375 -1.7287,1.96391 -7.39601,6.34308 -9.32152,7.20281 -4.57008,2.0405 -15.36254,6.98253 -18.14089,8.30698 -2.50333,1.19334 -3.96412,1.63138 -5.79656,1.73817 -1.3474,0.0786 -2.66364,0.0447 -2.92498,-0.0751 z m 4.75186,-9.60558 c -1.44136,-0.73822 -2.47777,-2.36344 -2.47777,-3.88541 0,-3.96244 7.36393,-10.37328 14.35171,-12.49423 3.01153,-0.91407 4.7206,-0.74453 6.06695,0.6018 1.42576,1.42576 1.45913,2.3009 0.18084,4.74127 -1.61895,3.09068 -5.72057,7.10107 -10.47885,10.24575 -2.15819,1.42632 -5.68882,1.79163 -7.64288,0.79082 z m 6.98252,-9.3611 c 1.72273,-1.36351 4.07668,-3.01553 5.23099,-3.67116 2.28767,-1.29939 2.90076,-1.9153 1.90654,-1.9153 -2.47291,0 -12.60019,7.54853 -12.60019,9.39177 0,1.05107 1.38118,0.86483 1.8648,-0.25145 0.25608,-0.59113 1.87513,-2.19035 3.59786,-3.55386 z m -20.02831,4.69019 c 0.15019,-0.39426 0.37365,-0.61612 0.49675,-0.49304 0.12314,0.12314 2.4e-4,0.44566 -0.27296,0.71682 -0.39481,0.39189 -0.44072,0.34597 -0.22379,-0.22378 z m -63.649714,40.16521 c -1.94488,-2.15925 -6.312255,-7.19626 -9.705301,-11.19337 -3.393031,-3.99709 -6.316288,-7.26745 -6.496148,-7.26745 -0.882283,0 -0.042,1.39392 2.910989,4.82864 4.974747,5.78637 16.140997,17.55807 16.655025,17.55807 0.09443,0 -1.419686,-1.76665 -3.364565,-3.92589 z M 23.055312,240.56798 c 0.410107,-0.99013 0.406527,-1.40347 -0.01904,-2.19869 -0.740348,-1.38334 -1.455101,-1.21519 -1.760774,0.41421 -0.255088,1.35978 0.258049,3.00384 0.937552,3.00384 0.18545,0 0.564478,-0.54872 0.842275,-1.21936 z m 172.926748,-21.66708 1.85796,-0.89946 -0.21531,-8.79478 c -0.20486,-8.36864 -1.00661,-23.04403 -1.27359,-23.31207 -0.22779,-0.22871 -7.89704,4.51335 -8.08513,4.9992 -0.10139,0.26178 0.53317,2.33055 1.41003,4.59727 2.50446,6.47407 2.96341,8.87711 3.15393,16.51394 0.0932,3.73777 0.24185,7.02082 0.33022,7.29568 0.22434,0.69761 0.69195,0.63136 2.82189,-0.39978 z m 6.15869,-2.82585 2.19869,-1.32344 -0.0693,-10.36797 c -0.0601,-8.99908 -0.68119,-21.64558 -1.08267,-22.04706 -0.17397,-0.17396 -4.88363,2.05338 -5.60136,2.64906 -0.40673,0.33757 -0.46555,0.84826 -0.22407,1.94553 0.35664,1.62044 1.32005,19.76367 1.54901,29.1714 0.0397,1.63553 0.47293,1.63185 3.22972,-0.0275 z m 6.61149,-3.72301 2.64139,-1.45188 -0.22109,-2.84557 c -0.12163,-1.56505 -0.33158,-8.3323 -0.46661,-15.03833 -0.19727,-9.79641 -0.14656,-12.09732 0.25782,-11.70711 0.57123,0.55115 1.10325,10.48151 1.14532,21.37776 0.0151,3.78862 0.19116,6.77467 0.40844,6.90896 0.41232,0.25483 4.51262,-1.91626 5.11369,-2.70766 0.21319,-0.2807 0.2451,-3.46663 0.0769,-7.67563 -0.55064,-13.77679 -0.60277,-22.30471 -0.13734,-22.46322 0.62337,-0.21228 0.96026,5.45413 0.96026,16.1513 0,7.63432 0.35311,12.02017 1.03466,12.85098 0.0645,0.0786 1.13252,-0.43806 2.37348,-1.14807 1.89307,-1.0831 2.21657,-1.42788 2.00953,-2.14166 -0.45108,-1.5551 -0.77531,-28.63427 -0.34286,-28.63427 0.51825,0 0.90847,5.98522 0.95135,14.59134 0.037,7.44171 0.40733,13.16285 0.88263,13.63815 0.16746,0.16746 1.13343,-0.0982 2.14657,-0.59049 l 1.84211,-0.89496 -0.29012,-7.6754 c -0.15957,-4.22147 -0.25973,-8.8447 -0.22258,-10.27385 0.0372,-1.42915 -0.0542,-4.63833 -0.20325,-7.13151 -0.23596,-3.94982 -0.35544,-4.50753 -0.92871,-4.33451 -1.3119,0.3959 -5.12507,2.00087 -8.2534,3.47388 -1.75896,0.82822 -4.00763,1.80408 -4.99705,2.16855 -0.98941,0.3645 -3.68781,1.59903 -5.99644,2.74345 -3.07781,1.52568 -4.18246,2.26877 -4.14109,2.78565 0.48118,6.01287 1.31528,24.7189 1.33666,29.97688 0.003,0.82451 0.0899,1.49912 0.19221,1.49912 0.10244,0 1.37475,-0.65335 2.82751,-1.4519 z m -19.39669,-11.84583 c -1.10442,-8.08175 -4.5029,-14.51045 -9.01786,-17.05853 -2.54923,-1.43869 -5.78058,-2.08437 -5.78058,-1.15505 0,0.35443 0.73532,0.76906 1.89887,1.07071 2.28494,0.5924 5.05993,2.54505 7.02509,4.94326 2.18877,2.6711 5.91924,12.55016 5.32443,14.10019 -0.12888,0.33577 -0.0379,1.10363 0.20194,1.70637 0.729,1.83148 0.87896,0.27761 0.34811,-3.60695 z m 43.96464,-1.89222 2.37371,-1.19825 -0.17655,-7.89636 c -0.2727,-12.19747 -0.6566,-20.88865 -0.92265,-20.88865 -0.13281,0 -1.30409,0.40476 -2.6028,0.89947 l -2.36128,0.89946 0.25682,12.19277 c 0.24489,11.62654 0.53432,17.1898 0.89433,17.1898 0.0907,0 1.23287,-0.53921 2.53842,-1.19824 z m 6.57747,-3.27849 2.59291,-1.27861 -0.002,-6.01706 c -0.003,-7.43271 -0.7028,-21.50968 -1.08719,-21.85474 -0.15604,-0.14006 -1.45149,0.21946 -2.8788,0.79897 l -2.59508,1.05365 0.12193,5.99314 c 0.21715,10.67264 0.46903,17.15025 0.69449,17.86061 0.12133,0.38217 0.0521,1.01645 -0.15352,1.40953 -0.42892,0.81954 -0.15229,3.31313 0.36756,3.31313 0.19075,0 1.51363,-0.57537 2.93974,-1.27862 z m 6.36278,-3.41553 c 1.12911,-0.60298 2.20139,-1.27757 2.38286,-1.49912 0.36282,-0.44297 0.0106,-24.64164 -0.38025,-26.08757 -0.30368,-1.12486 -0.42552,-1.12093 -3.19247,0.10275 l -2.26618,1.0022 0.3559,8.69204 c 0.19575,4.78062 0.30934,10.40102 0.25243,12.48979 -0.10274,3.76925 0.13024,6.3962 0.56719,6.3962 0.12511,0 1.15143,-0.49333 2.28052,-1.09629 z m 6.62645,-3.72049 c 2.21308,-1.15179 2.35184,-1.31143 2.51925,-2.89828 0.19743,-1.87133 -0.43325,-23.7711 -0.70788,-24.58012 -0.12555,-0.3698 -0.93504,-0.12042 -2.88477,0.88851 l -2.71026,1.40256 0.27173,2.90924 c 0.14943,1.60007 0.40497,7.54147 0.5678,13.20311 0.16285,5.66164 0.36492,10.29389 0.44906,10.29389 0.0842,0 1.20692,-0.5485 2.49507,-1.21891 z m 6.45006,-3.47335 c 1.43892,-0.80886 2.01431,-1.40132 2.20526,-2.27068 0.24001,-1.09279 -0.53988,-23.02637 -0.85708,-24.10414 -0.10305,-0.34997 -0.67718,-0.2522 -2.05979,0.35075 -1.05433,0.45978 -2.09928,0.97968 -2.32211,1.15529 -0.26498,0.20884 -0.29389,1.81619 -0.0835,4.64629 0.17687,2.37983 0.31323,8.14971 0.30303,12.82194 -0.0136,5.96036 0.11362,8.49495 0.4244,8.49495 0.24363,0 1.31907,-0.49249 2.38986,-1.0944 z m 6.96573,-4.15124 c 0.77686,-0.6808 0.79284,-1.04709 0.5633,-12.92154 -0.12994,-6.72147 -0.32526,-12.30989 -0.43406,-12.41869 -0.10878,-0.10879 -1.166,0.33165 -2.34934,0.97876 l -2.15152,1.17656 0.0987,6.51984 c 0.0991,6.54726 0.79648,17.8565 1.13512,18.40835 0.19343,0.31517 1.82015,-0.5886 3.13779,-1.74328 z m -74.156,-2.9308 c 3.32046,-1.43467 11.33355,-5.73529 23.38612,-12.55133 8.85278,-5.00646 15.74146,-8.58497 43.37427,-22.53194 13.74184,-6.93585 29.03278,-14.65614 33.97984,-17.15619 4.94706,-2.50005 10.79359,-5.39223 12.99229,-6.42707 2.1987,-1.03484 4.98705,-2.45026 6.19632,-3.14539 6.31334,-3.62911 36.40042,-17.502484 41.5245,-19.147265 2.75325,-0.883765 4.77209,-0.533686 8.55817,1.484065 5.70994,3.04303 10.16175,8.41645 10.64062,12.84347 0.21719,2.00786 0.34056,2.24771 1.14149,2.2194 0.82197,-0.029 0.89471,0.14021 0.85914,1.99882 l -0.0388,2.03055 -0.61503,-1.4991 c -1.23779,-3.017 -1.50262,-1.86245 -1.58226,6.89788 -0.042,4.61616 0.0762,8.39304 0.26255,8.39304 0.97706,0 5.59078,-2.44751 6.29044,-3.337 1.01,-1.28399 1.71843,-6.38812 1.71843,-12.38077 0,-2.3487 0.16024,-4.27037 0.35608,-4.27037 0.53515,0 0.74839,5.64946 0.39168,10.37679 -0.1735,2.29925 -0.23211,4.2638 -0.13024,4.36565 0.38025,0.38024 2.14654,-1.69539 3.30483,-3.88367 2.03072,-3.83639 2.45609,-5.93059 2.29374,-11.29268 -0.12843,-4.24159 -0.27206,-5.06194 -1.22863,-7.01713 -0.59577,-1.2177 -1.93325,-3.23248 -2.97218,-4.477275 -3.54718,-4.250052 -10.6128,-7.2405 -17.13965,-7.254173 -2.85867,-0.006 -4.97034,0.608808 -10.25049,2.984313 -0.66513,0.299252 -2.64849,1.170506 -4.40744,1.936116 -1.75896,0.765626 -5.89651,2.588167 -9.19455,4.050079 -3.29804,1.46192 -7.34565,3.20228 -8.99466,3.86745 -2.92554,1.1801 -8.10862,3.40566 -16.1904,6.952 -2.1987,0.9648 -6.33623,2.77138 -9.19454,4.01464 -13.17499,5.73061 -24.35301,10.72416 -32.38079,14.46547 -12.70925,5.92307 -33.21711,15.39226 -33.97985,15.68967 -0.43974,0.17146 -3.22809,1.42766 -6.19632,2.79156 -2.96824,1.36389 -7.37563,3.38861 -9.79419,4.49936 -14.44918,6.63598 -51.40585,25.10955 -51.1288,25.55783 0.11347,0.18351 0.78025,0.33892 1.48186,0.34533 0.7016,0.006 2.53127,0.52071 4.06592,1.14289 l 2.79028,1.13122 3.20616,-1.09904 c 1.76339,-0.60447 4.73525,-1.7597 6.60415,-2.5672 z m 78.61305,0.69909 2.208,-1.08117 -0.13719,-11.61132 c -0.0754,-6.38621 -0.27438,-11.82473 -0.44212,-12.08558 -0.22666,-0.35243 -0.84216,-0.25688 -2.39588,0.37192 -1.14998,0.4654 -2.15418,0.89206 -2.23157,0.9481 -0.19743,0.14308 -0.0344,9.53234 0.29754,17.14359 0.16311,3.73895 0.12662,6.6038 -0.0878,6.8959 -0.58924,0.80271 0.37096,0.60253 2.78895,-0.58144 z m 6.25579,-3.37475 c 1.90553,-1.09449 2.21411,-1.44486 2.37647,-2.6984 0.36248,-2.79858 0.10954,-21.18263 -0.2969,-21.57205 -0.25741,-0.24669 -1.32502,0.0338 -2.99821,0.78782 l -2.59847,1.17091 0.097,6.4879 c 0.14354,9.59677 0.5411,17.08161 0.90738,17.08161 0.17756,0 1.30829,-0.566 2.51271,-1.25779 z m -68.14573,-0.89328 c 0.0731,-0.37713 -0.0902,-0.95449 -0.36283,-1.28306 -0.70182,-0.84564 -1.33293,-0.0706 -1.00535,1.23457 0.28573,1.13846 1.15088,1.16912 1.36818,0.0485 z m 10.7536,-2.27944 c 0.0511,-0.31158 -0.17244,-0.91393 -0.49679,-1.33852 -0.578,-0.75664 -0.60971,-0.75327 -1.59207,0.16961 -1.27867,1.20125 -1.26117,1.51022 0.097,1.71206 1.5015,0.22314 1.88317,0.11906 1.99183,-0.54315 z m 63.78245,-0.21918 c 1.147,-0.57851 2.21763,-1.2531 2.37916,-1.49911 0.69762,-1.0624 0.10093,-21.3734 -0.65002,-22.12429 -0.0713,-0.0713 -1.2553,0.36946 -2.6311,0.97949 l -2.50144,1.10915 0.24592,2.35727 c 0.13523,1.2965 0.2459,6.37849 0.2459,11.2933 0,5.88252 0.14112,8.93602 0.41306,8.93602 0.22718,0 1.35151,-0.47333 2.49852,-1.05183 z m 8.39389,-5.35143 c -0.0484,-0.5458 -0.16604,-4.68016 -0.26168,-9.1875 -0.0956,-4.50731 -0.30478,-8.82475 -0.46477,-9.5943 -0.23022,-1.10729 -0.18708,-1.3022 0.20681,-0.93432 0.27375,0.25568 0.64723,1.2651 0.82996,2.24318 0.35738,1.91298 0.99476,12.10723 0.88046,14.08201 -0.12254,2.11561 -0.0837,3.55112 0.10078,3.73566 0.0988,0.0988 1.08891,-0.25154 2.20021,-0.77859 l 2.02051,-0.95825 -0.19534,-3.19811 c -0.10743,-1.75895 -0.31656,-6.48116 -0.46469,-10.49377 -0.20034,-5.42701 -0.39734,-7.29568 -0.76911,-7.29568 -0.44152,0 -1.79934,0.48477 -4.39518,1.56912 -1.26332,0.52773 -3.92597,1.53825 -4.74595,1.80115 -0.6119,0.19617 -0.69737,0.47565 -0.46886,1.53299 0.15369,0.7112 0.40779,5.43182 0.56467,10.49029 0.15686,5.05846 0.42612,9.42519 0.59832,9.70383 0.23886,0.38649 0.80375,0.24201 2.38235,-0.60938 1.71063,-0.92258 2.05403,-1.28796 1.98146,-2.10833 z m -61.61573,1.50606 c -0.30114,-0.30114 -0.60489,-0.27705 -1.03792,0.0823 -0.85519,0.70976 -0.35411,1.31625 0.64548,0.78128 0.57874,-0.30972 0.69358,-0.56246 0.39244,-0.8636 z m 4.13766,-2.05664 c 0.7827,-0.60326 0.77807,-0.6165 -0.21987,-0.62895 -1.10936,-0.0136 -1.97883,0.63667 -1.97883,1.48049 0,0.57643 0.6954,0.30711 2.1987,-0.85154 z m 66.37045,-2.68707 1.80004,-0.84611 -0.2034,-3.05157 c -0.1118,-1.67837 -0.31357,-6.24466 -0.44821,-10.14736 l -0.24478,-7.09578 h -1.1728 -1.17279 l 0.0515,-4.49733 c 0.10259,-8.95211 -0.005,-9.4484 -1.84786,-8.60828 -1.17548,0.53559 -1.17698,0.62372 -0.0344,2.01944 0.89349,1.09147 0.89889,1.16476 0.39394,5.35494 -0.28158,2.33658 -0.5981,4.33447 -0.70339,4.43976 -0.10531,0.10531 0.20411,0.51173 0.68755,0.9032 0.84172,0.68157 0.84924,0.74463 0.1776,1.48681 -0.6505,0.71879 -0.67037,1.35275 -0.27369,8.73297 0.47462,8.83079 0.75228,12.15544 1.01515,12.15544 0.0965,0 0.9855,-0.38075 1.97552,-0.84613 z m -59.01653,-0.7187 c 0.66953,-0.42394 0.2666,-1.77398 -0.45823,-1.53527 -0.556,0.18311 -0.94423,1.90435 -0.42734,1.89469 0.18019,-0.003 0.57869,-0.16511 0.88557,-0.35942 z m 65.66493,-12.51925 c -0.0757,-5.55586 -0.20376,-10.1696 -0.28444,-10.25277 -0.0807,-0.0831 -0.96119,0.23166 -1.95665,0.69959 -0.99548,0.46793 -2.00284,0.85078 -2.23857,0.85078 -0.2744,0 -0.34455,0.61133 -0.19499,1.69899 0.22122,1.60872 0.52065,9.88249 0.58529,16.172 l 0.0296,2.87989 2.09875,-0.97346 2.09877,-0.97347 z m -61.04171,10.11193 c 0.42062,-0.68061 -0.44335,-0.79885 -1.32497,-0.18134 -1.04937,0.73501 -0.75837,1.54391 0.3433,0.95432 0.41416,-0.22165 0.8559,-0.56949 0.98167,-0.77298 z m 64.57743,-1.82442 c 0.87074,-0.54967 1.79979,-0.99941 2.06455,-0.99941 0.65567,0 3.92894,-1.60554 3.94397,-1.93453 0.006,-0.14535 0.0189,-2.06308 0.0272,-4.26178 0.0421,-11.16331 -0.19263,-14.9911 -0.91953,-14.9911 -0.22304,0 -1.27336,0.39812 -2.33403,0.88471 -1.8066,0.8288 -1.9137,0.96149 -1.69387,2.09877 0.12903,0.6677 0.47667,1.91125 0.7725,2.7634 0.57012,1.64243 0.75727,10.64553 0.27173,13.07322 -0.50821,2.54102 -0.87592,0.001 -0.90509,-6.2511 -0.0216,-4.64063 -0.16258,-6.19779 -0.61504,-6.79598 -0.3228,-0.42679 -0.59264,-1.10263 -0.59963,-1.50186 -0.008,-0.39922 -0.20118,-1.07801 -0.43154,-1.50842 -0.37549,-0.70161 -0.50372,-0.7231 -1.23955,-0.20771 -0.79238,0.555 -0.81869,0.90989 -0.76129,10.27247 0.0326,5.33369 0.15136,9.84635 0.26373,10.02818 0.29235,0.47302 0.39998,0.43963 2.15592,-0.66886 z m -55.36715,-2.60392 c 0,-0.3268 -0.40476,-0.65166 -0.89946,-0.72192 -0.875,-0.12434 -1.24865,0.64471 -0.61914,1.27422 0.46573,0.46574 1.5186,0.0828 1.5186,-0.5523 z m 65.22826,-1.88047 2.1456,-1.08642 -0.10682,-9.60724 c -0.0683,-6.14341 -0.25097,-9.57494 -0.50661,-9.51765 -1.29795,0.29087 -3.52319,1.26348 -4.01427,1.75455 -0.48056,0.48056 -0.53137,2.10613 -0.31435,10.05819 0.14233,5.21674 0.34705,9.48498 0.45486,9.48498 0.10773,0 1.16154,-0.48889 2.34162,-1.08641 z m -58.33223,-0.41248 c 0.21858,-0.65646 -1.03398,-1.12507 -1.57122,-0.58783 -0.2299,0.22991 -0.29099,0.62354 -0.13568,0.87474 0.35322,0.5715 1.48446,0.38137 1.70696,-0.28691 z m 63.39168,-1.94595 1.35573,-0.6465 0.28739,-9.397 c 0.15807,-5.16836 0.1387,-9.53049 -0.0429,-9.69362 -0.18169,-0.16315 -1.09489,0.0458 -2.02933,0.46432 l -1.69899,0.76094 0.006,8.67972 c 0.005,7.70819 0.17069,10.47865 0.62726,10.47865 0.0769,0 0.74978,-0.29093 1.49543,-0.64651 z m -62.89208,-1.32871 c 0,-0.69258 -0.70364,-0.82072 -1.20295,-0.21907 -0.4111,0.49534 -0.35162,0.59524 0.35446,0.59524 0.46666,0 0.84849,-0.16928 0.84849,-0.37617 z m 11.19335,-0.62324 c 0.27372,-0.3298 0.96135,-0.59965 1.52806,-0.59965 0.76747,0 0.91486,-0.11559 0.57758,-0.45284 -0.26522,-0.26522 -0.75382,-0.32341 -1.1793,-0.14051 -0.39956,0.17182 -1.13122,0.27278 -1.62592,0.22435 -0.54774,-0.0536 -0.89947,0.1316 -0.89947,0.47357 0,1.15787 0.83451,1.41621 1.59905,0.49501 z m 57.12882,-0.358 1.76168,-0.92149 -0.0778,-7.95516 c -0.10954,-11.2023 -0.0969,-11.16037 -2.99702,-9.9486 l -1.44799,0.60501 v 8.9566 c 0,8.44592 0.131,10.24618 0.74236,10.20322 0.14142,-0.0106 1.0498,-0.43274 2.01872,-0.93958 z m -49.29012,-1.60957 c 0.3292,-0.85785 -0.56703,-2.22995 -1.45656,-2.22995 -0.55311,0 -0.78545,0.27201 -0.78545,0.91947 0,1.57832 1.74731,2.59963 2.24201,1.31048 z m 54.11056,-0.62093 c 0.60986,-0.43427 1.60491,-0.97818 2.21119,-1.20868 1.10036,-0.41836 1.10187,-0.42433 0.83664,-3.308 -0.1461,-1.58889 -0.57372,-3.48626 -0.95018,-4.21638 -0.64589,-1.2526 -0.64592,-1.35592 -6.4e-4,-1.83151 0.37613,-0.27721 0.87085,-0.99578 1.09936,-1.59681 0.47352,-1.24545 0.57171,-8.23727 0.11573,-8.23499 -0.16491,8.2e-4 -0.85103,0.33763 -1.52475,0.74847 -1.0721,0.65377 -1.2108,0.94034 -1.11184,2.29713 l 0.11317,1.55018 -0.4451,-1.29923 c -0.32498,-0.94858 -0.68769,-1.29924 -1.34391,-1.29924 -0.49434,0 -1.00801,0.28457 -1.14147,0.63235 -0.66263,1.7268 -0.0692,18.55627 0.65436,18.55627 0.20831,0 0.87772,-0.35531 1.48759,-0.78956 z m -48.35733,-2.23225 c 0,-0.31683 -0.35978,-0.57606 -0.79953,-0.57606 -0.87257,0 -1.10627,1.02264 -0.29981,1.31192 0.67629,0.24259 1.09934,-0.0406 1.09934,-0.73586 z m 57.8228,-1.89903 c 0.0533,-0.0533 0.13221,-1.56488 0.17552,-3.35908 0.0432,-1.79419 0.24171,-4.21809 0.441,-5.38644 0.45325,-2.65708 0.4611,-9.14475 0.0121,-9.59425 -0.18451,-0.1845 -1.3891,-0.001 -2.67689,0.40609 -1.67157,0.5294 -2.43641,0.99834 -2.67348,1.63919 -0.18263,0.49372 -0.45026,4.56213 -0.5947,9.04092 -0.31703,9.83001 -0.32651,9.80344 2.97407,8.34376 1.23528,-0.5463 2.28958,-1.03688 2.34288,-1.09019 z m -61.06962,1.36155 c 0.69838,-0.44234 0.23216,-1.23786 -0.72545,-1.23786 -0.97096,0 -1.86347,1.03901 -1.14139,1.32874 0.7859,0.31533 1.26211,0.29215 1.86684,-0.091 z m -4.75341,-1.84279 c -0.61035,-0.64971 -1.081,-0.86757 -1.33198,-0.61659 -0.54228,0.54228 0.42644,1.62129 1.45559,1.62129 0.79439,0 0.79049,-0.0317 -0.12359,-1.0047 z m 13.7968,0.60493 c 0.13583,-0.21987 -0.0334,-0.39976 -0.37618,-0.39976 -0.34278,0 -0.62323,0.17989 -0.62323,0.39976 0,0.21988 0.16928,0.39977 0.37617,0.39977 0.20689,0 0.48735,-0.17989 0.62324,-0.39977 z m 56.67985,-1.99881 c 1.69002,-0.74928 2.3076,-1.24954 2.46759,-1.99882 0.3412,-1.59799 0.44758,-16.68758 0.11997,-17.01805 -0.16348,-0.16492 -1.40826,0.13553 -2.76617,0.66773 l -2.46894,0.96756 -0.0665,4.79311 c -0.0366,2.6362 -0.20983,6.53498 -0.38505,8.66395 -0.31042,3.7716 -0.15153,5.32781 0.51631,5.0571 0.1807,-0.0733 1.34296,-0.58291 2.58275,-1.13258 z M 284.1521,138.8484 c 0,-0.20887 -0.19339,-0.44424 -0.42975,-0.52302 -0.23636,-0.0787 -0.42975,0.15658 -0.42975,0.52302 0,0.36646 0.19339,0.60181 0.42975,0.52303 0.23636,-0.0787 0.42975,-0.31414 0.42975,-0.52303 z m 73.49716,-1.2318 2.29943,-1.03193 0.28024,-3.95285 c 0.15413,-2.17407 0.16565,-4.13826 0.0255,-4.36487 -0.14006,-0.22661 -0.11287,-0.63689 0.0603,-0.91173 0.47004,-0.74577 0.8293,1.36576 0.88425,5.19693 0.0261,1.82233 0.2201,3.29804 0.4335,3.29804 0.2124,0 1.04128,-0.3124 1.84194,-0.69421 l 1.45574,-0.69419 -0.14702,-8.47103 c -0.0808,-4.65907 -0.27364,-8.59773 -0.42848,-8.75256 -0.15483,-0.15484 -0.87261,-0.008 -1.59505,0.32598 -0.72245,0.33412 -1.71829,0.72959 -2.213,0.87879 -0.83042,0.25046 -0.89993,0.507 -0.90558,3.34252 -0.008,4.14757 -0.66193,5.04951 -0.75485,1.04155 -0.0394,-1.70365 -0.15671,-3.2349 -0.26047,-3.40276 -0.20544,-0.33243 -1.98676,0.0917 -3.27031,0.77862 -0.7591,0.40625 -0.81591,0.91928 -0.98971,8.9386 -0.10138,4.6792 -0.10471,8.73248 -0.008,9.00732 0.25053,0.70637 0.68847,0.63553 3.29057,-0.53222 z m 0.99864,-10.96096 c -0.13583,-0.21987 -0.0565,-0.39976 0.17629,-0.39976 0.23285,0 0.42336,0.17989 0.42336,0.39976 0,0.21986 -0.0793,0.39975 -0.17629,0.39975 -0.097,0 -0.28747,-0.17989 -0.42336,-0.39975 z m -52.12756,10.67518 c -0.51309,-0.51309 -1.0334,-0.11649 -0.65354,0.49811 0.14716,0.23807 0.45067,0.31969 0.6745,0.18135 0.27304,-0.16875 0.26615,-0.39235 -0.021,-0.67946 z m 6.79184,-1.82693 c 2.64216,-0.91205 8.08656,-3.65592 7.8076,-3.93488 -0.21938,-0.21938 -2.71034,0.83593 -7.44152,3.15265 -3.3986,1.66419 -3.49059,1.86076 -0.36608,0.78223 z m 55.30557,-2.52514 c 2.00786,-0.97549 1.79625,-0.30611 2.60374,-8.23631 0.23029,-2.26155 0.4187,-5.54015 0.4187,-7.28578 v -3.17387 l -1.09935,0.44886 c -0.60464,0.24688 -1.99881,0.75979 -3.09816,1.1398 -1.52426,0.52689 -1.97661,0.86879 -1.90528,1.4401 0.0515,0.41206 0.11936,4.30207 0.15079,8.6445 0.0639,8.81749 -0.0757,8.48279 2.92957,7.0227 z m -52.97425,-2.08959 c 0.37108,-0.44711 0.28017,-0.69502 -0.43976,-1.19929 -1.59825,-1.11945 -2.70732,-0.45299 -1.76951,1.06334 0.52175,0.8436 1.56852,0.90801 2.20927,0.13598 z m -7.5656,-0.53949 c 0,-0.38685 -0.36387,-0.9306 -0.8086,-1.20835 -0.6743,-0.42111 -0.84771,-0.40302 -1.04413,0.10878 -0.27552,0.71798 0.508,1.8029 1.30203,1.8029 0.30289,0 0.5507,-0.31652 0.5507,-0.70336 z m 21.00531,-2.92326 c 0.47944,-0.77574 -0.17892,-0.8881 -1.21731,-0.20772 -1.16953,0.76631 -0.99221,1.67413 0.20214,1.03494 0.41414,-0.22166 0.87098,-0.5939 1.01517,-0.82722 z m -4.0379,-1.13409 c 0.27519,-0.44529 -2.01809,-2.43502 -2.8065,-2.43502 -1.06637,0 -0.56934,1.0349 1.01908,2.12193 1.12381,0.76906 1.46831,0.8294 1.78742,0.31309 z m 5.60212,-2.80716 c 0.12646,-0.20468 0.0471,-0.48514 -0.17629,-0.62323 -0.22345,-0.1381 -0.40629,0.0293 -0.40629,0.37213 0,0.7022 0.23989,0.80559 0.58258,0.2511 z m 10.93559,-0.80217 c 0.0999,-0.29981 -0.05,-0.44973 -0.34979,-0.34979 -0.28858,0.0962 -0.6034,0.41101 -0.69958,0.6996 -0.0999,0.29981 0.05,0.44972 0.34979,0.34979 0.28858,-0.0962 0.60338,-0.41102 0.69958,-0.6996 z m -4.93294,-2.00622 c 0.34289,-0.55481 -1.66395,-1.74979 -2.43904,-1.45236 -0.60062,0.23048 -0.59555,0.32023 0.0589,1.04335 0.75781,0.8374 1.98508,1.04827 2.38017,0.40901 z m -10.00109,-0.78817 c 0.12601,-0.20395 -0.19365,-0.8624 -0.71046,-1.46323 -0.99693,-1.15901 -1.87012,-1.04754 -1.87012,0.23874 0,1.15029 2.03086,2.11395 2.58058,1.22449 z m -8.93529,-0.94686 c -0.51309,-0.51309 -1.03341,-0.11649 -0.65355,0.49809 0.14716,0.23809 0.45068,0.3197 0.67452,0.18137 0.27304,-0.16876 0.26613,-0.39236 -0.021,-0.67946 z m 25.78034,-3.72438 c 1.55362,-0.38993 1.10478,-0.88887 -0.73672,-0.81897 -0.93444,0.0355 -1.65401,0.19941 -1.59905,0.36431 0.055,0.1649 0.0999,0.49896 0.0999,0.74236 0,0.24339 0.28654,0.33256 0.63677,0.19817 0.35023,-0.13447 1.0698,-0.35304 1.59905,-0.48587 z m 12.72825,-0.11105 c 0.12103,-0.19583 -0.22182,-0.64555 -0.76186,-0.99941 -1.18888,-0.77898 -1.40981,-0.79837 -1.40981,-0.12374 0,1.10171 1.65569,1.95796 2.17167,1.12309 z m 5.92353,-1.04314 c -0.14747,-0.59013 -1.40376,-0.48591 -1.61026,0.13357 -0.12193,0.36564 0.11906,0.49133 0.76621,0.39976 0.5192,-0.0734 0.89901,-0.31347 0.84405,-0.53334 z m -13.87618,-0.62483 c 0.36077,-0.58376 -0.9695,-1.97362 -1.88901,-1.97362 -0.41257,0 -0.85698,0.27848 -0.98759,0.61884 -0.43965,1.14571 2.22903,2.40255 2.8766,1.35478 z m -12.44124,-0.72091 c 0.1177,-0.19049 -0.1458,-0.67195 -0.58549,-1.06992 -1.0087,-0.91285 -2.04178,-0.22124 -1.19449,0.79967 0.56241,0.67767 1.44533,0.81172 1.77998,0.27025 z m 20.54877,-6.54957 c 1.62573,-1.12894 1.75507,-1.31572 0.98677,-1.42497 -1.03122,-0.14671 -4.61872,1.82932 -4.28922,2.36246 0.40827,0.66059 1.41109,0.3759 3.30245,-0.93749 z m 7.98008,-4.2357 c 0.21404,-0.64211 -1.31523,-0.58046 -1.85919,0.0749 -0.24488,0.29507 -0.3392,0.64252 -0.2096,0.77212 0.3365,0.3365 1.8857,-0.29784 2.06879,-0.84709 z"
       id="path3" /></g><metadata
     id="metadata182"><rdf:RDF><cc:Work
         rdf:about=""><cc:license
           rdf:resource="http://creativecommons.org/licenses/by-sa/4.0/" /><dc:publisher><cc:Agent><dc:title>OpenDataKerala.org</dc:title></cc:Agent></dc:publisher><dc:date>April 2026</dc:date><dc:title>Election Symbols of Kerala</dc:title><dc:creator><cc:Agent><dc:title>Manoj Karingamadathil</dc:title></cc:Agent></dc:creator></cc:Work><cc:License
         rdf:about="http://creativecommons.org/licenses/by-sa/4.0/"><cc:permits
           rdf:resource="http://creativecommons.org/ns#Reproduction" /><cc:permits
           rdf:resource="http://creativecommons.org/ns#Distribution" /><cc:requires
           rdf:resource="http://creativecommons.org/ns#Notice" /><cc:requires
           rdf:resource="http://creativecommons.org/ns#Attribution" /><cc:permits
           rdf:resource="http://creativecommons.org/ns#DerivativeWorks" /><cc:requires
           rdf:resource="http://creativecommons.org/ns#ShareAlike" /></cc:License></rdf:RDF></metadata></svg>
