<?xml version="1.0" encoding="UTF-8" standalone="no"?>
<!-- Created with Inkscape (http://www.inkscape.org/) -->

<svg
   width="1500"
   height="1500"
   viewBox="0 0 396.87499 396.875"
   version="1.1"
   id="svg5"
   xml:space="preserve"
   inkscape:version="1.2.2 (b0a8486541, 2022-12-01)"
   sodipodi:docname="ring.svg"
   inkscape:export-filename="kcm.png"
   inkscape:export-xdpi="96"
   inkscape:export-ydpi="96"
   xmlns:inkscape="http://www.inkscape.org/namespaces/inkscape"
   xmlns:sodipodi="http://sodipodi.sourceforge.net/DTD/sodipodi-0.dtd"
   xmlns="http://www.w3.org/2000/svg"
   xmlns:svg="http://www.w3.org/2000/svg"
   xmlns:rdf="http://www.w3.org/1999/02/22-rdf-syntax-ns#"
   xmlns:cc="http://creativecommons.org/ns#"
   xmlns:dc="http://purl.org/dc/elements/1.1/"><title
     id="title186">Election Symbols of Kerala</title><sodipodi:namedview
     id="namedview7"
     pagecolor="#ffffff"
     bordercolor="#000000"
     borderopacity="0.25"
     inkscape:showpageshadow="2"
     inkscape:pageopacity="0.0"
     inkscape:pagecheckerboard="0"
     inkscape:deskcolor="#d1d1d1"
     inkscape:document-units="mm"
     showgrid="false"
     inkscape:zoom="0.35355339"
     inkscape:cx="-165.46299"
     inkscape:cy="974.39314"
     inkscape:window-width="1854"
     inkscape:window-height="1011"
     inkscape:window-x="0"
     inkscape:window-y="0"
     inkscape:window-maximized="1"
     inkscape:current-layer="layer1" /><defs
     id="defs2"><inkscape:path-effect
       effect="bspline"
       id="path-effect3248"
       is_visible="true"
       lpeversion="1"
       weight="33.333333"
       steps="2"
       helper_size="0"
       apply_no_weight="true"
       apply_with_weight="true"
       only_selected="false" /><inkscape:path-effect
       effect="bspline"
       id="path-effect577"
       is_visible="true"
       lpeversion="1"
       weight="33.333333"
       steps="2"
       helper_size="0"
       apply_no_weight="true"
       apply_with_weight="true"
       only_selected="false" /></defs><g
     inkscape:label="Layer 1"
     inkscape:groupmode="layer"
     id="layer1"><path
       style="fill:#000000;stroke-width:0.37179"
       d="M 167.6044,389.80498 C 144.15883,386.49463 126.21239,381.13767 107.75542,371.94023 82.503604,359.35679 60.737731,340.99981 42.566363,316.96085 32.883895,304.15189 24.572766,288.77166 19.261159,273.8332 15.140535,262.24429 11.91482,247.98571 10.345517,234.42345 9.5404278,227.4657 9.5471446,197.42177 10.355354,190.36632 13.598042,162.05909 22.47913,135.44194 36.406203,112.29039 55.627473,80.338107 82.09045,56.148742 115.55377,39.942942 c 8.39816,-4.067115 14.74143,-6.622061 24.16636,-9.73373 4.29418,-1.417725 8.81143,-3.086586 10.03833,-3.708552 2.84938,-1.444466 5.27326,-3.589377 7.36219,-6.514886 6.07658,-8.510104 13.80271,-10.7601379 25.76124,-7.502273 5.42024,1.476631 7.54829,1.2604 11.86317,-1.205401 7.5647,-4.3229714 10.38465,-4.4668489 17.88717,-0.912685 6.81593,3.228932 7.63592,3.203751 16.62208,-0.5104501 2.32904,-0.9626541 4.06505,-1.4147041 5.99274,-1.5604926 4.14351,-0.3133717 5.99551,0.425281 10.93727,4.3622887 2.25976,1.800303 4.63054,3.387916 5.26841,3.528013 3.90476,0.85763 7.33312,-0.236915 13.1709,-4.204992 2.25921,-1.535635 4.94419,-3.1206197 5.96661,-3.5221811 2.83669,-1.1141197 6.02064,-0.9727716 9.78485,0.4343867 1.70096,0.6358629 3.41671,1.1561204 3.8128,1.1561204 0.3961,0 2.30408,-0.6592028 4.23998,-1.4649111 7.11472,-2.9610606 15.00052,-4.3463681 22.68749,-3.9855151 15.41535,0.7236453 28.6364,6.1926482 40.15333,16.6097652 10.23797,9.260292 15.82915,19.624334 18.22095,33.775057 1.47037,8.699172 1.97958,10.05861 5.94118,15.860981 4.12977,6.0487 4.50681,9.76321 1.72609,17.005213 -2.68845,7.001729 -2.14768,9.779398 3.03038,15.565352 4.05631,4.53252 5.00022,6.0525 5.69335,9.16798 0.74964,3.36942 0.50298,6.61201 -0.83441,10.96946 -1.72745,5.6282 -1.37901,7.30315 2.44288,11.74338 2.87777,3.34339 3.00343,3.74829 3.00343,9.67792 v 5.20683 l -1.48715,3.37947 c -1.95321,4.43851 -1.96726,5.96563 -0.0929,10.11328 l 1.39422,3.08528 0.1186,6.09307 0.1186,6.09308 -1.12818,2.29158 c -0.65553,1.33161 -2.40402,3.68522 -4.17382,5.61832 -4.75688,5.19584 -6.21786,9.20863 -5.74577,15.78169 0.37788,5.26168 -0.73988,22.02916 -2.04472,30.67269 -2.11278,13.99541 -6.09124,29.08586 -10.88011,41.2687 -2.43179,6.18641 -9.7468,20.89182 -13.50746,27.15409 -18.03319,30.02903 -44.55352,54.90301 -74.56081,69.93218 -17.38215,8.70587 -34.73542,14.11397 -56.05964,17.47081 l -6.50633,1.02422 -22.30741,0.0859 c -17.5794,0.0677 -23.09541,-0.0253 -26.0253,-0.43901 z m 34.20468,-11.33356 c 14.86914,-1.17487 34.98847,-5.179 48.49653,-9.65175 16.64045,-5.50994 33.05557,-13.62995 45.34028,-22.42831 15.41493,-11.04024 31.25854,-27.39868 41.46749,-42.81495 16.70853,-25.23112 26.06224,-51.69755 28.65384,-81.07631 0.70364,-7.97653 0.76561,-24.43545 0.0942,-24.99274 -0.25567,-0.21219 -2.72343,-0.82536 -5.4839,-1.36259 -8.86803,-1.72587 -11.12536,-2.47739 -11.92411,-3.96986 -0.7986,-1.49222 0.70255,-2.30908 9.6935,-5.27485 9.47035,-3.12389 13.08297,-4.75282 16.28266,-7.34181 2.71115,-2.19369 3.79624,-4.21646 3.78852,-7.0623 -0.0112,-4.26181 -1.58951,-5.14706 -7.56018,-4.24134 -7.98633,1.21149 -9.7205,1.36825 -13.38087,1.20964 -4.43038,-0.19197 -5.82235,-0.70449 -5.82235,-2.14378 0,-0.55036 0.37191,-1.33507 0.83652,-1.76505 0.4601,-0.42579 4.09899,-2.36678 8.08644,-4.31332 13.4276,-6.55489 17.47414,-10.1421 17.47414,-15.4906 0,-2.28301 -0.59521,-3.62207 -1.91287,-4.30347 -1.55662,-0.80496 -2.81187,-0.64151 -6.26652,0.81599 -1.73811,0.73329 -4.49865,1.8938 -6.13453,2.57889 -4.34962,1.8216 -9.57157,3.1436 -13.40079,3.39259 -2.86431,0.18624 -3.4564,0.12464 -3.99674,-0.41565 -0.34885,-0.34887 -0.63429,-0.7671 -0.63429,-0.9294 0,-0.80999 2.02686,-2.61257 6.54381,-5.81969 7.25254,-5.14947 10.09943,-7.49938 14.96954,-12.35633 4.53768,-4.52541 6.10994,-6.89888 6.58014,-9.93333 0.3341,-2.1561 -0.42876,-4.55386 -1.92484,-6.04993 -1.17398,-1.17398 -1.42102,-1.26336 -3.05705,-1.10616 -1.27427,0.12239 -2.40697,0.59287 -3.98751,1.6561 -9.93028,6.68011 -20.86661,10.68222 -32.88032,12.03244 -4.75772,0.53473 -16.64963,0.51714 -21.30979,-0.0315 -11.16,-1.31389 -21.18046,-4.05677 -29.98753,-8.20844 -17.71119,-8.34908 -33.25582,-24.932537 -40.52189,-43.229936 -1.40738,-3.544018 -3.55089,-12.092863 -4.1428,-16.522446 -1.01144,-7.56923 0.37921,-15.285822 4.1842,-23.21776 1.90469,-3.970549 2.28262,-5.082688 2.28262,-6.717192 0,-2.506186 -0.75019,-3.652288 -3.18468,-4.865446 -3.41758,-1.703063 -5.98629,-1.004978 -10.02977,2.725748 -4.70269,4.33892 -7.84908,9.545968 -11.39475,18.857395 -3.48504,9.152276 -5.29958,12.28803 -6.62629,11.451154 -2.18761,-1.379911 -2.4101,-10.383869 -0.5391,-21.817767 0.96601,-5.903432 1.12885,-7.632745 0.82496,-8.761282 -0.64835,-2.407794 -2.76787,-3.853117 -5.61811,-3.831028 -2.08439,0.01616 -2.84471,0.359645 -5.28572,2.388066 -3.95603,3.287332 -6.85556,8.124561 -10.30469,17.19112 -2.5945,6.820066 -3.0372,7.618271 -4.22522,7.618271 -2.43614,0 -3.76118,-4.63595 -4.28228,-14.982539 -0.31958,-6.345323 -0.49754,-6.89419 -2.78935,-8.603156 -1.60799,-1.199049 -5.10011,-1.063926 -7.40445,0.286505 -3.17456,1.860416 -4.34935,4.19309 -7.09934,14.096426 -1.67979,6.049361 -2.84569,8.483377 -5.25517,10.971028 -1.77053,1.827957 -2.06125,1.990004 -3.37634,1.881973 -2.10132,-0.172642 -2.49094,-1.230821 -2.67867,-7.27518 -0.13982,-4.499871 -0.21286,-4.92622 -0.84451,-4.92622 -0.82829,0 -10.3981,2.924821 -14.83755,4.53479 -12.3579,4.481618 -23.35566,9.90224 -34.76237,17.133831 -29.161621,18.487788 -52.736243,46.857685 -66.598578,80.145225 -6.591807,15.8289 -10.492238,31.28342 -13.010143,51.54958 -0.774035,6.23001 -1.082924,24.22247 -0.542544,31.60215 2.949622,40.28135 18.62686,75.5191 46.129608,103.68556 19.677255,20.15211 40.058647,33.26545 64.832817,41.71328 15.7203,5.36052 27.23883,7.49394 47.82244,8.85752 2.9645,0.19638 15.43613,-0.1311 20.63434,-0.54184 z m -25.46761,-13.0034 C 157.49692,364.12439 141.42233,360.19327 124.9155,352.89154 93.725333,339.09469 66.918758,313.51676 51.60583,282.94194 36.038886,251.85993 31.99254,216.95899 39.730533,180.51388 43.996047,160.42379 51.355355,142.95909 62.760419,125.86073 74.540654,108.19991 94.938195,89.589968 114.81021,78.372498 c 17.19066,-9.703884 36.51051,-15.778974 57.19381,-17.984477 9.83228,-1.048441 17.30962,-0.30969 23.67053,2.338617 10.23322,4.260525 16.99228,11.366266 32.8227,34.506248 5.75873,8.417784 8.19598,11.388864 13.88526,16.926594 5.41372,5.26951 8.92272,7.74529 15.94276,11.24843 6.22935,3.10856 9.31789,4.17858 20.12684,6.97296 9.79052,2.53107 16.79725,4.5882 20.76597,6.09675 9.41702,3.57948 19.53554,11.51226 25.63906,20.10065 7.36691,10.36613 12.03916,23.04958 14.57756,39.57276 0.89595,5.83199 1.00568,7.60114 1.02758,16.56754 0.0253,10.38051 -0.17536,12.93095 -1.86871,23.74759 -4.91415,31.39016 -21.18009,61.11174 -46.2152,84.44571 -21.43589,19.97932 -44.756,32.44931 -72.90926,38.98686 -13.49202,3.13302 -30.03933,4.50249 -43.12764,3.56929 z m 1.30126,-13.53989 C 151.34062,347.28576 128.46039,336.49954 105.51545,317.92585 98.946165,312.60808 86.671457,300.29877 81.752347,294.09576 65.992456,274.22249 56.426563,253.4553 51.577825,228.58794 50.2408,221.73085 49.63238,216.77359 49.305209,210.0712 c -0.22899,-4.69136 -0.32821,-5.38257 -0.533649,-3.7179 -0.37721,3.05664 -0.351747,13.66378 0.04581,19.09955 0.437352,5.97919 1.593697,13.82159 2.971024,20.14965 7.447582,34.21732 28.749012,65.00171 58.932076,85.16742 6.34055,4.2362 17.11122,9.89216 24.35226,12.78802 13.67971,5.47082 30.76496,9.03273 44.05711,9.18495 l 3.34612,0.0384 z m 34.45395,-11.00322 c 17.08549,-1.16374 34.10252,-5.63543 48.87882,-12.84426 11.12871,-5.42929 20.29602,-12.09985 29.13842,-21.20245 18.70954,-19.26008 31.40103,-44.5977 35.89378,-71.6593 3.53092,-21.26811 0.89808,-45.12179 -6.7531,-61.1837 -5.97533,-12.54384 -14.32804,-19.98863 -28.1794,-25.11635 -3.75559,-1.39031 -7.69057,-2.54049 -19.13044,-5.59174 -19.29292,-5.14583 -28.93278,-10.33206 -40.03882,-21.54079 -4.94347,-4.98916 -8.18951,-9.17085 -16.17365,-20.83552 -6.85527,-10.01546 -12.51483,-17.552932 -15.18346,-20.221558 -2.57809,-2.57809 -7.11364,-5.661248 -9.81488,-6.671903 -6.52782,-2.442377 -14.21662,-2.468696 -26.47566,-0.09064 -13.27896,2.575926 -26.73212,7.601971 -38.63033,14.432098 -24.43922,14.029253 -42.864283,35.206253 -53.922391,61.976163 -1.639492,3.96897 -4.803603,13.40324 -5.743887,17.12625 -1.13552,4.49606 -2.93557,14.70945 -3.440104,19.51897 -0.60582,5.77504 -0.610499,22.4741 -0.0084,28.25606 2.385382,22.88816 10.888319,45.48887 24.338512,64.69148 19.48915,27.82431 48.30026,48.31761 79.71853,56.7037 8.80563,2.35037 16.95928,3.61451 28.36027,4.39694 4.07056,0.27935 11.92129,0.21374 17.16571,-0.14347 z M 316.03992,113.20569 c 1.95882,-0.81845 2.61946,-1.5279 4.03155,-4.32942 1.9465,-3.86177 3.72836,-4.86386 9.44752,-5.31307 1.53362,-0.12042 4.64574,-0.40547 6.91581,-0.63335 2.27008,-0.22789 4.58497,-0.2995 5.14424,-0.15913 0.55925,0.14037 1.79708,0.97926 2.75072,1.86419 3.12007,2.89534 4.91569,3.38703 7.7193,2.11379 1.97519,-0.89702 3.0438,-2.44214 3.53803,-5.1157 0.51287,-2.77428 0.90634,-3.487217 3.65961,-6.630854 3.41991,-3.904759 5.98484,-9.855588 5.95235,-13.809894 l -0.0112,-1.433491 -0.79177,1.11537 c -1.54439,2.175545 -7.58101,7.825804 -9.66838,9.049556 -5.00066,2.93172 -10.86091,4.955603 -16.27542,5.620862 -17.34454,2.131029 -40.29824,-4.628727 -54.51498,-16.054433 -6.29712,-5.060865 -12.59975,-12.835084 -15.36243,-18.949365 -2.38766,-5.284305 -4.11857,-12.583879 -4.11857,-17.368821 0,-6.12 1.59327,-12.770726 4.26457,-17.80138 l 1.24361,-2.342004 -2.10346,1.175203 c -11.8934,6.644853 -19.74345,17.572222 -19.75907,27.504801 -0.004,2.276676 0.17652,3.171473 0.95129,4.726205 1.06329,2.133768 2.29108,3.055363 5.57628,4.185642 7.38409,2.540487 8.94482,6.159416 5.92889,13.747405 -1.48731,3.742023 -1.94757,6.154891 -1.34494,7.050925 0.50672,0.753435 2.43247,0.611356 7.10178,-0.52394 4.77904,-1.16198 5.63261,-1.175329 7.51458,-0.117614 1.92509,1.081955 3.26734,3.357001 3.26734,5.537998 0,1.33569 -0.32,2.145038 -1.64687,4.165211 -0.90577,1.379082 -1.75178,2.985131 -1.88003,3.569016 -0.68652,3.125707 4.13739,8.234892 8.98008,9.511172 3.9196,1.033 6.88088,-0.0603 11.33652,-4.1854 4.26168,-3.945551 5.33305,-4.66033 6.98527,-4.66033 2.98715,0 5.22803,2.434634 5.22102,5.67245 -0.004,1.80806 -1.1281,4.54332 -2.74438,6.67731 -0.53344,0.7043 -0.96989,1.63501 -0.96989,2.06823 0,2.9985 9.47349,5.82276 13.66162,4.07285 z m 20.14007,-29.185969 c 11.34527,-1.164243 18.54267,-6.52173 20.85025,-15.520179 1.87663,-7.317996 0.77329,-16.288426 -2.97056,-24.151102 -2.44235,-5.129312 -4.87164,-8.53749 -9.00125,-12.628324 -6.4111,-6.350901 -11.85804,-9.733336 -20.43903,-12.692191 -5.6169,-1.936789 -10.05046,-2.65938 -16.3169,-2.65938 -7.68884,0 -13.25961,1.353424 -19.12274,4.645885 -9.34301,5.246603 -14.40791,15.095025 -12.86548,25.016165 0.59978,3.857811 2.39202,9.172159 4.0169,11.910932 8.2972,13.985121 25.70784,23.825224 46.39938,26.223899 2.39264,0.27737 5.84555,0.224127 9.44943,-0.145705 z M 308.32695,44.036783 c -2.76347,-0.739678 -4.64893,-2.180069 -6.26822,-4.788596 -1.28734,-2.073766 -1.35348,-2.339179 -1.35348,-5.431063 0,-3.188223 0.0285,-3.291898 1.48716,-5.389525 4.57762,-6.583348 14.01766,-5.846171 17.62687,1.376483 3.94346,7.891538 -3.01003,16.50311 -11.49233,14.232701 z"
       id="path5718" /></g><metadata
     id="metadata182"><rdf:RDF><cc:Work
         rdf:about=""><cc:license
           rdf:resource="http://creativecommons.org/licenses/by-sa/4.0/" /><dc:creator><cc:Agent><dc:title>Jameela P</dc:title></cc:Agent></dc:creator><dc:publisher><cc:Agent><dc:title>OpenDataKerala.org</dc:title></cc:Agent></dc:publisher><dc:date>April 2026</dc:date><dc:title>Election Symbols of Kerala</dc:title></cc:Work><cc:License
         rdf:about="http://creativecommons.org/licenses/by-sa/4.0/"><cc:permits
           rdf:resource="http://creativecommons.org/ns#Reproduction" /><cc:permits
           rdf:resource="http://creativecommons.org/ns#Distribution" /><cc:requires
           rdf:resource="http://creativecommons.org/ns#Notice" /><cc:requires
           rdf:resource="http://creativecommons.org/ns#Attribution" /><cc:permits
           rdf:resource="http://creativecommons.org/ns#DerivativeWorks" /><cc:requires
           rdf:resource="http://creativecommons.org/ns#ShareAlike" /></cc:License></rdf:RDF></metadata></svg>
