<?xml version="1.0" encoding="UTF-8" standalone="no"?>
<!-- Created with Inkscape (http://www.inkscape.org/) -->

<svg
   width="1500"
   height="1500"
   viewBox="0 0 396.87499 396.875"
   version="1.1"
   id="svg5"
   xml:space="preserve"
   inkscape:version="1.3 (0e150ed6c4, 2023-07-21)"
   sodipodi:docname="Room cooler.svg"
   inkscape:export-filename="Robot.png"
   inkscape:export-xdpi="96"
   inkscape:export-ydpi="96"
   xmlns:inkscape="http://www.inkscape.org/namespaces/inkscape"
   xmlns:sodipodi="http://sodipodi.sourceforge.net/DTD/sodipodi-0.dtd"
   xmlns="http://www.w3.org/2000/svg"
   xmlns:svg="http://www.w3.org/2000/svg"
   xmlns:rdf="http://www.w3.org/1999/02/22-rdf-syntax-ns#"
   xmlns:cc="http://creativecommons.org/ns#"
   xmlns:dc="http://purl.org/dc/elements/1.1/"><title
     id="title186">Election Symbols of Kerala</title><sodipodi:namedview
     id="namedview7"
     pagecolor="#ffffff"
     bordercolor="#000000"
     borderopacity="0.25"
     inkscape:showpageshadow="2"
     inkscape:pageopacity="0.0"
     inkscape:pagecheckerboard="0"
     inkscape:deskcolor="#d1d1d1"
     inkscape:document-units="mm"
     showgrid="false"
     inkscape:zoom="0.25"
     inkscape:cx="230"
     inkscape:cy="1078"
     inkscape:window-width="1920"
     inkscape:window-height="991"
     inkscape:window-x="-9"
     inkscape:window-y="-9"
     inkscape:window-maximized="1"
     inkscape:current-layer="layer1" /><defs
     id="defs2"><inkscape:path-effect
       effect="bspline"
       id="path-effect3248"
       is_visible="true"
       lpeversion="1"
       weight="33.333333"
       steps="2"
       helper_size="0"
       apply_no_weight="true"
       apply_with_weight="true"
       only_selected="false" /><inkscape:path-effect
       effect="bspline"
       id="path-effect577"
       is_visible="true"
       lpeversion="1"
       weight="33.333333"
       steps="2"
       helper_size="0"
       apply_no_weight="true"
       apply_with_weight="true"
       only_selected="false" /></defs><g
     inkscape:label="Layer 1"
     inkscape:groupmode="layer"
     id="layer1"><path
       style="fill:#000000;stroke-width:1.54435"
       d="m 111.67539,389.58183 c -0.22475,-0.0868 -0.91091,-0.26834 -1.5248,-0.40361 -1.70308,-0.37528 -3.78092,-2.44146 -4.85524,-4.82802 -0.86777,-1.9277 -0.96743,-2.73525 -0.97098,-7.86868 -0.005,-5.97218 0.27529,-7.14821 2.23285,-9.398 0.57179,-0.65716 0.6737,-1.34868 0.52037,-3.53058 l -0.19072,-2.71336 -2.50905,-0.16128 c -4.660054,-0.29955 -8.90108,-3.36945 -10.478214,-7.58477 -0.797208,-2.1307 -0.815925,-3.20501 -0.815925,-46.84335 v -44.66264 l -1.532271,-0.46698 c -2.506646,-0.76393 -4.054777,-1.9454 -5.279692,-4.02931 L 85.11582,255.12476 84.995207,145.61765 C 84.9288,85.388743 84.985941,35.15944 85.12277,33.996979 c 0.316298,-2.692478 2.157083,-5.531544 4.462562,-6.882648 3.399943,-1.992502 10.521098,-3.894505 23.520208,-6.282081 50.93982,-9.356214 129.10373,-8.477326 178.66734,2.008964 12.29684,2.60167 16.25891,4.948584 17.4538,10.33865 0.56778,2.561255 0.54491,218.660586 -0.0235,221.247036 -0.63525,2.89098 -2.2937,4.96452 -4.99095,6.24012 l -2.38222,1.12661 -0.0758,44.26847 c -0.0701,40.90908 -0.12988,44.42654 -0.78827,46.35143 -1.66226,4.86017 -5.67949,7.94114 -10.77763,8.26576 l -2.54124,0.16182 -0.13498,2.7126 c -0.1254,2.51892 -0.0414,2.83724 1.17621,4.45851 0.72118,0.96026 1.40261,2.33932 1.51431,3.06456 0.57061,3.7048 0.61731,5.28825 0.24975,8.4693 -0.7897,6.83461 -3.57436,9.99038 -8.82783,10.00433 -2.05678,0.006 -2.82194,-0.20412 -4.4515,-1.21925 -1.0823,-0.6742 -2.28968,-1.83044 -2.68309,-2.56942 l -0.71527,-1.34362 -0.8808,1.42517 c -1.106,1.78955 -2.96345,2.95148 -5.63358,3.52413 -4.07413,0.87374 -7.62213,-0.95671 -9.44802,-4.87434 -0.93707,-2.01057 -1.08605,-2.92606 -1.2169,-7.47791 -0.16162,-5.62164 0.41957,-8.52417 1.9917,-9.94693 0.63451,-0.57423 0.80034,-1.26145 0.80034,-3.31692 v -2.59263 h -61.84745 -61.84747 l -0.23321,2.55381 c -0.19576,2.14358 -0.10949,2.68597 0.53666,3.37659 1.71752,1.83557 2.1956,3.83168 2.2042,9.20298 0.006,4.02746 -0.15542,5.55604 -0.75721,7.15066 -1.57469,4.17267 -3.89274,5.90459 -7.90718,5.90787 -3.53864,0.003 -6.27966,-1.4922 -7.72222,-4.21204 -0.34876,-0.65757 -0.51292,-0.55969 -1.45897,0.86987 -0.62951,0.95126 -1.79612,1.96427 -2.84917,2.47404 -1.69796,0.82197 -4.95643,1.43642 -5.82999,1.09936 z m 5.00155,-5.24928 c 0.5867,-0.5867 1.3886,-1.91467 1.78199,-2.95102 0.87383,-2.30202 0.66572,-2.44552 -3.1073,-2.14266 -2.28916,0.18377 -2.70028,0.10378 -3.39576,-0.66122 -1.42239,-1.56444 -1.71063,-2.60563 -1.71063,-6.17948 0,-3.72444 -0.28139,-4.04404 -1.50867,-1.71342 -0.5363,1.01846 -0.67391,2.30989 -0.63175,5.92906 0.0613,5.26195 0.50686,7.04557 2.06785,8.27796 1.57101,1.24028 4.99955,0.9455 6.50427,-0.55922 z m 15.47195,0.56583 c 1.64361,-1.00223 2.20719,-3.18327 2.19529,-8.49565 -0.006,-3.0714 -0.19307,-4.41288 -0.79723,-5.74388 -1.23906,-2.72971 -1.64544,-2.1866 -1.64544,2.19909 v 3.93569 l -1.37515,1.29694 c -1.31346,1.23873 -1.4968,1.2892 -4.08539,1.12437 l -2.71024,-0.17258 0.26197,1.37553 c 0.8424,4.42344 4.73923,6.56411 8.15619,4.48049 z m 136.38525,-0.0764 c 1.25733,-0.989 2.06824,-2.4545 2.44103,-4.41142 l 0.26343,-1.38294 -2.83553,0.20288 c -2.79848,0.20024 -2.85321,0.18464 -4.18901,-1.19286 -1.3095,-1.35036 -1.3581,-1.52119 -1.49508,-5.25552 -0.0778,-2.12289 -0.303,-3.85979 -0.50028,-3.85979 -0.19726,0 -0.68516,0.59759 -1.08422,1.32797 -0.91995,1.68377 -1.03471,9.85152 -0.17268,12.28989 1.02859,2.90949 5.18293,4.16132 7.57234,2.28179 z m 16.32566,-0.21402 c 1.33104,-1.33104 1.64428,-2.9024 1.66066,-8.33067 0.009,-3.28721 -0.15042,-4.59485 -0.68598,-5.59247 -1.24677,-2.32265 -1.52195,-2.01403 -1.52195,1.70686 0,5.51763 -0.96227,6.74586 -5.28506,6.74586 -2.37973,0 -2.47852,0.0412 -2.47852,1.03465 0,1.58055 1.00136,3.63277 2.25294,4.61726 1.67865,1.32042 4.64486,1.23156 6.05791,-0.18149 z m -6.57426,-9.14499 2.34951,-0.003 v -6.74205 -6.74203 h -6.94635 -6.94634 v 6.71965 6.71966 l 1.94089,0.1774 c 1.06748,0.0976 3.13606,0.10888 4.59684,0.0253 1.46077,-0.0837 3.71323,-0.15336 5.00545,-0.15503 z m -150.06151,-6.74499 v -6.74204 h -6.94635 -6.94634 v 6.74204 6.74205 h 6.94634 6.94635 z m 155.65546,-8.48389 c -0.12725,-0.17144 -5.0547,-0.18777 -10.95,-0.0363 -9.01641,0.23169 -10.68334,0.36762 -10.49597,0.85591 0.12247,0.31925 0.22274,1.30093 0.22274,2.18149 0,0.88055 0.18387,1.60101 0.40862,1.60101 0.22473,0 0.4086,-0.82743 0.4086,-1.83874 v -1.83874 h 10.01091 10.01091 l 0.0706,2.34951 0.0706,2.34949 0.23719,-2.65595 c 0.1305,-1.46079 0.13313,-2.79623 0.006,-2.96768 z m -172.50193,2.95534 -0.19751,-2.05539 10.46288,0.0391 c 8.39453,0.0314 10.46288,-0.0672 10.46288,-0.49842 0,-0.42757 -2.17026,-0.55977 -10.61711,-0.64667 -5.83941,-0.0601 -10.87068,-0.0124 -11.1806,0.10703 -0.4493,0.17241 -0.46198,0.33856 -0.0626,0.81983 0.31718,0.38218 0.40173,1.13241 0.23049,2.04516 -0.28391,1.51342 -0.0681,2.24488 0.66253,2.24488 0.27789,0 0.36473,-0.74678 0.23898,-2.05538 z m 20.3985,0.53087 c -0.10363,-0.39756 -0.19518,-0.17121 -0.2035,0.50299 -0.008,0.6742 0.0764,0.99949 0.18836,0.72283 0.11197,-0.27664 0.11876,-0.82825 0.0154,-1.22582 z m 129.55318,-8.79579 c 0.10146,-2.10677 3.23391,-41.47172 4.41373,-55.46569 2.13408,-25.31235 2.59008,-30.43313 2.88356,-32.38224 l 0.23069,-1.53227 h -71.5322 -71.53221 l 0.19879,1.12367 c 0.10934,0.61802 0.74284,7.46732 1.40778,15.22067 0.66493,7.75335 1.40114,16.30348 1.63603,19.0003 0.23488,2.69681 0.98357,11.98245 1.66371,20.63474 0.68016,8.65228 1.5959,19.68471 2.03496,24.51651 1.06276,11.69519 1.16546,10.62383 -1.01836,10.62383 -1.73702,0 -1.83007,-0.0607 -2.03551,-1.32798 -0.11845,-0.73038 -0.86564,-9.51037 -1.66053,-19.51106 -2.89028,-36.36303 -5.42426,-66.67802 -5.76366,-68.95271 l -0.19816,-1.32797 H 109.40952 96.761159 l 0.0093,42.39315 c 0.0093,40.44155 0.04386,42.46838 0.768066,44.02757 0.996768,2.14618 2.234439,3.39547 4.287665,4.32791 1.61792,0.73477 4.47099,0.76197 80.5388,0.76779 l 78.86147,0.006 z m -66.78239,-17.03614 c -0.71605,-0.43661 -1.4975,-1.15933 -1.73658,-1.60605 -0.29494,-0.55108 -0.43469,-9.73428 -0.43469,-28.56404 v -27.75181 l 0.93163,-1.38246 c 2.28018,-3.38355 6.40114,-3.15427 8.27023,0.46017 0.92009,1.77926 0.90596,55.42171 -0.0154,57.20279 -1.21534,2.35019 -4.567,3.13436 -7.01552,1.6414 z m 3.97748,-3.81434 c 0.0108,-0.27301 0.003,-12.44819 -0.0175,-27.05595 -0.0312,-22.24491 -0.13049,-26.65342 -0.61202,-27.13737 -0.4711,-0.47351 -0.6892,-0.48293 -1.2083,-0.0521 -0.56048,0.46516 -0.63342,3.63961 -0.63342,27.56642 0,19.87715 0.12479,27.16554 0.47122,27.51192 0.55125,0.55127 1.96869,-0.0389 2.00005,-0.8329 z m 94.75482,22.07836 c 0.95712,-0.50613 2.31911,-1.71935 3.02669,-2.69603 l 1.28647,-1.7758 0.10949,-43.06813 0.1095,-43.06812 h -12.67417 c -12.15874,0 -12.67418,0.0315 -12.67418,0.77276 0,0.42502 -0.81817,9.75662 -1.81816,20.73689 -1,10.98026 -2.38072,27.31907 -3.0683,36.30847 -1.42758,18.66429 -2.39199,30.45443 -2.64882,32.38222 l -0.1769,1.32799 h 13.39413 c 13.10644,0 13.43149,-0.0198 15.13432,-0.92025 z m 4.92606,-94.08207 c 0,-0.54452 -11.38877,-0.60211 -100.99443,-0.51076 -80.35897,0.082 -101.029215,0.20733 -101.164685,0.61372 -0.135903,0.40769 20.244295,0.51076 100.994435,0.51076 89.71138,0 101.16468,-0.0695 101.16468,-0.61372 z M 136.8783,257.97965 c 0.11537,-0.11536 0.0604,-1.17261 -0.12215,-2.34949 -0.42456,-2.73781 -3.52647,-25.18782 -5.88494,-42.59206 -1.00498,-7.41625 -1.82786,-14.13532 -1.82862,-14.93129 -0.001,-1.18158 -0.34565,-1.78156 -1.87707,-3.26887 -2.49609,-2.42415 -7.8394,-9.32706 -10.33728,-13.35446 -6.30872,-10.17175 -10.41114,-21.93203 -11.91835,-34.16592 -0.70087,-5.68898 -0.27211,-18.87079 0.77964,-23.96905 2.21291,-10.7269 5.68607,-19.82269 10.69236,-28.002015 1.53621,-2.509873 1.59502,-2.721016 1.00751,-3.61768 -0.34317,-0.523735 -2.11131,-4.150342 -3.9292,-8.059116 -1.81789,-3.908775 -4.58722,-9.864984 -6.15404,-13.236001 C 103.2823,61.776363 98.73814,51.481526 94.275145,40.911733 92.16379,35.911383 90.325986,31.82019 90.191149,31.82019 c -1.194074,0 -1.225224,2.910462 -1.201765,112.26937 0.02178,101.58387 0.07583,110.20653 0.697999,111.25968 0.755942,1.27969 1.818855,1.94997 3.85429,2.4305 1.496874,0.35339 42.991717,0.5448 43.336597,0.19991 z m 117.12446,-1.42474 c 0.0724,-0.78656 0.95024,-7.13022 1.95079,-14.09699 2.67439,-18.6214 5.53721,-40.27128 5.38541,-40.7267 -0.0727,-0.21829 -1.5989,0.83454 -3.39143,2.33963 -13.09846,10.99805 -31.67818,18.738 -50.04481,20.84766 -6.94961,0.79825 -18.7495,0.60561 -24.73131,-0.40377 -19.11578,-3.22561 -36.83251,-11.35578 -48.54344,-22.27651 l -1.56393,-1.45839 0.23351,1.43013 c 0.12849,0.78657 0.61036,4.37211 1.07096,7.96788 0.4606,3.59575 1.92456,14.35238 3.25326,23.90359 2.4348,17.50247 3.26912,23.61087 3.26912,23.93461 0,0.0968 25.42056,0.12957 56.49016,0.0726 l 56.49013,-0.10363 z m 48.7151,0.70847 c 0.79645,-0.39691 1.76179,-1.25273 2.14519,-1.90178 0.65244,-1.10447 0.69712,-8.22912 0.69712,-111.14807 0,-100.233502 -0.0584,-110.102424 -0.65853,-111.487101 -0.44333,-1.02276 -0.73002,-1.318873 -0.87734,-0.906239 -1.37027,3.838013 -10.75016,25.579091 -14.2202,32.960176 -0.82786,1.760927 -2.56783,5.500102 -3.8666,8.309285 -1.29878,2.809184 -3.90936,8.325408 -5.80129,12.258259 l -3.43987,7.150654 1.56589,2.655954 c 5.83492,9.896762 9.62058,20.903542 11.17265,32.484392 1.19611,8.92471 0.35274,21.89199 -2.03296,31.25855 -3.24879,12.75503 -9.64161,24.52265 -19.16361,35.27548 l -2.38583,2.69422 -0.74988,6.45103 c -0.41243,3.54808 -2.23482,17.11726 -4.04976,30.15375 -1.81493,13.03648 -3.29988,23.93715 -3.29988,24.22371 0,0.41719 4.33538,0.49792 21.7584,0.4052 19.83746,-0.10563 21.88627,-0.17951 23.2065,-0.83747 z m -97.2219,-36.06686 c 3.45869,-0.34467 8.49502,-1.07978 11.19184,-1.63356 18.31917,-3.76182 35.59275,-13.51783 47.7259,-26.95529 10.37178,-11.48675 16.43895,-22.60247 19.62631,-35.95756 1.75005,-7.33278 2.08471,-10.50981 2.06601,-19.61321 -0.0159,-7.7229 -0.1288,-9.11184 -1.12909,-13.89269 -4.62929,-22.12417 -16.41951,-39.350207 -35.79167,-52.293168 -15.23658,-10.179891 -32.96435,-15.411708 -52.11068,-15.378891 -13.39774,0.02301 -24.84027,2.347378 -37.69275,7.656845 -12.0108,4.961772 -23.64962,13.654503 -32.64127,24.378932 -15.85024,18.904722 -21.81214,43.011162 -16.66564,67.386232 2.9706,14.0695 10.1983,27.32893 20.97621,38.48146 8.12319,8.40553 15.65672,14.02141 24.75397,18.45286 11.28449,5.49689 22.34276,8.57304 34.32313,9.54788 6.37556,0.51876 8.621,0.49249 15.36773,-0.17984 z m -12.71178,-9.42546 c -0.78657,-0.0871 -3.41767,-0.35032 -5.84688,-0.58485 -10.31893,-0.99627 -22.66676,-5.19975 -32.14203,-10.94187 -9.39485,-5.69339 -18.72228,-14.77659 -24.66385,-24.01805 -8.21993,-12.7852 -12.34913,-29.26824 -10.92085,-43.59415 0.98104,-9.84006 2.70387,-16.22325 6.54344,-24.24382 7.2949,-15.238489 19.91103,-27.701544 35.77162,-35.337617 19.27046,-9.27773 42.33216,-10.669589 62.51712,-3.77315 12.26256,4.189661 25.60913,12.958528 33.52428,22.025871 11.4548,13.122246 17.35279,27.539576 18.04049,44.099046 0.8355,20.11874 -6.82719,39.24621 -21.52577,53.73224 -11.85677,11.6853 -27.51291,19.29717 -44.91807,21.83872 -4.07293,0.59473 -13.89375,1.07298 -16.3795,0.79763 z m 15.44109,-5.08086 c 5.19799,-0.55425 11.3413,-2.09582 17.65622,-4.43058 l 5.1076,-1.88838 -16.8551,-0.10671 c -9.2703,-0.0587 -24.43864,-0.0587 -33.7074,0 l -16.85229,0.10671 4.49189,1.72901 c 5.65962,2.1785 10.84734,3.63562 15.53993,4.36485 4.43787,0.68961 19.01281,0.82289 24.61915,0.2251 z m 34.26408,-13.31804 c 1.76532,-1.26505 3.72942,-2.73604 4.36468,-3.26887 l 1.15502,-0.96879 -50.59665,0.009 -50.59668,0.009 1.02152,0.83549 c 0.56184,0.45952 2.46247,1.92642 4.22362,3.25978 l 3.2021,2.4243 h 42.00837 42.00836 z m 12.64833,-11.60686 c 1.31695,-1.58098 2.51948,-3.09795 2.6723,-3.37104 0.21749,-0.38862 -12.89917,-0.49677 -60.36406,-0.49769 -35.52327,-7.1e-4 -60.5914,0.15026 -60.51996,0.36465 0.067,0.20123 1.21647,1.71206 2.5542,3.35744 l 2.43225,2.99157 55.41542,0.0154 55.41542,0.0155 z m 6.2297,-8.73187 c 0.56,-0.3461 3.33193,-5.25524 3.33193,-5.90091 0,-0.35435 -16.75114,-0.4715 -67.42042,-0.4715 -37.08125,0 -67.42043,0.14177 -67.42043,0.315 0,0.17326 0.81327,1.70431 1.80725,3.40234 l 1.80726,3.08733 63.72133,-0.0766 c 35.04673,-0.0422 63.92463,-0.20218 64.17308,-0.35574 z m 6.62728,-13.62521 c 0.50067,-1.51696 0.99502,-2.98795 1.09855,-3.26887 0.15011,-0.40738 -14.36438,-0.51076 -71.71473,-0.51076 h -71.90294 l 0.93164,2.84427 c 0.5124,1.56435 1.04972,3.03534 1.19404,3.26887 0.17989,0.29103 22.15877,0.42461 69.87278,0.42461 h 69.61034 z m 2.59356,-9.90876 c 0.13204,-0.89894 0.34831,-2.36993 0.48044,-3.26886 l 0.24021,-1.63445 h -73.84845 -73.84843 l 0.2706,2.91162 c 0.14887,1.6014 0.36996,3.07239 0.49139,3.26888 0.12463,0.20177 31.93819,0.35725 73.09741,0.35725 h 72.8766 z m 1.05185,-11.9518 c -0.003,-1.40459 -0.1044,-2.92155 -0.22526,-3.37102 -0.21875,-0.81384 -0.52554,-0.81683 -74.05472,-0.72345 l -73.83506,0.0937 -0.11861,3.27725 -0.11876,3.27726 h 74.17899 74.17898 z m -0.99593,-10.41951 c -0.15243,-1.0675 -0.45633,-2.63094 -0.67538,-3.47431 l -0.39825,-1.53341 -72.20426,0.10332 -72.20425,0.10331 -0.66465,3.1503 c -0.36556,1.73265 -0.56534,3.24962 -0.44394,3.37102 0.12139,0.12139 33.21632,0.22073 73.54428,0.22073 h 73.32353 z m -2.84721,-10.53545 c -0.14285,-0.5694 -0.70434,-2.04039 -1.24763,-3.26886 l -0.98781,-2.23359 h -68.2164 c -64.58527,0 -68.23183,0.0382 -68.50604,0.71507 -0.15928,0.39328 -0.72901,1.86427 -1.26603,3.26887 l -0.97641,2.55379 h 70.73009 70.73007 z m -4.73205,-10.33345 c 0,-0.18496 -0.84431,-1.65595 -1.87624,-3.26885 l -1.87623,-2.93258 h -61.82922 -61.82923 l -1.87623,2.93258 c -1.03191,1.6129 -1.87622,3.08389 -1.87622,3.26885 0,0.18497 29.51175,0.3363 65.58168,0.3363 36.06992,0 65.58169,-0.15134 65.58169,-0.3363 z m -7.76357,-11.012797 c 0,-0.174187 -1.34094,-1.648684 -2.97988,-3.276689 l -2.97988,-2.959989 -52.08013,-0.01081 -52.08013,-0.01081 -2.75811,2.952592 c -1.51697,1.623912 -2.75811,3.103181 -2.75811,3.287267 0,0.184086 26.01816,0.334707 57.81812,0.334707 31.79997,0 57.81812,-0.142544 57.81812,-0.316684 z M 242.02152,83.126505 c -0.6742,-0.54534 -2.9857,-2.013474 -5.13668,-3.262527 l -3.91086,-2.271009 -35.62986,-0.01235 -35.62985,-0.01235 -3.77181,2.228896 c -2.07447,1.225887 -4.40509,2.700816 -5.17915,3.27763 l -1.40736,1.04872 45.9457,-0.0015 45.9457,-0.0015 z M 220.35848,72.670052 c -0.26802,-0.433653 -8.22652,-2.318961 -11.84286,-2.805462 -10.04763,-1.351721 -20.67834,-0.779231 -30.84995,1.661348 -1.91025,0.458331 -3.64744,0.997278 -3.86045,1.197626 -0.22701,0.213537 9.36691,0.345594 23.18419,0.319139 12.96431,-0.02486 23.48039,-0.192534 23.36907,-0.372651 z M 122.7078,86.277917 c 2.58419,-3.449471 9.28661,-10.236678 13.27979,-13.447809 13.65694,-10.982288 28.54646,-17.313541 48.01151,-20.41524 6.33392,-1.009293 20.31537,-1.018482 26.76387,-0.01761 24.71118,3.835496 46.02701,15.368931 60.05307,32.493151 1.67871,2.049504 3.15736,3.726356 3.28591,3.726356 0.62753,0 13.82183,-28.585518 22.71886,-49.220535 3.08346,-7.151503 4.08655,-9.877137 3.72207,-10.11384 -1.59904,-1.038496 -11.47796,-3.361457 -20.65865,-4.857729 -8.19871,-1.336247 -20.2686,-2.79876 -20.54382,-2.489334 -0.13822,0.155392 -1.83964,4.005636 -3.78098,8.556071 -1.94135,4.550451 -4.78493,10.802156 -6.31907,13.892689 -2.32939,4.692562 -3.06797,5.815565 -4.47901,6.810186 -2.40856,1.697764 -5.01289,1.83396 -9.91551,0.518531 -9.24005,-2.479219 -18.43968,-3.790694 -30.8249,-4.394302 -9.92734,-0.483814 -16.89173,-0.244378 -26.35527,0.906099 -7.47089,0.908231 -10.26148,1.433247 -17.11944,3.220783 -5.98366,1.559652 -7.51044,1.558726 -9.97782,-0.0062 -1.79565,-1.138771 -2.13732,-1.661703 -5.1393,-7.865717 -3.39032,-7.006597 -9.44152,-20.837867 -9.44152,-21.580575 0,-1.376121 -30.26602,3.556015 -39.303602,6.404873 l -3.141728,0.990359 0.641506,1.522403 c 8.618074,20.452088 12.507594,29.233959 21.260094,48.001612 2.59398,5.5622 4.82985,10.108496 4.96861,10.10289 0.13868,-0.0062 1.17167,-1.237377 2.29533,-2.737294 z M 241.8053,48.783613 c 0.64534,-0.333718 1.52178,-1.115174 1.94768,-1.736588 1.61848,-2.361478 11.80341,-25.323193 11.40784,-25.718746 -0.25437,-0.25437 -13.54135,-1.555545 -22.9459,-2.247057 -11.1934,-0.82306 -64.7909,-0.685428 -75.18399,0.193059 -14.64355,1.237764 -17.36587,1.584176 -17.36587,2.209776 0,1.412676 11.82747,26.209988 12.83929,26.918689 0.98568,0.6904 2.6129,0.743974 4.19352,0.138064 2.20101,-0.843739 15.08254,-3.603611 21.1721,-4.53615 5.36193,-0.821099 7.63797,-0.937712 18.18309,-0.931612 13.3427,0.0077 19.37562,0.544212 29.82843,2.652664 4.50989,0.909698 11.71937,2.696554 14.62806,3.625557 0.0673,0.02147 0.65043,-0.233938 1.29575,-0.567641 z M 165.45927,38.587166 c -4.38447,-1.426406 -6.8549,-6.462832 -5.23054,-10.66335 1.56265,-4.040893 6.26806,-6.556048 10.34478,-5.529521 8.15544,2.053566 9.69631,11.910905 2.44318,15.629694 -2.05979,1.056086 -5.30013,1.297545 -7.55742,0.563177 z m 5.38906,-3.549173 c 1.62484,-0.836836 2.71547,-2.105255 2.96811,-3.451942 0.76185,-4.061001 -3.50858,-7.095366 -7.39216,-5.252496 -1.70951,0.811231 -3.05609,2.705589 -3.05839,4.302537 -0.002,1.334456 1.54064,3.665664 2.871,4.338829 1.26087,0.638017 3.43733,0.667776 4.61144,0.06301 z m 24.68068,3.699932 c -3.52577,-0.850318 -5.8473,-2.954507 -6.6427,-6.02084 -1.4084,-5.429524 2.08167,-10.059494 7.98644,-10.594919 4.34794,-0.394257 8.29769,2.283519 9.38281,6.361183 1.58586,5.959298 -4.48233,11.760485 -10.72655,10.254576 z m 4.11222,-3.865116 c 4.28703,-1.715322 3.80127,-7.962162 -0.71368,-9.177919 -6.02828,-1.623248 -9.2224,6.740043 -3.52205,9.221979 1.6468,0.71701 2.35195,0.709674 4.23573,-0.04401 z m 24.0439,3.702048 c -1.79748,-0.640719 -4.10512,-2.696755 -5.04699,-4.496723 -1.4187,-2.711241 -0.46735,-7.226465 1.99383,-9.462959 4.14142,-3.763328 11.37463,-2.886957 14.06519,1.704126 1.19647,2.041612 1.35246,5.640915 0.33228,7.666373 -2.12111,4.21122 -6.93798,6.159816 -11.34431,4.589183 z m 6.21515,-3.990547 c 1.96795,-1.006174 2.77545,-4.638047 1.47314,-6.625638 -0.66708,-1.01808 -3.2698,-2.267612 -4.72337,-2.267612 -1.41171,0 -3.41817,1.167496 -4.15753,2.419144 -1.28695,2.178626 -0.55866,5.550941 1.42845,6.61441 2.20392,1.179495 3.4554,1.150137 5.97931,-0.140227 z"
       id="path1" /></g><metadata
     id="metadata182"><rdf:RDF><cc:Work
         rdf:about=""><cc:license
           rdf:resource="http://creativecommons.org/licenses/by-sa/4.0/" /><dc:publisher><cc:Agent><dc:title>OpenDataKerala.org</dc:title></cc:Agent></dc:publisher><dc:date>April 2026</dc:date><dc:title>Election Symbols of Kerala</dc:title><dc:creator><cc:Agent><dc:title>Manoj Karingamadathil</dc:title></cc:Agent></dc:creator></cc:Work><cc:License
         rdf:about="http://creativecommons.org/licenses/by-sa/4.0/"><cc:permits
           rdf:resource="http://creativecommons.org/ns#Reproduction" /><cc:permits
           rdf:resource="http://creativecommons.org/ns#Distribution" /><cc:requires
           rdf:resource="http://creativecommons.org/ns#Notice" /><cc:requires
           rdf:resource="http://creativecommons.org/ns#Attribution" /><cc:permits
           rdf:resource="http://creativecommons.org/ns#DerivativeWorks" /><cc:requires
           rdf:resource="http://creativecommons.org/ns#ShareAlike" /></cc:License></rdf:RDF></metadata></svg>
