<?xml version="1.0" encoding="UTF-8" standalone="no"?>
<!-- Created with Inkscape (http://www.inkscape.org/) -->

<svg
   width="1500"
   height="1500"
   viewBox="0 0 396.87499 396.875"
   version="1.1"
   id="svg5"
   xml:space="preserve"
   inkscape:version="1.3 (0e150ed6c4, 2023-07-21)"
   sodipodi:docname="Ship.svg"
   inkscape:export-filename="Spade and Stoker.png"
   inkscape:export-xdpi="96"
   inkscape:export-ydpi="96"
   xmlns:inkscape="http://www.inkscape.org/namespaces/inkscape"
   xmlns:sodipodi="http://sodipodi.sourceforge.net/DTD/sodipodi-0.dtd"
   xmlns="http://www.w3.org/2000/svg"
   xmlns:svg="http://www.w3.org/2000/svg"
   xmlns:rdf="http://www.w3.org/1999/02/22-rdf-syntax-ns#"
   xmlns:cc="http://creativecommons.org/ns#"
   xmlns:dc="http://purl.org/dc/elements/1.1/"><title
     id="title186">Election Symbols of Kerala</title><sodipodi:namedview
     id="namedview7"
     pagecolor="#ffffff"
     bordercolor="#000000"
     borderopacity="0.25"
     inkscape:showpageshadow="2"
     inkscape:pageopacity="0.0"
     inkscape:pagecheckerboard="0"
     inkscape:deskcolor="#d1d1d1"
     inkscape:document-units="mm"
     showgrid="false"
     inkscape:zoom="0.25"
     inkscape:cx="230"
     inkscape:cy="1082"
     inkscape:window-width="1920"
     inkscape:window-height="991"
     inkscape:window-x="-9"
     inkscape:window-y="-9"
     inkscape:window-maximized="1"
     inkscape:current-layer="layer1" /><defs
     id="defs2"><inkscape:path-effect
       effect="bspline"
       id="path-effect3248"
       is_visible="true"
       lpeversion="1"
       weight="33.333333"
       steps="2"
       helper_size="0"
       apply_no_weight="true"
       apply_with_weight="true"
       only_selected="false" /><inkscape:path-effect
       effect="bspline"
       id="path-effect577"
       is_visible="true"
       lpeversion="1"
       weight="33.333333"
       steps="2"
       helper_size="0"
       apply_no_weight="true"
       apply_with_weight="true"
       only_selected="false" /></defs><g
     inkscape:label="Layer 1"
     inkscape:groupmode="layer"
     id="layer1"><path
       style="fill:#000000;stroke-width:1.47999"
       d="m 174.24307,315.65775 c -3.91769,-0.52719 -5.42946,-0.88965 -5.97157,-1.43176 -0.6513,-0.65129 -0.66659,-0.8105 -0.14884,-1.54969 0.4266,-0.60906 1.16665,-0.88887 2.83892,-1.07339 1.24404,-0.13735 4.4037,-0.5435 7.02144,-0.90274 3.93832,-0.54046 5.0401,-0.5691 6.38564,-0.16597 2.97278,0.89066 4.06451,3.08177 2.33727,4.69094 -1.54771,1.44191 -4.2623,1.53614 -12.46286,0.43261 z m -69.93801,0.14208 c -6.284723,-0.54394 -8.369273,-1.45013 -7.874113,-3.423 0.38682,-1.54124 2.37431,-1.84837 11.124963,-1.71915 7.1863,0.10611 7.87308,0.054 10.04936,-0.76261 3.17291,-1.19055 5.44177,-1.16184 6.68827,0.0847 1.16717,1.16717 1.18054,1.3954 0.1579,2.69547 -1.84755,2.34878 -11.61227,3.86326 -20.14638,3.12464 z m 90.91227,0.006 c -0.49995,-0.49994 -0.25316,-2.29238 0.4815,-3.49717 1.63578,-2.68252 5.81175,-6.0128 9.11224,-7.26689 3.26101,-1.23908 5.80848,-0.78793 5.80848,1.02864 0,0.8004 -0.53881,1.19717 -3.62214,2.66729 -2.48125,1.18307 -4.63728,2.60929 -6.84512,4.52811 -2.95694,2.56984 -4.24313,3.23185 -4.93496,2.54002 z M 79.477221,313.87994 c -4.277145,-1.15011 -7.427564,-3.51611 -6.813292,-5.11688 0.394861,-1.02899 2.107253,-1.03318 5.537587,-0.0133 1.865483,0.5545 4.570135,1.094 6.010335,1.1989 1.440201,0.10494 2.979974,0.38417 3.421719,0.62058 1.153587,0.61739 1.458342,2.21823 0.602347,3.1641 -0.578361,0.63907 -1.191723,0.76307 -3.668543,0.74161 -1.635739,-0.0148 -3.926307,-0.28182 -5.090153,-0.59477 z m 75.146119,0.34274 c -1.00921,-0.37108 -1.95791,-1.38109 -1.95791,-2.08443 0,-1.18996 1.14873,-1.73753 3.53021,-1.68278 3.64671,0.0838 5.52756,1.96704 3.43114,3.43544 -0.84385,0.59105 -3.77051,0.7851 -5.00344,0.33177 z m -19.28541,-1.5125 c -1.1503,-0.62404 -1.44394,-1.99339 -0.60696,-2.83037 0.58078,-0.58078 5.549,-0.62932 6.60433,-0.0645 1.02748,0.54989 0.96538,2.14562 -0.11293,2.90088 -1.10785,0.77596 -4.44941,0.77256 -5.88449,-0.006 z m 111.83099,-5.81586 c -5.95856,-0.85517 -7.18072,-1.39556 -7.18072,-3.17509 0,-1.71626 0.77718,-1.89511 8.74687,-2.01272 4.12707,-0.061 7.92379,-0.13187 8.43715,-0.15765 1.36812,-0.0688 2.77288,0.81718 3.05067,1.92396 0.79437,3.16508 -4.73764,4.61504 -13.05397,3.4215 z m 59.97558,-1.25002 c -4.82803,-0.28995 -9.6452,-0.96029 -11.1087,-1.54587 -2.94741,-1.17932 -2.96964,-4.04158 -0.0382,-4.91986 1.34592,-0.40325 2.18045,-0.37393 5.01036,0.17603 1.8675,0.36293 6.35501,0.96175 9.97222,1.33071 6.18478,0.63086 6.88779,0.63149 11.79575,0.0104 2.87045,-0.36317 7.97726,-1.20164 11.34845,-1.86327 5.27919,-1.03608 6.27339,-1.13277 7.16705,-0.69706 1.4224,0.6935 1.51765,1.29403 0.38492,2.42676 -1.11367,1.11367 -5.41027,2.51451 -12.2563,3.996 -3.93668,0.8519 -5.8318,1.02417 -12.29021,1.11718 -4.19972,0.0605 -8.69312,0.0465 -9.98533,-0.0312 z M 33.11493,303.75381 c -0.365836,-0.36582 -0.665156,-0.75225 -0.665156,-0.8587 0,-1.53757 4.733364,-4.10799 8.928648,-4.84864 5.128124,-0.90535 10.374488,0.5337 9.699466,2.66051 -0.335198,1.05611 -1.565765,1.49351 -6.815546,2.42254 -7.013049,1.24107 -10.344089,1.42762 -11.147412,0.62429 z m 132.27691,0.29827 c -5.51825,-0.70429 -16.17125,-3.19907 -20.66777,-4.8401 -4.51333,-1.64716 -5.99608,-3.29092 -4.29558,-4.76205 1.24407,-1.07627 2.3649,-1.04313 5.46769,0.16169 1.67001,0.64848 6.47541,1.88215 10.67865,2.7415 7.08062,1.44764 7.97321,1.54684 12.14546,1.34999 2.75818,-0.13009 5.60138,-0.52467 7.33719,-1.01815 3.62684,-1.03105 5.39783,-1.009 7.34713,0.0915 1.21305,0.68485 1.59269,1.15158 1.68323,2.06937 0.16521,1.67498 -0.91991,2.48765 -3.8902,2.91343 -10.19792,1.46182 -12.80848,1.67534 -15.8058,1.2928 z m -79.491134,-2.26007 c -1.07685,-0.28037 -3.984346,-0.81324 -6.461102,-1.18418 -6.273276,-0.93951 -8.09439,-1.39661 -9.027443,-2.26587 -0.727485,-0.67776 -0.751918,-0.83802 -0.243539,-1.59747 0.49001,-0.73202 0.922212,-0.84117 3.253801,-0.82176 1.478804,0.0118 4.866321,0.23557 7.527814,0.49613 3.816313,0.37358 5.333187,0.37165 7.176884,-0.009 2.124715,-0.43885 2.465876,-0.41268 3.742857,0.28706 1.75994,0.96438 2.244403,1.73665 1.914356,3.05167 -0.504925,2.01177 -4.263557,2.98608 -7.883628,2.04358 z m 29.564434,-0.24916 c -1.18453,-0.43617 -3.19909,-1.14039 -4.4768,-1.56495 -1.2777,-0.42455 -2.55524,-0.96457 -2.83897,-1.20003 -0.74405,-0.61752 -0.63455,-1.66979 0.25781,-2.47737 1.70434,-1.5424 9.16594,-2.6e-4 11.37473,2.35088 1.08761,1.1577 0.81844,2.60243 -0.60577,3.25135 -1.26231,0.57514 -1.13926,0.58707 -3.711,-0.35988 z m 83.55205,-2.53227 c -0.62121,-0.94809 -0.61476,-1.05747 0.12121,-2.0558 1.96931,-2.67117 8.96304,-6.22797 14.50312,-7.37587 5.32273,-1.10287 11.40906,-0.21343 12.03501,1.75877 0.6559,2.06656 -1.01056,2.74021 -6.85794,2.77221 -6.12277,0.0335 -12.53508,1.94046 -16.40049,4.87732 -1.69588,1.28851 -2.56809,1.29449 -3.40095,0.0234 z M 60.072559,297.50331 c -1.896765,-0.53182 -3.344707,-1.74648 -3.344707,-2.80585 0,-1.02772 1.662509,-2.12557 3.218846,-2.12557 1.775625,0 6.082392,1.37132 7.060181,2.24803 0.835039,0.74871 0.883496,1.79896 0.112524,2.43882 -0.867829,0.72022 -4.856599,0.85866 -7.046844,0.24457 z m 216.136951,-2.07572 c -6.66134,-2.13158 -22.53141,-5.77391 -28.65564,-6.57673 -6.71361,-0.88006 -10.86592,-0.76748 -16.68838,0.45252 -4.7,0.98481 -5.05208,1.009 -5.67131,0.38979 -0.49226,-0.49228 -0.55708,-0.82368 -0.25482,-1.30287 0.67033,-1.0627 4.06411,-2.75603 7.80457,-3.89412 3.20643,-0.97558 4.10688,-1.07473 9.98533,-1.09937 5.25748,-0.022 7.38151,0.14741 11.40178,0.90947 5.75218,1.09039 6.91637,0.96287 7.26817,-0.79608 0.69083,-3.45416 9.15622,-7.77633 15.23071,-7.77633 2.74745,0 5.37735,0.5307 11.01939,2.22365 4.53282,1.36013 4.87063,1.40705 6.46109,0.89723 2.50877,-0.80418 6.18345,-4.75112 8.13437,-8.73706 2.03419,-4.15612 2.74602,-7.07973 2.74602,-11.27852 0,-7.34572 -2.3888,-13.58446 -7.10086,-18.54503 -2.87811,-3.0299 -5.93202,-4.93917 -6.6892,-4.182 -0.29599,0.29601 -0.29121,1.08082 0.0164,2.69227 0.94455,4.94786 -0.59977,9.72464 -3.05145,9.43864 -1.00625,-0.11737 -1.21953,-0.4397 -3.05625,-4.61889 -2.50973,-5.71052 -8.87652,-11.03271 -16.17941,-13.52486 -2.87743,-0.98193 -7.40482,-1.7145 -7.40482,-1.19816 0,0.14771 0.95283,1.19895 2.11743,2.33595 4.64213,4.53218 7.10037,10.24472 6.81719,15.84207 -0.16798,3.32007 -1.05353,5.63593 -2.5234,6.59902 -0.50149,0.32859 -2.19321,0.71186 -3.7594,0.85174 -3.14287,0.28069 -2.90677,0.0593 -4.76314,4.4665 -0.6981,1.65737 -2.6256,3.02841 -4.26064,3.03062 -0.72357,9.7e-4 -1.65228,-0.52089 -2.78486,-1.56486 -1.91954,-1.76937 -2.55272,-1.9068 -3.57595,-0.77616 -0.54465,0.60186 -0.7841,1.75697 -1.00462,4.8465 -0.37694,5.28127 -0.77876,6.00904 -4.35263,7.88349 -1.57279,0.8249 -3.83368,2.42698 -5.0242,3.5602 -2.49908,2.37876 -3.60823,2.89031 -6.26685,2.89031 -1.71663,0 -2.12659,-0.18405 -3.88156,-1.74272 -2.18677,-1.94217 -3.67844,-2.39024 -6.86308,-2.06156 -2.22544,0.22969 -3.94857,0.9882 -8.23466,3.62492 -3.67656,2.26173 -7.09845,3.36121 -11.22483,3.60664 -3.19534,0.19005 -3.54608,0.13024 -6.01558,-1.02535 -2.88454,-1.34985 -3.99189,-1.44202 -11.67573,-0.97189 -3.60145,0.22036 -4.17253,0.34832 -4.17253,0.9349 0,0.47125 0.81038,1.01088 2.64318,1.7601 3.0747,1.25692 4.84399,2.85448 4.52257,4.08363 -0.33197,1.26941 -1.55684,1.69964 -4.19571,1.47375 -3.78034,-0.3236 -8.07346,-1.91865 -12.07029,-4.48455 -4.27597,-2.74509 -5.78248,-3.37358 -9.62629,-4.0159 -3.31572,-0.55408 -5.91879,-0.27618 -7.19888,0.76853 l -0.89795,0.73282 1.37055,1.44018 c 0.75379,0.79211 2.3397,2.0862 3.52424,2.87576 2.34068,1.56021 2.92894,2.93806 1.75541,4.11161 -1.68874,1.68872 -6.46552,0.0815 -10.34851,-3.48191 -3.86169,-3.54388 -4.64535,-3.88515 -8.02902,-3.49664 -1.51865,0.17438 -3.7665,0.31842 -4.9952,0.3201 -2.12235,0.003 -2.34741,-0.0953 -4.50319,-1.96607 -3.18972,-2.76792 -3.81283,-3.03308 -7.16396,-3.04865 -3.55888,-0.0166 -6.03151,0.96939 -7.60499,3.03232 l -1.05894,1.38836 1.0344,1.56308 c 1.12502,1.70002 0.95461,2.75631 -0.57692,3.57596 -2.18844,1.17121 -8.72719,0.0697 -14.12577,-2.3797 -3.298343,-1.49647 -4.032433,-1.68342 -6.644843,-1.69224 -2.464494,-0.009 -3.550086,0.2253 -6.749397,1.45251 -7.364368,2.82485 -10.575891,3.12671 -17.332894,1.62918 -1.50759,-0.33412 -4.288022,-0.76137 -6.178736,-0.94945 -5.201437,-0.5174 -7.459974,-2.26806 -5.742644,-4.45129 1.048956,-1.33353 0.958271,-1.97948 -0.443495,-3.15899 -2.332721,-1.96285 -5.002671,-0.92138 -5.417452,2.11318 -0.169148,1.2375 -0.524779,1.90513 -1.337043,2.51005 -0.984646,0.73329 -1.638288,0.82412 -5.930968,0.82412 -4.194801,0 -4.931871,-0.0974 -5.648185,-0.74597 -0.992874,-0.89903 -1.01611,-1.15951 -0.17818,-1.99744 0.542347,-0.54235 1.155719,-0.60316 3.833884,-0.38006 2.468123,0.20558 3.517551,0.12802 4.646218,-0.34361 2.078838,-0.8686 2.26087,-1.71601 0.65635,-3.05553 -1.653502,-1.3804 -4.010549,-2.15586 -8.019975,-2.63856 -3.669355,-0.44177 -5.559966,-0.15485 -9.627796,1.46106 -6.641892,2.63844 -10.512811,3.09125 -17.17856,2.00951 -5.121258,-0.83109 -6.5729613,-1.51538 -6.0585833,-2.85583 0.351602,-0.91626 1.7512543,-1.18799 3.5485733,-0.68895 2.426632,0.6738 8.204679,0.50508 11.741263,-0.34284 1.748307,-0.41916 5.096332,-1.49445 7.440056,-2.38952 6.825607,-2.60672 11.719581,-2.80081 17.317019,-0.68675 1.218796,0.46031 2.911465,0.8527 3.761487,0.87198 l 1.545492,0.0351 0.879411,-2.5453 c 0.892915,-2.58435 2.336567,-4.30739 3.608972,-4.30739 1.697176,0 2.082286,-2.03624 0.990897,-5.23928 -0.586359,-1.72087 -0.583783,-1.98058 0.03571,-3.60271 1.002631,-2.62535 3.711107,-6.0241 9.690936,-12.16073 5.266555,-5.40465 5.393697,-5.57554 5.389753,-7.24427 -0.0087,-3.71641 -0.852986,-11.09293 -1.387907,-12.12735 -1.043473,-2.01786 -0.740031,-2.84521 2.090266,-5.69917 2.510141,-2.53113 2.705759,-2.86151 3.556755,-6.00688 0.495289,-1.83065 1.665993,-5.70732 2.601564,-8.61481 0.935571,-2.9075 2.3454,-7.489 3.132954,-10.18113 2.02098,-6.9084 5.485554,-18.23736 7.098901,-23.213 0.752811,-2.3217 1.310793,-4.52436 1.23996,-4.89477 -0.08289,-0.43348 -0.615623,-0.74327 -1.494877,-0.86929 -1.039772,-0.14902 -1.36609,-0.38286 -1.36609,-0.97896 0,-0.63662 0.329704,-0.82169 1.762118,-0.98911 2.116061,-0.24732 2.579322,-0.50376 2.861863,-1.5842 0.162291,-0.62059 -0.06657,-0.98377 -0.929211,-1.47454 -1.418148,-0.80679 -1.427346,-1.04662 -0.07264,-1.89412 0.592268,-0.37052 1.148325,-0.72507 1.235685,-0.78786 0.08736,-0.0627 0.263571,-0.75776 0.391586,-1.54435 0.47766,-2.93501 3.04614,-2.5323 2.84555,0.44615 -0.0846,1.25687 0.0154,1.40309 1.10977,1.62197 1.507473,0.30149 1.335573,0.92477 -0.41777,1.51477 -1.46987,0.4946 -1.82862,1.27164 -1.16208,2.51707 0.31921,0.59646 0.81807,0.80368 1.934723,0.80368 1.93063,0 2.91973,0.98907 1.80456,1.8045 -0.40993,0.29975 -1.06408,0.545 -1.45365,0.545 -0.38958,0 -0.708323,0.27711 -0.708323,0.61581 0,0.69422 2.927813,6.38089 6.861373,13.32682 3.20515,5.65966 3.9981,6.81121 4.69021,6.81121 0.29367,0 4.11428,-2.67266 8.49024,-5.93923 4.37595,-3.26658 10.15893,-7.38433 12.85106,-9.15056 7.53261,-4.94193 6.88517,-3.83314 7.20984,-12.34737 0.34729,-9.10767 0.73845,-11.70075 2.22722,-14.76472 3.37528,-6.94651 14.2295,-14.14329 22.58551,-14.97506 3.97737,-0.39593 4.39455,-0.84644 4.39455,-4.74577 0,-1.95754 0.23786,-3.65853 0.65868,-4.71027 0.62789,-1.56923 0.62506,-1.66577 -0.0604,-2.06374 -0.39551,-0.22962 -1.29898,-0.91181 -2.00769,-1.51599 -1.22272,-1.04239 -1.39468,-1.07903 -3.3659,-0.71747 -2.32918,0.42723 -4.17605,-0.15513 -5.22038,-1.64611 -0.56436,-0.80575 -0.58678,-0.79899 -2.04224,0.61538 -3.88929,3.77951 -10.24876,4.53725 -13.48667,1.60698 -0.63813,-0.57751 -0.84591,-0.47802 -2.87546,1.37689 -3.48833,3.18813 -8.29755,4.1031 -12.36635,2.35274 l -1.94922,-0.83852 -2.74291,2.97677 c -3.00007,3.25586 -6.13749,5.1167 -9.38728,5.5677 -2.66803,0.37028 -6.15776,-0.41074 -8.1159,-1.81637 l -1.67918,-1.20536 -1.41816,1.08168 c -2.80836,2.14204 -5.608983,2.59517 -9.090439,1.47079 l -2.013633,-0.65034 -1.066095,1.02114 c -2.159835,2.06876 -5.107768,2.69804 -7.905731,1.68762 -1.278757,-0.4618 -1.453322,-0.41708 -3.009873,0.77106 -0.908811,0.69372 -2.473925,1.57504 -3.47803,1.95852 -1.756973,0.67099 -1.905344,0.67013 -3.944346,-0.0229 -2.094714,-0.71201 -2.128634,-0.71107 -2.996119,0.082 -2.220891,2.03049 -6.612831,3.01883 -9.370542,2.10871 -2.158067,-0.71224 -3.639646,-2.51468 -3.591032,-4.36876 0.0777,-2.96337 3.494509,-6.57863 7.067918,-7.47842 1.295521,-0.32622 1.874634,-0.74885 2.52948,-1.84599 1.872374,-3.13699 4.006415,-4.65258 7.451705,-5.29215 1.132861,-0.2103 1.732781,-0.67399 2.807574,-2.17002 1.038801,-1.44594 2.033877,-2.23626 4.145974,-3.2929 1.528511,-0.76469 3.567668,-1.50859 4.531461,-1.65311 1.558527,-0.23372 1.976696,-0.5393 3.780663,-2.76272 4.353223,-5.36546 10.411212,-7.72809 14.951365,-5.83109 1.95497,0.81683 2.01835,0.7944 3.13417,-1.10962 2.09067,-3.56743 6.26506,-6.25932 10.47361,-6.75395 1.76092,-0.20696 2.54824,-0.0959 4.06001,0.57286 1.03151,0.45628 1.89712,0.82884 1.92358,0.82789 0.0265,-9.3e-4 1.1935,-1.07005 2.5934,-2.37583 3.03716,-2.83293 7.07715,-4.93646 10.65931,-5.55006 2.15605,-0.36931 2.96358,-0.33847 4.84453,0.18508 l 2.2572,0.62826 2.22477,-1.51081 c 4.27837,-2.9054 8.66176,-3.75203 12.9339,-2.49815 1.65585,0.48601 2.60116,1.11083 4.26842,2.82129 2.12622,2.1813 2.15843,2.19714 4.50318,2.21472 2.25332,0.0169 2.36166,0.0626 2.36166,0.99665 0,0.9198 -0.16561,0.99873 -2.74107,1.30633 -4.80418,0.57376 -4.59531,0.61596 -5.49754,-1.11055 -1.07272,-2.05273 -2.8641,-3.21599 -5.45011,-3.53909 -3.89989,-0.48726 -7.08252,0.452 -10.07147,2.97233 -1.96347,1.65561 -2.81559,1.85617 -4.01908,0.94589 -1.08921,-0.82383 -5.25883,-0.7372 -7.81854,0.16246 -3.28465,1.15447 -6.741,3.71531 -8.2965,6.14695 -1.62547,2.54102 -2.42388,2.68236 -4.2449,0.75153 -1.11279,-1.17991 -1.54283,-1.37055 -3.09167,-1.37055 -2.41901,0 -5.90427,1.35914 -7.74141,3.01888 -0.8267,0.74686 -1.95201,2.30688 -2.50069,3.46671 -1.35907,2.87283 -2.09723,3.21113 -4.25173,1.9485 -2.24479,-1.31554 -5.169453,-1.34277 -7.895043,-0.0736 -2.002359,0.93244 -5.919008,4.93249 -7.470057,7.62912 -0.688824,1.19756 -0.863987,1.28369 -2.121357,1.04288 -2.265335,-0.43386 -3.643057,-0.2187 -5.110241,0.79805 -1.853941,1.28479 -3.671605,3.24143 -4.352534,4.68534 -0.475863,1.00908 -0.745064,1.16129 -1.908815,1.07932 -2.360418,-0.16627 -3.726125,0.26296 -5.402712,1.69807 -1.286389,1.1011 -1.630048,1.66126 -1.630048,2.65696 0,1.66859 -0.609491,2.20074 -2.525703,2.20518 -1.0308,0.003 -2.283202,0.40362 -3.578039,1.1463 -3.319362,1.90389 -4.246511,4.30943 -2.262461,5.87009 2.084694,1.63981 6.494168,0.71134 8.928941,-1.88012 1.354024,-1.44116 1.545501,-1.47074 2.854648,-0.44096 1.091255,0.85838 3.189488,1.02584 4.537891,0.36218 0.470423,-0.23153 1.76275,-1.41446 2.871836,-2.62873 l 2.01652,-2.20779 1.124005,1.20326 c 1.426557,1.52713 2.537436,1.87537 4.215623,1.32151 1.409282,-0.4651 4.528491,-3.53023 4.528491,-4.44997 0,-1.02317 1.591274,-2.60685 2.619352,-2.60685 0.865926,0 0.964614,0.12802 0.754744,0.97896 -0.132799,0.53842 -0.355355,1.44703 -0.494583,2.01912 -0.56904,2.3382 3.031549,2.84973 6.412102,0.91097 2.03685,-1.16813 3.23901,-2.75417 3.23901,-4.27326 0,-1.26926 1.20552,-3.9321 1.96388,-4.33797 0.49671,-0.26582 0.83444,-0.20385 1.18391,0.21723 0.39387,0.47458 0.3638,0.97668 -0.15467,2.58202 -0.88169,2.73 -0.82351,3.23713 0.55092,4.80252 1.71062,1.9483 4.65177,2.58952 7.60604,1.65826 3.03006,-0.95514 5.60916,-2.83191 7.69921,-5.60259 1.53802,-2.03889 1.89793,-2.86274 2.30943,-5.28637 0.55516,-3.26972 1.23851,-4.63318 2.32212,-4.63318 1.13842,0 1.25739,0.52106 0.7648,3.34972 -0.55679,3.19732 -0.16245,4.27684 1.87297,5.12729 3.22744,1.34851 9.08495,-1.12626 10.90388,-4.60682 0.29449,-0.56354 0.71513,-2.1404 0.93476,-3.50414 0.43831,-2.72156 1.39244,-4.09275 2.54122,-3.65193 0.62649,0.24042 0.67211,0.61128 0.43107,3.50493 -0.17726,2.12791 -0.12047,3.5147 0.1659,4.04974 0.58162,1.08676 2.42068,1.99652 4.03594,1.99652 1.91659,0 5.19438,-1.78867 6.70567,-3.65925 1.64357,-2.03432 2.02667,-2.79813 2.3782,-4.74154 0.59562,-3.29292 3.60808,-7.05721 5.43794,-6.79515 1.39346,0.19955 1.21905,1.40672 -0.46762,3.23653 -1.69592,1.83987 -2.2664,3.64179 -1.85211,5.85017 0.30795,1.64147 1.61506,3.36817 2.54971,3.36817 0.3836,0 1.75416,-1.14538 3.0457,-2.54528 2.31629,-2.51067 3.70688,-3.17326 4.16331,-1.9838 0.11855,0.30883 -0.30316,1.21411 -0.93706,2.01176 -0.63388,0.79764 -1.15252,1.65114 -1.15252,1.89665 0,1.28757 2.57687,3.36174 4.17651,3.36174 0.38012,0 2.20559,-0.87404 4.05659,-1.94232 4.02752,-2.3244 9.02129,-4.28004 14.08708,-5.51668 5.36234,-1.30904 13.41862,-1.33516 16.23634,-0.0527 2.48556,1.13134 3.28431,1.85716 4.17262,3.79162 0.63012,1.37222 0.72107,2.68244 0.73386,10.57271 0.009,5.03089 0.17987,9.26565 0.38903,9.59375 0.67267,1.05521 1.563,-0.0309 4.98497,-6.08141 3.36806,-5.95512 5.63064,-9.86347 16.95066,-29.28026 3.49118,-5.98828 6.54257,-11.40434 6.78088,-12.03568 0.60812,-1.6111 0.0386,-2.02744 -3.14786,-2.30118 -2.30444,-0.19796 -2.65597,-0.33028 -2.65597,-0.99975 0,-1.19952 1.64515,-1.76158 5.17469,-1.76791 2.6631,-0.004 3.2781,-0.12373 3.57304,-0.69104 0.50635,-0.97391 0.90959,-4.90986 0.55549,-5.42193 -0.16326,-0.23611 -1.17368,-0.54657 -2.2454,-0.68992 -3.76126,-0.50314 -3.81746,-2.30512 -0.0875,-2.80645 2.56841,-0.34523 3.01506,-0.71685 3.01506,-2.50858 0,-1.86512 0.7435,-2.88177 1.97985,-2.70727 0.76228,0.1076 1.02454,0.45382 1.28887,1.70142 0.57629,2.72011 0.58048,2.72278 4.60359,2.93686 3.81374,0.20294 4.65832,0.45159 4.65832,1.37144 0,1.12737 -1.66131,1.76122 -4.61606,1.76122 -4.15753,0 -4.39033,0.19681 -4.39033,3.7116 0,2.55378 0.10419,2.97382 0.87029,3.51046 0.47866,0.33527 1.43916,0.60957 2.13444,0.60957 3.6606,0 6.80253,1.50125 6.23535,2.97932 -0.22101,0.57594 -0.6775,0.62634 -3.6221,0.40001 -2.16542,-0.16646 -3.54692,-0.11144 -3.86663,0.15384 -0.38869,0.3226 0.78616,3.21292 5.37447,13.22206 3.22954,7.04507 8.39385,18.44798 11.47623,25.33983 7.34496,16.42246 7.55882,16.87558 8.22682,17.42996 0.78469,0.65124 2.17189,0.39843 9.23012,-1.68212 13.67836,-4.03197 36.2422,-7.53899 55.2083,-8.58088 l 8.44771,-0.46407 1.90654,0.95596 c 1.7845,0.89476 2.10372,1.30684 4.98748,6.4381 4.72183,8.40193 8.02133,15.13586 12.66323,25.84441 3.83266,8.84163 4.24492,10.02021 4.2577,12.17177 0.0133,2.19264 -0.11352,2.55099 -1.59049,4.50319 -1.99572,2.63786 -11.62104,16.84261 -16.63492,24.54928 -6.47658,9.95492 -15.15923,26.5278 -21.27922,40.61637 -1.684,3.87667 -3.42574,7.87998 -3.87054,8.89625 -0.7519,1.7179 -0.77423,2.0619 -0.31776,4.89477 0.27004,1.67586 0.4468,3.86823 0.39278,4.87195 -0.0842,1.56473 0.0786,2.0264 1.14223,3.23774 1.63998,1.86783 1.88099,3.01267 1.07726,5.11719 -1.17707,3.0821 -4.40833,5.08094 -5.69924,3.52549 -0.2681,-0.32305 -0.67958,-0.58736 -0.91438,-0.58736 -0.2348,0 -3.12183,1.34363 -6.4156,2.98584 -4.08911,2.03875 -6.37248,3.42296 -7.19864,4.3639 -1.25462,1.42894 -1.24023,1.28842 -0.4733,4.6227 0.11781,0.51194 -0.2001,1.27224 -0.85943,2.05581 -0.86691,1.03027 -1.32563,1.24335 -2.6757,1.24293 -2.39519,-7.4e-4 -8.63327,-1.62822 -15.55075,-4.05708 -3.34935,-1.17602 -7.90194,-2.52624 -10.11689,-3.00047 -3.56809,-0.76395 -4.30231,-0.80832 -6.44091,-0.38926 -4.24329,0.8315 -8.09956,3.10048 -7.57826,4.45895 0.11928,0.31077 0.80141,0.69005 1.51592,0.84285 1.98477,0.42445 15.69017,6.02894 16.47064,6.73527 0.9752,0.88253 0.87948,2.67146 -0.18276,3.41547 -1.32317,0.92679 -3.12582,0.68281 -9.11505,-1.23371 z M 76.111158,277.62525 c 3.01518,-1.07679 10.592291,-3.86089 16.838023,-6.18687 31.203449,-11.62053 61.239119,-20.33308 93.646039,-27.16424 16.49384,-3.47679 23.18075,-4.53128 40.27498,-6.35117 3.01518,-0.32101 7.15616,-0.76238 9.20218,-0.98084 2.046,-0.21845 7.64216,-0.54603 12.43588,-0.72795 5.91366,-0.22441 8.90369,-0.48664 9.30006,-0.81561 1.67546,-1.3905 -0.19354,-3.99557 -4.52166,-6.30244 -1.57463,-0.83927 -2.42463,-1.55484 -2.5794,-2.17146 -0.63112,-2.51465 0.8252,-3.03697 8.46845,-3.03725 5.05252,-1.7e-4 6.59441,0.1446 9.20217,0.86404 3.8447,1.06071 10.39223,4.29142 12.90442,6.36737 1.02584,0.84771 2.0154,1.54129 2.19899,1.54129 0.18359,0 1.03164,-0.70485 1.88456,-1.56632 1.19509,-1.20708 1.84967,-1.56526 2.8541,-1.56168 3.70424,0.0133 8.96144,2.46828 12.6259,5.8962 l 2.548,2.38353 2.7906,0.0673 c 2.43923,0.0589 2.87756,-0.04 3.48117,-0.78503 0.96475,-1.19076 2.2086,-4.81065 7.84764,-22.83835 2.39407,-7.65369 9.82106,-29.93881 11.18856,-33.57193 1.87161,-4.97243 1.38422,-5.41986 -5.47481,-5.02599 -7.96636,0.45745 -22.72219,2.62794 -34.68266,5.10157 -25.34476,5.24176 -32.49368,6.92492 -52.66777,12.40024 -45.90789,12.45956 -87.1994,28.84073 -129.41782,51.34264 -15.893,8.47078 -37.728364,21.85179 -38.738684,23.73958 -0.231804,0.43313 -0.419512,2.8979 -0.419512,5.5086 0,4.24188 0.08208,4.8068 0.803195,5.52791 0.932472,0.93247 0.540913,1.01331 8.007399,-1.65315 z m -2.264117,-19.0351 c 14.454302,-9.55298 27.197839,-16.74283 49.253949,-27.78887 9.89007,-4.9531 29.5293,-14.19601 30.16351,-14.19601 0.0853,0 3.11318,-1.21937 6.7286,-2.70969 30.06666,-12.39394 64.16028,-23.59323 96.04996,-31.55112 24.15035,-6.02658 53.05214,-11.37961 67.52788,-12.50714 5.6538,-0.44037 8.04318,-0.77719 8.7366,-1.23153 1.33608,-0.87545 3.8204,-6.28926 10.92201,-23.80115 1.96687,-4.8501 3.26395,-8.58476 3.19287,-9.19309 -0.18779,-1.6068 -1.54592,-2.05939 -5.4061,-1.80161 -24.45394,1.63312 -44.0808,5.01479 -63.51171,10.94293 -17.31462,5.28251 -25.28565,8.75974 -32.46023,14.16022 -4.23912,3.1909 -5.73416,4.92938 -6.67545,7.76246 -0.75972,2.28659 -2.25277,3.51993 -4.75306,3.92629 -5.53842,0.90012 -22.19135,5.0995 -31.21954,7.87264 -17.66181,5.42507 -42.28711,14.81198 -56.77938,21.6437 -17.14221,8.08091 -36.3601,18.73463 -46.538023,25.79903 -15.586257,10.81827 -30.755534,24.26158 -33.817754,29.96995 -1.336931,2.49222 -0.479028,6.93721 1.334143,6.91249 0.495571,-0.007 3.758847,-1.90102 7.251725,-4.2095 z M 94.75209,238.57464 c -0.978218,-0.97822 -1.026957,-1.64503 -0.232528,-3.18128 1.126452,-2.17831 3.519535,-2.62536 4.869155,-0.90959 0.932223,1.18512 0.785553,2.21015 -0.50813,3.55112 -1.26583,1.3121 -3.114466,1.55378 -4.128497,0.53975 z m 15.12683,-9.43657 c -1.47519,-1.16039 -1.53142,-3.88443 -0.10952,-5.30634 2.95793,-2.95793 7.1975,1.54261 4.4231,4.69537 -1.25185,1.42256 -2.97206,1.66621 -4.31358,0.61097 z m 19.8039,-9.79549 c -2.38413,-0.96032 -2.63695,-4.21789 -0.46895,-6.04215 2.12738,-1.79008 4.81034,-1.01877 5.60684,1.61188 0.38515,1.27207 -0.71762,3.50995 -2.07567,4.21222 -1.32484,0.68511 -1.81589,0.72008 -3.06222,0.21805 z m 24.67124,-11.45001 c -1.14182,-1.26168 -1.33696,-2.52761 -0.65305,-4.23684 0.73634,-1.8403 2.13973,-2.80499 4.1576,-2.8579 1.26768,-0.0333 1.73803,0.18349 2.67562,1.23284 2.50091,2.79899 0.35131,6.74296 -3.67516,6.74296 -1.27357,0 -1.91032,-0.22395 -2.50501,-0.88106 z m 28.43305,-11.22786 c -1.69236,-1.69236 -1.61928,-3.94118 0.18676,-5.74722 1.01448,-1.01448 1.66252,-1.33137 2.72264,-1.33137 1.98376,0 3.25645,0.69811 3.95453,2.16924 0.7588,1.59902 0.75593,1.90017 -0.0339,3.56466 -1.26172,2.65891 -4.816,3.35868 -6.83,1.34469 z m 29.35493,-10.01532 c -2.8277,-1.53682 -2.16858,-6.132 1.07388,-7.48677 2.47008,-1.03208 5.29415,0.15097 5.87383,2.46064 0.95845,3.81871 -3.38624,6.96175 -6.94771,5.02613 z m 35.28641,-12.38332 c -3.49514,-1.3937 -4.09371,-5.57431 -1.19565,-8.35082 1.32652,-1.27089 3.97837,-1.7159 5.4651,-0.91711 3.47612,1.86765 3.27401,7.07391 -0.34631,8.92086 -1.69685,0.86568 -2.45451,0.93271 -3.92314,0.34707 z m 25.14402,-7.83367 c -1.90804,-0.55026 -2.90585,-2.36981 -2.71502,-4.95095 0.11899,-1.60868 0.39736,-2.31992 1.26113,-3.22151 2.32405,-2.42578 5.56236,-2.49835 7.6063,-0.17042 2.27188,2.58754 1.2757,6.51343 -2.03397,8.01585 -1.83562,0.83326 -2.24922,0.86612 -4.11844,0.32703 z m 26.3488,-6.21004 c -1.35643,-0.89268 -2.54529,-2.892 -2.54529,-4.28044 0,-1.7332 1.47341,-4.14281 3.08811,-5.05032 3.97062,-2.23163 7.99929,0.0554 8.0047,4.54398 0.004,4.11736 -5.16518,7.01273 -8.54752,4.78678 z m 25.94723,-3.35894 c -2.3037,-1.24997 -3.01827,-5.20372 -1.37546,-7.61044 1.09319,-1.60154 3.17373,-2.7427 4.98656,-2.73511 3.96265,0.0166 6.29973,4.2036 4.3716,7.83199 -1.49967,2.82214 -5.24217,4.00055 -7.9827,2.51356 z m 2.14972,88.71891 c 0.37741,-0.7538 2.02404,-4.54234 3.65917,-8.41901 3.35373,-7.95126 9.07879,-19.55337 13.81334,-27.99344 1.82436,-3.25218 3.18249,-6.13046 3.18249,-6.74459 0,-2.88826 -7.87517,-18.78163 -10.87299,-21.94346 -1.55035,-1.63516 -2.33796,-1.40776 -3.39053,0.97895 -1.19951,2.71991 -9.60949,28.13496 -13.31401,40.23505 -3.75355,12.26029 -4.699,16.18625 -4.14654,17.21851 0.22795,0.42593 1.60006,1.7289 3.04916,2.89551 1.44909,1.1666 3.33781,2.85179 4.19717,3.74486 1.87593,1.94954 2.85691,1.95661 3.82274,0.0277 z M 87.278877,223.78181 c 29.076603,-21.92494 45.861523,-32.49232 71.481613,-45.00315 20.16995,-9.84939 34.21566,-15.42123 43.33086,-17.18904 1.85402,-0.35956 2.03568,-1.25398 2.10801,-10.37854 0.0749,-9.44401 -0.0876,-10.18112 -2.24502,-10.18112 -4.89927,0 -21.74537,7.03933 -36.16081,15.11022 -20.95602,11.73279 -36.66569,21.89929 -51.11155,33.07677 -11.38553,8.80955 -27.781452,23.66452 -32.9531,29.85604 l -1.897695,2.27192 v 3.5039 c 0,3.09072 0.08171,3.50392 0.692904,3.50392 0.381096,0 3.420751,-2.05691 6.754788,-4.57092 z m 0.377585,-4.75346 c -0.613551,-0.49682 -0.800414,-0.94865 -0.623227,-1.5069 0.295052,-0.92963 1.922634,-1.77964 2.77865,-1.45115 0.822124,0.31547 0.743256,2.23463 -0.124083,3.01956 -0.892953,0.8081 -0.959898,0.80608 -2.031334,-0.0616 z m 11.440555,-9.94145 c -0.88537,-0.88538 -0.51007,-2.18105 0.989863,-3.41741 1.58601,-1.30734 3.39971,-1.58713 3.7847,-0.58386 0.46858,1.2211 0.21786,1.98726 -1.05359,3.21959 -1.34019,1.29897 -2.880173,1.62246 -3.720973,0.78168 z m 16.154533,-10.28081 c -1.09663,-1.09664 -1.22333,-2.48656 -0.37601,-4.12509 1.29559,-2.50539 4.02025,-3.12378 5.82256,-1.32146 1.55264,1.55264 1.4194,3.40492 -0.36606,5.08883 -1.76104,1.66087 -3.64471,1.7935 -5.08049,0.35772 z m 16.19004,-11.97921 c -1.02194,-1.02194 -1.16015,-1.39478 -0.96434,-2.60144 0.26883,-1.65657 1.52119,-3.14179 3.28177,-3.89197 1.81155,-0.77189 2.37938,-0.67773 3.66483,0.60772 0.9025,0.9025 1.14463,1.49325 1.14463,2.79273 0,1.38255 -0.22533,1.86062 -1.39842,2.96699 -1.90855,1.79999 -4.00826,1.84616 -5.72847,0.12595 z m 18.20827,-9.57681 c -0.46217,-0.32372 -1.04369,-1.20478 -1.29224,-1.9579 -0.86865,-2.63209 0.84854,-5.35958 3.71258,-5.89689 3.38321,-0.63469 6.13655,3.45509 4.2571,6.32347 -1.30147,1.9863 -4.86207,2.80284 -6.67744,1.53132 z m 17.54746,-9.42036 c -3.81562,-3.21063 0.16721,-9.80818 4.75022,-7.86871 1.81318,0.76732 2.60744,1.81844 2.8784,3.80932 0.19469,1.43061 0.081,1.92996 -0.65113,2.85781 -1.80373,2.28618 -5.02855,2.84151 -6.97749,1.20158 z m 21.88523,-9.06479 c -1.59863,-0.5878 -3.13266,-3.07337 -3.13266,-5.07582 0,-2.45184 2.18931,-4.43592 4.89477,-4.43592 2.57957,0 4.63704,1.7268 4.89896,4.11161 0.23197,2.11236 -0.0636,3.07471 -1.33556,4.34655 -1.12261,1.12262 -1.59847,1.32653 -3.03476,1.30047 -0.93687,-0.017 -1.9677,-0.12817 -2.29075,-0.24689 z m -101.339794,48.93186 3.392049,-3.42635 0.242124,-3.32845 c 0.550089,-7.56197 1.403142,-17.93246 1.610533,-19.57908 0.434886,-3.45287 -0.603623,-0.98885 -2.976695,7.06268 -2.166166,7.34952 -5.41567,18.13808 -6.293844,20.89596 -0.886993,2.78558 0.02336,2.41818 4.025833,-1.62476 z m 41.473864,-4.7999 c 20.10951,-10.35249 38.59217,-18.09282 61.38976,-25.7093 3.57698,-1.19504 6.82062,-2.47609 7.20809,-2.84677 0.77297,-0.73948 0.81763,-1.23084 0.37605,-4.13801 -0.35895,-2.36328 -0.28784,-2.35985 -6.56269,-0.31626 -12.34436,4.02031 -34.31094,14.22804 -51.68882,24.01945 -12.68955,7.14981 -21.67776,13.30132 -19.43509,13.30132 0.18689,0 4.1076,-1.9397 8.7127,-4.31043 z m -26.75824,-8.40051 c 4.03916,-3.55178 5.17513,-4.76502 5.17513,-5.5272 0,-0.53711 -0.76902,-2.33609 -1.70893,-3.99772 -0.93991,-1.66165 -2.94417,-5.57625 -4.45392,-8.69913 -2.842103,-5.87882 -3.773103,-7.42417 -4.209693,-6.98759 -0.1405,0.14046 -0.41118,3.04771 -0.60151,6.46049 -1.017882,18.25071 -1.219568,22.92342 -1.012706,23.46249 0.333296,0.86855 0.955296,0.43833 6.811629,-4.71134 z m 253.1495,-2.70716 c 1.11457,-1.75012 4.19054,-6.42586 6.83546,-10.3905 2.64493,-3.96464 4.80897,-7.59016 4.80897,-8.05673 0,-1.67516 -2.27955,-7.64613 -5.98229,-15.66979 -2.5405,-5.50512 -8.79705,-17.44055 -9.54493,-18.20857 -0.73088,-0.75054 -0.98446,-0.34013 -2.90326,4.69899 -1.37601,3.61363 -3.46571,8.65646 -8.74417,21.10125 -2.91217,6.8659 -2.93059,6.37371 0.36934,9.86577 3.54833,3.75491 8.60957,12.42056 10.33236,17.69062 0.58542,1.79084 1.41434,2.68351 2.20876,2.37866 0.32629,-0.12521 1.50518,-1.65958 2.61976,-3.4097 z m -0.98409,-14.3735 c -1.0201,-0.59416 -1.86001,-2.47522 -1.86001,-4.16568 0,-3.58062 4.30498,-6.66401 7.17211,-5.13696 2.76115,1.47059 2.76394,5.84173 0.006,8.44337 -1.0966,1.03422 -1.67603,1.27991 -2.99589,1.27031 -0.89999,-0.006 -1.94471,-0.19152 -2.32161,-0.41104 z m -6.50246,-13.11191 c -2.31055,-1.66435 -2.35133,-4.77213 -0.1033,-7.87538 2.93589,-4.05289 7.48423,-2.6335 7.48626,2.33622 7.5e-4,1.81111 -1.23743,4.35232 -2.53479,5.20238 -1.46805,0.96191 -3.75932,1.12107 -4.84812,0.33678 z m -121.57939,2.35603 c 2.54962,-0.33335 5.02109,-0.76507 5.49216,-0.95936 0.47108,-0.1943 1.50132,-1.3753 2.28942,-2.62445 2.83155,-4.48799 7.3749,-8.48528 14.37737,-12.64938 1.23838,-0.73641 2.25159,-1.46516 2.25159,-1.61945 0,-0.43139 -4.58557,-2.49923 -7.62192,-3.43707 -7.74681,-2.39274 -16.19649,-3.82954 -24.69089,-4.19852 -5.05502,-0.21957 -6.05796,-0.16396 -7.14069,0.39596 -0.69282,0.35826 -1.34847,1.04466 -1.457,1.52532 -0.44969,1.99147 -0.94441,20 -0.56873,20.70198 0.52136,0.97416 2.08013,1.72489 4.67054,2.2494 7.0329,1.42403 6.43999,1.3946 12.39815,0.61557 z m -77.25618,-6.69698 c 7.02944,-4.18524 12.38606,-7.69618 12.38606,-8.11827 0,-0.83893 -0.90298,-1.41665 -2.21421,-1.41665 -2.69634,0 -9.07684,2.97696 -11.8926,5.54878 -1.02472,0.93592 -1.16489,1.32578 -1.16489,3.23972 0,1.19668 0.10908,2.17579 0.24245,2.17579 0.13335,0 1.32279,-0.64322 2.64319,-1.42937 z m 18.09941,-14.82038 c 0.51803,-0.79063 0.61203,-1.7565 0.49047,-5.04005 -0.15501,-4.18784 -0.56082,-5.33778 -1.88369,-5.33778 -0.37099,0 -1.0102,0.37073 -1.42048,0.82384 -0.63612,0.70251 -0.74596,1.4431 -0.74596,5.02935 0,4.55849 0.34263,5.50269 1.99683,5.50269 0.55111,0 1.17977,-0.39342 1.56283,-0.97805 z m 96.8811,-1.4233 c 3.12286,-1.11319 6.02508,-2.34949 6.44937,-2.74733 0.92224,-0.86476 1.30565,0.21752 -4.27972,-12.08093 -2.29855,-5.06119 -6.28947,-14.13611 -8.86872,-20.16646 -7.09998,-16.59998 -7.47193,-17.4254 -7.85238,-17.4254 -0.19427,0 -0.42573,0.22026 -0.51435,0.48948 -0.33713,1.0243 -0.91878,49.04493 -0.60094,49.61291 0.38523,0.68838 8.03643,4.27458 9.20564,4.31479 0.43074,0.0148 3.33823,-0.88386 6.4611,-1.99706 z m -82.8786,-4.14796 c 1.32468,-0.80232 3.21644,-2.16796 4.20393,-3.03476 3.05084,-2.67805 7.15411,-3.67825 9.03152,-2.20148 0.83187,0.65435 1.20783,0.69674 3.08758,0.34808 1.84047,-0.34136 3.44787,-0.30805 9.38461,0.19452 0.86965,0.0736 0.99272,-0.0845 1.10227,-1.4155 0.18089,-2.19785 -0.6969,-3.25669 -3.3358,-4.02384 -6.05666,-1.76072 -17.55478,0.49658 -24.24975,4.76067 -2.42321,1.54337 -3.27694,2.67536 -3.27694,4.34494 0,1.08802 0.80831,2.48612 1.43737,2.48612 0.11366,0 1.29053,-0.65645 2.61521,-1.45875 z m 61.3441,-0.30638 c 0.50873,-0.61298 1.15673,-17.5689 1.10728,-28.97406 l -0.0238,-5.48214 -0.56541,3.32845 c -0.31098,1.83063 -1.62097,9.19855 -2.91108,16.37314 -1.29012,7.17458 -2.24533,13.36084 -2.12268,13.74727 0.4506,1.41973 3.59184,2.12048 4.51566,1.00734 z m -8.45943,-1.87875 c 0.82308,-0.60185 2.86564,-10.50408 6.48812,-31.45415 2.61445,-15.12025 3.02756,-18.15712 2.46999,-18.15712 -0.21072,0 -1.76569,2.51102 -3.45548,5.58005 -4.56933,8.29893 -19.8098,34.98554 -21.87613,38.30592 -0.98842,1.5883 -1.79714,3.19738 -1.79714,3.57576 0,0.87909 0.62921,0.99537 6.85269,1.26639 2.79981,0.12195 6.05972,0.46605 7.24426,0.76472 2.82817,0.71311 3.24387,0.7252 4.07369,0.1184 z M 207.6869,123.89825 c 0.58009,-1.40078 0.66944,-8.08047 0.1292,-9.65425 -0.80654,-2.34923 -2.05298,-3.03281 -6.38662,-3.50265 -3.43557,-0.37248 -4.003,-0.33263 -6.77558,0.47588 -1.7691,0.51588 -3.42851,1.27891 -3.99507,1.837 l -0.96905,0.9546 0.86314,0.86316 c 0.54947,0.54945 1.54208,0.94117 2.7312,1.07783 1.68306,0.19342 1.88027,0.3211 1.99173,1.28951 0.10109,0.87823 -0.13216,1.2258 -1.27528,1.90025 -1.43172,0.84474 -1.95059,1.91398 -1.71986,3.54409 0.12891,0.91052 0.19729,0.9231 6.07047,1.11668 3.26706,0.10775 6.07175,0.32795 6.23267,0.48948 0.5895,0.59173 2.81205,0.31127 3.10312,-0.39158 z M 18.690692,295.06144 c -1.481319,-0.26291 -5.032239,-2.49973 -5.954005,-3.75061 -0.657629,-0.89242 -0.71189,-1.22641 -0.333997,-2.0558 0.594495,-1.30478 1.926034,-1.29243 4.655867,0.0432 3.65753,1.78946 6.930186,1.41939 14.02068,-1.58548 1.354797,-0.57415 3.116659,-0.99961 4.161558,-1.00497 3.099129,-0.0158 3.61809,1.8354 0.836616,2.98447 -0.810665,0.33489 -2.485099,1.2195 -3.720961,1.9658 -3.639393,2.1977 -6.668773,3.25821 -9.799815,3.43066 -1.558301,0.0858 -3.297974,0.0736 -3.865943,-0.0272 z M 350.9731,291.8809 c -0.91548,-0.62687 -0.94274,-1.70148 -0.0654,-2.57767 1.26565,-1.26397 7.94846,-3.36988 11.55917,-3.64257 3.53529,-0.26699 10.09889,0.44673 11.29215,1.22792 1.39633,0.91412 1.43073,2.11376 0.0989,3.44566 l -1.18045,1.18046 -4.76836,-0.34054 c -6.48497,-0.46315 -9.80674,-0.36362 -12.65652,0.37923 -2.63872,0.68784 -3.64115,0.76456 -4.27943,0.32751 z m -20.83394,-2.65939 c -1.27799,-0.89515 -1.13023,-2.37652 0.32535,-3.2617 1.10603,-0.67261 10.45762,-3.1772 11.863,-3.1772 0.81983,0 1.53696,1.39528 1.22397,2.38142 -0.13705,0.43203 -1.16011,1.38739 -2.27329,2.12305 -3.42269,2.26189 -9.23133,3.27063 -11.13903,1.93443 z m 22.53153,-9.20865 c -1.24563,-0.72571 -1.55638,-1.80734 -0.88967,-3.0966 0.70874,-1.37058 2.19931,-2.18223 7.08268,-3.85669 7.82988,-2.68479 10.61872,-2.90325 20.7103,-1.6223 6.62567,0.84102 8.04058,1.34912 8.04058,2.88741 0,1.2255 -0.63538,1.69033 -3.08267,2.25523 -1.70753,0.39414 -2.87624,0.35433 -7.08294,-0.2413 -3.32645,-0.471 -5.84478,-0.62205 -7.41279,-0.44466 -3.44702,0.38998 -12.49573,2.70826 -14.41783,3.69383 -1.86195,0.95473 -2.00353,0.97514 -2.94766,0.42508 z m -11.39287,-8.90511 c -0.35919,-0.3969 -0.65308,-1.08208 -0.65308,-1.52263 0,-1.15813 1.03076,-3.90479 1.94967,-5.19529 1.62066,-2.27599 0.64949,-3.14189 -2.27679,-2.03 -1.02599,0.38984 -2.55417,1.17683 -3.39597,1.74883 -1.34811,0.91608 -1.62581,0.9771 -2.33005,0.51205 -1.20419,-0.79517 -1.2654,-3.25011 -0.12329,-4.94487 1.76703,-2.62209 4.01138,-3.63535 9.6321,-4.34856 2.70571,-0.34335 3.94438,-0.76463 7.28649,-2.47819 6.55642,-3.36164 12.39598,-4.25461 15.0206,-2.29693 1.16035,0.86549 1.44662,1.65903 1.09867,3.04537 -0.30317,1.20795 -1.08436,1.48312 -4.38183,1.54355 -2.3796,0.0437 -3.2184,0.26881 -5.8556,1.57218 -3.96556,1.9599 -8.04216,5.94342 -10.30892,10.07357 -2.36701,4.31284 -4.32029,5.80348 -5.66198,4.32092 z M 199.40064,97.35649 c -0.12654,-0.3297 -0.12313,-1.1336 0.007,-1.78647 0.77645,-3.88225 -4.1033,-7.02982 -7.89756,-5.09413 -1.92265,0.98085 -2.56366,1.02306 -3.36517,0.22154 -0.54111,-0.54112 -0.52187,-0.75465 0.19132,-2.12297 1.45587,-2.79314 -0.20493,-6.28874 -3.75389,-7.90099 -1.94902,-0.88542 -3.25875,-0.90986 -5.2862,-0.0986 -2.91113,1.16482 -3.59822,-1.0229 -0.70375,-2.24074 2.17052,-0.91325 6.09221,-0.70146 8.34653,0.45075 2.19639,1.12259 4.20701,3.73136 4.91954,6.38308 0.50207,1.86852 0.87846,2.20015 2.51007,2.2115 3.01158,0.021 6.1755,1.86583 7.46006,4.34989 0.73598,1.42326 0.723,3.61508 -0.03,5.07134 -0.64714,1.25142 -2.01011,1.56733 -2.39825,0.55584 z m -16.796,-0.59387 c -0.66184,-0.73132 -0.66111,-0.79866 0.0167,-1.54774 0.85232,-0.94181 4.13777,-1.10794 4.85359,-0.24543 0.60663,0.73094 0.13912,1.78185 -0.88307,1.98513 -2.91214,0.57909 -3.30672,0.5601 -3.98731,-0.19196 z"
       id="path8" /></g><metadata
     id="metadata182"><rdf:RDF><cc:Work
         rdf:about=""><cc:license
           rdf:resource="http://creativecommons.org/licenses/by-sa/4.0/" /><dc:publisher><cc:Agent><dc:title>OpenDataKerala.org</dc:title></cc:Agent></dc:publisher><dc:date>April 2026</dc:date><dc:title>Election Symbols of Kerala</dc:title><dc:creator><cc:Agent><dc:title>Manoj Karingamadathil</dc:title></cc:Agent></dc:creator></cc:Work><cc:License
         rdf:about="http://creativecommons.org/licenses/by-sa/4.0/"><cc:permits
           rdf:resource="http://creativecommons.org/ns#Reproduction" /><cc:permits
           rdf:resource="http://creativecommons.org/ns#Distribution" /><cc:requires
           rdf:resource="http://creativecommons.org/ns#Notice" /><cc:requires
           rdf:resource="http://creativecommons.org/ns#Attribution" /><cc:permits
           rdf:resource="http://creativecommons.org/ns#DerivativeWorks" /><cc:requires
           rdf:resource="http://creativecommons.org/ns#ShareAlike" /></cc:License></rdf:RDF></metadata></svg>
