<?xml version="1.0" encoding="UTF-8" standalone="no"?>
<!-- Created with Inkscape (http://www.inkscape.org/) -->

<svg
   width="1500"
   height="1500"
   viewBox="0 0 396.87499 396.875"
   version="1.1"
   id="svg5"
   xml:space="preserve"
   inkscape:version="1.3 (0e150ed6c4, 2023-07-21)"
   sodipodi:docname="Spade and Stoker.svg"
   inkscape:export-filename="Table.png"
   inkscape:export-xdpi="96"
   inkscape:export-ydpi="96"
   xmlns:inkscape="http://www.inkscape.org/namespaces/inkscape"
   xmlns:sodipodi="http://sodipodi.sourceforge.net/DTD/sodipodi-0.dtd"
   xmlns="http://www.w3.org/2000/svg"
   xmlns:svg="http://www.w3.org/2000/svg"
   xmlns:rdf="http://www.w3.org/1999/02/22-rdf-syntax-ns#"
   xmlns:cc="http://creativecommons.org/ns#"
   xmlns:dc="http://purl.org/dc/elements/1.1/"><title
     id="title186">Election Symbols of Kerala</title><sodipodi:namedview
     id="namedview7"
     pagecolor="#ffffff"
     bordercolor="#000000"
     borderopacity="0.25"
     inkscape:showpageshadow="2"
     inkscape:pageopacity="0.0"
     inkscape:pagecheckerboard="0"
     inkscape:deskcolor="#d1d1d1"
     inkscape:document-units="mm"
     showgrid="false"
     inkscape:zoom="0.25"
     inkscape:cx="230"
     inkscape:cy="1082"
     inkscape:window-width="1920"
     inkscape:window-height="991"
     inkscape:window-x="-9"
     inkscape:window-y="-9"
     inkscape:window-maximized="1"
     inkscape:current-layer="layer1" /><defs
     id="defs2"><inkscape:path-effect
       effect="bspline"
       id="path-effect3248"
       is_visible="true"
       lpeversion="1"
       weight="33.333333"
       steps="2"
       helper_size="0"
       apply_no_weight="true"
       apply_with_weight="true"
       only_selected="false" /><inkscape:path-effect
       effect="bspline"
       id="path-effect577"
       is_visible="true"
       lpeversion="1"
       weight="33.333333"
       steps="2"
       helper_size="0"
       apply_no_weight="true"
       apply_with_weight="true"
       only_selected="false" /></defs><g
     inkscape:label="Layer 1"
     inkscape:groupmode="layer"
     id="layer1"><path
       style="fill:#000000;stroke-width:1.45789"
       d="m 113.17119,338.16871 c -0.7058,-0.35524 -0.99371,-0.84492 -1.07394,-1.82655 -0.0888,-1.08689 0.18547,-1.69658 1.44651,-3.21543 0.85585,-1.03082 1.5561,-2.09245 1.5561,-2.35916 0,-0.26672 -1.34525,-0.96891 -2.98943,-1.56046 -10.60928,-3.81691 -16.776586,-9.28536 -21.835345,-19.36103 l -1.784282,-3.55382 -2.414104,0.20567 c -1.883724,0.16048 -3.118572,-0.004 -5.620616,-0.74781 -3.999631,-1.18932 -4.701008,-1.78141 -4.701008,-3.96856 0,-2.02431 0.990782,-3.26477 5.55087,-6.94981 22.646315,-18.30058 30.999805,-24.74309 32.723205,-25.23738 0.69217,-0.1985 5.40684,-0.36091 10.47704,-0.36091 8.26172,0 9.50314,-0.0846 11.96028,-0.81528 3.86404,-1.14899 6.10926,-2.3772 8.70045,-4.75934 2.64378,-2.4305 3.68852,-3.0509 4.69465,-2.78779 0.50404,0.1318 1.57587,-0.49977 3.37789,-1.99043 1.45176,-1.20092 4.0138,-3.31177 5.6934,-4.69076 4.89533,-4.01918 29.51264,-23.82315 33.7372,-27.14068 3.78838,-2.97502 3.84824,-3.04691 3.16541,-3.80334 -0.38278,-0.42405 -7.11843,-5.50919 -14.96811,-11.3003 -7.84967,-5.79112 -18.61161,-13.75627 -23.91545,-17.70032 -9.89809,-7.36047 -25.77635,-19.14036 -47.34852,-35.12731 -6.73576,-4.99182 -12.420487,-9.07602 -12.632769,-9.07602 -0.527889,0 -0.477423,0.91365 0.212116,3.83915 0.322676,1.36899 1.266326,5.79527 2.096996,9.83619 2.482417,12.07597 4.935647,23.0906 6.345907,28.49227 0.73014,2.7966 2.19102,8.38273 3.24638,12.41364 2.95387,11.28213 7.05896,24.65499 11.22576,36.56951 2.86935,8.20459 2.67647,8.6415 -4.46769,10.121 -16.449487,3.40655 -31.845572,9.21535 -46.23962,17.44577 -6.523894,3.73032 -10.815381,6.43502 -14.410989,9.08248 -2.62974,1.9363 -4.217265,2.28237 -5.701309,1.24289 -2.756665,-1.93082 -13.140831,-20.47086 -19.354546,-34.55587 -4.685568,-10.62105 -10.206711,-25.94535 -12.431888,-34.50551 -2.333847,-8.97825 -2.660182,-10.49066 -3.994996,-18.51519 -4.2228637,-25.38653 -4.7350497,-37.13271 -2.113356,-48.46698 0.434538,-1.87864 1.071009,-3.60706 1.456825,-3.95622 0.516879,-0.46777 4.84496,-1.14162 17.624307,-2.74398 20.664488,-2.59106 37.60732,-4.87555 40.179591,-5.4176 1.993795,-0.42016 1.151704,-1.32998 -7.811094,-8.4393 -3.394462,-2.69249 -6.475493,-5.25023 -6.846773,-5.68383 -0.957688,-1.11853 -0.887271,-4.16987 0.143456,-6.215 2.152195,-4.27045 7.842701,-10.953947 11.11836,-13.058527 1.269691,-0.81578 2.18956,-1.10181 3.543342,-1.10181 2.018505,0 2.528125,0.30358 13.177424,7.849567 l 5.320727,3.7702 2.017049,-0.45139 c 1.681267,-0.37626 2.254509,-0.35217 3.443651,0.14462 1.481439,0.61899 13.707699,9.95819 16.148569,12.33531 1.7254,1.68034 2.33784,3.88428 2.02131,7.27388 l -0.23291,2.49428 2.84569,2.1257 c 1.56514,1.16913 5.27583,3.92798 8.24597,6.13076 2.97014,2.20278 9.83342,7.31013 15.25173,11.34966 5.41829,4.03955 14.7665,10.98979 20.77381,15.44501 6.0073,4.45522 16.53194,12.26631 23.38809,17.35799 6.85613,5.09168 15.21307,11.28746 18.57096,13.76839 3.35788,2.48094 8.18821,6.06137 10.73406,7.95652 2.54583,1.89514 4.83328,3.33689 5.08322,3.20388 0.24992,-0.13311 5.15143,-3.97383 10.89223,-8.53513 9.25962,-7.35714 10.43833,-8.4173 10.44254,-9.39216 0.007,-1.75452 1.09198,-3.57186 2.82968,-4.74208 0.88604,-0.59668 2.77971,-1.98389 4.20816,-3.0827 2.21846,-1.70648 2.98282,-2.06286 5.24161,-2.44386 1.45442,-0.24532 3.08758,-0.39168 3.62924,-0.32524 0.78507,0.0964 2.94914,-1.44086 10.66988,-7.5789 5.3268,-4.23483 9.68508,-7.9547 9.68508,-8.26638 0,-0.31166 -0.68595,-1.62027 -1.52433,-2.90798 -5.18595,-7.96541 -6.8919,-17.18414 -4.66677,-25.21873 2.68962,-9.71173 8.42761,-16.69736 27.74134,-33.77332 10.02507,-8.863507 14.33946,-12.845687 22.72168,-20.972147 4.86559,-4.71711 5.77167,-4.51795 15.73767,3.45928 23.84372,19.085557 30.48102,24.168587 39.67329,30.382917 5.86227,3.96313 7.16521,5.3718 7.16521,7.74659 0,2.36064 -0.56285,3.2441 -3.70873,5.82122 -9.54744,7.82132 -14.62778,12.70319 -22.81075,21.91965 -15.27066,17.19927 -24.85345,24.82653 -35.19784,28.01513 -2.7309,0.84179 -8.42216,1.68328 -11.37912,1.68249 -5.75201,-9.7e-4 -14.21949,-1.97919 -19.1774,-4.47907 -1.00068,-0.50455 -2.04541,-0.91737 -2.32163,-0.91737 -0.46014,0 -8.26843,6.74656 -16.59213,14.33606 -3.10631,2.83232 -3.37515,3.19372 -3.37515,4.53716 0,1.07877 -0.35809,1.92867 -1.37216,3.25675 -0.75468,0.98837 -1.5543,2.31959 -1.77693,2.95824 -0.24041,0.68961 -1.13218,1.65353 -2.19589,2.37349 -0.98509,0.66677 -2.53013,1.88224 -3.43342,2.70104 -1.9579,1.7748 -3.05386,2.23885 -5.28747,2.23885 -1.61225,0 -1.97074,0.25597 -10.00395,7.14286 -4.58248,3.92857 -8.33177,7.29985 -8.33177,7.49173 0,0.52967 2.55602,2.60978 8.37868,6.81856 2.90083,2.0968 8.40782,6.1139 12.23773,8.92687 3.82994,2.81297 8.78609,6.4486 11.01371,8.07918 5.07348,3.71375 20.55952,15.16997 32.20872,23.82731 4.87953,3.62631 11.30198,8.36518 14.27212,10.53083 18.50317,13.49132 33.98046,25.1137 34.65642,26.02464 0.56204,0.75737 0.77716,1.61627 0.75601,3.01844 -0.0378,2.50156 -1.65962,4.99797 -6.27721,9.66181 -4.96656,5.01633 -8.58068,6.42325 -11.98496,4.66554 -0.73435,-0.37915 -6.54872,-4.58848 -12.92079,-9.35403 -6.37208,-4.76555 -16.41314,-12.22302 -22.31348,-16.57217 -11.03842,-8.13645 -23.87028,-17.61465 -42.57252,-31.44602 -5.88726,-4.35396 -14.00212,-10.34014 -18.03303,-13.30263 -4.03092,-2.9625 -9.80423,-7.20611 -12.82959,-9.43026 -3.02537,-2.22415 -5.81991,-4.21475 -6.2101,-4.42357 -0.5912,-0.3164 -1.63659,0.40493 -6.27253,4.32804 -3.0597,2.58924 -10.49048,8.78685 -16.51283,13.77245 -25.82341,21.3779 -24.89911,20.57188 -25.0059,21.80592 -0.252,2.91217 -0.83955,3.95134 -3.37466,5.96859 -3.34343,2.66045 -5.03877,4.71603 -5.993,7.26643 -1.06492,2.84628 -1.90731,8.68002 -1.9101,13.22785 -0.004,5.97687 -0.47861,6.97078 -5.56724,11.65028 -2.34917,2.16029 -7.74282,6.87371 -11.9859,10.47427 -4.24305,3.60056 -9.14164,7.78535 -10.88573,9.29956 -1.89231,1.64287 -3.66171,2.85121 -4.38773,2.99642 -2.1792,0.43585 -9.35656,0.26059 -10.37779,-0.2534 z m 5.9016,-4.37145 c 0.67894,-0.34382 1.556,-0.90755 1.94899,-1.25273 0.72597,-0.63766 1.95275,-2.7274 1.72475,-2.93799 -0.0686,-0.0635 -1.33995,0.99266 -2.825,2.34686 -2.79179,2.54579 -2.96104,2.91347 -0.84874,1.84386 z m 11.84212,-8.80853 c 2.01547,-1.69609 6.44176,-5.51874 9.83621,-8.49479 3.39444,-2.97605 6.9729,-6.05382 7.9521,-6.83954 1.74111,-1.39705 2.69406,-2.89808 3.1933,-5.02992 0.42358,-1.80868 -0.3514,-1.16787 -1.27108,1.05107 -0.65285,1.5751 -1.47942,2.62897 -3.25229,4.14662 -1.30731,1.11914 -5.67783,4.89888 -9.71223,8.3994 -4.03441,3.50052 -8.33096,7.20253 -9.5479,8.22666 -1.21695,1.02413 -2.21263,2.04347 -2.21263,2.26519 0,0.47626 0.192,0.33365 5.01452,-3.72469 z m -10.79278,0.74532 c 0.26835,-0.32336 0.41588,-0.65998 0.32782,-0.74803 -0.0881,-0.0881 -1.41289,-0.42132 -2.94407,-0.74058 -1.53116,-0.31926 -3.91693,-1.12119 -5.30169,-1.78208 -3.28986,-1.57011 -8.01302,-5.1633 -10.32627,-7.85584 -2.175907,-2.53265 -5.41943,-7.65625 -6.316762,-9.97815 -0.349485,-0.90435 -0.782915,-1.80916 -0.963169,-2.01071 -0.180239,-0.20155 -0.327719,-0.93927 -0.327719,-1.63936 0,-1.50177 -0.212517,-1.54458 -1.685772,-0.33965 l -1.107165,0.90551 0.8723,2.64864 c 3.491918,10.60265 10.917187,18.23698 20.821207,21.40744 2.71609,0.86946 6.28336,0.93762 6.95129,0.13281 z m 8.42135,-5.87311 c 5.21445,-4.56089 16.8657,-15.676 17.64472,-16.83279 0.9338,-1.3866 1.38996,-4.45704 0.95224,-6.4095 -0.33695,-1.50293 -0.49722,-1.25659 -1.18868,1.82697 -0.24887,1.1099 -0.98351,2.751 -1.6325,3.64691 -2.01252,2.7782 -7.69012,8.40127 -13.36443,13.23604 -4.53795,3.86655 -5.43318,4.80348 -5.43637,5.68956 -9.7e-4,0.58343 0.10715,1.06077 0.24272,1.06077 0.13558,0 1.38763,-0.99809 2.7823,-2.21796 z m 0.82851,-5.2658 c 1.80331,-1.49 5.46986,-4.90989 8.14792,-7.59974 6.13248,-6.15952 7.08854,-7.87097 7.08854,-12.6893 0,-2.90708 -0.1286,-3.51085 -1.1345,-5.32666 -0.62397,-1.12634 -2.29609,-3.14371 -3.71582,-4.48302 -5.26949,-4.97096 -11.32834,-6.361 -17.56123,-4.02897 -2.53446,0.94826 -11.5123,6.87872 -14.54009,9.60469 -1.2296,1.10704 -2.33921,1.90922 -2.4658,1.78265 -0.38414,-0.38416 0.63389,-1.35411 5.48112,-5.22217 7.76238,-6.19434 9.54994,-7.27278 13.10672,-7.90744 l 3.08588,-0.55063 -2.91952,-0.0346 c -2.7229,-0.0324 -3.07957,0.0629 -5.2963,1.41188 -3.06009,1.86235 -12.94659,9.41118 -18.19292,13.89118 l -1.336077,1.14093 2.619097,0.4561 c 5.55869,0.968 10.78251,3.89661 15.52378,8.70305 3.72794,3.77918 5.99972,7.79569 7.71211,13.63504 0.18978,0.64715 0.42887,0.49582 4.39709,-2.78298 z m -25.84412,-22.21769 c 0,-0.21215 0.18382,-0.38574 0.40849,-0.38574 0.22468,0 0.30122,0.17359 0.1701,0.38574 -0.13107,0.21216 -0.31494,0.38573 -0.40851,0.38573 -0.0936,0 -0.17008,-0.17357 -0.17008,-0.38573 z m 231.07953,24.28763 c 0.41037,-0.21963 0.74611,-0.54051 0.74611,-0.71306 0,-0.17256 -1.69241,-1.5272 -3.76089,-3.01032 -2.0685,-1.48312 -5.40992,-3.88004 -7.42536,-5.32651 -2.01546,-1.44645 -8.00397,-5.86679 -13.30781,-9.82296 -5.30383,-3.95619 -12.16023,-9.0528 -15.23646,-11.32582 -14.02154,-10.36051 -28.44088,-21.0438 -40.69485,-30.15083 -20.72791,-15.4048 -27.68411,-20.46831 -31.27283,-22.76399 -1.72202,-1.10157 -2.2675,-1.28233 -2.88018,-0.95443 -0.41572,0.22249 -0.75584,0.46958 -0.75584,0.54909 0,0.15021 18.65482,14.01314 36.62261,27.21534 4.63469,3.40544 12.51469,9.21704 21.43024,15.8051 1.06075,0.78384 3.57767,2.64017 5.59312,4.12518 15.24863,11.23535 45.05475,33.29777 47.63806,35.26157 2.15536,1.63848 2.25623,1.67243 3.30408,1.11164 z m 5.0138,-4.48981 c 2.97238,-3.14258 4.21846,-4.75163 4.21846,-5.44727 0,-0.42389 -3.47264,-3.22249 -9.5469,-7.6939 -5.2508,-3.86523 -11.97703,-8.82717 -14.94716,-11.02654 -2.97017,-2.19936 -11.47557,-8.47988 -18.90094,-13.95667 -7.42537,-5.4768 -15.41004,-11.37537 -17.74373,-13.10791 -5.06478,-3.76013 -23.72443,-17.56925 -29.70146,-21.98064 -7.43751,-5.48931 -15.73,-11.50072 -18.49977,-13.41088 l -2.6847,-1.8515 -3.77633,3.76216 c -2.07696,2.06918 -3.77631,3.88604 -3.77631,4.03747 0,0.15144 4.03573,3.29241 8.96829,6.97997 11.63195,8.69595 27.5177,20.50107 32.83418,24.39988 2.30642,1.69141 6.62544,4.89788 9.59781,7.12548 2.97239,2.22761 7.20002,5.35205 9.39476,6.94319 2.19472,1.59115 6.72829,4.92343 10.07456,7.40505 3.34629,2.48161 9.64255,7.14018 13.99171,10.35235 4.34912,3.21218 10.40927,7.69101 13.46696,9.95297 9.67678,7.15847 14.05413,10.04758 14.69155,9.69661 0.31824,-0.17523 1.3708,-1.15615 2.33902,-2.17982 z M 87.942316,301.56963 c 0.724892,-0.82558 0.724396,-0.83271 -0.03659,-0.529 -0.424304,0.16934 -1.164577,0.39308 -1.645068,0.49721 -1.325222,0.28718 -1.441211,0.86866 -0.17327,0.86866 0.666401,0 1.417841,-0.339 1.854989,-0.83687 z m -3.666548,-1.99714 c 2.269088,-0.53413 5.246667,-2.60243 12.308902,-8.55005 4.33811,-3.65343 16.09276,-12.72788 19.43743,-15.00547 1.46192,-0.9955 3.15151,-1.9087 3.75464,-2.02932 1.90771,-0.38155 0.78012,-0.89686 -1.96248,-0.89686 h -2.64033 l -3.79793,2.9647 c -2.08887,1.63059 -6.7488,5.32862 -10.3554,8.21784 -7.029866,5.63158 -17.036177,13.57398 -18.856511,14.96714 -1.279648,0.97935 -0.895028,1.03982 2.111679,0.33202 z m 69.017732,-9.47086 c 0.44039,-1.78209 1.229,-3.971 1.75247,-4.86423 0.94905,-1.61941 4.17511,-4.87928 6.71791,-6.7883 1.24161,-0.93215 1.30615,-1.08138 0.87606,-2.02535 l -0.46431,-1.01903 -1.55109,1.68274 c -0.8531,0.9255 -1.55109,1.78895 -1.55109,1.91874 0,0.12975 -0.73773,0.9902 -1.63937,1.91197 -1.4437,1.47592 -3.99662,5.9645 -5.30616,9.32933 -0.39787,1.02235 -0.48946,1.07308 -0.83208,0.46086 -0.27666,-0.49437 -0.16184,-1.4226 0.40808,-3.29893 0.77627,-2.55571 1.08311,-3.11061 4.04469,-7.31454 l 1.45167,-2.06062 -1.08852,-1.59653 c -1.64429,-2.41167 -1.73186,-2.57548 -1.37667,-2.57548 0.18082,0 1.02487,0.6892 1.87565,1.53155 l 1.54687,1.53157 1.45557,-1.74129 c 1.39009,-1.66303 1.42844,-1.78269 0.85276,-2.6613 -1.7743,-2.70789 -8.26106,-7.91813 -9.85812,-7.91813 -0.34724,0 -1.40456,0.78784 -2.34959,1.75075 -1.41216,1.4389 -1.61544,1.81576 -1.14108,2.11563 0.31744,0.20068 0.70736,0.36752 0.86647,0.37077 0.36043,0.007 0.38764,1.16311 0.0274,1.16311 -0.14403,0 -0.82722,-0.20441 -1.51814,-0.45426 -1.12378,-0.40637 -1.5361,-0.32527 -3.91054,0.76919 -3.62052,1.6688 -8.15612,2.76976 -11.43979,2.77684 -1.50417,0.003 -2.99524,0.17417 -3.31346,0.37982 -0.4451,0.28766 -0.31159,0.37684 0.57859,0.38653 2.47031,0.0269 6.70013,1.21285 9.83142,2.7565 4.80124,2.36689 8.93955,6.59088 11.31149,11.54568 0.95672,1.99848 1.87315,4.50152 2.03651,5.56229 0.33766,2.19259 0.19217,2.50176 1.70643,-3.62588 z M 55.80281,270.96925 c 17.083226,-12.74688 37.748721,-21.98343 56.52635,-25.26472 2.18878,-0.38247 4.0583,-0.77408 4.15447,-0.87026 0.0963,-0.0963 -0.95063,-3.3095 -2.32621,-7.14073 -3.98346,-11.09472 -7.20627,-21.98724 -11.19642,-37.84191 -3.096867,-12.30532 -8.285028,-36.43908 -8.298936,-38.60418 -0.0102,-1.5422 -0.618379,-0.47395 -1.856579,3.25944 -2.39868,7.23245 -3.351979,16.60162 -2.967315,29.16306 0.23873,7.79542 0.201582,8.74431 -0.350579,8.95619 -0.339673,0.13033 -0.854498,0.14608 -1.144034,0.0349 -1.063327,-0.40802 -6.52754,-12.82991 -9.309819,-21.16412 -3.939888,-11.80184 -7.507387,-30.18491 -7.526587,-38.78402 l -0.0088,-4.05021 -1.439535,-1.19102 c -3.036477,-2.51227 -2.439325,-2.48595 -15.518809,-0.68429 -3.924842,0.54063 -14.246086,1.87982 -22.936113,2.97598 l -15.800051,1.993 -0.475373,2.31051 c -1.062758,5.16552 -1.396455,11.44258 -0.935469,17.59723 1.231172,16.43762 3.983128,34.22632 7.182904,46.43057 1.628068,6.20967 6.17438,18.9833 10.571126,29.70147 2.770121,6.75281 9.115176,19.86525 9.61274,19.86525 0.188271,0 0.551066,-0.25154 0.806227,-0.55899 0.713155,-0.85929 7.114091,-4.91158 11.202538,-7.09205 4.788773,-2.55399 11.70863,-5.50171 15.815067,-6.7369 5.76757,-1.73488 13.950499,-3.80599 14.170028,-3.58646 0.116923,0.11692 -0.0293,0.29477 -0.324861,0.39531 -6.999997,2.38111 -13.745769,5.30394 -21.174108,9.17437 -7.136354,3.71828 -17.879613,10.7764 -18.37738,12.07359 -0.280046,0.72975 7.028776,13.07886 7.58706,12.81924 0.111674,-0.0519 2.064124,-1.48308 4.338722,-3.18032 z m 111.60851,-1.64208 c 1.50962,-1.21839 7.42653,-6.1208 13.14867,-10.89423 5.72216,-4.77346 14.5424,-12.06382 19.60051,-16.2008 10.90773,-8.92132 27.58849,-22.78697 37.79537,-31.41686 4.03092,-3.40813 8.76097,-7.39439 10.51124,-8.85834 2.93609,-2.45582 3.67774,-3.31266 2.86734,-3.31266 -0.63991,0 -8.93046,6.65695 -25.71271,20.64615 -10.2247,8.52302 -18.33592,15.12501 -21.52417,17.51923 -2.1241,1.59509 -3.28797,1.9024 -2.18874,0.57791 0.28307,-0.34107 4.86428,-4.19994 10.18046,-8.57527 8.45872,-6.96168 11.99694,-9.88054 23.21457,-19.1509 1.29937,-1.0738 3.72949,-3.07449 5.40027,-4.44592 1.67075,-1.37145 4.64298,-3.85961 6.60494,-5.52924 l 3.56719,-3.03571 -1.41217,-1.72337 c -2.22662,-2.71731 -2.41576,-2.73662 -5.31401,-0.54295 -2.99458,2.26659 -3.48938,1.61819 -0.55067,-0.72165 1.08847,-0.86667 2.12995,-1.57575 2.3144,-1.57575 0.58046,0 0.36393,-0.67795 -0.29762,-0.93181 -0.85743,-0.32903 -1.40117,0.0559 -11.07927,7.84117 -4.63842,3.73129 -8.89114,7.12814 -9.45046,7.54856 -2.0693,1.55533 -44.36344,35.50345 -56.17682,45.09129 -2.54584,2.06622 -6.66176,5.35208 -9.14651,7.30194 -2.48473,1.94984 -4.5243,3.66701 -4.53236,3.81593 -0.009,0.14893 0.80985,0.83499 1.81756,1.52459 1.00775,0.6896 2.70346,2.07387 3.76828,3.07612 l 1.93605,1.82231 2.94098,-2.18969 c 3.20214,-2.38414 11.54509,-9.22165 21.30634,-17.46171 7.6573,-6.46399 13.44929,-11.13558 13.81698,-11.14421 1.1723,-0.0275 -1.53113,2.46236 -14.93505,13.75515 -2.54585,2.14488 -8.27399,6.97516 -12.7292,10.73398 -4.45522,3.7588 -8.42299,7.06147 -8.81726,7.33924 -0.64596,0.45513 -0.60307,1.34227 0.0645,1.33548 0.14659,-0.002 1.50168,-0.99958 3.01129,-2.21798 z m 36.00931,-51.04154 c 0.007,-0.12319 -0.81238,-0.81016 -1.82009,-1.52666 -1.99603,-1.41922 -14.93623,-10.93668 -23.24044,-17.09327 -2.86407,-2.12336 -7.98467,-6.04709 -11.37913,-8.7194 -6.37693,-5.0203 -13.04673,-10.03595 -17.74373,-13.34316 -1.48506,-1.04565 -5.39062,-3.99506 -8.67899,-6.55423 -3.28839,-2.55918 -6.55299,-5.05361 -7.2547,-5.54319 -0.70173,-0.48957 -1.19057,-0.9754 -1.08633,-1.07964 0.10423,-0.10423 0.85193,0.32187 1.66157,0.94689 1.8118,1.39867 13.69786,10.10142 17.0112,12.4553 1.33332,0.94722 4.28417,3.10511 6.55746,4.79532 20.64178,15.3473 44.6015,32.88526 46.27816,33.87451 1.1228,0.66247 1.3598,0.68691 1.93962,0.20007 0.36329,-0.30503 2.35293,-1.89825 4.42143,-3.54046 2.06849,-1.64221 3.7609,-3.11029 3.7609,-3.26239 0,-0.15212 -4.55648,-3.65084 -10.12549,-7.77496 -29.03798,-21.50398 -56.26507,-41.7332 -75.31442,-55.95723 -6.15243,-4.594 -13.61286,-10.11328 -16.57871,-12.26509 l -5.39244,-3.91237 -0.97215,0.98743 -0.97215,0.98745 1.14213,0.92321 c 1.47715,1.19401 0.99034,1.67818 -0.74675,0.74269 -1.32291,-0.71242 -1.35483,-0.71186 -1.94042,0.0344 -1.78706,2.27751 -4.122167,5.63319 -3.998187,5.74561 0.5694,0.51629 7.975727,6.19419 10.107757,7.74892 4.88928,3.56537 10.72818,8.28673 10.24815,8.28673 -0.55887,0 -6.5289,-3.94468 -15.19842,-10.04231 -3.39445,-2.38746 -6.432094,-4.35925 -6.750337,-4.38175 -2.119738,-0.14995 1.32217,2.8026 13.307807,11.41572 3.93014,2.82428 5.47822,3.97142 29.55441,21.90003 25.29108,18.83329 43.27951,32.19674 46.60761,34.62441 1.81446,1.32355 5.893,4.3005 9.06342,6.61545 5.62934,4.11037 5.78498,4.19408 6.64178,3.57241 0.48256,-0.35013 0.88282,-0.73734 0.88948,-0.86049 z m 52.44794,-22.49903 c -1.23834,-2.6345 -1.61788,-2.53314 -0.53097,0.14185 0.51734,1.27314 0.96979,2.79562 1.00545,3.38325 0.0497,0.81907 0.0996,0.74022 0.21376,-0.33784 0.0957,-0.90342 -0.15043,-2.04307 -0.68824,-3.1872 z m 6.94242,-3.21763 c 0.0131,-0.47734 -0.0641,-0.86789 -0.17266,-0.86789 -0.10861,0 -1.26511,1.01613 -2.57015,2.25805 -1.75059,1.66594 -2.30514,2.43441 -2.11474,2.93058 0.21795,0.56797 0.61363,0.35188 2.54547,-1.39016 1.45561,-1.31259 2.29638,-2.37827 2.31208,-2.93058 z m -2.20151,-1.21578 c 1.61876,-1.12795 1.69103,-1.2902 0.87613,-1.96651 -0.47339,-0.39287 -0.5786,-0.36775 -0.5786,0.13821 0,0.3401 -0.8679,1.2663 -1.92867,2.05823 -1.06076,0.79195 -1.92867,1.59639 -1.92867,1.78765 0,0.34869 0.87834,-0.14911 3.55981,-2.01752 z m -3.16753,0.83006 c 0.003,-0.15911 0.77927,-1.11307 1.72375,-2.1199 l 1.71721,-1.8306 -0.77959,-1.3213 c -1.35864,-2.30274 -4.85548,-4.46797 -7.21576,-4.46797 -0.67919,0 -2.051,0.66348 -3.58043,1.73164 -1.36366,0.95241 -2.78315,1.73352 -3.15442,1.73581 -1.24342,0.007 -0.69209,0.61104 0.96434,1.05535 1.75829,0.47164 5.79239,3.00902 7.24897,4.55947 0.82943,0.88288 3.06006,1.35969 3.07593,0.6575 z m -6.564,-5.05199 c 0,-0.50226 -0.29605,-0.82035 -0.83769,-0.90005 -1.32925,-0.19559 -1.34003,-1.0876 -0.0131,-1.0876 1.28039,0 2.13672,0.78507 1.94347,1.78174 -0.18683,0.9635 -1.09262,1.13419 -1.09262,0.20591 z m 16.8791,-3.44439 c 4.92288,-4.37947 13.5466,-11.68988 18.83488,-15.96651 2.5366,-2.05135 4.95538,-4.13096 5.37504,-4.62137 0.82592,-0.96511 -1.30533,0.65131 -6.18016,4.68727 -1.69723,1.40515 -6.55748,5.40648 -10.80054,8.89182 -8.5626,7.0335 -10.9934,9.17209 -10.9934,9.67186 0,0.61779 0.37233,0.3544 3.76418,-2.66307 z M 84.369598,180.3076 c -0.39691,-3.26688 -0.624749,-8.61044 -0.657246,-15.41497 -0.05525,-11.56257 0.300996,-14.59267 2.492496,-21.20167 1.489992,-4.49341 2.388051,-5.65805 4.594304,-5.95809 1.589391,-0.21615 1.799123,-0.40503 4.271937,-3.84732 3.314674,-4.61419 7.740551,-9.08593 10.080331,-10.18478 0.99903,-0.46919 1.82354,-0.97361 1.83223,-1.12096 0.0465,-0.78669 -13.455854,-11.10314 -14.537811,-11.10764 -0.473057,-9.8e-4 -1.567349,0.2794 -2.431775,0.62526 -1.515782,0.60651 -1.598517,0.60004 -2.326645,-0.18152 -0.415251,-0.44571 -1.83786,-1.54135 -3.161375,-2.43476 -1.323502,-0.89341 -4.808236,-3.34365 -7.743841,-5.44498 -4.181374,-2.99305 -5.530329,-3.7722 -6.227797,-3.59715 -2.02014,0.50702 -10.614398,10.89012 -10.614398,12.82372 0,0.39179 12.341981,9.77358 14.951472,11.3654 0.479719,0.29263 0.9604,0.8099 1.068181,1.1495 0.222299,0.70037 1.773319,1.506 2.899436,1.506 0.990155,0 0.970021,1.05053 -0.03586,1.86683 -0.46307,0.37581 -1.194129,1.99516 -1.769324,3.91917 -2.468235,8.25607 -1.224992,21.36694 3.785759,39.92338 0.966275,3.57845 2.938595,10.18281 3.616325,12.10938 0.497139,1.41323 0.467398,-0.23601 -0.08645,-4.7948 z m -2.80514,-55.24526 c -0.725242,-0.36944 -1.661191,-1.13912 -2.079898,-1.7104 -0.718928,-0.98089 -0.725547,-1.09323 -0.118963,-2.01897 1.229059,-1.87576 3.49873,-1.58086 5.349214,0.69505 1.788189,2.19932 -0.487227,4.39092 -3.150338,3.03432 z m -10.138615,-4.23973 c -8.587026,-6.07333 -10.700323,-7.63406 -10.707147,-7.90754 -0.02246,-0.90007 1.959958,0.1025 6.388603,3.23094 7.148104,5.04947 9.698696,7.28029 8.323834,7.28029 -0.178184,0 -1.980558,-1.17167 -4.00529,-2.60369 z m 16.998335,-2.50918 c -2.567547,-2.17044 -2.066734,-4.53423 0.959539,-4.52902 1.193777,0.002 3.283866,1.37405 3.791941,2.48915 1.112472,2.44162 -2.461253,3.97588 -4.75148,2.03987 z m 175.798212,66.01693 c 0.40414,-0.44729 2.29704,-2.05002 4.20642,-3.56161 1.90937,-1.5116 7.00151,-5.67656 11.31586,-9.25544 19.6329,-16.28616 25.88439,-21.14257 27.04246,-21.00769 1.24009,0.14447 1.46682,1.32112 0.60464,3.13805 -0.34353,0.7239 -3.82636,4.39006 -7.73962,8.14703 -3.91326,3.75697 -7.11502,6.97373 -7.11502,7.14835 0,0.51935 5.35899,2.57301 8.679,3.32596 4.6678,1.05862 11.6285,0.90599 16.47304,-0.36118 11.03779,-2.8871 20.37664,-10.01202 35.28705,-26.92166 5.5857,-6.33465 12.67663,-13.08713 19.12555,-18.21271 3.09082,-2.45658 5.73491,-4.82959 5.87576,-5.27341 0.33542,-1.05679 -0.18949,-1.63652 -3.03843,-3.35565 -5.5197,-3.33072 -17.11756,-11.81072 -24.73485,-18.08538 -4.00453,-3.298677 -21.98387,-17.463117 -23.67695,-18.653117 -0.96235,-0.67641 -1.46357,-0.81643 -1.91135,-0.53398 -0.33381,0.21056 -1.14471,2.19142 -1.80198,4.40191 -3.64714,12.26577 -11.98118,22.201617 -21.9842,26.209587 -4.523,1.81224 -7.83063,2.68928 -10.14227,2.68928 -2.0174,0 -2.07975,0.0354 -4.63003,2.63395 -4.75795,4.84789 -9.64039,12.45834 -11.5496,18.00278 -0.92908,2.69809 -1.06264,3.66754 -1.0629,7.71467 -2.5e-4,3.8211 0.15675,5.09994 0.89973,7.32893 1.10823,3.32475 2.85958,6.67291 4.4572,8.52109 l 1.20671,1.39595 2.11763,-1.6242 c 11.95291,-9.16775 13.9749,-10.49386 15.01777,-9.84933 0.82316,0.50875 0.35297,1.32632 -2.06189,3.5853 -2.47945,2.31942 -13.61194,11.45175 -20.09585,16.48531 -1.90937,1.48226 -4.94703,3.88614 -6.75033,5.34195 -1.8033,1.45578 -4.61748,3.71372 -6.25373,5.01761 -1.63623,1.30388 -2.98148,2.48674 -2.98943,2.62855 -0.007,0.14185 0.57514,0.62221 1.29571,1.06755 0.7206,0.44534 1.59249,1.24063 1.93757,1.76728 0.76521,1.16787 1.0527,1.18864 1.99633,0.14433 z m 46.92637,-15.25727 c -0.26519,-0.107 -0.48217,-0.61271 -0.48217,-1.12377 0,-0.80273 0.64325,-1.25068 4.72524,-3.29057 9.84643,-4.92058 16.13159,-9.56183 23.91695,-17.66138 3.62336,-3.76958 4.99215,-4.41023 5.65126,-2.64504 0.58522,1.56731 -0.40303,3.16629 -5.48277,8.87111 -3.19419,3.58726 -11.19625,9.39229 -16.95238,12.29797 -5.41411,2.73303 -9.91923,4.13957 -11.37613,3.55168 z m 3.39052,-8.01929 c -0.76613,-0.92314 -0.0931,-2.02634 2.02899,-3.32602 3.57777,-2.19113 8.08236,-5.95771 12.59868,-10.5345 4.37727,-4.43588 5.42725,-5.08534 6.49515,-4.01744 0.8534,0.85341 0.47583,2.15328 -1.47096,5.06397 -2.2892,3.42262 -5.03356,6.02257 -9.36473,8.87191 -6.09638,4.01062 -9.23277,5.2125 -10.28713,3.94208 z m 31.80764,-21.47706 c -2.10991,-1.17954 -2.35081,-3.46542 -0.57802,-5.48452 1.43579,-1.63527 2.44697,-1.92938 3.55334,-1.03348 l 0.85097,0.68907 -1.29449,1.47435 c -1.30335,1.48443 -1.13653,2.12063 0.34778,1.32625 1.02068,-0.54626 1.55635,-0.21205 1.55635,0.97103 0,1.56277 -2.90805,2.91147 -4.43593,2.0573 z m 7.39321,-2.13546 c -0.58654,-0.58655 -0.18263,-1.81735 0.94084,-2.86682 1.23749,-1.156 2.62488,-1.48266 2.70504,-0.63692 0.1954,2.06144 -2.49891,4.65071 -3.64588,3.50374 z m 2.27767,-8.06366 c -0.3334,-0.33339 -0.60137,-0.81073 -0.59552,-1.06077 0.015,-0.64077 4.29456,-6.84827 5.04789,-7.32196 1.62213,-1.01998 2.49559,1.12203 1.30607,3.20288 -0.3032,0.53038 -0.56294,1.39828 -0.57719,1.92867 -0.031,1.15173 -0.7621,2.19185 -2.21336,3.14881 -1.31163,0.86489 -2.17557,0.89469 -2.96789,0.10234 z M 92.727342,139.5536 c 0,-0.67548 -0.08908,-0.71845 -0.604047,-0.29112 -0.332209,0.27571 -0.869689,1.01503 -1.194376,1.64289 l -0.590343,1.14161 1.194376,-0.85048 c 0.671766,-0.47833 1.19439,-1.19721 1.19439,-1.6429 z m 15.656288,-14.10023 c -0.42138,-0.4214 -0.71033,0.24872 -0.40778,0.94572 0.28685,0.66092 0.30763,0.66031 0.46746,-0.0131 0.092,-0.38788 0.0651,-0.80736 -0.0596,-0.93219 z m 194.88464,-20.8161 c 0.49221,-0.59192 1.94091,-2.44874 3.21934,-4.12626 l 2.32439,-3.050057 -1.65509,1.21719 c -2.39348,1.760167 -9.9476,8.303937 -9.97107,8.637427 -0.0467,0.6622 5.2406,-1.66593 6.08243,-2.6783 z"
       id="path7" /></g><metadata
     id="metadata182"><rdf:RDF><cc:Work
         rdf:about=""><cc:license
           rdf:resource="http://creativecommons.org/licenses/by-sa/4.0/" /><dc:publisher><cc:Agent><dc:title>OpenDataKerala.org</dc:title></cc:Agent></dc:publisher><dc:date>April 2026</dc:date><dc:title>Election Symbols of Kerala</dc:title><dc:creator><cc:Agent><dc:title>Manoj Karingamadathil</dc:title></cc:Agent></dc:creator></cc:Work><cc:License
         rdf:about="http://creativecommons.org/licenses/by-sa/4.0/"><cc:permits
           rdf:resource="http://creativecommons.org/ns#Reproduction" /><cc:permits
           rdf:resource="http://creativecommons.org/ns#Distribution" /><cc:requires
           rdf:resource="http://creativecommons.org/ns#Notice" /><cc:requires
           rdf:resource="http://creativecommons.org/ns#Attribution" /><cc:permits
           rdf:resource="http://creativecommons.org/ns#DerivativeWorks" /><cc:requires
           rdf:resource="http://creativecommons.org/ns#ShareAlike" /></cc:License></rdf:RDF></metadata></svg>
