<?xml version="1.0" encoding="UTF-8" standalone="no"?>
<!-- Created with Inkscape (http://www.inkscape.org/) -->

<svg
   width="1500"
   height="1500"
   viewBox="0 0 396.87499 396.875"
   version="1.1"
   id="svg5"
   xml:space="preserve"
   inkscape:version="1.3 (0e150ed6c4, 2023-07-21)"
   sodipodi:docname="Stumps.svg"
   inkscape:export-filename="Sitar.png"
   inkscape:export-xdpi="96"
   inkscape:export-ydpi="96"
   xmlns:inkscape="http://www.inkscape.org/namespaces/inkscape"
   xmlns:sodipodi="http://sodipodi.sourceforge.net/DTD/sodipodi-0.dtd"
   xmlns="http://www.w3.org/2000/svg"
   xmlns:svg="http://www.w3.org/2000/svg"
   xmlns:rdf="http://www.w3.org/1999/02/22-rdf-syntax-ns#"
   xmlns:cc="http://creativecommons.org/ns#"
   xmlns:dc="http://purl.org/dc/elements/1.1/"><title
     id="title186">Election Symbols of Kerala</title><sodipodi:namedview
     id="namedview7"
     pagecolor="#ffffff"
     bordercolor="#000000"
     borderopacity="0.25"
     inkscape:showpageshadow="2"
     inkscape:pageopacity="0.0"
     inkscape:pagecheckerboard="0"
     inkscape:deskcolor="#d1d1d1"
     inkscape:document-units="mm"
     showgrid="false"
     inkscape:zoom="0.25"
     inkscape:cx="230"
     inkscape:cy="1078"
     inkscape:window-width="1920"
     inkscape:window-height="991"
     inkscape:window-x="-9"
     inkscape:window-y="-9"
     inkscape:window-maximized="1"
     inkscape:current-layer="layer1" /><defs
     id="defs2"><inkscape:path-effect
       effect="bspline"
       id="path-effect3248"
       is_visible="true"
       lpeversion="1"
       weight="33.333333"
       steps="2"
       helper_size="0"
       apply_no_weight="true"
       apply_with_weight="true"
       only_selected="false" /><inkscape:path-effect
       effect="bspline"
       id="path-effect577"
       is_visible="true"
       lpeversion="1"
       weight="33.333333"
       steps="2"
       helper_size="0"
       apply_no_weight="true"
       apply_with_weight="true"
       only_selected="false" /></defs><g
     inkscape:label="Layer 1"
     inkscape:groupmode="layer"
     id="layer1"><path
       style="fill:#000000;stroke-width:1.52434"
       d="m 116.61828,389.632 c -0.493,-0.34531 -0.89562,-0.93516 -0.89471,-1.31077 0.002,-0.84913 -1.57908,-8.25319 -3.63529,-17.02308 -1.68904,-7.20386 -5.26139,-18.87428 -6.17808,-20.18304 -0.48552,-0.69318 -0.54546,-24.87868 -0.41705,-168.27331 l 0.14996,-167.463773 2.11537,-1.951494 c 4.43265,-4.0892621 9.30651,-5.0744141 17.71917,-3.5815493 4.21185,0.7474153 4.32831,0.7476443 5.06555,0.01067 1.14395,-1.1439428 3.47022,-1.3722893 5.34906,-0.5250445 1.10237,0.497088 1.74766,0.5924356 2.10357,0.3107829 0.94312,-0.7462876 2.89405,-0.8463149 4.44029,-0.2276301 1.25306,0.5013715 1.74636,0.5229714 2.72125,0.1192036 0.72068,-0.298512 1.8725,-0.3900182 2.91773,-0.2317915 2.13724,0.3235264 3.20481,0.3225509 5.70234,-0.00457 1.59436,-0.2092465 2.16242,-0.1065515 3.05338,0.552193 0.85999,0.6358189 1.49767,0.7638479 2.97515,0.5973139 2.27664,-0.256608 4.05024,0.403737 4.65617,1.733604 l 0.44698,0.981037 h 6.9231 6.9231 l 1.27834,-1.478827 c 1.15294,-1.333753 1.47365,-1.478063 3.26927,-1.471005 1.09501,0.0046 2.34892,-0.2376908 2.78646,-0.5377576 0.96586,-0.6623725 6.30701,-0.7430407 6.94515,-0.1048748 0.3187,0.3186943 0.69866,0.3026125 1.37267,-0.058077 0.88403,-0.4731254 2.84472,-0.5108681 8.63253,-0.1662296 3.22788,0.1922044 2.97537,0.1953293 5.09966,-0.062955 1.40193,-0.1704824 2.14722,-0.048169 2.9627,0.486128 0.77364,0.506905 1.72865,0.684308 3.29358,0.611825 2.412,-0.111734 3.92718,0.569403 4.36996,1.964481 0.24656,0.776851 0.58488,0.817383 6.82221,0.817383 h 6.56279 l 0.46896,-1.029251 c 0.59014,-1.295234 2.8341,-2.2683587 4.47422,-1.940335 0.77962,0.155925 1.47861,0.04375 1.89824,-0.3044421 0.83077,-0.6894753 7.18107,-0.9418759 8.63681,-0.3432819 0.78867,0.3243039 1.31009,0.2784364 2.21823,-0.1951158 1.50084,-0.7826279 3.12123,-0.7917282 4.60231,-0.025761 1.02084,0.527895 1.29111,0.5281846 2.29905,0.00305 1.71385,-0.8938896 3.52832,-0.7467296 4.88678,0.396329 0.6517,0.5483818 1.27174,0.9102148 1.37787,0.8040908 0.51317,-0.51317 10.04365,-1.4377599 12.42177,-1.2050691 4.52049,0.442288 6.38558,1.2694871 8.97378,3.9800121 l 2.31905,2.428659 V 182.97711 c 0,166.58361 -0.003,167.25146 -0.80585,168.27188 -0.89424,1.13684 -2.82115,7.34043 -5.22765,16.83018 -1.67523,6.6061 -4.45269,19.27677 -4.45269,20.313 0,0.89601 -1.59846,1.86935 -3.06994,1.86935 -2.28541,0 -2.77822,-0.87537 -3.97339,-7.05803 -2.38025,-12.31295 -7.42681,-30.4587 -8.87321,-31.90511 -0.55497,-0.55496 -0.61941,-17.75116 -0.61941,-165.30662 V 21.302856 l -1.6094,0.215862 c -0.99233,0.133075 -1.8411,0.02363 -2.21369,-0.285646 -0.48584,-0.403219 -0.92298,-0.373998 -2.23025,0.14908 -1.90843,0.763604 -4.07643,0.84569 -4.74257,0.179553 -0.35916,-0.359166 -0.84441,-0.359166 -2.04319,0 -2.17132,0.650543 -3.5728,0.589905 -4.93273,-0.213424 -1.0169,-0.600697 -1.40396,-0.621596 -3.16282,-0.170817 -1.73203,0.443903 -2.19134,0.424788 -3.3832,-0.14085 -0.75849,-0.359927 -1.8927,-1.190511 -2.52046,-1.84575 l -1.14137,-1.191334 h -6.41535 c -6.02518,0 -6.42788,0.04786 -6.62138,0.787841 -0.36334,1.389423 -2.12718,2.210037 -4.6422,2.159749 -1.53093,-0.03064 -2.4595,0.143593 -2.77176,0.519755 -0.25827,0.311195 -1.17332,0.565806 -2.03345,0.565806 h -1.56389 V 186.32943 c 0,158.57284 -0.0257,164.33022 -0.73786,165.25856 -1.4055,1.83217 -5.33608,16.90368 -8.56029,32.82377 -0.99406,4.90839 -1.60621,5.84808 -3.8096,5.84808 -2.37176,0 -2.85313,-0.84355 -4.02759,-7.05802 -2.17632,-11.51556 -7.37219,-29.99584 -8.91188,-31.69709 -0.75911,-0.83878 -0.77535,-3.88269 -0.88688,-166.26737 l -0.11361,-165.412964 -1.09633,-0.897914 c -1.03362,-0.846543 -1.47842,-0.898737 -7.77602,-0.91241 l -6.67969,-0.01524 -0.86786,1.173835 c -1.01667,1.375124 -3.29058,2.239457 -4.99486,1.898599 -0.74538,-0.149081 -1.67677,0.0046 -2.45063,0.405048 -0.90375,0.467348 -1.75858,0.570683 -3.09719,0.374409 -1.0169,-0.149081 -2.16652,-0.246227 -2.55471,-0.215847 -0.92521,0.07241 -5.29411,0.05808 -6.45305,-0.02119 -0.49911,-0.03415 -1.66205,0.06768 -2.58433,0.226243 -1.21409,0.208743 -2.04176,0.106246 -2.99906,-0.371285 -1.07908,-0.538306 -1.57558,-0.575972 -2.70015,-0.204841 -0.75787,0.25013 -2.0853,0.341666 -2.94984,0.203409 l -1.5719,-0.250649 V 185.97969 c 0,164.26403 -0.002,164.76522 -0.80663,165.45378 -0.44365,0.37987 -0.80663,0.97108 -0.80663,1.31382 0,0.34273 -0.64499,2.79791 -1.43331,5.45595 -1.71322,5.77661 -5.02797,19.60629 -6.23955,26.03248 -0.67632,3.58719 -1.06326,4.76742 -1.74066,5.30936 -1.08894,0.87116 -3.03251,0.9113 -4.20947,0.0869 z m 3.18852,-1.48956 c 0.35178,-0.2911 0.99248,-2.46411 1.51618,-5.14228 1.32061,-6.75349 2.67689,-12.45871 5.16229,-21.71537 1.21157,-4.51236 2.11743,-8.28972 2.01302,-8.39414 -0.10442,-0.10442 -1.25227,-0.003 -2.55079,0.22542 -4.43726,0.78045 -8.40965,0.93404 -12.24217,0.47335 -2.10732,-0.25331 -4.12442,-0.54987 -4.48243,-0.65901 -0.53272,-0.16241 -0.36541,0.7738 0.92129,5.15526 3.59091,12.22767 4.54717,16.19109 6.20577,25.72113 0.63455,3.646 1.22575,4.83979 2.39682,4.83979 0.24794,0 0.72495,-0.22687 1.06002,-0.50415 z m 75.94444,-0.12972 c 0.34858,-0.34857 0.63379,-0.92081 0.63379,-1.27162 0,-1.36386 4.61597,-21.20522 6.29477,-27.05751 2.09567,-7.30551 2.11174,-7.44487 0.80122,-6.94661 -3.00376,1.14202 -13.11221,1.39249 -17.6179,0.43653 l -1.4473,-0.30708 0.94955,3.26985 c 4.18338,14.40577 5.84148,20.98146 6.82473,27.06546 0.69032,4.27151 1.21358,5.44477 2.42828,5.44477 0.2745,0 0.78428,-0.2852 1.13286,-0.63379 z m -7.804,-24.60705 c 0.0194,-0.46983 0.11492,-0.56541 0.24367,-0.24367 0.1165,0.29114 0.10217,0.63901 -0.0318,0.77303 -0.13402,0.13399 -0.22934,-0.10427 -0.21183,-0.52936 z m -0.40332,-1.61326 c 0.0194,-0.46984 0.11492,-0.56541 0.24367,-0.24366 0.11651,0.29113 0.10218,0.63899 -0.0318,0.77301 -0.13402,0.13399 -0.22934,-0.10427 -0.21183,-0.52935 z m 87.26439,25.70144 c 0.11372,-0.36424 0.58625,-2.56792 1.05006,-4.89707 1.3675,-6.86726 3.84684,-17.09925 5.74156,-23.69478 0.97176,-3.38279 1.6877,-6.22971 1.59094,-6.32646 -0.0968,-0.0968 -0.57707,-0.0235 -1.06736,0.16298 -2.30437,0.87612 -8.63248,1.30089 -13.18349,0.88493 -2.53447,-0.23164 -4.91492,-0.5389 -5.28991,-0.6828 -0.76871,-0.29499 -0.89097,-0.8033 2.62213,10.90194 0.99864,3.32737 2.19706,7.68318 2.66316,9.67958 0.79973,3.42538 1.08626,4.98408 2.13755,11.62815 0.34746,2.19586 0.60625,2.81819 1.27478,3.0655 1.11702,0.41322 2.20589,0.0937 2.46058,-0.72197 z m -146.38196,-36.60698 2.01658,-0.78226 V 185.20477 20.304854 l -1.00829,-0.744306 c -2.708,-1.998992 -14.4287,-2.547085 -20.06495,-0.938294 l -2.52072,0.719505 V 184.77283 350.20389 l 2.31906,0.65995 c 1.27549,0.36296 2.68205,0.74376 3.1257,0.84619 0.44364,0.10244 3.80124,0.13521 7.46133,0.0727 5.43324,-0.0927 7.02485,-0.25712 8.67129,-0.89579 z m -15.93097,-13.46136 c 0,-0.24647 1.88214,-0.40332 4.83979,-0.40332 2.95765,0 4.83979,0.15685 4.83979,0.40332 0,0.24647 -1.88214,0.40331 -4.83979,0.40331 -2.95765,0 -4.83979,-0.15684 -4.83979,-0.40331 z m 11.39367,-0.27802 c 0.38819,-0.10152 1.02341,-0.10152 1.4116,0 0.38819,0.10136 0.0706,0.18444 -0.7058,0.18444 -0.77638,0 -1.09399,-0.0831 -0.7058,-0.18444 z m -15.99086,-1.63041 c -0.11776,-0.11783 0.0517,-0.59364 0.37662,-1.05751 0.70816,-1.01104 0.77547,-3.14105 0.11998,-3.79654 -0.3588,-0.3588 -0.31084,-0.53212 0.20166,-0.72879 1.23721,-0.47476 1.91745,0.0867 1.48451,1.22548 -0.21385,0.56248 -0.23404,1.02268 -0.0449,1.02268 0.57502,0 1.33593,-1.14689 1.05861,-1.59559 -0.15423,-0.24955 0.15041,-0.42098 0.74811,-0.42098 1.27445,0 1.72752,0.66711 0.67907,0.99988 -1.26247,0.40069 -1.44917,1.74654 -0.39757,2.86593 0.50325,0.53568 1.04113,0.97398 1.1953,0.97398 0.15416,0 0.75255,-1.08896 1.32977,-2.4199 0.57721,-1.33095 1.21184,-2.41989 1.41028,-2.41989 0.35751,0 2.08215,4.29362 2.08215,5.18368 0,0.2545 -0.27224,0.46273 -0.60498,0.46273 -0.33273,0 -0.60497,-0.34182 -0.60497,-0.7596 0,-0.41776 -0.35247,-0.85175 -0.78328,-0.96442 -0.91665,-0.2397 -1.2333,-0.006 -1.2333,0.90776 0,0.55928 -0.53017,0.66821 -3.40149,0.69888 -1.87082,0.02 -3.49784,-0.06 -3.6156,-0.17778 z m 3.79056,-0.44896 c 0,-0.52508 -1.44423,-1.71036 -1.73263,-1.42196 -0.39951,0.3995 0.48355,1.76277 1.14185,1.76277 0.32493,0 0.59078,-0.15337 0.59078,-0.34081 z m 4.56696,-2.72408 c -0.15517,-0.40439 -0.37471,-0.48206 -0.63288,-0.2239 -0.46187,0.46188 -0.0148,1.39014 0.51265,1.06421 0.19681,-0.12164 0.25091,-0.49977 0.12024,-0.84031 z m 3.27441,1.9848 c -0.52078,-1.31308 -1.0306,-2.46309 -1.71147,-3.86053 -0.0811,-0.16637 0.32147,-0.30248 0.89452,-0.30248 0.91846,0 1.04189,0.16442 1.04189,1.38779 0,0.7633 0.1815,1.49997 0.40332,1.63707 0.22182,0.13704 0.40332,-0.0337 0.40332,-0.37952 0,-0.99652 0.80297,-0.72993 0.83938,0.2787 0.0292,0.80914 0.0924,0.77638 0.58336,-0.30249 0.30283,-0.66547 0.4719,-1.4822 0.37572,-1.81493 -0.13428,-0.46453 0.25653,-0.63289 1.68347,-0.72522 1.81085,-0.11722 1.85177,-0.0939 1.60042,0.90747 -0.35737,1.42391 0.43935,1.3128 1.28862,-0.17969 0.66295,-1.16505 1.28202,-1.49138 1.8161,-0.9573 0.14036,0.14039 -0.19238,0.60727 -0.73941,1.03756 -1.29521,1.01881 -1.25573,1.4243 0.29445,3.02368 l 1.28906,1.32998 H 128.28 c -0.82442,0 -1.21428,-0.15951 -1.04789,-0.42874 0.14573,-0.2358 -0.0704,-0.80112 -0.48034,-1.25625 -0.74269,-0.82463 -0.74602,-0.82278 -0.94697,0.52496 -0.11712,0.78548 -0.46368,1.4026 -0.82664,1.47194 -0.52722,0.10076 -0.59823,-0.30074 -0.45395,-2.56648 0.21735,-3.41352 -0.55262,-3.39675 -1.78425,0.0389 -0.74891,2.08906 -0.89875,2.27172 -1.29851,1.58284 -0.38806,-0.6687 -0.45364,-0.68235 -0.46417,-0.0968 -0.0244,1.35663 -0.84935,1.15683 -1.44716,-0.35048 z m -2.19495,-6.17959 c -0.50096,-0.32374 -0.46629,-0.39097 0.20166,-0.39097 0.44364,0 1.07887,0.17594 1.4116,0.39097 0.50096,0.32374 0.46629,0.39096 -0.20165,0.39096 -0.44365,0 -1.07887,-0.17594 -1.41161,-0.39096 z m -2.20101,-1.58539 c -0.37506,-0.60688 0.57119,-0.94702 1.19478,-0.42949 0.69675,0.57826 3.55642,-0.21578 3.32097,-0.92212 -0.23158,-0.69476 -1.10479,-0.82488 -1.10479,-0.16463 0,0.66792 -1.07634,1.21524 -1.66924,0.84879 -0.23623,-0.14604 -0.20288,-0.46013 0.0858,-0.80794 0.57048,-0.68738 -0.0744,-0.76643 -0.74905,-0.0918 -0.80255,0.80255 -1.07338,-0.0137 -0.29128,-0.8781 0.41172,-0.45495 1.24325,-0.8091 1.89969,-0.8091 1.4322,0 3.65287,1.09492 3.45071,1.70139 -0.43971,1.31914 -5.49202,2.59753 -6.13757,1.553 z m -2.43606,-0.8328 c -0.3006,-0.48637 1.69233,-1.46762 2.11742,-1.04254 0.16508,0.16508 -0.0519,0.55756 -0.48211,0.87215 -0.92442,0.67595 -1.29875,0.71496 -1.63531,0.17039 z m 9.44471,-0.24209 c -0.46642,-0.56201 -0.41271,-0.62601 0.42317,-0.50415 0.52657,0.0767 1.03211,0.36642 1.12343,0.6437 0.23897,0.72565 -0.91497,0.6215 -1.5466,-0.13948 z m 81.90521,25.41848 2.21824,-0.77751 0.10132,-164.2936 c 0.0965,-156.386636 0.0673,-164.278355 -0.60497,-163.976627 -1.1406,0.51189 -2.53209,0.326606 -5.74774,-0.765341 -6.53982,-2.220754 -7.49698,-2.41715 -10.62652,-2.180465 -1.64925,0.124691 -3.99822,0.541873 -5.21994,0.926998 l -2.22132,0.700207 0.1571,164.568738 c 0.10245,107.32788 0.29531,164.70696 0.55449,164.96615 0.21857,0.21856 1.62686,0.72699 3.12954,1.12981 3.8565,1.03382 14.97748,0.85211 18.2598,-0.29836 z m -15.93097,-13.48194 c -0.50354,-0.21638 1.31499,-0.35496 4.83979,-0.3688 3.78504,-0.0152 5.44699,0.10671 5.04145,0.3688 -0.74215,0.4796 -8.76511,0.4796 -9.88124,0 z m 12.40964,-0.2795 c 0.39241,-0.10229 0.93689,-0.0956 1.20994,0.0152 0.27306,0.11052 -0.048,0.19414 -0.71348,0.18593 -0.66547,-0.008 -0.88888,-0.0986 -0.49646,-0.20088 z m -17.04777,-1.91195 c 0,-0.34748 0.2067,-0.63177 0.45933,-0.63177 0.3174,0 0.39088,-0.75496 0.23779,-2.4432 -0.21123,-2.32948 -0.18098,-2.43744 0.64979,-2.31907 0.64555,0.0919 0.83863,0.35928 0.74515,1.03161 -0.0694,0.4991 0.0445,0.90746 0.2531,0.90746 0.49918,0 1.48775,-1.19803 1.03158,-1.25015 -0.19353,-0.0221 0.10186,-0.17502 0.65642,-0.33979 1.6393,-0.48706 1.77127,-0.0137 0.33529,1.20323 l -1.34358,1.13839 1.32264,1.33825 c 1.50883,1.52663 1.63513,1.4459 2.81294,-1.79807 0.90933,-2.50451 1.63737,-2.33346 2.62015,0.61559 0.42505,1.2755 0.9392,2.31908 1.14254,2.31908 0.20334,0 0.3697,0.19411 0.3697,0.43136 0,0.23724 -0.40835,0.37337 -0.90746,0.30249 -0.54374,-0.0773 -0.90746,-0.40998 -0.90746,-0.83018 0,-0.38572 -0.13612,-0.70333 -0.30249,-0.7058 -1.72811,-0.0258 -1.91575,0.0528 -1.91575,0.80213 0,0.68027 -0.26887,0.80662 -1.71646,0.80662 -1.51929,0 -1.77799,-0.13902 -2.25204,-1.20995 -0.67049,-1.51472 -1.37487,-1.57378 -1.20263,-0.10076 0.11094,0.94871 -0.0307,1.12757 -0.97943,1.23673 -0.79222,0.0912 -1.10912,-0.0529 -1.10912,-0.50414 z m 8.86677,-2.14419 c -0.008,-0.38613 -0.78601,-1.60379 -0.79428,-1.24293 -0.003,0.14816 -0.11634,0.55656 -0.25098,0.90745 -0.16065,0.41863 -0.022,0.63795 0.40331,0.63795 0.35647,0 0.64535,-0.13612 0.64195,-0.30247 z m 7.99842,0.11829 c 0.2249,-3.53206 -0.66496,-3.63416 -1.91013,-0.21914 -0.876,2.40252 -1.73005,3.06801 -2.19971,1.71409 -0.13466,-0.38819 -0.70089,-1.50681 -1.25829,-2.4858 -0.55741,-0.979 -0.95958,-1.83389 -0.89372,-1.89976 0.36217,-0.36217 1.90162,0.44581 1.91374,1.00442 0.008,0.36232 0.25741,1.09757 0.55456,1.63391 l 0.54027,0.97514 0.4764,-0.89016 c 0.26201,-0.48959 0.42082,-1.29139 0.3529,-1.78177 -0.11069,-0.79914 0.0766,-0.90442 1.80562,-1.01509 1.88885,-0.12088 1.92371,-0.10198 1.67037,0.90745 -0.33224,1.32373 0.34239,1.33643 1.20321,0.0226 0.36336,-0.55456 0.96035,-1.00828 1.32663,-1.00828 0.55834,0 0.52424,0.15091 -0.21095,0.93345 -1.14191,1.21551 -1.11597,1.40308 0.41213,2.97967 l 1.28906,1.32998 h -1.2764 c -0.88814,0 -1.21459,-0.1611 -1.07319,-0.52959 0.11177,-0.29129 -0.18453,-0.88052 -0.65846,-1.30941 l -0.86168,-0.77981 0.14166,1.41023 c 0.11758,1.17065 0.001,1.43034 -0.6852,1.52855 -0.77556,0.11097 -0.81644,-0.0454 -0.65882,-2.52073 z m -8.93331,-4.9245 c -0.59182,-0.59181 -0.17981,-0.73319 1.74745,-0.59964 1.10926,0.0768 2.01683,0.30372 2.01683,0.50414 0,0.41746 -3.35715,0.50264 -3.76428,0.0956 z m 1.14319,-1.77432 c -0.66521,-0.19833 -1.41643,-0.64363 -1.66936,-0.98954 -0.41514,-0.56772 -0.52412,-0.56471 -1.11995,0.0311 -0.36304,0.36304 -0.93914,0.55297 -1.28024,0.42209 -0.82414,-0.31626 -0.33357,-1.05032 0.70192,-1.05032 0.45102,0 1.2815,-0.36297 1.84551,-0.80662 1.29799,-1.021 2.3557,-1.01677 4.69691,0.0189 2.13501,0.94441 2.27923,1.27672 0.83893,1.93296 -1.42231,0.64806 -2.11229,0.58664 -1.16786,-0.10396 0.90541,-0.66205 0.7715,-0.90718 -0.62891,-1.15134 -0.55411,-0.0966 -0.7806,-0.098 -0.50332,-0.003 0.69906,0.23909 0.6338,0.91991 -0.0882,0.91991 -0.36081,0 -0.50158,0.23645 -0.36017,0.60496 0.12768,0.33275 0.16736,0.58939 0.0882,0.57032 -0.0792,-0.0191 -0.68824,-0.19695 -1.35345,-0.39528 z m 0.60451,-1.83145 c 0,-0.0872 -0.27224,-0.1585 -0.60498,-0.1585 -0.33273,0 -0.60497,0.1758 -0.60497,0.39066 0,0.21486 0.27224,0.2862 0.60497,0.1585 0.33274,-0.12774 0.60498,-0.30348 0.60498,-0.39066 z m 89.73771,26.20014 2.01658,-0.77135 0.24887,-7.85303 c 0.13688,-4.31916 0.27298,-78.65116 0.30247,-165.18219 l 0.0537,-157.329165 -1.06823,-0.486722 c -4.82729,-2.199459 -16.88544,-2.225784 -21.80957,-0.04756 l -1.70862,0.7558 -0.0137,143.505697 c -0.008,78.92812 0.10853,153.26177 0.25883,165.18588 l 0.27324,21.68019 1.60384,0.43187 c 3.70191,0.99682 5.23512,1.13306 11.37372,1.01064 5.15833,-0.10289 6.85766,-0.28345 8.46963,-0.90003 z M 267.1669,337.4255 c -0.16091,-0.26038 1.47464,-0.40333 4.61434,-0.40333 2.9735,0 4.86358,0.15673 4.86358,0.40333 0,0.24537 -1.80698,0.40331 -4.61432,0.40331 -2.64117,0 -4.72092,-0.17247 -4.8636,-0.40331 z m -1.48722,-0.27551 c 0.29115,-0.11646 0.639,-0.10213 0.77302,0.0319 0.13399,0.13399 -0.10411,0.22936 -0.52936,0.21184 -0.46983,-0.0194 -0.56539,-0.11493 -0.24366,-0.24366 z m 13.09023,-0.005 c 0.39241,-0.10228 0.93689,-0.0956 1.20994,0.0152 0.27306,0.11051 -0.048,0.19414 -0.71348,0.18592 -0.66547,-0.008 -0.88887,-0.0986 -0.49646,-0.20088 z m -16.64445,-1.75319 c 0,-0.18678 0.20164,-0.46421 0.44807,-0.61652 0.28049,-0.17335 0.38351,-1.16958 0.27543,-2.66374 -0.16117,-2.22803 -0.11722,-2.37889 0.66105,-2.2676 0.66247,0.0947 0.81017,0.3677 0.7192,1.32915 l -0.11448,1.20995 1.00262,-1.10911 c 0.97244,-1.07575 2.65456,-1.52299 2.65456,-0.7058 0,0.22182 -0.2441,0.40331 -0.54246,0.40331 -0.29836,0 -0.87749,0.3702 -1.28698,0.82267 -0.72938,0.80596 -0.71862,0.84857 0.52955,2.09673 0.70072,0.70073 1.39728,1.1508 1.54792,1.00017 0.15061,-0.15061 0.59765,-1.23028 0.99337,-2.39921 0.97311,-2.8745 1.75247,-2.79828 3.01228,0.29456 1.14701,2.81595 1.17681,3.02486 0.4315,3.02486 -0.30687,0 -0.65286,-0.36297 -0.76888,-0.80662 -0.14253,-0.54507 -0.55014,-0.80663 -1.25699,-0.80663 -0.77717,0 -1.04605,0.20734 -1.04605,0.80663 0,0.66343 -0.26848,0.80643 -1.51244,0.80547 -1.23069,-9.5e-4 -1.66267,-0.22611 -2.31905,-1.20879 -0.93819,-1.40458 -1.41161,-1.53985 -1.41161,-0.40331 0,0.44364 0.18149,0.80663 0.40331,0.80663 0.22183,0 0.40333,0.14558 0.40333,0.32338 0,0.17786 -0.63522,0.34139 -1.41162,0.3634 -0.77638,0.022 -1.4116,-0.1128 -1.4116,-0.29958 z m 8.87294,-2.58164 c 0,-0.31964 -0.16247,-0.68158 -0.36104,-0.8043 -0.41519,-0.25661 -0.9158,0.78082 -0.55224,1.14438 0.43278,0.43278 0.91328,0.25385 0.91328,-0.34008 z m 3.19708,1.11155 c -0.44767,-1.06809 -0.98717,-2.25712 -1.19888,-2.64231 -0.5329,-0.96951 -0.50831,-1.01376 0.56341,-1.01376 0.76839,0 0.95462,0.22039 0.98137,1.16142 0.0181,0.63878 0.3197,1.4481 0.6701,1.7985 0.58055,0.58054 0.68644,0.51963 1.19362,-0.68658 0.30611,-0.728 0.47726,-1.53027 0.38034,-1.78284 -0.11402,-0.29726 0.48593,-0.48424 1.70147,-0.53023 1.81624,-0.0688 1.86937,-0.0378 1.62338,0.94223 -0.32819,1.30758 0.35441,1.31037 1.20975,0.005 0.37051,-0.56545 1.03882,-1.00289 1.52174,-0.99602 0.77476,0.0107 0.79083,0.0532 0.16021,0.4206 -0.38547,0.22456 -0.90135,0.78295 -1.1464,1.24083 -0.37866,0.70754 -0.24643,1.03797 0.88079,2.20096 l 1.32636,1.36845 h -1.0874 c -0.64202,0 -1.08742,-0.22219 -1.08742,-0.54247 0,-0.29835 -0.36298,-0.87096 -0.80662,-1.27246 -0.79266,-0.71734 -0.80664,-0.70444 -0.80664,0.74413 0,1.14985 -0.15946,1.47411 -0.72491,1.47411 -0.64186,0 -0.70542,-0.30616 -0.55479,-2.67188 0.21035,-3.30348 -0.50887,-3.38213 -1.737,-0.18999 -0.44814,1.16476 -1.13739,2.297 -1.53166,2.51606 -0.61056,0.33923 -0.8376,0.11036 -1.53082,-1.5437 z m -2.89459,-5.65904 c -1.81767,-0.27535 -1.25678,-0.73696 0.7058,-0.58087 0.99822,0.0794 1.81493,0.30755 1.81493,0.50704 0,0.36607 -0.49575,0.38058 -2.52073,0.0738 z m -0.50415,-1.78608 c -0.44364,-0.2627 -0.93721,-0.67466 -1.09681,-0.91544 -0.2052,-0.30959 -0.52836,-0.29016 -1.10364,0.0663 -0.44741,0.27728 -1.11039,0.50414 -1.47329,0.50414 -0.54079,0 -0.56925,-0.10914 -0.15775,-0.60496 0.27615,-0.33274 0.81837,-0.60498 1.20494,-0.60498 0.38658,0 1.19879,-0.3901 1.80493,-0.86688 1.3158,-1.03501 2.9822,-1.0643 4.64571,-0.0817 1.42703,0.84297 1.46544,1.00231 0.46075,1.91153 -0.97994,0.88683 -3.25584,1.20121 -4.28484,0.59187 z m 2.80775,-0.48541 c 0.90384,-0.66091 0.49724,-1.48331 -0.71414,-1.44443 -0.85269,0.0273 -0.85538,0.0407 -0.077,0.3798 0.78371,0.34148 0.78085,0.3592 -0.10091,0.62367 -0.97823,0.29342 -1.2447,0.98476 -0.37956,0.98476 0.29033,0 0.86253,-0.24472 1.27156,-0.5438 z m -2.46023,-0.86782 c 0.12774,-0.33274 0.0564,-0.60497 -0.15851,-0.60497 -0.21486,0 -0.39066,0.27223 -0.39066,0.60497 0,0.33275 0.0713,0.60498 0.15851,0.60498 0.0872,0 0.26297,-0.27223 0.39066,-0.60498 z m 5.46195,0.3568 c -0.46777,-0.56364 -0.43816,-0.63163 0.21969,-0.50414 0.4182,0.0811 0.8359,0.37421 0.92823,0.65148 0.23955,0.71948 -0.50817,0.62351 -1.14792,-0.1474 z M 205.05178,20.021158 c 0.6185,-0.683439 0.67841,-1.174018 0.40636,-3.327349 -0.1755,-1.389164 -0.33986,-3.140969 -0.36525,-3.892912 -0.0533,-1.57931 -0.5036,-1.82854 -3.91943,-2.169368 l -2.26959,-0.226456 0.70453,2.486477 c 0.38749,1.367548 0.92045,3.269348 1.18435,4.226209 0.28479,1.032635 0.67501,1.669505 0.96008,1.566932 0.74397,-0.26769 1.9786,0.523719 1.74929,1.121306 -0.20766,0.541142 0.0499,1.016783 0.55061,1.016783 0.15047,0 0.60005,-0.360736 0.99905,-0.801622 z m -62.90864,-1.221531 c 0.13933,-0.225451 0.44586,-0.290906 0.68116,-0.145423 0.70846,0.437852 -0.0364,-6.769254 -0.78668,-7.611773 -0.78688,-0.883616 -2.64136,-0.909194 -3.94589,-0.05442 -1.01029,0.661961 -1.32358,1.920611 -0.59078,2.373508 0.22182,0.137038 0.40331,0.727721 0.40331,1.312504 0,0.598015 0.48532,1.592146 1.10912,2.271972 l 1.10912,1.208712 -1.10912,-0.691808 c -0.61001,-0.380491 -1.10912,-0.503444 -1.10912,-0.273253 0,0.540455 2.41578,2.016476 3.30356,2.018442 0.3751,8.24e-4 0.79599,-0.182951 0.93532,-0.408386 z m 6.78799,-0.09421 c 0.15444,-0.380628 0.31836,-0.355918 0.66901,0.100759 0.59251,0.77179 0.18562,-3.817868 -0.52897,-5.966642 -0.65487,-1.969206 -2.39202,-2.707446 -4.25161,-1.806818 -0.84326,0.408402 -1.23015,0.839608 -1.08731,1.211852 0.12197,0.31781 0.22175,1.027453 0.22175,1.576963 0,0.563366 0.17589,0.890384 0.40331,0.749839 0.24367,-0.150605 0.40332,0.4011 0.40332,1.393722 0,1.420824 0.17725,1.751073 1.31078,2.442194 1.50241,0.916039 2.56407,1.026691 2.85972,0.29807 z m 7.02151,-0.417913 c 0.36537,0.132312 0.50414,-0.444499 0.50414,-2.095712 0,-1.253101 0.17286,-2.601351 0.38413,-2.996126 1.0108,-1.888691 -2.14314,-3.3435534 -4.74485,-2.188727 -0.81805,0.363114 -1.79599,0.623182 -2.17321,0.577939 -0.63963,-0.07667 -0.64176,0.0076 -0.0316,1.250495 0.35985,0.73301 0.76148,1.423492 0.89253,1.534403 0.13104,0.110972 0.26284,0.71135 0.29288,1.334318 0.0978,2.027558 2.55536,3.92509 3.76685,2.908445 0.33274,-0.279214 0.83184,-0.42549 1.10912,-0.325035 z m -3.70186,-0.921679 c -0.92193,-0.921922 -0.7776,-1.234641 0.17285,-0.3745 0.44364,0.401496 0.80663,0.792612 0.80663,0.869134 0,0.299731 -0.37399,0.11082 -0.97948,-0.494634 z m 47.10121,-1.281957 c -0.31128,-1.719138 -0.74054,-3.536733 -0.95389,-4.039096 -0.54731,-1.288679 -1.96763,-1.858813 -3.33528,-1.33883 -1.06092,0.403357 -1.09769,0.519329 -1.09769,3.462179 0,3.356419 0.0416,3.406432 3.52901,4.239897 1.07037,0.255815 1.31547,0.19161 1.33634,-0.35005 0.0176,-0.457684 0.13866,-0.381985 0.39032,0.244124 0.66299,1.649429 0.70448,0.947897 0.13119,-2.218224 z m 46.07445,2.475807 c -0.17175,-0.447562 -0.0744,-0.58271 0.31278,-0.434148 0.42429,0.1628 0.6048,-0.298314 0.73597,-1.880063 0.0956,-1.152677 0.46578,-2.681074 0.82264,-3.396433 0.62122,-1.245251 0.61201,-1.326468 -0.21615,-1.906541 -0.98267,-0.688286 -2.8109,-0.791881 -3.87979,-0.219826 -0.85875,0.45959 -1.87245,4.704624 -1.48864,6.233875 0.26656,1.06204 1.91413,2.208849 3.21362,2.236866 0.52581,0.01067 0.67466,-0.177479 0.49957,-0.63373 z m 6.99018,-0.412792 c 0.45974,-0.584479 0.83313,-1.265067 0.82973,-1.512437 -0.003,-0.247371 -0.18211,-0.17751 -0.39714,0.155223 -0.52596,0.813862 -0.49393,0.528109 0.18079,-1.613272 0.31453,-0.9982 0.58402,-1.467058 0.59885,-1.041888 0.0445,1.272978 0.47272,0.431496 0.62738,-1.232675 0.18066,-1.943765 -0.32516,-2.565224 -2.0879,-2.565224 -2.00327,0 -2.79844,0.572786 -3.49303,2.516125 -0.58042,1.623897 -1.3013,5.536503 -0.81515,4.424236 0.27897,-0.638257 1.35922,0.112039 1.35922,0.944102 0,0.482561 0.68208,0.823038 1.88647,0.941693 0.26118,0.02576 0.85102,-0.43142 1.31078,-1.015883 z M 136.291,15.351549 c 0,-4.415304 -0.30999,-5.014934 -2.59259,-5.014934 -1.82696,0 -2.2472,0.394972 -2.2472,2.112083 0,0.763985 -0.0609,0.782567 -0.7058,0.215252 -1.09908,-0.96686 -8.76076,-2.047192 -13.15555,-1.854972 -3.3181,0.145117 -4.00402,0.306164 -5.48853,1.288557 -0.9331,0.617496 -1.63451,1.172235 -1.5587,1.232751 0.0758,0.06052 1.77126,-0.04558 3.76767,-0.23577 7.03512,-0.670208 14.96324,1.05922 17.24174,3.761086 0.65772,0.77993 1.11434,1.07518 1.12195,0.725465 0.01,-0.452668 0.14146,-0.420078 0.56625,0.14024 0.35294,0.465503 0.64983,0.573976 0.81952,0.299396 0.17716,-0.286653 0.46932,-0.227325 0.87416,0.177525 1.12144,1.121443 1.35708,0.627145 1.35708,-2.846633 z m 74.57678,2.485379 c 0.80311,-0.854882 0.88538,-1.263634 0.69678,-3.461781 -0.11762,-1.370841 -0.42326,-2.744777 -0.6792,-3.053152 -0.67384,-0.811941 -2.96735,-1.142281 -4.01984,-0.579006 -0.84156,0.450397 -0.87999,0.655574 -0.61895,3.304683 0.34042,3.454739 0.44406,3.739669 1.55565,4.276832 1.38428,0.668943 2.08355,0.557727 3.06556,-0.487576 z m 6.48965,-2.479434 c 0,-3.485836 -0.66058,-4.14263 -3.57942,-3.558852 -1.20224,0.24045 -1.26036,0.341636 -1.26036,2.194428 0,1.068305 0.19386,2.062176 0.43081,2.20862 0.23695,0.146489 0.33789,0.508414 0.22431,0.80438 -0.27672,0.721121 2.96387,1.859866 3.68052,1.293328 0.30789,-0.243407 0.50414,-1.38866 0.50414,-2.941904 z m 41.08772,2.904604 c 0.24838,-0.29929 0.62887,-1.478871 0.84552,-2.621305 0.21666,-1.142434 0.68632,-2.642585 1.0437,-3.333691 0.79722,-1.541629 0.35443,-2.131809 -1.5994,-2.131809 -1.76295,0 -2.54937,0.675406 -3.07972,2.644948 -0.75904,2.81886 0.82014,5.425013 2.35639,3.888765 0.37644,-0.376421 0.48398,-0.37354 0.48398,0.01372 0,0.585134 -1.63506,1.28624 -2.21824,0.951175 -0.22182,-0.127435 -0.15422,0.0753 0.15015,0.450672 0.66752,0.822931 1.40723,0.873615 2.01754,0.138257 z m -95.38408,-1.119523 c 0.71743,-3.587113 -0.12536,-5.596014 -2.34766,-5.596014 -0.73923,0 -1.749,0.327917 -2.24394,0.728682 -0.81267,0.658059 -0.87023,0.941434 -0.59391,2.924039 0.23312,1.672661 0.38197,2.003306 0.62519,1.388737 0.31147,-0.787048 0.45828,-0.622023 0.53818,0.604966 0.0251,0.385308 0.62517,0.694018 1.65266,0.850232 0.8873,0.134905 1.7267,0.270998 1.86534,0.302476 0.13864,0.0314 0.3655,-0.509923 0.50414,-1.203118 z m 18.73758,0.395079 c -0.34745,-0.225862 -0.0381,-0.3131 0.87364,-0.246349 l 1.41161,0.10335 0.36151,-2.277672 c 0.45661,-2.8768 0.19741,-3.570406 -1.33427,-3.570406 -1.68849,0 -2.45543,1.266774 -2.45543,4.05568 0,2.464816 0.17176,2.86424 1.08154,2.51512 0.48919,-0.187723 0.50048,-0.294275 0.0614,-0.579708 z m 53.10301,0.461967 c -0.1371,-0.221822 -0.0117,-0.4061 0.27869,-0.409499 0.38363,-0.0046 0.36257,-0.113106 -0.077,-0.397137 -0.42353,-0.273711 -0.44988,-0.392823 -0.0878,-0.397137 0.28443,-0.003 0.65399,0.363769 0.82126,0.815935 0.29595,0.800036 0.32811,0.794533 1.19695,-0.204719 0.70799,-0.814274 0.89283,-1.527178 0.89283,-3.443673 v -2.41683 h -1.59907 c -1.96488,0 -2.38179,0.640819 -2.4857,3.820658 -0.0525,1.608059 0.0963,2.413309 0.4923,2.664032 0.74003,0.468492 0.87215,0.461129 0.5676,-0.03155 z M 129.89492,17.09215 c -0.71206,-2.016995 -6.42932,-3.715951 -12.35809,-3.672354 -3.51432,0.02591 -8.73017,1.015318 -9.7804,1.855429 -0.6134,0.490655 -0.67072,1.91776 -0.077,1.91776 0.23491,0 0.29588,-0.212341 0.13549,-0.47186 -0.19367,-0.313359 -0.0751,-0.388768 0.35297,-0.224505 0.35451,0.135971 2.92276,0.04542 5.7072,-0.201518 4.35909,-0.386497 5.72193,-0.349974 9.80696,0.262811 2.60938,0.391421 5.01657,0.870415 5.3493,1.064434 0.98013,0.571491 1.204,0.434056 0.8636,-0.530197 z m 110.44526,-1.714078 c 0.17913,-0.221837 0.50638,-1.038549 0.72721,-1.814927 0.22083,-0.776378 0.53135,-1.729215 0.69005,-2.117404 0.2369,-0.579478 0.072,-0.705801 -0.9214,-0.705801 -1.38268,0 -1.59351,0.36755 -1.94982,3.399162 -0.17078,1.453049 -0.0763,2.426174 0.30017,3.091382 l 0.54941,0.970793 0.13934,-1.209947 c 0.0766,-0.665467 0.2859,-1.391435 0.46503,-1.613258 z m -47.93727,1.773984 c 0.55598,-0.01372 0.6344,-0.450046 0.51426,-2.858416 -0.078,-1.562939 -0.35002,-3.092647 -0.60457,-3.39936 -0.62339,-0.751135 -2.57711,-0.706883 -3.36011,0.07606 -0.34858,0.348571 -0.63378,0.439315 -0.63378,0.201655 0,-0.487515 -1.46484,-0.595911 -1.75185,-0.129569 -0.4167,0.677006 -0.73884,4.133986 -0.38522,4.133986 0.20592,0 0.68804,-0.657693 1.07137,-1.461539 0.38333,-0.803832 0.79463,-1.36386 0.91401,-1.244489 0.11937,0.119356 0.0447,0.550212 -0.16586,0.957394 -0.2106,0.407198 -0.5034,1.408325 -0.65067,2.224732 -0.2511,1.392075 -0.19796,1.495837 0.85438,1.668423 0.61717,0.101217 1.66661,0.108381 2.33208,0.01585 0.66547,-0.09238 1.50515,-0.175604 1.86596,-0.184796 z m 92.71154,-0.299883 c 0,-1.199246 -1.22169,-1.972591 -4.23481,-2.680694 -6.14334,-1.44372 -14.08564,-0.656656 -16.65306,1.650269 l -1.09283,0.981966 2.62155,-0.309518 c 4.34572,-0.513063 14.47877,-0.252843 16.53595,0.424651 2.45675,0.809075 2.8232,0.800432 2.8232,-0.06661 z M 174.00101,16.429777 c -1.27206,-0.176854 -0.88821,-0.269138 1.81492,-0.436343 2.68415,-0.166031 3.42818,-0.343358 3.42818,-0.817032 0,-0.511737 -1.13911,-0.621932 -7.39186,-0.715023 -6.89136,-0.102589 -7.38266,-0.06158 -7.25606,0.604981 0.1079,0.568107 0.6737,0.760616 2.75373,0.936937 l 2.61793,0.221913 -2.62155,0.204522 c -1.61646,0.126063 -0.53407,0.208316 2.82321,0.214429 2.99462,0.0061 4.71879,-0.091 3.8315,-0.214384 z m -3.50381,-0.318938 c 0.29115,-0.11646 0.63901,-0.102131 0.77303,0.03186 0.13402,0.13399 -0.10419,0.229337 -0.52936,0.211838 -0.46984,-0.01936 -0.5654,-0.114936 -0.24367,-0.243682 z m 57.35944,0.292079 c -0.4115,-0.260251 0.14058,-0.41206 1.811,-0.497957 1.90875,-0.09817 2.4306,-0.268741 2.53729,-0.829379 0.12355,-0.649202 -0.40168,-0.705801 -6.54995,-0.705801 h -6.68428 v 1.209947 1.209946 l 4.73896,-0.0061 c 3.07374,-0.0046 4.53094,-0.1378 4.14698,-0.380582 z m 36.37267,-1.577694 c 3.52817,-1.770661 8.00678,-2.369926 13.08537,-1.750905 1.96073,0.239001 4.01868,0.565988 4.57324,0.726654 1.00175,0.290219 1.00335,0.28653 0.24763,-0.569373 -2.13833,-2.421799 -7.99379,-3.089476 -15.97692,-1.821818 -4.39799,0.698378 -5.64643,1.341803 -5.64643,2.910138 0,1.011889 0.42808,2.135314 0.7555,1.982651 0.13902,-0.06479 1.47177,-0.729642 2.96161,-1.477347 z"
       id="path3" /></g><metadata
     id="metadata182"><rdf:RDF><cc:Work
         rdf:about=""><cc:license
           rdf:resource="http://creativecommons.org/licenses/by-sa/4.0/" /><dc:publisher><cc:Agent><dc:title>OpenDataKerala.org</dc:title></cc:Agent></dc:publisher><dc:date>April 2026</dc:date><dc:title>Election Symbols of Kerala</dc:title><dc:creator><cc:Agent><dc:title>Manoj Karingamadathil</dc:title></cc:Agent></dc:creator></cc:Work><cc:License
         rdf:about="http://creativecommons.org/licenses/by-sa/4.0/"><cc:permits
           rdf:resource="http://creativecommons.org/ns#Reproduction" /><cc:permits
           rdf:resource="http://creativecommons.org/ns#Distribution" /><cc:requires
           rdf:resource="http://creativecommons.org/ns#Notice" /><cc:requires
           rdf:resource="http://creativecommons.org/ns#Attribution" /><cc:permits
           rdf:resource="http://creativecommons.org/ns#DerivativeWorks" /><cc:requires
           rdf:resource="http://creativecommons.org/ns#ShareAlike" /></cc:License></rdf:RDF></metadata></svg>
