<?xml version="1.0" encoding="UTF-8" standalone="no"?>
<!-- Created with Inkscape (http://www.inkscape.org/) -->

<svg
   width="1500"
   height="1500"
   viewBox="0 0 396.87499 396.875"
   version="1.1"
   id="svg5"
   xml:space="preserve"
   inkscape:version="1.2.2 (b0a8486541, 2022-12-01)"
   sodipodi:docname="indi06.svg"
   inkscape:export-filename="indi05.png"
   inkscape:export-xdpi="96"
   inkscape:export-ydpi="96"
   xmlns:inkscape="http://www.inkscape.org/namespaces/inkscape"
   xmlns:sodipodi="http://sodipodi.sourceforge.net/DTD/sodipodi-0.dtd"
   xmlns="http://www.w3.org/2000/svg"
   xmlns:svg="http://www.w3.org/2000/svg"
   xmlns:rdf="http://www.w3.org/1999/02/22-rdf-syntax-ns#"
   xmlns:cc="http://creativecommons.org/ns#"
   xmlns:dc="http://purl.org/dc/elements/1.1/"><title
     id="title186">Election Symbols of Kerala</title><sodipodi:namedview
     id="namedview7"
     pagecolor="#ffffff"
     bordercolor="#000000"
     borderopacity="0.25"
     inkscape:showpageshadow="2"
     inkscape:pageopacity="0.0"
     inkscape:pagecheckerboard="0"
     inkscape:deskcolor="#d1d1d1"
     inkscape:document-units="mm"
     showgrid="false"
     inkscape:zoom="0.35355339"
     inkscape:cx="-134.35029"
     inkscape:cy="974.39314"
     inkscape:window-width="1854"
     inkscape:window-height="1011"
     inkscape:window-x="0"
     inkscape:window-y="0"
     inkscape:window-maximized="1"
     inkscape:current-layer="layer1" /><defs
     id="defs2"><inkscape:path-effect
       effect="bspline"
       id="path-effect3248"
       is_visible="true"
       lpeversion="1"
       weight="33.333333"
       steps="2"
       helper_size="0"
       apply_no_weight="true"
       apply_with_weight="true"
       only_selected="false" /><inkscape:path-effect
       effect="bspline"
       id="path-effect577"
       is_visible="true"
       lpeversion="1"
       weight="33.333333"
       steps="2"
       helper_size="0"
       apply_no_weight="true"
       apply_with_weight="true"
       only_selected="false" /></defs><g
     inkscape:label="Layer 1"
     inkscape:groupmode="layer"
     id="layer1"><path
       style="fill:#000000;stroke-width:0.331225"
       d="m 211.47412,299.00494 c -11.30499,-1.38947 -20.33791,-15.1611 -21.55216,-32.8585 l -0.22135,-3.22593 -0.87174,0.19482 c -0.47946,0.10718 -1.23933,0.66451 -1.68863,1.23857 -1.44163,1.84197 -3.67458,3.80974 -5.11368,4.5064 -2.04188,0.98846 -3.97176,1.23936 -14.31835,1.86149 l -9.31848,0.5603 -2.31722,-0.70382 c -2.82912,-0.85932 -5.80466,-2.96724 -7.66298,-5.42856 -1.26416,-1.67436 -4.0085,-7.03712 -4.0085,-7.83306 0,-0.20087 -0.2276,-0.36522 -0.50581,-0.36522 -0.27819,0 -7.01134,-0.89332 -14.96253,-1.98515 -7.95118,-1.09185 -14.50969,-1.93218 -14.57445,-1.86743 -0.0647,0.0647 -0.33815,1.59156 -0.60756,3.39287 -0.80427,5.37771 -2.14772,9.12644 -4.58845,12.80356 -1.46892,2.21302 -4.31748,4.36389 -6.40841,4.83883 -2.27583,0.51691 -28.142301,2.45037 -29.812563,2.22841 -2.897828,-0.38509 -6.680654,-3.23365 -8.549614,-6.43806 -0.641199,-1.09937 -0.65234,-1.10321 -2.631279,-0.91196 -3.812609,0.36847 -17.243148,1.22257 -19.756874,1.25641 -2.159834,0.029 -2.747313,-0.0914 -3.986093,-0.81737 -3.011084,-1.7646 -5.792073,-5.80856 -7.685083,-11.17521 l -0.52575,-1.49051 h -4.227829 -4.227818 l 0.05245,-2.15296 c 0.02892,-1.18413 0.885903,-6.66826 1.90454,-12.18697 1.01865,-5.51867 1.852072,-10.08583 1.852072,-10.14925 0,-0.0634 -0.372619,-0.20879 -0.828052,-0.32311 -0.50468,-0.12666 -0.828064,-0.44379 -0.828064,-0.81201 0,-1.00919 6.250358,-25.63956 6.593547,-25.98274 0.193779,-0.19378 7.57299,-0.38622 18.723985,-0.48829 17.324233,-0.15858 18.404176,-0.20287 18.404176,-0.75485 0,-0.5509 -0.807247,-0.58801 -13.331805,-0.61306 -7.332504,-0.0147 -16.76474,-0.12343 -20.960535,-0.24175 l -7.628735,-0.21508 -2.616455,1.87733 c -1.439041,1.03255 -2.766829,1.82721 -2.950618,1.76594 -0.183801,-0.0612 -2.426646,-2.31486 -4.984113,-5.00798 l -4.649946,-4.8966 -0.2640204,-30.66401 c -0.145218,-16.86521 -0.1483975,-30.77826 -0.00749,-30.91792 0.3334734,-0.3295 4.3233344,-0.83532 91.0126364,-11.53824 18.82367,-2.32402 24.11951,-3.00355 24.55335,-3.15056 0.42878,-0.14527 0.46743,-0.27024 5.4309,-17.56756 5.12306,-17.85357 5.28341,-18.355508 5.98276,-18.729794 0.3336,-0.17853 3.40729,-1.278414 6.83042,-2.444171 3.42314,-1.165772 9.4285,-3.228684 13.34523,-4.584252 l 7.12136,-2.464678 12.91777,1.099196 c 7.10476,0.604555 16.64404,1.40449 21.19839,1.777636 9.62844,0.788882 17.96587,1.498581 23.35135,1.987739 2.09502,0.190273 6.49201,0.567813 9.77117,0.838957 3.27912,0.271155 9.39022,0.792335 13.58022,1.158195 4.19,0.365849 13.05854,1.119364 19.7079,1.67447 16.96492,1.416271 16.458,1.366409 16.9437,1.666583 0.28666,0.177177 0.48073,1.181319 0.55826,2.888445 l 0.1188,2.616868 -2.26871,1.269471 c -1.24779,0.698218 -3.23952,1.799955 -4.4261,2.448309 -3.08185,1.683988 -3.48786,1.940843 -3.30506,2.090858 0.0895,0.07346 5.30513,0.539355 11.59012,1.035222 22.06178,1.740631 28.48033,2.404789 30.99771,3.207466 1.94438,0.61997 4.08862,3.83316 4.10487,6.15116 0.007,1.0364 0.003,1.03825 -2.19632,1.27388 l -2.2036,0.236 0.20641,5.49059 c 0.1328,3.53283 0.34059,5.57355 0.58274,5.72322 0.20699,0.1279 1.17466,0.3264 2.15036,0.44108 2.52096,0.29628 3.34227,0.76599 3.9366,2.25139 0.78638,1.96531 1.27663,9.02405 1.0542,15.17795 -0.31049,8.58987 -0.7704,9.92775 -3.81444,11.09604 -1.62937,0.62534 -1.71679,0.7181 -1.56086,1.65613 0.091,0.54653 0.26275,2.18609 0.38202,3.64348 l 0.21685,2.6498 12.79919,4.23117 c 18.21659,6.02206 25.99109,8.98093 34.82565,13.25425 3.78067,1.82872 4.3849,2.2513 6.95572,4.86483 6.46787,6.5752 7.67631,10.64768 8.25818,27.83036 0.20049,5.92064 0.4357,12.85152 0.52268,15.40196 0.087,2.55044 0.25045,7.74339 0.36331,11.5399 l 0.20512,6.90274 1.0551,-0.19793 c 0.62918,-0.11805 1.28468,-0.0298 1.62394,0.21859 0.78986,0.57832 1.28594,3.8669 1.34078,8.88824 0.0519,4.74186 -0.17171,5.44431 -2.14839,6.75243 -1.54905,1.02511 -1.99977,1.8733 -2.90025,5.45768 -0.5169,2.05773 -0.70228,3.82194 -0.70228,6.68365 0,4.4835 -0.0859,4.6522 -2.75292,5.41169 -1.51532,0.43149 -15.94988,1.73103 -26.22928,2.3614 l -3.64349,0.22344 -1.15362,1.98035 c -3.49349,5.99715 -9.56524,10.27008 -16.82546,11.84072 -12.29024,2.65883 -22.11437,-0.42929 -28.11935,-8.8391 l -1.46582,-2.05287 -2.71588,0.16774 c -17.91589,1.1065 -26.68988,1.09485 -30.59957,-0.0408 -3.25587,-0.9456 -4.55242,-2.80905 -4.95296,-7.11865 -0.1254,-1.34926 -0.36847,-2.31481 -0.58184,-2.31127 -0.20157,0.003 -1.55888,0.21496 -3.01627,0.47018 -1.45739,0.25524 -4.04096,0.57081 -5.74125,0.70123 -1.80974,0.13885 -3.12999,0.39021 -3.18443,0.60631 -0.0511,0.20303 -0.3354,1.90511 -0.63171,3.78239 -1.26679,8.0254 -5.08149,15.36874 -10.08293,19.40973 -3.67208,2.96689 -5.62814,3.58154 -13.15097,4.1324 -7.01914,0.51397 -11.37942,0.6291 -13.58022,0.35861 z m 4.47154,-14.66408 c 9.56598,-4.4568 11.87833,-26.3211 3.91535,-37.02132 -2.59258,-3.48375 -5.69641,-5.15451 -9.04674,-4.86976 -2.27607,0.19344 -4.00966,1.08679 -5.96466,3.07371 -3.92676,3.99088 -5.86372,10.04859 -5.83642,18.2529 0.0174,5.21365 0.86778,9.18074 2.83504,13.22465 3.42738,7.04542 8.76477,9.82432 14.09743,7.33982 z m -5.90183,-1.89519 c -2.51693,-1.53452 0.441,-2.74887 3.22999,-1.32603 1.49537,0.76286 1.65877,1.14594 0.70627,1.65569 -1.01502,0.54323 -2.74175,0.39862 -3.93626,-0.32966 z m 7.55795,-4.30903 c 0,-1.03672 1.01122,-3.3513 1.91166,-4.37553 0.28027,-0.31882 0.78459,-0.57965 1.1207,-0.57965 0.79595,0 0.83807,1.90231 0.0755,3.41151 -1.28329,2.53989 -3.10791,3.44617 -3.10791,1.54367 z m -13.56518,-1.89741 c -1.41299,-1.91844 -3.01398,-6.52871 -3.1898,-9.18543 l -0.13151,-1.98735 0.46313,2.31857 c 0.69253,3.46712 1.88317,6.356 3.8565,9.35712 1.08563,1.65107 0.29469,1.25264 -0.99832,-0.50291 z m 5.29621,0.93871 c -0.48254,-0.90162 -0.426,-2.10179 0.13455,-2.85669 0.70588,-0.95056 1.64675,-0.25365 1.77972,1.31825 0.16146,1.90909 -1.15127,2.96412 -1.91427,1.53844 z m 5.146,-3.19207 c -0.98887,-0.98886 -0.43173,-3.4542 0.78061,-3.4542 0.71693,0 1.01747,0.62436 1.01747,2.1138 0,0.9958 -0.48175,1.86091 -1.03627,1.86091 -0.13272,0 -0.47555,-0.23424 -0.76181,-0.52051 z m -10.13422,-0.48849 c -0.49737,-0.92932 -0.27572,-2.65924 0.39446,-3.07871 0.84337,-0.52787 1.60108,0.29719 1.60108,1.74343 0,1.88262 -1.25367,2.7215 -1.99554,1.33528 z m 4.28029,-1.72363 c -0.69471,-0.46001 -1.50578,-1.50589 -2.11915,-2.7326 -0.90848,-1.817 -0.99281,-2.27127 -0.98377,-5.2996 0.009,-2.74838 0.14259,-3.60958 0.78934,-5.05882 1.59517,-3.57448 4.05907,-4.4035 6.33205,-2.13051 1.77737,1.77736 2.42388,4.17384 2.24222,8.31121 -0.16121,3.67158 -1.12813,6.07158 -2.85072,7.07595 -1.31559,0.76704 -2.05577,0.73109 -3.40997,-0.16563 z m 12.58424,-4.80274 c -0.46493,-1.20666 -0.24092,-5.57106 0.31397,-6.11702 0.352,-0.34635 0.54953,-0.28043 1.07058,0.35726 1.15125,1.40894 0.74081,6.67062 -0.52034,6.67062 -0.28229,0 -0.67118,-0.4099 -0.86421,-0.91086 z m -4.86598,-1.14275 c -0.4209,-0.42088 -0.5337,-2.1744 -0.19644,-3.0533 0.23788,-0.61987 1.15894,-0.68758 1.72007,-0.12646 0.80776,0.80778 0.26024,3.57724 -0.70722,3.57724 -0.23042,0 -0.59781,-0.17887 -0.81641,-0.39748 z m -13.76076,-0.53946 c -0.69349,-0.7663 -0.70857,-2.49884 -0.0278,-3.17973 0.28628,-0.28626 0.57373,-0.52047 0.63881,-0.52047 0.0651,0 0.35251,0.23421 0.63877,0.52047 0.59395,0.59395 0.68451,2.19763 0.17764,3.14477 -0.42713,0.79809 -0.73019,0.80551 -1.42754,0.0349 z m 11.71881,-8.31559 c -0.48254,-0.90163 -0.42601,-2.10181 0.13455,-2.85669 0.70586,-0.95057 1.64676,-0.25365 1.77971,1.31826 0.16147,1.9091 -1.15126,2.9641 -1.91426,1.53843 z m -10.07859,-0.21448 c -0.52916,-1.37895 -0.0278,-3.45077 0.83522,-3.45077 1.06273,0 1.73683,2.72525 0.88485,3.57722 -0.56113,0.56114 -1.4822,0.49343 -1.72007,-0.12645 z m -2.1719,-1.4968 c -0.0769,-0.9267 2.1683,-5.17919 2.5388,-4.80868 0.10397,0.10397 -0.009,0.4269 -0.25005,0.71781 -0.24141,0.29089 -0.85144,1.3751 -1.35559,2.40938 -0.50416,1.03425 -0.92407,1.79093 -0.93316,1.68149 z m 17.52981,-0.63769 c -0.93561,-0.9356 -1.9623,-3.2287 -1.97145,-4.40316 -0.006,-0.77606 0.11629,-0.91601 0.72415,-0.82806 1.1232,0.16255 2.68137,2.61827 2.71686,4.28185 0.0348,1.6315 -0.46473,1.9542 -1.46956,0.94937 z m -10.2477,-1.2945 c -0.48254,-0.90162 -0.426,-2.1018 0.13455,-2.8567 0.70588,-0.95057 1.64675,-0.25365 1.77972,1.31826 0.16146,1.9091 -1.15127,2.96411 -1.91427,1.53844 z m -0.26007,-6.20321 c -0.22772,-0.0918 -0.41404,-0.37477 -0.41404,-0.62865 0,-1.36993 4.07769,-2.18064 5.20524,-1.03487 0.56792,0.57707 0.56043,0.62597 -0.19074,1.2418 -0.75357,0.6178 -3.49233,0.86887 -4.60046,0.42172 z m 68.81202,28.27414 c 0,-1.95422 0.14529,-3.2257 0.39747,-3.47786 0.30913,-0.30915 0.30367,-0.39746 -0.0245,-0.39746 -0.29502,0 -0.39662,-0.47875 -0.3376,-1.59088 0.0464,-0.87498 0.0104,-1.73203 -0.0797,-1.90455 -0.2744,-0.52431 -0.14315,-1.24483 0.25067,-1.37609 0.51674,-0.17224 0.83898,1.26367 0.40178,1.79044 -0.23662,0.28512 -0.24771,0.57158 -0.0328,0.84529 0.29789,0.37931 0.41209,1.37765 0.52094,4.55435 0.0219,0.63761 0.19403,1.2688 0.38262,1.40264 0.21451,0.15225 0.1727,0.24525 -0.11167,0.24843 -0.34024,0.003 -0.36275,0.11567 -0.0896,0.44487 0.24394,0.29393 0.26506,0.78833 0.0637,1.49052 -0.26188,0.91313 -0.22019,1.0507 0.31845,1.0507 0.34088,0 0.71341,-0.15149 0.82783,-0.33662 0.11442,-0.18515 0.30954,-0.2739 0.43358,-0.19724 0.12406,0.0765 0.20124,-1.52319 0.17156,-3.55526 -0.0297,-2.03207 0.0697,-4.17792 0.22101,-4.76855 0.15123,-0.59063 0.15961,-1.14517 0.0187,-1.23231 -0.14099,-0.0871 -0.21459,-0.7963 -0.16353,-1.57592 0.0511,-0.77962 0.10417,-1.6038 0.11818,-1.83152 0.0139,-0.22773 0.15331,-0.41403 0.30973,-0.41403 0.15642,0 0.31258,1.22966 0.34701,2.7326 0.0344,1.50294 0.11354,3.47786 0.17567,4.38873 0.0622,0.91086 0.12959,2.21791 0.14982,2.90453 0.0348,1.17931 0.0854,1.23623 0.91426,1.02818 0.61752,-0.155 0.80797,-0.10775 0.6429,0.1593 -0.12902,0.20874 -0.0942,0.37953 0.0775,0.37953 0.17166,0 0.31164,-0.40988 0.31111,-0.91087 -0.003,-3.74464 0.24727,-8.03221 0.47087,-8.03221 0.2487,0 0.30511,0.2762 0.43976,2.15296 0.52979,7.38478 0.54491,7.49029 1.01726,7.09829 0.25797,-0.21411 0.46905,-0.26801 0.46905,-0.1198 0,0.14821 0.21883,-0.02 0.48629,-0.37348 0.3209,-0.42425 0.4899,-1.45982 0.49686,-3.04432 0.006,-1.37309 0.15236,-2.40139 0.34174,-2.40139 0.40876,0 0.3494,-0.28303 0.55584,2.64979 0.17438,2.47751 0.70193,3.64348 1.64846,3.64348 0.34394,0 0.45649,-0.84956 0.49365,-3.72628 0.0265,-2.04945 0.0153,-4.20679 -0.0249,-4.79409 -0.0401,-0.58729 0.0313,-1.23666 0.15887,-1.44307 0.48608,-0.7865 0.75391,0.53127 0.80756,3.97349 0.03,1.92816 0.10303,3.95291 0.16208,4.49944 0.0591,0.54653 0.12218,1.19823 0.14031,1.44827 0.0267,0.36936 0.1274,0.3761 0.53726,0.036 0.41993,-0.34851 0.47069,-0.33072 0.30303,0.10619 -0.11074,0.28864 -0.44955,0.5967 -0.75285,0.68455 -0.30329,0.088 -0.0302,0.1336 0.60655,0.10158 l 1.15797,-0.0581 0.0644,-2.81542 c 0.0352,-1.54848 0.0732,-3.74699 0.0841,-4.88557 0.0112,-1.13859 0.1531,-2.07015 0.316,-2.07015 0.1629,0 0.3134,0.33535 0.33444,0.74523 0.021,0.40991 0.10386,1.93767 0.18412,3.39507 0.0803,1.45739 0.15334,2.99397 0.16242,3.41462 0.009,0.42248 0.16475,0.67316 0.34773,0.56008 0.18218,-0.11255 0.33123,-0.13357 0.33123,-0.0468 0,0.0869 0.0905,0.39385 0.20105,0.682 0.11255,0.29314 0.031,0.52392 -0.18516,0.52392 -0.21242,0 -0.29409,-0.14905 -0.18151,-0.33122 0.11254,-0.18217 0.0469,-0.33122 -0.14606,-0.33122 -0.19292,0 -0.35077,0.22357 -0.35077,0.49683 0,0.35745 0.34848,0.49031 1.2421,0.47356 0.99638,-0.0187 1.11106,-0.0795 0.57963,-0.30795 -0.36433,-0.15657 -0.47613,-0.29515 -0.24841,-0.30794 0.22771,-0.0128 0.39638,-0.13507 0.37481,-0.2717 -0.0215,-0.13663 -0.0215,-2.44692 0,-5.13399 0.0315,-3.93646 0.12885,-4.88557 0.50063,-4.88557 0.35504,0 0.47053,0.64774 0.50092,2.80948 0.043,3.05984 0.34158,6.88152 0.55444,7.0968 0.0735,0.0743 -0.0394,0.34365 -0.25094,0.59851 -0.31556,0.3802 -0.22811,0.4424 0.48717,0.34661 0.47947,-0.0643 0.98917,-0.23415 1.13269,-0.37766 0.14352,-0.1435 0.2862,-3.11373 0.31707,-6.60052 0.061,-6.88916 0.59393,-8.84535 0.76434,-2.80551 0.058,2.05429 0.13926,4.14496 0.18069,4.64592 0.0414,0.50097 0.094,1.35334 0.11668,1.89415 0.0327,0.77638 0.16337,0.94494 0.62104,0.80103 0.51443,-0.16175 0.52227,-0.13263 0.0698,0.25882 -0.28043,0.24258 -0.53201,0.77643 -0.55907,1.18631 -0.0405,0.61492 0.12107,0.74526 0.92391,0.74526 1.07091,0 1.11378,-0.13097 1.01741,-3.10785 -0.0288,-0.88955 0.11681,-1.82112 0.32344,-2.07016 0.20669,-0.24905 0.23293,-0.45282 0.0583,-0.45282 -0.17462,0 -0.34084,-0.59619 -0.3694,-1.32489 -0.0372,-0.94865 0.0817,-1.32491 0.41888,-1.32491 0.34372,0 0.47806,0.4694 0.49766,1.73893 0.0148,0.95642 0.051,2.82932 0.0803,4.16203 l 0.0534,2.42307 0.85358,-0.21423 c 1.13139,-0.28396 1.08155,-0.18444 1.19093,-2.37823 0.0526,-1.05735 0.12814,-1.997 0.16759,-2.08808 0.0394,-0.0912 0.0602,-0.25881 0.0462,-0.3727 -0.14486,-1.17899 -0.092,-5.66081 0.0687,-5.82149 0.41018,-0.41017 0.48552,0.12408 0.68674,4.86928 0.12647,2.98265 0.3399,4.84935 0.56314,4.92565 0.22816,0.078 0.19453,0.22744 -0.092,0.40897 -0.30375,0.19246 -0.0722,0.28772 0.70779,0.29113 l 1.15927,0.004 -0.0233,-3.99192 c -0.0128,-2.19558 0.11494,-4.07734 0.2838,-4.18171 0.1795,-0.11086 0.15993,-0.28069 -0.0471,-0.40863 -0.40749,-0.25185 -0.12332,-1.68568 0.33401,-1.68568 0.16753,0 0.3049,1.00609 0.30529,2.23575 3.3e-4,1.22968 0.0322,3.50538 0.0709,5.05713 l 0.0701,2.82133 1.01683,-0.11805 c 0.67932,-0.0789 1.01704,-0.30068 1.01744,-0.66837 0.004,-5.06617 0.1582,-7.05127 0.53273,-6.9262 0.22771,0.076 0.42888,0.57288 0.44701,1.10408 0.0181,0.53121 0.0926,2.19542 0.16561,3.69825 l 0.13263,2.73244 0.99368,6e-5 0.99367,5e-5 -0.0217,-3.39495 c -0.0126,-1.8672 0.0943,-3.72502 0.23576,-4.12846 0.14154,-0.40344 0.12093,-0.81782 -0.0457,-0.92084 -0.38772,-0.23963 -0.20918,-3.314 0.19245,-3.314 0.16586,0 0.34006,1.34146 0.38711,2.98103 0.0471,1.63957 0.14278,3.8008 0.21271,4.80277 0.0699,1.00193 0.14319,2.23161 0.16285,2.7326 0.0304,0.77448 0.1785,0.91086 0.9893,0.91086 h 0.95359 l 0.0745,-2.73261 c 0.041,-1.50294 0.0702,-3.44928 0.0651,-4.32521 -0.006,-1.069 0.11756,-1.55028 0.37672,-1.46387 0.35167,0.11718 0.46981,1.42802 0.53853,5.97425 0.0138,0.90959 0.13459,1.19642 0.43309,1.02789 0.33123,-0.187 0.33123,-0.14454 0,0.21231 -0.74102,0.79833 -0.47708,1.30878 0.66245,1.28109 0.59206,-0.0143 0.89148,-0.10096 0.66539,-0.19223 -0.32727,-0.13222 -0.32727,-0.24985 0,-0.5771 0.28115,-0.28111 0.4042,-1.58153 0.38929,-4.11371 -0.017,-2.85109 0.0785,-3.70265 0.41403,-3.70265 0.3046,0 0.44918,0.5734 0.48018,1.90453 0.0245,1.04751 0.0791,2.42622 0.12169,3.06385 0.0425,0.63759 0.0972,1.64369 0.12129,2.23575 0.0394,0.96551 0.14641,1.07649 1.03764,1.07649 h 0.99367 v -2.6498 c 0,-2.13456 0.0966,-2.6498 0.49684,-2.6498 0.40032,0 0.49684,0.51593 0.49684,2.6561 v 2.65613 l 0.91087,-0.21853 c 0.50097,-0.12018 0.96791,-0.267 1.03759,-0.32623 0.0698,-0.0593 0.13919,-1.22712 0.15442,-2.59525 0.0189,-1.69806 0.16266,-2.53934 0.4529,-2.65071 0.3012,-0.11555 0.4375,0.24451 0.46722,1.23413 0.0232,0.76854 0.0603,2.03075 0.0827,2.80493 0.04,1.3801 0.0634,1.40762 1.20015,1.40764 l 1.15927,3e-5 -0.0426,-4.14024 c -0.0236,-2.27715 0.0884,-4.14026 0.24842,-4.14026 0.16007,0 0.30989,0.40988 0.33295,0.91088 0.0232,0.50097 0.0883,1.73064 0.14486,2.7326 0.0568,1.00195 0.1123,2.38067 0.1237,3.06385 0.0194,1.17618 0.0779,1.24208 1.09722,1.24235 l 1.07647,2.7e-4 -0.0579,-2.9813 c -0.0463,-2.38638 0.0363,-2.9813 0.41403,-2.9813 0.25955,0 0.48063,0.1118 0.49123,0.24842 0.0104,0.13662 0.0479,1.4776 0.0827,2.97992 0.0535,2.30369 0.15006,2.73164 0.61605,2.7326 1.00014,0.002 1.60041,-0.39088 1.60041,-1.04754 0,-0.40438 -0.14321,-0.55803 -0.3824,-0.41024 -0.26187,0.16185 -0.29091,0.0897 -0.0921,-0.22886 0.15965,-0.25586 0.32182,-0.67386 0.36038,-0.92889 0.0385,-0.25502 0.26631,-0.58811 0.50615,-0.74018 0.29171,-0.18498 0.30756,-0.27818 0.0479,-0.28158 -0.26247,-0.003 -0.39372,-0.86311 -0.40546,-2.65488 -0.0104,-1.51044 0.12144,-2.6498 0.30535,-2.6498 0.17742,0 0.33545,0.55895 0.35111,1.2421 0.0156,0.68316 0.06,1.68926 0.0985,2.23578 0.0384,0.54651 0.10012,1.93831 0.13705,3.09289 l 0.0671,2.0992 4.05751,-0.2355 c 2.23164,-0.12955 4.1106,-0.28269 4.17552,-0.34031 0.065,-0.0575 0.10819,-1.75331 0.0962,-3.76822 -0.0127,-2.13375 0.11097,-3.66347 0.29602,-3.66347 0.17483,0 0.34116,0.26083 0.36969,0.57963 0.0285,0.31881 0.0904,0.95227 0.13735,1.4077 0.0471,0.45544 0.13547,1.83408 0.19658,3.06365 l 0.11108,2.23558 1.15929,-0.0259 c 0.6376,-0.0143 0.95612,-0.10674 0.70776,-0.20551 -0.38117,-0.1516 -0.38117,-0.22411 0,-0.46561 0.3415,-0.21635 0.29009,-0.28852 -0.21093,-0.29621 -0.53889,-0.009 -0.57139,-0.0678 -0.17424,-0.31886 0.3659,-0.2314 0.50179,-1.08049 0.54253,-3.38999 0.0644,-3.64386 0.0571,-3.57809 0.38867,-3.57809 0.14301,0 0.30946,0.85704 0.36981,1.90453 0.0603,1.04751 0.14766,2.27718 0.19403,2.73261 0.0463,0.45543 0.10356,1.43572 0.12703,2.17841 0.041,1.29441 0.0825,1.34449 1.00404,1.20925 1.02174,-0.14996 1.50814,-1.21299 0.98374,-2.15003 -0.14826,-0.26491 -0.14544,-0.91431 0.006,-1.44311 0.15167,-0.5288 0.20212,-1.46314 0.11218,-2.07632 -0.1247,-0.84944 -0.0546,-1.07839 0.29418,-0.9617 0.29741,0.0995 0.47419,0.72359 0.5045,1.78113 0.0932,3.24841 0.12393,3.48575 0.42726,3.29825 0.62331,-0.38521 0.76916,0.59614 0.15633,1.05185 -0.58031,0.43148 -0.53918,0.46033 0.51932,0.36378 1.14805,-0.10462 1.14965,-0.10719 1.17114,-1.82803 0.0356,-2.84936 0.95589,-2.92886 0.97848,-0.0844 l 0.0129,1.64104 1.2098,6.6e-4 1.20982,6.7e-4 -0.1712,-2.31858 c -0.14537,-1.96876 -0.0919,-2.31858 0.35458,-2.31858 0.43723,0 0.51334,0.39072 0.45192,2.31902 -0.0725,2.2738 -0.0578,2.31891 0.75417,2.31351 1.25561,-0.009 1.59565,-0.37982 1.51175,-1.6515 -0.0421,-0.63761 0.053,-1.42013 0.21121,-1.73893 0.18069,-0.36403 0.16015,-0.57964 -0.0552,-0.57964 -0.18859,0 -0.34287,-0.22358 -0.34287,-0.49684 0,-0.27327 0.1863,-0.49912 0.41403,-0.50192 0.28574,-0.003 0.30138,-0.0805 0.0504,-0.24841 -0.51403,-0.344 -0.4973,-4.38367 0.0181,-4.38367 0.38157,0 0.60829,2.59295 0.65888,7.53537 0.0179,1.7374 0.0189,1.73894 1.09429,1.73894 0.85566,0 1.07648,-0.13589 1.07648,-0.66245 0,-0.36435 0.18632,-0.66473 0.41404,-0.66753 0.31824,-0.003 0.32171,-0.0636 0.0149,-0.25867 -0.47087,-0.29962 -0.52532,-8.34838 -0.0564,-8.34838 0.1594,0 0.30505,0.11179 0.32359,0.24843 0.11085,0.81653 0.24263,3.64038 0.29344,6.29327 l 0.0588,3.06383 1.04918,2.1e-4 1.04916,2e-4 -0.0506,-3.14713 c -0.044,-2.72676 0.21467,-3.92106 0.73615,-3.39959 0.15244,0.15244 0.39627,2.87748 0.44497,4.97299 0.0271,1.1745 0.0874,1.24213 1.10537,1.24256 l 1.07648,3.5e-4 -0.076,-2.81589 c -0.0583,-2.15794 0.0268,-2.81589 0.3637,-2.81589 0.32545,0 0.45311,0.70344 0.49118,2.70611 0.0282,1.48835 0.0882,2.73413 0.13313,2.7684 0.045,0.0343 0.60341,-0.002 1.24101,-0.0826 l 1.15928,-0.14498 -0.0524,-2.04378 c -0.0288,-1.12409 -0.0838,-2.19284 -0.12207,-2.37501 -0.13013,-0.61957 0.007,-1.15928 0.29685,-1.15928 0.15836,0 0.30469,0.78253 0.32513,1.73893 0.0698,3.25838 0.46557,4.02065 1.68674,3.24805 0.36705,-0.23225 0.50061,-1.28857 0.57523,-4.54927 0.11392,-4.98307 0.18912,-6.0958 0.39746,-5.88743 0.0844,0.0843 0.49035,-0.90922 0.90214,-2.208 0.41353,-1.30429 1.1415,-2.77142 1.62618,-3.27732 0.65042,-0.67887 0.76338,-0.96745 0.43656,-1.11505 -0.24254,-0.10952 -0.13289,-0.12456 0.24368,-0.0335 0.88599,0.21435 1.97327,-0.96619 2.25094,-2.44404 0.19562,-1.0412 -0.26855,-8.20646 -0.64368,-9.93559 -0.18717,-0.86296 0.0765,-0.86686 -4.46792,0.0662 -11.52365,2.36604 -91.97252,5.19777 -108.96247,3.83539 -2.44795,-0.19631 -6.31583,-0.62025 -8.59528,-0.94211 -2.27943,-0.32189 -4.25621,-0.52511 -4.39285,-0.45164 -0.33255,0.17886 -0.29029,6.60301 0.0634,9.65857 0.1782,1.53886 0.50986,2.72182 0.89632,3.19707 0.3374,0.4149 1.23315,1.51013 1.99054,2.43385 0.93316,1.13808 1.44812,2.13618 1.59751,3.09619 0.33863,2.17623 0.51186,2.6091 0.94117,2.35163 0.21459,-0.12869 0.17618,0.0295 -0.0854,0.35167 -0.32313,0.39795 -0.36181,0.65719 -0.12069,0.80884 0.19517,0.1228 0.34139,0.89391 0.32495,1.71368 -0.0572,2.85476 0.10044,4.34831 0.43693,4.14032 0.18217,-0.11254 0.33123,-0.0381 0.33123,0.16562 0,0.20367 0.17208,0.26396 0.3824,0.13398 0.23071,-0.1426 0.29273,-0.0913 0.15633,0.12944 -0.1243,0.20118 0.0762,0.52755 0.44566,0.72528 0.65596,0.3512 0.67172,0.27382 0.67172,-3.2955 0,-2.21593 0.13043,-3.65512 0.33124,-3.65512 0.18217,0 0.34752,0.11179 0.36744,0.2484 0.0469,0.32125 0.24014,4.54184 0.27683,6.04487 0.019,0.78189 0.12107,1.01298 0.31306,0.70991 0.20175,-0.31842 0.35177,-0.34098 0.51466,-0.0774 0.12645,0.20461 0.36866,0.28624 0.53825,0.18143 0.16958,-0.10473 0.3106,0.0791 0.3134,0.40863 0.003,0.38218 0.0933,0.46075 0.24842,0.21695 0.13384,-0.21025 0.232,-1.96159 0.21812,-3.89189 -0.0139,-1.93033 0.10262,-3.50967 0.25883,-3.50967 0.50717,0 0.60201,0.8518 0.90951,8.16853 0.0179,0.42696 0.59732,0.41316 1.30945,-0.0312 0.3081,-0.19224 0.39018,-0.16886 0.24303,0.0693 -0.12219,0.19773 -0.0906,0.4408 0.0701,0.54018 0.16165,0.0999 0.31221,-1.54347 0.3368,-3.67597 0.0243,-2.12113 0.12702,-3.93919 0.22791,-4.04008 0.45109,-0.45107 0.80017,0.99698 0.80481,3.33849 0.002,1.41399 0.15961,2.64295 0.3524,2.76209 0.24063,0.14871 0.24151,0.34212 0.002,0.62967 -0.18944,0.22825 -0.23394,0.52551 -0.099,0.66057 0.13504,0.13504 0.24554,0.41943 0.24554,0.63197 0,0.21254 0.14905,0.3887 0.33122,0.3915 0.18217,0.002 0.50974,0.11855 0.72794,0.25726 0.27105,0.17231 0.3562,0.0418 0.26878,-0.41213 -0.0704,-0.36539 -0.014,-0.7347 0.12506,-0.82071 0.13915,-0.086 0.20535,-0.93791 0.14707,-1.89309 -0.0686,-1.1253 0.0392,-1.83065 0.30626,-2.00355 0.30346,-0.19644 0.31252,-0.33239 0.0344,-0.51526 -0.41126,-0.27039 -0.42614,-6.84178 -0.0163,-7.25148 0.12576,-0.12578 0.24386,-0.0176 0.2624,0.24054 0.21423,2.97888 0.57366,10.51846 0.60269,12.64176 0.0258,1.88955 0.0338,1.90454 1.0197,1.90454 h 0.99367 v -3.08038 z m 1.98735,2.08673 c 0,-0.18218 0.15785,-0.33124 0.35077,-0.33124 0.19293,0 0.25866,0.14906 0.14606,0.33124 -0.11255,0.18218 -0.27043,0.33122 -0.35078,0.33122 -0.0804,0 -0.14605,-0.14904 -0.14605,-0.33122 z m -6.42143,-1.71673 c 0.0957,-0.15479 0.31267,-0.19568 0.48226,-0.091 0.43337,0.26784 0.38458,0.37228 -0.17392,0.37228 -0.26525,0 -0.40401,-0.12663 -0.30834,-0.28142 z m 44.01549,-0.27063 c 0.11254,-0.18217 0.27042,-0.33122 0.35077,-0.33122 0.0804,0 0.14605,0.14905 0.14605,0.33122 0,0.18218 -0.15785,0.33122 -0.35077,0.33122 -0.19293,0 -0.25865,-0.14904 -0.14605,-0.33122 z m 2.81541,0 c 0,-0.18217 0.15785,-0.33122 0.35077,-0.33122 0.19291,0 0.25864,0.14905 0.14606,0.33122 -0.11255,0.18218 -0.27044,0.33122 -0.35078,0.33122 -0.0804,0 -0.14605,-0.14904 -0.14605,-0.33122 z m 20.60425,-3.39506 c 0.12431,-3.06767 0.72514,-3.01272 0.86419,0.079 0.0881,1.95676 0.0205,2.32234 -0.42853,2.32234 -0.44978,0 -0.51777,-0.37493 -0.43566,-2.40139 z m 3.15555,1.82175 c -0.0701,-0.13665 -0.1044,-0.54654 -0.0762,-0.91088 0.0282,-0.36434 0.0768,-1.07234 0.10786,-1.57332 0.0314,-0.50625 0.25136,-0.91086 0.49497,-0.91086 0.30466,0 0.45296,0.55547 0.48626,1.82173 0.0361,1.3689 -0.0681,1.82173 -0.4188,1.82173 -0.25666,0 -0.52405,-0.11179 -0.59417,-0.2484 z m -56.59032,-4.14032 c -0.0215,-0.22772 -6.7e-4,-0.56309 0.0469,-0.74526 0.0473,-0.18217 0.0626,-0.74112 0.0339,-1.24209 -0.0287,-0.50098 0.0994,-0.91088 0.28444,-0.91088 0.18508,0 0.33649,0.74526 0.33649,1.65615 0,0.91086 -0.14905,1.6561 -0.33122,1.6561 -0.18217,0 -0.34887,-0.18631 -0.37046,-0.41402 z m 37.79889,-1.21451 c 0,-1.55569 0.3983,-2.24443 0.73429,-1.26968 0.29003,0.84141 0.0807,2.68126 -0.32025,2.81515 -0.29507,0.0985 -0.41404,-0.34555 -0.41404,-1.54547 z m 18.78394,0.96642 c -0.0952,-0.36418 -0.0445,-0.74157 0.11254,-0.83867 0.15714,-0.0972 0.20748,-0.38028 0.11193,-0.62927 -0.0956,-0.24901 -0.0335,-0.53937 0.13776,-0.64528 0.3373,-0.20845 0.81371,2.03635 0.52974,2.49586 -0.29846,0.48288 -0.71202,0.30545 -0.89198,-0.38264 z m -15.63561,-0.73065 c 0.13683,-1.63585 0.13919,-1.64264 0.48981,-1.42595 0.43314,0.26771 0.25912,2.23728 -0.21152,2.39417 -0.23334,0.0777 -0.33592,-0.27913 -0.27829,-0.96822 z m 28.06274,0.33697 c 0.2047,-0.61414 0.91776,-0.716 0.91776,-0.13109 0,0.28844 -0.236,0.52445 -0.52444,0.52445 -0.28845,0 -0.46543,-0.17701 -0.39332,-0.39336 z m -15.58374,-0.68314 c 0.0582,-0.40988 0.25491,-0.74526 0.43708,-0.74526 0.18217,0 0.37886,0.33538 0.43709,0.74526 0.0729,0.5128 -0.0635,0.74526 -0.43709,0.74526 -0.37355,0 -0.50989,-0.23246 -0.43708,-0.74526 z m -6.35303,-0.23801 c 0,-0.44353 0.15889,-0.59109 0.49683,-0.4614 0.27327,0.10484 0.49684,0.39828 0.49684,0.65204 0,0.25378 -0.22357,0.46141 -0.49684,0.46141 -0.27338,0 -0.49683,-0.29326 -0.49683,-0.65205 z m -31.29744,-0.0158 c 0.11442,-0.18513 0.34681,-0.25087 0.51639,-0.14606 0.45942,0.28394 0.37376,0.4827 -0.20806,0.4827 -0.284,0 -0.42274,-0.15149 -0.30833,-0.33664 z m 56.47055,-0.69504 c 0,-0.6606 0.14345,-0.96363 0.41403,-0.87452 0.61929,0.20395 0.69395,1.46023 0.10033,1.68804 -0.39574,0.15185 -0.51435,-0.0357 -0.51435,-0.81352 z m -47.08481,-0.96936 c -0.11842,-1.72232 0.12132,-2.99483 0.46061,-2.44578 0.17493,0.28304 0.35882,2.68495 0.28339,3.70156 -0.017,0.22771 -0.16539,0.41403 -0.32996,0.41403 -0.16461,0 -0.35091,-0.75141 -0.41404,-1.66981 z m 43.88779,0.94205 c 0.16079,-1.05357 0.87844,-1.15805 0.87844,-0.1279 0,0.53818 -0.18355,0.85566 -0.49474,0.85566 -0.32246,0 -0.45611,-0.25347 -0.3837,-0.72776 z m -84.90886,-1.09398 c 0,-0.63761 0.13663,-1.15928 0.30361,-1.15928 0.41936,0 0.59909,0.65784 0.42646,1.56081 -0.22416,1.17264 -0.73007,0.8944 -0.73007,-0.40153 z m 22.19208,-0.82805 c 0,-1.09305 0.1163,-1.98735 0.25856,-1.98735 0.14219,0 0.29218,0.8943 0.33327,1.98735 0.0438,1.1618 -0.0636,1.98735 -0.25855,1.98735 -0.18651,0 -0.33328,-0.87507 -0.33328,-1.98735 z m 9.56277,1.90454 c -0.22047,-0.42696 -0.15896,-2.89822 0.0721,-2.89822 0.33332,0 0.32843,-0.019 0.44843,1.73893 0.0466,0.68315 -0.0419,1.2421 -0.19651,1.2421 -0.15471,0 -0.30054,-0.0373 -0.32405,-0.0827 z m 15.61033,-1.2421 c 0,-0.54652 0.14907,-0.99367 0.33124,-0.99367 0.18217,0 0.33121,0.44715 0.33121,0.99367 0,0.54653 -0.14904,0.99367 -0.33121,0.99367 -0.18217,0 -0.33124,-0.44714 -0.33124,-0.99367 z m 15.62612,0.47934 c 0.14978,-0.71946 0.73764,-0.76348 0.87207,-0.0653 0.0699,0.36256 -0.0926,0.57965 -0.43377,0.57965 -0.3182,0 -0.50081,-0.21425 -0.4383,-0.51433 z m 6.28443,0.19968 c 0.14233,-0.42701 0.59663,-0.50369 0.63761,-0.10764 0.0137,0.13208 -0.15402,0.29977 -0.37263,0.37264 -0.21861,0.0729 -0.33786,-0.0463 -0.26498,-0.26498 z m -56.39571,-0.0994 c -0.22406,-0.49125 -0.18131,-1.90455 0.0575,-1.90455 0.17125,0 0.31137,0.44717 0.31137,0.99368 0,0.81255 -0.19466,1.29309 -0.36899,0.91087 z m 37.54212,-0.31052 c 0.20469,-0.61417 0.91774,-0.71603 0.91774,-0.13111 0,0.28843 -0.23598,0.52444 -0.52441,0.52444 -0.28848,0 -0.46544,-0.177 -0.39333,-0.39333 z m 6.21736,-0.10356 c 0,-0.27326 0.22357,-0.49683 0.49682,-0.49683 0.27326,0 0.49685,0.22357 0.49685,0.49683 0,0.27328 -0.22359,0.49684 -0.49685,0.49684 -0.27325,0 -0.49682,-0.22356 -0.49682,-0.49684 z m 3.31224,0 c 0,-0.27326 0.14905,-0.49683 0.33122,-0.49683 0.18217,0 0.33124,0.22357 0.33124,0.49683 0,0.27328 -0.14907,0.49684 -0.33124,0.49684 -0.18217,0 -0.33122,-0.22356 -0.33122,-0.49684 z m 12.48517,0.28503 c -0.26464,-0.26463 0.0344,-0.78186 0.45216,-0.78186 0.17144,0 0.31167,0.22357 0.31167,0.49683 0,0.51223 -0.39084,0.65805 -0.76383,0.28503 z m 9.37569,-0.0804 c 0,-0.18217 0.14905,-0.42332 0.33122,-0.53591 0.18217,-0.11255 0.33123,-0.0556 0.33123,0.12651 0,0.18217 -0.14906,0.42335 -0.33123,0.53594 -0.18217,0.11254 -0.33122,0.0556 -0.33122,-0.12654 z m -85.01056,-0.5502 c -0.10796,-0.28113 -0.11317,-0.59414 -0.0112,-0.69562 0.29007,-0.29006 0.89103,0.20193 0.89103,0.72945 0,0.63557 -0.63183,0.61125 -0.87938,-0.0338 z m 18.82406,-0.0411 c 0.16116,-0.83097 0.93514,-0.94505 0.93514,-0.13785 0,0.40686 -0.21386,0.69006 -0.52111,0.69006 -0.30844,0 -0.47742,-0.22537 -0.41403,-0.55221 z m 38.19798,0.22097 c -0.11254,-0.18217 -0.0469,-0.33121 0.14608,-0.33121 0.19289,0 0.35075,0.14904 0.35075,0.33121 0,0.18218 -0.0658,0.33124 -0.14607,0.33124 -0.0804,0 -0.23818,-0.14906 -0.35076,-0.33124 z m 21.90707,0.10138 c -0.32001,-0.31999 -0.25389,-1.75753 0.0807,-1.75753 0.36733,0 0.6978,1.61906 0.37163,1.82065 -0.13235,0.0817 -0.33592,0.0533 -0.45241,-0.0631 z m 25.18212,0.009 c -0.31656,-0.31655 -0.27232,-0.77286 0.0751,-0.77286 0.1627,0 0.38157,0.22358 0.48644,0.49684 0.19373,0.50487 -0.15909,0.67835 -0.5614,0.27602 z m -107.0306,-0.53909 c -0.14177,-0.32667 -0.16485,-0.68687 -0.0512,-0.80046 0.33636,-0.33636 0.60749,0.13611 0.45268,0.78881 -0.13725,0.57863 -0.1551,0.57916 -0.40143,0.0112 z m 12.34805,-0.62057 c 0.0758,-0.51617 0.25247,-0.93849 0.39268,-0.93849 0.14022,0 0.23769,0.42232 0.21659,0.93847 -0.021,0.51619 -0.1978,0.93849 -0.39266,0.93849 -0.20067,0 -0.2946,-0.40702 -0.21661,-0.93849 z m 12.64911,0.57159 c 0,-0.26252 0.14905,-0.56941 0.33123,-0.68201 0.18217,-0.11254 0.33121,0.10221 0.33121,0.47729 0,0.37511 -0.14904,0.682 -0.33121,0.682 -0.18218,0 -0.33123,-0.21476 -0.33123,-0.47728 z m 6.51409,0.25645 c -0.34892,-0.34891 -0.25687,-2.09774 0.11041,-2.09774 0.18218,0 0.33124,0.52168 0.33124,1.15928 0,1.19133 -0.0604,1.3197 -0.44163,0.93846 z m 12.67336,0.15757 c -0.013,-0.0564 -0.0932,-0.67559 -0.17816,-1.37622 -0.11417,-0.94133 -0.0431,-1.2367 0.27203,-1.13143 0.45999,0.1536 0.61685,2.18535 0.18912,2.4497 -0.14265,0.0882 -0.27001,0.1143 -0.28299,0.058 z m 46.92396,-0.21621 c -0.11468,-0.18546 -0.047,-0.43695 0.15025,-0.55887 0.50924,-0.31474 0.83783,0.11642 0.4127,0.5415 -0.23789,0.23787 -0.42315,0.2436 -0.56295,0.0174 z m 3.1784,-0.87982 c -0.0238,-0.6376 0.0885,-1.15928 0.24993,-1.15928 0.41004,0 0.58754,0.66544 0.41639,1.56081 -0.21927,1.14704 -0.61713,0.90729 -0.66632,-0.40153 z m -53.55662,0.49685 c -0.24153,-0.39081 0.0716,-0.99367 0.51638,-0.99367 0.17143,0 0.31168,0.29809 0.31168,0.66243 0,0.69859 -0.48188,0.89135 -0.82806,0.33124 z m 31.5306,0.11942 c -0.26464,-0.26462 0.0345,-0.78185 0.45217,-0.78185 0.17143,0 0.31167,0.22357 0.31167,0.49683 0,0.51221 -0.39083,0.65805 -0.76384,0.28502 z m 3.08242,-0.45063 c 0,-0.36435 0.14906,-0.66244 0.33124,-0.66244 0.18217,0 0.33121,0.29809 0.33121,0.66244 0,0.36435 -0.14904,0.66246 -0.33121,0.66246 -0.18218,0 -0.33124,-0.29811 -0.33124,-0.66246 z m 34.77863,0.33123 c 0,-0.18217 0.14906,-0.33123 0.33124,-0.33123 0.18217,0 0.33122,0.14906 0.33122,0.33123 0,0.18217 -0.14905,0.33123 -0.33122,0.33123 -0.18218,0 -0.33124,-0.14906 -0.33124,-0.33123 z m -53.65846,-0.33123 c 0,-0.18217 0.14024,-0.33122 0.3117,-0.33122 0.1714,0 0.40378,0.14905 0.51636,0.33122 0.11254,0.18218 -0.0275,0.33123 -0.31168,0.33123 -0.28399,0 -0.51638,-0.14905 -0.51638,-0.33123 z m 3.31226,-0.33122 c 0,-0.36434 0.14904,-0.66245 0.33121,-0.66245 0.18218,0 0.33123,0.29811 0.33123,0.66245 0,0.36435 -0.14905,0.66245 -0.33123,0.66245 -0.18217,0 -0.33121,-0.2981 -0.33121,-0.66245 z m 3.20184,0.44163 c -0.39365,-0.39364 -0.23351,-1.43531 0.22068,-1.43531 0.24282,0 0.41972,0.29506 0.39315,0.65571 -0.057,0.77282 -0.30524,1.08819 -0.61383,0.7796 z m 3.09143,-0.27601 c 0,-0.27327 0.14905,-0.49684 0.33122,-0.49684 0.18217,0 0.33124,0.22357 0.33124,0.49684 0,0.27325 -0.14907,0.49683 -0.33124,0.49683 -0.18217,0 -0.33122,-0.22358 -0.33122,-0.49683 z m 2.98103,0.1656 c 0,-0.18217 0.22357,-0.33122 0.49683,-0.33122 0.27327,0 0.49684,0.14905 0.49684,0.33122 0,0.18218 -0.22357,0.33123 -0.49684,0.33123 -0.27326,0 -0.49683,-0.14905 -0.49683,-0.33123 z m 9.60553,-0.1656 c 0,-0.27327 -0.0112,-0.60491 -0.0248,-0.737 -0.0137,-0.13206 0.13541,-0.29353 0.33123,-0.35881 0.19585,-0.0652 0.35607,0.26636 0.35607,0.73697 0,0.47062 -0.14906,0.85567 -0.33124,0.85567 -0.18216,0 -0.33121,-0.22358 -0.33121,-0.49683 z m 6.02554,0.14075 c 0.0652,-0.19583 0.26029,-0.35606 0.43334,-0.35606 0.17308,0 0.36809,0.16023 0.43335,0.35606 0.0652,0.19585 -0.12971,0.35608 -0.43335,0.35608 -0.30362,0 -0.49861,-0.16023 -0.43334,-0.35608 z m 3.24876,0.0248 c 0,-0.18217 0.14905,-0.33121 0.33122,-0.33121 0.18217,0 0.33123,0.14904 0.33123,0.33121 0,0.18218 -0.14906,0.33124 -0.33123,0.33124 -0.18217,0 -0.33122,-0.14906 -0.33122,-0.33124 z m 15.69003,-0.41403 c 0.10986,-0.40989 0.20175,-0.85705 0.20423,-0.99368 0.003,-0.13663 0.13092,-0.24841 0.28536,-0.24841 0.15445,0 0.29353,0.44716 0.30907,0.99369 0.0194,0.68876 -0.12925,0.99367 -0.48506,0.99367 -0.3707,0 -0.45782,-0.20709 -0.3136,-0.74527 z m -81.76945,-0.2484 c -0.27011,-0.43708 0.12594,-1.05731 0.51973,-0.81393 0.40233,0.24864 0.39971,1.14515 -0.003,1.14515 -0.17142,0 -0.40379,-0.14905 -0.51638,-0.33122 z m 31.632,-0.33125 c 0,-0.36433 0.14907,-0.66244 0.33124,-0.66244 0.18217,0 0.33121,0.29811 0.33121,0.66244 0,0.36435 -0.14904,0.66247 -0.33121,0.66247 -0.18217,0 -0.33124,-0.29812 -0.33124,-0.66247 z m 37.75967,0.33125 c 0,-0.18218 0.14905,-0.33125 0.33122,-0.33125 0.18219,0 0.33123,0.14907 0.33123,0.33125 0,0.18217 -0.14904,0.33122 -0.33123,0.33122 -0.18217,0 -0.33122,-0.14905 -0.33122,-0.33122 z m 15.56758,-0.16564 c 0,-0.27326 0.14904,-0.49682 0.33123,-0.49682 0.18217,0 0.33122,0.22356 0.33122,0.49682 0,0.27327 -0.14905,0.49686 -0.33122,0.49686 -0.18219,0 -0.33123,-0.22359 -0.33123,-0.49686 z m 3.31224,-0.0194 c 0,-0.28401 0.15149,-0.42277 0.33664,-0.30834 0.18514,0.11442 0.25086,0.34681 0.14607,0.51639 -0.28393,0.45941 -0.48271,0.37375 -0.48271,-0.20805 z m -91.41813,-0.31168 c 0,-0.27326 0.14906,-0.49684 0.33124,-0.49684 0.18217,0 0.33122,0.22358 0.33122,0.49684 0,0.27326 -0.14905,0.49684 -0.33122,0.49684 -0.18218,0 -0.33124,-0.22358 -0.33124,-0.49684 z m 6.29329,0.0195 c 0,-0.28401 0.14905,-0.51639 0.33123,-0.51639 0.18217,0 0.33121,0.14025 0.33121,0.31167 0,0.17143 -0.14904,0.4038 -0.33121,0.51639 -0.18218,0.11255 -0.33123,-0.0278 -0.33123,-0.31166 z m -28.10183,-0.51639 c 0,-0.45544 0.0752,-0.64174 0.16706,-0.41403 0.0919,0.22773 0.0919,0.60034 0,0.82808 -0.0918,0.22771 -0.16706,0.0414 -0.16706,-0.41405 z m 2.92872,0.16561 c 0,-0.27325 0.12418,-0.49683 0.27601,-0.49683 0.15183,0 0.27604,0.22358 0.27604,0.49683 0,0.27326 -0.12419,0.49684 -0.27604,0.49684 -0.1518,0 -0.27601,-0.22358 -0.27601,-0.49684 z m 15.56758,-0.16561 c 0,-0.36435 0.14904,-0.66245 0.33123,-0.66245 0.18217,0 0.33122,0.2981 0.33122,0.66245 0,0.36436 -0.14905,0.66245 -0.33122,0.66245 -0.18219,0 -0.33123,-0.29809 -0.33123,-0.66245 z m 34.77863,0.33123 c 0,-0.18218 0.23238,-0.33123 0.5164,-0.33123 0.28401,0 0.42426,0.14905 0.31167,0.33123 -0.11253,0.18217 -0.34497,0.33122 -0.51639,0.33122 -0.17142,0 -0.31168,-0.14905 -0.31168,-0.33122 z m 6.29328,0 c 0,-0.18218 0.22358,-0.33123 0.49685,-0.33123 0.27325,0 0.49682,0.14905 0.49682,0.33123 0,0.18217 -0.22357,0.33122 -0.49682,0.33122 -0.27327,0 -0.49685,-0.14905 -0.49685,-0.33122 z m 15.63108,-0.0249 c 0.0652,-0.19585 0.26027,-0.35607 0.43334,-0.35607 0.17307,0 0.3681,0.16022 0.43335,0.35607 0.0652,0.19582 -0.12971,0.35606 -0.43335,0.35606 -0.30363,0 -0.49863,-0.16024 -0.43334,-0.35606 z m 3.4247,-0.0723 c -0.14175,-0.32666 -0.16485,-0.68687 -0.0513,-0.80046 0.33637,-0.33636 0.60747,0.13611 0.45269,0.78882 -0.13726,0.57865 -0.15512,0.57916 -0.40144,0.0112 z m 6.11733,0.0972 c 0,-0.18218 0.14905,-0.33122 0.33122,-0.33122 0.18218,0 0.33123,0.14904 0.33123,0.33122 0,0.18217 -0.14905,0.33121 -0.33123,0.33121 -0.18217,0 -0.33122,-0.14904 -0.33122,-0.33121 z m 3.14664,-0.49686 c 0,-0.45542 0.11179,-0.82805 0.24843,-0.82805 0.13663,0 0.24841,0.13686 0.24841,0.30414 0,0.16727 0.0905,0.53991 0.20105,0.82806 0.12243,0.31914 0.0255,0.52392 -0.24841,0.52392 -0.25862,0 -0.44948,-0.35159 -0.44948,-0.82807 z m 3.14664,0.33125 c 0,-0.27326 0.14905,-0.49686 0.33122,-0.49686 0.18217,0 0.33123,0.2236 0.33123,0.49686 0,0.27326 -0.14906,0.49682 -0.33123,0.49682 -0.18217,0 -0.33122,-0.22356 -0.33122,-0.49682 z m -81.8126,-0.16561 c 0,-0.18218 0.14905,-0.33125 0.33122,-0.33125 0.18217,0 0.33123,0.14907 0.33123,0.33125 0,0.18217 -0.14906,0.33122 -0.33123,0.33122 -0.18217,0 -0.33122,-0.14905 -0.33122,-0.33122 z m 6.48637,0.0444 c -0.1427,-0.23087 -0.16999,-0.50922 -0.0605,-0.61854 0.29643,-0.29644 0.61964,0.13955 0.45954,0.61987 -0.11217,0.33658 -0.19022,0.33633 -0.3989,-10e-4 z m 24.98001,-0.37569 c 0,-0.36435 0.14906,-0.66244 0.33123,-0.66244 0.18217,0 0.33123,0.29809 0.33123,0.66244 0,0.36434 -0.14906,0.66245 -0.33123,0.66245 -0.18217,0 -0.33123,-0.29811 -0.33123,-0.66245 z m 3.31732,-0.0827 c 0.003,-0.60265 0.0664,-0.65017 0.32616,-0.24841 0.41499,0.64217 0.41499,0.99367 0,0.99367 -0.18218,0 -0.32893,-0.33536 -0.32616,-0.74526 z m 18.87477,0.41404 c 0,-0.18217 0.14904,-0.33123 0.33121,-0.33123 0.18218,0 0.33123,0.14906 0.33123,0.33123 0,0.18217 -0.14905,0.33122 -0.33123,0.33122 -0.18217,0 -0.33121,-0.14905 -0.33121,-0.33122 z m 6.29327,0 c 0,-0.18217 0.15787,-0.33123 0.35077,-0.33123 0.19293,0 0.25866,0.14906 0.14606,0.33123 -0.11254,0.18217 -0.27044,0.33122 -0.35077,0.33122 -0.0804,0 -0.14606,-0.14905 -0.14606,-0.33122 z m 25.02499,0.0283 c -0.10663,-0.17256 -0.0526,-0.401 0.11981,-0.50762 0.17256,-0.10664 0.40097,-0.0527 0.50762,0.11978 0.10664,0.17258 0.0526,0.40102 -0.1198,0.50766 -0.17257,0.10664 -0.40097,0.0527 -0.50763,-0.11981 z m -88.12338,-0.3595 c 0.11254,-0.18219 0.27045,-0.33123 0.35078,-0.33123 0.0804,0 0.14607,0.14904 0.14607,0.33123 0,0.18217 -0.15785,0.33122 -0.35078,0.33122 -0.19293,0 -0.25865,-0.14905 -0.14607,-0.33122 z m 28.31976,-0.16562 c 0,-0.27325 0.14904,-0.49683 0.33121,-0.49683 0.18218,0 0.33124,0.22358 0.33124,0.49683 0,0.27326 -0.14906,0.49684 -0.33124,0.49684 -0.18217,0 -0.33121,-0.22358 -0.33121,-0.49684 z m 15.89881,0 c 0,-0.27325 0.14904,-0.49683 0.33121,-0.49683 0.18217,0 0.33123,0.22358 0.33123,0.49683 0,0.27326 -0.14906,0.49684 -0.33123,0.49684 -0.18217,0 -0.33121,-0.22358 -0.33121,-0.49684 z m 21.87138,-0.24843 c -0.004,-0.50097 0.1297,-0.91086 0.30114,-0.91086 0.57724,0 0.66415,0.5604 0.1851,1.1933 -0.45073,0.59546 -0.47626,0.58062 -0.48624,-0.28244 z m 25.16258,0.26798 c 0,-0.28401 0.14905,-0.51638 0.33122,-0.51638 0.18217,0 0.33122,0.14024 0.33122,0.31166 0,0.17144 -0.14905,0.40381 -0.33122,0.51639 -0.18217,0.11254 -0.33122,-0.0278 -0.33122,-0.31167 z m 3.0307,0.16263 c 0.14233,-0.427 0.59663,-0.5037 0.63762,-0.10763 0.0134,0.13207 -0.15403,0.29976 -0.37263,0.37262 -0.21861,0.0729 -0.33786,-0.0463 -0.26499,-0.26498 z m 12.86809,-0.0165 c 0,-0.18217 0.14906,-0.33122 0.33124,-0.33122 0.18217,0 0.33122,0.14905 0.33122,0.33122 0,0.18217 -0.14905,0.33122 -0.33122,0.33122 -0.18218,0 -0.33124,-0.14905 -0.33124,-0.33122 z M 274.90373,262.9137 c 0,-0.18218 0.15785,-0.33123 0.35077,-0.33123 0.19293,0 0.25865,0.14905 0.14605,0.33123 -0.11254,0.18217 -0.27042,0.33122 -0.35077,0.33122 -0.0804,0 -0.14605,-0.14905 -0.14605,-0.33122 z m 9.58018,0.24841 c -0.2048,-0.66924 -0.18909,-1.2421 0.0341,-1.2421 0.15472,0 0.25888,0.29811 0.23143,0.66246 -0.0426,0.56529 -0.17884,0.86278 -0.2655,0.57964 z m 2.78555,-0.41403 c 0,-0.27325 0.19874,-0.49684 0.44165,-0.49684 0.24288,0 0.44161,0.22359 0.44161,0.49684 0,0.27325 -0.19873,0.49684 -0.44161,0.49684 -0.24291,0 -0.44165,-0.22359 -0.44165,-0.49684 z m 6.5141,0.16562 c 0,-0.18218 0.14904,-0.33123 0.33122,-0.33123 0.18217,0 0.33123,0.14905 0.33123,0.33123 0,0.18217 -0.14906,0.33122 -0.33123,0.33122 -0.18218,0 -0.33122,-0.14905 -0.33122,-0.33122 z m 15.56759,0 c 0,-0.18218 0.14904,-0.33123 0.33122,-0.33123 0.18217,0 0.33121,0.14905 0.33121,0.33123 0,0.18217 -0.14904,0.33122 -0.33121,0.33122 -0.18218,0 -0.33122,-0.14905 -0.33122,-0.33122 z m 9.60551,0 c 0,-0.18218 0.15785,-0.33123 0.35077,-0.33123 0.19294,0 0.25867,0.14905 0.14608,0.33123 -0.11253,0.18217 -0.27045,0.33122 -0.35078,0.33122 -0.0804,0 -0.14607,-0.14905 -0.14607,-0.33122 z m 3.14664,0 c -0.11254,-0.18218 -0.0469,-0.33123 0.14609,-0.33123 0.19289,0 0.35075,0.14905 0.35075,0.33123 0,0.18217 -0.0658,0.33122 -0.14607,0.33122 -0.0804,0 -0.23818,-0.14905 -0.35077,-0.33122 z m 6.20359,-0.0621 c 0.0721,-0.21634 0.30819,-0.45237 0.52466,-0.52451 0.24203,-0.0806 0.31604,0.0707 0.19227,0.39333 -0.23102,0.60206 -0.91567,0.72733 -0.71693,0.13118 z m 15.65727,0.0621 c -0.11254,-0.18218 0.0364,-0.33123 0.33123,-0.33123 0.29476,0 0.44381,0.14905 0.33122,0.33123 -0.11253,0.18217 -0.26163,0.33122 -0.33122,0.33122 -0.0695,0 -0.21864,-0.14905 -0.33123,-0.33122 z m 3.14664,0 c 0,-0.18218 0.15787,-0.33123 0.35077,-0.33123 0.19294,0 0.25864,0.14905 0.14607,0.33123 -0.11255,0.18217 -0.27044,0.33122 -0.35076,0.33122 -0.0804,0 -0.14608,-0.14905 -0.14608,-0.33122 z m 25.17311,-0.0195 c 0,-0.19292 0.14904,-0.25865 0.33123,-0.14608 0.18217,0.11255 0.33122,0.27045 0.33122,0.35079 0,0.0804 -0.14905,0.14606 -0.33122,0.14606 -0.18219,0 -0.33123,-0.15784 -0.33123,-0.35077 z m -106.88542,-0.24634 c -0.25336,-0.15872 -0.28976,-0.42121 -0.10075,-0.72695 0.35467,-0.57384 0.7671,-0.26163 0.60946,0.46135 -0.0666,0.30609 -0.27252,0.41352 -0.50863,0.2656 z m 6.19299,-0.0653 c 0,-0.18218 0.14905,-0.33123 0.33122,-0.33123 0.18217,0 0.33123,0.14905 0.33123,0.33123 0,0.18218 -0.14906,0.33122 -0.33123,0.33122 -0.18217,0 -0.33122,-0.14904 -0.33122,-0.33122 z m 18.87983,0 c 0,-0.18218 0.15785,-0.33123 0.35076,-0.33123 0.19294,0 0.25867,0.14905 0.14608,0.33123 -0.11256,0.18218 -0.27045,0.33122 -0.35078,0.33122 -0.0804,0 -0.14606,-0.14904 -0.14606,-0.33122 z m 41.07191,0 c 0,-0.18218 0.15787,-0.33123 0.35077,-0.33123 0.19293,0 0.25866,0.14905 0.14606,0.33123 -0.11254,0.18218 -0.27044,0.33122 -0.35077,0.33122 -0.0804,0 -0.14606,-0.14904 -0.14606,-0.33122 z m 5.96205,-0.16562 c 0,-0.27326 0.22358,-0.49684 0.49684,-0.49684 0.27327,0 0.49683,0.22358 0.49683,0.49684 0,0.27327 -0.22356,0.49684 -0.49683,0.49684 -0.27326,0 -0.49684,-0.22357 -0.49684,-0.49684 z m 15.89881,0.0195 c 0,-0.284 0.14905,-0.51639 0.33122,-0.51639 0.18217,0 0.33123,0.14027 0.33123,0.31169 0,0.17141 -0.14906,0.40379 -0.33123,0.51638 -0.18217,0.11254 -0.33122,-0.0278 -0.33122,-0.31168 z m 12.58655,-0.18515 c 0,-0.36434 0.14906,-0.66244 0.33123,-0.66244 0.18217,0 0.33122,0.2981 0.33122,0.66244 0,0.36434 -0.14905,0.66246 -0.33122,0.66246 -0.18217,0 -0.33123,-0.29812 -0.33123,-0.66246 z m 3.28692,0.41403 c -0.0139,-0.13662 -0.0753,-0.50866 -0.1361,-0.82675 -0.061,-0.31808 0.0153,-0.65611 0.16896,-0.75121 0.15384,-0.0951 0.26693,0.27694 0.2513,0.82675 -0.0252,0.88968 -0.21804,1.39927 -0.28416,0.75121 z m -106.93422,-0.60724 c 0.0159,-0.38586 0.0944,-0.46435 0.2001,-0.20012 0.0957,0.23911 0.0839,0.52479 -0.0261,0.63485 -0.11009,0.11008 -0.18836,-0.0856 -0.17397,-0.43473 z m 94.04178,0.19321 c 0,-0.18218 0.22356,-0.33123 0.49683,-0.33123 0.27327,0 0.49684,0.14905 0.49684,0.33123 0,0.18217 -0.22357,0.33124 -0.49684,0.33124 -0.27327,0 -0.49683,-0.14907 -0.49683,-0.33124 z m 18.93836,-0.22096 c 0.16114,-0.83098 0.93514,-0.94508 0.93514,-0.13786 0,0.40685 -0.21386,0.69006 -0.5211,0.69006 -0.30848,0 -0.47745,-0.22537 -0.41404,-0.5522 z m -107.04424,-0.27588 c 0,-0.27326 0.14904,-0.49684 0.33122,-0.49684 0.18217,0 0.33123,0.22358 0.33123,0.49684 0,0.27327 -0.14906,0.49684 -0.33123,0.49684 -0.18218,0 -0.33122,-0.22357 -0.33122,-0.49684 z m 12.75216,0.16561 c 0.11255,-0.18217 0.27044,-0.33121 0.35078,-0.33121 0.0804,0 0.14606,0.14904 0.14606,0.33121 0,0.18218 -0.15785,0.33123 -0.35077,0.33123 -0.19292,0 -0.25866,-0.14905 -0.14607,-0.33123 z m 78.66597,-0.16561 c 0,-0.27326 0.14905,-0.49684 0.33122,-0.49684 0.18217,0 0.33122,0.22358 0.33122,0.49684 0,0.27327 -0.14905,0.49684 -0.33122,0.49684 -0.18217,0 -0.33122,-0.22357 -0.33122,-0.49684 z m 2.98102,0 c 0,-0.27326 0.13312,-0.49684 0.2958,-0.49684 0.16269,0 0.38157,0.22358 0.48642,0.49684 0.11618,0.30265 0,0.49684 -0.29579,0.49684 -0.26751,0 -0.48643,-0.22357 -0.48643,-0.49684 z m 9.60553,0 c 0,-0.27326 0.14904,-0.49684 0.33123,-0.49684 0.18217,0 0.33122,0.22358 0.33122,0.49684 0,0.27327 -0.14905,0.49684 -0.33122,0.49684 -0.18219,0 -0.33123,-0.22357 -0.33123,-0.49684 z m -97.38018,-0.1656 c -0.29854,-0.19293 -0.33939,-0.32311 -0.10241,-0.32617 0.21696,-0.002 0.4866,0.14399 0.59918,0.32617 0.25415,0.41121 0.1395,0.41121 -0.49683,0 z m 2.98103,-0.49685 c 0,-0.45543 0.14904,-0.82806 0.33122,-0.82806 0.18217,0 0.33122,0.37263 0.33122,0.82806 0,0.45543 -0.14905,0.82806 -0.33122,0.82806 -0.18218,0 -0.33122,-0.37263 -0.33122,-0.82806 z m 69.22604,0.49685 c 0,-0.18218 0.14905,-0.33124 0.33122,-0.33124 0.18218,0 0.33123,0.14906 0.33123,0.33124 0,0.18217 -0.14905,0.33121 -0.33123,0.33121 -0.18217,0 -0.33122,-0.14904 -0.33122,-0.33121 z m 3.3384,-0.19322 c 0.0159,-0.38586 0.0944,-0.46434 0.20012,-0.20011 0.0957,0.23909 0.0839,0.52478 -0.0261,0.63483 -0.11008,0.11008 -0.18836,-0.0856 -0.17399,-0.43472 z m 2.95488,-0.30363 c 0,-0.27326 0.14905,-0.49682 0.33122,-0.49682 0.18217,0 0.33123,0.22356 0.33123,0.49682 0,0.27326 -0.14906,0.49685 -0.33123,0.49685 -0.18217,0 -0.33122,-0.22359 -0.33122,-0.49685 z m 3.14664,-0.16561 c 0.11254,-0.18217 0.27043,-0.33121 0.35077,-0.33121 0.0804,0 0.14606,0.14904 0.14606,0.33121 0,0.18217 -0.15786,0.33122 -0.35077,0.33122 -0.19293,0 -0.25864,-0.14905 -0.14606,-0.33122 z m 3.14664,-0.49684 c 0,-0.27325 0.14905,-0.49683 0.33122,-0.49683 0.18217,0 0.33122,0.22358 0.33122,0.49683 0,0.27327 -0.14905,0.49684 -0.33122,0.49684 -0.18217,0 -0.33122,-0.22357 -0.33122,-0.49684 z m 6.45889,0.16563 c -0.11255,-0.18217 -0.0469,-0.33124 0.14607,-0.33124 0.19289,0 0.35076,0.14907 0.35076,0.33124 0,0.18217 -0.0658,0.33121 -0.14607,0.33121 -0.0804,0 -0.23819,-0.14904 -0.35076,-0.33121 z m 6.12766,-0.14608 c 0,-0.28401 0.14904,-0.51638 0.33123,-0.51638 0.18217,0 0.33122,0.14024 0.33122,0.31168 0,0.17142 -0.14905,0.40379 -0.33122,0.51638 -0.18219,0.11254 -0.33123,-0.0278 -0.33123,-0.31168 z m -69.22605,-0.18516 c 0,-0.18217 0.14906,-0.33122 0.33123,-0.33122 0.18217,0 0.33123,0.14905 0.33123,0.33122 0,0.18217 -0.14906,0.33124 -0.33123,0.33124 -0.18217,0 -0.33123,-0.14907 -0.33123,-0.33124 z m 2.98102,0 c 0,-0.18217 0.14907,-0.33122 0.33124,-0.33122 0.18217,0 0.33122,0.14905 0.33122,0.33122 0,0.18217 -0.14905,0.33124 -0.33122,0.33124 -0.18217,0 -0.33124,-0.14907 -0.33124,-0.33124 z m 56.6395,-0.16561 c 0,-0.27326 0.12419,-0.49683 0.27602,-0.49683 0.15183,0 0.27603,0.22357 0.27603,0.49683 0,0.27326 -0.12418,0.49685 -0.27603,0.49685 -0.15181,0 -0.27602,-0.22359 -0.27602,-0.49685 z m -94.23192,-0.163 c -0.11167,-0.18071 -0.0646,-0.57606 0.10462,-0.87852 0.25039,-0.4474 0.30774,-0.38615 0.30774,0.32861 0,0.94425 -0.0925,1.06756 -0.41239,0.54991 z m 22.02485,-0.002 c 0,-0.18217 0.14905,-0.33121 0.33123,-0.33121 0.18217,0 0.33121,0.14904 0.33121,0.33121 0,0.18217 -0.14904,0.33122 -0.33121,0.33122 -0.18218,0 -0.33123,-0.14905 -0.33123,-0.33122 z m 18.87984,-0.0194 c 0,-0.19292 0.14904,-0.25865 0.33122,-0.14606 0.18217,0.11253 0.33121,0.27044 0.33121,0.35077 0,0.0804 -0.14904,0.14607 -0.33121,0.14607 -0.18218,0 -0.33122,-0.15785 -0.33122,-0.35078 z m 59.62051,0.0194 c 0,-0.18217 0.22358,-0.33121 0.49684,-0.33121 0.27325,0 0.49683,0.14904 0.49683,0.33121 0,0.18217 -0.22358,0.33122 -0.49683,0.33122 -0.27326,0 -0.49684,-0.14905 -0.49684,-0.33122 z m 6.45889,-0.33121 c 0.11254,-0.18218 0.27044,-0.33124 0.35077,-0.33124 0.0804,0 0.14607,0.14906 0.14607,0.33124 0,0.18217 -0.15786,0.33121 -0.35078,0.33121 -0.19293,0 -0.25865,-0.14904 -0.14606,-0.33121 z m -47.19957,-0.49685 c 0,-0.27326 0.14437,-0.49683 0.32082,-0.49683 0.17647,0 0.23504,0.22357 0.13017,0.49683 -0.10496,0.27326 -0.24922,0.49685 -0.32082,0.49685 -0.0715,0 -0.13017,-0.22359 -0.13017,-0.49685 z m 6.29327,0.14606 c 0,-0.19292 0.14905,-0.25865 0.33122,-0.14606 0.18217,0.11254 0.33123,0.27045 0.33123,0.35078 0,0.0804 -0.14906,0.14607 -0.33123,0.14607 -0.18217,0 -0.33122,-0.15785 -0.33122,-0.35079 z m -47.19959,-0.31167 c 0.11255,-0.18217 0.27045,-0.33122 0.35078,-0.33122 0.0804,0 0.14607,0.14905 0.14607,0.33122 0,0.18217 -0.15785,0.33122 -0.35078,0.33122 -0.19293,0 -0.25865,-0.14905 -0.14607,-0.33122 z m 15.7332,0 c 0,-0.18217 0.14906,-0.33122 0.33123,-0.33122 0.18217,0 0.33123,0.14905 0.33123,0.33122 0,0.18217 -0.14906,0.33122 -0.33123,0.33122 -0.18217,0 -0.33123,-0.14905 -0.33123,-0.33122 z m 19.04544,0 c 0.11255,-0.18217 0.27045,-0.33122 0.35077,-0.33122 0.0804,0 0.14607,0.14905 0.14607,0.33122 0,0.18217 -0.15786,0.33122 -0.35075,0.33122 -0.19295,0 -0.25867,-0.14905 -0.14609,-0.33122 z m -3.12048,-0.52444 c 0.0159,-0.38586 0.0944,-0.46434 0.20011,-0.20012 0.0956,0.23911 0.0839,0.52478 -0.0261,0.63486 -0.11009,0.11007 -0.18836,-0.0856 -0.17397,-0.43474 z m -25.36487,-0.13801 c -0.11254,-0.18217 -0.0469,-0.33122 0.14605,-0.33122 0.19293,0 0.35078,0.14905 0.35078,0.33122 0,0.18217 -0.0657,0.33123 -0.14606,0.33123 -0.0804,0 -0.23819,-0.14906 -0.35077,-0.33123 z m 37.75967,0 c -0.11256,-0.18217 -0.0469,-0.33122 0.14606,-0.33122 0.1929,0 0.35076,0.14905 0.35076,0.33122 0,0.18217 -0.0657,0.33123 -0.14606,0.33123 -0.0804,0 -0.23819,-0.14906 -0.35076,-0.33123 z m 12.42093,0 c 0,-0.18217 0.15786,-0.33122 0.35077,-0.33122 0.19294,0 0.25865,0.14905 0.14607,0.33122 -0.11255,0.18217 -0.27044,0.33123 -0.35078,0.33123 -0.0804,0 -0.14606,-0.14906 -0.14606,-0.33123 z m 9.63167,-0.19321 c 0.0159,-0.38586 0.0944,-0.46436 0.20012,-0.20012 0.0957,0.2391 0.0839,0.52478 -0.0261,0.63486 -0.11009,0.11008 -0.18836,-0.0856 -0.17399,-0.43474 z m -56.66563,-0.15756 c 0,-0.19294 0.14904,-0.25867 0.33121,-0.14606 0.18218,0.11254 0.33124,0.27043 0.33124,0.35078 0,0.0804 -0.14906,0.14605 -0.33124,0.14605 -0.18217,0 -0.33121,-0.15785 -0.33121,-0.35077 z m 12.58656,0.0194 c 0,-0.18217 0.14904,-0.33122 0.33122,-0.33122 0.18217,0 0.33121,0.14905 0.33121,0.33122 0,0.18217 -0.14904,0.33123 -0.33121,0.33123 -0.18218,0 -0.33122,-0.14906 -0.33122,-0.33123 z m 37.91165,-0.022 c -0.12006,-0.1943 -0.1473,-0.42431 -0.0604,-0.51112 0.0869,-0.0869 0.24614,0.0721 0.35403,0.35325 0.22396,0.58367 0.0332,0.68633 -0.29354,0.15787 z m 28.16775,0.022 c -0.11254,-0.18217 -0.0469,-0.33122 0.14606,-0.33122 0.19292,0 0.35078,0.14905 0.35078,0.33122 0,0.18217 -0.0657,0.33123 -0.14607,0.33123 -0.0804,0 -0.23819,-0.14906 -0.35077,-0.33123 z m -40.9063,-1.17884 c 0,-0.28401 0.14905,-0.42425 0.33122,-0.31168 0.18217,0.11256 0.33123,0.34498 0.33123,0.5164 0,0.17143 -0.14906,0.31167 -0.33123,0.31167 -0.18217,0 -0.33122,-0.23237 -0.33122,-0.51639 z m -25.1731,-0.1656 c 0,-0.19294 0.14904,-0.25865 0.33122,-0.14608 0.18217,0.11256 0.33121,0.27045 0.33121,0.35079 0,0.0804 -0.14904,0.14606 -0.33121,0.14606 -0.18218,0 -0.33122,-0.15785 -0.33122,-0.35077 z m 6.29326,-0.14608 c 0,-0.27325 0.14439,-0.49682 0.32083,-0.49682 0.17646,0 0.23505,0.22357 0.13018,0.49682 -0.10485,0.27328 -0.24922,0.49685 -0.32083,0.49685 -0.0715,0 -0.13018,-0.22357 -0.13018,-0.49685 z m 28.3339,0.18852 c -0.10475,-0.1696 -0.0641,-0.38662 0.091,-0.48228 0.15478,-0.0957 0.28143,0.043 0.28143,0.30834 0,0.55851 -0.1044,0.6073 -0.3723,0.17394 z m 9.45191,-0.21611 c 0.0159,-0.38585 0.0944,-0.46433 0.20012,-0.20013 0.0957,0.23912 0.0839,0.52479 -0.0261,0.63486 -0.11009,0.11008 -0.18836,-0.0856 -0.17399,-0.43473 z m -50.34621,-0.33123 c 0.0159,-0.38585 0.0944,-0.46435 0.20011,-0.20011 0.0957,0.23909 0.0839,0.52478 -0.0261,0.63486 -0.11009,0.11007 -0.18835,-0.0856 -0.17397,-0.43475 z m 2.98103,0 c 0.0159,-0.38585 0.0944,-0.46435 0.20011,-0.20011 0.0956,0.23909 0.0839,0.52478 -0.0261,0.63486 -0.11009,0.11007 -0.18837,-0.0856 -0.17397,-0.43475 z m 12.72601,0.19322 c 0.11255,-0.18217 0.27045,-0.33122 0.35078,-0.33122 0.0804,0 0.14607,0.14905 0.14607,0.33122 0,0.18217 -0.15785,0.33123 -0.35078,0.33123 -0.19293,0 -0.25866,-0.14906 -0.14607,-0.33123 z m 3.14664,0 c 0,-0.18217 0.14906,-0.33122 0.33123,-0.33122 0.18218,0 0.33122,0.14905 0.33122,0.33122 0,0.18217 -0.14904,0.33123 -0.33122,0.33123 -0.18217,0 -0.33123,-0.14906 -0.33123,-0.33123 z m 6.29329,-0.0194 c 0,-0.19293 0.14904,-0.25865 0.33121,-0.14606 0.18217,0.11255 0.33123,0.27044 0.33123,0.35078 0,0.0804 -0.14906,0.14606 -0.33123,0.14606 -0.18217,0 -0.33121,-0.15785 -0.33121,-0.35078 z m 9.4399,0.0194 c -0.11254,-0.18217 -0.0469,-0.33122 0.14607,-0.33122 0.19291,0 0.35078,0.14905 0.35078,0.33122 0,0.18217 -0.0658,0.33123 -0.14609,0.33123 -0.0804,0 -0.23818,-0.14906 -0.35076,-0.33123 z m 12.58656,0 c -0.11254,-0.18217 -0.0469,-0.33122 0.14606,-0.33122 0.19292,0 0.35078,0.14905 0.35078,0.33122 0,0.18217 -0.0657,0.33123 -0.14607,0.33123 -0.0804,0 -0.23819,-0.14906 -0.35077,-0.33123 z m 12.42094,-0.82808 c 0,-0.27326 0.0585,-0.49682 0.13017,-0.49682 0.0715,0 0.21596,0.22356 0.32083,0.49682 0.10496,0.27328 0.0463,0.49686 -0.13017,0.49686 -0.17645,0 -0.32083,-0.22358 -0.32083,-0.49686 z m 12.75217,-0.1656 c 0.11254,-0.18217 0.27044,-0.33122 0.35077,-0.33122 0.0804,0 0.14607,0.14905 0.14607,0.33122 0,0.18217 -0.15786,0.33122 -0.35078,0.33122 -0.19293,0 -0.25865,-0.14905 -0.14606,-0.33122 z m -25.17311,-0.33122 c 0.11254,-0.18218 0.27045,-0.33123 0.35077,-0.33123 0.0804,0 0.14607,0.14905 0.14607,0.33123 0,0.18217 -0.15786,0.33122 -0.35078,0.33122 -0.19293,0 -0.25864,-0.14905 -0.14606,-0.33122 z m 28.18958,-0.1927 c -0.28161,-0.73389 -0.25038,-1.1322 0.0887,-1.1322 0.15941,0 0.28981,0.37262 0.28981,0.82805 0,0.95923 -0.0973,1.03734 -0.37858,0.30415 z m -69.21158,-0.62476 c -0.10262,-0.26743 -0.061,-0.56385 0.0925,-0.65872 0.15352,-0.0949 0.35663,0.12392 0.45137,0.48624 0.19802,0.75719 -0.26335,0.90351 -0.54387,0.17248 z m -9.48982,-0.15667 c 0,-0.17142 0.12418,-0.38845 0.276,-0.48226 0.15182,-0.094 0.27603,0.0464 0.27603,0.31167 0,0.26523 -0.12418,0.48227 -0.27603,0.48227 -0.1518,0 -0.276,-0.14025 -0.276,-0.31168 z m 37.75965,-0.35077 c 0,-0.18217 0.14905,-0.33122 0.33123,-0.33122 0.18217,0 0.33123,0.14905 0.33123,0.33122 0,0.18217 -0.14906,0.33122 -0.33123,0.33122 -0.18218,0 -0.33123,-0.14905 -0.33123,-0.33122 z m 34.80479,-0.19321 c 0.0159,-0.38586 0.0944,-0.46434 0.20011,-0.20013 0.0957,0.23911 0.0839,0.52479 -0.0261,0.63485 -0.11008,0.11008 -0.18836,-0.0856 -0.17399,-0.43472 z m -53.47318,-0.30363 c -0.10495,-0.27325 -0.0463,-0.49684 0.13019,-0.49684 0.17645,0 0.32083,0.22359 0.32083,0.49684 0,0.27326 -0.0585,0.49684 -0.13018,0.49684 -0.0715,0 -0.21596,-0.22358 -0.32084,-0.49684 z m 6.08184,-0.16561 c 0,-0.18217 0.14906,-0.33123 0.33123,-0.33123 0.18217,0 0.33121,0.14906 0.33121,0.33123 0,0.18216 -0.14904,0.33123 -0.33121,0.33123 -0.18217,0 -0.33123,-0.14907 -0.33123,-0.33123 z M 277.7546,251.7911 c -0.26254,-0.68415 -0.25384,-0.80098 0.0597,-0.80098 0.1434,0 0.28318,0.29809 0.31064,0.66245 0.06,0.79622 -0.0956,0.85441 -0.37034,0.13853 z m 41.07785,0.25968 c -0.0897,-0.14533 -0.0264,-0.48069 0.14101,-0.74525 0.23757,-0.37557 0.3054,-0.31764 0.30936,0.26423 0.005,0.76613 -0.16307,0.94587 -0.45037,0.48102 z m 31.25938,-0.25216 c 0,-0.28401 0.14905,-0.42426 0.33122,-0.31168 0.18217,0.11256 0.33123,0.34498 0.33123,0.5164 0,0.17143 -0.14906,0.31167 -0.33123,0.31167 -0.18217,0 -0.33122,-0.23237 -0.33122,-0.51639 z m -91.19731,-0.0358 c -0.30629,-0.30628 -0.27744,-1.10408 0.0399,-1.10408 0.1434,0 0.28319,0.2981 0.31062,0.66245 0.0535,0.71183 -0.006,0.78653 -0.35055,0.44163 z m 34.55782,-0.44163 c 0,-0.36435 0.11705,-0.66245 0.26025,-0.66245 0.14312,0 0.26024,0.2981 0.26024,0.66245 0,0.36433 -0.11704,0.66246 -0.26024,0.66246 -0.14314,0 -0.26025,-0.29813 -0.26025,-0.66246 z m 22.21823,0.13802 c 0.0159,-0.38587 0.0944,-0.46436 0.20011,-0.20013 0.0957,0.23912 0.0839,0.52478 -0.0261,0.63486 -0.11008,0.11007 -0.18834,-0.0856 -0.17395,-0.43473 z m -15.92495,-0.30363 c 0,-0.27326 0.12418,-0.49684 0.276,-0.49684 0.15182,0 0.27603,0.22358 0.27603,0.49684 0,0.27325 -0.12418,0.49684 -0.27603,0.49684 -0.1518,0 -0.276,-0.22359 -0.276,-0.49684 z m -3.14664,-0.16562 c 0.11254,-0.18216 0.27042,-0.33122 0.35077,-0.33122 0.0804,0 0.14605,0.14906 0.14605,0.33122 0,0.18218 -0.15785,0.33123 -0.35077,0.33123 -0.19292,0 -0.25864,-0.14905 -0.14605,-0.33123 z m 56.63949,-0.66245 c -0.11255,-0.18218 -0.0469,-0.33122 0.14606,-0.33122 0.19291,0 0.35077,0.14904 0.35077,0.33122 0,0.18217 -0.0658,0.33123 -0.14606,0.33123 -0.0804,0 -0.2382,-0.14906 -0.35077,-0.33123 z m -37.92527,-0.31168 c 0,-0.17142 0.14904,-0.4038 0.33121,-0.51638 0.18218,-0.11255 0.33123,0.0277 0.33123,0.31167 0,0.28401 -0.14905,0.51639 -0.33123,0.51639 -0.18217,0 -0.33121,-0.14025 -0.33121,-0.31168 z m 3.31224,-0.18515 c 0,-0.27326 0.14905,-0.49685 0.33122,-0.49685 0.18217,0 0.33124,0.22359 0.33124,0.49685 0,0.27326 -0.14907,0.49683 -0.33124,0.49683 -0.18217,0 -0.33122,-0.22357 -0.33122,-0.49683 z m 18.90598,-0.0274 c 0.0159,-0.38587 0.0944,-0.46434 0.20012,-0.20013 0.0956,0.23911 0.0839,0.52479 -0.0261,0.63485 -0.11009,0.11008 -0.18836,-0.0856 -0.17399,-0.43472 z m -25.19925,-0.13803 c 0,-0.18217 0.14904,-0.33122 0.33123,-0.33122 0.18217,0 0.33121,0.14905 0.33121,0.33122 0,0.18219 -0.14904,0.33123 -0.33121,0.33123 -0.18219,0 -0.33123,-0.14904 -0.33123,-0.33123 z m -18.94193,-0.22626 c 0.23908,-0.0956 0.52478,-0.0839 0.63485,0.0262 0.11007,0.11008 -0.0856,0.18834 -0.43475,0.17397 -0.38586,-0.0159 -0.46434,-0.0944 -0.2001,-0.20011 z m 28.21623,-0.10495 c 0,-0.18217 0.14905,-0.33122 0.33122,-0.33122 0.18217,0 0.33123,0.14905 0.33123,0.33122 0,0.18218 -0.14906,0.33124 -0.33123,0.33124 -0.18217,0 -0.33122,-0.14906 -0.33122,-0.33124 z m 3.31225,-0.0194 c 0,-0.19293 0.14906,-0.25865 0.33123,-0.14606 0.18217,0.11255 0.33121,0.27043 0.33121,0.35078 0,0.0804 -0.14904,0.14605 -0.33121,0.14605 -0.18217,0 -0.33123,-0.15785 -0.33123,-0.35077 z m 3.19247,-0.14606 c -0.10485,-0.27327 -0.0463,-0.49684 0.13017,-0.49684 0.17647,0 0.32083,0.22357 0.32083,0.49684 0,0.27326 -0.0585,0.49683 -0.13016,0.49683 -0.0715,0 -0.21596,-0.22357 -0.32084,-0.49683 z m 6.4392,-0.0275 c 0.0159,-0.38586 0.0944,-0.46434 0.20012,-0.20011 0.0956,0.2391 0.0839,0.52478 -0.0261,0.63484 -0.11009,0.11008 -0.18835,-0.0856 -0.17398,-0.43473 z m 37.4023,0.0275 c 0,-0.27326 0.14905,-0.49683 0.33122,-0.49683 0.18217,0 0.33123,0.22357 0.33123,0.49683 0,0.27326 -0.14906,0.49684 -0.33123,0.49684 -0.18217,0 -0.33122,-0.22358 -0.33122,-0.49684 z m -110.13235,-0.16561 c -0.11255,-0.18217 -0.0469,-0.33122 0.14605,-0.33122 0.19294,0 0.35078,0.14905 0.35078,0.33122 0,0.18218 -0.0657,0.33122 -0.14605,0.33122 -0.0804,0 -0.2382,-0.14904 -0.35078,-0.33122 z m 22.02647,0 c 0,-0.18217 0.15785,-0.33122 0.35077,-0.33122 0.19293,0 0.25864,0.14905 0.14606,0.33122 -0.11255,0.18218 -0.27043,0.33122 -0.35078,0.33122 -0.0804,0 -0.14605,-0.14904 -0.14605,-0.33122 z m 12.94394,-0.19322 c 0.0159,-0.38586 0.0944,-0.46434 0.20009,-0.2001 0.0957,0.23909 0.0839,0.52478 -0.0261,0.63485 -0.11009,0.11007 -0.18835,-0.0856 -0.17397,-0.43475 z m 43.69555,0.19322 c 0,-0.18217 0.14905,-0.33122 0.33122,-0.33122 0.18217,0 0.33124,0.14905 0.33124,0.33122 0,0.18218 -0.14907,0.33122 -0.33124,0.33122 -0.18217,0 -0.33122,-0.14904 -0.33122,-0.33122 z m -24.81573,-0.52443 c 0.0159,-0.38587 0.0944,-0.46435 0.20011,-0.20013 0.0957,0.23911 0.0839,0.52479 -0.0261,0.63485 -0.11008,0.11007 -0.18834,-0.0856 -0.17395,-0.43472 z m -3.3384,-0.13802 c 0,-0.18218 0.14904,-0.33122 0.33123,-0.33122 0.18217,0 0.33121,0.14904 0.33121,0.33122 0,0.18217 -0.14904,0.33123 -0.33121,0.33123 -0.18219,0 -0.33123,-0.14906 -0.33123,-0.33123 z m 53.32724,-1.65612 c 0,-0.18219 0.14905,-0.33124 0.33122,-0.33124 0.18218,0 0.33123,0.14905 0.33123,0.33124 0,0.18217 -0.14905,0.33122 -0.33123,0.33122 -0.18217,0 -0.33122,-0.14905 -0.33122,-0.33122 z m -94.06793,30.96955 c 0,-0.27327 -0.14905,-0.49685 -0.33123,-0.49685 -0.18218,0 -0.33122,0.14906 -0.33122,0.33124 0,0.47673 -0.90716,0.4088 -1.10554,-0.0827 -0.0997,-0.24732 -0.17759,-0.18065 -0.19322,0.16561 -0.0192,0.42904 0.23204,0.57965 0.96754,0.57965 0.66244,0 0.99367,-0.16561 0.99367,-0.49684 z m 12.49686,0.29671 c -0.11008,-0.11008 -0.39577,-0.1218 -0.63485,-0.0262 -0.26424,0.10574 -0.18576,0.18422 0.20011,0.20012 0.34916,0.0144 0.54478,-0.0639 0.43474,-0.17397 z m -15.6934,-2.27346 c 0.10262,-0.26743 0.075,-0.5552 -0.0615,-0.63951 -0.1364,-0.0842 -0.26967,0.13451 -0.29618,0.48624 -0.0573,0.76067 0.099,0.82759 0.3576,0.15327 z m -3.2017,-0.56955 c -0.10574,-0.26423 -0.18422,-0.18575 -0.20011,0.20012 -0.0144,0.34916 0.0638,0.54478 0.17397,0.43473 0.11007,-0.11008 0.12179,-0.39575 0.0261,-0.63485 z M 74.408165,264.87987 c 3.316015,-1.25289 5.597531,-6.69311 5.96423,-14.22161 0.296582,-6.08868 -0.94539,-11.71875 -3.401305,-15.41873 -2.089429,-3.14788 -4.2322,-3.84626 -6.780002,-2.20978 -1.786437,1.14742 -3.530936,4.19848 -4.492627,7.85737 -0.847406,3.22408 -0.844965,11.27235 0.005,14.57389 1.202851,4.67554 3.231225,7.98915 5.663016,9.25134 1.17392,0.60928 1.784122,0.64289 3.04228,0.16752 z m -2.416557,-1.62834 c -0.726549,-0.29357 -1.222917,-1.12084 -0.878916,-1.46484 0.367063,-0.36707 2.274582,-0.20163 2.89352,0.25093 1.366948,0.99955 -0.203379,1.94575 -2.014604,1.21391 z m 4.687306,-2.96603 c -0.551438,-0.89226 0.903128,-4.32764 1.832358,-4.32764 0.450786,0 0.374284,1.51689 -0.138346,2.74324 -0.535501,1.28109 -1.388429,2.07884 -1.694012,1.5844 z m -8.725239,-1.68369 c -0.364883,-0.39166 -0.827026,-1.36182 -1.026987,-2.15591 -0.669578,-2.65915 -0.365309,-2.66355 0.792436,-0.0112 0.631358,1.44622 1.091672,2.68575 1.022944,2.7545 -0.06873,0.0686 -0.423521,-0.19549 -0.788393,-0.58712 z m 3.375631,0.19555 c -0.320568,-0.83537 0.01915,-2.00134 0.616234,-2.11514 0.475249,-0.0905 0.579643,0.1325 0.579643,1.2387 0,0.99075 -0.134752,1.34918 -0.507234,1.34918 -0.278981,0 -0.58887,-0.21273 -0.688643,-0.47274 z m 3.249477,-2.24329 c -0.551914,-0.55192 -0.497596,-2.08813 0.09113,-2.57671 0.402302,-0.33389 0.555945,-0.25763 0.870102,0.43186 0.382999,0.84059 0.178793,2.54232 -0.305081,2.54232 -0.142263,0 -0.437531,-0.17887 -0.656133,-0.39747 z m -6.345114,-0.56929 c -0.512154,-0.95695 -0.09602,-2.34549 0.702991,-2.34549 0.553078,0 0.630995,0.19801 0.543739,1.38195 -0.113671,1.54186 -0.696255,1.99212 -1.24673,0.96354 z m 2.34142,-1.47778 c -2.875369,-3.06068 -1.883321,-12.46059 1.315068,-12.46059 3.026006,0 4.201654,9.07474 1.603538,12.37769 -0.851938,1.08307 -1.949694,1.11426 -2.918606,0.083 z m -4.317027,-1.39216 c 0.0159,-0.38585 0.0944,-0.46434 0.200112,-0.20012 0.09565,0.23911 0.08388,0.5248 -0.02617,0.63485 -0.110046,0.11009 -0.188344,-0.0856 -0.17396,-0.43473 z m -0.305082,-2.12535 c 0,-0.45544 0.07511,-0.64175 0.167062,-0.41404 0.09189,0.22772 0.09189,0.60035 0,0.82806 -0.09189,0.22772 -0.167062,0.0414 -0.167062,-0.41402 z m 12.761971,0.44853 c -0.348547,-0.34856 -0.260791,-4.19181 0.108543,-4.75446 0.584914,-0.89102 1.001273,0.31143 0.90841,2.62341 -0.07836,1.95187 -0.439495,2.70853 -1.016986,2.13105 z m -3.078222,-1.57984 c -0.326564,-0.851 0.01252,-2.34657 0.531934,-2.34657 0.347721,0 0.527403,0.4225 0.598685,1.40771 0.08025,1.10822 -0.01,1.40771 -0.424424,1.40771 -0.289458,0 -0.607246,-0.21098 -0.706195,-0.46885 z m -8.924312,-0.63758 c -0.237544,-0.94643 0.373447,-2.30759 0.949621,-2.11553 0.215386,0.0719 0.391612,0.71226 0.391612,1.42329 0,1.55551 -0.995603,2.06937 -1.341233,0.69224 z m -0.454355,-5.71127 c 0.0159,-0.38588 0.0944,-0.46435 0.200112,-0.20013 0.09565,0.2391 0.08388,0.52478 -0.02617,0.63484 -0.110046,0.11009 -0.188344,-0.0856 -0.17396,-0.43471 z m 8.144069,0.30361 c -0.412769,-0.41277 -0.222972,-2.34609 0.270529,-2.75566 0.407624,-0.33828 0.548722,-0.25687 0.828065,0.47784 0.438144,1.15243 0.424748,1.61565 -0.06072,2.10117 -0.450275,0.45029 -0.718539,0.49593 -1.037829,0.17665 z m -6.372079,-0.91457 c -0.258499,-1.0299 0.103037,-2.17687 0.686041,-2.17687 0.248709,0 0.550222,0.30886 0.67004,0.68636 0.303079,0.95493 -0.08813,2.29467 -0.67004,2.29467 -0.266312,0 -0.575036,-0.36188 -0.686041,-0.80416 z m -1.444764,-0.54454 c -0.03756,-0.88193 0.990371,-3.55423 1.543687,-4.01318 0.428717,-0.35564 0.414221,-0.22399 -0.07987,0.72473 -0.332022,0.6376 -0.792249,1.75549 -1.022694,2.48418 -0.230458,0.72871 -0.42898,1.09062 -0.441174,0.80427 z m 10.58793,-1.27977 c -0.734587,-1.43992 -1.001463,-3.07688 -0.543464,-3.33357 0.538017,-0.30157 1.596315,1.55579 1.771365,3.10878 0.216198,1.91813 -0.314459,2.01527 -1.227901,0.22479 z m -5.745216,-0.23525 c -0.125249,-0.12524 -0.227715,-0.81001 -0.227715,-1.52169 0,-1.05408 0.107408,-1.2733 0.579643,-1.18236 0.433962,0.0836 0.579643,0.43653 0.579643,1.40439 0,1.2183 -0.422922,1.80832 -0.931571,1.29966 z m -0.193176,-5.05731 c -0.650486,-0.41191 -0.216311,-1.30056 0.829742,-1.69827 0.683986,-0.26004 1.070165,-0.21127 1.725146,0.21788 l 0.843888,0.55294 -0.759674,0.61514 c -0.81407,0.6592 -1.890143,0.78654 -2.639102,0.31231 z m -28.817291,23.39471 c 2.660158,-1.78776 4.25228,-6.30458 4.520232,-12.82389 0.317587,-7.72685 -2.117059,-15.05274 -5.467813,-16.45279 -1.442486,-0.6027 -2.392407,-0.38438 -3.833703,0.8811 -2.382292,2.09168 -3.849439,7.13915 -3.858652,13.2751 -0.01126,7.51318 1.780003,12.99641 4.941786,15.12713 1.405668,0.94728 2.281028,0.94571 3.69815,-0.006 z m -3.34258,-1.39239 c -0.58042,-0.69936 -0.166725,-1.49475 0.777477,-1.49475 0.997706,0 2.390717,1.07966 2.067582,1.6025 -0.340997,0.55175 -2.361223,0.47523 -2.845059,-0.10774 z m 4.63365,-3.1615 c 0,-1.38936 0.853504,-3.30162 1.473607,-3.30162 0.701276,0 0.644854,1.16963 -0.139784,2.89823 -0.748133,1.64815 -1.333823,1.82528 -1.333823,0.40339 z m -7.212499,-0.31857 c -0.956506,-1.21216 -1.985898,-5.20756 -2.19754,-8.52947 l -0.163658,-2.56859 0.320468,1.98736 c 0.671293,4.16288 1.35846,6.68399 2.279563,8.36343 1.04544,1.90612 0.938843,2.23967 -0.238833,0.74727 z m 2.623041,-0.24414 c -0.409251,-0.76469 -0.122435,-2.15571 0.408511,-1.98164 0.486328,0.1594 0.682922,1.87958 0.262831,2.29967 -0.214433,0.21444 -0.444779,0.1053 -0.671342,-0.31803 z m 2.579687,-2.44957 c -0.282311,-0.52751 -0.281259,-0.9144 0.0037,-1.54091 0.568413,-1.24755 1.151973,-0.41481 1.051134,1.5 -0.04945,0.93987 -0.563568,0.95979 -1.055342,0.041 z m -5.04946,0.15919 c -0.365184,-0.36517 -0.262281,-2.04419 0.140535,-2.29315 0.500561,-0.30935 0.981694,0.50706 0.876837,1.48785 -0.087,0.81361 -0.601675,1.22101 -1.017372,0.8053 z m 2.204086,-1.26768 c -1.829826,-1.28166 -2.50788,-6.87248 -1.192735,-9.83453 0.889545,-2.00351 1.716157,-2.47466 2.819271,-1.60695 2.28884,1.80041 2.22189,10.36431 -0.09076,11.60197 -0.770442,0.41232 -0.708849,0.41876 -1.535838,-0.16049 z m 6.737602,-3.03962 c -0.342851,-0.34286 -0.270918,-4.3552 0.08199,-4.57331 0.516148,-0.31901 0.779969,0.48207 0.779969,2.36828 0,1.71748 -0.37928,2.68772 -0.861979,2.20503 z m -2.655313,-1.33041 c -0.443002,-0.44301 -0.235566,-2.42899 0.253704,-2.42899 0.587555,0 0.966484,1.09974 0.684763,1.98735 -0.215159,0.67791 -0.546343,0.83375 -0.938467,0.44164 z m -7.719496,-0.608 c -0.283036,-0.73757 0.174311,-2.21958 0.637968,-2.06734 0.221005,0.0726 0.448083,0.67936 0.504617,1.34842 0.07899,0.93474 -0.01928,1.21651 -0.424423,1.21651 -0.289971,0 -0.613155,-0.22391 -0.718162,-0.49759 z m -0.705107,-3.80834 c 0,-0.63761 0.06823,-0.89845 0.151478,-0.57965 0.08338,0.31882 0.08338,0.84049 0,1.15929 -0.08325,0.31881 -0.151478,0.058 -0.151478,-0.57964 z m 0.276176,-1.84444 c -0.03605,-1.13498 0.936341,-4.00702 1.520953,-4.49195 0.504418,-0.41842 0.503942,-0.37049 -0.0062,0.61618 -0.304232,0.58844 -0.764608,1.85539 -1.023058,2.81542 -0.258474,0.96002 -0.479744,1.43718 -0.491736,1.06035 z m 1.687352,0.10875 c -0.741485,-0.74148 -0.227377,-2.9219 0.572394,-2.4276 0.428318,0.2647 0.500675,2.38613 0.09001,2.6399 -0.153017,0.0945 -0.451113,-9.8e-4 -0.662455,-0.2123 z m 5.275236,-0.19821 c -0.405381,-0.75746 -0.100656,-2.04089 0.484488,-2.04089 0.554606,0 0.920103,1.12418 0.646144,1.98735 -0.262406,0.82679 -0.70557,0.84777 -1.130632,0.0535 z m 2.503937,-1.9581 c -0.676075,-1.32303 -0.972543,-2.96534 -0.57918,-3.20846 0.497307,-0.30734 1.39261,1.2513 1.597892,2.78182 0.211505,1.57685 -0.317712,1.79848 -1.018712,0.42664 z m -5.183061,-0.9126 c -0.224022,-0.58923 -0.218452,-1.07933 0.01728,-1.51973 0.485501,-0.90714 0.977113,-0.47494 0.977113,0.85901 0,1.42246 -0.562592,1.79628 -0.99434,0.66072 z m -0.221043,-4.33093 c -0.399085,-1.04 1.417184,-1.85286 2.540291,-1.1369 0.76477,0.48754 -0.02366,1.47411 -1.277776,1.59883 -0.745653,0.0741 -1.107621,-0.0583 -1.262515,-0.46193 z M 160.49784,252.5627 c 0.36785,-6.80578 0.23252,-27.95929 -0.18342,-28.67233 -0.22298,-0.38224 -0.32883,-0.41687 -0.33574,-0.10976 -0.009,0.36551 -0.88329,0.41056 -4.73003,0.24358 -14.59378,-0.63347 -21.70253,-0.91423 -38.17369,-1.50758 -10.01956,-0.36094 -19.596094,-0.74398 -21.281215,-0.85121 l -3.063834,-0.19496 v 2.66977 c 0,1.46839 0.05625,2.66981 0.124934,2.66981 0.06873,0 3.906795,0.29992 8.529045,0.66651 15.44257,1.22473 47.11263,3.61822 50.88371,3.84557 l 3.72629,0.22466 v 9.66613 c 0,5.31638 -0.0727,9.73887 -0.16159,9.82773 -0.0889,0.0889 -5.11935,-0.39617 -11.17885,-1.07785 -6.05949,-0.68169 -20.10939,-2.22908 -31.222,-3.43865 -11.11259,-1.20956 -20.472642,-2.27702 -20.800126,-2.37213 -0.538122,-0.15628 -0.585908,0.0442 -0.496835,2.0845 l 0.09857,2.25741 2.981019,0.42776 c 1.639571,0.23528 11.775052,1.62834 22.523312,3.0957 10.74825,1.46736 24.23738,3.31356 29.97586,4.10266 5.73848,0.78911 10.90114,1.44805 11.47258,1.46433 l 1.03897,0.0296 0.27301,-5.05118 z m 139.55921,-9.10868 c -0.0112,-0.86533 -0.20163,-4.89 -0.42388,-8.94372 -0.50877,-9.28034 -0.0854,-8.66513 -6.22988,-9.0526 -4.94643,-0.31192 -23.32524,-0.97036 -27.01694,-0.96791 -2.07261,0.001 -2.43818,0.0921 -2.75472,0.68353 -0.25722,0.48067 -0.29516,3.35687 -0.12854,9.74428 l 0.23644,9.06233 2.02143,0.24129 c 4.88398,0.58297 8.44339,0.71145 20.98406,0.75733 l 13.33181,0.0489 -0.0197,-1.57332 z m 76.46648,-2.20425 c 1.87635,-0.24803 3.48125,-0.52063 3.56639,-0.60578 0.0851,-0.0851 0.0535,-4.21353 -0.0701,-9.17418 l -0.22497,-9.0194 -1.18844,0.20866 c -1.82776,0.32088 -4.24713,1.16157 -4.61359,1.60316 -0.26867,0.32373 -1.70886,14.48111 -1.70886,16.7984 0,0.77046 -0.1183,0.76519 4.23961,0.18914 z M 86.767858,231.53651 c 0,-0.21805 -5.497768,-21.2589 -5.79072,-22.162 -0.06935,-0.21398 -1.2445,-0.4694 -2.713863,-0.5899 -3.06002,-0.25091 -43.579883,-2.17935 -45.792334,-2.17935 h -1.520176 l -2.926318,11.94838 c -1.609473,6.5716 -2.84138,12.03331 -2.737562,12.13712 0.257737,0.25776 0.252691,0.27507 2.481766,-8.51791 2.772639,-10.9372 3.363962,-13.03139 3.799414,-13.45557 0.282912,-0.27561 5.066511,-0.13056 18.433813,0.55895 9.928472,0.51211 20.41282,1.03756 23.29854,1.16765 4.892264,0.22053 5.267688,0.28348 5.556308,0.93156 0.17023,0.38228 1.573281,4.943 3.117869,10.13496 1.751284,5.8867 3.018744,9.59574 3.367279,9.85395 0.614107,0.4549 1.425984,0.55293 1.425984,0.17216 z m 9.00895,-0.6418 c 4.315312,-0.35205 6.780752,-0.68105 6.652982,-0.8878 -0.11805,-0.19101 0.0187,-0.2434 0.32675,-0.12518 0.29138,0.11179 0.58958,0.0253 0.66267,-0.19212 0.0958,-0.28518 -1.53747,-0.53397 -5.857852,-0.89227 l -5.990735,-0.49684 -0.294826,-3.74612 c -0.199441,-2.53416 -0.183398,-3.85754 0.04959,-4.09053 0.343673,-0.34369 7.26743,-0.41608 12.334943,-0.12898 1.51104,0.0856 1.96518,0.0515 1.15931,-0.0871 -1.31668,-0.22645 -1.32439,-0.23648 -1.24072,-1.61515 0.0475,-0.78274 -0.0831,-1.49067 -0.29958,-1.62449 -0.25446,-0.15727 -0.2935,-0.0912 -0.1158,0.19636 0.18841,0.30485 0.13952,0.35421 -0.1646,0.16625 -0.33777,-0.20876 -0.2988,-0.36519 0.17774,-0.71364 0.44938,-0.32859 0.48444,-0.44761 0.13297,-0.45134 -0.28354,-0.002 -0.34286,-0.10398 -0.14611,-0.24844 0.45308,-0.33286 0.57803,-1.06313 0.29094,-1.70046 -0.13136,-0.29162 -0.25542,-0.84853 -0.27568,-1.23758 -0.0203,-0.38906 -0.25557,-0.9766 -0.52289,-1.30568 -0.29129,-0.35857 -0.32014,-0.49865 -0.0721,-0.34956 0.77769,0.46721 0.6146,-3.07759 -0.16942,-3.68226 -0.44331,-0.34188 -0.0495,-0.42303 2.25905,-0.46565 2.09848,-0.0388 1.55655,-0.11217 -2.17246,-0.29417 -9.266356,-0.45239 -35.741165,-1.03676 -41.899972,-0.92485 l -6.127656,0.1114 12.586551,0.62304 c 6.922603,0.34267 13.108227,0.72142 13.745832,0.84165 l 1.159299,0.21862 1.558445,5.78286 c 0.857145,3.18056 2.264203,8.50302 3.126769,11.8277 0.862579,3.32467 1.72631,6.04641 1.919412,6.04829 0.193097,0.002 3.436284,-0.24826 7.207072,-0.55587 z m 7.000262,-16.15986 c 0,-0.26524 0.12665,-0.404 0.28143,-0.30834 0.15479,0.0957 0.19567,0.31269 0.0909,0.48228 -0.26784,0.43336 -0.37228,0.38457 -0.37228,-0.17394 z m 2.20818,15.25723 c 0,-0.0715 -0.23132,-0.21894 -0.51405,-0.32744 -0.29476,-0.11317 -0.42772,-0.0575 -0.31169,0.13019 0.19454,0.31471 0.82574,0.46549 0.82574,0.19725 z M 57.842794,201.92659 c 18.185959,0.2065 44.407866,0.47347 58.270916,0.59329 l 25.20553,0.21784 0.22995,-24.48143 c 0.12649,-13.46478 0.36868,-36.77816 0.53821,-51.8075 l 0.30826,-27.326071 1.27249,-1.159292 c 0.69987,-0.637613 5.5481,-5.017149 10.77384,-9.732297 9.90587,-8.938039 9.76008,-8.764604 9.3001,-11.064559 l -0.20124,-1.00617 -6.6717,2.31936 c -3.66941,1.275648 -9.56201,3.312098 -13.09463,4.525427 l -6.42297,2.206077 -4.28811,14.905125 c -2.35846,8.19782 -4.75945,16.39322 -5.33553,18.212 l -1.04741,3.30686 -15.07076,1.88786 c -18.88405,2.36556 -67.341434,8.38914 -74.194407,9.22287 -2.823703,0.34352 -9.886503,1.22845 -15.695139,1.96647 -5.808621,0.73803 -10.629289,1.34186 -10.712588,1.34186 -0.14105,0 -0.05608,8.77606 0.440771,45.5324 l 0.196858,14.56285 4.142264,4.3931 4.142264,4.39311 2.423831,-1.69231 2.423816,-1.69231 z M 16.455687,175.13888 c -0.130796,-7.0137 -0.238031,-16.42523 -0.238293,-20.91454 -5.27e-4,-9.05056 -0.129307,-8.56293 2.262387,-8.56609 0.66825,-0.001 5.313919,-0.44963 10.323695,-0.99721 5.009776,-0.54757 10.673732,-1.14833 12.586558,-1.335 15.61746,-1.5242 44.069252,-4.3798 47.696404,-4.7871 2.459346,-0.27618 6.781825,-0.71985 9.605523,-0.98594 2.823699,-0.2661 10.304099,-1.01025 16.623099,-1.65369 6.31899,-0.64345 11.72211,-1.16989 12.0069,-1.16989 0.38004,0 0.51781,0.33969 0.51781,1.27669 v 1.27673 l -3.39505,0.38384 c -9.34073,1.05605 -10.64511,1.09124 -14.12939,0.3812 -4.29681,-0.87564 -4.33641,-0.87291 -4.33641,0.2987 0,1.1514 -0.0944,1.17916 -5.70143,1.67656 -3.650381,0.32381 -4.087733,0.29499 -7.399136,-0.48744 -1.935686,-0.45737 -3.580736,-0.83157 -3.655669,-0.83157 -0.07496,0 -0.136247,0.51162 -0.136247,1.13696 0,1.38886 0.07923,1.36203 -5.48929,1.85831 -3.996585,0.3562 -4.59314,0.33225 -7.747111,-0.31101 -1.879403,-0.3833 -3.470873,-0.69692 -3.536584,-0.69692 -0.06572,0 -0.119554,0.44716 -0.119554,0.99368 0,0.54651 -0.03731,1.00113 -0.08274,1.01027 -0.04557,0.009 -2.088827,0.22253 -4.540636,0.47425 -4.137183,0.42475 -4.708963,0.41201 -7.949404,-0.17718 -1.920355,-0.34916 -3.603348,-0.6371 -3.739978,-0.63987 -0.136631,-0.002 -0.248423,0.44213 -0.248423,0.98864 0,0.72004 -0.159625,0.99766 -0.579643,1.00814 -0.318802,0.007 -2.368258,0.21578 -4.554344,0.46181 -3.653658,0.41122 -4.236506,0.39669 -7.215891,-0.18006 -4.218354,-0.81659 -4.211382,-0.81713 -4.211382,0.32347 0,0.91395 -0.07399,0.95853 -1.904539,1.14778 -5.577563,0.57662 -7.317894,0.59051 -10.43003,0.0833 -4.108951,-0.66974 -3.895457,-0.69537 -3.895457,0.46788 0,0.981 -0.02266,0.99367 -1.782819,0.99367 H 19.27578 l -0.199862,2.40139 c -0.109911,1.32075 -0.277965,4.04094 -0.373432,6.04484 -0.466612,9.79422 -0.873271,16.94107 -0.98947,17.38934 -0.07086,0.27325 -0.231784,2.58355 -0.357685,5.13397 -0.486253,9.85071 -0.663858,9.1641 -0.899635,-3.47786 z M 310.94336,150.74262 c 0.10127,-0.71074 -1.74291,-31.67078 -2.18699,-36.71477 l -0.23329,-2.6498 -2.64981,-0.22761 c -2.88542,-0.24785 -17.89629,-1.06072 -29.47903,-1.59637 -9.82902,-0.45454 -31.65668,-1.53768 -43.22488,-2.14493 -13.85881,-0.72749 -15.14258,-0.73836 -15.74767,-0.13327 -0.45767,0.45766 -0.46982,2.72457 -0.11718,21.8487 0.21644,11.73592 0.45866,21.41257 0.5383,21.50365 0.13157,0.15052 74.60055,0.82807 91.01143,0.82807 1.78261,0 1.99783,-0.0735 2.08905,-0.71367 z m -99.62281,-22.14087 c -0.22016,-11.29478 -0.5098,-20.65084 -0.64365,-20.79125 -0.24143,-0.25331 -13.25927,0.95237 -13.56306,1.25616 -0.0871,0.0871 1.95533,0.15842 4.5388,0.15842 h 4.69722 l 1.23346,1.13038 c 1.20101,1.10065 1.23668,1.20107 1.35545,3.81678 0.17008,3.74512 -0.11442,4.92078 -1.50925,6.23625 l -1.17278,1.10608 0.68833,0.73271 c 0.3786,0.40297 0.9563,1.32687 1.28379,2.05307 0.53351,1.18302 0.60268,2.57695 0.66488,13.39968 l 0.0695,12.0793 1.25547,0.35615 c 1.1468,0.32531 1.26616,0.29754 1.37884,-0.32082 0.0679,-0.37232 -0.0568,-9.91813 -0.27693,-21.21291 z m -25.84759,7.46887 c 0,-9.67414 0.22259,-11.31343 1.82044,-13.40674 l 1.09681,-1.43688 -0.80749,-0.43216 c -1.54661,-0.82771 -2.10976,-2.26294 -2.10976,-5.37682 0,-2.98687 0.2536,-4.08065 1.15519,-4.98225 0.30153,-0.30153 0.4258,-0.54315 0.27616,-0.53694 -0.14965,0.006 -3.02011,0.28519 -6.37884,0.61996 -5.33564,0.53181 -6.17632,0.69455 -6.65743,1.28871 -0.62871,0.7764 -0.70529,1.46606 -1.62575,14.64129 -0.36273,5.19194 -0.74177,10.35974 -0.84231,11.48399 -0.28361,3.17117 0.0204,3.38297 7.28285,5.07265 3.27913,0.76291 6.02416,1.44868 6.10007,1.52394 0.57099,0.56601 0.69006,-0.89338 0.69006,-8.45875 z m 7.8592,-25.43115 c -0.68722,-0.0717 -1.73057,-0.0705 -2.31858,0.002 -0.588,0.0731 -0.0258,0.13183 1.24949,0.13036 1.2752,-10e-4 1.7563,-0.0613 1.06909,-0.13303 z M 167.53912,99.331603 c 2.67357,-2.105261 6.92951,-3.69 12.12354,-4.514325 3.587,-0.569271 19.12895,-1.986076 27.67116,-2.522514 7.57374,-0.475611 16.85399,0.01814 54.34937,2.891764 l 7.48104,0.573325 4.60868,-2.424347 c 7.22679,-3.801568 7.09287,-3.695375 7.09287,-5.624664 0,-0.897828 -0.13498,-1.715841 -0.29993,-1.817793 -0.16498,-0.101903 -6.53692,-0.708911 -14.15988,-1.348795 -18.68986,-1.568862 -30.82693,-2.598365 -46.81684,-3.971145 -7.37803,-0.633424 -20.56908,-1.748205 -29.31341,-2.477297 -8.74435,-0.729081 -17.94952,-1.49942 -20.45595,-1.711851 -2.50641,-0.212431 -4.62204,-0.321306 -4.70138,-0.241962 -0.0793,0.07937 -0.0265,1.011802 0.11729,2.072114 l 0.26162,1.927849 -10.3575,9.322199 c -5.69664,5.127194 -10.30873,9.370983 -10.24908,9.430632 0.14178,0.141767 16.60673,1.285167 19.33612,1.342787 1.85259,0.0391 2.25017,-0.0696 3.31225,-0.905977 z"
       id="path6480" /></g><metadata
     id="metadata182"><rdf:RDF><cc:Work
         rdf:about=""><cc:license
           rdf:resource="http://creativecommons.org/licenses/by-sa/4.0/" /><dc:creator><cc:Agent><dc:title>Jameela P</dc:title></cc:Agent></dc:creator><dc:publisher><cc:Agent><dc:title>OpenDataKerala.org</dc:title></cc:Agent></dc:publisher><dc:date>April 2026</dc:date><dc:title>Election Symbols of Kerala</dc:title></cc:Work><cc:License
         rdf:about="http://creativecommons.org/licenses/by-sa/4.0/"><cc:permits
           rdf:resource="http://creativecommons.org/ns#Reproduction" /><cc:permits
           rdf:resource="http://creativecommons.org/ns#Distribution" /><cc:requires
           rdf:resource="http://creativecommons.org/ns#Notice" /><cc:requires
           rdf:resource="http://creativecommons.org/ns#Attribution" /><cc:permits
           rdf:resource="http://creativecommons.org/ns#DerivativeWorks" /><cc:requires
           rdf:resource="http://creativecommons.org/ns#ShareAlike" /></cc:License></rdf:RDF></metadata></svg>
