<?xml version="1.0" encoding="UTF-8" standalone="no"?>
<!-- Created with Inkscape (http://www.inkscape.org/) -->

<svg
   width="1500"
   height="1500"
   viewBox="0 0 396.87499 396.875"
   version="1.1"
   id="svg5"
   xml:space="preserve"
   inkscape:version="1.3 (0e150ed6c4, 2023-07-21)"
   sodipodi:docname="TV Remote.svg"
   inkscape:export-filename="Telephone.png"
   inkscape:export-xdpi="96"
   inkscape:export-ydpi="96"
   xmlns:inkscape="http://www.inkscape.org/namespaces/inkscape"
   xmlns:sodipodi="http://sodipodi.sourceforge.net/DTD/sodipodi-0.dtd"
   xmlns="http://www.w3.org/2000/svg"
   xmlns:svg="http://www.w3.org/2000/svg"
   xmlns:rdf="http://www.w3.org/1999/02/22-rdf-syntax-ns#"
   xmlns:cc="http://creativecommons.org/ns#"
   xmlns:dc="http://purl.org/dc/elements/1.1/"><title
     id="title186">Election Symbols of Kerala</title><sodipodi:namedview
     id="namedview7"
     pagecolor="#ffffff"
     bordercolor="#000000"
     borderopacity="0.25"
     inkscape:showpageshadow="2"
     inkscape:pageopacity="0.0"
     inkscape:pagecheckerboard="0"
     inkscape:deskcolor="#d1d1d1"
     inkscape:document-units="mm"
     showgrid="false"
     inkscape:zoom="0.25"
     inkscape:cx="230"
     inkscape:cy="1082"
     inkscape:window-width="1920"
     inkscape:window-height="991"
     inkscape:window-x="-9"
     inkscape:window-y="-9"
     inkscape:window-maximized="1"
     inkscape:current-layer="layer1" /><defs
     id="defs2"><inkscape:path-effect
       effect="bspline"
       id="path-effect3248"
       is_visible="true"
       lpeversion="1"
       weight="33.333333"
       steps="2"
       helper_size="0"
       apply_no_weight="true"
       apply_with_weight="true"
       only_selected="false" /><inkscape:path-effect
       effect="bspline"
       id="path-effect577"
       is_visible="true"
       lpeversion="1"
       weight="33.333333"
       steps="2"
       helper_size="0"
       apply_no_weight="true"
       apply_with_weight="true"
       only_selected="false" /></defs><g
     inkscape:label="Layer 1"
     inkscape:groupmode="layer"
     id="layer1"><path
       style="fill:#000000;stroke-width:1.56611"
       d="M 111.25352,390.37681 C 96.91861,388.56103 75.299262,380.28093 57.639672,369.84298 40.888224,359.9418 25.045605,345.12804 21.473225,336.02526 c -1.275567,-3.25023 -3.909971,-19.72273 -3.588761,-22.43977 0.5555,-4.69866 1.048433,-5.61553 11.630684,-21.6331 7.791972,-11.7941 14.89913,-22.18933 21.247522,-31.07752 1.139456,-1.59532 3.324324,-4.67199 4.855277,-6.83706 13.315461,-18.83073 26.39624,-36.59594 44.268039,-60.12111 9.555504,-12.57818 33.060124,-42.26338 45.448594,-57.39937 3.38176,-4.13178 11.45327,-14.09805 18.7546,-23.15718 3.48994,-4.33013 9.59112,-11.50905 13.5582,-15.953124 3.96709,-4.444093 10.21438,-11.623011 13.88287,-15.953138 3.66848,-4.330144 9.63314,-11.055922 13.2548,-14.946192 3.62165,-3.890269 9.56304,-10.32331 13.20308,-14.295659 7.57853,-8.270388 14.4726,-15.450339 27.09296,-28.216392 7.94714,-8.038885 9.17175,-9.114131 11.71543,-10.286585 1.56233,-0.720129 4.00749,-1.478081 5.43367,-1.684353 5.88769,-0.851511 18.17705,-0.17293 27.24789,1.504564 7.48068,1.383425 24.18702,5.746143 31.90628,8.332061 19.23029,6.442061 36.21551,14.275989 46.82348,21.595934 3.46297,2.38959 8.93937,7.013896 11.1624,9.425599 2.14077,2.322451 4.03701,6.233518 4.38751,9.049357 0.14502,1.16503 0.0763,5.983957 -0.1527,10.708698 l -0.41639,8.59047 -1.38019,2.597444 c -2.12673,4.002419 -22.99223,33.510136 -39.48817,55.843626 -16.06325,21.74773 -22.98153,30.64578 -29.47877,37.91461 -10.88673,12.17962 -13.73327,15.66801 -18.80226,23.04191 -5.87502,8.54643 -8.90139,12.6428 -13.28378,17.98044 -1.49693,1.82321 -5.49774,6.76454 -8.89071,10.98073 -3.39296,4.21618 -7.31023,9.06428 -8.70506,10.77354 -1.39482,1.70927 -5.19741,6.42734 -8.45017,10.48462 -3.25279,4.05728 -8.83416,10.89644 -12.40306,15.19815 -3.56891,4.3017 -9.09943,11.03216 -12.29005,14.95659 -5.46849,6.72615 -20.25533,24.30465 -28.56537,33.95832 -2.06541,2.39936 -5.0901,5.94219 -6.72155,7.87299 -7.1279,8.4357 -12.44057,14.51345 -19.41306,22.20872 -4.10417,4.52962 -10.06811,11.21911 -13.25322,14.86554 -10.44968,11.96317 -17.35464,18.21801 -27.71881,25.109 -6.25757,4.16058 -9.7267,5.36776 -15.99995,5.56764 -2.39296,0.0763 -5.58389,-0.0175 -7.09093,-0.20845 z m 9.23708,-16.42487 c 3.73145,-0.8487 8.05544,-2.62926 10.54561,-4.34254 1.06937,-0.73575 3.98979,-3.31264 6.48984,-5.72643 7.7365,-7.46957 36.046,-37.63148 50.99297,-54.32964 3.15725,-3.52716 7.17312,-7.99797 8.92416,-9.93513 4.68833,-5.1867 14.97918,-16.85769 16.41291,-18.61412 1.73913,-2.13057 7.27869,-8.54712 17.19669,-19.91922 4.67224,-5.35723 9.90138,-11.41862 11.6203,-13.46974 1.71893,-2.05112 8.60826,-10.25559 15.30962,-18.23216 13.9052,-16.55122 23.22637,-27.92231 36.00475,-43.92292 4.91418,-6.15335 13.70525,-17.06157 19.53571,-24.24047 12.88067,-15.85963 17.26116,-21.36694 22.57664,-28.38416 2.24424,-2.96272 6.42062,-8.46344 9.28083,-12.22383 2.8602,-3.76038 7.34837,-9.66097 9.9737,-13.11243 4.67776,-6.1497 8.56017,-11.385043 18.47724,-24.916142 7.18442,-9.802594 7.63933,-10.474049 7.60331,-11.222776 -0.0273,-0.565538 -0.0716,-0.575342 -0.26374,-0.05842 -0.12701,0.341851 -1.19637,1.833573 -2.37626,3.314927 -3.456,4.339039 -7.11632,9.189179 -13.60311,18.02498 -7.16463,9.759111 -23.10158,30.737981 -31.72432,41.760871 -2.35644,3.01234 -4.78048,6.13014 -5.38679,6.92845 -2.09535,2.75892 -17.79138,22.21629 -23.271,28.84758 -3.06064,3.70391 -10.4415,12.91546 -14.08848,17.58289 -5.19074,6.64313 -16.89854,20.84258 -35.68446,43.27885 -6.71058,8.01453 -17.95054,21.16317 -27.4518,32.11344 -3.85602,4.44409 -9.17281,10.59744 -11.81511,13.67412 -2.64231,3.07667 -6.95081,8.00878 -9.57447,10.96024 -2.62365,2.95145 -6.25151,7.0537 -8.06191,9.11608 -6.20716,7.0711 -13.697,15.3569 -19.68302,21.77477 -3.29479,3.53247 -6.93196,7.45106 -8.08261,8.70794 -6.47631,7.07429 -22.08112,23.54917 -28.18321,29.75463 -9.96429,10.13312 -14.95956,13.65947 -21.86856,15.43787 -4.53606,1.16758 -13.02221,0.97494 -18.96062,-0.43043 -14.18649,-3.35735 -28.752351,-9.07409 -42.454736,-16.66242 -12.495758,-6.9201 -26.18032,-17.91132 -33.703328,-27.06996 -3.360344,-4.09094 -3.614415,-4.363 -3.053418,-3.26965 1.246547,2.42941 5.841708,7.90622 10.05491,11.98409 12.266307,11.87227 27.829187,21.66497 46.57356,29.30564 8.586429,3.50006 19.661802,6.77524 26.726672,7.90354 2.96591,0.47369 12.25992,0.2329 14.99153,-0.3884 z m 1.49183,-11.98437 c 0.30071,0.11542 1.79615,-0.42077 3.3232,-1.19147 2.42823,-1.22553 4.10548,-2.771 13.37309,-12.32229 13.47444,-13.88691 29.29672,-30.79168 38.50588,-41.1403 1.02555,-1.15245 5.31426,-5.92806 9.53043,-10.61248 4.2162,-4.68441 10.64892,-11.95789 14.29496,-16.16331 3.64603,-4.20541 8.59441,-9.88379 10.99638,-12.61862 4.22663,-4.81231 15.25919,-17.63373 18.21722,-21.171 0.79765,-0.95385 7.04424,-8.23651 13.88129,-16.1837 6.83707,-7.94717 15.61475,-18.27011 19.50598,-22.93983 32.39694,-38.8785 52.35221,-63.45597 76.0318,-93.64286 9.26084,-11.80579 31.89938,-41.998745 34.07216,-45.441967 0.59913,-0.949425 1.26908,-1.837332 1.48879,-1.973114 0.21971,-0.135782 0.70889,-1.178468 1.08707,-2.317063 0.41491,-1.249178 0.8637,-1.961352 1.13163,-1.795766 0.27683,0.171097 0.32191,0.0769 0.11965,-0.250297 -0.17836,-0.288587 -0.12278,-0.64931 0.12372,-0.801583 0.24638,-0.152226 0.5464,-1.110373 0.66671,-2.129098 0.16502,-1.397442 0.13688,-1.546802 -0.11432,-0.608309 -0.18321,0.68414 -1.07722,2.362339 -1.98673,3.729304 -0.9095,1.36695 -1.92146,2.889242 -2.24878,3.382865 -1.15262,1.738181 -10.28119,13.668322 -14.53219,18.992148 -2.36569,2.962724 -6.14838,7.810812 -8.40598,10.773536 -2.2576,2.962724 -5.33289,6.864124 -6.83398,8.669794 -1.5011,1.80566 -3.1022,3.79198 -3.558,4.41401 -1.5133,2.06523 -12.14185,15.42473 -16.67119,20.9548 -2.45384,2.99599 -7.8179,9.58417 -11.92015,14.64039 -9.92133,12.2286 -12.50622,15.40524 -15.39095,18.91449 -4.06763,4.94822 -14.68867,17.61403 -16.98282,20.25237 -1.18903,1.3674 -3.96897,4.63054 -6.17764,7.25141 -2.20869,2.62087 -4.97346,5.87156 -6.14392,7.22372 -1.17048,1.35218 -2.49485,2.93714 -2.94304,3.52213 -0.44819,0.58499 -3.06739,3.67413 -5.82046,6.86475 -2.75307,3.19064 -6.84527,7.9455 -9.09377,10.56637 -2.24851,2.62087 -5.14812,5.97724 -6.44361,7.45861 -1.29547,1.48135 -5.12203,5.86329 -8.50346,9.73763 -3.38141,3.87433 -7.74871,8.81566 -9.70508,10.98072 -1.95639,2.16507 -4.47306,5.05528 -5.59259,6.4227 -1.11954,1.36741 -2.3389,2.7659 -2.7097,3.10775 -0.37081,0.34185 -1.96815,2.11328 -3.54964,3.93648 -1.58148,1.82323 -3.91616,4.43373 -5.18816,5.80115 -3.46479,3.7247 -5.74755,6.29225 -8.65751,9.73763 -3.32544,3.9373 -7.72472,8.92452 -9.33594,10.58366 -1.77779,1.83065 -5.28319,5.65379 -9.11609,9.94242 -13.8862,15.53727 -52.55105,55.04143 -56.311,57.53337 -4.67032,3.09528 -11.77427,4.66026 -18.14504,3.99731 -3.99377,-0.4156 -9.976557,-1.44247 -12.146688,-2.08486 -0.683702,-0.20237 -2.3619,-0.67054 -3.729304,-1.04038 -9.241456,-2.49944 -22.670789,-8.32522 -31.215747,-13.54172 -12.990838,-7.93059 -28.058747,-21.66243 -30.817595,-28.08498 -1.192359,-2.77577 -1.408545,-6.49029 -0.534514,-9.18388 1.446868,-4.45896 17.585435,-28.89261 37.705826,-57.08628 13.418527,-18.80271 17.648627,-24.62481 28.15215,-38.74733 8.034812,-10.8032 23.578822,-31.08222 29.883702,-38.98688 1.45423,-1.8232 5.73774,-7.23071 9.51888,-12.01664 3.78116,-4.78594 8.12206,-10.1908 9.64647,-12.01078 1.52442,-1.81999 3.41574,-4.15081 4.20294,-5.17959 0.78721,-1.02879 2.46539,-3.10535 3.72931,-4.61458 1.26391,-1.50923 3.88297,-4.74444 5.82014,-7.18936 9.3139,-11.75519 21.17802,-26.07218 25.91879,-31.277422 1.15097,-1.263743 4.13442,-4.705587 6.62987,-7.648547 7.82095,-9.223445 10.49433,-12.284646 16.30043,-18.665003 7.50852,-8.251171 12.97239,-14.534805 9.74349,-11.205376 -7.49394,7.727307 -13.61688,14.534805 -26.11369,29.033245 -4.53112,5.256875 -10.14356,11.717193 -12.47209,14.356233 -4.71862,5.34789 -6.58508,7.64186 -32.645,40.1227 -1.59532,1.98838 -5.05653,6.29417 -7.69161,9.56842 -6.9284,8.60895 -16.01951,20.05596 -18.21813,22.93923 -1.04397,1.36905 -4.88361,6.31172 -8.53254,10.98371 -8.24328,10.55444 -27.092753,35.82133 -32.767169,43.92292 -1.356801,1.93717 -5.513169,7.71759 -9.236366,12.84537 -3.723212,5.1278 -7.545779,10.44206 -8.494592,11.80948 -0.948829,1.3674 -3.96336,5.6561 -6.698951,9.53045 -12.799396,18.12737 -23.508972,34.69726 -26.53279,41.05163 -3.765434,7.91285 -1.592908,12.90066 10.982221,25.21367 10.420863,10.20363 26.010272,19.74611 41.570739,25.44597 8.402866,3.07799 18.419578,5.87219 21.050866,5.87219 0.461893,0 3.444022,-0.736 6.626952,-1.63554 3.18294,-0.89956 6.92675,-1.84219 8.31957,-2.09475 1.39284,-0.25257 2.84711,-0.55911 3.23173,-0.68117 1.01226,-0.32126 -1.9385,2.22128 -3.65154,3.14638 -2.20597,1.19131 -0.30483,1.67743 4.54977,1.16341 1.70473,-0.18051 3.34555,-0.23379 3.64624,-0.1184 z m 49.99959,-80.15926 c 3.26212,-1.12232 5.06301,-2.30862 6.48529,-4.27202 1.13576,-1.56789 1.20349,-1.89254 1.20349,-5.76964 0,-5.14106 -0.84313,-7.38201 -3.67615,-9.77083 -5.51284,-4.64851 -13.6842,-6.92119 -19.16071,-5.32912 -3.35676,0.97584 -4.96836,2.21871 -6.26261,4.82972 -1.0802,2.17918 -1.11851,2.46961 -0.87447,6.62986 0.3207,5.46718 1.23899,7.52638 4.43112,9.93645 5.26782,3.97726 12.66821,5.52977 17.85404,3.74558 z m -7.85817,-11.70569 c -0.18515,-0.47168 0.1375,-1.25152 0.94291,-2.27902 0.67341,-0.85907 1.44565,-1.98389 1.7161,-2.49956 0.40376,-0.76985 0.63686,-0.85991 1.30305,-0.50338 0.44623,0.23882 0.81134,0.60543 0.81134,0.81469 0,0.20925 -1.01069,1.46134 -2.24598,2.7824 -1.85163,1.98021 -2.29537,2.27603 -2.52742,1.68487 z m -4.34267,-2.22124 c 0,-0.13469 0.76883,-1.34099 1.70855,-2.68062 1.46178,-2.08392 1.82087,-2.37561 2.4862,-2.01954 0.42771,0.22891 0.77765,0.49413 0.77765,0.58938 0,0.47721 -3.92914,4.35568 -4.41258,4.35568 -0.3079,0 -0.55982,-0.11025 -0.55982,-0.2449 z m -23.10177,-0.99608 c 3.18405,-0.98346 6.23367,-3.45153 6.95119,-5.6256 0.69573,-2.10807 -0.10289,-8.39812 -1.37199,-10.80602 -2.14857,-4.07656 -10.50599,-7.98842 -17.11484,-8.01096 -4.60191,-0.0157 -9.04043,2.54033 -10.6227,6.1173 -0.76113,1.72067 -0.77751,2.09115 -0.2653,6.0008 0.41071,3.13488 0.81261,4.58744 1.62273,5.86486 1.45387,2.29252 4.93001,4.59936 9.13737,6.06374 4.24874,1.47878 7.77051,1.59831 11.66354,0.39588 z m -10.46197,-12.01257 c -2.18912,-0.86477 -2.5362,-1.75467 -1.06128,-2.72107 0.58371,-0.38245 1.06128,-1.00956 1.06128,-1.39357 0,-0.38402 0.22375,-0.92196 0.49724,-1.19545 0.69892,-0.69892 3.02912,-0.61949 3.64642,0.12435 0.28372,0.34185 0.75205,0.62154 1.04075,0.62154 0.28871,0 0.94579,0.3408 1.46019,0.75734 l 0.93527,0.75734 -1.30374,0.92835 c -0.71705,0.51058 -1.30373,1.18879 -1.30373,1.5071 0,0.68715 -1.29628,1.45417 -2.35537,1.39368 -0.41381,-0.0237 -1.59148,-0.37444 -2.61703,-0.77958 z m 65.67718,2.53529 c 2.60161,-1.1614 5.07236,-3.53729 5.57622,-5.36212 0.56125,-2.0327 0.0437,-8.29081 -0.82979,-10.03494 -0.82097,-1.63913 -3.96953,-4.71948 -6.25842,-6.12283 -4.20092,-2.57566 -11.55784,-3.72204 -15.13038,-2.35767 -2.8828,1.10096 -5.39518,3.59936 -6.13935,6.10521 -0.72503,2.44147 -0.44393,8.95496 0.46425,10.75712 1.42279,2.82334 5.37135,5.61503 10.21629,7.22305 3.87964,1.28764 8.94614,1.20063 12.10118,-0.20782 z m -10.32195,-12.42605 c -0.23742,-0.38416 0.98859,-1.58832 2.6867,-2.63881 1.03529,-0.64046 1.09886,-0.61911 2.17542,0.73009 0.60994,0.7644 1.10898,1.58627 1.10898,1.82634 0,0.5266 -5.64838,0.60453 -5.9711,0.0824 z m -3.97371,-2.11565 c 0,-0.93475 2.06815,-3.33137 2.87479,-3.33137 0.53415,0 2.13639,2.5026 1.87402,2.92711 -0.0993,0.16076 -0.6957,0.39571 -1.32521,0.52213 -0.62951,0.12638 -1.65737,0.35611 -2.2841,0.51046 -0.98204,0.24182 -1.1395,0.15504 -1.1395,-0.62833 z m -72.75643,6.40095 c 4.01982,-1.21944 7.74984,-4.19602 8.37389,-6.68244 0.48167,-1.91915 -0.17368,-7.436 -1.12333,-9.45628 -3.07183,-6.53503 -15.35026,-10.65013 -22.961518,-7.69553 -3.130047,1.21505 -5.748947,3.72688 -6.397693,6.13612 -0.545195,2.0247 -0.199915,7.47936 0.597941,9.44624 1.473007,3.63125 6.71325,7.37888 12.01526,8.59287 1.921118,0.43987 7.59281,0.23621 9.49545,-0.34098 z m -8.763606,-13.14148 c -0.231597,-0.29003 -0.730607,-1.13668 -1.108917,-1.88146 -0.537161,-1.05751 -0.571193,-1.39369 -0.155359,-1.53467 5.276102,-1.78894 6.693082,-1.65322 5.857292,0.56101 -0.26975,0.71465 -0.30123,1.44225 -0.0796,1.83838 0.29803,0.53253 0.0734,0.70516 -1.196086,0.91948 -0.859655,0.14518 -1.863,0.34502 -2.229643,0.44422 -0.366658,0.0991 -0.856131,-0.057 -1.087727,-0.34696 z m 59.765756,6.67029 c 2.44064,-0.90886 5.0392,-3.23825 5.8936,-5.28315 0.44235,-1.0587 0.53128,-2.17408 0.32607,-4.09023 -0.57752,-5.39288 -1.6143,-7.15261 -5.92714,-10.06024 -3.80448,-2.56488 -7.42044,-3.71712 -11.66509,-3.71712 -2.74311,0 -3.56928,0.18197 -5.7316,1.26251 -2.73418,1.36627 -4.88858,3.48635 -5.32998,5.24502 -0.15269,0.60805 -0.0932,2.9249 0.13203,5.14854 0.38596,3.81035 0.50126,4.15493 2.00366,5.98841 2.70344,3.29919 7.41661,5.85356 12.01107,6.50956 2.08382,0.29753 6.09963,-0.18864 8.28734,-1.0033 z m -12.02682,-11.91177 c -0.23922,-0.22781 0.89909,-2.3175 1.53673,-2.82108 0.29991,-0.23686 1.06267,-0.5543 1.69504,-0.70543 1.06019,-0.25338 1.2135,-0.12607 1.96824,1.63468 0.45016,1.05022 0.8185,1.97183 0.8185,2.04805 0,0.18973 -5.81368,0.0388 -6.01851,-0.1563 z m 62.83553,3.69673 c 2.14489,-0.63175 4.05564,-2.02963 5.67329,-4.15051 l 1.40612,-1.84355 -0.14612,-4.60567 c -0.13406,-4.22301 -0.24253,-4.75124 -1.30559,-6.35763 -2.40417,-3.63294 -8.34152,-6.09576 -13.89572,-5.76397 -3.81547,0.22793 -5.97417,1.21449 -8.10526,3.70417 -1.95663,2.2859 -2.31266,3.74381 -2.03849,8.34777 0.33057,5.55141 1.92938,7.98095 6.56442,9.97526 3.38776,1.45764 8.28168,1.74436 11.84745,0.69413 z m -5.05386,-11.3161 c 1.46703,-0.74851 1.49179,-1.41481 0.0797,-2.14501 -1.77152,-0.9161 -2.74292,-0.80309 -3.28284,0.3819 -0.56521,1.2405 -1.62788,0.99991 -1.99203,-0.451 -0.42127,-1.67849 0.0944,-2.37003 1.55025,-2.07885 0.99634,0.19925 1.55197,0.0293 2.49333,-0.76284 0.99468,-0.83696 1.39911,-0.94781 2.26159,-0.6199 1.88579,0.71697 2.67966,1.26174 2.42921,1.66695 -0.14565,0.23567 -0.61055,0.14268 -1.13972,-0.22796 -1.04024,-0.72862 -2.31309,-0.79782 -3.19553,-0.17374 -0.45417,0.32119 -0.48574,0.49495 -0.11714,0.64519 0.27737,0.11307 1.20261,0.6795 2.05611,1.2587 0.94771,0.64314 1.61169,0.87342 1.70564,0.59156 0.18812,-0.56436 1.74224,-0.61975 1.74224,-0.062 0,0.73378 -3.0768,2.50122 -4.34344,2.49503 l -1.25051,-0.006 z m -75.58927,1.37209 c 2.26383,-0.98272 4.50431,-2.90843 5.42211,-4.66035 0.70859,-1.35254 0.76981,-5.86504 0.1148,-8.46605 -1.24575,-4.94734 -9.53642,-9.68309 -16.95173,-9.68309 -2.55458,0 -6.66808,1.28719 -8.44516,2.64263 -0.76735,0.58529 -1.80617,1.91316 -2.3085,2.95084 -0.80813,1.66935 -0.88061,2.27922 -0.62926,5.29444 0.33106,3.97127 1.316,6.35575 3.37044,8.15959 1.67939,1.47451 6.52454,3.99808 8.76154,4.5634 2.57536,0.65081 8.31355,0.21964 10.66568,-0.80141 z m -7.5279,-11.65719 c -0.32754,-1.63768 -0.96363,-1.85878 -2.81711,-0.97926 -0.82175,0.38995 -1.53405,0.63798 -1.58288,0.55117 -1.02184,-1.81679 -1.57729,-3.28286 -1.37054,-3.61741 0.14362,-0.23229 0.95687,-0.32932 1.80733,-0.21561 3.17495,0.4245 3.41093,0.53597 3.41093,1.61124 0,0.97816 0.1184,1.02802 2.44186,1.02802 1.7327,0 2.50777,0.17171 2.66877,0.59126 0.27501,0.71668 -0.30431,1.20691 -2.1683,1.83482 -1.98326,0.66811 -2.10369,0.62758 -2.39006,-0.80423 z m 53.60868,5.17237 c 2.57509,-0.7486 5.07071,-2.75692 6.08688,-4.89833 0.77577,-1.63485 0.89317,-6.64833 0.21302,-9.09789 -0.64929,-2.33847 -3.79088,-5.30888 -6.8248,-6.45291 -2.0156,-0.76005 -3.06242,-0.8967 -5.77665,-0.75402 -5.25077,0.27601 -9.4114,2.68463 -11.05476,6.39968 -1.03804,2.34661 -0.65769,8.25166 0.65568,10.17945 3.05744,4.48775 10.28535,6.48899 16.70063,4.62402 z m -7.63867,-9.3578 c -2.72182,-0.72411 -2.65124,-3.25781 0.1595,-5.72566 3.76839,-3.30869 8.13969,0.46517 4.80334,4.14684 -1.35978,1.50051 -3.13473,2.06517 -4.96284,1.57882 z m 3.57321,-2.21607 c 1.55644,-1.77266 1.64423,-2.94789 0.26709,-3.57535 -0.81524,-0.37145 -1.22827,-0.3271 -2.06606,0.22184 -2.60213,1.70498 -3.04107,4.81822 -0.67934,4.81822 0.84606,0 1.56574,-0.42534 2.47831,-1.46471 z m 57.56624,5.33861 c 1.70602,-0.86953 2.73556,-1.7661 3.74541,-3.26166 1.37451,-2.03563 1.39003,-2.11018 1.18984,-5.71811 -0.16424,-2.95987 -0.43073,-4.10116 -1.40025,-5.99691 -1.42038,-2.77736 -2.97223,-3.93055 -6.89117,-5.12089 -5.58747,-1.69713 -11.93575,-0.35226 -14.55656,3.08379 -1.935,2.53691 -2.30831,3.99726 -2.02998,7.94117 0.30279,4.29066 0.95342,5.47865 4.26916,7.79512 3.21728,2.2477 5.30462,2.81598 9.66523,2.63138 3.02447,-0.12795 4.06177,-0.36177 6.00832,-1.35389 z m -10.98749,-10.29944 -1.16261,-1.03879 1.07533,-0.92947 c 0.59144,-0.51119 1.18786,-1.24603 1.32538,-1.63294 0.3941,-1.10879 2.68827,-2.10115 4.17591,-1.80633 2.91888,0.57849 3.71354,2.73014 0.99859,2.70381 -1.30175,-0.0125 -1.32446,-0.0398 -0.533,-0.63791 0.70919,-0.53591 0.73865,-0.68041 0.20719,-1.01639 -0.88566,-0.5599 -2.20282,-0.49426 -3.0893,0.15395 -0.85078,0.62209 -0.69745,0.77081 1.53745,1.49127 1.98484,0.63983 2.0665,1.79373 0.20718,2.92737 -1.81249,1.10512 -3.3426,1.03588 -4.74212,-0.21457 z m 3.62985,-0.21891 c 0.44082,-0.23592 0.80149,-0.69553 0.80149,-1.02134 0,-1.30546 -2.81942,-1.92507 -3.73575,-0.82096 -0.42743,0.51502 -0.38735,0.77844 0.22066,1.45029 0.8332,0.92067 1.53607,1.0222 2.7136,0.39201 z m -77.12671,1.02479 c 3.0046,-0.84328 5.9933,-3.0406 7.10824,-5.22604 0.77936,-1.52768 0.85097,-2.13502 0.59617,-5.05601 -0.35946,-4.12074 -1.12731,-6.09463 -3.01583,-7.75279 -2.68202,-2.35483 -4.77721,-3.01735 -9.6338,-3.04627 -3.85187,-0.0229 -4.61223,0.0973 -6.62989,1.04871 -2.76043,1.30162 -4.83676,3.34893 -5.44069,5.36466 -0.24656,0.82296 -0.38191,3.17528 -0.30078,5.22738 0.13139,3.32215 0.27396,3.89679 1.30108,5.24266 3.08602,4.04375 10.05544,5.87044 16.0155,4.1977 z m -7.28543,-9.29864 c -1.09302,-0.43627 -1.53218,-1.08965 -1.14903,-1.7096 0.19757,-0.31967 0.40841,-0.25415 0.66659,0.20718 0.49566,0.88569 1.28808,0.8549 2.13686,-0.083 1.01242,-1.11869 0.8452,-1.42335 -0.68328,-1.2449 -1.49624,0.17468 -2.93973,-0.789 -2.42626,-1.61979 0.16621,-0.26894 1.19795,-0.88523 2.29277,-1.36951 2.34975,-1.0394 3.81165,-0.8225 4.48995,0.66619 0.4086,0.89679 0.35028,1.12409 -0.42847,1.66954 -0.4958,0.34727 -0.90146,0.96486 -0.90146,1.37241 0,1.49674 -2.38362,2.7557 -3.99767,2.11148 z m 3.24675,-5.05925 c -0.23153,-0.23153 -0.83107,-0.26938 -1.3828,-0.0872 l -0.97402,0.32146 1.0359,0.27598 c 1.22422,0.32615 1.89727,0.0663 1.32092,-0.51013 z m 53.99711,9.0181 c 2.55074,-1.13848 4.58264,-2.81715 5.45733,-4.50859 0.93947,-1.81673 0.54957,-8.20318 -0.64361,-10.54198 -2.38342,-4.67192 -9.86974,-7.11881 -16.11017,-5.2656 -2.85444,0.84767 -6.38606,4.05089 -7.10246,6.44201 -0.69598,2.32299 -0.222,8.15549 0.79922,9.83475 1.60483,2.63892 5.21767,4.50246 9.7267,5.01715 3.34489,0.3818 5.39826,0.12686 7.87299,-0.97774 z m -9.2826,-9.45424 c -0.54739,-0.28151 -1.2,-0.84946 -1.45028,-1.2621 -0.37188,-0.61313 -0.25614,-0.9233 0.63329,-1.69717 0.91086,-0.79249 1.48519,-0.92881 3.52212,-0.83599 2.26643,0.10321 2.44276,0.18383 2.56415,1.17128 0.28481,2.31696 -2.8403,3.8732 -5.26928,2.62398 z m 2.88714,-0.73362 c 1.06632,-0.57067 1.09293,-2.47162 0.0346,-2.47162 -0.95017,0 -3.37677,0.82456 -3.37677,1.14743 0,0.49987 1.39837,1.75315 1.95612,1.75315 0.32151,0 0.94524,-0.19302 1.38606,-0.42896 z m -2.09907,-4.06486 c 0,-0.64292 1.50453,-1.72169 2.40118,-1.72169 1.10866,0 3.81432,1.26444 3.81432,1.78254 0,0.21227 -0.41954,0.26126 -0.93232,0.10884 -2.03027,-0.60344 -3.94018,-0.73079 -4.21801,-0.28127 -0.33477,0.54167 -1.06517,0.61819 -1.06517,0.11166 z m 58.3889,9.64597 c 2.62091,-0.77833 5.57281,-3.50407 6.18126,-5.70766 0.23795,-0.86182 0.27886,-2.99548 0.0991,-5.16623 -0.42709,-5.15605 -1.86657,-7.36156 -6.03626,-9.24854 -1.75303,-0.79331 -2.80511,-0.94107 -6.83707,-0.96023 -5.49434,-0.0262 -7.27428,0.61412 -9.39782,3.38022 -1.8749,2.44224 -2.20445,3.59982 -2.20445,7.74328 0,3.32334 0.1303,4.05013 0.94334,5.26369 1.1734,1.75131 4.34321,3.9162 6.87583,4.69602 2.5838,0.79558 7.69616,0.7953 10.37612,-5.5e-4 z m -9.40139,-9.94086 c -1.95973,-1.37267 -0.70103,-4.02197 2.73503,-5.75663 1.5238,-0.76927 3.4153,-0.57268 4.25787,0.44257 0.4186,0.50437 0.34313,0.78419 -0.41186,1.52724 l -0.92435,0.90974 0.26408,-1.08314 c 0.2154,-0.88343 0.0959,-1.12713 -0.64815,-1.32169 -0.51193,-0.1339 -1.34551,0.0453 -1.89957,0.40835 l -0.98732,0.64693 1.35083,0.67478 c 2.64156,1.31951 1.57906,4.19688 -1.54973,4.19688 -0.69625,0 -1.68031,-0.29026 -2.18683,-0.64503 z m 3.4229,-1.00467 c 0.61954,-0.68457 0.6533,-0.92897 0.20328,-1.47123 -0.66283,-0.79864 -2.44932,-0.64018 -3.01738,0.26763 -1.09777,1.75433 1.36314,2.80688 2.8141,1.2036 z m -76.36543,-0.40949 c 2.95679,-1.10627 5.47259,-2.99916 6.29801,-4.73863 0.79446,-1.67417 0.89038,-6.24489 0.18079,-8.61332 -0.69512,-2.3201 -3.16721,-4.60614 -6.24348,-5.7736 -2.10062,-0.79718 -3.37895,-0.98389 -6.7363,-0.98389 -4.60775,0 -5.62363,0.35618 -8.5461,2.99646 -2.58703,2.33722 -2.99066,3.44972 -2.89654,7.98354 0.0683,3.29044 0.23175,4.15758 0.99696,5.28874 2.96017,4.37591 10.77965,6.14807 16.94666,3.8407 z m -7.81402,-9.2664 c -0.18944,-0.32928 -0.68059,-0.66607 -1.09146,-0.74846 -1.38059,-0.27681 -0.75134,-0.97611 1.12682,-1.25226 1.81174,-0.26638 5.21418,-1.86437 5.21418,-2.44889 0,-0.16005 -0.8391,-0.41685 -1.86466,-0.57064 -1.02555,-0.15379 -1.86464,-0.45466 -1.86464,-0.66859 0,-0.56739 2.93486,-0.46424 4.14,0.14549 1.86646,0.94432 1.48981,1.72136 -1.62879,3.36013 -1.60202,0.84184 -2.86904,1.73174 -2.81559,1.97756 0.15301,0.7037 -0.83336,0.87055 -1.21586,0.20566 z m 55.65931,5.32135 c 2.59721,-0.77128 5.29072,-2.69066 6.17466,-4.40002 0.51759,-1.0009 0.64161,-2.19217 0.53283,-5.11812 -0.12608,-3.39179 -0.28104,-4.03899 -1.40091,-5.85146 -1.01337,-1.64013 -1.81401,-2.32098 -4.1019,-3.48819 -2.66455,-1.35935 -3.09216,-1.45028 -6.82102,-1.45028 -3.50976,0 -4.254,0.13547 -6.3195,1.14974 -2.20827,1.08444 -3.68751,2.54063 -4.89349,4.81724 -0.74453,1.40549 -0.58465,7.67263 0.24008,9.41059 2.00126,4.21736 10.4925,6.74105 16.58925,4.9305 z m -8.24791,-9.14998 c -0.62673,-0.34 -1.13952,-0.89193 -1.13952,-1.22651 0,-0.78444 0.58627,-0.77819 1.2431,0.0125 0.9705,1.16939 3.31494,0.52036 3.31494,-0.91769 0,-0.29963 -0.53857,-0.87229 -1.19682,-1.27259 l -1.19682,-0.72784 0.90948,-1.1406 0.90948,-1.1406 1.94481,0.72081 c 1.06964,0.39643 1.94481,0.86703 1.94481,1.04577 0,0.52053 -0.77743,0.37771 -1.8813,-0.34558 -0.82082,-0.5378 -1.14522,-0.56947 -1.63871,-0.15992 -0.5324,0.44185 -0.4763,0.61997 0.41645,1.32219 1.34794,1.06029 1.3235,2.53358 -0.0601,3.62191 -1.28073,1.00741 -2.01642,1.05017 -3.56983,0.20743 z m 61.00667,3.6612 c 1.45788,-0.72975 2.79496,-1.82009 3.68582,-3.00565 1.39396,-1.85511 1.39742,-1.87126 1.20258,-5.59622 -0.1162,-2.22204 -0.4578,-4.23853 -0.84299,-4.97658 -1.93253,-3.70285 -6.88464,-5.99341 -12.97519,-6.00157 -4.31772,-0.006 -6.74796,0.82103 -8.67161,2.95029 -1.99194,2.20483 -2.27935,3.11781 -2.27935,7.2407 0,5.22051 1.02052,6.8668 5.7364,9.2539 2.55991,1.29579 4.76357,1.67292 8.55043,1.4633 2.53074,-0.14001 3.84264,-0.45157 5.59391,-1.32817 z m -7.98513,-9.47149 c -0.63635,-0.34503 -1.47544,-0.53162 -1.86466,-0.41461 -0.75059,0.22563 -2.47809,-0.81471 -2.05515,-1.23764 0.22759,-0.22759 1.98664,0.22143 4.33683,1.10704 0.54488,0.20533 1.01931,0.18106 1.16813,-0.0598 0.13782,-0.22303 0.43325,-0.29262 0.65649,-0.15473 0.25541,0.15787 0.226,0.46753 -0.0794,0.83549 -0.59336,0.71496 -0.71145,0.71083 -2.16226,-0.0758 z m 1.28286,-2.77773 c 1.53395,-1.58262 1.63161,-1.94851 0.52011,-1.94851 -0.95474,0 -1.47027,-0.65456 -0.82812,-1.05143 0.66526,-0.41115 4.1186,1.02034 4.1186,1.70725 0,0.323 -0.34043,0.58728 -0.75651,0.58728 -0.41607,0 -1.19445,0.46615 -1.7297,1.03592 -0.53525,0.56975 -1.3502,1.0359 -1.81098,1.0359 -0.74244,0 -0.68706,-0.15551 0.4866,-1.36641 z m -77.29145,1.90962 c 2.78974,-0.99938 5.96192,-3.87248 6.50585,-5.89247 0.5134,-1.90661 -0.0327,-6.81885 -0.95682,-8.6058 -1.76567,-3.41443 -7.00287,-5.74873 -12.2345,-5.45311 -3.80572,0.21504 -7.91322,2.19777 -9.49045,4.58114 -0.93408,1.41148 -1.10735,2.11627 -1.08676,4.42023 0.0381,4.26462 0.54537,6.45387 1.86676,8.05695 2.959,3.58976 9.84109,4.88298 15.39592,2.89306 z m -7.41158,-9.42314 c -0.12513,-0.32593 -0.77185,-0.78238 -1.43727,-1.01436 -1.91611,-0.66796 -1.46973,-2.07729 0.86196,-2.7215 0.56975,-0.15741 2.02597,-0.67256 3.23605,-1.14478 1.27657,-0.49818 2.34945,-0.70372 2.55585,-0.48966 0.58037,0.60197 -3.14245,5.9629 -4.14085,5.9629 -0.46659,0 -0.95067,-0.26668 -1.07574,-0.5926 z m 2.46531,-2.51517 c 0.85726,-1.02555 1.38612,-1.86464 1.17522,-1.86464 -0.51786,0 -5.04458,2.0138 -5.04458,2.24419 0,0.39225 1.32936,1.48512 1.80649,1.48512 0.27731,0 1.20561,-0.83909 2.06287,-1.86467 z m 54.84789,7.65523 c 3.78011,-1.86095 4.68092,-3.34268 4.68092,-7.69961 0,-4.66191 -0.2808,-5.69551 -2.11265,-7.77661 -2.41671,-2.74552 -5.30813,-3.78128 -10.55585,-3.78128 -3.8267,0 -4.3783,0.10414 -6.62987,1.25242 -1.81568,0.92593 -2.81742,1.7901 -3.84264,3.31494 l -1.38671,2.06251 0.28282,3.93648 c 0.3689,5.13452 1.32479,6.63248 5.46424,8.56296 4.70805,2.19564 9.806,2.24198 14.09974,0.12827 z m -9.20037,-7.99752 c -2.4474,-0.95769 -2.94289,-1.40881 -2.44425,-2.22536 0.27219,-0.44572 1.06034,-0.79881 1.95307,-0.87497 1.40461,-0.11981 1.4822,-0.20036 1.26062,-1.30826 -0.18964,-0.94815 -0.0312,-1.31478 0.80469,-1.86248 0.92963,-0.60912 1.19447,-0.61775 2.47972,-0.0806 2.22289,0.92878 2.30788,1.48248 0.47169,3.07326 -1.54804,1.34114 -1.73196,1.39451 -3.88463,1.12728 -2.03693,-0.25286 -2.20565,-0.21546 -1.7119,0.37947 0.30126,0.363 1.26537,0.875 2.14249,1.13778 0.8771,0.2628 1.49661,0.63658 1.37667,0.83065 -0.2816,0.45562 -0.91036,0.40513 -2.44817,-0.19664 z m 3.69541,-3.84571 c 0.91832,-0.35239 0.81613,-1.29079 -0.19979,-1.8345 -1.02756,-0.54992 -2.04534,0.10102 -2.04534,1.30802 0,0.79559 0.95827,1.02029 2.24513,0.52648 z m 62.18795,8.35033 c 2.98424,-1.46006 3.64198,-2.70374 3.56384,-6.73877 -0.0943,-4.87191 -1.71101,-7.942 -5.10021,-9.68534 -1.96892,-1.01276 -8.04636,-1.10071 -10.72616,-0.1552 -3.71186,1.30961 -4.90035,3.37568 -4.88909,8.49915 0.008,3.67523 0.26032,4.4845 1.97526,6.33747 2.25567,2.43716 4.59848,3.19847 9.26477,3.0106 2.89803,-0.11668 4.07423,-0.36896 5.91159,-1.2679 z m -4.59822,-6.92233 c -0.30514,-0.49372 2.36002,-3.24832 3.14285,-3.24832 0.64492,0 0.49904,0.70992 -0.20109,0.97858 -1.12314,0.431 -0.68728,1.12541 0.51796,0.82523 1.02727,-0.25585 1.08348,-0.21581 0.5708,0.40649 -0.71055,0.86246 -1.65955,0.89035 -1.97889,0.0581 -0.19458,-0.50704 -0.36339,-0.53187 -0.85316,-0.12545 -0.53265,0.44207 -0.51636,0.57563 0.12764,1.04651 0.69128,0.50547 0.68204,0.53975 -0.14534,0.53975 -0.48591,0 -1.01725,-0.21644 -1.18075,-0.48099 z m -2.75579,-1.41348 c -0.62674,-0.34002 -1.13952,-0.76981 -1.13952,-0.95511 0,-0.44648 1.26612,-1.51719 2.17542,-1.83965 0.39885,-0.14142 0.72516,-0.44949 0.72516,-0.68453 0,-0.23506 0.3263,-0.42323 0.72514,-0.41817 0.58844,0.008 0.52987,0.16313 -0.31078,0.82569 -0.8797,0.69334 -0.94218,0.8796 -0.41436,1.23514 0.49334,0.33231 0.41731,0.39704 -0.36869,0.31382 -1.25142,-0.13249 -1.68223,0.90578 -0.50371,1.21397 0.47982,0.12545 0.8724,0.39284 0.8724,0.59417 0,0.50599 -0.4312,0.43613 -1.76106,-0.28533 z m -4.66164,-2.86137 c -0.9116,-0.7857 -1.54306,-1.43556 -1.40325,-1.44411 0.13985,-0.008 1.23102,-0.20081 2.42487,-0.42722 2.24117,-0.42503 4.32148,-0.18814 3.92872,0.44738 -0.12294,0.19892 -0.56311,0.14956 -0.97817,-0.10963 -0.41505,-0.25921 -1.10565,-0.33531 -1.53466,-0.16911 -0.76262,0.29543 -0.76249,0.3151 0.006,0.88086 0.43241,0.31828 0.97704,0.46073 1.2103,0.31657 0.23327,-0.14424 0.0659,0.22888 -0.37181,0.82898 -0.43778,0.60012 -0.98241,1.09419 -1.21031,1.09797 -0.2279,0.003 -1.16022,-0.636 -2.07184,-1.42172 z m 2.6934,0.40498 c 0,-0.367 -1.64442,-1.86466 -2.0474,-1.86466 -0.94234,0 -0.77898,0.84296 0.27404,1.41403 1.20707,0.6546 1.77336,0.79851 1.77336,0.45063 z m 4.55803,0.64601 c 0,-0.21445 0.18646,-0.50515 0.41437,-0.64601 0.2279,-0.14079 0.41437,0.0346 0.41437,0.38992 0,0.3553 -0.18647,0.646 -0.41437,0.646 -0.22791,0 -0.41437,-0.17546 -0.41437,-0.38991 z m 26.62309,-1.26578 c 0.17092,-9.7e-4 0.31078,-0.14753 0.31078,-0.32569 0,-0.17814 -0.83909,-0.57164 -1.86466,-0.87447 -1.02556,-0.30281 -1.86465,-0.71645 -1.86465,-0.9192 0,-0.20273 -0.44333,-0.36863 -0.98518,-0.36863 -0.54186,0 -1.2173,-0.27969 -1.50102,-0.62154 -0.62796,-0.75665 -1.72133,-0.8032 -2.43292,-0.10352 -0.28977,0.28489 -0.49145,0.3315 -0.44818,0.10352 0.17174,-0.90467 -0.049,-1.1129 -0.65051,-0.61368 -0.52595,0.4365 -0.58869,0.41334 -0.37669,-0.13907 0.18495,-0.48197 -0.0669,-0.74096 -0.92284,-0.94918 -0.64745,-0.15748 -1.54499,-0.53822 -1.99453,-0.84607 -0.44953,-0.30785 -1.05555,-0.55973 -1.3467,-0.55973 -0.29114,0 -0.90228,-0.37294 -1.35808,-0.82874 -0.4558,-0.4558 -1.24829,-0.8228 -1.76106,-0.81555 -1.03528,0.0141 -2.38261,0.88313 -2.38261,1.53584 0,0.23194 -0.41954,0.71594 -0.93232,1.07555 -0.77687,0.54481 -0.8324,0.72117 -0.33311,1.05755 0.39137,0.26369 0.8721,0.25768 1.3859,-0.0172 0.68055,-0.36422 0.74979,-0.30477 0.5132,0.44067 -0.22118,0.69689 -0.13641,0.8091 0.44313,0.5867 0.39765,-0.15254 0.61171,-0.1054 0.4809,0.10618 -0.13108,0.21199 0.58244,0.36559 1.60735,0.34605 1.01368,-0.0193 1.93968,0.12121 2.05778,0.31229 0.11809,0.1911 0.62286,0.28071 1.12167,0.19915 0.4988,-0.0816 0.67385,-0.0686 0.38897,0.0288 -0.28488,0.0974 -0.51796,0.44318 -0.51796,0.76832 0,0.72738 1.50865,0.78883 1.79741,0.0733 0.11762,-0.29147 0.2233,-0.17868 0.24172,0.25792 0.026,0.61569 0.15206,0.67685 0.61064,0.29623 0.45906,-0.38098 0.5656,-0.32749 0.51796,0.26004 -0.0807,0.99522 1.14904,0.7587 2.86656,-0.55132 1.15838,-0.88354 1.46811,-0.95028 2.41258,-0.51996 0.59596,0.27153 1.08356,0.65025 1.08356,0.84156 0,0.48623 -0.72589,0.4351 -1.04008,-0.0733 -0.30331,-0.49076 -1.03174,-0.14487 -1.03174,0.48991 0,0.23885 0.27969,0.32693 0.62154,0.19573 0.42866,-0.16449 0.62156,0.0266 0.62156,0.61602 0,0.52305 -0.3419,0.94393 -0.88139,1.08502 l -0.88138,0.23048 0.94454,0.71247 c 0.91821,0.6926 1.00346,0.66781 3.05682,-0.88905 1.16174,-0.88083 2.25211,-1.60232 2.42304,-1.60331 z m -4.24727,1.4406 c 0,-0.68165 0.92708,-1.85675 1.46487,-1.85675 0.33383,0 0.60112,0.13986 0.59394,0.31078 -0.0157,0.37444 -2.05881,1.90865 -2.05881,1.54597 z m -5.17958,-3.09985 c 0.14079,-0.2279 0.43155,-0.41436 0.646,-0.41436 0.21445,0 0.38992,0.18646 0.38992,0.41436 0,0.2279 -0.29071,0.41436 -0.64601,0.41436 -0.3553,0 -0.53077,-0.18646 -0.38991,-0.41436 z m -1.24311,-0.82874 c 0.1408,-0.2279 0.33833,-0.41436 0.43883,-0.41436 0.10054,0 0.18272,0.18646 0.18272,0.41436 0,0.22792 -0.19746,0.41438 -0.43881,0.41438 -0.24136,0 -0.32359,-0.18646 -0.18274,-0.41438 z m 2.90057,0 c 0.14079,-0.2279 0.5358,-0.41436 0.87765,-0.41436 0.34185,0 0.50631,0.18646 0.36545,0.41436 -0.14079,0.22792 -0.53578,0.41438 -0.87763,0.41438 -0.34185,0 -0.50631,-0.18646 -0.36547,-0.41438 z m -6.42269,-0.86751 c 0,-0.20657 0.37294,-0.37559 0.82874,-0.37559 0.4558,0 0.82872,0.0714 0.82872,0.15887 0,0.0874 -0.37292,0.25637 -0.82872,0.37557 -0.4558,0.11918 -0.82874,0.0478 -0.82874,-0.15885 z m -1.2431,-0.60741 c 0,-0.69134 1.479,-1.37835 2.10891,-0.97958 0.45369,0.28719 0.39439,0.3714 -0.26497,0.37633 -0.4672,0.003 -1.07321,0.2301 -1.3467,0.50359 -0.27347,0.27347 -0.49724,0.31833 -0.49724,0.0996 z m -2.30341,-2.02434 c 0.44238,-0.35442 0.98625,-0.6444 1.20857,-0.6444 0.52647,0 0.29139,0.19139 -0.977,0.79547 -0.97677,0.46518 -0.98999,0.45655 -0.23157,-0.15113 z m -93.22638,4.89855 c 1.35743,-0.69305 3.03561,-1.96149 3.72931,-2.81875 1.13336,-1.40057 1.25823,-1.83835 1.23137,-4.31685 -0.0165,-1.51701 -0.16012,-3.43279 -0.31927,-4.25727 -0.38091,-1.97328 -2.71536,-4.3388 -5.63157,-5.70649 -2.0262,-0.95028 -2.81034,-1.07797 -6.45028,-1.05042 -4.74574,0.0359 -6.38931,0.58444 -8.71256,2.90767 -2.01465,2.01465 -2.26758,2.86932 -2.23242,7.54346 0.0271,3.61126 0.13453,4.15742 1.05459,5.36748 2.00264,2.63371 5.55213,3.83365 10.92631,3.69375 3.45444,-0.0899 4.23871,-0.25678 6.40452,-1.36258 z m -9.71946,-7.95163 c 0,-0.50014 2.0577,-2.29948 3.86665,-3.38116 l 1.58763,-0.94935 -1.58763,-0.75346 -1.58763,-0.75345 2.38738,0.083 c 1.31306,0.0456 2.40552,0.26944 2.42768,0.49734 0.0398,0.40888 -6.18071,5.51364 -6.7833,5.56663 -0.17093,0.0157 -0.31078,-0.12419 -0.31078,-0.30952 z m 68.65137,4.86968 c 5.56975,-0.75534 11.85963,-2.44708 12.69978,-3.41578 1.25238,-1.44404 0.74324,-4.94278 -1.90172,-13.06835 -1.28653,-3.95235 -2.55699,-7.44857 -2.82324,-7.76939 -0.29331,-0.35341 -1.26887,-0.58331 -2.47523,-0.58331 -7.55552,0 -12.83183,-2.03075 -17.77514,-6.8413 -1.75403,-1.70693 -3.53769,-3.10351 -3.9637,-3.10351 -0.42602,0 -5.16748,0.77027 -10.53662,1.71171 -7.85043,1.37653 -9.90467,1.87313 -10.49038,2.53605 -0.63794,0.72204 -0.70184,1.45547 -0.51484,5.91079 0.12372,2.94963 0.4789,5.83877 0.84529,6.87722 3.22215,9.13257 12.885,15.93164 25.25992,17.77365 3.16718,0.47145 8.08089,0.45975 11.67588,-0.0277 z m -17.28045,-13.70685 c -0.79183,-0.47654 -1.485,-0.90578 -1.54041,-0.95387 -0.23998,-0.20834 1.58403,-3.49434 2.06063,-3.71228 0.28946,-0.13234 0.0847,-0.12968 -0.45504,0.006 -0.71234,0.17918 -0.93075,0.0929 -0.79679,-0.3146 0.20955,-0.63741 2.12283,-0.97094 3.15984,-0.55083 0.60928,0.24683 0.59305,0.31725 -0.13861,0.6011 -0.4558,0.17683 -1.24828,1.10811 -1.76106,2.0695 -1.1197,2.09928 -1.11803,2.08239 -0.20718,2.09036 1.13512,0.009 2.0336,0.71559 1.5398,1.20939 -0.28575,0.28575 -0.88513,0.14251 -1.86118,-0.44493 z m 1.2537,-1.48323 c 0,-0.0946 0.68167,-0.81483 1.51481,-1.60058 1.41107,-1.33082 1.59554,-1.3929 2.69409,-0.90664 1.25344,0.55482 1.3545,1.26725 0.21122,1.48898 -0.40888,0.0792 -0.69081,-0.13202 -0.69081,-0.51796 0,-0.866 -0.54418,-0.82445 -1.38606,0.10587 -0.83661,0.92444 -0.91024,1.60183 -0.10117,0.9303 0.36796,-0.30538 0.67763,-0.33479 0.83549,-0.0794 0.13798,0.22322 0.0976,0.50053 -0.0896,0.61625 -0.39956,0.24694 -2.98803,0.21502 -2.98803,-0.0368 z m 6.91638,-4.85456 c -0.69224,-0.52485 -0.63478,-0.60605 0.75289,-1.06403 1.84175,-0.60782 2.30322,-0.26508 1.12322,0.83425 -1.03633,0.96549 -0.92395,0.95173 -1.87611,0.22978 z m -1.94397,-1.27007 c 0.28372,-0.34185 0.35316,-0.6227 0.15426,-0.62409 -0.19883,-0.001 0.17259,-0.28111 0.82537,-0.62156 1.50754,-0.78624 1.50651,-0.78641 1.50651,0.25407 0,0.58593 -0.19445,0.79845 -0.59125,0.64618 -0.32519,-0.12482 -0.81419,0.0417 -1.08665,0.37004 -0.27247,0.3283 -0.68187,0.59692 -0.90977,0.59692 -0.23114,0 -0.18627,-0.27484 0.10148,-0.62156 z m -3.31493,-1.3674 c 0,-0.96567 0.78871,-1.74034 1.77186,-1.74034 0.71804,0 0.70381,0.0932 -0.18647,1.22017 -1.11793,1.41523 -1.58539,1.56862 -1.58539,0.52017 z m 45.81903,17.11546 c 7.40279,-1.01304 10.51343,-1.83002 14.93295,-3.92195 5.1237,-2.42527 9.59476,-6.39366 11.80193,-10.47504 1.36042,-2.51561 1.40738,-2.76052 1.55111,-8.08834 0.11025,-4.08903 -0.0307,-6.29836 -0.55137,-8.63857 -0.78977,-3.549887 -3.66168,-9.515271 -4.89997,-10.177987 -0.45035,-0.241025 -1.584,-0.341475 -2.5192,-0.223218 -3.35643,0.424385 -17.8796,3.201055 -18.77069,3.588746 -0.58706,0.255402 -1.07964,1.02762 -1.38807,2.176019 -1.90225,7.08299 -5.1987,10.96512 -11.155,13.13689 -1.3714,0.50005 -2.65472,1.22602 -2.85178,1.61327 -0.19708,0.38724 -0.58284,1.8794 -0.85724,3.3159 -0.46227,2.42 -0.42254,2.84605 0.54089,5.80114 0.57188,1.75413 1.46043,4.67137 1.97457,6.48275 0.59075,2.08137 1.37687,3.79696 2.13606,4.66163 1.07119,1.22002 1.43567,1.3682 3.36526,1.3682 1.19019,0 4.20093,-0.27875 6.69055,-0.61944 z m 16.64681,-18.09431 c -1.07474,-0.39253 -1.62089,-1.59023 -0.72514,-1.59023 0.2279,0 0.41436,0.15661 0.41436,0.34785 0,0.66473 1.93194,1.28375 2.43537,0.78033 0.74512,-0.74513 0.55018,-1.14167 -0.79115,-1.60926 -0.96582,-0.3367 -1.15282,-0.56274 -0.80862,-0.97748 0.59157,-0.7128 -0.0655,-1.10838 -1.42986,-0.86095 -1.46575,0.26579 -1.89138,0.59573 -1.63392,1.26662 0.16295,0.42469 -0.0215,0.51443 -0.69514,0.33827 -0.6723,-0.17581 -0.86067,-0.0849 -0.70606,0.341 0.11589,0.31944 0.42062,0.53419 0.67701,0.47721 0.50264,-0.11166 0.63124,0.42195 0.2045,0.84868 -0.21526,0.21526 -1.57917,-0.27488 -2.16781,-0.77903 -0.0827,-0.0709 0.6689,-0.93664 1.67035,-1.92392 1.65318,-1.62978 1.93412,-1.76008 3.05104,-1.41513 0.67662,0.20897 1.84839,1.08953 2.60394,1.95678 1.15949,1.33092 1.30262,1.70971 0.91775,2.42886 -0.49472,0.92439 -1.24691,1.01675 -3.01662,0.3704 z m -9.53045,-3.48471 c -1.37625,-0.74663 -1.40635,-1.09309 -0.23285,-2.68034 1.06034,-1.43418 2.31437,-1.57327 3.70907,-0.41137 1.16978,0.97451 0.7312,1.10702 -0.6559,0.19816 -0.92894,-0.60867 -1.04198,-0.58122 -2.04052,0.49566 -1.20805,1.30283 -0.85707,2.22053 0.84927,2.22053 0.56758,0 0.89751,0.18143 0.75355,0.41437 -0.34882,0.56438 -1.03039,0.49659 -2.38262,-0.23701 z m 2.17543,-1.24367 c 0,-0.38587 0.28193,-0.59725 0.69081,-0.51796 1.03955,0.20162 1.18229,1.1699 0.17246,1.1699 -0.50899,0 -0.86327,-0.26755 -0.86327,-0.65194 z m -5.77821,-0.48756 c 0.0319,-0.43311 2.46647,-2.31767 2.4495,-1.89617 -0.0225,0.55844 -1.53202,2.20693 -2.02088,2.20693 -0.24836,0 -0.44122,-0.13985 -0.42862,-0.31076 z m -1.60468,-1.641 c 0.08,-0.41585 0.73468,-0.85347 1.58426,-1.05912 0.79628,-0.19274 1.86732,-0.45497 2.3801,-0.58273 0.54889,-0.13672 0.93232,-0.042 0.93232,0.23037 0,0.25448 -0.3263,0.4639 -0.72514,0.4654 -0.39882,0.002 -1.28452,0.37321 -1.96824,0.82602 -1.52873,1.01243 -2.38414,1.05905 -2.2033,0.12012 z m 1.58176,-0.12012 c 0.53564,-0.34618 0.52471,-0.40256 -0.0791,-0.40804 -0.38539,-0.003 -0.81593,0.18014 -0.95679,0.40804 -0.3241,0.52441 0.22444,0.52441 1.03592,0 z m -3.85156,0.15394 c -0.31609,-0.31607 2.09533,-3.05456 2.68974,-3.05456 0.71696,0 0.28219,1.24105 -0.59925,1.71057 -0.51277,0.27317 -1.1239,0.7563 -1.35807,1.07367 -0.23415,0.31735 -0.56375,0.43901 -0.73242,0.27032 z m -77.77877,21.21385 c 0,-0.3265 0.33769,-0.7008 0.75042,-0.8318 0.41274,-0.13093 1.36011,-0.86722 2.1053,-1.63604 l 1.35485,-1.39787 -2.11407,-0.50715 c -1.70231,-0.40838 -2.23959,-0.40301 -2.75843,0.0276 -0.43945,0.36472 -0.73311,0.39512 -0.92354,0.0955 -0.19635,-0.30886 -0.58647,-0.30728 -1.31511,0.005 l -1.0359,0.4445 1.31376,0.14862 1.31375,0.14862 -0.6922,1.27061 c -0.54733,1.00467 -0.57896,1.31207 -0.15113,1.46873 0.29759,0.109 0.76376,0.45171 1.03592,0.76166 0.64949,0.73969 1.11638,0.7403 1.11638,0.001 z m -1.25553,-1.28601 c -0.44201,-0.53257 -0.33611,-0.83712 0.64834,-1.86464 1.14634,-1.19654 1.85152,-1.54638 1.8491,-0.91735 -6.5e-4,0.17092 -0.5468,0.67632 -1.21367,1.1231 -0.66687,0.44678 -1.12102,0.96031 -1.00925,1.14117 0.11182,0.18085 0.84948,-0.16408 1.63931,-0.76652 1.91155,-1.458 2.43127,-0.83449 0.58216,0.69841 -1.69006,1.40102 -1.79835,1.42644 -2.49599,0.58583 z m -2.54232,-9.98299 c 2.99007,-1.45819 3.79431,-2.85482 3.7963,-6.5925 0.002,-3.69147 -1.11358,-6.08291 -3.66257,-7.85164 -1.74217,-1.20889 -1.94671,-1.24827 -6.42269,-1.23678 -5.19924,0.0141 -7.88266,0.84863 -9.20377,2.86491 -0.7647,1.16708 -0.68566,3.71546 0.2642,8.51831 0.2479,1.25347 0.53464,2.71087 0.63722,3.23866 0.55808,2.87162 9.53812,3.52339 14.59131,1.05904 z m -3.03921,-7.41456 c -1.13951,-0.5485 -1.85422,-1.00391 -1.58823,-1.01203 0.62945,-0.0193 4.28161,1.54614 4.28161,1.83515 0,0.37742 -0.54568,0.21066 -2.69338,-0.82312 z m 0.53575,-1.67633 c 1.0404,-0.72873 2.62534,-0.65644 2.88486,0.13155 0.10759,0.32672 -0.23367,0.51796 -0.92432,0.51796 -0.62443,0 -0.98487,-0.17805 -0.83881,-0.41436 0.14079,-0.2279 0.0697,-0.41438 -0.15829,-0.41438 -0.2279,0 -0.5296,0.18648 -0.67045,0.41438 -0.1408,0.2279 -0.47305,0.41436 -0.73821,0.41436 -0.26515,0 -0.0648,-0.29228 0.44522,-0.64953 z M 194.35025,108.23 c 0.12404,-0.20068 0.64781,-0.45639 1.16397,-0.56826 0.51614,-0.11182 1.26476,-0.34053 1.66359,-0.50817 0.41293,-0.17357 0.72514,-0.12482 0.72514,0.11339 0,0.22998 -0.58722,0.62285 -1.30494,0.87306 -1.57328,0.54845 -2.5554,0.58777 -2.24776,0.09 z m -1.92061,-1.34502 c -0.0855,-0.25673 -0.52067,-0.49458 -0.96686,-0.52852 -0.99465,-0.0756 -3.66243,-1.47119 -3.37049,-1.76312 0.49912,-0.49914 4.12926,-0.15896 5.10142,0.47802 0.57851,0.37906 0.94693,0.7941 0.81872,0.92231 -0.12827,0.12827 -0.47071,0.0417 -0.7611,-0.19244 -0.29038,-0.23407 -1.1806,-0.54009 -1.97825,-0.68007 -1.42548,-0.25015 -1.41915,-0.24019 0.36919,0.58152 1.22379,0.56232 2.30906,0.76503 3.31493,0.61916 l 1.49546,-0.21688 -1.45028,0.5919 c -1.81219,0.7396 -2.3752,0.78077 -2.57274,0.18812 z m 72.39361,0.65947 c 3.38855,-1.27556 6.28521,-3.49174 7.094,-5.42747 0.67726,-1.62089 0.7479,-6.338131 0.12826,-8.569339 -0.87274,-3.142906 -5.45102,-6.403269 -10.27675,-7.318442 -2.63202,-0.499152 -7.74122,0.113699 -10.29308,1.234519 -2.31297,1.015968 -4.44373,2.74256 -5.81613,4.712932 -0.8902,1.278042 -1.17725,2.283157 -1.4033,4.913693 -0.31191,3.629407 0.016,5.144307 1.56533,7.232337 1.10486,1.48901 5.21155,3.66937 8.02087,4.25851 3.01384,0.63204 7.73061,0.18671 10.98073,-1.03674 z m -7.81163,-8.352526 c 1.21577,-0.23772 1.55954,-1.674941 0.48238,-2.016823 -0.54579,-0.173228 -1.1572,0.05481 -1.82209,0.679379 -0.55037,0.517037 -1.00066,0.81596 -1.00066,0.664267 0,-0.151757 0.60142,-0.850571 1.33651,-1.553067 0.91807,-0.877351 1.39158,-1.105503 1.51242,-0.728743 0.26889,0.838481 1.02834,1.185046 1.38105,0.630219 0.24071,-0.378639 0.31687,-0.373471 0.32171,0.02193 0.003,0.284876 0.19282,0.51796 0.42072,0.51796 0.2279,0 0.41436,-0.248197 0.41436,-0.551538 0,-0.30334 0.45627,-0.795726 1.01393,-1.09418 1.70791,-0.91403 1.84611,-2.497964 0.21794,-2.497964 -0.43506,0 -1.03007,0.419546 -1.32223,0.932338 -0.29216,0.512776 -0.88478,0.962767 -1.31693,0.999962 -0.67031,0.05779 -0.62466,-0.08175 0.31078,-0.949095 1.24135,-1.151045 1.37927,-1.48007 0.47495,-1.133051 -0.34185,0.13124 -0.62154,0.120748 -0.62154,-0.02318 0,-0.482363 2.25664,-1.131438 4.65793,-1.339731 l 2.37893,-0.206366 -0.24123,1.99911 c -0.36119,2.993279 -0.95715,4.619358 -1.94713,5.31277 -1.28121,0.897382 -2.66957,0.767598 -3.79162,-0.354459 l -0.97729,-0.977285 -0.44528,0.977285 c -0.29336,0.64386 -0.7664,0.958038 -1.38649,0.920859 -0.91287,-0.05481 -0.91441,-0.0617 -0.0511,-0.230469 z m 7.17575,-2.068035 c 1.85574,-2.359176 0.25335,-3.346484 -2.17636,-1.340968 -1.25301,1.034261 -1.47236,1.411803 -1.08878,1.873994 0.77177,0.929911 2.31221,0.67844 3.26514,-0.533026 z m 0.20449,-3.962655 c -0.15113,-0.393752 -0.55695,-0.553151 -1.0681,-0.419483 -0.7874,0.205912 -0.78154,0.237939 0.1303,0.713426 1.13114,0.589814 1.26124,0.549032 0.93775,-0.293943 z m -11.79245,4.245761 c 0,-0.227901 0.28555,-0.414378 0.63456,-0.414378 0.34901,0 0.75494,-0.326315 0.9021,-0.725141 0.27759,-0.75236 0.91694,-1.329363 1.48517,-1.340341 0.18064,-0.0031 -0.19229,0.646272 -0.82874,1.443924 -1.11161,1.393166 -2.19309,1.904016 -2.19309,1.035936 z M 249.46789,96.4675 c -0.70166,-0.761491 -0.77915,-1.126755 -0.43796,-2.064668 0.43934,-1.207755 1.91202,-1.60669 1.91202,-0.517961 0,0.341851 -0.27971,0.621543 -0.62156,0.621543 -0.84097,0 -0.78152,0.500749 0.18223,1.535229 0.44209,0.474516 0.69071,0.975844 0.5525,1.114054 -0.40879,0.408771 -0.68795,0.287726 -1.58723,-0.688197 z m 1.93425,-0.455582 c -0.37925,-0.456976 -0.28753,-0.62527 0.4453,-0.8169 1.16281,-0.304076 1.22204,-0.234603 0.56546,0.663343 -0.44906,0.614135 -0.60843,0.638347 -1.01076,0.153635 z m 1.19727,-1.648255 c 0,-1.337084 3.12328,-4.829655 4.31898,-4.829655 0.73825,0 3.13963,1.238122 3.13963,1.618765 0,0.771389 -0.61485,0.781114 -1.67466,0.02647 -0.63065,-0.449067 -1.29307,-0.816492 -1.47203,-0.816492 -0.17895,0 -1.22234,0.970582 -2.31865,2.15685 -1.09629,1.186251 -1.99327,2.016087 -1.99327,1.844065 z m 2.86956,-0.299534 c -0.3248,-0.205568 -0.38348,-0.376603 -0.13046,-0.380096 0.25309,-0.0031 1.13878,-0.466889 1.96824,-1.029781 1.88806,-1.281268 1.99359,-0.688322 0.13046,0.732799 -0.95027,0.724813 -1.5609,0.93486 -1.96824,0.677078 z m 77.2537,10.808161 c 1.39714,-1.47441 1.68122,-2.49289 0.69532,-2.49289 -0.19166,0 -1.00111,0.65262 -1.79878,1.45028 -0.79765,0.79766 -1.702,1.44614 -2.00966,1.44108 -0.31315,-0.005 -0.10337,-0.36594 0.47652,-0.81953 0.80883,-0.63268 0.88232,-0.81233 0.33523,-0.81952 -0.38538,-0.005 -0.81593,0.17725 -0.95679,0.40515 -0.14079,0.22791 -0.4704,0.41437 -0.73233,0.41437 -0.26193,0 0.21567,-0.65263 1.06134,-1.45029 0.93727,-0.88407 1.29453,-1.45028 0.91506,-1.45028 -0.34238,0 -0.62251,-0.18646 -0.62251,-0.41436 0,-0.65905 -1.16962,-0.48106 -2.04215,0.31076 -1.57878,1.43281 -2.10153,1.78781 -2.10153,1.42726 0,-0.20157 0.37293,-0.70398 0.82874,-1.11648 1.20954,-1.09462 1.0411,-1.36765 -1.03592,-1.67912 -1.21827,-0.182687 -1.86465,-0.486685 -1.86465,-0.876929 0,-0.633743 -3.41746,-2.312975 -5.73637,-2.818657 -1.2319,-0.268651 -1.51941,-0.148311 -2.59345,1.086004 -0.66438,0.76348 -1.41392,1.741736 -1.66569,2.173905 -0.4091,0.702307 -0.3537,0.753347 0.52163,0.480557 1.54627,-0.481873 3.96729,-0.675742 3.30888,-0.264966 -0.88095,0.549616 -0.10023,1.379976 1.03061,1.096156 0.5449,-0.13672 0.99071,-0.0885 0.99071,0.10712 0,0.19565 0.49234,0.58006 1.09407,0.85424 0.9573,0.43617 1.22331,0.37973 2.12806,-0.45145 1.00208,-0.92059 1.01975,-0.92249 0.57212,-0.0611 -0.36357,0.69961 -0.32931,0.99885 0.16097,1.40574 0.34257,0.28431 0.74435,0.39541 0.89287,0.2469 0.14846,-0.14847 0.65679,0.0897 1.12949,0.52945 0.77324,0.71923 4.66968,2.90033 5.22855,2.92675 0.12403,0.006 0.92931,-0.73218 1.78966,-1.64011 z m -5.53718,-1.2628 c 0,-0.22075 0.27971,-0.40137 0.62156,-0.40137 0.34185,0 0.62154,0.0733 0.62154,0.16286 0,0.0896 -0.27969,0.27017 -0.62154,0.40137 -0.34185,0.13124 -0.62156,0.0579 -0.62156,-0.16286 z m 1.2431,-1.18577 c 0,-0.51799 1.16973,-0.91263 1.43464,-0.48402 0.11996,0.19407 -0.0758,0.46562 -0.43499,0.60345 -0.86861,0.33334 -0.99965,0.31767 -0.99965,-0.11949 z m -4.14367,-0.85497 c 0,-0.22181 0.37294,-0.60289 0.82874,-0.84683 0.4558,-0.24394 0.82873,-0.29535 0.82873,-0.11417 0,0.18111 -0.37293,0.56217 -0.82873,0.84683 -0.45907,0.28669 -0.82874,0.33765 -0.82874,0.11417 z m -2.27902,-0.84683 c 0.4125,-0.4558 0.82089,-0.828722 0.90753,-0.828722 0.0866,0 -0.042,0.372922 -0.28597,0.828722 -0.24394,0.4558 -0.65233,0.82874 -0.90755,0.82874 -0.25519,0 -0.12654,-0.37294 0.28599,-0.82874 z m -2.07182,-0.828722 c 0.14079,-0.227901 0.44255,-0.414378 0.67045,-0.414378 0.2279,0 0.29913,0.186477 0.15827,0.414378 -0.14079,0.227902 -0.44255,0.414362 -0.67045,0.414362 -0.2279,0 -0.29913,-0.18646 -0.15827,-0.414362 z m 0.41436,-1.243101 c -0.67559,-0.290311 -0.69926,-0.361506 -0.12811,-0.385248 0.38537,-0.01597 0.81593,0.157347 0.95678,0.385248 0.29448,0.476474 0.28007,0.476474 -0.82873,0 z m -3.52213,-0.577222 c 0,-0.658394 1.1199,-1.205312 1.71499,-0.837526 0.51311,0.317122 -0.37458,1.414748 -1.14417,1.414748 -0.31394,0 -0.57082,-0.259756 -0.57082,-0.577222 z m -93.72564,5.179975 c 5.63342,-1.15994 9.9168,-2.24665 10.27763,-2.60748 0.34027,-0.34027 0.77764,-1.743364 0.97194,-3.117988 0.61049,-4.318993 4.04461,-8.336368 9.74352,-11.398368 3.17492,-1.705872 3.31675,-1.845303 3.66244,-3.600538 0.28542,-1.449296 0.17148,-2.432251 -0.55237,-4.765226 -2.09825,-6.762472 -3.78152,-11.181116 -4.45395,-11.691794 -1.02467,-0.77817 -3.545,-0.69537 -8.67236,0.284923 -5.65913,1.081964 -8.23703,1.824113 -12.14239,3.495672 -6.48376,2.775166 -10.78107,6.500837 -13.22249,11.46358 -1.17489,2.38829 -1.41327,3.426372 -1.76021,7.665806 -0.22071,2.696892 -0.29155,5.616846 -0.15741,6.488794 0.49506,3.218298 4.51778,9.830489 5.95638,9.790579 0.37967,-0.011 5.03685,-0.91411 10.34927,-2.00796 z m 7.84806,-17.896461 c -0.39883,-0.231879 -0.72514,-0.609798 -0.72514,-0.839828 0,-0.230031 0.1879,-0.302103 0.41754,-0.160166 0.22965,0.141889 0.70913,-0.03352 1.06552,-0.389915 0.72656,-0.726567 1.83188,-0.867517 1.83188,-0.233602 0,0.227901 -0.25899,0.414362 -0.57552,0.414362 -0.31652,0 -0.54961,0.306238 -0.51796,0.680539 0.0724,0.855128 -0.55409,1.07642 -1.49632,0.52861 z m -1.85804,-1.08599 c -0.32293,-0.118554 -0.0719,-0.557583 0.68137,-1.191404 1.28774,-1.083546 2.30341,-1.280343 2.76377,-0.535469 0.1772,0.286724 0.0662,0.387033 -0.28632,0.258878 -0.31661,-0.115109 -1.04179,0.210392 -1.61156,0.723293 -0.56975,0.512886 -1.26602,0.848003 -1.54726,0.744702 z m -0.80105,-1.59474 c 0.72113,-0.683013 1.32199,-0.963598 1.55803,-0.727553 0.23605,0.236044 -0.21664,0.664799 -1.17381,1.111767 l -1.55802,0.727569 z m -4.08559,0.210329 c -0.42357,-0.685362 0.59238,-1.594193 2.0978,-1.87661 2.14804,-0.402976 2.53476,0.184206 0.86749,1.317147 -1.56987,1.066758 -2.53879,1.24957 -2.96529,0.559463 z m 1.70804,-0.870884 c 0.78514,-0.884258 0.78438,-0.886404 -0.14298,-0.399781 -0.51278,0.269089 -0.93232,0.669152 -0.93232,0.889034 0,0.588655 0.19834,0.498416 1.07529,-0.489253 z m -8.75707,-1.32656 c -1.76933,-1.529465 -1.75948,-2.496132 0.0324,-3.177391 2.73125,-1.038426 5.16496,0.0592 3.70592,1.671449 -0.40863,0.451542 -0.92942,0.820972 -1.15734,0.820972 -0.2279,0 -0.0728,-0.377339 0.3445,-0.838528 1.03547,-1.144186 0.26401,-1.978704 -1.31051,-1.417645 -1.31727,0.469396 -2.28693,1.848702 -1.50088,2.13494 1.0542,0.38387 2.30878,1.650808 1.89063,1.909232 -0.23368,0.144395 -1.13578,-0.351937 -2.00468,-1.103029 z m 3.12375,0.644315 c 0,-0.520044 2.6685,-2.986764 3.23108,-2.986764 0.97229,0 0.47557,0.68887 -1.15924,1.607692 -0.91161,0.512338 -1.65747,1.008185 -1.65747,1.101854 0,0.500639 2.77377,-0.486654 3.34332,-1.19001 0.40192,-0.496364 0.7733,-0.655434 0.93174,-0.399077 0.14486,0.234447 -0.0584,0.706082 -0.45193,1.048089 -0.79152,0.688009 -4.2375,1.353387 -4.2375,0.818216 z M 328.79595,93.86044 c 2.47501,-0.734992 4.41367,-2.53505 4.75231,-4.41249 0.39237,-2.175439 -0.0299,-7.186732 -0.71766,-8.516721 -1.00524,-1.943921 -3.38847,-3.751355 -5.91486,-4.485799 -1.99949,-0.581263 -2.79394,-0.609014 -5.48852,-0.191677 -4.08226,0.632271 -7.29988,2.158024 -8.19293,3.884976 -0.41666,0.805749 -0.753,2.749639 -0.87313,5.046343 -0.19511,3.730087 -0.19329,3.738497 1.20255,5.559729 1.41354,1.844316 3.49548,3.188745 5.88965,3.803256 1.7438,0.44758 6.76421,0.07815 9.34259,-0.687617 z m -0.16112,-7.642878 c -0.14142,-0.228746 -0.66514,-0.320129 -1.16395,-0.203062 -1.04461,0.245128 -2.48966,-0.549439 -1.63208,-0.897413 0.74699,-0.303106 0.63735,-0.969847 -0.15947,-0.969847 -0.48797,0 -0.36381,-0.246694 0.44391,-0.88205 0.90106,-0.708775 1.21731,-0.778201 1.60976,-0.353393 0.38514,0.416899 0.33509,0.474736 -0.23673,0.273522 -0.39883,-0.140324 -0.74068,-0.121217 -0.75968,0.0426 -0.20871,1.79987 -0.20289,2.162425 0.0348,2.162425 0.15176,0 0.41591,-0.139854 0.58684,-0.310779 0.29618,-0.296184 0.46241,-0.346644 1.53554,-0.466154 0.33975,-0.0379 0.3369,-0.206288 -0.011,-0.624957 -0.36818,-0.443632 -0.32516,-0.630924 0.19033,-0.828739 0.95957,-0.368225 1.01261,-0.339753 1.01261,0.543566 0,0.439529 -0.29159,1.090719 -0.64797,1.447103 -0.35639,0.356385 -0.53184,0.835866 -0.38992,1.06552 0.14189,0.229639 0.16483,0.417541 0.0509,0.417541 -0.11401,0 -0.32285,-0.18715 -0.46423,-0.415881 z m -6.19145,-2.447301 c -0.12811,-0.207337 -0.12545,-0.65714 0.006,-0.999571 0.20296,-0.528891 -0.003,-0.561028 -1.37265,-0.213539 -1.37569,0.349196 -1.83971,0.274461 -3.17031,-0.510615 -1.50001,-0.885041 -1.53022,-0.946762 -0.80143,-1.6382 0.89839,-0.852388 3.03634,-1.438146 3.03634,-0.831919 0,0.22956 0.32631,0.372969 0.72514,0.318672 0.97634,-0.132963 1.16902,0.628779 0.28949,1.144405 -0.50336,0.295072 -0.76107,0.265253 -0.89527,-0.10352 -0.26186,-0.719816 -1.77684,-0.652348 -1.77684,0.07909 0,0.964584 0.56599,1.065238 3.2909,0.585256 1.89152,-0.333175 2.69927,-0.33034 3.04031,0.01096 0.34298,0.342978 0.33439,0.464415 -0.0329,0.464415 -0.27347,0 -0.56181,-0.04667 -0.64074,-0.10352 -0.0789,-0.05701 -0.45393,0.153949 -0.83333,0.468909 -0.6419,0.532745 -0.63913,0.610988 0.0399,1.126333 0.67085,0.509127 0.6732,0.554889 0.0291,0.567011 -0.38537,0.0078 -0.80553,-0.156455 -0.93367,-0.363808 z m -32.55094,7.659166 c 10.44406,-1.995634 11.58461,-2.311958 12.30609,-3.41306 0.44064,-0.672504 0.67418,-2.009353 0.69773,-3.993867 0.0316,-2.661248 -0.15774,-3.416599 -1.75511,-7.002589 -3.28089,-7.36541 -8.70273,-11.819057 -17.49779,-14.373151 -9.26121,-2.689469 -14.49517,-2.778204 -26.12953,-0.44299 -5.93814,1.191874 -5.44962,0.674305 -5.22324,5.533873 0.15207,3.263997 0.48017,5.007017 1.49,7.915068 0.71227,2.051121 1.29729,4.123714 1.30003,4.605748 0.003,0.482049 0.39147,1.367764 0.86381,1.968242 0.81871,1.040838 1.04024,1.0918 4.74481,1.0918 5.00749,0 7.51037,0.53691 11.5926,2.486767 2.67843,1.279325 3.78542,2.116459 5.76514,4.359743 l 2.45022,2.776388 1.90064,-0.221543 c 1.04535,-0.121843 4.41793,-0.702542 7.4946,-1.290429 z M 276.82375,76.662524 c -0.31912,-0.516347 0.94694,-2.045734 1.69349,-2.045734 0.74483,0 1.10949,1.252765 0.55808,1.917172 -0.56079,0.675715 -1.86732,0.750309 -2.25157,0.128578 z m 1.88079,-0.789618 c 0,-0.220759 -0.2797,-0.294037 -0.62155,-0.16286 -0.34185,0.13124 -0.62155,0.311797 -0.62155,0.401363 0,0.08958 0.2797,0.16286 0.62155,0.16286 0.34185,0 0.62155,-0.180619 0.62155,-0.401363 z m -6.32574,-1.188601 c -1.07948,-0.711813 -1.10358,-0.791763 -0.41438,-1.374482 0.40249,-0.340285 1.07152,-0.542094 1.48673,-0.448472 0.73035,0.164676 0.73035,0.189045 0,0.747771 -0.65754,0.503051 -0.67475,0.631472 -0.13344,0.995453 0.34186,0.229826 0.90125,0.302635 1.24311,0.161763 1.27575,-0.525681 2.4862,-0.647227 2.4862,-0.249638 0,0.369164 -1.86087,0.933105 -3.05596,0.926105 -0.25638,-0.0015 -0.98193,-0.342838 -1.61231,-0.7585 z m 8.50117,-2.017403 c -1.03293,-0.198959 -1.28623,-0.950677 -0.32033,-0.950677 0.68431,0 2.12795,-1.956215 1.73421,-2.349951 -0.13875,-0.138758 -0.95103,0.426484 -1.80511,1.256038 -0.85407,0.829553 -1.66298,1.508275 -1.79759,1.508275 -0.13452,0 -0.64284,-0.370902 -1.12943,-0.824229 -0.49263,-0.458965 -1.16996,-0.714758 -1.52841,-0.577222 -0.867,0.332705 -0.81697,-0.390291 0.0814,-1.176604 1.23797,-1.083515 5.09513,-2.726116 5.90447,-2.514472 1.12078,0.293083 1.49374,2.992058 0.64124,4.640594 -0.36425,0.704375 -0.70409,1.255286 -0.75521,1.224246 -0.0511,-0.03101 -0.51249,-0.137192 -1.02527,-0.235998 z m -1.99654,-2.325285 c -0.11433,-0.297796 0.14674,-0.545398 0.6118,-0.580432 0.88543,-0.06672 2.67622,-1.633502 2.19835,-1.923405 -0.16261,-0.09866 -1.04151,0.154105 -1.95313,0.561733 -0.9116,0.407612 -2.00478,0.856663 -2.42928,0.997895 -0.62848,0.209108 -0.67748,0.370448 -0.26382,0.868879 0.27939,0.336636 0.67333,0.509895 0.87541,0.384998 0.20207,-0.12482 0.36741,-0.01864 0.36741,0.236201 0,0.254806 0.17831,0.35308 0.39627,0.218378 0.21794,-0.134685 0.3066,-0.478619 0.19699,-0.764247 z m 67.8992,6.752277 c 3.16536,-0.457696 5.39206,-1.452318 6.92237,-3.092116 0.9583,-1.026884 1.0359,-1.412837 1.0359,-5.151914 0,-3.815785 -0.0695,-4.142288 -1.2431,-5.837072 -1.87404,-2.706367 -4.79172,-3.936188 -9.32325,-3.929798 -4.0171,0.0063 -6.09913,0.826108 -8.09084,3.188212 -1.72762,2.048929 -2.26834,3.71994 -2.26834,7.009981 0,2.531636 0.15411,3.180335 1.02704,4.324897 1.80919,2.371971 4.04859,3.362114 8.71058,3.851383 0.22792,0.02396 1.68124,-0.139697 3.22964,-0.363573 z m -2.00753,-7.898827 c -0.0827,-0.13312 0.67014,-1.047275 1.67283,-2.031358 1.79713,-1.763739 1.83818,-1.779338 2.8826,-1.095009 0.58274,0.381833 1.05952,0.937114 1.05952,1.233986 0,0.655293 -1.97297,2.578698 -2.30478,2.246886 -0.12999,-0.129988 0.1867,-0.630219 0.70358,-1.111752 0.87414,-0.814394 0.89191,-0.923411 0.2546,-1.560709 -0.6373,-0.637314 -0.77595,-0.596407 -1.98494,0.585601 -1.19231,1.16572 -1.23817,1.305229 -0.55454,1.687799 0.63072,0.352986 0.56671,0.407032 -0.4167,0.351874 -0.63905,-0.03586 -1.22952,-0.174136 -1.31217,-0.307318 z m -2.81051,-1.070015 c -0.55234,-0.552352 -0.25271,-1.442609 0.82017,-2.436933 1.2528,-1.161038 2.69857,-1.314 3.48324,-0.368522 0.47176,0.56842 0.39806,0.612616 -0.60273,0.361427 -1.29252,-0.324404 -3.14819,0.473326 -3.14819,1.353356 0,0.310685 0.41955,0.73352 0.93233,0.939636 0.91686,0.368537 0.91457,0.375178 -0.13813,0.401003 -0.58874,0.0141 -1.19476,-0.09804 -1.34669,-0.249967 z m -3.50831,-1.878473 c -0.71661,-0.716606 -0.61442,-1.457409 0.3315,-2.403325 0.977,-0.977003 2.99726,-1.089246 3.7293,-0.207181 0.32529,0.391935 0.35305,0.621543 0.0752,0.621543 -0.24236,0 -0.55589,-0.186461 -0.69675,-0.414362 -0.65216,-1.055231 -3.10775,0.104773 -3.10775,1.468027 0,0.319064 0.60601,0.755085 1.34669,0.968953 l 1.3467,0.38885 -1.26382,0.03743 c -0.69511,0.02052 -1.48759,-0.186383 -1.76107,-0.459873 z m -6.45827,10.261041 c 0.12764,-0.332595 0.53342,-0.498243 0.91932,-0.375287 0.42227,0.134529 0.51801,0.0841 0.24626,-0.129831 -0.61323,-0.482566 -1.06179,-1.800152 -0.61285,-1.800152 0.20176,0 0.46163,0.191128 0.57747,0.42473 0.11589,0.233601 0.16367,0.190611 0.10634,-0.09553 -0.0575,-0.286129 -0.74265,-0.565664 -1.52279,-0.621167 -1.09204,-0.07768 -1.25921,-0.0078 -0.72648,0.304734 0.6318,0.370385 0.61498,0.492119 -0.19327,1.39954 -0.88081,0.988859 -0.88888,0.989705 -1.60232,0.167104 -0.39438,-0.45472 -0.93112,-0.694461 -1.19277,-0.53276 -0.63899,0.394927 1.57968,1.84759 2.82735,1.851192 0.51993,0.0015 1.04815,-0.26519 1.1738,-0.592648 z m -4.96605,-7.173999 c 1.45968,-2.00146 1.47183,-2.471169 0.0713,-2.751299 -2.3559,-0.471181 -3.48261,-0.274054 -4.4757,0.783056 -0.90494,0.963253 -0.91727,1.036797 -0.17583,1.048512 0.7402,0.01096 0.74538,0.04291 0.0722,0.434956 -1.3163,0.766675 -0.82957,1.332527 0.90731,1.054792 0.93959,-0.15019 1.7414,-0.08473 1.88911,0.154262 0.41169,0.666115 0.82534,0.491086 1.71168,-0.724233 z m -6.06198,-0.542423 c 0,-0.214448 -0.30693,-0.389915 -0.68206,-0.389915 -0.52051,0 -0.42236,-0.240665 0.41438,-1.016125 0.60303,-0.558867 1.09642,-1.217355 1.09642,-1.463297 0,-0.489927 -0.0224,-0.498415 -3.31494,-1.25455 -1.25346,-0.287867 -2.77487,-0.871385 -3.38091,-1.296709 -0.60604,-0.425325 -1.39852,-0.65949 -1.76106,-0.520373 -0.93445,0.358593 -0.81781,0.993025 0.18258,0.993025 1.37189,0 1.45352,1.171718 0.17462,2.50661 -1.34348,1.402281 -1.14444,2.011592 0.33948,1.039287 0.90586,-0.593541 1.06894,-0.597064 1.53697,-0.0332 0.47815,0.576141 2.07959,0.906074 2.07959,0.428441 0,-0.631347 -1.46284,-1.763223 -2.02918,-1.570074 -0.44958,0.153322 -0.39643,0.01253 0.16452,-0.437572 0.4558,-0.365264 1.10844,-0.655324 1.45029,-0.644581 0.42147,0.01253 0.45483,0.08676 0.10352,0.228543 -1.22553,0.4945 -0.40406,0.991709 1.23469,0.747286 1.70596,-0.254446 1.73353,-0.240288 1.03501,0.53157 -0.39471,0.436147 -0.59291,0.917695 -0.44048,1.070125 0.15238,0.152382 0.0597,0.277154 -0.20629,0.277154 -0.8369,0 -0.52478,0.839812 0.44891,1.207802 0.99451,0.375867 1.55386,0.23061 1.55386,-0.403525 z m -77.35883,-5.799376 c 4.09374,-0.600416 7.07078,-1.850769 8.62721,-3.623451 1.2758,-1.453055 1.29389,-1.533287 1.03536,-4.591685 -0.43248,-5.116284 -2.34668,-7.560281 -6.40222,-8.17415 -2.41751,-0.365922 -8.4047,0.463992 -10.71376,1.485098 -2.46294,1.089168 -3.03359,2.435351 -3.03359,7.156412 v 3.872979 l 1.5982,1.560584 c 0.879,0.858339 2.41734,1.816032 3.41853,2.128221 2.28832,0.713537 1.95144,0.702088 5.47027,0.185992 z m 2.97994,-9.377394 c 0.6837,-0.365844 1.36211,-0.848442 1.50755,-1.072411 0.14549,-0.22397 0.48947,-0.26815 0.7645,-0.0982 0.63821,0.394441 -1.50405,1.869422 -2.68642,1.849642 -0.66465,-0.01096 -0.58262,-0.145492 0.41437,-0.679051 z m -3.52213,-0.544725 c 0,-0.227901 0.18648,-0.414362 0.41438,-0.414362 0.2279,0 0.41436,0.186461 0.41436,0.414362 0,0.2279 -0.18646,0.414361 -0.41436,0.414361 -0.2279,0 -0.41438,-0.186461 -0.41438,-0.414361 z m 1.2431,0.172773 c 0,-0.158725 0.32632,-0.551882 0.72515,-0.873687 0.67865,-0.547591 0.67201,-0.57185 -0.10352,-0.378545 -0.45581,0.113543 -1.52798,0.330465 -2.38261,0.481924 -1.39595,0.247414 -1.55388,0.185584 -1.55388,-0.60834 0,-1.05816 1.67721,-1.952238 2.77056,-1.476891 0.63324,0.275322 0.56125,0.365436 -0.45735,0.572429 -0.66491,0.135156 -1.28916,0.486905 -1.38725,0.781725 -0.1845,0.554561 0.98681,0.405341 3.18333,-0.405591 0.58386,-0.215544 1.10228,-0.216155 1.2431,-0.0015 0.13281,0.202561 0.52127,0.474767 0.86312,0.604895 0.4464,0.169939 0.38482,0.245817 -0.21857,0.269325 -0.46208,0.01801 -1.25455,0.322979 -1.76106,0.67775 -0.50651,0.354787 -0.92094,0.515188 -0.92094,0.356463 z m -7.85572,-1.528353 c 0.009,-0.27999 0.64942,-1.224684 1.42206,-2.099326 1.14407,-1.295113 1.54296,-1.512959 2.14914,-1.173723 0.67528,0.377903 0.63946,0.464352 -0.38614,0.931633 -1.0098,0.460108 -1.2947,0.857227 -1.19879,1.67101 0.0164,0.139228 -0.42768,0.461486 -0.98684,0.716262 -0.77947,0.355147 -1.01265,0.34445 -0.99943,-0.04589 z m 3.76454,-0.923443 c 0.36747,-0.455801 0.75154,-1.099238 0.8535,-1.429876 0.11699,-0.379124 0.2852,-0.439623 0.45567,-0.163815 0.14863,0.240524 -0.23543,0.883961 -0.8535,1.429876 -0.78125,0.690029 -0.92013,0.739957 -0.45567,0.163815 z m 88.70528,12.172779 c 4.9759,-1.054667 7.30576,-3.286596 7.67437,-7.351753 0.30539,-3.367767 -0.11761,-5.207213 -1.58071,-6.873572 -1.68463,-1.918691 -4.29082,-3.098177 -7.50988,-3.398777 -4.74841,-0.443413 -8.76332,1.536027 -10.33856,5.097147 -0.71608,1.618765 -0.80243,3.920089 -0.36582,9.747232 0.0312,0.415317 2.82444,2.063587 4.53001,2.673087 1.87632,0.670499 4.74052,0.710733 7.59059,0.106652 z m 1.15991,-9.040617 c -0.34185,-0.186023 -1.33463,-0.64411 -2.20617,-1.017988 -1.54389,-0.662325 -1.60476,-0.655622 -2.36882,0.260491 -0.43132,0.517146 -0.79042,0.707194 -0.798,0.422318 -0.009,-0.325736 -0.62889,-0.51796 -1.67126,-0.51796 -1.19706,0 -1.65746,-0.172649 -1.65746,-0.621543 0,-0.871604 1.4331,-2.206934 2.7134,-2.528254 1.16481,-0.292361 3.71774,0.620306 2.72904,0.97561 -0.31125,0.11182 -0.71078,-0.03101 -0.88786,-0.317592 -0.3728,-0.603219 -1.87246,-0.32525 -3.10366,0.575249 -0.9952,0.727913 -0.79591,0.990895 1.02718,1.355517 1.2665,0.253303 1.36229,0.201809 1.14809,-0.617236 -0.22908,-0.876005 0.0983,-1.174537 0.66588,-0.607057 0.1576,0.157598 1.50917,0.670375 3.00351,1.139504 1.49432,0.469144 2.7157,1.034792 2.71416,1.256992 -0.003,0.548484 -0.55674,0.650767 -1.30803,0.241949 z m -111.23152,1.529481 1.21704,-1.3467 -1.3467,1.217026 c -1.2553,1.13446 -1.53715,1.476358 -1.21702,1.476358 0.0713,0 0.67733,-0.606007 1.34668,-1.346684 z m 87.94753,-1.855843 c 2.73906,-0.863413 5.87126,-3.531238 7.07524,-6.02629 1.13198,-2.345817 1.30357,-7.669282 0.29675,-9.205889 -3.64501,-5.562987 -14.44976,-5.696247 -20.64739,-0.254665 -2.88864,2.536271 -3.95358,6.707548 -2.78589,10.912089 1.16923,4.210039 9.60019,6.611437 16.06129,4.574755 z m -4.47862,-8.853984 c -0.4807,-0.341475 -0.36899,-0.386626 0.49298,-0.199209 0.81734,0.177707 1.425,-0.0249 2.27901,-0.759972 1.21632,-1.046883 1.08508,-2.035992 -0.13641,-1.028246 -0.63484,0.523739 -0.65539,0.49439 -0.22263,-0.317937 0.32792,-0.615497 0.73728,-0.826844 1.31095,-0.676826 1.22102,0.319314 1.02159,1.179439 -0.55165,2.379409 -1.50627,1.1489 -2.21414,1.283398 -3.17224,0.602781 z m -3.27571,-0.73601 c -0.96412,-0.269763 -2.07437,-1.488354 -1.68204,-1.846164 0.10587,-0.09663 0.65869,-0.312941 1.22844,-0.480812 0.847,-0.24956 0.94147,-0.206054 0.51796,0.238581 -0.78853,0.827894 -0.63899,1.151484 0.82874,1.793355 1.39234,0.608905 0.85862,0.785218 -0.8931,0.29504 z m 3.37931,-3.097378 c -0.74068,-0.242998 -1.3467,-0.589704 -1.3467,-0.77048 0,-0.47317 1.14677,-0.40542 1.45029,0.08567 0.1408,0.227901 0.60701,0.414362 1.03591,0.414362 0.42891,0 0.89508,0.186461 1.03592,0.414362 0.30682,0.496442 -0.35729,0.452497 -2.17542,-0.143926 z m -4.24727,-0.477602 c 0.55588,-0.669794 2.07184,-0.856757 2.07184,-0.255511 0,0.201324 -0.41954,0.478479 -0.93232,0.615889 -1.45136,0.388944 -1.69694,0.311281 -1.13952,-0.360378 z m 6.74423,-0.258565 c -0.24856,-0.248573 -1.07523,-0.615153 -1.83702,-0.814644 -1.36925,-0.35853 -1.36654,-0.360566 0.23662,-0.177738 1.55539,0.177378 2.69522,0.801458 2.25953,1.237134 -0.11401,0.114013 -0.41056,0.0031 -0.65913,-0.244752 z m 69.10714,11.681662 c -5.80703,-7.331973 -29.95418,-19.935402 -51.61088,-26.937927 -2.96274,-0.957976 -5.75971,-1.897157 -6.21551,-2.08708 -4.48868,-1.870329 -28.63285,-7.453472 -30.10714,-6.962026 -0.23475,0.07831 1.96816,0.570973 4.89535,1.094947 5.79863,1.037988 17.87481,4.117074 25.41897,6.481152 11.12168,3.485132 23.27368,8.354817 33.38272,13.377495 10.70094,5.316778 16.34112,8.896911 22.5538,14.31616 1.47967,1.290711 2.75399,2.34674 2.83179,2.34674 0.0778,0 -0.43929,-0.733253 -1.1491,-1.629461 z M 272.95279,50.5835 c 1.15327,-0.911603 2.52633,-1.657464 3.05123,-1.657464 1.3869,0 1.64966,-1.105017 0.34088,-1.433494 -0.77327,-0.194072 -1.27632,-0.03571 -1.85321,0.583549 -0.92821,0.996314 -1.05306,1.008107 -2.41703,0.228386 -0.79062,-0.451948 -0.86421,-0.595655 -0.31078,-0.606868 0.99284,-0.02005 0.92426,-1.257776 -0.0697,-1.257776 -1.08261,0 -2.10573,0.424197 -2.10573,0.873061 0,0.203516 0.2797,0.370041 0.62156,0.370041 0.34185,0 0.62154,0.201997 0.62154,0.448894 0,0.246898 -0.13986,0.380753 -0.31078,0.297483 -2.17384,-1.059161 -2.5935,-1.382141 -2.41163,-1.856109 0.25407,-0.662058 0.0459,-0.682292 -1.13771,-0.110567 -0.87432,0.422364 -0.87775,0.415317 -0.1007,-0.207181 0.44237,-0.354427 0.98766,-0.644409 1.21173,-0.644409 0.22406,0 -0.0305,-0.466153 -0.56579,-1.03592 -1.089,-1.159174 -2.30433,-1.410707 -1.91509,-0.396352 0.15728,0.409867 -0.28801,1.107931 -1.23992,1.943718 -1.35015,1.185437 -1.42091,1.351257 -0.77745,1.821764 0.46062,0.336808 1.41578,0.433782 2.73454,0.277593 1.3805,-0.163502 2.02664,-0.08958 2.02664,0.232051 0,0.259646 -0.16651,0.472089 -0.37002,0.472089 -0.5231,0 -0.89179,1.126552 -0.60947,1.862264 0.13061,0.340551 0.42443,0.503709 0.65279,0.362571 0.25524,-0.157739 0.19938,-0.389962 -0.14503,-0.602797 -0.9609,-0.593885 0.86113,-1.653407 2.33636,-1.358618 1.93376,0.386407 2.01264,0.572665 0.78519,1.85387 -1.67214,1.745338 -0.47699,1.464596 1.95759,-0.459826 z m -45.63318,-4.247265 c 2.81989,-3.019699 4.23841,-4.651275 3.15227,-3.625707 -2.18866,2.066548 -8.72491,9.116073 -8.45234,9.116073 0.0951,0 2.48016,-2.470667 5.30007,-5.490366 z m 41.85448,0.286316 c 0,-0.355288 -0.18951,-0.528876 -0.42112,-0.385733 -0.23163,0.143143 -0.31385,0.43386 -0.18274,0.646005 0.35521,0.574748 0.60386,0.467579 0.60386,-0.260272 z m 11.48822,-0.768929 c 4.52428,-1.204466 6.02487,-3.01439 6.51673,-7.860145 0.5176,-5.099214 -2.1999,-7.728936 -8.31876,-8.050098 -2.95549,-0.155202 -3.67286,-0.04636 -5.64131,0.854768 -2.38132,1.090202 -3.63388,2.47997 -4.38751,4.868134 -0.66524,2.10805 -0.71119,5.500468 -0.0947,6.98887 1.25154,3.021516 6.8999,4.536416 11.92552,3.198471 z m -0.0841,-8.840641 c 0.32184,-1.641693 -0.30456,-1.770239 -1.01612,-0.208528 l -0.51859,1.138157 -0.81983,-1.012445 c -0.62751,-0.774943 -0.89903,-0.884274 -1.15747,-0.466106 -0.18571,0.30049 -0.59158,0.46169 -0.90195,0.358232 -1.00167,-0.333895 2.91922,-2.497839 4.02364,-2.220653 1.52257,0.382147 1.91661,1.522449 0.94522,2.73545 l -0.8189,1.022577 z m -1.25212,-0.932322 c 0.14079,-0.227916 0.0697,-0.414378 -0.15827,-0.414378 -0.2279,0 -0.52962,0.186462 -0.67047,0.414378 -0.1408,0.227901 -0.0697,0.414362 0.15829,0.414362 0.2279,0 0.52959,-0.186461 0.67045,-0.414362 z m -7.87297,0.414362 c -0.1408,-0.227901 0.0236,-0.414362 0.36545,-0.414362 0.34185,0 0.73679,0.186461 0.87765,0.414362 0.14079,0.227901 -0.0236,0.414362 -0.36547,0.414362 -0.34185,0 -0.73679,-0.186461 -0.87763,-0.414362 z m 2.17542,-0.863272 c -0.92512,-1.013228 -0.91807,-1.063046 0.25988,-1.834873 0.80492,-0.527404 1.18373,-0.554874 2.07183,-0.15019 1.0922,0.497632 1.30554,0.834048 0.8303,1.309285 -0.1411,0.141107 -0.52732,-0.01409 -0.85832,-0.345312 -0.65614,-0.656123 -2.20009,-0.823289 -2.20009,-0.23819 0,0.200008 0.27969,0.595765 0.62154,0.879482 0.65343,0.542282 0.83988,1.26736 0.31078,1.208568 -0.17092,-0.01895 -0.63709,-0.391919 -1.03592,-0.828739 z m -15.16515,8.207743 c 3.17299,-1.558204 3.62261,-2.366114 3.72353,-6.690839 0.076,-3.252345 -0.003,-3.651343 -0.91934,-4.632763 -2.29879,-2.462868 -5.87966,-3.403365 -9.97228,-2.619181 -3.51682,0.673866 -5.49502,1.723522 -6.76194,3.587962 -0.88688,1.305167 -1.05002,2.015446 -1.05002,4.571404 0,3.422581 0.59057,4.710097 2.64864,5.774365 2.2048,1.140161 3.25963,1.337193 6.67461,1.246828 2.6695,-0.07063 3.77092,-0.31164 5.6568,-1.237776 z m -6.27834,-6.036251 c 0,-0.24768 0.36943,-0.648041 0.82096,-0.889692 0.45152,-0.241651 1.09668,-0.947451 1.43369,-1.568462 0.337,-0.620994 0.6202,-0.87317 0.62933,-0.560386 0.0141,0.482018 0.12341,0.482018 0.71767,0 0.47638,-0.386422 0.60136,-0.402694 0.38992,-0.05074 -0.20985,0.349274 -0.0254,0.51796 0.56646,0.51796 0.48271,0 0.7624,-0.186461 0.62156,-0.414362 -0.1408,-0.227916 0.0501,-0.414377 0.42443,-0.414377 1.08134,0 0.45705,0.999884 -0.87267,1.397692 -1.73622,0.519433 -2.73728,0.981702 -3.79903,1.754281 -0.53127,0.386595 -0.93232,0.484696 -0.93232,0.228088 z m -1.2431,-3.17288 c 0.53525,-0.569752 1.13145,-1.035905 1.32488,-1.035905 0.19343,0 0.0462,0.466153 -0.32708,1.035905 -0.37331,0.569767 -0.9695,1.03592 -1.32488,1.03592 -0.49803,0 -0.42307,-0.237422 0.32708,-1.03592 z m 2.27901,0.207196 c 0.14079,-0.227916 0.33832,-0.414377 0.43882,-0.414377 0.10055,0 0.18273,0.186461 0.18273,0.414377 0,0.227901 -0.19747,0.414362 -0.43882,0.414362 -0.24135,0 -0.32357,-0.186461 -0.18273,-0.414362 z m -4.36285,-1.851896 c 0.52866,-0.56272 1.1268,-0.920795 1.32921,-0.795694 0.20242,0.125132 -0.0872,0.585522 -0.64355,1.023156 -1.42659,1.122151 -1.82834,0.988875 -0.68566,-0.227462 z m 5.23564,0.366972 c -0.15489,-0.403556 -0.0623,-0.592993 0.24054,-0.492057 0.61941,0.206476 0.96046,1.148242 0.41582,1.148242 -0.22252,0 -0.51787,-0.295275 -0.65636,-0.656185 z m -2.1159,-0.83419 c -0.94245,-0.412498 -1.04267,-0.547074 -0.41436,-0.556424 0.87817,-0.01253 2.18202,0.641119 1.85265,0.929566 -0.10743,0.09397 -0.75457,-0.07392 -1.43829,-0.373142 z m -14.32217,3.021328 1.00939,-1.323772 -1.32017,1.217041 c -1.37346,1.266139 -1.5302,1.491847 -1.0094,1.453415 0.17092,-0.01253 0.76501,-0.618614 1.32018,-1.346684 z m 26.33883,-8.989531 c 0.2987,-0.483318 1.71536,-0.557833 1.96938,-0.10352 0.0955,0.170926 0.12169,0.0899 0.058,-0.180056 -0.0637,-0.269966 0.55365,-0.885871 1.37193,-1.368657 1.59853,-0.943159 1.45594,-1.683727 -0.33332,-1.731196 -0.54676,-0.01409 -1.40279,-0.217188 -1.90232,-0.450398 -0.74343,-0.347081 -1.1439,-0.225692 -2.20722,0.669028 -0.71446,0.601168 -1.47116,1.093036 -1.68158,1.093036 -0.9503,0 -0.2479,0.756464 0.96412,1.038333 0.91813,0.213508 1.11593,0.371529 0.62155,0.496536 -0.39882,0.100857 -0.72514,0.356165 -0.72514,0.567355 0,0.516598 1.54212,0.491462 1.86465,-0.03038 z m -1.2431,-2.071841 c 0.14079,-0.227901 0.44255,-0.414362 0.67046,-0.414362 0.22791,0 0.29912,0.186461 0.15828,0.414362 -0.1408,0.227901 -0.44257,0.414378 -0.67047,0.414378 -0.2279,0 -0.29913,-0.186477 -0.15827,-0.414378 z m 3.10776,-0.414362 c 0,-0.227901 0.19745,-0.414362 0.43881,-0.414362 0.24135,0 0.32359,0.186461 0.18273,0.414362 -0.14079,0.227901 -0.33833,0.414362 -0.43882,0.414362 -0.10055,0 -0.18272,-0.186461 -0.18272,-0.414362 z m -1.65748,-0.414362 c 0,-0.227916 0.19747,-0.414377 0.43882,-0.414377 0.24136,0 0.32358,0.186461 0.18274,0.414377 -0.1408,0.227901 -0.33833,0.414362 -0.43883,0.414362 -0.10054,0 -0.18273,-0.186461 -0.18273,-0.414362 z m 20.61959,-8.15769 c -0.39617,-0.103677 -1.14203,-0.107435 -1.65747,-0.0078 -0.51543,0.09914 -0.1913,0.183972 0.72032,0.188576 0.9116,0.0047 1.33333,-0.07643 0.93715,-0.180213 z m -4.66645,-0.563096 c -1.13952,-0.177487 -2.8177,-0.31103 -3.72931,-0.296762 l -1.65748,0.026 1.86466,0.289903 c 1.02556,0.15943 2.70374,0.292988 3.72931,0.296763 l 1.86464,0.0063 z"
       id="path11" /></g><metadata
     id="metadata182"><rdf:RDF><cc:Work
         rdf:about=""><cc:license
           rdf:resource="http://creativecommons.org/licenses/by-sa/4.0/" /><dc:publisher><cc:Agent><dc:title>OpenDataKerala.org</dc:title></cc:Agent></dc:publisher><dc:date>April 2026</dc:date><dc:title>Election Symbols of Kerala</dc:title><dc:creator><cc:Agent><dc:title>Manoj Karingamadathil</dc:title></cc:Agent></dc:creator></cc:Work><cc:License
         rdf:about="http://creativecommons.org/licenses/by-sa/4.0/"><cc:permits
           rdf:resource="http://creativecommons.org/ns#Reproduction" /><cc:permits
           rdf:resource="http://creativecommons.org/ns#Distribution" /><cc:requires
           rdf:resource="http://creativecommons.org/ns#Notice" /><cc:requires
           rdf:resource="http://creativecommons.org/ns#Attribution" /><cc:permits
           rdf:resource="http://creativecommons.org/ns#DerivativeWorks" /><cc:requires
           rdf:resource="http://creativecommons.org/ns#ShareAlike" /></cc:License></rdf:RDF></metadata></svg>
