<?xml version="1.0" encoding="UTF-8" standalone="no"?>
<!-- Created with Inkscape (http://www.inkscape.org/) -->

<svg
   width="1500"
   height="1500"
   viewBox="0 0 396.87499 396.875"
   version="1.1"
   id="svg5"
   xml:space="preserve"
   inkscape:version="1.2.2 (b0a8486541, 2022-12-01)"
   sodipodi:docname="kcm.svg"
   inkscape:export-filename="kcm.png"
   inkscape:export-xdpi="96"
   inkscape:export-ydpi="96"
   xmlns:inkscape="http://www.inkscape.org/namespaces/inkscape"
   xmlns:sodipodi="http://sodipodi.sourceforge.net/DTD/sodipodi-0.dtd"
   xmlns="http://www.w3.org/2000/svg"
   xmlns:svg="http://www.w3.org/2000/svg"
   xmlns:rdf="http://www.w3.org/1999/02/22-rdf-syntax-ns#"
   xmlns:cc="http://creativecommons.org/ns#"
   xmlns:dc="http://purl.org/dc/elements/1.1/"><title
     id="title186">Election Symbols of Kerala</title><sodipodi:namedview
     id="namedview7"
     pagecolor="#ffffff"
     bordercolor="#000000"
     borderopacity="0.25"
     inkscape:showpageshadow="2"
     inkscape:pageopacity="0.0"
     inkscape:pagecheckerboard="0"
     inkscape:deskcolor="#d1d1d1"
     inkscape:document-units="mm"
     showgrid="false"
     inkscape:zoom="0.35355339"
     inkscape:cx="-165.46299"
     inkscape:cy="974.39314"
     inkscape:window-width="1854"
     inkscape:window-height="1011"
     inkscape:window-x="0"
     inkscape:window-y="0"
     inkscape:window-maximized="1"
     inkscape:current-layer="layer1" /><defs
     id="defs2"><inkscape:path-effect
       effect="bspline"
       id="path-effect3248"
       is_visible="true"
       lpeversion="1"
       weight="33.333333"
       steps="2"
       helper_size="0"
       apply_no_weight="true"
       apply_with_weight="true"
       only_selected="false" /><inkscape:path-effect
       effect="bspline"
       id="path-effect577"
       is_visible="true"
       lpeversion="1"
       weight="33.333333"
       steps="2"
       helper_size="0"
       apply_no_weight="true"
       apply_with_weight="true"
       only_selected="false" /></defs><g
     inkscape:label="Layer 1"
     inkscape:groupmode="layer"
     id="layer1"><path
       style="fill:#000000;stroke-width:0.367938"
       d="m 169.94448,317.64031 c -0.56003,-1.06194 -2.31702,-3.70076 -3.90443,-5.86405 -3.69523,-5.0358 -4.45974,-6.66048 -4.45974,-9.47747 0,-2.24057 0.45173,-3.70279 3.98835,-12.9097 2.63005,-6.84687 4.21074,-18.89999 4.24455,-32.36571 0.0218,-8.70126 -0.33257,-13.59184 -1.83984,-25.38772 -1.56982,-12.28527 -2.52444,-15.44089 -5.34578,-17.67102 -3.95026,-3.1225 -7.73451,-3.64586 -29.19455,-4.03759 -17.78373,-0.32462 -21.95578,-0.68049 -29.6765,-2.53142 C 91.9359,204.56181 80.547225,198.54875 71.251519,190.23345 57.31957,177.77088 44.41185,160.3987 34.814139,141.19328 28.313797,128.18582 25.227874,119.17087 22.123761,104.12074 19.160964,89.755746 16.942127,83.738676 11.491588,75.288223 9.2818736,71.862318 9.2539636,71.786014 9.2539636,69.170319 c 0,-4.034126 -0.3570866,-3.946239 9.1984454,-2.263727 2.934317,0.516662 7.156401,1.12295 9.382427,1.347314 8.241608,0.830667 15.607479,1.47318 21.156434,1.845438 26.559304,1.781748 39.296588,4.218315 54.27086,10.381707 11.39933,4.691965 21.9141,10.547776 30.17091,16.802603 4.70409,3.563506 13.23997,12.087466 16.69216,16.668856 5.74371,7.62248 12.78558,20.84035 15.54055,29.17021 3.91573,11.83953 5.1042,20.07862 5.10987,35.42382 0.003,6.47438 -0.17871,9.94581 -0.74854,14.34958 -1.38258,10.68489 -1.08927,12.85972 2.33882,17.34206 4.89047,6.39442 6.43164,8.55207 6.87749,9.62844 0.62912,1.5188 0.93913,0.93239 1.26696,-2.39658 0.1395,-1.41654 1.81184,-15.04836 3.71628,-30.29288 3.28738,-26.31417 3.51426,-27.81209 4.4818,-29.58913 1.48885,-2.73448 1.80561,-2.83129 4.66243,-1.42489 1.33433,0.6569 2.56993,1.4739 2.74581,1.81559 0.43136,0.83801 -1.40726,18.88636 -3.81152,37.41504 -0.28883,2.22603 -0.62866,4.95796 -0.75514,6.07097 -0.34451,3.03156 -2.57225,19.87236 -3.62604,27.4114 -3.40267,24.34325 -5.1838,38.39161 -4.90311,38.67232 0.18095,0.18094 7.4765,-9.16238 9.48889,-12.15235 2.89128,-4.29578 6.14528,-13.86898 9.75661,-28.70379 4.04542,-16.61789 7.22212,-26.28045 11.8019,-35.89778 8.05663,-16.91851 20.72745,-33.37701 29.78051,-38.68276 1.60006,-0.93774 7.04849,-4.14916 12.10763,-7.13649 5.05915,-2.98733 10.52304,-6.21246 12.14197,-7.16697 1.61892,-0.95452 4.10251,-2.36513 5.51906,-3.13471 1.41657,-0.76957 4.06573,-2.262 5.88702,-3.31649 20.69932,-11.98454 28.61695,-15.69623 36.53833,-17.12875 6.70021,-1.21168 12.44802,-1.48168 22.94695,-1.07793 17.82592,0.68553 30.67579,0.37317 36.65162,-0.89092 1.47433,-0.31188 4.20628,-1.16201 6.07098,-1.88921 1.86467,-0.72719 4.51842,-1.67524 5.8972,-2.10678 2.28137,-0.71406 2.59577,-0.73495 3.49541,-0.23234 2.62271,1.46533 0.6748,8.05834 -5.63335,19.06711 -3.53585,6.17068 -4.76068,9.52303 -6.40713,17.53661 -2.37636,11.56618 -5.5212,20.70718 -10.88047,31.62608 -1.88724,3.84496 -4.61305,8.95367 -6.05744,11.35269 -3.13266,5.2031 -5.01738,8.8925 -7.45174,14.58695 -3.47735,8.13416 -8.47273,16.45324 -14.13998,23.54803 -3.51667,4.4025 -11.39756,12.1426 -16.01694,15.73079 -13.78647,10.7089 -30.73563,19.47566 -45.01344,23.28271 -13.14141,3.50403 -26.42689,4.89257 -39.00144,4.07628 -5.81561,-0.37754 -22.1725,-2.51759 -25.68393,-3.36039 -2.51976,-0.60475 -11.63357,-0.87798 -13.37539,-0.40099 -2.22461,0.60922 -4.83451,2.50224 -6.73866,4.88764 -2.14728,2.69006 -7.63285,12.35745 -9.91645,17.47613 -2.61566,5.86299 -2.93345,7.74043 -3.33964,19.73082 -0.19336,5.70765 -0.45735,10.83288 -0.5866,11.38938 l -0.23505,1.01183 -4.83228,-7.4e-4 -4.83228,-7.4e-4 -1.01825,-1.93079 z m 78.46919,-53.8872 c -0.30355,-0.11167 -3.5322,-1.57193 -7.17478,-3.24509 -9.24062,-4.24449 -15.55208,-6.06019 -21.06543,-6.06019 -6.63507,0 -16.36787,2.7806 -18.43003,5.26536 -0.37109,0.44714 -0.20383,0.4798 1.13314,0.22119 2.24766,-0.43474 8.93585,-0.40259 12.30408,0.0591 1.58298,0.21699 6.02402,0.94568 9.86897,1.61929 6.39761,1.12084 12.10539,1.87433 16.37324,2.16145 2.97816,0.20039 7.5554,0.18654 6.99081,-0.0212 z m 13.66288,-0.48451 c 3.10963,-0.41008 7.71515,-1.24289 10.23448,-1.85067 4.44279,-1.07182 10.8249,-2.93545 10.61054,-3.09835 -0.0581,-0.0442 -1.59584,0.0685 -3.41712,0.25039 -4.79081,0.4784 -9.96803,0.0644 -15.20845,-1.21627 l -4.53824,-1.10904 -2.63656,1.0856 c -3.60067,1.48255 -7.34619,2.26408 -10.98779,2.29269 l -3.05483,0.0239 2.75953,1.3016 c 4.13016,1.94811 7.36259,3.03655 9.06365,3.05193 0.83651,0.007 4.06517,-0.32177 7.17479,-0.73185 z m -62.96574,-6.68964 c 5.02689,-4.94848 7.61432,-11.71033 8.31943,-21.74143 0.29442,-4.18845 -0.19667,-12.77747 -0.63537,-11.11253 -0.15996,0.60709 -1.30523,5.24312 -2.54505,10.30226 -3.15716,12.88304 -5.23168,18.71156 -8.8251,24.79499 l -1.17125,1.98285 1.0485,-0.7544 c 0.57666,-0.41493 2.29065,-1.97719 3.80884,-3.47174 z m 51.87844,1.13629 c 2.94229,-0.53959 6.73825,-1.83024 6.37963,-2.16909 -0.16976,-0.16042 -2.50206,-0.97688 -5.18289,-1.81434 -3.751,-1.17179 -5.87075,-1.606 -9.19847,-1.88427 -5.48476,-0.45862 -8.37332,-0.82058 -17.9417,-2.24826 -4.86724,-0.72623 -8.22475,-1.06074 -9.06495,-0.90312 -0.87364,0.1639 -2.55575,1.22152 -4.87106,3.06264 -1.94513,1.54676 -3.49081,2.85809 -3.43485,2.91406 0.056,0.056 1.33901,-0.24761 2.85119,-0.67464 2.2972,-0.64868 3.77832,-0.77827 9.00439,-0.78782 5.88049,-0.0112 6.49726,0.0563 10.30227,1.12044 2.22603,0.62252 5.51856,1.66442 7.31676,2.31538 4.93435,1.78621 8.44877,2.05768 13.83968,1.06902 z m 29.25107,-0.7059 c 7.37211,-0.69465 10.16605,-1.46155 16.02655,-4.39902 2.91807,-1.46262 6.59892,-3.40533 8.17969,-4.3171 2.81304,-1.62257 3.51978,-2.32123 1.61581,-1.59735 -1.65003,0.62735 -12.72641,2.89104 -17.91139,3.66056 -7.70502,1.14356 -15.82406,1.64888 -26.91971,1.67542 -5.59822,0.0139 -10.15145,0.0434 -10.11831,0.0666 0.21219,0.14866 11.90581,3.52055 13.85793,3.99596 2.10815,0.51342 6.88581,1.10216 10.1183,1.24689 0.60709,0.0272 2.9251,-0.12224 5.15113,-0.33196 z M 208.4245,246.38839 c 3.55958,-8.9943 4.3318,-18.24542 2.70572,-32.41375 l -0.48562,-4.23129 -1.06727,3.31144 c -1.16567,3.61684 -1.20043,4.29105 -0.9106,17.66102 0.10527,4.85521 -0.0112,7.07835 -0.52056,9.93435 -0.74284,4.16545 -1.78227,7.77065 -2.86423,9.93432 l -0.73594,1.47175 1.31343,-1.25257 c 0.88164,-0.8408 1.72488,-2.29229 2.56507,-4.41527 z m 57.6502,1.82807 c -1.92246,-0.56432 -5.48227,-1.81182 -7.91067,-2.77223 -6.58189,-2.60308 -11.38286,-4.17452 -14.64334,-4.79302 -5.59494,-1.06134 -12.42252,-0.48703 -17.96105,1.51083 -2.48497,0.89638 -5.6662,2.65303 -5.35965,2.95958 0.0729,0.0729 3.56208,0.70887 7.75377,1.41331 6.42021,1.07897 11.92733,1.67888 23.03549,2.50941 0.91064,0.0681 5.46388,0.14051 10.11829,0.16095 l 8.46259,0.0371 z m 24.09994,-0.42702 c 12.51973,-1.77433 22.24366,-4.33619 25.82757,-6.80453 1.08422,-0.74673 1.91455,-1.41446 1.84519,-1.48382 -0.0694,-0.0693 -0.69468,0.0372 -1.38955,0.23711 -2.81176,0.80845 -14.08172,2.91537 -18.74048,3.50353 -10.67848,1.34818 -22.56157,-0.14618 -30.68056,-3.85819 -1.23744,-0.56576 -4.40233,-1.82363 -7.03308,-2.79527 l -4.78319,-1.7666 -10.55318,-0.35722 c -10.06407,-0.34065 -10.60243,-0.32495 -11.61629,0.33868 -1.41114,0.92368 -6.71432,5.05117 -6.61091,5.1453 0.0446,0.0406 1.27491,-0.23097 2.73386,-0.60361 7.9609,-2.03333 15.72846,-0.93614 27.54423,3.8907 5.42766,2.21725 10.49529,3.98567 13.2198,4.61323 5.16064,1.1887 11.56292,1.16993 20.23659,-0.0592 z m -76.78452,-2.91648 c 0.96952,-0.90986 1.44449,-2.00595 1.90369,-4.39317 0.17661,-0.91814 0.75715,-3.84814 1.2901,-6.51113 l 0.96901,-4.84179 -0.58972,-4.54063 c -0.32435,-2.49733 -0.82068,-5.45127 -1.10294,-6.56428 -0.99828,-3.93629 -1.37534,-8.10165 -1.24461,-13.74924 0.0725,-3.12961 0.10707,-5.6626 0.0769,-5.62885 -0.0301,0.0338 -0.65105,1.6095 -1.37976,3.5017 -1.548,4.01956 -1.65753,6.07783 -0.77629,14.58861 0.63078,6.09175 0.708,14.59639 0.17216,18.95846 -0.21692,1.76589 -1.06145,5.12805 -1.94765,7.75383 l -1.56469,4.63601 1.67172,-1.20573 c 0.91944,-0.66314 2.0544,-1.56485 2.52212,-2.00379 z m -36.9626,0.10044 c 0.88477,-1.73324 1.71028,-6.18107 1.70362,-9.1791 -0.008,-3.83784 -0.81672,-7.47165 -2.35694,-10.59758 -1.16395,-2.36226 -3.63057,-5.35086 -4.06103,-4.92039 -0.0993,0.0993 0.0516,1.74365 0.33519,3.65422 0.28359,1.91059 0.87036,6.37132 1.30393,9.91272 0.70586,5.76559 1.64776,11.11 2.09121,11.86601 0.26734,0.45572 0.44266,0.3246 0.98402,-0.73588 z m 124.18247,-3.79466 c 5.69865,-0.90628 20.18872,-3.94528 21.07636,-4.42033 1.02938,-0.5509 5.1695,-4.07023 4.9943,-4.24542 -0.0858,-0.0859 -1.54639,0.1781 -3.2456,0.5866 -1.69922,0.40848 -6.34333,1.1582 -10.32024,1.666 -11.67193,1.49041 -16.06056,2.50999 -24.18852,5.61964 -2.7013,1.03347 -3.30389,1.38703 -2.75953,1.61906 1.07005,0.45608 9.36609,-0.018 14.44323,-0.82555 z m -16.1399,0.0243 c 1.58169,-1.12627 5.41572,-2.75489 9.89244,-4.20211 4.47822,-1.44772 10.45705,-2.62063 21.57387,-4.23234 7.66894,-1.11184 12.52079,-2.41208 14.5288,-3.89355 1.28406,-0.94735 4.89644,-4.97424 4.66755,-5.20313 -0.0834,-0.0834 -0.62986,0.0362 -1.21443,0.26546 -15.28555,5.99747 -30.66029,8.5367 -59.93294,9.89831 -4.45205,0.20707 -9.79524,0.47523 -11.87373,0.59588 l -3.77908,0.21937 3.59511,1.29238 c 9.573,3.44127 14.31266,4.93999 17.10322,5.40812 4.13399,0.69349 4.26176,0.69001 5.43919,-0.14839 z m -63.42362,-2.4092 c 2.06404,-1.69131 6.2875,-8.02282 7.84824,-11.76556 1.62675,-3.90095 2.86007,-10.16196 3.33245,-16.9171 1.11781,-15.98558 1.9336,-19.17287 6.7264,-26.27951 1.79744,-2.66522 4.25163,-5.36776 6.9184,-7.61853 1.20829,-1.01981 1.37425,-1.40314 1.93544,-4.47054 1.38674,-7.5798 5.34291,-15.75796 10.8965,-22.52515 0.74732,-0.91066 1.47171,-1.85017 1.60976,-2.0878 0.13809,-0.23764 -2.96825,1.49136 -6.90289,3.84225 l -7.15387,4.27434 -0.41528,2.38474 c -0.66549,3.82149 -2.47013,8.99789 -5.34047,15.31846 -1.4704,3.23787 -4.00482,8.81409 -5.63202,12.39163 -6.2758,13.79774 -11.0361,29.34297 -14.23276,46.47847 -0.52853,2.83312 -1.09766,5.85481 -1.26474,6.71487 -0.16708,0.86005 -0.21673,1.56372 -0.11027,1.56372 0.10638,0 0.90972,-0.58693 1.78516,-1.30429 z m 7.98433,-6.14643 c 1.07091,-0.86007 2.96466,-2.34383 4.2083,-3.29726 1.24366,-0.95343 2.50626,-2.11243 2.8058,-2.57556 0.29955,-0.46312 0.72735,-2.24942 0.95066,-3.96953 1.34177,-10.33499 4.66885,-22.60478 8.68,-32.01061 l 1.96137,-4.59923 -0.25552,-4.7814 -0.25552,-4.78141 -2.87571,2.90555 c -4.33471,4.3797 -6.44963,7.73657 -8.35861,13.26713 -1.30458,3.77951 -1.73566,6.82163 -2.19164,15.46642 -0.53302,10.10487 -1.56292,15.35694 -4.05945,20.70139 -0.78112,1.67221 -1.77234,3.53489 -2.20274,4.1393 -1.05821,1.48612 -0.7095,1.38437 1.59306,-0.46479 z m 38.3317,-1.75109 c 5.33774,-0.20841 9.55815,-0.54694 10.67019,-0.85589 l 1.8397,-0.5111 -1.47175,-0.26113 c -0.80947,-0.14363 -2.71355,-0.49078 -4.2313,-0.77146 -7.18669,-1.32905 -10.08021,-1.71866 -14.16561,-1.90739 -4.69577,-0.21694 -10.55185,0.28529 -14.53355,1.24647 -2.53131,0.61106 -6.25495,2.24497 -6.25495,2.74465 0,0.28806 4.04764,0.4556 14.34959,0.59394 2.73193,0.0367 8.94089,-0.0884 13.79768,-0.27809 z m 29.80298,-1.69138 c 13.147,-1.14955 24.65675,-3.3669 34.25632,-6.5995 2.81217,-0.94699 5.46775,-1.91036 5.90131,-2.14085 1.0399,-0.55285 6.01857,-6.98626 6.01857,-7.77719 0,-0.12905 -0.45532,0.0869 -1.01182,0.48004 -3.06364,2.16415 -9.42937,4.61042 -14.44157,5.54971 -1.9513,0.36568 -6.20062,0.85495 -11.59004,1.3345 -3.50439,0.31181 -8.85053,1.41139 -13.06181,2.6865 -2.8584,0.86549 -15.75232,5.76509 -18.58087,7.0606 -0.87832,0.40228 3.48825,0.19502 12.50991,-0.59381 z m -9.44086,-2.39889 c 15.83583,-6.25617 19.51201,-7.27346 31.04478,-8.59083 4.50948,-0.51512 9.10969,-1.12032 10.2227,-1.34488 7.23024,-1.45883 15.56158,-6.06531 17.75001,-9.81419 0.55488,-0.95048 1.0102,-1.84025 1.01181,-1.97726 0,-0.13697 -0.92123,0.30746 -2.05092,0.9877 -8.20407,4.94025 -21.45785,8.16713 -37.77804,9.19777 l -3.59008,0.22674 -3.76867,2.5326 c -8.44303,5.67384 -15.2018,6.88406 -27.50068,4.92424 -4.7083,-0.75027 -12.81749,-0.84931 -16.55721,-0.20224 -4.73246,0.81885 -12.50991,3.13751 -12.50991,3.72952 0,0.14231 1.36598,-0.0592 3.03551,-0.44789 2.3404,-0.54482 4.55201,-0.71708 9.65836,-0.75229 7.16923,-0.0495 10.39083,0.36567 18.02896,2.32301 6.85697,1.75717 6.49509,1.7792 13.00338,-0.792 z m -42.24345,-6.95177 c 2.32115,-1.82531 4.59787,-3.77079 5.05934,-4.32329 2.96328,-3.54776 5.03205,-7.86392 6.54097,-13.6467 0.7379,-2.82786 0.89628,-4.30833 0.88567,-8.27859 -0.0125,-4.79848 -0.22199,-6.22227 -1.83984,-12.52416 l -0.84052,-3.274 -1.09782,2.17018 c -3.55739,7.03226 -9.05174,21.40043 -10.69215,27.96083 -1.7893,7.15585 -3.14547,15.23446 -2.55743,15.23446 0.1768,0 2.2206,-1.49344 4.54178,-3.31873 z m 13.13029,1.08126 c 4.65827,-0.50658 9.74561,-0.27337 16.60285,0.76112 10.45091,1.57663 15.3892,0.74819 23.3264,-3.91312 l 3.04002,-1.78534 -16.00531,-0.21861 c -11.65988,-0.15924 -17.37792,-0.38802 -21.06098,-0.84265 -3.99412,-0.49303 -5.23023,-0.53176 -5.887,-0.18449 -0.73054,0.38629 -10.5817,8.02773 -10.5817,8.20812 0,0.0384 1.48453,-0.30442 3.29894,-0.76186 1.81443,-0.45741 5.08447,-1.02585 7.26678,-1.26317 z m -36.33108,-11.56021 c 2.63215,-8.96256 6.14708,-17.62993 11.41019,-28.1361 6.23152,-12.43931 10.18864,-21.87054 9.85773,-23.4944 -0.0894,-0.43904 -1.22313,0.49629 -3.93504,3.24664 -4.48402,4.54757 -5.9171,6.39928 -5.9171,7.64561 0,1.89756 -1.96064,9.60704 -3.34244,13.14288 -0.79086,2.02367 -2.72856,6.01217 -4.30604,8.86335 -5.58785,10.09967 -6.85749,14.05345 -7.48952,23.32295 -0.23051,3.38079 -0.29375,6.79395 -0.14051,7.58482 0.26361,1.36057 0.34305,1.18054 1.47635,-3.34525 0.65876,-2.63075 1.73262,-6.60448 2.38638,-8.8305 z m -4.26061,-2.7232 c 0.93001,-4.40806 2.09787,-7.70918 4.11311,-11.62639 1.04109,-2.02366 3.06271,-5.94759 4.49248,-8.71984 1.42978,-2.77223 3.01581,-6.41481 3.52451,-8.09462 1.11573,-3.68441 2.14493,-8.07361 1.94097,-8.27757 -0.258,-0.25801 -5.4529,6.9093 -7.91951,10.92642 -6.66106,10.84814 -9.27258,20.24134 -8.15544,29.33356 0.67007,5.45363 0.88628,5.87824 1.1757,2.3091 0.1395,-1.72011 0.51217,-4.35291 0.82818,-5.85066 z m 42.6022,1.3578 c 1.95896,-1.57328 3.64548,-3.15148 3.7478,-3.50709 0.10232,-0.35562 0.53733,-2.42223 0.96666,-4.59247 0.42933,-2.17023 1.33093,-5.56445 2.00354,-7.54272 1.0789,-3.1732 7.65336,-19.72501 9.73153,-24.50001 l 0.77049,-1.77035 -1.19243,0.84593 c -2.16436,1.53543 -6.37553,5.96095 -8.34118,8.76577 -4.08382,5.82723 -6.39712,11.46156 -8.1101,19.75307 -1.48715,7.19837 -2.68949,11.0615 -4.58246,14.72329 l -1.55996,3.01765 1.50217,-1.16627 c 0.82622,-0.64146 3.10498,-2.45351 5.06394,-4.0268 z m 46.26779,4.08577 c 17.0656,-0.85057 27.14939,-3.00903 37.75311,-8.08116 2.03105,-0.97151 3.97476,-2.07795 4.3194,-2.45878 0.57333,-0.63351 4.43245,-8.18573 4.18284,-8.18573 -0.0596,0 -1.83433,0.95378 -3.94397,2.11953 -7.56626,4.18089 -14.54957,7.0039 -22.08514,8.92789 -7.9351,2.02602 -17.18042,2.58798 -27.77574,1.68831 -13.96394,-1.18569 -21.30725,-0.8028 -28.63914,1.49328 -3.00913,0.94236 -7.20198,2.94256 -7.20198,3.43572 0,1.0832 28.81064,1.78763 43.39062,1.06094 z m -33.27233,-7.13883 c 5.94212,-1.3582 13.22409,-1.58993 22.6282,-0.72002 8.4646,0.78298 19.07322,0.79155 23.7162,0.0192 3.87746,-0.64506 9.70246,-2.04327 12.15775,-2.91828 1.37173,-0.48885 1.40923,-0.53836 0.55191,-0.72844 -0.50591,-0.11222 -1.82331,-0.30697 -2.92756,-0.43291 -1.10423,-0.12599 -5.65746,-1.13672 -10.11829,-2.24623 -9.32326,-2.31889 -11.67692,-2.50486 -18.78079,-1.48384 -4.37134,0.62828 -13.01317,0.83016 -16.38565,0.38278 -2.29784,-0.30481 -3.47591,0.2678 -8.26619,4.01783 -5.38411,4.21491 -6.45559,5.15714 -5.51908,4.85332 0.40474,-0.13127 1.72932,-0.4658 2.9435,-0.74333 z m -127.67449,-0.9229 c 3.84495,-0.41652 8.52806,-0.85852 10.4069,-0.98225 l 3.41606,-0.22493 -0.83277,-0.88644 c -1.2037,-1.28129 -4.85288,-2.91705 -8.61731,-3.86273 -7.23066,-1.81649 -21.87268,-0.4199 -29.39267,2.80351 -0.60709,0.26023 -1.62246,0.67558 -2.25638,0.92302 -0.63391,0.24742 -1.60197,0.91891 -2.15121,1.49221 l -0.99864,1.04236 2.70311,0.22207 c 1.48672,0.12209 3.36541,0.28763 4.17487,0.36777 3.34605,0.33125 17.03154,-0.18866 23.54804,-0.89459 z m -30.68215,-1.95734 c 2.37319,-2.2986 5.59,-3.62684 12.47759,-5.15206 6.86004,-1.5191 9.897,-1.8274 15.94416,-1.61853 4.44042,0.15337 6.18424,0.3749 8.58768,1.09098 3.29993,0.98316 3.41736,0.86118 1.33252,-1.38423 -1.53416,-1.65233 -4.71226,-3.33219 -8.02197,-4.24019 -2.56351,-0.70329 -3.5466,-0.77914 -7.90557,-0.60996 -5.87904,0.22819 -8.69257,0.86984 -20.24746,4.6177 -10.14916,3.29191 -12.90714,3.85627 -19.031909,3.89445 l -4.866279,0.0303 2.283546,0.85458 c 4.338892,1.62377 14.324092,4.23204 17.033932,4.44951 0.21256,0.0171 1.29874,-0.8526 2.41376,-1.93257 z m 157.70997,-3.7297 c 2.75291,-2.05147 3.74242,-3.06465 5.19506,-5.31927 4.283,-6.64759 5.13529,-8.73318 7.95971,-19.47763 2.11123,-8.03149 3.57213,-12.22372 5.38295,-15.44726 0.60832,-1.08288 1.02673,-2.04816 0.92982,-2.14507 -0.0969,-0.0969 -2.07378,1.69971 -4.39303,3.99252 -5.7247,5.65941 -7.8465,8.97501 -11.2824,17.6303 -4.39666,11.07556 -6.64266,17.26663 -7.39661,20.38873 -0.84057,3.48073 -0.85696,3.68876 -0.25606,3.24871 0.25296,-0.18527 1.99021,-1.47722 3.86056,-2.87103 z m -107.84517,-6.08071 c 0.74353,-7.37768 0.90733,-26.06379 0.25964,-29.61901 -0.32664,-1.79297 -0.34637,-1.72755 -0.77676,2.57556 -0.45898,4.58889 -1.1533,8.10239 -2.8357,14.34958 -1.32028,4.90257 -1.39487,10.82969 -0.18522,14.71752 0.91279,2.93369 2.21696,5.47711 2.59606,5.06289 0.1408,-0.15384 0.5647,-3.34278 0.94198,-7.08654 z m 174.3998,6.41854 c 2.15529,-0.86572 8.27633,-3.92084 8.13626,-4.06093 -0.0677,-0.0677 -0.94314,0.14737 -1.94555,0.47782 -3.09662,1.02084 -10.37321,0.84792 -16.15036,-0.38381 -5.32359,-1.13503 -10.12042,-1.30591 -14.18734,-0.50539 l -2.3916,0.47074 3.31145,0.80574 c 1.82129,0.44315 4.88437,1.23343 6.80685,1.75619 6.70066,1.82201 13.89749,2.453 16.42029,1.43964 z m -237.00791,-1.65178 c 4.26509,-0.48859 7.33552,-1.28708 16.88155,-4.39021 10.00161,-3.25122 14.19917,-4.13116 19.92103,-4.17606 4.39686,-0.0345 6.04287,0.31007 10.29341,2.15477 1.01583,0.44086 -4.41717,-5.86547 -5.59261,-6.49159 -0.68687,-0.36588 -2.37203,-0.50528 -5.95679,-0.49277 -7.10741,0.0247 -11.58784,1.01571 -21.92411,4.84878 -12.20452,4.52587 -16.844054,5.49046 -24.65185,5.12531 -2.63076,-0.12307 -5.508729,-0.39894 -6.395493,-0.61314 -0.886764,-0.21418 -1.67859,-0.32315 -1.759608,-0.24212 -0.207524,0.20752 4.617816,3.08531 5.949179,3.54804 2.930966,1.01868 8.181727,1.30789 13.235292,0.72899 z m 57.44665,-2.65112 c -1.28093,-4.60559 -0.99034,-9.35903 1.05662,-17.28327 1.74799,-6.76694 2.39077,-10.71906 2.64959,-16.29108 0.25792,-5.5533 -0.21757,-8.55943 -2.31208,-14.61732 -1.36939,-3.96063 -4.2,-10.70229 -4.40675,-10.49553 -0.0662,0.0662 0.13684,2.26673 0.45126,4.88995 0.71516,5.96624 0.47995,17.23658 -0.58713,28.13356 -1.35951,13.88321 -0.78321,20.36298 2.24975,25.29576 0.85638,1.39281 1.22586,1.54407 0.89874,0.36793 z m 184.99807,-0.63488 c 1.56311,-0.39978 4.52851,-1.54189 6.58974,-2.53803 3.66124,-1.76934 3.77845,-1.86509 5.07801,-4.14831 2.90226,-5.09895 3.68236,-6.56844 3.48707,-6.56844 -0.11209,0 -1.0763,0.55293 -2.14266,1.22872 -7.06912,4.48003 -16.33281,7.99068 -26.0697,9.8796 -2.40892,0.46731 -4.38083,0.95854 -4.38206,1.09161 -0.001,0.13308 1.61209,0.51961 3.58515,0.85897 1.97308,0.33936 3.75297,0.67273 3.95534,0.74084 1.29213,0.43481 7.37826,0.0997 9.89911,-0.54496 z m -38.25308,-1.47006 c 7.46632,-1.06716 8.3612,-1.27729 11.9282,-2.80098 4.47007,-1.90944 6.7156,-3.21676 12.60797,-7.34015 6.2878,-4.40013 9.81892,-6.06999 19.52364,-9.23269 9.3146,-3.03557 15.74491,-5.8448 16.69389,-7.2931 0.47939,-0.73163 2.7321,-6.30238 2.73702,-6.76842 0,-0.0694 -0.78514,0.52045 -1.74638,1.31087 -6.06358,4.98603 -13.1646,8.92161 -20.37791,11.29398 -2.15196,0.70776 -6.78799,1.99008 -10.30226,2.84957 l -6.38958,1.56273 -2.69557,2.68301 c -5.84009,5.8129 -11.66263,8.19962 -24.53185,10.05585 -2.83312,0.40864 -6.97242,1.22227 -9.19844,1.80806 -3.94029,1.0369 -8.27862,2.71134 -8.27862,3.19524 0,0.58346 12.43571,-0.23855 20.02989,-1.32397 z m -21.3956,-3.11207 c 4.17546,-3.19371 4.32052,-3.35274 5.20208,-5.70304 0.49878,-1.32974 1.667,-5.13173 2.59608,-8.44887 3.20601,-11.44658 4.84788,-15.0215 12.56005,-27.34742 5.78499,-9.24581 8.85633,-14.66238 10.92073,-19.25962 1.43698,-3.20004 3.56913,-9.21146 3.56913,-10.06287 0,-0.16368 -1.03007,-0.11334 -2.28903,0.11195 l -2.28905,0.40954 -0.67782,2.39062 c -2.70092,9.52575 -3.51592,11.97257 -4.96318,14.90053 -2.99108,6.05128 -6.42889,10.43388 -11.83331,15.08545 -1.64583,1.41656 -3.2576,3.07228 -3.58171,3.67938 -3.48389,6.52563 -4.51432,9.39082 -7.67497,21.34041 -1.60497,6.06799 -3.72388,11.72829 -5.48564,14.65399 -1.46795,2.43776 -1.61196,2.50162 3.94664,-1.75005 z m -180.57965,1.5194 c 2.4284,-0.71619 7.14721,-2.3023 10.48625,-3.5247 l 6.07097,-2.22255 -6.16173,-0.0147 -6.16175,-0.0147 -4.50846,1.45954 c -5.501083,1.78091 -7.032459,2.12459 -11.557645,2.59382 -4.246172,0.44031 -10.154619,-0.0301 -13.92212,-1.10876 -1.415913,-0.40534 -2.717127,-0.73697 -2.891582,-0.73697 -0.174455,0 0.487319,0.66776 1.470593,1.48394 3.139533,2.60599 8.404827,3.70348 16.873222,3.51698 5.460587,-0.12028 6.206812,-0.22394 10.302252,-1.43176 z m 155.8252,-2.83329 c 1.43569,-4.21338 3.53102,-8.47165 5.88544,-11.96075 2.05029,-3.03841 7.00387,-8.20241 10.08176,-10.51004 1.19511,-0.89604 2.30583,-1.87751 2.46822,-2.18106 0.43448,-0.81208 4.37331,-8.96506 4.37331,-9.0523 0,-0.041 -1.03483,0.92073 -2.29961,2.13709 -3.00431,2.88928 -7.06618,5.98333 -11.55643,8.80286 -7.18253,4.5101 -13.37139,9.9656 -13.37139,11.78699 0,0.42343 0.40304,1.88715 0.89562,3.25273 1.12478,3.11814 2.04789,7.5329 2.04789,9.79396 0,0.9529 0.0639,1.66355 0.14209,1.57923 0.0781,-0.0843 0.67802,-1.72624 1.3331,-3.64871 z m 37.36243,0.41847 c 2.03474,-0.42098 6.15898,-1.11074 9.16495,-1.53275 6.15805,-0.86456 11.46199,-2.4601 14.7315,-4.43157 2.58173,-1.55674 7.4348,-5.58938 6.92931,-5.75787 -0.86964,-0.28989 -20.43701,4.84261 -27.51198,7.21635 -3.33759,1.1198 -5.12807,1.97847 -7.45399,3.57468 -4.06486,2.7896 -4.34797,3.18426 -1.69253,2.35933 1.17326,-0.36449 3.798,-1.00717 5.83274,-1.42817 z m 29.23092,1.03925 c 7.59366,-1.23792 9.22601,-1.70882 10.6702,-3.07811 1.95064,-1.84948 7.5903,-6.17109 10.48624,-8.03547 3.91891,-2.52298 8.85497,-4.87812 12.52008,-5.9737 4.64647,-1.38893 4.82047,-1.47842 5.2455,-2.69778 l 0.38072,-1.09199 -3.37014,1.55893 c -3.70525,1.714 -6.40289,2.68683 -13.83939,4.99084 -6.58666,2.04071 -10.6828,4.05126 -17.41098,8.54602 -3.08114,2.05836 -6.67567,4.36992 -7.98783,5.13681 -1.31218,0.7669 -2.14003,1.39432 -1.83969,1.39428 0.30033,-2e-5 2.61572,-0.33747 5.14529,-0.74983 z m -172.62409,-3.13127 c -0.49719,-3.15224 -0.21216,-10.66549 0.77399,-20.40274 1.07738,-10.63774 1.24799,-15.87251 0.80355,-24.65185 l -0.40048,-7.91066 -1.41478,-2.75955 c -0.77811,-1.51773 -1.89423,-3.50459 -2.48024,-4.41526 l -1.06549,-1.6557 -0.28008,2.20761 c -0.62149,4.89882 -0.4492,11.97387 0.42562,17.47707 1.00906,6.34754 0.89198,9.90209 -0.55747,16.92515 -1.33509,6.46898 -1.54066,12.0743 -0.60784,16.57535 0.89008,4.29489 2.16976,7.55199 3.81001,9.69726 0.68109,0.89081 1.27395,1.58621 1.31748,1.54535 0.0435,-0.0409 -0.10232,-1.22528 -0.32427,-2.63203 z m -54.10659,-0.15971 c 2.48512,-0.66583 4.44903,-1.27997 4.36423,-1.36477 -0.0848,-0.0848 -2.61478,-0.47305 -5.622198,-0.8628 -13.809271,-1.78964 -23.294938,-4.56293 -34.054035,-9.9563 l -4.504674,-2.25814 3.355261,3.6304 c 1.845397,1.99671 4.739511,4.97759 6.431367,6.62419 2.822857,2.74733 3.300887,3.06074 5.806667,3.80699 5.305622,1.5801 7.281043,1.82733 13.634034,1.7065 5.495807,-0.10457 6.499053,-0.23018 10.589348,-1.32607 z m 244.71305,-0.9465 c 4.8105,-1.60926 11.05699,-4.62546 14.87898,-7.18452 2.27353,-1.52223 3.06323,-2.29716 3.77759,-3.70686 0.4967,-0.98023 0.74463,-1.78227 0.55092,-1.78227 -0.64894,0 -5.70062,1.92161 -8.67466,3.29974 -3.05418,1.41527 -11.77989,7.10882 -14.34959,9.36315 -1.93643,1.69879 -1.2351,1.70077 3.81676,0.0112 z m -84.13281,-25.58058 c 3.73011,-6.43912 4.73354,-8.05864 9.00245,-14.52956 2.06016,-3.12287 3.66198,-5.67793 3.5596,-5.67793 -0.10231,0 -2.0385,1.10672 -4.30248,2.45939 -3.58594,2.14247 -4.50977,2.91288 -7.16978,5.97899 -3.82466,4.40858 -6.54601,8.36311 -8.86377,12.88036 -3.53246,6.88469 -4.60392,11.73828 -4.47212,20.25827 l 0.037,2.39158 4.76399,-9.56637 c 2.62019,-5.26152 5.97049,-11.64915 7.44511,-14.19473 z m 45.54591,21.18559 c 6.9303,-2.08473 19.51404,-5.30068 27.41138,-7.00536 11.20162,-2.41793 19.03291,-5.16596 25.41352,-8.91771 4.08963,-2.40468 4.34909,-2.75518 1.26199,-1.70479 -4.56159,1.55206 -23.58413,6.28614 -34.03428,8.46998 -2.42838,0.50746 -6.40995,1.0698 -8.84791,1.24964 -2.43795,0.17982 -4.91544,0.51052 -5.50553,0.73487 -0.59009,0.22436 -2.73469,1.67356 -4.76579,3.22045 -5.42316,4.13031 -7.83669,6.13943 -7.00436,5.83072 0.40474,-0.15013 3.13667,-0.99512 6.07098,-1.8778 z m -157.26328,1.33663 c -0.10847,-0.17547 -0.4526,-1.90633 -0.76478,-3.84636 -0.85048,-5.28512 -0.75118,-10.2607 0.32442,-16.25835 0.50776,-2.83137 1.03828,-6.20193 1.17894,-7.49013 l 0.25571,-2.34218 -3.74712,-7.40816 c -4.86647,-9.62116 -5.6169,-12.32118 -5.68929,-20.46998 -0.028,-3.13669 0.0951,-7.27785 0.2734,-9.2026 l 0.32409,-3.49954 -4.30144,-4.13517 c -2.3658,-2.27434 -4.44867,-4.13516 -4.62858,-4.13516 -0.17993,0 -0.0867,0.57556 0.20727,1.27904 0.87813,2.10166 1.89923,7.05334 2.54356,12.33466 1.10658,9.07003 2.44038,16.63733 4.66677,26.47661 2.34064,10.34429 3.79962,19.19449 4.15735,25.21869 0.56843,9.57251 0.36853,8.77192 2.85355,11.42841 2.00976,2.14844 2.87314,2.90293 2.34615,2.05022 z m -19.12648,-1.33667 c 5.01771,-0.50592 9.43001,-0.91985 9.80514,-0.91985 0.60896,0 0.57844,-0.13573 -0.28478,-1.26755 -3.02748,-3.96924 -12.79524,-6.8944 -21.08116,-6.31324 -1.88631,0.13225 -6.68789,0.91366 -10.6702,1.73632 -14.835304,3.06467 -21.244437,2.4226 -35.40495,-3.54692 -6.848611,-2.8871 -16.809722,-6.52403 -17.363207,-6.33954 -0.39309,0.131 1.806403,2.99358 2.875577,3.74246 1.55214,1.08716 9.689311,5.00785 13.359258,6.43683 5.383247,2.09607 13.292105,4.25782 19.542398,5.34154 12.959824,2.24709 24.767974,2.58727 39.221924,1.12995 z m 169.29465,-2.32758 c 1.97984,-1.58375 4.7587,-3.772 6.17526,-4.86282 1.41656,-1.09082 4.81079,-3.70297 7.54273,-5.80476 2.73195,-2.1018 5.08126,-4.02011 5.2207,-4.26292 0.13945,-0.24282 0.57684,-2.02405 0.97198,-3.95831 0.81519,-3.99039 2.89595,-9.05564 6.89087,-16.77469 4.66755,-9.01866 8.84368,-14.70456 15.39207,-20.9567 l 3.86757,-3.69261 -4.12162,-0.18606 -4.12162,-0.18608 -1.77193,1.70327 c -2.60544,2.50449 -4.6075,5.97867 -8.18402,14.20171 -4.88171,11.22394 -7.27659,14.66029 -14.42195,20.69373 -8.32081,7.02596 -9.60538,8.21586 -11.33027,10.4952 -2.29137,3.02792 -3.66191,6.00216 -4.72081,10.24462 -0.91677,3.67303 -1.38306,6.2259 -1.13721,6.2259 0.0817,0 1.7684,-1.29577 3.74825,-2.87948 z m -198.54383,-4.64838 c 1.9436,-0.29299 5.39031,-0.95177 7.65932,-1.46397 6.50179,-1.4677 11.4889,-1.90496 15.94561,-1.39807 3.20831,0.36489 7.60682,1.4158 10.39092,2.48262 1.2275,0.47037 -5.05486,-5.74158 -6.43891,-6.36674 -1.04711,-0.47296 -3.59149,-0.63229 -13.6137,-0.85252 -12.41394,-0.27276 -13.97136,-0.407 -20.911853,-1.80208 -6.925283,-1.39203 -16.04296,-4.48615 -23.754196,-8.0611 -1.800145,-0.83455 -3.331411,-1.45895 -3.402806,-1.38756 -0.07147,0.0713 0.656378,0.69153 1.617277,1.3781 2.373127,1.6956 5.07379,3.90082 10.057119,8.2121 4.356434,3.76892 8.6509,7.14441 11.190694,8.79594 1.283317,0.8345 1.872164,0.95952 4.599224,0.9765 1.720111,0.0112 4.717687,-0.22023 6.661301,-0.51322 z m -15.551946,-2.10262 c -1.687032,-1.24944 -5.690507,-4.5195 -8.89661,-7.26677 -3.206088,-2.7473 -7.709746,-6.40961 -10.008113,-8.13849 -4.287221,-3.22495 -4.964319,-3.63483 -15.989263,-9.67904 -3.541398,-1.9415 -7.151284,-3.96318 -8.021958,-4.4926 l -1.583039,-0.9626 2.021853,3.98771 c 1.112033,2.19323 2.817837,5.28859 3.790682,6.87858 l 1.7688,2.89087 4.047323,1.02623 c 2.226027,0.56445 5.206332,1.55128 6.622884,2.19299 3.454651,1.56495 8.721474,5.13298 13.458425,9.11745 4.104533,3.45251 6.079871,4.44513 11.929299,5.99461 4.043666,1.07115 4.14674,0.88546 0.859717,-1.54894 z m 55.260416,-2.7778 c -0.20981,-2.22487 -0.68985,-4.94154 -1.06675,-6.03703 -1.53,-4.44703 -4.57468,-9.39856 -9.86598,-16.04502 -1.81075,-2.27449 -4.16899,-5.58593 -5.24054,-7.35877 -1.84021,-3.04455 -1.93623,-3.14106 -1.73135,-1.74022 0.69307,4.73869 1.68029,13.38093 1.89745,16.61078 l 0.25176,3.74426 4.28552,3.86777 c 2.35704,2.12726 5.9328,5.52833 7.94615,7.55791 2.01334,2.02959 3.71565,3.63512 3.78291,3.56786 0.0673,-0.0673 -0.0493,-1.94267 -0.25917,-4.16754 z M 263.58779,167.252 c 0.9103,-0.61828 1.90021,-1.92858 3.05775,-4.04732 1.93126,-3.535 4.94962,-8.09911 8.76347,-13.25134 4.91565,-6.6407 7.65967,-10.82072 9.46496,-14.41819 0.99658,-1.98593 1.68628,-3.60972 1.53267,-3.60842 -0.15362,0.001 -1.81305,0.8869 -3.6876,1.968 -3.3761,1.94709 -3.44155,2.01226 -6.92599,6.89648 -5.05291,7.0828 -11.12215,17.46922 -16.53052,28.289 l -1.74425,3.48952 2.36172,-2.20174 c 1.29894,-1.21094 2.96745,-2.61315 3.70779,-3.11599 z m 60.01151,1.66607 c 7.51296,-1.27273 28.12265,-5.88012 34.03053,-7.60769 5.42598,-1.58664 13.0317,-4.98542 13.58641,-6.07137 0.19286,-0.37755 0.54756,-1.5143 0.78823,-2.52613 0.24071,-1.01183 0.52483,-2.13183 0.63142,-2.48888 0.12529,-0.41961 -0.65875,-0.004 -2.21715,1.17565 -5.7156,4.32613 -13.52405,7.02661 -23.39766,8.09185 -8.52025,0.91922 -12.15852,1.67357 -17.17045,3.56006 -4.61022,1.73528 -13.64056,6.73898 -12.20185,6.76102 0.33805,0.005 3.01579,-0.39735 5.95052,-0.89451 z M 71.601068,168.04621 c -2.312649,-2.01155 -7.919565,-6.08357 -10.059247,-7.30552 -2.694628,-1.53887 -11.738185,-5.09949 -12.081101,-4.75656 -0.251371,0.25135 3.643998,5.80621 4.31374,6.15146 0.303547,0.15649 3.449421,1.20692 6.990832,2.33429 3.541397,1.12739 7.266774,2.44861 8.278598,2.93606 1.827026,0.88015 3.239589,1.23384 2.557178,0.64027 z m 200.229842,-6.07566 c 6.51577,-4.03412 12.58434,-10.37572 16.16078,-16.88779 3.34887,-6.09778 7.49977,-12.99289 10.30256,-17.11372 1.27317,-1.87189 2.20231,-3.40079 2.06479,-3.39755 -0.13754,0.003 -2.73364,1.30433 -5.76914,2.89131 l -5.51907,2.88542 -2.20763,4.39915 c -2.36201,4.70679 -4.76907,8.43895 -9.82914,15.24008 -2.89749,3.89446 -6.55934,9.32806 -8.76269,13.00241 -1.06438,1.77499 -0.85841,1.71601 3.55954,-1.01931 z m 37.03803,-6.24577 c 10.04063,-8.38121 12.24653,-11.35502 17.65453,-23.80041 2.67599,-6.15827 5.57285,-11.10553 7.80991,-13.33776 l 1.01402,-1.01182 h -4.0447 -4.04471 l -0.2492,3.30128 c -0.34626,4.5868 -1.39537,8.45367 -3.34689,12.33609 -2.44301,4.8602 -4.72861,7.69206 -12.32407,15.26943 -6.46728,6.45189 -6.92356,7.00085 -8.75001,10.527 -2.1281,4.10848 -2.39706,4.98131 -0.98159,3.18536 0.51547,-0.654 3.78369,-3.56515 7.26271,-6.46917 z m -16.11872,-1.80453 c 5.36987,-4.35131 11.12016,-10.12416 13.11388,-13.16536 2.98012,-4.54582 4.75295,-8.96285 6.90386,-17.2011 1.15781,-4.43458 1.16835,-4.39895 -1.11363,-3.76508 -1.23978,0.34436 -1.37686,0.52979 -1.97039,2.66549 -1.91722,6.89866 -4.87339,13.17469 -8.93749,18.97451 -1.5648,2.23311 -5.68101,7.12458 -9.14712,10.86993 -3.46611,3.74534 -6.83263,7.68875 -7.48116,8.76311 l -1.17914,1.95339 2.514,-2.6095 c 1.38269,-1.43521 4.66644,-4.35365 7.29719,-6.48539 z m 41.72915,5.92343 c 1.53524,-0.39544 6.02,-1.12687 9.96613,-1.6254 3.94614,-0.49853 7.22682,-1.06247 7.29044,-1.25323 0.21227,-0.6366 3.80607,-5.33767 5.15322,-6.74097 l 1.32954,-1.38497 -2.74727,0.93567 c -3.74767,1.27636 -9.07515,2.3192 -13.01645,2.54793 -3.13825,0.18213 -3.35048,0.25022 -4.96717,1.59365 -0.92886,0.77187 -3.81064,2.9611 -6.40394,4.86496 -2.59331,1.90386 -4.7856,3.57561 -4.87175,3.715 -0.0863,0.13942 1.11068,-0.23864 2.65963,-0.8401 1.54895,-0.60147 4.07237,-1.4171 5.60762,-1.81254 z m -214.32704,0.4692 c -10.48345,-6.77958 -14.14522,-7.96071 -24.064982,-7.76233 -3.339056,0.0668 -7.601992,0.13058 -9.473213,0.14186 -3.964024,0.0239 -4.095174,-0.25075 1.768439,3.70262 4.09029,2.75774 7.524684,4.39812 10.747625,5.13342 3.395901,0.77477 4.014261,0.81185 14.607531,0.87589 l 9.73973,0.0588 z m -30.503905,-1.46621 c -1.618932,-0.97699 -5.178727,-3.46021 -7.910665,-5.51823 -7.573187,-5.70505 -11.016461,-7.32387 -24.817245,-11.66758 -7.03803,-2.21518 -14.87616,-5.88266 -18.606502,-8.70605 -2.166786,-1.63999 -2.20005,-1.4003 -0.324658,2.33921 1.123868,2.24098 1.481412,2.50882 8.610321,6.45055 7.532622,4.16494 25.94335,12.51614 33.482356,15.18776 3.349629,1.187 11.46461,3.64225 12.141958,3.67364 0.202358,0.009 -0.956646,-0.78232 -2.575565,-1.7593 z M 325.3394,158.39562 c 3.26154,-2.4828 3.71808,-3.20037 6.77605,-10.64991 4.02646,-9.8089 7.50873,-15.60369 12.39445,-20.62535 2.75202,-2.82859 7.08935,-6.53252 9.49379,-8.10732 0.87458,-0.57286 0.84008,-0.59093 -1.60856,-0.84179 -2.24865,-0.23039 -2.65724,-0.16547 -4.0302,0.64022 -3.75801,2.20537 -10.34753,9.34301 -14.31385,15.5045 -2.14609,3.33385 -7.46998,13.4667 -9.18259,17.47707 -1.24443,2.91402 -3.00249,8.8305 -2.62393,8.8305 0.0925,0 1.48514,-1.00257 3.09484,-2.22792 z m -186.61517,-4.15465 c -1.33643,-6.6854 -2.60973,-9.29425 -8.01128,-16.4143 -7.1372,-9.40792 -9.00799,-14.09998 -11.43798,-28.68703 -1.20757,-7.24909 -2.57705,-11.937645 -4.62533,-15.835544 -1.25498,-2.38823 -1.32833,-2.452073 -4.79643,-4.174844 -1.93708,-0.962248 -3.39787,-1.537135 -3.24621,-1.277546 0.15168,0.259603 0.75589,1.180952 1.3427,2.047441 1.78103,2.629909 5.66853,11.036343 7.26853,15.717663 1.79085,5.23979 3.30507,11.08376 4.96244,19.15226 0.97084,4.72621 1.52428,6.52756 2.76959,9.01448 2.00312,4.0003 4.79515,8.28669 8.18958,12.57285 3.16584,3.99753 5.64606,7.49242 7.06867,9.96048 0.55935,0.97039 1.06694,1.71437 1.12801,1.65333 0.061,-0.061 -0.21448,-1.73923 -0.61229,-3.72924 z m -22.21634,1.3612 c -3.46776,-3.08989 -4.71297,-3.92004 -7.71685,-5.14471 -3.81653,-1.55598 -9.954334,-2.90841 -15.466172,-3.40788 -2.224415,-0.20158 -6.196825,-0.5581 -8.827581,-0.79228 -12.407621,-1.10445 -25.196359,-6.52915 -36.218035,-15.36292 -1.90935,-1.53033 -4.144583,-3.01595 -4.967169,-3.30138 -2.235497,-0.77571 -9.528902,-2.65948 -9.686517,-2.50186 -0.399612,0.39961 1.917334,3.89632 3.389861,5.11597 4.252051,3.52183 12.575164,7.62499 20.254442,9.98514 11.517881,3.53991 15.771393,5.32698 20.85589,8.76247 l 3.339729,2.25658 3.486133,0.15247 c 1.917375,0.0839 5.502869,-0.0459 7.967781,-0.2882 8.021098,-0.78872 15.015898,0.55811 21.748808,4.18766 1.61893,0.87271 3.02628,1.60106 3.12747,1.61853 0.10128,0.0175 -0.47832,-0.55834 -1.28779,-1.27959 z m 242.25077,0.003 c 5.44257,-1.79854 11.77023,-5.43528 14.06734,-8.08499 0.48175,-0.55572 2.91772,-9.59355 2.88606,-10.70779 -0.004,-0.15836 -0.29426,0.0652 -0.64389,0.49693 -1.40864,1.7391 -5.6418,5.18107 -9.46622,7.69694 -4.87772,3.2088 -8.10299,6.07804 -10.31199,9.17362 -0.90531,1.26868 -1.64601,2.42301 -1.64601,2.56515 0,0.35139 1.84897,-0.0606 5.11471,-1.13986 z m -66.0966,-6.57087 c 2.22631,-2.4284 5.28594,-6.15376 6.79916,-8.2786 2.98697,-4.19423 6.7301,-11.51475 8.53399,-16.69012 l 1.13643,-3.26037 -1.01592,0.25044 c -0.55877,0.13781 -1.51264,0.53617 -2.11973,0.88536 -2.49677,1.43613 -11.07026,15.60035 -17.1476,28.32944 -2.96648,6.21333 -3.03686,6.23615 3.81367,-1.23615 z m 45.94734,-0.77894 c 0.33156,-0.38105 1.02582,-1.87696 1.54282,-3.32426 2.75761,-7.7198 8.8587,-17.9302 13.9825,-23.40017 0.90037,-0.96125 1.56248,-1.7477 1.47126,-1.7477 -0.0913,0 -1.52196,1.0294 -3.17953,2.28757 -3.50056,2.65709 -8.63154,7.68258 -10.81251,10.59026 -2.38577,3.18074 -5.85071,9.70955 -7.71314,14.53356 -0.93755,2.42839 -2.02214,5.05017 -2.41019,5.82615 l -0.70553,1.41091 3.61076,-2.74175 c 1.98591,-1.50796 3.88201,-3.05352 4.21356,-3.43457 z m -217.75505,4.5503 c -0.47767,-5.43941 -1.36617,-13.1517 -1.81211,-15.72935 -0.56126,-3.24427 -1.57463,-5.13547 -4.83038,-9.01449 -1.34549,-1.60308 -6.94844,-6.76446 -8.68718,-8.00257 -0.974,-0.69352 -0.89753,-0.4962 0.75948,1.95999 3.64697,5.40597 5.17914,9.22564 7.44339,18.55645 0.81918,3.37576 1.82882,6.9083 2.24363,7.8501 0.652,1.48025 4.15823,5.57568 4.77354,5.57568 0.11806,0 0.16738,-0.53812 0.10958,-1.19581 z m 230.59783,-4.34674 c 6.66318,-1.56433 12.86308,-4.63847 18.5021,-9.17404 4.62258,-3.71803 6.72403,-6.15325 8.62406,-9.99395 l 1.74113,-3.51942 -3.12748,2.88313 c -6.3229,5.82891 -11.78196,9.33891 -17.10911,11.00057 -7.91782,2.46976 -8.91048,2.95266 -12.62698,6.14255 -4.82598,4.14216 -4.71128,3.91313 -1.83539,3.66477 1.35453,-0.11695 3.97879,-0.56861 5.83167,-1.00361 z m -244.12921,-1.54013 c -1.36647,-1.26479 -3.23196,-2.7397 -4.14556,-3.27756 -2.29791,-1.35288 -6.916251,-2.43632 -12.297372,-2.88488 C 77.953809,139.67884 74.024522,138.7904 64.076734,134.696 59.223373,132.69841 52.95097,130.40736 50.056968,129.57516 l -1.985546,-0.57097 1.287781,1.10919 c 4.500836,3.87668 15.212109,9.62985 22.176004,11.91105 5.124423,1.67863 8.722878,2.3227 16.640344,2.97839 9.157273,0.75835 16.515619,2.09251 20.085609,3.64175 0.69075,0.29978 1.32125,0.55151 1.40111,0.55943 0.0798,0.008 -0.97282,-1.02043 -2.3393,-2.28521 z m 211.37242,-8.45773 c 4.57468,-6.02718 6.54593,-10.93349 6.88561,-17.13777 l 0.20778,-3.79516 -1.564,0.11584 -1.564,0.11583 -0.89522,3.46375 c -1.69233,6.54799 -6.6327,17.11123 -11.70071,25.01782 -0.92248,1.43921 -1.67727,2.73639 -1.67727,2.88264 0,0.57574 8.27392,-7.98315 10.30781,-10.66283 z m -169.33264,4.87033 c -0.8564,-5.41952 -0.93031,-12.61314 -0.17882,-17.40265 l 0.50788,-3.23701 -1.77266,-2.57324 c -0.97497,-1.4153 -2.56297,-3.60028 -3.52887,-4.85555 l -1.75621,-2.2823 -0.29827,2.20555 c -0.16406,1.21307 -0.22324,5.10308 -0.13156,8.64447 0.18355,7.088 0.54181,8.95525 2.7885,14.53358 1.27314,3.16106 4.76316,9.93626 4.98924,9.68558 0.0591,-0.0655 -0.21954,-2.18886 -0.61927,-4.71843 z m -37.09187,-2.92887 c -2.17102,-8.72123 -4.15677,-13.73059 -7.25388,-18.29889 -1.36037,-2.0066 -6.064857,-7.51535 -6.255388,-7.32482 -0.08093,0.0809 0.434242,2.02655 1.144861,4.32357 1.725087,5.57605 2.709907,9.53182 3.700727,14.86492 0.45306,2.43849 0.97467,4.67975 1.15917,4.98057 0.39264,0.64023 8.69284,8.3796 9.01957,8.41014 0.12182,0.0112 -0.55994,-3.1186 -1.51506,-6.95549 z m 234.89163,0.77826 c 3.15474,-2.65661 3.42896,-3.08719 5.71923,-8.98025 1.95519,-5.03095 5.44147,-9.52444 9.91968,-12.78555 1.22288,-0.89053 2.16973,-1.67286 2.10406,-1.73853 -0.0656,-0.0656 -1.0551,-0.009 -2.19877,0.12502 -1.87075,0.21986 -2.35326,0.47805 -4.80818,2.57268 -3.44173,2.93666 -7.65642,9.11335 -11.23996,16.47228 -2.57321,5.28418 -3.20106,6.85289 -2.74272,6.85289 0.14069,0 1.60167,-1.13333 3.24666,-2.51854 z m -211.28539,-0.74205 c -0.18755,-0.83471 -1.45081,-3.18474 -2.80725,-5.22227 -2.79757,-4.20227 -3.95646,-6.80488 -4.95754,-11.13346 -0.67159,-2.90395 -0.89347,-4.44604 -2.02165,-14.05035 -0.49354,-4.20164 -2.12988,-12.045906 -2.69501,-12.919279 -0.28854,-0.445948 -4.77131,-3.37448 -6.66188,-4.352136 l -1.17551,-0.607887 0.89095,1.764865 c 1.6145,3.198078 3.10367,8.653107 4.29872,15.746487 1.70227,10.10424 3.45622,15.65889 6.57117,20.81045 1.44397,2.38808 8.57353,11.80671 8.78054,11.5997 0.0652,-0.0652 -0.035,-0.80141 -0.22254,-1.63612 z m 223.19091,-2.04286 c 7.27405,-2.44966 11.58938,-5.40844 19.60498,-13.44209 4.00807,-4.01708 4.76034,-4.96643 5.77402,-7.28643 0.64105,-1.46714 1.08995,-2.66755 0.99759,-2.66755 -0.29833,0 -13.10986,9.59547 -16.71521,12.51919 -1.92247,1.559 -5.23766,4.38853 -7.36715,6.28782 -2.12943,1.89928 -4.52655,3.99136 -5.32693,4.64905 -0.80037,0.65768 -1.28447,1.1958 -1.07574,1.1958 0.2087,0 2.05752,-0.56511 4.10844,-1.25579 z M 97.191157,138.03106 c 0,-0.0817 -1.531543,-1.39163 -3.403428,-2.91122 -6.221261,-5.05037 -12.164641,-7.59752 -24.633547,-10.55718 -4.310348,-1.02312 -8.085343,-1.93811 -8.38889,-2.03334 -0.303562,-0.0952 -0.11278,0.16048 0.424017,0.56821 0.536756,0.40775 3.164814,2.56822 5.840126,4.80106 4.859396,4.05569 7.947531,6.31942 10.19984,7.4769 1.418389,0.72894 7.39552,1.6851 10.763422,1.72186 1.315384,0.0143 3.716169,0.24066 5.335102,0.50291 3.642863,0.59007 3.863358,0.61465 3.863358,0.4308 z m 261.955683,-6.98971 c 6.63591,-5.88588 12.62156,-10.80158 16.10519,-13.22642 1.4626,-1.01806 2.60788,-1.90242 2.54504,-1.96525 -0.0629,-0.0629 -2.12131,0.28596 -4.57438,0.77509 -5.52089,1.10079 -7.835,2.2741 -11.85947,6.01288 -4.12738,3.83443 -5.82667,6.42682 -8.09207,12.34525 -0.80768,2.11011 -1.38006,2.49405 5.87569,-3.94155 z m -224.64017,1.65933 c -0.2735,-1.69793 -0.845,-6.58231 -1.27,-10.85418 -0.93443,-9.39225 -1.92795,-15.86557 -2.87484,-18.73095 -0.38774,-1.17338 -0.766,-2.1837 -0.84055,-2.24518 -0.6873,-0.56672 -4.16691,-2.750835 -4.25006,-2.667703 -0.0592,0.05924 0.29909,1.71177 0.79639,3.672183 0.49731,1.96042 1.32411,7.32973 1.83736,11.93182 0.98277,8.81225 1.50086,11.58167 2.7759,14.8384 0.73854,1.8864 4.00355,7.49913 4.22116,7.25639 0.056,-0.0625 -0.12182,-1.50286 -0.39536,-3.20078 z m -61.065921,1.86126 c -0.192241,-0.1683 -1.42576,-1.10735 -2.74113,-2.08678 -1.315385,-0.97942 -3.964539,-3.11922 -5.887019,-4.75513 -6.470443,-5.50594 -6.862197,-5.76598 -10.42291,-6.91842 -2.808507,-0.90898 -4.300807,-1.14176 -8.893829,-1.38732 -6.593597,-0.35252 -9.090825,-1.1339 -13.429736,-4.20216 -2.60856,-1.84462 -2.586658,-1.83786 -2.221506,-0.68535 0.178515,0.56344 0.771105,2.43179 1.316859,4.1519 0.545739,1.7201 1.184178,3.33319 1.418723,3.5846 0.234557,0.25142 2.905377,1.0534 5.935174,1.78217 9.603093,2.3099 16.15792,4.1441 21.023087,5.88277 8.67308,3.0995 13.9191,4.93904 14.086253,4.93939 0.09108,2e-4 0.0083,-0.13739 -0.183966,-0.30567 z m 25.786446,-4.36362 c -2.134756,-8.89541 -5.244211,-17.9768 -8.090379,-23.62853 -1.474637,-2.92825 -4.306938,-5.70519 -8.903575,-8.729494 -1.649956,-1.08557 -3.096659,-1.973766 -3.21489,-1.973766 -0.118204,0 0.379685,0.929568 1.106471,2.065714 2.12768,3.326116 3.381474,6.791526 5.656922,15.635416 2.711649,10.53929 3.231815,11.65431 6.901373,14.79355 1.568776,1.34206 3.845752,3.33984 5.059939,4.43952 1.214208,1.09967 2.259584,1.85879 2.323074,1.68695 0.0635,-0.17185 -0.314017,-2.10204 -0.838935,-4.28936 z m 16.725275,-4.0985 c -2.61481,-5.00007 -5.4575,-8.67058 -12.85703,-16.60105 -3.463332,-3.71188 -7.202617,-8.10994 -8.309524,-9.773501 -3.392695,-5.098904 -5.587124,-10.585962 -6.572526,-16.434224 -0.512239,-3.04006 0.143346,-2.633161 -6.659611,-4.133513 -7.494825,-1.652948 -7.049475,-1.880358 -3.552425,1.814023 5.334645,5.635689 12.044735,15.723291 16.920514,25.437395 1.851776,3.68933 4.470586,6.88801 7.885312,9.63125 6.29898,5.06034 10.25603,8.64842 12.41142,11.25417 1.27536,1.54184 2.39356,2.72862 2.48488,2.6373 0.0914,-0.0914 -0.69664,-1.81565 -1.75101,-3.83185 z m -31.087249,1.19425 c -2.676869,-2.24208 -7.700763,-5.3106 -10.356759,-6.32574 -1.58895,-0.6073 -4.875875,-1.55419 -7.304266,-2.10419 C 51.353857,115.2742 45.776644,113.06719 38.092082,107.34392 34.626014,104.76247 27.604116,98.435194 26.73746,97.112508 25.851461,95.7603 25.678286,96.244434 26.205433,98.599942 c 0.395745,1.768368 0.836895,2.460538 3.166441,4.968058 2.852894,3.07086 7.704434,7.102 11.248404,9.34626 5.559941,3.52091 12.54635,6.14784 23.088509,8.68139 8.940442,2.14863 17.542835,4.60427 19.904295,5.68191 2.508144,1.14457 2.600399,1.14578 1.252139,0.0166 z m 1.854839,-4.66005 c -0.274567,-0.6577 -1.182246,-4.01053 -2.017056,-7.45076 C 81.57005,102.2726 80.031941,99.023042 73.818292,92.187155 c -4.884553,-5.373708 -7.557,-9.721129 -8.654097,-14.078133 -0.407123,-1.616803 -0.458993,-1.662472 -2.132131,-1.87738 -0.943183,-0.121124 -3.367318,-0.333196 -5.386989,-0.471244 l -3.672103,-0.250982 1.550194,1.851544 c 2.394696,2.860182 5.417165,5.870956 9.841349,9.803218 9.035617,8.030983 11.848003,12.496927 14.946261,23.733952 0.800865,2.90469 2.027153,6.41514 2.725069,7.80102 1.854157,3.68186 4.966155,7.00559 3.684215,3.93487 z m 29.17507,-2.31744 c -1.41974,-6.06433 -4.08729,-10.30945 -11.26994,-17.93493 C 98.6237,96.010141 95.845242,91.557894 94.130179,85.56427 l -0.894913,-3.127476 -1.9509,-0.639718 c -1.073013,-0.35183 -2.022857,-0.567782 -2.110758,-0.479865 -0.344266,0.344264 1.171982,6.092469 2.530335,9.592648 2.547617,6.564659 4.638943,9.467801 13.373947,18.565421 4.97137,5.17774 8.42891,9.42814 10.38598,12.76764 0.5222,0.89107 1.00635,1.56323 1.0759,1.4937 0.0696,-0.0696 -0.22055,-1.60856 -0.64464,-3.42004 z m -34.654077,-1.8969 c -0.502769,-0.99216 -1.680078,-4.51296 -2.616251,-7.82399 -1.2101,-4.27991 -2.297768,-7.19904 -3.762758,-10.09868 l -2.060638,-4.07858 -8.540149,-8.462565 c -7.670323,-7.600652 -10.85473,-11.200261 -10.85473,-12.270046 0,-0.19989 -1.159384,-0.418414 -2.576397,-0.485609 -1.417011,-0.06717 -2.57602,-0.09053 -2.575561,-0.05187 3.61e-4,0.03866 0.851637,0.949329 1.89151,2.023647 6.44238,6.655787 11.331036,16.211695 13.211392,25.824433 0.548952,2.80636 1.633771,3.97949 9.512242,10.28661 7.954944,6.36836 9.028831,7.1948 9.168729,7.05618 0.06425,-0.0635 -0.294633,-0.92741 -0.797389,-1.91957 z m -9.431975,-1.20823 c -3.707897,-2.964 -4.462579,-3.29888 -10.020128,-4.44634 C 51.184367,110.57558 48.139536,108.93905 39.97679,101.04154 34.452352,95.696622 30.861533,92.880037 26.77078,90.68295 l -2.903751,-1.55958 0.266668,1.439916 c 0.469296,2.533981 1.300407,3.72941 5.212436,7.497369 11.109383,10.700245 18.793306,14.876035 33.442807,18.174295 3.237864,0.72897 6.963227,1.64106 8.278612,2.02684 1.315371,0.38579 2.536874,0.72018 2.714444,0.74312 0.177569,0.0229 -0.710238,-0.78411 -1.972918,-1.79346 z M 43.74685,116.1899 c -4.832641,-2.61456 -9.383109,-5.99252 -13.117234,-9.73732 -1.840681,-1.84594 -3.346694,-3.17194 -3.346694,-2.94667 0,0.56661 1.052876,5.16211 1.516442,6.61882 0.247714,0.77844 1.109794,1.75359 2.467635,2.79132 4.772816,3.64761 8.168599,4.97903 12.757101,5.00176 l 2.943509,0.0146 z m 19.514279,-5.70989 C 60.917288,108.13658 48.844893,98.885926 37.95313,91.087374 33.708977,88.04855 21.298629,78.865888 18.879597,76.974504 c -0.27095,-0.21185 0.08956,0.682132 0.801296,1.986642 0.71167,1.304511 1.745828,3.530829 2.298131,4.947396 1.277462,3.276523 1.330626,3.338671 3.994103,4.669603 4.26664,2.132019 8.320012,5.149343 13.353808,9.940543 2.785811,2.651562 5.867354,5.458272 6.847888,6.237152 4.47618,3.55568 10.444244,5.83998 18.006153,6.89193 0.158518,0.0221 -0.255404,-0.50344 -0.919847,-1.16776 z m 49.610091,-2.75966 c -2.14565,-7.45816 -5.86891,-15.368309 -9.27865,-19.712671 -1.25879,-1.603815 -2.17223,-2.312968 -4.276983,-3.320453 -1.471989,-0.704591 -3.123775,-1.390979 -3.670637,-1.525286 l -0.994297,-0.24421 0.854455,2.769374 c 1.654843,5.363584 4.906412,10.241573 11.433122,17.151916 2.02546,2.14452 4.34202,4.91915 5.1479,6.16585 0.80589,1.24672 1.52493,2.20707 1.59785,2.13414 0.073,-0.0729 -0.29281,-1.61133 -0.81276,-3.41866 z M 59.774272,101.66156 C 57.821073,92.979885 51.484924,81.535762 45.586655,76.036481 44.287862,74.825519 44.102699,74.772633 39.536252,74.308356 36.945422,74.044929 34.080581,73.823734 33.169939,73.816823 l -1.655728,-0.01252 1.839695,1.145185 c 7.244789,4.50982 11.06359,8.123376 13.75595,13.016593 4.600183,8.360618 4.73723,8.54051 8.863666,11.633776 2.120129,1.589293 3.884536,2.889623 3.920887,2.889623 0.0363,0 -0.01766,-0.37254 -0.120151,-0.82786 z M 86.657384,97.660028 C 82.91696,90.89783 77.67112,83.778143 73.216259,79.417649 70.933676,77.183404 70.83031,77.128989 68.40242,76.8835 l -2.481166,-0.25087 0.688085,1.999924 c 2.294696,6.669651 6.648417,11.855624 14.024606,16.705564 2.529574,1.663223 5.261512,3.534137 6.070971,4.1576 0.809459,0.623432 1.502007,1.138132 1.53897,1.143762 0.03699,0.005 -0.676959,-1.335113 -1.586502,-2.979452 z m -38.99909,-5.74883 C 42.967094,83.400502 40.33257,80.767188 31.231913,75.49227 27.309177,73.218587 26.907132,73.070527 23.327589,72.581483 21.253337,72.2981 19.562217,72.164391 19.569546,72.284347 c 0.01739,0.283731 10.185725,8.114518 16.543889,12.740594 2.731938,1.987713 6.705668,4.904494 8.830513,6.481736 2.124843,1.577254 3.912848,2.872322 3.973341,2.877912 0.06049,0.0055 -0.506052,-1.107429 -1.258995,-2.473391 z"
       id="path5578" /></g><metadata
     id="metadata182"><rdf:RDF><cc:Work
         rdf:about=""><cc:license
           rdf:resource="http://creativecommons.org/licenses/by-sa/4.0/" /><dc:creator><cc:Agent><dc:title>Jameela P</dc:title></cc:Agent></dc:creator><dc:publisher><cc:Agent><dc:title>OpenDataKerala.org</dc:title></cc:Agent></dc:publisher><dc:date>April 2026</dc:date><dc:title>Election Symbols of Kerala</dc:title></cc:Work><cc:License
         rdf:about="http://creativecommons.org/licenses/by-sa/4.0/"><cc:permits
           rdf:resource="http://creativecommons.org/ns#Reproduction" /><cc:permits
           rdf:resource="http://creativecommons.org/ns#Distribution" /><cc:requires
           rdf:resource="http://creativecommons.org/ns#Notice" /><cc:requires
           rdf:resource="http://creativecommons.org/ns#Attribution" /><cc:permits
           rdf:resource="http://creativecommons.org/ns#DerivativeWorks" /><cc:requires
           rdf:resource="http://creativecommons.org/ns#ShareAlike" /></cc:License></rdf:RDF></metadata></svg>
