<?xml version="1.0" encoding="UTF-8" standalone="no"?>
<!-- Created with Inkscape (http://www.inkscape.org/) -->

<svg
   width="1500"
   height="1500"
   viewBox="0 0 396.87499 396.875"
   version="1.1"
   id="svg5"
   xml:space="preserve"
   inkscape:version="1.3 (0e150ed6c4, 2023-07-21)"
   sodipodi:docname="Wall Hook.svg"
   inkscape:export-filename="TV Remote.png"
   inkscape:export-xdpi="96"
   inkscape:export-ydpi="96"
   xmlns:inkscape="http://www.inkscape.org/namespaces/inkscape"
   xmlns:sodipodi="http://sodipodi.sourceforge.net/DTD/sodipodi-0.dtd"
   xmlns="http://www.w3.org/2000/svg"
   xmlns:svg="http://www.w3.org/2000/svg"
   xmlns:rdf="http://www.w3.org/1999/02/22-rdf-syntax-ns#"
   xmlns:cc="http://creativecommons.org/ns#"
   xmlns:dc="http://purl.org/dc/elements/1.1/"><title
     id="title186">Election Symbols of Kerala</title><sodipodi:namedview
     id="namedview7"
     pagecolor="#ffffff"
     bordercolor="#000000"
     borderopacity="0.25"
     inkscape:showpageshadow="2"
     inkscape:pageopacity="0.0"
     inkscape:pagecheckerboard="0"
     inkscape:deskcolor="#d1d1d1"
     inkscape:document-units="mm"
     showgrid="false"
     inkscape:zoom="0.25"
     inkscape:cx="230"
     inkscape:cy="1082"
     inkscape:window-width="1920"
     inkscape:window-height="991"
     inkscape:window-x="-9"
     inkscape:window-y="-9"
     inkscape:window-maximized="1"
     inkscape:current-layer="layer1" /><defs
     id="defs2"><inkscape:path-effect
       effect="bspline"
       id="path-effect3248"
       is_visible="true"
       lpeversion="1"
       weight="33.333333"
       steps="2"
       helper_size="0"
       apply_no_weight="true"
       apply_with_weight="true"
       only_selected="false" /><inkscape:path-effect
       effect="bspline"
       id="path-effect577"
       is_visible="true"
       lpeversion="1"
       weight="33.333333"
       steps="2"
       helper_size="0"
       apply_no_weight="true"
       apply_with_weight="true"
       only_selected="false" /></defs><g
     inkscape:label="Layer 1"
     inkscape:groupmode="layer"
     id="layer1"><path
       style="fill:#000000;stroke-width:1.56258"
       d="m 320.58844,281.91725 c -4.88883,-0.42205 -18.37704,-1.70756 -29.9738,-2.85672 -21.50109,-2.13058 -32.14799,-3.16631 -44.65064,-4.34362 -3.86558,-0.364 -12.33061,-1.20266 -18.81115,-1.8637 -6.48054,-0.66105 -17.55018,-1.77024 -24.5992,-2.46488 -7.049,-0.69465 -16.63029,-1.63865 -21.29174,-2.0978 -4.66144,-0.45913 -13.68459,-1.38241 -20.05144,-2.05172 -6.36684,-0.66932 -22.5527,-2.33062 -35.96857,-3.69179 -13.41586,-1.36116 -31.36914,-3.2198 -39.89617,-4.13027 -8.52703,-0.91048 -22.85244,-2.40632 -31.834242,-3.32408 -19.15082,-1.95684 -24.318763,-2.6454 -28.526798,-3.80085 -9.051228,-2.48528 -13.595327,-7.47323 -16.6944645,-18.32509 -5.0675313,-17.74439 -4.4871432,-46.39891 1.1672138,-57.62698 2.3646007,-4.69545 5.6319337,-7.00536 11.1930367,-7.91311 3.42981,-0.55986 5.582197,-0.41277 21.698352,1.48276 6.707924,0.78897 13.133491,1.54129 14.279048,1.67185 l 2.082806,0.23734 0.982251,-3.44749 c 2.5958,-9.11062 7.086944,-18.47606 11.962684,-24.94595 3.114826,-4.13323 6.942733,-7.88904 14.166324,-13.89951 12.949779,-10.77502 18.197459,-17.80699 23.102589,-30.95784 2.19667,-5.889368 3.86626,-8.574907 6.35638,-10.224301 7.30597,-4.83927 16.76594,-0.802352 16.78031,7.160791 0.003,1.791666 -1.37399,6.97352 -2.69088,10.12453 -3.47441,8.3135 -14.09585,19.42215 -26.45376,27.66721 -16.273958,10.85782 -23.60046,19.4861 -28.283582,33.30906 -2.033584,6.00243 -2.084743,6.64633 -0.553277,6.96405 0.625312,0.12969 11.555414,1.45185 24.28912,2.93805 12.733689,1.48622 28.361419,3.35729 34.728259,4.15797 14.05821,1.76792 17.90185,2.24175 19.1386,2.35935 0.86217,0.082 1.10851,-0.38358 2.73307,-5.16531 5.13024,-15.1003 12.79643,-25.28642 27.12001,-36.03459 4.65461,-3.49274 11.24557,-9.73387 14.24585,-13.48972 4.04292,-5.06106 7.31576,-10.92274 10.03838,-17.97877 0.79081,-2.04953 1.896,-4.50937 2.456,-5.46632 2.7494,-4.698435 8.71568,-7.267515 13.66166,-5.882728 2.91989,0.817525 5.65857,3.697028 6.31778,6.642638 0.74844,3.34439 -0.009,7.53992 -2.14051,11.86007 -5.00253,10.13811 -13.88205,18.91629 -30.10611,29.76256 -8.87846,5.9355 -12.14724,8.53767 -16.49619,13.13204 -4.23298,4.47185 -6.17251,7.32182 -8.94477,13.14354 -2.06195,4.33004 -4.14411,10.50961 -3.69311,10.9606 0.11188,0.11188 4.433,0.70854 9.60266,1.32609 5.16967,0.61754 11.72494,1.41842 14.56729,1.77974 2.84234,0.36131 11.40039,1.41291 19.01787,2.3369 18.66589,2.26412 29.83404,3.70071 30.64439,3.94186 0.53667,0.15971 0.97953,-0.75619 2.21753,-4.58604 4.1816,-12.93624 11.79877,-23.44423 23.8699,-32.92882 16.34677,-12.84409 21.38905,-19.15264 27.81041,-34.79449 1.49097,-3.63185 4.40491,-6.86879 7.33468,-8.14766 4.32943,-1.88986 9.0776,-1.11995 11.97153,1.94119 1.54903,1.6385 1.99011,3.05315 1.99011,6.38265 0,8.66949 -7.17421,19.1427 -19.78471,28.88249 -4.95573,3.82761 -7.44482,5.5617 -16.95827,11.81449 -8.75979,5.75746 -15.03962,12.382 -19.87755,20.96868 -1.40293,2.49002 -4.66385,11.39468 -4.35549,11.89363 0.0981,0.1589 1.62558,0.41943 3.39415,0.57892 1.76857,0.15951 15.86659,1.86332 31.32895,3.78626 15.46234,1.92296 28.54968,3.53949 29.08295,3.59232 0.88764,0.088 1.06573,-0.23589 2.10728,-3.83156 3.89224,-13.43706 11.99848,-24.61123 25.65664,-35.36686 7.56268,-5.95549 9.99487,-8.15759 13.15644,-11.91179 4.92414,-5.8471 6.24191,-8.10482 11.76924,-20.16404 0.7951,-1.73471 2.10671,-3.88574 2.91468,-4.78006 1.89918,-2.10218 5.08587,-3.82113 7.64586,-4.12433 4.35513,-0.51581 8.88481,2.31843 9.9849,6.24759 1.49005,5.32195 -2.17074,14.1366 -9.23266,22.23091 -4.34801,4.98363 -14.22216,12.85804 -23.21535,18.51368 -14.10026,8.86739 -22.31546,19.4786 -26.4381,34.14892 -0.23089,0.8216 0.0197,0.90151 4.84307,1.54474 11.10086,1.48036 17.08245,5.19309 20.76047,12.88581 2.25479,4.71597 4.34344,12.93064 4.3474,17.0983 0.001,1.15895 0.12064,1.33895 0.72484,1.09127 4.31891,-1.77067 9.90533,0.86981 10.69006,5.05278 0.9046,4.82204 -4.25804,14.75429 -11.66499,22.44187 -2.48088,2.5749 -3.87905,4.36909 -4.05956,5.20948 -0.46694,2.17392 -3.7456,7.29178 -6.08998,9.50625 -5.01288,4.73508 -12.32185,5.59782 -32.59596,3.84756 z m 20.16617,-3.49647 c 0.50537,-0.35397 0.91886,-0.79063 0.91886,-0.97032 0,-0.17972 -2.09299,-0.43967 -4.65111,-0.57767 -2.55811,-0.13798 -6.41853,-0.52364 -8.57872,-0.85697 -2.16016,-0.33334 -6.43919,-0.8532 -9.50892,-1.15526 -3.06973,-0.30206 -5.11622,-0.6047 -4.54775,-0.67252 0.56846,-0.0678 1.51185,-0.30945 2.0964,-0.53696 0.75472,-0.29375 3.47604,-0.16834 9.38785,0.43266 13.4113,1.36338 20.4153,1.0552 23.04448,-1.01398 0.75846,-0.59691 0.63441,-0.62308 -1.66091,-0.3503 -9.13223,1.0853 -15.42253,-0.73048 -20.9565,-6.04933 -2.47215,-2.37606 -3.05998,-2.75726 -3.66714,-2.37809 -0.91267,0.56997 -4.93352,-0.24207 -6.94576,-1.40274 l -1.38888,-0.80112 -1.71651,1.40656 -1.71652,1.40655 1.16773,-2.433 c 0.64225,-1.33816 1.37413,-3.54287 1.62639,-4.89936 0.37157,-1.99798 0.5648,-2.37831 1.01744,-2.00265 0.30733,0.25506 0.64118,0.38133 0.74188,0.28063 0.49972,-0.49972 1.10492,-8.72159 0.91625,-12.44745 -0.25176,-4.97159 -0.70255,-8.15288 -2.38635,-16.84092 -2.20069,-11.35503 -3.82986,-16.78466 -5.42103,-18.06702 -0.92499,-0.74546 -4.69067,-1.36153 -14.81042,-2.42302 -5.34361,-0.56052 -10.73889,-1.17139 -11.98951,-1.35752 -2.02101,-0.30077 -2.14755,-0.3741 -1.13787,-0.6594 0.62481,-0.17654 1.46201,-0.18471 1.86045,-0.0181 0.39842,0.16655 2.6779,0.35859 5.06545,0.42679 2.38757,0.0681 7.78287,0.60604 11.98953,1.19524 4.20668,0.58922 9.60196,1.16087 11.98953,1.27036 5.08341,0.23311 5.46077,0.49146 6.20102,4.2453 0.63757,3.23302 0.75442,3.45485 0.80987,1.53746 0.0262,-0.90955 0.29389,-2.92541 0.59462,-4.47968 0.3942,-2.03729 0.41879,-2.87055 0.0881,-2.98569 -0.25224,-0.0878 -2.73399,-0.35088 -5.515,-0.5845 -2.78101,-0.23362 -7.61816,-0.78727 -10.74922,-1.23034 -3.13108,-0.44306 -8.39049,-1.0989 -11.68762,-1.45743 -5.00809,-0.54459 -34.82886,-4.24543 -36.13521,-4.48449 -0.22495,-0.0411 -0.63923,1.13445 -0.92064,2.61246 -0.97828,5.13827 -1.39327,13.48057 -1.38719,27.88593 0.006,15.25888 0.24375,17.75561 2.01713,21.22211 1.57428,3.0773 5.17188,5.87839 7.54992,5.87839 1.48365,0 4.7897,-2.02516 6.52579,-3.99745 2.96815,-3.37199 5.3995,-9.48398 5.3995,-13.5734 0,-5.31069 2.73528,-9.20127 7.10365,-10.10402 5.25662,-1.0863 9.84705,2.34076 9.84705,7.35146 0,2.05848 -0.68237,3.96859 -3.28571,9.19734 -4.79111,9.62285 -11.61798,16.73409 -18.69697,19.47581 -3.45069,1.33644 -9.23414,1.49149 -13.37546,0.35859 -4.06667,-1.11249 -6.37289,-2.39983 -9.21241,-5.14242 -1.97336,-1.906 -2.23633,-2.0439 -2.61731,-1.37246 -1.07754,1.899 -4.42711,1.64296 -7.03969,-0.53812 l -1.33746,-1.11657 -1.44187,0.85073 c -1.40518,0.82907 -1.43291,0.83012 -1.08999,0.0406 1.45774,-3.35559 2.41004,-7.04049 2.61335,-10.11225 0.24009,-3.62723 0.73474,-3.40419 0.91686,0.41344 l 0.0888,1.86043 0.37211,-1.65372 c 0.20465,-0.90954 0.45168,-5.56066 0.54895,-10.33579 0.10016,-4.91418 0.0312,-8.05408 -0.15851,-7.23506 -0.21993,0.94895 -0.35409,1.13699 -0.38978,0.54632 -0.03,-0.49538 -0.29903,-1.14654 -0.598,-1.447 -0.29895,-0.30049 -0.75841,-0.91842 -1.021,-1.3732 -0.42988,-0.74449 -0.4787,-0.68614 -0.49001,0.5857 -0.0295,3.32428 -0.36502,0.52375 -0.81293,-6.78717 -1.05882,-17.28242 -2.35613,-21.28715 -7.33883,-22.65454 -1.32183,-0.36276 -3.88621,-0.85952 -5.69864,-1.10392 -1.81242,-0.2444 -3.47752,-0.62656 -3.70022,-0.84926 -0.2227,-0.2227 -1.06536,-0.42649 -1.87259,-0.45286 -0.80721,-0.0264 -1.15042,-0.13142 -0.76265,-0.23349 0.38777,-0.10203 3.27146,0.1247 6.40819,0.5039 8.57344,1.03638 9.92059,1.13528 9.26773,0.6804 -0.31336,-0.21834 -0.44192,-0.60383 -0.28567,-0.85664 0.33079,-0.53523 -0.65374,-0.62439 -1.23241,-0.11157 -0.21693,0.19223 -1.31816,0.058 -2.45992,-0.29984 l -2.06715,-0.64787 2.06715,-0.23311 2.06717,-0.23311 -2.27388,-0.2271 c -1.25062,-0.12485 -5.90174,-0.71432 -10.33579,-1.30978 -4.43406,-0.59547 -15.78276,-2.01876 -25.21934,-3.16285 -9.43659,-1.1441 -18.70787,-2.30061 -20.60287,-2.57005 -3.7826,-0.53779 -4.18629,-0.37217 -4.19437,1.72075 -0.003,0.90391 0.19022,1.04441 1.54403,1.11988 0.85142,0.0475 2.75733,0.2622 4.23534,0.47719 2.68249,0.3902 2.67958,0.39087 -1.62441,0.37591 -3.93799,-0.0141 -4.33817,0.0566 -4.61686,0.80989 -0.81022,2.19025 -1.37241,13.44539 -1.38916,27.81109 -0.0163,13.92304 0.0595,15.75532 0.74343,17.97184 1.68133,5.44961 4.51936,8.84364 8.31835,9.94803 2.06046,0.599 2.31264,0.58667 4.46366,-0.21813 5.53411,-2.07057 10.48322,-9.9026 11.49003,-18.18316 0.55295,-4.54774 0.76141,-5.18998 2.26432,-6.97607 1.28993,-1.53301 3.48371,-2.75977 5.66798,-3.16954 3.31138,-0.62122 8.13462,2.37424 8.81482,5.47442 0.13845,0.63105 0.3208,1.37318 0.40521,1.64918 0.32058,1.04828 -1.11854,5.23118 -3.28824,9.55742 -2.68122,5.3462 -6.14226,10.06841 -10.15125,13.85031 -5.91268,5.57771 -10.47384,7.70852 -17.17027,8.02132 -7.48218,0.3495 -12.17333,-1.37085 -17.37139,-6.37047 -2.37665,-2.28593 -3.30347,-2.9478 -3.56038,-2.5426 -0.19102,0.3013 -0.35017,0.78037 -0.35364,1.06462 -0.008,0.61823 -0.68038,0.68511 -1.03991,0.10329 -0.14047,-0.22739 -0.62587,-0.41343 -1.07852,-0.41343 -1.11179,0 -3.21819,-1.09974 -4.62095,-2.41259 l -1.15171,-1.07788 -0.24015,0.91837 c -0.13204,0.50511 -0.41549,0.91836 -0.62978,0.91836 -0.2143,0 -0.25561,-0.23254 -0.0919,-0.51677 0.16379,-0.28425 -0.19573,-0.0672 -0.79892,0.48216 l -1.09671,0.99897 1.29357,-3.06613 c 0.71147,-1.68637 1.74886,-4.03013 2.30531,-5.20834 0.93208,-1.97357 1.02937,-2.77109 1.23545,-10.12909 0.26861,-9.58982 -0.24677,-14.88535 -1.58761,-16.31259 -0.49136,-0.52304 -1.02528,-0.8695 -1.18646,-0.76988 -0.32284,0.19954 -0.81657,-5.19954 -0.83174,-9.09539 -0.009,-2.51754 -0.71954,-6.48858 -1.86225,-10.41936 -0.72865,-2.50645 -3.95976,-6.08714 -5.86804,-6.50289 -0.63458,-0.13829 -4.05195,-0.59611 -7.59414,-1.01748 -3.54218,-0.42134 -6.83225,-0.97583 -7.31124,-1.23218 -0.47899,-0.25636 -1.28622,-0.46609 -1.79384,-0.46609 -0.50762,0 -0.82235,-0.10063 -0.69939,-0.22357 0.12297,-0.12298 1.46995,-0.0959 2.99329,0.0602 1.83326,0.18782 2.58472,0.40896 2.22256,0.65405 -0.33852,0.2291 0.1622,0.27692 1.31332,0.12531 1.14916,-0.15125 4.3894,0.1567 8.47535,0.80558 8.84262,1.40425 10.14592,1.31815 4.75445,-0.31411 -4.16987,-1.26244 -4.27583,-1.32285 -2.6873,-1.53231 l 1.65374,-0.21806 -1.44703,-0.29605 c -0.79585,-0.16283 -6.09811,-0.85301 -11.7828,-1.53371 -5.68465,-0.68057 -16.28918,-1.99285 -23.56558,-2.91602 -11.344108,-1.43926 -22.124452,-2.7667 -28.036697,-3.45233 -1.758665,-0.20393 -1.834919,-0.10829 -2.105932,2.63963 -0.100942,1.02324 -0.383316,3.25577 -0.627562,4.96118 -0.580138,4.0508 -1.259062,19.72676 -1.262344,29.14694 -0.0047,12.3721 1.202982,17.4326 5.170896,21.67462 4.630103,4.94996 8.992912,5.01481 13.710161,0.20377 3.965055,-4.04388 6.672032,-10.11323 7.360832,-16.50378 0.507478,-4.70828 1.825152,-6.8849 5.066276,-8.36874 4.16063,-1.9048 9.12789,-0.6247 11.28148,2.90732 1.49744,2.45591 1.12653,5.17227 -1.47196,10.77986 -3.24414,7.0009 -6.23989,11.37549 -10.998011,16.06004 -3.152468,3.10373 -4.759235,4.34231 -7.083287,5.46013 -10.057965,4.83767 -20.795385,3.26428 -28.332648,-4.15171 -2.892799,-2.84625 -3.142358,-3.00221 -3.648321,-2.27985 -1.187949,1.69604 -4.726576,1.31012 -6.528259,-0.71197 -0.924655,-1.03775 -2.001318,-1.13766 -2.734885,-0.25379 -0.925749,1.11547 -0.854933,0.38186 0.191556,-1.98444 0.56145,-1.26955 1.145494,-3.24807 1.297861,-4.3967 0.152351,-1.14866 0.41488,-2.00326 0.583373,-1.89913 0.558137,0.34495 0.829619,-3.52913 0.822368,-11.7355 -0.0078,-9.34896 -0.407707,-13.831 -1.901609,-21.3374 -1.309752,-6.58112 -1.354004,-6.736 -1.744336,-6.10444 -0.165633,0.268 -0.61789,-1.36883 -1.005003,-3.63741 -0.784195,-4.59554 -1.329378,-5.89184 -3.478296,-8.27044 -1.775025,-1.96474 -4.005432,-2.68717 -9.537815,-3.08928 -2.103322,-0.15282 -3.824235,-0.44424 -3.824235,-0.64748 0,-0.49123 0.920998,-0.46042 7.028347,0.23516 2.842343,0.32372 6.284153,0.71595 7.648486,0.87159 3.341353,0.38121 2.562924,-0.50901 -1.333644,-1.52515 -2.006802,-0.52332 -2.449105,-0.74454 -1.560389,-0.78038 1.168261,-0.0472 1.185871,-0.0719 0.303187,-0.42651 -1.013394,-0.40708 -4.377873,-0.85459 -13.739709,-1.82749 -10.733717,-1.11547 -15.670508,0.56843 -18.572885,6.33507 -5.1658177,10.26381 -5.3663432,37.09354 -0.407677,54.5458 1.917782,6.7497 4.087561,10.37641 7.954861,13.29624 3.105544,2.34472 5.943606,3.151 14.539858,4.13067 4.092984,0.46646 10.511503,1.22036 14.263407,1.67532 3.751888,0.45496 13.240153,1.48256 21.085025,2.28358 7.844871,0.80101 16.774999,1.73091 19.844729,2.06645 3.069729,0.33554 6.604576,0.70461 7.8552,0.82016 2.647991,0.24465 24.107731,2.48347 29.560381,3.08392 2.04649,0.22537 10.32546,1.07382 18.39772,1.88545 8.07224,0.81163 21.00233,2.12728 28.73351,2.92363 7.73116,0.79635 20.56823,2.08882 28.5268,2.87216 7.95855,0.78333 18.93517,1.88895 24.39247,2.45691 5.4573,0.56797 20.52688,2.05232 33.48798,3.29857 12.96109,1.24624 29.33299,2.83064 36.382,3.52091 7.04901,0.69025 16.81634,1.62 21.70518,2.06612 4.88881,0.44611 9.53993,0.8795 10.33579,0.96308 0.79585,0.0836 3.49861,0.18176 6.00612,0.21813 3.53821,0.0514 4.76488,-0.078 5.47797,-0.57742 z m -30.99292,-4.6 c 0.29845,-0.11938 0.65503,-0.1047 0.79242,0.0326 0.13735,0.13735 -0.10688,0.23511 -0.54262,0.21716 -0.48164,-0.0198 -0.5796,-0.11782 -0.2498,-0.24978 z m -9.01797,-0.40104 c -0.79586,-0.0758 -4.51674,-0.42896 -8.26865,-0.78498 -14.35419,-1.36203 -23.22285,-2.30936 -30.86185,-3.29656 -4.35401,-0.56267 -8.13238,-1.02305 -8.3964,-1.02305 -0.26399,0 -0.37372,-0.17197 -0.24382,-0.38215 0.12985,-0.21018 -0.0917,-0.46766 -0.49238,-0.57218 -1.53961,-0.40162 1.98414,-0.24453 7.54006,0.33611 24.6387,2.57494 41.40998,3.76406 43.20363,3.06321 0.34108,-0.13329 0.48227,-0.16484 0.31376,-0.0702 -0.5414,0.30427 0.7254,1.23616 2.08689,1.5352 0.72613,0.15948 1.32023,0.44829 1.32023,0.6418 0,0.19351 0.4186,0.43244 0.93022,0.53099 1.07902,0.20783 -4.9819,0.22631 -7.13169,0.0217 z M 242.0364,267.4203 c -1.9328,-0.2014 -4.34695,-0.47225 -5.3648,-0.60188 l -1.85061,-0.23572 1.43718,-0.6062 c 1.27601,-0.53822 2.15225,-0.52486 7.81269,0.11922 3.50651,0.39896 6.15649,0.79837 5.88882,0.88759 -0.26767,0.0892 -0.3815,0.33238 -0.25297,0.54034 0.27724,0.44859 -2.76759,0.40759 -7.67031,-0.10328 z m -13.64325,-1.41589 c -0.34108,-0.0813 -2.94571,-0.33596 -5.78805,-0.56609 -6.15931,-0.49868 -18.21548,-1.76617 -27.44142,-2.88499 -3.6667,-0.44465 -10.94573,-1.20312 -16.17564,-1.68549 -5.22992,-0.48238 -11.83448,-1.14806 -14.67684,-1.47929 -2.84234,-0.33124 -6.88963,-0.7906 -8.99399,-1.02082 -5.50269,-0.602 -8.74702,-1.10652 -7.49054,-1.16484 0.59747,-0.0277 1.3005,-0.30848 1.5623,-0.62392 0.35151,-0.42355 0.87829,-0.48533 2.01443,-0.23626 0.84613,0.18551 3.77096,0.54878 6.49961,0.80729 2.72865,0.2585 8.03091,0.82407 11.78282,1.25681 3.75189,0.43274 10.82158,1.16798 15.7104,1.63388 4.88883,0.4659 11.67945,1.12015 15.09027,1.4539 3.41081,0.33377 9.73631,0.89067 14.05668,1.23756 4.32036,0.34691 8.97148,0.8137 10.33579,1.03732 1.36434,0.2236 2.61288,0.40764 2.77456,0.40897 0.16168,10e-4 0.6268,0.35439 1.03358,0.78463 0.40679,0.43024 1.1117,0.87377 1.56647,0.98563 0.65788,0.16181 0.61563,0.20337 -0.20671,0.20337 -0.56847,0 -1.31264,-0.0664 -1.65372,-0.14766 z m -84.83105,-9.13434 c 0.29845,-0.11939 0.65503,-0.1047 0.79242,0.0326 0.13735,0.13735 -0.10688,0.23509 -0.54264,0.21714 -0.48162,-0.0199 -0.57959,-0.11782 -0.24978,-0.24978 z m -8.39783,-0.56588 c -1.36432,-0.17955 -7.9689,-0.81024 -14.67684,-1.40153 -6.70792,-0.59131 -15.63805,-1.43378 -19.84473,-1.87217 -4.206657,-0.4384 -8.857762,-0.90699 -10.335788,-1.04131 -3.32207,-0.30192 -14.776588,-1.6595 -20.878311,-2.47449 -2.501264,-0.3341 -6.780272,-0.81311 -9.508922,-1.06449 -5.14366,-0.47387 -6.025126,-0.75052 -5.027998,-1.57807 0.45446,-0.37717 1.470025,-0.34533 4.461923,0.13986 2.130433,0.3455 4.664214,0.62895 5.630606,0.62985 0.966407,9.3e-4 1.757087,0.16192 1.757087,0.35777 0,0.19586 0.439693,0.27205 0.977095,0.16931 0.537417,-0.10266 2.723431,0.0276 4.857833,0.28973 9.365353,1.14995 10.872911,1.2983 29.513505,2.90441 5.2299,0.45063 12.85773,1.1949 16.95069,1.65394 4.09299,0.45905 9.72434,0.95505 12.51414,1.10223 4.5065,0.23773 5.17586,0.37109 6.00015,1.19537 0.51028,0.51029 1.39048,1.01419 1.95597,1.1198 1.77439,0.33135 -1.60933,0.22995 -4.34641,-0.13032 z m 15.09026,-1.78838 c 0,-0.0859 0.32557,-0.41144 0.7235,-0.72351 0.65574,-0.51426 0.67035,-0.49963 0.1561,0.15611 -0.54009,0.68867 -0.87959,0.90768 -0.87959,0.56741 z M 38.702788,246.40435 c -7.388911,-0.91161 -10.724654,-2.34921 -14.161183,-6.10301 -3.870441,-4.22777 -5.431393,-8.95838 -6.785616,-20.56443 -0.37144,-3.18343 -0.826744,-6.90431 -1.011784,-8.26865 -0.18504,-1.36431 -0.182321,-5.36426 0.0062,-8.88878 0.792227,-14.82428 2.520828,-23.13486 5.490443,-26.3965 1.056615,-1.16053 3.65854,-2.55522 4.691341,-2.51466 0.651673,0.0256 0.641313,0.0714 -0.08688,0.38436 -0.788977,0.33905 -0.784242,0.35666 0.103286,0.38438 0.511619,0.0159 0.930218,0.23681 0.930218,0.49071 0,0.25822 -0.364628,0.3663 -0.827432,0.24528 -0.455085,-0.11907 -0.723176,-0.0477 -0.595748,0.15849 0.256013,0.41424 0.237356,0.41907 -2.032038,0.52595 -1.809745,0.0852 -3.672571,1.75482 -2.660787,2.38481 0.43549,0.27115 0.431521,0.49927 -0.02141,1.22973 -2.965412,4.78227 -4.347402,30.12375 -2.297301,42.12533 2.455933,14.37732 8.422728,21.56248 18.894291,22.75234 2.785606,0.31651 3.845284,0.27559 5.195069,-0.20064 0.932609,-0.32904 1.676739,-0.46808 1.653613,-0.30897 -0.143132,0.98516 0.288123,1.43959 2.226407,2.34604 l 2.170513,1.01507 -2.480591,-0.0333 c -1.364318,-0.0183 -5.144551,-0.3619 -8.400493,-0.7636 z M 30.92317,211.56322 c -1.512434,-1.42901 -1.973175,-2.21544 -2.417338,-4.12622 -0.511744,-2.20144 -0.488649,-2.47957 0.342267,-4.12256 1.747914,-3.45612 5.181193,-4.52793 8.836264,-2.75854 2.291644,1.10936 3.424169,3.18876 3.424169,6.28701 0,3.86455 -2.639599,6.48376 -6.535619,6.48516 -1.529888,5.5e-4 -2.044757,-0.24842 -3.649743,-1.76485 z m 2.123433,-0.94723 c -0.454772,-0.34061 -1.168589,-1.03237 -1.58625,-1.53724 -0.417661,-0.50486 -0.622531,-0.63887 -0.455273,-0.29779 0.493009,1.00542 1.943065,2.48165 2.423667,2.46745 0.24459,-0.008 0.07266,-0.29183 -0.382144,-0.63242 z m 5.8914,-1.42073 c 1.128524,-1.65408 1.177058,-3.05918 0.171665,-4.96849 -0.791867,-1.50381 -2.938708,-2.88583 -4.48455,-2.88694 -1.071256,-7.5e-4 -2.611316,1.97884 -2.62391,3.3728 -0.0047,0.53217 0.135475,1.80479 0.311609,2.82803 0.289405,1.68071 0.498509,1.94593 2.164403,2.74519 2.201328,1.05613 3.155281,0.8229 4.460783,-1.09059 z m -4.077232,-0.20743 c -0.593936,-0.3228 -1.313253,-1.15034 -1.598501,-1.83898 -0.468695,-1.13153 -0.424427,-1.35138 0.45971,-2.28343 0.538089,-0.56725 1.117883,-1.03457 1.288423,-1.0385 0.17054,-0.005 0.310078,0.83605 0.310078,1.86662 0,1.56311 0.154226,1.93222 0.930218,2.22627 0.539511,0.20444 1.131821,0.19041 1.41021,-0.0334 0.299296,-0.24064 0.574263,-0.23336 0.730426,0.0194 0.261763,0.42354 -1.289563,1.71423 -2.025912,1.68554 -0.233637,-0.009 -0.910732,-0.28065 -1.504652,-0.60345 z m -3.873707,-3.97179 c 0.0047,-0.32614 0.453882,-1.2197 0.999299,-1.98568 0.619796,-0.87043 0.771991,-1.32044 0.405817,-1.19999 -0.724254,0.23823 -2.446308,2.72455 -2.446308,3.53201 0,0.32641 0.232543,0.51544 0.516791,0.42006 0.284233,-0.0953 0.520213,-0.44024 0.524401,-0.7664 z m 22.328867,7.9173 c -0.134382,-0.21745 -0.517479,-0.29058 -0.851276,-0.16248 -0.486181,0.18655 -0.606905,-0.19968 -0.606905,-1.94177 v -2.17464 l 0.786742,0.90713 c 0.563856,0.65012 0.847432,0.75588 1.00094,0.37333 0.117818,-0.2936 0.228886,0.3499 0.24684,1.43 0.03234,1.94923 -0.10688,2.32812 -0.576341,1.56843 z m 263.965049,-4.56581 c 0,-0.22738 0.19703,-0.41342 0.43784,-0.41342 0.24081,0 0.32286,0.18604 0.18232,0.41342 -0.14048,0.22739 -0.33756,0.41343 -0.43783,0.41343 -0.10032,0 -0.18233,-0.18604 -0.18233,-0.41343 z m -11.98951,-2.96368 c -0.79587,-0.22468 -1.63306,-0.59882 -1.86045,-0.83143 -0.40633,-0.41566 1.91925,-0.29287 7.02835,0.37108 1.9079,0.24794 1.97161,0.29086 0.82687,0.55712 -1.78708,0.41567 -4.32475,0.37471 -5.99477,-0.0967 z m -26.76185,-1.87057 c 0.40225,-0.10485 0.96039,-0.098 1.2403,0.0156 0.2799,0.11329 -0.0492,0.19901 -0.73137,0.19059 -0.68217,-0.008 -0.91118,-0.1011 -0.50893,-0.2059 z M 50.749789,193.07056 c 0,-1.47803 0.075,-2.08267 0.166742,-1.34366 0.09172,0.739 0.09172,1.9483 0,2.6873 -0.09172,0.73902 -0.166742,0.13438 -0.166742,-1.34364 z m 161.209441,2.19559 c 0.39792,-0.10407 1.04908,-0.10407 1.44701,0 0.39794,0.10407 0.0723,0.18907 -0.72351,0.18907 -0.79585,0 -1.12143,-0.085 -0.7235,-0.18907 z m -3.29959,-0.41494 c 0.40226,-0.10485 0.96039,-0.098 1.2403,0.0156 0.2799,0.11329 -0.0492,0.19903 -0.73138,0.19059 -0.68216,-0.008 -0.91117,-0.1011 -0.50892,-0.2059 z m -3.93547,-0.40074 c 0.28424,-0.11469 0.74935,-0.11469 1.03358,0 0.28423,0.11469 0.0517,0.20853 -0.51679,0.20853 -0.56847,0 -0.80103,-0.0939 -0.51679,-0.20853 z m -11.67944,-0.46415 c -1.65232,-0.14032 -1.90122,-0.25124 -1.2403,-0.55304 0.57406,-0.26214 0.13173,-0.32222 -1.44702,-0.19651 -1.58386,0.1261 -2.02296,0.0661 -1.44701,-0.19788 0.58219,-0.26682 0.31058,-0.30807 -0.91778,-0.13939 -1.93941,0.26628 -7.22609,-0.18874 -6.97184,-0.60006 0.0892,-0.14438 -0.70374,-0.20582 -1.76212,-0.13657 -1.42662,0.0933 -1.76395,0.0141 -1.30421,-0.30375 0.46879,-0.32473 0.11564,-0.44283 -1.447,-0.48388 -1.13694,-0.0298 -1.73445,-0.14079 -1.3278,-0.2464 0.68151,-0.1771 19.82332,1.79441 20.7591,2.13809 0.22738,0.0834 0.0414,0.17958 -0.41343,0.21352 l -0.82687,0.0617 0.82687,0.35531 c 0.45831,0.19695 0.55045,0.33506 0.20671,0.30986 -0.34107,-0.025 -1.55037,-0.12438 -2.6873,-0.22095 z m -76.58039,-10.29777 c 0.40226,-0.10485 0.96039,-0.098 1.2403,0.0156 0.2799,0.11329 -0.0492,0.19903 -0.73137,0.19059 -0.68217,-0.008 -0.91118,-0.1011 -0.50893,-0.2059 z m -3.31532,-0.41191 c 0.39793,-0.10407 1.04909,-0.10407 1.44701,0 0.39793,0.10407 0.0724,0.18907 -0.7235,0.18907 -0.79585,0 -1.12143,-0.085 -0.72351,-0.18907 z m -30.322133,-2.78511 c -0.09688,-0.0969 -2.498201,-0.38969 -5.336357,-0.6508 -2.838171,-0.2611 -5.239524,-0.55396 -5.336373,-0.65079 -0.579544,-0.57956 1.046974,-0.55973 7.399522,0.0902 4.118922,0.42141 6.79221,0.85446 6.349672,1.02858 -0.856745,0.33712 -2.80631,0.45296 -3.076464,0.1828 z m 5.102799,-0.10891 c 0.397925,-0.10407 1.049083,-0.10407 1.447008,0 0.397926,0.10391 0.07235,0.18907 -0.723504,0.18907 -0.795867,0 -1.12143,-0.0852 -0.723504,-0.18907 z m -59.120761,-7.02833 c 0.397926,-0.10407 1.049083,-0.10407 1.447009,0 0.397926,0.10407 0.07235,0.18907 -0.723504,0.18907 -0.795852,0 -1.121431,-0.0852 -0.723505,-0.18907 z M 346.84136,277.75585 c 2.50853,-0.71913 3.19693,-1.14367 5.1679,-3.18707 1.25064,-1.29659 2.61866,-2.96972 3.04007,-3.71807 l 0.7662,-1.36063 -1.20069,0.62089 c -0.66036,0.34148 -1.56183,1.29152 -2.00322,2.11115 -1.03727,1.92609 -2.9786,3.18153 -6.69513,4.32971 -1.64561,0.50839 -3.41303,1.27821 -3.9276,1.71071 l -0.93558,0.78635 1.44703,-0.2317 c 0.79585,-0.1275 2.74931,-0.60504 4.34102,-1.06134 z m -2.90994,-7.96819 c 2.33818,-0.7037 5.36152,-2.64921 8.46008,-5.44405 2.52922,-2.28134 4.67604,-5.0458 4.34031,-5.58903 -0.12298,-0.19898 -0.0533,-0.36178 0.15469,-0.36178 0.45662,0 3.70011,-6.53423 4.458,-8.98095 0.36232,-1.16962 0.43468,-2.41735 0.21925,-3.78017 -0.36479,-2.30761 0.23984,-3.96201 1.60648,-4.39578 0.4557,-0.14469 0.82854,-0.50671 0.82854,-0.80463 0,-0.29791 0.27906,-0.77326 0.62014,-1.05633 0.39107,-0.32455 0.62016,-0.35227 0.62016,-0.075 0,0.24181 -0.17145,0.54561 -0.38099,0.67511 -0.20956,0.12954 -0.50999,1.48931 -0.66764,3.02179 -0.37988,3.69253 -2.35424,9.85771 -4.46706,13.94897 -1.77823,3.44333 -6.6508,8.82644 -10.57995,11.68849 -1.48635,1.08266 -1.6628,1.33461 -0.93465,1.33461 2.86118,0 9.71249,-4.21638 14.00339,-8.61789 4.61762,-4.73664 10.356,-14.28732 10.76511,-17.91687 0.29014,-2.57411 -0.68191,-4.32387 -2.96251,-5.33269 -1.41783,-0.62717 -2.14868,-0.71458 -3.58817,-0.42916 -4.45235,0.88281 -5.50204,2.09867 -6.36508,7.37269 -0.69435,4.24316 -0.98765,5.32006 -2.28413,8.38665 -1.33535,3.15848 -3.63535,6.47288 -6.07,8.74707 -3.46308,3.23485 -6.32433,4.35306 -12.1386,4.74394 -3.26152,0.21926 -3.74275,0.14844 -5.89043,-0.86764 -6.93327,-3.27996 -10.59071,-9.95268 -11.41343,-20.82296 -0.45871,-6.06068 0.11376,-31.0185 0.80762,-35.21075 1.28555,-7.76708 4.6519,-17.1136 8.4245,-23.39027 5.18652,-8.62913 9.18679,-12.94023 18.44505,-19.87828 5.25986,-3.94169 10.32129,-8.71988 13.74596,-12.97676 2.50352,-3.1119 4.85642,-6.75766 4.85747,-7.52654 5.5e-4,-0.39795 0.17187,-0.72352 0.38071,-0.72352 0.66926,0 1.96928,-2.57027 3.55484,-7.02834 2.6456,-7.43849 4.56809,-10.58742 6.26712,-10.26524 1.42578,0.27038 1.18206,2.76978 -0.60178,6.17109 -3.38771,6.45954 -18.93766,27.19581 -21.80057,29.07167 -3.93468,2.57809 -15.49927,12.67661 -15.49927,13.53438 0,0.1604 0.30414,0.59577 0.67588,0.96751 0.62553,0.62553 0.57934,0.77544 -0.62015,2.013 -0.7128,0.73543 -1.29602,1.7469 -1.29602,2.24769 0,0.9976 -0.40926,1.16278 -1.11999,0.45202 -0.33574,-0.33572 -0.12907,-1.23254 0.7715,-3.34902 0.67652,-1.58978 1.15026,-2.97027 1.05277,-3.06776 -0.45591,-0.45592 -5.05323,5.9736 -7.72442,10.80291 -5.19864,9.39868 -6.76095,14.02017 -8.10622,23.97904 -0.81335,6.0212 -1.30142,35.74546 -0.64378,39.20818 0.69861,3.6785 3.09495,9.13687 5.02147,11.43788 1.89145,2.25913 6.05111,4.57163 8.12048,4.51446 0.64965,-0.018 0.94862,-0.12657 0.66439,-0.24117 -0.95589,-0.38572 -0.52748,-0.98493 0.51679,-0.72284 1.4762,0.37051 1.27738,-0.13063 -0.31594,-0.79642 -1.33739,-0.55881 -5.12648,-4.85937 -6.79819,-7.71587 -1.82142,-3.11233 -1.98368,-5.01234 -1.94196,-22.73875 0.0513,-21.78463 0.85265,-28.73329 4.32048,-37.46306 2.98884,-7.52395 6.35239,-13.11031 10.52113,-17.47394 4.07104,-4.2614 7.87148,-7.24981 16.9511,-13.32921 10.82618,-7.24884 16.53149,-13.35353 24.07614,-25.7615 3.39076,-5.57645 4.5982,-6.85323 4.09322,-4.3283 -0.51576,2.57879 -3.15133,7.06342 -6.74874,11.48354 -5.07745,6.23865 -5.11089,6.29003 -2.456,3.77267 6.08713,-5.77177 10.09774,-12.89098 10.49052,-18.62173 0.23637,-3.44855 -0.19274,-4.75895 -2.16053,-6.59761 -0.95997,-0.89698 -1.47062,-1.02972 -3.86353,-1.00439 -1.51654,0.0161 -3.22247,0.14173 -3.79094,0.27936 -0.56846,0.13766 -1.17726,0.26398 -1.35289,0.28087 -0.17562,0.0169 -1.16803,0.81306 -2.20536,1.76923 -2.02548,1.86701 -2.88725,3.30921 -4.43622,7.4241 -3.94562,10.48156 -11.429,20.32644 -21.15247,27.82737 -9.5317,7.35302 -15.80317,13.62161 -20.18768,20.17842 -4.76655,7.12816 -8.60756,17.34124 -9.98569,26.55154 -0.99326,6.63805 -1.69992,30.21652 -1.09817,36.6413 0.81684,8.72139 2.92415,14.06369 7.24017,18.35473 5.22413,5.19386 11.40674,7.35896 16.57368,5.80394 z m 0.63607,-2.91951 c 1.88761,-0.72691 2.63028,-0.71619 1.03358,0.0156 -0.68216,0.31236 -1.51936,0.56217 -1.86044,0.55512 -0.34109,-0.008 0.0309,-0.26356 0.82686,-0.57004 z m -9.65081,-2.94874 c -0.87388,-0.57181 -1.48359,-1.14494 -1.35489,-1.27362 0.22493,-0.22494 3.1505,1.79593 3.1505,2.17625 0,0.26593 -0.0419,0.2449 -1.79561,-0.90263 z m 42.13136,-125.21513 c 0.42037,-0.68216 1.37657,-2.44959 2.12489,-3.9276 0.74832,-1.47802 1.36116,-2.44304 1.36186,-2.14449 0.002,0.86391 -2.01752,4.71442 -3.18473,6.07209 l -1.06631,1.2403 z m 1.21414,-11.7828 c 0.14048,-0.2274 0.33756,-0.41344 0.43783,-0.41344 0.10032,0 0.18233,0.18604 0.18233,0.41344 0,0.22739 -0.19703,0.41343 -0.43784,0.41343 -0.24081,0 -0.32284,-0.18604 -0.18232,-0.41343 z m -30.74081,135.45293 c 5.48067,-2.64453 9.43699,-9.40696 10.66568,-18.23057 0.2522,-1.81116 0.7793,-3.74421 1.17134,-4.29566 0.39203,-0.55147 0.88993,-1.24303 1.10646,-1.53683 0.52096,-0.70691 -0.41919,-9.25839 -1.46928,-13.36414 -0.84819,-3.31643 -2.95375,-7.82898 -4.75478,-10.19024 -1.54421,-2.02457 -4.70948,-4.23861 -7.42329,-5.19244 -1.94864,-0.68488 -13.78127,-2.64888 -14.05456,-2.33279 -0.0486,0.0563 -0.21792,0.70686 -0.37624,1.44589 -0.27128,1.26626 -0.2205,1.34401 0.88192,1.34997 0.64339,0.003 1.44885,0.20052 1.78994,0.43785 0.45337,0.31547 0.16295,0.36217 -1.07992,0.17368 -1.62246,-0.24606 -1.71096,-0.20336 -1.93874,0.93554 -0.57701,2.88508 -1.20456,21.35845 -1.00758,29.6607 0.23317,9.82794 0.66253,12.1851 2.92182,16.04026 1.22696,2.09367 3.92733,4.65601 5.79908,5.5027 1.6885,0.76378 5.79013,0.55052 7.76815,-0.40392 z m -5.90053,-17.15594 c -2.10034,-1.33198 -2.95057,-2.92578 -3.00929,-5.64098 -0.0631,-2.91933 2.92418,-5.9906 5.82684,-5.9906 1.89315,0 4.39835,1.34169 5.56536,2.9806 1.29276,1.81551 1.34879,5.54013 0.10876,7.23074 -2.00782,2.73748 -5.49497,3.32071 -8.4917,1.42024 z m 1.63975,-2.06727 c -0.53183,-0.65169 -1.18859,-1.5354 -1.45946,-1.9638 -0.46899,-0.74175 -0.49363,-0.74288 -0.51677,-0.0236 -0.0141,0.41542 0.51949,1.29912 1.18416,1.9638 1.54961,1.5496 2.04956,1.56448 0.79207,0.0236 z m 5.64366,-0.87396 c 0.79566,-1.53866 0.78868,-2.6379 -0.0277,-4.35825 -0.76224,-1.6063 -3.11192,-2.92669 -4.16219,-2.33893 -0.37277,0.20862 -0.99808,0.29553 -1.38957,0.19315 -0.83107,-0.21732 -2.47821,1.66404 -2.47821,2.83061 0,1.26953 0.62085,0.87739 1.39736,-0.88261 0.40129,-0.90956 0.8992,-1.65373 1.10645,-1.65373 0.20726,0 0.0675,0.64883 -0.31072,1.44182 -0.79143,1.65966 -0.47881,2.31314 0.62759,1.31186 1.2933,-1.17042 2.07574,-0.86579 2.21891,0.86385 0.11141,1.34601 0.27818,1.56761 1.26525,1.68118 1.93561,0.22273 1.07588,1.31619 -1.03485,1.31619 -1.04335,0 -2.37596,-1.12577 -2.37596,-2.00719 0,-0.44531 -0.13126,-0.50756 -0.43323,-0.20554 -0.74031,0.7403 0.40504,2.52626 2.04007,3.18111 1.77244,0.70988 2.65581,0.36875 3.55677,-1.37352 z m -83.93053,17.9981 c 3.61253,-1.76746 7.2201,-6.03128 10.18789,-12.04122 2.03951,-4.13008 2.52162,-5.52039 2.79561,-8.06191 0.20943,-1.94278 0.17741,-3.31954 -0.0872,-3.7472 -0.53852,-0.87061 0.35069,-3.13311 1.3569,-3.45247 0.39582,-0.12563 0.94091,-0.71399 1.21131,-1.30747 0.2704,-0.59348 0.59278,-0.97792 0.71639,-0.85432 0.1236,0.1236 0.0236,0.60053 -0.22219,1.05982 -0.24581,0.4593 -0.44693,1.47096 -0.44693,2.24814 0,1.94136 -1.80554,8.93472 -3.33556,12.91953 -2.28288,5.94559 -5.78166,10.64963 -8.58208,11.53846 -1.05833,0.3359 -0.98614,1.29617 0.0905,1.20327 0.54793,-0.0473 0.59306,0.0613 0.21494,0.5168 -1.76479,2.12644 4.8997,-1.83666 8.00363,-4.75943 3.87355,-3.64747 6.4507,-7.22298 9.46199,-13.12743 2.07255,-4.06384 2.59748,-5.49339 2.73985,-7.46155 0.15719,-2.1732 0.0572,-2.57593 -0.93159,-3.751 -1.50269,-1.78584 -3.70887,-2.41888 -6.22336,-1.78573 -4.02587,1.01372 -5.02951,2.43662 -5.5986,7.9373 -0.5019,4.85121 -2.15361,9.72804 -4.52299,13.35453 -2.87558,4.40128 -6.10799,6.50558 -10.77472,7.01432 -1.89184,0.20623 -2.62271,0.0864 -4.11366,-0.67403 -0.99719,-0.50865 -1.89607,-1.20389 -1.9975,-1.54497 -0.15501,-0.52106 -0.0592,-0.51317 0.5995,0.0494 0.43114,0.36823 1.24901,0.75225 1.81748,0.85337 0.90265,0.16055 0.76843,-0.0814 -1.05959,-1.90983 -2.70733,-2.708 -4.294,-5.45635 -4.98623,-8.63691 -0.88107,-4.04836 -1.11052,-14.36851 -0.61282,-27.56488 0.64298,-17.04868 1.66755,-23.35526 5.2509,-32.32098 4.99602,-12.50034 11.06223,-19.20203 26.13165,-28.86915 13.82447,-8.8685 18.53971,-13.89243 28.40208,-30.2615 2.0424,-3.38989 2.06876,-3.41411 2.20152,-2.02284 0.20796,2.17952 -2.23602,6.61253 -6.72229,12.19324 -2.17502,2.70564 -3.95458,5.02536 -3.95458,5.15496 0,0.63636 5.2404,-5.05515 6.99178,-7.59367 3.787,-5.48902 5.41117,-9.77794 5.41117,-14.28913 0,-2.77613 -1.10536,-4.74025 -3.31569,-5.89165 -1.89958,-0.98952 -6.20288,-0.75519 -8.73278,0.47551 -2.5187,1.22526 -3.92699,3.20103 -6.39725,8.97502 -3.11984,7.29231 -4.26046,9.39268 -7.84185,14.44014 -3.88346,5.47316 -8.59019,10.19064 -15.68559,15.7214 -13.02197,10.15045 -18.2124,15.97396 -23.39897,26.25292 -3.36141,6.66184 -5.65467,14.90383 -6.55688,23.56561 -0.70743,6.7916 -1.27236,31.2137 -0.83434,36.0678 0.67238,7.45096 2.34394,12.10808 5.59245,15.58098 5.421,5.79551 12.06234,7.59322 17.75765,4.80677 z m -11.22784,-2.52348 c -4.95424,-2.57802 -7.24267,-5.57348 -8.88325,-11.62786 -0.77299,-2.85265 -0.89918,-4.67604 -1.0679,-15.43113 -0.23468,-14.96002 0.36593,-26.42798 1.71857,-32.81428 1.97584,-9.32847 5.29833,-16.97257 10.81849,-24.89012 4.06323,-5.82788 7.24022,-9.00753 14.37418,-14.38632 3.44598,-2.59815 7.52034,-5.87469 9.05412,-7.28118 3.65041,-3.34746 10.23439,-11.32142 10.23439,-12.39504 0,-0.46299 0.18371,-0.84179 0.40826,-0.84179 0.94965,0 3.8622,-5.83875 6.64111,-13.31333 2.1526,-5.78997 4.48742,-8.40163 6.08384,-6.80521 1.42682,1.42682 -0.85338,5.84962 -8.80649,17.08149 -8.02406,11.33206 -12.54537,16.56074 -17.88475,20.68285 -1.97966,1.52834 -4.62263,3.63994 -5.87325,4.69245 -1.25064,1.05252 -3.35733,2.70546 -4.68155,3.67319 -2.17964,1.59289 -2.33885,1.80986 -1.68111,2.29082 1.19729,0.87548 0.94075,3.87988 -0.43213,5.06078 -1.28585,1.10604 -2.63068,1.23695 -2.99351,0.2914 -0.16171,-0.42139 0.14235,-0.98247 0.84014,-1.55037 0.84465,-0.68741 1.06995,-1.20421 0.98989,-2.27063 l -0.1036,-1.38064 -1.56902,1.79409 c -4.5003,5.14583 -9.65257,14.36363 -11.81095,21.13071 -3.074,9.63773 -3.64028,14.72319 -4.01783,36.08203 -0.26734,15.12436 -0.24538,15.82441 0.60716,19.36494 2.18115,9.05815 6.727,13.58275 13.72149,13.65738 2.75591,0.0294 3.44445,-0.1272 5.72973,-1.30351 1.55999,-0.80296 2.37301,-1.06564 2.03557,-0.65772 -1.21101,1.46405 -4.56464,2.60654 -7.66349,2.61076 -2.59826,0.003 -3.31816,-0.17851 -5.78805,-1.46376 z m 47.78364,-131.15205 c 0.95775,-1.42755 2.20308,-3.75311 2.76742,-5.16791 0.56434,-1.41479 0.91459,-2.01421 0.77832,-1.33205 -0.3893,1.94899 -3.03161,7.03789 -4.21465,8.11715 -0.80418,0.73363 -0.63686,0.32911 0.66891,-1.61719 z m 13.59008,133.24692 c -0.0514,-0.62174 -0.23434,-0.8773 -0.4637,-0.64794 -0.20831,0.20829 -0.26684,0.6703 -0.13016,1.02666 0.37531,0.97806 0.68949,0.77768 0.59378,-0.37872 z m -137.37186,-5.89628 c 2.31713,-0.81329 5.61456,-3.92514 8.72293,-8.23201 3.62182,-5.01831 6.5492,-12.8067 6.34152,-16.87177 -0.12485,-2.44448 -0.10329,-2.50581 1.47438,-4.17862 l 1.44859,-1.53593 -0.25375,1.40315 c -1.33172,7.36438 -2.47493,12.18179 -3.43279,14.46546 -2.37046,5.65151 -5.54895,9.83441 -9.3397,12.29104 -1.25595,0.81395 -1.47848,1.10826 -0.92515,1.22364 0.40071,0.0836 0.62228,0.32388 0.49238,0.53406 -0.44544,0.72075 0.73273,0.38097 3.26893,-0.94275 3.10992,-1.62317 10.07642,-8.4251 12.61637,-12.31836 2.50913,-3.84601 5.88004,-10.85613 6.10447,-12.69479 0.22994,-1.88368 -0.77113,-4.01734 -2.4679,-5.26009 -1.43227,-1.04904 -4.88252,-1.05374 -7.08277,-0.009 -2.07659,0.98539 -2.95866,2.73018 -3.5077,6.93838 -0.57647,4.41834 -2.44173,9.75299 -4.53909,12.98179 -2.34497,3.60999 -6.89131,7.69173 -9.36752,8.41021 -3.10197,0.90005 -6.24031,0.75812 -8.56691,-0.38744 -2.39191,-1.17771 -2.3316,-1.54289 0.11235,-0.68059 2.19825,0.7756 3.58118,0.7958 1.81314,0.0266 -1.39303,-0.60612 -4.69466,-3.40489 -4.69466,-3.9796 0,-0.19092 -0.56995,-1.31377 -1.26656,-2.49523 -2.21584,-3.75808 -2.85469,-8.14148 -2.85556,-19.59346 -8.3e-4,-10.91555 0.57468,-24.5108 1.26884,-29.9738 1.63585,-12.87395 6.52929,-25.47717 12.7616,-32.86784 1.02904,-1.22031 1.02227,-1.21864 -0.41994,0.10328 -2.29965,2.10798 -3.55958,1.64812 -2.40817,-0.87896 0.52922,-1.16151 1.92877,-1.65657 3.27512,-1.15853 0.77052,0.28503 1.37856,-0.0989 3.85837,-2.43665 4.04894,-3.81689 7.64077,-6.55374 15.13995,-11.53621 8.45925,-5.62031 16.12385,-12.03605 16.12385,-13.49663 0,-0.3273 1.0038,-1.77834 2.23065,-3.22455 2.64263,-3.11511 5.4296,-7.21361 8.66723,-12.74598 2.41743,-4.13082 3.47495,-5.09486 3.0036,-2.7381 -0.667,3.33496 -5.0885,10.25863 -9.85397,15.4304 -3.51338,3.81294 -2.52763,3.59835 1.14426,-0.24909 6.83709,-7.16399 10.10522,-13.70356 10.10522,-20.22076 0,-2.16669 -0.198,-3.04242 -0.93847,-4.15083 -1.50964,-2.25978 -3.27507,-2.949318 -6.84961,-2.67532 -6.22116,0.47687 -7.66741,1.9959 -11.64065,12.22648 -4.0837,10.51497 -11.63215,20.44663 -21.05669,27.70469 -14.52783,11.18821 -20.83423,18.30611 -26.00297,29.3489 -3.57287,7.63324 -5.66074,15.30134 -6.6979,24.59919 -0.25363,2.27387 -0.56271,11.39006 -0.68684,20.25817 -0.24217,17.30234 -0.005,20.4936 1.96395,26.33592 2.02582,6.01358 7.09749,11.27179 12.78842,13.25881 2.57783,0.90006 7.55517,0.89683 10.12907,-0.006 z m -9.12707,-2.09909 c -1.38171,-0.4093 -3.16894,-1.15007 -3.97164,-1.64617 -2.14246,-1.32411 -5.06809,-4.61549 -6.3624,-7.15782 -3.26142,-6.40612 -3.84302,-12.61584 -3.13838,-33.508 0.27866,-8.26198 0.68991,-16.36976 0.91391,-18.01728 0.97379,-7.16218 4.39392,-17.63729 7.72853,-23.67087 5.32281,-9.63091 11.42335,-16.35013 20.97452,-23.10161 7.09451,-5.01493 14.97382,-13.36617 18.39675,-19.49865 2.38212,-4.26777 5.60362,-11.83674 6.90939,-16.23374 0.60825,-2.04822 3.10315,-5.24793 4.09195,-5.24793 0.30663,0 0.76721,0.39184 1.02351,0.87075 1.09657,2.04894 -1.162,6.78296 -7.75004,16.24435 -2.00355,2.87737 -4.14228,6.02295 -4.75274,6.99016 -2.52109,3.99444 -9.96986,12.32978 -13.82097,15.46596 -2.17403,1.77043 -4.261,3.40503 -4.6377,3.63241 -3.04101,1.83561 -7.77157,5.56794 -10.03643,7.91854 -5.08563,5.27816 -11.0263,15.51931 -13.51325,23.29557 -2.99565,9.3669 -3.70768,15.6098 -4.23174,37.10253 -0.40964,16.79999 -0.39416,17.63139 0.3901,20.93349 2.04858,8.62563 5.66378,13.04306 12.23163,14.94586 2.97156,0.8609 6.82221,1.0073 7.66422,0.2914 1.15019,-0.97789 5.42399,-2.97825 5.27358,-2.46829 -0.0831,0.28159 -1.38909,1.13718 -2.9023,1.90128 -3.45617,1.74521 -6.79342,2.05029 -10.4805,0.95806 z m 46.04705,-140.09528 c 1.06158,-2.08781 1.98602,-3.74017 2.05429,-3.6719 0.33614,0.33614 -1.69674,4.76787 -2.7659,6.02975 -1.06738,1.25978 -0.97911,0.9673 0.71161,-2.35785 z m 0.72455,-9.04975 c -0.88922,-0.65628 -0.59994,-1.14979 0.94881,-1.61868 0.87158,-0.26389 0.94092,-0.19456 0.67704,0.67703 -0.43251,1.42852 -0.73152,1.6017 -1.62585,0.94165 z M 83.071852,243.62174 c 3.625992,-1.15098 9.174875,-6.46269 12.361157,-11.8328 2.256861,-3.80369 4.063388,-9.71883 4.154533,-13.60322 0.06875,-2.92988 0.179337,-3.31435 1.288688,-4.47997 0.66742,-0.70127 1.5563,-1.46084 1.97527,-1.68793 0.70368,-0.38138 0.69892,-0.32347 -0.0622,0.75909 -0.47324,0.67312 -0.93377,2.20735 -1.08196,3.60445 -0.71466,6.73751 -4.64637,16.87232 -7.974644,20.55633 -1.22367,1.35444 -1.398803,1.74517 -0.918514,2.04907 0.326376,0.20653 0.779476,0.38146 1.006862,0.38874 0.227387,0.008 -0.888872,0.66072 -2.480591,1.4521 -1.591719,0.79137 -3.452154,1.9128 -4.134313,2.49206 l -1.240296,1.05319 1.240296,-0.2578 c 4.753578,-0.9881 11.233085,-5.93797 15.76651,-12.04449 2.67567,-3.60411 6.8444,-11.13822 7.78071,-14.06197 0.88028,-2.74877 0.36682,-4.96609 -1.51702,-6.55125 -1.20824,-1.01664 -1.55255,-1.09277 -4.31225,-0.95342 -4.89772,0.24732 -6.426424,1.94536 -7.173289,7.96789 -0.515432,4.15627 -2.41801,9.66456 -4.584273,13.27225 -2.062524,3.43489 -7.505761,8.68608 -9.821766,9.47523 -3.832642,1.30591 -9.13956,0.51836 -12.992407,-1.92808 -4.16919,-2.64728 -7.075708,-7.15279 -8.684991,-13.46291 -0.886497,-3.476 -0.919936,-4.29759 -0.896044,-22.00851 0.02063,-15.33752 0.145007,-19.18854 0.747834,-23.15217 1.964894,-12.92123 5.798036,-22.9093 12.866353,-33.52601 3.660665,-5.49837 6.901419,-8.88152 13.155696,-13.73376 5.540117,-4.29818 9.755357,-8.11528 12.0978,-10.95515 2.852137,-3.45778 6.098847,-8.29074 6.164037,-9.17561 0.0277,-0.37646 0.41751,-1.07849 0.86619,-1.56008 0.9747,-1.04622 3.68627,-7.42602 5.52164,-12.991387 1.87874,-5.696844 3.68475,-8.119588 5.29914,-7.108757 2.04713,1.281766 0.11172,5.980436 -6.79168,16.488064 -6.42702,9.78261 -7.42774,11.20322 -10.924945,15.50909 -3.631757,4.47152 -4.994637,5.81274 -9.772264,9.61687 -1.873576,1.49181 -3.890098,3.2871 -4.481142,3.98954 -0.591061,0.70242 -1.255062,1.27714 -1.475573,1.27714 -0.585545,0 -3.54605,2.41904 -5.41983,4.42855 -1.637831,1.75647 -2.88808,3.65177 -6.596951,10.00061 -5.31884,9.1048 -8.428197,19.92035 -9.401479,32.70207 -0.750303,9.8535 -0.931187,34.00565 -0.286467,38.25067 0.669861,4.41058 3.010476,9.7206 5.56293,12.62036 3.238176,3.67874 9.232456,5.52802 13.942266,4.30127 3.741107,-0.97444 3.560879,-1.43568 -0.220073,-0.56323 -2.090837,0.48246 -5.635122,0.0728 -3.720887,-0.42997 l 1.033583,-0.27152 -1.296846,-0.45633 c -1.861732,-0.6551 -5.509553,-4.47883 -7.067005,-7.40781 -2.628379,-4.94296 -2.805654,-6.46478 -2.738916,-23.51141 0.08688,-22.19545 1.0691,-32.04837 4.162565,-41.75662 2.022225,-6.34636 5.843069,-14.30017 8.25972,-17.19419 0.480117,-0.57497 0.341767,-0.71888 -1.108977,-1.15353 -0.911654,-0.27313 -1.65755,-0.68444 -1.65755,-0.91398 0,-0.82541 1.329706,-2.96822 1.592109,-2.56566 0.432866,0.66407 1.424415,0.84558 2.680836,0.49073 1.168886,-0.33011 1.170292,-0.32814 0.500368,0.6943 -0.369518,0.56395 0.870418,-0.51534 2.755402,-2.3984 3.758326,-3.75453 6.465131,-5.92274 12.110082,-9.70046 6.883214,-4.60639 13.082564,-9.80069 16.023714,-13.42593 4.14012,-5.10308 9.20426,-12.78705 11.68475,-17.72964 1.20418,-2.39943 2.51457,-4.631963 2.91198,-4.961182 0.67377,-0.558168 0.70184,-0.486899 0.41548,1.05513 -0.84931,4.573722 -3.76224,9.800612 -8.87055,15.917132 -3.8273,4.58266 -3.70842,4.41042 -2.32143,3.36324 1.80333,-1.36153 5.82754,-6.04683 7.86544,-9.15751 4.38593,-6.69483 6.00831,-15.081138 3.57783,-18.494431 -1.29395,-1.817199 -3.34727,-2.6491 -6.17446,-2.501577 -2.36818,0.1236 -2.37585,0.128288 -2.75778,1.674286 -0.4248,1.7196 -0.69317,1.862154 -1.66891,0.886419 -0.51263,-0.512619 -0.55493,-0.795305 -0.18563,-1.240296 0.3788,-0.456413 0.324,-0.576341 -0.26331,-0.576341 -1.15085,0 -4.13566,3.403496 -4.94393,5.637419 -6.30269,17.419591 -11.68574,25.152771 -24.895309,35.764041 -11.156472,8.96204 -17.206974,16.50598 -21.837968,27.22822 -3.030946,7.0176 -4.704419,12.75304 -5.747643,19.69869 -0.996908,6.63736 -1.561202,20.86955 -1.350222,34.05479 0.220385,13.77395 0.581825,16.08092 3.421543,21.8388 2.789451,5.65598 8.382289,10.16692 14.237312,11.48322 2.458325,0.55265 3.630523,0.45716 6.821618,-0.55576 z m 1.033582,-101.76918 c 0,-0.4924 2.076587,-1.82965 2.376118,-1.53012 0.338923,0.33892 -1.155776,1.89602 -1.820043,1.89602 -0.305844,0 -0.556075,-0.16465 -0.556075,-0.3659 z m 31.975106,-39.86543 c 1.03757,-1.54864 2.00546,-3.19055 2.15086,-3.648682 0.14548,-0.458132 0.3618,-0.735537 0.48088,-0.616453 0.31964,0.319641 -2.5625,5.315935 -3.61382,6.264695 -0.49743,0.44889 -0.0555,-0.45091 0.98208,-1.99956 z m 2.79927,-5.039485 c 0.009,-0.227387 0.26757,-1.064584 0.57404,-1.860436 0.36488,-0.947484 0.56304,-1.161573 0.57404,-0.620156 0.009,0.454789 -0.24907,1.291986 -0.57404,1.860452 -0.32495,0.568465 -0.58328,0.847541 -0.57404,0.62014 z m 1.22684,-4.168769 c 0.0198,-0.481617 0.11782,-0.579591 0.24978,-0.249778 0.11938,0.298453 0.10469,0.655033 -0.0327,0.792415 -0.13735,0.13735 -0.23509,-0.106724 -0.21714,-0.542637 z M 234.87704,220.27954 c -0.13203,-0.32981 -0.22994,-0.23185 -0.24977,0.24978 -0.018,0.43582 0.0797,0.68 0.21713,0.54262 0.13735,-0.13735 0.15204,-0.49396 0.0327,-0.7924 z m 5.94569,-21.56797 c 0.24049,-1.3315 0.35266,-2.50551 0.24926,-2.60891 -0.28544,-0.28543 -5.03701,-0.85865 -8.75124,-1.05572 -1.81911,-0.0966 -2.79583,-0.10376 -2.17052,-0.0161 0.62532,0.0877 1.13693,0.31188 1.13693,0.49834 0,0.18646 0.32558,0.43263 0.72351,0.54704 0.39792,0.11438 1.07961,0.35379 1.51484,0.53192 0.55762,0.22823 0.70303,0.18102 0.49238,-0.15981 -0.52393,-0.84774 0.31386,-0.50441 2.26682,0.92897 1.61842,1.18784 1.99766,1.75159 2.58395,3.84111 0.37793,1.34693 0.70913,2.80885 0.73602,3.24871 0.0269,0.43985 0.21356,-0.13047 0.41484,-1.26742 0.20127,-1.13695 0.56271,-3.15658 0.80321,-4.48807 z m -6.97835,-1.45059 c -0.50329,-0.31915 -2.55722,-0.15947 -2.55722,0.19881 0,0.0872 0.69768,0.15563 1.55038,0.1522 0.98825,-0.005 1.3533,-0.13126 1.00684,-0.35099 z M 152.0913,185.12845 c -0.25532,-0.16149 -2.85026,-0.48737 -5.7665,-0.72418 -5.34253,-0.43382 -7.33186,-0.35481 -3.58405,0.14235 1.41579,0.18782 2.71302,0.76262 4.32307,1.91555 1.26516,0.90595 2.7332,1.67254 3.26229,1.70351 l 0.962,0.0562 -0.93022,0.17916 c -1.09188,0.21031 -1.0966,0.24542 -0.322,2.39554 0.32767,0.90955 0.62361,2.3979 0.65763,3.30745 0.0403,1.07661 0.37595,-0.14985 0.96193,-3.51416 0.65083,-3.73672 0.77154,-5.24921 0.43585,-5.46152 z m -94.913647,-5.49443 c 0.256137,-2.27388 0.574138,-4.52677 0.70666,-5.00642 0.209479,-0.75816 0.01984,-0.90745 -1.450931,-1.14265 -2.786919,-0.44565 -8.250126,-0.70177 -6.84951,-0.32111 1.815527,0.49342 3.592896,1.50008 4.653073,2.6354 0.851808,0.91215 1.691615,4.74322 1.742367,7.94842 0.0078,0.48317 0.156977,0.64883 0.372691,0.41344 0.197963,-0.21602 0.569512,-2.2532 0.82565,-4.52708 z"
       id="path11" /></g><metadata
     id="metadata182"><rdf:RDF><cc:Work
         rdf:about=""><cc:license
           rdf:resource="http://creativecommons.org/licenses/by-sa/4.0/" /><dc:publisher><cc:Agent><dc:title>OpenDataKerala.org</dc:title></cc:Agent></dc:publisher><dc:date>April 2026</dc:date><dc:title>Election Symbols of Kerala</dc:title><dc:creator><cc:Agent><dc:title>Manoj Karingamadathil</dc:title></cc:Agent></dc:creator></cc:Work><cc:License
         rdf:about="http://creativecommons.org/licenses/by-sa/4.0/"><cc:permits
           rdf:resource="http://creativecommons.org/ns#Reproduction" /><cc:permits
           rdf:resource="http://creativecommons.org/ns#Distribution" /><cc:requires
           rdf:resource="http://creativecommons.org/ns#Notice" /><cc:requires
           rdf:resource="http://creativecommons.org/ns#Attribution" /><cc:permits
           rdf:resource="http://creativecommons.org/ns#DerivativeWorks" /><cc:requires
           rdf:resource="http://creativecommons.org/ns#ShareAlike" /></cc:License></rdf:RDF></metadata></svg>
