<?xml version="1.0" encoding="UTF-8" standalone="no"?>
<!-- Created with Inkscape (http://www.inkscape.org/) -->

<svg
   width="1500"
   height="1500"
   viewBox="0 0 396.87499 396.875"
   version="1.1"
   id="svg5"
   xml:space="preserve"
   inkscape:version="1.3 (0e150ed6c4, 2023-07-21)"
   sodipodi:docname="Water Tank.svg"
   inkscape:export-filename="Wall Hook.png"
   inkscape:export-xdpi="96"
   inkscape:export-ydpi="96"
   xmlns:inkscape="http://www.inkscape.org/namespaces/inkscape"
   xmlns:sodipodi="http://sodipodi.sourceforge.net/DTD/sodipodi-0.dtd"
   xmlns="http://www.w3.org/2000/svg"
   xmlns:svg="http://www.w3.org/2000/svg"
   xmlns:rdf="http://www.w3.org/1999/02/22-rdf-syntax-ns#"
   xmlns:cc="http://creativecommons.org/ns#"
   xmlns:dc="http://purl.org/dc/elements/1.1/"><title
     id="title186">Election Symbols of Kerala</title><sodipodi:namedview
     id="namedview7"
     pagecolor="#ffffff"
     bordercolor="#000000"
     borderopacity="0.25"
     inkscape:showpageshadow="2"
     inkscape:pageopacity="0.0"
     inkscape:pagecheckerboard="0"
     inkscape:deskcolor="#d1d1d1"
     inkscape:document-units="mm"
     showgrid="false"
     inkscape:zoom="0.25"
     inkscape:cx="230"
     inkscape:cy="1082"
     inkscape:window-width="1920"
     inkscape:window-height="991"
     inkscape:window-x="-9"
     inkscape:window-y="-9"
     inkscape:window-maximized="1"
     inkscape:current-layer="layer1" /><defs
     id="defs2"><inkscape:path-effect
       effect="bspline"
       id="path-effect3248"
       is_visible="true"
       lpeversion="1"
       weight="33.333333"
       steps="2"
       helper_size="0"
       apply_no_weight="true"
       apply_with_weight="true"
       only_selected="false" /><inkscape:path-effect
       effect="bspline"
       id="path-effect577"
       is_visible="true"
       lpeversion="1"
       weight="33.333333"
       steps="2"
       helper_size="0"
       apply_no_weight="true"
       apply_with_weight="true"
       only_selected="false" /></defs><g
     inkscape:label="Layer 1"
     inkscape:groupmode="layer"
     id="layer1"><path
       style="fill:#000000;stroke-width:1.47404"
       d="M 182.62087,388.53601 C 137.24091,385.51797 95.49717,370.79275 69.95669,348.7934 64.343195,343.95821 59.328082,338.29998 54.942104,331.85342 48.862158,322.91705 46.237688,316.59072 45.414761,308.88769 45.06531,305.61664 44.948964,278.7381 44.950202,201.56201 l 0.0015,-102.961727 1.069373,-3.900063 c 1.448392,-5.282386 3.793693,-9.982305 8.304125,-16.641298 4.123436,-6.08761 7.514348,-10.322986 10.764903,-13.445726 1.148778,-1.103599 2.9061,-2.883002 3.905147,-3.954231 1.27239,-1.364332 2.3976,-2.140724 3.7567,-2.592149 1.06713,-0.354433 2.20002,-0.944315 2.51751,-1.310835 0.43865,-0.506377 0.68948,-2.773658 1.04455,-9.441553 0.257,-4.826333 0.71861,-12.19745 1.0258,-16.380275 0.30718,-4.18283 0.55978,-7.873843 0.56134,-8.202244 0.003,-0.64277 1.65305,-1.653004 16.16228,-9.89547 5.13389,-2.9164767 9.67867,-5.3026827 10.09948,-5.3026827 0.42082,0 4.38126,1.961063 8.80097,4.3579267 24.65889,13.372819 25.75672,13.924921 26.9873,13.572006 2.55544,-0.732893 14.90226,-3.134223 19.85416,-3.86144 5.72633,-0.840926 21.02492,-2.212579 28.95799,-2.596316 4.57787,-0.221431 4.97258,-0.300557 4.97258,-0.996805 0,-1.321375 1.52621,-3.807742 2.71451,-4.42224 1.60822,-0.831639 4.24358,-0.746837 5.77317,0.185759 1.17021,0.71348 1.57924,1.360878 2.77296,4.388793 0.42127,1.068517 0.43713,1.072512 4.2533,1.072512 11.03019,0 29.32708,2.363801 43.70104,5.645811 4.39503,1.003512 4.42578,1.004942 5.6551,0.263322 1.3426,-0.80997 25.65541,-13.55221 31.11241,-16.3058797 1.84576,-0.931402 3.59427,-1.693451 3.88557,-1.693451 0.2913,0 4.92374,2.393812 10.2943,5.3195907 14.32392,7.803408 17.42513,9.575603 17.58603,10.049581 0.26136,0.769994 2.14636,22.545099 2.39459,27.661745 l 0.24282,5.005266 1.2057,0.92956 c 0.66315,0.511256 2.12349,1.605171 3.24519,2.430928 3.04028,2.238099 9.24473,8.123397 11.60111,11.00438 3.65616,4.470102 9.5785,13.347275 11.33334,16.987904 1.65354,3.430417 2.83544,7.077281 3.72133,11.482574 0.56405,2.804777 0.5069,207.134637 -0.0591,211.169957 -1.25994,8.98345 -3.77283,14.62648 -11.16448,25.07138 -20.44933,28.89631 -70.31078,50.36811 -126.08852,54.29743 -6.47306,0.456 -28.33588,0.44484 -35.29559,-0.018 z m 37.63563,-1.31757 c 36.13554,-2.97127 68.96578,-12.71753 93.99155,-27.90313 19.89295,-12.07099 34.20385,-28.55368 38.52906,-44.37613 l 1.03477,-3.78534 0.0908,-21.64536 c 0.0767,-18.25543 0.0103,-21.43157 -0.42249,-20.28033 -4.95415,13.17463 -19.31741,28.16005 -37.4771,39.10045 -24.44018,14.72412 -56.19054,24.59748 -90.67651,28.19754 -7.83037,0.81743 -23.5191,1.2179 -34.6709,0.88502 -35.93865,-1.07276 -73.47662,-10.63734 -100.58744,-25.62939 -3.25511,-1.80006 -4.54124,-2.33136 -4.90758,-2.02733 -0.36282,0.30112 -0.49643,0.26084 -0.49643,-0.14966 0,-0.30891 0.19012,-0.46861 0.4225,-0.35489 0.23239,0.1138 0.0765,-0.0734 -0.34631,-0.41576 -0.42286,-0.34241 -0.99113,-0.53723 -1.26284,-0.43297 -0.27171,0.10421 -0.45225,0.0352 -0.4012,-0.15333 0.14151,-0.52286 -4.72091,-3.55386 -4.99357,-3.11272 -0.13015,0.21063 -0.004,0.33474 0.27982,0.27581 0.28408,-0.059 0.47473,0.10583 0.42367,0.3663 -0.054,0.27501 0.1523,0.37942 0.49193,0.24908 0.43176,-0.16568 0.52296,-0.0345 0.34855,0.50154 -0.19545,0.60066 -0.1636,0.62498 0.1846,0.14092 0.36842,-0.51217 0.42157,-0.50598 0.42681,0.0497 0.003,0.34912 0.25878,0.84458 0.5678,1.10103 0.309,0.25645 0.51326,0.67283 0.45391,0.92527 -0.0594,0.25245 -0.0376,0.33723 0.0483,0.1884 0.36232,-0.62734 1.27372,0.24124 1.2485,1.18984 -0.0239,0.8992 -0.0659,0.93232 -0.32876,0.25948 -0.28966,-0.74141 -0.32035,-0.7358 -0.79151,0.1446 -0.26959,0.50374 -0.31272,0.80623 -0.0958,0.67219 0.21687,-0.13399 0.0548,0.45905 -0.3602,1.31796 -0.41499,0.85891 -0.84852,1.56166 -0.96343,1.56166 -0.11498,0 -0.0837,-0.20263 0.0694,-0.45026 0.17242,-0.27898 0.10702,-0.34441 -0.17197,-0.172 -0.26564,0.16417 -0.45028,1.31781 -0.45028,2.81333 0,1.8362 -0.12573,2.4573 -0.45627,2.25304 -0.3154,-0.19493 -0.37532,-0.0514 -0.19406,0.46449 0.25424,0.72372 0.24437,0.7234 -0.32373,-0.0103 -0.595,-0.76873 -0.73702,-0.60228 -0.59914,0.70217 0.0457,0.43287 -0.0933,0.62009 -0.34508,0.4645 -0.28383,-0.17541 -0.43527,0.54401 -0.46307,2.1999 -0.0765,4.55841 0.15859,6.16562 0.90212,6.16562 0.51163,0 1.44984,1.18492 1.46684,1.85253 0.007,0.26813 0.36341,0.83852 0.79241,1.26753 0.55601,0.556 0.76677,1.256 0.73387,2.43753 -0.046,1.65051 -0.59987,4.4591 -0.68773,3.48705 -0.0254,-0.28079 -0.22164,-0.40206 -0.43614,-0.26949 -0.52208,0.32266 -0.52208,12.15755 0,12.4802 0.92141,0.56947 -0.004,4.74535 -0.93456,4.21532 -0.74887,-0.42674 -0.10303,0.1359 1.90956,1.66358 2.96652,2.25176 10.70006,6.78367 16.78023,9.83336 24.64621,12.36202 53.81213,19.78467 85.9865,21.88335 8.4051,0.54824 29.24983,0.46772 36.66061,-0.14165 z M 81.51167,307.7528 c -0.48263,-0.23277 -0.87751,-0.57594 -0.87751,-0.76261 0,-0.18667 0.43876,-0.0519 0.97502,0.29945 1.43039,0.93723 1.38017,1.17581 -0.0976,0.46316 z m 143.2299,27.60399 c 20.55615,-2.19321 36.49903,-5.55669 53.79975,-11.3502 35.7844,-11.98317 61.49945,-30.41413 71.8022,-51.46338 2.8232,-5.76803 3.65092,-8.60209 3.91411,-13.40179 l 0.18472,-3.36851 -0.75009,2.73263 c -2.5463,9.27621 -7.69864,17.26254 -17.37739,26.93568 -8.68394,8.6789 -16.66163,14.52402 -28.65028,20.99158 -12.85116,6.93287 -26.14821,12.1164 -42.75236,16.666 -31.17899,8.54314 -66.24714,10.62836 -100.42667,5.97157 C 135.78582,325.16019 105.6375,314.95713 85.733,302.41823 77.42088,297.182 71.65018,292.9284 67.214994,288.76857 c -1.561731,-1.46475 -1.760962,-1.57132 -1.082609,-0.57907 0.457248,0.66883 1.280263,1.51018 1.828901,1.86966 0.553874,0.36292 0.878474,0.84624 0.729844,1.08675 -0.15168,0.24541 -0.0917,0.32436 0.13841,0.18216 0.22335,-0.13797 0.62296,0.0103 0.88802,0.32974 0.26508,0.3194 0.34552,0.58071 0.17876,0.58071 -1.08824,0 8.01275,7.4852 12.43776,10.22957 6.73539,4.17723 8.44655,5.5469 8.12714,6.50514 -0.10584,0.31754 -0.003,0.42575 0.25448,0.26683 0.46638,-0.28823 2.02188,0.39502 2.4921,1.09465 0.15863,0.23603 0.20769,0.64935 0.10908,0.91851 -0.20105,0.54846 3.84793,2.68104 11.49776,6.05581 8.19492,3.61524 9.661,4.17907 18.13531,6.97468 17.45266,5.75745 38.28176,9.88335 56.74595,11.24041 3.3248,0.24437 6.48386,0.5057 7.02012,0.58073 2.91428,0.40782 32.6804,-0.17777 38.02563,-0.74806 z m -14.43025,-4.89486 c 12.74801,-0.48614 22.9801,-1.5588 33.93057,-3.55704 39.37526,-7.18518 72.14982,-22.23774 91.73025,-42.12951 10.68346,-10.85333 16.3219,-20.62268 17.63932,-30.56249 0.22745,-1.71603 0.45825,-11.37879 0.5129,-21.47282 l 0.0993,-18.35276 -1.39738,3.33751 c -2.60074,6.21165 -7.32877,13.09423 -13.24991,19.28786 -19.20744,20.09134 -51.48415,35.27581 -92.02005,43.29054 -21.44039,4.23919 -49.34926,5.26921 -74.29567,2.74199 -26.3947,-2.67392 -53.56325,-9.84613 -74.10123,-19.56194 -6.278,-2.9699 -14.66835,-7.55287 -18.91531,-10.33186 -1.60879,-1.0527 -2.53764,-1.57344 -2.06413,-1.15718 0.47352,0.41624 0.73677,0.91022 0.58501,1.09773 -0.15175,0.18751 -0.12116,0.21546 0.0678,0.0621 0.45894,-0.37215 1.88503,0.41271 1.59692,0.87889 -0.12854,0.20802 0.0771,0.25519 0.47658,0.10938 0.67071,-0.24496 0.67164,-0.22111 0.0202,0.52269 -0.37538,0.42864 -0.68521,1.11654 -0.68848,1.52866 -0.004,0.62657 -0.0679,0.65347 -0.38405,0.16429 -0.3006,-0.46515 -0.38292,-0.38525 -0.40185,0.39 -0.12441,5.09999 -0.5358,7.80014 -1.18821,7.80014 -0.18452,0 -0.22963,-0.30713 -0.10024,-0.68251 0.19106,-0.55433 0.11778,-0.53602 -0.38983,0.0974 -0.3438,0.42901 -0.62798,0.95552 -0.63151,1.17002 -0.003,0.21451 0.16369,0.12677 0.37163,-0.195 0.22717,-0.35151 0.38045,-0.39961 0.38403,-0.12057 0.003,0.25546 -0.16953,0.57295 -0.38403,0.70553 -0.2145,0.13252 -0.39001,0.41653 -0.39001,0.63104 0,0.2145 0.15555,0.29386 0.34567,0.17637 0.30581,-0.18899 0.64487,0.47972 1.0252,2.02198 0.0663,0.26916 -0.0394,0.39043 -0.23508,0.2695 -0.30449,-0.18819 -0.54817,0.94768 -0.40196,1.87368 0.064,0.4055 -0.86777,0.18295 -1.20407,-0.28758 -0.15138,-0.21179 -0.24658,-0.004 -0.21155,0.46049 0.0351,0.46507 0.20277,0.75963 0.37275,0.65457 0.16997,-0.10509 0.30904,0.10142 0.30904,0.45876 0,0.43973 -0.205,0.57108 -0.63421,0.40637 -0.58562,-0.22471 -0.58562,-0.16919 0,0.72457 0.34882,0.53236 0.63421,1.50063 0.63421,2.15168 0,0.65106 0.197,1.18375 0.43776,1.18375 0.28527,0 0.25129,0.22987 -0.0974,0.65987 -0.36369,0.44837 -0.379,0.566 -0.0478,0.36699 0.30983,-0.18613 0.48751,-0.0629 0.48751,0.33816 0,0.34708 0.17552,0.52257 0.39002,0.39 0.25013,-0.15458 0.39,1.16597 0.39,3.68205 0,3.82366 -0.1051,4.1528 -1.26753,3.96927 -0.16087,-0.0254 -0.30999,0.69969 -0.33138,1.61134 -0.0392,1.66877 -0.61794,4.11191 -0.71607,3.02255 -0.0338,-0.37408 -0.24631,-0.23522 -0.58968,0.38511 -0.29532,0.53357 -0.45425,1.10395 -0.35316,1.26753 0.10112,0.16356 0.003,0.29739 -0.21698,0.29739 -0.22043,0 -0.28568,0.30713 -0.14504,0.68251 0.22701,0.60577 0.17081,0.62279 -0.49975,0.1515 -0.41555,-0.29207 -0.0547,0.11438 0.80186,0.90335 1.96503,1.80981 8.87323,6.40014 15.10106,10.03428 16.48467,9.61934 38.72389,17.56689 61.92786,22.13095 13.51865,2.65902 28.33634,4.14634 46.21577,4.63889 1.07251,0.0295 6.33759,-0.11365 11.7002,-0.31808 z M 81.10424,255.04178 c 0.27546,-0.29489 0.73585,-0.44596 1.02309,-0.33575 0.43495,0.16691 0.4353,0.25556 0.001,0.53019 -0.28612,0.18136 -0.74652,0.33244 -1.02309,0.33572 -0.40952,0.004 -0.4099,-0.0936 -10e-4,-0.53016 z m 9.28008,54.95576 c 0,-0.0996 -0.39488,-0.37263 -0.87751,-0.60652 -0.84265,-0.40835 -0.84745,-0.40115 -0.12043,0.18128 0.79571,0.6375 0.99798,0.72369 0.99798,0.42524 z m -14.04024,-6.61727 c 0,-0.0926 -0.57038,-0.5459 -1.26751,-1.00725 l -1.26753,-0.8388 1.17002,1.00531 c 1.19987,1.03096 1.36502,1.13268 1.36502,0.84074 z m 145.66744,-20.87454 c 23.01175,-1.88807 47.28185,-7.48126 68.80255,-15.85596 7.60106,-2.95791 21.90728,-10.27919 28.30906,-14.48731 14.45509,-9.50183 25.16232,-20.39248 30.78967,-31.31716 3.11536,-6.048 4.17089,-9.50325 4.34171,-14.21252 0.10466,-2.88368 0.0525,-3.49397 -0.20017,-2.34067 -1.19132,5.43947 -4.98662,13.22378 -9.29635,19.06714 -4.0149,5.44362 -13.51615,14.78822 -19.78476,19.45854 -27.17068,20.24313 -71.24509,33.83665 -114.46691,35.30407 -43.6429,1.48172 -86.48029,-7.49774 -118.36697,-24.81174 -9.65865,-5.24452 -19.53918,-12.163 -25.870498,-18.11488 l -3.37999,-3.17745 3.034445,3.12302 c 1.668953,1.71766 2.897473,3.27351 2.730053,3.45744 -0.16742,0.18395 -0.0851,0.20819 0.18311,0.054 0.29815,-0.17158 0.48751,-0.0529 0.48751,0.30536 0,0.32226 0.32411,0.81525 0.72024,1.09554 0.39614,0.28029 1.84404,1.50367 3.21755,2.71862 3.40853,3.015 3.57589,3.13871 10.94627,8.09125 3.57442,2.40184 6.60242,4.63663 6.72888,4.96619 0.39725,1.03522 -0.16186,1.32925 -1.35475,0.71238 -0.63133,-0.32647 -1.14788,-0.50583 -1.14788,-0.39858 0,0.42322 2.38963,1.40042 2.80176,1.14573 0.26922,-0.16639 0.33027,-0.0955 0.15797,0.18319 -0.39327,0.63634 10.66303,6.00135 19.45285,9.4394 3.86811,1.51297 7.45459,2.92492 7.96996,3.13767 0.51539,0.21274 5.1534,1.608 10.3067,3.10059 19.02298,5.50973 36.30762,8.39899 59.15242,9.88779 4.11922,0.26845 28.70706,-0.11896 33.73557,-0.53154 z m -5.84344,-5.4741 c 25.82177,-1.60166 50.80962,-7.0488 73.89958,-16.10948 7.11781,-2.79308 19.9714,-9.18085 25.67641,-12.76027 10.74091,-6.73899 23.00892,-17.74675 28.68078,-25.73452 3.23891,-4.56142 6.89694,-11.89859 8.26381,-16.57527 0.9429,-3.22612 1.04649,-4.30246 1.28048,-13.30542 0.14003,-5.38744 0.20511,-14.46944 0.1446,-20.18225 l -0.10996,-10.3869 -2.13795,4.19198 c -2.95689,5.79776 -6.54599,10.65754 -12.26743,16.61065 -16.6603,17.3349 -42.46617,30.91504 -74.51927,39.21522 -36.22565,9.38066 -73.48599,10.68642 -111.70884,3.91475 -7.29395,-1.29222 -21.87171,-4.80164 -28.27547,-6.80698 -14.18061,-4.44068 -28.85673,-10.71189 -38.76677,-16.5653 -1.85188,-1.09383 -3.54396,-1.87945 -3.76017,-1.74581 -0.21621,0.13355 -0.34488,0.0842 -0.28594,-0.10982 0.059,-0.19405 -1.89791,-1.70993 -4.34855,-3.36859 -2.45064,-1.65868 -4.25106,-2.76919 -4.00094,-2.46783 0.25011,0.30137 0.32464,0.69157 0.16564,0.86709 -0.15902,0.17553 -0.0697,0.19291 0.19837,0.0386 0.31318,-0.18023 0.48965,-0.0283 0.49348,0.42498 0.004,0.5982 0.0635,0.61652 0.38405,0.12058 0.33732,-0.52197 0.55447,-0.28875 0.44085,0.47346 -0.0228,0.15317 0.22164,0.17751 0.54326,0.0541 0.43176,-0.16568 0.52295,-0.0345 0.34854,0.50154 -0.19546,0.60066 -0.16359,0.62498 0.18461,0.14092 0.36174,-0.50288 0.42166,-0.48596 0.42679,0.12058 0.003,0.38804 0.17784,0.5993 0.38792,0.46946 0.21007,-0.12986 0.74792,-0.0402 1.1952,0.19919 0.65076,0.34827 0.72075,0.54669 0.35031,0.99305 -0.36736,0.44265 -0.33902,0.55782 0.13738,0.55782 0.33015,0 0.68879,-0.21938 0.79698,-0.48751 0.12264,-0.30402 0.2083,-0.24285 0.2275,0.1625 0.017,0.3575 -0.16811,0.71631 -0.41122,0.79735 -0.27975,0.0933 -0.4208,1.12598 -0.38423,2.8131 0.06,2.76541 -0.50307,4.26801 -1.22366,3.26562 -0.27101,-0.377 -0.31214,-0.34342 -0.16135,0.13178 0.11129,0.35076 -0.0388,0.98201 -0.33347,1.40277 -0.55943,0.79868 -0.64163,2.53159 -0.10436,2.19954 0.16997,-0.1051 0.32137,0.47748 0.33645,1.29454 0.022,1.18628 0.0949,1.32841 0.3626,0.70552 0.23371,-0.54386 0.34348,0.0103 0.3626,1.82952 0.015,1.43684 -0.1571,2.72356 -0.38319,2.86328 -0.22583,0.13959 -0.33648,0.45706 -0.24589,0.70554 0.0905,0.24846 -0.0996,0.75528 -0.42261,1.12625 -0.32302,0.37096 -0.5873,1.3897 -0.5873,2.26385 0,1.15175 -0.14092,1.53529 -0.51196,1.39291 -0.3245,-0.12456 -0.43256,0.0103 -0.2951,0.36868 0.11925,0.31085 0.39237,0.56517 0.60687,0.56517 0.21451,0 0.2884,0.26476 0.16423,0.58839 -0.12412,0.32361 -0.0285,1.0695 0.21288,1.65753 0.24128,0.58802 0.50009,1.42013 0.57517,1.84914 0.11055,0.63208 0.0634,0.66907 -0.24866,0.195 -0.28002,-0.42536 -0.39936,3.5e-4 -0.4373,1.56003 -0.0288,1.17977 -0.0173,2.39279 0.0256,2.6956 0.0427,0.30279 -0.0355,1.15448 -0.17398,1.89261 -0.23438,1.24935 -0.28959,1.29214 -0.79919,0.61946 -0.50708,-0.66936 -0.54832,-0.63157 -0.55982,0.51303 -0.007,0.67959 -0.12087,1.51839 -0.25352,1.864 -0.21666,0.56455 -0.2946,0.55789 -0.76762,-0.0656 -0.50371,-0.66397 -0.52702,-0.66347 -0.53888,0.0118 -0.007,0.38804 -0.18589,0.5983 -0.39795,0.46726 -0.21204,-0.13104 -0.30163,-0.0103 -0.1991,0.26948 0.1026,0.27927 0.0234,0.76404 -0.17566,1.07726 -0.30997,0.48753 -0.47781,0.4648 -1.16592,-0.15794 -0.4421,-0.4001 -0.80382,-0.63166 -0.80382,-0.51458 0,0.47245 7.5846,6.27059 11.74572,8.97917 16.04738,10.44564 35.16047,18.29619 58.11979,23.87223 12.6022,3.06067 30.69861,5.66141 45.77141,6.5781 4.95747,0.3015 23.65477,0.22004 29.25716,-0.12751 z m -140.44606,-35.98146 -0.74296,-0.87751 0.87751,0.74296 c 0.82465,0.69819 1.05508,1.01206 0.74296,1.01206 -0.074,0 -0.46888,-0.39488 -0.87751,-0.87751 z m -1.91298,-1.46253 c -0.38825,-0.429 -0.54541,-0.78 -0.34926,-0.78 0.19615,0 0.57585,0.351 0.84377,0.78 0.26791,0.42902 0.42509,0.78002 0.34926,0.78002 -0.0758,0 -0.45552,-0.351 -0.84377,-0.78002 z m 7.21512,-39.39065 c -0.3515,-0.22717 -0.39961,-0.38045 -0.12058,-0.38403 0.25548,-0.003 0.57296,0.16953 0.70554,0.38403 0.29926,0.48421 0.16424,0.48421 -0.58502,0 z m -34.444155,58.03784 c -0.124557,-0.31111 -0.21692,-0.21871 -0.235626,0.23564 -0.01695,0.41112 0.07532,0.64147 0.204833,0.51187 0.129568,-0.12957 0.143424,-0.46597 0.03081,-0.74751 z M 69.68445,236.23345 c -0.52002,-0.55779 -1.823,-1.71655 -2.895527,-2.575 -1.377535,-1.1026 -1.148543,-0.80793 0.780018,1.00368 2.805809,2.63569 3.787869,3.36512 2.115509,1.57132 z m 152.32707,-8.17113 c 31.54177,-2.51735 62.2139,-10.96693 86.44134,-23.81293 17.26318,-9.15338 30.83521,-20.53997 38.53259,-32.32787 4.65568,-7.12977 7.44079,-14.42962 7.42658,-19.46521 l -0.007,-2.37516 -1.32195,3.91797 c -4.64396,13.76373 -17.46442,28.04963 -35.55349,39.61747 -24.24774,15.50627 -57.02244,25.75976 -94.15334,29.45568 -8.60345,0.85636 -34.35183,0.98551 -42.70571,0.21421 -32.76496,-3.02516 -58.35843,-9.56 -81.92846,-20.919 -12.1831,-5.87135 -24.13387,-13.63976 -31.758096,-20.64386 l -1.754683,-1.61197 1.541331,1.65753 c 0.84772,0.91164 1.379569,1.65753 1.181885,1.65753 -0.786268,0 4.520043,4.91202 8.147873,7.54245 4.56142,3.30733 9.37523,6.66994 10.86862,7.59207 1.02425,0.63247 1.46555,1.63576 0.71948,1.63576 -0.19552,0 -0.31173,0.29814 -0.25825,0.66254 0.19078,1.29992 11.62786,7.01466 23.62413,11.8042 23.39303,9.33971 51.2912,14.88361 81.31636,16.15911 5.67145,0.24093 22.50405,-0.19096 29.64049,-0.76052 z m -8.19014,-5.24767 c 47.47394,-2.50497 92.7217,-18.23756 118.21523,-41.10331 12.30009,-11.03223 20.20089,-23.36983 21.57292,-33.6875 0.43899,-3.30116 0.78876,-23.2612 0.39954,-22.7995 -0.13281,0.15751 -0.5594,1.16391 -0.94804,2.23643 -2.70832,7.47415 -9.14611,16.59749 -17.12335,24.26635 -21.5318,20.69943 -60.07106,36.44768 -102.81097,42.01152 -26.69004,3.47449 -57.8495,2.31406 -84.43641,-3.14455 -24.04844,-4.93743 -45.61559,-12.78293 -62.89615,-22.87975 -2.41735,-1.41241 -4.26843,-2.36297 -4.11353,-2.11233 0.51371,0.83118 0.41834,1.88133 -0.15103,1.66285 -0.34843,-0.13369 -0.49704,0.0312 -0.42359,0.47031 0.066,0.39458 -0.10201,0.63164 -0.40333,0.56913 -0.28408,-0.059 -0.41984,0.0492 -0.30171,0.24037 0.11822,0.19115 -0.1359,0.66498 -0.56466,1.05296 -0.6391,0.57837 -0.73221,0.99163 -0.51706,2.29466 0.14431,0.87409 0.27357,1.8835 0.28723,2.24313 0.0133,0.35964 0.16271,0.56866 0.33125,0.46449 0.16854,-0.10422 0.30644,0.0842 0.30644,0.41864 0,0.33442 -0.1755,0.60803 -0.39002,0.60803 -0.22254,0 -0.39,1.16235 -0.39,2.70703 0,1.48887 -0.1755,2.81549 -0.39,2.94806 -0.21451,0.13252 -0.40113,0.62556 -0.41474,1.09554 l -0.0248,0.8545 -0.35271,-0.87752 c -0.45802,-1.13947 -0.90194,-1.10944 -1.55186,0.10495 -0.28919,0.54035 -0.63475,0.80617 -0.76791,0.59069 -0.13311,-0.21546 -0.24213,0.21464 -0.24213,0.95578 0,0.77244 0.22503,1.43389 0.52727,1.54987 0.29,0.11129 0.42754,0.041 0.30564,-0.15625 -0.12191,-0.19723 -0.0432,-0.46883 0.17475,-0.60356 0.21801,-0.13473 0.39636,0.0286 0.39636,0.36306 0,0.33441 0.21939,0.62188 0.48751,0.6388 0.3862,0.0243 0.38685,0.0715 0.003,0.22647 -0.36055,0.14564 -0.3774,0.39559 -0.0659,0.97763 0.53866,1.0065 0.24481,1.28219 -0.78133,0.73303 -1.97131,-1.05502 -0.43883,0.13531 4.35419,3.3819 6.39698,4.33312 9.44462,6.10546 16.76292,9.74841 9.95817,4.95703 20.36407,8.94688 32.45607,12.44433 26.43606,7.64631 55.65692,10.97348 83.48072,9.50535 z M 78.19866,185.96175 c 0.10259,-0.53625 0.25368,-0.97502 0.33593,-0.97502 0.0823,0 0.14953,0.43877 0.14953,0.97502 0,0.53626 -0.15116,0.97502 -0.33592,0.97502 -0.18476,0 -0.25205,-0.43876 -0.14954,-0.97502 z m -31.44976,19.8517 c -0.287143,-1.22383 -0.364618,-1.31786 -0.396133,-0.48077 -0.04068,1.08009 0.333074,2.42219 0.600141,2.15512 0.08417,-0.0842 -0.0074,-0.83759 -0.204008,-1.67435 z m 31.81756,-7.24921 c -0.51136,-0.31604 -1.45678,0.35238 -1.41157,0.998 0.0193,0.27631 0.10392,0.25856 0.2275,-0.0478 0.30547,-0.75702 0.91709,-0.57411 0.65202,0.195 -0.18998,0.5512 -0.11896,0.53292 0.36899,-0.0951 0.43029,-0.55369 0.47722,-0.85603 0.16306,-1.05021 z m 148.25724,-5.35472 c 36.54615,-3.98154 69.75401,-14.84658 93.27279,-30.51722 6.29303,-4.19307 9.49798,-6.68349 14.49677,-11.26481 10.05846,-9.2184 18.37763,-22.87219 19.23657,-31.57184 l 0.25029,-2.53506 -1.3673,3.23971 c -6.83772,16.2013 -19.67044,29.42366 -40.02479,41.24007 -32.3062,18.7549 -78.06683,28.96721 -121.68202,27.15554 -28.71154,-1.1926 -52.14049,-5.65269 -76.24628,-14.51471 -11.38853,-4.18678 -19.57352,-8.12662 -32.17553,-15.48767 -0.84544,-0.49383 -0.88512,-0.49413 -0.29857,-0.003 0.37205,0.31197 0.54755,0.70963 0.39,0.88369 -0.15755,0.17405 -0.0952,0.20763 0.13841,0.0746 0.26798,-0.15253 0.45853,0.29251 0.51593,1.205 0.0501,0.79576 0.10746,1.67378 0.12765,1.95113 0.0202,0.27737 0.26165,0.41794 0.53673,0.31238 0.31901,-0.12249 0.4185,0.0208 0.27469,0.39563 -0.12397,0.32316 -0.46608,0.49524 -0.76016,0.38238 -0.83281,-0.31957 -0.62842,0.0827 0.2924,0.57556 0.45489,0.24343 0.72007,0.2695 0.58929,0.0579 -0.34563,-0.55924 0.66192,-1.26591 1.26952,-0.8904 0.41236,0.25485 0.42013,0.49479 0.0391,1.20684 -0.41509,0.77561 -0.39281,0.85697 0.175,0.63909 0.3639,-0.13959 0.55095,-0.0884 0.42445,0.1163 -0.32268,0.52211 1.16392,1.22617 2.00994,0.95194 0.47603,-0.15431 0.55239,-0.11572 0.23121,0.11703 -0.61239,0.44362 1.63102,1.85424 2.29565,1.44347 0.29878,-0.18465 0.34244,-0.10465 0.13031,0.23875 -0.23374,0.3782 -0.14004,0.44777 0.34999,0.25974 0.38063,-0.14607 0.57105,-0.0979 0.44154,0.11159 -0.28989,0.46904 11.779,6.39263 17.9325,8.80155 22.0724,8.64073 46.27661,14.01863 71.9562,15.98787 10.53007,0.8075 35.44507,0.49659 45.17785,-0.56374 z m -6.5107,-5.7072 c 37.03656,-2.96574 70.47346,-13.08966 96.40609,-29.18951 10.43895,-6.48087 22.01446,-16.85626 27.67635,-24.80694 3.30206,-4.63691 7.70093,-13.36705 8.81425,-17.49305 2.54111,-9.41751 1.52631,-20.424257 -2.68414,-29.112721 -1.84472,-3.80668 -3.11346,-5.559314 -1.76635,-2.440053 2.5236,5.84345 3.72344,14.231127 2.93351,20.506934 -1.89437,15.05006 -12.23718,30.41443 -28.3542,42.12049 -1.97162,1.43202 -3.59503,2.79816 -3.60757,3.03585 -0.0531,1.00677 -28.362,16.35636 -29.9268,16.22687 -0.4805,-0.0398 -2.85545,0.64883 -5.27765,1.53022 -20.10917,7.31737 -39.52517,11.5948 -62.90497,13.85825 -8.83468,0.85529 -32.98928,0.9677 -41.53569,0.19329 -26.88914,-2.43652 -50.67461,-8.05643 -71.184,-16.819 -2.07005,-0.88442 -4.06418,-1.51269 -4.43139,-1.39613 -0.69954,0.22202 -7.15765,-3.19098 -17.20617,-9.0932 -9.30887,-5.46776 -12.09021,-7.35861 -12.09021,-8.21935 0,-0.48598 -1.18519,-1.76163 -3.21755,-3.46313 -9.787068,-8.19381 -17.44204,-18.71064 -20.794244,-28.56832 -3.156879,-9.28333 -3.369701,-18.201227 -0.634958,-26.607076 1.379496,-4.24021 0.924474,-3.887635 -1.128584,0.87446 -2.139909,4.963551 -3.086125,9.103819 -3.34588,14.640156 -0.630226,13.43238 5.718068,27.16612 18.388257,39.78067 13.465799,13.40668 33.486089,24.81475 57.751399,32.90825 18.51635,6.17596 43.12462,10.82815 62.76841,11.86635 7.75492,0.40985 28.51581,0.21412 35.35209,-0.33331 z M 75.04407,186.36891 c 0,-0.31232 -0.11955,-0.49396 -0.26567,-0.40365 -0.14608,0.0904 -1.43315,-0.7988 -2.86005,-1.97577 -1.42692,-1.17698 -2.59439,-2.05685 -2.59439,-1.95527 0,0.15369 5.48495,4.90255 5.66247,4.90255 0.0317,0 0.0576,-0.25554 0.0576,-0.56786 z m 140.53235,-4.90047 c 15.39311,-1.06305 31.71584,-3.60505 45.43575,-7.07586 5.83533,-1.4762 22.73294,-6.85446 26.06003,-8.29452 l 1.48961,-0.64477 -3.24465,-3.52925 c -2.92187,-3.17817 -4.6111,-5.2172 -12.58086,-15.18596 -8.04064,-10.05741 -24.97128,-28.24554 -36.58732,-39.30475 -3.05652,-2.91 -5.70281,-5.52669 -5.88062,-5.81488 -0.44827,-0.72647 0.33708,-1.56043 2.4492,-2.600827 0.97579,-0.48067 6.85121,-3.47856 13.05649,-6.661997 l 11.28232,-5.788056 1.58788,0.89122 c 0.87336,0.490162 11.06507,5.979268 22.64825,12.198023 24.97961,13.410967 34.34547,18.515197 35.73188,19.473247 0.91693,0.63362 1.04784,1.03558 1.28106,3.93322 0.58975,7.32716 0.66429,7.71254 1.49164,7.71254 1.99749,0 3.49119,1.25267 4.83344,4.05344 0.72475,1.51232 1.31773,3.23116 1.31773,3.81963 0,2.23096 -3.76093,5.0574 -5.53392,4.1589 -0.36236,-0.18362 -0.72726,-0.20177 -0.81087,-0.0404 -0.21936,0.42358 -0.0912,5.49267 0.14475,5.7287 0.44014,0.44014 9.01695,-6.48456 13.24619,-10.69465 20.14469,-20.05345 23.57536,-41.902687 9.82598,-62.579835 -2.57675,-3.875075 -9.95298,-11.919578 -10.92781,-11.917853 -0.39112,6.93e-4 -0.3931,0.157324 -0.0103,0.771144 0.37255,0.596544 0.37612,0.875212 0.0158,1.235497 -0.94913,0.949134 -5.94713,-1.235172 -10.12806,-4.426308 -2.33794,-1.784463 -2.90051,-2.917366 -1.83543,-3.696176 4.13659,-3.024745 -20.69498,-4.83018 -39.22762,-2.852135 -7.0529,0.752777 -9.94071,1.107328 -19.32641,2.372748 l -3.53112,0.476085 -7.19406,-3.952963 c -3.9567,-2.174122 -10.30609,-5.579583 -14.10972,-7.56768 -4.35315,-2.275314 -6.91825,-3.836456 -6.92261,-4.213132 -0.004,-0.329138 0.4757,-0.877968 1.06559,-1.219636 1.09885,-0.636476 12.95164,-7.018732 20.50639,-11.041894 2.32298,-1.237074 4.07801,-2.374208 3.90006,-2.526977 -0.86464,-0.742298 -17.65488,-3.803791 -26.64899,-4.859116 -7.05405,-0.827703 -23.40039,-1.90757 -23.40039,-1.54587 0,0.08638 0.2181,0.506362 0.48467,0.9332 0.65086,1.042191 0.0834,1.922871 -1.87658,2.912527 -2.16766,1.094534 -7.52873,1.094534 -9.69641,0 -2.21425,-1.118045 -2.55771,-1.87321 -1.40836,-3.096635 1.11541,-1.187295 2.03593,-1.121081 -8.17367,-0.587994 -8.90602,0.465015 -16.41923,1.208978 -25.35042,2.510217 -6.93761,1.010779 -18.3323,3.297031 -18.32715,3.677186 0.001,0.128241 1.01088,0.765911 2.24253,1.417054 12.12131,6.408159 23.49417,12.90598 23.49091,13.421408 -0.003,0.393171 -3.98751,2.721182 -11.38341,6.650045 -6.25876,3.324816 -12.49569,6.714048 -13.85983,7.53164 l -2.48026,1.486525 -3.78413,-0.599138 C 114.43261,53.269084 94.6537,52.673837 83.94868,54.97931 c -1.50154,0.323361 -3.2261,0.659707 -3.83239,0.747412 -1.7709,0.256189 -3.87794,1.388591 -3.42552,1.841003 0.26366,0.263647 0.71529,0.181396 1.37407,-0.250248 0.53972,-0.353637 1.04508,-0.642976 1.12301,-0.642976 0.078,0 0.12795,0.722088 0.11129,1.604641 -0.0257,1.354009 -0.26116,1.804053 -1.50737,2.881311 -2.15141,1.859708 -8.24746,4.87421 -9.856878,4.87421 -1.521637,0 -1.625248,-0.203418 -0.658926,-1.293559 0.659221,-0.743713 0.654548,-0.755328 -0.136938,-0.340592 -1.980123,1.037606 -7.928023,8.351441 -11.274788,13.864014 -4.027772,6.634288 -5.959752,12.749551 -6.301391,19.945667 -0.482571,10.164747 2.742453,19.929127 10.016209,30.326097 2.436441,3.48261 11.741952,13.28 14.274192,15.02873 l 1.21473,0.83888 0.25757,-8.66661 c 0.27721,-9.32705 1.36247,-30.2048 1.61033,-30.97863 0.0831,-0.25942 1.02452,-0.91426 2.09205,-1.45522 1.41489,-0.71698 2.52088,-1.75194 4.08044,-3.818417 3.98404,-5.279 8.70784,-7.929811 18.70236,-10.49501 3.71457,-0.95338 5.52834,-1.668968 8.26842,-3.262125 1.93054,-1.122467 6.17926,-3.470378 9.44159,-5.217573 l 5.93151,-3.176749 2.45363,1.49027 c 1.34949,0.81964 5.96368,3.390883 10.25375,5.713867 4.29007,2.322985 8.94089,4.874903 10.33517,5.670914 1.39428,0.796026 4.81658,2.673526 7.60512,4.172213 18.52182,9.95443 20.08481,10.85589 20.08507,11.58424 1.6e-4,0.44388 -5.67407,6.46767 -14.33246,15.2154 -7.88301,7.96436 -15.91227,16.39831 -17.84281,18.74212 -8.32855,10.11148 -9.76746,11.81664 -11.45205,13.57104 -0.97837,1.01888 -2.0553,1.85253 -2.39321,1.85253 -0.70561,0 -17.649,5.35982 -21.45033,6.78554 l -2.53504,0.95078 2.53504,1.1604 c 4.05235,1.85491 16.36112,6.19766 22.82353,8.05253 16.40827,4.70958 35.82644,8.0558 53.03273,9.13885 7.40541,0.46613 24.47763,0.4849 31.00553,0.034 z m -21.01388,-1.01667 c -1.43314,-0.71415 -2.24536,-1.4205 -2.67892,-2.3297 -0.62897,-1.31896 -0.55097,-1.75458 0.65635,-3.66551 0.20328,-0.32176 0.47331,-1.07621 0.60005,-1.67658 0.12677,-0.60037 0.81029,-1.7243 1.519,-2.49763 1.12401,-1.22651 1.57042,-1.42943 3.49588,-1.5891 1.30151,-0.1079 2.689,0.0165 3.3811,0.30315 1.48526,0.61521 3.43061,2.8096 3.72317,4.19979 0.12323,0.58595 0.38908,1.37011 0.59064,1.74258 0.20155,0.37248 0.36645,1.12707 0.36645,1.6769 0,4.12878 -6.66424,6.32247 -11.65372,3.8361 z m 7.8975,-1.56428 c 2.15205,-1.02624 2.78722,-3.43146 1.63465,-6.18995 -1.8676,-4.46978 -10.06614,-3.44853 -10.06614,1.25389 0,1.27573 1.17837,2.29607 3.31658,2.87183 2.04709,0.55122 3.87051,0.19269 5.34959,-1.05187 1.23009,-1.03505 1.44463,-0.97521 0.80286,0.22393 -0.40463,0.7561 -3.04694,1.9713 -4.28631,1.9713 -0.41201,0 -0.87433,0.20262 -1.0274,0.45026 -0.18649,0.30176 -0.0976,0.34721 0.2695,0.13782 0.37608,-0.21453 0.42551,-0.18417 0.15776,0.0968 -0.21451,0.22515 -0.74102,0.49379 -1.17002,0.59699 -0.42901,0.10318 0.22318,0.20797 1.44929,0.23285 1.34784,0.0274 2.75927,-0.20747 3.56964,-0.5939 z m -7.16397,-0.53087 c -0.8595,-0.8595 -1.06377,-1.77653 -0.2925,-1.31317 0.28007,0.16827 0.23859,-0.0133 -0.0974,-0.42772 -0.53714,-0.66164 -0.59565,-0.66619 -0.71481,-0.0557 -0.14622,0.7492 0.92029,2.5766 1.5038,2.5766 0.20957,0 0.0301,-0.351 -0.39899,-0.78002 z m -2.30694,-0.8209 c -0.34358,-0.85892 -0.37565,-0.86871 -0.39838,-0.1216 -0.0133,0.44688 0.0923,0.92951 0.23528,1.07252 0.46581,0.46581 0.54504,0.004 0.1631,-0.9509 z m 75.65563,-9.36711 c -3.61539,-1.80663 -4.83112,-4.22734 -3.12785,-6.22798 0.43982,-0.51661 1.18572,-1.54315 1.65753,-2.2812 0.47181,-0.73805 1.66986,-1.75977 2.66235,-2.27051 1.60166,-0.82421 1.98583,-0.87976 3.41767,-0.49421 3.10879,0.8371 5.86195,4.43624 5.99771,7.84062 0.0542,1.36112 -0.12854,1.79055 -1.15061,2.70384 -1.1523,1.02957 -4.03943,1.94731 -6.12611,1.94731 -0.49145,0 -1.99025,-0.54805 -3.33069,-1.21787 z m 5.99031,-1.30043 c 1.46303,-0.32323 1.68434,-0.46991 2.22045,-1.47162 0.43371,-0.8104 0.41294,-0.80882 -1.07042,0.0811 -0.97762,0.58651 -2.03004,0.88092 -2.97523,0.83236 -1.13084,-0.0581 -1.46253,0.0712 -1.46253,0.56993 0,0.66081 0.24772,0.65992 3.28773,-0.0118 z m -4.06773,-0.30925 c 2e-5,-0.26813 -0.65811,-1.05764 -1.46251,-1.75446 l -1.46255,-1.26694 2.14503,0.97062 c 2.61577,1.18364 3.56068,1.21214 5.70896,0.17217 2.05406,-0.99434 2.35289,-1.83204 1.35287,-3.79223 -1.02698,-2.01305 -2.55363,-2.99569 -4.60014,-2.96092 -4.15727,0.0706 -6.71337,4.91101 -4.18205,7.91933 1.01205,1.20274 2.50036,1.62679 2.50039,0.71243 z m 7.7248,-1.27785 c -0.12014,-0.12013 -0.33816,0.0964 -0.48462,0.48101 -0.21165,0.55583 -0.16685,0.60064 0.21833,0.21832 0.26654,-0.26454 0.38636,-0.57925 0.26629,-0.69933 z m -82.60606,-19.77244 c -1.23365,-0.65264 -1.43067,-2.58272 -0.7674,-7.51769 0.7452,-5.54454 1.29888,-6.401 4.1521,-6.42271 2.7584,-0.0209 3.18518,0.87829 4.03343,8.49903 0.43662,3.92279 0.42305,4.48488 -0.12146,5.02944 -0.83394,0.83394 -5.95272,1.12292 -7.29662,0.41193 z m 6.33292,-3.81263 c -0.16101,-4.60905 -0.0845,-4.48508 -2.7673,-4.48508 h -2.31856 l -0.44003,3.43118 c -0.24203,1.88716 -0.33218,3.6057 -0.20036,3.81899 0.13399,0.21683 1.47155,0.33757 3.03405,0.27388 l 2.79438,-0.11395 z m -1.47619,-5.52269 c 1.07468,-0.48966 1.19033,-0.92859 0.6318,-2.39765 -0.73679,-1.93792 -3.86189,-1.54284 -4.53348,0.57311 -0.20234,0.63754 -0.0455,1.04877 0.59864,1.57041 1.01178,0.81931 1.91081,0.88847 3.30304,0.25413 z M 51.078496,103.14604 c -0.314663,-0.19966 -0.528134,-1.31856 -0.575524,-3.01658 -0.06147,-2.202787 0.09272,-2.995567 0.838655,-4.310737 1.140259,-2.010489 3.379651,-3.32551 5.723449,-3.360946 2.018035,-0.03051 3.120809,0.492492 4.391343,2.082583 0.810325,1.014153 0.859499,1.281623 0.458825,2.495653 -0.567638,1.71996 -2.554276,3.383027 -6.087419,5.095947 -2.812587,1.36358 -3.849589,1.58501 -4.749329,1.01408 z m 3.32772,-1.86652 c 0.64476,-0.17278 0.877511,-0.52446 0.877511,-1.325817 0,-1.05343 -0.04054,-1.07536 -1.186897,-0.64265 -0.652794,0.2464 -1.005192,0.50857 -0.783128,0.58259 0.277119,0.0924 0.278107,0.369397 0.0029,0.883147 -0.429152,0.80189 -0.281394,0.87008 1.08936,0.50273 z m 5.756777,-5.750167 c -0.348743,-0.991705 -0.408604,-1.024974 -0.519304,-0.28869 -0.06884,0.45773 -0.814717,1.38639 -1.657529,2.0637 -1.193074,0.95877 -1.530261,1.49768 -1.522714,2.43371 l 0.01032,1.202247 2.042017,-2.145027 c 1.890369,-1.98574 2.012744,-2.22829 1.647845,-3.26594 z m -3.594536,1.80341 c 1.689619,-1.28492 2.806499,-3.244137 2.103986,-3.690816 -1.533134,-0.974812 -4.914849,0.398935 -6.076422,2.468416 -1.329275,2.36826 1.372435,3.19964 3.972436,1.2224 z m 288.880123,5.418897 c -2.04289,-0.79995 -5.75508,-3.123447 -6.69723,-4.191857 -0.35866,-0.40675 -0.76267,-1.18268 -0.89778,-1.7243 -0.33077,-1.32606 1.17801,-3.534044 2.71993,-3.980399 3.31597,-0.959909 6.11995,0.112912 7.80357,2.985849 1.11277,1.89877 1.22216,2.77473 0.38657,3.09538 -0.77257,0.29646 -0.74629,1.764367 0.0473,2.641267 0.34777,0.38429 0.52878,0.96849 0.40223,1.29824 -0.29778,0.77603 -1.57303,0.73398 -3.76459,-0.12412 z m 0.31461,-2.48788 c 0.16945,-0.879897 -2.28457,-2.450887 -2.731,-1.748317 -0.54297,0.85452 -0.32957,1.646927 0.56386,2.093787 1.18548,0.59292 2.01179,0.4612 2.16714,-0.34547 z m -4.99469,-1.615737 c 0,-0.0809 -0.30713,-0.38812 -0.68251,-0.68251 -0.61858,-0.48513 -0.63236,-0.47133 -0.14725,0.14725 0.5095,0.64964 0.82976,0.85624 0.82976,0.53526 z m 7.33458,-0.88577 c 0.15439,-1.08317 -2.4625,-3.876136 -3.99128,-4.259829 -2.44108,-0.61267 -3.24075,1.193339 -1.32368,2.989519 2.43743,2.28373 5.08045,2.91543 5.31496,1.27031 z m -7.56717,-3.978626 c -0.34508,-0.446575 -0.8259,0.475997 -0.63034,1.209466 0.23277,0.87297 0.23507,0.8725 0.48487,-0.0979 0.13797,-0.536253 0.20351,-1.036454 0.14549,-1.111571 z M 79.91158,89.309344 c -0.59757,-0.720039 0.24166,-9.603698 0.98254,-10.400608 0.43321,-0.465974 1.48443,-0.560106 5.30117,-0.474627 2.61844,0.05867 4.87288,0.232427 5.00985,0.386229 0.13693,0.153786 0.35238,1.460612 0.47869,2.904051 l 0.22966,2.624426 -1.6421,1.11607 c -1.91838,1.303862 -8.46034,4.360256 -9.33275,4.360256 -0.32944,0 -0.79161,-0.232103 -1.02706,-0.515797 z m 3.6344,-1.70147 c 1.3419,-0.63991 1.37825,-0.716443 1.37825,-2.902032 0,-1.234641 -0.13163,-2.325874 -0.2925,-2.424973 -0.16088,-0.09906 -0.99452,-0.240549 -1.85253,-0.314339 l -1.56003,-0.134138 -0.30042,2.719501 c -0.43807,3.965612 -0.10141,4.35722 2.62723,3.056025 z m 4.863,-2.512119 c 2.22178,-1.164624 2.31575,-1.273969 2.09472,-2.437532 -0.12721,-0.670025 -0.28095,-1.278332 -0.34148,-1.351798 -0.0606,-0.07341 -1.0714,0.14593 -2.24638,0.48745 l -2.13631,0.621043 -0.13517,1.950332 c -0.0743,1.072674 -0.006,1.950215 0.15167,1.950068 0.15773,-1.33e-4 1.33356,-0.548933 2.61292,-1.219563 z m -0.3784,-4.239974 c 2.3021,-0.434635 3.25165,-1.000387 2.29508,-1.367453 -0.31849,-0.122197 -2.40999,-0.171858 -4.64778,-0.110258 -3.77139,0.103773 -4.0687,0.168925 -4.0687,0.891942 0,0.611299 0.33742,0.830253 1.56002,1.012268 0.85802,0.127799 1.82328,0.174585 2.14504,0.104067 0.32175,-0.07046 1.54411,-0.309239 2.71634,-0.530551 z m 227.58251,7.832653 c -2.79175,-1.026477 -7.56702,-3.387979 -8.42976,-4.168748 -0.40448,-0.366049 -0.73276,-1.033214 -0.72953,-1.482605 0.007,-1.009364 0.90015,-3.634114 1.40955,-4.143528 0.20699,-0.206985 2.21087,-0.483146 4.45305,-0.613687 4.8851,-0.284401 6.22298,0.07871 6.21915,1.687953 -10e-4,0.595203 0.19942,2.409452 0.44631,4.031678 0.36782,2.416851 0.35068,3.151159 -0.0949,4.066258 -0.70006,1.437676 -0.93547,1.482458 -3.27384,0.622679 z m 2.20328,-3.749767 c -0.0752,-1.709769 -0.16297,-3.136596 -0.195,-3.170735 -0.032,-0.0342 -0.88379,0.03169 -1.89278,0.146225 l -1.83451,0.208267 -0.11557,2.193844 -0.11556,2.193844 1.56002,0.864923 c 2.50823,1.390624 2.75159,1.161986 2.59329,-2.436339 z m -4.74431,-1.248704 c 0.006,-1.483872 -0.102,-1.674289 -1.06654,-1.890383 -0.58988,-0.132222 -1.65243,-0.387231 -2.36122,-0.566843 l -1.28869,-0.326558 0.11866,1.608487 c 0.1104,1.495518 0.25562,1.679139 2.06871,2.614447 2.22556,1.148101 2.52031,0.980369 2.52907,-1.43915 z m 3.69609,-2.970811 c 1.39849,-1.022615 0.30302,-1.424188 -3.88512,-1.424188 -4.2431,0 -5.53201,0.478252 -3.03431,1.125872 3.50315,0.908333 5.94142,1.013447 6.91943,0.298316 z M 80.36786,164.39924 c -0.3898,-0.29151 -1.05972,-0.70234 -1.48872,-0.91296 l -0.78002,-0.38294 0.78002,0.63405 c 0.429,0.34873 0.74866,0.75956 0.71037,0.91297 -0.0383,0.15338 0.28061,0.2789 0.7087,0.2789 0.74365,0 0.74676,-0.0236 0.0696,-0.53002 z m 217.7333,-2.81089 c 6.45138,-3.35579 8.68228,-4.59622 16.86593,-9.37795 l 3.64409,-2.12925 -0.23948,-7.60512 c -0.24435,-7.75927 -0.85738,-17.94678 -1.21107,-20.12582 l -0.19648,-1.2105 -6.52564,3.40313 c -3.58909,1.87173 -9.24591,4.81026 -12.57073,6.53003 l -6.0451,3.1269 -0.24873,4.82065 c -0.50159,9.72129 -0.83388,26.07598 -0.52981,26.07598 0.17209,0 3.34775,-1.57862 7.05702,-3.50805 z m -8.41619,-2.04954 c 0.004,-2.84217 0.0685,-6.92262 0.14327,-9.06765 0.0749,-2.14504 0.0628,-2.97825 -0.0268,-1.8516 -0.11837,1.48875 -0.42669,2.33317 -1.1285,3.09043 -0.66005,0.71221 -0.83902,1.16858 -0.56552,1.44208 0.22008,0.22008 0.40013,1.30664 0.40013,2.41457 0,2.4146 -1.07214,4.10131 -2.53026,3.98063 -0.50796,-0.042 -0.85039,-0.19482 -0.76096,-0.33951 0.0895,-0.14475 -0.0988,-0.47997 -0.41813,-0.74503 -0.31939,-0.26508 -0.58071,-0.33988 -0.58071,-0.16623 0,0.17365 -0.56299,-0.19974 -1.25111,-0.82976 -0.68811,-0.63002 0.0578,0.31095 1.65753,2.09104 1.59975,1.7801 3.25964,3.6558 3.68864,4.16825 0.42901,0.51243 0.91165,0.94265 1.07253,0.95603 0.16088,0.0133 0.29579,-2.30108 0.29982,-5.14325 z m -0.69686,-2.63255 c 0,-0.75076 0.0803,-1.05789 0.17836,-0.68251 0.0982,0.37538 0.0982,0.98964 0,1.36502 -0.098,0.37538 -0.17836,0.0683 -0.17836,-0.68251 z m -171.30333,1.13736 c 3.75381,-1.25482 8.09751,-2.64576 9.65266,-3.09096 l 2.82754,-0.80947 V 142.4595 130.77582 l -2.24253,10e-4 c -4.34653,0.003 -18.08681,1.53139 -23.01039,2.5602 l -0.87751,0.18335 v 14.35783 c 0,7.89678 0.10584,14.46369 0.23533,14.59313 0.12942,0.12942 1.66508,-0.3006 3.41255,-0.95562 1.74748,-0.65503 6.24853,-2.21762 10.00235,-3.47244 z m -14.88581,2.47021 c -0.0601,-1.69894 -0.0783,-1.73117 -0.2186,-0.38893 -0.14181,1.35668 -0.21545,1.43313 -1.00697,1.04635 -0.73254,-0.35797 -0.71532,-0.30392 0.12117,0.38025 0.53626,0.43863 1.01889,0.80142 1.07251,0.80618 0.0537,0.004 0.068,-0.82496 0.032,-1.84385 z m -27.62491,-6.48486 c 0,-0.0809 -0.30713,-0.38812 -0.68251,-0.68251 -0.61857,-0.48513 -0.63236,-0.47133 -0.14726,0.14725 0.50951,0.64966 0.82977,0.85624 0.82977,0.53526 z m 57.85774,-2.4853 c 0.95043,-1.01888 3.87973,-4.48507 6.50956,-7.70262 6.17518,-7.55529 10.28526,-11.95437 24.01847,-25.70735 6.1935,-6.20241 10.64664,-10.91881 9.89588,-10.48088 -2.46958,1.4405 -5.18861,2.9033 -10.92018,5.87492 -15.27492,7.91949 -30.26629,16.00733 -30.74919,16.58917 -0.3325,0.40065 -0.88728,23.28081 -0.56447,23.2796 0.0451,-1.6e-4 0.8595,-0.83395 1.80993,-1.85284 z m -59.80776,0.93797 c 0,-0.074 -0.39488,-0.4689 -0.87751,-0.87752 l -0.87753,-0.74296 0.74296,0.87751 c 0.6982,0.82466 1.01208,1.05506 1.01208,0.74297 z m 199.90477,-7.47057 c -0.91427,-1.19868 -0.95556,-1.36878 -0.33879,-1.39582 0.4091,-0.018 0.4988,-0.11291 0.21485,-0.2275 -0.57885,-0.23358 -0.65886,-1.30174 -0.0976,-1.30174 0.2145,0 0.43388,0.0296 0.48751,0.0659 0.0537,0.0363 0.51357,-0.15677 1.02209,-0.42892 0.50851,-0.27215 0.81769,-0.32187 0.68705,-0.11055 -0.1306,0.21138 0.21302,0.47044 0.76368,0.57572 0.63279,0.12101 1.0767,-0.006 1.20634,-0.34318 0.11277,-0.29401 0.36225,-0.43746 0.55428,-0.31879 0.59754,0.36931 0.60626,-2.54115 0.0175,-5.87535 -0.34195,-1.93686 -0.42407,-1.97622 -0.61082,-0.2927 -0.17088,1.54076 -0.61629,1.4527 -0.65656,-0.12986 -0.034,-1.33967 -0.0772,-1.40762 -0.35114,-0.55252 -0.30906,0.96507 -0.31313,0.96308 -0.39734,-0.195 -0.0469,-0.64351 -0.0526,-1.40701 -0.0133,-1.69666 0.0414,-0.30208 -0.11645,-0.40999 -0.37039,-0.25307 -0.24346,0.15049 -0.35667,0.49771 -0.25156,0.77163 0.1051,0.27393 -0.0147,0.72068 -0.26591,0.99279 -0.35197,0.38101 -0.34496,0.43148 0.0305,0.21951 0.35479,-0.20031 0.47912,0.12913 0.45672,1.2103 -0.017,0.81706 -0.1197,1.26507 -0.22832,0.99562 -0.10863,-0.26947 -0.35803,-0.39074 -0.55421,-0.2695 -0.20168,0.12471 -0.3567,-0.88596 -0.3567,-2.32536 0,-2.05683 -0.10805,-2.50438 -0.5622,-2.33009 -0.30922,0.11866 -0.61634,0.59578 -0.68251,1.06028 -0.0846,0.5935 -0.43912,0.88122 -1.19282,0.96794 -0.63587,0.0731 -1.07253,0.36042 -1.07253,0.70554 0,0.32016 0.16338,0.48114 0.36306,0.35773 0.19969,-0.12338 0.4733,-0.046 0.60802,0.17199 0.13473,0.218 0.0488,0.39637 -0.19106,0.39637 -0.23983,0 -0.33987,0.15562 -0.22232,0.34581 0.11748,0.19021 -0.0915,0.5851 -0.4645,0.87753 -0.5991,0.46967 -0.62175,0.45928 -0.19408,-0.0892 0.26627,-0.34149 0.36864,-0.73637 0.2275,-0.87751 -0.54439,-0.5444 -0.82576,-0.21076 -0.74962,0.88892 0.0436,0.63005 -0.0756,1.04978 -0.26502,0.93274 -0.18938,-0.11704 -0.61131,0.16837 -0.93762,0.63424 -0.50862,0.72616 -0.68957,0.77393 -1.26799,0.33478 -0.37107,-0.28174 0.21707,0.35581 1.30698,1.41676 1.08992,1.06097 1.63065,1.67826 1.20165,1.37174 -0.77001,-0.55012 -0.7706,-0.54622 -0.0454,0.30433 0.40405,0.47388 0.88668,0.76763 1.07252,0.65277 0.18584,-0.11483 0.33788,0.075 0.33788,0.42208 0,0.34698 0.55588,1.32261 1.23529,2.16804 1.52881,1.90239 1.97258,2.04226 0.54618,0.17214 z m 16.81525,0.1219 c -0.12456,-0.31111 -0.21691,-0.2187 -0.23563,0.23562 -0.017,0.41114 0.0753,0.64149 0.20485,0.51189 0.12957,-0.12956 0.14343,-0.46597 0.0308,-0.74751 z m 30.93411,-3.2002 c 0,-0.0843 -0.26325,-0.2543 -0.58502,-0.37777 -0.32175,-0.12352 -0.585,-0.0545 -0.585,0.15329 0,0.20776 0.26325,0.37775 0.585,0.37775 0.32177,0 0.58502,-0.069 0.58502,-0.15327 z m 2.63728,-2.66004 c -0.16558,-0.49678 -3.40402,-1.531 -3.87755,-1.23833 -0.17587,0.10864 -0.31975,0.7021 -0.31975,1.31871 0,0.92965 0.18315,1.14461 1.07251,1.25873 1.26203,0.16196 3.32978,-0.72417 3.12479,-1.33911 z m 1.21056,0.13428 c -0.0786,-0.22856 -0.36449,0.0573 -0.63549,0.63548 -0.45535,0.97136 -0.44453,1.00286 0.14283,0.41556 0.34951,-0.34951 0.57124,-0.82249 0.49271,-1.05104 z m -0.11601,-2.6185 c -0.35855,-1.42852 -2.0219,-3.95501 -2.92044,-4.4359 -0.41804,-0.22373 -1.19281,-0.40678 -1.72173,-0.40678 -0.84882,0 -0.96165,0.1692 -0.96165,1.44222 0,0.79321 0.14239,1.81678 0.31648,2.27459 0.39876,1.04883 2.51748,2.1128 4.23038,2.1244 1.21499,0.009 1.29149,-0.064 1.05696,-0.99853 z m -30.95876,-4.80938 c 1.13935,-0.62519 6.72238,-3.51285 12.40672,-6.41702 5.68436,-2.90417 10.30729,-5.40583 10.27321,-5.55927 -0.034,-0.15341 -4.42167,-2.62668 -9.75018,-5.49613 -5.32849,-2.86944 -13.19823,-7.11543 -17.48831,-9.43553 -4.29007,-2.32009 -9.29191,-5.01085 -11.11519,-5.979437 -1.82327,-0.96861 -6.38635,-3.42477 -10.14016,-5.458154 -3.75382,-2.033394 -7.7577,-4.169515 -8.89753,-4.746955 l -2.07241,-1.0499 -11.57782,5.939705 c -6.3678,3.266824 -12.08128,6.194504 -12.69664,6.505941 l -1.11882,0.56627 3.65386,1.84961 c 3.9595,2.00432 11.18548,5.88863 18.24861,9.80949 2.45,1.36003 5.96006,3.27475 7.80012,4.25492 1.84006,0.98016 5.89037,3.20007 9.00067,4.93312 8.74356,4.87191 20.8354,11.40071 21.13383,11.41089 0.14766,0.004 1.20068,-0.50235 2.34004,-1.12755 z m -182.98657,-0.81547 c 2.68129,-0.43691 8.27099,-0.99319 12.42153,-1.23619 l 7.54647,-0.4418 2.92066,-1.66441 c 3.43502,-1.95753 4.02413,-2.441 1.90272,-1.56151 -2.76702,1.14714 -9.6769,2.52497 -15.13455,3.01782 -8.15297,0.73625 -17.05574,-0.38809 -25.02565,-3.16051 -1.26697,-0.44074 -2.37842,-0.80133 -2.4699,-0.80133 -0.0914,0 2.32985,1.6496 5.3807,3.66576 4.86935,3.21792 5.67137,3.62365 6.56498,3.32115 0.55987,-0.18954 3.21174,-0.70207 5.89304,-1.13898 z m -10.53018,0.63204 c 0,-0.0825 -0.48263,-0.44401 -1.07253,-0.80316 l -1.07251,-0.65302 0.92072,0.80316 c 0.89847,0.78375 1.22432,0.95754 1.22432,0.65302 z m 183.66057,-1.16205 c -0.0893,-0.0783 -0.60127,-0.35113 -1.13754,-0.60652 -0.91934,-0.43785 -0.93178,-0.42973 -0.21795,0.14225 0.62128,0.49773 1.89069,0.93261 1.35549,0.46435 z M 95.25769,128.43301 c -0.13355,-0.21603 -0.802,-0.67711 -1.48554,-1.02462 -1.41308,-0.7184 -1.19101,-0.35658 0.41179,0.67093 1.29304,0.82892 1.38649,0.85972 1.07375,0.35369 z m 29.00715,-0.59604 c 5.77298,-0.83398 12.14198,-2.65242 15.94454,-4.55238 3.14622,-1.57201 6.74409,-4.27621 7.87808,-5.92122 0.31197,-0.45253 -0.43266,0.0845 -1.65469,1.19344 -1.37569,1.24835 -3.74541,2.76237 -6.22229,3.97541 -8.05632,3.9456 -17.23427,5.71748 -28.18079,5.44053 -3.43206,-0.0868 -5.53809,-0.043 -4.68008,0.0973 3.06058,0.5005 12.76285,0.36685 16.91523,-0.23301 z m 149.52791,-0.15202 c 0.13399,-0.51259 0.0326,-0.68798 -0.31988,-0.55273 -0.28395,0.10893 -0.4208,0.44682 -0.30414,0.75083 0.28108,0.73249 0.38969,0.69802 0.62402,-0.1981 z m -1.71881,-0.67792 c 0.0778,-0.0492 -0.22927,-0.0615 -0.68252,-0.0274 -0.45326,0.0342 -0.82409,0.30948 -0.82409,0.61185 0,0.46259 0.10819,0.46693 0.68251,0.0274 0.37537,-0.28733 0.74623,-0.56265 0.8241,-0.61186 z m -166.96686,0.3799 c -0.3754,-0.098 -0.98964,-0.098 -1.36504,0 -0.37538,0.0982 -0.0683,0.17836 0.68251,0.17836 0.75078,0 1.05791,-0.0803 0.68253,-0.17836 z m -2.53506,-0.37946 c -0.26813,-0.10819 -0.70687,-0.10819 -0.975,0 -0.26814,0.10819 -0.0488,0.19671 0.48749,0.19671 0.53627,0 0.75564,-0.0884 0.48751,-0.19671 z m 173.8454,-0.36282 c 0,-0.0812 -1.0154,-0.66025 -2.25646,-1.28673 -2.08111,-1.05054 -2.25647,-1.08129 -2.25647,-0.39562 0,0.4089 0.13782,0.74344 0.30643,0.74344 0.16855,0 0.30644,-0.18169 0.30644,-0.40374 0,-0.27185 0.25833,-0.26547 0.79094,0.0196 0.43501,0.23281 0.68915,0.58798 0.56475,0.78926 -0.1278,0.20673 0.065,0.25423 0.44306,0.10923 0.45101,-0.17307 0.57819,-0.10952 0.39001,0.195 -0.18819,0.30447 -0.061,0.36807 0.39,0.195 0.45102,-0.17307 0.5782,-0.10952 0.39,0.195 -0.18242,0.29519 -0.0694,0.37131 0.32603,0.21956 0.3329,-0.1278 0.60527,-0.29872 0.60527,-0.37992 z m -149.62719,-2.26237 c 4.59272,-0.85689 7.46653,-1.83691 12.14991,-4.14335 7.74729,-3.81535 11.50519,-8.39119 11.50519,-14.00934 0,-3.05131 -1.11694,-5.69381 -3.30174,-7.811397 -1.19207,-1.15541 -1.47587,-1.26664 -2.24881,-0.8814 -0.48651,0.24248 -1.76207,0.51453 -2.8346,0.60454 -1.07251,0.0901 -4.90398,0.97601 -8.51437,1.968847 -3.61039,0.99284 -6.96938,1.80516 -7.46442,1.80516 -0.49504,0 -1.30937,-0.33143 -1.80962,-0.73651 l -0.90956,-0.73652 0.96385,-1.924477 c 1.16078,-2.3177 5.8821,-6.742655 7.19425,-6.742655 0.48765,0 1.63279,0.263249 2.54475,0.585003 0.91194,0.321753 2.11865,0.578457 2.68157,0.570453 1.75918,-0.02506 -6.07172,-3.140738 -9.89563,-3.937221 -1.93112,-0.402236 -5.61715,-0.798414 -8.1912,-0.8804 -3.089,-0.09832 -3.88454,-0.05439 -2.34004,0.129273 1.84111,0.218954 2.0233,0.292627 0.85449,0.345589 -0.96843,0.04393 -1.39326,0.216625 -1.22045,0.496236 0.17546,0.2839 -0.0305,0.270752 -0.60905,-0.03892 -0.57861,-0.309651 -0.78453,-0.322815 -0.60906,-0.03891 0.14696,0.237866 0.009,0.428916 -0.31045,0.428916 -0.31654,0 -0.64936,0.219367 -0.7396,0.487509 -0.12515,0.371724 -0.33586,0.348567 -0.88739,-0.09743 -0.39781,-0.321753 -0.60577,-0.388748 -0.46214,-0.148863 0.17363,0.290017 -0.18063,0.420691 -1.05727,0.390016 -0.72511,-0.02535 -1.22025,-0.205422 -1.1003,-0.400084 0.12648,-0.205201 -0.17632,-0.226471 -0.7204,-0.05056 -0.51618,0.166832 -1.46502,0.343495 -2.10853,0.392566 -0.64351,0.04909 -1.39994,0.115712 -1.68095,0.148097 -0.34301,0.0395 -0.4497,0.447342 -0.32463,1.24095 0.14696,0.932523 -0.009,1.310142 -0.73944,1.788645 -0.52141,0.341639 -1.14617,0.474641 -1.43041,0.304508 -0.27756,-0.166125 0.54423,0.65238 1.82619,1.818922 4.44522,4.04497 4.88966,4.841687 3.31586,5.944017 -0.6992,0.48974 -1.28391,0.40427 -5.16759,-0.7553 -2.40854,-0.719117 -5.64618,-1.685157 -7.19474,-2.146757 -1.54856,-0.46158 -2.75517,-0.94539 -2.68135,-1.07512 0.0739,-0.12972 -0.023,-0.58688 -0.21499,-1.01589 -0.32152,-0.71816 -0.336,-0.71042 -0.1827,0.0976 0.11129,0.58655 -0.023,0.87751 -0.40503,0.87751 -0.31434,0 -0.4863,0.13782 -0.38213,0.30644 0.10422,0.16854 -0.1048,0.3304 -0.4645,0.35972 -0.35962,0.0293 -1.09263,0.14913 -1.62889,0.26627 -0.53625,0.11719 -1.58928,0.30626 -2.34003,0.42025 -0.75076,0.11394 -1.62827,0.32376 -1.95004,0.46614 -0.32176,0.14239 -0.70201,0.27401 -0.84501,0.29253 -0.14298,0.0186 -0.40626,0.19346 -0.585,0.38872 -0.1913,0.20898 -0.0843,0.23516 0.25999,0.0637 0.32177,-0.16024 0.19814,0.031 -0.2747,0.424977 -2.46946,2.05769 -3.2233,7.6309 -1.52539,11.2773 1.24766,2.6794 2.53928,3.65787 4.4842,3.397 0.86412,-0.11586 1.61404,-0.0252 1.76133,0.21316 0.3598,0.58216 -1.22422,1.34443 -2.34751,1.1297 -0.78468,-0.15 -0.85863,-0.087 -0.46071,0.39247 1.36316,1.6425 7.87836,5.113 11.88114,6.3288 6.70889,2.03778 9.1961,2.3511 17.48717,2.20297 5.02516,-0.0898 9.02761,-0.36836 11.25048,-0.78308 z m 3.34524,-7.10651 c -0.52002,-0.56094 -2.39239,-2.15424 -4.16081,-3.54069 -1.76841,-1.38646 -3.36887,-2.79523 -3.55655,-3.1306 -0.53676,-0.95913 -0.0565,-2.03735 1.19606,-2.68504 0.98768,-0.51075 1.26993,-0.51855 1.99796,-0.0553 0.46628,0.29674 2.66109,1.29878 4.87732,2.22673 4.4162,1.84911 6.83964,3.71128 6.6283,5.09318 -0.0976,0.638 -0.81675,1.10248 -3.05269,1.97162 -1.60878,0.62535 -2.93834,1.13765 -2.95457,1.13843 -0.0162,7.8e-4 -0.45499,-0.4575 -0.97502,-1.01841 z m 2.85706,-2.74851 c -0.26813,-0.1082 -0.70689,-0.1082 -0.97502,0 -0.26812,0.10819 -0.0488,0.19672 0.48751,0.19672 0.53627,0 0.75564,-0.0886 0.48751,-0.19672 z m 2.25503,-0.70343 c -0.76719,-0.81663 -5.96641,-3.32834 -6.88965,-3.32834 -0.16568,0 0.36418,0.68146 1.17748,1.51435 1.1817,1.21016 1.8603,1.56499 3.37818,1.76635 1.0447,0.13856 2.00477,0.42238 2.1335,0.63067 0.12868,0.20828 0.42978,0.37869 0.66902,0.37869 0.23922,0 0.0284,-0.43278 -0.46853,-0.96172 z m -37.08484,3.08474 c -0.73881,-0.54836 -2.27171,-1.53053 -3.40644,-2.18258 -2.5646,-1.47372 -3.5891,-2.84047 -2.75468,-3.67491 0.57545,-0.57543 4.11501,-1.29773 10.89393,-2.22304 2.81897,-0.38478 4.00035,-0.40194 4.81276,-0.0699 1.37516,0.5621 1.83385,1.30983 1.35379,2.20685 -0.44798,0.83706 -8.45681,6.94059 -9.1072,6.94059 -0.24687,0 -1.05335,-0.44867 -1.79216,-0.99704 z m 1.58175,-2.71698 c 0,-1.35978 -2.43025,-2.9161 -4.55362,-2.9161 h -1.64251 l 1.05054,1.14212 c 1.1927,1.29667 4.3561,3.19986 4.8309,2.90642 0.17308,-0.10701 0.31469,-0.61657 0.31469,-1.13244 z m 2.562,0.94036 c 0.14741,-0.23848 0.0261,-0.5868 -0.26948,-0.77403 -0.83475,-0.52873 -1.1225,-0.4191 -1.1225,0.42763 0,0.8326 0.946,1.06802 1.39198,0.3464 z m 2.21431,-2.3417 c 0.72194,-0.003 2.63383,-2.22302 2.63383,-3.05749 0,-0.34261 -0.38863,-0.4266 -1.26753,-0.27392 -0.69713,0.12102 -2.71542,0.42408 -4.48508,0.67328 -1.76964,0.2492 -3.21755,0.52453 -3.21755,0.61182 0,0.0873 0.83365,0.69088 1.85253,1.34129 1.32864,0.84812 2.12827,1.11551 2.82755,0.94548 0.53626,-0.13046 1.28158,-0.23861 1.65625,-0.24046 z m -9.88688,11.96497 c -0.33045,-0.33045 -3.85957,-1.7492 -3.85957,-1.5516 0,0.23352 3.14499,1.7009 3.67256,1.71354 0.19662,0.004 0.28079,-0.0681 0.18701,-0.16194 z m -4.83459,-2.40551 c -1.07319,-0.82716 -2.14503,-1.39531 -2.14503,-1.13703 0,0.22867 2.40187,1.76758 2.73004,1.74915 0.10731,-0.006 -0.156,-0.28148 -0.58501,-0.61212 z m -4.75647,-1.53514 c -1.73038,-1.36389 -3.78391,-4.90853 -4.80922,-8.30127 -0.69075,-2.28563 -0.80909,-3.33821 -0.59154,-5.26123 0.1496,-1.32217 0.4555,-2.62507 0.67979,-2.89533 0.53892,-0.64935 0.13369,-0.62074 -1.23538,0.0873 -0.99707,0.5156 -1.14689,0.84476 -1.3758,3.02255 -0.14121,1.34416 -0.1872,3.32144 -0.102,4.39396 0.13782,1.73616 0.16256,1.65824 0.22514,-0.71037 0.0438,-1.65828 0.27307,-2.86316 0.60859,-3.19868 0.45771,-0.4577 0.56653,-0.20541 0.72706,1.68539 0.10377,1.22301 0.0261,2.32857 -0.17275,2.4568 -0.19881,0.12824 -0.58803,1.26899 -0.8649,2.53504 -0.27689,1.26605 -0.62529,2.58202 -0.77424,2.92436 -0.21795,0.50096 0.39899,0.86519 3.16041,1.86587 1.88717,0.68387 3.86999,1.49443 4.40625,1.80127 1.46618,0.83887 1.50951,0.69072 0.11866,-0.40562 z m 182.01443,0.80982 c 0,-0.0996 -0.39488,-0.37264 -0.87751,-0.60652 -0.84267,-0.40836 -0.84744,-0.40116 -0.12043,0.18128 0.79571,0.6375 0.99797,0.72368 0.99797,0.42524 z M 86.4857,120.05218 c -0.50299,-0.53542 -1.01359,-0.87442 -1.13467,-0.75334 -0.12102,0.12102 0.21599,0.55524 0.74905,0.96481 1.33219,1.02357 1.47323,0.94623 0.38562,-0.21147 z m 178.28543,0.39572 c 0.35675,0.20298 0.40306,0.17254 0.14107,-0.0927 -0.2145,-0.21721 -1.96953,-1.2224 -3.90006,-2.23377 -1.93054,-1.01137 -3.16938,-1.56141 -2.75301,-1.22232 0.41639,0.33909 0.89902,0.61653 1.07253,0.61653 0.17349,0 0.32931,0.30713 0.34625,0.68251 0.0181,0.40252 0.111,0.4838 0.22646,0.19811 0.14342,-0.35505 0.39846,-0.37586 0.95515,-0.078 0.41771,0.22355 0.6577,0.57114 0.53329,0.77242 -0.1278,0.20674 0.065,0.25423 0.44307,0.10923 0.49,-0.18803 0.58373,-0.11851 0.34999,0.25973 -0.20274,0.32806 -0.16777,0.42293 0.0958,0.26002 0.68666,-0.42439 1.62377,0.14548 1.39907,0.85078 -0.16336,0.51273 -0.12618,0.53657 0.17603,0.11277 0.22546,-0.31626 0.60177,-0.4131 0.9143,-0.23529 z m -101.56963,-8.47766 11.78118,-6.26285 -18.21628,-9.835797 c -10.01895,-5.409696 -21.11207,-11.462505 -24.65138,-13.450705 -3.5393,-1.988186 -6.61394,-3.62188 -6.83253,-3.630415 -0.50353,-0.0196 -15.39814,7.994621 -15.39699,8.284609 4.8e-4,0.118218 3.55442,0.212557 7.89763,0.209535 7.41928,-0.0044 7.99607,-0.05823 9.53877,-0.877511 2.16704,-1.150887 3.54539,-1.099944 6.34719,0.234535 1.27781,0.608616 2.37227,0.967914 2.43215,0.798443 0.28915,-0.81852 10.05402,2.704083 10.05402,3.626891 0,0.175013 0.2483,0.318187 0.55179,0.318187 0.30349,0 1.16505,0.833643 1.91459,1.85253 0.74953,1.018901 1.81749,2.278011 2.37325,2.798041 1.2157,1.13753 1.27119,2.13212 0.21557,3.86358 l -0.79198,1.299007 0.98844,2.08939 c 0.8389,1.77329 0.98786,2.63883 0.98463,5.72109 -0.004,4.39252 -0.96667,6.86389 -3.82064,9.81437 l -1.83065,1.89258 2.34004,-1.24135 c 1.28703,-0.68273 7.64157,-4.05961 14.1212,-7.50416 z m 94.10561,4.19406 c 0,-0.0996 -0.39488,-0.37264 -0.87751,-0.60653 -0.84267,-0.40835 -0.84744,-0.40114 -0.12043,0.18128 0.79571,0.63751 0.99797,0.72369 0.99797,0.42525 z m -106.67507,-2.35377 c 0.24106,-1.16595 0.23979,-1.16546 -0.36241,0.14225 -0.68944,1.49715 -0.76482,1.93283 -0.24191,1.39824 0.19932,-0.20378 0.47127,-0.89701 0.60432,-1.54053 z m 97.70493,-2.68831 c 0,-0.0843 -0.27238,-0.25779 -0.60527,-0.38553 -0.34708,-0.13326 -0.50362,-0.0678 -0.367,0.15327 0.22904,0.37059 0.97227,0.54813 0.97227,0.23226 z M 133.63277,98.776383 c 2.87253,-0.81333 5.37531,-1.71219 5.56168,-1.99746 0.1864,-0.28527 0.29318,-1.04518 0.2373,-1.6887 -0.0861,-0.990896 -0.28074,-1.185381 -1.27163,-1.270388 -0.64351,-0.05528 -2.16335,-0.385329 -3.37739,-0.733616 -1.21407,-0.348286 -2.61809,-0.529608 -3.12006,-0.402943 -0.50197,0.12662 -2.09731,1.337087 -3.54522,2.689817 -2.67143,2.49584 -3.2563,3.81246 -2.17424,4.894517 0.52609,0.52608 0.64883,0.50228 7.68956,-1.491227 z m 16.42255,0.26166 c 0,-0.0809 -0.30713,-0.38812 -0.68251,-0.68251 -0.61857,-0.48511 -0.63237,-0.47131 -0.14726,0.14725 0.5095,0.64966 0.82977,0.85626 0.82977,0.53526 z M 86.144,97.722773 c 0.48511,-0.61857 0.47133,-0.63237 -0.14725,-0.14726 -0.37538,0.2944 -0.68251,0.60153 -0.68251,0.68251 0,0.32099 0.32026,0.11439 0.82975,-0.53527 z m 6.64529,-4.226137 c 0.65791,-0.340223 1.5653,-0.522075 2.01641,-0.404108 1.18386,0.309593 2.59873,-0.135759 2.59873,-0.818033 0,-0.460387 0.31377,-0.534134 1.46253,-0.343791 l 1.46253,0.242332 -1.09458,-0.61295 c -0.99689,-0.558248 -1.25794,-0.556981 -2.92505,0.01474 -1.90616,0.653073 -5.57214,2.492632 -5.02865,2.523336 0.17152,0.01032 0.85017,-0.260743 1.50808,-0.600952 z m 7.23845,6.49e-4 c -0.59497,-0.322682 -1.29698,-0.450997 -1.56004,-0.285153 -0.31069,0.195885 -0.0684,0.390738 0.69177,0.55617 1.86098,0.404993 2.02203,0.354728 0.86827,-0.271017 z m 8.74715,-4.253123 c 0.99841,-0.0015 1.74169,-0.123082 1.65175,-0.268658 -0.0899,-0.145488 0.23393,-0.349893 0.71974,-0.454108 0.48582,-0.104215 -0.13974,-0.09478 -1.39006,0.02093 -1.25034,0.115713 -3.18088,0.443554 -4.29006,0.728501 -1.95523,0.502308 -1.9632,0.50987 -0.26169,0.247756 0.96526,-0.148701 2.57191,-0.272181 3.57032,-0.274392 z m 22.73777,-1.73098 c 0.34807,-0.563202 -1.22846,-0.899519 -2.62396,-0.559767 l -1.25876,0.306453 1.56003,0.252282 c 0.85802,0.138707 1.6813,0.277179 1.82952,0.307617 0.14821,0.03051 0.37014,-0.107457 0.49317,-0.306585 z M 330.82222,63.308184 c 0.13562,-0.427088 0.13178,-0.962121 -0.009,-1.188961 -0.36441,-0.589631 -1.35548,0.312054 -1.35548,1.233227 0,0.974326 1.05146,0.940201 1.36391,-0.04422 z m -4.20038,-0.783497 c -0.54539,-0.429004 -1.13945,-0.776111 -1.3201,-0.77135 -0.42593,0.01179 1.51182,1.531262 1.96663,1.542686 0.18981,0.0044 -0.10112,-0.342331 -0.64653,-0.771336 z M 74.53415,60.931515 c 2.18307,-1.921623 2.37045,-2.772395 0.54242,-2.462625 -2.06748,0.35035 -4.13337,1.372307 -4.78521,2.367151 -0.78668,1.200621 -0.45555,1.688646 1.14576,1.688646 0.95068,0 1.76015,-0.416401 3.09703,-1.593172 z m 1.95004,0 c 1.75489,-1.54474 2.22402,-2.306907 1.41993,-2.306907 -0.21451,0 -0.39,0.255215 -0.39,0.567151 0,0.311937 -0.81502,1.189452 -1.81113,1.950043 -0.99611,0.76059 -1.63508,1.382885 -1.41993,1.382885 0.21515,0 1.20565,-0.716929 2.20113,-1.593172 z m 252.65091,0.947719 c 0.39227,-0.355007 0.71323,-0.788095 0.71323,-0.96243 0,-0.449361 -4.54923,-3.424731 -6.56495,-4.293722 -1.88938,-0.814526 -2.56871,-0.918563 -2.21021,-0.338514 0.13252,0.214517 0.62557,0.392699 1.09554,0.395987 0.62845,0.0044 0.71444,0.09478 0.32499,0.341476 -0.39243,0.248656 0.26371,1.000284 2.53506,2.903923 1.68549,1.412632 3.13847,2.575237 3.22883,2.58358 0.0904,0.0088 0.48523,-0.275306 0.87751,-0.6303 z m -4.3994,-1.160836 c -0.33792,-0.407159 -0.58949,-0.447725 -0.89319,-0.144014 -0.3037,0.303697 -0.26416,0.520794 0.14033,0.770806 0.79281,0.489985 1.31729,0.05336 0.75283,-0.626777 z m -1.51749,-0.914775 c 0,-0.440919 -1.88866,-1.760392 -2.14824,-1.500813 -0.0957,0.09567 0.0954,0.55816 0.42429,1.027848 0.60599,0.865178 1.72395,1.171882 1.72395,0.472965 z M 131.50929,52.535494 c -3.20615,-1.847489 -7.58441,-4.332647 -9.72944,-5.522552 -2.14504,-1.189919 -8.60367,-4.772781 -14.35252,-7.961912 -5.74883,-3.189145 -10.64616,-5.678711 -10.88292,-5.532383 -0.24434,0.151015 -0.32109,0.08903 -0.17748,-0.143277 0.30373,-0.491445 -0.80948,-0.99085 -1.39798,-0.62713 -0.24015,0.148421 -0.30122,0.07223 -0.1449,-0.180615 0.16698,-0.270176 -0.60444,-0.878631 -2.01977,-1.593084 -1.59236,-0.803823 -2.28994,-0.997354 -2.28994,-0.635326 0,0.302149 0.24508,0.426588 0.58399,0.296533 0.37697,-0.144603 0.485,-0.06397 0.30474,0.227725 -0.18818,0.304477 -0.061,0.368067 0.39002,0.195 0.45099,-0.173067 0.57817,-0.109521 0.39,0.195001 -0.18818,0.304478 -0.061,0.368068 0.39,0.195001 0.45101,-0.173067 0.57819,-0.109521 0.39002,0.195001 -0.18289,0.295899 -0.0688,0.371075 0.33045,0.217863 0.4587,-0.17603 0.55118,-0.05424 0.37346,0.491976 -0.19544,0.600656 -0.16359,0.624978 0.18461,0.140918 0.35738,-0.496796 0.42869,-0.467404 0.473,0.195001 0.0288,0.429019 0.0237,0.999399 -0.0118,1.267527 -0.0348,0.268128 0.1959,0.48751 0.5127,0.48751 0.43946,0 0.54081,0.384474 0.42755,1.621872 -0.0817,0.89203 -0.32218,1.729241 -0.5345,1.860475 -0.65351,0.403887 -1.24617,2.414611 -1.2053,4.089224 0.0438,1.796899 -0.11969,2.808681 -0.51829,3.20732 -0.14921,0.149203 -0.27129,1.119549 -0.27129,2.15633 0,1.036766 -0.1755,1.885018 -0.39,1.885018 -0.21451,0 -0.39002,0.273626 -0.39002,0.608026 0,0.334416 -0.15554,0.511905 -0.34566,0.394395 -0.19013,-0.117481 -0.44677,0.172993 -0.57035,0.645541 -0.12353,0.472548 -0.022,0.984467 0.22583,1.13762 0.24779,0.153138 -0.24144,0.334917 -1.08717,0.403961 -0.84574,0.06898 4.07839,0.1306 10.94251,0.136644 12.99453,0.01179 19.22874,0.51696 30.81051,2.497422 2.35954,0.403475 4.54401,0.749992 4.85437,0.770024 0.31036,0.02005 -2.05894,-1.475161 -5.2651,-3.322649 z m 134.96297,2.561543 c 9.51899,-1.481838 19.44148,-2.35705 29.2505,-2.580042 8.47791,-0.192716 10.56438,-0.115713 15.99025,0.589748 3.43207,0.446266 7.11763,1.078689 8.19014,1.40538 2.931,0.892797 2.92506,0.896349 2.92506,-1.7506 0,-4.031795 -2.0895,-28.775766 -2.45562,-29.079551 -0.0436,-0.03626 -4.55476,2.332271 -10.0246,5.263371 -13.77303,7.380496 -37.70211,20.058866 -44.26574,23.453375 -3.00305,1.553093 -5.62681,2.975011 -5.8306,3.159826 -0.55175,0.500408 0.58164,0.416328 6.22061,-0.461507 z M 144.21703,52.566286 c 4.95036,-2.797935 19.02398,-10.245731 19.86524,-10.512738 0.43632,-0.138413 0.7933,-0.399392 0.7933,-0.579814 0,-0.299879 -14.85147,-8.482705 -30.81051,-16.975924 -3.53932,-1.883574 -11.60472,-6.237034 -17.92314,-9.674364 -6.31841,-3.437315 -11.67126,-6.2450667 -11.8952,-6.2394367 -0.70665,0.01784 -24.3551,13.3824457 -24.36566,13.7699997 -0.003,0.10731 2.13505,1.334641 4.75108,2.727521 8.12867,4.328092 36.62501,20.210293 50.21292,27.985783 4.66699,2.670607 3.66571,2.724145 9.37197,-0.501027 z m 118.12606,0.649124 c 2.27104,-1.259037 7.90248,-4.271165 12.51431,-6.693603 4.61183,-2.422453 10.71644,-5.692155 13.5658,-7.266003 2.84937,-1.573862 5.25083,-2.861555 5.33658,-2.861555 0.0858,0 2.84404,-1.460803 6.12953,-3.246235 3.28549,-1.785417 9.10431,-4.876307 12.93071,-6.86862 3.82642,-1.992328 6.80996,-3.7647 6.63011,-3.938622 -0.17984,-0.173907 -3.13504,-1.84 -6.5671,-3.702436 -3.43205,-1.86242 -9.07804,-4.947336 -12.54663,-6.855393 -3.46861,-1.9080427 -6.56547,-3.4691687 -6.88193,-3.4691687 -0.31646,0 -3.18236,1.375294 -6.36868,3.0562007 -3.1863,1.680923 -10.26861,5.39493 -15.73845,8.253374 -5.46984,2.85843 -13.89398,7.336093 -18.72031,9.950348 -4.82633,2.61426 -11.64477,6.292639 -15.1521,8.174149 l -6.37695,3.420953 5.40194,2.944735 c 2.97106,1.619587 8.82424,4.838626 13.00707,7.153415 4.18281,2.314775 7.85304,4.215196 8.15603,4.223156 0.303,0.0074 2.40903,-1.015658 4.68007,-2.274695 z M 87.54865,52.9289 c -0.12957,-0.129568 -0.46598,-0.143424 -0.7475,-0.03081 -0.31113,0.124556 -0.21872,0.216905 0.23562,0.235625 0.41113,0.01695 0.64147,-0.07532 0.51188,-0.204832 z m 2.44566,-23.349763 c 0,-0.101709 -0.52651,-0.457248 -1.17001,-0.790027 -1.46678,-0.758497 -1.55552,-0.429049 -0.0976,0.361936 1.22562,0.66491 1.26753,0.679061 1.26753,0.428091 z M 79.83906,26.049738 c 0.17375,0.10731 0.40057,-0.247683 0.50406,-0.789039 0.13237,-0.692519 -0.0279,-1.099855 -0.54041,-1.374204 -0.66659,-0.356747 -0.72473,-0.231159 -0.68334,1.47634 0.0249,1.026434 0.12589,1.55697 0.22453,1.178967 0.0986,-0.378017 0.32143,-0.599433 0.49516,-0.492064 z m 119.85201,-2.001526 c -0.26405,-0.106868 -0.79056,-0.113353 -1.17002,-0.01474 -0.37947,0.09891 -0.16343,0.186289 0.48009,0.194234 0.64351,0.0074 0.95397,-0.07296 0.68993,-0.179788 z m 2.12948,-0.369807 c -0.12956,-0.129568 -0.46597,-0.143424 -0.74751,-0.03081 -0.31111,0.124556 -0.21871,0.21692 0.23564,0.235625 0.41112,0.01695 0.64147,-0.07518 0.51187,-0.204833 z m -0.87982,-0.922263 c 1.73605,-0.402501 2.54547,-1.255381 2.54547,-2.682164 0,-0.872322 -0.0629,-0.908363 -0.68251,-0.390871 -0.98305,0.821055 -2.7137,1.500883 -3.8209,1.500883 -0.66768,0 -0.95667,0.215991 -0.95667,0.715012 0,1.314962 0.41434,1.436821 2.91461,0.85714 z m 3.89385,-0.375187 c 0.12338,-0.199689 0.0644,-0.461935 -0.13104,-0.582777 -0.19553,-0.120871 -0.45614,0.0426 -0.57913,0.363056 -0.24247,0.631862 0.34349,0.813125 0.71025,0.219721 z m -3.02524,-2.821859 c 0.64695,-0.536934 0.66085,-3.225127 0.0193,-3.744004 -0.26813,-0.216876 -1.56032,-0.516062 -2.87152,-0.664851 -2.27614,-0.258282 -2.4217,-0.22258 -3.21755,0.789172 -0.45846,0.582835 -0.83356,1.524069 -0.83356,2.091634 0,0.853543 0.28658,1.142735 1.65753,1.672755 1.74126,0.67318 4.34686,0.601306 5.24574,-0.14475 z m 1.86601,-1.982673 c -0.46865,-1.622771 -1.61411,-2.82376 -3.24146,-3.398622 -1.26794,-0.447887 -1.71879,-0.468921 -2.0902,-0.09743 -0.37143,0.371414 -0.139,0.473565 1.07767,0.473565 2.00962,0 3.19086,0.857464 3.50767,2.546258 0.13974,0.744597 0.42178,1.353803 0.62687,1.353803 0.20508,0 0.25884,-0.394881 0.11939,-0.877511 z"
       id="path11" /></g><metadata
     id="metadata182"><rdf:RDF><cc:Work
         rdf:about=""><cc:license
           rdf:resource="http://creativecommons.org/licenses/by-sa/4.0/" /><dc:publisher><cc:Agent><dc:title>OpenDataKerala.org</dc:title></cc:Agent></dc:publisher><dc:date>April 2026</dc:date><dc:title>Election Symbols of Kerala</dc:title><dc:creator><cc:Agent><dc:title>Manoj Karingamadathil</dc:title></cc:Agent></dc:creator></cc:Work><cc:License
         rdf:about="http://creativecommons.org/licenses/by-sa/4.0/"><cc:permits
           rdf:resource="http://creativecommons.org/ns#Reproduction" /><cc:permits
           rdf:resource="http://creativecommons.org/ns#Distribution" /><cc:requires
           rdf:resource="http://creativecommons.org/ns#Notice" /><cc:requires
           rdf:resource="http://creativecommons.org/ns#Attribution" /><cc:permits
           rdf:resource="http://creativecommons.org/ns#DerivativeWorks" /><cc:requires
           rdf:resource="http://creativecommons.org/ns#ShareAlike" /></cc:License></rdf:RDF></metadata></svg>
