<?xml version="1.0" encoding="UTF-8" standalone="no"?>
<!-- Created with Inkscape (http://www.inkscape.org/) -->

<svg
   width="1500"
   height="1500"
   viewBox="0 0 396.87499 396.875"
   version="1.1"
   id="svg5"
   xml:space="preserve"
   inkscape:version="1.3 (0e150ed6c4, 2023-07-21)"
   sodipodi:docname="Whistle.svg"
   inkscape:export-filename="Water Tank.png"
   inkscape:export-xdpi="96"
   inkscape:export-ydpi="96"
   xmlns:inkscape="http://www.inkscape.org/namespaces/inkscape"
   xmlns:sodipodi="http://sodipodi.sourceforge.net/DTD/sodipodi-0.dtd"
   xmlns="http://www.w3.org/2000/svg"
   xmlns:svg="http://www.w3.org/2000/svg"
   xmlns:rdf="http://www.w3.org/1999/02/22-rdf-syntax-ns#"
   xmlns:cc="http://creativecommons.org/ns#"
   xmlns:dc="http://purl.org/dc/elements/1.1/"><title
     id="title186">Election Symbols of Kerala</title><sodipodi:namedview
     id="namedview7"
     pagecolor="#ffffff"
     bordercolor="#000000"
     borderopacity="0.25"
     inkscape:showpageshadow="2"
     inkscape:pageopacity="0.0"
     inkscape:pagecheckerboard="0"
     inkscape:deskcolor="#d1d1d1"
     inkscape:document-units="mm"
     showgrid="false"
     inkscape:zoom="0.25"
     inkscape:cx="230"
     inkscape:cy="1082"
     inkscape:window-width="1920"
     inkscape:window-height="991"
     inkscape:window-x="-9"
     inkscape:window-y="-9"
     inkscape:window-maximized="1"
     inkscape:current-layer="layer1" /><defs
     id="defs2"><inkscape:path-effect
       effect="bspline"
       id="path-effect3248"
       is_visible="true"
       lpeversion="1"
       weight="33.333333"
       steps="2"
       helper_size="0"
       apply_no_weight="true"
       apply_with_weight="true"
       only_selected="false" /><inkscape:path-effect
       effect="bspline"
       id="path-effect577"
       is_visible="true"
       lpeversion="1"
       weight="33.333333"
       steps="2"
       helper_size="0"
       apply_no_weight="true"
       apply_with_weight="true"
       only_selected="false" /></defs><g
     inkscape:label="Layer 1"
     inkscape:groupmode="layer"
     id="layer1"><path
       style="fill:#000000;stroke-width:1.53841"
       d="m 148.18624,304.90603 c -0.55968,-0.0966 -2.6661,-0.38113 -4.68095,-0.63226 -10.60216,-1.32145 -23.61389,-5.97133 -33.72434,-12.05175 -2.42969,-1.46121 -7.00886,-4.60454 -10.175959,-6.98519 -3.167083,-2.38065 -8.322685,-6.0529 -11.456876,-8.16055 -3.134191,-2.10766 -6.46713,-4.41357 -7.40653,-5.12427 l -1.707991,-1.29217 -3.084331,1.55009 c -1.696376,0.85254 -3.727649,1.67078 -4.513946,1.81828 -1.119795,0.21007 -1.552319,0.56187 -1.995828,1.62335 -1.648024,3.94425 -7.623815,10.48855 -12.554056,13.74835 -7.499773,4.95876 -19.074245,8.09732 -27.377022,7.42364 -11.481106,-0.93157 -19.9376327,-5.90161 -23.9043814,-14.04899 -1.6274705,-3.3427 -1.7035911,-3.67222 -1.848771,-8.00258 -0.2502996,-7.46575 1.7725581,-12.91975 6.9205914,-18.65925 2.484397,-2.76985 7.60717,-6.69725 10.905448,-8.36075 5.333104,-2.68976 13.514147,-4.8936 18.165982,-4.8936 2.116347,0 2.210144,-0.0483 2.965596,-1.52916 0.76656,-1.50258 3.980071,-4.78378 6.335364,-6.46882 l 1.196885,-0.8563 -1.07315,-2.79777 c -0.590227,-1.53878 -1.74899,-4.53788 -2.575009,-6.66465 -1.99772,-5.14354 -3.581823,-10.69582 -4.72374,-16.55674 -0.819635,-4.20681 -0.937462,-6.04272 -0.935862,-14.58168 0.0014,-7.53891 0.170441,-10.77496 0.740453,-14.17606 2.739158,-16.34404 8.943973,-31.70175 18.686119,-46.25056 8.312162,-12.4133 19.697717,-23.37041 32.668636,-31.4393 20.780328,-12.926953 45.639398,-16.046821 68.789438,-8.633276 3.63985,1.165623 10.16183,3.925011 13.77888,5.829719 3.26112,1.717287 5.93904,1.747327 7.60109,0.08523 0.64293,-0.642918 1.27834,-1.69613 1.41203,-2.340463 0.86159,-4.152635 1.66921,-6.034051 3.43157,-7.994218 2.79861,-3.112746 5.0994,-3.969272 11.83449,-4.40575 9.71235,-0.629426 33.89657,-2.682375 57.39238,-4.871935 10.17758,-0.948446 40.52816,-3.676974 54.95014,-4.940056 16.67513,-1.460399 15.76339,-1.735667 40.70381,12.289234 1.45515,0.818296 6.67543,3.740048 11.60058,6.492774 4.92516,2.752727 9.96226,5.669171 11.19355,6.48096 2.3845,1.572131 4.57266,4.418421 5.30365,6.898851 0.72421,2.4574 0.94417,9.35516 0.42416,13.30091 -0.58806,4.4621 -1.82108,7.30339 -4.16127,9.589 -2.44722,2.39014 -5.51922,3.70723 -13.57416,5.81978 -14.50794,3.80495 -73.84793,19.47746 -77.48829,20.46572 -7.80809,2.1197 -13.17894,5.01459 -17.55896,9.46426 -2.98693,3.03446 -4.45144,5.3242 -5.95543,9.31127 -2.23792,5.93272 -2.66984,11.41131 -1.50223,19.05477 0.90654,5.93449 0.89544,18.12745 -0.0228,25.00195 -1.87763,14.05794 -7.72163,29.011 -16.04198,41.04665 -5.15278,7.45369 -13.5092,16.38238 -20.55104,21.95845 -15.0721,11.93481 -33.4037,19.67322 -53.8154,22.71734 -3.85716,0.57524 -20.41448,1.12309 -22.59062,0.74747 z m 15.26393,-5.06207 c 37.7446,-3.4236 68.66466,-23.66508 84.42569,-55.26835 5.99368,-12.01825 8.4774,-22.24433 8.8708,-36.52302 0.19146,-6.94936 0.0908,-9.18972 -0.68631,-15.26392 -0.96971,-7.58028 -0.97897,-7.34872 0.62015,-15.5184 1.9323,-9.87181 8.4098,-17.94598 18.36802,-22.89566 5.10165,-2.53573 7.66024,-3.26157 54.06614,-15.33765 4.25356,-1.10689 11.85499,-3.1104 16.89209,-4.45224 5.0371,-1.34184 12.36378,-3.27727 16.28153,-4.30097 8.19358,-2.14098 9.89919,-2.81003 11.66506,-4.5759 2.07484,-2.07486 2.58127,-4.2642 2.58127,-11.15918 0,-4.59043 -0.14784,-6.33922 -0.61189,-7.23653 l -0.61189,-1.18327 -2.13562,1.29065 c -1.17458,0.70987 -2.20655,1.33762 -2.29324,1.39503 -0.0868,0.0574 0.41702,0.64115 1.11935,1.29723 1.27255,1.18873 1.27698,1.20753 1.27472,5.40523 -0.003,4.85875 -0.42282,6.74038 -1.89625,8.49146 -1.66732,1.98151 -3.58745,2.70895 -13.87764,5.2576 -5.31505,1.31642 -12.50282,3.22218 -15.97281,4.23503 -8.57657,2.5034 -20.78348,5.73594 -26.45748,7.00627 -2.57452,0.5764 -7.58856,1.77733 -11.14232,2.66873 -3.55376,0.8914 -6.52588,1.55623 -6.60471,1.47741 -0.16526,-0.16527 25.25794,-7.34419 37.8954,-10.70079 31.82311,-8.45243 30.31575,-8.00099 32.86834,-9.84396 1.06338,-0.76777 1.93343,-1.45695 1.93343,-1.5315 0,-0.0746 0.11938,-0.4466 0.26524,-0.82676 0.22896,-0.59667 0.14553,-0.62715 -0.61001,-0.22279 -1.27184,0.68067 -16.38896,4.57005 -16.9159,4.35218 -0.24502,-0.10138 -0.17073,-0.20002 0.16507,-0.21938 1.14576,-0.066 16.76112,-5.2745 17.74397,-5.91848 0.98529,-0.6456 1.26783,-1.98112 0.63138,-2.98452 -0.25024,-0.39453 -0.58611,-0.42337 -1.31664,-0.11308 -1.33806,0.56832 -6.99356,1.66718 -8.39199,1.63055 -1.15799,-0.0303 7.63797,-2.40029 8.93768,-2.40815 0.88866,-0.005 0.9462,-1.33867 0.0885,-2.05052 -0.51263,-0.42545 -1.76425,-0.25553 -7.0214,0.95328 -11.17666,2.56987 -26.10988,5.35678 -38.35007,7.15704 -1.45515,0.21403 -8.21089,1.23293 -15.01275,2.26422 -6.80185,1.03131 -12.46476,1.77733 -12.58427,1.65784 -0.11953,-0.11953 -0.0229,-0.21725 0.21446,-0.21725 0.97532,0 30.89118,-5.51401 42.23945,-7.78546 14.32396,-2.86706 27.67336,-6.17563 29.07756,-7.20669 1.73346,-1.27284 1.57575,-1.82033 -0.43455,-1.5087 -6.24746,0.96843 -15.42984,2.55576 -24.77614,4.28295 -5.93259,1.09635 -14.90778,2.73599 -19.94488,3.64365 -13.27001,2.3912 -56.70075,9.62678 -65.03843,10.83543 -3.91772,0.56792 -7.72024,1.28207 -8.45005,1.58701 -0.97016,0.40536 -1.78701,1.34219 -3.03804,3.48426 -2.1527,3.68594 -4.03578,5.56627 -7.12783,7.1174 -2.25098,1.1292 -2.75927,1.22058 -6.75306,1.21404 -4.2518,-0.008 -4.37189,-0.0335 -7.73372,-1.71428 -1.87817,-0.93897 -5.4297,-3.03323 -7.89228,-4.6539 -15.17021,-9.98383 -33.22805,-14.90135 -51.49032,-14.02187 -14.12653,0.68032 -25.30076,3.52867 -37.65103,9.59737 -10.68573,5.25078 -18.233,10.72801 -26.45898,19.2019 -10.484398,10.80037 -17.766624,22.22136 -22.951149,35.99514 -3.870136,10.28186 -5.663986,19.19085 -6.017867,29.88716 -0.342558,10.35436 1.178085,21.20113 4.165665,29.71378 4.529762,12.90684 14.040054,26.73023 23.787261,34.57519 15.25311,12.27634 29.73116,18.23578 48.84458,20.10533 3.14574,0.3077 8.99254,0.24707 13.22874,-0.13722 z M 146.96512,297.962 c -0.78354,-0.1 -3.69662,-0.55675 -6.47348,-1.0149 -21.41549,-3.53336 -39.07278,-14.99558 -51.030291,-33.12624 -7.506234,-11.38138 -12.348816,-26.34229 -12.714004,-39.27918 l -0.143688,-5.08798 0.340835,4.47742 c 0.403541,5.30111 1.943322,13.10944 3.665959,18.59026 2.010058,6.3953 6.999758,15.76331 11.778388,22.11355 2.45389,3.26094 9.679191,10.67414 13.465381,13.81555 16.9862,14.09351 38.97131,20.23253 62.68387,17.50356 8.19298,-0.94291 15.80702,-2.8437 25.84691,-6.4525 0.44774,-0.16095 0.29458,0.008 -0.34035,0.37523 -3.5794,2.07069 -15.60396,5.51615 -24.89602,7.13357 -4.74581,0.82608 -18.53418,1.41759 -22.18357,0.95166 z m 6.30909,-11.78517 c -19.0922,-2.55135 -33.24171,-9.45928 -44.80157,-21.87254 -5.30781,-5.69966 -10.821355,-14.71554 -13.763506,-22.50641 -1.405124,-3.72082 -3.311847,-11.27771 -3.893736,-15.43204 -0.667748,-4.76729 -0.573889,-14.77606 0.187163,-19.95702 3.008549,-20.48123 13.819849,-38.88988 30.754899,-52.36713 3.20634,-2.55167 10.57576,-7.18249 15.18299,-9.54076 7.27038,-3.7214 16.00814,-6.53434 25.30608,-8.14675 5.49001,-0.95206 17.53215,-0.95237 23.1837,-6e-4 31.29308,5.27002 53.9657,28.12682 58.60877,59.08488 0.78105,5.20774 0.78125,15.82288 4.1e-4,21.31654 -3.56077,25.05188 -18.8331,46.2867 -42.99731,59.784 -6.71208,3.74913 -18.07784,7.53061 -26.64627,8.86541 -4.15817,0.64778 -18.20918,1.16162 -21.12162,0.77242 z M 164.84088,281.38 c -0.0932,-0.0808 -2.3676,-0.23818 -5.05405,-0.3496 -2.68645,-0.11138 -4.06021,-0.0728 -3.05279,0.0858 1.93273,0.30441 8.39634,0.51469 8.10684,0.26375 z m 3.18847,-0.54061 c -0.39177,-0.10246 -1.03286,-0.10246 -1.42463,0 -0.39178,0.10246 -0.0712,0.18615 0.71231,0.18615 0.78355,0 1.10409,-0.0837 0.71232,-0.18615 z m -16.1079,-1.05932 c 0.37534,-0.0306 0.62221,-0.15384 0.5486,-0.27372 -0.0737,-0.11999 4.74797,-0.23987 10.71464,-0.26654 9.10507,-0.0408 11.59245,-0.18506 15.47798,-0.89833 4.38662,-0.80525 6.02057,-1.29588 4.29141,-1.2886 -0.42909,0.002 -2.795,0.26059 -5.25758,0.57509 -4.54639,0.58063 -11.27625,0.86669 -16.99384,0.72236 -6.20234,-0.15655 -2.79088,-1.48423 5.96475,-2.32136 13.79441,-1.31889 26.7431,-4.97576 39.52177,-11.16144 6.06721,-2.9369 9.33454,-5.16881 12.61817,-8.61942 2.11706,-2.22473 2.01381,-2.18906 -2.9413,1.01612 -11.32471,7.32528 -28.03557,12.98021 -41.01881,13.88066 -2.01485,0.13968 -4.07547,0.33837 -4.57918,0.4414 -0.50371,0.10307 -0.91583,0.0429 -0.91583,-0.13369 0,-0.17658 2.42695,-0.8426 5.39324,-1.48008 12.43992,-2.67336 24.75434,-7.22024 33.47889,-12.36149 7.62078,-4.49081 15.02703,-10.34176 20.4747,-16.17508 3.29616,-3.52948 4.80683,-5.75583 2.47225,-3.64343 -0.75566,0.68373 -2.52266,2.28042 -3.92666,3.54819 -5.15297,4.65296 -15.32952,10.76533 -25.5329,15.33589 -5.74381,2.5729 -9.95683,4.00745 -16.28152,5.54388 -6.66266,1.61853 -6.25198,1.1343 1.27085,-1.49843 8.41682,-2.94561 13.39545,-5.37268 22.5458,-10.99101 6.68433,-4.10419 18.51892,-13.80102 24.22218,-19.84676 2.33091,-2.4709 3.83434,-5.09539 3.25228,-5.67745 -0.10184,-0.10184 -1.0549,0.80181 -2.11778,2.00825 -3.13062,3.55347 -5.70595,5.85284 -11.34397,10.12832 -6.93188,5.25666 -11.24173,7.9346 -18.69858,11.61842 -5.64083,2.78668 -15.53439,6.56593 -15.99165,6.10866 -0.22744,-0.22743 -0.14799,-0.27039 9.27553,-5.01731 7.19569,-3.62468 18.67434,-10.81062 22.79413,-14.26972 5.03037,-4.22367 8.40389,-7.4269 12.50084,-11.86988 4.9725,-5.39249 6.23063,-7.68357 6.20904,-11.30691 l -0.0138,-2.32887 -1.41697,2.77899 c -3.16218,6.20168 -6.03951,9.51811 -13.65025,15.73338 -7.96091,6.50126 -15.09102,10.76889 -22.76828,13.62766 -6.03499,2.24723 -5.8893,1.95918 1.02629,-2.02925 18.21309,-10.50399 31.92023,-24.02788 35.65277,-35.17609 0.41642,-1.24376 0.75811,-2.90246 0.75931,-3.686 0.002,-1.31215 -0.15307,-1.13204 -1.96495,2.28069 -1.08193,2.03794 -2.97758,5.06019 -4.21254,6.71614 -3.9891,5.34892 -12.01538,12.49639 -19.33298,17.21618 -3.24918,2.0957 -10.60061,5.76912 -10.91543,5.4543 -0.1103,-0.1103 1.95416,-1.73614 4.58761,-3.61305 11.17508,-7.96474 20.53324,-17.04847 25.66935,-24.9166 3.37491,-5.17009 5.50363,-11.52181 4.8004,-14.32364 -0.29662,-1.18185 -1.05586,-1.01423 -1.05586,0.2331 0,1.41026 -2.4115,7.11577 -4.13394,9.78071 -1.97363,3.0536 -6.10933,7.43244 -9.27098,9.81604 -1.24633,0.93962 -2.99872,2.36232 -3.89419,3.16156 -2.42205,2.16173 -9.11054,7.18501 -10.88828,8.17746 -1.68504,0.94069 -0.52562,-0.55043 2.12081,-2.72756 1.55821,-1.2819 3.00658,-2.82832 3.21858,-3.43652 0.21203,-0.60818 1.63884,-2.11027 3.1707,-3.33795 3.73868,-2.99631 10.13443,-9.68497 12.26219,-12.82377 2.13888,-3.15522 4.60731,-8.37084 5.72514,-12.09686 0.71694,-2.38975 0.77703,-3.09502 0.39346,-4.61828 l -0.45269,-1.79782 -0.92625,3.20301 c -1.35106,4.67206 -2.32965,6.72672 -4.77507,10.0259 -2.62077,3.53573 -4.62907,5.39606 -8.53993,7.91069 -2.92621,1.88152 -7.71892,4.25575 -9.65295,4.78193 l -1.0176,0.27686 1.0176,-0.84645 c 0.55968,-0.46554 2.40671,-1.68444 4.1045,-2.70865 2.95301,-1.78144 7.70623,-6.4179 11.22139,-10.94579 2.6683,-3.43701 4.94509,-8.78161 5.855,-13.74417 0.40144,-2.18938 0.36095,-2.4629 -0.60251,-4.07038 -0.83451,-1.39235 -1.03359,-1.54741 -1.0367,-0.80746 -0.002,0.5037 -0.53929,2.58082 -1.1937,4.61582 -1.71393,5.32967 -5.42472,10.03955 -11.02129,13.98867 -2.8748,2.02855 -8.14077,4.94676 -8.14077,4.51131 0,-0.10938 1.64407,-1.40558 3.6535,-2.88046 8.47655,-6.22161 13.01905,-13.53833 14.09648,-22.70554 0.24584,-2.09173 0.17279,-2.36491 -1.11146,-4.15636 l -1.37458,-1.91747 -0.24719,2.24646 c -0.22846,2.0763 -1.76767,5.45027 -4.03355,8.84158 -0.37394,0.55969 -1.17976,1.77929 -1.79071,2.71026 -0.61095,0.93096 -2.10166,2.48788 -3.31269,3.45983 -2.11998,1.70142 -6.54279,4.39803 -7.22983,4.40806 -0.18284,0.003 1.94927,-2.23896 4.73804,-4.98138 4.67695,-4.59919 5.21364,-5.28635 6.91461,-8.85307 2.91894,-6.1206 3.48166,-9.2861 1.98826,-11.18464 -0.49786,-0.63293 -0.96541,-1.07702 -1.03898,-0.98689 -0.0735,0.0901 -0.66313,1.70638 -1.31011,3.59163 -1.40982,4.10805 -2.6495,5.91247 -5.76557,8.39208 -2.15956,1.71848 -5.75663,3.85117 -6.49551,3.85117 -0.17115,0 1.45347,-1.78588 3.61026,-3.96863 4.69661,-4.75312 6.22891,-7.31278 6.87584,-11.48594 l 0.47127,-3.0399 -1.57152,-1.32971 c -0.86436,-0.73133 -1.67998,-1.33242 -1.81251,-1.33576 -0.13246,-0.003 -0.72692,1.23033 -1.32085,2.74145 -1.05545,2.68538 -4.35523,7.42846 -5.16802,7.42846 -0.66304,0 0.0108,-2.03961 1.54732,-4.68094 1.1239,-1.93248 2.94381,-6.24654 2.94381,-6.97827 0,-0.0742 -0.76987,-0.62069 -1.71082,-1.21468 -1.21482,-0.76689 -1.76054,-0.93079 -1.88236,-0.56536 -0.4837,1.45111 -2.44275,2.90256 -4.7511,3.52008 -3.35733,0.89814 -10.13366,2.15563 -10.36768,1.92395 -0.31778,-0.31461 0.86221,-0.88122 2.40404,-1.15438 3.99423,-0.70764 8.25809,-2.33174 9.81541,-3.73868 0.88443,-0.79903 1.60805,-1.58369 1.60805,-1.74368 0,-0.16 -0.42468,-0.51817 -0.94372,-0.79596 -0.78521,-0.42023 -1.38343,-0.36634 -3.56158,0.32079 -3.58556,1.13115 -8.12792,1.68147 -13.53559,1.63989 -5.99393,-0.0462 -4.08116,-0.67684 2.97841,-0.98216 5.14823,-0.22264 8.20106,-0.7898 10.37094,-1.9267 l 1.19029,-0.62366 -2.18764,-1.10855 c -1.96277,-0.99461 -2.34635,-1.06101 -3.73177,-0.64593 -0.84928,0.25445 -5.07579,0.73823 -9.39224,1.07505 -4.31646,0.33684 -9.94841,0.77995 -12.51547,0.98468 -2.56705,0.20475 -4.72681,0.31284 -4.79946,0.24018 -0.37146,-0.37147 20.42039,-3.48104 23.44569,-3.50647 l 1.89563,-0.016 -1.27436,-0.55457 c -2.54324,-1.10678 -5.63251,-1.58316 -7.11172,-1.09667 -1.43166,0.47084 -14.61502,1.40829 -14.95958,1.06375 -0.10707,-0.10708 -0.0841,-0.30528 0.0509,-0.4404 0.25118,-0.25118 4.85721,-1.08711 8.81105,-1.59909 1.77693,-0.23008 2.06248,-0.36522 1.47108,-0.69618 -1.14321,-0.63978 -8.19277,0.32193 -12.52332,1.70844 -2.07398,0.66402 -5.51094,1.49364 -7.63772,1.8436 -4.6792,0.76996 -6.7605,1.41832 -11.80411,3.67713 -2.12676,0.95249 -4.41635,1.84255 -5.08797,1.97793 -2.19906,0.44325 7.22227,-4.09294 11.60059,-5.58548 4.70825,-1.60501 13.62822,-3.92639 15.12486,-3.93618 0.52423,-0.003 1.22789,-0.18378 1.56369,-0.4008 0.83945,-0.54249 -4.91642,-0.53123 -9.37254,0.0183 -24.97435,3.08007 -46.9323,16.81609 -59.83301,37.42917 -3.06783,4.90187 -6.697163,12.61704 -7.892494,16.77778 -2.243081,7.80769 -2.421568,17.04898 -0.465692,24.11118 0.555212,2.00473 0.927523,3.72692 0.827373,3.82709 -0.340328,0.34031 -2.22942,-4.28408 -2.953659,-7.23041 -0.396664,-1.61372 -0.853818,-2.80142 -1.01589,-2.63935 -0.162056,0.16206 -0.292867,1.77527 -0.290683,3.58489 0.0031,2.6147 0.204886,3.72172 0.982538,5.39191 1.572795,3.37797 3.789354,6.62305 6.897577,10.09817 1.64159,1.83537 2.37195,2.86646 1.6813,2.37355 -2.2707,-1.62048 -6.790335,-6.82128 -8.028341,-9.23827 -1.044166,-2.03855 -1.118687,-0.52575 -0.09784,1.98602 1.893939,4.65992 6.672091,10.4593 10.886091,13.21272 1.39172,0.90936 4.12777,2.32977 6.08011,3.15647 1.95234,0.8267 3.47732,1.57549 3.38883,1.66398 -0.30994,0.30994 -4.88266,-1.21672 -7.3013,-2.43765 -4.75896,-2.40232 -8.08217,-5.36644 -11.082087,-9.88466 -0.824497,-1.24178 -1.559288,-2.19758 -1.632871,-2.124 -0.220531,0.22054 1.136348,5.29465 1.709038,6.39111 0.784251,1.5015 4.58026,5.31788 7.25462,7.29354 3.79183,2.80121 7.72772,4.44737 12.91342,5.40097 2.54873,0.46871 4.90882,1.11884 5.24463,1.44477 0.5356,0.51984 0.28577,0.55793 -2.0352,0.31025 -9.27336,-0.98963 -14.73081,-3.45566 -19.90212,-8.99305 -3.148838,-3.37175 -3.198252,-3.21503 -0.65715,2.08424 1.89815,3.95849 2.64917,4.78911 5.80227,6.41729 3.34136,1.72539 11.96685,4.52608 16.51302,5.36175 4.66205,0.85698 11.42569,1.43389 17.17126,1.46464 6.8719,0.0368 4.71956,0.79691 -3.05279,1.07815 -10.58252,0.3829 -20.32762,-1.34017 -27.91978,-4.93661 -2.17596,-1.03077 -4.02459,-1.80582 -4.10806,-1.72234 -0.18298,0.18297 3.30392,4.87204 4.0361,5.42759 0.28416,0.21562 2.89784,1.27097 5.80816,2.34523 8.15991,3.01198 17.48198,4.66325 31.65024,5.60639 6.30186,0.41949 8.15329,0.38968 14.44986,-0.23264 3.97204,-0.39259 7.77139,-0.81022 8.44302,-0.92808 1.96392,-0.34463 0.41172,0.53797 -2.61966,1.48957 -11.05973,3.47187 -27.13661,3.55264 -40.72991,0.20464 -4.61582,-1.13686 -8.93017,-2.62713 -11.7665,-4.06441 -1.14004,-0.5777 -2.07279,-0.87428 -2.07279,-0.65905 0,0.21522 0.88509,1.15371 1.96686,2.08553 2.2079,1.90183 5.86558,3.26366 14.11114,5.25385 7.59297,1.83267 11.91146,2.23672 23.70345,2.2178 5.87301,-0.009 10.63536,0.0255 10.58298,0.0777 -0.3149,0.31333 -7.15526,1.81496 -10.06766,2.2101 -4.41519,0.59904 -14.24711,0.59878 -18.72376,-4.8e-4 -1.90289,-0.25473 -4.81588,-0.91332 -6.47327,-1.46354 -3.1387,-1.04198 -4.20652,-1.06776 -2.21411,-0.0534 5.09539,2.59396 12.91503,4.0583 21.79239,4.08093 3.51387,0.009 6.30813,0.14692 6.20947,0.30654 -0.30833,0.49888 -7.13303,1.31929 -11.05024,1.32836 -2.05886,0.005 -3.66376,0.13754 -3.56646,0.29495 0.14892,0.24107 1.91868,0.71356 8.12393,2.16905 0.44774,0.10507 1.54675,0.0975 2.44223,-0.0166 0.89547,-0.11415 1.93524,-0.23263 2.31058,-0.26325 z m 0.53869,-18.13798 c -1.55315,-0.26707 -1.57762,-0.29375 -0.53124,-0.57912 0.6033,-0.16454 2.98447,-0.48625 5.2915,-0.71492 7.46299,-0.73973 13.31465,-1.90678 20.25153,-4.03898 1.44359,-0.44371 2.70824,-0.72322 2.81033,-0.62112 0.38217,0.38218 -8.44948,4.28407 -11.56107,5.10778 -3.42908,0.90775 -13.00549,1.40618 -16.26105,0.84636 z m 12.41709,-8.78852 c 0.56102,-0.30538 3.45846,-1.21588 6.43875,-2.02337 5.27344,-1.42878 13.85061,-4.43908 16.39053,-5.75253 2.17988,-1.12726 1.75262,-0.32432 -0.71853,1.35031 -3.15796,2.14007 -4.9435,3.01748 -9.17683,4.50954 -3.77095,1.32908 -9.63078,2.51109 -12.3258,2.48626 -1.60455,-0.0154 -1.61336,-0.0231 -0.60812,-0.57021 z m 11.80167,-10.40199 c 0,-0.18748 0.67995,-0.76793 1.511,-1.28991 2.06068,-1.2943 15.73807,-7.59394 15.99165,-7.36556 0.45114,0.40631 -3.27954,3.0763 -6.91965,4.9523 -3.87263,1.99584 -10.583,4.34391 -10.583,3.70317 z m 9.44082,-11.09321 c 1.90778,-1.73003 10.00604,-6.63631 10.36362,-6.27873 0.10384,0.10384 -0.7028,1.07856 -1.79262,2.16593 -2.11195,2.10717 -4.61841,3.62705 -8.24291,4.99837 l -2.23869,0.84701 z m 5.41359,-8.84914 c 1.27491,-1.40876 5.09976,-4.19951 5.37643,-3.92285 0.59075,0.59076 -4.33886,4.73419 -5.63245,4.73419 -0.28064,0 -0.17484,-0.33523 0.25602,-0.81134 z m 4.66885,-7.66957 c 0.26816,-0.52288 0.5992,-0.83907 0.73564,-0.70262 0.13645,0.13645 -0.0829,0.56426 -0.48756,0.95069 -0.70327,0.6717 -0.71419,0.66079 -0.24808,-0.24807 z m -95.19651,-14.51675 c -0.0875,-4.49174 5.47343,-18.57929 9.19024,-23.28141 2.65458,-3.35829 5.56464,-6.6359 5.89178,-6.6359 0.17007,0 -0.64333,1.2667 -1.80754,2.81487 -4.58659,6.09922 -10.32836,17.66103 -12.24663,24.66022 -0.6188,2.25774 -1.01317,3.1948 -1.02785,2.44222 z m 103.75888,-25.18652 c 0,-0.0845 0.32054,-0.40506 0.71231,-0.71232 0.6456,-0.5063 0.66,-0.4919 0.15369,0.15369 -0.53173,0.67803 -0.86599,0.89365 -0.86599,0.55865 z m -81.36639,-13.28372 c 0.91085,-1.41487 7.93692,-7.67834 10.58454,-9.43575 2.48636,-1.65034 9.54557,-4.93347 10.16427,-4.72724 0.2237,0.0746 -1.28779,1.0491 -3.35886,2.16563 -4.35952,2.35025 -9.65672,6.03015 -14.58191,10.12986 -1.91306,1.59243 -3.16844,2.42731 -2.80804,1.8675 z m 79.01039,-0.05 c 0.0731,-0.21898 0.95349,-0.75338 1.95667,-1.18756 l 1.82398,-0.78943 -1.19214,0.98762 c -1.27835,1.05906 -2.80643,1.6431 -2.58851,0.98937 z m -9.04106,112.77364 c 1.55358,-0.8844 0.47501,-0.72308 -1.80539,0.27003 -0.9142,0.39814 -1.02995,0.54293 -0.43333,0.5421 0.44774,-6.1e-4 1.45517,-0.36608 2.23872,-0.81213 z m 6.10557,-2.81821 c 1.2313,-0.65049 2.05555,-1.1827 1.83168,-1.1827 -0.22389,0 -1.41446,0.53221 -2.64576,1.1827 -1.23129,0.65048 -2.05554,1.18271 -1.83167,1.18271 0.22387,0 1.41447,-0.53223 2.64575,-1.18271 z m 25.4613,-9.81542 c 10.21953,-10.60152 17.68192,-25.64227 20.80977,-41.94294 0.98505,-5.13356 1.11789,-6.77018 1.10154,-13.57125 -0.0139,-5.53243 -0.22414,-8.89232 -0.74067,-11.80411 -0.88193,-4.97144 -3.00875,-12.44339 -4.63442,-16.28152 -2.55423,-6.03041 -2.61289,-6.19513 -1.88476,-5.2915 1.94963,2.41951 5.70111,11.80788 7.23782,18.11319 1.6634,6.82524 2.03245,10.89189 1.77932,19.60735 -0.251,8.64254 -1.08207,13.51021 -3.59388,21.04978 -3.51043,10.53706 -13.27951,25.46512 -20.98858,32.07247 -4.01946,3.44501 -3.76557,2.90286 0.91386,-1.95147 z M 81.617987,223.06984 c -0.159764,-1.70499 -0.189547,-6.51313 -0.06615,-10.68475 0.230192,-7.78344 0.792236,-11.42887 2.738265,-17.76071 1.074596,-3.49638 4.586252,-11.85822 4.760492,-11.3355 0.06969,0.20899 -0.623856,2.47864 -1.541165,5.04367 -4.017347,11.2336 -5.950608,22.53559 -5.549713,32.44403 0.119996,2.96628 0.157579,5.39325 0.08354,5.39325 -0.07415,0 -0.265423,-1.395 -0.425202,-3.09999 z M 254.2727,182.10795 c -0.91785,-3.42491 0.32871,-10.51651 2.97781,-16.94064 2.16274,-5.24474 4.69722,-7.91403 10.60583,-11.17013 2.69905,-1.48738 6.52935,-3.1387 5.13414,-2.21344 -0.42187,0.27978 -2.07037,1.35699 -3.66335,2.39383 -6.08751,3.96223 -11.53573,10.96133 -13.58273,17.44915 -0.87084,2.76009 -1.09241,4.26248 -1.09551,7.42845 -0.002,2.18275 -0.0325,3.96863 -0.0674,3.96863 -0.0349,0 -0.17387,-0.41213 -0.30885,-0.91585 z M 92.99765,174.67951 c 4.044593,-7.72032 11.67873,-17.89959 17.39099,-23.18894 14.09613,-13.05247 28.97147,-20.45815 48.38059,-24.08622 2.9668,-0.55458 5.95121,-0.72176 12.82169,-0.71826 9.55616,0.005 13.19873,0.46382 22.79414,2.87187 3.77038,0.94621 10.1968,3.31146 9.8741,3.63417 -0.0772,0.0772 -1.71571,-0.38539 -3.64096,-1.02814 -14.23211,-4.75141 -32.6686,-5.21135 -48.33411,-1.20579 -17.2488,4.4104 -32.16961,13.23925 -45.44055,26.88779 -5.11683,5.26242 -7.765379,8.58528 -11.79531,14.79833 -4.010547,6.18318 -4.454487,6.62378 -2.05058,2.03519 z m 148.93374,-16.5868 c -0.38971,-0.72758 -1.01014,-1.96397 -1.37873,-2.74751 -0.79677,-1.69387 -5.11026,-6.98373 -7.22318,-8.85816 -0.82329,-0.73039 -2.37392,-1.89874 -3.44582,-2.59636 -1.07189,-0.69761 -1.8832,-1.33408 -1.8029,-1.41439 0.0803,-0.0803 1.23205,0.2411 2.55946,0.71424 2.21745,0.79036 2.66142,0.82013 5.46625,0.3664 3.58271,-0.57953 6.10588,-1.59962 8.29878,-3.35509 0.87046,-0.69682 1.41997,-0.99143 1.22111,-0.65465 -0.58626,0.99286 -3.00364,2.93604 -6.16183,4.9531 -1.62305,1.0366 -2.95103,2.04673 -2.95103,2.24473 0,0.79209 1.36999,3.6256 2.68916,5.56195 0.76804,1.12737 1.93472,3.18799 2.59266,4.57918 1.25674,2.65739 1.34837,3.46981 0.13599,1.20656 z m 53.93335,-13.20151 c 0.29383,-0.11754 0.6449,-0.10308 0.78016,0.0322 0.13522,0.13523 -0.10508,0.23146 -0.53423,0.21378 -0.47419,-0.0195 -0.57063,-0.116 -0.24593,-0.24592 z m -47.14009,-8.84482 c 0,-1.69593 2.47529,-4.69991 4.5039,-5.46592 0.57426,-0.21682 2.13116,-0.51552 3.45982,-0.66378 1.95749,-0.21841 10.6889,-1.39618 18.16025,-2.44964 2.28369,-0.32199 -4.81728,1.30534 -11.26708,2.58208 -7.77063,1.5382 -10.42313,2.53646 -12.90286,4.85597 -1.38181,1.29251 -1.95403,1.62673 -1.95403,1.14129 z M 34.525602,292.23737 c -0.389172,-0.10184 -1.12184,-0.10553 -1.628162,-0.008 -0.506323,0.0974 -0.187917,0.18072 0.707577,0.18524 0.895478,0.005 1.309742,-0.0752 0.920585,-0.17702 z m -8.153998,-0.37329 c -0.135226,-0.13523 -0.486322,-0.14969 -0.780159,-0.0322 -0.324697,0.13 -0.228254,0.22638 0.24593,0.24592 0.429079,0.0177 0.669487,-0.0785 0.534229,-0.21379 z m 15.347935,-0.58697 c 9.439802,-2.47252 19.173026,-9.80582 22.759126,-17.14741 2.147069,-4.39557 2.964996,-8.65468 2.327017,-12.11715 -0.540721,-2.9346 -2.388138,-6.75661 -3.978302,-8.23049 -0.973692,-0.90249 -0.963969,-0.85223 0.189793,0.98059 0.668856,1.06248 1.638071,3.24415 2.153808,4.84812 0.880648,2.7388 0.907417,3.1259 0.439909,6.35939 -0.273807,1.89369 -0.751315,4.01646 -1.061151,4.71726 l -0.563335,1.27419 0.27676,-1.42463 c 0.152149,-0.78354 0.273683,-3.34789 0.269945,-5.69854 -0.0062,-3.60396 -0.146303,-4.53653 -0.896386,-5.94945 -1.08395,-2.04169 -2.77628,-4.09756 -3.842861,-4.66837 -0.597765,-0.31992 -0.444401,0.10553 0.626842,1.73908 2.196559,3.34955 2.89766,6.3291 2.320601,9.86208 -1.573164,9.63132 -10.270375,17.63718 -22.623684,20.82534 -11.745666,3.03132 -22.666621,-0.32849 -26.660999,-8.20219 -0.848296,-1.67218 -1.017583,-2.5815 -1.017583,-5.46572 0,-2.94961 0.163795,-3.78995 1.11078,-5.69854 1.536319,-3.09636 3.988532,-5.81335 7.832716,-8.67842 4.060069,-3.02597 7.29041,-4.52321 13.036548,-6.04236 3.525901,-0.93217 4.001655,-1.13307 2.238712,-0.9454 -3.173928,0.33789 -9.562491,2.60516 -13.19182,4.68171 -3.84006,2.19711 -7.235704,5.18601 -8.667627,7.62941 -0.600858,1.02528 -1.164578,1.64778 -1.252729,1.38331 -0.313374,-0.94012 1.957352,-4.05987 4.769984,-6.55345 5.639618,-4.9999 13.24368,-8.552 19.879434,-9.28631 2.125716,-0.23524 2.756204,-0.45854 2.862969,-1.01399 0.352743,-1.83534 -9.478801,0.0325 -15.633771,2.97012 -8.74221,4.17248 -14.769184,10.84044 -16.6822607,18.45647 -1.2705897,5.05826 0.262453,10.54275 4.1580967,14.87564 1.016859,1.13099 2.428106,2.44729 3.136114,2.9251 1.063011,0.7174 0.99666,0.59371 -0.380742,-0.70993 -2.881384,-2.72702 -2.782956,-3.04085 0.308313,-0.98309 1.643347,1.09392 4.453225,2.50451 6.244198,3.13464 3.043979,1.07098 3.667666,1.14461 9.565383,1.12922 5.516637,-0.0138 6.820349,-0.15291 10.37948,-1.10319 2.238712,-0.59772 5.535714,-1.84036 7.326686,-2.76142 3.044656,-1.56582 3.190159,-1.60253 2.238713,-0.56481 -0.55969,0.61041 -2.117978,1.6151 -3.462888,2.23263 -2.024535,0.92959 -8.497956,2.99695 -11.80105,3.76879 -0.471615,0.11015 -0.204208,0.21009 0.635657,0.23744 0.797359,0.026 2.880676,-0.32758 4.629604,-0.78567 z M 56.43674,280.67019 c 1.016183,-1.12442 3.011426,-2.53893 3.247849,-2.30251 0.395064,0.39507 -1.512567,2.28611 -2.736604,2.71282 l -1.287728,0.4489 z m -34.839351,9.92719 c -0.335804,-0.12492 -1.114271,-0.48155 -1.729913,-0.79239 -0.615641,-0.31084 -1.119348,-0.47472 -1.119348,-0.36419 0,0.33667 2.198283,1.41654 2.849261,1.39965 0.542721,-0.0138 0.542721,-0.0411 0,-0.24307 z m 17.713105,-8.65766 c 4.580498,-1.29754 9.136181,-3.76997 12.212882,-6.62808 l 2.762295,-2.56605 -2.606608,-1.29422 C 45.952341,268.608 42.33758,264.60556 40.645158,259.23407 l -0.881156,-2.79665 -2.265419,0.35513 c -8.963002,1.40499 -18.263102,8.21375 -19.992707,14.637 -1.356787,5.03872 3.465934,10.19014 10.59818,11.3205 3.097838,0.49097 7.81747,0.14969 11.206438,-0.81033 z m 44.706585,-14.35377 c -1.363663,-1.39918 -2.980165,-3.27664 -3.592253,-4.17214 -0.971753,-1.42171 -1.081257,-1.48849 -0.86368,-0.52675 0.539983,2.38672 1.106272,3.16374 3.764032,5.16483 1.518013,1.14294 2.852554,2.07806 2.965643,2.07806 0.113073,0 -0.910094,-1.14479 -2.273742,-2.544 z m -8.401697,-1.35486 c 1.306573,-1.24216 1.739728,-1.95952 1.720421,-2.84926 -0.02523,-1.16222 -0.03461,-1.16727 -0.412402,-0.22333 -0.726331,1.81452 -2.839908,4.06625 -4.255186,4.53333 -0.776698,0.25633 -1.412169,0.61912 -1.412169,0.80617 0,0.71819 2.691789,-0.68158 4.359336,-2.26691 z m -22.269019,-0.3315 c 0,-0.088 -0.284268,-0.26905 -0.631703,-0.40237 -0.362234,-0.13907 -0.525613,-0.0708 -0.383018,0.15997 0.239038,0.38677 1.014721,0.57207 1.014721,0.2424 z m 20.524321,-5.11678 c 0.660948,-2.90602 0.814405,-4.39355 0.411694,-3.99084 -0.126457,0.12645 -0.496553,1.39338 -0.822373,2.81535 -0.325836,1.42195 -0.866664,3.31805 -1.201869,4.21354 l -0.609426,1.62815 0.790143,-0.92251 c 0.434586,-0.50738 1.078904,-2.19205 1.431831,-3.74369 z m -20.416063,1.72323 c -1.401708,-3.06175 -1.725298,-7.66258 -0.746237,-10.61024 1.40417,-4.22756 6.155878,-7.81595 11.187176,-8.44833 1.762728,-0.22154 2.059088,-0.35874 1.477737,-0.68407 -1.805864,-1.01063 -7.665183,0.85098 -10.481753,3.33022 -1.309865,1.15299 -2.107347,2.35608 -2.951166,4.45218 -1.015706,2.52304 -1.127472,3.21571 -0.919417,5.69746 0.23407,2.79196 1.485691,6.50068 2.660299,7.88287 0.949969,1.11784 0.916155,0.87609 -0.226639,-1.62009 z m -5.81315,-1.1377 c -1.721729,-2.78582 -2.507873,-8.00945 -1.621794,-10.77622 0.241407,-0.75381 0.336404,-0.35119 0.366465,1.55315 0.02231,1.41391 0.246623,2.97083 0.498476,3.45983 0.553951,1.07556 2.015089,2.72074 2.416384,2.72074 0.159579,0 0.360203,-1.23985 0.445831,-2.75525 0.203717,-3.60521 1.697407,-6.661 4.969886,-10.1674 1.570149,-1.68237 2.118916,-2.47778 1.478906,-2.1436 -1.008675,0.52667 -1.011029,0.52393 -0.268268,-0.31315 1.021228,-1.15091 3.286709,-2.19617 5.939992,-2.7406 l 2.211882,-0.45386 -1.703083,-1.7031 c -1.467599,-1.4676 -1.942306,-1.70255 -3.433012,-1.69912 -3.021149,0.008 -8.22678,2.96752 -10.717484,6.0953 -0.689624,0.866 -1.780989,2.73283 -2.42526,4.1485 -0.965754,2.12205 -1.16864,3.10987 -1.155655,5.62671 0.02046,3.96133 0.75596,6.91197 2.230358,8.94732 1.461707,2.01783 1.971998,2.1515 0.766376,0.20075 z m 6.022297,-21.31377 c 1.635024,-1.39936 5.375503,-2.73901 6.444176,-2.30797 0.594258,0.23968 0.264053,0.44232 -1.455645,0.89323 -1.223345,0.32077 -3.032302,1.03484 -4.019885,1.58682 -2.327233,1.3007 -2.627192,1.24741 -0.968646,-0.17208 z m -4.386273,20.10455 c -0.524968,-0.5588 -1.060612,-0.90937 -1.190316,-0.77904 -0.129688,0.13031 0.196594,0.58752 0.7251,1.01598 1.350633,1.09498 1.598087,0.96894 0.465216,-0.23694 z M 68.40343,248.95773 c -0.618472,-1.15564 -2.822616,-2.44497 -4.067038,-2.37903 -0.9514,0.0505 -0.958246,0.0654 -0.105227,0.22985 1.46023,0.28159 3.34323,2.47966 3.883874,4.53375 l 0.495231,1.88153 0.124457,-1.70734 c 0.06846,-0.93905 -0.08061,-2.09049 -0.331251,-2.55876 z m 4.89375,-4.65681 c -0.715223,-2.14927 -1.141917,-2.8092 -2.155177,-3.33317 -0.694854,-0.35932 -2.278265,-1.59205 -3.518686,-2.7394 -2.591455,-2.397 -2.192314,-1.7573 1.68933,2.70742 1.513566,1.74096 3.132314,3.91092 3.597191,4.82215 1.222638,2.39659 1.4212,1.64973 0.387342,-1.457 z m -1.794081,-6.97083 c -0.135842,-0.35411 -0.247053,-0.8857 -0.247053,-1.1813 0,-0.29559 -0.592766,-0.74409 -1.31725,-0.99663 -1.72036,-0.59974 -8.430897,-7.50802 -11.230314,-11.56131 -3.21565,-4.65592 -8.468757,-16.18697 -9.643381,-21.16807 -0.714223,-3.02876 -0.83948,-17.45914 -0.136611,-15.73564 0.228255,0.55967 0.331359,2.02501 0.229116,3.25629 -0.224577,2.70449 0.397003,7.14987 1.195208,8.5478 0.433601,0.75938 0.530613,0.81102 0.382295,0.20352 -0.587119,-2.40503 -0.92757,-8.1703 -0.877325,-14.85689 0.08784,-11.68474 0.90257,-13.6 2.052425,-4.82458 0.333036,2.54158 1.238699,7.36858 2.012597,10.72664 0.789713,3.42669 1.607225,8.42726 1.863247,11.39706 0.41851,4.85464 0.574536,5.50758 1.890016,7.90868 2.730281,4.9835 5.929962,8.49656 9.964647,10.94059 1.789927,1.08425 1.987151,1.09861 1.987151,0.14461 0,-0.41108 -0.892755,-1.46429 -1.983905,-2.34046 -2.487627,-1.99754 -5.600219,-6.29059 -8.296178,-11.44248 -2.065425,-3.94698 -2.083025,-4.01227 -2.263926,-8.40281 -0.174579,-4.23718 -0.149842,-4.40713 0.584073,-4.00602 0.421509,0.23038 1.865386,1.73205 3.208619,3.33703 2.209606,2.64022 8.453789,8.13471 9.24464,8.13471 0.17641,0 0.316021,-0.32055 0.310251,-0.71232 -0.0062,-0.43448 -0.675362,-1.01943 -1.714975,-1.49964 -2.530933,-1.16907 -9.554522,-8.53165 -10.121242,-10.60975 -0.244207,-0.89548 -0.64744,-1.87605 -0.896048,-2.17905 -0.677655,-0.8259 -0.837757,-7.36029 -0.319482,-13.03975 0.562151,-6.16023 1.22793,-7.80143 1.24576,-3.0709 0.0062,1.80582 0.205424,4.32756 0.44137,5.60389 0.368973,1.996 0.334313,2.41526 -0.247838,2.99741 -1.062412,1.06242 -0.614518,4.52673 0.867895,6.71288 l 1.189669,1.7544 0.119073,-3.16783 c 0.06554,-1.74232 0.248669,-3.0879 0.407033,-2.99021 0.158349,0.0977 0.272822,-2.68964 0.254392,-6.19405 -0.04308,-8.18206 0.251577,-13.94092 0.699116,-13.66433 0.193594,0.11969 0.355373,1.44313 0.359496,2.94105 0.01385,5.20257 1.74679,12.76123 3.233234,14.10645 0.721377,0.65282 0.786836,0.64976 1.151271,-0.0539 0.212531,-0.41035 0.620595,-1.67856 0.906816,-2.81824 0.448755,-1.78685 0.428033,-2.34324 -0.150456,-4.04113 -0.9734,-2.85677 -0.788652,-3.54754 0.359219,-1.34316 0.545721,1.048 1.171716,2.01638 1.391109,2.15196 0.219377,0.13553 0.855941,-0.47749 1.414554,-1.36242 1.441076,-2.2828 2.04418,-2.47963 0.997675,-0.3256 -0.99546,2.04895 -0.84048,2.92236 0.638088,3.59605 1.142163,0.5204 2.262188,-0.0705 2.262188,-1.19345 0,-0.97525 4.41315,-8.83878 4.763723,-8.48821 0.106458,0.10646 -0.821866,2.13795 -2.06281,4.51455 -1.24096,2.37659 -2.163069,4.56399 -2.049134,4.86087 0.113996,0.29689 -0.347189,1.00623 -1.02469,1.57632 l -1.231822,1.03651 -1.499505,-1.3735 c -0.824727,-0.7554 -1.649485,-1.28079 -1.832802,-1.16748 -0.425417,0.26291 -1.57558,4.10983 -1.57558,5.26978 0,0.48436 0.340081,1.18839 0.755714,1.56455 0.88054,0.79687 1.10301,0.60835 2.459613,-2.08413 0.479384,-0.95145 0.934477,-1.72991 1.011321,-1.72991 0.07677,0 -0.150303,1.21233 -0.504861,2.69405 l -0.64461,2.69406 1.20893,0.96726 c 1.445677,1.15671 1.772528,1.19753 2.073272,0.259 2.586008,-8.07024 7.295487,-17.69991 12.409152,-25.37352 15.995171,-24.0025 40.238471,-39.64451 68.439391,-44.15776 2.40661,-0.38516 4.37566,-0.85762 4.37566,-1.04992 0,-0.43272 -4.70924,-3.88655 -6.99181,-5.12789 -1.29379,-0.7036 -1.4768,-0.91584 -0.78973,-0.91584 1.25241,0 3.98961,1.44031 6.15339,3.2379 3.02895,2.51635 4.02381,2.86767 8.12054,2.86767 2.02596,0 3.68355,-0.15245 3.68355,-0.33891 0,-0.74123 -3.77601,-3.33527 -6.5126,-4.47404 -0.81968,-0.34109 -0.86679,-0.4288 -0.24219,-0.451 0.75094,-0.0266 0.75205,-0.0534 0.0348,-0.84597 -1.44052,-1.59175 -10.33569,-3.65899 -15.74438,-3.65899 -1.77633,0 -2.72686,-0.15061 -2.56841,-0.40703 0.57521,-0.93073 9.48902,-0.22396 16.0743,1.27448 3.97348,0.90414 6.62969,1.97789 7.20681,2.9133 0.17992,0.29161 1.96201,1.75824 3.96021,3.25918 2.61762,1.96621 3.97753,2.72898 4.86532,2.72898 h 1.23219 l -1.60901,-1.65642 c -1.59847,-1.64559 -7.74578,-6.37962 -9.38548,-7.22775 -2.38495,-1.23361 -8.41282,-3.14004 -14.6106,-4.6209 -6.17588,-1.47561 -7.64156,-1.67745 -13.63578,-1.8779 -4.89036,-0.16355 -6.32884,-0.31799 -5.2915,-0.56817 2.63654,-0.63584 13.77024,-0.49605 17.73988,0.22275 7.60739,1.37746 17.25312,4.57017 22.50754,7.44991 2.4333,1.3336 8.59369,5.82353 11.59795,8.45305 1.1073,0.96917 2.60902,1.69187 2.88626,1.38898 0.27376,-0.29905 -7.51562,-6.99712 -10.38264,-8.928 -5.00339,-3.36966 -7.56401,-4.56697 -16.6704,-7.79482 -3.68306,-1.3055 -14.29129,-3.260714 -21.74397,-4.007659 -7.65892,-0.767606 -17.46096,0.381464 -26.03507,3.052039 -1.7646,0.54961 -3.04676,0.84425 -2.84926,0.65475 0.56595,-0.54305 8.84076,-3.174976 12.0964,-3.847446 4.15481,-0.858203 9.66453,-1.444107 13.61686,-1.448015 7.96864,-0.0077 20.70307,2.162438 27.91892,4.758201 5.09197,1.83174 16.42213,7.59072 20.06169,10.19712 0.70337,0.5037 1.42636,0.91583 1.60664,0.91583 0.62128,0 -7.78657,-5.98456 -10.83292,-7.71068 C 158.1282,94.669203 140.31355,91.72499 121.52528,95.575081 104.45324,99.073476 87.311274,109.34704 73.672392,124.25437 58.73489,140.5811 48.308627,163.55618 45.986487,185.26243 c -0.83245,7.78139 0.09538,19.18925 2.285911,28.1031 1.480029,6.0229 6.797349,18.86927 7.821501,18.89635 0.697408,0.0185 0.680978,-0.062 -0.953062,-4.66748 -2.262219,-6.3759 -5.066697,-16.03408 -5.039144,-17.35409 0.0062,-0.30557 0.896447,1.55083 1.977936,4.12535 3.442904,8.19585 3.885612,8.87711 10.221608,15.72927 5.021514,5.43058 10.016522,9.35798 9.201902,7.23509 z M 55.005879,187.6936 c -1.045428,-2.52232 -1.848664,-6.78735 -2.494074,-13.24334 -0.473754,-4.73885 -0.389925,-5.86034 0.743546,-9.9467 l 0.677408,-2.44222 0.524799,5.90204 c 0.288652,3.24614 0.76939,9.26228 1.068319,13.36922 0.362681,4.98289 0.711285,7.57087 1.047797,7.77885 0.386803,0.23905 0.368096,0.36392 -0.0803,0.53601 -0.409633,0.15718 -0.854895,-0.42769 -1.487444,-1.95386 z m 0.84608,-19.85848 c -1.046859,-2.55 -0.198071,-11.62564 1.351126,-14.44695 0.678393,-1.23548 0.671362,-1.04232 -0.368035,10.0978 -0.449739,4.82032 -0.570443,5.35432 -0.983091,4.34915 z m 2.785895,-6.98361 c 0,-2.01376 1.648731,-10.88366 2.495596,-13.42584 1.058735,-3.17822 3.063516,-6.83807 6.265136,-11.43745 2.275388,-3.26875 4.71317,-6.09466 3.667343,-4.25123 -0.190517,0.33581 -0.933909,1.4348 -1.651993,2.44223 -3.847076,5.3972 -8.255918,16.06457 -9.495432,22.97457 -0.784097,4.37113 -1.28065,5.80487 -1.28065,3.69772 z m 80.221746,-42.1033 c 0.90945,-0.57666 5.87289,-1.89974 11.58549,-3.0883 5.30396,-1.10353 6.25553,-1.2144 5.65804,-0.65919 -0.21268,0.19762 -2.4931,0.76097 -5.06762,1.25188 -3.97405,0.75776 -6.38227,1.2997 -12.00762,2.70213 -0.67611,0.16855 -0.70463,0.13353 -0.16829,-0.20652 z M 70.028685,229.12086 c -0.01077,-0.52028 -0.543428,-1.07855 -2.232466,-2.33912 -0.895494,-0.66834 -2.989596,-2.49897 -4.653557,-4.06807 l -3.02541,-2.85293 1.384986,2.03518 c 2.320479,3.40989 8.556446,8.69397 8.526447,7.22494 z M 54.144368,200.88108 c -0.924632,-2.09796 -2.205036,-5.27981 -2.845354,-7.07079 -1.162332,-3.25106 -1.602994,-3.48779 -0.757683,-0.40703 1.149839,4.1906 4.64688,11.92961 5.159171,11.41732 0.06877,-0.0688 -0.631502,-1.84154 -1.556134,-3.9395 z m 17.925744,-3.56879 c 0,-0.74196 -1.046859,-1.79162 -4.221172,-4.23243 -0.81362,-0.62563 -1.825725,-1.81621 -2.249096,-2.64575 -0.423386,-0.82956 -1.185654,-1.8746 -1.693945,-2.32234 -0.853142,-0.75153 -0.834666,-0.64769 0.240484,1.35151 0.640549,1.19108 1.504582,2.34752 1.920061,2.56989 0.415479,0.22234 1.384925,1.38837 2.15433,2.59116 1.911969,2.98887 3.849338,4.34172 3.849338,2.68796 z m 1.176838,-5.02838 c 0.924386,-2.47098 0.915202,-2.50795 -0.831173,-3.34723 -0.965968,-0.46423 -2.080902,-1.45201 -2.64176,-2.34046 -1.250775,-1.98135 -1.774282,-1.94561 -1.774282,0.12107 0,1.45971 0.275607,1.94731 2.300665,4.07038 1.265374,1.3266 2.368908,2.41201 2.452305,2.41201 0.08338,0 0.305805,-0.41212 0.494245,-0.91583 z m -6.875362,-7.62827 c 0,-0.83473 -0.349466,-1.41822 -1.221114,-2.03889 -1.465707,-1.04368 -1.555196,-0.55458 -0.342743,1.87314 0.9608,1.92381 1.563857,1.98773 1.563857,0.16575 z m 172.051842,-47.258 c 2.28815,-1.10767 4.6666,-3.17771 5.84858,-5.09019 1.30972,-2.11918 0.75846,-2.53636 -1.11498,-0.84382 -1.94942,1.76118 -2.31656,1.86299 -1.67998,0.46583 0.80156,-1.75922 -0.11646,-1.97421 -2.12764,-0.49827 l -1.80331,1.3234 0.90834,-1.47267 c 1.49661,-2.42646 1.03464,-2.57814 -1.11875,-0.36733 -2.5587,2.62691 -5.66732,4.08065 -9.50364,4.44433 l -2.91913,0.27673 2.64575,1.26204 c 1.45517,0.69413 3.01209,1.36331 3.45983,1.48707 1.62568,0.44937 5.50609,-0.0678 7.40493,-0.98712 z m -8.0155,-0.77619 c -0.47774,-0.30874 -0.37282,-0.39593 0.48231,-0.4008 0.60107,-0.003 1.54712,-0.17895 2.10232,-0.39004 0.74751,-0.2842 1.06395,-0.24179 1.21945,0.16341 0.35083,0.91428 -2.60564,1.40191 -3.80408,0.62743 z m 4.68094,-2.0352 c 0.4052,-0.44773 0.82831,-0.81408 0.94025,-0.81408 0.11199,0 -0.128,0.36635 -0.53321,0.81408 -0.40519,0.44774 -0.82832,0.81409 -0.94025,0.81409 -0.112,0 0.12799,-0.36635 0.53321,-0.81409 z m -12.31775,-6.58972 c 0.88878,-0.2663 1.7081,-0.72421 1.82068,-1.0176 0.11261,-0.29339 0.58702,-0.53343 1.0543,-0.53343 0.72021,0 0.63953,-0.15499 -0.52966,-1.0176 -1.6615,-1.22582 -2.44717,-1.33341 -1.41592,-0.1939 0.93826,1.03677 0.63188,1.3351 -2.45094,2.3865 -1.87005,0.63777 -2.16721,0.83611 -1.26834,0.84655 0.64564,0.008 1.90109,-0.20424 2.78988,-0.47052 z m -8.21034,-2.36296 c -2.54996,-2.36767 -3.34774,-2.80695 -2.5683,-1.41415 0.46545,0.83168 4.21156,3.84561 4.77968,3.84548 0.22387,-5e-5 -0.77124,-1.09415 -2.21138,-2.43133 z m 34.31058,0.55308 c 1.03866,-0.1423 1.88645,-0.37133 1.88396,-0.5088 -0.008,-0.39006 -5.14574,-2.48866 -6.09385,-2.48866 -1.04066,0 -3.4785,0.98812 -3.82632,1.55091 -0.15031,0.24317 0.79126,0.65893 2.29077,1.01153 3.13298,0.73672 3.39792,0.75678 5.74544,0.43502 z m -30.44109,-1.78773 c 1.63141,-0.62027 0.84151,-1.00621 -2.05938,-1.00621 -2.72403,0 -3.05059,0.35296 -0.90157,0.97444 1.75534,0.50763 1.71058,0.50716 2.96095,0.0319 z m 19.30435,0.062 c 0,-0.19605 -2.51855,-2.27991 -5.59678,-4.6308 -3.07822,-2.35088 -6.42102,-5.03761 -7.42843,-5.97047 l -1.83168,-1.69615 2.1832,1.54423 c 4.47563,3.1657 5.23282,3.69294 9.12383,6.35316 2.18919,1.49669 4.14744,2.72128 4.35165,2.72128 1.7364,0 -1.2411,-2.92335 -7.86366,-7.72064 -1.68982,-1.2241 -3.00508,-2.29295 -2.92279,-2.37524 0.0823,-0.0823 1.8588,1.0625 3.94779,2.54401 7.45648,5.2881 10.14558,6.83514 10.77934,6.20138 0.41731,-0.41731 -0.24359,-0.98449 -5.36199,-4.60173 -2.81197,-1.98724 -6.15831,-4.35763 -7.43631,-5.26749 -1.27801,-0.90988 -6.81123,-4.82917 -12.29607,-8.70955 -5.48484,-3.880381 -10.7051,-7.646059 -11.60059,-8.368174 -4.14318,-3.341046 -7.15182,-5.079698 -8.79012,-5.079698 -2.34965,0 -4.21083,0.929801 -5.4245,2.709943 l -1.06629,1.563965 1.53489,0.13015 c 2.13541,0.180963 4.91956,2.025534 26.56888,17.602534 3.24677,2.3361 6.63537,4.74125 7.53022,5.34479 0.89483,0.60355 3.7334,2.66059 6.30792,4.57122 4.63014,3.43616 5.29149,3.8278 5.29149,3.13336 z m -38.4651,-28.382774 c -2.46258,-1.65907 -4.5381,-3.19702 -4.61226,-3.417659 -0.2139,-0.636364 1.98532,-1.280313 3.3601,-0.983876 0.68869,0.148457 1.90594,0.600827 2.70499,1.005152 1.79939,0.910509 5.80934,4.046654 5.53058,4.325414 -0.11277,0.112766 -1.45537,-0.533044 -2.98363,-1.435046 -2.80903,-1.657915 -5.03647,-2.476535 -4.9945,-1.835556 0.0205,0.313098 3.36534,3.253172 5.47215,4.809952 0.44774,0.330851 0.6309,0.58952 0.40703,0.574828 -0.22387,-0.01538 -2.42188,-1.38414 -4.88446,-3.043209 z m 70.83265,26.500124 c 45.53216,-7.59449 98.3579,-16.8798 100.35762,-17.64009 0.56116,-0.21336 1.24933,-0.66388 1.52924,-1.00117 0.43137,-0.51975 0.14969,-0.82943 -1.8484,-2.03164 -1.29654,-0.78013 -3.36475,-1.921551 -4.59605,-2.536485 -1.23129,-0.614949 -4.25354,-2.258111 -6.71612,-3.651482 -12.24408,-6.927914 -24.35295,-13.535424 -27.27157,-14.881411 -5.71208,-2.634253 -7.72907,-2.846677 -17.21493,-1.813034 -3.06857,0.334374 -11.89847,1.154886 -19.62202,1.823357 -7.72353,0.668486 -17.06506,1.498459 -20.75894,1.844386 -21.87215,2.048303 -55.25243,4.997008 -64.71905,5.717062 -1.67903,0.127688 -3.48542,0.321405 -4.01422,0.430417 -0.93405,0.192578 -0.91665,0.237977 0.61055,1.592994 0.8646,0.767114 3.12822,2.452783 5.03027,3.745895 1.90204,1.293127 5.19904,3.644636 7.32668,5.225584 2.12763,1.580947 7.25702,5.235847 11.39864,8.122017 4.1416,2.88615 8.90395,6.2811 10.58298,7.54432 6.8923,5.18544 14.20358,9.72777 15.679,9.741 0.45215,0.005 6.86301,-1.00022 14.24632,-2.23172 z m -17.9177,-1.50139 c -1.5433,-0.81067 -9.71531,-6.4929 -10.58299,-7.35867 -0.22387,-0.22338 0.41721,0.0568 1.42464,0.62253 1.00742,0.56577 3.13649,1.7583 4.73127,2.65007 2.84932,1.59328 5.67761,2.66965 8.09043,3.07901 1.85034,0.31392 9.44252,-0.41178 20.91044,-1.99874 5.68011,-0.78604 10.51654,-1.36612 10.74763,-1.2891 0.23108,0.0771 -1.66877,0.46462 -4.2219,0.86131 -2.55312,0.3967 -9.58084,1.53206 -15.61717,2.52305 -6.03631,0.99096 -11.62292,1.79366 -12.41466,1.78377 -0.79174,-0.009 -2.17221,-0.40285 -3.06769,-0.87323 z m 36.53942,-4.68236 c 0.39604,-0.10323 0.94553,-0.0965 1.22112,0.0154 0.27557,0.11154 -0.0485,0.19594 -0.72007,0.18764 -0.67161,-0.008 -0.8971,-0.0995 -0.50105,-0.20273 z m 40.18726,-6.74012 c 0.11199,-0.11877 2.30994,-0.60966 4.88445,-1.09101 13.50995,-2.52589 25.48841,-5.02152 25.95303,-5.4071 0.77183,-0.64058 -0.25816,-1.61555 -4.2611,-4.033443 -1.85637,-1.121302 -3.37521,-2.106147 -3.37521,-2.188575 0,-0.40791 13.0033,6.173448 13.01344,6.586498 0.0155,0.63122 -1.65921,0.9538 -18.50845,3.56508 -7.83548,1.21435 -15.07059,2.3376 -16.078,2.49614 -1.00743,0.15853 -1.7401,0.19111 -1.62816,0.0725 z M 220.95178,99.063495 c -1.50702,-0.946661 -4.41405,-2.728635 -6.46007,-3.959918 -3.58463,-2.157222 -5.16008,-3.634621 -4.68887,-4.397058 0.12323,-0.199347 4.48921,-0.476107 9.70224,-0.614995 9.70211,-0.2585 26.76722,-1.374479 38.37792,-2.509735 10.59508,-1.035951 14.06188,-1.131671 7.12317,-0.19667 -19.9663,2.690467 -43.47077,4.768815 -48.05654,4.249324 -1.78958,-0.202732 -2.37649,-0.121996 -2.79734,0.385172 -0.74013,0.891802 -0.36754,1.267344 5.11834,5.159049 3.97209,2.817816 5.02276,3.657516 4.52293,3.614726 -0.056,-0.005 -1.33477,-0.78323 -2.84178,-1.729895 z M 335.37169,88.179139 c -2.08547,-1.218253 -7.68266,-3.082546 -11.75203,-3.914319 -5.34079,-1.091673 -12.29725,-1.267267 -20.94094,-0.528583 -9.21838,0.787774 -6.75565,0.166164 3.84533,-0.9706 12.88171,-1.381339 14.28613,-1.383078 18.24835,-0.02277 3.03457,1.041859 11.87248,5.2462 11.87248,5.64794 0,0.306683 -0.53926,0.217009 -1.27319,-0.211716 z m -63.7434,-1.90543 c 0.39603,-0.103228 0.94552,-0.09646 1.22112,0.01538 0.27557,0.111535 -0.0485,0.195932 -0.72007,0.18764 -0.67161,-0.0077 -0.89708,-0.09953 -0.50105,-0.202717 z m -48.68066,35.424501 c 0.22501,-2.44192 -0.44335,-1.58996 -0.85035,1.08396 -0.21207,1.39322 -0.16538,1.71835 0.19507,1.35827 0.26064,-0.26038 0.55552,-1.35937 0.65528,-2.44223 z m -10.34762,0.59778 c -0.49126,-0.49128 -0.99861,-0.78784 -1.12742,-0.65902 -0.30444,0.30443 0.94335,1.55224 1.55224,1.55224 0.25762,0 0.0665,-0.40196 -0.42482,-0.89322 z m 2.77845,-0.64115 c -0.9904,-0.83513 -2.57133,-2.06792 -3.51316,-2.73954 -3.49799,-2.49438 -6.52962,-4.83195 -7.86076,-6.06111 l -1.37056,-1.26558 0.62817,1.22112 c 0.81868,1.59145 3.35853,4.16042 4.90285,4.95901 0.67075,0.34685 2.42383,1.47939 3.89575,2.51676 3.21881,2.26851 4.17396,2.85071 4.71141,2.8718 0.22387,0.009 -0.4033,-0.66732 -1.3937,-1.50246 z m 4.00314,0.65244 c -0.21966,-0.41042 -0.48451,-0.74622 -0.58857,-0.74622 -0.104,0 -0.18919,0.3358 -0.18919,0.74622 0,0.41044 0.26485,0.74624 0.58856,0.74624 0.4446,0 0.49088,-0.18253 0.1892,-0.74624 z m -10.82422,-1.66207 c -0.32415,-0.95144 -0.85224,-1.99812 -1.1735,-2.32592 -0.51039,-0.52075 -0.58415,-0.45469 -0.58415,0.52312 0,1.0198 -0.0812,1.08001 -0.91584,0.67842 -0.5037,-0.24239 -0.0915,0.30018 0.91584,1.2057 1.00741,0.90551 1.94762,1.64689 2.08934,1.6475 0.14169,6e-4 -0.008,-0.77736 -0.33169,-1.72882 z m 6.94342,-1.4348 c -0.92313,-0.83392 -2.35653,-1.97413 -3.18536,-2.53381 -0.82882,-0.55969 -2.32848,-1.70448 -3.33257,-2.54399 -1.00409,-0.83951 -1.95186,-1.52215 -2.10615,-1.51695 -0.40994,0.0138 3.22444,3.28012 4.97143,4.46798 0.82312,0.55967 2.26775,1.6111 3.21029,2.3365 2.29271,1.76455 2.51248,1.66035 0.44236,-0.20973 z m -12.43608,-2.02927 c -0.56644,-0.6133 -1.26971,-2.03093 -1.56282,-3.1503 -0.2931,-1.11935 -0.8695,-2.52138 -1.28089,-3.1156 -0.41138,-0.59425 -0.74797,-1.3619 -0.74797,-1.7059 0,-0.34401 -0.18316,-0.73867 -0.40703,-0.87702 -0.80312,-0.49635 -0.39165,1.98992 0.61304,3.70431 0.56104,0.95734 1.04984,2.2556 1.08621,2.88501 0.0434,0.75049 0.5679,1.58669 1.5239,2.42934 1.73116,1.52594 2.23904,1.41471 0.77556,-0.16984 z m -5.37659,-3.6591 c -0.11646,-0.39177 -0.33144,-1.21474 -0.47789,-1.82885 -0.29004,-1.21623 -0.77513,-1.1871 -1.10289,0.0663 -0.2204,0.84279 0.69033,2.4749 1.38101,2.4749 0.22626,0 0.31616,-0.32054 0.19977,-0.71233 z m 4.46064,-3.67302 c -0.70326,-0.67171 -0.71418,-0.66079 -0.24807,0.24807 0.26816,0.52288 0.59919,0.83907 0.73564,0.70263 0.13645,-0.13646 -0.0829,-0.56426 -0.48757,-0.9507 z m -9.78416,-2.60184 c 1.46052,-1.28235 4.61819,-6.85211 3.88467,-6.85211 -0.21159,0 -0.4952,0.34806 -0.63021,0.77346 -0.59946,1.88871 -3.42373,5.6201 -4.63294,6.12098 -0.69941,0.28969 -1.17159,0.68864 -1.04929,0.88652 0.37736,0.61057 0.90392,0.40911 2.42777,-0.92885 z m 3.38072,-1.96765 c 0.49655,-0.67161 0.75365,-1.22112 0.57135,-1.22112 -0.1823,0 -0.65606,0.54951 -1.0528,1.22112 -0.39672,0.67162 -0.65382,1.22111 -0.57133,1.22111 0.0825,0 0.55624,-0.54949 1.05278,-1.22111 z m -8.54248,-3.02841 c 1.15183,-1.2179 2.09424,-2.435972 2.09424,-2.706825 0,-0.270868 -0.52995,0.2391 -1.17767,1.133245 -0.64772,0.89414 -1.79251,2.11017 -2.54398,2.70229 -0.75148,0.59214 -1.16394,1.07863 -0.91657,1.08111 0.24736,0.003 1.39216,-0.99194 2.54398,-2.20982 z"
       id="path11" /></g><metadata
     id="metadata182"><rdf:RDF><cc:Work
         rdf:about=""><cc:license
           rdf:resource="http://creativecommons.org/licenses/by-sa/4.0/" /><dc:publisher><cc:Agent><dc:title>OpenDataKerala.org</dc:title></cc:Agent></dc:publisher><dc:date>April 2026</dc:date><dc:title>Election Symbols of Kerala</dc:title><dc:creator><cc:Agent><dc:title>Manoj Karingamadathil</dc:title></cc:Agent></dc:creator></cc:Work><cc:License
         rdf:about="http://creativecommons.org/licenses/by-sa/4.0/"><cc:permits
           rdf:resource="http://creativecommons.org/ns#Reproduction" /><cc:permits
           rdf:resource="http://creativecommons.org/ns#Distribution" /><cc:requires
           rdf:resource="http://creativecommons.org/ns#Notice" /><cc:requires
           rdf:resource="http://creativecommons.org/ns#Attribution" /><cc:permits
           rdf:resource="http://creativecommons.org/ns#DerivativeWorks" /><cc:requires
           rdf:resource="http://creativecommons.org/ns#ShareAlike" /></cc:License></rdf:RDF></metadata></svg>
