<?xml version="1.0" encoding="UTF-8" standalone="no"?>
<!-- Created with Inkscape (http://www.inkscape.org/) -->

<svg
   width="1500"
   height="1500"
   viewBox="0 0 396.87499 396.875"
   version="1.1"
   id="svg5"
   xml:space="preserve"
   inkscape:version="1.3 (0e150ed6c4, 2023-07-21)"
   sodipodi:docname="Window.svg"
   inkscape:export-filename="Pressure Cooker.png"
   inkscape:export-xdpi="96"
   inkscape:export-ydpi="96"
   xmlns:inkscape="http://www.inkscape.org/namespaces/inkscape"
   xmlns:sodipodi="http://sodipodi.sourceforge.net/DTD/sodipodi-0.dtd"
   xmlns="http://www.w3.org/2000/svg"
   xmlns:svg="http://www.w3.org/2000/svg"
   xmlns:rdf="http://www.w3.org/1999/02/22-rdf-syntax-ns#"
   xmlns:cc="http://creativecommons.org/ns#"
   xmlns:dc="http://purl.org/dc/elements/1.1/"><title
     id="title186">Election Symbols of Kerala</title><sodipodi:namedview
     id="namedview7"
     pagecolor="#ffffff"
     bordercolor="#000000"
     borderopacity="0.25"
     inkscape:showpageshadow="2"
     inkscape:pageopacity="0.0"
     inkscape:pagecheckerboard="0"
     inkscape:deskcolor="#d1d1d1"
     inkscape:document-units="mm"
     showgrid="false"
     inkscape:zoom="0.25"
     inkscape:cx="230"
     inkscape:cy="1082"
     inkscape:window-width="1920"
     inkscape:window-height="991"
     inkscape:window-x="-9"
     inkscape:window-y="-9"
     inkscape:window-maximized="1"
     inkscape:current-layer="layer1" /><defs
     id="defs2"><inkscape:path-effect
       effect="bspline"
       id="path-effect3248"
       is_visible="true"
       lpeversion="1"
       weight="33.333333"
       steps="2"
       helper_size="0"
       apply_no_weight="true"
       apply_with_weight="true"
       only_selected="false" /><inkscape:path-effect
       effect="bspline"
       id="path-effect577"
       is_visible="true"
       lpeversion="1"
       weight="33.333333"
       steps="2"
       helper_size="0"
       apply_no_weight="true"
       apply_with_weight="true"
       only_selected="false" /></defs><g
     inkscape:label="Layer 1"
     inkscape:groupmode="layer"
     id="layer1"><path
       style="fill:#000000;stroke-width:1.7748"
       d="M 8.910187,337.42881 7.672903,336.45556 V 190.032 c 0,-140.785088 0.03283,-146.464126 0.852862,-147.476808 0.91175,-1.125969 2.9902,-1.458122 13.484499,-2.154979 5.580608,-0.370579 4.093663,-1.000508 17.359453,7.354111 11.057603,6.963922 22.930974,14.211634 28.793403,17.575961 l 3.905552,2.241323 3.607776,-1.681853 c 1.984261,-0.925025 5.298255,-2.166746 7.364406,-2.759369 4.35257,-1.248429 5.574768,-1.254038 84.290016,-0.387137 23.63174,0.260257 64.73192,0.697603 91.33376,0.97188 54.01045,0.556861 50.44484,0.316678 59.48517,4.007142 l 4.07448,1.663306 1.95803,-0.99891 c 2.24194,-1.143769 17.142,-10.601657 31.90723,-20.253299 12.03083,-7.864242 12.12614,-7.916066 14.56051,-7.916066 4.74251,0 15.73067,1.466357 16.55094,2.208702 0.80312,0.726798 0.83923,7.132013 0.82984,147.150346 -0.009,141.49885 -0.0387,146.42618 -0.87481,147.4587 -0.82521,1.01907 -1.23388,1.07782 -8.88225,1.27681 -4.40949,0.11465 -8.55521,0.0737 -9.2127,-0.0914 -1.14592,-0.28761 -13.71664,-9.46238 -22.58455,-16.48338 -3.86152,-3.05729 -17.14469,-12.93081 -22.33464,-16.60158 l -2.14259,-1.51543 -3.05988,1.43187 c -1.68294,0.78755 -5.13059,1.95718 -7.66145,2.59918 l -4.60158,1.16728 H 197.61012 88.543867 l -4.398769,-1.14289 c -2.419335,-0.6286 -5.55931,-1.6831 -6.977747,-2.34333 -1.418438,-0.66024 -2.983296,-1.20249 -3.477471,-1.20501 -0.94343,-0.005 -4.983406,2.94836 -27.276428,19.9388 -7.489848,5.70831 -14.867334,11.26916 -16.394442,12.35743 l -2.776532,1.97869 h -8.547504 c -7.936245,0 -8.635978,-0.0696 -9.784787,-0.97325 z m 15.372778,-4.98919 c 0.324558,-2.36794 0.409997,-287.724462 0.08625,-288.048221 -0.106487,-0.106488 -3.008657,0.02023 -6.449247,0.281448 l -6.2556,0.475078 -0.120154,144.161765 c -0.0662,79.28896 -0.01988,144.42588 0.102584,144.74872 0.162394,0.42773 1.865882,0.58698 6.278352,0.58698 h 6.055473 z m 359.795955,-142.50951 0.0359,-144.480523 -0.97499,-0.25841 c -0.53624,-0.142162 -3.45791,-0.4002 -6.49259,-0.573473 l -5.51758,-0.315063 V 189.16096 c 0,79.67209 0.14677,145.00506 0.32605,145.18438 0.17932,0.17933 3.08486,0.26738 6.45675,0.19566 l 6.13071,-0.13045 z M 37.333952,325.65117 c 3.529188,-2.67216 8.112642,-6.12632 10.18543,-7.67594 l 3.768716,-2.81749 0.02804,-127.5299 0.02804,-127.529911 -2.230514,-1.421721 c -6.25418,-3.986394 -8.37991,-5.30665 -14.322257,-8.895258 l -6.456756,-3.899252 -0.01597,1.511437 c -0.0089,0.831298 -0.0089,58.988305 -1.59e-4,129.237835 0.0089,70.2495 0.01597,134.0273 0.01597,141.72842 l 1.59e-4,14.00205 1.291344,-0.92592 c 0.71024,-0.50924 4.178872,-3.1122 7.708078,-5.78435 z M 367.37293,189.07488 c 0,-78.51416 -0.14003,-142.752996 -0.31108,-142.752996 -0.17109,0 -1.38614,0.677937 -2.70009,1.50652 -3.3212,2.09437 -18.32551,11.727057 -18.48699,11.868544 -0.0728,0.06372 -0.12228,57.653132 -0.11021,127.976532 0.0186,108.56224 0.12033,127.93861 0.67444,128.37686 0.93523,0.73972 14.06788,10.95993 17.41213,13.55063 1.54961,1.20045 2.97598,2.1926 3.16968,2.20478 0.19371,0.0124 0.35218,-64.21669 0.35218,-142.73087 z m -22.53995,-1.66685 c 0,-106.496321 -0.1024,-126.984621 -0.63362,-126.669825 -0.34848,0.206534 -6.05391,3.841234 -12.67872,8.077129 l -12.0451,7.701617 V 186.5481 296.57923 l 1.05656,0.60198 c 1.45682,0.83003 4.20095,2.81749 14.60888,10.5806 4.93423,3.68035 9.13346,6.69155 9.33165,6.69155 0.19819,0 0.36035,-57.1704 0.36035,-127.04533 z M 57.090307,310.57931 c 2.401623,-1.87247 8.00793,-6.13112 12.458469,-9.46368 l 8.091896,-6.0592 V 185.58408 76.111729 L 68.026247,70.256258 C 62.738304,67.035761 57.032892,63.515624 55.347525,62.433742 L 52.283228,60.466679 V 187.22524 c 0,69.71718 0.09903,126.75854 0.220234,126.75854 0.121219,0 2.185222,-1.53202 4.586845,-3.40447 z M 312.197,303.48687 c 2.06617,-0.73704 4.35387,-1.64886 5.08379,-2.02629 l 1.32712,-0.68622 -7.1969,-5.12156 -7.1969,-5.12155 -106.59519,-0.005 -106.595161,-0.005 -4.461029,3.26719 c -2.453572,1.79695 -5.701259,4.11885 -7.217097,5.15975 l -2.756086,1.89257 2.286492,1.02916 c 1.257569,0.56603 3.976988,1.50158 6.043156,2.07901 l 3.756646,1.04987 109.882249,-0.085 109.88226,-0.085 z m 6.22392,-171.40899 -0.11927,-54.724395 -6.47223,4.205032 -6.47221,4.205014 0.13293,100.009689 c 0.13187,99.29541 0.1395,100.01638 1.07201,100.94537 0.51656,0.51462 3.36927,2.70218 6.33937,4.86126 l 5.4002,3.92559 0.11927,-54.35158 c 0.0657,-29.89337 0.0657,-78.97755 0,-109.07598 z M 84.33328,290.03762 89.382353,286.28648 89.263797,184.79856 89.145418,83.310652 84.214795,80.296812 79.284189,77.28299 78.973138,79.529158 c -0.433814,3.132681 -0.474351,214.262922 -0.04118,214.261102 0.193701,-8.2e-4 2.624271,-1.68951 5.401264,-3.75264 z m 41.20477,-53.06534 V 190.01405 H 110.981 96.423958 v 46.64517 c 0,25.65485 0.140919,46.78605 0.313057,46.95824 0.172155,0.17216 6.722855,0.31304 14.557045,0.31304 h 14.24399 z m 26.29661,0 V 190.01405 H 140.3299 128.82514 v 46.64517 c 0,25.65485 0.14092,46.78605 0.31305,46.95824 0.17216,0.17216 5.34932,0.31304 11.50477,0.31304 h 11.1917 z m 26.29661,0 V 190.01405 H 166.8613 155.59133 v 46.95823 46.95822 h 11.26997 11.26997 z m 19.72246,-51.65404 V 86.70595 l -6.92635,-0.0071 c -3.80948,-0.0035 -7.40178,-0.133819 -7.98289,-0.289558 l -1.05657,-0.283152 v 98.90185 98.90182 h 7.9829 7.98291 z m 17.25824,0.11731 -0.11856,-98.494883 -6.69156,-0.13027 -6.69154,-0.130271 v 98.312114 c 0,54.07167 0.14091,98.453 0.31305,98.62519 0.17216,0.17215 3.2367,0.31304 6.81005,0.31304 h 6.49699 z m 25.00415,51.53666 v -46.95823 h -10.56559 -10.5656 l -0.0389,1.99573 c -0.21273,10.91895 -0.29128,85.92706 -0.0926,88.51627 l 0.26111,3.40445 h 10.50083 10.50083 z m 25.82704,0 v -46.95823 h -11.03519 -11.03519 v 46.95823 46.95822 h 11.03519 11.03519 z m 32.75562,-0.11732 0.11962,-46.84084 -14.67672,-1e-4 -14.67672,-9e-5 0.10188,13.73538 c 0.0559,7.55445 0.10879,28.68876 0.11731,46.96511 l 0.016,33.22973 14.43966,-0.12424 14.43966,-0.12423 z m -172.32837,-58.93258 0.12797,-8.56988 h -14.75221 c -13.01888,0 -14.78567,0.0873 -15.037215,0.74278 -0.322232,0.83973 -0.396703,15.89399 -0.08022,16.21051 0.1127,0.1127 6.821835,0.20071 14.909235,0.19565 l 14.70439,-0.009 z m 49.99993,8.48966 1.76093,-0.23713 v -8.4112 -8.41121 h -25.12265 -25.12265 v 8.42413 8.42414 l 1.76093,0.17842 c 2.69426,0.27298 44.72073,0.30253 46.72344,0.0328 z m 90.87476,-8.48966 0.12796,-8.56988 h -24.42307 -24.42306 l 0.20064,8.56988 c 0.11039,4.71344 0.2134,8.62462 0.22898,8.69153 0.016,0.0669 10.8581,0.0669 24.09445,0 l 24.0661,-0.12157 z m 29.4827,8.54127 2.10734,-0.316 -0.12796,-8.28018 -0.12797,-8.28017 -14.90923,-0.12406 -14.90924,-0.12406 v 8.38082 c 0,4.60946 0.096,8.47685 0.2134,8.59422 0.35422,0.35421 25.48575,0.48943 27.75374,0.14926 z m -174.07612,-20.6999 2.88637,-0.30169 V 125.68574 85.909508 l -5.00366,-0.306152 c -2.75202,-0.168429 -9.30268,-0.306153 -14.55704,-0.306153 h -9.553392 v 40.140297 40.1403 l 10.448212,0.13577 c 5.74651,0.0747 10.9983,0.1844 11.67067,0.24377 0.67234,0.0593 2.52133,-0.0279 4.10884,-0.19374 z m 29.18298,-39.8476 V 85.766779 H 140.3299 128.82514 v 40.149301 40.14928 h 11.50476 11.50476 z m 23.12693,39.84325 3.16968,-0.29936 V 125.84817 86.236373 H 166.8613 155.59133 v 39.653967 39.65397 l 2.23051,0.17588 c 4.06566,0.32058 13.9214,0.34309 17.13975,0.0392 z m 65.15453,-39.24449 V 87.175526 h -10.56559 -10.5656 l -0.0266,8.335096 c -0.0142,4.584288 -0.12175,22.140998 -0.23807,39.014878 -0.11625,16.87387 -0.1072,30.84848 0.0202,31.05468 0.12743,0.20618 4.98909,0.35217 10.80367,0.32443 l 10.57196,-0.0504 z m 25.82704,0.34039 V 87.64512 h -11.03519 -11.03519 v 39.21011 39.21013 h 11.03519 11.03519 z m 32.75607,0.42372 0.12015,-38.551611 -5.00639,-0.30633 c -2.75349,-0.168428 -9.3054,-0.306312 -14.55976,-0.306312 h -9.55339 l -0.0852,14.909233 c -0.20281,35.51736 -0.20137,53.26157 0.005,57.73804 l 0.22063,4.79263 2.86479,0.16896 c 1.57563,0.0928 8.04194,0.15494 14.36956,0.13791 l 11.50476,-0.0309 z M 311.0815,77.26258 c 4.10018,-2.611156 7.45457,-4.882757 7.45421,-5.048008 -9e-4,-0.418498 -4.54673,-2.227498 -8.59065,-3.418654 -3.2906,-0.969253 -4.53133,-1.006755 -45.41065,-1.372364 -23.1152,-0.206728 -64.53236,-0.597734 -92.03812,-0.868888 -79.35067,-0.782261 -83.277431,-0.776226 -87.107519,0.13382 -3.262809,0.775321 -10.236527,3.130125 -9.989884,3.373272 0.07081,0.06975 3.483718,2.152725 7.584339,4.628818 l 7.455683,4.501992 14.849481,0.0035 c 8.16722,0.0016 28.05647,0.207616 44.19836,0.457774 16.1419,0.25014 46.04254,0.695278 66.44588,0.989185 20.40336,0.293924 45.23252,0.68564 55.17592,0.870503 9.94342,0.184863 21.32773,0.372335 25.2985,0.416599 l 7.21959,0.08058 z"
       id="path7" /></g><metadata
     id="metadata182"><rdf:RDF><cc:Work
         rdf:about=""><cc:license
           rdf:resource="http://creativecommons.org/licenses/by-sa/4.0/" /><dc:publisher><cc:Agent><dc:title>OpenDataKerala.org</dc:title></cc:Agent></dc:publisher><dc:date>April 2026</dc:date><dc:title>Election Symbols of Kerala</dc:title><dc:creator><cc:Agent><dc:title>Manoj Karingamadathil</dc:title></cc:Agent></dc:creator></cc:Work><cc:License
         rdf:about="http://creativecommons.org/licenses/by-sa/4.0/"><cc:permits
           rdf:resource="http://creativecommons.org/ns#Reproduction" /><cc:permits
           rdf:resource="http://creativecommons.org/ns#Distribution" /><cc:requires
           rdf:resource="http://creativecommons.org/ns#Notice" /><cc:requires
           rdf:resource="http://creativecommons.org/ns#Attribution" /><cc:permits
           rdf:resource="http://creativecommons.org/ns#DerivativeWorks" /><cc:requires
           rdf:resource="http://creativecommons.org/ns#ShareAlike" /></cc:License></rdf:RDF></metadata></svg>
